<?xml version="1.0" encoding="UTF-8" standalone="no"?>
<!DOCTYPE svg PUBLIC "-//W3C//DTD SVG 1.1//EN" "http://www.w3.org/Graphics/SVG/1.1/DTD/svg11.dtd">
<!-- Generated by Microsoft Visio, SVG Export Bag-#1.svg Page-1 -->
<svg xmlns="http://www.w3.org/2000/svg" xmlns:xlink="http://www.w3.org/1999/xlink" xmlns:ev="http://www.w3.org/2001/xml-events"
		xmlns:v="http://schemas.microsoft.com/visio/2003/SVGExtensions/" width="0.784589in" height="0.68687in"
		viewBox="0 0 56.4904 49.4546" xml:space="preserve" color-interpolation-filters="sRGB" class="st4">
	<v:documentProperties v:langID="1033" v:metric="true" v:viewMarkup="false"/>

	<style type="text/css">
	<![CDATA[
		.st1 {fill:#e5e5e5;stroke:none;stroke-width:0.75}
		.st2 {fill:#353d44;stroke:none;stroke-width:0.75}
		.st3 {fill:#4b565e;stroke:none;stroke-width:0.75}
		.st4 {fill:none;fill-rule:evenodd;font-size:12px;overflow:visible;stroke-linecap:square;stroke-miterlimit:3}
	]]>
	</style>

	<g v:mID="0" v:index="1" v:groupContext="foregroundPage">
		<title>Page-1</title>
		<v:pageProperties v:drawingScale="1" v:pageScale="1" v:drawingUnits="0" v:shadowOffsetX="9" v:shadowOffsetY="-9"/>
		<g id="group15943-1" transform="translate(0.75,-0.75)" v:mID="15943" v:groupContext="group">
			<title>Bag #1</title>
			<g id="shape15944-2" v:mID="15944" v:groupContext="shape" transform="translate(5.18547,-37.9242)">
				<title>Sheet.15944</title>
				<rect x="0" y="47.9087" width="7.90749" height="1.54587" class="st1"/>
			</g>
			<g id="shape15945-4" v:mID="15945" v:groupContext="shape" transform="translate(41.8975,-37.9242)">
				<title>Sheet.15945</title>
				<rect x="0" y="47.9087" width="7.85578" height="1.54587" class="st1"/>
			</g>
			<g id="shape15946-6" v:mID="15946" v:groupContext="shape" transform="translate(41.8975,-2.13163E-14)">
				<title>Sheet.15946</title>
				<rect x="0" y="47.9087" width="7.85578" height="1.54587" class="st1"/>
			</g>
			<g id="shape15947-8" v:mID="15947" v:groupContext="shape" transform="translate(5.21141,-2.13163E-14)">
				<title>Sheet.15947</title>
				<rect x="0" y="47.9087" width="7.85578" height="1.54587" class="st1"/>
			</g>
			<g id="shape15948-10" v:mID="15948" v:groupContext="shape" transform="translate(7.52845,-37.9242)">
				<title>Sheet.15948</title>
				<rect x="0" y="47.9087" width="0.654648" height="1.54587" class="st2"/>
			</g>
			<g id="shape15949-12" v:mID="15949" v:groupContext="shape" transform="translate(46.7556,-37.9242)">
				<title>Sheet.15949</title>
				<rect x="0" y="47.9087" width="0.654648" height="1.54587" class="st2"/>
			</g>
			<g id="shape15950-14" v:mID="15950" v:groupContext="shape" transform="translate(17.0208,-29.2207)">
				<title>Sheet.15950</title>
				<path d="M16.97 49.45 L3.93 49.45 C1.76 49.45 0 47.69 0 45.53 L0 34.65 C0 32.48 1.76 30.72 3.93 30.72 L16.97 30.72
							 C19.13 30.72 20.9 32.48 20.9 34.65 L20.9 45.53 C20.9 47.69 19.13 49.45 16.97 49.45 ZM3.93 33.34 C3.21
							 33.34 2.62 33.93 2.62 34.65 L2.62 45.53 C2.62 46.25 3.21 46.84 3.93 46.84 L16.97 46.84 C17.69 46.84
							 18.28 46.25 18.28 45.53 L18.28 34.65 C18.28 33.93 17.69 33.34 16.97 33.34 L3.93 33.34 Z" class="st3"/>
			</g>
			<g id="shape15951-16" v:mID="15951" v:groupContext="shape" transform="translate(0,-0.763974)">
				<title>Sheet.15951</title>
				<path d="M54.99 46.84 C54.99 48.28 53.81 49.45 52.37 49.45 L2.62 49.45 C1.18 49.45 0 48.28 0 46.84 L0 14.25 C0 12.81
							 1.18 11.63 2.62 11.63 L52.37 11.63 C53.81 11.63 54.99 12.81 54.99 14.25 L54.99 46.84 Z" class="st2"/>
			</g>
			<g id="shape15952-18" v:mID="15952" v:groupContext="shape" transform="translate(5.23718,-0.772976)">
				<title>Sheet.15952</title>
				<rect x="0" y="11.6487" width="7.85578" height="37.8059" class="st3"/>
			</g>
			<g id="shape15953-20" v:mID="15953" v:groupContext="shape" transform="translate(41.8975,-0.772976)">
				<title>Sheet.15953</title>
				<rect x="0" y="11.6487" width="7.85578" height="37.8059" class="st3"/>
			</g>
		</g>
	</g>
</svg>
