<?xml version="1.0" encoding="UTF-8" standalone="no"?>
<!DOCTYPE svg PUBLIC "-//W3C//DTD SVG 1.1//EN" "http://www.w3.org/Graphics/SVG/1.1/DTD/svg11.dtd">
<!-- Generated by Microsoft Visio, SVG Export bag-#2.svg Page-1 -->
<svg xmlns="http://www.w3.org/2000/svg" xmlns:xlink="http://www.w3.org/1999/xlink" xmlns:ev="http://www.w3.org/2001/xml-events"
		xmlns:v="http://schemas.microsoft.com/visio/2003/SVGExtensions/" width="0.889667in" height="0.698771in"
		viewBox="0 0 64.056 50.3115" xml:space="preserve" color-interpolation-filters="sRGB" class="st5">
	<v:documentProperties v:langID="1033" v:metric="true" v:viewMarkup="false"/>

	<style type="text/css">
	<![CDATA[
		.st1 {fill:#0f303f;stroke:none;stroke-width:1.02}
		.st2 {fill:#2d5972;stroke:none;stroke-width:1.02}
		.st3 {fill:#fdc015;stroke:none;stroke-width:1.02}
		.st4 {fill:#f99b1f;stroke:none;stroke-width:1.02}
		.st5 {fill:none;fill-rule:evenodd;font-size:12px;overflow:visible;stroke-linecap:square;stroke-miterlimit:3}
	]]>
	</style>

	<g v:mID="0" v:index="1" v:groupContext="foregroundPage">
		<title>Page-1</title>
		<v:pageProperties v:drawingScale="1" v:pageScale="1" v:drawingUnits="0" v:shadowOffsetX="9" v:shadowOffsetY="-9"/>
		<g id="group15919-1" transform="translate(1.02,-1.02)" v:mID="15919" v:groupContext="group">
			<title>Bag #2</title>
			<g id="group15920-2" transform="translate(20.706,-44.064)" v:mID="15920" v:groupContext="group">
				<title>Sheet.15920</title>
				<g id="shape15921-3" v:mID="15921" v:groupContext="shape">
					<title>Sheet.15921</title>
					<path d="M20.2 49.5 C19.99 50.01 19.48 50.31 19.07 50.11 C13.46 47.56 7.04 47.56 1.43 50.11 C1.02 50.31 0.61
								 50.01 0.31 49.5 C0.31 49.5 0.31 49.39 0.2 49.39 C0 48.88 0.1 48.27 0.51 48.17 C6.63 45.42 13.77
								 45.42 19.89 48.17 C20.3 48.37 20.4 48.88 20.2 49.39 C20.3 49.5 20.2 49.5 20.2 49.5 Z" class="st1"/>
				</g>
				<g id="shape15922-5" v:mID="15922" v:groupContext="shape" transform="translate(0.102,-0.918)">
					<title>Sheet.15922</title>
					<path d="M19.89 49.09 C13.77 46.33 6.63 46.33 0.51 49.09 C0.1 49.29 0 49.8 0.2 50.31 C6.53 47.25 13.87 47.25
								 20.09 50.31 C20.4 49.8 20.3 49.29 19.89 49.09 Z" class="st2"/>
				</g>
			</g>
			<g id="group15923-7" transform="translate(20.808,-38.25)" v:mID="15923" v:groupContext="group">
				<title>Sheet.15923</title>
				<g id="group15924-8" v:mID="15924" v:groupContext="group">
					<title>Sheet.15924</title>
					<g id="shape15925-9" v:mID="15925" v:groupContext="shape" transform="translate(0.816,1.77636E-13)">
						<title>Sheet.15925</title>
						<path d="M1.53 49.6 C1.53 50.01 1.22 50.31 0.82 50.31 L0.71 50.31 C0.31 50.31 0 50.01 0 49.6 L0 43.89 C0
									 43.48 0.31 43.17 0.71 43.17 L0.82 43.17 C1.22 43.17 1.53 43.48 1.53 43.89 L1.53 49.6 Z"
								class="st3"/>
					</g>
					<g id="shape15926-11" v:mID="15926" v:groupContext="shape" transform="translate(-2.29816E-14,-1.632)">
						<title>Sheet.15926</title>
						<ellipse cx="1.632" cy="48.6795" rx="1.632" ry="1.632" class="st3"/>
					</g>
				</g>
				<g id="group15927-13" transform="translate(17.136,1.77636E-13)" v:mID="15927" v:groupContext="group">
					<title>Sheet.15927</title>
					<g id="shape15928-14" v:mID="15928" v:groupContext="shape" transform="translate(0.918,1.77636E-13)">
						<title>Sheet.15928</title>
						<path d="M1.53 49.6 C1.53 50.01 1.22 50.31 0.82 50.31 L0.71 50.31 C0.31 50.31 0 50.01 0 49.6 L0 43.89 C0
									 43.48 0.31 43.17 0.71 43.17 L0.82 43.17 C1.22 43.17 1.53 43.48 1.53 43.89 L1.53 49.6 Z"
								class="st3"/>
					</g>
					<g id="shape15929-16" v:mID="15929" v:groupContext="shape" transform="translate(-2.29816E-14,-1.632)">
						<title>Sheet.15929</title>
						<ellipse cx="1.632" cy="48.6795" rx="1.632" ry="1.632" class="st3"/>
					</g>
				</g>
			</g>
			<g id="shape15930-18" v:mID="15930" v:groupContext="shape" transform="translate(0.102,4.83169E-13)">
				<title>Sheet.15930</title>
				<path d="M61.91 48.27 C61.91 49.39 61 50.31 59.87 50.31 L2.04 50.31 C0.92 50.31 0 49.39 0 48.27 L0 10.74 C0 9.61
							 0.92 8.7 2.04 8.7 L59.87 8.7 C61 8.7 61.91 9.61 61.91 10.74 L61.91 48.27 Z" class="st1"/>
			</g>
			<g id="shape15931-20" v:mID="15931" v:groupContext="shape" transform="translate(7.99361E-14,-18.666)">
				<title>Sheet.15931</title>
				<path d="M62.02 43.17 C62.02 44.29 61.1 45.42 59.98 45.72 C40.9 50.31 21.11 50.31 2.04 45.72 C0.92 45.42 0 44.29
							 0 43.17 C0 38.58 0 33.99 0 29.4 C0 28.28 0.92 27.36 2.04 27.36 C21.32 27.36 40.6 27.36 59.87 27.36 C61
							 27.36 61.91 28.28 61.91 29.4 C62.02 33.99 62.02 38.58 62.02 43.17 Z" class="st2"/>
			</g>
			<g id="shape15932-22" v:mID="15932" v:groupContext="shape" transform="translate(1.428,-21.216)">
				<title>Sheet.15932</title>
				<path d="M29.58 50.31 C19.99 50.31 10.3 49.19 0.92 46.95 C0.41 46.84 0 46.23 0 45.72 L0 31.95 C0 31.54 0.31 31.24
							 0.71 31.24 L58.55 31.24 C58.96 31.24 59.26 31.54 59.26 31.95 L59.26 45.72 C59.26 46.23 58.75 46.84 58.24
							 46.95 C48.86 49.19 39.27 50.31 29.58 50.31 Z" class="st1"/>
			</g>
			<g id="shape15933-24" v:mID="15933" v:groupContext="shape" transform="translate(1.734,-23.256)">
				<title>Sheet.15933</title>
				<path d="M29.27 50.31 C20.09 50.31 11.02 49.29 1.84 47.25 C1.33 47.15 0.92 46.64 0.82 46.13 C0.51 42.05 0.31 37.97
							 0 33.79 C0 33.48 0.31 33.18 0.61 33.18 C19.69 33.18 38.76 33.18 57.83 33.18 C58.24 33.18 58.45 33.48
							 58.45 33.79 C58.14 37.87 57.94 41.95 57.63 46.13 C57.63 46.54 57.12 47.15 56.61 47.25 C47.63 49.29 38.45
							 50.31 29.27 50.31 Z" class="st2"/>
			</g>
			<g id="shape15934-26" v:mID="15934" v:groupContext="shape" transform="translate(27.03,-22.032)">
				<title>Sheet.15934</title>
				<path d="M0 30.63 L0 48.68 C0 49.6 0.31 50.31 0.71 50.31 L7.24 50.31 C7.65 50.31 7.96 49.6 7.96 48.68 L7.96 30.63
							 L0 30.63 Z" class="st1"/>
			</g>
			<g id="group15935-28" transform="translate(28.05,-22.032)" v:mID="15935" v:groupContext="group">
				<title>Sheet.15935</title>
				<g id="shape15936-29" v:mID="15936" v:groupContext="shape">
					<title>Sheet.15936</title>
					<path d="M0 30.63 L0 48.68 C0 49.6 0 50.31 0.1 50.31 L0.82 50.31 C0.82 50.31 0.92 49.6 0.92 48.68 L0.92 30.63
								 L0 30.63 Z" class="st2"/>
				</g>
				<g id="shape15937-31" v:mID="15937" v:groupContext="shape" transform="translate(5.1,3.19744E-13)">
					<title>Sheet.15937</title>
					<path d="M0 30.63 L0 48.68 C0 49.6 0 50.31 0.1 50.31 L0.82 50.31 C0.82 50.31 0.92 49.6 0.92 48.68 L0.92 30.63
								 L0 30.63 Z" class="st2"/>
				</g>
			</g>
			<g id="group15938-33" transform="translate(27.438,-14.178)" v:mID="15938" v:groupContext="group">
				<title>Sheet.15938</title>
				<g id="shape15939-34" v:mID="15939" v:groupContext="shape">
					<title>Sheet.15939</title>
					<path d="M7.04 48.88 C7.04 49.19 6.73 49.6 6.43 49.7 C4.49 50.31 2.45 50.31 0.61 49.7 C0.31 49.6 0 49.19 0 48.88
								 C0 46.54 0 44.19 0 41.85 C0 41.54 0.31 41.13 0.61 41.03 C2.55 40.42 4.59 40.42 6.43 41.03 C6.73
								 41.13 7.04 41.54 7.04 41.85 C7.04 44.19 7.04 46.54 7.04 48.88 Z" class="st3"/>
				</g>
				<g id="shape15940-36" v:mID="15940" v:groupContext="shape" transform="translate(0.102,-5.202)">
					<title>Sheet.15940</title>
					<path d="M6.43 46.54 C4.49 46.03 2.45 46.03 0.61 46.54 C0.31 46.64 0 46.95 0 47.25 C0 48.27 0 49.29 0 50.31 C0
								 50.31 0 50.31 0.1 50.31 C2.45 50.31 4.69 50.31 7.04 50.31 C7.04 49.29 7.04 48.27 7.04 47.25 C6.94
								 46.95 6.73 46.64 6.43 46.54 Z" class="st4"/>
				</g>
				<g id="shape15941-38" v:mID="15941" v:groupContext="shape" transform="translate(0.102,-0.102)">
					<title>Sheet.15941</title>
					<path d="M0 45.82 C0 46.84 0 47.86 0 48.88 C0 49.19 0.31 49.6 0.61 49.7 C2.55 50.31 4.59 50.31 6.43 49.7 C6.73
								 49.6 7.04 49.19 7.04 48.88 C7.04 47.86 7.04 46.84 7.04 45.82 L0 45.82 Z" class="st4"/>
				</g>
				<g id="shape15942-40" v:mID="15942" v:groupContext="shape" transform="translate(0.612,-0.816)">
					<title>Sheet.15942</title>
					<path d="M2.96 50.31 C2.04 50.31 1.12 50.21 0.2 49.9 C0.1 49.9 0 49.7 0 49.7 L0 47.15 L5.81 47.15 L5.81 49.7
								 C5.81 49.8 5.71 49.9 5.61 49.9 C4.79 50.21 3.88 50.31 2.96 50.31 Z" class="st3"/>
				</g>
			</g>
		</g>
	</g>
</svg>
