<?xml version="1.0" encoding="UTF-8" standalone="no"?>
<!DOCTYPE svg PUBLIC "-//W3C//DTD SVG 1.1//EN" "http://www.w3.org/Graphics/SVG/1.1/DTD/svg11.dtd">
<!-- Generated by Microsoft Visio, SVG Export Chat.svg Page-1 -->
<svg xmlns="http://www.w3.org/2000/svg" xmlns:xlink="http://www.w3.org/1999/xlink" xmlns:ev="http://www.w3.org/2001/xml-events"
		xmlns:v="http://schemas.microsoft.com/visio/2003/SVGExtensions/" width="11in" height="8.5in" viewBox="0 0 792 612"
		xml:space="preserve" color-interpolation-filters="sRGB" class="st5">
	<v:documentProperties v:langID="1033" v:viewMarkup="false">
		<v:userDefs>
			<v:ud v:nameU="msvSubprocessMaster" v:prompt="" v:val="VT4(Rectangle)"/>
			<v:ud v:nameU="msvNoAutoConnect" v:val="VT0(1):26"/>
		</v:userDefs>
	</v:documentProperties>

	<style type="text/css">
	<![CDATA[
		.st1 {fill:#add95b;stroke:none;stroke-width:0.9375}
		.st2 {fill:#b3d6f5;stroke:none;stroke-width:0.9375}
		.st3 {fill:#cae4fc;stroke:none;stroke-width:0.9375}
		.st4 {fill:#ffffff;stroke:none;stroke-width:0.9375}
		.st5 {fill:none;fill-rule:evenodd;font-size:12px;overflow:visible;stroke-linecap:square;stroke-miterlimit:3}
	]]>
	</style>

	<g v:mID="0" v:index="1" v:groupContext="foregroundPage">
		<v:userDefs>
			<v:ud v:nameU="msvThemeOrder" v:val="VT0(0):26"/>
		</v:userDefs>
		<title>Page-1</title>
		<v:pageProperties v:drawingScale="1" v:pageScale="1" v:drawingUnits="0" v:shadowOffsetX="9" v:shadowOffsetY="-9"/>
		<g id="group1154-1" transform="translate(18,-540.468)" v:mID="1154" v:groupContext="group">
			<title>Chat</title>
			<g id="shape1155-2" v:mID="1155" v:groupContext="shape" transform="translate(21.9484,1183.23) scale(1,-1)">
				<title>path752</title>
				<path d="M21.28 612 C33.04 612 42.57 603.78 42.57 593.64 C42.57 587.55 39.13 582.15 33.84 578.81 L36.84 571.23 L29.49
							 576.69 C26.97 575.78 24.19 575.28 21.28 575.28 C9.53 575.28 0 583.5 0 593.64 C0 603.78 9.53 612 21.28
							 612 Z" class="st1"/>
			</g>
			<g id="shape1156-4" v:mID="1156" v:groupContext="shape" transform="translate(-5.39568E-13,1170.47) scale(1,-1)">
				<title>path756</title>
				<path d="M21.28 612 C9.53 612 0 603.78 0 593.64 C0 587.55 3.44 582.15 8.73 578.81 L5.73 571.23 L13.07 576.69 C15.6
							 575.78 18.37 575.27 21.28 575.27 C33.04 575.27 42.57 583.5 42.57 593.64 C42.57 603.78 33.04 612 21.28
							 612 Z" class="st2"/>
			</g>
			<g id="shape1157-6" v:mID="1157" v:groupContext="shape" transform="translate(-5.39568E-13,1170.47) scale(1,-1)">
				<title>path760</title>
				<path d="M21.28 612 C9.53 612 0 603.78 0 593.64 C0 593.49 0 593.35 0.01 593.2 L42.56 593.2 C42.57 593.35 42.57 593.49
							 42.57 593.64 C42.57 603.78 33.04 612 21.28 612 Z" class="st3"/>
			</g>
			<g id="shape1158-8" v:mID="1158" v:groupContext="shape" transform="translate(9.09075,1186.31) scale(1,-1)">
				<title>path764</title>
				<path d="M2.88 606.23 C4.47 606.23 5.77 607.53 5.77 609.12 C5.77 610.7 4.47 612 2.88 612 C1.3 612 0 610.7 0 609.12
							 C0 607.53 1.3 606.23 2.88 606.23 Z" class="st4"/>
			</g>
			<g id="shape1159-10" v:mID="1159" v:groupContext="shape" transform="translate(18.3994,1186.31) scale(1,-1)">
				<title>path768</title>
				<path d="M2.88 606.23 C4.47 606.23 5.77 607.53 5.77 609.12 C5.77 610.7 4.47 612 2.88 612 C1.3 612 0 610.7 0 609.12
							 C0 607.53 1.3 606.23 2.88 606.23 Z" class="st4"/>
			</g>
			<g id="shape1160-12" v:mID="1160" v:groupContext="shape" transform="translate(27.7089,1186.31) scale(1,-1)">
				<title>path772</title>
				<path d="M2.88 606.23 C4.47 606.23 5.77 607.53 5.77 609.12 C5.77 610.7 4.47 612 2.88 612 C1.3 612 0 610.7 0 609.12
							 C0 607.53 1.3 606.23 2.88 606.23 Z" class="st4"/>
			</g>
		</g>
	</g>
</svg>
