<svg viewBox="0.5 0.5 24 24" class="msportalfx-svg-palette-inherit" role="presentation" focusable="false" xmlns:svg="http://www.w3.org/2000/svg" xmlns:xlink="http://www.w3.org/1999/xlink" id="FxSymbol0-044" data-type="17"><g><title></title><path d="M19.846 6.5H5.154c-.553 0-.654-.23-.654-.5s.101-1.5.654-1.5h14.692c.553 0 .654 1.23.654 1.5s-.101.5-.654.5zm-5.516-3h-3.734c-.402 0-.597-.13-.597-.5.011-.36.149-.5.597-.5h3.686c.402 0 .717.14.717.5 0 .37-.256.5-.646.5h-.023zm-8.83 4v14c.04.82 3.537 1 4.337 1h5.862c.8 0 3.761-.18 3.801-1v-14h-14zm4.042 11.667c.01.36-.27.68-.62.69h-.73c-.35 0-.63-.28-.65-.65v-9.37c-.01-.37.542-.726 1.023-.726.34 0 .967.316.977.676v9.38zm3.958-.011c-.01.36-.3.64-.64.64h-.74c-.35-.01-.63-.33-.62-.7v-9.37c.02-.37.642-.655 1.002-.635s1.008.325.998.695v9.37zm3.896-.005c-.01.36-.3.64-.64.64h-.74c-.35-.01-.63-.33-.62-.7v-9.37c.02-.37.642-.654 1.002-.635.36.02 1.008.325.998.695v9.37z"></path></g><defs>
<linearGradient id="a" x1="9" y1="16.39" x2="9" y2="-1.94" gradientUnits="userSpaceOnUse"><stop offset="0" stop-color="#0078d4"></stop><stop offset=".16" stop-color="#1380da"></stop><stop offset=".53" stop-color="#3c91e5"></stop><stop offset=".82" stop-color="#559cec"></stop><stop offset="1" stop-color="#5ea0ef"></stop></linearGradient>
<linearGradient id="b" x1="9.88" y1="7.11" x2="9.99" y2="17.27" gradientUnits="userSpaceOnUse"><stop offset="0" stop-color="#32d4f5"></stop><stop offset=".32" stop-color="#31d1f3"></stop><stop offset=".53" stop-color="#2ec9eb"></stop><stop offset=".7" stop-color="#29bade"></stop><stop offset=".86" stop-color="#22a5cb"></stop><stop offset="1" stop-color="#198ab3"></stop><stop offset="1" stop-color="#198ab3"></stop></linearGradient>
<radialGradient id="c" cx="9.43" cy="7.03" r="7.27" gradientUnits="userSpaceOnUse"><stop offset="0" stop-color="#f2f2f2"></stop><stop offset=".58" stop-color="#eee"></stop><stop offset="1" stop-color="#e6e6e6"></stop></radialGradient>
</defs>
</svg>