<svg viewBox="0 0 16 16" class="msportalfx-svg-palette-inherit" role="presentation" focusable="false" xmlns:svg="http://www.w3.org/2000/svg" xmlns:xlink="http://www.w3.org/1999/xlink" id="FxSymbol0-004" data-type="314"><g><title></title><path d="M16 2.6a3 3 0 0 1-.2 1 2.4 2.4 0 0 1-.6.9L4.9 14.8 0 16l1.2-4.9L11.5.8a2.4 2.4 0 0 1 .9-.6l1-.2 1 .2a1.6 1.6 0 0 1 .8.6 1.6 1.6 0 0 1 .6.8 3.6 3.6 0 0 1 .2 1zm-14.6 12l2.5-.6a1.4 1.4 0 0 0-.2-.7l-.4-.6-.6-.4-.7-.2zm1.1-3.4A2.8 2.8 0 0 1 4 12a2.8 2.8 0 0 1 .8 1.5L13.3 5 11 2.7zM14 4.3l.4-.4.3-.3c.1-.2.2-.3.2-.5a.7.7 0 0 0 .1-.5 1.3 1.3 0 0 0-.1-.6 1 1 0 0 0-.4-.5 1 1 0 0 0-.5-.4h-1.1l-.5.2-.3.3-.4.4z"></path></g><defs>
<linearGradient id="a" x1="9" y1="16.39" x2="9" y2="-1.94" gradientUnits="userSpaceOnUse"><stop offset="0" stop-color="#0078d4"></stop><stop offset=".16" stop-color="#1380da"></stop><stop offset=".53" stop-color="#3c91e5"></stop><stop offset=".82" stop-color="#559cec"></stop><stop offset="1" stop-color="#5ea0ef"></stop></linearGradient>
<linearGradient id="b" x1="9.88" y1="7.11" x2="9.99" y2="17.27" gradientUnits="userSpaceOnUse"><stop offset="0" stop-color="#32d4f5"></stop><stop offset=".32" stop-color="#31d1f3"></stop><stop offset=".53" stop-color="#2ec9eb"></stop><stop offset=".7" stop-color="#29bade"></stop><stop offset=".86" stop-color="#22a5cb"></stop><stop offset="1" stop-color="#198ab3"></stop><stop offset="1" stop-color="#198ab3"></stop></linearGradient>
<radialGradient id="c" cx="9.43" cy="7.03" r="7.27" gradientUnits="userSpaceOnUse"><stop offset="0" stop-color="#f2f2f2"></stop><stop offset=".58" stop-color="#eee"></stop><stop offset="1" stop-color="#e6e6e6"></stop></radialGradient>
</defs>
</svg>