<svg viewBox="0 0 50 50" class="" role="presentation" focusable="false" xmlns:svg="http://www.w3.org/2000/svg" xmlns:xlink="http://www.w3.org/1999/xlink" id="FxSymbol0-0d7" data-type="1"><g><title></title><path d="M38.9 25.5l-13 6c-.6.3-1.2.3-1.8 0l-13.1-6v12.4c0 3.7 6.2 6.6 13.9 6.6s13.9-3 13.9-6.6V25.5z" class="msportalfx-svg-c15" fill="#59b4d9"></path><path d="M43.9 27.1c-.5-2.5-2.1-4.5-4.5-5.5l-11.9-5c-.3-1.5-5.1-1.4-5.1.2 0 1 2 1.5 3.6 1.2l12.7 5.4c1.7.7 2.9 2.2 3.3 4-.5.3-.8.9-.8 1.5v5.3c0 1 .8 1.9 1.9 1.9s1.9-.8 1.9-1.9v-5.3c0-.8-.4-1.5-1.1-1.8z" class="msportalfx-svg-c15" fill="#59b4d9"></path><path d="M48.9 16.8L25.8 6.2c-.6-.3-1.2-.3-1.8 0L1.1 16.8c-.8.4-.8 1.5 0 1.9l23.1 10.6c.6.3 1.2.3 1.8 0l11.2-5.2-10.8-4.8c-.4.1-.9.1-1.4.1-3.1 0-5.5-1.2-5.5-2.6s2.5-2.6 5.5-2.6 5.6.9 5.7 2.2l11.9 5.1 6.3-2.9c.8-.3.8-1.4 0-1.8z" class="msportalfx-svg-c15" fill="#59b4d9"></path></g><defs>
<linearGradient id="a" x1="9" y1="16.39" x2="9" y2="-1.94" gradientUnits="userSpaceOnUse"><stop offset="0" stop-color="#0078d4"></stop><stop offset=".16" stop-color="#1380da"></stop><stop offset=".53" stop-color="#3c91e5"></stop><stop offset=".82" stop-color="#559cec"></stop><stop offset="1" stop-color="#5ea0ef"></stop></linearGradient>
<linearGradient id="b" x1="9.88" y1="7.11" x2="9.99" y2="17.27" gradientUnits="userSpaceOnUse"><stop offset="0" stop-color="#32d4f5"></stop><stop offset=".32" stop-color="#31d1f3"></stop><stop offset=".53" stop-color="#2ec9eb"></stop><stop offset=".7" stop-color="#29bade"></stop><stop offset=".86" stop-color="#22a5cb"></stop><stop offset="1" stop-color="#198ab3"></stop><stop offset="1" stop-color="#198ab3"></stop></linearGradient>
<radialGradient id="c" cx="9.43" cy="7.03" r="7.27" gradientUnits="userSpaceOnUse"><stop offset="0" stop-color="#f2f2f2"></stop><stop offset=".58" stop-color="#eee"></stop><stop offset="1" stop-color="#e6e6e6"></stop></radialGradient>
</defs>
</svg>