<svg viewBox="0 0 18 18" data-islogo="true" class="msportalfx-svg-palette-inherit" role="presentation" focusable="false" xmlns:svg="http://www.w3.org/2000/svg" xmlns:xlink="http://www.w3.org/1999/xlink" id="FxSymbol0-109" data-type="225"><g><path d="M13.77 15.81A8.5 8.5 0 0 1 3.35 2.37l.09-.06a8.5 8.5 0 0 1 10.33 13.5" fill="url(#e65fc8f0-13cb-4d3e-be53-d558e0b8eb05)"></path><path d="M8.56 6.17a1.24 1.24 0 0 1-.89-.33 1 1 0 0 1-.34-.79 1 1 0 0 1 .34-.79A1.31 1.31 0 0 1 8.56 4a1.28 1.28 0 0 1 .89.3 1 1 0 0 1 .35.79 1 1 0 0 1-.35.8 1.24 1.24 0 0 1-.89.28zm.64 8.05H7.89a.42.42 0 0 1-.42-.42V7.69a.42.42 0 0 1 .42-.42H9.2a.42.42 0 0 1 .42.42v6.11a.42.42 0 0 1-.42.42z" class="msportalfx-svg-c01" fill="#ffffff"></path></g><defs>
<linearGradient id="a" x1="9" y1="16.39" x2="9" y2="-1.94" gradientUnits="userSpaceOnUse"><stop offset="0" stop-color="#0078d4"></stop><stop offset=".16" stop-color="#1380da"></stop><stop offset=".53" stop-color="#3c91e5"></stop><stop offset=".82" stop-color="#559cec"></stop><stop offset="1" stop-color="#5ea0ef"></stop></linearGradient>
<linearGradient id="b" x1="9.88" y1="7.11" x2="9.99" y2="17.27" gradientUnits="userSpaceOnUse"><stop offset="0" stop-color="#32d4f5"></stop><stop offset=".32" stop-color="#31d1f3"></stop><stop offset=".53" stop-color="#2ec9eb"></stop><stop offset=".7" stop-color="#29bade"></stop><stop offset=".86" stop-color="#22a5cb"></stop><stop offset="1" stop-color="#198ab3"></stop><stop offset="1" stop-color="#198ab3"></stop></linearGradient>
<radialGradient id="c" cx="9.43" cy="7.03" r="7.27" gradientUnits="userSpaceOnUse"><stop offset="0" stop-color="#f2f2f2"></stop><stop offset=".58" stop-color="#eee"></stop><stop offset="1" stop-color="#e6e6e6"></stop></radialGradient>
<linearGradient id="e65fc8f0-13cb-4d3e-be53-d558e0b8eb05" x1="8.56" y1="17.59" x2="8.56" y2=".59" gradientUnits="userSpaceOnUse"><stop offset="0" stop-color="#1988d9"></stop><stop offset=".22" stop-color="#218ddc"></stop><stop offset=".56" stop-color="#379ce5"></stop><stop offset=".9" stop-color="#54aef0"></stop></linearGradient>
</defs>
</svg>