<svg viewBox="0 0 32 32" class="" role="presentation" focusable="false" xmlns:svg="http://www.w3.org/2000/svg" xmlns:xlink="http://www.w3.org/1999/xlink" id="FxSymbol0-086" data-type="1"><g><title></title><title>E-Icons/Activity-Icons/i-32x32-Invitation</title><g fill="none"><path d="M3.2 24.815c0 .587.46 1.063 1.028 1.063h23.544c.568 0 1.028-.476 1.028-1.063V8.23H3.2v16.585z" class="msportalfx-svg-c15" fill="#59b4d9"></path><path d="M4.228 26.005c-.568 0-1.028-.46-1.028-1.027l11.421-10.866a2 2 0 0 1 2.758 0L28.8 24.978c0 .567-.46 1.027-1.028 1.027H4.228z" fill="#48A3C8"></path><path d="M4.228 8.567c-.568 0-1.028.46-1.028 1.028l12.11 11.521a1 1 0 0 0 1.38 0L28.8 9.595c0-.568-.46-1.028-1.028-1.028H4.228z" fill="#2581A6"></path><path d="M4.228 7.234c-.568 0-1.028.46-1.028 1.027l12.11 11.522a1 1 0 0 0 1.38 0L28.8 8.261c0-.568-.46-1.027-1.028-1.027H4.228z" fill="#A0D9F0"></path><path d="M4.231 7.234c-.567 0-1.027.392-1.027.877V25c0 .485.46.878 1.027.878h1.12L25.533 7.234H4.231z" opacity=".2" class="msportalfx-svg-c01" fill="#ffffff"></path></g></g><defs>
<linearGradient id="a" x1="9" y1="16.39" x2="9" y2="-1.94" gradientUnits="userSpaceOnUse"><stop offset="0" stop-color="#0078d4"></stop><stop offset=".16" stop-color="#1380da"></stop><stop offset=".53" stop-color="#3c91e5"></stop><stop offset=".82" stop-color="#559cec"></stop><stop offset="1" stop-color="#5ea0ef"></stop></linearGradient>
<linearGradient id="b" x1="9.88" y1="7.11" x2="9.99" y2="17.27" gradientUnits="userSpaceOnUse"><stop offset="0" stop-color="#32d4f5"></stop><stop offset=".32" stop-color="#31d1f3"></stop><stop offset=".53" stop-color="#2ec9eb"></stop><stop offset=".7" stop-color="#29bade"></stop><stop offset=".86" stop-color="#22a5cb"></stop><stop offset="1" stop-color="#198ab3"></stop><stop offset="1" stop-color="#198ab3"></stop></linearGradient>
<radialGradient id="c" cx="9.43" cy="7.03" r="7.27" gradientUnits="userSpaceOnUse"><stop offset="0" stop-color="#f2f2f2"></stop><stop offset=".58" stop-color="#eee"></stop><stop offset="1" stop-color="#e6e6e6"></stop></radialGradient>
</defs>
</svg>