<svg viewBox="0 0 16 16" class="" role="presentation" focusable="false" xmlns:svg="http://www.w3.org/2000/svg" xmlns:xlink="http://www.w3.org/1999/xlink" id="FxSymbol0-010" data-type="342"><g><title></title><path d="M14 12v1h-4a2.4 2.4 0 0 1-.2.8l-.4.6-.6.4-.8.2-.8-.2-.6-.4-.4-.6A2.4 2.4 0 0 1 6 13H2v-1h1V6a5.9 5.9 0 0 1 .2-1.3 6.1 6.1 0 0 1 .5-1.2 3.9 3.9 0 0 1 .8-1 3.9 3.9 0 0 1 1-.8l1.2-.5L8 1l1.3.2 1.2.5a3.9 3.9 0 0 1 1 .8 3.9 3.9 0 0 1 .8 1 6.1 6.1 0 0 1 .5 1.2A5.9 5.9 0 0 1 13 6v6zm-2 0V6a4.5 4.5 0 0 0-.3-1.6 2.7 2.7 0 0 0-.9-1.2 2.7 2.7 0 0 0-1.2-.9 4.4 4.4 0 0 0-3.2 0 2.7 2.7 0 0 0-1.2.9 2.7 2.7 0 0 0-.9 1.2A4.5 4.5 0 0 0 4 6v6zm-4 2h.4l.3-.2.2-.3A.7.7 0 0 0 9 13H7a.6.6 0 0 0 .1.4l.2.3.3.2z"></path></g><defs>
<linearGradient id="a" x1="9" y1="16.39" x2="9" y2="-1.94" gradientUnits="userSpaceOnUse"><stop offset="0" stop-color="#0078d4"></stop><stop offset=".16" stop-color="#1380da"></stop><stop offset=".53" stop-color="#3c91e5"></stop><stop offset=".82" stop-color="#559cec"></stop><stop offset="1" stop-color="#5ea0ef"></stop></linearGradient>
<linearGradient id="b" x1="9.88" y1="7.11" x2="9.99" y2="17.27" gradientUnits="userSpaceOnUse"><stop offset="0" stop-color="#32d4f5"></stop><stop offset=".32" stop-color="#31d1f3"></stop><stop offset=".53" stop-color="#2ec9eb"></stop><stop offset=".7" stop-color="#29bade"></stop><stop offset=".86" stop-color="#22a5cb"></stop><stop offset="1" stop-color="#198ab3"></stop><stop offset="1" stop-color="#198ab3"></stop></linearGradient>
<radialGradient id="c" cx="9.43" cy="7.03" r="7.27" gradientUnits="userSpaceOnUse"><stop offset="0" stop-color="#f2f2f2"></stop><stop offset=".58" stop-color="#eee"></stop><stop offset="1" stop-color="#e6e6e6"></stop></radialGradient>
</defs>
</svg>