<svg viewBox="0 0 15.5 15.5" class="msportalfx-svg-palette-inherit" role="presentation" focusable="false" xmlns:svg="http://www.w3.org/2000/svg" xmlns:xlink="http://www.w3.org/1999/xlink" id="FxSymbol0-03d" data-type="46"><g><title></title><path d="M15.5 5.4l-.5.5-.5.3-.5.3h-1.2l-3 3a1.3 1.3 0 0 1 .1.6 1.3 1.3 0 0 1 .1.6 2.8 2.8 0 0 1-.1.9l-.3.8-.5.7-.6.7-3-3-4.4 4.4-1.1.3.4-1L4.8 10l-3-3 .3-.3a3.8 3.8 0 0 1 1.3-.9l1.5-.2a2.5 2.5 0 0 1 1.2.2l3-3a.9.9 0 0 1-.1-.5 1.5 1.5 0 0 1 .1-.7 1.4 1.4 0 0 1 .2-.6l.4-.5.5-.5zm-2.2.1a1.2 1.2 0 0 0 .8-.2l-3.9-3.8a1.9 1.9 0 0 0-.2.8.6.6 0 0 0 .1.4.6.6 0 0 0 .1.4L6.3 6.9H4l-.8.4 5.3 5.2a2 2 0 0 0 .4-.8 1.9 1.9 0 0 0 .1-.8v-.4c0-.1-.1-.2-.1-.4v-.5c-.1-.1-.1-.3-.2-.4l3.9-3.8h.8z"></path></g><defs>
<linearGradient id="a" x1="9" y1="16.39" x2="9" y2="-1.94" gradientUnits="userSpaceOnUse"><stop offset="0" stop-color="#0078d4"></stop><stop offset=".16" stop-color="#1380da"></stop><stop offset=".53" stop-color="#3c91e5"></stop><stop offset=".82" stop-color="#559cec"></stop><stop offset="1" stop-color="#5ea0ef"></stop></linearGradient>
<linearGradient id="b" x1="9.88" y1="7.11" x2="9.99" y2="17.27" gradientUnits="userSpaceOnUse"><stop offset="0" stop-color="#32d4f5"></stop><stop offset=".32" stop-color="#31d1f3"></stop><stop offset=".53" stop-color="#2ec9eb"></stop><stop offset=".7" stop-color="#29bade"></stop><stop offset=".86" stop-color="#22a5cb"></stop><stop offset="1" stop-color="#198ab3"></stop><stop offset="1" stop-color="#198ab3"></stop></linearGradient>
<radialGradient id="c" cx="9.43" cy="7.03" r="7.27" gradientUnits="userSpaceOnUse"><stop offset="0" stop-color="#f2f2f2"></stop><stop offset=".58" stop-color="#eee"></stop><stop offset="1" stop-color="#e6e6e6"></stop></radialGradient>
</defs>
</svg>