<svg viewBox="0 0 50 50" class="fxs-portal-svg" role="presentation" focusable="false" xmlns:svg="http://www.w3.org/2000/svg" xmlns:xlink="http://www.w3.org/1999/xlink" id="FxSymbol0-106" data-type="159"><g><title></title><path d="M41.2 11.2l.5.5 2.5-2.1 4.2-6.9-1.1-1.1L40.7 6l-2 2.6.5.5-13.1 13.5-2.7-2.8-3 3.1c.2 1.5-.3 3.1-1.4 4.3s-2.7 1.7-4.1 1.5L1.6 42.3 9 50l13.2-13.7c-.2-1.5.3-3.1 1.5-4.3 1.1-1.2 2.7-1.7 4.1-1.5l3-3.1-2.7-2.8 13.1-13.4z"></path><path d="M40 46c1.9 2 5 2 6.9 0 1-1 1.4-2.3 1.4-3.6 0-1.3-.5-2.6-1.4-3.6L32.1 23.6l-1.4 1.5 2.7 2.8-1.2 1.1-3 3.1-.4.4-.6-.1c-.4 0-.9 0-1.3.1L40 46zM20.3 3.1C17.6.3 13.7-.6 10.3.3l5.9 6-1.5 5.9-5.8 1.6-5.8-6c-.9 3.6 0 7.5 2.7 10.3 2.7 2.8 6.6 3.7 10.1 2.7l.2.2 2.7 2.8c.1-.3.1-.6.1-.9v-.5l-.2-.4 4.5-4.7.8.9 1.8 1.9 1.4-1.5-4.3-4.6c1.1-3.7.3-7.9-2.6-10.9z"></path></g><defs>
<linearGradient id="a" x1="9" y1="16.39" x2="9" y2="-1.94" gradientUnits="userSpaceOnUse"><stop offset="0" stop-color="#0078d4"></stop><stop offset=".16" stop-color="#1380da"></stop><stop offset=".53" stop-color="#3c91e5"></stop><stop offset=".82" stop-color="#559cec"></stop><stop offset="1" stop-color="#5ea0ef"></stop></linearGradient>
<linearGradient id="b" x1="9.88" y1="7.11" x2="9.99" y2="17.27" gradientUnits="userSpaceOnUse"><stop offset="0" stop-color="#32d4f5"></stop><stop offset=".32" stop-color="#31d1f3"></stop><stop offset=".53" stop-color="#2ec9eb"></stop><stop offset=".7" stop-color="#29bade"></stop><stop offset=".86" stop-color="#22a5cb"></stop><stop offset="1" stop-color="#198ab3"></stop><stop offset="1" stop-color="#198ab3"></stop></linearGradient>
<radialGradient id="c" cx="9.43" cy="7.03" r="7.27" gradientUnits="userSpaceOnUse"><stop offset="0" stop-color="#f2f2f2"></stop><stop offset=".58" stop-color="#eee"></stop><stop offset="1" stop-color="#e6e6e6"></stop></radialGradient>
</defs>
</svg>