<?xml version="1.0" encoding="UTF-8" standalone="no"?>
<!DOCTYPE svg PUBLIC "-//W3C//DTD SVG 1.1//EN" "http://www.w3.org/Graphics/SVG/1.1/DTD/svg11.dtd">
<!-- Generated by Microsoft Visio, SVG Export World.svg Page-1 -->
<svg xmlns="http://www.w3.org/2000/svg" xmlns:xlink="http://www.w3.org/1999/xlink" xmlns:ev="http://www.w3.org/2001/xml-events"
		xmlns:v="http://schemas.microsoft.com/visio/2003/SVGExtensions/" width="11in" height="8.5in" viewBox="0 0 792 612"
		xml:space="preserve" color-interpolation-filters="sRGB" class="st3">
	<v:documentProperties v:langID="1033" v:viewMarkup="false">
		<v:userDefs>
			<v:ud v:nameU="msvSubprocessMaster" v:prompt="" v:val="VT4(Rectangle)"/>
			<v:ud v:nameU="msvNoAutoConnect" v:val="VT0(1):26"/>
		</v:userDefs>
	</v:documentProperties>

	<style type="text/css">
	<![CDATA[
		.st1 {fill:#4d86b8;stroke:none;stroke-width:0.9375}
		.st2 {fill:#b3d6f5;stroke:none;stroke-width:0.9375}
		.st3 {fill:none;fill-rule:evenodd;font-size:12px;overflow:visible;stroke-linecap:square;stroke-miterlimit:3}
	]]>
	</style>

	<g v:mID="0" v:index="1" v:groupContext="foregroundPage">
		<v:userDefs>
			<v:ud v:nameU="msvThemeOrder" v:val="VT0(0):26"/>
		</v:userDefs>
		<title>Page-1</title>
		<v:pageProperties v:drawingScale="1" v:pageScale="1" v:drawingUnits="0" v:shadowOffsetX="9" v:shadowOffsetY="-9"/>
		<g id="group1161-1" transform="translate(18,-551.086)" v:mID="1161" v:groupContext="group">
			<title>World</title>
			<g id="shape1162-2" v:mID="1162" v:groupContext="shape" transform="translate(3.35731E-13,1181.09) scale(1,-1)">
				<title>path3851</title>
				<path d="M0.44 594.87 C0.36 594.52 0.3 594.17 0.25 593.81 C0.19 593.46 0.15 593.1 0.11 592.74 C0.04 592.02 0 591.28
							 0 590.54 C0 589.8 0.04 589.07 0.11 588.35 C0.15 587.99 0.19 587.63 0.25 587.28 C0.3 586.92 0.36 586.57
							 0.44 586.22 C0.51 585.87 0.59 585.52 0.67 585.18 C0.85 584.5 1.06 583.82 1.3 583.17 C1.42 582.84 1.55
							 582.51 1.69 582.19 C1.82 581.87 1.96 581.55 2.12 581.24 C2.19 581.08 2.27 580.93 2.35 580.78 C2.5 580.47
							 2.67 580.16 2.84 579.86 C3.36 578.96 3.94 578.11 4.58 577.3 C4.89 576.89 5.23 576.5 5.57 576.12 C5.8
							 575.86 6.04 575.61 6.28 575.37 C6.53 575.13 6.78 574.89 7.03 574.66 C8.17 573.62 9.43 572.7 10.78 571.93
							 C11.08 571.76 11.38 571.59 11.69 571.43 C12.3 571.12 12.94 570.83 13.59 570.57 C13.91 570.45 14.24 570.33
							 14.57 570.21 C16.73 569.48 19.05 569.09 21.46 569.09 C23.1 569.09 24.7 569.27 26.23 569.62 C26.95 569.78
							 27.65 569.98 28.34 570.21 C28.67 570.33 29 570.45 29.32 570.57 C29.97 570.83 30.61 571.12 31.22 571.43
							 C31.53 571.59 31.84 571.76 32.14 571.93 C33.48 572.7 34.74 573.62 35.88 574.66 C36.14 574.89 36.39 575.13
							 36.63 575.37 C36.87 575.61 37.11 575.86 37.34 576.12 C37.69 576.5 38.02 576.89 38.34 577.3 C38.84 577.94
							 39.31 578.61 39.74 579.31 C39.85 579.49 39.96 579.67 40.07 579.86 C40.24 580.16 40.41 580.47 40.57 580.77
							 C40.64 580.93 40.72 581.08 40.8 581.24 C40.95 581.55 41.09 581.87 41.23 582.19 C41.36 582.51 41.49 582.84
							 41.61 583.17 C41.85 583.82 42.06 584.5 42.24 585.18 C42.33 585.52 42.41 585.87 42.48 586.22 C42.55 586.57
							 42.61 586.92 42.67 587.28 C42.72 587.63 42.77 587.99 42.8 588.35 C42.87 589.07 42.91 589.8 42.91 590.54
							 C42.91 591.28 42.87 592.02 42.8 592.74 C42.77 593.1 42.72 593.46 42.67 593.81 C42.61 594.17 42.55 594.52
							 42.48 594.87 C42.41 595.22 42.33 595.56 42.24 595.91 C42.06 596.59 41.85 597.26 41.61 597.92 C41.55
							 598.08 41.49 598.25 41.42 598.41 C41.23 598.9 41.02 599.38 40.8 599.85 C40.72 600 40.64 600.16 40.57
							 600.31 C40.41 600.62 40.24 600.92 40.07 601.22 C39.55 602.12 38.97 602.98 38.34 603.79 C38.02 604.2
							 37.68 604.59 37.34 604.97 C37.11 605.22 36.87 605.47 36.63 605.72 C36.39 605.96 36.14 606.2 35.88 606.43
							 C35.39 606.87 34.88 607.3 34.35 607.7 C33.64 608.23 32.9 608.72 32.14 609.16 C31.84 609.33 31.53 609.5
							 31.22 609.65 C31.08 609.72 30.94 609.8 30.8 609.86 C30.63 609.95 30.46 610.03 30.29 610.1 C30.21 610.14
							 30.14 610.17 30.07 610.2 C29.82 610.31 29.58 610.41 29.32 610.51 C29.32 610.51 29.32 610.51 29.31 610.52
							 C29.05 610.62 28.77 610.72 28.5 610.81 C28.45 610.83 28.39 610.85 28.34 610.87 C27.7 611.09 27.05 611.27
							 26.39 611.43 C26.19 611.48 25.98 611.52 25.77 611.57 C25.62 611.6 25.47 611.63 25.32 611.65 C24.19 611.86
							 23.03 611.97 21.85 612 C21.72 612 21.59 612 21.46 612 C21.23 612 21.01 612 20.79 611.99 C18.62 611.92
							 16.53 611.54 14.57 610.87 C14.24 610.76 13.91 610.64 13.59 610.51 C13.49 610.47 13.39 610.43 13.29 610.39
							 C13.07 610.3 12.84 610.2 12.63 610.1 C12.31 609.96 12 609.81 11.69 609.65 C11.38 609.49 11.07 609.33
							 10.78 609.16 C9.57 608.46 8.44 607.66 7.4 606.75 C7.27 606.64 7.15 606.54 7.03 606.43 C6.77 606.19 6.53
							 605.96 6.28 605.71 C6.04 605.47 5.8 605.22 5.57 604.97 C5.23 604.59 4.89 604.2 4.58 603.79 C3.94 602.98
							 3.36 602.12 2.84 601.22 C2.67 600.92 2.5 600.62 2.35 600.31 C2.27 600.16 2.19 600 2.11 599.85 C1.89
							 599.38 1.68 598.9 1.49 598.41 C1.42 598.25 1.36 598.08 1.3 597.92 C1.06 597.26 0.85 596.59 0.67 595.9
							 C0.59 595.56 0.51 595.22 0.44 594.87 Z" class="st1"/>
			</g>
			<g id="shape1163-4" v:mID="1163" v:groupContext="shape" transform="translate(0.00435036,1181.09) scale(1,-1)">
				<title>path3855</title>
				<path d="M3.47 581.1 L3.47 578.9 C3.41 578.99 3.35 579.07 3.31 579.15 C3.01 579.75 2.95 580.8 3.47 581.1 ZM3.47 584.53
							 C3.15 584.6 2.81 584.9 2.59 585.27 C2.28 585.79 2.8 586.36 2.02 586.36 C1.24 586.36 1.79 588.1 1.79
							 588.62 C1.79 589.11 0.73 588.22 0.18 587.69 C0.2 587.55 0.22 587.41 0.24 587.28 C0.3 586.92 0.36 586.57
							 0.43 586.22 C0.46 586.09 0.48 585.96 0.51 585.83 C0.8 585.67 1.09 585.53 1.45 585.53 C2.33 585.53 2.38
							 584.34 2.64 583.92 C2.76 583.73 3.11 583.72 3.47 583.71 L3.47 584.53 ZM3.47 588.89 L3.47 588.36 C2.99
							 588.5 2.74 588.98 3.31 588.91 C3.37 588.91 3.42 588.9 3.47 588.89 ZM0.43 594.87 C0.36 594.52 0.3 594.17
							 0.24 593.81 C0.19 593.46 0.14 593.1 0.11 592.74 C0.05 592.15 0.01 591.56 0 590.97 C0.25 590.95 0.5 590.94
							 0.72 591.03 C1.24 591.24 2.23 591.49 2.85 590.66 C3.12 590.3 3.33 590.07 3.47 590 L3.47 599.62 C3.31
							 599.87 3.16 600.29 3.16 600.52 C3.16 600.71 2.99 600.86 2.71 601 C2.58 600.77 2.46 600.54 2.34 600.31
							 C2.26 600.16 2.19 600 2.11 599.85 C1.88 599.38 1.68 598.9 1.48 598.41 C1.42 598.25 1.36 598.08 1.3 597.92
							 C1.06 597.26 0.85 596.59 0.67 595.9 C0.58 595.56 0.5 595.22 0.43 594.87 ZM3.47 588.36 L3.47 588.89 C3.94
							 588.79 4.19 588.27 3.66 588.32 C3.6 588.33 3.53 588.34 3.47 588.36 ZM4.79 584.54 L4.79 577.02 L4.76
							 577.05 C4.77 577.11 4.77 577.17 4.77 577.23 C4.77 577.64 3.9 578.32 3.47 578.9 L3.47 581.1 C3.49 581.11
							 3.5 581.11 3.52 581.12 C4.09 581.38 3.83 582.16 4.4 582.31 C4.97 582.47 4.61 583.09 4.4 583.51 C4.29
							 583.73 3.88 583.71 3.47 583.71 L3.47 584.53 C3.6 584.5 3.72 584.5 3.83 584.54 C4.08 584.64 4.45 584.56
							 4.79 584.54 ZM4.79 588.25 L4.79 587.83 C4.37 587.93 4.11 588.27 4.57 588.27 C4.65 588.27 4.72 588.26
							 4.79 588.25 ZM4.79 589.68 L4.79 589.1 C4.55 589.07 4.37 588.91 4.17 589.02 C3.88 589.18 3.96 589.69
							 4.44 589.77 C4.56 589.77 4.68 589.73 4.79 589.68 ZM3.47 590 C3.65 589.91 3.73 590.05 3.73 590.46 C3.73
							 591.18 3.52 591.6 3.78 592.01 C3.96 592.3 4.48 592.53 4.79 592.81 L4.79 604.06 C4.72 603.97 4.64 603.88
							 4.57 603.79 C4.41 603.59 4.26 603.38 4.1 603.17 C4.13 602.99 4.16 602.81 4.2 602.65 C4.35 601.92 4.71
							 601.4 4.3 601.4 C3.89 601.4 3.89 600.78 3.83 599.79 C3.81 599.3 3.64 599.37 3.47 599.62 L3.47 590 ZM4.79
							 589.1 L4.79 589.68 C5.26 589.43 5.56 588.8 5.19 589.02 C5.04 589.11 4.91 589.12 4.79 589.1 ZM4.79 587.83
							 L4.79 588.25 C5.21 588.17 5.47 587.81 5 587.81 C4.93 587.81 4.86 587.82 4.79 587.83 ZM6.56 584.72 L6.56
							 575.1 C6.5 575.15 6.45 575.21 6.39 575.26 C6.16 575.53 5.9 575.89 5.61 576.07 L5.57 576.12 C5.3 576.41
							 5.04 576.71 4.79 577.02 L4.79 584.54 C5.01 584.53 5.22 584.55 5.39 584.65 C5.8 584.91 6.22 585.43 6.43
							 584.91 C6.46 584.83 6.5 584.77 6.56 584.72 ZM6.56 587.62 L6.56 586.9 C6.13 586.98 5.74 587.55 6.56 587.62
							 ZM6.56 605.99 L6.56 604.7 C6.23 604.81 5.89 604.91 5.58 604.98 C5.8 605.23 6.04 605.48 6.28 605.71 C6.37
							 605.81 6.46 605.9 6.56 605.99 ZM4.79 592.81 C4.93 592.93 5.03 593.06 5.03 593.21 C5.03 593.67 5.34 594.97
							 5.91 594.97 C6.25 594.97 6.41 595.2 6.56 595.46 L6.56 603.94 C6.15 604.23 5.61 604.48 5.17 604.52 C5.04
							 604.37 4.91 604.22 4.79 604.06 L4.79 592.81 ZM6.56 586.9 L6.56 587.62 C6.61 587.62 6.66 587.62 6.72
							 587.62 C7.18 587.65 7.13 586.9 6.64 586.9 C6.61 586.9 6.59 586.9 6.56 586.9 ZM7.39 584.56 L7.39 574.33
							 C7.27 574.44 7.15 574.55 7.02 574.66 C6.87 574.8 6.71 574.95 6.56 575.1 L6.56 584.72 C6.75 584.55 7.07
							 584.54 7.39 584.56 ZM7.39 606.75 L7.39 604.41 C7.15 604.5 6.86 604.6 6.56 604.7 L6.56 605.99 C6.71 606.14
							 6.87 606.28 7.02 606.43 C7.14 606.54 7.27 606.64 7.39 606.75 L7.39 606.75 ZM6.56 595.46 C6.65 595.63
							 6.75 595.81 6.89 595.95 C7.03 596.09 7.2 596.18 7.39 596.27 L7.39 602.67 C7.23 602.76 7.15 602.96 7.15
							 603.22 C7.15 603.41 6.9 603.69 6.56 603.94 L6.56 595.46 ZM8.39 584.61 L8.39 573.52 C8.05 573.78 7.72
							 574.05 7.39 574.33 L7.39 584.56 C7.6 584.57 7.81 584.6 7.98 584.6 C8.11 584.6 8.24 584.61 8.39 584.61
							 ZM8.39 586.99 L8.39 586.85 C8.34 586.82 8.26 586.81 8.12 586.82 C7.5 586.84 7.1 587.22 7.88 587.17 C8.09
							 587.17 8.3 587.08 8.39 586.99 ZM8.39 596.59 L8.39 596.09 C8.12 596.15 7.99 596.52 8.31 596.57 C8.34
							 596.58 8.36 596.59 8.39 596.59 ZM8.39 607.24 L8.39 606.14 C7.92 606.15 7.71 605.88 8.24 605.39 C8.3
							 605.34 8.35 605.29 8.39 605.24 L8.39 604.28 C8.27 604.17 8.1 604.13 7.93 604.2 C7.81 604.25 7.62 604.33
							 7.39 604.41 L7.39 606.75 C7.65 606.98 7.91 607.19 8.18 607.4 C8.23 607.33 8.3 607.28 8.39 607.24 ZM7.39
							 596.27 C7.69 596.41 8.05 596.57 8.39 596.97 L8.39 598.07 C8.15 598.36 7.77 598.55 7.52 598.55 C7.11
							 598.55 7.86 598.95 8.39 599.01 L8.39 603.24 C8.12 603.14 8.35 602.77 7.93 602.65 C7.7 602.58 7.52 602.59
							 7.39 602.67 L7.39 596.27 ZM8.39 604.28 L8.39 605.24 C8.68 604.86 8.6 604.46 8.39 604.28 ZM8.39 596.09
							 C8.41 596.09 8.43 596.08 8.46 596.08 C8.75 596.08 8.7 596.61 8.39 596.59 L8.39 596.09 ZM8.39 586.85
							 L8.39 586.99 C8.44 586.93 8.45 586.88 8.39 586.85 ZM9.06 584.59 L9.06 573.02 C8.83 573.18 8.61 573.35
							 8.39 573.52 L8.39 584.61 C8.59 584.62 8.82 584.62 9.06 584.59 ZM9.06 597.01 L9.06 596.34 C8.7 596.42
							 8.53 596.92 8.96 597 C9 597.01 9.03 597.01 9.06 597.01 ZM9.06 606.7 L9.06 606.05 C9 606.04 8.92 606.04
							 8.81 606.07 C8.66 606.11 8.51 606.14 8.39 606.14 L8.39 607.24 C8.41 607.23 8.43 607.22 8.45 607.21 C8.71
							 607.12 8.93 606.91 9.06 606.7 ZM8.39 599.01 C8.54 599.03 8.68 599.02 8.76 598.96 C8.89 598.87 8.98 598.78
							 9.06 598.7 L9.06 603 C8.97 603.15 8.84 603.25 8.66 603.27 C8.53 603.28 8.45 603.27 8.39 603.24 L8.39
							 599.01 ZM8.39 596.97 C8.41 596.99 8.43 597.02 8.45 597.04 C8.74 597.41 8.63 597.79 8.39 598.07 L8.39
							 596.97 ZM9.06 606.05 L9.06 606.7 C9.24 606.42 9.27 606.11 9.06 606.05 ZM9.06 596.34 L9.06 597.01 C9.48
							 597.04 9.55 596.33 9.16 596.33 C9.12 596.33 9.09 596.34 9.06 596.34 ZM10.83 583.76 L10.83 571.9 L10.77
							 571.93 C10.18 572.27 9.61 572.63 9.06 573.02 L9.06 584.59 C9.38 584.55 9.73 584.46 10.11 584.23 C10.36
							 584.08 10.6 583.92 10.83 583.76 ZM10.83 599.14 L10.83 597.63 C10.45 597.79 10.29 597.95 10.51 598.47
							 C10.8 599.15 10.5 599.17 10.83 599.14 ZM9.06 598.7 C9.21 598.57 9.3 598.52 9.43 598.76 C9.63 599.1 10.02
							 599.36 10.83 599.38 L10.83 600.2 C10.72 600.36 10.63 600.52 10.68 600.62 C10.84 600.99 10.06 601.14
							 9.64 601.56 C9.34 601.86 9.31 602.6 9.06 603 L9.06 598.7 ZM10.83 597.63 L10.83 599.14 C10.86 599.14
							 10.9 599.13 10.94 599.13 C11.76 599.17 11.87 598.55 12.11 598.04 C12.34 597.54 12.19 597.03 11.41 597.38
							 C11.18 597.48 10.99 597.56 10.83 597.63 ZM10.83 571.9 L10.83 583.76 C11.4 583.36 11.91 582.99 12.39
							 582.99 C13.07 582.99 12.96 582.31 12.96 581.64 C12.96 580.97 13.84 580.97 14.78 580.65 C15.71 580.34
							 16.13 580.4 17.06 579.82 C17.99 579.25 18.2 578.94 17.73 578.27 C17.27 577.59 16.28 576.56 16.23 575.57
							 C16.18 574.59 15.55 573.65 14.88 573.55 C14.21 573.45 13.58 572.93 13.58 572.46 C13.58 571.99 12.96
							 572.2 12.91 571.32 C12.9 571.18 12.87 571.03 12.83 570.89 C12.44 571.06 12.06 571.24 11.68 571.43 C11.4
							 571.58 11.11 571.73 10.83 571.9 ZM21.83 606.49 C21.42 606.36 21.17 605.57 21.83 605.02 L21.83 606.49
							 ZM21.83 612 L21.83 611.27 C21.55 610.89 21.56 610.63 20.95 610.63 C20.22 610.63 21.83 609.49 21 609.49
							 C20.17 609.49 19.91 608.45 20.74 608.56 C21.57 608.66 21.52 608.3 20.64 607.88 C19.76 607.47 18.36 607.47
							 17.94 606.8 C17.53 606.12 15.97 606.17 15.97 605.55 C15.97 604.93 15.71 602.65 14.52 603.06 C13.32 603.48
							 13.07 604.67 12.6 605.39 C12.13 606.12 12.86 606.9 12.39 607.16 C11.92 607.42 13.43 608.61 12.91 608.25
							 C12.39 607.88 11.56 608.4 12.29 608.56 C13.01 608.71 12.75 609.44 12.24 609.28 C11.84 609.17 11.42 609.29
							 11.53 609.57 L11.68 609.65 C11.99 609.81 12.3 609.96 12.62 610.1 C12.84 610.2 13.06 610.3 13.28 610.39
							 C13.38 610.43 13.48 610.47 13.58 610.51 C13.91 610.64 14.24 610.76 14.57 610.87 C16.53 611.54 18.62
							 611.92 20.79 611.99 C21.01 612 21.23 612 21.45 612 C21.58 612 21.7 612 21.83 612 ZM10.83 599.38 C10.87
							 599.38 10.9 599.38 10.94 599.38 C11.56 599.38 11.1 599.81 10.83 600.2 L10.83 599.38 ZM22.61 592.23 C22.79
							 592.32 22.93 592.24 22.89 592.07 C22.86 591.9 22.71 591.69 22.55 591.87 C22.4 592.06 22.41 592.17 22.61
							 592.23 ZM21.83 611.27 L21.83 612 L21.84 612 C21.98 611.99 22.11 611.99 22.24 611.98 C22.24 611.84 22.2
							 611.68 22.04 611.51 C21.95 611.43 21.89 611.35 21.83 611.27 ZM23.31 586.42 L23.31 585.61 C23.12 585.92
							 23.06 586.19 23.27 586.38 C23.29 586.39 23.3 586.4 23.31 586.42 ZM23.31 588.4 L23.31 587.23 C23.28 587.27
							 23.25 587.31 23.22 587.36 C23.04 587.61 23.14 588.04 23.31 588.4 ZM23.31 591.17 L23.31 590.7 C23.27
							 590.69 23.22 590.71 23.17 590.77 C23.01 590.96 23.03 591.07 23.22 591.13 C23.26 591.15 23.29 591.16
							 23.31 591.17 ZM23.31 606.23 L23.31 604.79 C22.88 604.61 22.37 604.59 21.87 604.98 C21.86 604.99 21.84
							 605.01 21.83 605.02 L21.83 606.49 C21.92 606.51 22.02 606.51 22.12 606.47 C22.67 606.22 22.86 606.28
							 23.29 606.22 L23.31 606.23 ZM23.31 590.7 L23.31 591.17 C23.44 591.19 23.53 591.11 23.5 590.97 C23.48
							 590.85 23.41 590.73 23.31 590.7 ZM23.65 588.98 L23.65 585.18 C23.52 585.33 23.4 585.47 23.31 585.61
							 L23.31 586.42 C23.74 586.82 23.55 586.96 23.31 587.23 L23.31 588.4 C23.4 588.59 23.51 588.76 23.6 588.89
							 C23.62 588.92 23.63 588.94 23.65 588.98 ZM23.65 592.5 L23.65 592.04 C23.61 592.05 23.57 592.07 23.53
							 592.12 C23.38 592.3 23.39 592.42 23.59 592.48 C23.61 592.49 23.63 592.5 23.65 592.5 ZM23.65 606.28 L23.65
							 604.97 C23.55 604.9 23.43 604.84 23.31 604.79 L23.31 606.23 C23.44 606.26 23.55 606.28 23.65 606.28
							 ZM23.65 604.97 L23.65 606.28 C24.21 606.27 24.46 605.77 24.1 605.35 C23.98 605.22 23.83 605.08 23.65
							 604.97 ZM23.65 592.04 C23.76 592.04 23.84 592.19 23.87 592.31 C23.9 592.47 23.79 592.55 23.65 592.5
							 L23.65 592.04 ZM26.12 592.72 L26.12 582.79 C25.68 583.1 25.18 583.64 24.75 584.08 C24.43 584.4 23.99
							 584.79 23.65 585.18 L23.65 588.98 C23.9 589.44 24.07 590.59 24.58 590.64 C25.13 590.7 25.51 591.3 25.51
							 591.79 C25.51 592.18 25.75 592.53 26.12 592.72 ZM26.12 596.22 L26.12 593.68 C25.84 593.68 25.62 593.7
							 25.62 593.98 C25.62 594.52 25.24 594.74 25.51 595.24 C25.79 595.73 25.51 596.22 26.06 596.22 L26.12
							 596.22 ZM26.12 601.16 L26.12 599.35 C25.85 599.27 25.56 599.47 25.64 599.85 C25.76 600.39 25.36 601.22
							 26.12 601.16 ZM26.12 609.37 L26.12 608.73 C25.81 608.92 25.7 609.33 26.12 609.37 ZM26.12 608.73 L26.12
							 609.37 C26.16 609.38 26.21 609.38 26.26 609.37 C26.69 609.37 27 608.63 26.44 608.63 C26.32 608.63 26.21
							 608.67 26.12 608.73 ZM26.12 599.35 C26.24 599.39 26.37 599.49 26.44 599.67 C26.69 600.22 26.69 601.21
							 26.2 601.15 C26.17 601.16 26.14 601.16 26.12 601.16 L26.12 599.35 ZM27.6 593.28 L27.6 582.79 C27.32
							 582.71 27.07 582.63 26.83 582.55 C26.64 582.48 26.39 582.59 26.12 582.79 L26.12 592.72 C26.22 592.77
							 26.33 592.81 26.44 592.83 C26.88 592.92 27.04 593.18 27.6 593.28 ZM27.6 596.16 L27.6 593.53 C27.39 593.46
							 27.16 593.45 26.94 593.59 C26.72 593.73 26.39 593.69 26.12 593.68 L26.12 596.22 C26.62 596.21 26.74
							 596.11 27.32 596.11 C27.42 596.11 27.51 596.13 27.6 596.16 ZM27.6 602.46 L27.6 599.08 C27.12 598.88
							 26.78 598.6 26.69 599.17 C26.57 599.98 26.51 599.92 27.25 600.22 C27.99 600.53 26.94 602.51 27.5 602.45
							 C27.53 602.45 27.57 602.46 27.6 602.46 ZM27.6 599.08 C27.79 599.16 28.01 599.24 28.24 599.24 C29.04
							 599.24 28.18 600.6 28.3 601.03 C28.42 601.44 28.37 602.48 27.6 602.46 L27.6 599.08 ZM28.85 593.44 L28.85
							 583.14 C28.75 583.14 28.66 583.12 28.58 583.09 C28.21 582.98 27.89 582.88 27.6 582.79 L27.6 593.28 C27.73
							 593.31 27.89 593.32 28.08 593.32 C28.39 593.32 28.63 593.37 28.85 593.44 ZM28.85 599.09 L28.85 594.78
							 C28.62 594.74 28.43 594.64 28.47 594.36 C28.52 593.98 28.36 594.03 28.08 593.81 C27.95 593.71 27.79
							 593.59 27.6 593.53 L27.6 596.16 C28.05 596.3 28.33 596.78 27.92 597.15 C27.43 597.59 27.59 598.19 27.87
							 598.68 C28.12 599.14 28.28 598.98 28.85 599.09 ZM28.85 601.93 L28.85 601.47 C28.81 601.47 28.77 601.49
							 28.73 601.54 C28.58 601.73 28.59 601.84 28.79 601.9 C28.81 601.91 28.83 601.92 28.85 601.93 ZM28.85
							 601.47 L28.85 601.93 C28.99 601.97 29.1 601.89 29.07 601.74 C29.04 601.61 28.95 601.47 28.85 601.47
							 ZM29.21 593.57 L29.21 583.13 C29.08 583.15 28.96 583.15 28.85 583.14 L28.85 593.44 C28.97 593.48 29.09
							 593.52 29.21 593.57 ZM29.21 599.2 L29.21 594.81 C29.18 594.8 29.15 594.8 29.12 594.8 C29.03 594.8 28.94
							 594.79 28.85 594.78 L28.85 599.09 C28.88 599.1 28.92 599.11 28.96 599.12 C29.04 599.14 29.13 599.17
							 29.21 599.2 ZM29.21 600.1 L29.21 599.64 C29.17 599.64 29.13 599.66 29.09 599.71 C28.94 599.9 28.95 600.01
							 29.15 600.07 C29.17 600.08 29.19 600.09 29.21 600.1 ZM29.21 599.64 L29.21 600.1 C29.35 600.14 29.46
							 600.06 29.43 599.91 C29.4 599.78 29.31 599.63 29.21 599.64 ZM33.29 592.2 L33.29 573.14 C33.23 573.52
							 33.22 573.9 32.95 574.29 C32.46 575 31.97 576.26 32.46 576.91 C32.95 577.57 33.17 578.06 32.73 578.23
							 C32.3 578.39 32.95 579.16 32.35 579.54 C31.75 579.92 31.37 580.96 31.58 581.45 C31.8 581.95 31.86 582.77
							 31.15 582.77 C30.62 582.77 29.86 583.06 29.21 583.13 L29.21 593.57 C29.53 593.69 29.86 593.81 30.38
							 593.81 C31.42 593.81 32.19 594.2 32.08 593.38 C31.98 592.68 32.73 592.45 33.29 592.2 ZM33.29 601.09
							 C32.98 601.01 32.75 600.87 32.24 600.87 C31.53 600.87 31.8 601.36 31.37 601.36 C30.93 601.36 31.04 600.54
							 30.65 600.16 C30.32 599.82 29.78 599.41 29.21 599.2 L29.21 594.81 C29.47 594.9 29.55 595.4 29.4 595.95
							 C29.23 596.55 30.27 596.33 31.15 596.33 C32.02 596.33 32.13 595.73 32.73 595.51 C33.04 595.4 33.2 595.21
							 33.29 594.94 L33.29 595.99 C33.22 596.06 33.15 596.13 33.06 596.22 C32.71 596.57 32.95 596.78 33.29
							 596.57 L33.29 601.09 ZM33.29 607.31 L33.29 601.69 C33.02 601.48 32.8 601.11 32.68 601.52 C32.51 602.07
							 32.19 602.67 31.8 602.4 C31.42 602.13 31.48 601.2 30.98 601.96 C30.49 602.73 30.05 603.82 30.6 604.42
							 C31.15 605.03 31.91 605.52 32.35 606.12 C32.56 606.41 32.9 606.88 33.29 607.31 ZM33.29 601.69 C33.37
							 601.75 33.46 601.8 33.55 601.8 C33.94 601.8 34.1 602.29 34.54 602.73 C34.98 603.17 34.15 603.71 34.37
							 604.31 C34.59 604.92 35.25 605.19 35.41 605.79 C35.51 606.16 35.98 606.22 36.23 606.1 C36.11 606.21
							 36 606.32 35.88 606.43 C35.39 606.87 34.87 607.3 34.34 607.7 C34.22 607.79 34.09 607.88 33.97 607.97
							 C33.74 607.79 33.51 607.56 33.29 607.31 L33.29 601.69 ZM33.29 594.94 C33.38 594.68 33.39 594.36 33.39
							 593.98 C33.39 593.21 33.99 594.25 34.1 594.58 C34.21 594.91 34.43 595.67 33.99 595.67 C33.65 595.67
							 33.51 595.77 33.29 595.99 L33.29 594.94 ZM33.29 573.14 L33.29 592.2 C33.38 592.16 33.47 592.11 33.55
							 592.06 C34.1 591.74 34.87 591.3 35.08 591.79 C35.3 592.28 36.01 592.12 36.62 592.01 C37.22 591.9 38.26
							 591.68 38.8 591.74 C39.35 591.79 39.9 592.28 39.95 592.77 C40.01 593.27 39.24 593.38 38.31 593.38 C37.38
							 593.38 37 593.54 37.16 594.09 C37.33 594.63 37.6 595.13 38.09 595.35 C38.58 595.56 39.02 595.67 39.51
							 595.67 C40.01 595.67 40.66 595.29 41.26 595.35 C41.87 595.4 41.65 595.95 41.05 596.27 C40.44 596.6 40.34
							 597.1 40.61 597.37 C40.88 597.64 40.72 597.92 40.23 597.64 C39.73 597.37 39.02 596.66 38.86 597.1 C38.69
							 597.53 37.49 597.15 37.49 596.49 C37.49 595.84 37.66 595.73 37.44 595.29 C37.22 594.85 36.73 594.52
							 36.29 594.58 C35.85 594.63 36.34 593.81 35.91 593.59 C35.47 593.38 35.25 593.92 34.98 594.47 C34.7 595.02
							 34.48 595.35 34.21 595.67 C33.94 596 33.77 596.17 33.39 596.49 C33.36 596.52 33.32 596.55 33.29 596.57
							 L33.29 601.09 C33.41 601.12 33.55 601.14 33.72 601.14 C34.32 601.14 34.76 600.65 35.19 601.03 C35.63
							 601.42 34.87 602.07 35.52 602.07 C36.18 602.07 36.73 602.02 36.23 602.51 C35.74 603 36.4 602.73 36.94
							 603 C37.49 603.28 37.44 603.71 36.78 603.6 C36.12 603.49 35.58 603.11 35.3 603.77 C35.03 604.42 35.85
							 605.19 36.29 605.68 C36.38 605.79 36.4 605.89 36.37 605.96 C36.46 605.88 36.54 605.8 36.62 605.72 C36.87
							 605.47 37.1 605.22 37.33 604.97 C37.68 604.59 38.01 604.2 38.33 603.79 C38.97 602.98 39.55 602.12 40.07
							 601.22 C40.24 600.92 40.4 600.62 40.56 600.31 C40.64 600.16 40.72 600 40.79 599.85 C41.02 599.38 41.23
							 598.9 41.42 598.41 C41.49 598.25 41.55 598.09 41.61 597.92 C41.85 597.26 42.06 596.59 42.23 595.91 C42.32
							 595.56 42.4 595.22 42.47 594.87 C42.54 594.52 42.61 594.17 42.66 593.81 C42.72 593.46 42.76 593.1 42.8
							 592.74 C42.87 592.02 42.91 591.28 42.91 590.54 C42.91 589.8 42.87 589.07 42.8 588.35 C42.76 587.99 42.71
							 587.63 42.66 587.28 C42.61 586.92 42.54 586.57 42.47 586.22 C42.44 586.07 42.41 585.93 42.38 585.78
							 L42.36 585.83 C41.87 586.98 40.77 588.24 40.39 589.27 C40.01 590.31 39.62 590.97 39.24 590.91 C38.86
							 590.86 39.73 588.89 40.12 588.18 C40.5 587.47 40.94 586.32 41.59 585.66 C41.8 585.46 42.01 585.29 42.23
							 585.16 C42.05 584.48 41.84 583.82 41.61 583.17 C41.49 582.84 41.36 582.51 41.22 582.19 C41.09 581.87
							 40.94 581.55 40.79 581.24 C40.72 581.08 40.64 580.93 40.56 580.77 C40.4 580.47 40.24 580.16 40.07 579.86
							 C39.96 579.68 39.84 579.49 39.73 579.31 C39.3 578.61 38.84 577.94 38.33 577.3 C38.01 576.89 37.68 576.5
							 37.33 576.12 C37.1 575.86 36.87 575.61 36.62 575.37 C36.38 575.13 36.13 574.89 35.88 574.66 C35.1 573.95
							 34.27 573.3 33.39 572.71 C33.34 572.86 33.31 573 33.29 573.14 Z" class="st2"/>
			</g>
		</g>
	</g>
</svg>
