<?xml version="1.0" encoding="UTF-8" standalone="no"?>
<!DOCTYPE svg PUBLIC "-//W3C//DTD SVG 1.1//EN" "http://www.w3.org/Graphics/SVG/1.1/DTD/svg11.dtd">
<!-- Generated by Microsoft Visio, SVG Export Client-App.svg Page-1 -->
<svg xmlns="http://www.w3.org/2000/svg" xmlns:xlink="http://www.w3.org/1999/xlink" xmlns:ev="http://www.w3.org/2001/xml-events"
		xmlns:v="http://schemas.microsoft.com/visio/2003/SVGExtensions/" width="11in" height="8.5in" viewBox="0 0 792 612"
		xml:space="preserve" color-interpolation-filters="sRGB" class="st8">
	<v:documentProperties v:langID="1033" v:viewMarkup="false">
		<v:userDefs>
			<v:ud v:nameU="msvSubprocessMaster" v:prompt="" v:val="VT4(Rectangle)"/>
			<v:ud v:nameU="msvNoAutoConnect" v:val="VT0(1):26"/>
		</v:userDefs>
	</v:documentProperties>

	<style type="text/css">
	<![CDATA[
		.st1 {fill:#a0a1a2;stroke:none;stroke-width:0.75}
		.st2 {fill:#ffffff;fill-opacity:0.2;stroke:none;stroke-width:0.75}
		.st3 {fill:#59b4d9;stroke:none;stroke-width:0.75}
		.st4 {fill:#b8d432;stroke:none;stroke-width:0.75}
		.st5 {fill:#7a7a7a;stroke:none;stroke-width:0.75}
		.st6 {fill:#0072c6;stroke:none;stroke-width:0.75}
		.st7 {fill:#ffffff;fill-opacity:0.098;stroke:none;stroke-width:0.75}
		.st8 {fill:none;fill-rule:evenodd;font-size:12px;overflow:visible;stroke-linecap:square;stroke-miterlimit:3}
	]]>
	</style>

	<g v:mID="0" v:index="1" v:groupContext="foregroundPage">
		<v:userDefs>
			<v:ud v:nameU="msvThemeOrder" v:val="VT0(0):26"/>
		</v:userDefs>
		<title>Page-1</title>
		<v:pageProperties v:drawingScale="1" v:pageScale="1" v:drawingUnits="0" v:shadowOffsetX="9" v:shadowOffsetY="-9"/>
		<g id="group10536-1" transform="translate(18,-564.094)" v:mID="10536" v:groupContext="group">
			<title>Client App</title>
			<g id="shape10537-2" v:mID="10537" v:groupContext="shape" transform="translate(3.75,-2.505)">
				<title>Sheet.10537</title>
				<path d="M35.23 584.6 L2.04 584.6 A2.121 2.121 -180 0 0 0 586.73 L0 609.88 A2.109 2.109 -180 0 0 2.04 612 L35.23
							 612 A2.3175 2.3175 -180 0 0 37.5 609.88 L37.5 586.73 A2.325 2.325 -180 0 0 35.23 584.6 Z" class="st1"/>
			</g>
			<g id="shape10538-4" v:mID="10538" v:groupContext="shape" transform="translate(3.74925,-2.50275)">
				<title>Sheet.10538</title>
				<path d="M35.26 584.6 L35.23 584.6 L2.04 584.6 A2.12025 2.12025 -180 0 0 0 586.73 L0 609.88 A2.109 2.109 -180 0 0
							 2.04 612 L2.83 612 L35.26 584.6 Z" class="st2"/>
			</g>
			<g id="shape10539-6" v:mID="10539" v:groupContext="shape" transform="translate(6.59175,-5.39025)">
				<title>Sheet.10539</title>
				<path d="M31.73 590.37 L31.73 612 L0 612 L0 590.37 L31.73 590.37 Z" class="st3"/>
			</g>
			<g id="shape10540-8" v:mID="10540" v:groupContext="shape" transform="translate(6.59175,-5.39025)">
				<title>Sheet.10540</title>
				<path d="M0 612 L0.04 612 L0.04 590.37 L29.05 590.33 L29.05 590.33 L0 590.37 L0 612 Z" class="st3"/>
			</g>
			<g id="shape10541-10" v:mID="10541" v:groupContext="shape" transform="translate(21.98,-27.9597)">
				<title>Sheet.10541</title>
				<path d="M0.91 611.62 a0.53175 0.53175 0 1 1 -0.5325 -0.5325 a0.5325 0.5325 0 0 1 0.5325 0.5325 Z" class="st4"/>
			</g>
			<g id="shape10542-12" v:mID="10542" v:groupContext="shape">
				<title>Sheet.10542</title>
				<path d="M0 608.48 L0 609.88 A2.109 2.109 -180 0 0 2.04 612 L42.73 612 A2.3175 2.3175 -180 0 0 45 609.88 L45 608.48
							 L0 608.48 Z" class="st5"/>
			</g>
			<g id="group10543-14" transform="translate(15.672,-9.555)" v:mID="10543" v:groupContext="group">
				<title>Sheet.10543</title>
				<g id="shape10544-15" v:mID="10544" v:groupContext="shape" transform="translate(0.003,1.13687E-13)">
					<title>Sheet.10544</title>
					<path d="M0 611.42 a0.55575 0.55575 -180 0 0 0.57675 0.57675 L13.85 612 a0.55575 0.55575 -180 0 0 0.57675 -0.57675
								 L14.43 601.81 L0 601.81 L0 611.42 Z" class="st6"/>
				</g>
				<g id="shape10545-17" v:mID="10545" v:groupContext="shape" transform="translate(0,-10.002)">
					<title>Sheet.10545</title>
					<path d="M13.85 609.31 L0.58 609.31 a0.55575 0.55575 -180 0 0 -0.57675 0.57675 L0 612 L14.43 612 L14.43 609.88
								 a0.55575 0.55575 -180 0 0 -0.57525 -0.57675 Z" class="st5"/>
				</g>
				<g id="shape10546-19" v:mID="10546" v:groupContext="shape" transform="translate(0.003,1.13687E-13)">
					<title>Sheet.10546</title>
					<path d="M0.58 599.31 a0.55575 0.55575 -180 0 0 -0.57675 0.57675 L0 611.42 a0.55575 0.55575 -180 0 0 0.57675
								 0.57675 L6.11 612 L12.6 599.3 L0.58 599.31 Z" class="st7"/>
				</g>
			</g>
		</g>
	</g>
</svg>
