<svg xmlns="http://www.w3.org/2000/svg" viewBox="0 0 107 16.88"><defs><style>.cls-1{fill:#1d155a;}</style></defs><title>cobol_logo</title><g id="Layer_2" data-name="Layer 2"><g id="Layer_1-2" data-name="Layer 1"><path class="cls-1" d="M36.62.26H24.93a4.15,4.15,0,0,0-4.15,4.16v8.31a4.15,4.15,0,0,0,4.15,4.15H36.62a4.15,4.15,0,0,0,4.15-4.15V4.42A4.15,4.15,0,0,0,36.62.26ZM37,11.17a2.59,2.59,0,0,1-2.59,2.59H27.12a2.59,2.59,0,0,1-2.59-2.59V6a2.59,2.59,0,0,1,2.59-2.59h7.31A2.59,2.59,0,0,1,37,6Z"/><path class="cls-1" d="M81.81,0H70.12A4.15,4.15,0,0,0,66,4.16v8.31a4.15,4.15,0,0,0,4.15,4.15H81.81A4.15,4.15,0,0,0,86,12.47V4.16A4.15,4.15,0,0,0,81.81,0Zm.4,10.91a2.59,2.59,0,0,1-2.59,2.59H72.31a2.59,2.59,0,0,1-2.59-2.59V5.71a2.59,2.59,0,0,1,2.59-2.59h7.31a2.59,2.59,0,0,1,2.59,2.59Z"/><path class="cls-1" d="M14.28,13.68a2.59,2.59,0,0,1-.63.08H6.35a2.59,2.59,0,0,1-2.6-2.59V6a2.59,2.59,0,0,1,2.6-2.59h7.3a2.59,2.59,0,0,1,.63.08V.26H4.16A4.16,4.16,0,0,0,0,4.42v8.31a4.15,4.15,0,0,0,4.16,4.15H14.28Z"/><path class="cls-1" d="M12.21.26H17.5a1.2,1.2,0,0,1,1.2,1.2v.72a1.2,1.2,0,0,1-1.2,1.2H12.21a0,0,0,0,1,0,0V.26a0,0,0,0,1,0,0Z"/><path class="cls-1" d="M86.83,1.63h5.26a1.44,1.44,0,0,1,1.44,1.44v.86a1.44,1.44,0,0,1-1.44,1.44H86.83a0,0,0,0,1,0,0V1.63A0,0,0,0,1,86.83,1.63Z" transform="translate(86.67 93.68) rotate(-90)"/><path class="cls-1" d="M12.21,13.76H17.5A1.2,1.2,0,0,1,18.7,15v.72a1.2,1.2,0,0,1-1.2,1.2H12.21a0,0,0,0,1,0,0V13.76A0,0,0,0,1,12.21,13.76Z"/><path class="cls-1" d="M100.51,13.5h5.29a1.2,1.2,0,0,1,1.2,1.2v.72a1.2,1.2,0,0,1-1.2,1.2h-5.29a0,0,0,0,1,0,0V13.5A0,0,0,0,1,100.51,13.5Z"/><path class="cls-1" d="M94.65,13.5a2.59,2.59,0,0,1-2.6-2.59V6H88.3v6.5a4.15,4.15,0,0,0,4.16,4.15h10.12v-3.2a2.59,2.59,0,0,1-.63.08Z"/><path class="cls-1" d="M63.88,11.32c-.11-.85-.84-1.52-1.08-2a1.45,1.45,0,0,1,.06-1.45,7.09,7.09,0,0,0,.56-1.1,4.51,4.51,0,0,0,0-3.62,5.46,5.46,0,0,0-5-3.15h-14a1,1,0,0,0-1,1v14.8a1,1,0,0,0,1,1H58.66C62.33,16.88,64.28,14.41,63.88,11.32ZM60,13a1,1,0,0,1-1,1H47V10.13H59a1,1,0,0,1,1,1ZM60,6.1a1,1,0,0,1-1,1H47V3.25H59a1,1,0,0,1,1,1Z"/></g></g></svg>