<svg xmlns="http://www.w3.org/2000/svg" viewBox="0 0 80 80">
    <path fill="none" d="M0 0h80v80H0z"/>
    <circle cx="40" cy="40" r="40" fill="#00B294" fill-opacity=".05"/>
    <path d="M54 34.375a5.33 5.33 0 01-.352 1.934 5.516 5.516 0 01-.949 1.652 5.76 5.76 0 01-1.459 1.248 5.311 5.311 0 01-1.846.685 5.585 5.585 0 01-.703 1.846 5.47 5.47 0 01-1.23 1.46 5.83 5.83 0 01-1.652.966 5.589 5.589 0 01-1.934.334h-6.75a3.27 3.27 0 00-1.072.176 3.317 3.317 0 00-1.67 1.266 3.21 3.21 0 00-.475.966 5.379 5.379 0 011.74.756c.54.34.996.75 1.371 1.23.387.481.686 1.02.897 1.618a5.28 5.28 0 01.334 1.863c0 .773-.152 1.506-.457 2.197a5.64 5.64 0 01-2.988 2.988c-.68.293-1.407.44-2.18.44a5.573 5.573 0 01-2.197-.44 5.855 5.855 0 01-1.793-1.195 5.855 5.855 0 01-1.196-1.793A5.573 5.573 0 0127 52.375c0-.668.111-1.307.334-1.916a5.49 5.49 0 01.932-1.635 5.598 5.598 0 011.424-1.248 5.4 5.4 0 011.81-.703V33.127a5.4 5.4 0 01-1.81-.703 5.77 5.77 0 01-1.424-1.23 5.732 5.732 0 01-.932-1.653A5.538 5.538 0 0127 27.625c0-.773.146-1.5.44-2.18a5.64 5.64 0 012.988-2.988A5.389 5.389 0 0132.625 22c.773 0 1.5.152 2.18.457.68.293 1.271.697 1.775 1.213a5.5 5.5 0 011.213 1.775c.305.68.457 1.407.457 2.18a5.53 5.53 0 01-.334 1.916 5.732 5.732 0 01-.932 1.652 5.77 5.77 0 01-1.424 1.23 5.4 5.4 0 01-1.81.704V43.41a5.717 5.717 0 011.6-.861 5.38 5.38 0 011.775-.299h6.75a3.27 3.27 0 001.072-.176 3.38 3.38 0 002.145-2.232 5.829 5.829 0 01-1.758-.739 5.731 5.731 0 01-1.371-1.23 6.411 6.411 0 01-.897-1.617 5.611 5.611 0 01-.316-1.881c0-.773.147-1.5.44-2.18a5.64 5.64 0 012.988-2.988 5.389 5.389 0 012.197-.457c.773 0 1.5.152 2.18.457.68.293 1.271.697 1.775 1.213a5.5 5.5 0 011.213 1.775c.305.68.457 1.407.457 2.18zm-24.75-6.75c0 .469.088.908.264 1.318.175.41.416.768.72 1.073a3.38 3.38 0 002.391.984c.469 0 .908-.088 1.318-.264.41-.175.768-.416 1.073-.72.304-.305.544-.662.72-1.073.176-.41.264-.85.264-1.318 0-.469-.088-.908-.264-1.318a3.387 3.387 0 00-.72-1.073 3.387 3.387 0 00-1.073-.72 3.311 3.311 0 00-1.318-.264c-.469 0-.908.088-1.318.264-.41.175-.768.416-1.073.72a3.387 3.387 0 00-.72 1.073c-.176.41-.264.85-.264 1.318zM36 52.375c0-.469-.088-.908-.264-1.318a3.387 3.387 0 00-.72-1.073 3.387 3.387 0 00-1.073-.72A3.311 3.311 0 0032.625 49c-.469 0-.908.088-1.318.264-.41.175-.768.416-1.073.72a3.387 3.387 0 00-.72 1.073c-.176.41-.264.85-.264 1.318 0 .469.088.908.264 1.318.175.41.416.768.72 1.073.305.304.662.544 1.073.72.41.176.85.264 1.318.264.469 0 .908-.088 1.318-.264.41-.175.768-.416 1.073-.72.304-.305.544-.663.72-1.073.176-.41.264-.85.264-1.318zM48.375 37.75c.469 0 .908-.088 1.318-.264.41-.175.768-.416 1.073-.72.304-.305.544-.663.72-1.073.176-.41.264-.85.264-1.318 0-.469-.088-.908-.264-1.318a3.387 3.387 0 00-.72-1.073 3.387 3.387 0 00-1.073-.72A3.311 3.311 0 0048.375 31c-.469 0-.908.088-1.318.264-.41.175-.768.416-1.073.72a3.387 3.387 0 00-.72 1.073c-.176.41-.264.85-.264 1.318 0 .469.088.908.264 1.318.175.41.416.768.72 1.073.305.304.663.544 1.073.72.41.176.85.264 1.318.264z" fill="#00B294"/>
</svg>
