<svg xmlns="http://www.w3.org/2000/svg" viewBox="0 0 80 80">
    <path fill="none" d="M0 0h80v80H0z"/>
    <circle cx="40" cy="40" r="40" fill="#00B294" fill-opacity=".05"/>
    <path d="M60 54.16L54.251 60l-1.719-1.746 2.808-2.852h-7.315a17.86 17.86 0 002.903-2.484h4.412l-2.808-2.852 1.72-1.747L60 54.16zM52.78 40.5c0 1.371-.178 2.69-.534 3.958a15.12 15.12 0 01-1.47 3.57 14.943 14.943 0 01-2.293 3.008 14.534 14.534 0 01-2.98 2.328 14.855 14.855 0 01-3.494 1.514 14.4 14.4 0 01-3.896.523H21v-2.483h17.113c1.12 0 2.202-.149 3.246-.446a12.54 12.54 0 002.923-1.242 12.42 12.42 0 002.463-1.94 12.12 12.12 0 001.91-2.523 12.463 12.463 0 001.68-6.267 12.463 12.463 0 00-1.68-6.267 11.674 11.674 0 00-1.91-2.503 11.539 11.539 0 00-2.463-1.94 12.061 12.061 0 00-2.922-1.262 11.787 11.787 0 00-3.247-.446c-.09 0-.179.007-.268.02a2.26 2.26 0 00-.286.019h-.115l2.75 2.813-1.719 1.747-5.748-5.84L38.475 21l1.72 1.746-2.827 2.872c.127-.013.248-.02.363-.02h.382c1.35 0 2.648.182 3.896.544 1.248.349 2.413.847 3.495 1.494a14.534 14.534 0 012.98 2.328 14.712 14.712 0 012.291 3.027 14.756 14.756 0 011.47 3.55c.357 1.269.536 2.588.536 3.959zm-25.573 9.934a14.884 14.884 0 01-3.762-9.934c0-1.216.14-2.406.42-3.57a15.01 15.01 0 011.26-3.337 14.754 14.754 0 014.66-5.336l1.777 1.804a12.208 12.208 0 00-2.369 1.999c-.7.763-1.298 1.597-1.795 2.503a12.85 12.85 0 00-1.127 2.852 12.408 12.408 0 00-.382 3.085c0 .983.115 1.947.344 2.891.23.931.554 1.824.974 2.678.433.84.955 1.636 1.566 2.386a12.183 12.183 0 002.082 1.98h-3.648z" fill="#00B294"/>
</svg>
