<svg xmlns="http://www.w3.org/2000/svg" viewBox="0 0 80 80">
    <path fill="none" d="M0 0h80v80H0z"/>
    <circle cx="40" cy="40" r="40" fill="#2560E0" fill-opacity=".05"/>
    <path d="M41.8 40.537V54h-2.6V40.537l-2.986 2.903-1.828-1.79 6.114-5.985 6.114 5.986-1.828 1.79-2.986-2.904zm12.37-6.662a7.58 7.58 0 012.336 1.054 7.604 7.604 0 011.849 1.67A7.368 7.368 0 0160 41.273c0 1.06-.203 2.055-.61 2.983a7.79 7.79 0 01-1.685 2.426 7.838 7.838 0 01-2.478 1.63 7.743 7.743 0 01-3.027.597h-7.8v-2.545h7.8a5.08 5.08 0 002.01-.398 5.174 5.174 0 002.783-2.704 4.924 4.924 0 00.407-1.99 4.82 4.82 0 00-.427-2.028 4.741 4.741 0 00-1.137-1.61 5.314 5.314 0 00-1.706-1.054 5.433 5.433 0 00-2.072-.398 8.637 8.637 0 00-1.036-3.023 8.765 8.765 0 00-1.99-2.426 8.751 8.751 0 00-2.702-1.61 9.045 9.045 0 00-3.23-.578 8.982 8.982 0 00-2.986.498 9.464 9.464 0 00-2.56 1.372 9.136 9.136 0 00-2.01 2.108 8.802 8.802 0 00-1.219 2.684 6.543 6.543 0 00-1.97-1.153 6.18 6.18 0 00-2.255-.418c-.894 0-1.74.166-2.54.497a6.6 6.6 0 00-2.07 1.373 6.317 6.317 0 00-1.382 2.028A6.052 6.052 0 0023.6 40a6.2 6.2 0 00.508 2.486 6.62 6.62 0 001.381 2.028 6.78 6.78 0 002.072 1.352 6.561 6.561 0 002.539.498h6.5v2.545h-6.5a9.126 9.126 0 01-3.555-.696 9.693 9.693 0 01-2.884-1.909 9.467 9.467 0 01-1.95-2.824A8.613 8.613 0 0121 40c0-1.233.237-2.386.71-3.46a9.143 9.143 0 011.95-2.824 9.21 9.21 0 012.885-1.91 8.905 8.905 0 013.555-.715c1.002 0 1.997.166 2.986.497a11.658 11.658 0 011.869-2.327 11.986 11.986 0 012.376-1.75 11.34 11.34 0 012.763-1.113A11.406 11.406 0 0143.1 26c1.26 0 2.465.192 3.616.577 1.164.384 2.234.928 3.209 1.63a11.58 11.58 0 012.56 2.486 10.921 10.921 0 011.685 3.182z" fill="#2560E0"/>
</svg>
