<svg xmlns="http://www.w3.org/2000/svg" viewBox="0 0 80 80">
    <path fill="none" d="M0 0h80v80H0z"/>
    <circle cx="40" cy="40" r="40" fill="#FFD2BE" fill-opacity=".2"/>
    <path d="M44.688 25a10.189 10.189 0 015.2 1.406c.761.45 1.455.992 2.08 1.626a10.134 10.134 0 011.626 2.08 10.191 10.191 0 011.406 5.2 10.189 10.189 0 01-1.406 5.2 10.49 10.49 0 01-3.706 3.707 10.191 10.191 0 01-5.2 1.406c-1.221 0-2.393-.205-3.516-.615a10.557 10.557 0 01-3.076-1.773l-11.5 11.485a.901.901 0 01-.659.278.901.901 0 01-.659-.278.901.901 0 01-.278-.66c0-.253.093-.473.278-.659l11.485-11.499a10.557 10.557 0 01-1.773-3.076 10.169 10.169 0 01-.615-3.516 10.189 10.189 0 011.406-5.2c.45-.761.987-1.455 1.612-2.08a10.49 10.49 0 012.094-1.626 10.191 10.191 0 015.2-1.406zm0 18.75a8.24 8.24 0 003.28-.66 8.672 8.672 0 002.681-1.816 8.467 8.467 0 001.802-2.68 8.08 8.08 0 00.674-3.282 8.087 8.087 0 00-.674-3.28 8.467 8.467 0 00-1.802-2.681 8.467 8.467 0 00-2.68-1.802 8.087 8.087 0 00-3.282-.674 8.087 8.087 0 00-3.28.674 8.467 8.467 0 00-2.681 1.802 8.672 8.672 0 00-1.817 2.68 8.24 8.24 0 00-.659 3.282c0 1.162.22 2.255.66 3.28a8.672 8.672 0 001.816 2.681 8.672 8.672 0 002.68 1.817 8.24 8.24 0 003.282.659z" fill="#D83B01"/>
</svg>
