<svg xmlns="http://www.w3.org/2000/svg" viewBox="0 0 80 80">
    <path fill="none" d="M0 0h80v80H0z"/>
    <circle cx="40" cy="40" r="40" fill="#854CC7" fill-opacity=".05"/>
    <path d="M47 38c1.24 0 2.406.24 3.5.719a9.028 9.028 0 012.86 1.922 9.028 9.028 0 011.92 2.859c.48 1.094.719 2.26.719 3.5 0 1.24-.24 2.406-.719 3.5a9.028 9.028 0 01-1.922 2.86 9.25 9.25 0 01-2.859 1.937A8.792 8.792 0 0147 56a8.792 8.792 0 01-3.5-.703 9.25 9.25 0 01-2.86-1.938 9.25 9.25 0 01-1.937-2.859A8.792 8.792 0 0138 47c0-1.24.234-2.406.703-3.5a9.25 9.25 0 011.938-2.86 9.028 9.028 0 012.859-1.92A8.625 8.625 0 0147 38zm1 16.438a7.792 7.792 0 002.36-.735 7.7 7.7 0 001.937-1.406 7.399 7.399 0 001.39-1.938 7.478 7.478 0 00.75-2.359H52v-2h2.438a7.535 7.535 0 00-.75-2.36 7.399 7.399 0 00-1.391-1.937 7.399 7.399 0 00-1.938-1.39 7.535 7.535 0 00-2.359-.75V42h-2v-2.438a7.535 7.535 0 00-2.36.75 7.399 7.399 0 00-1.937 1.391 7.7 7.7 0 00-1.406 1.938A7.792 7.792 0 0039.563 46H42v2h-2.438c.126.844.37 1.63.735 2.36a7.7 7.7 0 001.406 1.937 7.7 7.7 0 001.938 1.406c.729.365 1.515.61 2.359.734V52h2v2.438zM45 47c0-.396.104-.76.313-1.094a1.95 1.95 0 01.859-.734L51 43l-2.172 4.828c-.156.354-.4.64-.734.86A2.025 2.025 0 0147 49c-.281 0-.542-.052-.781-.156a2.208 2.208 0 01-.64-.422 2.208 2.208 0 01-.423-.64c-.104-.24-.156-.5-.156-.782zm-9 .25a11.293 11.293 0 001.094 4.86c.354.739.791 1.442 1.312 2.109.521.656 1.11 1.25 1.766 1.781h-10.64c-.417 0-.808-.078-1.173-.234a3.203 3.203 0 01-.968-.641 3.009 3.009 0 01-.641-.953A2.944 2.944 0 0126.516 53c0-.281.036-.547.109-.797.073-.26.182-.51.328-.75l8.89-15.469c.105-.187.157-.37.157-.547V26h-2v-2h12v2h-2v9.438c0 .177.042.343.125.5.083.145.172.291.266.437-.334.094-.662.198-.985.313-.312.114-.62.244-.922.39a2.257 2.257 0 01-.359-.781 3.359 3.359 0 01-.125-.86V26h-4v9.438c0 .541-.146 1.062-.438 1.562l-5.156 9h3.672l-.062.625c-.01.208-.016.417-.016.625z" fill="#854CC7"/>
</svg>
