<svg xmlns="http://www.w3.org/2000/svg" viewBox="0 0 80 80">
    <path fill="none" d="M0 0h80v80H0z"/>
    <circle cx="40" cy="40" r="40" fill="#2560E0" fill-opacity=".05"/>
    <path d="M31 24.25h-5.15l5.941 5.959-1.582 1.582-5.959-5.941V31H22v-9h9v2.25zM49 22h9v9h-2.25v-5.15l-5.959 5.941-1.582-1.582 5.941-5.959H49V22zM30.209 48.209l1.582 1.582-5.941 5.959H31V58h-9v-9h2.25v5.15l5.959-5.941zM55.75 54.15V49H58v9h-9v-2.25h5.15l-5.941-5.959 1.582-1.582 5.959 5.941zm-22.5-7.4v-13.5h13.5v13.5h-13.5zM35.5 35.5v9h9v-9h-9z" fill="#2560E0"/>
</svg>
