<svg xmlns="http://www.w3.org/2000/svg" viewBox="0 0 80 80">
    <path fill="none" d="M0 0h80v80H0z"/>
    <circle cx="40" cy="40" r="40" fill="#2560E0" fill-opacity=".05"/>
    <path d="M45.625 22.299L58 28.486v13.8l-2.25-1.126V31l-9 4.5v4.535L44.5 41.16V35.5l-9-4.5v3.99l-2.25-1.125v-5.379L45.625 22.3zm0 11.25l3.111-1.565-8.138-4.658-3.71 1.863 8.737 4.36zm5.537-2.76l3.2-1.6-8.737-4.377-2.62 1.319 8.157 4.658zM42.25 42.285L40 43.41v-.017l-6.75 3.375v7.998L40 51.373v2.531l-7.875 3.938L22 52.762V40.879l10.125-5.063L42.25 40.88v1.406zM31 54.765v-7.997l-6.75-3.375v7.98L31 54.766zm1.125-9.949l6.486-3.234-6.486-3.252-6.486 3.252 6.486 3.234zM42.25 44.8l7.875-3.938L58 44.8v9.264L50.125 58l-7.875-3.938V44.8zM49 54.924v-5.361l-4.5-2.25v5.36l4.5 2.25zm6.75-2.25v-5.361l-4.5 2.25v5.36l4.5-2.25zm-5.625-5.063l4.236-2.127-4.236-2.109-4.236 2.11 4.236 2.126z" fill="#2560E0"/>
</svg>
