<svg xmlns="http://www.w3.org/2000/svg" viewBox="0 0 80 80">
    <path fill="none" d="M0 0h80v80H0z"/>
    <circle cx="40" cy="40" r="40" fill="#CB2E6D" fill-opacity=".05"/>
    <path d="M49.563 34.828a7.822 7.822 0 011.828 1.281 7.79 7.79 0 011.406 1.688c.385.614.682 1.281.89 2 .209.708.313 1.443.313 2.203h-2c0-.823-.161-1.599-.484-2.328a6.021 6.021 0 00-1.282-1.906 6.021 6.021 0 00-1.906-1.282A5.685 5.685 0 0046 36c-.823 0-1.599.161-2.328.484-.73.313-1.365.74-1.906 1.282a6.242 6.242 0 00-1.297 1.906A5.845 5.845 0 0040 42c0 .948-.219 1.849-.656 2.703a5.87 5.87 0 01-1.782 2.125 7.807 7.807 0 011.829 1.281 7.79 7.79 0 011.406 1.688c.385.614.682 1.281.89 2 .209.708.313 1.443.313 2.203h-2c0-.823-.161-1.599-.484-2.328a6.021 6.021 0 00-1.282-1.906 6.021 6.021 0 00-1.906-1.282A5.685 5.685 0 0034 48c-.823 0-1.599.161-2.328.484-.73.313-1.365.74-1.906 1.282a6.242 6.242 0 00-1.297 1.906A5.845 5.845 0 0028 54h-2c0-.76.104-1.495.313-2.203a7.863 7.863 0 01.89-2 8.11 8.11 0 013.234-2.969 6.017 6.017 0 01-1.796-2.125A5.965 5.965 0 0128 42c0-.823.156-1.599.469-2.328a6.242 6.242 0 011.297-1.906 6.021 6.021 0 011.906-1.282A5.685 5.685 0 0134 36c.948 0 1.849.219 2.703.656a5.87 5.87 0 012.125 1.782 8.15 8.15 0 013.61-3.61 6.017 6.017 0 01-1.797-2.125A5.965 5.965 0 0140 30c0-.823.156-1.599.469-2.328a6.242 6.242 0 011.297-1.906 6.021 6.021 0 011.906-1.282A5.685 5.685 0 0146 24c.823 0 1.599.162 2.328.484.73.313 1.365.74 1.906 1.282a6.021 6.021 0 011.282 1.906C51.839 28.4 52 29.177 52 30c0 .948-.219 1.849-.656 2.703a5.87 5.87 0 01-1.782 2.125zM34 46a3.91 3.91 0 001.547-.313 4.066 4.066 0 002.125-2.125c.219-.49.328-1.01.328-1.562a3.75 3.75 0 00-.328-1.547 3.838 3.838 0 00-.86-1.266 3.838 3.838 0 00-1.265-.859A3.75 3.75 0 0034 38c-.552 0-1.073.11-1.563.328a4.066 4.066 0 00-2.124 2.125A3.91 3.91 0 0030 42c0 .552.104 1.073.313 1.563.218.479.505.9.859 1.265.364.354.786.64 1.265.86A3.95 3.95 0 0034 46zm8-16c0 .552.104 1.073.313 1.563.218.479.505.9.859 1.265.364.354.786.64 1.266.86A3.95 3.95 0 0046 34a3.91 3.91 0 001.547-.313 4.066 4.066 0 002.125-2.125c.219-.49.328-1.01.328-1.562a3.75 3.75 0 00-.328-1.547 3.838 3.838 0 00-.86-1.265 3.838 3.838 0 00-1.265-.86A3.75 3.75 0 0046 26c-.552 0-1.073.11-1.563.328a4.066 4.066 0 00-2.124 2.125A3.91 3.91 0 0042 30z" fill="#CB2E6D"/>
</svg>
