<svg xmlns="http://www.w3.org/2000/svg" viewBox="0 0 80 80">
    <path fill="none" d="M0 0h80v80H0z"/>
    <circle cx="40" cy="40" r="40" fill="#D83B01" fill-opacity=".05"/>
    <path d="M58.5 40a3.375 3.375 0 01-1.011 2.417L45.917 53.989A3.438 3.438 0 0143.485 55a3.32 3.32 0 01-1.45-.337l13.828-13.887c.215-.215.322-.478.322-.79 0-.313-.107-.577-.322-.792L42.065 25.322a3.45 3.45 0 011.45-.307c.449 0 .883.083 1.303.249a3.2 3.2 0 011.099.717l11.572 11.573c.323.322.572.698.747 1.128.176.42.264.859.264 1.318zm-7.47 0c0 .45-.089.889-.264 1.318-.176.42-.42.787-.733 1.099L38.446 53.989A3.438 3.438 0 0136.015 55a3.438 3.438 0 01-2.432-1.01L22.011 42.416a3.484 3.484 0 01-.747-1.099A3.38 3.38 0 0121 40c0-.459.088-.898.264-1.318.175-.43.425-.806.747-1.128L33.583 25.98a3.198 3.198 0 011.099-.717c.43-.176.869-.264 1.318-.264.459 0 .898.083 1.318.249.43.166.806.41 1.128.732l11.587 11.573c.322.322.567.698.733 1.128.175.42.263.859.263 1.318zM36.014 52.685c.312 0 .576-.107.79-.322l11.588-11.587c.214-.215.322-.478.322-.79a1.08 1.08 0 00-.322-.792L36.806 27.607a1.076 1.076 0 00-.791-.322c-.313 0-.577.108-.791.322l-2.666 2.666 2.563 2.564a2.3 2.3 0 01.894-.19c.322 0 .62.063.893.19.283.117.527.283.733.498.215.205.38.45.498.732a2.1 2.1 0 01.19.894c0 .293-.063.596-.19.908l2.695 2.696c.293-.147.61-.22.952-.22.322 0 .62.058.894.175.283.118.527.284.732.499.215.205.381.449.498.732.127.273.19.571.19.894 0 .322-.063.624-.19.908a2.32 2.32 0 01-.498.732c-.205.205-.45.371-.732.498a2.245 2.245 0 01-.894.176c-.322 0-.625-.059-.908-.176a2.487 2.487 0 01-.718-.498 2.7 2.7 0 01-.498-.732 2.351 2.351 0 01-.176-.908c0-.274.054-.547.162-.82l-2.725-2.74-.044.015v6.518c.44.176.79.46 1.055.85.263.39.395.82.395 1.289 0 .322-.063.625-.19.908a2.32 2.32 0 01-.498.733 2.43 2.43 0 01-.733.497 2.244 2.244 0 01-.893.176c-.323 0-.625-.058-.909-.175a2.7 2.7 0 01-.732-.498 2.697 2.697 0 01-.498-.733 2.351 2.351 0 01-.176-.908c0-.469.132-.899.396-1.29.263-.39.615-.673 1.054-.849V37.1a2.255 2.255 0 01-1.054-.85 2.255 2.255 0 01-.205-2.183l-2.564-2.563-7.69 7.69c-.108.108-.19.23-.25.366a1.083 1.083 0 00.249 1.216l11.588 11.587c.215.215.478.322.79.322z" fill="#D83B01"/>
</svg>
