<svg xmlns="http://www.w3.org/2000/svg" viewBox="0 0 80 80">
    <path fill="none" d="M0 0h80v80H0z"/>
    <circle cx="40" cy="40" r="40" fill="#854CC7" fill-opacity=".05"/>
    <path d="M39.64 48l-1 2H26V40h8v-6h8v-6h12v8h-2v-6h-8v6h-8v6h-8v6h11.64zm15.032 5.11a1.972 1.972 0 01-.375 2.312 1.96 1.96 0 01-.64.422 1.9 1.9 0 01-.766.156H41.109c-.27 0-.53-.052-.78-.156a2.207 2.207 0 01-.642-.422 2.208 2.208 0 01-.421-.64 1.972 1.972 0 01.063-1.672L44 43.765V40h-2v-2h10v2h-2v3.766l4.672 9.343zM50.89 50L48 44.234V40h-2v4.234L43.11 50h7.78z" fill="#854CC7"/>
</svg>
