<svg xmlns="http://www.w3.org/2000/svg" viewBox="0 0 80 80">
    <path fill="none" d="M0 0h80v80H0z"/>
    <circle cx="40" cy="40" r="40" fill="#2560E0" fill-opacity=".05"/>
    <path d="M49.4 37.6c-.337 0-.65.063-.938.188-.287.125-.543.3-.768.525a2.405 2.405 0 00-.507.75A2.34 2.34 0 0047 40c0 .337.063.65.188.938.124.287.293.543.506.768.225.213.481.381.768.506.288.125.6.188.938.188H53V52h-7.2v1.2c0 .662-.125 1.287-.375 1.875a4.82 4.82 0 01-2.569 2.55A4.605 4.605 0 0141 58a4.738 4.738 0 01-1.875-.375 4.88 4.88 0 01-2.55-2.55A4.738 4.738 0 0136.2 53.2V52H29v-7.2h-1.2a4.738 4.738 0 01-1.875-.375 4.88 4.88 0 01-2.55-2.55A4.738 4.738 0 0123 40c0-.663.125-1.281.375-1.856a4.82 4.82 0 012.55-2.569A4.738 4.738 0 0127.8 35.2H29V28h7.2v-1.2c0-.663.125-1.281.375-1.856a4.821 4.821 0 012.55-2.569A4.738 4.738 0 0141 22c.663 0 1.281.125 1.856.375.588.25 1.1.594 1.538 1.031.437.438.781.95 1.031 1.538.25.575.375 1.194.375 1.856V28H53v9.6h-3.6zm0 7.2a4.738 4.738 0 01-1.875-.375 4.878 4.878 0 01-2.55-2.55A4.738 4.738 0 0144.6 40c0-.663.125-1.281.375-1.856a4.82 4.82 0 011.031-1.538 4.878 4.878 0 011.519-1.031A4.738 4.738 0 0149.4 35.2h1.2v-4.8h-7.2v-3.6c0-.338-.063-.65-.188-.938a2.26 2.26 0 00-.525-.75 2.26 2.26 0 00-.75-.524A2.326 2.326 0 0041 24.4c-.337 0-.65.063-.938.188-.287.124-.543.3-.768.524a2.404 2.404 0 00-.506.75c-.125.288-.188.6-.188.938v3.6h-7.2v7.2h-3.6c-.338 0-.65.063-.938.188-.287.125-.543.3-.768.525a2.404 2.404 0 00-.507.75c-.125.287-.187.6-.187.937 0 .337.063.65.188.938.124.287.293.543.506.768.225.213.481.381.768.506.288.125.6.188.938.188h3.6v7.2h7.2v3.6c0 .337.063.65.188.938.125.287.293.543.506.768.225.213.481.382.769.507.287.125.6.187.937.187.337 0 .65-.063.938-.188a2.39 2.39 0 00.75-.506c.224-.225.4-.481.524-.768.125-.288.188-.6.188-.938v-3.6h7.2v-4.8h-1.2z" fill="#2560E0"/>
</svg>
