<svg xmlns="http://www.w3.org/2000/svg" viewBox="0 0 80 80">
    <path fill="none" d="M0 0h80v80H0z"/>
    <circle cx="40" cy="40" r="40" fill="#2560E0" fill-opacity=".05"/>
    <path fill="none" d="M21 21h38v38H21z"/>
    <path fill="none" d="M21 21h38v38H21z"/>
    <path fill-rule="evenodd" clip-rule="evenodd" d="M40.016 21C29.5 21 21 29.709 21 40.482c0 8.612 5.447 15.901 13.002 18.481.945.194 1.291-.419 1.291-.935 0-.451-.031-2-.031-3.612-5.29 1.16-6.391-2.323-6.391-2.323-.85-2.258-2.11-2.838-2.11-2.838-1.731-1.194.126-1.194.126-1.194 1.92.13 2.928 2 2.928 2 1.7 2.968 4.44 2.129 5.541 1.613.158-1.258.661-2.129 1.197-2.613-4.22-.451-8.658-2.129-8.658-9.611 0-2.13.755-3.871 1.952-5.226-.19-.483-.85-2.483.189-5.16 0 0 1.605-.517 5.226 2a17.997 17.997 0 014.754-.646c1.605 0 3.242.226 4.754.645 3.62-2.515 5.226-2 5.226-2 1.039 2.678.378 4.677.189 5.161 1.227 1.355 1.952 3.097 1.952 5.226 0 7.482-4.44 9.127-8.69 9.611.693.613 1.291 1.774 1.291 3.613 0 2.612-.031 4.709-.031 5.354 0 .516.346 1.129 1.29.935C53.553 56.383 59 49.093 59 40.482 59.03 29.709 50.5 21 40.016 21z" fill="#2560E0"/>
    <path d="M28.21 48.965c-.032.096-.19.129-.316.064-.126-.064-.22-.193-.157-.29.031-.097.189-.13.315-.065s.189.194.157.29zm.755.871c-.094.096-.283.032-.377-.097-.126-.13-.158-.323-.063-.42.094-.096.252-.032.377.097.126.162.158.355.063.42zm.755 1.128c-.126.097-.315 0-.41-.161-.125-.162-.125-.387 0-.452.127-.097.316 0 .41.161.126.162.126.355 0 .452zm1.04 1.097c-.095.13-.315.097-.504-.065-.157-.16-.22-.387-.094-.483.094-.13.315-.097.503.064.158.13.19.355.095.484zm1.417.613c-.032.161-.252.226-.473.161-.22-.065-.346-.258-.314-.387.031-.161.251-.226.472-.161.22.064.346.226.315.387zm1.541.129c0 .161-.188.29-.409.29-.22 0-.41-.129-.41-.29 0-.161.19-.29.41-.29.22 0 .41.129.41.29zm1.449-.257c.032.161-.126.322-.346.355-.22.032-.41-.065-.441-.226-.032-.162.126-.323.346-.355.22-.032.41.064.441.226z" fill="#0078D7"/>
</svg>
