<svg viewBox="0 0 64 64" class="" role="presentation" focusable="false" xmlns:svg="http://www.w3.org/2000/svg" xmlns:xlink="http://www.w3.org/1999/xlink" id="FxSymbol0-081" data-type="1"><g><title></title><path d="M31.83 64a4.91 4.91 0 0 1-2.46-.66l-7.83-4.63c-1.17-.65-.6-.89-.21-1a15.44 15.44 0 0 0 3.47-1.57.73.73 0 0 1 .65 0l6 3.57a.77.77 0 0 0 .73 0l23.46-13.55a.74.74 0 0 0 .36-.64V18.41a.75.75 0 0 0-.36-.64L32.36 4.33a.73.73 0 0 0-.72 0L8.37 17.77a.75.75 0 0 0-.37.64v27a.72.72 0 0 0 .36.63l6.21 3.71c3.37 1.76 5.43-.29 5.43-2.35V20.68a.68.68 0 0 1 .68-.68h3.64a.68.68 0 0 1 .68.68V47.4c0 4.65-2.54 7.32-7 7.32-1.36 0-2.43 0-5.41-1.47l-6.13-3.54A5 5 0 0 1 4 45.43V18.5a5 5 0 0 1 2.47-4.3L30 .59a5.16 5.16 0 0 1 5 0L58 14c1.53.88 2 2.73 2 4.5v27c0 1.76.06 3.39-1.46 4.28L35.09 63.34a4.92 4.92 0 0 1-2.47.66" fill="#41873f" fill-rule="evenodd"></path><path d="M39.63 45.7c-10.67 0-12.89-4.9-12.89-9a.68.68 0 0 1 .68-.69h3.18a.71.71 0 0 1 .7.6c.48 3.21 1.89 4.82 8.34 4.82 5.13 0 7.31-1.16 7.31-3.88 0-1.57-.62-2.73-8.59-3.52-6.66-.66-10.79-2.13-10.79-7.46 0-4.91 4.14-7.84 11.09-7.84 7.8 0 11.66 2.71 12.15 8.52a.71.71 0 0 1-.7.77h-3.17a.7.7 0 0 1-.68-.55c-.76-3.39-2.6-4.47-7.61-4.47-5.6 0-6.25 2-6.25 3.41 0 1.77.77 2.29 8.33 3.29s11 2.39 11 7.65-4.38 8.35-12.1 8.35" fill="#41873f" fill-rule="evenodd"></path></g><defs>
<linearGradient id="a" x1="-1267.23" y1="3.07" x2="-1267.52" y2="14.64" gradientTransform="matrix(-1 0 0 1 -1256.13 0)" gradientUnits="userSpaceOnUse"><stop offset="0" stop-color="#32d4f5"></stop><stop offset=".23" stop-color="#31d0f1"></stop><stop offset=".46" stop-color="#2cc3e6"></stop><stop offset=".7" stop-color="#25afd4"></stop><stop offset=".94" stop-color="#1c92ba"></stop><stop offset="1" stop-color="#198ab3"></stop></linearGradient>
<linearGradient id="b" x1="6.05" y1="11.51" x2="6.05" y2="3" gradientUnits="userSpaceOnUse"><stop offset="0" stop-color="#0078d4"></stop><stop offset=".82" stop-color="#5ea0ef"></stop></linearGradient>
<linearGradient id="c" x1="10.51" y1="6.82" x2="7.93" y2="10.5" gradientUnits="userSpaceOnUse"><stop offset="0" stop-color="#005ba1"></stop><stop offset=".14" stop-color="#035da3" stop-opacity=".97"></stop><stop offset=".3" stop-color="#0b63aa" stop-opacity=".88"></stop><stop offset=".47" stop-color="#196eb6" stop-opacity=".73"></stop><stop offset=".65" stop-color="#2d7cc6" stop-opacity=".52"></stop><stop offset=".84" stop-color="#468edb" stop-opacity=".26"></stop><stop offset="1" stop-color="#5ea0ef" stop-opacity="0"></stop></linearGradient>
</defs>
</svg>