<svg viewBox="0 0 64 64" class="" role="presentation" focusable="false" xmlns:svg="http://www.w3.org/2000/svg" xmlns:xlink="http://www.w3.org/1999/xlink" id="FxSymbol0-080" data-type="1"><g><title></title><path d="M0 31.46a1.63 1.63 0 0 0 .06-.27c.05-.93.06-1.87.16-2.8A16 16 0 0 1 3.12 20a8.43 8.43 0 0 1 5.78-3.36 7.91 7.91 0 0 1 1-.06h21.58c.42 0 .42 0 .42-.42v-1.5c0-.31-.09-.38-.38-.38H16.83c-.25 0-.34-.07-.34-.33V6.62a4.28 4.28 0 0 1 1.24-2.82 8.91 8.91 0 0 1 3.61-2.33 22.22 22.22 0 0 1 5.2-1.19 43.78 43.78 0 0 1 7.31-.22 23.83 23.83 0 0 1 7.7 1.43 9.46 9.46 0 0 1 4.32 3 6.05 6.05 0 0 1 1.26 4.1c-.06 1.24 0 2.49 0 3.74v6.92c0 1.36 0 2.73-.06 4.08a7.23 7.23 0 0 1-4.69 6.72 10.72 10.72 0 0 1-4.19.8H22.91a8.72 8.72 0 0 0-4.6 1.21A8 8 0 0 0 14.78 37a11.55 11.55 0 0 0-.43 3.17v6.93c0 .46 0 .45-.46.46-1.66 0-3.32.05-5 0a7 7 0 0 1-4.43-1.82A11 11 0 0 1 1.4 41a20.2 20.2 0 0 1-1.13-5.13c-.1-1.12-.14-2.24-.21-3.35a3.3 3.3 0 0 0-.06-.37v-.69z" fill="#3772a4"></path><path d="M20.27 7.65a2.81 2.81 0 1 0 2.81-2.83 2.83 2.83 0 0 0-2.81 2.83z"></path><path d="M20.27 7.65a2.81 2.81 0 1 1 5.63 0 2.81 2.81 0 1 1-5.63 0z" class="msportalfx-svg-c01" fill="#ffffff"></path><path d="M64 32.54a1.63 1.63 0 0 0-.06.27c-.05.93-.06 1.87-.16 2.8a16 16 0 0 1-2.9 8.39 8.43 8.43 0 0 1-5.78 3.37 7.91 7.91 0 0 1-1 .06H32.52c-.42 0-.42 0-.42.42v1.5c0 .31.09.38.38.38h14.69c.25 0 .34.07.34.33v7.33a4.28 4.28 0 0 1-1.24 2.82 8.91 8.91 0 0 1-3.61 2.33 22.22 22.22 0 0 1-5.19 1.19 43.78 43.78 0 0 1-7.31.22 23.83 23.83 0 0 1-7.7-1.43 9.46 9.46 0 0 1-4.32-3 6.05 6.05 0 0 1-1.26-4.1c.06-1.24 0-2.49 0-3.74v-6.92c0-1.36 0-2.73.06-4.08a7.23 7.23 0 0 1 4.69-6.72 10.72 10.72 0 0 1 4.19-.8h15.27a8.72 8.72 0 0 0 4.6-1.21A8 8 0 0 0 49.22 27a11.55 11.55 0 0 0 .43-3.17V16.9c0-.46 0-.45.46-.46 1.66 0 3.32-.05 5 0a7 7 0 0 1 4.43 1.82A11 11 0 0 1 62.6 23a20.2 20.2 0 0 1 1.12 5.15c.1 1.12.14 2.24.21 3.35a3.3 3.3 0 0 0 .06.36q.01.33.01.68z" fill="#ffda4b"></path><path d="M43.73 56a2.81 2.81 0 1 0-2.81 2.83A2.83 2.83 0 0 0 43.73 56z"></path><path d="M43.73 56a2.81 2.81 0 1 1-5.63 0 2.81 2.81 0 1 1 5.63 0z" class="msportalfx-svg-c01" fill="#ffffff"></path></g><defs>
<linearGradient id="a" x1="-1267.23" y1="3.07" x2="-1267.52" y2="14.64" gradientTransform="matrix(-1 0 0 1 -1256.13 0)" gradientUnits="userSpaceOnUse"><stop offset="0" stop-color="#32d4f5"></stop><stop offset=".23" stop-color="#31d0f1"></stop><stop offset=".46" stop-color="#2cc3e6"></stop><stop offset=".7" stop-color="#25afd4"></stop><stop offset=".94" stop-color="#1c92ba"></stop><stop offset="1" stop-color="#198ab3"></stop></linearGradient>
<linearGradient id="b" x1="6.05" y1="11.51" x2="6.05" y2="3" gradientUnits="userSpaceOnUse"><stop offset="0" stop-color="#0078d4"></stop><stop offset=".82" stop-color="#5ea0ef"></stop></linearGradient>
<linearGradient id="c" x1="10.51" y1="6.82" x2="7.93" y2="10.5" gradientUnits="userSpaceOnUse"><stop offset="0" stop-color="#005ba1"></stop><stop offset=".14" stop-color="#035da3" stop-opacity=".97"></stop><stop offset=".3" stop-color="#0b63aa" stop-opacity=".88"></stop><stop offset=".47" stop-color="#196eb6" stop-opacity=".73"></stop><stop offset=".65" stop-color="#2d7cc6" stop-opacity=".52"></stop><stop offset=".84" stop-color="#468edb" stop-opacity=".26"></stop><stop offset="1" stop-color="#5ea0ef" stop-opacity="0"></stop></linearGradient>
</defs>
</svg>