<?xml version="1.0" encoding="UTF-8" standalone="no"?>
<!DOCTYPE svg PUBLIC "-//W3C//DTD SVG 1.1//EN" "http://www.w3.org/Graphics/SVG/1.1/DTD/svg11.dtd">
<!-- Generated by Microsoft Visio, SVG Export VR.svg Page-1 -->
<svg xmlns="http://www.w3.org/2000/svg" xmlns:xlink="http://www.w3.org/1999/xlink" xmlns:ev="http://www.w3.org/2001/xml-events"
		xmlns:v="http://schemas.microsoft.com/visio/2003/SVGExtensions/" width="0.519875in" height="0.444875in"
		viewBox="0 0 37.431 32.031" xml:space="preserve" color-interpolation-filters="sRGB" class="st20">
	<v:documentProperties v:langID="1033" v:metric="true" v:viewMarkup="false"/>

	<style type="text/css">
	<![CDATA[
		.st1 {fill:#3e3a39;stroke:none;stroke-width:0.75}
		.st2 {fill:#4c4b4a;stroke:none;stroke-width:0.75}
		.st3 {fill:#2d2d2d;stroke:#3e3a39;stroke-width:0.09885}
		.st4 {fill:#231815;stroke:#231815;stroke-width:0.09885}
		.st5 {fill:#3e3a39;stroke:#3e3a39;stroke-width:0.09885}
		.st6 {fill:#333030;stroke:#3e3a39;stroke-width:0.09885}
		.st7 {fill:#302e2d;stroke:none;stroke-width:0.75}
		.st8 {fill:#595757;stroke:none;stroke-width:0.75}
		.st9 {fill:#3e3a39;stroke:#595757;stroke-width:0.09885}
		.st10 {fill:#b5b5b6;stroke:#b5b5b6;stroke-width:0.09885}
		.st11 {fill:#3e3a39;stroke:#3e3a39;stroke-width:0.086025}
		.st12 {fill:#efefef;stroke:none;stroke-width:0.75}
		.st13 {fill:#383838;stroke:none;stroke-width:0.75}
		.st14 {fill:#3a3a3a;stroke:#3e3a39;stroke-width:0.0942}
		.st15 {fill:#3f3f3f;stroke:#3e3a39;stroke-width:0.0942}
		.st16 {fill:#3e3a39;stroke:#727171;stroke-width:0.086025}
		.st17 {fill:#595757;stroke:#595757;stroke-width:0.09885}
		.st18 {fill:#302f2f;stroke:none;stroke-width:0.75}
		.st19 {fill:#727171;stroke:none;stroke-width:0.75}
		.st20 {fill:none;fill-rule:evenodd;font-size:12px;overflow:visible;stroke-linecap:square;stroke-miterlimit:3}
	]]>
	</style>

	<g v:mID="0" v:index="1" v:groupContext="foregroundPage">
		<title>Page-1</title>
		<v:pageProperties v:drawingScale="1" v:pageScale="1" v:drawingUnits="0" v:shadowOffsetX="9" v:shadowOffsetY="-9"/>
		<g id="group13560-1" transform="translate(0.09885,-0.0571833)" v:mID="13560" v:groupContext="group">
			<title>VR.76</title>
			<g id="group13561-2" v:mID="13561" v:groupContext="group">
				<title>Sheet.13561</title>
				<g id="shape13562-3" v:mID="13562" v:groupContext="shape" transform="translate(33.075,-2.775)">
					<title>Sheet.13562</title>
					<path d="M0.9 24.98 L2.25 25.13 C2.25 25.13 2.55 27.01 2.25 28.58 C2.03 30.16 1.42 32.03 1.42 32.03 L0 31.96
								 C0 31.96 0.52 29.26 0.6 28.43 C0.75 27.61 0.9 24.98 0.9 24.98 Z" class="st1"/>
				</g>
				<g id="shape13563-5" v:mID="13563" v:groupContext="shape" transform="translate(33.45,-4.125)">
					<title>Sheet.13563</title>
					<path d="M0.52 27.08 L1.87 27.23 C1.87 27.23 2.17 28.36 1.95 29.93 C1.73 31.51 1.42 32.03 1.42 32.03 L0 31.96
								 C0 31.96 0.23 30.61 0.3 29.78 C0.37 28.96 0.52 27.08 0.52 27.08 Z" class="st2"/>
				</g>
				<g id="shape13564-7" v:mID="13564" v:groupContext="shape" transform="translate(1.575,-2.625)">
					<title>Sheet.13564</title>
					<path d="M1.42 24.83 L0.07 25.21 C0.07 25.21 0 27.16 0.15 28.58 C0.3 29.93 0.97 32.03 0.97 32.03 L2.25 31.88
								 C2.25 31.88 2.1 29.86 1.95 28.43 C1.87 27.01 1.42 24.83 1.42 24.83 Z" class="st1"/>
				</g>
				<g id="shape13565-9" v:mID="13565" v:groupContext="shape" transform="translate(1.575,-3.975)">
					<title>Sheet.13565</title>
					<path d="M1.42 26.78 L0.07 27.16 C0.07 27.16 0 28.51 0.15 29.86 C0.3 31.21 0.83 32.03 0.83 32.03 L2.1 31.88 C2.1
								 31.88 2.1 31.06 1.95 29.71 C1.87 28.36 1.42 26.78 1.42 26.78 Z" class="st2"/>
				</g>
				<g id="shape13566-11" v:mID="13566" v:groupContext="shape" transform="translate(3,-0.225)">
					<title>Sheet.13566</title>
					<path d="M1.35 19.73 L0.53 19.88 C0.53 19.88 0.38 19.73 0.23 20.11 C0.07 20.48 0 22.43 0 22.43 L0.9 29.41 C0.9
								 29.41 1.5 31.28 1.73 31.66 C1.95 32.03 3 31.96 3 31.96 C3 31.96 2.03 26.11 2.03 25.36 C2.03 24.68
								 1.35 19.73 1.35 19.73 Z" class="st3"/>
				</g>
				<g id="shape13567-13" v:mID="13567" v:groupContext="shape" transform="translate(4.8,4.9738E-14)">
					<title>Sheet.13567</title>
					<path d="M3.52 25.88 L4.12 29.18 C4.12 29.18 4.35 30.38 4.2 30.91 C4.12 31.36 3.52 31.88 3.37 31.96 C3.22 32.03
								 1.87 31.96 1.87 31.96 L1.2 31.58 L0 22.88 L3.22 22.81 L3.52 25.88 Z" class="st4"/>
				</g>
				<g id="shape13568-15" v:mID="13568" v:groupContext="shape" transform="translate(4.725,2.13163E-14)">
					<title>Sheet.13568</title>
					<path d="M1.5 26.93 L1.95 30.53 C1.95 30.53 2.33 31.88 2.18 31.96 C2.03 32.03 1.87 31.96 1.87 31.96 L1.2 31.58
								 L0 22.88 L0.9 22.81 L1.5 26.93 Z" class="st5"/>
				</g>
				<g id="shape13569-17" v:mID="13569" v:groupContext="shape" transform="translate(30.9,-0.15)">
					<title>Sheet.13569</title>
					<path d="M2.02 19.21 L3 19.96 C3 19.96 3.15 20.33 3.15 20.78 C3.15 21.23 3.15 22.36 3.15 22.36 C3.15 22.36 2.7
								 27.91 2.25 29.71 C1.8 31.51 1.5 31.81 1.5 31.81 C1.5 31.81 0.75 32.03 0.38 32.03 C0 32.03 1.13 26.71
								 1.2 25.96 C1.28 25.21 1.73 19.28 1.73 19.28 L2.02 19.21 Z" class="st3"/>
				</g>
				<g id="shape13570-19" v:mID="13570" v:groupContext="shape" transform="translate(28.05,-0.15)">
					<title>Sheet.13570</title>
					<path d="M0.6 26.26 L0.15 30.08 C0.15 30.08 0 31.43 0.37 31.66 C0.75 31.88 0.9 32.03 1.13 32.03 C1.35 32.03 2.85
								 32.03 2.85 31.88 C2.85 31.73 3.98 27.16 3.98 26.33 C3.98 25.51 4.2 22.36 4.2 22.36 L0.6 26.26 Z"
							class="st4"/>
				</g>
				<g id="shape13571-21" v:mID="13571" v:groupContext="shape" transform="translate(29.925,-0.15)">
					<title>Sheet.13571</title>
					<path d="M1.12 25.36 L0.6 29.33 C0.6 29.33 0 32.03 0.23 32.03 C0.45 32.03 0.98 32.03 1.05 31.88 C1.05 31.73 2.18
								 27.16 2.18 26.33 C2.18 25.51 2.4 22.36 2.4 22.36 L1.12 25.36 Z" class="st5"/>
				</g>
				<g id="shape13572-23" v:mID="13572" v:groupContext="shape" transform="translate(0.075,-5.625)">
					<title>Sheet.13572</title>
					<path d="M0 24.83 C0 24.83 0.15 26.86 0.52 27.98 C0.9 29.11 2.17 31.73 2.17 31.73 C2.17 31.73 2.7 32.03 3 31.73
								 C3.22 31.43 3.3 30.68 3.3 30.68 C3.3 30.68 2.02 28.13 1.87 27.53 C1.72 26.93 1.5 24.68 1.5 24.68
								 L0 24.83 Z" class="st6"/>
				</g>
				<g id="shape13573-25" v:mID="13573" v:groupContext="shape" transform="translate(33.75,-5.85)">
					<title>Sheet.13573</title>
					<path d="M1.72 25.06 C1.72 25.06 1.8 25.88 1.43 27.16 C1.05 28.43 0.23 30.68 0.23 30.68 C0.23 30.68 0 31.66 0.23
								 31.81 C0.45 31.96 1.35 32.03 1.43 31.73 C1.5 31.43 2.63 29.11 2.85 28.13 C3.07 27.16 3.45 24.83
								 3.45 24.83 L1.72 25.06 Z" class="st6"/>
				</g>
				<g id="shape13574-27" v:mID="13574" v:groupContext="shape" transform="translate(2.625,-21.375)">
					<title>Sheet.13574</title>
					<path d="M0 30.46 L0 30.98 L1.12 32.03 L1.43 32.03 L2.85 30.01 L1.27 28.58 L0 30.46 Z" class="st1"/>
				</g>
				<g id="shape13575-29" v:mID="13575" v:groupContext="shape" transform="translate(3.6,-21.375)">
					<title>Sheet.13575</title>
					<path d="M0 31.21 L0.45 31.66 L0.15 32.03 L0.45 32.03 L1.87 30.01 L0.98 29.71 L0 31.21 Z" class="st7"/>
				</g>
				<g id="shape13576-31" v:mID="13576" v:groupContext="shape" transform="translate(31.65,-21.375)">
					<title>Sheet.13576</title>
					<path d="M0 29.86 L1.5 32.03 L1.88 31.88 L2.85 30.83 L2.92 30.38 L1.35 28.51 L0 29.86 Z" class="st1"/>
				</g>
				<g id="shape13577-33" v:mID="13577" v:groupContext="shape" transform="translate(31.65,-21.375)">
					<title>Sheet.13577</title>
					<path d="M0 29.86 L1.5 32.03 L1.72 31.96 L1.5 31.51 L2.03 30.91 L0.75 29.18 L0 29.86 Z" class="st7"/>
				</g>
				<g id="shape13578-35" v:mID="13578" v:groupContext="shape" transform="translate(0.75,-16.125)">
					<title>Sheet.13578</title>
					<path d="M2.17 25.66 C2.17 25.66 1.35 27.16 0.82 28.43 C0.3 29.71 0 31.36 0 31.36 L0.9 32.03 C0.9 32.03 1.35
								 30.38 1.87 29.26 C2.4 28.13 3.3 26.41 3.3 26.41 L2.17 25.66 Z" class="st8"/>
				</g>
				<g id="shape13579-37" v:mID="13579" v:groupContext="shape" transform="translate(33.15,-16.275)">
					<title>Sheet.13579</title>
					<path d="M0 26.41 C0 26.41 0.9 28.06 1.27 29.03 C1.65 30.08 2.32 32.03 2.32 32.03 L3.37 31.28 C3.37 31.28 2.62
								 29.03 2.25 28.13 C1.87 27.23 0.9 25.43 0.9 25.43 L0 26.41 Z" class="st8"/>
				</g>
				<g id="shape13580-39" v:mID="13580" v:groupContext="shape" transform="translate(4.3715E-15,-12.3)">
					<title>Sheet.13580</title>
					<path d="M0.82 27.16 L0.45 27.16 L0.3 27.38 C0.3 27.38 0 28.13 0 29.11 C0 30.08 0 31.66 0 31.66 L0.6 32.03 L1.73
								 31.51 C1.73 31.51 1.65 30.31 1.8 29.71 C1.95 29.18 2.18 27.83 2.18 27.83 L0.82 27.16 Z"
							class="st9"/>
				</g>
				<g id="shape13581-41" v:mID="13581" v:groupContext="shape" transform="translate(35.1,-12.225)">
					<title>Sheet.13581</title>
					<path d="M0.52 27.53 L0 27.91 C0 27.91 0.45 29.11 0.45 29.71 C0.45 30.31 0.45 31.43 0.45 31.43 L1.05 32.03 L2.1
								 31.73 C2.1 31.73 2.18 30.16 2.1 29.11 C2.03 28.06 1.65 27.01 1.65 27.01 L1.28 27.01 L0.52 27.53
								 Z" class="st9"/>
				</g>
				<g id="shape13582-43" v:mID="13582" v:groupContext="shape" transform="translate(3.9,-4.2)">
					<title>Sheet.13582</title>
					<path d="M0.3 16.81 C0.3 16.81 0.45 16.13 1.12 15.76 C1.8 15.38 3 14.86 3.83 14.78 C4.2 14.71 5.93 14.33 7.58
								 14.18 C9.37 14.03 10.57 14.03 10.57 14.03 L19.42 14.03 C19.42 14.03 24.67 14.56 25.5 14.78 C26.33
								 15.01 27.75 15.38 28.05 15.68 C28.35 15.98 28.72 16.21 28.87 16.73 C29.02 17.26 29.25 20.03 29.25
								 20.03 L28.65 20.11 L28.42 20.33 L28.5 24.91 L29.25 24.91 C29.25 24.91 29.17 26.63 28.8 27.46 C28.42
								 28.36 27.52 29.18 26.85 29.63 C26.17 30.08 25.27 30.68 24.07 30.98 C22.88 31.28 20.17 31.96 20.17
								 31.96 C20.17 31.96 19.5 32.03 19.05 31.73 C18.6 31.43 18.07 30.76 18.07 30.76 C18.07 30.76 17.55
								 30.08 15.97 30.08 C14.4 30.08 12.9 29.93 12.08 30.31 C11.25 30.68 10.88 31.21 10.88 31.21 C10.88
								 31.21 10.42 31.81 10.05 31.88 C9.68 32.03 8.92 31.96 8.7 31.81 C8.4 31.73 2.47 30.46 1.35 28.81
								 C0.37 27.38 0.22 26.48 0.22 26.26 C0.15 25.96 0 24.98 0 24.98 L0.82 24.98 L0.82 20.41 L0.82 20.26
								 L0.67 20.11 L0.15 20.03 L0.3 16.81 Z" class="st10"/>
				</g>
				<g id="shape13583-45" v:mID="13583" v:groupContext="shape" transform="translate(3.525,-11.4)">
					<title>Sheet.13583</title>
					<path d="M0.98 32.03 L0.22 32.03 L0 31.88 L0 27.46 L0.22 27.31 L0.75 27.46 L0.98 27.53 L0.98 32.03 Z"
							class="st11"/>
				</g>
				<g id="shape13584-47" v:mID="13584" v:groupContext="shape" transform="translate(32.475,-11.55)">
					<title>Sheet.13584</title>
					<path d="M0.68 32.03 L0.08 32.03 L0 27.76 L0.15 27.61 L0.75 27.61 C0.9 27.61 0.98 27.68 0.98 27.83 L0.98 31.81
								 C0.9 31.88 0.83 32.03 0.68 32.03 Z" class="st11"/>
				</g>
				<g id="shape13585-49" v:mID="13585" v:groupContext="shape" transform="translate(4.575,-4.575)">
					<title>Sheet.13585</title>
					<path d="M0.22 20.56 C0.22 20.56 0.3 19.13 0.37 18.83 C0.45 18.53 0.6 18.23 1.13 17.93 C1.65 17.63 3 17.11 4.05
								 16.88 C5.1 16.66 7.8 16.36 8.55 16.28 C9.3 16.21 17.93 16.21 17.93 16.21 C17.93 16.21 19.2 16.28
								 19.5 16.28 C19.88 16.36 23.93 16.88 24.6 17.03 C25.28 17.18 26.48 17.48 27.15 18.31 C27.83 19.06
								 27.6 19.81 27.6 19.81 L27.68 20.41 L27.68 20.63 L27.6 26.11 C27.6 26.11 27.6 27.31 27.23 27.91 C26.78
								 28.88 26.7 29.03 26.18 29.33 C25.58 29.63 25.05 30.01 24.23 30.31 C23.4 30.61 20.63 31.58 20.63
								 31.58 L19.5 31.88 C19.5 31.88 18.9 32.03 18.6 31.81 C18.23 31.58 17.55 30.61 17.55 30.61 C17.55
								 30.61 17.55 30.46 17.1 30.08 C16.65 29.71 15.9 29.41 15.23 29.33 C14.55 29.26 13.65 29.33 13.05
								 29.33 C12.45 29.33 11.55 29.71 11.1 30.01 C11.03 30.08 10.95 30.16 10.88 30.23 C10.35 30.68 9.6
								 31.51 9.3 31.73 C8.93 31.96 8.1 31.88 8.1 31.88 L2.18 29.86 C2.18 29.86 1.42 29.56 0.98 28.81 C0.15
								 27.31 0 25.88 0 25.88 L0.22 20.56 Z" class="st12"/>
				</g>
				<g id="shape13586-51" v:mID="13586" v:groupContext="shape" transform="translate(4.575,-5.1)">
					<title>Sheet.13586</title>
					<path d="M0.22 20.56 C0.22 20.56 0.3 19.13 0.37 18.83 C0.45 18.53 0.6 18.23 1.12 17.93 C1.72 17.63 3 17.11 4.05
								 16.88 C5.1 16.66 7.8 16.36 8.55 16.28 C9.22 16.21 17.92 16.21 17.92 16.21 C17.92 16.21 19.2 16.28
								 19.5 16.28 C19.87 16.36 23.92 16.88 24.6 17.03 C25.28 17.18 26.47 17.48 27.15 18.31 C27.6 18.91
								 27.6 19.81 27.6 19.81 L27.67 20.41 L27.67 20.63 L27.6 26.11 C27.6 26.11 27.6 27.31 27.22 27.91 C26.77
								 28.88 26.7 29.03 26.17 29.33 C25.65 29.63 25.05 30.01 24.22 30.31 C23.4 30.61 20.62 31.58 20.62
								 31.58 L19.5 31.88 C19.5 31.88 18.9 32.03 18.6 31.81 C18.22 31.58 17.55 30.61 17.55 30.61 C17.55
								 30.61 17.55 30.46 17.1 30.08 C16.65 29.71 15.9 29.41 15.22 29.33 C14.55 29.26 13.65 29.33 13.05
								 29.33 C12.45 29.33 11.55 29.71 11.1 30.01 C11.03 30.08 10.95 30.16 10.87 30.23 C10.35 30.68 9.6
								 31.51 9.3 31.73 C8.92 31.96 8.1 31.88 8.1 31.88 L2.18 29.86 C2.18 29.86 1.42 29.56 0.98 28.81 C0.15
								 27.31 0 25.88 0 25.88 L0.22 20.56 Z" class="st13"/>
				</g>
				<g id="shape13587-53" v:mID="13587" v:groupContext="shape" transform="translate(4.575,-10.575)">
					<title>Sheet.13587</title>
					<path d="M0 26.18 C0 26.18 0.07 24.76 0.15 24.46 C0.22 24.16 0.37 23.86 0.9 23.56 C1.42 23.26 2.77 22.73 3.82
								 22.51 C4.87 22.28 7.57 21.98 8.32 21.91 C9 21.83 17.7 21.83 17.7 21.83 C17.7 21.83 18.97 21.91 19.27
								 21.91 C19.65 21.98 23.7 22.51 24.37 22.66 C25.05 22.81 26.25 23.11 26.92 23.93 C27.6 24.68 27.37
								 25.43 27.37 25.43 L27.45 26.03 L27.45 26.26 L27.37 31.43 C27.37 31.43 16.65 32.03 13.87 32.03 C11.1
								 32.03 0.08 31.51 0.08 31.51 L0 26.18 Z" class="st14"/>
				</g>
				<g id="shape13588-55" v:mID="13588" v:groupContext="shape" transform="translate(4.875,-17.025)">
					<title>Sheet.13588</title>
					<path d="M0.07 30.91 C0.15 30.61 0.3 30.31 0.83 30.01 C1.35 29.71 2.7 29.18 3.75 28.96 C4.8 28.73 7.5 28.43 8.25
								 28.36 C9 28.28 17.63 28.28 17.63 28.28 C17.63 28.28 18.9 28.36 19.2 28.36 C19.58 28.43 23.63 28.96
								 24.3 29.11 C24.98 29.26 26.1 29.63 26.85 30.38 C27.38 30.83 27.15 31.88 27.15 31.88 C27.15 31.88
								 18.07 31.51 13.5 31.51 C8.93 31.51 0.07 32.03 0.07 32.03 C0.07 32.03 0 31.21 0.07 30.91 Z"
							class="st15"/>
				</g>
				<g id="shape13589-57" v:mID="13589" v:groupContext="shape" transform="translate(15,-21.225)">
					<title>Sheet.13589</title>
					<path d="M6.45 32.03 L0.45 32.03 C0.22 32.03 0 31.81 0 31.58 C0 31.36 0.23 31.13 0.45 31.13 L6.45 31.13 C6.67
								 31.13 6.9 31.36 6.9 31.58 C6.9 31.88 6.67 32.03 6.45 32.03 Z" class="st16"/>
				</g>
				<g id="shape13590-59" v:mID="13590" v:groupContext="shape" transform="translate(3.825,-23.1)">
					<title>Sheet.13590</title>
					<path d="M0.15 30.08 C0.15 30.08 4.8 25.51 7.05 24.68 C9.3 23.86 12 23.26 14.62 23.26 C17.25 23.26 21.22 24.23
								 21.22 24.23 C21.22 24.23 23.4 25.21 24.45 25.81 C25.42 26.41 29.1 29.86 29.1 29.86 L29.47 30.53
								 C29.47 30.53 29.17 31.06 28.87 31.36 C28.57 31.66 27.82 32.03 27.82 32.03 L27.52 31.88 C27.52 31.88
								 26.02 30.16 24.22 28.88 C22.42 27.61 18.6 26.63 18.6 26.63 C18.6 26.63 15.97 26.18 14.7 26.18 C13.42
								 26.18 10.35 26.63 9.37 26.93 C8.4 27.23 6.37 27.98 5.02 28.96 C3.67 29.93 1.8 31.96 1.8 31.96 L1.35
								 32.03 C1.35 32.03 0.83 31.66 0.67 31.43 C0.52 31.21 0 30.68 0 30.68 L0.15 30.08 Z" class="st17"/>
				</g>
				<g id="shape13591-61" v:mID="13591" v:groupContext="shape" transform="translate(4.35,-23.025)">
					<title>Sheet.13591</title>
					<path d="M6.52 26.18 C8.77 25.36 11.47 24.76 14.1 24.76 C16.72 24.76 20.7 25.73 20.7 25.73 C20.7 25.73 22.87
								 26.71 23.92 27.31 C24.9 27.91 28.57 31.06 28.35 31.36 C28.12 31.66 27.3 32.03 27.3 32.03 L27 31.88
								 C27 31.88 25.5 30.16 23.7 28.88 C21.9 27.61 18.07 26.63 18.07 26.63 C18.07 26.63 15.45 26.18 14.17
								 26.18 C12.9 26.18 9.83 26.63 8.85 26.93 C7.88 27.23 5.85 27.98 4.5 28.96 C3.15 29.93 1.28 31.96
								 1.28 31.96 L0.83 32.03 C0.83 32.03 0.3 31.66 0.15 31.43 C0 31.21 4.27 27.01 6.52 26.18 Z"
							class="st18"/>
				</g>
				<g id="shape13592-63" v:mID="13592" v:groupContext="shape" transform="translate(15.525,-22.275)">
					<title>Sheet.13592</title>
					<path d="M0.45 24.61 L5.4 24.61 L5.85 32.03 L0 31.96 L0.45 24.61 Z" class="st1"/>
				</g>
				<g id="shape13593-65" v:mID="13593" v:groupContext="shape" transform="translate(15.975,-22.275)">
					<title>Sheet.13593</title>
					<path d="M0 24.61 L4.95 24.61 L4.95 32.03 L0 31.96 L0 24.61 Z" class="st8"/>
				</g>
			</g>
			<g id="group13594-67" transform="translate(14.025,-11.325)" v:mID="13594" v:groupContext="group">
				<title>Sheet.13594</title>
				<g id="shape13595-68" v:mID="13595" v:groupContext="shape" transform="translate(2.2482E-15,-0.15)">
					<title>Sheet.13595</title>
					<path d="M0.45 32.03 L0 27.83 L0.9 27.83 L1.2 30.98 L2.78 27.83 L3.75 27.83 L1.5 32.03 L0.45 32.03 Z"
							class="st19"/>
				</g>
				<g id="shape13596-70" v:mID="13596" v:groupContext="shape" transform="translate(4.8,6.39488E-14)">
					<title>Sheet.13596</title>
					<path d="M3 27.68 C3.22 27.68 3.37 27.68 3.52 27.76 C3.67 27.83 3.82 27.83 3.9 27.98 C3.97 28.06 4.12 28.21 4.12
								 28.36 C4.2 28.51 4.2 28.66 4.2 28.88 C4.2 29.03 4.2 29.18 4.12 29.26 C4.05 29.41 3.97 29.48 3.9
								 29.63 C3.82 29.71 3.67 29.78 3.6 29.86 C3.45 29.93 3.37 29.93 3.22 30.01 C3.37 30.08 3.52 30.16
								 3.6 30.31 C3.67 30.46 3.67 30.61 3.67 30.76 C3.67 30.83 3.67 30.98 3.67 31.13 C3.67 31.28 3.67 31.43
								 3.67 31.51 C3.67 31.58 3.67 31.66 3.67 31.81 C3.67 31.88 3.67 31.96 3.75 32.03 L2.85 32.03 C2.85
								 31.96 2.85 31.96 2.85 31.88 C2.85 31.81 2.85 31.81 2.85 31.73 C2.85 31.58 2.85 31.43 2.85 31.28
								 C2.85 31.13 2.85 30.98 2.85 30.83 C2.85 30.76 2.85 30.68 2.78 30.61 C2.78 30.53 2.7 30.46 2.63 30.46
								 C2.55 30.38 2.48 30.38 2.4 30.38 C2.33 30.38 2.25 30.38 2.18 30.38 L1.27 30.38 L0.9 32.03 L0 32.03
								 L0.9 27.83 L3 27.83 L3 27.68 ZM2.4 29.56 C2.55 29.56 2.62 29.56 2.77 29.48 C2.92 29.48 3 29.41 3.07
								 29.33 C3.15 29.26 3.22 29.18 3.3 29.11 C3.37 29.03 3.37 28.96 3.37 28.81 C3.37 28.66 3.37 28.58
								 3.3 28.51 C3.22 28.43 3.22 28.36 3.15 28.36 C3.07 28.36 3 28.28 2.92 28.28 C2.85 28.28 2.77 28.28
								 2.7 28.28 L1.8 28.28 L1.57 29.48 L2.4 29.48 L2.4 29.56 Z" class="st19"/>
				</g>
			</g>
		</g>
	</g>
</svg>
