<svg viewBox="0 0 60 60" class="" role="presentation" focusable="false" xmlns:svg="http://www.w3.org/2000/svg" xmlns:xlink="http://www.w3.org/1999/xlink" id="FxSymbol0-09f" data-type="1"><g><title></title><title>1- Icon - Query 60x60 Color</title><path fill="#0078d4" d="M60 0H0l60 60V0z"></path><rect x="-3.108" y="43.585" width="33.071" height="5.991" rx=".941" transform="rotate(-45 13.428 46.58)" class="msportalfx-svg-c13" fill="#b8d432"></rect><rect x="-1.347" y="30.819" width="21.126" height="5.991" rx=".941" transform="rotate(-45 9.216 33.814)" class="msportalfx-svg-c13" fill="#b8d432"></rect><path d="M17.747 17.747l24.506 24.506L60 24.506V0H35.494L17.747 17.747z" class="msportalfx-svg-c15" fill="#59b4d9"></path><rect x="15.498" y="47.789" width="21.126" height="5.991" rx=".941" transform="rotate(-45 26.062 50.785)" class="msportalfx-svg-c13" fill="#b8d432"></rect><path opacity=".2" d="M60 60V0L30 30l30 30z" class="msportalfx-svg-c01" fill="#ffffff"></path><rect x="30.484" y="15.004" width="5.991" height="5.991" rx="1.333" transform="rotate(-45 33.479 18)" class="msportalfx-svg-c01" fill="#ffffff"></rect><rect x="38.957" y="6.532" width="5.991" height="5.991" rx="1.333" transform="rotate(-45 41.952 9.527)" class="msportalfx-svg-c01" fill="#ffffff"></rect><rect x="38.957" y="23.477" width="5.991" height="5.991" rx="1.333" transform="rotate(-45 41.952 26.473)" class="msportalfx-svg-c01" fill="#ffffff"></rect><rect x="47.429" y="15.004" width="5.991" height="5.991" rx="1.333" transform="rotate(-45 50.425 18)" class="msportalfx-svg-c01" fill="#ffffff"></rect></g><defs>
<linearGradient id="a" x1="9" y1="16.39" x2="9" y2="-1.94" gradientUnits="userSpaceOnUse"><stop offset="0" stop-color="#0078d4"></stop><stop offset=".16" stop-color="#1380da"></stop><stop offset=".53" stop-color="#3c91e5"></stop><stop offset=".82" stop-color="#559cec"></stop><stop offset="1" stop-color="#5ea0ef"></stop></linearGradient>
<linearGradient id="b" x1="9.88" y1="7.11" x2="9.99" y2="17.27" gradientUnits="userSpaceOnUse"><stop offset="0" stop-color="#32d4f5"></stop><stop offset=".32" stop-color="#31d1f3"></stop><stop offset=".53" stop-color="#2ec9eb"></stop><stop offset=".7" stop-color="#29bade"></stop><stop offset=".86" stop-color="#22a5cb"></stop><stop offset="1" stop-color="#198ab3"></stop><stop offset="1" stop-color="#198ab3"></stop></linearGradient>
<radialGradient id="c" cx="9.43" cy="7.03" r="7.27" gradientUnits="userSpaceOnUse"><stop offset="0" stop-color="#f2f2f2"></stop><stop offset=".58" stop-color="#eee"></stop><stop offset="1" stop-color="#e6e6e6"></stop></radialGradient>
</defs>
</svg>