<svg viewBox="0 0 18 18" class="" role="presentation" focusable="false" xmlns:svg="http://www.w3.org/2000/svg" xmlns:xlink="http://www.w3.org/1999/xlink" id="FxSymbol0-08c" data-type="1"><g><title>Icon-databases-122</title><path d="M9 5.14c-3.54 0-6.41-1-6.41-2.32v12.36c0 1.27 2.82 2.3 6.32 2.32H9c3.54 0 6.41-1 6.41-2.32V2.82c0 1.29-2.87 2.32-6.41 2.32z" fill="url(#a)"></path><path d="M15.41 2.82c0 1.29-2.87 2.32-6.41 2.32s-6.41-1-6.41-2.32S5.46.5 9 .5s6.41 1 6.41 2.32" fill="#e8e8e8"></path><path d="M13.92 2.63c0 .82-2.21 1.48-4.92 1.48s-4.92-.66-4.92-1.48S6.29 1.16 9 1.16s4.92.66 4.92 1.47" fill="#50e6ff"></path><path d="M9 3a11.55 11.55 0 0 0-3.89.57A11.42 11.42 0 0 0 9 4.11a11.15 11.15 0 0 0 3.89-.58A11.84 11.84 0 0 0 9 3z" fill="#198ab3"></path><path d="M12.64 9v1.63h-1a.39.39 0 0 1-.29-.14V9H10v1.78a.92.92 0 0 0 1 .89h1.49l.26-.13s-.11.41-.26.43h-2.38v1h2.66A1.21 1.21 0 0 0 14 11.7V9zM9.53 9v-.49a.7.7 0 0 0-.48-.77 1.74 1.74 0 0 0-.5-.08.94.94 0 0 0-.91.58l-.78 1.9-1-1.9A.93.93 0 0 0 5 7.66a1.44 1.44 0 0 0-.51.09c-.35.11-.43.34-.43.73v3.31h1.17V9.56l.63 1.57a1.08 1.08 0 0 0 1 .66c.44 0 .62-.26.8-.66l.67-1.51v2.15h1.18V9z" fill="#f2f2f2"></path></g><defs>
<linearGradient id="a" x1="9" y1="16.39" x2="9" y2="-1.94" gradientUnits="userSpaceOnUse"><stop offset="0" stop-color="#0078d4"></stop><stop offset=".16" stop-color="#1380da"></stop><stop offset=".53" stop-color="#3c91e5"></stop><stop offset=".82" stop-color="#559cec"></stop><stop offset="1" stop-color="#5ea0ef"></stop></linearGradient>
<linearGradient id="b" x1="9.88" y1="7.11" x2="9.99" y2="17.27" gradientUnits="userSpaceOnUse"><stop offset="0" stop-color="#32d4f5"></stop><stop offset=".32" stop-color="#31d1f3"></stop><stop offset=".53" stop-color="#2ec9eb"></stop><stop offset=".7" stop-color="#29bade"></stop><stop offset=".86" stop-color="#22a5cb"></stop><stop offset="1" stop-color="#198ab3"></stop><stop offset="1" stop-color="#198ab3"></stop></linearGradient>
<radialGradient id="c" cx="9.43" cy="7.03" r="7.27" gradientUnits="userSpaceOnUse"><stop offset="0" stop-color="#f2f2f2"></stop><stop offset=".58" stop-color="#eee"></stop><stop offset="1" stop-color="#e6e6e6"></stop></radialGradient>
</defs>
</svg>