<svg viewBox="0 0 50 50" class="" role="presentation" focusable="false" xmlns:svg="http://www.w3.org/2000/svg" xmlns:xlink="http://www.w3.org/1999/xlink" id="FxSymbol0-085" data-type="1"><g><title></title><path d="M.001 11.453v26.182c0 3.705 6.222 6.765 14 6.765s14-3.028 14-6.765V11.453h-28z" class="msportalfx-svg-c16" fill="#3999c6"></path><path d="M14.001 44.4c7.778 0 14-3.028 14-6.765V11.453h-14V44.4z" class="msportalfx-svg-c15" fill="#59b4d9"></path><path d="M28 24h8v3h-8z" class="msportalfx-svg-c04" fill="#7a7a7a"></path><path d="M28 11.406c0 3.871-6.268 7.006-14 7.006S0 15.277 0 11.406C0 7.536 6.269 4.4 14 4.4s14 3.136 14 7.006" class="msportalfx-svg-c01" fill="#ffffff"></path><path d="M25.138 10.909c0 2.461-4.986 4.453-11.137 4.453S2.863 13.369 2.863 10.909 7.85 6.456 14.001 6.456s11.137 1.993 11.137 4.453" class="msportalfx-svg-c14" fill="#57a300"></path><path fill="none" stroke="#7A7A7A" stroke-width="3" stroke-miterlimit="10" d="M43 8l-8.5 17.5m0 0L43 43"></path><path d="M22.805 13.63c1.458-.753 2.334-1.695 2.334-2.719 0-2.461-4.986-4.454-11.138-4.454-6.151 0-11.137 1.993-11.137 4.454 0 1.024.876 1.966 2.334 2.719 2.036-1.052 5.218-1.731 8.803-1.731 3.586 0 6.766.679 8.804 1.731" class="msportalfx-svg-c13" fill="#b8d432"></path><path d="M42.994 13.646a5.624 5.624 0 0 1-3.009-.874c-1.274-.805-2.16-2.059-2.492-3.53s-.071-2.982.734-4.257a5.622 5.622 0 0 1 4.778-2.63c1.064 0 2.104.302 3.009.874 1.274.805 2.16 2.059 2.492 3.53s.071 2.982-.734 4.257a5.625 5.625 0 0 1-4.778 2.63z" class="msportalfx-svg-c01" fill="#ffffff"></path><path d="M43.007 3.609a4.37 4.37 0 0 1 2.338.68 4.361 4.361 0 0 1 1.938 2.745 4.363 4.363 0 0 1-.571 3.311 4.375 4.375 0 0 1-3.718 2.046 4.367 4.367 0 0 1-2.338-.68 4.361 4.361 0 0 1-1.938-2.745 4.363 4.363 0 0 1 .571-3.311 4.373 4.373 0 0 1 3.718-2.046m0-2.509a6.9 6.9 0 1 0 3.678 1.067A6.873 6.873 0 0 0 43.007 1.1z" class="msportalfx-svg-c16" fill="#3999c6"></path><path d="M42.993 48.646a5.628 5.628 0 0 1-3.008-.873 5.614 5.614 0 0 1-2.492-3.53 5.608 5.608 0 0 1 .734-4.257 5.624 5.624 0 0 1 4.779-2.631c1.063 0 2.104.302 3.008.873a5.614 5.614 0 0 1 2.492 3.53 5.608 5.608 0 0 1-.734 4.257 5.624 5.624 0 0 1-4.779 2.631z" class="msportalfx-svg-c01" fill="#ffffff"></path><path d="M43.007 38.609a4.37 4.37 0 0 1 2.338.68 4.361 4.361 0 0 1 1.938 2.745 4.363 4.363 0 0 1-.571 3.311 4.375 4.375 0 0 1-3.718 2.046 4.367 4.367 0 0 1-2.338-.68 4.361 4.361 0 0 1-1.938-2.745 4.363 4.363 0 0 1 .571-3.311 4.373 4.373 0 0 1 3.718-2.046m0-2.509a6.9 6.9 0 1 0 3.678 1.067 6.873 6.873 0 0 0-3.678-1.067z" class="msportalfx-svg-c16" fill="#3999c6"></path></g><defs>
<linearGradient id="a" x1="9" y1="16.39" x2="9" y2="-1.94" gradientUnits="userSpaceOnUse"><stop offset="0" stop-color="#0078d4"></stop><stop offset=".16" stop-color="#1380da"></stop><stop offset=".53" stop-color="#3c91e5"></stop><stop offset=".82" stop-color="#559cec"></stop><stop offset="1" stop-color="#5ea0ef"></stop></linearGradient>
<linearGradient id="b" x1="9.88" y1="7.11" x2="9.99" y2="17.27" gradientUnits="userSpaceOnUse"><stop offset="0" stop-color="#32d4f5"></stop><stop offset=".32" stop-color="#31d1f3"></stop><stop offset=".53" stop-color="#2ec9eb"></stop><stop offset=".7" stop-color="#29bade"></stop><stop offset=".86" stop-color="#22a5cb"></stop><stop offset="1" stop-color="#198ab3"></stop><stop offset="1" stop-color="#198ab3"></stop></linearGradient>
<radialGradient id="c" cx="9.43" cy="7.03" r="7.27" gradientUnits="userSpaceOnUse"><stop offset="0" stop-color="#f2f2f2"></stop><stop offset=".58" stop-color="#eee"></stop><stop offset="1" stop-color="#e6e6e6"></stop></radialGradient>
</defs>
</svg>