<svg viewBox="0 0 50 50" class="fxs-portal-svg" role="presentation" focusable="false" xmlns:svg="http://www.w3.org/2000/svg" xmlns:xlink="http://www.w3.org/1999/xlink" id="FxSymbol0-05f" data-type="1"><g><title></title><path d="M.001 10.352v30.633c0 4.334 7.111 7.915 16 7.915s16-3.543 16-7.915V10.352h-32z" class="msportalfx-svg-c16" fill="#3999c6"></path><path opacity=".15" d="M16 48.9c8.889 0 16-3.543 16-7.915V10.352H16V48.9z"></path><path d="M32 10.297c0 4.529-7.163 8.197-15.999 8.197S0 14.826 0 10.297C0 5.769 7.164 2.1 16.001 2.1S32 5.769 32 10.297" class="msportalfx-svg-c01" fill="#ffffff"></path><path d="M28.729 9.715c0 2.879-5.699 5.21-12.728 5.21s-12.73-2.331-12.73-5.21c0-2.878 5.7-5.21 12.729-5.21s12.729 2.333 12.729 5.21" class="msportalfx-svg-c14" fill="#57a300"></path><path d="M26.062 12.899c1.666-.881 2.668-1.983 2.668-3.181 0-2.879-5.699-5.211-12.729-5.211-7.03 0-12.728 2.332-12.728 5.211 0 1.198 1.001 2.301 2.668 3.181 2.327-1.231 5.963-2.025 10.061-2.025 4.097 0 7.731.794 10.06 2.025" class="msportalfx-svg-c13" fill="#b8d432"></path><path opacity=".4" d="M32 21.042l-8.478 8.487a1.5 1.5 0 0 0 .001 2.121l2.827 2.827a1.5 1.5 0 0 0 2.122-.001L32 30.94v-9.898z" class="msportalfx-svg-c01" fill="#ffffff"></path><path d="M23.876 30.589l16.815-16.815-3.889-3.889L50 8l-1.884 13.198-3.89-3.888-16.814 16.814z" class="msportalfx-svg-c17" fill="#804998"></path></g><defs>
<linearGradient id="a" x1="-1267.23" y1="3.07" x2="-1267.52" y2="14.64" gradientTransform="matrix(-1 0 0 1 -1256.13 0)" gradientUnits="userSpaceOnUse"><stop offset="0" stop-color="#32d4f5"></stop><stop offset=".23" stop-color="#31d0f1"></stop><stop offset=".46" stop-color="#2cc3e6"></stop><stop offset=".7" stop-color="#25afd4"></stop><stop offset=".94" stop-color="#1c92ba"></stop><stop offset="1" stop-color="#198ab3"></stop></linearGradient>
<linearGradient id="b" x1="6.05" y1="11.51" x2="6.05" y2="3" gradientUnits="userSpaceOnUse"><stop offset="0" stop-color="#0078d4"></stop><stop offset=".82" stop-color="#5ea0ef"></stop></linearGradient>
<linearGradient id="c" x1="10.51" y1="6.82" x2="7.93" y2="10.5" gradientUnits="userSpaceOnUse"><stop offset="0" stop-color="#005ba1"></stop><stop offset=".14" stop-color="#035da3" stop-opacity=".97"></stop><stop offset=".3" stop-color="#0b63aa" stop-opacity=".88"></stop><stop offset=".47" stop-color="#196eb6" stop-opacity=".73"></stop><stop offset=".65" stop-color="#2d7cc6" stop-opacity=".52"></stop><stop offset=".84" stop-color="#468edb" stop-opacity=".26"></stop><stop offset="1" stop-color="#5ea0ef" stop-opacity="0"></stop></linearGradient>
</defs>
</svg>