<svg width="49" height="49" viewBox="0 0 49 49" fill="none" xmlns="http://www.w3.org/2000/svg">
<path d="M38.637 18.1872C41.414 18.1872 43.9529 18.9012 46.2538 20.25V20.1707L39.4304 8.26953H34.0353C34.0353 10.4911 33.2419 12.7126 31.7344 14.3788L34.2733 18.7425C35.6221 18.3458 37.1296 18.1872 38.637 18.1872Z" fill="#59B3D8"/>
<path d="M10.389 23.9029C10.865 23.8235 11.4204 23.8235 11.8964 23.9029L14.1973 19.9358L17.4503 14.2233C15.9428 12.5571 15.1494 10.4149 15.1494 8.19336H9.67489L2.85156 20.0945L5.78718 25.1723C7.21532 24.3789 8.80214 23.9029 10.389 23.9029Z" fill="#59B3D8"/>
<path d="M20.7836 16.8379L15.7852 25.5654C17.9274 27.0729 19.4348 29.3738 19.7522 31.992H23.4812C23.8779 27.1522 26.5755 23.0265 30.4632 20.5669L28.321 16.8379C25.9408 17.9487 23.1639 17.9487 20.7836 16.8379Z" fill="#59B3D8"/>
<path d="M23.7212 36.041H19.4368C18.7227 38.3419 17.2152 40.2461 15.1523 41.4362L17.6913 45.8793H30.0684C26.8155 43.6577 24.4352 40.1667 23.7212 36.041Z" fill="#59B3D8"/>
<path d="M27.8207 11.5874C29.6488 9.75929 29.6488 6.7954 27.8207 4.96732C25.9926 3.13925 23.0287 3.13925 21.2006 4.96733C19.3726 6.7954 19.3726 9.75929 21.2006 11.5874C23.0287 13.4154 25.9926 13.4154 27.8207 11.5874Z" fill="#414141"/>
<path d="M39.7149 37.8911C42.2309 37.297 43.789 34.7757 43.1949 32.2597C42.6008 29.7437 40.0795 28.1856 37.5635 28.7797C35.0475 29.3739 33.4894 31.8951 34.0835 34.4111C34.6776 36.9272 37.1989 38.4852 39.7149 37.8911Z" fill="#414141"/>
<path d="M13.7152 36.6694C15.5433 34.8413 15.5433 31.8774 13.7152 30.0494C11.8871 28.2213 8.92325 28.2213 7.09517 30.0494C5.2671 31.8774 5.2671 34.8413 7.09517 36.6694C8.92325 38.4975 11.8871 38.4975 13.7152 36.6694Z" fill="#414141"/>
<path d="M34.1914 18.8242L34.9848 20.173L37.2857 24.14C37.7618 24.0607 38.2378 24.0607 38.7138 24.14C40.38 24.14 41.9668 24.6161 43.395 25.4095L46.1719 20.2523C43.9503 18.9829 41.3321 18.1895 38.5552 18.1895C37.127 18.1895 35.6195 18.3481 34.1914 18.8242Z" fill="#59B3D8"/>
<path d="M34.1914 18.8242L34.9848 20.173L37.2857 24.14C37.7618 24.0607 38.2378 24.0607 38.7138 24.14C40.38 24.14 41.9668 24.6161 43.395 25.4095L46.1719 20.2523C43.9503 18.9829 41.3321 18.1895 38.5552 18.1895C37.127 18.1895 35.6195 18.3481 34.1914 18.8242Z" fill="#8BC9E0"/>
<path d="M30.0672 45.8793H31.2574L33.7963 41.5155C31.7334 40.3254 30.2259 38.3419 29.5912 36.041H23.6406C24.434 40.1667 26.8143 43.6577 30.0672 45.8793Z" fill="#59B3D8"/>
<path d="M30.0672 45.8793H31.2574L33.7963 41.5155C31.7334 40.3254 30.2259 38.3419 29.5912 36.041H23.6406C24.434 40.1667 26.8143 43.6577 30.0672 45.8793Z" fill="#8BC9E0"/>
<path d="M23.4844 31.9935H29.2763C29.673 29.3752 31.1011 27.0743 33.3227 25.5668L30.387 20.5684C26.5787 23.0279 23.9604 27.1537 23.4844 31.9935Z" fill="#59B3D8"/>
<path d="M23.4844 31.9935H29.2763C29.673 29.3752 31.1011 27.0743 33.3227 25.5668L30.387 20.5684C26.5787 23.0279 23.9604 27.1537 23.4844 31.9935Z" fill="#8BC9E0"/>
</svg>
