<svg viewBox="0 0 50 50" class="" role="presentation" focusable="false" xmlns:svg="http://www.w3.org/2000/svg" xmlns:xlink="http://www.w3.org/1999/xlink" id="FxSymbol0-0e9" data-type="1"><g><title></title><title>sql-instance_pools</title><path d="M41.006 6.333H19.672A2.674 2.674 0 0 0 17.006 9h21.338a2.675 2.675 0 0 1 2.667 2.667v31.999A2.675 2.675 0 0 0 43.672 41V9a2.674 2.674 0 0 0-2.666-2.667z" fill="#777"></path><path d="M46.333 1H25a2.675 2.675 0 0 0-2.667 2.667h21.338a2.674 2.674 0 0 1 2.667 2.666v32A2.674 2.674 0 0 0 49 35.672v-32A2.675 2.675 0 0 0 46.333 1z" fill="#777"></path><rect x="11.677" y="11.661" width="26.667" height="37.333" rx="2.667" fill="#777"></rect><path d="M17.333 16.162a3 3 0 1 0 0 6h15.334a3 3 0 0 0 0-6zm2.673 9.044a3 3 0 0 0 0 6h12.661a3 3 0 0 0 0-6z"></path><circle cx="17.333" cy="19.162" r="1.5" class="msportalfx-svg-c13" fill="#b8d432"></circle><path d="M32.5 47.5a4.5 4.5 0 1 0-.474-8.976 11.253 11.253 0 0 0-21.415-6.583A7.875 7.875 0 1 0 8.875 47.5z" class="msportalfx-svg-c01" fill="#ffffff"></path><path d="M32.027 33.976a11.253 11.253 0 0 0-21.416-2.037A7.875 7.875 0 1 0 8.875 47.5h5.3a6.392 6.392 0 1 1 1.409-12.628 9.134 9.134 0 0 1 16.448-.892z" fill="#c0ecfc"></path><path d="M22.75 44.494a2.988 2.988 0 0 0 1.234-.264l.266.265h1.5V43l-.265-.265a2.982 2.982 0 0 0 .265-1.236v-1.5a3 3 0 0 0-6 0v1.5a3 3 0 0 0 3 2.995zm-8.25-7.5a2.25 2.25 0 0 0 0 4.5H16A.75.75 0 0 1 16 43h-3.75v1.5H16a2.25 2.25 0 0 0 0-4.5h-1.5a.75.75 0 1 1 0-1.5h3.75V37zm12.75 0h1.5v6h3v1.5h-4.5zm-3 4.5h-1.5V43a1.5 1.5 0 0 1-1.5-1.5V40a1.5 1.5 0 0 1 3 0z" fill="#8ba208"></path></g><defs>
<linearGradient id="a" x1="9" y1="16.39" x2="9" y2="-1.94" gradientUnits="userSpaceOnUse"><stop offset="0" stop-color="#0078d4"></stop><stop offset=".16" stop-color="#1380da"></stop><stop offset=".53" stop-color="#3c91e5"></stop><stop offset=".82" stop-color="#559cec"></stop><stop offset="1" stop-color="#5ea0ef"></stop></linearGradient>
<linearGradient id="b" x1="9.88" y1="7.11" x2="9.99" y2="17.27" gradientUnits="userSpaceOnUse"><stop offset="0" stop-color="#32d4f5"></stop><stop offset=".32" stop-color="#31d1f3"></stop><stop offset=".53" stop-color="#2ec9eb"></stop><stop offset=".7" stop-color="#29bade"></stop><stop offset=".86" stop-color="#22a5cb"></stop><stop offset="1" stop-color="#198ab3"></stop><stop offset="1" stop-color="#198ab3"></stop></linearGradient>
<radialGradient id="c" cx="9.43" cy="7.03" r="7.27" gradientUnits="userSpaceOnUse"><stop offset="0" stop-color="#f2f2f2"></stop><stop offset=".58" stop-color="#eee"></stop><stop offset="1" stop-color="#e6e6e6"></stop></radialGradient>
</defs>
</svg>