<svg width="32" height="33" viewBox="0 0 32 33" fill="none" xmlns="http://www.w3.org/2000/svg">
<path d="M11 2.21875C9.34315 2.21875 8 3.5619 8 5.21875H6.5C5.11929 5.21875 4 6.33804 4 7.71875V11.7188C4 14.1202 5.88115 16.0824 8.25028 16.2119C9.05558 19.3523 11.7193 21.7478 15 22.1569V24.2188H11.5C9.567 24.2188 8 25.7858 8 27.7188V28.7188C8 29.5472 8.67157 30.2188 9.5 30.2188H22.5C23.3284 30.2188 24 29.5472 24 28.7188V27.7188C24 25.7858 22.433 24.2188 20.5 24.2188H17V22.1569C20.2807 21.7478 22.9444 19.3523 23.7497 16.2119C26.1188 16.0824 28 14.1202 28 11.7188V7.71875C28 6.33804 26.8807 5.21875 25.5 5.21875H24C24 3.5619 22.6569 2.21875 21 2.21875H11ZM24 7.21875H25.5C25.7761 7.21875 26 7.44261 26 7.71875V11.7188C26 12.9282 25.1411 13.9371 24 14.1687V7.21875ZM8 14.1687C6.85888 13.9371 6 12.9282 6 11.7188V7.71875C6 7.44261 6.22386 7.21875 6.5 7.21875H8V14.1687ZM10 5.21875C10 4.66647 10.4477 4.21875 11 4.21875H21C21.5523 4.21875 22 4.66647 22 5.21875V14.2188C22 17.5325 19.3137 20.2188 16 20.2188C12.6863 20.2188 10 17.5325 10 14.2188V5.21875ZM10 27.7188C10 26.8903 10.6716 26.2188 11.5 26.2188H20.5C21.3284 26.2188 22 26.8903 22 27.7188V28.2188H10V27.7188Z" fill="black"/>
</svg>
