<svg width="32" height="33" viewBox="0 0 32 33" fill="none" xmlns="http://www.w3.org/2000/svg">
<path d="M5 7.92187C5 6.26502 6.34315 4.92188 8 4.92188C9.65685 4.92188 11 6.26502 11 7.92188V25.9219C11 27.5787 9.65685 28.9219 8 28.9219C6.34315 28.9219 5 27.5787 5 25.9219V7.92187ZM8 6.92188C7.44771 6.92188 7 7.36959 7 7.92187V25.9219C7 26.4742 7.44772 26.9219 8 26.9219C8.55229 26.9219 9 26.4742 9 25.9219V7.92188C9 7.36959 8.55228 6.92188 8 6.92188ZM13 13.9219C13 12.265 14.3431 10.9219 16 10.9219C17.6569 10.9219 19 12.265 19 13.9219V25.9219C19 27.5787 17.6569 28.9219 16 28.9219C14.3431 28.9219 13 27.5787 13 25.9219V13.9219ZM16 12.9219C15.4477 12.9219 15 13.3696 15 13.9219V25.9219C15 26.4742 15.4477 26.9219 16 26.9219C16.5523 26.9219 17 26.4742 17 25.9219V13.9219C17 13.3696 16.5523 12.9219 16 12.9219ZM24 16.9219C22.3431 16.9219 21 18.265 21 19.9219V25.9219C21 27.5787 22.3431 28.9219 24 28.9219C25.6569 28.9219 27 27.5787 27 25.9219V19.9219C27 18.265 25.6569 16.9219 24 16.9219ZM23 19.9219C23 19.3696 23.4477 18.9219 24 18.9219C24.5523 18.9219 25 19.3696 25 19.9219V25.9219C25 26.4742 24.5523 26.9219 24 26.9219C23.4477 26.9219 23 26.4742 23 25.9219V19.9219Z" fill="black"/>
</svg>
