<svg width="32" height="33" viewBox="0 0 32 33" fill="none" xmlns="http://www.w3.org/2000/svg">
<path d="M17.0632 14.5625C17.0632 14.1483 16.7274 13.8125 16.3132 13.8125C15.899 13.8125 15.5632 14.1483 15.5632 14.5625V18.5776L12.2049 16.6387C11.8462 16.4316 11.3875 16.5545 11.1804 16.9132C10.9733 17.2719 11.0962 17.7306 11.4549 17.9377L14.8093 19.8744L11.3204 21.8887C10.9617 22.0958 10.8388 22.5545 11.0459 22.9132C11.253 23.2719 11.7117 23.3948 12.0704 23.1877L15.5632 21.1711V25.0625C15.5632 25.4767 15.899 25.8125 16.3132 25.8125C16.7274 25.8125 17.0632 25.4767 17.0632 25.0625V21.1757L20.5482 23.1877C20.9069 23.3948 21.3656 23.2719 21.5727 22.9132C21.7798 22.5545 21.6569 22.0958 21.2982 21.8887L17.8093 19.8744L21.1637 17.9377C21.5224 17.7306 21.6453 17.2719 21.4382 16.9132C21.2311 16.5545 20.7724 16.4316 20.4137 16.6387L17.0632 18.5731V14.5625Z" fill="black"/>
<path d="M3 8.3125C3 5.82722 5.01472 3.8125 7.5 3.8125H24.5C26.9853 3.8125 29 5.82722 29 8.3125V25.3125C29 27.7978 26.9853 29.8125 24.5 29.8125H7.5C5.01472 29.8125 3 27.7978 3 25.3125V8.3125ZM7.5 5.8125C6.11929 5.8125 5 6.93179 5 8.3125V9.8125H27V8.3125C27 6.93179 25.8807 5.8125 24.5 5.8125H7.5ZM27 11.8125H5V25.3125C5 26.6932 6.11929 27.8125 7.5 27.8125H24.5C25.8807 27.8125 27 26.6932 27 25.3125V11.8125Z" fill="black"/>
</svg>
