<svg width="32" height="33" viewBox="0 0 32 33" fill="none" xmlns="http://www.w3.org/2000/svg">
<g clip-path="url(#clip0_32925_133778)">
<g clip-path="url(#clip1_32925_133778)">
<path fill-rule="evenodd" clip-rule="evenodd" d="M13.0693 18.5717L14.167 19.2054C16.0254 20.2784 17.5715 20.4862 18.7514 20.2191C19.9069 19.9576 21.0081 19.1746 21.885 17.6559C23.5777 14.724 23.0052 10.5849 19.7238 7.91921C16.1295 4.99924 10.3483 4.88249 5.96278 8.82464C2.13225 12.2679 0.795121 18.4922 3.11574 24.0238L3.15367 24.1104C3.41722 24.712 3.86603 25.2359 4.48094 25.5909C6.00809 26.4726 7.96069 25.9499 8.84318 24.4235L9.42998 23.4086L10.8612 24.9311L10.5763 25.4247L10.5746 25.4246C9.13954 27.9068 5.96432 28.7568 3.48094 27.323C2.48438 26.7476 1.75061 25.8919 1.32175 24.9129L1.32035 24.9128C-1.35948 18.6559 0.0667747 11.4353 4.62575 7.33725C9.70101 2.77505 16.5833 2.79108 20.9849 6.36689C24.9938 9.62363 25.8233 14.8345 23.617 18.6559C21.4376 22.4307 17.604 23.4204 13.3255 21.0275L14.2418 19.448L13.0693 18.5717Z" fill="black"/>
<path fill-rule="evenodd" clip-rule="evenodd" d="M28.8116 8.03472L28.862 8.15174C31.1544 13.6715 29.8137 19.869 25.9945 23.3021C21.6091 27.2442 15.8278 27.1275 12.2335 24.2075L10.9724 25.7598L12.2335 24.2075C8.95214 21.5418 8.37964 17.4027 10.0724 14.4708C10.9492 12.9521 12.0505 12.1691 13.2059 11.9075C14.3859 11.6404 15.9319 11.8483 17.7903 12.9213L19.5224 13.9213L19.7196 13.5798L17.998 12.4524L18.7206 11.1493C14.4064 8.69273 10.5348 9.66987 8.34031 13.4708C6.13402 17.2922 6.96352 22.5031 10.9724 25.7598C15.3741 29.3356 22.2563 29.3516 27.3316 24.7894C31.8833 20.6979 33.3122 13.4939 30.6498 7.24389L30.6486 7.24382C30.2216 6.25222 29.483 5.38474 28.4762 4.80344C25.9921 3.36923 22.8157 4.22019 21.3812 6.70409L21.3799 6.70402L21.0948 7.19788L22.4352 8.87621L22.4951 8.77248L22.4962 8.77255L23.1132 7.70429C23.9953 6.17682 25.9486 5.65352 27.4762 6.53549C28.0974 6.89413 28.5492 7.42523 28.8116 8.03472Z" fill="black"/>
<path d="M20.8541 18.8777C19.3 21.5694 15.8581 22.4917 13.1664 20.9376C10.4747 19.3835 9.55241 15.9416 11.1065 13.2499C12.6606 10.5582 16.1025 9.63591 18.7942 11.19C21.4859 12.7441 22.4082 16.186 20.8541 18.8777Z" fill="black"/>
</g>
</g>
<defs>
<clipPath id="clip0_32925_133778">
<rect width="32" height="32.0001" fill="white" transform="translate(0 0.0625)"/>
</clipPath>
<clipPath id="clip1_32925_133778">
<rect width="32" height="32" fill="white" transform="translate(0 0.0625)"/>
</clipPath>
</defs>
</svg>
