<svg width="32" height="33" viewBox="0 0 32 33" fill="none" xmlns="http://www.w3.org/2000/svg">
<path d="M2 16.6563C2 12.7903 5.13401 9.65631 9 9.65631H13C13.5523 9.65631 14 10.104 14 10.6563C14 11.2086 13.5523 11.6563 13 11.6563H9C6.23858 11.6563 4 13.8949 4 16.6563C4 19.4177 6.23858 21.6563 9 21.6563H13C13.5523 21.6563 14 22.104 14 22.6563C14 23.2086 13.5523 23.6563 13 23.6563H9C5.13401 23.6563 2 20.5223 2 16.6563ZM30 16.6563C30 12.7903 26.866 9.65631 23 9.65631H19C18.4477 9.65631 18 10.104 18 10.6563C18 11.2086 18.4477 11.6563 19 11.6563H23C25.7614 11.6563 28 13.8949 28 16.6563C28 19.4177 25.7614 21.6563 23 21.6563H19C18.4477 21.6563 18 22.104 18 22.6563C18 23.2086 18.4477 23.6563 19 23.6563H23C26.866 23.6563 30 20.5223 30 16.6563ZM9.5 15.6563C8.94772 15.6563 8.5 16.104 8.5 16.6563C8.5 17.2086 8.94772 17.6563 9.5 17.6563H22.5C23.0523 17.6563 23.5 17.2086 23.5 16.6563C23.5 16.104 23.0523 15.6563 22.5 15.6563H9.5Z" fill="black"/>
</svg>
