<svg width="32" height="32" viewBox="0 0 32 32" fill="none" xmlns="http://www.w3.org/2000/svg">
<path d="M16 28C16.9571 28 17.8881 27.8879 18.7805 27.6762C18.8279 27.7145 18.8762 27.7512 18.9253 27.7862L18.896 27.8155C18.3309 28.3806 18.0384 29.1151 18.0184 29.8556C17.3594 29.9507 16.6854 30 16 30C8.26801 30 2 23.732 2 16C2 8.26801 8.26801 2 16 2C23.732 2 30 8.26801 30 16C30 16.6778 29.9518 17.3443 29.8587 17.9964L27.8347 17.9963C27.9434 17.347 28 16.6801 28 16C28 9.37258 22.6274 4 16 4C9.37258 4 4 9.37258 4 16C4 22.6274 9.37258 28 16 28Z" fill="black"/>
<path d="M25.9949 16.2795C25.9786 16.8588 25.9121 17.4331 25.7974 17.9962L23.7468 17.9961C23.8953 17.4192 23.9798 16.8248 23.9966 16.2236C24.0389 14.7147 23.6538 13.2246 22.8857 11.9252C22.7503 11.6971 22.7111 11.4245 22.7766 11.1675C22.8422 10.9105 23.0071 10.6901 23.2352 10.5547C23.4633 10.4193 23.7358 10.38 23.9929 10.4456C24.2499 10.5111 24.4703 10.6761 24.6057 10.9042C25.5664 12.5291 26.048 14.3925 25.9949 16.2795Z" fill="black"/>
<path d="M8.06784 21.9155C8.21256 21.9923 8.37392 22.0322 8.53772 22.032C8.71906 22.0318 8.89693 21.9823 9.05229 21.8887C9.20765 21.7952 9.33466 21.6612 9.41972 21.5011C9.50478 21.3409 9.54469 21.1606 9.53518 20.9795C9.52567 20.7985 9.46709 20.6234 9.36572 20.473C8.47253 19.1525 7.99663 17.5942 7.99972 16C8.0009 14.8174 8.264 13.6497 8.77012 12.5808C9.27623 11.512 10.0128 10.5685 10.9269 9.81817C11.841 9.06784 12.91 8.52928 14.057 8.2412C15.204 7.95311 16.4006 7.92265 17.5607 8.152C17.6896 8.17773 17.8224 8.17778 17.9513 8.15216C18.0803 8.12653 18.2029 8.07574 18.3122 8.00267C18.4215 7.9296 18.5153 7.8357 18.5883 7.72634C18.6612 7.61698 18.7119 7.49431 18.7374 7.36534C18.7629 7.23637 18.7628 7.10363 18.7369 6.97473C18.7111 6.84583 18.66 6.72329 18.5868 6.61412C18.5135 6.50496 18.4195 6.41131 18.31 6.33853C18.2005 6.26575 18.0777 6.21528 17.9487 6.19C17.3068 6.06349 16.654 5.99986 15.9997 6C14.185 5.9997 12.4044 6.49323 10.8487 7.42769C9.29308 8.36216 8.02104 9.70233 7.16895 11.3046C6.31685 12.9068 5.91682 14.7108 6.01174 16.523C6.10665 18.3353 6.69292 20.0875 7.70772 21.592C7.79945 21.7277 7.92311 21.8388 8.06784 21.9155Z" fill="black"/>
<path d="M21.5175 7.87563C21.3271 7.87213 21.1414 7.9349 20.9922 8.0532L19.9362 8.8952C19.2982 9.4022 18.4422 10.0872 17.5682 10.7952C16.6942 11.5032 15.7982 12.2322 15.0832 12.8322C14.7262 13.1312 14.4102 13.4002 14.1632 13.6182C13.9656 13.7867 13.7776 13.9664 13.6002 14.1562C13.1759 14.6528 12.9662 15.2977 13.0173 15.9489C13.0684 16.6001 13.3761 17.2044 13.8727 17.6287C14.3694 18.053 15.0142 18.2627 15.6654 18.2116C16.3167 18.1605 16.9209 17.8528 17.3452 17.3562C17.5053 17.1517 17.6532 16.938 17.7882 16.7162C17.9642 16.4382 18.1812 16.0842 18.4202 15.6842C18.8992 14.8842 19.4812 13.8862 20.0432 12.9112C20.6052 11.9362 21.1512 10.9842 21.5512 10.2752L22.0352 9.4222L22.2172 9.1002C22.3109 8.93441 22.344 8.74124 22.3109 8.55374C22.2778 8.36625 22.1805 8.19609 22.0358 8.07238C21.891 7.94868 21.7078 7.87913 21.5175 7.87563Z" fill="black"/>
<path d="M22.1255 20H30.1791C30.3927 20 30.5975 20.0849 30.7486 20.2359C30.8996 20.3869 30.9845 20.5918 30.9845 20.8054V28.859C30.9844 29.0181 30.9372 29.1737 30.8488 29.3061C30.7604 29.4384 30.6348 29.5416 30.4878 29.6026C30.3408 29.6637 30.179 29.6797 30.0229 29.6489C29.8667 29.618 29.7232 29.5415 29.6105 29.4292L21.5569 21.3756C21.4441 21.263 21.3672 21.1195 21.3359 20.9633C21.3047 20.807 21.3205 20.645 21.3814 20.4977C21.4423 20.3504 21.5455 20.2245 21.6779 20.1359C21.8104 20.0473 21.9661 20 22.1255 20Z" fill="black"/>
<path d="M21.3712 26.048L22.0783 25.3409C22.4688 24.9504 22.4688 24.3172 22.0783 23.9267C21.6878 23.5362 21.0546 23.5362 20.6641 23.9267L19.957 24.6338C19.5664 25.0243 19.5664 25.6575 19.957 26.048C20.3475 26.4385 20.9806 26.4385 21.3712 26.048Z" fill="black"/>
<path d="M24.5529 26.4013C24.9434 26.7918 24.9434 27.425 24.5529 27.8155L21.7245 30.6439C21.3339 31.0345 20.7008 31.0345 20.3102 30.6439C19.9197 30.2534 19.9197 29.6202 20.3102 29.2297L23.1387 26.4013C23.5292 26.0108 24.1624 26.0108 24.5529 26.4013Z" fill="black"/>
<path d="M27.0275 28.8764C26.637 28.4859 26.0038 28.4859 25.6133 28.8764L24.9062 29.5835C24.5157 29.974 24.5157 30.6072 24.9062 30.9977C25.2967 31.3882 25.9299 31.3882 26.3204 30.9977L27.0275 30.2906C27.418 29.9001 27.418 29.2669 27.0275 28.8764Z" fill="black"/>
</svg>
