<svg width="32" height="33" viewBox="0 0 32 33" fill="none" xmlns="http://www.w3.org/2000/svg">
<path d="M9.99805 22.6875C11.1026 22.6875 11.998 21.7921 11.998 20.6875C11.998 19.5829 11.1026 18.6875 9.99805 18.6875C8.89348 18.6875 7.99805 19.5829 7.99805 20.6875C7.99805 21.7921 8.89348 22.6875 9.99805 22.6875ZM17.998 20.6875C17.998 21.7921 17.1026 22.6875 15.998 22.6875C14.8935 22.6875 13.998 21.7921 13.998 20.6875C13.998 19.5829 14.8935 18.6875 15.998 18.6875C17.1026 18.6875 17.998 19.5829 17.998 20.6875ZM21.998 22.6875C23.1026 22.6875 23.998 21.7921 23.998 20.6875C23.998 19.5829 23.1026 18.6875 21.998 18.6875C20.8935 18.6875 19.998 19.5829 19.998 20.6875C19.998 21.7921 20.8935 22.6875 21.998 22.6875ZM6.12803 4.77491C6.69796 4.08618 7.54535 3.6875 8.43931 3.6875H23.5574C24.4514 3.6875 25.2987 4.08618 25.8687 4.77492L30.5337 10.4124C31.6127 11.7163 30.6853 13.6875 28.9928 13.6875H27.998V26.4375C27.998 28.2324 26.543 29.6875 24.748 29.6875H7.24805C5.45312 29.6875 3.99805 28.2324 3.99805 26.4375V13.6875H3.00381C1.31137 13.6875 0.383974 11.7163 1.46296 10.4124L6.12803 4.77491ZM5.99805 13.6875V26.4375C5.99805 27.1279 6.55769 27.6875 7.24805 27.6875H24.748C25.4384 27.6875 25.998 27.1279 25.998 26.4375V13.6875H5.99805ZM8.43931 5.6875C8.14132 5.6875 7.85886 5.82039 7.66888 6.04997L3.00381 11.6875L28.9928 11.6875L24.3278 6.04997C24.1378 5.82039 23.8554 5.6875 23.5574 5.6875H8.43931Z" fill="black"/>
</svg>
