<svg width="32" height="33" viewBox="0 0 32 33" fill="none" xmlns="http://www.w3.org/2000/svg">
<path d="M9 10.5781C7.34315 10.5781 6 9.23498 6 7.57812C6 5.92127 7.34315 4.57812 9 4.57812C10.6569 4.57812 12 5.92127 12 7.57812C12 9.23498 10.6569 10.5781 9 10.5781ZM10 12.4781C12.2822 12.0148 14 9.99708 14 7.57812C14 4.8167 11.7614 2.57812 9 2.57812C6.23858 2.57812 4 4.8167 4 7.57812C4 9.99708 5.71776 12.0148 8 12.4781L8 20.6781C5.71776 21.1414 4 23.1592 4 25.5781C4 28.3395 6.23858 30.5781 9 30.5781C11.7614 30.5781 14 28.3395 14 25.5781C14 23.1592 12.2822 21.1414 10 20.6781V18.5781H19C21.7614 18.5781 24 16.3395 24 13.5781V12.4781C26.2822 12.0148 28 9.99708 28 7.57812C28 4.8167 25.7614 2.57812 23 2.57812C20.2386 2.57812 18 4.8167 18 7.57812C18 9.99708 19.7178 12.0148 22 12.4781V13.5781C22 15.235 20.6569 16.5781 19 16.5781H10V12.4781ZM23 10.5781C21.3431 10.5781 20 9.23498 20 7.57812C20 5.92127 21.3431 4.57812 23 4.57812C24.6569 4.57812 26 5.92127 26 7.57812C26 9.23498 24.6569 10.5781 23 10.5781ZM12 25.5781C12 27.235 10.6569 28.5781 9 28.5781C7.34315 28.5781 6 27.235 6 25.5781C6 23.9213 7.34315 22.5781 9 22.5781C10.6569 22.5781 12 23.9213 12 25.5781Z" fill="black"/>
</svg>
