<svg width="32" height="33" viewBox="0 0 32 33" fill="none" xmlns="http://www.w3.org/2000/svg">
<path d="M12 13.375C12 14.2034 11.3284 14.875 10.5 14.875C9.67157 14.875 9 14.2034 9 13.375C9 12.5466 9.67157 11.875 10.5 11.875C11.3284 11.875 12 12.5466 12 13.375ZM10.5 20.875C11.3284 20.875 12 20.2034 12 19.375C12 18.5466 11.3284 17.875 10.5 17.875C9.67157 17.875 9 18.5466 9 19.375C9 20.2034 9.67157 20.875 10.5 20.875ZM16 20.875C16.8284 20.875 17.5 20.2034 17.5 19.375C17.5 18.5466 16.8284 17.875 16 17.875C15.1716 17.875 14.5 18.5466 14.5 19.375C14.5 20.2034 15.1716 20.875 16 20.875ZM16 14.875C16.8284 14.875 17.5 14.2034 17.5 13.375C17.5 12.5466 16.8284 11.875 16 11.875C15.1716 11.875 14.5 12.5466 14.5 13.375C14.5 14.2034 15.1716 14.875 16 14.875ZM21.5 14.875C22.3284 14.875 23 14.2034 23 13.375C23 12.5466 22.3284 11.875 21.5 11.875C20.6716 11.875 20 12.5466 20 13.375C20 14.2034 20.6716 14.875 21.5 14.875ZM7.5 3.875C5.01472 3.875 3 5.88972 3 8.375V25.375C3 27.8603 5.01472 29.875 7.5 29.875H24.5C26.9853 29.875 29 27.8603 29 25.375V8.375C29 5.88972 26.9853 3.875 24.5 3.875H7.5ZM5 8.375C5 6.99429 6.11929 5.875 7.5 5.875H24.5C25.8807 5.875 27 6.99429 27 8.375V25.375C27 26.7557 25.8807 27.875 24.5 27.875H7.5C6.11929 27.875 5 26.7557 5 25.375V8.375Z" fill="black"/>
</svg>
