<svg width="32" height="33" viewBox="0 0 32 33" fill="none" xmlns="http://www.w3.org/2000/svg">
<path d="M15.1904 5.28585C15.6572 4.88909 16.3428 4.88909 16.8096 5.28586L26.5596 13.5733C26.839 13.8108 27 14.159 27 14.5257V26.7402C27 27.4278 26.4426 27.9852 25.755 27.9852H6.245C5.5574 27.9852 5 27.4278 5 26.7402V14.5257C5 14.159 5.16103 13.8108 5.44044 13.5733L15.1904 5.28585ZM18.1049 3.76197C16.8912 2.73039 15.1088 2.73038 13.8952 3.76197L4.14515 12.0494C3.41868 12.6669 3 13.5723 3 14.5257V26.7402C3 28.5324 4.45283 29.9852 6.245 29.9852H25.755C27.5472 29.9852 29 28.5324 29 26.7402V14.5257C29 13.5723 28.5813 12.6669 27.8549 12.0494L18.1049 3.76197ZM12 17.4852C12 18.3137 11.3284 18.9852 10.5 18.9852C9.67157 18.9852 9 18.3137 9 17.4852C9 16.6568 9.67157 15.9852 10.5 15.9852C11.3284 15.9852 12 16.6568 12 17.4852ZM10.5 23.9852C11.3284 23.9852 12 23.3137 12 22.4852C12 21.6568 11.3284 20.9852 10.5 20.9852C9.67157 20.9852 9 21.6568 9 22.4852C9 23.3137 9.67157 23.9852 10.5 23.9852ZM16 23.9852C16.8284 23.9852 17.5 23.3137 17.5 22.4852C17.5 21.6568 16.8284 20.9852 16 20.9852C15.1716 20.9852 14.5 21.6568 14.5 22.4852C14.5 23.3137 15.1716 23.9852 16 23.9852ZM16 18.9852C16.8284 18.9852 17.5 18.3137 17.5 17.4852C17.5 16.6568 16.8284 15.9852 16 15.9852C15.1716 15.9852 14.5 16.6568 14.5 17.4852C14.5 18.3137 15.1716 18.9852 16 18.9852ZM21.5 18.9852C22.3284 18.9852 23 18.3137 23 17.4852C23 16.6568 22.3284 15.9852 21.5 15.9852C20.6716 15.9852 20 16.6568 20 17.4852C20 18.3137 20.6716 18.9852 21.5 18.9852ZM21.5 23.9852C22.3284 23.9852 23 23.3137 23 22.4852C23 21.6568 22.3284 20.9852 21.5 20.9852C20.6716 20.9852 20 21.6568 20 22.4852C20 23.3137 20.6716 23.9852 21.5 23.9852Z" fill="black"/>
</svg>
