<svg width="24" height="25" viewBox="0 0 24 25" fill="none" xmlns="http://www.w3.org/2000/svg">
<mask id="mask0_12_232" style="mask-type:luminance" maskUnits="userSpaceOnUse" x="0" y="0" width="24" height="25">
<path d="M24 0.737793H0V24.7378H24V0.737793Z" fill="white"/>
</mask>
<g mask="url(#mask0_12_232)">
<path d="M10.25 2.73779C8.45507 2.73779 7 4.19287 7 5.98779V6.23779H8.5V5.98779C8.5 5.02129 9.2835 4.23779 10.25 4.23779H18.75C19.7165 4.23779 20.5 5.02129 20.5 5.98779V14.1944L22 14.1829V5.98779C22 4.19287 20.5449 2.73779 18.75 2.73779H10.25Z" fill="black"/>
<path d="M17 10.9878V14.2213L16.2135 14.2273C15.9554 14.2293 15.7164 14.2764 15.5 14.3593V10.9878C15.5 10.0213 14.7165 9.23779 13.75 9.23779H5.25C4.2835 9.23779 3.5 10.0213 3.5 10.9878V19.4878C3.5 20.4543 4.2835 21.2378 5.25 21.2378H12.9284C13.0135 21.3697 13.1138 21.4946 13.2293 21.6101C13.353 21.7338 13.4875 21.8401 13.6297 21.9289C13.4249 22.1718 13.2796 22.4479 13.1939 22.7378H5.25C3.45507 22.7378 2 21.2827 2 19.4878V10.9878C2 9.19287 3.45507 7.73779 5.25 7.73779H13.75C15.5449 7.73779 17 9.19287 17 10.9878Z" fill="black"/>
<path d="M15.5 18.5626C15.318 18.5697 15.138 18.6427 14.999 18.7817L14.2919 19.4888C13.999 19.7817 13.999 20.2566 14.2919 20.5495C14.5848 20.8424 15.0597 20.8424 15.3526 20.5495L16.0597 19.8424C16.3526 19.5495 16.3526 19.0746 16.0597 18.7817C15.913 18.635 15.7206 18.5618 15.5283 18.562C15.5189 18.562 15.5094 18.5623 15.5 18.5626Z" fill="black"/>
<path d="M15.3571 22.3133L15.3526 22.3158L16.5781 21.0904L16.5755 21.0949L16.9444 20.726C17.2372 20.4331 17.7121 20.4331 18.005 20.726C18.2979 21.0189 18.2979 21.4938 18.005 21.7867L15.8837 23.908C15.5908 24.2009 15.1159 24.2009 14.823 23.908C14.5301 23.6151 14.5301 23.1402 14.823 22.8474L15.3571 22.3133Z" fill="black"/>
<path d="M17 17.7056L15.8753 16.5808C15.5616 16.2672 15.7814 15.7307 16.225 15.7273H16.2269L22.5476 15.6787C22.8268 15.6766 23.0536 15.9034 23.0515 16.1826L23.0029 22.5033C22.9995 22.9468 22.463 23.1666 22.1493 22.853L17 17.7036V17.7056Z" fill="black"/>
<path d="M19.9484 22.6708C20.2413 22.9637 20.2413 23.4385 19.9484 23.7314L19.2413 24.4385C18.9484 24.7314 18.4735 24.7314 18.1806 24.4385C17.8877 24.1456 17.8877 23.6708 18.1806 23.3779L18.8877 22.6708C19.1806 22.3779 19.6555 22.3779 19.9484 22.6708Z" fill="black"/>
</g>
</svg>
