<svg width="32" height="33" viewBox="0 0 32 33" fill="none" xmlns="http://www.w3.org/2000/svg">
<path d="M8 7.93756C8 7.10913 8.67157 6.43756 9.5 6.43756H21.5C22.3284 6.43756 23 7.10913 23 7.93756V10.9376C23 11.766 22.3284 12.4376 21.5 12.4376H9.5C8.67157 12.4376 8 11.766 8 10.9376V7.93756ZM10 8.43756V10.4376H21V8.43756H10ZM4 5.68756C4 3.89263 5.45508 2.43756 7.25 2.43756H23.75C25.5449 2.43756 27 3.89264 27 5.68756V27.1876C27 28.9825 25.5449 30.4376 23.75 30.4376H7.25C5.45507 30.4376 4 28.9825 4 27.1876V5.68756ZM7.25 4.43756C6.55964 4.43756 6 4.9972 6 5.68756V27.1876C6 27.8779 6.55964 28.4376 7.25 28.4376H23.75C24.4404 28.4376 25 27.8779 25 27.1876V5.68756C25 4.99721 24.4404 4.43756 23.75 4.43756H7.25ZM29.25 8.43756H28V12.4376H29.25C29.6642 12.4376 30 12.1018 30 11.6876V9.18756C30 8.77335 29.6642 8.43756 29.25 8.43756ZM28 14.4376H29.25C29.6642 14.4376 30 14.7733 30 15.1876V17.6876C30 18.1018 29.6642 18.4376 29.25 18.4376H28V14.4376ZM29.25 20.4376H28V24.4376H29.25C29.6642 24.4376 30 24.1018 30 23.6876V21.1876C30 20.7733 29.6642 20.4376 29.25 20.4376Z" fill="black"/>
</svg>
