<svg width="32" height="33" viewBox="0 0 32 33" fill="none" xmlns="http://www.w3.org/2000/svg">
<path d="M11.399 10.8051C10.4385 11.979 10 13.4969 10 14.7969C10 15.3492 9.55228 15.7969 9 15.7969C5.37634 15.7969 4 18.3252 4 19.7969C4 20.6516 4.21608 21.6324 4.87758 22.3884C5.51523 23.1171 6.70748 23.7969 9 23.7969H12.9309L12.9374 23.8099C12.5879 24.4101 12.4573 25.1123 12.5665 25.7969H9C6.29252 25.7969 4.48477 24.9766 3.37242 23.7054C2.28392 22.4614 2 20.9421 2 19.7969C2 17.4413 3.93089 14.2668 8.05688 13.8441C8.22868 12.3883 8.79636 10.8277 9.85104 9.53864C11.1661 7.93132 13.2003 6.79688 16 6.79688C17.7001 6.79688 19.6821 7.35837 21.2582 8.64792C22.6793 9.81057 23.7307 11.5353 23.9553 13.8541C25.333 14.0192 26.6687 14.5372 27.7362 15.3616C28.7213 16.1223 29.4916 17.1588 29.823 18.4143C29.3025 18.0161 28.6626 17.7969 28 17.7969C27.7947 17.7969 27.5916 17.8179 27.3935 17.8588C27.1587 17.5194 26.8619 17.2134 26.5138 16.9446C25.5771 16.2212 24.2961 15.7969 23 15.7969C22.4477 15.7969 22 15.3492 22 14.7969C22 12.5966 21.1344 11.1308 19.9918 10.1958C18.8179 9.23538 17.2999 8.79688 16 8.79688C13.7997 8.79688 12.3339 9.66243 11.399 10.8051Z" fill="black"/>
<path d="M19.141 20.4296C18.5362 19.9647 17.7802 19.744 17.0228 19.8076C16.7474 19.7908 16.4709 19.8225 16.206 19.9015C15.9023 19.992 15.6199 20.143 15.3759 20.3454C15.1319 20.5478 14.9313 20.7975 14.7864 21.0798C14.6416 21.362 14.5555 21.6707 14.5337 21.9873L14.5313 22.0217V22.0562C14.5313 22.9625 15.1114 23.5097 15.5788 23.793C16.0069 24.0525 16.489 24.1873 16.7273 24.2539L16.7607 24.2632C16.7952 24.2729 16.8276 24.2819 16.8588 24.2905C16.9605 24.3186 17.0483 24.3428 17.1453 24.3756C17.2666 24.4164 17.3566 24.4565 17.4204 24.4952C17.4512 24.5139 17.4692 24.5283 17.4789 24.537L17.479 24.545C17.479 24.6551 17.4608 24.7024 17.4564 24.7122L17.4548 24.7134C17.4426 24.7216 17.4052 24.7425 17.3269 24.7606C17.2489 24.7786 17.1493 24.7894 17.0314 24.7894H16.9888L16.9464 24.793C16.6628 24.8172 16.3816 24.7303 16.1623 24.552C15.7339 24.2034 15.1041 24.2682 14.7555 24.6967C14.407 25.1251 14.4718 25.7549 14.9002 26.1034C15.5111 26.6004 16.2886 26.845 17.073 26.7892C17.5066 26.7845 18.0816 26.7055 18.5788 26.3676C19.1586 25.9737 19.479 25.3345 19.479 24.545C19.479 23.6493 18.96 23.0902 18.4585 22.7857C18.059 22.5431 17.5976 22.4182 17.3703 22.3566C17.3444 22.3496 17.3215 22.3433 17.3021 22.3379C17.0348 22.2627 16.7935 22.1905 16.6154 22.0826C16.5851 22.0642 16.563 22.0484 16.5473 22.0359C16.5524 22.0213 16.5586 22.0069 16.5657 21.993C16.5869 21.9517 16.6165 21.9148 16.6528 21.8847C16.6891 21.8545 16.7315 21.8318 16.7774 21.8181C16.8234 21.8044 16.8717 21.8001 16.9195 21.8055L17.0355 21.8185L17.1514 21.8045C17.4267 21.7713 17.7036 21.8473 17.9221 22.0153C18.36 22.3518 18.9878 22.2697 19.3244 21.8318C19.6609 21.394 19.5788 20.7662 19.141 20.4296Z" fill="black"/>
<path d="M23 19.7969C22.2244 19.7969 21.4687 20.0851 20.9018 20.6165C20.3328 21.15 20 21.8878 20 22.6719V23.9219C20 24.706 20.3328 25.4438 20.9018 25.9772C21.4687 26.5086 22.2244 26.7969 23 26.7969C23.5772 26.7969 24.1434 26.6372 24.629 26.3365L24.9764 26.597C25.4182 26.9284 26.045 26.8389 26.3764 26.397C26.7077 25.9552 26.6182 25.3284 26.1764 24.997L25.868 24.7658C25.9544 24.4962 26 24.2122 26 23.9219V22.6719C26 21.8878 25.6672 21.15 25.0982 20.6165C24.5313 20.0851 23.7756 19.7969 23 19.7969ZM22.7762 23.6969C22.5394 24.0127 22.5176 24.4228 22.6856 24.7522C22.5257 24.7055 22.3828 24.6242 22.2697 24.5182C22.0886 24.3484 22 24.1324 22 23.9219V22.6719C22 22.4614 22.0886 22.2454 22.2697 22.0756C22.453 21.9037 22.7147 21.7969 23 21.7969C23.2853 21.7969 23.547 21.9037 23.7303 22.0756C23.9114 22.2454 24 22.4614 24 22.6719V23.3909C23.58 23.194 23.0655 23.3112 22.7762 23.6969Z" fill="black"/>
<path d="M28 19.7969C28.5523 19.7969 29 20.2446 29 20.7969V24.7913L31.0028 24.7969C31.5551 24.7984 32.0015 25.2474 32 25.7997C31.9985 26.352 31.5495 26.7984 30.9972 26.7969L27.9972 26.7885C27.446 26.7869 27 26.3397 27 25.7885V20.7969C27 20.2446 27.4477 19.7969 28 19.7969Z" fill="black"/>
</svg>
