<svg width="32" height="32" viewBox="0 0 32 32" fill="none" xmlns="http://www.w3.org/2000/svg">
<path d="M27 7C27 4.23858 22.0751 2 16 2C9.92487 2 5 4.23858 5 7V25C5 27.7614 9.92487 30 16 30C16.8332 30 17.6448 29.9579 18.425 29.8781C17.8648 29.7658 17.3304 29.4925 16.896 29.0581C16.5852 28.7473 16.3568 28.3852 16.2109 27.999C16.1408 27.9997 16.0705 28 16 28C13.1807 28 10.7252 27.4765 9.04943 26.7148C7.19311 25.871 7 25.1142 7 25V9.87553C8.99074 11.1605 12.2797 12 16 12C19.7203 12 23.0093 11.1605 25 9.87553V14.9962L27 14.9963V7ZM25 7C25 7.11415 24.8069 7.87102 22.9506 8.7148C21.2748 9.47652 18.8193 10 16 10C13.1807 10 10.7252 9.47652 9.04943 8.7148C7.19311 7.87102 7 7.11415 7 7C7 6.88585 7.19311 6.12898 9.04943 5.2852C10.7252 4.52348 13.1807 4 16 4C18.8193 4 21.2748 4.52348 22.9506 5.2852C24.8069 6.12898 25 6.88585 25 7Z" fill="black"/>
<path d="M20.1255 17H28.1791C28.3927 17 28.5975 17.0849 28.7486 17.2359C28.8996 17.3869 28.9845 17.5918 28.9845 17.8054V25.859C28.9844 26.0181 28.9372 26.1737 28.8488 26.3061C28.7604 26.4384 28.6348 26.5416 28.4878 26.6026C28.3408 26.6637 28.179 26.6797 28.0229 26.6489C27.8667 26.618 27.7232 26.5415 27.6105 26.4292L19.5569 18.3756C19.4441 18.263 19.3672 18.1195 19.3359 17.9633C19.3047 17.807 19.3205 17.645 19.3814 17.4977C19.4423 17.3504 19.5455 17.2245 19.6779 17.1359C19.8104 17.0473 19.9661 17 20.1255 17Z" fill="black"/>
<path d="M19.3712 23.048L20.0783 22.3409C20.4688 21.9504 20.4688 21.3172 20.0783 20.9267C19.6878 20.5362 19.0546 20.5362 18.6641 20.9267L17.957 21.6338C17.5664 22.0243 17.5664 22.6575 17.957 23.048C18.3475 23.4385 18.9806 23.4385 19.3712 23.048Z" fill="black"/>
<path d="M22.5529 23.4013C22.9434 23.7918 22.9434 24.425 22.5529 24.8155L19.7245 27.6439C19.3339 28.0345 18.7008 28.0345 18.3102 27.6439C17.9197 27.2534 17.9197 26.6202 18.3102 26.2297L21.1387 23.4013C21.5292 23.0108 22.1624 23.0108 22.5529 23.4013Z" fill="black"/>
<path d="M25.0275 25.8764C24.637 25.4859 24.0038 25.4859 23.6133 25.8764L22.9062 26.5835C22.5157 26.974 22.5157 27.6072 22.9062 27.9977C23.2967 28.3882 23.9299 28.3882 24.3204 27.9977L25.0275 27.2906C25.418 26.9001 25.418 26.2669 25.0275 25.8764Z" fill="black"/>
</svg>
