<svg width="32" height="33" viewBox="0 0 32 33" fill="none" xmlns="http://www.w3.org/2000/svg">
<path d="M7.5 3.51562C5.01472 3.51562 3 5.53034 3 8.01562V25.0156C3 27.5009 5.01472 29.5156 7.5 29.5156H17.2103C16.8328 28.891 16.6092 28.2101 16.5313 27.5156H7.5C6.11929 27.5156 5 26.3963 5 25.0156V8.01562C5 6.63491 6.11929 5.51562 7.5 5.51562H24.5C25.8807 5.51562 27 6.63491 27 8.01562V15.5153C28.2144 16.4275 29 17.8798 29 19.5156V8.01562C29 5.53034 26.9853 3.51562 24.5 3.51562H7.5Z" fill="black"/>
<path d="M12 13.0156C12 13.8441 11.3284 14.5156 10.5 14.5156C9.67157 14.5156 9 13.8441 9 13.0156C9 12.1872 9.67157 11.5156 10.5 11.5156C11.3284 11.5156 12 12.1872 12 13.0156Z" fill="black"/>
<path d="M12 19.0156C12 19.8441 11.3284 20.5156 10.5 20.5156C9.67157 20.5156 9 19.8441 9 19.0156C9 18.1872 9.67157 17.5156 10.5 17.5156C11.3284 17.5156 12 18.1872 12 19.0156Z" fill="black"/>
<path d="M17.5 19.0156C17.5 19.8441 16.8284 20.5156 16 20.5156C15.1716 20.5156 14.5 19.8441 14.5 19.0156C14.5 18.1872 15.1716 17.5156 16 17.5156C16.8284 17.5156 17.5 18.1872 17.5 19.0156Z" fill="black"/>
<path d="M17.5 13.0156C17.5 13.8441 16.8284 14.5156 16 14.5156C15.1716 14.5156 14.5 13.8441 14.5 13.0156C14.5 12.1872 15.1716 11.5156 16 11.5156C16.8284 11.5156 17.5 12.1872 17.5 13.0156Z" fill="black"/>
<path d="M23 13.0156C23 13.8441 22.3284 14.5156 21.5 14.5156C20.6716 14.5156 20 13.8441 20 13.0156C20 12.1872 20.6716 11.5156 21.5 11.5156C22.3284 11.5156 23 12.1872 23 13.0156Z" fill="black"/>
<path d="M27.5 19.5156C27.5 21.4486 25.933 23.0156 24 23.0156C22.067 23.0156 20.5 21.4486 20.5 19.5156C20.5 17.5826 22.067 16.0156 24 16.0156C25.933 16.0156 27.5 17.5826 27.5 19.5156Z" fill="black"/>
<path d="M30 26.9531C30 28.9766 28.2857 31.0156 24 31.0156C19.7143 31.0157 18 28.9842 18 26.9531C18 25.6181 19.0823 24.5156 20.4174 24.5156H27.5826C28.9177 24.5156 30 25.6181 30 26.9531Z" fill="black"/>
</svg>
