<svg width="32" height="33" viewBox="0 0 32 33" fill="none" xmlns="http://www.w3.org/2000/svg">
<path d="M24.8079 3.45386C23.5387 2.18465 21.4809 2.18465 20.2117 3.45386L16.999 6.66657C16.9547 4.91019 15.517 3.49997 13.75 3.49997H6.25C4.45507 3.49997 3 4.95504 3 6.74997V26.25C3 28.0449 4.45507 29.5 6.25 29.5L25.75 29.5C27.5449 29.5 29 28.0449 29 26.25V18.75C29 16.9858 27.5944 15.5499 25.842 15.5012L29.0505 12.2927C30.3197 11.0235 30.3197 8.9657 29.0505 7.6965L24.8079 3.45386ZM19.1763 15.5H17V13.3237L19.1763 15.5ZM21.6259 4.86807C22.114 4.37991 22.9055 4.37991 23.3936 4.86807L27.6363 9.11071C28.1244 9.59887 28.1244 10.3903 27.6363 10.8785L23.3936 15.1211C22.9055 15.6093 22.114 15.6093 21.6259 15.1211L17.3832 10.8785C16.8951 10.3903 16.8951 9.59887 17.3832 9.11071L21.6259 4.86807ZM15 6.74997V15.5H5V6.74997C5 6.05961 5.55964 5.49997 6.25 5.49997H13.75C14.4404 5.49997 15 6.05961 15 6.74997ZM5 26.25V17.5H15V27.5H6.25C5.55964 27.5 5 26.9403 5 26.25ZM17 17.5H25.75C26.4404 17.5 27 18.0596 27 18.75V26.25C27 26.9403 26.4404 27.5 25.75 27.5H17V17.5Z" fill="black"/>
</svg>
