<svg width="32" height="33" viewBox="0 0 32 33" fill="none" xmlns="http://www.w3.org/2000/svg">
<path d="M6.77106 5.16692C7.15103 4.72363 7.70573 4.46851 8.28958 4.46851H24.3697C24.9536 4.46851 25.5083 4.72363 25.8882 5.16692L30.1739 10.1669C31.2859 11.4643 30.3641 13.4685 28.6554 13.4685H28.3301V17.7346C27.785 17.5617 27.2048 17.4685 26.6028 17.4685H26.3301V13.4685H6.33008V24.9685C6.33008 25.7969 7.00165 26.4685 7.83008 26.4685H15.332C15.9257 27.3369 16.7508 28.0334 17.7179 28.4685H7.83008C5.89708 28.4685 4.33008 26.9015 4.33008 24.9685V13.4685H4.00386C2.29516 13.4685 1.37334 11.4643 2.48535 10.1669L6.77106 5.16692ZM24.3697 6.46851H8.28958L4.00386 11.4685L28.6554 11.4685L24.3697 6.46851Z" fill="black"/>
<path d="M17.4304 18.1077C16.3788 18.6536 15.5172 19.5171 14.9716 20.5718C14.7268 20.2707 14.5801 19.8867 14.5801 19.4685C14.5801 18.502 15.3636 17.7185 16.3301 17.7185C16.747 17.7185 17.1298 17.8643 17.4304 18.1077Z" fill="black"/>
<path d="M12.8301 19.4685C12.8301 20.435 12.0466 21.2185 11.0801 21.2185C10.1136 21.2185 9.33008 20.435 9.33008 19.4685C9.33008 18.502 10.1136 17.7185 11.0801 17.7185C12.0466 17.7185 12.8301 18.502 12.8301 19.4685Z" fill="black"/>
<path d="M15.8301 23.2185C15.8301 20.8713 17.7329 18.9685 20.0801 18.9685H21.0801C21.4943 18.9685 21.8301 19.3043 21.8301 19.7185C21.8301 20.1327 21.4943 20.4685 21.0801 20.4685H20.0801C18.5613 20.4685 17.3301 21.6997 17.3301 23.2185C17.3301 24.7373 18.5613 25.9685 20.0801 25.9685H21.0801C21.4943 25.9685 21.8301 26.3043 21.8301 26.7185C21.8301 27.1327 21.4943 27.4685 21.0801 27.4685H20.0801C17.7329 27.4685 15.8301 25.5657 15.8301 23.2185Z" fill="black"/>
<path d="M30.8301 23.2185C30.8301 20.8713 28.9273 18.9685 26.5801 18.9685H25.0801C24.6659 18.9685 24.3301 19.3043 24.3301 19.7185C24.3301 20.1327 24.6659 20.4685 25.0801 20.4685H26.5801C28.0989 20.4685 29.3301 21.6997 29.3301 23.2185C29.3301 24.7373 28.0989 25.9685 26.5801 25.9685H25.0801C24.6659 25.9685 24.3301 26.3043 24.3301 26.7185C24.3301 27.1327 24.6659 27.4685 25.0801 27.4685H26.5801C28.9273 27.4685 30.8301 25.5657 30.8301 23.2185Z" fill="black"/>
<path d="M19.8301 23.2185C19.8301 22.8043 20.1659 22.4685 20.5801 22.4685H26.0801C26.4943 22.4685 26.8301 22.8043 26.8301 23.2185C26.8301 23.6327 26.4943 23.9685 26.0801 23.9685H20.5801C20.1659 23.9685 19.8301 23.6327 19.8301 23.2185Z" fill="black"/>
</svg>
