<svg width="32" height="33" viewBox="0 0 32 33" fill="none" xmlns="http://www.w3.org/2000/svg">
<path d="M9.39369 10.2218C8.88606 10.0042 8.29818 10.2394 8.08062 10.747C7.86307 11.2547 8.09822 11.8425 8.60585 12.0601L14.9998 14.8003V21.1409C14.9998 21.6932 15.4475 22.1409 15.9998 22.1409C16.5521 22.1409 16.9998 21.6932 16.9998 21.1409V14.8003L23.3937 12.0601C23.9013 11.8425 24.1365 11.2547 23.9189 10.747C23.7014 10.2394 23.1135 10.0042 22.6059 10.2218L15.9998 13.053L9.39369 10.2218ZM18.1539 2.89803C16.7675 2.3648 15.2325 2.3648 13.8461 2.89803L3.92306 6.7146C2.76449 7.1602 2 8.27332 2 9.51463V22.7674C2 24.0088 2.76449 25.1219 3.92306 25.5675L13.8461 29.384C15.2325 29.9173 16.7675 29.9173 18.1539 29.384L28.0769 25.5675C29.2355 25.1219 30 24.0088 30 22.7674V9.51463C30 8.27332 29.2355 7.1602 28.0769 6.7146L18.1539 2.89803ZM14.5641 4.76473C15.4884 4.40924 16.5116 4.40924 17.4359 4.76473L27.359 8.58129C27.7452 8.72982 28 9.10086 28 9.51463V22.7674C28 23.1812 27.7452 23.5522 27.359 23.7008L17.4359 27.5173C16.5116 27.8728 15.4884 27.8728 14.5641 27.5173L4.64102 23.7008C4.25483 23.5522 4 23.1812 4 22.7674V9.51463C4 9.10086 4.25483 8.72982 4.64102 8.58129L14.5641 4.76473Z" fill="black"/>
</svg>
