<svg width="32" height="33" viewBox="0 0 32 33" fill="none" xmlns="http://www.w3.org/2000/svg">
<path d="M12.626 4.39002C13.397 3.66174 14.603 3.66174 15.374 4.39002L25.061 13.5403C25.6604 14.1064 26 14.8941 26 15.7182V18.6062C25.799 18.4264 25.574 18.274 25.3307 18.1538C24.917 17.9492 24.4615 17.8432 24 17.8438V15.7182C24 15.4435 23.8868 15.181 23.687 14.9922L14 5.84198L4.31299 14.9922C4.1132 15.181 4 15.4435 4 15.7182V26.8466C4 27.3983 4.44772 27.8456 5 27.8456H8.7623C8.27267 28.3939 8 29.1048 8 29.8438L5 29.8438C3.34314 29.8438 2 28.5019 2 26.8466V15.7182C2 14.8941 2.33961 14.1064 2.93896 13.5403L12.626 4.39002Z" fill="black"/>
<path d="M29 22.8437C28.3979 22.8773 27.7952 22.7876 27.2289 22.58C26.6627 22.3725 26.1448 22.0515 25.707 21.6367C25.4658 21.3964 25.2591 21.1238 25.093 20.8267C25.0526 20.7506 25.0163 20.6725 24.984 20.5927C24.9493 20.5059 24.9092 20.4214 24.864 20.3397C24.8437 20.305 24.8214 20.2716 24.797 20.2397C24.6719 20.0753 24.499 19.9537 24.3021 19.8916C24.1051 19.8295 23.8937 19.8298 23.697 19.8927H23.687C23.4566 19.9709 23.2618 20.1292 23.138 20.3387C23.0861 20.4353 23.0413 20.5355 23.004 20.6387L22.9935 20.6648C22.9661 20.7332 22.9386 20.8019 22.904 20.8667C22.7541 21.166 22.5709 21.4474 22.358 21.7057C22.0765 22.0611 21.7182 22.3482 21.3101 22.5455C20.9019 22.7429 20.4544 22.8454 20.001 22.8454C19.5476 22.8454 19.1001 22.7429 18.6919 22.5455C18.2838 22.3482 17.9255 22.0611 17.644 21.7057C17.4311 21.4474 17.2479 21.166 17.098 20.8667C17.0711 20.8136 17.0479 20.7579 17.0246 20.7019C17.0158 20.6808 17.007 20.6597 16.998 20.6387C16.9607 20.5355 16.9159 20.4353 16.864 20.3387C16.7402 20.1292 16.5454 19.9709 16.315 19.8927H16.305C16.1083 19.8298 15.8969 19.8295 15.6999 19.8916C15.503 19.9537 15.3301 20.0753 15.205 20.2397C15.1806 20.2716 15.1583 20.305 15.138 20.3397C15.0928 20.4214 15.0527 20.5059 15.018 20.5927C14.9857 20.6725 14.9494 20.7506 14.909 20.8267C14.7429 21.1238 14.5362 21.3964 14.295 21.6367C13.857 22.0517 13.3387 22.3729 12.7721 22.5804C12.2055 22.788 11.6025 22.8776 11 22.8437C10.7348 22.8437 10.4804 22.949 10.2929 23.1366C10.1054 23.3241 10 23.5785 10 23.8437C10 24.1089 10.1054 24.3632 10.2929 24.5508C10.4804 24.7383 10.7348 24.8437 11 24.8437C11.865 24.8779 12.7279 24.7367 13.5369 24.4286C14.3458 24.1204 15.084 23.6517 15.707 23.0507C15.794 22.9637 15.876 22.8767 15.952 22.7897C16.001 22.8547 16.052 22.9187 16.107 22.9837C16.5756 23.5651 17.1686 24.0342 17.8422 24.3565C18.5159 24.6788 19.2532 24.8461 20 24.8461C20.7468 24.8461 21.4841 24.6788 22.1578 24.3565C22.8314 24.0342 23.4244 23.5651 23.893 22.9837C23.947 22.9187 23.999 22.8547 24.048 22.7897C24.124 22.8767 24.206 22.9637 24.293 23.0507C24.916 23.6517 25.6542 24.1204 26.4631 24.4286C27.2721 24.7367 28.135 24.8779 29 24.8437C29.2652 24.8437 29.5196 24.7383 29.7071 24.5508C29.8946 24.3632 30 24.1089 30 23.8437C30 23.5785 29.8946 23.3241 29.7071 23.1366C29.5196 22.949 29.2652 22.8437 29 22.8437Z" fill="black"/>
<path d="M29 28.8437C28.3979 28.8773 27.7952 28.7876 27.2289 28.58C26.6627 28.3725 26.1448 28.0515 25.707 27.6367C25.4658 27.3964 25.2591 27.1238 25.093 26.8267C25.0526 26.7506 25.0163 26.6725 24.984 26.5927C24.9493 26.5059 24.9092 26.4214 24.864 26.3397C24.8437 26.305 24.8214 26.2716 24.797 26.2397C24.6719 26.0753 24.499 25.9537 24.3021 25.8916C24.1051 25.8295 23.8937 25.8298 23.697 25.8927H23.687C23.4566 25.9709 23.2618 26.1292 23.138 26.3387C23.0861 26.4353 23.0413 26.5355 23.004 26.6387L22.9935 26.6648C22.9661 26.7332 22.9386 26.8019 22.904 26.8667C22.7541 27.166 22.5709 27.4474 22.358 27.7057C22.0765 28.0611 21.7182 28.3482 21.3101 28.5455C20.9019 28.7429 20.4544 28.8454 20.001 28.8454C19.5476 28.8454 19.1001 28.7429 18.6919 28.5455C18.2838 28.3482 17.9255 28.0611 17.644 27.7057C17.4311 27.4474 17.2479 27.166 17.098 26.8667C17.0711 26.8136 17.0479 26.7579 17.0246 26.7019C17.0158 26.6808 17.007 26.6597 16.998 26.6387C16.9607 26.5355 16.9159 26.4353 16.864 26.3387C16.7402 26.1292 16.5454 25.9709 16.315 25.8927H16.305C16.1083 25.8298 15.8969 25.8295 15.6999 25.8916C15.503 25.9537 15.3301 26.0753 15.205 26.2397C15.1806 26.2716 15.1583 26.305 15.138 26.3397C15.0928 26.4214 15.0527 26.5059 15.018 26.5927C14.9857 26.6725 14.9494 26.7506 14.909 26.8267C14.7429 27.1238 14.5362 27.3964 14.295 27.6367C13.857 28.0517 13.3387 28.3729 12.7721 28.5804C12.2055 28.788 11.6025 28.8776 11 28.8437C10.7348 28.8437 10.4804 28.949 10.2929 29.1366C10.1054 29.3241 10 29.5785 10 29.8437C10 30.1089 10.1054 30.3632 10.2929 30.5508C10.4804 30.7383 10.7348 30.8437 11 30.8437C11.865 30.8779 12.7279 30.7367 13.5369 30.4286C14.3458 30.1204 15.084 29.6517 15.707 29.0507C15.794 28.9637 15.876 28.8767 15.952 28.7897C16.001 28.8547 16.052 28.9187 16.107 28.9837C16.5756 29.5651 17.1686 30.0342 17.8422 30.3565C18.5159 30.6788 19.2532 30.8461 20 30.8461C20.7468 30.8461 21.4841 30.6788 22.1578 30.3565C22.8314 30.0342 23.4244 29.5651 23.893 28.9837C23.947 28.9187 23.999 28.8547 24.048 28.7897C24.124 28.8767 24.206 28.9637 24.293 29.0507C24.916 29.6517 25.6542 30.1204 26.4631 30.4286C27.2721 30.7367 28.135 30.8779 29 30.8437C29.2652 30.8437 29.5196 30.7383 29.7071 30.5508C29.8946 30.3632 30 30.1089 30 29.8437C30 29.5785 29.8946 29.3241 29.7071 29.1366C29.5196 28.949 29.2652 28.8437 29 28.8437Z" fill="black"/>
</svg>
