<svg width="32" height="33" viewBox="0 0 32 33" fill="none" xmlns="http://www.w3.org/2000/svg">
<path d="M16 6.625C6 6.625 0 16.625 0 16.625C0 16.625 6 26.625 16 26.625C26 26.625 32 16.625 32 16.625C32 16.625 26 6.625 16 6.625ZM20.16 9.327C18.5312 9.42276 16.9433 9.87528 15.5087 10.6525C14.0741 11.4298 12.8278 12.5128 11.858 13.825V13.839C11.4522 14.4283 11.1826 15.1005 11.0688 15.8069C10.955 16.5132 10.9998 17.2361 11.2 17.923C9.22904 16.4111 7.74168 14.3572 6.92 12.013C9.48409 9.90258 12.6802 8.71004 16 8.625C17.4156 8.63093 18.8208 8.86806 20.16 9.327ZM13 16.625C13 16.0317 13.1759 15.4516 13.5056 14.9583C13.8352 14.4649 14.3038 14.0804 14.8519 13.8534C15.4001 13.6263 16.0033 13.5669 16.5853 13.6826C17.1672 13.7984 17.7018 14.0841 18.1213 14.5037C18.5409 14.9232 18.8266 15.4578 18.9424 16.0397C19.0581 16.6217 18.9987 17.2249 18.7716 17.7731C18.5446 18.3212 18.1601 18.7898 17.6667 19.1194C17.1734 19.4491 16.5933 19.625 16 19.625C15.2044 19.625 14.4413 19.3089 13.8787 18.7463C13.3161 18.1837 13 17.4206 13 16.625ZM2.426 16.625C3.29631 15.457 4.26809 14.3681 5.33 13.371C8.698 21.193 14.778 21.625 16 21.625C17.3261 21.625 18.5979 21.0982 19.5355 20.1605C20.4732 19.2229 21 17.9511 21 16.625C21 16.547 20.98 16.475 20.978 16.399C22.3836 18.0619 23.3241 20.0671 23.704 22.211C21.4237 23.7441 18.7475 24.5827 16 24.625C9.082 24.625 4.18 18.993 2.426 16.625ZM25.46 20.939C25.0707 18.8732 24.1408 16.9475 22.765 15.3581C21.3892 13.7687 19.6167 12.5723 17.628 11.891C19.8343 11.1507 22.2027 11.0364 24.47 11.561C26.4183 12.9804 28.1393 14.6879 29.574 16.625C28.3843 18.2258 27.0026 19.6747 25.46 20.939Z" fill="black"/>
</svg>
