<svg width="32" height="33" viewBox="0 0 32 33" fill="none" xmlns="http://www.w3.org/2000/svg">
<path d="M10 12.0719C12.2822 11.6086 14 9.59083 14 7.17188C14 4.41045 11.7614 2.17188 9 2.17188C6.23858 2.17188 4 4.41045 4 7.17188C4 9.59083 5.71776 11.6086 8 12.0719L8 20.2719C5.71776 20.7352 4 22.7529 4 25.1719C4 27.9333 6.23858 30.1719 9 30.1719C11.7614 30.1719 14 27.9333 14 25.1719C14 22.7529 12.2822 20.7352 10 20.2719V18.1719H16.4987C17.418 17.5409 18.5297 17.1719 19.7273 17.1719H22.0005C23.2147 16.2596 24 14.8075 24 13.1719V12.0719C26.2822 11.6086 28 9.59083 28 7.17188C28 4.41045 25.7614 2.17188 23 2.17188C20.2386 2.17188 18 4.41045 18 7.17188C18 9.59083 19.7178 11.6086 22 12.0719V13.1719C22 14.8287 20.6569 16.1719 19 16.1719H10V12.0719ZM9 10.1719C7.34315 10.1719 6 8.82873 6 7.17188C6 5.51502 7.34315 4.17188 9 4.17188C10.6569 4.17188 12 5.51502 12 7.17188C12 8.82873 10.6569 10.1719 9 10.1719ZM23 10.1719C21.3431 10.1719 20 8.82873 20 7.17188C20 5.51502 21.3431 4.17188 23 4.17188C24.6569 4.17188 26 5.51502 26 7.17188C26 8.82873 24.6569 10.1719 23 10.1719ZM12 25.1719C12 26.8287 10.6569 28.1719 9 28.1719C7.34315 28.1719 6 26.8287 6 25.1719C6 23.515 7.34315 22.1719 9 22.1719C10.6569 22.1719 12 23.515 12 25.1719Z" fill="black"/>
<path d="M15.5 22.9219C15.5 20.5747 17.4028 18.6719 19.75 18.6719H20.75C21.1642 18.6719 21.5 19.0077 21.5 19.4219C21.5 19.8361 21.1642 20.1719 20.75 20.1719H19.75C18.2312 20.1719 17 21.4031 17 22.9219C17 24.4407 18.2312 25.6719 19.75 25.6719H20.75C21.1642 25.6719 21.5 26.0077 21.5 26.4219C21.5 26.8361 21.1642 27.1719 20.75 27.1719H19.75C17.4028 27.1719 15.5 25.2691 15.5 22.9219Z" fill="black"/>
<path d="M30.5 22.9219C30.5 20.5747 28.5972 18.6719 26.25 18.6719H24.75C24.3358 18.6719 24 19.0077 24 19.4219C24 19.8361 24.3358 20.1719 24.75 20.1719H26.25C27.7688 20.1719 29 21.4031 29 22.9219C29 24.4407 27.7688 25.6719 26.25 25.6719H24.75C24.3358 25.6719 24 26.0077 24 26.4219C24 26.8361 24.3358 27.1719 24.75 27.1719H26.25C28.5972 27.1719 30.5 25.2691 30.5 22.9219Z" fill="black"/>
<path d="M19.5 22.9219C19.5 22.5077 19.8358 22.1719 20.25 22.1719H25.75C26.1642 22.1719 26.5 22.5077 26.5 22.9219C26.5 23.3361 26.1642 23.6719 25.75 23.6719H20.25C19.8358 23.6719 19.5 23.3361 19.5 22.9219Z" fill="black"/>
</svg>
