<svg width="32" height="33" viewBox="0 0 32 33" fill="none" xmlns="http://www.w3.org/2000/svg">
<path d="M2 9.32812C2 7.67127 3.34315 6.32812 5 6.32812C6.65685 6.32812 8 7.67127 8 9.32813L24 9.32812C24 7.67127 25.3431 6.32812 27 6.32812C28.6569 6.32812 30 7.67127 30 9.32813V23.3281C30 24.985 28.6569 26.3281 27 26.3281C25.3431 26.3281 24 24.985 24 23.3281H8C8 24.985 6.65685 26.3281 5 26.3281C3.34315 26.3281 2 24.985 2 23.3281V9.32812ZM6 9.32813C6 8.77584 5.55228 8.32812 5 8.32812C4.44771 8.32812 4 8.77584 4 9.32812V23.3281C4 23.8804 4.44772 24.3281 5 24.3281C5.55229 24.3281 6 23.8804 6 23.3281V9.32813ZM8 21.3281L24 21.3281V11.3281L8 11.3281V21.3281ZM28 9.32813C28 8.77584 27.5523 8.32812 27 8.32812C26.4477 8.32812 26 8.77584 26 9.32812V23.3281C26 23.8804 26.4477 24.3281 27 24.3281C27.5523 24.3281 28 23.8804 28 23.3281V9.32813Z" fill="black"/>
</svg>
