<svg width="32" height="33" viewBox="0 0 32 33" fill="none" xmlns="http://www.w3.org/2000/svg">
<path d="M19.9976 5.35944V13.7976C19.9976 14.6112 20.2457 15.4054 20.7088 16.0744L26.4189 24.3223C27.8928 26.4512 26.3691 29.3594 23.7797 29.3594H8.21555C5.62616 29.3594 4.1024 26.4513 5.57631 24.3223L11.2864 16.0744C11.7495 15.4054 11.9976 14.6112 11.9976 13.7976V5.35944H10.998C10.4458 5.35944 9.99805 4.91172 9.99805 4.35944C9.99805 3.80715 10.4458 3.35944 10.998 3.35944H20.998C21.5503 3.35944 21.998 3.80715 21.998 4.35944C21.998 4.91172 21.5503 5.35944 20.998 5.35944H19.9976ZM13.9976 13.7976C13.9976 15.018 13.6254 16.2094 12.9308 17.2128L12.1369 18.3594H19.8583L19.0645 17.2128C18.3698 16.2094 17.9976 15.018 17.9976 13.7976V5.35944H13.9976V13.7976ZM10.7704 20.3334L7.22069 25.4607C6.66511 26.2632 7.23948 27.3594 8.21555 27.3594H23.7797C24.7557 27.3594 25.3301 26.2632 24.7745 25.4607L21.225 20.3336C21.1521 20.3505 21.0761 20.3594 20.998 20.3594H10.998C10.9197 20.3594 10.8435 20.3504 10.7704 20.3334Z" fill="black"/>
</svg>
