<svg width="32" height="33" viewBox="0 0 32 33" fill="none" xmlns="http://www.w3.org/2000/svg">
<path d="M10 12.0094C12.2822 11.5461 14 9.52833 14 7.10938C14 4.34795 11.7614 2.10938 9 2.10938C6.23858 2.10938 4 4.34795 4 7.10938C4 9.52833 5.71776 11.5461 8 12.0094L8 20.2094C5.71776 20.6727 4 22.6904 4 25.1094C4 27.8708 6.23858 30.1094 9 30.1094C11.7614 30.1094 14 27.8708 14 25.1094C14 22.6904 12.2822 20.6727 10 20.2094V18.1094H15.399C15.2156 17.7917 15.0911 17.4415 15.0336 17.0757C14.9829 16.7538 14.9853 16.4275 15.0391 16.1094H10V12.0094ZM9 10.1094C7.34315 10.1094 6 8.76623 6 7.10938C6 5.45252 7.34315 4.10938 9 4.10938C10.6569 4.10938 12 5.45252 12 7.10938C12 8.76623 10.6569 10.1094 9 10.1094ZM12 25.1094C12 26.7662 10.6569 28.1094 9 28.1094C7.34315 28.1094 6 26.7662 6 25.1094C6 23.4525 7.34315 22.1094 9 22.1094C10.6569 22.1094 12 23.4525 12 25.1094Z" fill="black"/>
<path d="M24 13.1094C24 13.6842 23.903 14.2364 23.7245 14.7505C23.1082 14.4955 22.475 14.2815 21.829 14.1103C21.9397 13.7973 22 13.4604 22 13.1094V12.0094C19.7178 11.5461 18 9.52833 18 7.10938C18 4.34795 20.2386 2.10938 23 2.10938C25.7614 2.10938 28 4.34795 28 7.10938C28 9.52833 26.2822 11.5461 24 12.0094V13.1094ZM23 10.1094C24.6569 10.1094 26 8.76623 26 7.10938C26 5.45252 24.6569 4.10938 23 4.10938C21.3431 4.10938 20 5.45252 20 7.10938C20 8.76623 21.3431 10.1094 23 10.1094Z" fill="black"/>
<path d="M17.0391 16.1411C17.0391 15.5888 17.4868 15.1411 18.0391 15.1411C21.4869 15.1411 24.7935 16.5108 27.2314 18.9487C29.6694 21.3867 31.0391 24.6933 31.0391 28.1411V28.1521C31.0391 28.3012 31.0391 28.4809 31.0284 28.6651C30.9964 29.2164 30.5235 29.6374 29.9721 29.6054C29.4207 29.5734 28.9997 29.1005 29.0317 28.5491C29.0388 28.4279 29.0391 28.302 29.0391 28.1411C29.0391 25.2237 27.8801 22.4258 25.8172 20.3629C23.7543 18.3 20.9564 17.1411 18.0391 17.1411C17.4868 17.1411 17.0391 16.6934 17.0391 16.1411Z" fill="black"/>
<path d="M18.0441 19.1411C17.4919 19.1383 17.0419 19.5837 17.0391 20.136C17.0363 20.6883 17.4817 21.1383 18.034 21.1411C19.9012 21.1506 21.6882 21.9014 23.0019 23.2284C24.3156 24.5554 25.0484 26.3499 25.0391 28.2171V28.2221C25.0391 28.3698 25.0385 28.4692 25.0312 28.5622C24.9876 29.1128 25.3986 29.5944 25.9492 29.638C26.4997 29.6816 26.9814 29.2706 27.0249 28.72C27.0391 28.5411 27.0391 28.3682 27.0391 28.2355L27.0391 28.2245C27.0503 25.8278 26.1095 23.5246 24.4232 21.8213C22.7364 20.1174 20.4418 19.1533 18.0441 19.1411Z" fill="black"/>
<path d="M18.0392 25.1411C18.466 25.141 18.888 25.232 19.2768 25.408C19.6657 25.584 20.0125 25.841 20.2941 26.1617C20.5757 26.4824 20.7856 26.8596 20.9099 27.2679C21.0341 27.6762 21.0698 28.1064 21.0145 28.5296C20.943 29.0772 21.3289 29.5792 21.8766 29.6507C22.4242 29.7222 22.9261 29.3362 22.9976 28.7886C23.0898 28.0832 23.0303 27.3663 22.8233 26.6858C22.6162 26.0052 22.2663 25.3767 21.797 24.8421C21.3276 24.3076 20.7496 23.8793 20.1015 23.586C19.4535 23.2927 18.7503 23.141 18.0389 23.1411C17.4866 23.1412 17.039 23.589 17.0391 24.1413C17.0392 24.6936 17.4869 25.1412 18.0392 25.1411Z" fill="black"/>
<path d="M18.0391 29.6411C18.8675 29.6411 19.5391 28.9695 19.5391 28.1411C19.5391 27.3127 18.8675 26.6411 18.0391 26.6411C17.2106 26.6411 16.5391 27.3127 16.5391 28.1411C16.5391 28.9695 17.2106 29.6411 18.0391 29.6411Z" fill="black"/>
</svg>
