<svg width="32" height="33" viewBox="0 0 32 33" fill="none" xmlns="http://www.w3.org/2000/svg">
<path d="M9 6.45313C9 5.48663 9.7835 4.70312 10.75 4.70312H28.25C29.2165 4.70312 30 5.48663 30 6.45312V26.9531C30 27.9196 29.2165 28.7031 28.25 28.7031H10.75C9.7835 28.7031 9 27.9196 9 26.9531V23.7031H3.25C2.55964 23.7031 2 23.1435 2 22.4531V10.9531C2 10.2628 2.55964 9.70312 3.25 9.70312H9V6.45313ZM11 26.7031H18.5V23.7031H11V26.7031ZM18.5 21.7031V17.7031H16V21.7031H18.5ZM18.5 15.7031V11.7031H16V15.7031H18.5ZM11 9.70312H18.5V6.70312H11V9.70312ZM20.5 23.7031V26.7031H28V23.7031H20.5ZM28 21.7031V17.7031H20.5V21.7031H28ZM28 11.7031H20.5V15.7031H28V11.7031ZM28 9.70312V6.70312H20.5V9.70312H28ZM7.92304 16.691L5.0918 21.0782H7.14198L8.82616 18.0029C8.9041 17.8783 8.96757 17.7452 9.01532 17.6063H9.03972C9.09258 17.748 9.15792 17.8848 9.23498 18.0151L10.8702 21.0782H12.9082L10.1807 16.6666L12.8411 12.3282H10.9251L9.41186 15.0923C9.31014 15.2917 9.21251 15.4971 9.11898 15.7086H9.10069C9.05184 15.5785 8.96235 15.3812 8.83221 15.1167L7.41659 12.3282H5.32977L7.92304 16.691Z" fill="black"/>
</svg>
