<svg width="32" height="33" viewBox="0 0 32 33" fill="none" xmlns="http://www.w3.org/2000/svg">
<path d="M12.3712 8.69723C13.3872 8.29081 14.3865 8.09375 15.3748 8.09375C19.7725 8.09375 23.3748 11.696 23.3748 16.0938C23.3748 20.4915 19.7725 24.0938 15.3748 24.0938C14.3865 24.0938 13.3872 23.8967 12.3712 23.4903C11.8584 23.2852 11.2764 23.5346 11.0713 24.0474C10.8662 24.5601 11.1156 25.1421 11.6284 25.3472C12.8623 25.8408 14.113 26.0938 15.3748 26.0938C20.5397 26.0938 24.8194 22.1307 25.3249 17.0938H29C29.5523 17.0938 30 16.646 30 16.0938C30 15.5415 29.5523 15.0938 29 15.0938H25.3249C24.8194 10.0568 20.5397 6.09375 15.3748 6.09375C14.113 6.09375 12.8623 6.34669 11.6284 6.84027C11.1156 7.04539 10.8662 7.62736 11.0713 8.14014C11.2764 8.65292 11.8584 8.90234 12.3712 8.69723Z" fill="black"/>
<path d="M19 16.0938C19 17.7506 17.6569 19.0938 16 19.0938C14.6938 19.0938 13.5825 18.2589 13.1707 17.0938H3C2.44772 17.0938 2 16.646 2 16.0938C2 15.5415 2.44772 15.0938 3 15.0938H13.1707C13.5825 13.9286 14.6938 13.0938 16 13.0938C17.6569 13.0938 19 14.4369 19 16.0938Z" fill="black"/>
</svg>
