<svg width="32" height="33" viewBox="0 0 32 33" fill="none" xmlns="http://www.w3.org/2000/svg">
<path d="M7.5 3.76562C5.01472 3.76562 3 5.78034 3 8.26562V25.2656C3 27.7509 5.01472 29.7656 7.5 29.7656H17.3879C16.4207 29.3306 15.5957 28.634 15.0019 27.7656H7.5C6.11929 27.7656 5 26.6463 5 25.2656V8.26562C5 6.88491 6.11929 5.76562 7.5 5.76562H24.5C25.8807 5.76562 27 6.88491 27 8.26562V18.8115C27.7164 18.9027 28.3914 19.1267 29 19.4582V8.26562C29 5.78034 26.9853 3.76562 24.5 3.76562H7.5Z" fill="black"/>
<path d="M15.47 20.6693C16.0281 20.0471 16.7196 19.5478 17.4992 19.217C17.4735 18.4111 16.8121 17.7656 16 17.7656C15.1716 17.7656 14.5 18.4372 14.5 19.2656C14.5 19.9075 14.9031 20.4551 15.47 20.6693Z" fill="black"/>
<path d="M10.5 14.7656C11.3284 14.7656 12 14.0941 12 13.2656C12 12.4372 11.3284 11.7656 10.5 11.7656C9.67157 11.7656 9 12.4372 9 13.2656C9 14.0941 9.67157 14.7656 10.5 14.7656Z" fill="black"/>
<path d="M10.5 20.7656C11.3284 20.7656 12 20.0941 12 19.2656C12 18.4372 11.3284 17.7656 10.5 17.7656C9.67157 17.7656 9 18.4372 9 19.2656C9 20.0941 9.67157 20.7656 10.5 20.7656Z" fill="black"/>
<path d="M17.5 13.2656C17.5 14.0941 16.8284 14.7656 16 14.7656C15.1716 14.7656 14.5 14.0941 14.5 13.2656C14.5 12.4372 15.1716 11.7656 16 11.7656C16.8284 11.7656 17.5 12.4372 17.5 13.2656Z" fill="black"/>
<path d="M23 13.2656C23 14.0941 22.3284 14.7656 21.5 14.7656C20.6716 14.7656 20 14.0941 20 13.2656C20 12.4372 20.6716 11.7656 21.5 11.7656C22.3284 11.7656 23 12.4372 23 13.2656Z" fill="black"/>
<path d="M15.5 24.5156C15.5 22.1684 17.4028 20.2656 19.75 20.2656H20.75C21.1642 20.2656 21.5 20.6014 21.5 21.0156C21.5 21.4298 21.1642 21.7656 20.75 21.7656H19.75C18.2312 21.7656 17 22.9968 17 24.5156C17 26.0344 18.2312 27.2656 19.75 27.2656H20.75C21.1642 27.2656 21.5 27.6014 21.5 28.0156C21.5 28.4298 21.1642 28.7656 20.75 28.7656H19.75C17.4028 28.7656 15.5 26.8628 15.5 24.5156Z" fill="black"/>
<path d="M30.5 24.5156C30.5 22.1684 28.5972 20.2656 26.25 20.2656H24.75C24.3358 20.2656 24 20.6014 24 21.0156C24 21.4298 24.3358 21.7656 24.75 21.7656H26.25C27.7688 21.7656 29 22.9968 29 24.5156C29 26.0344 27.7688 27.2656 26.25 27.2656H24.75C24.3358 27.2656 24 27.6014 24 28.0156C24 28.4298 24.3358 28.7656 24.75 28.7656H26.25C28.5972 28.7656 30.5 26.8628 30.5 24.5156Z" fill="black"/>
<path d="M19.5 24.5156C19.5 24.1014 19.8358 23.7656 20.25 23.7656H25.75C26.1642 23.7656 26.5 24.1014 26.5 24.5156C26.5 24.9298 26.1642 25.2656 25.75 25.2656H20.25C19.8358 25.2656 19.5 24.9298 19.5 24.5156Z" fill="black"/>
</svg>
