<svg width="32" height="33" viewBox="0 0 32 33" fill="none" xmlns="http://www.w3.org/2000/svg">
<path d="M3 7.90625C3 5.42097 5.01472 3.40625 7.5 3.40625H24.5C26.9853 3.40625 29 5.42097 29 7.90625V20.9181C28.5751 20.351 28.1081 19.8116 27.6012 19.3046C27.4055 19.109 27.205 18.9193 27 18.7357V7.90625C27 6.52554 25.8807 5.40625 24.5 5.40625H7.5C6.11929 5.40625 5 6.52554 5 7.90625V24.9062C5 26.287 6.11929 27.4062 7.5 27.4062H14.3993C14.4187 27.4399 14.4388 27.4733 14.4595 27.5063C13.9668 28.0339 13.6517 28.6982 13.5519 29.4062H7.5C5.01472 29.4062 3 27.3915 3 24.9062V7.90625Z" fill="black"/>
<path d="M10.5 14.4062C11.3284 14.4062 12 13.7347 12 12.9062C12 12.0778 11.3284 11.4062 10.5 11.4062C9.67157 11.4062 9 12.0778 9 12.9062C9 13.7347 9.67157 14.4062 10.5 14.4062Z" fill="black"/>
<path d="M10.5 20.4062C11.3284 20.4062 12 19.7347 12 18.9062C12 18.0778 11.3284 17.4062 10.5 17.4062C9.67157 17.4062 9 18.0778 9 18.9062C9 19.7347 9.67157 20.4062 10.5 20.4062Z" fill="black"/>
<path d="M17.5 12.9062C17.5 13.7347 16.8284 14.4062 16 14.4062C15.1716 14.4062 14.5 13.7347 14.5 12.9062C14.5 12.0778 15.1716 11.4062 16 11.4062C16.8284 11.4062 17.5 12.0778 17.5 12.9062Z" fill="black"/>
<path d="M23 12.9062C23 13.7347 22.3284 14.4062 21.5 14.4062C20.6716 14.4062 20 13.7347 20 12.9062C20 12.0778 20.6716 11.4062 21.5 11.4062C22.3284 11.4062 23 12.0778 23 12.9062Z" fill="black"/>
<path d="M16.0391 17.438C16.0391 16.8857 16.4868 16.438 17.0391 16.438C20.4869 16.438 23.7935 17.8076 26.2314 20.2456C28.6694 22.6836 30.0391 25.9902 30.0391 29.438V29.449C30.0391 29.598 30.0391 29.7777 30.0284 29.962C29.9964 30.5133 29.5235 30.9343 28.9721 30.9023C28.4207 30.8703 27.9997 30.3974 28.0317 29.846C28.0388 29.7248 28.0391 29.5988 28.0391 29.438C28.0391 26.5206 26.8801 23.7227 24.8172 21.6598C22.7543 19.5969 19.9564 18.438 17.0391 18.438C16.4868 18.438 16.0391 17.9903 16.0391 17.438Z" fill="black"/>
<path d="M17.0441 20.438C16.4919 20.4352 16.0419 20.8806 16.0391 21.4329C16.0363 21.9852 16.4817 22.4352 17.034 22.438C18.9012 22.4475 20.6882 23.1983 22.0019 24.5253C23.3156 25.8523 24.0484 27.6468 24.0391 29.514V29.519C24.0391 29.6667 24.0385 29.7661 24.0312 29.8591C23.9876 30.4097 24.3986 30.8913 24.9492 30.9349C25.4997 30.9784 25.9814 30.5674 26.0249 30.0169C26.0391 29.838 26.0391 29.6651 26.0391 29.5324L26.0391 29.5213C26.0503 27.1247 25.1095 24.8215 23.4232 23.1182C21.7364 21.4143 19.4418 20.4502 17.0441 20.438Z" fill="black"/>
<path d="M17.0392 26.438C17.466 26.4379 17.888 26.5289 18.2768 26.7049C18.6657 26.8809 19.0125 27.1379 19.2941 27.4586C19.5757 27.7793 19.7856 28.1564 19.9099 28.5648C20.0341 28.9731 20.0698 29.4033 20.0145 29.8265C19.943 30.3741 20.3289 30.876 20.8766 30.9476C21.4242 31.0191 21.9261 30.6331 21.9976 30.0855C22.0898 29.3801 22.0303 28.6632 21.8233 27.9826C21.6162 27.3021 21.2663 26.6735 20.797 26.139C20.3276 25.6044 19.7496 25.1762 19.1015 24.8829C18.4535 24.5895 17.7503 24.4379 17.0389 24.438C16.4866 24.4381 16.039 24.8859 16.0391 25.4382C16.0392 25.9904 16.4869 26.4381 17.0392 26.438Z" fill="black"/>
<path d="M17.0391 30.938C17.8675 30.938 18.5391 30.2664 18.5391 29.438C18.5391 28.6096 17.8675 27.938 17.0391 27.938C16.2106 27.938 15.5391 28.6096 15.5391 29.438C15.5391 30.2664 16.2106 30.938 17.0391 30.938Z" fill="black"/>
</svg>
