<svg width="32" height="33" viewBox="0 0 32 33" fill="none" xmlns="http://www.w3.org/2000/svg">
<path d="M22.9619 22.2592C23.1174 22.3525 23.2954 22.4018 23.4767 22.4018C23.6406 22.4015 23.802 22.361 23.9465 22.2838C24.0911 22.2065 24.2144 22.0949 24.3057 21.9588C25.3562 20.3904 25.9418 18.557 25.9949 16.6701C26.048 14.7832 25.5664 12.9197 24.6057 11.2948C24.4703 11.0667 24.2499 10.9017 23.9929 10.8362C23.7358 10.7706 23.4633 10.8099 23.2352 10.9453C23.0071 11.0807 22.8422 11.3011 22.7766 11.5582C22.7111 11.8152 22.7503 12.0877 22.8857 12.3158C23.6538 13.6153 24.0389 15.1054 23.9966 16.6143C23.9543 18.1232 23.4864 19.5894 22.6467 20.8438C22.5455 20.9943 22.4872 21.1695 22.4779 21.3506C22.4686 21.5317 22.5087 21.7119 22.594 21.872C22.6793 22.032 22.8064 22.1659 22.9619 22.2592ZM8.53772 22.4226C8.37392 22.4229 8.21256 22.3829 8.06784 22.3062C7.92311 22.2294 7.79945 22.1183 7.70772 21.9826C6.69292 20.4781 6.10665 18.7259 6.01174 16.9136C5.91682 15.1014 6.31685 13.2975 7.16895 11.6952C8.02104 10.093 9.29308 8.75278 10.8487 7.81832C12.4044 6.88385 14.185 6.39032 15.9997 6.39062C16.654 6.39048 17.3068 6.45412 17.9487 6.58063C18.0777 6.60591 18.2005 6.65638 18.31 6.72915C18.4195 6.80193 18.5135 6.89558 18.5868 7.00475C18.66 7.11391 18.7111 7.23645 18.7369 7.36536C18.7628 7.49426 18.7629 7.62699 18.7374 7.75596C18.7119 7.88493 18.6612 8.00761 18.5883 8.11697C18.5153 8.22633 18.4215 8.32023 18.3122 8.39329C18.2029 8.46636 18.0803 8.51716 17.9513 8.54278C17.8224 8.56841 17.6896 8.56835 17.5607 8.54263C16.4006 8.31328 15.204 8.34374 14.057 8.63182C12.91 8.91991 11.841 9.45847 10.9269 10.2088C10.0128 10.9591 9.27623 11.9026 8.77012 12.9715C8.264 14.0403 8.0009 15.208 7.99972 16.3906C7.99663 17.9848 8.47253 19.5432 9.36572 20.8636C9.46709 21.014 9.52567 21.1891 9.53518 21.3702C9.54469 21.5513 9.50478 21.7315 9.41972 21.8917C9.33466 22.0518 9.20765 22.1858 9.05229 22.2794C8.89693 22.3729 8.71906 22.4224 8.53772 22.4226ZM21.5175 8.26625C21.3271 8.26275 21.1414 8.32552 20.9922 8.44382L19.9362 9.28582C19.2982 9.79282 18.4422 10.4778 17.5682 11.1858C16.6942 11.8938 15.7982 12.6228 15.0832 13.2228C14.7262 13.5218 14.4102 13.7908 14.1632 14.0088C13.9656 14.1774 13.7776 14.357 13.6002 14.5468C13.1759 15.0434 12.9662 15.6883 13.0173 16.3395C13.0684 16.9907 13.3761 17.595 13.8727 18.0193C14.3694 18.4437 15.0142 18.6534 15.6654 18.6022C16.3167 18.5511 16.9209 18.2434 17.3452 17.7468C17.5053 17.5423 17.6532 17.3286 17.7882 17.1068C17.9642 16.8288 18.1812 16.4748 18.4202 16.0748C18.8992 15.2748 19.4812 14.2768 20.0432 13.3018C20.6052 12.3268 21.1512 11.3748 21.5512 10.6658L22.0352 9.81282L22.2172 9.49082C22.3109 9.32504 22.344 9.13186 22.3109 8.94437C22.2778 8.75687 22.1805 8.58671 22.0358 8.46301C21.891 8.33931 21.7078 8.26975 21.5175 8.26625ZM16 2.39062C8.26801 2.39062 2 8.65864 2 16.3906C2 24.1226 8.26801 30.3906 16 30.3906C23.732 30.3906 30 24.1226 30 16.3906C30 8.65864 23.732 2.39062 16 2.39062ZM4 16.3906C4 9.76321 9.37258 4.39062 16 4.39062C22.6274 4.39062 28 9.76321 28 16.3906C28 23.018 22.6274 28.3906 16 28.3906C9.37258 28.3906 4 23.018 4 16.3906Z" fill="black"/>
</svg>
