<svg viewBox="0 0 50 49.99" class="fxs-portal-svg" role="presentation" focusable="false" xmlns:svg="http://www.w3.org/2000/svg" xmlns:xlink="http://www.w3.org/1999/xlink" id="FxSymbol0-14d" data-type="1"><g><title></title><path d="M0 5.66v30.12c0 3.13 7.05 5.66 15.75 5.66V5.66z" class="msportalfx-svg-c14" fill="#57a300"></path><path d="M15.53 41.45h.22c8.7 0 15.75-2.53 15.75-5.66V5.66h-16z" class="msportalfx-svg-c14" fill="#57a300"></path><path d="M15.53 41.45h.22c8.7 0 15.75-2.53 15.75-5.66V5.66h-16z" class="msportalfx-svg-c13" fill="#b8d432"></path><path d="M31.5 5.66c0 3.13-7.05 5.66-15.75 5.66S0 8.79 0 5.66 7.05 0 15.75 0 31.5 2.54 31.5 5.66" class="msportalfx-svg-c01" fill="#ffffff"></path><path d="M28.28 5.34c0 2.07-5.61 3.74-12.53 3.74S3.22 7.4 3.22 5.34 8.83 1.6 15.75 1.6s12.53 1.67 12.53 3.74" class="msportalfx-svg-c09" fill="#dd5900"></path><path d="M25.66 7.62C27.3 7 28.28 6.2 28.28 5.34c0-2.07-5.61-3.74-12.53-3.74S3.22 3.27 3.22 5.34c0 .86 1 1.65 2.63 2.28a29.43 29.43 0 0 1 9.9-1.45 29.46 29.46 0 0 1 9.91 1.45" class="msportalfx-svg-c10" fill="#ff8c00"></path><path d="M3.27 25.84h2V18l3.08 6.86A1.7 1.7 0 0 0 10.19 26 1.67 1.67 0 0 0 12 24.83L15.09 18v7.87h2V18a1.2 1.2 0 0 0-.94-1.33c-1.51-.47-2.53-.06-3 1l-3 6.77-2.95-6.83c-.44-1-1.47-1.43-3-1A1.2 1.2 0 0 0 3.28 18v7.85zm15.47-6.41h2v4.33c0 .24.08.79 1.17.81h4.33v-5.16h2v7.07c0 1.74-2.15 2.11-3.15 2.14h-6.31v-1.34h6.3c1.28-.14 1.13-.77 1.13-1v-.52H22c-2 0-3.23-.88-3.24-1.87v-4.47z" class="msportalfx-svg-c01" fill="#ffffff"></path><path d="M45.07 47.4a12.56 12.56 0 1 1 2.34-17.6 12.51 12.51 0 0 1-2.34 17.6" class="msportalfx-svg-c15" fill="#59b4d9"></path><path d="M42.77 39.63a2.71 2.71 0 0 0 3.79.5c.06 0 .11-.1.17-.15 1.21.85 2.05 1.42 2.53 1.74a11 11 0 0 0 .34-1.08c-.5-.37-1.18-.89-2.15-1.69a2.68 2.68 0 0 0-3.85-3.29 122.91 122.91 0 0 1-4.17-3.93c4.6-2.48 7.88-2.11 7.88-2.11a12.6 12.6 0 0 0-1.81-1.86 13.38 13.38 0 0 0-8.4 1.57q-1.72-1.8-3.51-3.87a11.63 11.63 0 0 0-1.66.68 27.09 27.09 0 0 0 3.39 4.3 23.26 23.26 0 0 0-3.49 3l-.42.47a3.78 3.78 0 0 0-2.07.14 9.18 9.18 0 0 1-.87-5.44 13.21 13.21 0 0 0-1.35 1.64 8 8 0 0 0 .5 5.07 3.76 3.76 0 0 0 .28 4.92 19 19 0 0 0-.73 4.4c.12.16.12.29.24.45a12.73 12.73 0 0 0 2.09 2 13.85 13.85 0 0 1 .86-5.71 3.77 3.77 0 0 0 1.75-.28c.32.28.66.57 1 .86a20.92 20.92 0 0 0 3.66 2.33 2.48 2.48 0 0 0 4.55 1.62 22.42 22.42 0 0 0 4.93.51 9 9 0 0 0 1.61-2 13.26 13.26 0 0 1-6.18-.42 2.47 2.47 0 0 0-3.78-1.56 23.5 23.5 0 0 1-3.4-2.26l-.68-.56a3.81 3.81 0 0 0 .18-3.74l.44-.43a27.55 27.55 0 0 1 3.28-2.65l-.12-.12.12.11c1.57 1.45 3.23 2.82 4.81 4.05a2.68 2.68 0 0 0 .24 2.79z" class="msportalfx-svg-c01" fill="#ffffff"></path></g><defs>
<linearGradient id="a" x1="9" y1="16.39" x2="9" y2="-1.94" gradientUnits="userSpaceOnUse"><stop offset="0" stop-color="#0078d4"></stop><stop offset=".16" stop-color="#1380da"></stop><stop offset=".53" stop-color="#3c91e5"></stop><stop offset=".82" stop-color="#559cec"></stop><stop offset="1" stop-color="#5ea0ef"></stop></linearGradient>
<linearGradient id="b" x1="9.88" y1="7.11" x2="9.99" y2="17.27" gradientUnits="userSpaceOnUse"><stop offset="0" stop-color="#32d4f5"></stop><stop offset=".32" stop-color="#31d1f3"></stop><stop offset=".53" stop-color="#2ec9eb"></stop><stop offset=".7" stop-color="#29bade"></stop><stop offset=".86" stop-color="#22a5cb"></stop><stop offset="1" stop-color="#198ab3"></stop><stop offset="1" stop-color="#198ab3"></stop></linearGradient>
<radialGradient id="c" cx="9.43" cy="7.03" r="7.27" gradientUnits="userSpaceOnUse"><stop offset="0" stop-color="#f2f2f2"></stop><stop offset=".58" stop-color="#eee"></stop><stop offset="1" stop-color="#e6e6e6"></stop></radialGradient>
</defs>
</svg>