<?xml version="1.0" encoding="UTF-8"?>
<svg id="uuid-92f5a236-4bf6-45ee-8000-b07a98739f25" data-name="Layer 1" xmlns="http://www.w3.org/2000/svg" width="48" height="48" xmlns:xlink="http://www.w3.org/1999/xlink" viewBox="0 0 48 48">
  <defs>
    <linearGradient id="uuid-fb137de6-8df4-4210-b155-9a7c327a77b8" x1="22.803" y1="47.733" x2="43.625" y2="3.599" gradientTransform="matrix(1, 0, 0, 1, 0, 0)" gradientUnits="userSpaceOnUse">
      <stop offset="0" stop-color="#c87e0e"/>
      <stop offset="1" stop-color="#e6ad10"/>
    </linearGradient>
    <linearGradient id="uuid-a31c695f-58e7-4061-a4db-21735696303d" x1="15.296" y1="47.637" x2="32.728" y2="13.831" gradientTransform="matrix(1, 0, 0, 1, 0, 0)" gradientUnits="userSpaceOnUse">
      <stop offset="0" stop-color="#e6ad10"/>
      <stop offset="1" stop-color="#f6d751"/>
    </linearGradient>
    <linearGradient id="uuid-379cf025-77e2-4098-a547-6f4d21278020" x1="9.019" y1="48.601" x2="18.396" y2="26.379" gradientTransform="matrix(1, 0, 0, 1, 0, 0)" gradientUnits="userSpaceOnUse">
      <stop offset="0" stop-color="#f6d751"/>
      <stop offset="1" stop-color="#f9e589"/>
    </linearGradient>
  </defs>
  <text transform="translate(0 -18.341)" fill="#b4b4b4" font-family="SegoeUI-Semibold, &apos;Segoe UI&apos;" font-size="48" font-weight="700"><tspan x="0" y="0">48x</tspan></text>
  <g>
    <path d="M42,46.003V1.997c-.002-1.103-.896-1.997-2-1.997h-12c-1.105,0-2,.895-2,2v3.136h0V48h14.001c1.103,0,1.997-.894,1.999-1.997Z" fill="url(#uuid-fb137de6-8df4-4210-b155-9a7c327a77b8)"/>
    <path d="M30,12h-12.001c-1.103,0-1.997,.894-1.999,1.998V48h16V14c0-1.105-.895-2-2-2Z" fill="url(#uuid-a31c695f-58e7-4061-a4db-21735696303d)"/>
    <path d="M20,24H8c-1.105,0-2,.895-2,2v20c0,1.104,.895,2,2,2h14V26c0-1.105-.895-2-2-2Z" fill="url(#uuid-379cf025-77e2-4098-a547-6f4d21278020)"/>
  </g>
</svg>