<svg viewBox="0 0 50 50" class="" role="presentation" focusable="false" xmlns:svg="http://www.w3.org/2000/svg" xmlns:xlink="http://www.w3.org/1999/xlink" id="FxSymbol0-0eb" data-type="1"><g><title></title><title>sql-eos</title><path d="M1 7.557v34.885C1 46.063 9.107 49 19.106 49V7.557z" class="msportalfx-svg-c19" fill="#0072c6"></path><path d="M18.858 49h.248c10 0 18.107-2.935 18.107-6.557V7.557H18.858z" class="msportalfx-svg-c19" fill="#0072c6"></path><path d="M18.858 49h.248c10 0 18.107-2.935 18.107-6.557V7.557H18.858z" opacity=".15" class="msportalfx-svg-c01" fill="#ffffff"></path><path d="M37.213 7.557c0 3.622-8.107 6.558-18.107 6.558S1 11.179 1 7.557 9.107 1 19.106 1s18.107 2.936 18.107 6.557" class="msportalfx-svg-c01" fill="#ffffff"></path><path d="M33.511 7.18c0 2.391-6.449 4.327-14.4 4.327S4.7 9.571 4.7 7.18s6.45-4.327 14.405-4.327S33.511 4.79 33.511 7.18" class="msportalfx-svg-c14" fill="#57a300"></path><path d="M30.493 9.824c1.886-.732 3.019-1.647 3.019-2.642 0-2.391-6.45-4.328-14.406-4.328S4.7 4.791 4.7 7.182c0 .995 1.133 1.91 3.019 2.642a33.627 33.627 0 0 1 11.387-1.682 33.644 33.644 0 0 1 11.387 1.682" class="msportalfx-svg-c13" fill="#b8d432"></path><path d="M13.355 31.772a2.974 2.974 0 0 1-1.179 2.518 5.288 5.288 0 0 1-3.258.893 6.2 6.2 0 0 1-2.957-.638V32a4.558 4.558 0 0 0 3.019 1.159 2.051 2.051 0 0 0 1.232-.319 1 1 0 0 0 .435-.84 1.18 1.18 0 0 0-.419-.9 7.68 7.68 0 0 0-1.7-.989q-2.614-1.23-2.615-3.351a3.021 3.021 0 0 1 1.14-2.466 4.652 4.652 0 0 1 3.028-.929 7.558 7.558 0 0 1 2.773.439v2.382a4.522 4.522 0 0 0-2.629-.8 1.951 1.951 0 0 0-1.171.314.993.993 0 0 0-.43.841 1.2 1.2 0 0 0 .347.888 5.6 5.6 0 0 0 1.422.857 7.069 7.069 0 0 1 2.283 1.538 2.866 2.866 0 0 1 .679 1.948zm12.295-2.581a6.519 6.519 0 0 1-.917 3.5 4.884 4.884 0 0 1-2.581 2.079l3.315 3.069H22.12l-2.366-2.654a5.545 5.545 0 0 1-2.746-.8 5.044 5.044 0 0 1-1.889-2.052 6.3 6.3 0 0 1-.665-2.9 6.778 6.778 0 0 1 .721-3.168 5.129 5.129 0 0 1 2.027-2.14 5.931 5.931 0 0 1 3-.749 5.515 5.515 0 0 1 2.825.726 4.948 4.948 0 0 1 1.935 2.063 6.523 6.523 0 0 1 .688 3.026zm-2.709.144a4.472 4.472 0 0 0-.757-2.746 2.451 2.451 0 0 0-2.072-1.008 2.6 2.6 0 0 0-2.144 1.011 4.208 4.208 0 0 0-.8 2.693 4.193 4.193 0 0 0 .788 2.673 2.534 2.534 0 0 0 2.095 1 2.571 2.571 0 0 0 2.112-.968 4.1 4.1 0 0 0 .778-2.655zm11.402 5.649h-6.804V23.558h2.573v9.338h4.231v2.088z" class="msportalfx-svg-c01" fill="#ffffff"></path><path d="M1 7.557v34.885C1 46.063 9.107 49 19.106 49V7.557z" class="msportalfx-svg-c19" fill="#0072c6"></path><path d="M18.858 49h.248c10 0 18.107-2.935 18.107-6.557V7.557H18.858z" class="msportalfx-svg-c19" fill="#0072c6"></path><path d="M18.858 49h.248c10 0 18.107-2.935 18.107-6.557V7.557H18.858z" opacity=".15" class="msportalfx-svg-c01" fill="#ffffff"></path><path d="M37.213 7.557c0 3.622-8.107 6.558-18.107 6.558S1 11.179 1 7.557 9.107 1 19.106 1s18.107 2.936 18.107 6.557" class="msportalfx-svg-c01" fill="#ffffff"></path><path d="M33.511 7.18c0 2.391-6.449 4.327-14.4 4.327S4.7 9.571 4.7 7.18s6.45-4.327 14.405-4.327S33.511 4.79 33.511 7.18" class="msportalfx-svg-c14" fill="#57a300"></path><path d="M30.493 9.824c1.886-.732 3.019-1.647 3.019-2.642 0-2.391-6.45-4.328-14.406-4.328S4.7 4.791 4.7 7.182c0 .995 1.133 1.91 3.019 2.642a33.627 33.627 0 0 1 11.387-1.682 33.644 33.644 0 0 1 11.387 1.682" class="msportalfx-svg-c13" fill="#b8d432"></path><path d="M13.355 31.772a2.974 2.974 0 0 1-1.179 2.518 5.288 5.288 0 0 1-3.258.893 6.2 6.2 0 0 1-2.957-.638V32a4.558 4.558 0 0 0 3.019 1.159 2.051 2.051 0 0 0 1.232-.319 1 1 0 0 0 .435-.84 1.18 1.18 0 0 0-.419-.9 7.68 7.68 0 0 0-1.7-.989q-2.614-1.23-2.615-3.351a3.021 3.021 0 0 1 1.14-2.466 4.652 4.652 0 0 1 3.028-.929 7.558 7.558 0 0 1 2.773.439v2.382a4.522 4.522 0 0 0-2.629-.8 1.951 1.951 0 0 0-1.171.314.993.993 0 0 0-.43.841 1.2 1.2 0 0 0 .347.888 5.6 5.6 0 0 0 1.422.857 7.069 7.069 0 0 1 2.283 1.538 2.866 2.866 0 0 1 .679 1.948zm12.295-2.581a6.519 6.519 0 0 1-.917 3.5 4.884 4.884 0 0 1-2.581 2.079l3.315 3.069H22.12l-2.366-2.654a5.545 5.545 0 0 1-2.746-.8 5.044 5.044 0 0 1-1.889-2.052 6.3 6.3 0 0 1-.665-2.9 6.778 6.778 0 0 1 .721-3.168 5.129 5.129 0 0 1 2.027-2.14 5.931 5.931 0 0 1 3-.749 5.515 5.515 0 0 1 2.825.726 4.948 4.948 0 0 1 1.935 2.063 6.523 6.523 0 0 1 .688 3.026zm-2.709.144a4.472 4.472 0 0 0-.757-2.746 2.451 2.451 0 0 0-2.072-1.008 2.6 2.6 0 0 0-2.144 1.011 4.208 4.208 0 0 0-.8 2.693 4.193 4.193 0 0 0 .788 2.673 2.534 2.534 0 0 0 2.095 1 2.571 2.571 0 0 0 2.112-.968 4.1 4.1 0 0 0 .778-2.655zm11.402 5.649h-6.804V23.558h2.573v9.338h4.231v2.088zM32.555 5.968h13.778V25l-13.736.13z" class="msportalfx-svg-c01" fill="#ffffff"></path><path d="M35.677 19.667h7.99v2.667h-7.99zm0-10.667h7.99v2.667h-7.99zm0 5.333h7.99V17h-7.99z" class="msportalfx-svg-c03" fill="#a0a1a2"></path><path d="M48.075 1H31.269a.921.921 0 0 0-.926.915v24.834a.922.922 0 0 0 .926.918h16.8a.923.923 0 0 0 .931-.918V1.92a.92.92 0 0 0-.92-.92zM33.01 25V6.331h13.323V25z" class="msportalfx-svg-c03" fill="#a0a1a2"></path></g><defs>
<linearGradient id="a" x1="9" y1="16.39" x2="9" y2="-1.94" gradientUnits="userSpaceOnUse"><stop offset="0" stop-color="#0078d4"></stop><stop offset=".16" stop-color="#1380da"></stop><stop offset=".53" stop-color="#3c91e5"></stop><stop offset=".82" stop-color="#559cec"></stop><stop offset="1" stop-color="#5ea0ef"></stop></linearGradient>
<linearGradient id="b" x1="9.88" y1="7.11" x2="9.99" y2="17.27" gradientUnits="userSpaceOnUse"><stop offset="0" stop-color="#32d4f5"></stop><stop offset=".32" stop-color="#31d1f3"></stop><stop offset=".53" stop-color="#2ec9eb"></stop><stop offset=".7" stop-color="#29bade"></stop><stop offset=".86" stop-color="#22a5cb"></stop><stop offset="1" stop-color="#198ab3"></stop><stop offset="1" stop-color="#198ab3"></stop></linearGradient>
<radialGradient id="c" cx="9.43" cy="7.03" r="7.27" gradientUnits="userSpaceOnUse"><stop offset="0" stop-color="#f2f2f2"></stop><stop offset=".58" stop-color="#eee"></stop><stop offset="1" stop-color="#e6e6e6"></stop></radialGradient>
</defs>
</svg>