<svg xmlns="http://www.w3.org/2000/svg" xmlns:xlink="http://www.w3.org/1999/xlink" version="1.1" id="uuid-c0521a51-94f6-4111-b43d-13ff9b5fce23" x="0px" y="0px" viewBox="0 0 35.8 40" style="enable-background:new 0 0 35.8 40;" xml:space="preserve"><style type="text/css">
	.st0{fill:url(#SVGID_1_);}
	.st1{fill:url(#SVGID_00000002368040537166398560000014388012593089224883_);}
	.st2{fill:url(#SVGID_00000102516846301295787360000015464565033489166761_);}
	.st3{fill:url(#SVGID_00000177471908720503296820000007938960746477270450_);}
</style><linearGradient id="SVGID_1_" gradientUnits="userSpaceOnUse" x1="-235.0058" y1="505.6776" x2="-250.8775" y2="493.2763" gradientTransform="matrix(-1 0 0 1 -229.27 -468.47)"><stop offset="6.000000e-02" style="stop-color:#249BE2"/><stop offset="0.35" style="stop-color:#1B75B4"/><stop offset="0.63" style="stop-color:#13568E"/><stop offset="0.78" style="stop-color:#114A80"/></linearGradient><path class="st0" d="M16.3,39.6L0.8,30.7C0.3,30.4,0,29.9,0,29.3s0.3-1.2,0.9-1.5l10.3-5.9l2.1-0.8l9.9,5.7l-2,9.8  c0,1.2-0.7,2.3-1.7,2.9c-0.5,0.3-1,0.4-1.6,0.4S16.8,39.8,16.3,39.6L16.3,39.6L16.3,39.6z"/><linearGradient id="SVGID_00000121981883873819736170000009002885821089922728_" gradientUnits="userSpaceOnUse" x1="-91.5847" y1="-141.173" x2="-111.7267" y2="-150.5639" gradientTransform="matrix(1 0 0 -1 124.25 -137.62)"><stop offset="0.12" style="stop-color:#249BE2"/><stop offset="0.29" style="stop-color:#218ED2"/><stop offset="0.64" style="stop-color:#196DAB"/><stop offset="0.96" style="stop-color:#114A80"/></linearGradient><path style="fill:url(#SVGID_00000121981883873819736170000009002885821089922728_);" d="M19.5,0.4L35,9.3c0.5,0.3,0.8,0.8,0.8,1.4  s-0.3,1.2-0.9,1.5l-10.3,5.9l-2.1,0.8l-9.9-5.7l2-9.8c0-1.2,0.7-2.3,1.7-2.9c0.5-0.3,1-0.4,1.6-0.4S19.1,0.2,19.5,0.4  C19.5,0.4,19.5,0.4,19.5,0.4z"/><linearGradient id="SVGID_00000049915424901866694120000007335107029634634156_" gradientUnits="userSpaceOnUse" x1="-112.3547" y1="750.1431" x2="-101.6849" y2="773.0242" gradientTransform="matrix(-1 0 0 1 -96.69 -750)"><stop offset="0.34" style="stop-color:#7CEAFF"/><stop offset="0.67" style="stop-color:#4EC9F2"/><stop offset="0.97" style="stop-color:#28ADE8"/></linearGradient><path style="fill:url(#SVGID_00000049915424901866694120000007335107029634634156_);" d="M16.3,0.4L1.7,8.8C0.7,9.4,0,10.4,0,11.7  v6.8c0,0.6,0.3,1.2,0.9,1.5l11.2,6.4c0.2,0.1,0.5,0.2,0.8,0.2c0.9,0,1.7-0.8,1.7-1.7V3.3C14.6,2.1,15.3,1,16.3,0.4L16.3,0.4  L16.3,0.4z"/><linearGradient id="SVGID_00000147187269163849605630000002526229765262641050_" gradientUnits="userSpaceOnUse" x1="124.8973" y1="-116.8173" x2="142.3808" y2="-99.3438" gradientTransform="matrix(1 0 0 -1 -106.84 -84.27)"><stop offset="3.000000e-02" style="stop-color:#28ADE8"/><stop offset="0.3" style="stop-color:#4EC9F2"/><stop offset="0.66" style="stop-color:#7CEAFF"/></linearGradient><path style="fill:url(#SVGID_00000147187269163849605630000002526229765262641050_);" d="M19.6,39.6l14.6-8.3c1-0.6,1.7-1.6,1.7-2.9  v-6.8c0-0.6-0.3-1.2-0.9-1.5l-11.2-6.4c-0.2-0.1-0.5-0.2-0.8-0.2c-0.9,0-1.7,0.8-1.7,1.7v21.5C21.2,37.9,20.6,39,19.6,39.6  L19.6,39.6L19.6,39.6z"/></svg>