<svg width="48" height="48" viewBox="0 0 48 48" fill="none" xmlns="http://www.w3.org/2000/svg">
<path d="M23.3852 29.3039L20.2552 40.841C20.1952 41.051 20.1652 41.2709 20.1652 41.5009C20.1652 42.8805 21.2852 44.0002 22.6652 44.0002C23.3952 44.0002 24.0452 43.6903 24.5052 43.2004L43.1151 22.0856C42.5051 22.7555 41.6251 23.1754 40.6551 23.1754H31.4251C27.5851 23.1754 24.3452 25.7747 23.3852 29.3139" fill="url(#paint0_linear_35749_114108)"/>
<path d="M29.4149 37.6318C34.9249 31.3733 43.1249 22.0856 43.1249 22.0856C42.5149 22.7555 41.6349 23.1754 40.6649 23.1754H31.4349C27.5949 23.1754 24.3549 25.7747 23.3949 29.3139L21.1349 37.6318H29.4149Z" fill="url(#paint1_linear_35749_114108)"/>
<path d="M43.9949 19.8359C43.9949 17.9963 42.5049 16.5067 40.6649 16.5067H15.0849L7.33487 24.8346C5.49487 24.8346 4.00488 26.3243 4.00488 28.1638C4.00488 30.0034 5.49487 31.493 7.33487 31.493H27.4449C29.2849 31.493 30.7749 32.9826 30.7749 34.8222C30.7749 35.672 30.4549 36.4518 29.9249 37.0416L42.0249 23.315L43.1049 22.0953H43.0948C43.6548 21.4955 44.0049 20.7057 44.0049 19.8259L43.9949 19.8359Z" fill="url(#paint2_linear_35749_114108)"/>
<path d="M24.5649 31.503L39.1649 16.5067H15.0849L7.33487 24.8346C5.49487 24.8346 4.00488 26.3243 4.00488 28.1638C4.00488 30.0034 5.49487 31.493 7.33487 31.493H24.5649V31.503Z" fill="url(#paint3_linear_35749_114108)"/>
<path d="M24.595 18.6964L27.725 7.15922C27.785 6.94927 27.815 6.72933 27.815 6.49938C27.815 5.11972 26.695 4 25.315 4C24.585 4 23.935 4.30992 23.475 4.7998L4.86499 25.9146C5.47499 25.2448 6.35498 24.8249 7.32498 24.8249H16.555C20.395 24.8249 23.635 22.2255 24.595 18.6864" fill="url(#paint4_linear_35749_114108)"/>
<defs>
<linearGradient id="paint0_linear_35749_114108" x1="21.5752" y1="45.6598" x2="36.3397" y2="20.083" gradientUnits="userSpaceOnUse">
<stop offset="0.28" stop-color="#0669B6"/>
<stop offset="0.49" stop-color="#114A85"/>
</linearGradient>
<linearGradient id="paint1_linear_35749_114108" x1="32.1249" y1="37.4918" x2="32.1249" y2="21.9557" gradientUnits="userSpaceOnUse">
<stop offset="0.31" stop-opacity="0"/>
<stop offset="0.56" stop-opacity="0.4"/>
</linearGradient>
<linearGradient id="paint2_linear_35749_114108" x1="14.3849" y1="15.357" x2="33.7606" y2="32.7974" gradientUnits="userSpaceOnUse">
<stop stop-color="#0669B6"/>
<stop offset="0.33" stop-color="#148DD9"/>
<stop offset="0.95" stop-color="#3CC5EE"/>
</linearGradient>
<linearGradient id="paint3_linear_35749_114108" x1="26.5449" y1="31.383" x2="17.6781" y2="16.0349" gradientUnits="userSpaceOnUse">
<stop offset="0.29" stop-opacity="0"/>
<stop offset="0.42" stop-opacity="0.05"/>
<stop offset="0.64" stop-opacity="0.1"/>
<stop offset="0.87" stop-opacity="0.3"/>
</linearGradient>
<linearGradient id="paint4_linear_35749_114108" x1="24.155" y1="20.0061" x2="12.2565" y2="13.1352" gradientUnits="userSpaceOnUse">
<stop stop-color="#A1ECFF"/>
<stop offset="0.72" stop-color="#3CC5EE"/>
</linearGradient>
</defs>
</svg>
