<svg width="48" height="48" viewBox="0 0 48 48" fill="none" xmlns="http://www.w3.org/2000/svg">
<path d="M25.3276 43.8345C24.5978 44.1144 23.7479 44.0444 23.058 43.5845C21.9081 42.8246 21.2482 41.0849 22.0181 39.935L31.7467 25.4671L40.6855 35.4957C41.2954 36.1856 41.2354 37.2354 40.5455 37.8453C40.4055 37.9753 40.2455 38.0753 40.0755 38.1453L25.3276 43.8345Z" fill="url(#paint0_linear_35749_113335)"/>
<path d="M17.4884 26.5169L8.01977 12.2689C7.85979 12.019 7.76981 11.719 7.76981 11.3991C7.76981 10.4792 8.5197 9.7293 9.43957 9.7293C9.66953 9.7293 9.97949 9.6893 10.1795 9.76929L25.5773 17.0083L24.6974 18.758L17.4884 26.5169Z" fill="url(#paint1_linear_35749_113335)"/>
<path d="M23.548 43.8443C23.378 43.7843 23.218 43.6943 23.058 43.5943C21.9082 42.8344 21.5983 41.2747 22.3581 40.1248L40.8555 12.2788C41.0155 12.0289 41.1055 11.7289 41.1055 11.409C41.1055 10.719 40.6855 10.1191 40.0756 9.86917L25.3277 4.17999C25.0478 4.07 24.7478 4.01001 24.4379 4.01001C24.1279 4.01001 23.8279 4.07 23.548 4.16999L8.80009 9.85917C9.00006 9.77918 9.22002 9.72919 9.44999 9.72919C9.67996 9.72919 9.88993 9.77918 10.0899 9.85917L21.7282 15.4684C22.5781 15.9083 23.178 16.7282 23.178 17.738C23.178 18.368 22.9481 18.9379 22.5581 19.3778L8.20017 35.4955C7.59026 36.1854 7.65025 37.2353 8.34015 37.8452C8.48013 37.9751 8.64011 38.0751 8.81008 38.1451L23.558 43.8343" fill="url(#paint2_linear_35749_113335)"/>
<path d="M10.12 9.85916L21.7583 15.4684C22.4482 15.8183 22.9581 16.4282 23.1381 17.1781L41.1055 11.149C41.0155 10.5691 40.6456 10.0791 40.1157 9.85916L25.3678 4.16998C25.0878 4.05999 24.7879 4 24.4779 4C24.1679 4 23.868 4.05999 23.588 4.15998L8.84014 9.84916C9.04011 9.76917 9.26009 9.71918 9.49006 9.71918C9.72002 9.71918 9.92999 9.76917 10.13 9.84916L10.12 9.85916Z" fill="url(#paint3_linear_35749_113335)"/>
<defs>
<linearGradient id="paint0_linear_35749_113335" x1="24.7577" y1="32.3261" x2="35.9061" y2="41.6848" gradientUnits="userSpaceOnUse">
<stop stop-color="#292941"/>
<stop offset="0.22" stop-color="#114A85"/>
<stop offset="0.44" stop-color="#0A5BA0"/>
<stop offset="0.65" stop-color="#0669B6"/>
</linearGradient>
<linearGradient id="paint1_linear_35749_113335" x1="11.7292" y1="7.76958" x2="22.4277" y2="23.0574" gradientUnits="userSpaceOnUse">
<stop offset="0.22" stop-color="#114A85"/>
<stop offset="0.85" stop-color="#0669B6"/>
</linearGradient>
<linearGradient id="paint2_linear_35749_113335" x1="24.4378" y1="43.8443" x2="24.4378" y2="4.01001" gradientUnits="userSpaceOnUse">
<stop offset="0.1" stop-color="#288CD9"/>
<stop offset="0.75" stop-color="#3CC5EE"/>
</linearGradient>
<linearGradient id="paint3_linear_35749_113335" x1="23.2881" y1="4.23997" x2="26.5176" y2="16.2682" gradientUnits="userSpaceOnUse">
<stop stop-color="#A1ECFF" stop-opacity="0.9"/>
<stop offset="0.92" stop-color="#A1ECFF" stop-opacity="0"/>
</linearGradient>
</defs>
</svg>
