<?xml version="1.0" encoding="UTF-8" standalone="no"?>
<!DOCTYPE svg PUBLIC "-//W3C//DTD SVG 1.1//EN" "http://www.w3.org/Graphics/SVG/1.1/DTD/svg11.dtd">
<!-- Generated by Microsoft Visio, SVG Export Mouse.svg Page-1 -->
<svg xmlns="http://www.w3.org/2000/svg" xmlns:xlink="http://www.w3.org/1999/xlink" xmlns:ev="http://www.w3.org/2001/xml-events"
		xmlns:v="http://schemas.microsoft.com/visio/2003/SVGExtensions/" width="0.380615in" height="0.738663in"
		viewBox="0 0 27.4043 53.1837" xml:space="preserve" color-interpolation-filters="sRGB" class="st4">
	<v:documentProperties v:langID="1033" v:metric="true" v:viewMarkup="false"/>

	<style type="text/css">
	<![CDATA[
		.st1 {fill:#d6d6d6;stroke:none;stroke-width:0.75}
		.st2 {fill:#e5e5e5;stroke:none;stroke-width:0.75}
		.st3 {fill:#999999;stroke:none;stroke-width:0.75}
		.st4 {fill:none;fill-rule:evenodd;font-size:12px;overflow:visible;stroke-linecap:square;stroke-miterlimit:3}
	]]>
	</style>

	<g v:mID="0" v:index="1" v:groupContext="foregroundPage">
		<title>Page-1</title>
		<v:pageProperties v:drawingScale="1" v:pageScale="1" v:drawingUnits="0" v:shadowOffsetX="9" v:shadowOffsetY="-9"/>
		<g id="group1066-1" transform="translate(0.75,-0.75)" v:mID="1066" v:groupContext="group">
			<title>Mouse</title>
			<g id="shape1067-2" v:mID="1067" v:groupContext="shape">
				<title>Sheet.1067</title>
				<path d="M0 14.61 L0 38.85 C0 38.92 0.01 38.98 0 39.04 L0 40.29 L0 40.29 C0.06 47.39 5.83 53.18 12.94 53.18 C20.09
							 53.18 25.89 47.37 25.89 40.29 L25.82 40.29 C25.82 40.28 25.82 40.29 25.82 40.29 L25.89 40.29 L25.89
							 14.44 C25.89 7.29 20.1 1.5 12.95 1.5 C5.82 1.5 0.03 7.27 0.01 14.39 C0.01 14.43 0 14.46 0 14.49 L0 14.61
							 Z" class="st1"/>
			</g>
			<g id="shape1068-4" v:mID="1068" v:groupContext="shape" transform="translate(0.0190095,-12.793)">
				<title>Sheet.1068</title>
				<path d="M25.8 53.06 L25.89 53.06 L25.89 27.24 C25.89 20.09 20.09 14.29 12.94 14.29 C5.81 14.29 0.03 20.06 0 27.19
							 C0 27.22 0 27.25 0 27.28 L0 27.32 C0.01 41.57 11.55 53.14 25.8 53.18 C25.8 53.16 25.8 53.14 25.8 53.12
							 C25.8 53.1 25.8 53.08 25.8 53.06 Z" class="st2"/>
			</g>
			<g id="shape1069-6" v:mID="1069" v:groupContext="shape" transform="translate(9.72598,-35.5055)">
				<title>Sheet.1069</title>
				<ellipse cx="3.23566" cy="49.9481" rx="3.23566" ry="3.23566" class="st3"/>
			</g>
			<g id="shape1070-8" v:mID="1070" v:groupContext="shape" transform="translate(0.0190095,-38.693)">
				<title>Sheet.1070</title>
				<path d="M0 53.14 L0 53.18 C0 53.15 0 53.12 0 53.09 C0 53.1 0 53.12 0 53.14 Z" class="st3"/>
			</g>
			<g id="shape1071-10" v:mID="1071" v:groupContext="shape" transform="translate(0.0190095,-38.6618)">
				<title>Sheet.1071</title>
				<path d="M0 53.17 C0 53.17 0 53.18 0 53.18 L0 53.15 C0 53.16 0 53.16 0 53.17 Z" class="st2"/>
			</g>
			<g id="shape1072-12" v:mID="1072" v:groupContext="shape" transform="translate(0,-0.000202229)">
				<title>Sheet.1072</title>
				<path d="M22.7 40.29 C9.92 38.67 0 27.72 0 14.52 L0 38.85 C0 38.92 0.01 38.98 0 39.04 L0 40.29 L0 40.29 C0.06 47.39
							 5.83 53.18 12.94 53.18 C20.09 53.18 25.89 47.37 25.89 40.29 L22.7 40.29 Z" class="st1"/>
			</g>
		</g>
	</g>
</svg>
