<?xml version="1.0" encoding="UTF-8" standalone="no"?>
<!DOCTYPE svg PUBLIC "-//W3C//DTD SVG 1.1//EN" "http://www.w3.org/Graphics/SVG/1.1/DTD/svg11.dtd">
<!-- Generated by Microsoft Visio, SVG Export Photographic-Camera.svg Page-1 -->
<svg xmlns="http://www.w3.org/2000/svg" xmlns:xlink="http://www.w3.org/1999/xlink" xmlns:ev="http://www.w3.org/2001/xml-events"
		xmlns:v="http://schemas.microsoft.com/visio/2003/SVGExtensions/" width="11in" height="8.5in" viewBox="0 0 792 612"
		xml:space="preserve" color-interpolation-filters="sRGB" class="st3">
	<v:documentProperties v:langID="1033" v:viewMarkup="false">
		<v:userDefs>
			<v:ud v:nameU="msvSubprocessMaster" v:prompt="" v:val="VT4(Rectangle)"/>
			<v:ud v:nameU="msvNoAutoConnect" v:val="VT0(1):26"/>
		</v:userDefs>
	</v:documentProperties>

	<style type="text/css">
	<![CDATA[
		.st1 {fill:#013c5c;stroke:none;stroke-width:0.9375}
		.st2 {fill:#bdd7ee;stroke:none;stroke-width:0.9375}
		.st3 {fill:none;fill-rule:evenodd;font-size:12px;overflow:visible;stroke-linecap:square;stroke-miterlimit:3}
	]]>
	</style>

	<g v:mID="0" v:index="1" v:groupContext="foregroundPage">
		<v:userDefs>
			<v:ud v:nameU="msvThemeOrder" v:val="VT0(0):26"/>
		</v:userDefs>
		<title>Page-1</title>
		<v:pageProperties v:drawingScale="1" v:pageScale="1" v:drawingUnits="0" v:shadowOffsetX="9" v:shadowOffsetY="-9"/>
		<g id="group1122-1" transform="translate(18,-542.594)" v:mID="1122" v:groupContext="group">
			<title>Photographic Camera</title>
			<g id="shape1123-2" v:mID="1123" v:groupContext="shape" transform="translate(0,1172.59) scale(1,-1)">
				<title>path3773</title>
				<path d="M27.68 592.23 L27.68 596.18 L37.57 596.18 L37.57 612 L13.84 612 L13.84 596.18 L23.73 596.18 L23.73 592.23
							 L9.89 592.23 L9.89 594.2 L3.95 594.2 L3.95 592.23 L0 592.23 L0 560.59 L51.41 560.59 L51.41 592.23 L27.68
							 592.23 Z" class="st1"/>
			</g>
			<g id="shape1124-4" v:mID="1124" v:groupContext="shape" transform="translate(41.5217,1196.32) scale(1,-1)">
				<title>path3777</title>
				<path d="M5.93 610.02 L0 610.02 L0 612 L5.93 612 L5.93 610.02 Z" class="st2"/>
			</g>
			<g id="shape1125-6" v:mID="1125" v:groupContext="shape" transform="translate(15.8185,1198.3) scale(1,-1)">
				<title>path3781</title>
				<path d="M9.88 592.23 C4.42 592.23 0 596.65 0 602.11 C0 607.57 4.42 612 9.88 612 C15.35 612 19.77 607.57 19.77 602.11
							 C19.77 596.65 15.35 592.23 9.88 592.23 Z" class="st2"/>
			</g>
			<g id="shape1126-8" v:mID="1126" v:groupContext="shape" transform="translate(15.8179,1174.57) scale(1,-1)">
				<title>path3785</title>
				<path d="M0 600.14 L0 612 L19.77 612 L19.77 600.14 L0 600.14 Z" class="st2"/>
			</g>
		</g>
	</g>
</svg>
