<svg viewBox="0 0 16 16" class="fxs-portal-svg" role="presentation" focusable="false" xmlns:svg="http://www.w3.org/2000/svg" xmlns:xlink="http://www.w3.org/1999/xlink" id="FxSymbol0-095" data-type="88"><g><title></title><circle cx="8" cy="8" r="8" class="msportalfx-svg-c35" fill="#015cda"></circle><path d="M7.821 3.184h-.054c-1.119 0-2.157.394-2.996 1.017L3.074 2.504v4.467H7.54L5.855 5.285a3.162 3.162 0 0 1 1.966-.661c1.676 0 3.066 1.179 3.358 2.72h1.474a4.88 4.88 0 0 0-4.832-4.16zm5.053 5.833H8.461l.022.012h-.022l1.633 1.633c-.554.388-1.215.595-1.966.595-1.512 0-2.799-1.022-3.239-2.4H3.343a4.888 4.888 0 0 0 4.784 3.84h.053c1.102 0 2.127-.38 2.961-.987l1.786 1.786V9.017h-.053z" class="msportalfx-svg-c01" fill="#ffffff"></path></g><defs>
<linearGradient id="a" x1="-1267.23" y1="3.07" x2="-1267.52" y2="14.64" gradientTransform="matrix(-1 0 0 1 -1256.13 0)" gradientUnits="userSpaceOnUse"><stop offset="0" stop-color="#32d4f5"></stop><stop offset=".23" stop-color="#31d0f1"></stop><stop offset=".46" stop-color="#2cc3e6"></stop><stop offset=".7" stop-color="#25afd4"></stop><stop offset=".94" stop-color="#1c92ba"></stop><stop offset="1" stop-color="#198ab3"></stop></linearGradient>
<linearGradient id="b" x1="6.05" y1="11.51" x2="6.05" y2="3" gradientUnits="userSpaceOnUse"><stop offset="0" stop-color="#0078d4"></stop><stop offset=".82" stop-color="#5ea0ef"></stop></linearGradient>
<linearGradient id="c" x1="10.51" y1="6.82" x2="7.93" y2="10.5" gradientUnits="userSpaceOnUse"><stop offset="0" stop-color="#005ba1"></stop><stop offset=".14" stop-color="#035da3" stop-opacity=".97"></stop><stop offset=".3" stop-color="#0b63aa" stop-opacity=".88"></stop><stop offset=".47" stop-color="#196eb6" stop-opacity=".73"></stop><stop offset=".65" stop-color="#2d7cc6" stop-opacity=".52"></stop><stop offset=".84" stop-color="#468edb" stop-opacity=".26"></stop><stop offset="1" stop-color="#5ea0ef" stop-opacity="0"></stop></linearGradient>
</defs>
</svg>