<?xml version="1.0" encoding="UTF-8" standalone="no"?>
<!DOCTYPE svg PUBLIC "-//W3C//DTD SVG 1.1//EN" "http://www.w3.org/Graphics/SVG/1.1/DTD/svg11.dtd">
<!-- Generated by Microsoft Visio, SVG Export Access-Control.svg Page-1 -->
<svg xmlns="http://www.w3.org/2000/svg" xmlns:xlink="http://www.w3.org/1999/xlink" xmlns:ev="http://www.w3.org/2001/xml-events"
		xmlns:v="http://schemas.microsoft.com/visio/2003/SVGExtensions/" width="1.34146in" height="0.994901in"
		viewBox="0 0 96.585 71.6328" xml:space="preserve" color-interpolation-filters="sRGB" class="st13">
	<v:documentProperties v:langID="1033" v:metric="true" v:viewMarkup="false"/>

	<style type="text/css">
	<![CDATA[
		.st1 {stroke:#dfe1e5;stroke-linecap:round;stroke-linejoin:round;stroke-width:1.61998}
		.st2 {fill:#0052cc;stroke:none;stroke-linecap:round;stroke-linejoin:round;stroke-width:0.75}
		.st3 {fill:#f4f5f7;stroke:none;stroke-linecap:round;stroke-linejoin:round;stroke-width:0.75}
		.st4 {fill:#ebecf0;stroke:none;stroke-linecap:round;stroke-linejoin:round;stroke-width:0.75}
		.st5 {fill:#0065ff;stroke:none;stroke-linecap:round;stroke-linejoin:round;stroke-width:0.75}
		.st6 {fill:#dfe1e5;stroke:none;stroke-linecap:round;stroke-linejoin:round;stroke-width:0.75}
		.st7 {stroke:#dfe1e5;stroke-linecap:round;stroke-linejoin:round;stroke-width:2.03998}
		.st8 {stroke:#0052cc;stroke-linecap:round;stroke-linejoin:round;stroke-width:1.79998}
		.st9 {fill:#ff991f;stroke:none;stroke-linecap:round;stroke-linejoin:round;stroke-width:0.75}
		.st10 {fill:#4c9aff;stroke:none;stroke-linecap:round;stroke-linejoin:round;stroke-width:0.75}
		.st11 {fill:#ffab00;stroke:none;stroke-linecap:round;stroke-linejoin:round;stroke-width:0.75}
		.st12 {fill:#fafbfc;stroke:none;stroke-linecap:round;stroke-linejoin:round;stroke-width:0.75}
		.st13 {fill:none;fill-rule:evenodd;font-size:12px;overflow:visible;stroke-linecap:square;stroke-miterlimit:3}
	]]>
	</style>

	<g v:mID="0" v:index="1" v:groupContext="foregroundPage">
		<title>Page-1</title>
		<v:pageProperties v:drawingScale="0.0393701" v:pageScale="0.0393701" v:drawingUnits="24" v:shadowOffsetX="9"
				v:shadowOffsetY="-9"/>
		<g id="group995-1" v:mID="995" v:groupContext="group">
			<title>Access Control</title>
			<g id="shape996-2" v:mID="996" v:groupContext="shape" transform="translate(6.92403,-46.2204)">
				<title>Sheet.996</title>
				<path d="M-0 71.63 L14.41 71.63" class="st1"/>
			</g>
			<g id="shape997-5" v:mID="997" v:groupContext="shape" transform="translate(6.92403,-35.5704)">
				<title>Sheet.997</title>
				<path d="M-0 71.63 L24.08 71.63" class="st1"/>
			</g>
			<g id="shape998-8" v:mID="998" v:groupContext="shape" transform="translate(6.92403,-39.0852)">
				<title>Sheet.998</title>
				<path d="M-0 71.63 L14.41 71.63" class="st1"/>
			</g>
			<g id="shape999-11" v:mID="999" v:groupContext="shape" transform="translate(6.92403,-32.2664)">
				<title>Sheet.999</title>
				<path d="M-0 71.63 L14.41 71.63" class="st1"/>
			</g>
			<g id="shape1000-14" v:mID="1000" v:groupContext="shape" transform="translate(6.92403,-22.8114)">
				<title>Sheet.1000</title>
				<path d="M-0 71.63 L24.08 71.63" class="st1"/>
			</g>
			<g id="shape1001-17" v:mID="1001" v:groupContext="shape" transform="translate(6.92403,-19.402)">
				<title>Sheet.1001</title>
				<path d="M-0 71.63 L24.08 71.63" class="st1"/>
			</g>
			<g id="shape1002-20" v:mID="1002" v:groupContext="shape" transform="translate(6.92403,-15.9926)">
				<title>Sheet.1002</title>
				<path d="M-0 71.63 L14.41 71.63" class="st1"/>
			</g>
			<g id="shape1003-23" v:mID="1003" v:groupContext="shape" transform="translate(41.8088,-52.4603)">
				<title>Sheet.1003</title>
				<path d="M4.45 71.48 C1.35 70.74 -0.58 67.64 0.16 64.55 L2.9 52.88 C2.93 52.64 3.18 52.46 3.43 52.46 L5.71 52.6 L14.22
							 55.1 L11.4 67.19 L11.4 67.19 C10.67 70.28 7.54 72.21 4.45 71.48 Z" class="st2"/>
			</g>
			<g id="shape1004-25" v:mID="1004" v:groupContext="shape" transform="translate(2.10884,-1.3005)">
				<title>Sheet.1004</title>
				<path d="M3.66 10.19 L90.86 10.19 C92.86 10.19 94.48 11.81 94.48 13.85 L94.48 67.98 C94.48 69.98 92.86 71.63 90.86
							 71.63 L3.66 71.63 C1.62 71.63 0 69.98 0 67.98 L0 13.85 C0 11.81 1.62 10.19 3.66 10.19 Z" class="st3"/>
			</g>
			<g id="shape1005-27" v:mID="1005" v:groupContext="shape">
				<title>Sheet.1005</title>
				<path d="M0 8.89 L49.35 8.89 L49.35 71.63 L0 71.63 L0 8.89 Z" class="st4"/>
			</g>
			<g id="shape1006-29" v:mID="1006" v:groupContext="shape" transform="translate(8.25963,-14.5515)">
				<title>Sheet.1006</title>
				<path d="M34.94 54.16 C34.94 63.79 27.13 71.63 17.47 71.63 C7.8 71.63 0 63.79 0 54.16 C0 44.5 7.8 36.66 17.47 36.66
							 C27.13 36.66 34.94 44.5 34.94 54.16 Z" class="st5"/>
			</g>
			<g id="shape1007-31" v:mID="1007" v:groupContext="shape" transform="translate(40.8061,-52.9647)">
				<title>Sheet.1007</title>
				<path d="M9.77 71.31 C12.9 70.19 14.52 66.74 13.43 63.61 L12.83 61.86 L0 61.86 L2.04 67.66 L2.04 67.66 C3.16 70.82
							 6.61 72.44 9.77 71.31 Z" class="st6"/>
			</g>
			<g id="shape1008-33" v:mID="1008" v:groupContext="shape" transform="translate(56.9036,-48.4348)">
				<title>Sheet.1008</title>
				<path d="M-0 71.63 L18 71.63" class="st7"/>
			</g>
			<g id="shape1009-36" v:mID="1009" v:groupContext="shape" transform="translate(56.9036,-35.1135)">
				<title>Sheet.1009</title>
				<path d="M-0 71.63 L30.12 71.63" class="st7"/>
			</g>
			<g id="shape1010-39" v:mID="1010" v:groupContext="shape" transform="translate(56.9036,-39.507)">
				<title>Sheet.1010</title>
				<path d="M-0 71.63 L18 71.63" class="st7"/>
			</g>
			<g id="shape1011-42" v:mID="1011" v:groupContext="shape" transform="translate(56.9036,-31.0011)">
				<title>Sheet.1011</title>
				<path d="M-0 71.63 L18 71.63" class="st7"/>
			</g>
			<g id="shape1012-45" v:mID="1012" v:groupContext="shape" transform="translate(56.9036,-19.156)">
				<title>Sheet.1012</title>
				<path d="M-0 71.63 L30.12 71.63" class="st7"/>
			</g>
			<g id="shape1013-48" v:mID="1013" v:groupContext="shape" transform="translate(56.9036,-14.9382)">
				<title>Sheet.1013</title>
				<path d="M-0 71.63 L30.12 71.63" class="st7"/>
			</g>
			<g id="shape1014-51" v:mID="1014" v:groupContext="shape" transform="translate(47.5187,-56.5186)">
				<title>Sheet.1014</title>
				<path d="M2.99 66.92 C4.25 67.24 5.03 68.54 4.71 69.84 C4.39 71.11 3.09 71.88 1.79 71.56 C0.53 71.25 -0.25 69.95
							 0.07 68.64 C0.39 67.38 1.69 66.61 2.99 66.92" class="st8"/>
			</g>
			<g id="shape1015-54" v:mID="1015" v:groupContext="shape" transform="translate(8.25963,-14.5515)">
				<title>Sheet.1015</title>
				<path d="M17.15 36.66 C26.82 36.48 34.76 44.15 34.97 53.81 C35.15 63.51 27.49 71.46 17.82 71.63 C8.12 71.81 0.18
							 64.18 0 54.48 C-0.18 44.81 7.45 36.87 17.15 36.66 Z" class="st5"/>
			</g>
			<g id="shape1016-56" v:mID="1016" v:groupContext="shape" transform="translate(18.4172,-30.1926)">
				<title>Sheet.1016</title>
				<path d="M13.95 64.36 C14.13 68.19 11.14 71.46 7.28 71.63 C3.44 71.81 0.18 68.82 0 64.95 C-0.14 61.12 2.81 57.85
							 6.68 57.68 C10.54 57.5 13.78 60.49 13.95 64.36 Z" class="st2"/>
			</g>
			<g id="shape1017-58" v:mID="1017" v:groupContext="shape" transform="translate(12.161,-14.5515)">
				<title>Sheet.1017</title>
				<path d="M27.13 65.17 C21.23 54.55 5.94 54.55 0 65.17 C3.41 69.35 8.51 71.74 13.92 71.63 C19.05 71.53 23.9 69.17
							 27.13 65.17 Z" class="st2"/>
			</g>
			<g id="shape1018-60" v:mID="1018" v:groupContext="shape" transform="translate(6.89533,-13.1872)">
				<title>Sheet.1018</title>
				<path d="M18.83 35.3 C25.9 35.3 32.29 39.58 35 46.09 C37.71 52.62 36.2 60.15 31.2 65.14 C26.21 70.16 18.69 71.64
							 12.15 68.93 C5.62 66.23 1.36 59.86 1.36 52.8 C1.36 43.13 9.17 35.3 18.83 35.3 ZM18.83 33.96 C11.21 33.96
							 4.35 38.53 1.43 45.59 C-1.48 52.62 0.13 60.71 5.51 66.12 C10.89 71.5 19.01 73.12 26.04 70.2 C33.07 67.28
							 37.67 60.39 37.67 52.8 C37.67 42.4 29.24 33.96 18.83 33.96 Z" class="st4"/>
			</g>
			<g id="shape1019-62" v:mID="1019" v:groupContext="shape" transform="translate(6.92403,-46.2204)">
				<title>Sheet.1019</title>
				<path d="M-0 71.63 L14.41 71.63" class="st1"/>
			</g>
			<g id="shape1020-65" v:mID="1020" v:groupContext="shape" transform="translate(6.92403,-35.5704)">
				<title>Sheet.1020</title>
				<path d="M-0 71.63 L24.08 71.63" class="st1"/>
			</g>
			<g id="shape1021-68" v:mID="1021" v:groupContext="shape" transform="translate(6.92403,-39.0852)">
				<title>Sheet.1021</title>
				<path d="M-0 71.63 L14.41 71.63" class="st1"/>
			</g>
			<g id="shape1022-71" v:mID="1022" v:groupContext="shape" transform="translate(6.92403,-32.2664)">
				<title>Sheet.1022</title>
				<path d="M-0 71.63 L14.41 71.63" class="st1"/>
			</g>
			<g id="shape1023-74" v:mID="1023" v:groupContext="shape" transform="translate(6.92403,-22.8114)">
				<title>Sheet.1023</title>
				<path d="M-0 71.63 L24.08 71.63" class="st1"/>
			</g>
			<g id="shape1024-77" v:mID="1024" v:groupContext="shape" transform="translate(6.92403,-19.402)">
				<title>Sheet.1024</title>
				<path d="M-0 71.63 L24.08 71.63" class="st1"/>
			</g>
			<g id="shape1025-80" v:mID="1025" v:groupContext="shape" transform="translate(6.92403,-15.9926)">
				<title>Sheet.1025</title>
				<path d="M-0 71.63 L14.41 71.63" class="st1"/>
			</g>
			<g id="shape1026-83" v:mID="1026" v:groupContext="shape" transform="translate(41.8088,-52.4603)">
				<title>Sheet.1026</title>
				<path d="M4.45 71.48 C1.35 70.74 -0.58 67.64 0.16 64.55 L2.9 52.88 C2.93 52.64 3.18 52.46 3.43 52.46 L5.71 52.6 L14.22
							 55.1 L11.4 67.19 L11.4 67.19 C10.67 70.28 7.54 72.21 4.45 71.48 Z" class="st9"/>
			</g>
			<g id="shape1027-85" v:mID="1027" v:groupContext="shape" transform="translate(2.10884,-1.3005)">
				<title>Sheet.1027</title>
				<path d="M3.66 10.19 L90.86 10.19 C92.86 10.19 94.48 11.81 94.48 13.85 L94.48 67.98 C94.48 69.98 92.86 71.63 90.86
							 71.63 L3.66 71.63 C1.62 71.63 0 69.98 0 67.98 L0 13.85 C0 11.81 1.62 10.19 3.66 10.19 Z" class="st3"/>
			</g>
			<g id="shape1028-87" v:mID="1028" v:groupContext="shape">
				<title>Sheet.1028</title>
				<path d="M0 8.89 L49.35 8.89 L49.35 71.63 L0 71.63 L0 8.89 Z" class="st10"/>
			</g>
			<g id="shape1029-89" v:mID="1029" v:groupContext="shape" transform="translate(40.8061,-52.9647)">
				<title>Sheet.1029</title>
				<path d="M9.77 71.31 C12.9 70.19 14.52 66.74 13.43 63.61 L12.83 61.86 L0 61.86 L2.04 67.66 L2.04 67.66 C3.16 70.82
							 6.61 72.44 9.77 71.31 Z" class="st6"/>
			</g>
			<g id="shape1030-91" v:mID="1030" v:groupContext="shape" transform="translate(56.9036,-47.9075)">
				<title>Sheet.1030</title>
				<path d="M0 70.54 L18.03 70.54 L18.03 71.63 L0 71.63 L0 70.54 Z" class="st6"/>
			</g>
			<g id="shape1031-93" v:mID="1031" v:groupContext="shape" transform="translate(56.9036,-34.5862)">
				<title>Sheet.1031</title>
				<path d="M0 70.54 L30.12 70.54 L30.12 71.63 L0 71.63 L0 70.54 Z" class="st6"/>
			</g>
			<g id="shape1032-95" v:mID="1032" v:groupContext="shape" transform="translate(56.9036,-38.9446)">
				<title>Sheet.1032</title>
				<path d="M0 70.54 L18.03 70.54 L18.03 71.63 L0 71.63 L0 70.54 Z" class="st6"/>
			</g>
			<g id="shape1033-97" v:mID="1033" v:groupContext="shape" transform="translate(56.9036,-30.4387)">
				<title>Sheet.1033</title>
				<path d="M0 70.54 L18.03 70.54 L18.03 71.63 L0 71.63 L0 70.54 Z" class="st6"/>
			</g>
			<g id="shape1034-99" v:mID="1034" v:groupContext="shape" transform="translate(56.9036,-18.6288)">
				<title>Sheet.1034</title>
				<path d="M0 70.54 L30.12 70.54 L30.12 71.63 L0 71.63 L0 70.54 Z" class="st6"/>
			</g>
			<g id="shape1035-101" v:mID="1035" v:groupContext="shape" transform="translate(56.9036,-14.3758)">
				<title>Sheet.1035</title>
				<path d="M0 70.54 L30.12 70.54 L30.12 71.63 L0 71.63 L0 70.54 Z" class="st6"/>
			</g>
			<g id="shape1036-103" v:mID="1036" v:groupContext="shape" transform="translate(43.9879,-52.5064)">
				<title>Sheet.1036</title>
				<path d="M3.53 52.65 L13.69 55 C13.97 55.07 14.15 55.39 14.08 55.67 L11.37 67.23 C10.63 70.29 7.54 72.19 4.45 71.49
							 C1.35 70.75 -0.58 67.66 0.16 64.53 L2.86 53.03 C2.93 52.75 3.22 52.58 3.53 52.65 Z" class="st11"/>
			</g>
			<g id="shape1037-105" v:mID="1037" v:groupContext="shape" transform="translate(47.0442,-56.0269)">
				<title>Sheet.1037</title>
				<path d="M2.87 71.63 C1 71.63 -0.37 69.88 0.09 68.05 C0.69 65.76 3.67 65.13 5.11 66.99 C6.59 68.86 5.26 71.6 2.87
							 71.63 ZM2.87 66.85 C0.44 66.85 0.26 70.37 2.65 70.68 C5.04 70.97 5.71 67.49 3.36 66.89 C3.18 66.85 3.04
							 66.82 2.87 66.85 Z" class="st2"/>
			</g>
			<g id="shape1038-107" v:mID="1038" v:groupContext="shape" transform="translate(8.25963,-14.5515)">
				<title>Sheet.1038</title>
				<path d="M34.94 54.16 C34.94 63.79 27.13 71.63 17.47 71.63 C7.8 71.63 0 63.79 0 54.16 C0 44.5 7.8 36.66 17.47 36.66
							 C27.13 36.66 34.94 44.5 34.94 54.16 Z" class="st12"/>
			</g>
			<g id="shape1039-109" v:mID="1039" v:groupContext="shape" transform="translate(11.9853,-14.4812)">
				<title>Sheet.1039</title>
				<path d="M19.93 59.19 C23.06 56.59 24.22 52.3 22.85 48.43 C21.48 44.6 17.82 42.04 13.74 42.04 C4.71 42 0.53 53.29
							 7.45 59.16 C8.58 60.1 9.24 61.55 9.28 63.02 C9.28 65.1 8.01 66.96 6.12 67.73 C3.83 68.68 1.79 69.98
							 0 71.63 L27.45 71.63 C25.66 69.98 23.62 68.68 21.37 67.77 C19.44 66.99 18.17 65.13 18.17 63.02 C18.17
							 61.55 18.8 60.14 19.93 59.19 Z" class="st11"/>
			</g>
			<g id="shape1040-111" v:mID="1040" v:groupContext="shape" transform="translate(14.7588,-20.5971)">
				<title>Sheet.1040</title>
				<path d="M1.44 71.63 C0.35 71.63 -0.35 70.44 0.18 69.49 C0.78 68.29 1.13 66.99 1.09 65.66 L1.09 58.45 C1.09 53.07
							 5.49 48.36 10.9 48.36 C13.68 48.33 16.28 49.49 18.14 51.49 C19.86 53.39 20.81 55.89 20.78 58.45 L20.78
							 65.66 C20.78 66.99 21.09 68.29 21.72 69.49 C22.25 70.44 21.55 71.63 20.42 71.63 L1.44 71.63 Z"
						class="st11"/>
			</g>
		</g>
	</g>
</svg>
