<svg viewBox="0 0 18 18" data-islogo="true" class="" role="presentation" focusable="false" xmlns:svg="http://www.w3.org/2000/svg" xmlns:xlink="http://www.w3.org/1999/xlink" id="FxSymbol0-022" data-type="336"><g><path d="M17.5 9.44a3.85 3.85 0 0 0-3.32-3.74A4.85 4.85 0 0 0 9.23 1a5 5 0 0 0-4.75 3.29 4.58 4.58 0 0 0-4 4.46 4.66 4.66 0 0 0 4.79 4.53 3 3 0 0 0 .42 0h7.75a.64.64 0 0 0 .2 0 3.9 3.9 0 0 0 3.86-3.84z" fill="url(#9b4b971a-fb5a-4299-ab97-14581e9298eb)"></path><path d="M14.53 15.14l-2 2.14a.26.26 0 0 1-.44-.14l-1.21-5.9A.26.26 0 0 1 11 11l1.32-.54a.26.26 0 0 1 .33.13l1.95 4.3a.24.24 0 0 1-.07.25z" fill="#37c2b1"></path><path d="M8 15.14l2 2.14a.26.26 0 0 0 .44-.14l1.21-5.9a.26.26 0 0 0-.15-.28l-1.32-.54a.26.26 0 0 0-.33.13l-1.95 4.3a.24.24 0 0 0 .1.29z" fill="#42e8ca"></path><path d="M11.58 6l.26-.22a.41.41 0 0 1 .57.05.37.37 0 0 1 .07.12l.12.32a.42.42 0 0 0 .45.26l.33-.06a.41.41 0 0 1 .47.33.33.33 0 0 1 0 .14l-.06.33a.42.42 0 0 0 .26.45l.32.11a.42.42 0 0 1 .24.53.75.75 0 0 1-.07.12l-.22.25a.42.42 0 0 0 0 .52l.22.26a.4.4 0 0 1-.06.57.41.41 0 0 1-.11.07l-.32.12a.4.4 0 0 0-.26.45l.06.33a.39.39 0 0 1-.33.46.33.33 0 0 1-.14 0h-.33a.4.4 0 0 0-.45.26l-.12.31a.4.4 0 0 1-.52.24.37.37 0 0 1-.12-.07l-.25-.25a.4.4 0 0 0-.52 0l-.26.21a.4.4 0 0 1-.57-.05.24.24 0 0 1-.07-.12l-.12-.31a.39.39 0 0 0-.45-.26l-.33.06a.41.41 0 0 1-.47-.34.29.29 0 0 1 0-.13l.06-.33a.4.4 0 0 0-.26-.45l-.31-.12a.42.42 0 0 1-.29-.5.75.75 0 0 1 .07-.12l.22-.26a.42.42 0 0 0 0-.52l-.22-.25a.41.41 0 0 1 .06-.58.23.23 0 0 1 .12-.06l.31-.12a.42.42 0 0 0 .26-.45L8.8 7a.41.41 0 0 1 .33-.47h.14l.33.06a.41.41 0 0 0 .45-.26l.12-.33a.41.41 0 0 1 .52-.24l.12.07.26.22a.41.41 0 0 0 .51-.05z" fill="#005ba1"></path><circle cx="11.33" cy="9.02" r="2.36" fill="#ffca00"></circle></g><defs>
<linearGradient id="9b4b971a-fb5a-4299-ab97-14581e9298eb" x1="9" y1="-.88" x2="9" y2="16.01" gradientUnits="userSpaceOnUse"><stop offset=".22" stop-color="#32d4f5"></stop><stop offset=".43" stop-color="#31d1f2"></stop><stop offset=".6" stop-color="#2dc6e9"></stop><stop offset=".76" stop-color="#28b5d9"></stop><stop offset=".91" stop-color="#1f9dc4"></stop><stop offset="1" stop-color="#198ab3"></stop></linearGradient>
</defs>
</svg>