<svg viewBox="0 0 18 18" data-islogo="true" class="" role="presentation" focusable="false" xmlns:svg="http://www.w3.org/2000/svg" xmlns:xlink="http://www.w3.org/1999/xlink" id="FxSymbol0-103" data-type="42"><g><path d="M17.5 2.5v10.83a.58.58 0 0 1-.58.58H12.4a.15.15 0 0 0-.15.14v1.75a.28.28 0 0 1-.45.23l-2.72-2.09h-8a.58.58 0 0 1-.58-.58V2.5a.58.58 0 0 1 .58-.59h15.84a.58.58 0 0 1 .58.59z" fill="url(#a51c5162-ca9f-41ce-8a38-7edecf47093d)"></path><path d="M9.54 9.63H8.38A.36.36 0 0 1 8 9.29l-.2-5.86a.35.35 0 0 1 .35-.36h1.7a.35.35 0 0 1 .35.37L9.89 9.3a.35.35 0 0 1-.35.33z" class="msportalfx-svg-c01" fill="#ffffff"></path><rect x="8.13" y="10.62" width="1.69" height="1.69" rx=".61" class="msportalfx-svg-c01" fill="#ffffff"></rect></g><defs>
<linearGradient id="a" x1="9" y1="16.39" x2="9" y2="-1.94" gradientUnits="userSpaceOnUse"><stop offset="0" stop-color="#0078d4"></stop><stop offset=".16" stop-color="#1380da"></stop><stop offset=".53" stop-color="#3c91e5"></stop><stop offset=".82" stop-color="#559cec"></stop><stop offset="1" stop-color="#5ea0ef"></stop></linearGradient>
<linearGradient id="b" x1="9.88" y1="7.11" x2="9.99" y2="17.27" gradientUnits="userSpaceOnUse"><stop offset="0" stop-color="#32d4f5"></stop><stop offset=".32" stop-color="#31d1f3"></stop><stop offset=".53" stop-color="#2ec9eb"></stop><stop offset=".7" stop-color="#29bade"></stop><stop offset=".86" stop-color="#22a5cb"></stop><stop offset="1" stop-color="#198ab3"></stop><stop offset="1" stop-color="#198ab3"></stop></linearGradient>
<radialGradient id="c" cx="9.43" cy="7.03" r="7.27" gradientUnits="userSpaceOnUse"><stop offset="0" stop-color="#f2f2f2"></stop><stop offset=".58" stop-color="#eee"></stop><stop offset="1" stop-color="#e6e6e6"></stop></radialGradient>
<linearGradient id="a51c5162-ca9f-41ce-8a38-7edecf47093d" x1="9" y1="17.2" x2="9" y2="-3.28" gradientUnits="userSpaceOnUse"><stop offset="0" stop-color="#5e9624"></stop><stop offset=".18" stop-color="#629c25"></stop><stop offset=".44" stop-color="#6dae2a"></stop><stop offset=".73" stop-color="#7fcb30"></stop><stop offset=".82" stop-color="#86d633"></stop></linearGradient>
</defs>
</svg>