<?xml version="1.0" encoding="UTF-8" standalone="no"?>
<!DOCTYPE svg PUBLIC "-//W3C//DTD SVG 1.1//EN" "http://www.w3.org/Graphics/SVG/1.1/DTD/svg11.dtd">
<!-- Generated by Microsoft Visio, SVG Export Application-Gateway.svg Page-1 -->
<svg xmlns="http://www.w3.org/2000/svg" xmlns:xlink="http://www.w3.org/1999/xlink" xmlns:ev="http://www.w3.org/2001/xml-events"
		xmlns:v="http://schemas.microsoft.com/visio/2003/SVGExtensions/" width="1.04029in" height="1.03889in"
		viewBox="0 0 74.9007 74.8" xml:space="preserve" color-interpolation-filters="sRGB" class="st5">
	<title>MIS: Enterprise Mobility and Security</title>
	<desc>This package contains stencils that will represent Enterprise Mobility and Security</desc>
	<v:documentProperties v:langID="1033" v:metric="true" v:viewMarkup="false"/>

	<style type="text/css">
	<![CDATA[
		.st1 {fill:#7fba00;stroke:none;stroke-width:12.24}
		.st2 {fill:#ffffff;stroke:none;stroke-width:12.24}
		.st3 {fill:#ffffff;fill-opacity:0.15;stroke:none;stroke-width:12.24}
		.st4 {fill:#59b4d9;stroke:none;stroke-width:12.24}
		.st5 {fill:none;fill-rule:evenodd;font-size:12px;overflow:visible;stroke-linecap:square;stroke-miterlimit:3}
	]]>
	</style>

	<g v:mID="0" v:index="1" v:groupContext="foregroundPage">
		<title>Page-1</title>
		<v:pageProperties v:drawingScale="0.0393701" v:pageScale="0.0393701" v:drawingUnits="24" v:shadowOffsetX="9"
				v:shadowOffsetY="-9"/>
		<g id="group5-1" transform="translate(12.24,-12.24)" v:mID="5" v:groupContext="group">
			<title>Sheet.5</title>
			<g id="shape6-2" v:mID="6" v:groupContext="shape">
				<title>Sheet.6</title>
				<path d="M25.16 74.8 C23.95 74.8 22.74 74.3 21.84 73.39 L1.41 52.96 C0.5 52.06 0 50.85 0 49.64 C0 48.43 0.5 47.22
							 1.41 46.32 L21.84 25.89 C22.74 24.98 23.95 24.48 25.16 24.48 C26.37 24.48 27.58 24.98 28.48 25.89 L49.01
							 46.42 C49.92 47.33 50.42 48.43 50.42 49.74 C50.42 50.95 49.92 52.16 49.01 53.06 L28.48 73.39 C27.58
							 74.3 26.37 74.8 25.16 74.8 Z" class="st1"/>
			</g>
			<g id="shape7-4" v:mID="7" v:groupContext="shape" transform="translate(16.4416,-30.0179)">
				<title>Sheet.7</title>
				<path d="M13.49 73.2 C12.08 74.28 10.42 74.8 8.78 74.8 C6.44 74.8 4.13 73.75 2.61 71.76 C0 68.35 0.64 63.48 4.05
							 60.88 C5.46 59.79 7.12 59.28 8.76 59.28 C11.1 59.28 13.41 60.33 14.93 62.32 C17.54 65.73 16.89 70.6
							 13.49 73.2 Z" class="st2"/>
			</g>
			<g id="shape8-6" v:mID="8" v:groupContext="shape" transform="translate(-2.59792E-13,-10.2653)">
				<title>Sheet.8</title>
				<path d="M28.48 36.15 C27.58 35.25 26.37 34.75 25.16 34.75 C23.95 34.75 22.74 35.25 21.84 36.15 L1.41 56.58 C0.5
							 57.49 0 58.7 0 59.91 C0 61.11 0.5 62.32 1.41 63.23 L12.98 74.8 L34.82 42.49 L28.48 36.15 Z"
						class="st3"/>
			</g>
			<g id="shape9-8" v:mID="9" v:groupContext="shape" transform="translate(18.5178,-4.42816)">
				<title>Sheet.9</title>
				<path d="M6.64 74.8 L13.28 68.16 L8.55 68.16 L8.55 48.18 L4.63 48.18 L4.63 68.16 L0 68.16 L6.64 74.8 Z" class="st2"/>
			</g>
			<g id="shape10-10" v:mID="10" v:groupContext="shape" transform="translate(24.9638,-16.6257)">
				<title>Sheet.10</title>
				<path d="M14.62 74.8 L14.62 65.41 L11.34 68.68 L2.85 60.18 L0 63.03 L8.5 71.53 L5.22 74.8 L14.62 74.8 Z"
						class="st2"/>
			</g>
			<g id="shape11-12" v:mID="11" v:groupContext="shape" transform="translate(10.7534,-16.5905)">
				<title>Sheet.11</title>
				<path d="M0 74.8 L9.39 74.8 L6.12 71.53 L14.86 62.79 L12.01 59.94 L3.27 68.68 L0 65.41 L0 74.8 Z" class="st2"/>
			</g>
			<g id="shape12-14" v:mID="12" v:groupContext="shape" transform="translate(17.607,-31.0485)">
				<title>Sheet.12</title>
				<path d="M11.69 73.41 C10.47 74.35 9.04 74.8 7.61 74.8 C5.59 74.8 3.58 73.89 2.26 72.16 C0 69.21 0.56 64.99 3.51
							 62.73 C4.73 61.79 6.17 61.34 7.6 61.34 C9.62 61.34 11.62 62.25 12.95 63.98 C15.21 66.93 14.65 71.15
							 11.69 73.41 Z" class="st4"/>
			</g>
			<g id="shape13-16" v:mID="13" v:groupContext="shape" transform="translate(19.3621,-32.4413)">
				<title>Sheet.13</title>
				<path d="M8.7 70.64 C9.19 71.28 10.1 71.4 10.73 70.91 C10.77 70.89 10.79 70.86 10.82 70.83 C11.47 71.29 11.92 71.59
							 12.17 71.76 C12.25 71.57 12.3 71.38 12.35 71.19 C12.09 70.99 11.72 70.71 11.2 70.28 C11.37 69.83 11.32
							 69.3 11 68.89 C10.55 68.31 9.76 68.16 9.14 68.52 C8.45 67.9 7.7 67.2 6.9 66.41 C9.37 65.08 11.12 65.28
							 11.12 65.28 C10.83 64.9 10.5 64.57 10.15 64.28 C9.11 64.12 7.49 64.14 5.65 65.12 L5.65 65.12 C5.03 64.47
							 4.4 63.78 3.77 63.04 C3.46 63.14 3.16 63.26 2.87 63.4 C3.35 64.18 3.98 64.95 4.69 65.71 C4.69 65.71
							 4.7 65.71 4.7 65.72 C4.1 66.13 3.44 66.69 2.83 67.34 C2.75 67.42 2.68 67.5 2.6 67.59 C2.24 67.51 1.85
							 67.53 1.49 67.66 C0.88 66.35 0.93 65.29 1.03 64.75 C0.76 65.02 0.52 65.31 0.3 65.62 C0.14 66.27 0.1
							 67.21 0.57 68.34 C0.03 69.05 0 70.06 0.57 70.81 C0.62 70.87 0.67 70.93 0.72 70.98 C0.47 71.83 0.36 72.64
							 0.33 73.34 C0.39 73.43 0.39 73.5 0.45 73.58 C0.78 74 1.18 74.35 1.57 74.66 C1.52 73.92 1.58 72.83 2.03
							 71.6 C2.35 71.62 2.67 71.57 2.97 71.45 C3.15 71.6 3.33 71.75 3.52 71.91 C4.18 72.43 4.84 72.84 5.48
							 73.16 C5.45 73.48 5.53 73.82 5.74 74.1 C6.19 74.69 7.03 74.8 7.62 74.35 C7.74 74.26 7.84 74.15 7.92
							 74.03 C8.97 74.26 9.88 74.3 10.56 74.3 C10.66 74.3 11.14 73.64 11.42 73.24 C11.01 73.32 9.78 73.49 8.11
							 73.01 C8.07 72.82 7.99 72.64 7.87 72.48 C7.44 71.92 6.67 71.8 6.09 72.17 C5.5 71.86 4.89 71.46 4.27
							 70.96 C4.14 70.86 4.02 70.76 3.9 70.66 C4.28 70.06 4.32 69.28 3.99 68.63 C4.06 68.55 4.14 68.48 4.22
							 68.4 C4.84 67.82 5.43 67.35 5.98 66.98 C5.95 66.96 5.93 66.94 5.91 66.92 C5.93 66.94 5.95 66.96 5.98
							 66.98 C5.98 66.98 5.98 66.98 5.98 66.98 C6.82 67.76 7.71 68.49 8.55 69.15 C8.33 69.62 8.36 70.2 8.7
							 70.64 Z" class="st2"/>
			</g>
		</g>
	</g>
</svg>
