<?xml version="1.0" encoding="UTF-8" standalone="no"?>
<!DOCTYPE svg PUBLIC "-//W3C//DTD SVG 1.1//EN" "http://www.w3.org/Graphics/SVG/1.1/DTD/svg11.dtd">
<!-- Generated by Microsoft Visio, SVG Export Application-security-groups.svg Page-1 -->
<svg xmlns="http://www.w3.org/2000/svg" xmlns:xlink="http://www.w3.org/1999/xlink" xmlns:ev="http://www.w3.org/2001/xml-events"
		xmlns:v="http://schemas.microsoft.com/visio/2003/SVGExtensions/" width="0.852332in" height="1.03889in"
		viewBox="0 0 61.3679 74.8" xml:space="preserve" color-interpolation-filters="sRGB" class="st7">
	<title>MIS: Enterprise Mobility and Security</title>
	<desc>This package contains stencils that will represent Enterprise Mobility and Security</desc>
	<v:documentProperties v:langID="1033" v:metric="true" v:viewMarkup="false"/>

	<style type="text/css">
	<![CDATA[
		.st1 {fill:#0072c6;stroke:none;stroke-width:12.24}
		.st2 {fill:#ffffff;fill-opacity:0.2;stroke:none;stroke-width:12.24}
		.st3 {fill:#59b4d9;stroke:none;stroke-width:12.24}
		.st4 {fill:#ffffff;fill-opacity:0.95;stroke:none;stroke-width:12.24}
		.st5 {fill:#ffffff;fill-opacity:0.8;stroke:none;stroke-width:12.24}
		.st6 {fill:#ffffff;fill-opacity:0.6;stroke:none;stroke-width:12.24}
		.st7 {fill:none;fill-rule:evenodd;font-size:12px;overflow:visible;stroke-linecap:square;stroke-miterlimit:3}
	]]>
	</style>

	<g v:mID="0" v:index="1" v:groupContext="foregroundPage">
		<title>Page-1</title>
		<v:pageProperties v:drawingScale="0.0393701" v:pageScale="0.0393701" v:drawingUnits="24" v:shadowOffsetX="9"
				v:shadowOffsetY="-9"/>
		<g id="group5-1" transform="translate(12.24,-12.24)" v:mID="5" v:groupContext="group">
			<title>Sheet.5</title>
			<g id="group6-2" v:mID="6" v:groupContext="group">
				<title>Sheet.6</title>
				<g id="shape7-3" v:mID="7" v:groupContext="shape">
					<title>Sheet.7</title>
					<path d="M31.38 30.48 C20.3 29.26 18.44 24.48 18.44 24.48 C18.44 24.48 15.95 30.76 0 30.76 L0 56.54 C0 59.65
								 1.73 62.57 4.13 65.12 C9.57 70.91 18.44 74.8 18.44 74.8 C18.44 74.8 36.89 66.72 36.89 56.54 L36.89
								 30.76 C34.84 30.76 33.01 30.66 31.38 30.48 Z" class="st1"/>
				</g>
				<g id="shape8-5" v:mID="8" v:groupContext="shape" transform="translate(-1.8785E-13,-9.67735)">
					<title>Sheet.8</title>
					<path d="M23.01 50.81 L31.38 40.16 C20.3 38.93 18.44 34.16 18.44 34.16 C18.44 34.16 15.95 40.44 0 40.44 L0 66.21
								 C0 69.33 1.73 72.25 4.13 74.8 L10.32 66.93 L23.01 50.81 Z" class="st2"/>
				</g>
				<g id="shape9-7" v:mID="9" v:groupContext="shape" transform="translate(7.34456,-20.1306)">
					<title>Sheet.9</title>
					<path d="M0 74.8 L0.03 74.8 L0.03 59.71 L20.27 59.68 L20.27 59.68 L0 59.71 L0 74.8 Z" class="st3"/>
				</g>
				<g id="shape10-9" v:mID="10" v:groupContext="shape" transform="translate(5.36099,-13.084)">
					<title>Sheet.10</title>
					<path d="M24.58 50.65 L1.42 50.65 C0.64 50.65 0 51.35 0 52.14 L0 68.29 C0 69.07 0.64 69.77 1.42 69.77 L10.05
								 69.77 L10.04 69.77 C10.84 72.77 9.78 73.21 5.12 73.22 L5.03 73.22 L5.03 74.8 L21.13 74.8 L21.13
								 73.22 L21.05 73.22 C16.39 73.21 15.32 72.77 16.12 69.77 L16.12 69.77 L24.58 69.77 C25.37 69.77 26.17
								 69.07 26.17 68.29 L26.17 52.14 C26.17 51.35 25.37 50.65 24.58 50.65 ZM24.12 67.75 L1.98 67.75 L1.98
								 52.66 L24.12 52.66 L24.12 67.75 Z" class="st4"/>
				</g>
				<g id="shape11-11" v:mID="11" v:groupContext="shape" transform="translate(13.7109,-28.1344)">
					<title>Sheet.11</title>
					<path d="M4.75 74.8 a0.143912 0.143912 0 0 1 -0.0704466 -0.0201276 L0.07 72.12 a0.1419 0.1419 0 0 1 -0.0694403
								 -0.120766 C0 71.95 0.03 71.9 0.07 71.88 L4.65 69.24 a0.140893 0.140893 0 0 1 0.137874 1.42109E-14
								 L9.4 71.9 C9.44 71.92 9.46 71.97 9.46 72.02 C9.46 72.07 9.44 72.11 9.4 72.14 L4.82 74.78 a0.153976
								 0.153976 0 0 1 -0.0704466 0.0191212 Z" class="st4"/>
				</g>
				<g id="shape12-13" v:mID="12" v:groupContext="shape" transform="translate(13.0618,-21.6704)">
					<title>Sheet.12</title>
					<path d="M4.74 74.8 a0.130829 0.130829 0 0 1 -0.0704466 -0.0191212 L0.07 72.13 a0.135861 0.135861 0 0 1 -0.071453
								 -0.120766 L0 66.69 C0 66.64 0.03 66.59 0.07 66.57 a0.138881 0.138881 0 0 1 0.139887 -1.42109E-14
								 L4.8 69.22 a0.144919 0.144919 0 0 1 0.0684339 0.121772 L4.87 74.66 C4.87 74.71 4.85 74.76 4.8 74.78
								 a0.153976 0.153976 0 0 1 -0.0694403 0.0191212 Z" class="st5"/>
				</g>
				<g id="shape13-15" v:mID="13" v:groupContext="shape" transform="translate(18.9572,-21.6704)">
					<title>Sheet.13</title>
					<path d="M0.14 74.8 a0.146932 0.146932 0 0 1 -0.0724594 -0.0191212 a0.140893 0.140893 0 0 1 -0.0674275 -0.120766
								 L0 69.37 C0 69.32 0.03 69.28 0.07 69.25 L4.66 66.6 a0.134855 0.134855 0 0 1 0.137874 -1.42109E-14
								 C4.84 66.63 4.87 66.67 4.87 66.72 L4.87 72.01 a0.136868 0.136868 0 0 1 -0.0704466 0.120766 L0.21
								 74.78 a0.128817 0.128817 0 0 1 -0.0674275 0.0191212 Z" class="st6"/>
				</g>
			</g>
		</g>
	</g>
</svg>
