<svg viewBox="0 0 18 18" data-islogo="true" class="" role="presentation" focusable="false" xmlns:svg="http://www.w3.org/2000/svg" xmlns:xlink="http://www.w3.org/1999/xlink" id="FxSymbol0-100" data-type="164"><g><path d="M17.892 9.96V7.933l-.285-.107-2.169-.711-.569-1.387 1.1-2.348-1.42-1.422-.285.142-2.027 1.031-1.387-.569L9.96.108H7.933l-.107.285-.711 2.169-1.387.569-2.312-1.1-1.423 1.42.142.285 1.032 2.027L2.6 7.15l-2.49.89v2.027l.285.107 2.169.711.569 1.387-1.1 2.348 1.422 1.422.285-.142 2.027-1.031 1.387.569.89 2.454h2.027l.107-.285.711-2.169 1.387-.569 2.348 1.1 1.422-1.422-.142-.285-1.031-2.027.569-1.387zM9 12.9A3.9 3.9 0 1 1 12.9 9 3.9 3.9 0 0 1 9 12.9z" fill="url(#9581c896-e44f-4dbb-b2dd-1fa55dd52f94)"></path><path d="M8.459 10.512H4.87a.193.193 0 0 1-.2-.181.162.162 0 0 1 .018-.074l4.303-8.509a.207.207 0 0 1 .186-.107h4.245a.193.193 0 0 1 .2.181.165.165 0 0 1-.035.1L8.534 8.584h4.928a.193.193 0 0 1 .2.181.171.171 0 0 1-.052.121l-8.193 8.52c-.077.045-.624.5-.356-.189z" fill="url(#625a0f32-179e-41a5-86b3-52c643b8b93a)"></path></g><defs>
<linearGradient id="a" x1="9" y1="16.39" x2="9" y2="-1.94" gradientUnits="userSpaceOnUse"><stop offset="0" stop-color="#0078d4"></stop><stop offset=".16" stop-color="#1380da"></stop><stop offset=".53" stop-color="#3c91e5"></stop><stop offset=".82" stop-color="#559cec"></stop><stop offset="1" stop-color="#5ea0ef"></stop></linearGradient>
<linearGradient id="b" x1="9.88" y1="7.11" x2="9.99" y2="17.27" gradientUnits="userSpaceOnUse"><stop offset="0" stop-color="#32d4f5"></stop><stop offset=".32" stop-color="#31d1f3"></stop><stop offset=".53" stop-color="#2ec9eb"></stop><stop offset=".7" stop-color="#29bade"></stop><stop offset=".86" stop-color="#22a5cb"></stop><stop offset="1" stop-color="#198ab3"></stop><stop offset="1" stop-color="#198ab3"></stop></linearGradient>
<radialGradient id="c" cx="9.43" cy="7.03" r="7.27" gradientUnits="userSpaceOnUse"><stop offset="0" stop-color="#f2f2f2"></stop><stop offset=".58" stop-color="#eee"></stop><stop offset="1" stop-color="#e6e6e6"></stop></radialGradient>
<linearGradient id="9581c896-e44f-4dbb-b2dd-1fa55dd52f94" x1="9" y1="17.892" x2="9" y2=".108" gradientUnits="userSpaceOnUse"><stop offset="0" stop-color="#0078d4"></stop><stop offset=".064" stop-color="#0a7cd7"></stop><stop offset=".338" stop-color="#2e8ce1"></stop><stop offset=".594" stop-color="#4897e9"></stop><stop offset=".822" stop-color="#589eed"></stop><stop offset="1" stop-color="#5ea0ef"></stop></linearGradient>
<linearGradient id="625a0f32-179e-41a5-86b3-52c643b8b93a" x1="11.612" y1="-451.091" x2="11.612" y2="-466.6" gradientTransform="matrix(1.156 0 0 1.029 -4.255 481.61)" gradientUnits="userSpaceOnUse"><stop offset="0" stop-color="#fea11b"></stop><stop offset=".284" stop-color="#fea51a"></stop><stop offset=".547" stop-color="#feb018"></stop><stop offset=".8" stop-color="#ffc314"></stop><stop offset="1" stop-color="#ffd70f"></stop></linearGradient>
</defs>
</svg>