<?xml version="1.0" encoding="UTF-8" standalone="no"?>
<!DOCTYPE svg PUBLIC "-//W3C//DTD SVG 1.1//EN" "http://www.w3.org/Graphics/SVG/1.1/DTD/svg11.dtd">
<!-- Generated by Microsoft Visio, SVG Export Azure-Information-Protection.svg Page-1 -->
<svg xmlns="http://www.w3.org/2000/svg" xmlns:xlink="http://www.w3.org/1999/xlink" xmlns:ev="http://www.w3.org/2001/xml-events"
		xmlns:v="http://schemas.microsoft.com/visio/2003/SVGExtensions/" width="0.670235in" height="0.779078in"
		viewBox="0 0 48.2569 56.0936" xml:space="preserve" color-interpolation-filters="sRGB" class="st2">
	<title>MIS: Enterprise Mobility and Security</title>
	<desc>This package contains stencils that will represent Enterprise Mobility and Security</desc>
	<v:documentProperties v:langID="1033" v:metric="true" v:viewMarkup="false"/>

	<style type="text/css">
	<![CDATA[
		.st1 {fill:#58b4d9;stroke:none;stroke-width:2.88679}
		.st2 {fill:none;fill-rule:evenodd;font-size:12px;overflow:visible;stroke-linecap:square;stroke-miterlimit:3}
	]]>
	</style>

	<g v:mID="0" v:index="1" v:groupContext="foregroundPage">
		<title>Page-1</title>
		<v:pageProperties v:drawingScale="0.0393701" v:pageScale="0.0393701" v:drawingUnits="24" v:shadowOffsetX="9"
				v:shadowOffsetY="-9"/>
		<g id="group5-1" transform="translate(2.88679,-2.88679)" v:mID="5" v:groupContext="group">
			<title>Sheet.5</title>
			<g id="group6-2" v:mID="6" v:groupContext="group">
				<title>Sheet.6</title>
				<g id="shape7-3" v:mID="7" v:groupContext="shape">
					<title>Sheet.7</title>
					<path d="M26.07 5.77 C32.86 6.01 38.29 11.6 38.29 18.45 L38.29 25.85 L38.66 25.85 C40.77 25.85 42.48 27.57 42.48
								 29.68 L42.48 52.27 C42.48 54.38 40.77 56.09 38.66 56.09 L3.83 56.09 C1.71 56.09 0 54.38 0 52.27
								 L0 29.68 C0 27.57 1.71 25.85 3.83 25.85 L4.19 25.85 L4.19 18.45 C4.19 11.6 9.62 6.01 16.41 5.77
								 L26.07 5.77 ZM12.21 25.85 L30.52 25.85 L30.52 17.41 C30.52 14.63 28.27 12.37 25.49 12.37 L17.25
								 12.37 C14.47 12.37 12.21 14.63 12.21 17.41 L12.21 25.85 ZM16.65 40.89 L24.66 37.82 C25.41 38.51
								 26.39 38.94 27.48 38.94 C29.79 38.94 31.67 37 31.67 34.61 C31.67 32.21 29.79 30.27 27.48 30.27 C25.43
								 30.27 23.72 31.8 23.36 33.81 L10.26 38.84 A2.10271 2.10271 -180 0 0 8.95 40.39 C8.65 41.43 9.19
								 42.54 10.22 42.94 L23.34 47.97 C23.65 50.05 25.38 51.64 27.48 51.64 C29.79 51.64 31.67 49.7 31.67
								 47.31 C31.67 44.91 29.79 42.97 27.48 42.97 C26.44 42.97 25.49 43.36 24.76 44.01 L16.65 40.89 Z"
							class="st1"/>
				</g>
			</g>
		</g>
	</g>
</svg>
