<svg viewBox="0 0 18 18" class="" role="presentation" focusable="false" xmlns:svg="http://www.w3.org/2000/svg" xmlns:xlink="http://www.w3.org/1999/xlink" id="FxSymbol0-115" data-type="1"><g><title>Icon-identity-222</title><path fill="#50e6ff" d="M1.01 10.23l7.92 5.14 8.06-5.16L18 11.38l-9.07 5.85L0 11.39l1.01-1.16z"></path><path d="M1.61 9.57L8.93.85l7.47 8.73-7.47 4.72-7.32-4.73z" class="msportalfx-svg-c01" fill="#ffffff"></path><path fill="#50e6ff" d="M8.93.85V14.3L1.61 9.57 8.93.85z"></path><path fill="url(#f92ae47d-0835-4bac-a4f5-649f41e19a24)" d="M8.93.85V14.3l7.47-4.72L8.93.85z"></path><path fill="#53b1e0" d="M8.93 7.8l7.47 1.78-7.47 4.72V7.8z"></path><path fill="#9cebff" d="M8.93 14.3L1.61 9.57 8.93 7.8v6.5z"></path><path fill="url(#f418fd20-54c9-41f7-a889-8b791ff60efa)" d="M8.93 17.23L18 11.38l-1.01-1.17-8.06 5.16v1.86z"></path><path fill="#773adc" d="M13.53 9.04L9.06 15.3l4.47 1.82L18 15.3l-4.47-6.26z"></path><path fill="#f9f9f9" opacity=".5" d="M13.53 9.04L9.06 15.3l4.47 1.82V9.04z"></path></g><defs>
<linearGradient id="f92ae47d-0835-4bac-a4f5-649f41e19a24" x1="13.25" y1="13.06" x2="8.62" y2="4.29" gradientUnits="userSpaceOnUse"><stop offset="0" stop-color="#1988d9"></stop><stop offset=".9" stop-color="#54aef0"></stop></linearGradient>
<linearGradient id="f418fd20-54c9-41f7-a889-8b791ff60efa" x1="11.26" y1="10.51" x2="14.46" y2="16.03" gradientUnits="userSpaceOnUse"><stop offset=".1" stop-color="#54aef0"></stop><stop offset=".29" stop-color="#4fabee"></stop><stop offset=".51" stop-color="#41a2e9"></stop><stop offset=".74" stop-color="#2a93e0"></stop><stop offset=".88" stop-color="#1988d9"></stop></linearGradient>
</defs>
</svg>