<svg viewBox="0 0 18 18" class="" role="presentation" focusable="false" xmlns="http://www.w3.org/2000/svg" xmlns:xlink="http://www.w3.org/1999/xlink" id="FxSymbol0-114" data-type="1"><g><title>Artboard 1</title><path d="M13.93 16.07a1.251 1.251 0 0 0 1.26-1.24.752.752 0 0 0 0-.15c-.49-4-2.75-7.18-7-7.18S1.48 10.23 1 14.69a1.27 1.27 0 0 0 1.13 1.38Z" fill="url(#59616712-f700-4139-92c6-bd98d17f02ae)"></path><path d="M8.13 8.44A3.941 3.941 0 0 1 6 7.8l2.1 5.56 2.12-5.52a4 4 0 0 1-2.09.6Z" opacity=".8" class="msportalfx-svg-c01" fill="#ffffff"></path><circle cx="8.13" cy="4.47" r="3.97" fill="url(#59616712-f700-4139-92c6-bd98d17f02af)"></circle><path d="M16.99 12.956c0 2.307-2.653 4.33-3.376 4.53a.447.447 0 0 1-.246 0c-.723-.2-3.377-2.231-3.377-4.53v-2.769a.208.208 0 0 1 .181-.23.2.2 0 0 1 .049 0c2.154-.077 1.692-1 3.23-1s1.077.923 3.23 1a.208.208 0 0 1 .231.18.2.2 0 0 1 0 .049Z" fill="#dfa500"></path><path d="M13.452 13.264V9.38c1.462 0 1 .807 3 .884a.246.246 0 0 1 .23.231v2.692Zm0 0H10.3c.154 2 2.538 3.537 3.076 3.845l.154.077Z" fill="url(#59616712-f700-4139-92c6-bd98d17f02b0)"></path><path d="M10.453 10.294c2-.077 1.538-.914 3-.914v3.884H10.3v-2.78c0-.152.076-.19.153-.19Z" fill="#ffd400"></path><path d="m16.682 13.187-3.23.077.077 3.922c.539-.386 2.923-2 3.153-3.999Z" fill="#ffd400"></path></g><defs>
<linearGradient id="59616712-f700-4139-92c6-bd98d17f02ae" x1="8.094" y1="1066.451" x2="8.094" y2="1078.188" gradientTransform="translate(0 -1060)" gradientUnits="userSpaceOnUse"><stop offset=".1" stop-color="#54aef0"></stop><stop offset="1" stop-color="#1988d9"></stop></linearGradient>
<linearGradient id="59616712-f700-4139-92c6-bd98d17f02af" x1="8.13" y1="19.5" x2="8.13" y2="11.56" gradientTransform="matrix(1 0 0 -1 0 20)"><stop offset=".1" stop-color="#54aef0"></stop><stop offset="1" stop-color="#1988d9"></stop></linearGradient>
<linearGradient id="59616712-f700-4139-92c6-bd98d17f02b0" x1="13.491" y1="1299.38" x2="13.491" y2="1307.232" gradientTransform="translate(0 -1290)" gradientUnits="userSpaceOnUse"><stop offset="0" stop-color="#ffd70f"></stop><stop offset=".12" stop-color="#fc1"></stop><stop offset=".44" stop-color="#feb517"></stop><stop offset=".75" stop-color="#fea61a"></stop><stop offset="1" stop-color="#fea11b"></stop></linearGradient>
</defs>
</svg>