<svg viewBox="0 0 18 18" class="" role="presentation" focusable="false" xmlns:svg="http://www.w3.org/2000/svg" xmlns:xlink="http://www.w3.org/1999/xlink" id="FxSymbol0-119" data-type="1"><g><title>Icon-identity-224</title><path fill="#50e6ff" d="M.99 10l7.91 5.14 8.06-5.16 1.01 1.18L8.9 17l-8.93-5.84L.99 10z"></path><path d="M1.58 9.34L8.9.62l7.47 8.73-7.47 4.72-7.32-4.73z" class="msportalfx-svg-c01" fill="#ffffff"></path><path fill="#50e6ff" d="M8.9.62v13.45L1.58 9.34 8.9.62z"></path><path fill="url(#7307431135413935)" d="M8.9.62v13.45l7.47-4.72L8.9.62z"></path><path fill="#53b1e0" d="M8.9 7.57l7.47 1.78-7.47 4.72v-6.5z"></path><path fill="#9cebff" d="M8.9 14.07L1.58 9.34 8.9 7.57v6.5z"></path><path fill="url(#020250518006733387)" d="M8.9 17l9.07-5.84-1.01-1.18-8.06 5.16V17z"></path><path d="M13.52 17.38C17.9 14.24 18 12.45 18 11.89c0-.8-.08-2.88-2.17-3a2.27 2.27 0 0 0-2.33 1.52 2.26 2.26 0 0 0-2.3-1.56C9.11 9 9 11.09 9 11.89c0 .56.13 2.35 4.47 5.46" fill="#f04049"></path><path d="M18 11.57h-2a.17.17 0 0 0-.14.08l-.63 1.07a.08.08 0 0 1-.14 0L14.14 11a.16.16 0 0 0-.3 0L13 13.6a.08.08 0 0 1-.15 0l-.76-1.75a.16.16 0 0 0-.29 0l-1 1.82a.16.16 0 0 1-.15.09h-.96a7.13 7.13 0 0 0 .48.65H11a.17.17 0 0 0 .14-.09l.71-1.32 1 2.19a.16.16 0 0 0 .3 0l1-2.93.85 1.66a.16.16 0 0 0 .28 0l1-1.62a.17.17 0 0 1 .14-.08H18" class="msportalfx-svg-c01" fill="#ffffff"></path></g><defs>
<linearGradient id="7307431135413935" x1="13.23" y1="12.83" x2="8.6" y2="4.06" gradientUnits="userSpaceOnUse"><stop offset="0" stop-color="#1988d9"></stop><stop offset=".9" stop-color="#54aef0"></stop></linearGradient>
<linearGradient id="020250518006733387" x1="11.23" y1="10.28" x2="14.44" y2="15.8" gradientUnits="userSpaceOnUse"><stop offset=".1" stop-color="#54aef0"></stop><stop offset=".29" stop-color="#4fabee"></stop><stop offset=".51" stop-color="#41a2e9"></stop><stop offset=".74" stop-color="#2a93e0"></stop><stop offset=".88" stop-color="#1988d9"></stop></linearGradient>
</defs>
</svg>