<svg viewBox="0 0 18 18" class="" role="presentation" focusable="false" xmlns="http://www.w3.org/2000/svg" xmlns:xlink="http://www.w3.org/1999/xlink" id="FxSymbol0-0db" data-type="1"><g><title>Icon-intune-336</title><path d="M12.38 7.12c0 3.81-4.7 6.88-5.72 7.5a.35.35 0 0 1-.39 0C5.25 14 .56 10.93.56 7.12V2.53a.37.37 0 0 1 .36-.36C4.57 2.07 3.73.5 6.47.5S8.36 2.07 12 2.17a.38.38 0 0 1 .37.36Z" fill="#86d633"></path><path d="M11.89 7.16c0 3.5-4.31 6.31-5.24 6.88a.33.33 0 0 1-.36 0c-.94-.57-5.24-3.38-5.24-6.88V3a.33.33 0 0 1 .33-.33C4.73 2.53 4 1.09 6.47 1.09s1.74 1.44 5.08 1.53a.34.34 0 0 1 .34.33Z" fill="url(#94a115a1-5689-4c39-bee0-5c63fda4a127)"></path><path d="M6.29 8.65h10.78a.35.35 0 0 1 .37.33v8.19a.35.35 0 0 1-.37.33H6.29a.36.36 0 0 1-.37-.33V9a.36.36 0 0 1 .37-.35Z" fill="#9cebff"></path><path d="M6.27 8.65h10.82a.33.33 0 0 1 .35.31v1.24H5.92V9a.33.33 0 0 1 .35-.31Zm9.6 4.76H8.76c-.16 0-.28.08-.28.16V14c0 .09.12.16.28.16h7.11c.16 0 .29-.07.29-.16v-.4c0-.11-.16-.19-.29-.19Zm0-1.8H8.76c-.16 0-.28.07-.28.16v.39c0 .09.12.16.28.16h7.11c.16 0 .29-.07.29-.16v-.39c0-.09-.16-.16-.29-.16Zm0 3.83H8.76c-.16 0-.28.07-.28.16v.4c0 .09.12.16.28.16h7.11c.16 0 .29-.07.29-.16v-.4c0-.09-.16-.16-.29-.16Z" fill="#0078d4"></path><circle cx="7.3" cy="11.96" r=".47" fill="#0078d4"></circle><circle cx="7.3" cy="13.77" r=".47" fill="#0078d4"></circle><circle cx="7.3" cy="15.8" r=".47" fill="#0078d4"></circle></g><defs>
<linearGradient id="94a115a1-5689-4c39-bee0-5c63fda4a127" x1="11.08" y1="13.63" x2="3.17" y2="-.04" gradientUnits="userSpaceOnUse"><stop offset="0" stop-color="#5e9624"></stop><stop offset=".26" stop-color="#70a828"></stop><stop offset=".79" stop-color="#9fd732"></stop><stop offset="1" stop-color="#b4ec36"></stop></linearGradient>
</defs>
</svg>