<?xml version="1.0" encoding="UTF-8" standalone="no"?>
<!DOCTYPE svg PUBLIC "-//W3C//DTD SVG 1.1//EN" "http://www.w3.org/Graphics/SVG/1.1/DTD/svg11.dtd">
<!-- Generated by Microsoft Visio, SVG Export Azure-Information-Protection-#1.svg Page-1 -->
<svg xmlns="http://www.w3.org/2000/svg" xmlns:xlink="http://www.w3.org/1999/xlink" xmlns:ev="http://www.w3.org/2001/xml-events"
		xmlns:v="http://schemas.microsoft.com/visio/2003/SVGExtensions/" width="0.737493in" height="0.740556in"
		viewBox="0 0 53.0995 53.32" xml:space="preserve" color-interpolation-filters="sRGB" class="st7">
	<title>MIS: Enterprise Mobility and Security</title>
	<desc>This package contains stencils that will represent Enterprise Mobility and Security</desc>
	<v:documentProperties v:langID="1033" v:metric="true" v:viewMarkup="false"/>

	<style type="text/css">
	<![CDATA[
		.st1 {fill:#55d2f6;stroke:none;stroke-width:0.75}
		.st2 {fill:#ace8f9;stroke:none;stroke-width:0.75}
		.st3 {fill:none;stroke:#556a8a;stroke-width:1.5}
		.st4 {fill:#e5e5e5;stroke:#556a8a;stroke-width:1.5}
		.st5 {fill:#ffffff;stroke:#556a8a;stroke-width:1.5}
		.st6 {fill:#556a8a;stroke:none;stroke-width:0.75}
		.st7 {fill:none;fill-rule:evenodd;font-size:12px;overflow:visible;stroke-linecap:square;stroke-miterlimit:3}
	]]>
	</style>

	<g v:mID="0" v:index="1" v:groupContext="foregroundPage">
		<title>Page-1</title>
		<v:pageProperties v:drawingScale="0.0393701" v:pageScale="0.0393701" v:drawingUnits="24" v:shadowOffsetX="9"
				v:shadowOffsetY="-9"/>
		<g id="group5-1" transform="translate(0,-1.5)" v:mID="5" v:groupContext="group">
			<title>g331</title>
			<g id="group6-2" v:mID="6" v:groupContext="group">
				<title>g299</title>
				<g id="shape7-3" v:mID="7" v:groupContext="shape">
					<title>path293</title>
					<path d="M46.46 6.27 a0.784385 0.784385 -180 0 0 -0.73323 -0.699126 L44.62 5.57 A13.8291 13.8291 0 0 1 36.87
								 8.13 C32.82 8.13 30.23 5.92 28.35 4.46 C27.98 4.09 27.61 3.4 27.24 3.03 L25.81 3.03 C25.44 3.4 25.07
								 4.09 24.7 4.46 C22.86 5.91 20.27 8.13 16.59 8.13 A14.9118 14.9118 0 0 1 8.47 5.57 L7.37 5.57 C7
								 5.57 7 5.94 6.63 6.31 C0 23.92 8.47 44.5 26.17 53.32 L27.28 53.32 C44.62 44.5 53.1 23.92 46.46 6.27
								 Z" class="st1"/>
				</g>
				<g id="shape8-5" v:mID="8" v:groupContext="shape" transform="translate(26.5497,0)">
					<title>path295</title>
					<path d="M0.73 53.32 L0 53.32 L0 3.02 L0.73 3.02 C1.1 3.38 1.47 4.07 1.84 4.44 C3.68 5.91 6.27 8.13 10.32 8.13
								 A13.8291 13.8291 -180 0 0 18.07 5.57 L19.17 5.57 a0.784385 0.784385 0 0 1 0.73323 0.73323 C26.55
								 23.92 18.07 44.5 0.73 53.32 Z" class="st2"/>
				</g>
				<g id="shape9-7" v:mID="9" v:groupContext="shape">
					<title>path297</title>
					<path d="M26.55 53.32 L26.18 53.32 C8.47 44.5 0 23.92 6.63 6.27 C7 5.91 7 5.54 7.37 5.54 L8.47 5.54 A14.9374
								 14.9374 -180 0 0 16.59 8.1 C20.28 8.1 22.86 5.89 24.71 4.42 C25.07 4.06 25.45 3.37 25.82 3 L27.29
								 3 C27.66 3.37 28.03 4.06 28.4 4.42 C30.23 5.91 32.82 8.13 36.87 8.13 A13.8461 13.8461 -180 0 0 44.62
								 5.57 L45.72 5.57 a0.792911 0.792911 0 0 1 0.741756 0.73323 C53.1 23.92 44.62 44.5 27.28 53.32 L26.55
								 53.32 Z" class="st3"/>
				</g>
			</g>
			<g id="group10-9" transform="translate(12.9083,-14.4941)" v:mID="10" v:groupContext="group">
				<title>ICONS-64x</title>
				<g id="shape11-10" v:mID="11" v:groupContext="shape">
					<title>path302</title>
					<path d="M23.75 27.74 L4.57 27.74 A4.5699 4.5699 -180 0 0 -0 32.31 A4.4079 4.4079 -180 0 0 2.56 36.49 L2.56 44.57
								 A4.4079 4.4079 -180 0 0 0 48.75 A4.5699 4.5699 -180 0 0 4.57 53.32 L23.75 53.32 A1.83307 1.83307
								 -180 0 0 25.58 51.5 L25.58 29.57 A1.83307 1.83307 -180 0 0 23.75 27.74 Z" class="st4"/>
				</g>
				<g id="shape12-12" v:mID="12" v:groupContext="shape" transform="translate(5.96815,-2.55778)">
					<title>rect304</title>
					<path d="M0 51.61 A1.70523 1.70523 -180 0 0 1.71 53.32 L15.35 53.32 A1.70523 1.70523 -180 0 0 17.05 51.61 L17.05
								 34.56 A1.70523 1.70523 -180 0 0 15.35 32.86 L1.71 32.86 A1.70523 1.70523 -180 0 0 0 34.56 L0 51.61
								 Z" class="st5"/>
				</g>
				<g id="shape13-14" v:mID="13" v:groupContext="shape" transform="translate(12.7889,-11.0837)">
					<title>rect306</title>
					<rect x="0" y="49.9097" width="10.2311" height="3.41037" class="st4"/>
				</g>
				<g id="shape14-16" v:mID="14" v:groupContext="shape" transform="translate(11.0837,-9.37852)">
					<title>circle308</title>
					<ellipse cx="3.41037" cy="49.9097" rx="3.41037" ry="3.41037" class="st4"/>
				</g>
				<g id="shape15-18" v:mID="15" v:groupContext="shape" transform="translate(18.6974,-4.32265)">
					<title>circle310</title>
					<ellipse cx="0.852593" cy="52.4674" rx="0.852593" ry="0.852593" class="st6"/>
				</g>
			</g>
		</g>
	</g>
</svg>
