<?xml version="1.0" encoding="UTF-8" standalone="no"?>
<!DOCTYPE svg PUBLIC "-//W3C//DTD SVG 1.1//EN" "http://www.w3.org/Graphics/SVG/1.1/DTD/svg11.dtd">
<!-- Generated by Microsoft Visio, SVG Export Azure-Security-Center-for-IoT.svg Page-1 -->
<svg xmlns="http://www.w3.org/2000/svg" xmlns:xlink="http://www.w3.org/1999/xlink" xmlns:ev="http://www.w3.org/2001/xml-events"
		xmlns:v="http://schemas.microsoft.com/visio/2003/SVGExtensions/" width="1.14262in" height="1.26215in"
		viewBox="0 0 82.2689 90.8747" xml:space="preserve" color-interpolation-filters="sRGB" class="st4">
	<title>MIS: Enterprise Mobility and Security</title>
	<desc>This package contains stencils that will represent Enterprise Mobility and Security</desc>
	<v:documentProperties v:langID="1033" v:metric="true" v:viewMarkup="false"/>

	<style type="text/css">
	<![CDATA[
		.st1 {fill:#7fba00;stroke:none;stroke-width:20.2773}
		.st2 {fill:#96c414;stroke:none;stroke-width:20.2401}
		.st3 {fill:#ffffff;stroke:none;stroke-width:22.5315}
		.st4 {fill:none;fill-rule:evenodd;font-size:12px;overflow:visible;stroke-linecap:square;stroke-miterlimit:3}
	]]>
	</style>

	<g v:mID="0" v:index="1" v:groupContext="foregroundPage">
		<title>Page-1</title>
		<v:pageProperties v:drawingScale="0.0393701" v:pageScale="0.0393701" v:drawingUnits="24" v:shadowOffsetX="9"
				v:shadowOffsetY="-9"/>
		<g id="group5-1" transform="translate(20.2401,-20.2773)" v:mID="5" v:groupContext="group">
			<title>IOT</title>
			<g id="shape6-2" v:mID="6" v:groupContext="shape" transform="translate(0.299796,0)">
				<title>path4</title>
				<path d="M35.26 46.55 C22.81 45.33 20.72 40.55 20.72 40.55 C20.72 40.55 17.92 46.83 0 46.83 L0 72.61 C0 75.72 1.94
							 78.65 4.64 81.19 C10.75 86.98 20.72 90.87 20.72 90.87 C20.72 90.87 41.45 82.8 41.45 72.61 L41.45 46.83
							 C41.39 46.83 41.32 46.83 41.25 46.83 C39.14 46.83 37.06 46.73 35.01 46.53 L35.26 46.55 L35.26 46.55
							 Z" class="st1"/>
			</g>
			<g id="shape7-4" v:mID="7" v:groupContext="shape" transform="translate(0,-9.87268)">
				<title>path6</title>
				<path d="M20.75 50.44 C20.75 50.44 17.94 56.68 0 56.68 L0 82.33 C0 85.44 1.95 88.34 4.64 90.87 L35.31 56.4 C22.84
							 55.19 20.75 50.44 20.75 50.44 Z" class="st2"/>
			</g>
			<g id="shape8-6" v:mID="8" v:groupContext="shape" transform="translate(6.85626,-12.9087)">
				<title>path8</title>
				<path d="M24.48 90.87 C22.86 90.87 21.54 89.62 21.54 88.08 C21.54 87.29 21.89 86.58 22.43 86.07 L19.3 80.84 C18.96
							 80.95 18.57 81.02 18.17 81.02 C17.7 81.02 17.26 80.93 16.86 80.78 L16.88 80.79 L14.58 84.42 C15.05 84.85
							 15.34 85.46 15.34 86.13 C15.34 87.46 14.21 88.55 12.8 88.55 C11.4 88.55 10.27 87.47 10.27 86.13 C10.27
							 84.8 11.4 83.72 12.8 83.72 C12.81 83.72 12.81 83.72 12.81 83.72 C12.92 83.72 13.02 83.73 13.13 83.75
							 L13.11 83.75 L15.53 79.94 C15.1 79.53 14.78 79.02 14.61 78.45 L14.6 78.43 L5.06 79.18 C4.85 80.34 3.81
							 81.22 2.54 81.22 C1.14 81.22 0 80.14 0 78.8 C0 77.46 1.14 76.37 2.54 76.37 C3.51 76.37 4.35 76.88 4.78
							 77.63 L4.78 77.65 L14.49 76.88 C14.61 76.19 14.93 75.58 15.38 75.09 L15.38 75.09 L12.04 70.58 C11.72
							 70.69 11.35 70.76 10.97 70.76 C9.23 70.76 7.81 69.41 7.81 67.76 C7.81 66.1 9.23 64.75 10.97 64.75 C12.71
							 64.75 14.13 66.1 14.13 67.76 C14.13 68.5 13.84 69.18 13.37 69.7 L13.38 69.7 L16.68 74.16 C17.12 73.97
							 17.65 73.86 18.2 73.86 C20.27 73.86 21.94 75.45 21.94 77.43 C21.94 78.48 21.47 79.42 20.71 80.07 L20.7
							 80.08 L23.87 85.33 C24.05 85.29 24.26 85.27 24.48 85.27 C26.1 85.27 27.42 86.52 27.42 88.07 C27.42 89.62
							 26.1 90.87 24.48 90.87 L24.48 90.87 Z" class="st3"/>
			</g>
		</g>
	</g>
</svg>
