<svg viewBox="-568.4 -96 40 40" class="fxs-portal-svg" role="presentation" focusable="false" xmlns:svg="http://www.w3.org/2000/svg" xmlns:xlink="http://www.w3.org/1999/xlink" id="FxSymbol0-0e1" data-type="1"><g><title></title><path d="M-568.4-96h40v40h-40z" class="msportalfx-svg-c97" fill="#ffb900"></path><g class="msportalfx-svg-c01" fill="#ffffff"><path d="M-547.2-80.3c-.2.1-.3.1-.6.2v10.3c.3.1.7.3 1 .6l4.6-3.7c-.1-.2-.1-.6-.1-.9 0-.3.1-.8.2-1.1l-5.1-5.4zm-7.6 5.4c.2.3.3.8.3 1.2 0 .3-.1.7-.2 1l4.6 3.7c.2-.2.6-.4.9-.6v-10.5c-.2-.1-.3-.1-.4-.2l-5.2 5.4z"></path><path d="M-548.4-92l-16 19 16 13 16-13-16-19zm8.7 20.9c-.6 0-1.1-.2-1.6-.6l-4.6 3.8c.1.2.1.4.1.7 0 1.4-1.1 2.6-2.6 2.6s-2.6-1.1-2.6-2.6c0-.2 0-.4.1-.6l-4.9-3.8c-.4.3-.9.4-1.4.4-1.4 0-2.6-1.1-2.6-2.6 0-1.4 1.1-2.6 2.6-2.6.4 0 .8.1 1.2.3l5.1-5.6c-.1-.3-.2-.7-.2-1.1 0-1.4 1.1-2.6 2.6-2.6s2.6 1.1 2.6 2.6c0 .4-.1.9-.3 1.2l5 5.6c.4-.2.9-.3 1.3-.3 1.4 0 2.6 1.1 2.6 2.6.1 1.5-1.1 2.6-2.4 2.6z"></path></g></g><defs>
<linearGradient id="a" x1="9" y1="16.39" x2="9" y2="-1.94" gradientUnits="userSpaceOnUse"><stop offset="0" stop-color="#0078d4"></stop><stop offset=".16" stop-color="#1380da"></stop><stop offset=".53" stop-color="#3c91e5"></stop><stop offset=".82" stop-color="#559cec"></stop><stop offset="1" stop-color="#5ea0ef"></stop></linearGradient>
<linearGradient id="b" x1="9.88" y1="7.11" x2="9.99" y2="17.27" gradientUnits="userSpaceOnUse"><stop offset="0" stop-color="#32d4f5"></stop><stop offset=".32" stop-color="#31d1f3"></stop><stop offset=".53" stop-color="#2ec9eb"></stop><stop offset=".7" stop-color="#29bade"></stop><stop offset=".86" stop-color="#22a5cb"></stop><stop offset="1" stop-color="#198ab3"></stop><stop offset="1" stop-color="#198ab3"></stop></linearGradient>
<radialGradient id="c" cx="9.43" cy="7.03" r="7.27" gradientUnits="userSpaceOnUse"><stop offset="0" stop-color="#f2f2f2"></stop><stop offset=".58" stop-color="#eee"></stop><stop offset="1" stop-color="#e6e6e6"></stop></radialGradient>
</defs>
</svg>