<svg viewBox="0 0 50 50" class="" role="presentation" focusable="false" xmlns:svg="http://www.w3.org/2000/svg" xmlns:xlink="http://www.w3.org/1999/xlink" id="FxSymbol0-0b9" data-type="1"><g><title></title><path d="M36.5 1C31.337 1 26.906 4.131 25 8.598 23.094 4.131 18.663 1 13.5 1 5 1 1 9.096 1 16c0 21 24 33 24 33s24-12 24-33c0-6.904-4-15-12.5-15z" class="msportalfx-svg-c10" fill="#ff8c00"></path><path opacity=".25" d="M25 28c-10.713 0-19.91-3.988-23.891-9.683C2.774 37.878 25 49 25 49s22.226-11.122 23.891-30.683C44.91 24.012 35.713 28 25 28z" class="msportalfx-svg-c08" fill="#ba141a"></path><circle cx="28" cy="37" r="3.9" class="msportalfx-svg-c01" fill="#ffffff"></circle><path d="M4.645 5.101s-1.406 5.042 4.434 10.082l1.846-2.364c-.032-.025-3.181-2.564-3.413-6.265C7.323 3.538 8.83 1.91 8.83 1.91c-1.672.758-3.064 1.801-4.185 3.191zm43.151 4.32c.892 3.894.563 7.733-1.007 11.266-2.821 6.349-9.488 11.5-19.28 14.896l.982 2.834c8.436-2.924 14.857-7.143 18.686-12.336C48.368 22.999 49.1 19.638 49.1 16c0-2.172-.497-4.46-1.304-6.579z" class="msportalfx-svg-c01" fill="#ffffff"></path><path d="M9.176 13.176c-5.621 5.621 1.344 15.486 7 21.143l1.061 1.061a1.5 1.5 0 0 0 2.121 0l2.121-2.121a1.5 1.5 0 1 0-2.121-2.121l-1.131 1.131c-7.778-7.778-10.28-13.903-7.071-17.112s9.334-.707 17.112 7.071l-1.131 1.131a1.5 1.5 0 1 0 2.121 2.121l2.121-2.121a1.5 1.5 0 0 0 0-2.121l-1.061-1.061C24.662 14.52 14.797 7.555 9.176 13.176z" class="msportalfx-svg-c01" fill="#ffffff"></path></g><defs>
<linearGradient id="a" x1="9" y1="16.39" x2="9" y2="-1.94" gradientUnits="userSpaceOnUse"><stop offset="0" stop-color="#0078d4"></stop><stop offset=".16" stop-color="#1380da"></stop><stop offset=".53" stop-color="#3c91e5"></stop><stop offset=".82" stop-color="#559cec"></stop><stop offset="1" stop-color="#5ea0ef"></stop></linearGradient>
<linearGradient id="b" x1="9.88" y1="7.11" x2="9.99" y2="17.27" gradientUnits="userSpaceOnUse"><stop offset="0" stop-color="#32d4f5"></stop><stop offset=".32" stop-color="#31d1f3"></stop><stop offset=".53" stop-color="#2ec9eb"></stop><stop offset=".7" stop-color="#29bade"></stop><stop offset=".86" stop-color="#22a5cb"></stop><stop offset="1" stop-color="#198ab3"></stop><stop offset="1" stop-color="#198ab3"></stop></linearGradient>
<radialGradient id="c" cx="9.43" cy="7.03" r="7.27" gradientUnits="userSpaceOnUse"><stop offset="0" stop-color="#f2f2f2"></stop><stop offset=".58" stop-color="#eee"></stop><stop offset="1" stop-color="#e6e6e6"></stop></radialGradient>
</defs>
</svg>