<svg viewBox="0 0 96 96" class="fxs-portal-svg" role="presentation" focusable="false" xmlns:svg="http://www.w3.org/2000/svg" xmlns:xlink="http://www.w3.org/1999/xlink" id="FxSymbol0-0e3" data-type="1"><g><title></title><defs><clipPath id="a"><path d="M0 0h96v96H0z"></path></clipPath></defs><g clip-path="url(#a)"><path d="M48.081 42.948l-16-15.158h12.738L66.377 48 45.145 68.21H32.079l16.007-15.158H2.865c-1.642 0-2.865-1.854-2.865-3.5v-4.179c0-1.642 1.223-2.43 2.865-2.43z" class="msportalfx-svg-c14" fill="#57a300"></path><path d="M8.938 25.55a7.929 7.929 0 0 0 11.212-.167l.183-.181a32.06 32.06 0 0 1 45.336.481q.2.2.4.408A31.9 31.9 0 0 1 75 50.658a8.159 8.159 0 0 1 3.614 3.274l.019.031.018.031 8.114 14.092a48.019 48.019 0 0 0-9.721-54.08A48.629 48.629 0 0 0 42.907 0 48.111 48.111 0 0 0 8.771 14c-.056.055-.112.11-.167.167a7.929 7.929 0 0 0 .167 11.212c.055.06.11.116.167.171zM44 92.514a8.265 8.265 0 0 1 1.157-3.99l5.015-8.975a31.962 31.962 0 0 1-30.029-8.934 8.765 8.765 0 0 0-.167-.167 7.929 7.929 0 0 0-11.212.167c-.056.055-.112.11-.167.167a7.929 7.929 0 0 0 .167 11.212A48.63 48.63 0 0 0 42.907 96c.612 0 1.221-.016 1.831-.036a7.72 7.72 0 0 1-.738-3.45z" class="msportalfx-svg-c19" fill="#0072c6"></path><path d="M95.375 90.521l-10.094-17L75.187 55.99A3.755 3.755 0 0 0 72 54a3.755 3.755 0 0 0-3.187 1.992L58.719 72.46 48.625 90.523a3.726 3.726 0 0 0 3.188 5.844h40.374a3.726 3.726 0 0 0 3.188-5.846zM72.531 66.615h2.657l-1.063 15.406h-4.25l-.531-15.406zm-.53 23.372a3.187 3.187 0 0 1-3.187-3.187 3.187 3.187 0 0 1 3.187-3.187 3.187 3.187 0 0 1 3.187 3.187A3.187 3.187 0 0 1 72 89.987z" class="msportalfx-svg-c10" fill="#ff8c00"></path></g></g><defs>
<linearGradient id="a" x1="9" y1="16.39" x2="9" y2="-1.94" gradientUnits="userSpaceOnUse"><stop offset="0" stop-color="#0078d4"></stop><stop offset=".16" stop-color="#1380da"></stop><stop offset=".53" stop-color="#3c91e5"></stop><stop offset=".82" stop-color="#559cec"></stop><stop offset="1" stop-color="#5ea0ef"></stop></linearGradient>
<linearGradient id="b" x1="9.88" y1="7.11" x2="9.99" y2="17.27" gradientUnits="userSpaceOnUse"><stop offset="0" stop-color="#32d4f5"></stop><stop offset=".32" stop-color="#31d1f3"></stop><stop offset=".53" stop-color="#2ec9eb"></stop><stop offset=".7" stop-color="#29bade"></stop><stop offset=".86" stop-color="#22a5cb"></stop><stop offset="1" stop-color="#198ab3"></stop><stop offset="1" stop-color="#198ab3"></stop></linearGradient>
<radialGradient id="c" cx="9.43" cy="7.03" r="7.27" gradientUnits="userSpaceOnUse"><stop offset="0" stop-color="#f2f2f2"></stop><stop offset=".58" stop-color="#eee"></stop><stop offset="1" stop-color="#e6e6e6"></stop></radialGradient>
</defs>
</svg>