<svg viewBox="0 0 18 18" data-islogo="true" class="" role="presentation" focusable="false" xmlns:svg="http://www.w3.org/2000/svg" xmlns:xlink="http://www.w3.org/1999/xlink" id="FxSymbol0-13f" data-type="245"><g><path d="M13.9 8.989a1.158 1.158 0 1 1-1.159-1.155A1.157 1.157 0 0 1 13.9 8.989zm-4.866-1.15a1.158 1.158 0 1 0 1.159 1.156 1.157 1.157 0 0 0-1.159-1.156zm-3.7 0A1.158 1.158 0 1 0 6.493 9a1.158 1.158 0 0 0-1.159-1.156z" fill="url(#2234a2b0-8e35-4cb8-93a2-033d950b05a2)"></path><path d="M6.184 13.633l-.664.665a.3.3 0 0 1-.424 0L.184 9.402a.6.6 0 0 1-.001-.848l.664-.666 5.335 5.32a.3.3 0 0 1 0 .425z" fill="#50e6ff"></path><path d="M5.421 3.701l.67.667a.3.3 0 0 1 0 .425l-5.245 5.26-.666-.664a.6.6 0 0 1 0-.849L5 3.706a.3.3 0 0 1 .425 0z" fill="#1490df"></path><path d="M17.154 7.885l.664.665a.6.6 0 0 1-.001.849l-4.912 4.897a.3.3 0 0 1-.424 0l-.664-.666a.3.3 0 0 1 0-.424l5.337-5.321z" fill="#50e6ff"></path><path d="M17.823 9.386l-.665.664-5.245-5.26a.3.3 0 0 1 0-.424l.67-.668a.3.3 0 0 1 .424 0l4.82 4.834a.6.6 0 0 1-.002.849z" fill="#1490df"></path></g><defs>
<linearGradient id="2234a2b0-8e35-4cb8-93a2-033d950b05a2" x1="9.038" y1="10.159" x2="9.038" y2="7.834" gradientUnits="userSpaceOnUse"><stop offset="0" stop-color="#5e9624"></stop><stop offset=".241" stop-color="#6fb02a"></stop><stop offset=".501" stop-color="#7cc52f"></stop><stop offset=".756" stop-color="#83d232"></stop><stop offset="1" stop-color="#86d633"></stop></linearGradient>
</defs>
</svg>