<?xml version="1.0" encoding="UTF-8" standalone="no"?>
<!DOCTYPE svg PUBLIC "-//W3C//DTD SVG 1.1//EN" "http://www.w3.org/Graphics/SVG/1.1/DTD/svg11.dtd">
<!-- Generated by Microsoft Visio, SVG Export Azure-Monitor.svg Page-1 -->
<svg xmlns="http://www.w3.org/2000/svg" xmlns:xlink="http://www.w3.org/1999/xlink" xmlns:ev="http://www.w3.org/2001/xml-events"
		xmlns:v="http://schemas.microsoft.com/visio/2003/SVGExtensions/" width="0.541865in" height="0.541763in"
		viewBox="0 0 39.0143 39.0069" xml:space="preserve" color-interpolation-filters="sRGB" class="st12">
	<v:documentProperties v:langID="1033" v:metric="true" v:viewMarkup="false"/>

	<style type="text/css">
	<![CDATA[
		.st1 {fill:#ffffff;stroke:none;stroke-width:0.75}
		.st2 {fill:#7fba00;fill-opacity:0.4}
		.st3 {stroke:none;stroke-width:0.75}
		.st4 {fill:#7fba00;fill-opacity:0.8}
		.st5 {fill:#7fba00;fill-opacity:0.6}
		.st6 {fill:#7fba00;fill-opacity:0.25}
		.st7 {fill:#a0a1a2;stroke:none;stroke-width:0.75}
		.st8 {fill:#ffffff;fill-opacity:0.2;stroke:none;stroke-width:0.75}
		.st9 {fill:#7fba00;stroke:none;stroke-width:0.75}
		.st10 {fill:#dd5900;stroke:none;stroke-width:0.75}
		.st11 {fill:#ff8c00;stroke:none;stroke-width:0.75}
		.st12 {fill:none;fill-rule:evenodd;font-size:12px;overflow:visible;stroke-linecap:square;stroke-miterlimit:3}
	]]>
	</style>

	<g v:mID="0" v:index="1" v:groupContext="foregroundPage">
		<title>Page-1</title>
		<v:pageProperties v:drawingScale="1" v:pageScale="1" v:drawingUnits="0" v:shadowOffsetX="9" v:shadowOffsetY="-9"/>
		<g id="group1-1" transform="translate(1.23445,-2.50686)" v:mID="1" v:groupContext="group">
			<title>Azure Monitor</title>
			<g id="group2-2" v:mID="2" v:groupContext="group">
				<title>g3814</title>
				<g id="shape3-3" v:mID="3" v:groupContext="shape" transform="translate(13.9342,-2.03324)">
					<title>path3775</title>
					<path d="M2.72 8.59 A15.5625 15.5625 -180 1 0 14.03 11.88 A15.285 15.285 -180 0 0 4.39 8.5 A16.065 16.065 -180
								 0 0 2.72 8.59 Z" class="st1"/>
				</g>
				<g id="shape4-5" v:mID="4" v:groupContext="shape" transform="translate(5.87797,-16.5225)">
					<title>path3777</title>
					<path d="M6 34.4 L2.25 31.33 A12.4725 12.4725 -180 0 0 0 39.01 L4.84 38.5 A7.65 7.65 0 0 1 6.03 34.39 L6 34.4
								 Z" class="st2"/>
					<path d="M6 34.4 L2.25 31.33 A12.4725 12.4725 -180 0 0 0 39.01 L4.84 38.5 A7.65 7.65 0 0 1 6.03 34.39"
							class="st3"/>
				</g>
				<g id="shape5-8" v:mID="5" v:groupContext="shape" transform="translate(17.8555,-23.4975)">
					<title>path3779</title>
					<path d="M4.61 38.98 L7.68 35.23 A12.48 12.48 -180 0 0 -0 32.98 L0.51 37.82 A7.6575 7.6575 0 0 1 4.61 39.01 L4.61
								 38.98 Z" class="st4"/>
					<path d="M4.61 38.98 L7.68 35.23 A12.48 12.48 -180 0 0 -0 32.98 L0.51 37.82 A7.6575 7.6575 0 0 1 4.61 39.01"
							class="st3"/>
				</g>
				<g id="shape6-11" v:mID="6" v:groupContext="shape" transform="translate(9.14797,-22.455)">
					<title>path3781</title>
					<path d="M7.52 36.98 L7.01 32.11 A12.4875 12.4875 -180 0 0 0 35.95 L3.75 39.01 A7.6425 7.6425 0 0 1 7.5 36.94
								 L7.52 36.98 Z" class="st5"/>
					<path d="M7.52 36.98 L7.01 32.11 A12.4875 12.4875 -180 0 0 0 35.95 L3.75 39.01 A7.6425 7.6425 0 0 1 7.5 36.94"
							class="st3"/>
				</g>
				<g id="shape7-14" v:mID="7" v:groupContext="shape" transform="translate(6.02797,-7.8075)">
					<title>path3783</title>
					<path d="M4.84 31.48 L0 31.99 A12.48 12.48 -180 0 0 3.84 39.01 L6.9 35.26 A7.6425 7.6425 0 0 1 4.84 31.51 L4.84
								 31.48 Z" class="st6"/>
					<path d="M4.84 31.48 L0 31.99 A12.48 12.48 -180 0 0 3.84 39.01 L6.9 35.26 A7.6425 7.6425 0 0 1 4.84 31.51"
							class="st3"/>
				</g>
				<g id="shape8-17" v:mID="8" v:groupContext="shape" transform="translate(10.3555,6.39488E-14)">
					<title>path3785</title>
					<path d="M26.57 20.06 A18.8475 18.8475 -180 0 0 19.62 7.36 A18.18 18.18 -180 0 0 17.29 5.79 L15.79 8.62 A14.865
								 14.865 0 0 1 17.58 9.85 A15.555 15.555 0 0 1 9.55 37.5 A15.465 15.465 0 0 1 1.5 36.18 L0 39.01 A18.75
								 18.75 -180 0 0 26.57 20.06 Z" class="st7"/>
				</g>
				<g id="shape9-19" v:mID="9" v:groupContext="shape" transform="translate(1.43885E-13,-0.0075)">
					<title>path3787</title>
					<path d="M8.53 34.13 A15.555 15.555 0 0 1 26.21 8.63 L27.71 5.8 A18.75 18.75 -180 0 0 3.71 10.24 A18.6825 18.6825
								 -180 0 0 10.39 39.01 L11.89 36.18 A15.6075 15.6075 0 0 1 8.53 34.13 Z" class="st7"/>
				</g>
				<g id="shape10-21" v:mID="10" v:groupContext="shape" transform="translate(1.43885E-13,-0.0075)">
					<title>path3789</title>
					<path d="M8.53 34.13 A15.555 15.555 0 0 1 26.21 8.63 L27.71 5.8 A18.75 18.75 -180 0 0 3.71 10.24 A18.6825 18.6825
								 -180 0 0 10.39 39.01 L11.89 36.18 A15.6075 15.6075 0 0 1 8.53 34.13 Z" class="st8"/>
				</g>
				<g id="shape11-23" v:mID="11" v:groupContext="shape" transform="translate(23.7955,-19.9125)">
					<title>path3791</title>
					<path d="M3.06 32.68 L0 36.43 A7.62 7.62 0 0 1 1.69 39.01 L6.78 39.01 A12.465 12.465 -180 0 0 3.06 32.68 Z"
							class="st9"/>
				</g>
				<g id="shape12-25" v:mID="12" v:groupContext="shape" transform="translate(16.3551,-14.85)">
					<title>path3793</title>
					<path d="M0.49 38.38 A2.19 2.19 0 0 1 2.03 34.63 A2.16 2.16 0 0 1 3.58 35.23 L14.78 35.23 A1.5975 1.5975 0 1
								 1 14.78 38.42 L3.47 38.42 A2.25 2.25 0 0 1 2.03 39.01 A2.175 2.175 0 0 1 0.49 38.38 Z"
							class="st10"/>
				</g>
				<g id="shape13-27" v:mID="13" v:groupContext="shape" transform="translate(16.198,-16.98)">
					<title>path3795</title>
					<path d="M14.93 37.42 L3.73 37.42 A2.16 2.16 -180 0 0 2.19 36.81 A2.19 2.19 -180 0 0 0 39.01 L16.5 39.01 A1.5975
								 1.5975 -180 0 0 14.93 37.42 Z" class="st11"/>
				</g>
			</g>
		</g>
	</g>
</svg>
