<?xml version="1.0" encoding="UTF-8" standalone="no"?>
<!DOCTYPE svg PUBLIC "-//W3C//DTD SVG 1.1//EN" "http://www.w3.org/Graphics/SVG/1.1/DTD/svg11.dtd">
<!-- Generated by Microsoft Visio, SVG Export Azure-Active-Directory-Privileged-Identity-Management.svg Page-1 -->
<svg xmlns="http://www.w3.org/2000/svg" xmlns:xlink="http://www.w3.org/1999/xlink" xmlns:ev="http://www.w3.org/2001/xml-events"
		xmlns:v="http://schemas.microsoft.com/visio/2003/SVGExtensions/" width="1.00732in" height="1.00732in"
		viewBox="0 0 72.5268 72.5268" xml:space="preserve" color-interpolation-filters="sRGB" class="st7">
	<title>MIS: Enterprise Mobility and Security</title>
	<desc>This package contains stencils that will represent Enterprise Mobility and Security</desc>
	<v:documentProperties v:langID="1033" v:metric="true" v:viewMarkup="false"/>

	<style type="text/css">
	<![CDATA[
		.st1 {fill:#804998;stroke:none;stroke-width:12.24}
		.st2 {fill:#ffffff;fill-opacity:0.15}
		.st3 {stroke:none;stroke-width:12.24}
		.st4 {fill:#ffffff;stroke:none;stroke-width:12.24}
		.st5 {fill:#7fba00;stroke:none;stroke-width:12.24}
		.st6 {fill:#ffffff;fill-opacity:0.5;stroke:none;stroke-width:12.24}
		.st7 {fill:none;fill-rule:evenodd;font-size:12px;overflow:visible;stroke-linecap:square;stroke-miterlimit:3}
	]]>
	</style>

	<g v:mID="0" v:index="1" v:groupContext="foregroundPage">
		<title>Page-1</title>
		<v:pageProperties v:drawingScale="0.0393701" v:pageScale="0.0393701" v:drawingUnits="24" v:shadowOffsetX="9"
				v:shadowOffsetY="-9"/>
		<g id="group5-1" transform="translate(9.96879,-12.24)" v:mID="5" v:groupContext="group">
			<title>Sheet.5</title>
			<g id="group6-2" v:mID="6" v:groupContext="group">
				<title>Sheet.6</title>
				<g id="shape7-3" v:mID="7" v:groupContext="shape" transform="translate(2.27121,0)">
					<title>Sheet.7</title>
					<path d="M48.05 48.5 C48.05 61.77 37.29 72.53 24.02 72.53 C10.75 72.53 0 61.77 0 48.5 C0 35.24 10.75 24.48 24.02
								 24.48 C37.29 24.48 48.05 35.24 48.05 48.5 Z" class="st1"/>
				</g>
				<g id="shape8-5" v:mID="8" v:groupContext="shape" transform="translate(0,-4.08598)">
					<title>Sheet.8</title>
					<path d="M14.78 72.53 C3.77 66.17 0 52.09 6.36 41.08 C12.71 30.07 26.79 26.29 37.8 32.65 L14.78 72.53 Z"
							class="st2"/>
					<path d="M14.78 72.53 C3.77 66.17 0 52.09 6.36 41.08 C12.71 30.07 26.79 26.29 37.8 32.65" class="st3"/>
				</g>
				<g id="shape9-8" v:mID="9" v:groupContext="shape" transform="translate(10.1109,-4.83571)">
					<title>Sheet.9</title>
					<path d="M29.26 57.4 L27.13 55.28 L17.87 64.55 C17.81 64.52 17.75 64.5 17.69 64.47 L17.69 50.34 L14.68 50.34
								 L14.68 64.47 C14.62 64.5 14.56 64.52 14.5 64.55 L7.98 58.03 C8.21 57.51 8.35 56.94 8.35 56.34 A4.17907
								 4.17907 -180 0 0 4.17 52.17 C1.87 52.17 0 54.04 0 56.34 C0 58.64 1.87 60.51 4.17 60.51 L4.18 60.51
								 A4.13403 4.13403 -180 0 0 5.86 60.15 L12.38 66.67 A4.14103 4.14103 -180 0 0 12.01 68.36 A4.17707
								 4.17707 -180 0 0 16.18 72.53 L16.19 72.53 A4.17807 4.17807 -180 0 0 20.36 68.35 C20.36 67.75 20.22
								 67.19 19.99 66.67 L29.26 57.4 ZM4.17 56.17 C4.22 56.17 4.26 56.19 4.29 56.22 L4.05 56.46 a0.171167
								 0.171167 0 0 1 -0.0490478 -0.119116 C4 56.26 4.09 56.17 4.17 56.17 ZM16.18 68.52 a0.167163 0.167163
								 0 0 1 -0.118115 -0.0490478 L16.18 68.35 L16.3 68.47 a0.171167 0.171167 0 0 1 -0.119116 0.0490478
								 Z" class="st4"/>
				</g>
				<g id="shape10-10" v:mID="10" v:groupContext="shape" transform="translate(24.7608,-7.47357)">
					<title>Sheet.10</title>
					<path d="M3.7 70.99 A2.17011 2.17011 0 1 1 1.53 68.82 L1.53 68.82 C2.73 68.82 3.7 69.79 3.7 70.99 Z"
							class="st5"/>
				</g>
				<g id="shape11-12" v:mID="11" v:groupContext="shape" transform="translate(34.1323,-16.8484)">
					<title>Sheet.11</title>
					<path d="M4.17 72.53 C1.87 72.53 0 70.66 0 68.36 C0 66.06 1.87 64.18 4.17 64.18 A4.17907 4.17907 0 0 1 8.35 68.35
								 A4.17607 4.17607 0 0 1 4.18 72.53 L4.17 72.53 ZM4.17 68.19 C4.1 68.19 4.01 68.27 4.01 68.35 a0.168164
								 0.168164 -180 1 0 0.168164 -0.167163 Z" class="st4"/>
				</g>
				<g id="shape12-14" v:mID="12" v:groupContext="shape" transform="translate(12.7491,-19.4853)">
					<title>Sheet.12</title>
					<path d="M27.73 70.99 A2.17011 2.17011 0 1 1 25.56 68.82 L25.56 68.82 C26.76 68.82 27.73 69.79 27.73 70.99 ZM3.7
								 70.99 A2.17011 2.17011 0 1 1 1.53 68.82 L1.53 68.82 C2.73 68.82 3.7 69.79 3.7 70.99 Z" class="st5"/>
				</g>
				<g id="shape13-16" v:mID="13" v:groupContext="shape" transform="translate(21.4629,-29.2285)">
					<title>Sheet.13</title>
					<path d="M9.81 67.62 C9.81 70.33 7.61 72.53 4.9 72.53 C2.2 72.53 0 70.33 0 67.62 C0 64.91 2.2 62.72 4.9 62.72
								 C7.61 62.72 9.81 64.91 9.81 67.62 Z" class="st1"/>
				</g>
				<g id="shape14-18" v:mID="14" v:groupContext="shape" transform="translate(18.46,-26.2256)">
					<title>Sheet.14</title>
					<path d="M7.91 56.71 C3.54 56.71 0 60.25 0 64.62 C0 68.99 3.54 72.53 7.91 72.53 C12.28 72.53 15.82 68.99 15.82
								 64.62 C15.82 60.25 12.28 56.71 7.91 56.71 ZM7.91 69.52 A4.90378 4.90378 0 0 1 3 64.62 C3 61.91 5.2
								 59.71 7.91 59.71 C10.62 59.71 12.81 61.91 12.81 64.62 C12.81 67.33 10.62 69.52 7.91 69.52 Z"
							class="st4"/>
				</g>
				<g id="shape15-20" v:mID="15" v:groupContext="shape" transform="translate(15.1838,-21.9214)">
					<title>Sheet.15</title>
					<path d="M2.12 72.53 L8.89 65.76 A5.93779 5.93779 0 0 1 6.5 63.9 L0 70.4 A3.16308 3.16308 0 0 1 2.12 72.53 ZM20.14
								 72.53 L13.37 65.76 A5.93779 5.93779 -180 0 0 15.76 63.9 L22.26 70.4 A3.16208 3.16208 -180 0 0 20.14
								 72.53 Z" class="st6"/>
				</g>
			</g>
		</g>
	</g>
</svg>
