<svg viewBox="0 0 18 18" class="" role="presentation" focusable="false" xmlns:svg="http://www.w3.org/2000/svg" xmlns:xlink="http://www.w3.org/1999/xlink" id="FxSymbol0-051" data-type="1"><g><title>Icon471-AzureLighthouse</title><path d="M16.65 17.08l-3.59-9.32a.28.28 0 0 0-.26-.18h-2.56V5.36a1.3 1.3 0 1 0-2.59 0v2.22H5.34a.29.29 0 0 0-.27.18l-3.72 9.32a.55.55 0 0 0 .45.78h14.4a.55.55 0 0 0 .45-.78z" fill="url(#b0415b5b-3b98-48a9-9263-d680ffce93e8)"></path><path d="M3.37 12L12 7.58h.75a.28.28 0 0 1 .27.19l.83 2.15L1.8 16zm6.17 5.84l6-3.6 1.09 2.84a.56.56 0 0 1-.46.78z" fill="#83b9f9"></path><path d="M8.87.16L4.75 2.55a.16.16 0 0 0-.08.14v.37a.16.16 0 0 0 .16.16h.62v4.36h.78V3.22h5.44v4.36h.77V3.22h.63a.16.16 0 0 0 .16-.16v-.37a.16.16 0 0 0-.08-.14L9 .16a.22.22 0 0 0-.13 0z" fill="#0078d4"></path></g><defs>
<linearGradient id="b0415b5b-3b98-48a9-9263-d680ffce93e8" x1="9" y1="17.86" x2="9" y2="4.06" gradientUnits="userSpaceOnUse"><stop offset="0" stop-color="#0078d4"></stop><stop offset=".16" stop-color="#1380da"></stop><stop offset=".53" stop-color="#3c91e5"></stop><stop offset=".82" stop-color="#559cec"></stop><stop offset="1" stop-color="#5ea0ef"></stop></linearGradient>
</defs>
</svg>