<?xml version="1.0" encoding="UTF-8" standalone="no"?>
<!DOCTYPE svg PUBLIC "-//W3C//DTD SVG 1.1//EN" "http://www.w3.org/Graphics/SVG/1.1/DTD/svg11.dtd">
<!-- Generated by Microsoft Visio, SVG Export Azure-Firewall.svg Page-1 -->
<svg xmlns="http://www.w3.org/2000/svg" xmlns:xlink="http://www.w3.org/1999/xlink" xmlns:ev="http://www.w3.org/2001/xml-events"
		xmlns:v="http://schemas.microsoft.com/visio/2003/SVGExtensions/" width="0.540625in" height="0.540625in"
		viewBox="0 0 38.925 38.925" xml:space="preserve" color-interpolation-filters="sRGB" class="st5">
	<v:documentProperties v:langID="1033" v:metric="true" v:viewMarkup="false"/>

	<style type="text/css">
	<![CDATA[
		.st1 {fill:#59b4d9;stroke:none;stroke-width:0.75}
		.st2 {fill:#dd5900;stroke:none;stroke-width:0.75}
		.st3 {fill:#a0a1a2;stroke:none;stroke-width:0.75}
		.st4 {fill:#ba141a;stroke:none;stroke-width:0.75}
		.st5 {fill:none;fill-rule:evenodd;font-size:12px;overflow:visible;stroke-linecap:square;stroke-miterlimit:3}
	]]>
	</style>

	<g v:mID="0" v:index="1" v:groupContext="foregroundPage">
		<title>Page-1</title>
		<v:pageProperties v:drawingScale="1" v:pageScale="1" v:drawingUnits="0" v:shadowOffsetX="9" v:shadowOffsetY="-9"/>
		<g id="group14-1" transform="translate(0.75,-0.75)" v:mID="14" v:groupContext="group">
			<title>Azure Firewall</title>
			<g id="shape15-2" v:mID="15" v:groupContext="shape" transform="translate(7.575,-14.2493)">
				<title>Sheet.15</title>
				<path d="M7.09 23.28 C7.78 19.01 11.46 15.75 15.91 15.75 C20.85 15.75 24.86 19.77 24.86 24.74 C24.86 25.31 24.8 25.87
							 24.69 26.42 C27.59 26.74 29.85 29.4 29.85 32.64 C29.85 36.09 27.26 38.93 24.09 38.93 C23.38 38.93 7.63
							 38.93 7.63 38.93 C3.43 38.92 0 35.31 0 30.98 C0 26.91 3.12 23.6 7.09 23.28 Z" class="st1"/>
			</g>
			<g id="group16-4" v:mID="16" v:groupContext="group">
				<title>Sheet.16</title>
				<g id="group17-5" transform="translate(9.75,-15.75)" v:mID="17" v:groupContext="group">
					<title>Sheet.17</title>
					<g id="shape18-6" v:mID="18" v:groupContext="shape" transform="translate(0.75,-0.75)">
						<title>Sheet.18</title>
						<path d="M0.75 38.93 C0.34 38.93 0 38.59 0 38.18 L0 34.43 C0 34.01 0.34 33.68 0.75 33.68 L9 33.68 C9.41 33.68
									 9.75 34.01 9.75 34.43 L9.75 38.18 C9.75 38.59 9.41 38.93 9 38.93 L0.75 38.93 Z" class="st2"/>
					</g>
					<g id="shape19-8" v:mID="19" v:groupContext="shape">
						<title>Sheet.19</title>
						<path d="M9.75 33.68 L9.75 37.43 L1.5 37.43 L1.5 33.68 L9.75 33.68 ZM9.75 32.18 L1.5 32.18 C0.67 32.18 0
									 32.85 0 33.68 L0 37.43 C0 38.25 0.67 38.93 1.5 38.93 L9.75 38.93 C10.58 38.93 11.25 38.25 11.25
									 37.43 L11.25 33.68 C11.25 32.85 10.58 32.18 9.75 32.18 Z" class="st3"/>
					</g>
				</g>
				<g id="group20-10" transform="translate(19.5,-15.75)" v:mID="20" v:groupContext="group">
					<title>Sheet.20</title>
					<g id="shape21-11" v:mID="21" v:groupContext="shape" transform="translate(0.75,-0.75)">
						<title>Sheet.21</title>
						<path d="M0.75 38.93 C0.34 38.93 0 38.59 0 38.18 L0 34.43 C0 34.01 0.34 33.68 0.75 33.68 L9 33.68 C9.41 33.68
									 9.75 34.01 9.75 34.43 L9.75 38.18 C9.75 38.59 9.41 38.93 9 38.93 L0.75 38.93 Z" class="st4"/>
					</g>
					<g id="shape22-13" v:mID="22" v:groupContext="shape">
						<title>Sheet.22</title>
						<path d="M9.75 33.68 L9.75 37.43 L1.5 37.43 L1.5 33.68 L9.75 33.68 ZM9.75 32.18 L1.5 32.18 C0.67 32.18 0
									 32.85 0 33.68 L0 37.43 C0 38.25 0.67 38.93 1.5 38.93 L9.75 38.93 C10.58 38.93 11.25 38.25 11.25
									 37.43 L11.25 33.68 C11.25 32.85 10.58 32.18 9.75 32.18 Z" class="st3"/>
					</g>
				</g>
				<g id="group23-15" transform="translate(-5.79536E-14,-15.75)" v:mID="23" v:groupContext="group">
					<title>Sheet.23</title>
					<g id="shape24-16" v:mID="24" v:groupContext="shape" transform="translate(0.75,-0.75)">
						<title>Sheet.24</title>
						<path d="M0.75 38.93 C0.34 38.93 0 38.59 0 38.18 L0 34.43 C0 34.01 0.34 33.68 0.75 33.68 L9 33.68 C9.41 33.68
									 9.75 34.01 9.75 34.43 L9.75 38.18 C9.75 38.59 9.41 38.93 9 38.93 L0.75 38.93 Z" class="st4"/>
					</g>
					<g id="shape25-18" v:mID="25" v:groupContext="shape">
						<title>Sheet.25</title>
						<path d="M9.75 33.68 L9.75 37.43 L1.5 37.43 L1.5 33.68 L9.75 33.68 ZM9.75 32.18 L1.5 32.18 C0.67 32.18 0
									 32.85 0 33.68 L0 37.43 C0 38.25 0.67 38.93 1.5 38.93 L9.75 38.93 C10.58 38.93 11.25 38.25 11.25
									 37.43 L11.25 33.68 C11.25 32.85 10.58 32.18 9.75 32.18 Z" class="st3"/>
					</g>
				</g>
				<g id="group26-20" transform="translate(9.75,-10.5)" v:mID="26" v:groupContext="group">
					<title>Sheet.26</title>
					<g id="shape27-21" v:mID="27" v:groupContext="shape" transform="translate(0.75,-0.75)">
						<title>Sheet.27</title>
						<path d="M0.75 38.93 C0.34 38.93 0 38.59 0 38.18 L0 34.43 C0 34.01 0.34 33.68 0.75 33.68 L9 33.68 C9.41 33.68
									 9.75 34.01 9.75 34.43 L9.75 38.18 C9.75 38.59 9.41 38.93 9 38.93 L0.75 38.93 Z" class="st4"/>
					</g>
					<g id="shape28-23" v:mID="28" v:groupContext="shape">
						<title>Sheet.28</title>
						<path d="M9.75 33.68 L9.75 37.43 L1.5 37.43 L1.5 33.68 L9.75 33.68 ZM9.75 32.18 L1.5 32.18 C0.67 32.18 0
									 32.85 0 33.68 L0 37.43 C0 38.25 0.67 38.93 1.5 38.93 L9.75 38.93 C10.58 38.93 11.25 38.25 11.25
									 37.43 L11.25 33.68 C11.25 32.85 10.58 32.18 9.75 32.18 Z" class="st3"/>
					</g>
				</g>
				<g id="group29-25" transform="translate(-5.79536E-14,-5.25)" v:mID="29" v:groupContext="group">
					<title>Sheet.29</title>
					<g id="shape30-26" v:mID="30" v:groupContext="shape" transform="translate(0.75,-0.75)">
						<title>Sheet.30</title>
						<path d="M0.75 38.93 C0.34 38.93 0 38.59 0 38.18 L0 34.43 C0 34.01 0.34 33.68 0.75 33.68 L9 33.68 C9.41 33.68
									 9.75 34.01 9.75 34.43 L9.75 38.18 C9.75 38.59 9.41 38.93 9 38.93 L0.75 38.93 Z" class="st2"/>
					</g>
					<g id="shape31-28" v:mID="31" v:groupContext="shape">
						<title>Sheet.31</title>
						<path d="M9.75 33.68 L9.75 37.43 L1.5 37.43 L1.5 33.68 L9.75 33.68 ZM9.75 32.18 L1.5 32.18 C0.67 32.18 0
									 32.85 0 33.68 L0 37.43 C0 38.25 0.67 38.93 1.5 38.93 L9.75 38.93 C10.58 38.93 11.25 38.25 11.25
									 37.43 L11.25 33.68 C11.25 32.85 10.58 32.18 9.75 32.18 Z" class="st3"/>
					</g>
				</g>
				<g id="group32-30" transform="translate(-5.79536E-14,-10.5)" v:mID="32" v:groupContext="group">
					<title>Sheet.32</title>
					<g id="shape33-31" v:mID="33" v:groupContext="shape" transform="translate(0.75,-0.75)">
						<title>Sheet.33</title>
						<path d="M0.75 38.93 C0.34 38.93 0 38.59 0 38.18 L0 34.43 C0 34.01 0.34 33.68 0.75 33.68 L9 33.68 C9.41 33.68
									 9.75 34.01 9.75 34.43 L9.75 38.18 C9.75 38.59 9.41 38.93 9 38.93 L0.75 38.93 Z" class="st4"/>
					</g>
					<g id="shape34-33" v:mID="34" v:groupContext="shape">
						<title>Sheet.34</title>
						<path d="M9.75 33.68 L9.75 37.43 L1.5 37.43 L1.5 33.68 L9.75 33.68 ZM9.75 32.18 L1.5 32.18 C0.67 32.18 0
									 32.85 0 33.68 L0 37.43 C0 38.25 0.67 38.93 1.5 38.93 L9.75 38.93 C10.58 38.93 11.25 38.25 11.25
									 37.43 L11.25 33.68 C11.25 32.85 10.58 32.18 9.75 32.18 Z" class="st3"/>
					</g>
				</g>
				<g id="group35-35" transform="translate(9.75,-7.10543E-15)" v:mID="35" v:groupContext="group">
					<title>Sheet.35</title>
					<g id="shape36-36" v:mID="36" v:groupContext="shape" transform="translate(0.75,-0.75)">
						<title>Sheet.36</title>
						<path d="M0.75 38.93 C0.34 38.93 0 38.59 0 38.18 L0 34.43 C0 34.01 0.34 33.68 0.75 33.68 L9 33.68 C9.41 33.68
									 9.75 34.01 9.75 34.43 L9.75 38.18 C9.75 38.59 9.41 38.93 9 38.93 L0.75 38.93 Z" class="st4"/>
					</g>
					<g id="shape37-38" v:mID="37" v:groupContext="shape">
						<title>Sheet.37</title>
						<path d="M9.75 33.68 L9.75 37.43 L1.5 37.43 L1.5 33.68 L9.75 33.68 ZM9.75 32.18 L1.5 32.18 C0.67 32.18 0
									 32.85 0 33.68 L0 37.43 C0 38.25 0.67 38.93 1.5 38.93 L9.75 38.93 C10.58 38.93 11.25 38.25 11.25
									 37.43 L11.25 33.68 C11.25 32.85 10.58 32.18 9.75 32.18 Z" class="st3"/>
					</g>
				</g>
				<g id="group38-40" transform="translate(19.5,-5.25)" v:mID="38" v:groupContext="group">
					<title>Sheet.38</title>
					<g id="shape39-41" v:mID="39" v:groupContext="shape" transform="translate(0.75,-0.75)">
						<title>Sheet.39</title>
						<path d="M0.75 38.93 C0.34 38.93 0 38.59 0 38.18 L0 34.43 C0 34.01 0.34 33.68 0.75 33.68 L9 33.68 C9.41 33.68
									 9.75 34.01 9.75 34.43 L9.75 38.18 C9.75 38.59 9.41 38.93 9 38.93 L0.75 38.93 Z" class="st4"/>
					</g>
					<g id="shape40-43" v:mID="40" v:groupContext="shape">
						<title>Sheet.40</title>
						<path d="M9.75 33.68 L9.75 37.43 L1.5 37.43 L1.5 33.68 L9.75 33.68 ZM9.75 32.18 L1.5 32.18 C0.67 32.18 0
									 32.85 0 33.68 L0 37.43 C0 38.25 0.67 38.93 1.5 38.93 L9.75 38.93 C10.58 38.93 11.25 38.25 11.25
									 37.43 L11.25 33.68 C11.25 32.85 10.58 32.18 9.75 32.18 Z" class="st3"/>
					</g>
				</g>
				<g id="group41-45" transform="translate(19.5,-10.5)" v:mID="41" v:groupContext="group">
					<title>Sheet.41</title>
					<g id="shape42-46" v:mID="42" v:groupContext="shape" transform="translate(0.75,-0.75)">
						<title>Sheet.42</title>
						<path d="M0.75 38.93 C0.34 38.93 0 38.59 0 38.18 L0 34.43 C0 34.01 0.34 33.68 0.75 33.68 L9 33.68 C9.41 33.68
									 9.75 34.01 9.75 34.43 L9.75 38.18 C9.75 38.59 9.41 38.93 9 38.93 L0.75 38.93 Z" class="st4"/>
					</g>
					<g id="shape43-48" v:mID="43" v:groupContext="shape">
						<title>Sheet.43</title>
						<path d="M9.75 33.68 L9.75 37.43 L1.5 37.43 L1.5 33.68 L9.75 33.68 ZM9.75 32.18 L1.5 32.18 C0.67 32.18 0
									 32.85 0 33.68 L0 37.43 C0 38.25 0.67 38.93 1.5 38.93 L9.75 38.93 C10.58 38.93 11.25 38.25 11.25
									 37.43 L11.25 33.68 C11.25 32.85 10.58 32.18 9.75 32.18 Z" class="st3"/>
					</g>
				</g>
				<g id="group44-50" transform="translate(9.75,-5.25)" v:mID="44" v:groupContext="group">
					<title>Sheet.44</title>
					<g id="shape45-51" v:mID="45" v:groupContext="shape" transform="translate(0.75,-0.75)">
						<title>Sheet.45</title>
						<path d="M0.75 38.93 C0.34 38.93 0 38.59 0 38.18 L0 34.43 C0 34.01 0.34 33.68 0.75 33.68 L9 33.68 C9.41 33.68
									 9.75 34.01 9.75 34.43 L9.75 38.18 C9.75 38.59 9.41 38.93 9 38.93 L0.75 38.93 Z" class="st4"/>
					</g>
					<g id="shape46-53" v:mID="46" v:groupContext="shape">
						<title>Sheet.46</title>
						<path d="M9.75 33.68 L9.75 37.43 L1.5 37.43 L1.5 33.68 L9.75 33.68 ZM9.75 32.18 L1.5 32.18 C0.67 32.18 0
									 32.85 0 33.68 L0 37.43 C0 38.25 0.67 38.93 1.5 38.93 L9.75 38.93 C10.58 38.93 11.25 38.25 11.25
									 37.43 L11.25 33.68 C11.25 32.85 10.58 32.18 9.75 32.18 Z" class="st3"/>
					</g>
				</g>
				<g id="group47-55" transform="translate(19.5,-7.10543E-15)" v:mID="47" v:groupContext="group">
					<title>Sheet.47</title>
					<g id="shape48-56" v:mID="48" v:groupContext="shape" transform="translate(0.75,-0.75)">
						<title>Sheet.48</title>
						<path d="M0.75 38.93 C0.34 38.93 0 38.59 0 38.18 L0 34.43 C0 34.01 0.34 33.68 0.75 33.68 L9 33.68 C9.41 33.68
									 9.75 34.01 9.75 34.43 L9.75 38.18 C9.75 38.59 9.41 38.93 9 38.93 L0.75 38.93 Z" class="st2"/>
					</g>
					<g id="shape49-58" v:mID="49" v:groupContext="shape">
						<title>Sheet.49</title>
						<path d="M9.75 33.68 L9.75 37.43 L1.5 37.43 L1.5 33.68 L9.75 33.68 ZM9.75 32.18 L1.5 32.18 C0.67 32.18 0
									 32.85 0 33.68 L0 37.43 C0 38.25 0.67 38.93 1.5 38.93 L9.75 38.93 C10.58 38.93 11.25 38.25 11.25
									 37.43 L11.25 33.68 C11.25 32.85 10.58 32.18 9.75 32.18 Z" class="st3"/>
					</g>
				</g>
				<g id="group50-60" v:mID="50" v:groupContext="group">
					<title>Sheet.50</title>
					<g id="shape51-61" v:mID="51" v:groupContext="shape" transform="translate(0.75,-0.75)">
						<title>Sheet.51</title>
						<path d="M0.75 38.93 C0.34 38.93 0 38.59 0 38.18 L0 34.43 C0 34.01 0.34 33.68 0.75 33.68 L9 33.68 C9.41 33.68
									 9.75 34.01 9.75 34.43 L9.75 38.18 C9.75 38.59 9.41 38.93 9 38.93 L0.75 38.93 Z" class="st4"/>
					</g>
					<g id="shape52-63" v:mID="52" v:groupContext="shape">
						<title>Sheet.52</title>
						<path d="M9.75 33.68 L9.75 37.43 L1.5 37.43 L1.5 33.68 L9.75 33.68 ZM9.75 32.18 L1.5 32.18 C0.67 32.18 0
									 32.85 0 33.68 L0 37.43 C0 38.25 0.67 38.93 1.5 38.93 L9.75 38.93 C10.58 38.93 11.25 38.25 11.25
									 37.43 L11.25 33.68 C11.25 32.85 10.58 32.18 9.75 32.18 Z" class="st3"/>
					</g>
				</g>
			</g>
		</g>
	</g>
</svg>
