<svg viewBox="0 0 115 115" class="" role="presentation" focusable="false" xmlns:svg="http://www.w3.org/2000/svg" xmlns:xlink="http://www.w3.org/1999/xlink" id="FxSymbol0-114" data-type="1"><g><title></title><circle cx="49.44" cy="51.528" r="39.348" class="msportalfx-svg-c17" fill="#804998"></circle><path d="M60.701 38.554c4.67 2.38 7.746 7.262 7.746 12.52-.843 0-2.173.288-2.945 0-.831-.309-.469-.16-.638-1.409a10.235 10.235 0 0 0-.886-2.966c-1.813-3.886-5.916-6.364-10.207-6.076-4.137.278-7.807 3.134-9.185 7.031-.75 2.121-.384 4.372-1.051 6.508a10.592 10.592 0 0 1-3.781 5.339c4.669 2.38 7.746 7.262 7.746 12.52-.835 0-2.189.283-2.946 0-.715-.267-.459-.051-.603-1.06-.148-1.042-.354-2.028-.774-3.003-1.641-3.813-5.478-6.411-9.642-6.411-4.049 0-7.784 2.448-9.496 6.099a10.195 10.195 0 0 0-.886 2.966c-.114.847.125 1.119-.495 1.409-.681.318-2.305 0-3.089 0 0-5.257 3.075-10.142 7.746-12.52-5.083-3.759-5.638-11.355-1.173-15.82 4.465-4.466 12.058-3.908 15.82 1.174a14.389 14.389 0 0 1 6.3-6.302c-7.931-5.865-3.643-18.901 6.219-18.901 9.866.002 14.149 13.034 6.22 18.902 1.182.602.601-.311 0 0zM33.535 58.057c8.993 0 8.989-13.954 0-13.965-8.989-.011-8.992 13.965 0 13.965zM47.5 30.127c0 8.993 13.976 8.989 13.965 0-.011-8.988-13.965-8.993-13.965 0zm5.063 46.185L77.37 51.503l24.647 24.647-24.809 24.808z" class="msportalfx-svg-c01" fill="#ffffff"></path><path d="M79.343 64.884c-.355.178-.533.178-1.066.355v18.304c.533.178 1.244.533 1.777 1.066l8.174-6.575c-.177-.355-.177-1.066-.177-1.599s.177-1.422.355-1.955l-9.063-9.596zM65.837 74.48c.355.533.533 1.422.533 2.132 0 .533-.178 1.244-.355 1.777l8.175 6.575c.355-.355 1.066-.711 1.599-1.066V65.239c-.355-.178-.533-.178-.711-.355l-9.241 9.596z" class="msportalfx-svg-c15" fill="#59b4d9"></path><path d="M77.21 44.092L48.777 77.857l28.434 23.102 28.433-23.102L77.21 44.092zm15.461 37.141c-1.066 0-1.955-.355-2.843-1.066l-8.175 6.753c.178.355.178.711.178 1.244 0 2.488-1.955 4.62-4.62 4.62s-4.621-1.955-4.621-4.62c0-.355 0-.711.178-1.066l-8.708-6.753c-.711.533-1.6.711-2.488.711-2.488 0-4.62-1.955-4.62-4.62 0-2.488 1.955-4.62 4.62-4.62.711 0 1.422.178 2.133.533l9.063-9.952c-.178-.533-.355-1.244-.355-1.955 0-2.488 1.955-4.62 4.621-4.62s4.62 1.955 4.62 4.62c0 .711-.178 1.599-.533 2.132l8.885 9.952c.711-.355 1.599-.533 2.31-.533 2.488 0 4.621 1.955 4.621 4.62.177 2.665-1.956 4.62-4.266 4.62z" class="msportalfx-svg-c15" fill="#59b4d9"></path></g><defs>
</defs>
</svg>