<?xml version="1.0" encoding="UTF-8" standalone="no"?>
<!DOCTYPE svg PUBLIC "-//W3C//DTD SVG 1.1//EN" "http://www.w3.org/Graphics/SVG/1.1/DTD/svg11.dtd">
<!-- Generated by Microsoft Visio, SVG Export Azure-DDoS-Protection.svg Page-1 -->
<svg xmlns="http://www.w3.org/2000/svg" xmlns:xlink="http://www.w3.org/1999/xlink" xmlns:ev="http://www.w3.org/2001/xml-events"
		xmlns:v="http://schemas.microsoft.com/visio/2003/SVGExtensions/" width="0.548595in" height="0.775566in"
		viewBox="0 0 39.4988 55.8407" xml:space="preserve" color-interpolation-filters="sRGB" class="st9">
	<title>MIS: Enterprise Mobility and Security</title>
	<desc>This package contains stencils that will represent Enterprise Mobility and Security</desc>
	<v:documentProperties v:langID="1033" v:metric="true" v:viewMarkup="false"/>

	<style type="text/css">
	<![CDATA[
		.st1 {fill:#7fba00;stroke:none;stroke-width:0.75}
		.st2 {fill:#96c514;stroke:none;stroke-width:0.75}
		.st3 {fill:#3e3e3e;stroke:none;stroke-width:0.75}
		.st4 {fill:none;stroke:none;stroke-width:0.75}
		.st5 {fill:#1e1e1e;stroke:none;stroke-width:0.75}
		.st6 {fill:#b8d432;stroke:none;stroke-width:0.75}
		.st7 {stroke:none;stroke-linecap:butt;stroke-width:0.75}
		.st8 {fill:#ffffff;fill-opacity:0.098;stroke:none;stroke-width:0.75}
		.st9 {fill:none;fill-rule:evenodd;font-size:12px;overflow:visible;stroke-linecap:square;stroke-miterlimit:3}
	]]>
	</style>

	<g v:mID="0" v:index="1" v:groupContext="foregroundPage">
		<title>Page-1</title>
		<v:pageProperties v:drawingScale="0.0393701" v:pageScale="0.0393701" v:drawingUnits="24" v:shadowOffsetX="9"
				v:shadowOffsetY="-9"/>
		<g id="group5-1" transform="translate(0.75,-0.75)" v:mID="5" v:groupContext="group">
			<title>Sheet.5</title>
			<g id="shape6-2" v:mID="6" v:groupContext="shape">
				<title>svg_1</title>
				<path d="M32.32 10.19 C20.91 8.92 19 3.99 19 3.99 C19 3.99 16.43 10.47 0 10.47 L0 37.03 C0 40.27 1.78 43.24 4.25
							 45.88 C9.85 51.83 19 55.84 19 55.84 C19 55.84 38 47.52 38 37.03 L38 10.47 A51.5212 51.5212 0 0 1 32.33
							 10.18 L32.32 10.19 Z" class="st1"/>
			</g>
			<g id="shape7-4" v:mID="7" v:groupContext="shape" transform="translate(1.9984E-14,-9.96557)">
				<title>svg_2</title>
				<path d="M23.7 31.13 L32.34 20.16 C20.91 18.89 19 13.95 19 13.95 C19 13.95 16.43 20.43 0 20.43 L0 46.99 C0 50.23
							 1.78 53.21 4.25 55.84 L10.63 47.74 L23.7 31.13 Z" class="st2"/>
			</g>
			<g id="shape8-6" v:mID="8" v:groupContext="shape" transform="translate(10.5327,-12.1531)">
				<title>svg_3</title>
				<path d="M16.16 54.46 A1.36925 1.36925 0 0 1 14.8 55.84 L1.38 55.84 A1.36925 1.36925 0 0 1 0 54.49 C0 54.49 0 54.49
							 0 54.49 L0 29.67 A1.36925 1.36925 0 0 1 1.35 28.29 L14.78 28.29 A1.36925 1.36925 0 0 1 16.16 29.65 C16.16
							 29.65 16.16 29.65 16.16 29.65 L16.16 54.46 Z" class="st3"/>
			</g>
			<g id="shape9-8" v:mID="9" v:groupContext="shape" transform="translate(0,-0.0405105)">
				<title>canvas_background</title>
				<path d="M0 55.84 L0 4.03 L38 1.54 L38 53.35 L0 55.84 Z" class="st4"/>
			</g>
			<g id="shape10-10" v:mID="10" v:groupContext="shape" transform="translate(12.8661,-23.0018)">
				<title>svg_4</title>
				<path d="M0 54.05 A1.75815 1.75815 0 0 1 1.72 52.27 L9.9 52.27 A1.75815 1.75815 0 0 1 11.68 54.01 C11.68 54.01 11.68
							 54.01 11.68 54.06 A1.75815 1.75815 0 0 1 9.94 55.84 L1.79 55.84 A1.79866 1.79866 0 0 1 0 54.06 L0 54.05
							 Z" class="st5"/>
			</g>
			<g id="shape11-12" v:mID="11" v:groupContext="shape" transform="translate(12.8661,-28.2925)">
				<title>svg_6</title>
				<path d="M0 54.04 A1.75815 1.75815 0 0 1 1.72 52.27 L9.93 52.27 A1.75815 1.75815 0 0 1 11.72 54.01 C11.72 54.01 11.72
							 54.01 11.72 54.06 A1.75815 1.75815 0 0 1 9.97 55.84 L1.79 55.84 A1.79056 1.79056 0 0 1 0 54.06 L0 54.04
							 Z" class="st5"/>
			</g>
			<g id="shape12-14" v:mID="12" v:groupContext="shape" transform="translate(12.8661,-33.5508)">
				<title>svg_8</title>
				<path d="M0 54.05 A1.75815 1.75815 0 0 1 1.72 52.27 L9.9 52.27 A1.75815 1.75815 0 0 1 11.68 54.01 C11.68 54.01 11.68
							 54.01 11.68 54.06 A1.75815 1.75815 0 0 1 9.94 55.84 L1.79 55.84 A1.83107 1.83107 0 0 1 0 54.06 L0 54.05
							 Z" class="st5"/>
			</g>
			<g id="shape13-16" v:mID="13" v:groupContext="shape" transform="translate(13.5953,-23.6176)">
				<title>svg_5</title>
				<ellipse cx="1.1748" cy="54.6659" rx="1.1748" ry="1.1748" class="st6"/>
			</g>
			<g id="shape14-18" v:mID="14" v:groupContext="shape" transform="translate(13.5953,-28.9164)">
				<title>svg_7</title>
				<ellipse cx="1.1748" cy="54.6659" rx="1.1748" ry="1.1748" class="st6"/>
			</g>
			<g id="shape15-20" v:mID="15" v:groupContext="shape" transform="translate(13.5953,-34.1665)">
				<title>svg_9</title>
				<ellipse cx="1.1748" cy="54.6659" rx="1.1748" ry="1.1748" class="st6"/>
			</g>
			<g id="shape16-22" v:mID="16" v:groupContext="shape" transform="translate(-33.0322,2.96415) rotate(-51.4487)">
				<title>svg_10</title>
				<path d="M0 55.84 L26.07 55.84" class="st7"/>
			</g>
			<g id="shape17-25" v:mID="17" v:groupContext="shape" transform="translate(10.5327,-17.9299)">
				<title>svg_11</title>
				<path d="M0.11 55.7 L13.07 39.21 L16.2 35.22 A1.36925 1.36925 -180 0 0 14.84 34.07 L1.39 34.07 A1.37736 1.37736 -180
							 0 0 -0 35.43 C0 35.43 0 35.43 0 35.43 L0 55.84 L0.11 55.7 Z" class="st8"/>
			</g>
		</g>
	</g>
</svg>
