<svg id="Layer_1" data-name="Layer 1" xmlns="http://www.w3.org/2000/svg" viewBox="0 0 400 140"><defs><style>.cls-1{fill:#c5e0f6;}.cls-2{fill:#59b4d9;}.cls-3,.cls-4,.cls-6{fill:#fff;}.cls-4{opacity:0.5;}.cls-4,.cls-6{isolation:isolate;}.cls-5{fill:#b8d432;}.cls-6{opacity:0.1;}</style></defs><title>ems_identity-access-mgmt-1</title><path class="cls-1" d="M305.19,90.63H255.65c-4.75,0-7.74,0-9.95-.23l-.43,0a15.68,15.68,0,0,1-5-1.38l-.26-.11a17,17,0,0,1,10.74-32.1A18.51,18.51,0,0,1,268,44.48a18,18,0,0,1,8,1.87,17.83,17.83,0,0,1,15.16-8.52,18.3,18.3,0,0,1,17.79,15.6,18.86,18.86,0,0,1-.15,36.77A15.43,15.43,0,0,1,305.19,90.63Z"/><path class="cls-1" d="M77.14,84a15,15,0,0,1,7.2,1.83A23.64,23.64,0,0,1,123,70.4a34.7,34.7,0,0,1,68.82,4.25,20.11,20.11,0,1,1,5.08,39.57H77.14a15.09,15.09,0,1,1,0-30.18Z"/><path class="cls-2" d="M200,130.88a11.14,11.14,0,0,1-7.94-3.29L142.41,77.94a11.23,11.23,0,0,1,0-15.88l49.65-49.65a11.22,11.22,0,0,1,15.88,0l49.65,49.65a11.22,11.22,0,0,1,0,15.89l-49.64,49.65a11.15,11.15,0,0,1-7.94,3.29"/><path class="cls-3" d="M233.15,60.48a9.5,9.5,0,0,0-8,14.74L206.34,94.08a11.08,11.08,0,0,0-1.6-.91V45.06a9.52,9.52,0,1,0-9.49,0V93.17a10.91,10.91,0,0,0-1.54.86L174.84,75.15A9.78,9.78,0,1,0,170,79L189.8,98.81a11.08,11.08,0,1,0,20.42.08L230.13,79a9.42,9.42,0,0,0,3,.54,9.52,9.52,0,0,0,0-19Z"/><rect class="cls-4" x="214.63" y="29.16" width="6.14" height="50.35" transform="translate(25.36 169.88) rotate(-45.01)"/><rect class="cls-4" x="157.16" y="51.29" width="50.35" height="6.15" transform="translate(14.96 144.86) rotate(-45)"/><path class="cls-5" d="M206.49,103.15a6.6,6.6,0,1,1-6.6-6.6,6.6,6.6,0,0,1,6.6,6.6"/><path class="cls-5" d="M205.29,36.85A5.29,5.29,0,1,1,200,31.56a5.29,5.29,0,0,1,5.29,5.29"/><path class="cls-5" d="M172.15,70a5.29,5.29,0,1,1-5.29-5.29A5.3,5.3,0,0,1,172.15,70"/><path class="cls-5" d="M238.45,70a5.3,5.3,0,1,1-5.3-5.29,5.3,5.3,0,0,1,5.3,5.29"/><path class="cls-6" d="M207.94,12.41a11.22,11.22,0,0,0-15.88,0L142.41,62.06a11.22,11.22,0,0,0,0,15.88l28.11,28.11L223.4,27.87Z"/></svg>