<?xml version="1.0" encoding="UTF-8" standalone="no"?>
<!DOCTYPE svg PUBLIC "-//W3C//DTD SVG 1.1//EN" "http://www.w3.org/Graphics/SVG/1.1/DTD/svg11.dtd">
<!-- Generated by Microsoft Visio, SVG Export Azure-Active-Directory-B2C.svg Page-1 -->
<svg xmlns="http://www.w3.org/2000/svg" xmlns:xlink="http://www.w3.org/1999/xlink" xmlns:ev="http://www.w3.org/2001/xml-events"
		xmlns:v="http://schemas.microsoft.com/visio/2003/SVGExtensions/" width="1.02144in" height="0.959514in"
		viewBox="0 0 73.5435 69.085" xml:space="preserve" color-interpolation-filters="sRGB" class="st4">
	<title>MIS: Enterprise Mobility and Security</title>
	<desc>This package contains stencils that will represent Enterprise Mobility and Security</desc>
	<v:documentProperties v:langID="1033" v:metric="true" v:viewMarkup="false"/>

	<style type="text/css">
	<![CDATA[
		.st1 {fill:#804998;stroke:none;stroke-width:5.32174}
		.st2 {fill:#ffffff;stroke:none;stroke-width:5.32174}
		.st3 {fill:#59b4d9;stroke:none;stroke-width:5.32174}
		.st4 {fill:none;fill-rule:evenodd;font-size:12px;overflow:visible;stroke-linecap:square;stroke-miterlimit:3}
	]]>
	</style>

	<g v:mID="0" v:index="1" v:groupContext="foregroundPage">
		<title>Page-1</title>
		<v:pageProperties v:drawingScale="0.0393701" v:pageScale="0.0393701" v:drawingUnits="24" v:shadowOffsetX="9"
				v:shadowOffsetY="-9"/>
		<g id="group5-1" transform="translate(5.32174,-5.32174)" v:mID="5" v:groupContext="group">
			<title>Sheet.5</title>
			<g id="group6-2" v:mID="6" v:groupContext="group">
				<title>Sheet.6</title>
				<g id="shape7-3" v:mID="7" v:groupContext="shape" transform="translate(-3.19744E-13,-6.63744)">
					<title>Sheet.7</title>
					<ellipse cx="25.902" cy="43.183" rx="25.902" ry="25.902" class="st1"/>
				</g>
				<g id="shape8-5" v:mID="8" v:groupContext="shape" transform="translate(6.23853,-0.000658281)">
					<title>Sheet.8</title>
					<path d="M27.08 28.01 C30.15 29.57 32.18 32.79 32.18 36.25 C31.62 36.25 30.74 36.44 30.24 36.25 C29.69 36.04
								 29.93 36.14 29.82 35.32 A6.7375 6.7375 -180 0 0 29.23 33.37 C28.04 30.81 25.34 29.18 22.51 29.37
								 C19.79 29.55 17.38 31.43 16.47 34 C15.97 35.39 16.22 36.87 15.78 38.28 A6.97251 6.97251 0 0 1 13.29
								 41.79 C16.36 43.36 18.39 46.58 18.39 50.04 C17.84 50.04 16.95 50.22 16.45 50.04 C15.98 49.86 16.14
								 50 16.05 49.34 C15.95 48.65 15.82 48 15.54 47.36 C14.46 44.85 11.93 43.14 9.19 43.14 C6.53 43.14
								 4.07 44.75 2.94 47.16 A6.71117 6.71117 -180 0 0 2.36 49.11 C2.28 49.67 2.44 49.85 2.03 50.04 C1.59
								 50.25 0.52 50.04 0 50.04 C0 46.58 2.02 43.36 5.1 41.79 C1.75 39.32 1.39 34.32 4.33 31.38 C7.27 28.44
								 12.26 28.81 14.74 32.15 A9.472 9.472 0 0 1 18.89 28 C13.67 24.14 16.49 15.56 22.98 15.56 C29.48
								 15.56 32.3 24.14 27.08 28.01 C27.85 28.4 27.47 27.8 27.08 28.01 ZM9.19 40.84 C15.11 40.84 15.11
								 31.66 9.19 31.65 C3.28 31.64 3.27 40.84 9.19 40.84 ZM18.39 22.46 C18.39 28.38 27.59 28.38 27.58
								 22.46 C27.57 16.54 18.39 16.54 18.39 22.46 ZM21.72 52.86 L38.05 36.53 L54.27 52.75 L37.94 69.08
								 L21.72 52.86 Z" class="st2"/>
				</g>
				<g id="shape9-7" v:mID="9" v:groupContext="shape" transform="translate(36.6959,-10.5292)">
					<title>Sheet.9</title>
					<path d="M8.89 55.87 C8.66 55.98 8.54 55.98 8.19 56.1 L8.19 68.15 C8.54 68.27 9.01 68.5 9.36 68.85 L14.74 64.52
								 C14.62 64.29 14.62 63.82 14.62 63.47 C14.62 63.12 14.74 62.53 14.86 62.18 L8.89 55.87 ZM0 62.18
								 C0.23 62.53 0.35 63.12 0.35 63.59 C0.35 63.94 0.23 64.41 0.12 64.76 L5.5 69.08 C5.73 68.85 6.2 68.62
								 6.55 68.38 L6.55 56.1 C6.32 55.98 6.2 55.98 6.08 55.87 L0 62.18 Z" class="st3"/>
				</g>
				<g id="shape10-9" v:mID="10" v:groupContext="shape" transform="translate(25.4656,0)">
					<title>Sheet.10</title>
					<path d="M18.72 31.65 L0 53.88 L18.72 69.08 L37.43 53.88 L18.72 31.65 ZM28.89 56.1 C28.19 56.1 27.61 55.87 27.02
								 55.4 L21.64 59.84 C21.76 60.08 21.76 60.31 21.76 60.66 C21.76 62.3 20.47 63.7 18.72 63.7 C16.96
								 63.7 15.68 62.42 15.68 60.66 C15.68 60.43 15.68 60.19 15.79 59.96 L10.06 55.52 C9.59 55.87 9.01
								 55.98 8.42 55.98 C6.78 55.98 5.38 54.7 5.38 52.94 C5.38 51.3 6.67 49.9 8.42 49.9 C8.89 49.9 9.36
								 50.02 9.83 50.25 L15.79 43.7 C15.68 43.35 15.56 42.88 15.56 42.41 C15.56 40.78 16.85 39.37 18.6
								 39.37 C20.36 39.37 21.64 40.66 21.64 42.41 C21.64 42.88 21.53 43.47 21.29 43.82 L27.14 50.37 C27.61
								 50.13 28.19 50.02 28.66 50.02 C30.3 50.02 31.7 51.3 31.7 53.06 C31.82 54.81 30.42 56.1 28.89 56.1
								 Z" class="st3"/>
				</g>
			</g>
		</g>
	</g>
</svg>
