<svg viewBox="0 0 18 18" class="" role="presentation" focusable="false" xmlns:svg="http://www.w3.org/2000/svg" xmlns:xlink="http://www.w3.org/1999/xlink" id="FxSymbol0-124" data-type="1"><g><title>Icon-identity-227</title><path fill="#50e6ff" d="M1.15 10.22l7.78 5.05 7.92-5.06 1 1.15-8.92 5.75-8.78-5.74 1-1.15z"></path><path d="M1.73 9.58L8.93 1l7.35 8.59-7.35 4.64-7.2-4.65z" class="msportalfx-svg-c01" fill="#ffffff"></path><path fill="#50e6ff" d="M8.93 1v13.23l-7.2-4.65L8.93 1z"></path><path fill="url(#bb67b154-af8f-4a53-a9ce-aa046b9398e9)" d="M8.93 1v13.23l7.35-4.64L8.93 1z"></path><path fill="#53b1e0" d="M8.93 7.83l7.35 1.76-7.35 4.64v-6.4z"></path><path fill="#9cebff" d="M8.93 14.23l-7.2-4.65 7.2-1.75v6.4z"></path><path fill="url(#a47d7138-084a-471d-8d63-744e75b9e8a3)" d="M8.93 17.11l8.92-5.75-1-1.15-7.92 5.06v1.84z"></path><path d="M16.32 11.88a1.16 1.16 0 0 0 0-1.65l-2-2a1.16 1.16 0 0 0-1.64 0l-2 2a1.18 1.18 0 0 0 0 1.65l1.67 1.67a.32.32 0 0 1 .09.23v3.1a.36.36 0 0 0 .12.28l.76.76a.25.25 0 0 0 .37 0l.73-.73.44-.44a.15.15 0 0 0 0-.21l-.31-.31a.16.16 0 0 1 0-.24l.31-.31a.16.16 0 0 0 0-.22l-.31-.31a.15.15 0 0 1 0-.23l.31-.32a.15.15 0 0 0 0-.21l-.44-.44v-.16zM13.5 8.71a.66.66 0 1 1-.66.66.66.66 0 0 1 .66-.66z" fill="#ffca00"></path><path d="M13 17a.14.14 0 0 0 .24-.11v-2.56a.16.16 0 0 0-.06-.13.14.14 0 0 0-.22.13v2.51A.15.15 0 0 0 13 17z" fill="#ff9300" opacity=".75"></path><rect x="11.9" y="10.9" width="3.29" height=".39" rx=".18" fill="#ff9300" opacity=".75"></rect><rect x="11.9" y="11.53" width="3.29" height=".39" rx=".18" fill="#ff9300" opacity=".75"></rect></g><defs>
<linearGradient id="bb67b154-af8f-4a53-a9ce-aa046b9398e9" x1="13.18" y1="13.01" x2="8.63" y2="4.38" gradientUnits="userSpaceOnUse"><stop offset="0" stop-color="#1988d9"></stop><stop offset=".9" stop-color="#54aef0"></stop></linearGradient>
<linearGradient id="a47d7138-084a-471d-8d63-744e75b9e8a3" x1="11.22" y1="10.5" x2="14.37" y2="15.93" gradientUnits="userSpaceOnUse"><stop offset=".1" stop-color="#54aef0"></stop><stop offset=".29" stop-color="#4fabee"></stop><stop offset=".51" stop-color="#41a2e9"></stop><stop offset=".74" stop-color="#2a93e0"></stop><stop offset=".88" stop-color="#1988d9"></stop></linearGradient>
</defs>
</svg>