<svg viewBox="0 0 50 50" class="" role="presentation" focusable="false" xmlns:svg="http://www.w3.org/2000/svg" xmlns:xlink="http://www.w3.org/1999/xlink" id="FxSymbol0-0bd" data-type="1"><g><title></title><path d="M23.43.988L1.284 29.04a2 2 0 0 0 .387 2.852l22.146 16.24a2 2 0 0 0 2.365 0l22.146-16.24a2 2 0 0 0 .387-2.852L26.57.988a2 2 0 0 0-3.14 0z" class="msportalfx-svg-c19" fill="#0072c6"></path><path opacity=".4" d="M27.198 47.388l20.441-14.99c-.99-1.27-2.47-2.14-4.168-2.275l-5.664-7.208a5.85 5.85 0 0 0 .094-1.015c0-3.254-2.646-5.9-5.9-5.9s-5.9 2.646-5.9 5.9c0 .347.036.684.094 1.015l-5.664 7.208C17.496 30.364 15.1 32.905 15.1 36a5.906 5.906 0 0 0 7.054 5.785l3.989 2.901a5.85 5.85 0 0 0 1.055 2.702z" class="msportalfx-svg-c01" fill="#ffffff"></path><path d="M46.594 35.718L33.123 18.573h-2.246L17.406 35.718l.212 1.532 13.144 9.559h2.477l13.144-9.559.211-1.532z" class="msportalfx-svg-c16" fill="#3999c6"></path><circle cx="21" cy="36" r="4.9" class="msportalfx-svg-c16" fill="#3999c6"></circle><circle cx="43" cy="36" r="4.9" class="msportalfx-svg-c16" fill="#3999c6"></circle><circle cx="32" cy="44" r="4.9" class="msportalfx-svg-c16" fill="#3999c6"></circle><path d="M32 26.8a4.905 4.905 0 0 1-4.9-4.899c0-2.702 2.198-4.9 4.9-4.9s4.9 2.198 4.9 4.9A4.905 4.905 0 0 1 32 26.8z" class="msportalfx-svg-c16" fill="#3999c6"></path><path opacity=".25" d="M22.428 35.802L32 32.618l9.572 3.184L32 42.764z" class="msportalfx-svg-c01" fill="#ffffff"></path><circle cx="21" cy="36" r="2.9" class="msportalfx-svg-c01" fill="#ffffff"></circle><circle cx="43" cy="36" r="2.9" class="msportalfx-svg-c01" fill="#ffffff"></circle><circle cx="32" cy="44" r="2.9" class="msportalfx-svg-c01" fill="#ffffff"></circle><path d="M32 24.899c-1.6 0-2.9-1.301-2.9-2.899 0-1.6 1.301-2.9 2.9-2.9s2.9 1.301 2.9 2.9-1.3 2.899-2.9 2.899z" class="msportalfx-svg-c01" fill="#ffffff"></path><path opacity=".6" d="M20.212 35.379l11.004-13.996 1.573 1.236-11.005 13.996z" class="msportalfx-svg-c01" fill="#ffffff"></path><path opacity=".6" d="M31.212 22.619l1.573-1.236 10.999 14-1.573 1.235z" class="msportalfx-svg-c01" fill="#ffffff"></path><path d="M43.588 36.809l-1.176-1.618L33 42.037V22h-2v20.037l-9.412-6.846-1.176 1.618 11 8h1.176z" class="msportalfx-svg-c01" fill="#ffffff"></path><circle cx="21" cy="36" r="1.9" class="msportalfx-svg-c14" fill="#57a300"></circle><circle cx="43" cy="36" r="1.9" class="msportalfx-svg-c14" fill="#57a300"></circle><circle cx="32" cy="44" r="1.9" class="msportalfx-svg-c14" fill="#57a300"></circle><circle cx="32" cy="22" r="1.9" class="msportalfx-svg-c14" fill="#57a300"></circle></g><defs>
<linearGradient id="a" x1="9" y1="16.39" x2="9" y2="-1.94" gradientUnits="userSpaceOnUse"><stop offset="0" stop-color="#0078d4"></stop><stop offset=".16" stop-color="#1380da"></stop><stop offset=".53" stop-color="#3c91e5"></stop><stop offset=".82" stop-color="#559cec"></stop><stop offset="1" stop-color="#5ea0ef"></stop></linearGradient>
<linearGradient id="b" x1="9.88" y1="7.11" x2="9.99" y2="17.27" gradientUnits="userSpaceOnUse"><stop offset="0" stop-color="#32d4f5"></stop><stop offset=".32" stop-color="#31d1f3"></stop><stop offset=".53" stop-color="#2ec9eb"></stop><stop offset=".7" stop-color="#29bade"></stop><stop offset=".86" stop-color="#22a5cb"></stop><stop offset="1" stop-color="#198ab3"></stop><stop offset="1" stop-color="#198ab3"></stop></linearGradient>
<radialGradient id="c" cx="9.43" cy="7.03" r="7.27" gradientUnits="userSpaceOnUse"><stop offset="0" stop-color="#f2f2f2"></stop><stop offset=".58" stop-color="#eee"></stop><stop offset="1" stop-color="#e6e6e6"></stop></radialGradient>
</defs>
</svg>