<svg viewBox="96 243.8 568.8 536.5" class="" role="presentation" focusable="false" xmlns:svg="http://www.w3.org/2000/svg" xmlns:xlink="http://www.w3.org/1999/xlink" id="FxSymbol0-05b" data-type="1"><g><title></title><path d="M366.8 318.3H105.4v210.9c0 3.3 1.3 6.6 3.6 9.1l-.1.1c.3.3.7.7 1.1.9 2.4 2.2 5.5 3.6 9.2 3.6h271.7c6.9 0 13.8-5.7 13.8-13.8V318.3h-37.9z" class="msportalfx-svg-c15" fill="#59b4d9"></path><path d="M162.8 365.3h186.8v17.2H162.8zm0 56.1h186.8v17.2H162.8zm0 56.2h186.8v17.2H162.8z" class="msportalfx-svg-c01" fill="#ffffff"></path><path d="M541 467.3s13.8-102-80.2-121.5c0 0-8-1.1-18.3-1.1-11.5 0-16 3.4-16 3.4v41.3s3.4-3.4 18.3-3.4c9.2 0 16 1.1 19.5 1.1 21.8 6.9 42.4 22.9 37.8 79.1H462l63 77.9 61.9-77.9H541v1.1z" class="msportalfx-svg-c14" fill="#57a300"></path><path d="M621.3 598h-8v130.6H482.6V739c0 4.6 1.1 8 5.7 8h135.3c4.6 0 8-3.4 8-8V606c0-4.6-5.7-8-10.3-8z" class="msportalfx-svg-c15" fill="#59b4d9"></path><path d="M654.5 631.2h-8v129.5c0 1.1-1.1 1.1-1.1 1.1H515.8v10.3c0 4.6 1.1 8 5.7 8h133c5.7 0 10.3-4.6 10.3-10.3V639.2c0-4.5-5.7-8-10.3-8z" class="msportalfx-svg-c15" fill="#59b4d9"></path><path d="M143.3 318.3h261.3v-60.8c0-6.9-5.7-13.8-13.8-13.8H119.2c-6.9 0-13.8 5.7-13.8 13.8v60.8h37.9zm442.4 243h-133c-4.6 0-8 3.4-8 8v29.8h148.9v-29.8c.2-4.6-3.3-8-7.9-8z" class="msportalfx-svg-c16" fill="#3999c6"></path><path d="M575.4 598H444.8v104.3c0 4.6 3.4 8 8 8h133c4.6 0 8-3.4 8-8V598h-18.4z" class="msportalfx-svg-c15" fill="#59b4d9"></path><path d="M479.1 616.3h74.5v18.3h-74.5z" class="msportalfx-svg-c01" fill="#ffffff"></path><path opacity=".2" d="M367 318.3H105.6v210.9c0 3.4 1.4 6.9 3.9 9.5 2.4 2.6 295.3-220.4 295.3-220.4H367zM593.8 598h-149v103.7s-.4 3.6 1.9 5.9L593.8 598z" class="msportalfx-svg-c01" fill="#ffffff"></path></g><defs>
<linearGradient id="a" x1="9" y1="16.39" x2="9" y2="-1.94" gradientUnits="userSpaceOnUse"><stop offset="0" stop-color="#0078d4"></stop><stop offset=".16" stop-color="#1380da"></stop><stop offset=".53" stop-color="#3c91e5"></stop><stop offset=".82" stop-color="#559cec"></stop><stop offset="1" stop-color="#5ea0ef"></stop></linearGradient>
<linearGradient id="b" x1="9.88" y1="7.11" x2="9.99" y2="17.27" gradientUnits="userSpaceOnUse"><stop offset="0" stop-color="#32d4f5"></stop><stop offset=".32" stop-color="#31d1f3"></stop><stop offset=".53" stop-color="#2ec9eb"></stop><stop offset=".7" stop-color="#29bade"></stop><stop offset=".86" stop-color="#22a5cb"></stop><stop offset="1" stop-color="#198ab3"></stop><stop offset="1" stop-color="#198ab3"></stop></linearGradient>
<radialGradient id="c" cx="9.43" cy="7.03" r="7.27" gradientUnits="userSpaceOnUse"><stop offset="0" stop-color="#f2f2f2"></stop><stop offset=".58" stop-color="#eee"></stop><stop offset="1" stop-color="#e6e6e6"></stop></radialGradient>
</defs>
</svg>