<?xml version="1.0" encoding="utf-8"?>
<!-- Generator: Adobe Illustrator 22.1.0, SVG Export Plug-In . SVG Version: 6.00 Build 0)  -->
<svg version="1.1" xmlns="http://www.w3.org/2000/svg" xmlns:xlink="http://www.w3.org/1999/xlink" x="0px" y="0px" width="50px"
	 height="50px" viewBox="0 0 50 50" enable-background="new 0 0 50 50" xml:space="preserve">
<g id="Layer_1" display="none">
	<circle display="inline" fill="#7FBA00" cx="15" cy="5" r="3.279"/>
	<circle display="inline" fill="#7FBA00" cx="15" cy="44" r="3.279"/>
	<path display="inline" fill="#7FBA00" d="M26.56,30.882c0,4.797-4.758,8.279-11.314,8.279c-5.764,0-9.378-2.172-11.035-6.638
		l5.627-1.06c0.728,1.573,2.336,3.368,5.878,3.368c3.543,0,4.864-2.128,4.864-3.469c0-2.789-3.364-3.756-4.81-4.042
		c-6.143-1.219-10.491-2.624-10.491-9.658c0-5.775,5.37-7.825,9.968-7.825c5.03,0,8.301,1.663,9.993,5.082l-4.862,1.544
		c-1.02-1.739-2.761-2.658-5.045-2.658c-3.335,0-4.217,2.299-4.217,3.515c0,1.674,1.67,3.143,4.253,3.742
		c3.241,0.751,5.516,1.329,6.844,1.888C24.314,23.836,26.56,26.384,26.56,30.882"/>
	<path display="inline" fill="#7A7B7B" d="M43.893,48.9c-0.536,0-1.04-0.209-1.419-0.588l-7.813-7.81l2.842-2.843l7.812,7.813
		c0.377,0.381,0.586,0.886,0.586,1.421C45.9,48,45,48.9,43.893,48.9z"/>
	<path display="inline" opacity="0.4" fill="#1D1D1D" enable-background="new    " d="M35.457,41.299l2.842-2.842l1.767,1.767
		c-0.766,1.12-1.721,2.075-2.842,2.842L35.457,41.299z"/>
	<circle display="inline" fill="#FFFFFF" cx="27.993" cy="30.993" r="10.418"/>
	<path display="inline" opacity="0.7" fill="#7FBA00" d="M19.053,26.775c1.603,0.738,3.646,2.489,3.646,4.579
		c0,1.186-1.363,3.562-3.468,4.407c0.623,1.803,2.131,3.424,3.438,4.757c4.477-1.619,6.847-5.437,6.847-9.553
		c0-5.503-3.249-8.62-5.821-9.702C23.488,21.176,19.825,24.168,19.053,26.775z"/>
	<g display="inline" opacity="0.5">
		<path fill="#FFFFFF" d="M27.993,22.441c4.715,0,8.552,3.836,8.552,8.552s-3.836,8.552-8.552,8.552s-8.552-3.836-8.552-8.552
			S23.277,22.441,27.993,22.441 M27.993,21.441c-5.275,0-9.552,4.276-9.552,9.552s4.276,9.552,9.552,9.552s9.552-4.276,9.552-9.552
			S33.268,21.441,27.993,21.441L27.993,21.441z"/>
	</g>
	<path display="inline" fill="#7A7B7B" d="M15.1,31c0,7.125,5.775,12.9,12.9,12.9S40.9,38.125,40.9,31S35.125,18.1,28,18.1
		S15.1,23.875,15.1,31z M18.441,31c0-5.279,4.279-9.559,9.559-9.559S37.559,25.72,37.559,31S33.28,40.559,28,40.559
		S18.441,36.279,18.441,31z"/>
</g>
<g id="Layer_2">
	<circle fill="#FF8C00" cx="18.001" cy="3.001" r="2.949"/>
	<circle fill="#FF8C00" cx="3.001" cy="25.001" r="2.949"/>
	<circle fill="#FF8C00" cx="4.001" cy="15.001" r="2.949"/>
	<circle fill="#FF8C00" cx="9.001" cy="7.001" r="2.949"/>
	<circle opacity="0.2" fill="#7FBA00" cx="18.001" cy="3.001" r="2.949"/>
	<circle opacity="0.2" fill="#7FBA00" cx="3.001" cy="25.001" r="2.949"/>
	<circle opacity="0.2" fill="#7FBA00" cx="4.001" cy="15.001" r="2.949"/>
	<circle opacity="0.2" fill="#7FBA00" cx="9.001" cy="7.001" r="2.949"/>
	<circle fill="#7FBA00" cx="25" cy="11.001" r="2.25"/>
	<circle fill="#7FBA00" cx="25" cy="39.001" r="2.25"/>
	<path fill="#7FBA00" d="M32.897,29.511c0,3.39-3.362,5.851-7.995,5.851c-4.073,0-6.627-1.535-7.798-4.691l3.977-0.749
		c0.515,1.111,1.651,2.38,4.153,2.38c2.504,0,3.437-1.504,3.437-2.451c0-1.971-2.377-2.654-3.399-2.857
		c-4.341-0.861-7.414-1.854-7.414-6.825c0-4.081,3.795-5.529,7.044-5.529c3.554,0,5.866,1.175,7.061,3.591l-3.436,1.091
		c-0.721-1.229-1.951-1.878-3.565-1.878c-2.357,0-2.98,1.625-2.98,2.484c0,1.183,1.18,2.221,3.006,2.645
		c2.29,0.531,3.898,0.939,4.836,1.335C31.309,24.532,32.897,26.332,32.897,29.511"/>
	<path fill="#7FBA00" d="M46.432,14.49C42.345,6.386,33.644,1.283,25,0.93v3.828c7.215,0.344,14.61,4.702,18.016,11.455
		c4.989,9.89,1.001,21.995-8.889,26.984c-8.71,4.393-19.801,1.358-25.699-6.157l-3.159,2.246c6.98,9.045,20.142,12.594,30.581,7.328
		C47.643,40.665,52.381,26.283,46.432,14.49z"/>
	<polygon fill="#7FBA00" points="2.563,43.65 3.576,31.651 14.089,35.455 	"/>
</g>
</svg>
