<svg viewBox="0 0 50 50" class="fxs-portal-svg" role="presentation" focusable="false" xmlns:svg="http://www.w3.org/2000/svg" xmlns:xlink="http://www.w3.org/1999/xlink" id="FxSymbol0-117" data-type="1"><g><title></title><path d="M44 7.8L39.2 3l-2-2H4v48h42V9.8z" class="msportalfx-svg-c15" fill="#59b4d9"></path><path opacity=".8" d="M37 3H6v44h38V10h-7z" class="msportalfx-svg-c01" fill="#ffffff"></path><path d="M29.347 28.611c-1.176 1.029-2.721 1.691-4.412 1.691s-3.235-.662-4.412-1.691l-.662 13.235 5-5.074 5 5.074-.514-13.235z" class="msportalfx-svg-c08" fill="#ba141a"></path><ellipse cx="25.025" cy="23" rx="7.875" ry="7.9" class="msportalfx-svg-c09" fill="#dd5900"></ellipse><ellipse cx="25.025" cy="23" rx="5.974" ry="5.993" class="msportalfx-svg-c10" fill="#ff8c00"></ellipse><path opacity=".15" d="M19.391 28.653c-3.055-3.065-3.055-8.104 0-11.169s8.078-3.065 11.133 0L19.391 28.653z" class="msportalfx-svg-c01" fill="#ffffff"></path></g><defs>
<linearGradient id="a" x1="9" y1="17.86" x2="9" y2="4.06" gradientUnits="userSpaceOnUse"><stop offset="0" stop-color="#0078d4"></stop><stop offset=".16" stop-color="#1380da"></stop><stop offset=".53" stop-color="#3c91e5"></stop><stop offset=".82" stop-color="#559cec"></stop><stop offset="1" stop-color="#5ea0ef"></stop></linearGradient>
<linearGradient id="b" x1="6.4" y1="1.32" x2="7.21" y2="11.39"><stop offset=".22" stop-color="#32d4f5"></stop><stop offset=".47" stop-color="#31d1f3"></stop><stop offset=".63" stop-color="#2ec9eb"></stop><stop offset=".77" stop-color="#29bade"></stop><stop offset=".89" stop-color="#22a5cb"></stop><stop offset="1" stop-color="#198ab3"></stop><stop offset="1" stop-color="#198ab3"></stop></linearGradient>
<linearGradient id="c" x1="13.76" y1="18.05" x2="13.76" y2="10.25" gradientUnits="userSpaceOnUse"><stop offset="0" stop-color="#76bc2d"></stop><stop offset=".6" stop-color="#81ce31"></stop><stop offset=".82" stop-color="#86d633"></stop></linearGradient>
</defs>
</svg>