<svg viewBox="0 0 18 18" data-islogo="true" class="" role="presentation" focusable="false" xmlns:svg="http://www.w3.org/2000/svg" xmlns:xlink="http://www.w3.org/1999/xlink" id="FxSymbol0-0fe" data-type="60"><g><path d="M16.08 8.44c0 4.57-5.62 8.25-6.85 9a.43.43 0 0 1-.46 0c-1.23-.74-6.85-4.42-6.85-9v-5.5a.44.44 0 0 1 .43-.44C6.73 2.39 5.72.5 9 .5s2.27 1.89 6.65 2a.44.44 0 0 1 .43.44z" fill="#0078d4"></path><path d="M15.5 8.48c0 4.2-5.16 7.57-6.29 8.25a.4.4 0 0 1-.42 0c-1.13-.68-6.29-4.05-6.29-8.25v-5A.41.41 0 0 1 2.9 3C6.92 2.93 6 1.21 9 1.21S11.08 2.93 15.1 3a.41.41 0 0 1 .4.4z" fill="url(#9f64e61e-add7-48bb-8a64-ad1c23f2477a)"></path><path d="M11.85 7.66h-.4V6.24a2.62 2.62 0 0 0-.7-1.81 2.37 2.37 0 0 0-3.48 0 2.61 2.61 0 0 0-.7 1.81v1.42h-.4a.32.32 0 0 0-.35.34v3.68a.32.32 0 0 0 .33.32h5.7a.32.32 0 0 0 .33-.32V8a.32.32 0 0 0-.33-.34zm-1.55 0H7.7V6.22a1.43 1.43 0 0 1 .41-1 1.19 1.19 0 0 1 1.78 0 1.56 1.56 0 0 1 .16.2 1.4 1.4 0 0 1 .25.79z" fill="#ffbd02"></path><path d="M6.15 7.66h5.7a.32.32 0 0 1 .21.08L5.94 11.9a.33.33 0 0 1-.12-.24V8a.32.32 0 0 1 .33-.34z" fill="#ffe452"></path><path d="M11.85 7.66h-5.7a.32.32 0 0 0-.21.08l6.12 4.16a.3.3 0 0 0 .12-.24V8a.32.32 0 0 0-.33-.34z" fill="#ffd400" opacity=".5"></path></g><defs>
<linearGradient id="a" x1="9" y1="16.39" x2="9" y2="-1.94" gradientUnits="userSpaceOnUse"><stop offset="0" stop-color="#0078d4"></stop><stop offset=".16" stop-color="#1380da"></stop><stop offset=".53" stop-color="#3c91e5"></stop><stop offset=".82" stop-color="#559cec"></stop><stop offset="1" stop-color="#5ea0ef"></stop></linearGradient>
<linearGradient id="b" x1="9.88" y1="7.11" x2="9.99" y2="17.27" gradientUnits="userSpaceOnUse"><stop offset="0" stop-color="#32d4f5"></stop><stop offset=".32" stop-color="#31d1f3"></stop><stop offset=".53" stop-color="#2ec9eb"></stop><stop offset=".7" stop-color="#29bade"></stop><stop offset=".86" stop-color="#22a5cb"></stop><stop offset="1" stop-color="#198ab3"></stop><stop offset="1" stop-color="#198ab3"></stop></linearGradient>
<radialGradient id="c" cx="9.43" cy="7.03" r="7.27" gradientUnits="userSpaceOnUse"><stop offset="0" stop-color="#f2f2f2"></stop><stop offset=".58" stop-color="#eee"></stop><stop offset="1" stop-color="#e6e6e6"></stop></radialGradient>
<linearGradient id="9f64e61e-add7-48bb-8a64-ad1c23f2477a" x1="9" y1="16.79" x2="9" y2="1.21" gradientUnits="userSpaceOnUse"><stop offset="0" stop-color="#0078d4"></stop><stop offset=".06" stop-color="#0a7cd7"></stop><stop offset=".34" stop-color="#2e8ce1"></stop><stop offset=".59" stop-color="#4897e9"></stop><stop offset=".82" stop-color="#589eed"></stop><stop offset="1" stop-color="#5ea0ef"></stop></linearGradient>
</defs>
</svg>