<svg viewBox="-0.5 0.5 30 30" class="fxs-portal-svg" role="presentation" focusable="false" xmlns:svg="http://www.w3.org/2000/svg" xmlns:xlink="http://www.w3.org/1999/xlink" id="FxSymbol0-123" data-type="1"><g><title></title><path opacity=".4" d="M25.5 17.5a2 2 0 0 1-2 2h-22a2 2 0 0 1-2-2v-13a2 2 0 0 1 2-2h22a2 2 0 0 1 2 2v13z" class="msportalfx-svg-c15" fill="#59b4d9"></path><path d="M29.5 25.5a2 2 0 0 1-2 2h-22a2 2 0 0 1-2-2v-13a2 2 0 0 1 2-2h22a2 2 0 0 1 2 2v13z" class="msportalfx-svg-c15" fill="#59b4d9"></path><path opacity=".8" d="M16.5 19.5h4v2h-4zm5 0h4v2h-4zm-15 0h4v2h-4z" class="msportalfx-svg-c01" fill="#ffffff"></path><path d="M6.5 23.5h8v1h-8z" class="msportalfx-svg-c01" fill="#ffffff"></path><path opacity=".5" d="M16.5 23.5h3v1h-3z" class="msportalfx-svg-c01" fill="#ffffff"></path><path opacity=".8" d="M11.5 19.5h4v2h-4z" class="msportalfx-svg-c01" fill="#ffffff"></path><path d="M11.5 16.721c0 .43-.38.779-.849.779H7.349c-.469 0-.849-.349-.849-.779V14.5c0-.43.38-1 .849-1h3.302c.469 0 .849.349.849.779v2.442z" class="msportalfx-svg-c01" fill="#ffffff"></path><path d="M-.5 5.5h26v2h-26z" class="msportalfx-svg-c04" fill="#7a7a7a"></path></g><defs>
<linearGradient id="a" x1="9" y1="16.39" x2="9" y2="-1.94" gradientUnits="userSpaceOnUse"><stop offset="0" stop-color="#0078d4"></stop><stop offset=".16" stop-color="#1380da"></stop><stop offset=".53" stop-color="#3c91e5"></stop><stop offset=".82" stop-color="#559cec"></stop><stop offset="1" stop-color="#5ea0ef"></stop></linearGradient>
<linearGradient id="b" x1="9.88" y1="7.11" x2="9.99" y2="17.27" gradientUnits="userSpaceOnUse"><stop offset="0" stop-color="#32d4f5"></stop><stop offset=".32" stop-color="#31d1f3"></stop><stop offset=".53" stop-color="#2ec9eb"></stop><stop offset=".7" stop-color="#29bade"></stop><stop offset=".86" stop-color="#22a5cb"></stop><stop offset="1" stop-color="#198ab3"></stop><stop offset="1" stop-color="#198ab3"></stop></linearGradient>
<radialGradient id="c" cx="9.43" cy="7.03" r="7.27" gradientUnits="userSpaceOnUse"><stop offset="0" stop-color="#f2f2f2"></stop><stop offset=".58" stop-color="#eee"></stop><stop offset="1" stop-color="#e6e6e6"></stop></radialGradient>
</defs>
</svg>