<svg viewBox="0 0 50 50" class="" role="presentation" focusable="false" xmlns="http://www.w3.org/2000/svg" xmlns:xlink="http://www.w3.org/1999/xlink" id="FxSymbol0-0e2" data-type="1"><g><title></title><path d="M28.4 10.4c0 5.6-4.6 10.2-10.2 10.2S8 16.1 8 10.4C8 4.8 12.6.2 18.2.2c5.7 0 10.2 4.6 10.2 10.2m-2.7 13.7-7.5 10.5-7.4-10.5H0v25.8h36.5V24.1z" class="msportalfx-svg-c13" fill="#b8d432"></path><path opacity=".2" d="M8 10.4c0 5.6 4.4 10.1 10 10.2L20.6.5c-.7-.2-1.5-.3-2.3-.3C12.6.2 8 4.8 8 10.4m2.8 13.7H0v25.8h14.3l2.3-17.6z" class="msportalfx-svg-c01" fill="#ffffff"></path><path d="M37.7 37.3h-.1l-9-5.2c-.1 0-.1-.1-.1-.2s.1-.2.1-.2l9-5.2h.3l9 5.2c.1 0 .1.1.1.2s-.1.2-.1.2l-9 5.2c-.1-.1-.2 0-.2 0" class="msportalfx-svg-c10" fill="#ff8c00"></path><path fill="#FFC373" d="M36.4 49.9h-.1l-9-5.2c-.1 0-.1-.1-.1-.2V34c0-.1.1-.2.1-.2h.3l9 5.2c.1.1.1.1.1.2v10.4c0 .1-.1.2-.1.2-.1.1-.2.1-.2.1m2.5 0h-.1c-.1 0-.1-.1-.1-.2V39.3c0-.1.1-.2.1-.2l9-5.2h.3c.1 0 .1.1.1.2v10.4c0 .1-.1.2-.1.2l-9 5.2h-.2"></path><path opacity=".5" d="M38.9 49.9h-.1c-.1 0-.1-.1-.1-.2V39.3c0-.1.1-.2.1-.2l9-5.2h.3c.1 0 .1.1.1.2v10.4c0 .1-.1.2-.1.2l-9 5.2h-.2" class="msportalfx-svg-c01" fill="#ffffff"></path></g><defs>
</defs>
</svg>