<?xml version="1.0" encoding="UTF-8" standalone="no"?>
<!DOCTYPE svg PUBLIC "-//W3C//DTD SVG 1.1//EN" "http://www.w3.org/Graphics/SVG/1.1/DTD/svg11.dtd">
<!-- Generated by Microsoft Visio, SVG Export Dedicated-HSM.svg Page-1 -->
<svg xmlns="http://www.w3.org/2000/svg" xmlns:xlink="http://www.w3.org/1999/xlink" xmlns:ev="http://www.w3.org/2001/xml-events"
		xmlns:v="http://schemas.microsoft.com/visio/2003/SVGExtensions/" width="0.782151in" height="0.719723in"
		viewBox="0 0 56.3148 51.82" xml:space="preserve" color-interpolation-filters="sRGB" class="st5">
	<title>MIS: Enterprise Mobility and Security</title>
	<desc>This package contains stencils that will represent Enterprise Mobility and Security</desc>
	<v:documentProperties v:langID="1033" v:metric="true" v:viewMarkup="false"/>

	<style type="text/css">
	<![CDATA[
		.st1 {fill:#3e3e3e;stroke:none;stroke-width:0.75}
		.st2 {fill:#ffffff;fill-opacity:0.2;stroke:none;stroke-width:0.75}
		.st3 {fill:#b8d432;stroke:none;stroke-width:0.75}
		.st4 {fill:#fcd116;stroke:none;stroke-width:0.75}
		.st5 {fill:none;fill-rule:evenodd;font-size:12px;overflow:visible;stroke-linecap:square;stroke-miterlimit:3}
	]]>
	</style>

	<g v:mID="0" v:index="1" v:groupContext="foregroundPage">
		<title>Page-1</title>
		<v:pageProperties v:drawingScale="0.0393701" v:pageScale="0.0393701" v:drawingUnits="24" v:shadowOffsetX="9"
				v:shadowOffsetY="-9"/>
		<g id="group5-1" transform="translate(0.75,-0.75)" v:mID="5" v:groupContext="group">
			<title>Sheet.5</title>
			<g id="shape6-2" v:mID="6" v:groupContext="shape">
				<title>Sheet.6</title>
				<path d="M52.38 31.23 L2.44 31.23 C1.09 31.23 0 32.32 0 33.67 L0 49.38 C0 50.73 1.09 51.82 2.44 51.82 L52.38 51.82
							 C53.72 51.82 54.81 50.73 54.81 49.38 L54.81 33.67 C54.81 32.33 53.72 31.23 52.38 31.23 Z" class="st1"/>
			</g>
			<g id="shape7-4" v:mID="7" v:groupContext="shape">
				<title>Sheet.7</title>
				<path d="M42.51 31.23 L2.44 31.23 C1.09 31.23 0 32.32 0 33.67 L0 49.38 C0 50.73 1.09 51.82 2.44 51.82 L11.82 51.82
							 L42.51 31.23 Z" class="st2"/>
			</g>
			<g id="shape8-6" v:mID="8" v:groupContext="shape" transform="translate(47.1408,-13.1556)">
				<title>Sheet.8</title>
				<rect x="0" y="48.5311" width="3.28889" height="3.28889" class="st3"/>
			</g>
			<g id="shape9-8" v:mID="9" v:groupContext="shape" transform="translate(40.563,-13.1556)">
				<title>Sheet.9</title>
				<rect x="0" y="48.5311" width="3.28889" height="3.28889" class="st3"/>
			</g>
			<g id="shape10-10" v:mID="10" v:groupContext="shape" transform="translate(33.9852,-13.1556)">
				<title>Sheet.10</title>
				<rect x="0" y="48.5311" width="3.28889" height="3.28889" class="st3"/>
			</g>
			<g id="shape11-12" v:mID="11" v:groupContext="shape" transform="translate(15.4578,-4.38519)">
				<title>Sheet.11</title>
				<path d="M22.8 17.29 C22.8 10.99 17.7 5.89 11.4 5.89 C5.1 5.89 0 10.99 0 17.29 C0 22.64 3.69 27.11 8.66 28.34 L8.66
							 41.95 L3.18 41.95 L3.18 47.43 L8.66 47.43 L8.66 51.82 L14.14 51.82 L14.14 28.34 C19.11 27.11 22.8 22.64
							 22.8 17.29 ZM11.4 23.26 C8.11 23.26 5.43 20.58 5.43 17.29 C5.43 13.99 8.11 11.31 11.4 11.31 C14.69 11.31
							 17.37 13.99 17.37 17.29 C17.37 20.58 14.69 23.26 11.4 23.26 Z" class="st4"/>
			</g>
		</g>
	</g>
</svg>
