<svg viewBox="0 0 50 50" class="fxs-portal-svg" role="presentation" focusable="false" xmlns:svg="http://www.w3.org/2000/svg" xmlns:xlink="http://www.w3.org/1999/xlink" id="FxSymbol0-11a" data-type="1"><g><title></title><path d="M8 49V4h28.993L46 7.906V49z" class="msportalfx-svg-c02" fill="#e5e5e5"></path><path d="M36.785 5L45 8.563V48H9V5h27.785m.415-2H7v47h40V7.25L37.2 3z" class="msportalfx-svg-c03" fill="#a0a1a2"></path><path opacity=".4" d="M9 5v43h36V5z" class="msportalfx-svg-c12" fill="#fee087"></path><path d="M34.2 0H3v46h40V7.25z" class="msportalfx-svg-c03" fill="#a0a1a2"></path><path d="M34 2H5v42h36V7.25h-7z" class="msportalfx-svg-c01" fill="#ffffff"></path><path opacity=".3" d="M34 2H5v42h36V7.25h-7z" class="msportalfx-svg-c12" fill="#fee087"></path><path d="M2 0v8.25h47V2.5L46 0z" class="msportalfx-svg-c19" fill="#0072c6"></path><path opacity=".4" d="M2 0v8.25h47V2.5L46 0z" class="msportalfx-svg-c14" fill="#57a300"></path><path opacity=".2" d="M46 0l3 2.5v5.75h-3z" class="msportalfx-svg-c06" fill="#1e1e1e"></path><path d="M23.647 7L29 0H2v7z" opacity=".2" class="msportalfx-svg-c01" fill="#ffffff"></path><path d="M23 16.762l8 4.619v9.238l-8 4.619-8-4.619v-9.238l8-4.619m0-2.27a.254.254 0 0 0-.125.033l-9.75 5.629a.252.252 0 0 0-.125.217v11.258c0 .089.048.172.125.217l9.75 5.629a.254.254 0 0 0 .25 0l9.75-5.629a.252.252 0 0 0 .125-.217V20.371a.252.252 0 0 0-.125-.217l-9.75-5.629a.254.254 0 0 0-.125-.033z" opacity=".7" class="msportalfx-svg-c04" fill="#7a7a7a"></path></g><defs>
<linearGradient id="a" x1="9" y1="17.86" x2="9" y2="4.06" gradientUnits="userSpaceOnUse"><stop offset="0" stop-color="#0078d4"></stop><stop offset=".16" stop-color="#1380da"></stop><stop offset=".53" stop-color="#3c91e5"></stop><stop offset=".82" stop-color="#559cec"></stop><stop offset="1" stop-color="#5ea0ef"></stop></linearGradient>
<linearGradient id="b" x1="6.4" y1="1.32" x2="7.21" y2="11.39"><stop offset=".22" stop-color="#32d4f5"></stop><stop offset=".47" stop-color="#31d1f3"></stop><stop offset=".63" stop-color="#2ec9eb"></stop><stop offset=".77" stop-color="#29bade"></stop><stop offset=".89" stop-color="#22a5cb"></stop><stop offset="1" stop-color="#198ab3"></stop><stop offset="1" stop-color="#198ab3"></stop></linearGradient>
<linearGradient id="c" x1="13.76" y1="18.05" x2="13.76" y2="10.25" gradientUnits="userSpaceOnUse"><stop offset="0" stop-color="#76bc2d"></stop><stop offset=".6" stop-color="#81ce31"></stop><stop offset=".82" stop-color="#86d633"></stop></linearGradient>
</defs>
</svg>