<?xml version="1.0" encoding="UTF-8" standalone="no"?>
<!DOCTYPE svg PUBLIC "-//W3C//DTD SVG 1.1//EN" "http://www.w3.org/Graphics/SVG/1.1/DTD/svg11.dtd">
<!-- Generated by Microsoft Visio, SVG Export Design-for-security.svg Page-1 -->
<svg xmlns="http://www.w3.org/2000/svg" xmlns:xlink="http://www.w3.org/1999/xlink" xmlns:ev="http://www.w3.org/2001/xml-events"
		xmlns:v="http://schemas.microsoft.com/visio/2003/SVGExtensions/" width="0.782223in" height="0.782223in"
		viewBox="0 0 56.32 56.32" xml:space="preserve" color-interpolation-filters="sRGB" class="st13">
	<title>MIS: Security and Governance</title>
	<desc>This package contains stencils that will represent Security and Governance</desc>
	<v:documentProperties v:langID="1033" v:metric="true" v:viewMarkup="false"/>

	<style type="text/css">
	<![CDATA[
		.st1 {fill:#f2c811;stroke:none;stroke-width:0.75}
		.st2 {fill:#ffffff;stroke:none;stroke-width:0.75}
		.st3 {fill:#f3f3f3;stroke:none;stroke-width:0.75}
		.st4 {fill:#c5cccd;stroke:none;stroke-width:0.75}
		.st5 {fill:#30404d;stroke:none;stroke-width:0.75}
		.st6 {fill:#182a37;stroke:none;stroke-width:0.75}
		.st7 {fill:#546670;stroke:none;stroke-width:0.75}
		.st8 {fill:#df5142;stroke:none;stroke-width:0.75}
		.st9 {fill:#adbdc4;stroke:none;stroke-width:0.75}
		.st10 {fill:#a0aeb3;stroke:none;stroke-width:0.75}
		.st11 {fill:#ffffff;fill-opacity:0.9;stroke:none;stroke-width:0.75}
		.st12 {fill:none;stroke:#0078d4;stroke-width:3}
		.st13 {fill:none;fill-rule:evenodd;font-size:12px;overflow:visible;stroke-linecap:square;stroke-miterlimit:3}
	]]>
	</style>

	<g v:mID="0" v:index="1" v:groupContext="foregroundPage">
		<title>Page-1</title>
		<v:pageProperties v:drawingScale="0.0393701" v:pageScale="0.0393701" v:drawingUnits="24" v:shadowOffsetX="9"
				v:shadowOffsetY="-9"/>
		<g id="group5-1" transform="translate(3,-3)" v:mID="5" v:groupContext="group">
			<v:userDefs/>
			<title>design-for-security</title>
			<desc>Created with Sketch.</desc>
			<g id="group6-2" v:mID="6" v:groupContext="group">
				<title>design-for-security</title>
				<g id="shape7-3" v:mID="7" v:groupContext="shape">
					<title>BG</title>
					<path d="M0 31.16 A25.1606 25.1606 -180 0 0 25.16 56.32 A25.1606 25.1606 -180 0 0 50.32 31.16 A25.1606 25.1606
								 -180 0 0 25.16 6 A25.1606 25.1606 -180 0 0 0 31.16 Z" class="st1"/>
				</g>
				<g id="shape8-5" v:mID="8" v:groupContext="shape" transform="translate(3.40682,-20.7493)">
					<title>Cloud</title>
					<path d="M7.52 56.32 L2.85 56.32 C1.28 56.32 0 55.04 0 53.47 C0 51.9 1.28 50.62 2.85 50.62 C3 50.62 3.14 50.63
								 3.3 50.66 C3.85 48.79 5.55 47.5 7.52 47.5 C9.95 47.5 11.93 49.48 11.93 51.91 C11.93 54.34 9.95 56.32
								 7.52 56.32 Z" class="st2"/>
				</g>
				<g id="group9-7" transform="translate(11.6521,-6.03631)" v:mID="9" v:groupContext="group">
					<title>Lock</title>
					<g id="shape10-8" v:mID="10" v:groupContext="shape" transform="translate(3.68398,-20.8759)">
						<title>Fill-84</title>
						<path d="M9.82 37.9 C4.41 37.9 0 42.31 0 47.72 L0 55.09 C0 55.77 0.83 56.32 1.84 56.32 C2.86 56.32 3.68 55.77
									 3.68 55.09 L3.68 47.72 C3.68 44.34 6.44 41.58 9.82 41.58 C13.21 41.58 15.96 44.34 15.96 47.72
									 L15.96 55.09 C15.96 55.77 16.79 56.32 17.81 56.32 C18.82 56.32 19.65 55.77 19.65 55.09 L19.65
									 47.72 C19.65 42.31 15.24 37.9 9.82 37.9 Z" class="st3"/>
					</g>
					<g id="shape11-10" v:mID="11" v:groupContext="shape" transform="translate(12.8939,-20.8759)">
						<title>Fill-85</title>
						<path d="M0.61 37.9 C0.41 37.9 0.2 37.92 0 37.93 C5.13 38.25 9.21 42.51 9.21 47.72 L9.21 50.77 C9.21 51.48
									 8.43 51.92 7.82 51.55 C7.48 51.34 7.12 51.15 6.75 50.97 L6.75 55.09 C6.75 55.77 7.58 56.32 8.6
									 56.32 C9.61 56.32 10.44 55.77 10.44 55.09 L10.44 47.72 C10.44 42.31 6.03 37.9 0.61 37.9 Z"
								class="st4"/>
					</g>
					<g id="shape12-12" v:mID="12" v:groupContext="shape" transform="translate(3.68398,-20.8759)">
						<title>Fill-87</title>
						<path d="M7.51 41.68 C4.54 42.23 2.46 44.93 2.46 47.94 L2.46 50.67 C2.46 51.26 2.18 51.82 1.7 52.15 C1.1
									 52.58 0.53 53.05 0 53.56 L0 55.09 C0 55.77 0.83 56.32 1.84 56.32 C2.86 56.32 3.68 55.77 3.68
									 55.09 L3.68 47.72 C3.68 44.55 6.11 41.92 9.21 41.62 C8.66 41.56 8.1 41.57 7.51 41.68 Z"
								class="st4"/>
					</g>
					<g id="shape13-14" v:mID="13" v:groupContext="shape" transform="translate(1.22799,-1.22799)">
						<title>Fill-88</title>
						<path d="M12.28 31.76 C5.51 31.76 0 37.27 0 44.04 C0 50.81 5.51 56.32 12.28 56.32 C19.05 56.32 24.56 50.81
									 24.56 44.04 C24.56 37.27 19.05 31.76 12.28 31.76 Z" class="st5"/>
					</g>
					<g id="shape14-16" v:mID="14" v:groupContext="shape" transform="translate(9.13933,-1.22799)">
						<title>Fill-89</title>
						<path d="M4.37 31.76 L4.37 34.83 C4.03 34.83 3.75 34.56 3.75 34.22 L3.75 34.83 C3.75 35.02 3.84 35.2 3.98
									 35.31 C4.25 35.53 4.37 35.89 4.37 36.24 L4.37 48.34 C3.27 48.34 2.17 47.92 1.33 47.08 C0.57
									 46.32 0.16 45.34 0.09 44.35 C0 45.55 0.41 46.78 1.33 47.69 C1.85 48.22 2.47 48.58 3.13 48.77
									 C3.88 49 4.37 49.73 4.37 50.51 L4.37 56.32 C11.14 56.32 16.65 50.81 16.65 44.04 C16.65 37.27
									 11.14 31.76 4.37 31.76 Z" class="st6"/>
					</g>
					<g id="shape15-18" v:mID="15" v:groupContext="shape" transform="translate(2.4873,-14.1219)">
						<title>Fill-90</title>
						<path d="M4.51 50.42 C4.39 50.54 4.23 50.6 4.07 50.6 C3.92 50.6 3.76 50.54 3.64 50.42 L2.8 49.58 C1.17 51.39
									 0.14 53.74 0 56.32 L0.06 56.32 C0.32 53.98 1.3 51.86 2.8 50.19 L3.64 51.04 C3.76 51.16 3.92
									 51.22 4.07 51.22 C4.23 51.22 4.39 51.16 4.51 51.04 C4.71 50.83 4.73 50.53 4.59 50.29 C4.57 50.34
									 4.55 50.38 4.51 50.42 Z" class="st6"/>
					</g>
					<g id="shape16-20" v:mID="16" v:groupContext="shape" transform="translate(6.15163,-21.3965)">
						<title>Fill-91</title>
						<path d="M6.74 53.8 L6.74 53.19 C4.16 53.33 1.81 54.36 0 55.98 L0.34 56.32 C2.1 54.86 4.31 53.94 6.74 53.8
									 Z" class="st6"/>
					</g>
					<g id="shape17-22" v:mID="17" v:groupContext="shape" transform="translate(2.4873,-12.2799)">
						<title>Fill-92</title>
						<path d="M1.2 55.71 L0 55.71 C0.01 55.91 0.04 56.12 0.06 56.32 L1.2 56.32 C1.54 56.32 1.81 56.05 1.81 55.71
									 C1.81 55.59 1.77 55.49 1.72 55.4 C1.61 55.58 1.42 55.71 1.2 55.71 Z" class="st6"/>
					</g>
					<g id="shape18-24" v:mID="18" v:groupContext="shape" transform="translate(6.15163,-5.0053)">
						<title>Fill-93</title>
						<path d="M0.84 55.2 L0 56.04 C0.11 56.14 0.22 56.23 0.34 56.32 L0.84 55.81 C1.05 55.61 1.07 55.31 0.93 55.07
									 C0.9 55.11 0.88 55.16 0.84 55.2 Z" class="st6"/>
					</g>
					<g id="shape19-26" v:mID="19" v:groupContext="shape">
						<title>Fill-94</title>
						<path d="M21.73 50.17 L20.89 49.32 C20.65 49.08 20.26 49.08 20.02 49.32 C19.78 49.56 19.78 49.95 20.02 50.19
									 L20.86 51.04 C19.05 52.66 16.71 53.69 14.12 53.83 L14.12 52.64 C14.12 52.3 13.85 52.02 13.51
									 52.02 C13.17 52.02 12.89 52.3 12.89 52.64 L12.89 53.83 C10.31 53.69 7.96 52.66 6.15 51.04 L7
									 50.19 C7.24 49.95 7.24 49.56 7 49.32 C6.76 49.08 6.37 49.08 6.13 49.32 L5.28 50.17 C3.66 48.36
									 2.63 46.01 2.49 43.43 L3.68 43.43 C4.02 43.43 4.3 43.15 4.3 42.81 C4.3 42.47 4.02 42.2 3.68
									 42.2 L2.49 42.2 C2.63 39.61 3.66 37.27 5.28 35.46 L6.13 36.3 C6.25 36.42 6.4 36.48 6.56 36.48
									 C6.72 36.48 6.88 36.42 7 36.3 C7.24 36.06 7.24 35.67 7 35.43 L6.15 34.59 C7.96 32.96 10.31 31.93
									 12.89 31.79 L12.89 32.99 C12.89 33.33 13.17 33.6 13.51 33.6 C13.85 33.6 14.12 33.33 14.12 32.99
									 L14.12 31.79 C16.71 31.93 19.05 32.96 20.86 34.59 L20.02 35.43 C19.78 35.67 19.78 36.06 20.02
									 36.3 C20.14 36.42 20.3 36.48 20.45 36.48 C20.61 36.48 20.77 36.42 20.89 36.3 L21.73 35.46 C23.36
									 37.27 24.39 39.61 24.53 42.2 L23.33 42.2 C22.99 42.2 22.72 42.47 22.72 42.81 C22.72 43.15 22.99
									 43.43 23.33 43.43 L24.53 43.43 C24.39 46.01 23.36 48.36 21.73 50.17 ZM13.51 29.3 C6.06 29.3
									 0 35.36 0 42.81 C0 50.26 6.06 56.32 13.51 56.32 C20.96 56.32 27.02 50.26 27.02 42.81 C27.02
									 35.36 20.96 29.3 13.51 29.3 Z" class="st7"/>
					</g>
					<g id="shape20-28" v:mID="20" v:groupContext="shape" transform="translate(14.3982,-14.4424)">
						<title>Fill-95</title>
						<path d="M3.02 55.95 L0 56.32 L0.43 53.33 L4.3 52.02 L3.02 55.95 Z" class="st8"/>
					</g>
					<g id="shape21-30" v:mID="21" v:groupContext="shape" transform="translate(10.4686,-10.4692)">
						<title>Fill-96</title>
						<path d="M6.08 56.32 C7.76 54.64 7.76 51.92 6.08 50.24 C4.4 48.56 1.68 48.56 0 50.24 L6.08 56.32 Z"
								class="st9"/>
					</g>
					<g id="shape22-32" v:mID="22" v:groupContext="shape" transform="translate(8.79058,-8.78997)">
						<title>Fill-97</title>
						<path d="M1.68 48.56 C0 50.24 0 52.96 1.68 54.64 C3.36 56.32 6.08 56.32 7.76 54.64 L1.68 48.56 Z"
								class="st10"/>
					</g>
				</g>
				<g id="shape23-34" v:mID="23" v:groupContext="shape" transform="translate(32.6049,-24.5043)">
					<title>Sheet.23</title>
					<path d="M11.7 56.32 L2.85 56.32 C1.28 56.32 0 55.04 0 53.47 C0 52.25 0.78 51.18 1.93 50.79 C2.16 48.2 4.33 46.2
								 6.96 46.2 C9.52 46.2 11.67 48.13 11.98 50.64 C13.42 50.78 14.55 52 14.55 53.47 C14.55 55.04 13.27
								 56.32 11.7 56.32 Z" class="st11"/>
				</g>
				<g id="shape24-36" v:mID="24" v:groupContext="shape">
					<title>Sheet.24</title>
					<path d="M0 31.16 A25.1606 25.1606 -180 0 0 25.16 56.32 A25.1606 25.1606 -180 0 0 50.32 31.16 A25.1606 25.1606
								 -180 0 0 25.16 6 A25.1606 25.1606 -180 0 0 0 31.16 Z" class="st12"/>
				</g>
			</g>
		</g>
	</g>
</svg>
