<?xml version="1.0" encoding="UTF-8" standalone="no"?>
<!DOCTYPE svg PUBLIC "-//W3C//DTD SVG 1.1//EN" "http://www.w3.org/Graphics/SVG/1.1/DTD/svg11.dtd">
<!-- Generated by Microsoft Visio, SVG Export Detect-Threats.svg Page-1 -->
<svg xmlns="http://www.w3.org/2000/svg" xmlns:xlink="http://www.w3.org/1999/xlink" xmlns:ev="http://www.w3.org/2001/xml-events"
		xmlns:v="http://schemas.microsoft.com/visio/2003/SVGExtensions/" width="0.509432in" height="0.6875in"
		viewBox="0 0 36.6791 49.5" xml:space="preserve" color-interpolation-filters="sRGB" class="st5">
	<v:documentProperties v:langID="1033" v:metric="true" v:viewMarkup="false"/>

	<style type="text/css">
	<![CDATA[
		.st1 {fill:#85b351}
		.st2 {stroke:none;stroke-linecap:butt;stroke-width:0.75}
		.st3 {fill:#ffffff;fill-opacity:0.18}
		.st4 {fill:#f2f2f2;stroke:none;stroke-linecap:butt;stroke-width:0.75}
		.st5 {fill:none;fill-rule:evenodd;font-size:12px;overflow:visible;stroke-linecap:square;stroke-miterlimit:3}
	]]>
	</style>

	<g v:mID="0" v:index="1" v:groupContext="foregroundPage">
		<title>Page-1</title>
		<v:pageProperties v:drawingScale="0.0393701" v:pageScale="0.0393701" v:drawingUnits="24" v:shadowOffsetX="9"
				v:shadowOffsetY="-9"/>
		<g id="group1164-1" transform="translate(0.75,-0.75)" v:mID="1164" v:groupContext="group">
			<title>Detect Threats</title>
			<g id="shape1165-2" v:mID="1165" v:groupContext="shape">
				<title>path8961</title>
				<path d="M3.94 40.27 C1.65 37.84 0 35.05 0 32.08 L0 7.49 C15.21 7.49 17.59 1.5 17.59 1.5 C17.59 1.5 19.35 6.05 29.93
							 7.22 L9.85 32.76 L3.94 40.27 C9.13 45.79 17.59 49.5 17.59 49.5 C17.59 49.5 35.18 41.79 35.18 32.08 L35.18
							 7.49 A47.905 47.905 0 0 1 29.93 7.22 L3.94 40.27 Z" class="st1"/>
				<path d="M3.94 40.27 C1.65 37.84 0 35.05 0 32.08 L0 7.49 C15.21 7.49 17.59 1.5 17.59 1.5 C17.59 1.5 19.35 6.05 29.93
							 7.22 L9.85 32.76 L3.94 40.27 C9.13 45.79 17.59 49.5 17.59 49.5 C17.59 49.5 35.18 41.79 35.18 32.08 L35.18
							 7.49 A47.905 47.905 0 0 1 29.93 7.22" class="st2"/>
			</g>
			<g id="shape1166-5" v:mID="1166" v:groupContext="shape" transform="translate(2.79776E-14,-9.23104)">
				<title>path8963</title>
				<path d="M3.94 49.5 C1.65 47.07 0 44.28 0 41.31 L0 16.72 C15.21 16.72 17.59 10.73 17.59 10.73 C17.59 10.73 19.35
							 15.28 29.93 16.45 L9.85 41.99 L3.94 49.5 L3.94 49.5 Z" class="st3"/>
				<path d="M3.94 49.5 C1.65 47.07 0 44.28 0 41.31 L0 16.72 C15.21 16.72 17.59 10.73 17.59 10.73 C17.59 10.73 19.35
							 15.28 29.93 16.45 L9.85 41.99 L3.94 49.5" class="st2"/>
			</g>
			<g id="shape1167-8" v:mID="1167" v:groupContext="shape" transform="translate(10.8052,-9.77)">
				<title>path8965</title>
				<path d="M13.21 24.67 C13.5 24.67 13.61 24.87 13.47 25.11 L8.12 34.03 C7.98 34.26 8.1 34.46 8.38 34.46 L13.39 34.43
							 C13.68 34.43 13.76 34.61 13.56 34.82 L0.81 49.29 C0.61 49.5 0.56 49.46 0.66 49.19 L4.62 39.51 a0.318148
							 0.318148 -180 0 0 -0.318148 -0.474848 L0.34 39.04 a0.330019 0.330019 0 0 1 -0.34189 -0.474848 L4.95
							 25.15 a0.800119 0.800119 0 0 1 0.698026 -0.486719 L13.21 24.67 Z" class="st4"/>
			</g>
		</g>
	</g>
</svg>
