<svg viewBox="0 0 19.723 20" class="" role="presentation" focusable="false" xmlns:svg="http://www.w3.org/2000/svg" xmlns:xlink="http://www.w3.org/1999/xlink" id="FxSymbol0-021" data-type="1"><g><title></title><path d="M19.514 8.63H8.826v1.894l.061.061 3.454 4.442V20h3.867v-4.973l3.454-4.442.061-.061V8.63zm-4.637 5.755l-.061.061v4.164h-1.085v-4.168l-.061-.061-3.376-4.364h7.961z"></path><path d="M13.67 14.381l.061.061v4.168h1.086v-4.164l.06-.061 3.378-4.369h-7.962l3.377 4.365z" class="msportalfx-svg-c33" fill="#8a2da5"></path><path d="M3.578 0a1.766 1.766 0 0 0-.744.166A2.153 2.153 0 0 0 2.217.6a2.13 2.13 0 0 0-.433.621 1.762 1.762 0 0 0-.165.739V4H0v1.418h1.619v6.589H0v1.415h1.619v2.044a1.893 1.893 0 0 0 .154.762 1.969 1.969 0 0 0 .42.623 1.944 1.944 0 0 0 .625.421 1.91 1.91 0 0 0 .75.152h7.459v-1.415H6.485V1.416h9.13v6h1.415V0zm1.5 16.009H3.7a.645.645 0 0 1-.26-.051.686.686 0 0 1-.212-.144.711.711 0 0 1-.145-.214 1.861 1.861 0 0 1-.047-.387v-1.791h.7v-1.415h-.7V5.418h.7V4h-.7V2.084a.493.493 0 0 1 .054-.22.88.88 0 0 1 .39-.391.5.5 0 0 1 .22-.057h1.382z"></path></g><defs>
<linearGradient id="a" x1="9" y1="16.39" x2="9" y2="-1.94" gradientUnits="userSpaceOnUse"><stop offset="0" stop-color="#0078d4"></stop><stop offset=".16" stop-color="#1380da"></stop><stop offset=".53" stop-color="#3c91e5"></stop><stop offset=".82" stop-color="#559cec"></stop><stop offset="1" stop-color="#5ea0ef"></stop></linearGradient>
<linearGradient id="b" x1="9.88" y1="7.11" x2="9.99" y2="17.27" gradientUnits="userSpaceOnUse"><stop offset="0" stop-color="#32d4f5"></stop><stop offset=".32" stop-color="#31d1f3"></stop><stop offset=".53" stop-color="#2ec9eb"></stop><stop offset=".7" stop-color="#29bade"></stop><stop offset=".86" stop-color="#22a5cb"></stop><stop offset="1" stop-color="#198ab3"></stop><stop offset="1" stop-color="#198ab3"></stop></linearGradient>
<radialGradient id="c" cx="9.43" cy="7.03" r="7.27" gradientUnits="userSpaceOnUse"><stop offset="0" stop-color="#f2f2f2"></stop><stop offset=".58" stop-color="#eee"></stop><stop offset="1" stop-color="#e6e6e6"></stop></radialGradient>
</defs>
</svg>