<svg viewBox="-374 616 50 50" class="fxs-portal-svg" role="presentation" focusable="false" xmlns:svg="http://www.w3.org/2000/svg" xmlns:xlink="http://www.w3.org/1999/xlink" id="FxSymbol0-06f" data-type="1"><g><title></title><circle cx="-349" cy="641" r="25" class="msportalfx-svg-c19" fill="#0072c6"></circle><path opacity=".2" d="M-366.678 658.678c-9.763-9.763-9.763-25.592 0-35.355 9.763-9.763 25.592-9.763 35.355 0l-35.355 35.355z" class="msportalfx-svg-c01" fill="#ffffff"></path><path opacity=".8" d="M-326 640.996c0-5.152-1.748-10.12-4.968-14.168l-.184-.184c-.092-.092-.092-.184-.184-.276l-1.472-1.564c-4.324-4.416-10.028-6.808-16.192-6.808h-.184c-6.072.092-11.684 2.392-16.008 6.716l-1.564 1.656c-.092.092-.092.184-.184.276l-.184.092a23.446 23.446 0 0 0-4.876 14.26c0 5.152 1.748 10.12 4.968 14.168l.184.184c.092.092.092.184.184.276l1.472 1.564c4.324 4.324 9.936 6.716 16.008 6.716h.184a22.837 22.837 0 0 0 16.192-6.716l1.472-1.656c.092-.092.092-.184.184-.276l.184-.184c3.22-3.864 4.968-8.924 4.968-14.076zM-335.292 626c-.092 0-.184.092-.276.092-.184.092-.368.184-.46.184-.368.184-.828.276-1.288.46-.092 0-.184.092-.276.092-.552.184-1.012.276-1.564.46-.092 0-.276.092-.368.092-.828-2.208-1.84-4.14-3.036-5.612 2.668.828 5.152 2.3 7.268 4.232zm-13.892-5.336h.092c2.484 0 5.06 2.668 6.9 7.268-2.116.368-4.416.552-6.808.552s-4.784-.184-6.992-.552c1.748-4.508 4.324-7.176 6.808-7.268zm-6.532 1.196c-1.104 1.472-2.116 3.312-2.944 5.52h-.184c-.552-.184-1.104-.276-1.564-.46-.092 0-.184-.092-.276-.092-.368-.184-.828-.368-1.196-.552-.184-.092-.276-.092-.46-.184-.092-.092-.184-.092-.368-.184 2.116-1.748 4.416-3.22 6.992-4.048zm-6.992 34.132c.092 0 .184-.092.276-.092.184-.092.276-.092.46-.184.368-.184.828-.276 1.288-.46.092 0 .184-.092.276-.092.552-.184 1.012-.276 1.564-.46h.184c.828 2.116 1.84 4.048 2.944 5.52-2.576-.92-4.968-2.392-6.992-4.232zm13.616 5.336h-.092c-2.484-.092-5.06-2.668-6.808-7.176 2.208-.368 4.6-.552 6.992-.552s4.6.184 6.808.552c-1.748 4.508-4.416 7.176-6.9 7.176zm6.532-1.104c1.196-1.472 2.208-3.404 3.036-5.612.092 0 .276.092.368.092.552.184 1.104.276 1.564.46.092 0 .184.092.276.092.46.184.828.276 1.288.46.184.092.276.092.46.184.092 0 .184.092.368.184-2.208 1.84-4.692 3.312-7.36 4.14zm9.292-6.348c-.276 0-.46-.092-.736-.184-.276-.092-.644-.276-.92-.368-.092 0-.184-.092-.276-.092-1.104-.46-2.3-.736-3.496-1.104.276-1.104.552-2.208.736-3.312h-2.76c-.184 1.012-.368 1.932-.644 2.76-2.392-.46-4.968-.644-7.636-.644-2.76 0-5.336.276-7.82.736-.276-.92-.46-1.84-.644-2.852h-2.76c.184 1.196.46 2.3.736 3.404-1.104.276-2.208.644-3.22 1.012-.092.092-.276.092-.368.184-.276.092-.644.276-.92.368-.184 0-.46.092-.644.184-2.76-3.312-4.324-7.452-4.6-11.684h2.3v-2.668h-2.3c.276-4.232 1.84-8.28 4.508-11.5l.092-.092c.184.092.46.184.644.276.368.184.644.276 1.012.46.092 0 .184.092.276.092 1.012.368 2.116.736 3.312 1.012-.276 1.012-.46 2.024-.644 3.036h2.76c.184-.828.368-1.748.552-2.484 2.484.46 5.152.736 7.82.736s5.244-.276 7.636-.644c.184.736.368 1.564.552 2.484h2.76c-.184-1.012-.368-2.024-.644-3.036 1.196-.276 2.3-.644 3.404-1.104.092 0 .276-.092.368-.092.368-.092.644-.276 1.012-.368.184-.092.46-.184.644-.276 2.668 3.312 4.324 7.36 4.6 11.592h-2.76v2.668h2.76c-.46 4.14-2.024 8.28-4.692 11.5z" class="msportalfx-svg-c01" fill="#ffffff"></path><path d="M-354.778 640.855c0 1.09-.143 2.023-.427 2.797-.284.775-.694 1.407-1.226 1.896-.533.49-1.18.85-1.943 1.079-.762.229-1.67.344-2.723.344h-2.838a.758.758 0 0 1-.51-.178c-.138-.12-.206-.314-.206-.583v-10.36c0-.27.069-.464.206-.583a.75.75 0 0 1 .51-.179h3.049c1.059 0 1.958.124 2.696.373.738.248 1.359.615 1.865 1.102a4.74 4.74 0 0 1 1.153 1.804c.262.715.394 1.546.394 2.488zm-2.498.083a5.95 5.95 0 0 0-.198-1.571 3.35 3.35 0 0 0-.634-1.258 2.936 2.936 0 0 0-1.121-.831c-.456-.2-1.054-.299-1.796-.299h-1.222v8.082h1.259c.661 0 1.218-.085 1.672-.257.453-.172.831-.43 1.134-.776s.53-.776.68-1.291c.15-.513.226-1.113.226-1.799zm14.281 5.19a.84.84 0 0 1-.272.652.746.746 0 0 1-.293.16 1.201 1.201 0 0 1-.345.051h-1.028c-.215 0-.399-.021-.557-.064a1.1 1.1 0 0 1-.431-.234 2.041 2.041 0 0 1-.381-.459 8.307 8.307 0 0 1-.412-.749l-2.958-5.557c-.172-.33-.346-.687-.523-1.07a19.082 19.082 0 0 1-.478-1.116h-.018a45.173 45.173 0 0 1 .073 2.671v6.218a.284.284 0 0 1-.051.166.381.381 0 0 1-.175.124c-.083.034-.195.06-.335.077a4.215 4.215 0 0 1-.542.028c-.214 0-.392-.009-.533-.028s-.251-.044-.33-.077a.344.344 0 0 1-.166-.124.311.311 0 0 1-.046-.166V635.95c0-.288.084-.503.252-.648a.925.925 0 0 1 .62-.216h1.294c.233 0 .429.02.588.06.159.04.301.105.427.198.125.092.245.219.354.381.11.163.223.363.339.602l2.315 4.344c.133.263.268.523.399.776s.259.509.381.763l.358.748c.116.245.229.49.339.735h.009a59.588 59.588 0 0 1-.054-2.672v-5.575c0-.061.018-.116.054-.166a.43.43 0 0 1 .184-.128c.085-.037.199-.063.339-.078.141-.016.322-.023.542-.023.208 0 .381.007.523.023.141.016.249.041.327.078.075.037.13.079.161.128.03.05.045.104.045.166v10.682h.005zm9.635-2.72c0 .626-.117 1.173-.349 1.644a3.393 3.393 0 0 1-.946 1.18 4.127 4.127 0 0 1-1.397.712 5.94 5.94 0 0 1-1.708.238c-.41 0-.791-.034-1.143-.101a6.557 6.557 0 0 1-.932-.243 3.968 3.968 0 0 1-.675-.299 1.939 1.939 0 0 1-.391-.276.7.7 0 0 1-.17-.344 3.192 3.192 0 0 1-.051-.648c0-.19.006-.349.019-.477.012-.129.031-.233.06-.313a.343.343 0 0 1 .11-.17.269.269 0 0 1 .161-.051c.086 0 .207.051.362.152.156.1.357.213.602.335.245.122.537.234.877.335.339.101.733.152 1.18.152a2.7 2.7 0 0 0 .789-.106c.232-.071.43-.17.592-.299.162-.128.285-.287.372-.477.086-.19.129-.401.129-.634 0-.27-.074-.5-.221-.693a2.187 2.187 0 0 0-.575-.515 5.887 5.887 0 0 0-.803-.422c-.3-.132-.61-.271-.927-.419a8.54 8.54 0 0 1-.927-.5c-.3-.187-.569-.41-.803-.671a3.182 3.182 0 0 1-.575-.924c-.148-.355-.221-.78-.221-1.277 0-.569.106-1.07.317-1.502a3.1 3.1 0 0 1 .854-1.075c.359-.284.781-.498 1.268-.638s1.003-.211 1.547-.211a5.69 5.69 0 0 1 1.634.239c.244.074.463.156.652.248.19.092.316.168.376.23a.674.674 0 0 1 .124.156c.022.043.04.1.055.17.016.071.026.159.031.267a7.218 7.218 0 0 1-.005.85 1.804 1.804 0 0 1-.045.303.37.37 0 0 1-.092.175.228.228 0 0 1-.161.055c-.068 0-.175-.042-.322-.128s-.328-.179-.542-.281a5.325 5.325 0 0 0-.743-.276 3.273 3.273 0 0 0-.927-.124c-.263 0-.493.032-.688.097a1.391 1.391 0 0 0-.491.267 1.05 1.05 0 0 0-.294.408 1.342 1.342 0 0 0-.096.505c0 .263.072.491.215.685.144.193.337.364.579.514.242.15.516.291.823.422.306.132.618.271.937.419.318.147.63.314.937.5.306.187.578.41.818.671.238.26.431.567.578.919.148.355.222.769.222 1.246z" class="msportalfx-svg-c01" fill="#ffffff"></path></g><defs>
<linearGradient id="a" x1="9" y1="16.39" x2="9" y2="-1.94" gradientUnits="userSpaceOnUse"><stop offset="0" stop-color="#0078d4"></stop><stop offset=".16" stop-color="#1380da"></stop><stop offset=".53" stop-color="#3c91e5"></stop><stop offset=".82" stop-color="#559cec"></stop><stop offset="1" stop-color="#5ea0ef"></stop></linearGradient>
<linearGradient id="b" x1="9.88" y1="7.11" x2="9.99" y2="17.27" gradientUnits="userSpaceOnUse"><stop offset="0" stop-color="#32d4f5"></stop><stop offset=".32" stop-color="#31d1f3"></stop><stop offset=".53" stop-color="#2ec9eb"></stop><stop offset=".7" stop-color="#29bade"></stop><stop offset=".86" stop-color="#22a5cb"></stop><stop offset="1" stop-color="#198ab3"></stop><stop offset="1" stop-color="#198ab3"></stop></linearGradient>
<radialGradient id="c" cx="9.43" cy="7.03" r="7.27" gradientUnits="userSpaceOnUse"><stop offset="0" stop-color="#f2f2f2"></stop><stop offset=".58" stop-color="#eee"></stop><stop offset="1" stop-color="#e6e6e6"></stop></radialGradient>
</defs>
</svg>