<svg viewBox="0 0 50 50" class="fxs-portal-svg" role="presentation" focusable="false" xmlns:svg="http://www.w3.org/2000/svg" xmlns:xlink="http://www.w3.org/1999/xlink" id="FxSymbol0-079" data-type="1"><g><title></title><path d="M49.662 15.075c.499-.5.399-1.3 0-1.8l-2.396-2.4L36.483.375c-.499-.5-1.198-.5-1.697 0-.499.5-.599 1.3 0 1.8l11.283 11.1c.499.5.499 1.3 0 1.8l-11.482 11.5a1.27 1.27 0 0 0 0 1.8c.499.5 1.298.4 1.697 0l10.684-10.6.1-.1 2.594-2.6zm-49.324 0c-.499-.5-.399-1.3 0-1.8l2.396-2.4L13.517.375c.499-.5 1.198-.5 1.697 0 .499.5.599 1.3 0 1.8l-11.083 11.1a1.27 1.27 0 0 0 0 1.8l11.283 11.5c.499.5.499 1.3 0 1.8s-1.298.4-1.697 0l-10.883-10.5-.1-.1-2.396-2.7z" class="msportalfx-svg-c16" fill="#3999c6"></path><path d="M18.26 14c0 1.9-1.598 3.3-3.295 3.3S11.47 15.7 11.47 14s1.398-3.3 3.495-3.3c1.997 0 3.295 1.6 3.295 3.3zm10.085 0c0 1.9-1.598 3.3-3.295 3.3s-3.495-1.6-3.495-3.3 1.598-3.3 3.495-3.3 3.295 1.6 3.295 3.3z" class="msportalfx-svg-c14" fill="#57a300"></path><ellipse cx="35.234" cy="14" rx="3.295" ry="3.3" class="msportalfx-svg-c14" fill="#57a300"></ellipse><path d="M42.717 23.566c-6.612-.729-7.718-3.577-7.718-3.577S33.511 23.736 24 23.736v15.372c0 1.859 1.033 3.599 2.463 5.121C29.706 47.678 35 50 35 50s11-4.819 11-10.893V23.736c-1.223 0-2.311-.062-3.283-.17z" class="msportalfx-svg-c14" fill="#57a300"></path><path opacity=".4" d="M37.592 29.966l4.95-6.293c-6.55-.722-7.646-3.544-7.646-3.544S33.423 23.841 24 23.841v15.228c0 1.841 1.023 3.566 2.44 5.073l3.659-4.651 7.493-9.525z" class="msportalfx-svg-c13" fill="#b8d432"></path><path d="M39.499 34.014H39V32a4 4 0 0 0-8 0v2.014h-.499a.506.506 0 0 0-.501.51v5.981c0 .281.224.51.501.51H39.5a.506.506 0 0 0 .501-.51v-5.98a.508.508 0 0 0-.502-.511zM35 30c1.103 0 2 .897 2 2v2.014h-4V32c0-1.103.897-2 2-2z" class="msportalfx-svg-c01" fill="#ffffff"></path></g><defs>
<linearGradient id="a" x1="-1267.23" y1="3.07" x2="-1267.52" y2="14.64" gradientTransform="matrix(-1 0 0 1 -1256.13 0)" gradientUnits="userSpaceOnUse"><stop offset="0" stop-color="#32d4f5"></stop><stop offset=".23" stop-color="#31d0f1"></stop><stop offset=".46" stop-color="#2cc3e6"></stop><stop offset=".7" stop-color="#25afd4"></stop><stop offset=".94" stop-color="#1c92ba"></stop><stop offset="1" stop-color="#198ab3"></stop></linearGradient>
<linearGradient id="b" x1="6.05" y1="11.51" x2="6.05" y2="3" gradientUnits="userSpaceOnUse"><stop offset="0" stop-color="#0078d4"></stop><stop offset=".82" stop-color="#5ea0ef"></stop></linearGradient>
<linearGradient id="c" x1="10.51" y1="6.82" x2="7.93" y2="10.5" gradientUnits="userSpaceOnUse"><stop offset="0" stop-color="#005ba1"></stop><stop offset=".14" stop-color="#035da3" stop-opacity=".97"></stop><stop offset=".3" stop-color="#0b63aa" stop-opacity=".88"></stop><stop offset=".47" stop-color="#196eb6" stop-opacity=".73"></stop><stop offset=".65" stop-color="#2d7cc6" stop-opacity=".52"></stop><stop offset=".84" stop-color="#468edb" stop-opacity=".26"></stop><stop offset="1" stop-color="#5ea0ef" stop-opacity="0"></stop></linearGradient>
</defs>
</svg>