<svg viewBox="0 0 50 50" class="fxs-portal-svg" role="presentation" focusable="false" xmlns:svg="http://www.w3.org/2000/svg" xmlns:xlink="http://www.w3.org/1999/xlink" id="FxSymbol0-07a" data-type="1"><g><title></title><path d="M45.139 23.099a10.94 10.94 0 0 0 .777-4.041c0-6.058-4.905-10.969-10.956-10.969-1.682 0-3.27.391-4.694 1.069C27.898 6.087 24.195 4.1 20.02 4.1c-7.151 0-12.948 5.804-12.948 12.964 0 .581.052 1.149.125 1.71C3.053 20.339.1 24.334.1 29.031.1 35.089 5.005 40 11.056 40h29.88c4.951 0 8.964-4.018 8.964-8.975a8.974 8.974 0 0 0-4.761-7.926z" class="msportalfx-svg-c15" fill="#59b4d9"></path><path d="M18 20h14v20.05H18z" class="msportalfx-svg-c01" fill="#ffffff"></path><path opacity=".4" d="M34.938 18.847l-9.678-5.689s-.412-.21-.596-.21C23.747 12.947 23 13 23 14.738V20h10v20h3V20.422c0-.7-.424-1.324-1.062-1.575z" class="msportalfx-svg-c01" fill="#ffffff"></path><path d="M34.544 18.767l-9.667-5.684c-.431-.149-.877.184-.877.655v33.57c0 .471.446.804.877.655l9.667-5.684a.687.687 0 0 0 .456-.654V19.422a.69.69 0 0 0-.456-.655z" class="msportalfx-svg-c19" fill="#0072c6"></path></g><defs>
<linearGradient id="a" x1="9" y1="16.39" x2="9" y2="-1.94" gradientUnits="userSpaceOnUse"><stop offset="0" stop-color="#0078d4"></stop><stop offset=".16" stop-color="#1380da"></stop><stop offset=".53" stop-color="#3c91e5"></stop><stop offset=".82" stop-color="#559cec"></stop><stop offset="1" stop-color="#5ea0ef"></stop></linearGradient>
<linearGradient id="b" x1="9.88" y1="7.11" x2="9.99" y2="17.27" gradientUnits="userSpaceOnUse"><stop offset="0" stop-color="#32d4f5"></stop><stop offset=".32" stop-color="#31d1f3"></stop><stop offset=".53" stop-color="#2ec9eb"></stop><stop offset=".7" stop-color="#29bade"></stop><stop offset=".86" stop-color="#22a5cb"></stop><stop offset="1" stop-color="#198ab3"></stop><stop offset="1" stop-color="#198ab3"></stop></linearGradient>
<radialGradient id="c" cx="9.43" cy="7.03" r="7.27" gradientUnits="userSpaceOnUse"><stop offset="0" stop-color="#f2f2f2"></stop><stop offset=".58" stop-color="#eee"></stop><stop offset="1" stop-color="#e6e6e6"></stop></radialGradient>
</defs>
</svg>