<?xml version="1.0" encoding="UTF-8" standalone="no"?>
<!DOCTYPE svg PUBLIC "-//W3C//DTD SVG 1.1//EN" "http://www.w3.org/Graphics/SVG/1.1/DTD/svg11.dtd">
<!-- Generated by Microsoft Visio, SVG Export GDPR-Compliance.svg Page-1 -->
<svg xmlns="http://www.w3.org/2000/svg" xmlns:xlink="http://www.w3.org/1999/xlink" xmlns:ev="http://www.w3.org/2001/xml-events"
		xmlns:v="http://schemas.microsoft.com/visio/2003/SVGExtensions/" width="0.645833in" height="0.645833in"
		viewBox="0 0 46.5 46.5" xml:space="preserve" color-interpolation-filters="sRGB" class="st4">
	<title>MIS: Security and Governance</title>
	<desc>This package contains stencils that will represent Security and Governance</desc>
	<v:documentProperties v:langID="1033" v:metric="true" v:viewMarkup="false"/>

	<style type="text/css">
	<![CDATA[
		.st1 {fill:#063897;stroke:none;stroke-width:0.75}
		.st2 {fill:#fecb2f;stroke:none;stroke-width:0.75}
		.st3 {fill:#ffffff;stroke:none;stroke-width:0.75}
		.st4 {fill:none;fill-rule:evenodd;font-size:12px;overflow:visible;stroke-linecap:square;stroke-miterlimit:3}
	]]>
	</style>

	<g v:mID="0" v:index="1" v:groupContext="foregroundPage">
		<title>Page-1</title>
		<v:pageProperties v:drawingScale="0.0393701" v:pageScale="0.0393701" v:drawingUnits="24" v:shadowOffsetX="9"
				v:shadowOffsetY="-9"/>
		<g id="group5-1" transform="translate(0.75,-0.75)" v:mID="5" v:groupContext="group">
			<title>Sheet.5</title>
			<g id="shape6-2" v:mID="6" v:groupContext="shape">
				<title>rect420</title>
				<rect x="0" y="1.5" width="45" height="45" class="st1"/>
			</g>
			<g id="shape7-4" v:mID="7" v:groupContext="shape" transform="translate(19.3575,-36.0825)">
				<title>polygon5512</title>
				<path d="M6 42.99 L4.15 44.33 L4.85 46.5 L3 45.16 L1.15 46.5 L1.85 44.33 L0 42.99 L2.29 42.99 L3 40.82 L3.7 42.99
							 L6 42.99 Z" class="st2"/>
			</g>
			<g id="shape8-6" v:mID="8" v:groupContext="shape" transform="translate(19.3575,-3.465)">
				<title>polygon5514</title>
				<path d="M6 42.98 L4.15 44.33 L4.85 46.5 L3 45.16 L1.15 46.5 L1.85 44.33 L0 42.98 L2.29 42.98 L3 40.82 L3.7 42.98
							 L6 42.98 Z" class="st2"/>
			</g>
			<g id="shape9-8" v:mID="9" v:groupContext="shape" transform="translate(30.7875,-8.565)">
				<title>polygon5516</title>
				<path d="M6 42.98 L4.15 44.33 L4.86 46.5 L3 45.16 L1.15 46.5 L1.86 44.33 L0 42.98 L2.29 42.98 L3 40.82 L3.71 42.98
							 L6 42.98 Z" class="st2"/>
			</g>
			<g id="shape10-10" v:mID="10" v:groupContext="shape" transform="translate(8.0925,-8.565)">
				<title>polygon5518</title>
				<path d="M6.01 42.98 L4.15 44.33 L4.86 46.5 L3 45.16 L1.15 46.5 L1.86 44.33 L0 42.98 L2.29 42.98 L3 40.82 L3.71 42.98
							 L6.01 42.98 Z" class="st2"/>
			</g>
			<g id="shape11-12" v:mID="11" v:groupContext="shape" transform="translate(30.7875,-31.215)">
				<title>polygon5520</title>
				<path d="M6 42.98 L4.15 44.33 L4.86 46.5 L3 45.16 L1.15 46.5 L1.86 44.33 L0 42.98 L2.29 42.98 L3 40.81 L3.71 42.98
							 L6 42.98 Z" class="st2"/>
			</g>
			<g id="shape12-14" v:mID="12" v:groupContext="shape" transform="translate(8.0925,-31.215)">
				<title>polygon5522</title>
				<path d="M6.01 42.98 L4.15 44.33 L4.86 46.5 L3 45.16 L1.15 46.5 L1.86 44.33 L0 42.98 L2.29 42.98 L3 40.81 L3.71 42.98
							 L6.01 42.98 Z" class="st2"/>
			</g>
			<g id="shape13-16" v:mID="13" v:groupContext="shape" transform="translate(35.5725,-19.6725)">
				<title>polygon5524</title>
				<path d="M6 42.98 L4.15 44.33 L4.85 46.5 L3 45.16 L1.15 46.5 L1.85 44.33 L0 42.98 L2.29 42.98 L3 40.82 L3.71 42.98
							 L6 42.98 Z" class="st2"/>
			</g>
			<g id="shape14-18" v:mID="14" v:groupContext="shape" transform="translate(3.315,-19.6725)">
				<title>polygon5526</title>
				<path d="M6 42.98 L4.15 44.33 L4.85 46.5 L3 45.16 L1.15 46.5 L1.85 44.33 L0 42.98 L2.29 42.98 L3 40.82 L3.7 42.98
							 L6 42.98 Z" class="st2"/>
			</g>
			<g id="shape15-20" v:mID="15" v:groupContext="shape" transform="translate(11.73,-19.68)">
				<title>path5528</title>
				<path d="M2.85 40.8 A2.625 2.625 0 0 1 4.99 41.83 L4.44 42.17 A2.0325 2.0325 -180 0 0 2.85 41.42 A2.115 2.115 -180
							 0 0 0.73 43.67 A2.1225 2.1225 -180 0 0 4.33 45.31 L4.33 44.18 L2.44 44.18 L2.44 43.56 L5.01 43.56 L5.01
							 45.55 A2.88 2.88 0 0 1 2.85 46.5 A2.85 2.85 0 0 1 2.85 40.8 Z" class="st3"/>
			</g>
			<g id="shape16-22" v:mID="16" v:groupContext="shape" transform="translate(18.06,-19.785)">
				<title>path5530</title>
				<path d="M0 41 L1.88 41 A2.7525 2.7525 0 0 1 1.88 46.5 L0 46.5 L0 41 ZM1.88 45.88 A2.025 2.025 -180 0 0 4 43.79 A2.0175
							 2.0175 -180 0 0 1.88 41.64 L0.69 41.64 L0.69 45.88 L1.88 45.88 Z" class="st3"/>
			</g>
			<g id="shape17-24" v:mID="17" v:groupContext="shape" transform="translate(24.045,-19.785)">
				<title>path5532</title>
				<path d="M0 41 L2.2 41 A1.6575 1.6575 0 0 1 2.2 44.31 L0.7 44.31 L0.7 46.5 L0.02 46.5 L0 41 ZM2.12 41.6 L0.7 41.6
							 L0.7 43.7 L2.14 43.7 A1.05 1.05 -180 0 0 2.14 41.6 L2.12 41.6 Z" class="st3"/>
			</g>
			<g id="shape18-26" v:mID="18" v:groupContext="shape" transform="translate(29.0925,-19.7775)">
				<title>path5534</title>
				<path d="M1.78 44.3 L0.68 44.3 L0.68 46.49 L0 46.49 L0 40.99 L2.25 40.99 A1.605 1.605 0 0 1 3.91 42.65 A1.5 1.5 0
							 0 1 2.47 44.25 L3.97 46.5 L3.16 46.5 L1.78 44.3 ZM2.13 41.6 L0.68 41.6 L0.68 43.7 L2.13 43.7 A1.0575
							 1.0575 -180 1 0 2.13 41.6 Z" class="st3"/>
			</g>
		</g>
	</g>
</svg>
