<svg viewBox="0 0 18 18" class="" role="presentation" focusable="false" xmlns:svg="http://www.w3.org/2000/svg" xmlns:xlink="http://www.w3.org/1999/xlink" id="FxSymbol0-117" data-type="1"><g><title>Icon-identity-223</title><path d="M17.22 13.92a.79.79 0 0 0 .8-.79A.28.28 0 0 0 18 13c-.31-2.5-1.74-4.54-4.46-4.54S9.35 10.22 9.07 13a.81.81 0 0 0 .72.88h7.43z" fill="#0078d4"></path><path d="M13.55 9.09a2.44 2.44 0 0 1-1.36-.4l1.35 3.52 1.33-3.49a2.54 2.54 0 0 1-1.32.37z" opacity=".8" class="msportalfx-svg-c01" fill="#ffffff"></path><circle cx="13.55" cy="6.58" r="2.51" fill="#0078d4"></circle><path d="M12.19 16.36a1.19 1.19 0 0 0 1.19-1.19.66.66 0 0 0 0-.14c-.47-3.74-2.6-6.78-6.66-6.78S.44 10.83 0 15a1.2 1.2 0 0 0 1.07 1.31h11.1z" fill="url(#f97360fa-fd13-420b-9b43-74b8dde83a11)"></path><path d="M6.77 9.14a3.72 3.72 0 0 1-2-.6l2 5.25 2-5.21a3.81 3.81 0 0 1-2 .56z" opacity=".8" class="msportalfx-svg-c01" fill="#ffffff"></path><circle cx="6.74" cy="5.39" r="3.75" fill="url(#b2ab4071-529d-4450-9443-e6dc0939cc4e)"></circle></g><defs>
<linearGradient id="f97360fa-fd13-420b-9b43-74b8dde83a11" x1="6.7" y1="7.26" x2="6.7" y2="18.36" gradientUnits="userSpaceOnUse"><stop offset=".22" stop-color="#32d4f5"></stop><stop offset="1" stop-color="#198ab3"></stop></linearGradient>
<linearGradient id="b2ab4071-529d-4450-9443-e6dc0939cc4e" x1="6.42" y1="1.32" x2="7.23" y2="11.39" gradientUnits="userSpaceOnUse"><stop offset=".22" stop-color="#32d4f5"></stop><stop offset="1" stop-color="#198ab3"></stop></linearGradient>
</defs>
</svg>