<svg viewBox="0 0 26.8 27.1" class="fxs-portal-svg" role="presentation" focusable="false" xmlns:svg="http://www.w3.org/2000/svg" xmlns:xlink="http://www.w3.org/1999/xlink" id="FxSymbol0-0bf" data-type="1"><g><title></title><path d="M24.1 6c0 3-2.4 5.5-5.5 5.5-3 0-5.5-2.4-5.5-5.5 0-3 2.4-5.5 5.5-5.5 3 0 5.5 2.4 5.5 5.5m-1.5 7.3l-4 5.6-4-5.6h-4.1v13.8h16.3V13.3zM7.7 15.1c0 1.7-1.4 3.1-3.1 3.1s-3.1-1.4-3.1-3.1c0-1.7 1.4-3.1 3.1-3.1s3.1 1.4 3.1 3.1m-.9 4.3l-2.2 3.1-2.3-3.1H0v7.7h9.2v-7.7z" class="msportalfx-svg-c15" fill="#59b4d9"></path><path opacity=".2" d="M13.1 6c0 3 2.4 5.4 5.3 5.5L19.8.7c-.4-.1-.8-.1-1.2-.1-3-.1-5.5 2.3-5.5 5.4m1.5 7.3h-4.1v13.8h6l1.2-9.5zM1.5 15.1c0 1.7 1.4 3.1 3.1 3.1h.3l.8-5.9c-.3-.1-.7-.2-1.1-.2-1.7 0-3.1 1.3-3.1 3" class="msportalfx-svg-c01" fill="#ffffff"></path></g><defs>
<linearGradient id="a" x1="9" y1="16.39" x2="9" y2="-1.94" gradientUnits="userSpaceOnUse"><stop offset="0" stop-color="#0078d4"></stop><stop offset=".16" stop-color="#1380da"></stop><stop offset=".53" stop-color="#3c91e5"></stop><stop offset=".82" stop-color="#559cec"></stop><stop offset="1" stop-color="#5ea0ef"></stop></linearGradient>
<linearGradient id="b" x1="9.88" y1="7.11" x2="9.99" y2="17.27" gradientUnits="userSpaceOnUse"><stop offset="0" stop-color="#32d4f5"></stop><stop offset=".32" stop-color="#31d1f3"></stop><stop offset=".53" stop-color="#2ec9eb"></stop><stop offset=".7" stop-color="#29bade"></stop><stop offset=".86" stop-color="#22a5cb"></stop><stop offset="1" stop-color="#198ab3"></stop><stop offset="1" stop-color="#198ab3"></stop></linearGradient>
<radialGradient id="c" cx="9.43" cy="7.03" r="7.27" gradientUnits="userSpaceOnUse"><stop offset="0" stop-color="#f2f2f2"></stop><stop offset=".58" stop-color="#eee"></stop><stop offset="1" stop-color="#e6e6e6"></stop></radialGradient>
</defs>
</svg>