<?xml version="1.0" encoding="UTF-8" standalone="no"?>
<!DOCTYPE svg PUBLIC "-//W3C//DTD SVG 1.1//EN" "http://www.w3.org/Graphics/SVG/1.1/DTD/svg11.dtd">
<!-- Generated by Microsoft Visio, SVG Export Identity.svg Page-1 -->
<svg xmlns="http://www.w3.org/2000/svg" xmlns:xlink="http://www.w3.org/1999/xlink" xmlns:ev="http://www.w3.org/2001/xml-events"
		xmlns:v="http://schemas.microsoft.com/visio/2003/SVGExtensions/" width="11.6929in" height="8.26772in"
		viewBox="0 0 841.89 595.276" xml:space="preserve" color-interpolation-filters="sRGB" class="st8">
	<v:documentProperties v:langID="1033" v:metric="true" v:viewMarkup="false">
		<v:userDefs>
			<v:ud v:nameU="msvSubprocessMaster" v:prompt="" v:val="VT4(Rectangle)"/>
			<v:ud v:nameU="msvNoAutoConnect" v:val="VT0(1):26"/>
		</v:userDefs>
	</v:documentProperties>

	<style type="text/css">
	<![CDATA[
		.st1 {fill:#ffffff;stroke:none;stroke-linecap:butt;stroke-width:0.75}
		.st2 {fill:#e5e5e5;stroke:none;stroke-linecap:butt;stroke-width:0.75}
		.st3 {fill:#2bc7f4;stroke:none;stroke-linecap:butt;stroke-width:0.75}
		.st4 {fill:none;stroke:#556a8a;stroke-linecap:butt;stroke-width:1.5}
		.st5 {stroke:#556a8a;stroke-linecap:butt;stroke-width:1.5}
		.st6 {fill:none}
		.st7 {fill:none;stroke:none;stroke-linecap:butt;stroke-width:0.75}
		.st8 {fill:none;fill-rule:evenodd;font-size:12px;overflow:visible;stroke-linecap:square;stroke-miterlimit:3}
	]]>
	</style>

	<g v:mID="0" v:index="1" v:groupContext="foregroundPage">
		<v:userDefs>
			<v:ud v:nameU="msvThemeOrder" v:val="VT0(0):26"/>
		</v:userDefs>
		<title>Page-1</title>
		<v:pageProperties v:drawingScale="0.0393701" v:pageScale="0.0393701" v:drawingUnits="24" v:shadowOffsetX="9"
				v:shadowOffsetY="-9"/>
		<v:layer v:name="Connector" v:index="0"/>
		<g id="group1041-1" transform="translate(18,-529.276)" v:mID="1041" v:groupContext="group">
			<title>Identity</title>
			<g id="shape1042-2" v:mID="1042" v:groupContext="shape" transform="translate(7.5,-0.75)">
				<title>rect7488</title>
				<path d="M0 593.78 A1.50003 1.50003 -180 0 0 1.5 595.28 L30.75 595.28 A1.50003 1.50003 -180 0 0 32.25 593.78 L32.25
							 550.28 A1.50003 1.50003 -180 0 0 30.75 548.78 L1.5 548.78 A1.50003 1.50003 -180 0 0 0 550.28 L0 593.78
							 Z" class="st1"/>
			</g>
			<g id="shape1043-4" v:mID="1043" v:groupContext="shape" transform="translate(7.5,-0.75)">
				<title>path7490</title>
				<path d="M32.25 587.03 L32.25 593.78 A1.5 1.5 0 0 1 30.75 595.28 L1.5 595.28 A1.5 1.5 0 0 1 0 593.78 L0 587.03 L32.25
							 587.03 Z" class="st2"/>
			</g>
			<g id="shape1044-6" v:mID="1044" v:groupContext="shape" transform="translate(7.5,-42)">
				<title>path7492</title>
				<path d="M32.25 591.53 L32.25 595.28 L0 595.28 L0 591.53 A1.5 1.5 0 0 1 1.5 590.03 L30.75 590.03 A1.5 1.5 0 0 1 32.25
							 591.53 Z" class="st3"/>
			</g>
			<g id="shape1045-8" v:mID="1045" v:groupContext="shape" transform="translate(7.5,-0.75)">
				<title>rect7494</title>
				<path d="M0 593.78 A1.50003 1.50003 -180 0 0 1.5 595.28 L30.75 595.28 A1.50003 1.50003 -180 0 0 32.25 593.78 L32.25
							 550.28 A1.50003 1.50003 -180 0 0 30.75 548.78 L1.5 548.78 A1.50003 1.50003 -180 0 0 0 550.28 L0 593.78
							 Z" class="st4"/>
			</g>
			<g id="shape1046-10" v:mID="1046" v:groupContext="shape" transform="translate(7.5,-42)">
				<title>line7496</title>
				<path d="M0 595.28 L32.25 595.28" class="st5"/>
			</g>
			<g id="shape1047-13" v:mID="1047" v:groupContext="shape" transform="translate(7.5,-9)">
				<title>line7498</title>
				<path d="M0 595.28 L32.25 595.28" class="st5"/>
			</g>
			<g id="group1048-16" transform="translate(14.25,-15.75)" v:mID="1048" v:groupContext="group">
				<title>g7504</title>
				<g id="shape1049-17" v:mID="1049" v:groupContext="shape" transform="translate(3.375,-9)">
					<title>circle7500</title>
					<ellipse cx="6" cy="589.276" rx="6" ry="6" class="st4"/>
				</g>
				<g id="shape1050-19" v:mID="1050" v:groupContext="shape">
					<title>path7502</title>
					<path d="M0 595.28 A9.195 9.195 0 0 1 9.37 586.28 A9.195 9.195 0 0 1 18.75 595.28 L0 595.28 Z" class="st6"/>
					<path d="M0 595.28 A9.195 9.195 0 0 1 9.37 586.28 A9.195 9.195 0 0 1 18.75 595.28" class="st5"/>
				</g>
			</g>
			<g id="shape1051-22" v:mID="1051" v:groupContext="shape">
				<title>rect7506</title>
				<rect x="0" y="547.276" width="48" height="48" class="st7"/>
			</g>
		</g>
	</g>
</svg>
