<?xml version="1.0" encoding="UTF-8" standalone="no"?>
<!DOCTYPE svg PUBLIC "-//W3C//DTD SVG 1.1//EN" "http://www.w3.org/Graphics/SVG/1.1/DTD/svg11.dtd">
<!-- Generated by Microsoft Visio, SVG Export Identity-Manager.svg Page-1 -->
<svg xmlns="http://www.w3.org/2000/svg" xmlns:xlink="http://www.w3.org/1999/xlink" xmlns:ev="http://www.w3.org/2001/xml-events"
		xmlns:v="http://schemas.microsoft.com/visio/2003/SVGExtensions/" width="1.36262in" height="1.01003in"
		viewBox="0 0 98.1085 72.7222" xml:space="preserve" color-interpolation-filters="sRGB" class="st12">
	<v:documentProperties v:langID="1033" v:metric="true" v:viewMarkup="false"/>

	<style type="text/css">
	<![CDATA[
		.st1 {fill:#ffffff;stroke:none;stroke-linecap:butt;stroke-width:0.75}
		.st2 {fill:#e5e5e5;stroke:none;stroke-linecap:butt;stroke-width:0.75}
		.st3 {fill:#008290;stroke:none;stroke-linecap:butt;stroke-width:0.75}
		.st4 {fill:none;stroke:#505050;stroke-linecap:butt;stroke-width:1.5}
		.st5 {stroke:#505050;stroke-linecap:butt;stroke-width:1.5}
		.st6 {fill:none}
		.st7 {fill:none;stroke:none;stroke-linecap:butt;stroke-width:0.75}
		.st8 {fill:none;stroke:#008290;stroke-linecap:butt;stroke-width:1.5}
		.st9 {stroke:#008290;stroke-linecap:butt;stroke-width:1.5}
		.st10 {fill:#505050;stroke:none;stroke-linecap:butt;stroke-width:0.75}
		.st11 {fill:#ffffff;stroke:#505050;stroke-linecap:butt;stroke-width:1.5}
		.st12 {fill:none;fill-rule:evenodd;font-size:12px;overflow:visible;stroke-linecap:square;stroke-miterlimit:3}
	]]>
	</style>

	<g v:mID="0" v:index="1" v:groupContext="foregroundPage">
		<title>Page-1</title>
		<v:pageProperties v:drawingScale="0.0393701" v:pageScale="0.0393701" v:drawingUnits="24" v:shadowOffsetX="9"
				v:shadowOffsetY="-9"/>
		<g id="group1052-1" transform="translate(0.75,-1.50221)" v:mID="1052" v:groupContext="group">
			<title>Identity Manager</title>
			<g id="group1053-2" v:mID="1053" v:groupContext="group">
				<title>g7351</title>
				<g id="group1054-3" transform="translate(10.1925,-20.22)" v:mID="1054" v:groupContext="group">
					<title>g7307</title>
					<g id="shape1055-4" v:mID="1055" v:groupContext="shape" transform="translate(8.3925,-0.780001)">
						<title>rect7287</title>
						<path d="M0 71.22 A1.50003 1.50003 -180 0 0 1.5 72.72 L30.75 72.72 A1.50003 1.50003 -180 0 0 32.25 71.22
									 L32.25 27.72 A1.50003 1.50003 -180 0 0 30.75 26.22 L1.5 26.22 A1.50003 1.50003 -180 0 0 0 27.72
									 L0 71.22 Z" class="st1"/>
					</g>
					<g id="shape1056-6" v:mID="1056" v:groupContext="shape" transform="translate(7.6425,-0.780001)">
						<title>path7289</title>
						<path d="M32.25 64.47 L32.25 71.22 A1.605 1.605 0 0 1 30.61 72.72 L1.36 72.72 A1.365 1.365 0 0 1 0 71.22
									 L0 64.47 L32.25 64.47 Z" class="st2"/>
					</g>
					<g id="shape1057-8" v:mID="1057" v:groupContext="shape" transform="translate(7.6425,-42.03)">
						<title>path7291</title>
						<path d="M32.25 68.97 L32.25 72.72 L0 72.72 L0 68.97 C0 68.15 1.28 67.47 2.11 67.47 L31.36 67.47 C32.18 67.47
									 32.25 68.18 32.25 68.97 Z" class="st3"/>
					</g>
					<g id="shape1058-10" v:mID="1058" v:groupContext="shape" transform="translate(8.3925,-0.75)">
						<title>rect7293</title>
						<path d="M0 71.22 A1.50003 1.50003 -180 0 0 1.5 72.72 L30.75 72.72 A1.50003 1.50003 -180 0 0 32.25 71.22
									 L32.25 27.72 A1.50003 1.50003 -180 0 0 30.75 26.22 L1.5 26.22 A1.50003 1.50003 -180 0 0 0 27.72
									 L0 71.22 Z" class="st4"/>
					</g>
					<g id="shape1059-12" v:mID="1059" v:groupContext="shape" transform="translate(7.6425,-42.03)">
						<title>line7295</title>
						<path d="M0 72.72 L32.25 72.72" class="st5"/>
					</g>
					<g id="shape1060-15" v:mID="1060" v:groupContext="shape" transform="translate(7.6425,-9.03)">
						<title>line7297</title>
						<path d="M0 72.72 L32.25 72.72" class="st5"/>
					</g>
					<g id="group1061-18" transform="translate(15.8925,-14.28)" v:mID="1061" v:groupContext="group">
						<title>g7303</title>
						<g id="shape1062-19" v:mID="1062" v:groupContext="shape" transform="translate(3.375,-9)">
							<title>circle7299</title>
							<ellipse cx="6" cy="66.7222" rx="6" ry="6" class="st4"/>
						</g>
						<g id="shape1063-21" v:mID="1063" v:groupContext="shape">
							<title>path7301</title>
							<path d="M0 72.72 A9.3825 9.3825 0 0 1 18.75 72.72 L0 72.72 Z" class="st6"/>
							<path d="M0 72.72 A9.3825 9.3825 0 0 1 18.75 72.72" class="st5"/>
						</g>
					</g>
					<g id="shape1064-24" v:mID="1064" v:groupContext="shape">
						<title>rect7305</title>
						<rect x="0" y="24.7222" width="48" height="48" class="st7"/>
					</g>
				</g>
				<g id="group1065-26" transform="translate(5.59552E-14,-6.2775)" v:mID="1065" v:groupContext="group">
					<title>g7329</title>
					<g id="shape1066-27" v:mID="1066" v:groupContext="shape" transform="translate(10.335,-0.472501)">
						<title>path7309</title>
						<path d="M43.5 70.73 C43.5 71.83 43.71 72.72 42.58 72.72 L3.15 72.72 C2.02 72.72 0 71.83 0 70.73 L0 12.47
									 C0 11.36 2.02 10.47 3.15 10.47 L42.58 10.47 C43.71 10.47 43.5 11.36 43.5 12.47 L43.5 70.73 Z"
								class="st1"/>
					</g>
					<g id="shape1067-29" v:mID="1067" v:groupContext="shape" transform="translate(11.085,-0.472501)">
						<title>path7311</title>
						<path d="M42.75 60.72 L42.75 70.52 A2.25 2.25 0 0 1 40.57 72.72 L1.64 72.72 C0.55 72.72 0 71.72 0 70.52 L0
									 60.72 L42.75 60.72 Z" class="st2"/>
					</g>
					<g id="shape1068-31" v:mID="1068" v:groupContext="shape" transform="translate(10.335,-55.9725)">
						<title>path7313</title>
						<path d="M42.75 66.88 L42.75 72.72 L0 72.72 L0 66.88 C0 65.66 1.54 65.22 2.64 65.22 L41.57 65.22 C42.67 65.22
									 42.75 65.66 42.75 66.88 Z" class="st3"/>
					</g>
					<g id="shape1069-33" v:mID="1069" v:groupContext="shape" transform="translate(10.335,-0.4425)">
						<title>rect7315</title>
						<path d="M0 71.22 A1.50003 1.50003 -180 0 0 1.5 72.72 L42 72.72 A1.50003 1.50003 -180 0 0 43.5 71.22 L43.5
									 11.22 A1.50003 1.50003 -180 0 0 42 9.72 L1.5 9.72 A1.50003 1.50003 -180 0 0 0 11.22 L0 71.22
									 Z" class="st4"/>
					</g>
					<g id="shape1070-35" v:mID="1070" v:groupContext="shape" transform="translate(10.335,-55.9725)">
						<title>line7317</title>
						<path d="M0 72.72 L43.5 72.72" class="st5"/>
					</g>
					<g id="shape1071-38" v:mID="1071" v:groupContext="shape" transform="translate(10.335,-12.4725)">
						<title>line7319</title>
						<path d="M0 72.72 L42.75 72.72" class="st5"/>
					</g>
					<g id="group1072-41" transform="translate(19.1325,-20.52)" v:mID="1072" v:groupContext="group">
						<title>g7325</title>
						<g id="shape1073-42" v:mID="1073" v:groupContext="shape" transform="translate(4.485,-11.9775)">
							<title>circle7321</title>
							<ellipse cx="7.9875" cy="64.7347" rx="7.9875" ry="7.9875" class="st8"/>
						</g>
						<g id="shape1074-44" v:mID="1074" v:groupContext="shape">
							<title>path7323</title>
							<path d="M0 72.72 C0 66.11 5.59 60.72 12.48 60.72 C19.37 60.72 24.95 66.11 24.95 72.72 L0 72.72 Z"
									class="st6"/>
							<path d="M0 72.72 C0 66.11 5.59 60.72 12.48 60.72 C19.37 60.72 24.95 66.11 24.95 72.72" class="st9"/>
						</g>
					</g>
					<g id="shape1075-47" v:mID="1075" v:groupContext="shape">
						<title>rect7327</title>
						<rect x="0" y="8.83721" width="63.885" height="63.885" class="st7"/>
					</g>
				</g>
				<g id="group1076-49" transform="translate(44.76,-2.84217E-14)" v:mID="1076" v:groupContext="group">
					<title>g7349</title>
					<g id="shape1077-50" v:mID="1077" v:groupContext="shape" transform="translate(16.575,-27)">
						<title>path7331</title>
						<path d="M17.55 62.22 L1.95 62.22 A1.935 1.935 -180 0 0 0 64.13 L0 70.81 A1.935 1.935 -180 0 0 1.95 72.72
									 L1.5 72.72 L1.5 63.72 L18 63.72 L18 72.72 C19.07 72.72 19.5 71.86 19.5 70.82 L19.5 64.13 A1.935
									 1.935 -180 0 0 17.55 62.22 Z" class="st10"/>
					</g>
					<g id="shape1078-52" v:mID="1078" v:groupContext="shape" transform="translate(-7.99361E-14,-0.0750001)">
						<title>path7333</title>
						<path d="M46.5 42.2 L4.65 42.2 A4.74 4.74 -180 0 0 0 47.01 L0 71.3 A1.41 1.41 -180 0 0 1.39 72.72 L49.75
									 72.72 A1.35 1.35 -180 0 0 50.5 72.54 A1.5 1.5 -180 0 0 51.17 71.3 L51.17 47.01 A4.74 4.74 -180
									 0 0 46.5 42.2 Z" class="st1"/>
					</g>
					<g id="shape1079-54" v:mID="1079" v:groupContext="shape" transform="translate(0.675,0)">
						<title>rect7335</title>
						<rect x="0" y="66.1222" width="51.15" height="6.6" class="st2"/>
					</g>
					<g id="shape1080-56" v:mID="1080" v:groupContext="shape" transform="translate(0.075,-1.5E-07)">
						<title>path7337</title>
						<path d="M46.36 41.97 L4.63 41.97 A4.755 4.755 -180 0 0 -0 46.82 L0 71.28 A1.41 1.41 -180 0 0 1.39 72.72
									 L49.6 72.72 A1.335 1.335 -180 0 0 50.35 72.54 A1.5 1.5 -180 0 0 51.02 71.29 L51.02 46.82 A4.755
									 4.755 -180 0 0 46.36 41.97 Z" class="st4"/>
					</g>
					<g id="shape1081-58" v:mID="1081" v:groupContext="shape" transform="translate(0.825,-14.25)">
						<title>rect7339</title>
						<rect x="0" y="68.9722" width="49.5" height="3.75" class="st3"/>
					</g>
					<g id="shape1082-60" v:mID="1082" v:groupContext="shape" transform="translate(9.825,-9.75)">
						<title>rect7341</title>
						<path d="M0 71.22 A1.50003 1.50003 -180 0 0 1.5 72.72 L4.5 72.72 A1.50003 1.50003 -180 0 0 6 71.22 L6 62.97
									 A1.50003 1.50003 -180 0 0 4.5 61.47 L1.5 61.47 A1.50003 1.50003 -180 0 0 -0 62.97 L0 71.22 Z"
								class="st11"/>
					</g>
					<g id="shape1083-62" v:mID="1083" v:groupContext="shape" transform="translate(85.5472,53.9722) rotate(90)">
						<title>line7343</title>
						<path d="M0 72.72 L6.75 72.72" class="st5"/>
					</g>
					<g id="shape1084-65" v:mID="1084" v:groupContext="shape" transform="translate(35.325,-9.75)">
						<title>rect7345</title>
						<path d="M0 71.22 A1.50003 1.50003 -180 0 0 1.5 72.72 L4.5 72.72 A1.50003 1.50003 -180 0 0 6 71.22 L6 62.97
									 A1.50003 1.50003 -180 0 0 4.5 61.47 L1.5 61.47 A1.50003 1.50003 -180 0 0 -0 62.97 L0 71.22 Z"
								class="st11"/>
					</g>
					<g id="shape1085-67" v:mID="1085" v:groupContext="shape" transform="translate(111.047,53.9722) rotate(90)">
						<title>line7347</title>
						<path d="M0 72.72 L6.75 72.72" class="st5"/>
					</g>
				</g>
			</g>
		</g>
	</g>
</svg>
