<?xml version="1.0" encoding="UTF-8" standalone="no"?>
<!DOCTYPE svg PUBLIC "-//W3C//DTD SVG 1.1//EN" "http://www.w3.org/Graphics/SVG/1.1/DTD/svg11.dtd">
<!-- Generated by Microsoft Visio, SVG Export Identity-governance.svg Page-1 -->
<svg xmlns="http://www.w3.org/2000/svg" xmlns:xlink="http://www.w3.org/1999/xlink" xmlns:ev="http://www.w3.org/2001/xml-events"
		xmlns:v="http://schemas.microsoft.com/visio/2003/SVGExtensions/" width="0.703583in" height="0.698889in"
		viewBox="0 0 50.658 50.32" xml:space="preserve" color-interpolation-filters="sRGB" class="st6">
	<title>MIS: Enterprise Mobility and Security</title>
	<desc>This package contains stencils that will represent Enterprise Mobility and Security</desc>
	<v:documentProperties v:langID="1033" v:metric="true" v:viewMarkup="false"/>

	<style type="text/css">
	<![CDATA[
		.st1 {fill:#e5e5e5;stroke:none;stroke-width:0.75}
		.st2 {fill:#ffffff;fill-opacity:0.5;stroke:none;stroke-width:0.75}
		.st3 {fill:#2999c6;stroke:none;stroke-width:0.75}
		.st4 {fill:#ffffff;stroke:none;stroke-width:0.75}
		.st5 {fill:#804998;stroke:none;stroke-width:0.75}
		.st6 {fill:none;fill-rule:evenodd;font-size:12px;overflow:visible;stroke-linecap:square;stroke-miterlimit:3}
	]]>
	</style>

	<g v:mID="0" v:index="1" v:groupContext="foregroundPage">
		<title>Page-1</title>
		<v:pageProperties v:drawingScale="0.0393701" v:pageScale="0.0393701" v:drawingUnits="24" v:shadowOffsetX="9"
				v:shadowOffsetY="-9"/>
		<g id="group5-1" v:mID="5" v:groupContext="group">
			<title>Sheet.5</title>
			<g id="shape6-2" v:mID="6" v:groupContext="shape" transform="translate(2.93336,-2.7604)">
				<title>Sheet.6</title>
				<path d="M38.23 43.76 C34 47.99 28.38 50.32 22.4 50.32 C22.39 50.32 22.39 50.32 22.39 50.32 C16.41 50.32 10.79 47.99
							 6.56 43.76 C2.33 39.53 0 33.91 0 27.92 C0 21.94 2.33 16.32 6.56 12.09 C10.79 7.86 16.41 5.53 22.39 5.53
							 C28.38 5.53 34 7.86 38.23 12.09 C42.46 16.32 44.79 21.94 44.79 27.92 C44.79 33.91 42.46 39.53 38.23
							 43.76 Z" class="st1"/>
			</g>
			<g id="shape7-4" v:mID="7" v:groupContext="shape" transform="translate(2.93336,-9.31897)">
				<title>Sheet.7</title>
				<path d="M6.56 50.32 C2.33 46.09 0 40.47 0 34.48 C0 28.5 2.33 22.88 6.56 18.65 C10.79 14.42 16.41 12.09 22.39 12.09
							 C28.38 12.09 34 14.42 38.23 18.65 L6.56 50.32 Z" class="st2"/>
			</g>
			<g id="shape8-6" v:mID="8" v:groupContext="shape" transform="translate(0,-15.7746)">
				<title>Sheet.8</title>
				<path d="M5.94 48.7 C4.96 46.26 4.43 43.64 4.43 40.94 C4.43 36.33 5.93 31.96 8.67 28.36 C8.23 28.05 7.81 27.68 7.45
							 27.24 C7.14 26.85 6.89 26.44 6.69 26.01 C1.09 32.99 0 42.38 3.39 50.32 C4.16 49.63 5.01 49.08 5.94 48.7
							 Z" class="st3"/>
			</g>
			<g id="shape9-8" v:mID="9" v:groupContext="shape" transform="translate(16.6694,-42.0628)">
				<title>Sheet.9</title>
				<path d="M0 44.98 C0.75 45.75 1.33 46.61 1.75 47.53 C3.94 46.76 6.26 46.33 8.66 46.33 C13.12 46.33 17.36 47.74 20.9
							 50.32 C21.27 49.58 21.78 48.91 22.46 48.36 C22.46 48.36 22.46 48.36 22.46 48.36 C22.6 48.24 22.75 48.14
							 22.89 48.04 C16.21 43.07 7.52 42.06 0 44.98 Z" class="st3"/>
			</g>
			<g id="shape10-10" v:mID="10" v:groupContext="shape" transform="translate(41.9858,-10.2278)">
				<title>Sheet.10</title>
				<path d="M2.73 27.63 C3.71 30.07 4.24 32.69 4.24 35.39 C4.24 40 2.74 44.37 0 47.97 C0.45 48.28 0.86 48.65 1.22 49.1
							 C1.53 49.48 1.78 49.89 1.98 50.32 C7.58 43.34 8.67 33.95 5.28 26.01 C4.52 26.7 3.66 27.25 2.73 27.63
							 Z" class="st3"/>
			</g>
			<g id="shape11-12" v:mID="11" v:groupContext="shape" transform="translate(11.1106,-4.26326E-14)">
				<title>Sheet.11</title>
				<path d="M21.13 44.86 C18.93 45.63 16.61 46.06 14.22 46.06 C14.22 46.06 14.22 46.06 14.22 46.06 C9.75 46.06 5.51
							 44.65 1.97 42.07 C1.61 42.81 1.09 43.48 0.42 44.03 C0.41 44.03 0.41 44.03 0.41 44.03 C0.28 44.14 0.14
							 44.24 0 44.34 C6.69 49.3 15.37 50.32 22.88 47.41 C22.13 46.65 21.55 45.78 21.13 44.86 Z" class="st3"/>
			</g>
			<g id="shape12-14" v:mID="12" v:groupContext="shape" transform="translate(3.85916,-34.6784)">
				<title>Sheet.12</title>
				<path d="M10.65 39.68 C12.95 41.98 12.95 45.72 10.65 48.02 C8.34 50.32 4.6 50.32 2.3 48.02 C0 45.71 0 41.97 2.3 39.67
							 C4.61 37.37 8.35 37.37 10.65 39.67 C10.65 39.67 10.65 39.68 10.65 39.68 Z" class="st3"/>
			</g>
			<g id="shape13-16" v:mID="13" v:groupContext="shape" transform="translate(7.16144,-37.9797)">
				<title>Sheet.13</title>
				<path d="M5.22 49.19 C6.35 48.06 6.35 46.23 5.22 45.1 C4.09 43.97 2.26 43.97 1.13 45.1 C0 46.23 0 48.06 1.13 49.19
							 L1.13 49.19 C2.26 50.32 4.09 50.32 5.22 49.19 Z" class="st4"/>
			</g>
			<g id="shape14-18" v:mID="14" v:groupContext="shape" transform="translate(34.8494,-34.6754)">
				<title>Sheet.14</title>
				<path d="M2.3 39.67 C4.61 37.37 8.35 37.37 10.65 39.67 C12.95 41.98 12.95 45.72 10.64 48.02 C8.34 50.32 4.6 50.32
							 2.3 48.02 C0 45.71 0 41.97 2.3 39.67 C2.3 39.67 2.3 39.67 2.3 39.67 Z" class="st3"/>
			</g>
			<g id="shape15-20" v:mID="15" v:groupContext="shape" transform="translate(38.1507,-37.9777)">
				<title>Sheet.15</title>
				<path d="M5.22 45.1 C4.09 43.97 2.26 43.97 1.13 45.1 C0 46.23 0 48.06 1.13 49.19 C2.26 50.32 4.09 50.32 5.22 49.19
							 L5.22 49.19 C6.34 48.06 6.34 46.23 5.22 45.1 Z" class="st4"/>
			</g>
			<g id="shape16-22" v:mID="16" v:groupContext="shape" transform="translate(33.8486,-2.68641)">
				<title>Sheet.16</title>
				<path d="M2.3 48.02 C0 45.71 0 41.97 2.3 39.67 C4.61 37.37 8.35 37.37 10.65 39.68 C12.95 41.98 12.95 45.72 10.65
							 48.02 C8.34 50.32 4.6 50.32 2.3 48.02 C2.3 48.02 2.3 48.02 2.3 48.02 Z" class="st3"/>
			</g>
			<g id="shape17-24" v:mID="17" v:groupContext="shape" transform="translate(37.1499,-5.98669)">
				<title>Sheet.17</title>
				<path d="M1.13 45.1 C0 46.23 0 48.06 1.13 49.19 C2.26 50.32 4.09 50.32 5.22 49.19 C6.35 48.06 6.35 46.23 5.22 45.1
							 L5.22 45.1 C4.09 43.97 2.26 43.97 1.13 45.1 Z" class="st4"/>
			</g>
			<g id="shape18-26" v:mID="18" v:groupContext="shape" transform="translate(2.86038,-2.68641)">
				<title>Sheet.18</title>
				<path d="M10.64 48.02 C8.34 50.32 4.6 50.32 2.3 48.02 C0 45.71 0 41.97 2.3 39.67 C4.61 37.37 8.35 37.37 10.65 39.67
							 C12.95 41.98 12.95 45.72 10.65 48.02 C10.65 48.02 10.64 48.02 10.64 48.02 Z" class="st3"/>
			</g>
			<g id="shape19-28" v:mID="19" v:groupContext="shape" transform="translate(6.16166,-5.98869)">
				<title>Sheet.19</title>
				<path d="M1.13 49.19 C2.26 50.32 4.09 50.32 5.21 49.19 C6.34 48.06 6.34 46.23 5.22 45.1 C4.09 43.97 2.26 43.97 1.13
							 45.1 L1.13 45.1 C0 46.23 0 48.06 1.13 49.19 Z" class="st4"/>
			</g>
			<g id="shape20-30" v:mID="20" v:groupContext="shape" transform="translate(22.3291,-19.1568)">
				<title>Sheet.20</title>
				<path d="M0 41.32 L3 50.32 L6 41.32 L0 41.32 Z" class="st4"/>
			</g>
			<g id="shape21-32" v:mID="21" v:groupContext="shape" transform="translate(15.1967,-15.1537)">
				<title>Sheet.21</title>
				<path d="M20.16 48.09 C19.59 43.01 17.22 38.75 13.13 37.32 L10.13 46.32 L7.13 37.32 C3.14 38.66 0.6 42.49 0.1 48.11
							 C0 49.21 0.72 50.19 1.7 50.31 C1.76 50.31 1.82 50.32 1.88 50.32 L18.38 50.32 C19.37 50.32 20.17 49.43
							 20.17 48.33 C20.17 48.25 20.17 48.17 20.16 48.09 Z" class="st5"/>
			</g>
			<g id="shape22-34" v:mID="22" v:groupContext="shape" transform="translate(19.4298,-27.2551)">
				<title>Sheet.22</title>
				<ellipse cx="5.89871" cy="44.4213" rx="5.89871" ry="5.89871" class="st5"/>
			</g>
		</g>
	</g>
</svg>
