<?xml version="1.0" encoding="UTF-8" standalone="no"?>
<!DOCTYPE svg PUBLIC "-//W3C//DTD SVG 1.1//EN" "http://www.w3.org/Graphics/SVG/1.1/DTD/svg11.dtd">
<!-- Generated by Microsoft Visio, SVG Export Key-Vaults.svg Page-1 -->
<svg xmlns="http://www.w3.org/2000/svg" xmlns:xlink="http://www.w3.org/1999/xlink" xmlns:ev="http://www.w3.org/2001/xml-events"
		xmlns:v="http://schemas.microsoft.com/visio/2003/SVGExtensions/" width="1.27546in" height="1.30247in"
		viewBox="0 0 91.8335 93.7779" xml:space="preserve" color-interpolation-filters="sRGB" class="st5">
	<title>MIS: Enterprise Mobility and Security</title>
	<desc>This package contains stencils that will represent Enterprise Mobility and Security</desc>
	<v:documentProperties v:langID="1033" v:metric="true" v:viewMarkup="false"/>

	<style type="text/css">
	<![CDATA[
		.st1 {fill:#fcd116;stroke:none;stroke-width:25.5}
		.st2 {fill:#ff8c00;fill-opacity:0.4;stroke:none;stroke-width:25.5}
		.st3 {fill:#ffffff;fill-opacity:0.4;stroke:none;stroke-width:25.5}
		.st4 {fill:#7fba00;stroke:none;stroke-width:25.5}
		.st5 {fill:none;fill-rule:evenodd;font-size:12px;overflow:visible;stroke-linecap:square;stroke-miterlimit:3}
	]]>
	</style>

	<g v:mID="0" v:index="1" v:groupContext="foregroundPage">
		<title>Page-1</title>
		<v:pageProperties v:drawingScale="0.0393701" v:pageScale="0.0393701" v:drawingUnits="24" v:shadowOffsetX="9"
				v:shadowOffsetY="-9"/>
		<g id="group5-1" transform="translate(25.5,-25.5)" v:mID="5" v:groupContext="group">
			<title>Sheet.5</title>
			<g id="group6-2" v:mID="6" v:groupContext="group">
				<title>Sheet.6</title>
				<g id="shape7-3" v:mID="7" v:groupContext="shape" transform="translate(9.72225,-3.30556)">
					<title>Sheet.7</title>
					<path d="M10.69 54.31 C4.86 54.31 0 59.17 0 65 C0 69.86 3.11 73.75 7.19 75.11 L4.86 77.64 L7.78 80.17 L4.86 82.89
								 L7.78 85.42 L4.86 88.33 L10.69 93.78 L15.56 88.72 L15.56 74.53 C19.06 72.58 21.39 69.08 21.39 64.81
								 C21.39 58.97 16.53 54.31 10.69 54.31 ZM12.64 62.08 C12.64 62.08 12.25 62.08 12.06 62.47 C11.86 62.86
								 11.67 62.86 11.47 62.86 L9.72 62.86 L9.33 62.47 L8.94 61.89 L8.94 60.14 L9.33 59.75 L9.92 59.36
								 L11.67 59.36 L12.06 59.75 L12.44 60.33 L12.44 62.08 L12.64 62.08 Z" class="st1"/>
				</g>
				<g id="shape8-5" v:mID="8" v:groupContext="shape" transform="translate(21.3889,-7.38891)">
					<title>Sheet.8</title>
					<path d="M0 79.78 L0 93.78 L1.94 91.83 L1.94 79.39 A10.6945 10.6945 0 0 1 -0 79.78 Z" class="st2"/>
				</g>
				<g id="shape9-7" v:mID="9" v:groupContext="shape" transform="translate(13.6111,-25.2778)">
					<title>Sheet.9</title>
					<path d="M6.81 93.78 A6.80557 6.80557 -180 0 0 13.61 87.94 L0 87.94 A6.80557 6.80557 -180 0 0 6.81 93.78 Z"
							class="st3"/>
				</g>
				<g id="shape10-9" v:mID="10" v:groupContext="shape">
					<title>Sheet.10</title>
					<path d="M31.89 56.44 C32.47 57.61 32.67 58.39 32.86 59.75 A18.4723 18.4723 0 0 1 38.69 73.36 C38.69 83.47 30.33
								 91.83 20.22 91.83 C10.11 91.83 1.94 83.47 1.94 73.36 A18.4723 18.4723 0 0 1 7.78 59.75 L8.94 56.44
								 A20.4167 20.4167 -180 0 0 0 73.36 C0 84.64 9.14 93.78 20.42 93.78 C31.69 93.78 40.83 84.64 40.83
								 73.36 C40.83 66.36 37.33 60.14 31.89 56.44 Z" class="st4"/>
				</g>
			</g>
		</g>
	</g>
</svg>
