<?xml version="1.0" encoding="UTF-8" standalone="no"?>
<!DOCTYPE svg PUBLIC "-//W3C//DTD SVG 1.1//EN" "http://www.w3.org/Graphics/SVG/1.1/DTD/svg11.dtd">
<!-- Generated by Microsoft Visio, SVG Export Key-Vaults-#1.svg Page-1 -->
<svg xmlns="http://www.w3.org/2000/svg" xmlns:xlink="http://www.w3.org/1999/xlink" xmlns:ev="http://www.w3.org/2001/xml-events"
		xmlns:v="http://schemas.microsoft.com/visio/2003/SVGExtensions/" width="0.966205in" height="1.03889in"
		viewBox="0 0 69.5667 74.8" xml:space="preserve" color-interpolation-filters="sRGB" class="st3">
	<title>MIS: Enterprise Mobility and Security</title>
	<desc>This package contains stencils that will represent Enterprise Mobility and Security</desc>
	<v:documentProperties v:langID="1033" v:metric="true" v:viewMarkup="false"/>

	<style type="text/css">
	<![CDATA[
		.st1 {fill:#7fba00;stroke:none;stroke-width:12.24}
		.st2 {fill:#fcd116;stroke:none;stroke-width:12.24}
		.st3 {fill:none;fill-rule:evenodd;font-size:12px;overflow:visible;stroke-linecap:square;stroke-miterlimit:3}
	]]>
	</style>

	<g v:mID="0" v:index="1" v:groupContext="foregroundPage">
		<title>Page-1</title>
		<v:pageProperties v:drawingScale="0.0393701" v:pageScale="0.0393701" v:drawingUnits="24" v:shadowOffsetX="9"
				v:shadowOffsetY="-9"/>
		<g id="group5-1" transform="translate(12.24,-12.24)" v:mID="5" v:groupContext="group">
			<title>Sheet.5</title>
			<g id="shape6-2" v:mID="6" v:groupContext="shape">
				<title>Sheet.6</title>
				<path d="M45.09 52.26 C45.09 44.91 41.56 38.47 36.23 34.34 C36.23 34.54 36.23 34.85 36.23 35.05 C36.23 37.26 35.63
							 39.37 34.72 41.19 C37.34 44.1 38.95 47.93 38.95 52.16 C38.95 61.21 31.6 68.56 22.54 68.56 C13.49 68.56
							 6.14 61.21 6.14 52.16 C6.14 47.63 7.95 43.6 10.87 40.58 C10.06 38.87 9.56 36.96 9.56 34.95 C9.56 34.54
							 9.56 34.04 9.66 33.64 C3.82 37.66 0 44.51 0 52.16 C0 64.74 10.06 74.8 22.54 74.8 C35.02 74.8 45.09 64.74
							 45.09 52.26 Z" class="st1"/>
			</g>
			<g id="shape7-4" v:mID="7" v:groupContext="shape" transform="translate(12.4794,-10.6678)">
				<title>Sheet.7</title>
				<path d="M10.37 35.15 C4.63 35.15 0 39.78 0 45.51 C0 50.24 3.12 54.17 7.45 55.48 L7.45 65.74 L2.62 65.74 L2.62 70.98
							 L7.45 70.98 L7.45 74.8 L13.18 74.8 L13.18 55.38 C17.51 54.17 20.63 50.14 20.63 45.41 C20.73 39.78 16.1
							 35.15 10.37 35.15 ZM10.37 40.58 C13.08 40.58 15.3 42.8 15.3 45.51 C15.3 48.23 13.08 50.45 10.37 50.45
							 C7.65 50.45 5.43 48.23 5.43 45.51 C5.43 42.8 7.65 40.58 10.37 40.58 Z" class="st2"/>
			</g>
		</g>
	</g>
</svg>
