<?xml version="1.0" encoding="UTF-8" standalone="no"?>
<!DOCTYPE svg PUBLIC "-//W3C//DTD SVG 1.1//EN" "http://www.w3.org/Graphics/SVG/1.1/DTD/svg11.dtd">
<!-- Generated by Microsoft Visio, SVG Export Key-#1.svg Page-1 -->
<svg xmlns="http://www.w3.org/2000/svg" xmlns:xlink="http://www.w3.org/1999/xlink" xmlns:ev="http://www.w3.org/2001/xml-events"
		xmlns:v="http://schemas.microsoft.com/visio/2003/SVGExtensions/" width="0.628701in" height="0.625506in"
		viewBox="0 0 45.2665 45.0364" xml:space="preserve" color-interpolation-filters="sRGB" class="st4">
	<v:documentProperties v:langID="1033" v:metric="true" v:viewMarkup="false"/>

	<style type="text/css">
	<![CDATA[
		.st1 {fill:#aae9fb;stroke:none;stroke-linecap:butt;stroke-width:0.75}
		.st2 {fill:none;stroke:#556a8a;stroke-linecap:butt;stroke-width:1.5}
		.st3 {fill:#ffffff;stroke:#556a8a;stroke-linecap:butt;stroke-width:1.5}
		.st4 {fill:none;fill-rule:evenodd;font-size:12px;overflow:visible;stroke-linecap:square;stroke-miterlimit:3}
	]]>
	</style>

	<g v:mID="0" v:index="1" v:groupContext="foregroundPage">
		<title>Page-1</title>
		<v:pageProperties v:drawingScale="0.0393701" v:pageScale="0.0393701" v:drawingUnits="24" v:shadowOffsetX="9"
				v:shadowOffsetY="-9"/>
		<g id="group1099-1" transform="translate(4.46969,-1.5)" v:mID="1099" v:groupContext="group">
			<title>Key #1</title>
			<g id="shape1100-2" v:mID="1100" v:groupContext="shape">
				<title>path7936</title>
				<path d="M24.88 22.39 A14.3775 14.3775 -180 1 0 19.74 29.09 L19.74 33.79 L24.3 33.79 L24.3 39.04 L30.3 39.04 L30.3
							 45.04 L39.3 45.04 L39.3 36.29 L24.88 22.39 Z" class="st1"/>
			</g>
			<g id="shape1101-4" v:mID="1101" v:groupContext="shape">
				<title>path7938</title>
				<path d="M24.88 22.39 A14.3775 14.3775 -180 1 0 19.74 29.09 L19.74 33.79 L24.3 33.79 L24.3 39.04 L30.3 39.04 L30.3
							 45.04 L39.3 45.04 L39.3 36.29 L24.88 22.39 Z" class="st2"/>
			</g>
			<g id="shape1102-6" v:mID="1102" v:groupContext="shape" transform="translate(4.61679,-29.895)">
				<title>circle7940</title>
				<ellipse cx="3.0375" cy="41.9989" rx="3.0375" ry="3.0375" class="st3"/>
			</g>
		</g>
	</g>
</svg>
