<?xml version="1.0" encoding="UTF-8" standalone="no"?>
<!DOCTYPE svg PUBLIC "-//W3C//DTD SVG 1.1//EN" "http://www.w3.org/Graphics/SVG/1.1/DTD/svg11.dtd">
<!-- Generated by Microsoft Visio, SVG Export Key.svg Page-1 -->
<svg xmlns="http://www.w3.org/2000/svg" xmlns:xlink="http://www.w3.org/1999/xlink" xmlns:ev="http://www.w3.org/2001/xml-events"
		xmlns:v="http://schemas.microsoft.com/visio/2003/SVGExtensions/" width="0.628746in" height="0.625454in"
		viewBox="0 0 45.2697 45.0327" xml:space="preserve" color-interpolation-filters="sRGB" class="st4">
	<v:documentProperties v:langID="1033" v:metric="true" v:viewMarkup="false"/>

	<style type="text/css">
	<![CDATA[
		.st1 {fill:#f1f2f2;stroke:none;stroke-linecap:butt;stroke-width:0.75}
		.st2 {fill:none;stroke:#556a8a;stroke-linecap:butt;stroke-width:1.5}
		.st3 {fill:#80def9;stroke:#556a8a;stroke-linecap:butt;stroke-width:1.5}
		.st4 {fill:none;fill-rule:evenodd;font-size:12px;overflow:visible;stroke-linecap:square;stroke-miterlimit:3}
	]]>
	</style>

	<g v:mID="0" v:index="1" v:groupContext="foregroundPage">
		<title>Page-1</title>
		<v:pageProperties v:drawingScale="0.0393701" v:pageScale="0.0393701" v:drawingUnits="24" v:shadowOffsetX="9"
				v:shadowOffsetY="-9"/>
		<g id="group1095-1" transform="translate(4.47171,-1.5)" v:mID="1095" v:groupContext="group">
			<title>Key</title>
			<g id="shape1096-2" v:mID="1096" v:groupContext="shape">
				<title>path8027</title>
				<path d="M24.88 22.4 A14.3759 14.3759 -180 1 0 19.74 29.09 L19.74 33.78 L24.29 33.78 L24.29 39.03 L30.3 39.03 L30.3
							 45.03 L39.3 45.03 L39.3 36.29 L24.88 22.4 Z" class="st1"/>
			</g>
			<g id="shape1097-4" v:mID="1097" v:groupContext="shape">
				<title>path8029</title>
				<path d="M24.88 22.4 A14.3759 14.3759 -180 1 0 19.74 29.09 L19.74 33.78 L24.29 33.78 L24.29 39.03 L30.3 39.03 L30.3
							 45.03 L39.3 45.03 L39.3 36.29 L24.88 22.4 Z" class="st2"/>
			</g>
			<g id="shape1098-6" v:mID="1098" v:groupContext="shape" transform="translate(4.6103,-29.8958)">
				<title>circle8031</title>
				<ellipse cx="3.03834" cy="41.9943" rx="3.03834" ry="3.03834" class="st3"/>
			</g>
		</g>
	</g>
</svg>
