<svg viewBox="0 0 40 40" class="fxs-portal-svg" role="presentation" focusable="false" xmlns:svg="http://www.w3.org/2000/svg" xmlns:xlink="http://www.w3.org/1999/xlink" id="FxSymbol0-173" data-type="1"><g><title></title><path d="M26.875 7.789c0 4.31-3.479 7.789-7.789 7.789s-7.789-3.479-7.789-7.789C11.373 3.479 14.851 0 19.086 0a7.778 7.778 0 0 1 7.789 7.789M24.757 18l-5.671 7.94L13.414 18H5v20h28V18z" class="msportalfx-svg-c15" fill="#59b4d9"></path><path opacity=".2" d="M11.373 7.789c0 4.235 3.403 7.638 7.562 7.789L20.901.303C20.296.076 19.691 0 19.086 0c-4.235 0-7.713 3.479-7.713 7.789M13.414 18H5v20h11.137l1.739-13.668z" class="msportalfx-svg-c01" fill="#ffffff"></path><circle cx="26.274" cy="26.731" r="4.825" class="msportalfx-svg-c09" fill="#dd5900"></circle><circle opacity=".7" cx="26.274" cy="26.731" r="3.619" class="msportalfx-svg-c11" fill="#fcd116"></circle><path d="M26.274 30.349a5.4 5.4 0 0 1-3.645-1.418l-.573 11.004 4.157-4.157L30.435 40l.061-.603-.577-10.466a5.4 5.4 0 0 1-3.645 1.418z" class="msportalfx-svg-c09" fill="#dd5900"></path></g><defs>
<linearGradient id="a" x1="-1267.23" y1="3.07" x2="-1267.52" y2="14.64" gradientTransform="matrix(-1 0 0 1 -1256.13 0)" gradientUnits="userSpaceOnUse"><stop offset="0" stop-color="#32d4f5"></stop><stop offset=".23" stop-color="#31d0f1"></stop><stop offset=".46" stop-color="#2cc3e6"></stop><stop offset=".7" stop-color="#25afd4"></stop><stop offset=".94" stop-color="#1c92ba"></stop><stop offset="1" stop-color="#198ab3"></stop></linearGradient>
<linearGradient id="b" x1="6.4" y1="1.32" x2="7.21" y2="11.39"><stop offset=".22" stop-color="#32d4f5"></stop><stop offset=".47" stop-color="#31d1f3"></stop><stop offset=".63" stop-color="#2ec9eb"></stop><stop offset=".77" stop-color="#29bade"></stop><stop offset=".89" stop-color="#22a5cb"></stop><stop offset="1" stop-color="#198ab3"></stop><stop offset="1" stop-color="#198ab3"></stop></linearGradient>
<linearGradient id="c" x1="13.76" y1="18.05" x2="13.76" y2="10.25" gradientUnits="userSpaceOnUse"><stop offset="0" stop-color="#76bc2d"></stop><stop offset=".6" stop-color="#81ce31"></stop><stop offset=".82" stop-color="#86d633"></stop></linearGradient>
</defs>
</svg>