<svg viewBox="0 0 16 16" class="" role="presentation" focusable="false" xmlns:svg="http://www.w3.org/2000/svg" xmlns:xlink="http://www.w3.org/1999/xlink" id="FxSymbol0-129" data-type="1"><g><title></title><path d="M11 0H5C3.9 0 3 .9 3 2v14h10V2c0-1.1-.9-2-2-2z" class="msportalfx-svg-c17" fill="#804998"></path><path d="M10.5 4h-5c-.28 0-.5-.22-.5-.5s.22-.5.5-.5h5c.28 0 .5.22.5.5s-.22.5-.5.5zm0 4h-5c-.28 0-.5-.22-.5-.5s.22-.5.5-.5h5c.28 0 .5.22.5.5s-.22.5-.5.5z" class="msportalfx-svg-c02" fill="#e5e5e5"></path><circle cx="8" cy="13" r="1" class="msportalfx-svg-c13" fill="#b8d432"></circle></g><defs>
</defs>
</svg>