<svg viewBox="0 0 50 50" class="" role="presentation" focusable="false" xmlns:svg="http://www.w3.org/2000/svg" xmlns:xlink="http://www.w3.org/1999/xlink" id="FxSymbol0-12e" data-type="1"><g><title></title><path d="M29.194 32.171c.044 0 .087-.01.125-.031l8.081-4.476a.23.23 0 0 0 .125-.204v-8.982a.237.237 0 0 0-.125-.206.263.263 0 0 0-.247 0l-8.08 4.476a.236.236 0 0 0-.12.205v8.983c0 .086.046.161.12.204.04.021.08.031.121.031m0 11.829c.044 0 .087-.01.125-.031l8.081-4.476a.23.23 0 0 0 .125-.204v-8.982a.237.237 0 0 0-.125-.206.263.263 0 0 0-.247 0l-8.08 4.476a.236.236 0 0 0-.12.205v8.983c0 .086.046.161.12.204.04.021.08.031.121.031M39.67 26.256c.044 0 .087-.01.125-.031l8.081-4.476a.229.229 0 0 0 .124-.204v-8.982a.237.237 0 0 0-.125-.206.263.263 0 0 0-.247 0l-8.08 4.476a.236.236 0 0 0-.12.205v8.983c0 .086.046.161.12.204a.251.251 0 0 0 .122.031m0 11.829c.044 0 .087-.01.125-.031l8.081-4.476a.228.228 0 0 0 .124-.204v-8.982a.237.237 0 0 0-.125-.206.263.263 0 0 0-.247 0l-8.08 4.476a.236.236 0 0 0-.12.205v8.983c0 .086.046.161.12.204a.251.251 0 0 0 .122.031" class="msportalfx-svg-c16" fill="#3999c6"></path><path opacity=".15" fill="#62117A" d="M29.194 44c.044 0 .087-.01.125-.031l8.081-4.476a.23.23 0 0 0 .125-.204v-8.982a.237.237 0 0 0-.125-.206.263.263 0 0 0-.247 0l-8.08 4.476a.236.236 0 0 0-.12.205v8.983c0 .086.046.161.12.204.04.021.08.031.121.031m10.476-5.915c.044 0 .087-.01.125-.031l8.081-4.476a.228.228 0 0 0 .124-.204v-8.982a.237.237 0 0 0-.125-.206.263.263 0 0 0-.247 0l-8.08 4.476a.236.236 0 0 0-.12.205v8.983c0 .086.046.161.12.204a.251.251 0 0 0 .122.031m-10.476-5.914c.044 0 .087-.01.125-.031l8.081-4.476a.23.23 0 0 0 .125-.204v-8.982a.237.237 0 0 0-.125-.206.263.263 0 0 0-.247 0l-8.08 4.476a.236.236 0 0 0-.12.205v8.983c0 .086.046.161.12.204.04.021.08.031.121.031m10.476-5.915c.044 0 .087-.01.125-.031l8.081-4.476a.229.229 0 0 0 .124-.204v-8.982a.237.237 0 0 0-.125-.206.263.263 0 0 0-.247 0l-8.08 4.476a.236.236 0 0 0-.12.205v8.983c0 .086.046.161.12.204a.251.251 0 0 0 .122.031"></path><path d="M26.806 32.171a.257.257 0 0 1-.125-.031L18.6 27.664a.23.23 0 0 1-.125-.204v-8.982c0-.084.046-.161.125-.206a.263.263 0 0 1 .247 0l8.08 4.476c.075.043.12.121.12.205v8.983a.234.234 0 0 1-.12.204.256.256 0 0 1-.121.031m0 11.829a.257.257 0 0 1-.125-.031L18.6 39.493a.23.23 0 0 1-.125-.204v-8.982c0-.084.046-.161.125-.206a.263.263 0 0 1 .247 0l8.08 4.476c.075.043.12.121.12.205v8.983a.234.234 0 0 1-.12.204.256.256 0 0 1-.121.031M16.33 26.256a.257.257 0 0 1-.125-.031l-8.081-4.476A.229.229 0 0 1 8 21.545v-8.982c0-.084.046-.161.125-.206a.263.263 0 0 1 .247 0l8.08 4.476c.075.043.12.121.12.205v8.983a.234.234 0 0 1-.12.204.251.251 0 0 1-.122.031m0 11.829a.257.257 0 0 1-.125-.031l-8.081-4.476A.228.228 0 0 1 8 33.374v-8.982c0-.084.046-.161.125-.206a.263.263 0 0 1 .247 0l8.08 4.476c.075.043.12.121.12.205v8.983a.234.234 0 0 1-.12.204.251.251 0 0 1-.122.031m3.51-22.3a.237.237 0 0 1 .09-.085l8.031-4.364a.25.25 0 0 1 .243-.002l7.95 4.327a.226.226 0 0 1 .119.2.24.24 0 0 1-.124.199l-8.03 4.363a.256.256 0 0 1-.242-.002l-7.951-4.328a.222.222 0 0 1-.12-.195.234.234 0 0 1 .034-.113M9.37 10.086a.234.234 0 0 1 .089-.085l7.942-4.364a.246.246 0 0 1 .241-.002l7.862 4.327a.225.225 0 0 1 .118.2.238.238 0 0 1-.123.199l-7.942 4.363a.25.25 0 0 1-.239-.002l-7.863-4.328a.225.225 0 0 1-.119-.195.224.224 0 0 1 .034-.113m21.161.096a.234.234 0 0 1 .089-.085l7.942-4.364a.246.246 0 0 1 .241-.002l7.862 4.327a.225.225 0 0 1 .118.2.238.238 0 0 1-.123.199l-7.942 4.363a.25.25 0 0 1-.239-.002l-7.863-4.328a.225.225 0 0 1-.119-.195.228.228 0 0 1 .034-.113M19.88 4.558a.242.242 0 0 1 .09-.084L28.001.181a.253.253 0 0 1 .243-.002l7.95 4.257a.22.22 0 0 1 .119.196.236.236 0 0 1-.124.196l-8.03 4.292a.262.262 0 0 1-.242-.002l-7.951-4.257a.218.218 0 0 1-.12-.192.23.23 0 0 1 .034-.111" class="msportalfx-svg-c15" fill="#59b4d9"></path><path opacity=".2" d="M19.84 15.785a.237.237 0 0 1 .09-.085l8.031-4.364a.25.25 0 0 1 .243-.002l7.95 4.327a.226.226 0 0 1 .119.2.24.24 0 0 1-.124.199l-8.03 4.363a.256.256 0 0 1-.242-.002l-7.951-4.328a.222.222 0 0 1-.12-.195.234.234 0 0 1 .034-.113M9.37 10.086a.234.234 0 0 1 .089-.085l7.942-4.364a.246.246 0 0 1 .241-.002l7.862 4.327a.225.225 0 0 1 .118.2.238.238 0 0 1-.123.199l-7.942 4.363a.25.25 0 0 1-.239-.002l-7.863-4.328a.225.225 0 0 1-.119-.195.224.224 0 0 1 .034-.113m21.161.096a.234.234 0 0 1 .089-.085l7.942-4.364a.246.246 0 0 1 .241-.002l7.862 4.327a.225.225 0 0 1 .118.2.238.238 0 0 1-.123.199l-7.942 4.363a.25.25 0 0 1-.239-.002l-7.863-4.328a.225.225 0 0 1-.119-.195.228.228 0 0 1 .034-.113M19.88 4.558a.242.242 0 0 1 .09-.084L28.001.181a.253.253 0 0 1 .243-.002l7.95 4.257a.22.22 0 0 1 .119.196.236.236 0 0 1-.124.196l-8.03 4.292a.262.262 0 0 1-.242-.002l-7.951-4.257a.218.218 0 0 1-.12-.192.23.23 0 0 1 .034-.111M8.125 33.578l8.081 4.476a.256.256 0 0 0 .246 0 .234.234 0 0 0 .12-.204v-6.766A7.336 7.336 0 0 0 15.5 31c-2.196 0-3.833.355-5.152.642-.924.2-1.654.358-2.348.358v1.374c0 .086.046.163.125.204zM26.806 44c.041 0 .081-.01.121-.031a.234.234 0 0 0 .12-.204v-7.223c-.762.016-1.558.031-2.254.031-.932 0-1.328-.026-1.489-.044-.233-.168-.686-.802-.994-1.234-.793-1.11-1.956-2.736-3.834-3.635v7.63c0 .086.046.162.125.204l8.081 4.476c.037.02.08.03.124.03zm10.718-4.711v-.963c-.965.417-2.026.871-3.053 1.306-.367-2.963-3.394-3.088-4.402-3.13a10.01 10.01 0 0 0-.436-.008c-.189 0-.422.003-.68.007v7.263c0 .086.046.161.12.204a.257.257 0 0 0 .246.001l8.081-4.476a.229.229 0 0 0 .124-.204zm3.031-2.311c-.263.126-.655.305-1.126.515v.358c0 .086.046.161.12.204a.257.257 0 0 0 .246 0l3.302-1.829a8.033 8.033 0 0 0-2.542.752z" class="msportalfx-svg-c01" fill="#ffffff"></path><path d="M19.811 49.5c-2.676 0-6.009-2.854-7.317-4.08a41.176 41.176 0 0 0-.857-.789C9.586 42.836 7.478 42 5 42c-2.272 0-3.499-.009-3.5-.009V33.5H8c.858 0 1.698-.183 2.67-.394 1.245-.27 2.795-.606 4.83-.606 2.975 0 4.426 2.035 5.592 3.67.659.924 1.229 1.722 1.909 1.83.306.049.87.072 1.774.072.908 0 1.994-.024 2.909-.044a101.43 101.43 0 0 1 1.958-.034c.146 0 .266.002.357.006 2.069.087 2.91.647 3 2 .023.36-.016.71-.117 1.04l-.313 1.023.985-.416c2.297-.97 6.345-2.689 7.651-3.319 1.225-.591 2.52-.916 3.649-.916 1.193 0 2.073.367 2.414 1.008.01.019.942 1.851-2.093 3.628a784.929 784.929 0 0 1-5.263 3.043c-2.637 1.515-4.719 2.711-5.671 3.341-.887.589-2.109.664-3.076.664-.523 0-1.058-.025-1.588-.05a33.155 33.155 0 0 0-1.58-.052c-1.288 0-3.22.146-5.266.301-.911.069-1.841.14-2.734.199a2.797 2.797 0 0 1-.186.006z" class="msportalfx-svg-c17" fill="#804998"></path><path opacity=".2" d="M33.75 42.108c2.818-1.19 6.437-2.733 7.674-3.33 1.158-.559 2.377-.866 3.433-.866.988 0 1.726.277 1.973.742.022.049.66 1.461-1.904 2.962a760.073 760.073 0 0 1-5.259 3.041c-2.643 1.518-4.729 2.717-5.697 3.357-.776.515-1.904.581-2.801.581-.5 0-1.009-.023-1.516-.047a34.347 34.347 0 0 0-1.652-.055c-1.296 0-3.218.145-5.253.299-.96.072-1.889.143-2.78.202l-.157.006c-2.567 0-5.988-3.02-6.976-3.945-.38-.355-.649-.606-.869-.8C9.819 42.375 7.605 41.5 5 41.5c-1.429 0-2.443-.004-3-.006V34h6c.91 0 1.772-.188 2.771-.404C12.007 33.328 13.524 33 15.5 33c2.717 0 4.027 1.838 5.185 3.46.725 1.016 1.351 1.893 2.237 2.034.34.054.912.078 1.854.078.86 0 1.88-.021 2.764-.041l.311-.007a92.61 92.61 0 0 1 1.793-.03c.137 0 .25.002.336.006 2.245.094 2.471.75 2.522 1.533.02.3-.013.589-.096.859l-.665 1.808s1.318-.299 2.009-.592" class="msportalfx-svg-c01" fill="#ffffff"></path><path d="M19.811 50c-2.622 0-5.762-2.436-7.659-4.215-.329-.308-.615-.576-.846-.778C9.354 43.297 7.35 42.5 5 42.5c-2.275 0-3.504-.009-3.504-.009a.5.5 0 0 1-.496-.5V33.5a.5.5 0 0 1 .5-.5H8c.803 0 1.619-.177 2.563-.382C11.832 32.343 13.411 32 15.5 32c3.231 0 4.831 2.242 5.999 3.88.569.798 1.107 1.551 1.58 1.626.686.11 2.987.058 4.666.021 1.014-.022 1.89-.042 2.275-.026 1.644.069 3.343.416 3.479 2.467.03.464-.031.872-.138 1.22 2.198-.928 6.323-2.68 7.629-3.309 2.846-1.374 5.871-1.291 6.721.307.274.514.734 2.529-2.281 4.295a785.507 785.507 0 0 1-5.267 3.045c-2.63 1.511-4.707 2.704-5.645 3.324-1.313.871-3.183.779-4.991.695-.521-.025-1.036-.05-1.528-.05-1.266 0-3.19.146-5.228.3-.913.069-1.844.14-2.739.199a4.048 4.048 0 0 1-.221.006zM2 41.494c.557.002 1.571.006 3 .006 2.571 0 4.849.901 6.964 2.755.238.208.532.484.871.801 1.713 1.605 4.924 4.118 7.132 3.939.893-.059 1.82-.129 2.73-.198 2.057-.155 3.999-.303 5.303-.303.508 0 1.039.025 1.576.051 1.646.079 3.351.159 4.391-.53.965-.638 3.054-1.838 5.699-3.357 1.618-.93 3.425-1.968 5.259-3.041 1.516-.888 2.353-2.12 1.905-2.962-.537-1.006-2.898-1.084-5.406.124-1.823.88-8.79 3.8-9.086 3.924a.5.5 0 1 1-.515-.844c.028-.024.755-.669.678-1.825-.06-.907-.492-1.449-2.521-1.533-.354-.017-1.216.004-2.213.026-1.908.044-4.069.091-4.846-.032-.886-.142-1.511-1.019-2.235-2.034C19.585 34.919 18.217 33 15.5 33c-1.981 0-3.438.316-4.725.596C9.774 33.813 8.91 34 8 34H2v7.494z" class="msportalfx-svg-c20" fill="#68217a"></path><path d="M24.644 43.517c-1.974 0-3.384-.236-4.177-.932l-3.077-2.696.658-.752 3.078 2.696c1.051.92 5.578.575 7.284.463 2.714-.179 2.996-.314 4.641-.979a.5.5 0 0 1 .375.927c-1.739.702-2.145.864-4.949 1.049-1.053.07-2.985.224-3.833.224z" class="msportalfx-svg-c20" fill="#68217a"></path></g><defs>
</defs>
</svg>