<?xml version="1.0" encoding="UTF-8" standalone="no"?>
<!DOCTYPE svg PUBLIC "-//W3C//DTD SVG 1.1//EN" "http://www.w3.org/Graphics/SVG/1.1/DTD/svg11.dtd">
<!-- Generated by Microsoft Visio, SVG Export Management-groups.svg Page-1 -->
<svg xmlns="http://www.w3.org/2000/svg" xmlns:xlink="http://www.w3.org/1999/xlink" xmlns:ev="http://www.w3.org/2001/xml-events"
		xmlns:v="http://schemas.microsoft.com/visio/2003/SVGExtensions/" width="1.21361in" height="1.04588in"
		viewBox="0 0 87.38 75.3032" xml:space="preserve" color-interpolation-filters="sRGB" class="st6">
	<title>MIS: Security and Governance</title>
	<desc>This package contains stencils that will represent Security and Governance</desc>
	<v:documentProperties v:langID="1033" v:metric="true" v:viewMarkup="false"/>

	<style type="text/css">
	<![CDATA[
		.st1 {fill:#7fba00;stroke:none;stroke-width:12.24}
		.st2 {fill:#3999c6;stroke:none;stroke-width:12.24}
		.st3 {fill:#804998;stroke:none;stroke-width:12.24}
		.st4 {fill:#0072c6;stroke:none;stroke-width:12.24}
		.st5 {fill:#7a7a7a;stroke:none;stroke-width:12.24}
		.st6 {fill:none;fill-rule:evenodd;font-size:12px;overflow:visible;stroke-linecap:square;stroke-miterlimit:3}
	]]>
	</style>

	<g v:mID="0" v:index="1" v:groupContext="foregroundPage">
		<title>Page-1</title>
		<v:pageProperties v:drawingScale="1" v:pageScale="1" v:drawingUnits="0" v:shadowOffsetX="9" v:shadowOffsetY="-9"/>
		<g id="group5-1" transform="translate(12.24,-12.24)" v:mID="5" v:groupContext="group">
			<title>Sheet.5</title>
			<g id="group6-2" v:mID="6" v:groupContext="group">
				<title> ManagementGroups</title>
				<g id="shape7-3" v:mID="7" v:groupContext="shape" transform="translate(11.4189,-11.3409)">
					<title>Sheet.7</title>
					<path d="M32.61 56.45 L32.25 57.32 L21 43.82 L20.03 44.63 L19.07 43.82 L7.81 57.32 L7.45 56.45 L0 74.33 L2.32
								 75.3 L7.45 62.99 L12.58 75.3 L14.9 74.33 L8.91 59.94 L20.03 46.59 L31.16 59.94 L25.16 74.33 L27.48
								 75.3 L32.61 62.99 L37.74 75.3 L40.06 74.33 L32.61 56.45 Z" class="st1"/>
				</g>
				<g id="shape8-5" v:mID="8" v:groupContext="shape" transform="translate(46.546,-8.0512)">
					<title>Sheet.8</title>
					<ellipse cx="3.774" cy="71.5292" rx="3.774" ry="3.774" class="st2"/>
				</g>
				<g id="shape9-7" v:mID="9" v:groupContext="shape" transform="translate(33.966,-8.0512)">
					<title>Sheet.9</title>
					<ellipse cx="3.774" cy="71.5292" rx="3.774" ry="3.774" class="st2"/>
				</g>
				<g id="shape10-9" v:mID="10" v:groupContext="shape" transform="translate(25.16,-35.7272)">
					<title>Sheet.10</title>
					<ellipse cx="6.29" cy="69.0132" rx="6.29" ry="6.29" class="st3"/>
				</g>
				<g id="shape11-11" v:mID="11" v:groupContext="shape" transform="translate(13.838,-21.8892)">
					<title>Sheet.11</title>
					<ellipse cx="5.032" cy="70.2712" rx="5.032" ry="5.032" class="st4"/>
				</g>
				<g id="shape12-13" v:mID="12" v:groupContext="shape" transform="translate(38.998,-21.8892)">
					<title>Sheet.12</title>
					<ellipse cx="5.032" cy="70.2712" rx="5.032" ry="5.032" class="st4"/>
				</g>
				<g id="shape13-15" v:mID="13" v:groupContext="shape" transform="translate(21.386,-8.0512)">
					<title>Sheet.13</title>
					<ellipse cx="3.774" cy="71.5292" rx="3.774" ry="3.774" class="st2"/>
				</g>
				<g id="shape14-17" v:mID="14" v:groupContext="shape" transform="translate(8.806,-8.0512)">
					<title>Sheet.14</title>
					<ellipse cx="3.774" cy="71.5292" rx="3.774" ry="3.774" class="st2"/>
				</g>
				<g id="shape15-19" v:mID="15" v:groupContext="shape">
					<title>Sheet.15</title>
					<path d="M11.95 75.3 A2.33233 2.33233 0 0 1 11.07 75.05 L2.52 70.02 A5.18925 5.18925 0 0 1 0 65.74 L0 34.04 A5.02445
								 5.02445 0 0 1 2.52 29.76 L11.07 24.73 A1.83417 1.83417 0 0 1 12.96 27.88 L4.4 32.91 A1.69327 1.69327
								 -180 0 0 3.77 34.04 L3.77 65.74 A1.69327 1.69327 -180 0 0 4.4 66.87 L12.96 71.91 A1.83165 1.83165
								 0 0 1 13.59 74.42 A2.14992 2.14992 0 0 1 11.95 75.3 ZM50.95 24.48 A2.33233 2.33233 0 0 1 51.83 24.73
								 L60.38 29.76 A5.18925 5.18925 0 0 1 62.9 34.04 L62.9 65.74 A5.02445 5.02445 0 0 1 60.38 70.02 L51.83
								 75.05 A1.83417 1.83417 0 0 1 49.94 71.91 L58.5 66.87 A1.69327 1.69327 -180 0 0 59.13 65.74 L59.13
								 34.04 A1.69327 1.69327 -180 0 0 58.5 32.91 L49.94 27.88 A1.83165 1.83165 0 0 1 49.31 25.36 A2.37636
								 2.37636 0 0 1 50.95 24.48 Z" class="st5"/>
				</g>
			</g>
		</g>
	</g>
</svg>
