<svg viewBox="0 0 76.031 100" class="" role="presentation" focusable="false" xmlns="http://www.w3.org/2000/svg" xmlns:xlink="http://www.w3.org/1999/xlink" id="FxSymbol0-113" data-type="1"><g><title></title><title>MSI_2</title><path d="M28.284 81.85a5.07 5.07 0 0 1 0-7.172l11.128-11.127V53.6l16.433-16.434a10.83 10.83 0 0 0 0-15.314L37.166 3.172a10.831 10.831 0 0 0-15.316 0L3.172 21.852a10.828 10.828 0 0 0 0 15.314L20.908 54.9v1.5l-5.049 5.05 5.005 5.005-5.005 5 5.005 5.005-5.005 5 5.049 5.05v.063l8.6 8.6 6.051-6.051Zm-4.923-68.016a6.147 6.147 0 1 1 6.147 6.147 6.148 6.148 0 0 1-6.147-6.147Z" class="msportalfx-svg-c11" fill="#fcd116"></path><path opacity=".5" d="M12.364 25.92h35.482v5.1H12.364zm0 8.297h35.482v5.1H12.364z" class="msportalfx-svg-c01" fill="#ffffff"></path><path d="M54.3 100a3.978 3.978 0 0 1-2.835-1.175L33.735 81.1a4.008 4.008 0 0 1 0-5.67L51.461 57.7a4.005 4.005 0 0 1 5.67 0l17.724 17.729a4.006 4.006 0 0 1 0 5.672L57.131 98.825A3.978 3.978 0 0 1 54.3 100" class="msportalfx-svg-c15" fill="#59b4d9"></path><path d="M66.132 74.867a3.393 3.393 0 0 0-2.839 5.262l-6.733 6.732a3.991 3.991 0 0 0-.57-.324V69.36a3.4 3.4 0 1 0-3.388 0v17.176a3.929 3.929 0 0 0-.55.307l-6.74-6.74a3.493 3.493 0 1 0-1.744 1.361l7.085 7.086a3.957 3.957 0 1 0 7.292.028l7.106-7.105a3.356 3.356 0 0 0 1.079.191 3.4 3.4 0 0 0 0-6.8Z" class="msportalfx-svg-c01" fill="#ffffff"></path><path opacity=".5" d="m53.484 67.092 1.55-1.552 12.714 12.71-1.552 1.551z" class="msportalfx-svg-c01" fill="#ffffff"></path><path opacity=".5" d="M40.859 78.262 53.57 65.55l1.552 1.551L42.41 79.813z" class="msportalfx-svg-c01" fill="#ffffff"></path><path d="M56.612 90.1a2.356 2.356 0 1 1-2.356-2.355 2.355 2.355 0 0 1 2.356 2.355m-.427-23.67a1.89 1.89 0 1 1-1.89-1.89 1.889 1.889 0 0 1 1.89 1.89M44.352 78.265a1.89 1.89 0 1 1-1.89-1.89 1.891 1.891 0 0 1 1.89 1.89m23.67 0a1.891 1.891 0 1 1-1.891-1.89 1.891 1.891 0 0 1 1.891 1.89" class="msportalfx-svg-c13" fill="#b8d432"></path><path d="M57.131 57.7a4 4 0 0 0-5.669 0L33.735 75.429a4.008 4.008 0 0 0 0 5.67l10.036 10.036L62.65 63.222Z" opacity=".1" class="msportalfx-svg-c01" fill="#ffffff"></path><path opacity=".4" d="M34.788 68.137v-12.92l-3.864 1.903v14.881l3.864-3.864z" class="msportalfx-svg-c10" fill="#ff8c00"></path></g><defs>
</defs>
</svg>