<svg viewBox="0 0 50 50" role="presentation" focusable="false" xmlns:svg="http://www.w3.org/2000/svg" xmlns:xlink="http://www.w3.org/1999/xlink" aria-hidden="true"><g><path d="M49.5 41.419L46 34V9.51a2.41 2.41 0 0 0-2.41-2.41l-37.18.026A2.41 2.41 0 0 0 4 9.536V34L.5 41.419A1 1 0 0 0 1.314 43h47.372a1 1 0 0 0 .814-1.581z" class="msportalfx-svg-c05" fill="#3e3e3e"></path><path opacity=".6" d="M29.596 40h-9.191c-.3 0-.495-.261-.361-.482l.808-1.333a.414.414 0 0 1 .36-.185h7.576c.153 0 .293.071.361.184l.808 1.333c.134.222-.061.483-.361.483z" class="msportalfx-svg-c01" fill="#ffffff"></path><path d="M7 10h36v24H7z" class="msportalfx-svg-c15" fill="#59b4d9"></path><path opacity=".8" d="M7 10h36v24H7z" class="msportalfx-svg-c01" fill="#ffffff"></path><path d="M15.339 21.928l-.632-.729a.505.505 0 0 1 .026-.682l1.824-1.798a.425.425 0 0 1 .631.028l5.017 5.734 8.632-11.784a.435.435 0 0 1 .354-.184c.105 0 .199.037.277.103l1.973 1.623a.464.464 0 0 1 .172.314.49.49 0 0 1-.096.35L22.431 30.032l-7.092-8.104z" class="msportalfx-svg-c14" fill="#57a300"></path><path opacity=".15" d="M15.339 21.928l-.632-.729a.505.505 0 0 1 .026-.682l1.824-1.798a.425.425 0 0 1 .631.028l5.017 5.734 8.632-11.784a.435.435 0 0 1 .354-.184c.105 0 .199.037.277.103l1.973 1.623a.464.464 0 0 1 .172.314.49.49 0 0 1-.096.35L22.431 30.032l-7.092-8.104z"></path></g></svg>