<?xml version="1.0" encoding="UTF-8" standalone="no"?>
<!DOCTYPE svg PUBLIC "-//W3C//DTD SVG 1.1//EN" "http://www.w3.org/Graphics/SVG/1.1/DTD/svg11.dtd">
<!-- Generated by Microsoft Visio, SVG Export Managed-Identities.svg Page-1 -->
<svg xmlns="http://www.w3.org/2000/svg" xmlns:xlink="http://www.w3.org/1999/xlink" xmlns:ev="http://www.w3.org/2001/xml-events"
		xmlns:v="http://schemas.microsoft.com/visio/2003/SVGExtensions/" width="0.669021in" height="0.81057in"
		viewBox="0 0 48.1695 58.361" xml:space="preserve" color-interpolation-filters="sRGB" class="st8">
	<title>MIS: Enterprise Mobility and Security</title>
	<desc>This package contains stencils that will represent Enterprise Mobility and Security</desc>
	<v:documentProperties v:langID="1033" v:metric="true" v:viewMarkup="false"/>

	<style type="text/css">
	<![CDATA[
		.st1 {fill:#fcd116;stroke:none;stroke-width:7.92}
		.st2 {fill:#ffffff;fill-opacity:0.5;stroke:none;stroke-width:7.92}
		.st3 {fill:#59b4d9;stroke:none;stroke-width:7.92}
		.st4 {fill:#ffffff;stroke:none;stroke-width:7.92}
		.st5 {fill:#b8d432;stroke:none;stroke-width:7.92}
		.st6 {fill:#ffffff;fill-opacity:0.098;stroke:none;stroke-width:7.92}
		.st7 {fill:#ff8c00;fill-opacity:0.4;stroke:none;stroke-width:7.92}
		.st8 {fill:none;fill-rule:evenodd;font-size:12px;overflow:visible;stroke-linecap:square;stroke-miterlimit:3}
	]]>
	</style>

	<g v:mID="0" v:index="1" v:groupContext="foregroundPage">
		<title>Page-1</title>
		<v:pageProperties v:drawingScale="0.0393701" v:pageScale="0.0393701" v:drawingUnits="24" v:shadowOffsetX="9"
				v:shadowOffsetY="-9"/>
		<g id="group5-1" transform="translate(7.92,-7.92001)" v:mID="5" v:groupContext="group">
			<title>Sheet.5</title>
			<g id="group6-2" v:mID="6" v:groupContext="group">
				<title> MSI_2</title>
				<g id="shape7-3" v:mID="7" v:groupContext="shape" transform="translate(1.57874E-13,-2.0525)">
					<title>Sheet.7</title>
					<path d="M12.03 52.7 A2.15582 2.15582 0 0 1 12.03 49.65 L16.76 44.91 L16.76 40.68 L23.75 33.7 A4.60504 4.60504
								 -180 0 0 23.75 27.18 L15.8 19.24 A4.60547 4.60547 -180 0 0 9.29 19.24 L1.35 27.18 A4.60419 4.60419
								 -180 0 0 1.35 33.7 L8.89 41.24 L8.89 41.87 L6.74 44.02 L8.87 46.15 L6.74 48.28 L8.87 50.4 L6.74
								 52.53 L8.89 54.68 L8.89 54.7 L12.55 58.36 L15.12 55.79 L12.03 52.7 ZM9.93 23.77 A2.61378 2.61378
								 0 1 1 12.55 26.39 A2.6142 2.6142 0 0 1 9.93 23.77 Z" class="st1"/>
				</g>
				<g id="shape8-5" v:mID="8" v:groupContext="shape" transform="translate(5.25727,-25.8031)">
					<title>Sheet.8</title>
					<path d="M0 52.66 L15.09 52.66 L15.09 54.83 L0 54.83 L0 52.66 ZM0 56.19 L15.09 56.19 L15.09 58.36 L0 58.36 L0
								 56.19 Z" class="st2"/>
				</g>
				<g id="shape9-7" v:mID="9" v:groupContext="shape" transform="translate(13.8449,7.10543E-15)">
					<title>Sheet.9</title>
					<path d="M9.24 58.36 A1.69149 1.69149 0 0 1 8.04 57.86 L0.5 50.32 A1.70425 1.70425 0 0 1 0.5 47.91 L8.04 40.37
								 A1.70297 1.70297 0 0 1 10.45 40.37 L17.98 47.91 A1.7034 1.7034 0 0 1 17.98 50.32 L10.45 57.86 A1.69149
								 1.69149 0 0 1 9.24 58.36 Z" class="st3"/>
				</g>
				<g id="shape10-9" v:mID="10" v:groupContext="shape" transform="translate(17.1158,-2.52635)">
					<title>Sheet.10</title>
					<path d="M11 50.2 A1.44274 1.44274 -180 0 0 9.8 52.44 L6.93 55.3 A1.69702 1.69702 -180 0 0 6.69 55.16 L6.69 47.86
								 A1.44572 1.44572 -180 1 0 5.25 47.86 L5.25 55.16 A1.67066 1.67066 -180 0 0 5.02 55.29 L2.15 52.43
								 A1.48526 1.48526 -180 1 0 1.41 53.01 L4.42 56.02 A1.68256 1.68256 -180 1 0 7.52 56.03 L10.54 53.01
								 A1.42701 1.42701 -180 0 0 11 53.09 A1.44572 1.44572 -180 0 0 11 50.2 L11 50.2 Z" class="st4"/>
				</g>
				<g id="shape11-11" v:mID="11" v:groupContext="shape" transform="translate(22.742,-8.58885)">
					<title>Sheet.11</title>
					<path d="M0 52.96 L0.66 52.3 L6.07 57.7 L5.41 58.36 L0 52.96 Z" class="st2"/>
				</g>
				<g id="shape12-13" v:mID="12" v:groupContext="shape" transform="translate(17.3737,-8.58375)">
					<title>Sheet.12</title>
					<path d="M0 57.7 L5.4 52.3 L6.06 52.96 L0.66 58.36 L0 57.7 Z" class="st2"/>
				</g>
				<g id="shape13-15" v:mID="13" v:groupContext="shape" transform="translate(17.487,-3.50064)">
					<title>Sheet.13</title>
					<path d="M6.59 57.65 A1.0018 1.0018 0 1 1 5.58 56.65 A1.00137 1.00137 0 0 1 6.59 57.65 ZM6.4 47.59 a0.80365 0.80365
								 0 1 1 -0.80365 -0.80365 a0.803225 0.803225 0 0 1 0.80365 0.80365 ZM1.37 52.62 a0.80365 0.80365 0
								 1 1 -0.80365 -0.80365 a0.804075 0.804075 0 0 1 0.80365 0.80365 ZM11.44 52.62 a0.804075 0.804075
								 0 1 1 -0.804075 -0.80365 a0.804075 0.804075 0 0 1 0.804075 0.80365 Z" class="st5"/>
				</g>
				<g id="shape14-17" v:mID="14" v:groupContext="shape" transform="translate(13.8449,-3.7695)">
					<title>Sheet.14</title>
					<path d="M10.45 44.14 A1.70085 1.70085 -180 0 0 8.04 44.14 L0.5 51.68 A1.70425 1.70425 -180 0 0 0.5 54.09 L4.77
								 58.36 L12.79 46.49 L10.45 44.14 Z" class="st6"/>
				</g>
				<g id="shape15-19" v:mID="15" v:groupContext="shape" transform="translate(13.1492,-11.9055)">
					<title>Sheet.15</title>
					<path d="M1.64 56.72 L1.64 51.22 L0 52.03 L0 58.36 L1.64 56.72 Z" class="st7"/>
				</g>
			</g>
		</g>
	</g>
</svg>
