<svg viewBox="0 0 14.976 20" class="fxs-portal-svg" role="presentation" focusable="false" xmlns:svg="http://www.w3.org/2000/svg" xmlns:xlink="http://www.w3.org/1999/xlink" id="FxSymbol0-176" data-type="1"><g><title></title><title>MFA_Icon</title><g><path d="M7.488 1.9a3.094 3.094 0 0 1 3.093 3.015c.616.083 1.248.193 1.893.336q.006-.127.006-.256a4.992 4.992 0 1 0-9.984 0q0 .121.006.241C3.057 5.115 3.692 5 4.4 4.908A3.094 3.094 0 0 1 7.488 1.9z"></path><path d="M0 6.892v1.873A12.194 12.194 0 0 0 7.488 20a12.194 12.194 0 0 0 7.488-11.235V6.892A22.926 22.926 0 0 0 0 6.892zM9.984 14.4H4.992v-.33a2.5 2.5 0 0 1 1.694-2.365 1.872 1.872 0 1 1 1.6 0 2.5 2.5 0 0 1 1.698 2.365z"></path></g></g><defs>
<linearGradient id="a" x1="-1267.23" y1="3.07" x2="-1267.52" y2="14.64" gradientTransform="matrix(-1 0 0 1 -1256.13 0)" gradientUnits="userSpaceOnUse"><stop offset="0" stop-color="#32d4f5"></stop><stop offset=".23" stop-color="#31d0f1"></stop><stop offset=".46" stop-color="#2cc3e6"></stop><stop offset=".7" stop-color="#25afd4"></stop><stop offset=".94" stop-color="#1c92ba"></stop><stop offset="1" stop-color="#198ab3"></stop></linearGradient>
<linearGradient id="b" x1="6.4" y1="1.32" x2="7.21" y2="11.39"><stop offset=".22" stop-color="#32d4f5"></stop><stop offset=".47" stop-color="#31d1f3"></stop><stop offset=".63" stop-color="#2ec9eb"></stop><stop offset=".77" stop-color="#29bade"></stop><stop offset=".89" stop-color="#22a5cb"></stop><stop offset="1" stop-color="#198ab3"></stop><stop offset="1" stop-color="#198ab3"></stop></linearGradient>
<linearGradient id="c" x1="13.76" y1="18.05" x2="13.76" y2="10.25" gradientUnits="userSpaceOnUse"><stop offset="0" stop-color="#76bc2d"></stop><stop offset=".6" stop-color="#81ce31"></stop><stop offset=".82" stop-color="#86d633"></stop></linearGradient>
</defs>
</svg>