<?xml version="1.0" encoding="UTF-8" standalone="no"?>
<!DOCTYPE svg PUBLIC "-//W3C//DTD SVG 1.1//EN" "http://www.w3.org/Graphics/SVG/1.1/DTD/svg11.dtd">
<!-- Generated by Microsoft Visio, SVG Export Microsoft-Identity-Manager.svg Page-1 -->
<svg xmlns="http://www.w3.org/2000/svg" xmlns:xlink="http://www.w3.org/1999/xlink" xmlns:ev="http://www.w3.org/2001/xml-events"
		xmlns:v="http://schemas.microsoft.com/visio/2003/SVGExtensions/" width="2.10972in" height="0.720628in"
		viewBox="0 0 151.9 51.8852" xml:space="preserve" color-interpolation-filters="sRGB" class="st8">
	<title>MIS: Security and Governance</title>
	<desc>This package contains stencils that will represent Security and Governance</desc>
	<v:documentProperties v:langID="1033" v:metric="true" v:viewMarkup="false"/>

	<style type="text/css">
	<![CDATA[
		.st1 {stroke:#909090;stroke-dasharray:6,3;stroke-linecap:butt;stroke-width:0.75}
		.st2 {fill:#999999;stroke:none;stroke-width:0.75}
		.st3 {fill:#60a860;stroke:none;stroke-width:0.75}
		.st4 {fill:#88be88;stroke:none;stroke-width:0.75}
		.st5 {fill:#231f20;stroke:none;stroke-width:0.75}
		.st6 {fill:#4672c4;stroke:none;stroke-width:0.75}
		.st7 {fill:#ffffff;stroke:none;stroke-width:0.75}
		.st8 {fill:none;fill-rule:evenodd;font-size:12px;overflow:visible;stroke-linecap:square;stroke-miterlimit:3}
	]]>
	</style>

	<g v:mID="0" v:index="1" v:groupContext="foregroundPage">
		<title>Page-1</title>
		<v:pageProperties v:drawingScale="0.0393701" v:pageScale="0.0393701" v:drawingUnits="24" v:shadowOffsetX="9"
				v:shadowOffsetY="-9"/>
		<g id="group5-1" transform="translate(0.75,-0.75)" v:mID="5" v:groupContext="group">
			<title>Sheet.5</title>
			<g id="shape6-2" v:mID="6" v:groupContext="shape" transform="translate(26.9017,-22.9697)">
				<title>line339</title>
				<path d="M0 51.89 L97.81 51.89" class="st1"/>
			</g>
			<g id="shape7-5" v:mID="7" v:groupContext="shape" transform="translate(2.21823E-13,-6.57971)">
				<title>circle341</title>
				<ellipse cx="15.6441" cy="36.2411" rx="15.6441" ry="15.6441" class="st2"/>
			</g>
			<g id="shape8-7" v:mID="8" v:groupContext="shape" transform="translate(45.4454,0)">
				<title>path343</title>
				<path d="M58.78 51.89 L58.78 11.1 A2.68227 2.68227 -180 0 0 56.1 8.42 L28.16 8.42 A2.68227 2.68227 0 0 1 26.18 7.56
							 L21.36 2.36 A2.68227 2.68227 -180 0 0 19.38 1.5 L2.68 1.5 A2.68227 2.68227 -180 0 0 -0 4.18 L0 51.89
							 L58.78 51.89 Z" class="st3"/>
			</g>
			<g id="shape9-9" v:mID="9" v:groupContext="shape" transform="translate(58.7629,-5.68068)">
				<title>circle345</title>
				<ellipse cx="16.3011" cy="35.5841" rx="16.3011" ry="16.3011" class="st4"/>
			</g>
			<g id="shape10-11" v:mID="10" v:groupContext="shape" transform="translate(7.40959,-12.3493)">
				<title>path347</title>
				<path d="M12.84 33.79 A4.93972 4.93972 -180 1 0 2.96 33.79 L2.96 39.04 L0 39.04 L0 51.89 L15.81 51.89 L15.81 39.04
							 L12.84 39.04 L12.84 33.79 ZM14.33 40.52 L14.33 50.4 L1.48 50.4 L1.48 40.52 L14.33 40.52 ZM4.45 39.04
							 L4.45 33.79 C4.45 32.01 6.17 30.46 8.15 30.46 A3.18612 3.18612 0 0 1 11.36 33.79 L11.36 39.04 L4.45
							 39.04 ZM6.67 44.13 A1.48192 1.48192 0 0 1 8.89 42.88 A1.24975 1.24975 0 0 1 9.48 43.46 A1.38806 1.38806
							 0 0 1 8.89 45.34 L8.89 48.43 L7.41 48.43 L7.41 45.34 A1.40288 1.40288 0 0 1 6.67 44.13 Z" class="st5"/>
			</g>
			<g id="shape11-13" v:mID="11" v:groupContext="shape" transform="translate(119.112,-7.07368)">
				<title>circle349</title>
				<ellipse cx="15.6441" cy="36.2411" rx="15.6441" ry="15.6441" class="st2"/>
			</g>
			<g id="shape12-15" v:mID="12" v:groupContext="shape" transform="translate(125.365,-13.3076)">
				<title>path351</title>
				<path d="M5.4 49.42 L2.44 46.45 L13.24 35.64 L16.21 38.61 L5.4 49.42 ZM3.92 50.9 L0.99 47.93 L0 51.89 L3.91 50.92
							 L3.92 50.9 ZM18.17 36.64 A2.09575 2.09575 -180 0 0 15.21 33.68 L14.72 34.17 L17.68 37.1 L18.17 36.61
							 L18.17 36.64 Z" class="st6"/>
			</g>
			<g id="shape13-17" v:mID="13" v:groupContext="shape" transform="translate(63.5545,-12.8433)">
				<title>outline</title>
				<path d="M20.28 39.75 A2.74649 2.74649 -180 0 0 21.03 37.87 A2.81564 2.81564 -180 0 0 15.41 37.87 A2.75143 2.75143
							 -180 0 0 16.15 39.74 A3.5813 3.5813 -180 0 0 14.62 41.12 A4.17901 4.17901 -180 0 0 7.77 41.08 A3.55166
							 3.55166 -180 0 0 6.29 39.75 A2.74649 2.74649 -180 0 0 7.04 37.87 A2.81564 2.81564 -180 0 0 1.41 37.87
							 A2.75143 2.75143 -180 0 0 2.14 39.74 C0.87 40.36 0 41.6 0 43.49 L1.4 43.49 A2.79588 2.79588 0 0 1 6.98
							 43.36 L6.98 43.51 A4.15925 4.15925 -180 0 0 8.72 46.89 C6.87 47.8 5.6 49.08 5.6 51.89 L7 51.89 C7 49.08
							 8.88 47.69 11.2 47.69 C13.52 47.69 15.4 49.08 15.4 51.89 L16.8 51.89 C16.8 49.08 15.51 47.8 13.65 46.89
							 A4.17407 4.17407 -180 0 0 15.38 43.49 L15.41 43.49 A2.80082 2.80082 0 1 1 21.01 43.49 L22.4 43.49 C22.4
							 41.61 21.55 40.37 20.28 39.75 ZM4.24 36.57 A1.38312 1.38312 0 1 1 2.84 37.96 A1.39794 1.39794 0 0 1
							 4.24 36.57 ZM13.91 44.13 A2.79094 2.79094 0 0 1 8.39 43.53 L8.39 43.49 L8.41 43.49 L8.41 43.34 A2.786
							 2.786 0 1 1 13.92 44.12 L13.91 44.13 ZM18.21 36.57 A1.38312 1.38312 0 1 1 16.8 37.96 A1.39794 1.39794
							 0 0 1 18.21 36.57 Z" class="st7"/>
			</g>
		</g>
	</g>
</svg>
