<?xml version="1.0" encoding="UTF-8" standalone="no"?>
<!DOCTYPE svg PUBLIC "-//W3C//DTD SVG 1.1//EN" "http://www.w3.org/Graphics/SVG/1.1/DTD/svg11.dtd">
<!-- Generated by Microsoft Visio, SVG Export Multi-factor-Authentication-#1.svg Page-1 -->
<svg xmlns="http://www.w3.org/2000/svg" xmlns:xlink="http://www.w3.org/1999/xlink" xmlns:ev="http://www.w3.org/2001/xml-events"
		xmlns:v="http://schemas.microsoft.com/visio/2003/SVGExtensions/" width="0.344286in" height="0.718505in"
		viewBox="0 0 24.7886 51.7323" xml:space="preserve" color-interpolation-filters="sRGB" class="st4">
	<title>MIS: Enterprise Mobility and Security</title>
	<desc>This package contains stencils that will represent Enterprise Mobility and Security</desc>
	<v:documentProperties v:langID="1033" v:metric="true" v:viewMarkup="false"/>

	<style type="text/css">
	<![CDATA[
		.st1 {fill:#b8d432;stroke:none;stroke-width:0.75}
		.st2 {fill:#3e3e3e;stroke:none;stroke-width:0.75}
		.st3 {fill:#ffffff;fill-opacity:0.15;stroke:none;stroke-width:0.75}
		.st4 {fill:none;fill-rule:evenodd;font-size:12px;overflow:visible;stroke-linecap:square;stroke-miterlimit:3}
	]]>
	</style>

	<g v:mID="0" v:index="1" v:groupContext="foregroundPage">
		<title>Page-1</title>
		<v:pageProperties v:drawingScale="0.0393701" v:pageScale="0.0393701" v:drawingUnits="24" v:shadowOffsetX="9"
				v:shadowOffsetY="-9"/>
		<g id="group5-1" transform="translate(0.773211,-0.75482)" v:mID="5" v:groupContext="group">
			<title>Sheet.5</title>
			<g id="shape6-2" v:mID="6" v:groupContext="shape" transform="translate(5.61528,-44.9094)">
				<title>ellipse230</title>
				<ellipse cx="2.80551" cy="50.1292" rx="2.80551" ry="1.60315" class="st1"/>
			</g>
			<g id="shape7-4" v:mID="7" v:groupContext="shape">
				<title>path232</title>
				<path d="M18.44 23.86 L4.71 25.57 L2.9 11.14 A2.06789 2.06789 0 0 1 4.81 8.83 L12.73 7.83 A2.13184 2.13184 0 0 1
							 15.13 9.63 L16.44 20.06 A1.06395 1.06395 -180 1 0 18.54 19.75 L16.54 3.32 C16.44 2.12 15.34 1.41 14.13
							 1.51 L1.91 3.12 A2.00393 2.00393 -180 0 0 -0 5.42 L2.51 25.57 C2.51 25.77 2.61 25.87 2.61 26.07 A1.84618
							 1.84618 -180 0 0 1.81 27.88 L4.61 49.93 A2.08068 2.08068 -180 0 0 6.82 51.73 L21.65 49.73 C22.76 49.63
							 23.36 48.53 23.25 47.42 L20.45 25.37 A1.73532 1.73532 -180 0 0 18.44 23.86 ZM7.53 4.52 L9.24 4.32 a0.643817
							 0.643817 0 0 1 0.801573 0.60118 a0.643817 0.643817 0 0 1 -0.613971 0.805837 L7.72 5.93 a0.643817 0.643817
							 0 0 1 -0.801573 -0.626762 C6.81 4.92 7.1 4.62 7.53 4.52 ZM13.64 36.19 L14.04 39.7 L11.44 40 L10.94 36.39
							 A3.31715 3.31715 0 0 1 9.14 34.08 A2.87824 2.87824 0 1 1 14.85 33.38 C15.03 34.59 14.74 35.57 13.63
							 36.19 L13.64 36.19 Z" class="st2"/>
			</g>
			<g id="shape8-6" v:mID="8" v:groupContext="shape" transform="translate(0.00852737,-10.429)">
				<title>path234</title>
				<path d="M2.5 35.9 C2.5 36.1 2.6 36.2 2.6 36.4 A1.84618 1.84618 -180 0 0 1.8 38.2 L3.5 51.73 L10.12 35.39 L4.71 36
							 L2.9 21.56 A2.06789 2.06789 0 0 1 4.81 19.26 L12.73 18.25 A2.13184 2.13184 0 0 1 15.13 20.06 L15.43
							 22.26 L17.14 18.15 L16.64 13.84 C16.53 12.64 15.43 11.94 14.23 12.04 L1.91 13.54 A2.00393 2.00393 -180
							 0 0 0 15.85 L2.5 35.9 ZM7.52 14.95 L9.23 14.75 a0.643817 0.643817 0 0 1 0.801573 0.60118 a0.643817 0.643817
							 0 0 1 -0.613971 0.805837 L7.71 16.36 a0.643817 0.643817 0 0 1 -0.801573 -0.626762 C6.8 15.35 7.09 15.05
							 7.52 14.95 Z" class="st3"/>
			</g>
		</g>
	</g>
</svg>
