<svg id="Layer_1" data-name="Layer 1" xmlns="http://www.w3.org/2000/svg" viewBox="0 0 400 140"><defs><style>.cls-1{fill:#b9daf4;}.cls-2{fill:#aad2f2;}.cls-3{fill:#b8d432;}.cls-4{fill:#3e3e3e;}.cls-5{fill:#fff;opacity:0.15;isolation:isolate;}</style></defs><title>ems_identity-access-mgmt-2</title><path class="cls-1" d="M320.29,90.63H270.76c-4.75,0-7.74,0-9.95-.23l-.43,0a15.68,15.68,0,0,1-5-1.38l-.26-.11a17,17,0,0,1,10.74-32.1,18.51,18.51,0,0,1,17.26-12.29,18,18,0,0,1,8,1.87,17.83,17.83,0,0,1,15.16-8.52A18.3,18.3,0,0,1,324,53.43a18.86,18.86,0,0,1-.15,36.77A15.43,15.43,0,0,1,320.29,90.63Z"/><path class="cls-2" d="M140.5,84a15,15,0,0,1,7.2,1.83A23.64,23.64,0,0,1,186.31,70.4a34.7,34.7,0,0,1,68.82,4.25,20.11,20.11,0,1,1,5.08,39.57H140.5a15.09,15.09,0,0,1,0-30.18Z"/><ellipse class="cls-3" cx="176.09" cy="19.81" rx="6.58" ry="3.76"/><path class="cls-4" d="M199.59,63.54l-32.21,4-4.23-33.85a4.85,4.85,0,0,1,4.47-5.41l18.57-2.35a5,5,0,0,1,5.64,4.23l3.06,24.45a2.49,2.49,0,0,0,4.94-.71l-4.7-38.55c-.24-2.82-2.82-4.47-5.64-4.23l-28.68,3.76a4.7,4.7,0,0,0-4.47,5.41l5.88,47.25c0,.47.24.71.24,1.18a4.33,4.33,0,0,0-1.88,4.23l6.58,51.72a4.88,4.88,0,0,0,5.17,4.23l34.79-4.7c2.59-.24,4-2.82,3.76-5.41l-6.58-51.72A4.07,4.07,0,0,0,199.59,63.54ZM174,18.17l4-.47a1.51,1.51,0,0,1,1.88,1.41A1.51,1.51,0,0,1,178.44,21l-4,.47A1.51,1.51,0,0,1,172.56,20C172.32,19.11,173,18.4,174,18.17Zm14.34,74.28.94,8.23-6.11.71L182,92.92a7.78,7.78,0,0,1-4.23-5.41,6.75,6.75,0,1,1,13.4-1.65C191.6,88.69,190.9,91,188.31,92.45Z"/><path class="cls-5" d="M162.22,67.3c0,.47.24.71.24,1.18a4.33,4.33,0,0,0-1.88,4.23l4,31.73,15.51-38.32-12.69,1.41-4.23-33.85a4.85,4.85,0,0,1,4.47-5.41l18.57-2.35a5,5,0,0,1,5.64,4.23l.71,5.17,4-9.64-1.18-10.11c-.24-2.82-2.82-4.47-5.64-4.23l-28.91,3.53a4.7,4.7,0,0,0-4.47,5.41ZM174,18.17l4-.47a1.51,1.51,0,0,1,1.88,1.41A1.51,1.51,0,0,1,178.44,21l-4,.47A1.51,1.51,0,0,1,172.56,20C172.32,19.11,173,18.4,174,18.17Z"/></svg>