<svg viewBox="0 0 50 50" class="" role="presentation" focusable="false" xmlns:svg="http://www.w3.org/2000/svg" xmlns:xlink="http://www.w3.org/1999/xlink" id="FxSymbol0-071" data-type="1"><g><title></title><path d="M31.9 1.1c-9.174 0-16.65 7.354-16.878 16.475A12.827 12.827 0 0 1 21 16.1c7.124 0 12.9 5.776 12.9 12.9 0 2.117-.52 4.108-1.423 5.871C41.527 34.563 48.8 27.125 48.8 18c0-9.318-7.582-16.9-16.9-16.9z" class="msportalfx-svg-c01" fill="#ffffff"></path><g fill="#3898C5"><path d="M32.867 35.601c3.674-3.221 7.594-8.33 7.594-17.589S36.604 3.441 32.832.399l-1.529 1.502c3.531 2.846 6.796 6.768 6.796 16.111 0 9.375-3.375 13.113-6.829 16.139l1.597 1.45z"></path><path d="M16.112 16.941h31.775v2.118H16.112zM32 10.084c-5.212 0-9.918-1.453-12.729-3.618l-1.27 1.27C21.134 10.254 26.23 11.9 32 11.9s10.866-1.646 13.999-4.165l-1.27-1.27c-2.81 2.166-7.517 3.619-12.729 3.619z"></path></g><path fill="#7A7B7B" d="M10.925 35.075l-10 10 .002.002a2.825 2.825 0 0 0 3.996 3.996l.002.002 10-10-4-4z"></path><path opacity=".4" fill="#1D1D1D" d="M7 39a14.01 14.01 0 0 0 4 4l2.615-2.615-4-4L7 39z"></path><circle cx="20.725" cy="28.9" r="9" class="msportalfx-svg-c01" fill="#ffffff"></circle><circle cx="21" cy="29" r="11" class="msportalfx-svg-c01" fill="#ffffff"></circle><path fill="#3898C5" d="M25.921 17.077c.215-8.663 3.367-12.428 6.775-15.176L31.167.399c-3.541 2.856-7.156 7.715-7.585 15.96.811.165 1.592.409 2.339.718zm7.022 7.056c.241.591.432 1.205.584 1.836 4.594.253 8.67 1.614 11.202 3.565l1.27-1.27c-2.96-2.379-7.679-3.961-13.056-4.131z"></path><path fill="#3898C5" d="M32 .1C22.131.1 14.1 8.131 14.1 18c0 .037.005.073.006.11a12.877 12.877 0 0 1 2.297-1.151C16.943 8.815 23.722 2.35 32 2.35c8.629 0 15.65 7.021 15.65 15.65 0 8.278-6.465 15.057-14.609 15.597a12.877 12.877 0 0 1-1.151 2.297c.037 0 .073.006.11.006 9.869 0 17.9-8.029 17.9-17.9C49.9 8.131 41.869.1 32 .1z"></path><path d="M19.581 35l-2.068-6.107-1.588 3.131H13v-1.569h1.941l2.865-5.646 1.766 5.215 2.525-7.539 2.07 6.097 1.932-3.687h2.9v1.588l-1.988-.002-3.136 6.181-1.768-5.208L19.581 35z" class="msportalfx-svg-c14" fill="#57a300"></path><path opacity=".2" fill="#3898C5" d="M13.49 32.49c0-6.501 4.53-11 11-11 2.01 0 3.889.548 5.51 1.49-1.904-3.279-5.445-5.49-9.51-5.49-6.075 0-11 4.925-11 11 0 4.065 2.211 7.606 5.49 9.51a10.932 10.932 0 0 1-1.49-5.51z"></path><path fill="#7A7B7B" d="M21 15.1c-7.677 0-13.9 6.223-13.9 13.9 0 7.677 6.223 13.9 13.9 13.9S34.9 36.677 34.9 29c0-7.677-6.223-13.9-13.9-13.9zm0 24.2c-5.689 0-10.3-4.611-10.3-10.3S15.311 18.7 21 18.7 31.3 23.312 31.3 29 26.689 39.3 21 39.3z"></path></g><defs>
<linearGradient id="a" x1="9" y1="16.39" x2="9" y2="-1.94" gradientUnits="userSpaceOnUse"><stop offset="0" stop-color="#0078d4"></stop><stop offset=".16" stop-color="#1380da"></stop><stop offset=".53" stop-color="#3c91e5"></stop><stop offset=".82" stop-color="#559cec"></stop><stop offset="1" stop-color="#5ea0ef"></stop></linearGradient>
<linearGradient id="b" x1="9.88" y1="7.11" x2="9.99" y2="17.27" gradientUnits="userSpaceOnUse"><stop offset="0" stop-color="#32d4f5"></stop><stop offset=".32" stop-color="#31d1f3"></stop><stop offset=".53" stop-color="#2ec9eb"></stop><stop offset=".7" stop-color="#29bade"></stop><stop offset=".86" stop-color="#22a5cb"></stop><stop offset="1" stop-color="#198ab3"></stop><stop offset="1" stop-color="#198ab3"></stop></linearGradient>
<radialGradient id="c" cx="9.43" cy="7.03" r="7.27" gradientUnits="userSpaceOnUse"><stop offset="0" stop-color="#f2f2f2"></stop><stop offset=".58" stop-color="#eee"></stop><stop offset="1" stop-color="#e6e6e6"></stop></radialGradient>
</defs>
</svg>