<svg viewBox="0 0 18 18" data-islogo="true" class="" role="presentation" focusable="false" xmlns:svg="http://www.w3.org/2000/svg" xmlns:xlink="http://www.w3.org/1999/xlink" id="FxSymbol0-0db" data-type="1"><g><title>Icon-networking-67</title><path d="M16.36 8.4c0 4.84-5.85 8.74-7.12 9.53a.46.46 0 0 1-.48 0c-1.27-.79-7.12-4.69-7.12-9.53V2.58a.46.46 0 0 1 .45-.46C6.64 2 5.59 0 9 0s2.36 2 6.91 2.12a.46.46 0 0 1 .45.46z" fill="#0078d4"></path><path d="M15.75 8.45c0 4.44-5.36 8-6.53 8.74a.43.43 0 0 1-.44 0c-1.17-.72-6.53-4.3-6.53-8.74V3.11a.42.42 0 0 1 .41-.42C6.83 2.58 5.87.75 9 .75s2.17 1.83 6.34 1.94a.42.42 0 0 1 .41.42z" fill="#6bb9f2"></path><path d="M9 9V.75c3.13 0 2.17 1.83 6.34 1.94a.43.43 0 0 1 .41.43v5.34a4.89 4.89 0 0 1 0 .54zm0 0H2.28c.4 4.18 5.38 7.5 6.5 8.19a.39.39 0 0 0 .18.06H9z" fill="url(#fe5ce43f-2823-4617-bb54-57df9e778372)"></path><path d="M2.66 2.69C6.83 2.58 5.87.75 9 .75V9H2.28a4.89 4.89 0 0 1 0-.54V3.12a.43.43 0 0 1 .38-.43zM15.72 9H9v8.25a.39.39 0 0 0 .18-.06c1.16-.69 6.14-4.01 6.54-8.19z" fill="#50e6ff"></path></g><defs>
<linearGradient id="fe5ce43f-2823-4617-bb54-57df9e778372" x1="9.01" y1=".75" x2="9.01" y2="17.25" gradientUnits="userSpaceOnUse"><stop offset="0" stop-color="#5ea0ef"></stop><stop offset=".18" stop-color="#559cec"></stop><stop offset=".47" stop-color="#3c91e5"></stop><stop offset=".84" stop-color="#1380da"></stop><stop offset="1" stop-color="#0078d4"></stop></linearGradient>
</defs>
</svg>