<svg viewBox="0 0 50 50" class="fxs-portal-svg" role="presentation" focusable="false" xmlns:svg="http://www.w3.org/2000/svg" xmlns:xlink="http://www.w3.org/1999/xlink" id="FxSymbol0-120" data-type="1"><g><title></title><path d="M6 27l-6 6h50l-6-6z" class="msportalfx-svg-c17" fill="#804998"></path><path d="M37.018 11.8L32.261 7l-1.982-2H6v42h33V13.8z" class="msportalfx-svg-c15" fill="#59b4d9"></path><path opacity=".8" d="M30.081 7H7.982v38h29.036V14h-6.937z" class="msportalfx-svg-c01" fill="#ffffff"></path><path d="M42.018 6.8L37.261 2l-1.982-2H10v42h34V8.8z" class="msportalfx-svg-c15" fill="#59b4d9"></path><path opacity=".8" d="M35.081 2H11.982v38h30.036V9h-6.937z" class="msportalfx-svg-c01" fill="#ffffff"></path><path d="M18 18.442v10.132c0 .08.043.155.113.195l8.775 5.066c.07.04.155.04.225 0l8.775-5.066a.223.223 0 0 0 .112-.195V18.442a.226.226 0 0 0-.112-.195l-8.775-5.066a.226.226 0 0 0-.225 0l-8.775 5.066a.225.225 0 0 0-.113.195z" opacity=".8" class="msportalfx-svg-c16" fill="#3999c6"></path><path d="M0 33h50v17H0z" class="msportalfx-svg-c17" fill="#804998"></path><path d="M0 33v17h18l13-17z" opacity=".2" class="msportalfx-svg-c01" fill="#ffffff"></path></g><defs>
<linearGradient id="a" x1="9" y1="17.86" x2="9" y2="4.06" gradientUnits="userSpaceOnUse"><stop offset="0" stop-color="#0078d4"></stop><stop offset=".16" stop-color="#1380da"></stop><stop offset=".53" stop-color="#3c91e5"></stop><stop offset=".82" stop-color="#559cec"></stop><stop offset="1" stop-color="#5ea0ef"></stop></linearGradient>
<linearGradient id="b" x1="6.4" y1="1.32" x2="7.21" y2="11.39"><stop offset=".22" stop-color="#32d4f5"></stop><stop offset=".47" stop-color="#31d1f3"></stop><stop offset=".63" stop-color="#2ec9eb"></stop><stop offset=".77" stop-color="#29bade"></stop><stop offset=".89" stop-color="#22a5cb"></stop><stop offset="1" stop-color="#198ab3"></stop><stop offset="1" stop-color="#198ab3"></stop></linearGradient>
<linearGradient id="c" x1="13.76" y1="18.05" x2="13.76" y2="10.25" gradientUnits="userSpaceOnUse"><stop offset="0" stop-color="#76bc2d"></stop><stop offset=".6" stop-color="#81ce31"></stop><stop offset=".82" stop-color="#86d633"></stop></linearGradient>
</defs>
</svg>