<svg viewBox="0 0 18.385 20" class="fxs-portal-svg" role="presentation" focusable="false" xmlns:svg="http://www.w3.org/2000/svg" xmlns:xlink="http://www.w3.org/1999/xlink" id="FxSymbol0-171" data-type="1"><g><title></title><title>organizationalRelationships</title><path d="M18.385 14.737a.826.826 0 0 1-.834.834h-5.676a.826.826 0 0 1-.834-.834V5.389a.826.826 0 0 1 .834-.834h5.642a.826.826 0 0 1 .835.834v9.348z" class="msportalfx-svg-c15" fill="#59b4d9"></path><path d="M12.376 6.224h2.003v2.337h-2.003zm2.671 0h2.003v2.337h-2.003zm-2.671 3.672h2.003v2.337h-2.003zm2.671 0h2.003v2.337h-2.003z" class="msportalfx-svg-c01" fill="#ffffff"></path><path d="M7.344 14.737a.826.826 0 0 1-.834.834H.835A.826.826 0 0 1 0 14.737V5.389a.826.826 0 0 1 .835-.834h5.641a.826.826 0 0 1 .835.834" class="msportalfx-svg-c19" fill="#0072c6"></path><path d="M1.335 6.224h2.003v2.337H1.335zm2.671 0h2.003v2.337H4.006zM1.335 9.896h2.003v2.337H1.335zm2.671 0h2.003v2.337H4.006z" class="msportalfx-svg-c15" fill="#59b4d9"></path><path d="M9.361 20a4.14 4.14 0 0 0 4.109-3.747h-1.232a2.889 2.889 0 0 1-2.856 2.534 2.777 2.777 0 0 1-2.229-1.107l1.356-1.443h-3.44v3.658l1.24-1.32A3.96 3.96 0 0 0 9.361 20zM9.18 1.213a2.774 2.774 0 0 1 2.227 1.109l-1.356 1.442h3.44V.105l-1.24 1.319A3.967 3.967 0 0 0 9.2 0a4.139 4.139 0 0 0-4.11 3.764h1.23a2.888 2.888 0 0 1 2.86-2.551z" class="msportalfx-svg-c10" fill="#ff8c00"></path></g><defs>
<linearGradient id="a" x1="-1267.23" y1="3.07" x2="-1267.52" y2="14.64" gradientTransform="matrix(-1 0 0 1 -1256.13 0)" gradientUnits="userSpaceOnUse"><stop offset="0" stop-color="#32d4f5"></stop><stop offset=".23" stop-color="#31d0f1"></stop><stop offset=".46" stop-color="#2cc3e6"></stop><stop offset=".7" stop-color="#25afd4"></stop><stop offset=".94" stop-color="#1c92ba"></stop><stop offset="1" stop-color="#198ab3"></stop></linearGradient>
<linearGradient id="b" x1="6.4" y1="1.32" x2="7.21" y2="11.39"><stop offset=".22" stop-color="#32d4f5"></stop><stop offset=".47" stop-color="#31d1f3"></stop><stop offset=".63" stop-color="#2ec9eb"></stop><stop offset=".77" stop-color="#29bade"></stop><stop offset=".89" stop-color="#22a5cb"></stop><stop offset="1" stop-color="#198ab3"></stop><stop offset="1" stop-color="#198ab3"></stop></linearGradient>
<linearGradient id="c" x1="13.76" y1="18.05" x2="13.76" y2="10.25" gradientUnits="userSpaceOnUse"><stop offset="0" stop-color="#76bc2d"></stop><stop offset=".6" stop-color="#81ce31"></stop><stop offset=".82" stop-color="#86d633"></stop></linearGradient>
</defs>
</svg>