<?xml version="1.0" encoding="UTF-8" standalone="no"?>
<!DOCTYPE svg PUBLIC "-//W3C//DTD SVG 1.1//EN" "http://www.w3.org/Graphics/SVG/1.1/DTD/svg11.dtd">
<!-- Generated by Microsoft Visio, SVG Export Pipeline-security-and-compliance.svg Page-1 -->
<svg xmlns="http://www.w3.org/2000/svg" xmlns:xlink="http://www.w3.org/1999/xlink" xmlns:ev="http://www.w3.org/2001/xml-events"
		xmlns:v="http://schemas.microsoft.com/visio/2003/SVGExtensions/" width="0.841023in" height="0.827312in"
		viewBox="0 0 60.5537 59.5665" xml:space="preserve" color-interpolation-filters="sRGB" class="st11">
	<title>MIS: Security and Governance</title>
	<desc>This package contains stencils that will represent Security and Governance</desc>
	<v:documentProperties v:langID="1033" v:metric="true" v:viewMarkup="false"/>

	<style type="text/css">
	<![CDATA[
		.st1 {fill:#55a2ff;stroke:none;stroke-width:0.75}
		.st2 {fill:#dadada;stroke:none;stroke-width:0.75}
		.st3 {fill:#000000;fill-opacity:0.086;stroke:none;stroke-width:0.75}
		.st4 {fill:#30404d;stroke:none;stroke-width:0.75}
		.st5 {fill:#c6c6c6;stroke:none;stroke-width:0.75}
		.st6 {fill:#233039;stroke:none;stroke-width:0.75}
		.st7 {fill:#7cb65a;stroke:none;stroke-width:0.75}
		.st8 {fill:#69994e;stroke:none;stroke-width:0.75}
		.st9 {fill:#fffffe;stroke:none;stroke-width:0.75}
		.st10 {fill:none;stroke:#0078d4;stroke-width:3}
		.st11 {fill:none;fill-rule:evenodd;font-size:12px;overflow:visible;stroke-linecap:square;stroke-miterlimit:3}
	]]>
	</style>

	<g v:mID="0" v:index="1" v:groupContext="foregroundPage">
		<title>Page-1</title>
		<v:pageProperties v:drawingScale="1" v:pageScale="1" v:drawingUnits="0" v:shadowOffsetX="9" v:shadowOffsetY="-9"/>
		<g id="group5-1" transform="translate(1.32605,-3)" v:mID="5" v:groupContext="group">
			<v:userDefs/>
			<title>Build applications with Azure DevOps/manage-security-and-compliance-in-your-build-pipeline</title>
			<desc>Created with Sketch.</desc>
			<g id="group6-2" v:mID="6" v:groupContext="group">
				<title>Build-applications-with-Azure-D</title>
				<g id="group7-3" v:mID="7" v:groupContext="group">
					<title>Mask</title>
					<g id="shape8-4" v:mID="8" v:groupContext="shape" transform="translate(1.67395,7.10543E-15)">
						<title>path-1</title>
						<path d="M0 32.78 A26.7839 26.7839 -180 0 0 26.78 59.57 A26.7839 26.7839 -180 0 0 53.57 32.78 A26.7839 26.7839
									 -180 0 0 26.78 6 A26.7839 26.7839 -180 0 0 -0 32.78 Z" class="st1"/>
					</g>
					<g id="group9-6" transform="translate(40.6771,-24.7963)" v:mID="9" v:groupContext="group">
						<title>Sheet.9</title>
						<g id="shape10-7" v:mID="10" v:groupContext="shape">
							<title>Fill-68</title>
							<path d="M0 59.57 L17.8 59.57 L17.8 55.61 L0 55.61 L0 59.57 Z" class="st2"/>
						</g>
						<g id="shape11-9" v:mID="11" v:groupContext="shape">
							<title>Fill-69</title>
							<rect x="0" y="57.5886" width="17.8006" height="1.97784" class="st3"/>
						</g>
					</g>
					<g id="group12-11" transform="translate(-2.93765E-13,-2.13917)" v:mID="12" v:groupContext="group">
						<title>Sheet.12</title>
						<g id="shape13-12" v:mID="13" v:groupContext="shape" transform="translate(7.91136,-26.5946)">
							<title>Fill-64</title>
							<path d="M7.91 54.03 C7.33 54.03 6.82 54.35 6.55 54.82 L2.95 54.82 C2.67 54.35 2.17 54.03 1.58 54.03
										 C0.71 54.03 0 54.74 0 55.61 C0 56.48 0.71 57.19 1.58 57.19 C2.17 57.19 2.67 56.87 2.95 56.4
										 L3.96 56.4 L3.96 58.78 C3.96 59.21 4.31 59.57 4.75 59.57 C5.18 59.57 5.54 59.21 5.54 58.78
										 L5.54 56.4 L6.55 56.4 C6.82 56.87 7.33 57.19 7.91 57.19 C8.72 57.19 9.49 56.48 9.49 55.61
										 C9.49 54.74 8.79 54.03 7.91 54.03 Z" class="st4"/>
						</g>
						<g id="shape14-14" v:mID="14" v:groupContext="shape" transform="translate(10.2848,-19.8699)">
							<title>Fill-65</title>
							<path d="M9.75 50.15 C9.42 50.02 9.03 50.06 8.75 50.26 L6.21 52.05 L0.93 52.05 C0.42 52.05 0 52.4 0 52.84
										 L0 56.8 C0 57.23 0.42 57.59 0.93 57.59 L6.21 57.59 L8.75 59.38 C8.92 59.5 9.14 59.57 9.35
										 59.57 C9.48 59.57 9.62 59.54 9.75 59.49 C10.07 59.36 10.28 59.08 10.28 58.78 L10.28 50.86
										 C10.28 50.56 10.07 50.28 9.75 50.15 Z" class="st4"/>
						</g>
						<g id="shape15-16" v:mID="15" v:groupContext="shape" transform="translate(11.867,-27.3857)">
							<title>Fill-66</title>
							<rect x="0" y="57.1931" width="1.58227" height="2.37341" class="st2"/>
						</g>
						<g id="shape16-18" v:mID="16" v:groupContext="shape" transform="translate(11.867,-27.3857)">
							<title>Fill-67</title>
							<path d="M0.79 57.19 L0 57.19 L0 57.98 L0.4 57.98 C0.61 57.98 0.79 58.16 0.79 58.38 L0.79 59.57 L1.58
										 59.57 L1.58 57.19 L0.79 57.19 Z" class="st5"/>
						</g>
						<g id="shape17-20" v:mID="17" v:groupContext="shape">
							<title>Fill-68</title>
							<path d="M1.19 38.51 L1.19 57.19 C1.19 57.63 0.83 57.98 0.4 57.98 C0.18 57.98 0 58.16 0 58.38 L0 59.17
										 C0 59.39 0.18 59.57 0.4 59.57 L3.16 59.57 L3.16 58.78 L5.14 58.78 L5.14 38.11 L5.2 38.11
										 C5.37 37.43 5.99 36.93 6.72 36.93 L10.28 36.93 L10.28 32.97 L6.72 32.97 C3.67 32.97 1.19
										 35.45 1.19 38.51 Z" class="st2"/>
						</g>
						<g id="shape18-22" v:mID="18" v:groupContext="shape" transform="translate(3.16454,-1.56319E-13)">
							<title>Fill-69</title>
							<path d="M0 38.51 L0 59.57 L2.77 59.57 C2.99 59.57 3.16 59.39 3.16 59.17 L3.16 58.38 C3.16 58.16 2.99
										 57.98 2.77 57.98 C2.33 57.98 1.98 57.63 1.98 57.19 L1.98 38.51 C1.98 37.64 2.69 36.93 3.56
										 36.93 L7.12 36.93 L7.12 34.95 L3.56 34.95 C1.59 34.95 0 36.54 0 38.51 Z" class="st5"/>
						</g>
						<g id="shape19-24" v:mID="19" v:groupContext="shape" transform="translate(14.3828,-28.968)">
							<title>Fill-70</title>
							<path d="M2.09 56.54 C2.18 56.74 2.23 56.96 2.23 57.19 C2.23 58.07 1.52 58.78 0.65 58.78 C0.42 58.78
										 0.2 58.72 0 58.63 C0.25 59.18 0.8 59.57 1.44 59.57 C2.31 59.57 3.02 58.86 3.02 57.98 C3.02
										 57.34 2.64 56.79 2.09 56.54 Z" class="st6"/>
						</g>
						<g id="shape20-26" v:mID="20" v:groupContext="shape" transform="translate(8.05376,-28.968)">
							<title>Fill-71</title>
							<path d="M2.09 56.54 C2.18 56.74 2.23 56.96 2.23 57.19 C2.23 58.07 1.52 58.78 0.65 58.78 C0.42 58.78
										 0.2 58.72 0 58.63 C0.25 59.18 0.8 59.57 1.44 59.57 C2.31 59.57 3.02 58.86 3.02 57.98 C3.02
										 57.34 2.64 56.79 2.09 56.54 Z" class="st6"/>
						</g>
						<g id="shape21-28" v:mID="21" v:groupContext="shape" transform="translate(10.2848,-19.8699)">
							<title>Fill-72</title>
							<path d="M9.75 50.15 C9.62 50.1 9.48 50.08 9.35 50.08 L9.35 54.03 C9.35 54.47 8.93 54.82 8.41 54.82 L0
										 54.82 L0 56.8 C0 57.23 0.42 57.59 0.93 57.59 L6.21 57.59 L8.75 59.38 C8.92 59.5 9.14 59.57
										 9.35 59.57 C9.48 59.57 9.62 59.54 9.75 59.49 C10.07 59.36 10.28 59.08 10.28 58.78 L10.28
										 50.86 C10.28 50.56 10.07 50.28 9.75 50.15 Z" class="st6"/>
						</g>
					</g>
					<g id="group22-30" transform="translate(18.499,-11.5885)" v:mID="22" v:groupContext="group">
						<title>Sheet.22</title>
						<g id="shape23-31" v:mID="23" v:groupContext="shape" transform="translate(0.928198,-0.928198)">
							<title>Fill-22</title>
							<path d="M11.6 31.72 C9.17 34.51 4.88 35.43 0 35.43 L0 42.86 C0 50.51 3.39 55.44 11.6 59.57 C19.81 55.44
										 23.2 50.51 23.2 42.86 L23.2 35.43 C18.32 35.43 14.04 34.51 11.6 31.72 Z" class="st7"/>
						</g>
						<g id="shape24-33" v:mID="24" v:groupContext="shape" transform="translate(6.49739,-0.928198)">
							<title>Fill-23</title>
							<path d="M6.03 31.72 L6.03 50.75 C2.86 50.75 0.26 48.29 0.02 45.18 C0.01 45.33 0 45.49 0 45.64 C0 48.58
										 2.1 51.02 4.87 51.57 C5.54 51.7 6.03 52.26 6.03 52.94 L6.03 59.57 C14.24 55.44 17.64 50.51
										 17.64 42.86 L17.64 35.43 C12.75 35.43 8.47 34.51 6.03 31.72 Z" class="st8"/>
						</g>
						<g id="shape25-35" v:mID="25" v:groupContext="shape">
							<title>Fill-24</title>
							<path d="M1.86 35.41 L1.86 41.92 C1.86 49.11 4.96 53.68 12.53 57.6 C20.1 53.68 23.2 49.11 23.2 41.92
										 L23.2 35.41 C18.33 35.29 14.82 34.2 12.53 32.11 C10.25 34.2 6.74 35.29 1.86 35.41 ZM12.53
										 59.57 C12.39 59.57 12.25 59.53 12.11 59.47 C3.62 55.2 0 49.95 0 41.92 L0 34.49 C0 33.98
										 0.42 33.56 0.93 33.56 C6.27 33.56 9.84 32.45 11.83 30.17 C12.18 29.76 12.88 29.76 13.23
										 30.17 C15.22 32.45 18.79 33.56 24.13 33.56 C24.65 33.56 25.06 33.98 25.06 34.49 L25.06 41.92
										 C25.06 49.95 21.44 55.2 12.95 59.47 C12.82 59.53 12.67 59.57 12.53 59.57 Z" class="st8"/>
						</g>
						<g id="shape26-37" v:mID="26" v:groupContext="shape" transform="translate(6.49739,-9.74608)">
							<title>Fill-25</title>
							<path d="M12.07 53.53 C12.07 56.86 9.37 59.57 6.03 59.57 C2.7 59.57 0 56.86 0 53.53 C0 50.2 2.7 47.5
										 6.03 47.5 C9.37 47.5 12.07 50.2 12.07 53.53 Z" class="st9"/>
						</g>
						<g id="shape27-39" v:mID="27" v:groupContext="shape" transform="translate(8.73342,-12.9043)">
							<title>Fill-26</title>
							<path d="M7.24 54.18 C6.88 53.82 6.29 53.82 5.93 54.18 L2.87 57.24 L1.76 56.14 C1.73 56.11 1.71 56.07
										 1.67 56.04 C1.31 55.67 0.72 55.67 0.36 56.04 C0 56.39 0 56.97 0.35 57.34 L0.34 57.35 L2.21
										 59.2 C2.58 59.57 3.16 59.57 3.53 59.2 L7.24 55.49 C7.24 55.49 7.24 55.49 7.24 55.49 C7.6
										 55.13 7.6 54.54 7.24 54.18 Z" class="st7"/>
						</g>
					</g>
				</g>
				<g id="shape28-41" v:mID="28" v:groupContext="shape" transform="translate(1.67395,7.10543E-15)">
					<title>Sheet.28</title>
					<path d="M0 32.78 A26.7839 26.7839 -180 0 0 26.78 59.57 A26.7839 26.7839 -180 0 0 53.57 32.78 A26.7839 26.7839
								 -180 0 0 26.78 6 A26.7839 26.7839 -180 0 0 -0 32.78 Z" class="st10"/>
				</g>
			</g>
		</g>
	</g>
</svg>
