<svg viewBox="0 0 18 18" data-islogo="true" class="" role="presentation" focusable="false" xmlns:svg="http://www.w3.org/2000/svg" xmlns:xlink="http://www.w3.org/1999/xlink" id="FxSymbol0-146" data-type="137"><g><path d="M18 7.9a3.09 3.09 0 0 0-2.68-3 3.89 3.89 0 0 0-4-3.72A4 4 0 0 0 7.5 3.81a3.68 3.68 0 0 0-3.24 3.55A3.74 3.74 0 0 0 8.13 11h6.77A3.13 3.13 0 0 0 18 7.9z" fill="url(#ede4cf0d-82ce-4d52-9627-a0e37465f9c5)"></path><path d="M14.39 5.22l-1.83-1.78c-.2-.2-.37-.13-.37.18v.8a.22.22 0 0 1-.23.22c-1.18 0-4.47.31-4.59 4.81a.23.23 0 0 0 .23.23h1.17A.23.23 0 0 0 9 9.43a2.76 2.76 0 0 1 3-3.33.23.23 0 0 1 .23.23v.74c0 .37.12.43.37.18l1.79-1.65a.23.23 0 0 0 0-.38z" class="msportalfx-svg-c01" fill="#ffffff"></path><path d="M14.12 13.66a3.17 3.17 0 0 0-2.75-3.05 4 4 0 0 0-4.12-3.83 4.1 4.1 0 0 0-3.92 2.68A3.78 3.78 0 0 0 0 13.1a3.84 3.84 0 0 0 4 3.69h6.78a.47.47 0 0 0 .17 0 3.21 3.21 0 0 0 3.17-3.13z" fill="url(#ca039bbe-b471-4c3e-bdfe-9540081bdaae)"></path></g><defs>
<linearGradient id="ede4cf0d-82ce-4d52-9627-a0e37465f9c5" x1="11.13" y1="10.95" x2="11.13" y2="1.21" gradientUnits="userSpaceOnUse"><stop offset="0" stop-color="#0078d4"></stop><stop offset=".16" stop-color="#1380da"></stop><stop offset=".53" stop-color="#3c91e5"></stop><stop offset=".82" stop-color="#559cec"></stop><stop offset="1" stop-color="#5ea0ef"></stop></linearGradient>
<linearGradient id="ca039bbe-b471-4c3e-bdfe-9540081bdaae" x1="7.06" y1="16.79" x2="7.06" y2="6.78" gradientUnits="userSpaceOnUse"><stop offset="0" stop-color="#198ab3"></stop><stop offset=".13" stop-color="#21a0c7"></stop><stop offset=".31" stop-color="#28b7db"></stop><stop offset=".5" stop-color="#2ec7ea"></stop><stop offset=".72" stop-color="#31d1f2"></stop><stop offset="1" stop-color="#32d4f5"></stop></linearGradient>
</defs>
</svg>