<svg viewBox="0 0 18 18" class="" role="presentation" focusable="false" xmlns:svg="http://www.w3.org/2000/svg" xmlns:xlink="http://www.w3.org/1999/xlink" id="FxSymbol0-133" data-type="1"><g><title></title><rect x=".32" y=".4" width="11.86" height="11.86" rx=".59" fill="#552f99"></rect><path d="M1.39 2.33h9.73c.1 0 .19 0 .19.06V4s-.09.05-.19.05H1.39C1.28 4 1.2 4 1.2 4V2.39s.08-.06.19-.06z" class="msportalfx-svg-c01" fill="#ffffff"></path><path d="M1.39 5.48h9.92v1.64H1.2V5.53s.08-.05.19-.05zm0 3.15h9.92v1.59s-.09.05-.19.05H1.39c-.11 0-.19 0-.19-.05V8.68s.08-.05.19-.05z" fill="#b796f9"></path><path d="M14.48 16l-5.26-5.29a.41.41 0 0 1 .3-.7h6.69v.83h-5.7l4.56 4.62z" fill="#b796f9"></path><circle cx="9.67" cy="10.46" r="1.15" fill="#9a5fe3"></circle><ellipse cx="16.21" cy="10.3" rx="1.47" ry="1.47" fill="#9a5fe3"></ellipse><ellipse cx="14.67" cy="15.74" rx="1.87" ry="1.86" fill="#9a5fe3"></ellipse></g><defs>
</defs>
</svg>