<svg viewBox="0 0 50 50" class="" role="presentation" focusable="false" xmlns:svg="http://www.w3.org/2000/svg" xmlns:xlink="http://www.w3.org/1999/xlink" id="FxSymbol0-0dd" data-type="1"><g><title></title><path d="M28.4 10.4c0 5.6-4.6 10.2-10.2 10.2S8 16.1 8 10.4C8 4.8 12.6.2 18.2.2c5.7 0 10.2 4.6 10.2 10.2m-2.7 13.7l-7.5 10.5-7.4-10.5H0v25.8h36.5V24.1z" class="msportalfx-svg-c13" fill="#b8d432"></path><path opacity=".2" d="M8 10.4c0 5.6 4.4 10.1 10 10.2L20.6.5c-.7-.2-1.5-.3-2.3-.3C12.6.2 8 4.8 8 10.4m2.8 13.7H0v25.8h14.3l2.3-17.6z" class="msportalfx-svg-c01" fill="#ffffff"></path><path d="M37.7 37.3h-.1l-9-5.2c-.1 0-.1-.1-.1-.2s.1-.2.1-.2l9-5.2h.3l9 5.2c.1 0 .1.1.1.2s-.1.2-.1.2l-9 5.2c-.1-.1-.2 0-.2 0" class="msportalfx-svg-c16" fill="#3999c6"></path><path d="M36.4 49.9h-.1l-9-5.2c-.1 0-.1-.1-.1-.2V34c0-.1.1-.2.1-.2h.3l9 5.2c.1.1.1.1.1.2v10.4c0 .1-.1.2-.1.2-.1.1-.2.1-.2.1m2.5 0h-.1c-.1 0-.1-.1-.1-.2V39.3c0-.1.1-.2.1-.2l9-5.2h.3c.1 0 .1.1.1.2v10.4c0 .1-.1.2-.1.2l-9 5.2h-.2" class="msportalfx-svg-c15" fill="#59b4d9"></path><path opacity=".5" d="M38.9 49.9h-.1c-.1 0-.1-.1-.1-.2V39.3c0-.1.1-.2.1-.2l9-5.2h.3c.1 0 .1.1.1.2v10.4c0 .1-.1.2-.1.2l-9 5.2h-.2" class="msportalfx-svg-c01" fill="#ffffff"></path></g><defs>
<linearGradient id="a" x1="9" y1="16.39" x2="9" y2="-1.94" gradientUnits="userSpaceOnUse"><stop offset="0" stop-color="#0078d4"></stop><stop offset=".16" stop-color="#1380da"></stop><stop offset=".53" stop-color="#3c91e5"></stop><stop offset=".82" stop-color="#559cec"></stop><stop offset="1" stop-color="#5ea0ef"></stop></linearGradient>
<linearGradient id="b" x1="9.88" y1="7.11" x2="9.99" y2="17.27" gradientUnits="userSpaceOnUse"><stop offset="0" stop-color="#32d4f5"></stop><stop offset=".32" stop-color="#31d1f3"></stop><stop offset=".53" stop-color="#2ec9eb"></stop><stop offset=".7" stop-color="#29bade"></stop><stop offset=".86" stop-color="#22a5cb"></stop><stop offset="1" stop-color="#198ab3"></stop><stop offset="1" stop-color="#198ab3"></stop></linearGradient>
<radialGradient id="c" cx="9.43" cy="7.03" r="7.27" gradientUnits="userSpaceOnUse"><stop offset="0" stop-color="#f2f2f2"></stop><stop offset=".58" stop-color="#eee"></stop><stop offset="1" stop-color="#e6e6e6"></stop></radialGradient>
</defs>
</svg>