<?xml version="1.0" encoding="UTF-8" standalone="no"?>
<!DOCTYPE svg PUBLIC "-//W3C//DTD SVG 1.1//EN" "http://www.w3.org/Graphics/SVG/1.1/DTD/svg11.dtd">
<!-- Generated by Microsoft Visio, SVG Export Role-based-access-control.svg Page-1 -->
<svg xmlns="http://www.w3.org/2000/svg" xmlns:xlink="http://www.w3.org/1999/xlink" xmlns:ev="http://www.w3.org/2001/xml-events"
		xmlns:v="http://schemas.microsoft.com/visio/2003/SVGExtensions/" width="0.723814in" height="0.719723in"
		viewBox="0 0 52.1146 51.82" xml:space="preserve" color-interpolation-filters="sRGB" class="st2">
	<title>MIS: Enterprise Mobility and Security</title>
	<desc>This package contains stencils that will represent Enterprise Mobility and Security</desc>
	<v:documentProperties v:langID="1033" v:metric="true" v:viewMarkup="false"/>

	<style type="text/css">
	<![CDATA[
		.st1 {fill:#59b4d9;stroke:none;stroke-width:0.75}
		.st2 {fill:none;fill-rule:evenodd;font-size:12px;overflow:visible;stroke-linecap:square;stroke-miterlimit:3}
	]]>
	</style>

	<g v:mID="0" v:index="1" v:groupContext="foregroundPage">
		<title>Page-1</title>
		<v:pageProperties v:drawingScale="0.0393701" v:pageScale="0.0393701" v:drawingUnits="24" v:shadowOffsetX="9"
				v:shadowOffsetY="-9"/>
		<g id="group5-1" transform="translate(0.75,-0.75)" v:mID="5" v:groupContext="group">
			<title>Sheet.5</title>
			<g id="shape6-2" v:mID="6" v:groupContext="shape" transform="translate(24.8599,-29.651)">
				<title>Sheet.6</title>
				<path d="M20.67 41.49 C20.67 47.19 16.04 51.82 10.33 51.82 C4.63 51.82 0 47.19 0 41.49 C0 35.78 4.63 31.15 10.33
							 31.15 C16.04 31.15 20.67 35.78 20.67 41.49 Z" class="st1"/>
			</g>
			<g id="shape7-4" v:mID="7" v:groupContext="shape" transform="translate(19.7741,-2.41585E-13)">
				<title>Sheet.7</title>
				<path d="M22.98 25.71 L15.42 36.3 L7.86 25.71 L0 25.71 L0 51.82 L30.84 51.82 L30.84 25.71 L22.98 25.71 Z"
						class="st1"/>
			</g>
			<g id="shape8-6" v:mID="8" v:groupContext="shape" transform="translate(2.85669,-16.8344)">
				<title>Sheet.8</title>
				<path d="M11.61 46.02 C11.61 49.22 9.01 51.82 5.81 51.82 C2.6 51.82 0 49.22 0 46.02 C0 42.81 2.6 40.21 5.81 40.21
							 C9.01 40.21 11.61 42.81 11.61 46.02 Z" class="st1"/>
			</g>
			<g id="shape9-8" v:mID="9" v:groupContext="shape">
				<title>Sheet.9</title>
				<path d="M12.91 37.15 L8.66 43.1 L4.42 37.15 L0 37.15 L0 51.82 L17.33 51.82 L17.33 37.15 L12.91 37.15 Z"
						class="st1"/>
			</g>
		</g>
	</g>
</svg>
