<?xml version="1.0" encoding="UTF-8" standalone="no"?>
<!DOCTYPE svg PUBLIC "-//W3C//DTD SVG 1.1//EN" "http://www.w3.org/Graphics/SVG/1.1/DTD/svg11.dtd">
<!-- Generated by Microsoft Visio, SVG Export Secure-Virtual-Machine.svg Page-1 -->
<svg xmlns="http://www.w3.org/2000/svg" xmlns:xlink="http://www.w3.org/1999/xlink" xmlns:ev="http://www.w3.org/2001/xml-events"
		xmlns:v="http://schemas.microsoft.com/visio/2003/SVGExtensions/" width="1.25086in" height="1.01332in"
		viewBox="0 0 90.0619 72.959" xml:space="preserve" color-interpolation-filters="sRGB" class="st2">
	<title>MIS: Security and Governance</title>
	<desc>This package contains stencils that will represent Security and Governance</desc>
	<v:documentProperties v:langID="1033" v:metric="true" v:viewMarkup="false"/>

	<style type="text/css">
	<![CDATA[
		.st1 {fill:#2a3282;stroke:none;stroke-width:7.33813}
		.st2 {fill:none;fill-rule:evenodd;font-size:12px;overflow:visible;stroke-linecap:square;stroke-miterlimit:3}
	]]>
	</style>

	<g v:mID="0" v:index="1" v:groupContext="foregroundPage">
		<title>Page-1</title>
		<v:pageProperties v:drawingScale="0.0393701" v:pageScale="0.0393701" v:drawingUnits="24" v:shadowOffsetX="9"
				v:shadowOffsetY="-9"/>
		<g id="group5-1" transform="translate(7.33813,-7.33813)" v:mID="5" v:groupContext="group">
			<title>Sheet.5</title>
			<g id="group6-2" v:mID="6" v:groupContext="group">
				<title>Layer_1</title>
				<g id="group7-3" v:mID="7" v:groupContext="group">
					<title>Sheet.7</title>
					<g id="shape8-4" v:mID="8" v:groupContext="shape" transform="translate(21.0881,-36.6966)">
						<title>Sheet.8</title>
						<path d="M19.43 67.15 L9.63 61.5 L0 67.15 L0 67.31 L9.63 72.96 L19.43 67.31 L19.43 67.15 Z" class="st1"/>
					</g>
					<g id="shape9-6" v:mID="9" v:groupContext="shape" transform="translate(31.7151,-23.4127)">
						<title>Sheet.9</title>
						<path d="M0 61.83 L0 72.96 L9.8 67.31 L9.8 56.19 L0 61.83 Z" class="st1"/>
					</g>
					<g id="shape10-8" v:mID="10" v:groupContext="shape" transform="translate(20.0918,-23.4127)">
						<title>Sheet.10</title>
						<path d="M9.8 61.83 L0 56.19 L0 67.31 L9.8 72.96 L9.8 61.83 Z" class="st1"/>
					</g>
					<g id="shape11-10" v:mID="11" v:groupContext="shape" transform="translate(44.8329,1.42109E-14)">
						<title>Sheet.11</title>
						<path d="M27.73 45.89 C20.09 49.38 18.6 42.41 15.28 42.41 C11.96 42.41 10.46 49.38 2.82 45.89 C1.16 45.06
									 0 46.56 0 48.05 C0 68.81 15.28 72.96 15.28 72.96 C15.28 72.96 30.55 68.81 30.55 48.05 C30.55
									 46.56 29.56 44.9 27.73 45.89 Z" class="st1"/>
					</g>
					<g id="shape12-12" v:mID="12" v:groupContext="shape">
						<title>Sheet.12</title>
						<path d="M48.82 69.14 C39.19 68.97 37.86 67.98 39.69 61.17 L44 61.17 C43.34 59.68 42.84 58.01 42.51 56.19
									 L4.82 56.19 L4.98 19.49 L58.12 19.66 L58.12 39.42 C58.78 39.25 59.28 39.09 60.11 39.09 C61.27
									 39.09 62.27 39.42 63.1 39.92 L63.1 18 C63.1 16.17 61.11 14.68 59.28 14.68 L3.49 14.68 C1.66
									 14.68 0 16.17 0 18.16 L0 57.68 C0 59.51 1.49 61.34 3.49 61.34 L22.58 61.34 C24.58 68.64 23.74
									 69.31 11.62 69.31 L11.62 72.96 L51.47 72.96 L51.47 71.8 C50.64 70.97 49.65 70.14 48.82 69.14
									 Z" class="st1"/>
					</g>
				</g>
			</g>
			<g id="group13-14" v:mID="13" v:groupContext="group">
				<title>Sheet.13</title>
			</g>
		</g>
	</g>
</svg>
