<svg viewBox="0 0 50 50" class="" role="presentation" focusable="false" xmlns:svg="http://www.w3.org/2000/svg" xmlns:xlink="http://www.w3.org/1999/xlink" id="FxSymbol0-01c" data-type="1"><g><title></title><path d="M38.185 5.96C27.169 4.745 25.326 0 25.326 0S22.847 6.242 7 6.242v25.611c0 3.097 1.721 5.997 4.104 8.532 5.402 5.748 14.223 9.616 14.223 9.616s18.327-8.029 18.327-18.149V6.242c-2.038 0-3.851-.103-5.469-.282z" class="msportalfx-svg-c14" fill="#57a300"></path><path opacity=".4" d="M29.86 16.543L38.185 5.96C27.169 4.745 25.326 0 25.326 0S22.847 6.242 7 6.242v25.611c0 3.097 1.721 5.997 4.104 8.532l6.154-7.822 12.602-16.02z" class="msportalfx-svg-c13" fill="#b8d432"></path><path d="M32.595 24.46h-1.066v-3.552a6.697 6.697 0 0 0-1.669-4.45c-.039-.043-.074-.09-.112-.133-1.107-1.186-2.683-1.948-4.422-1.947-1.736-.001-3.312.761-4.419 1.947a6.697 6.697 0 0 0-1.783 4.582v3.553h-1.065a.8.8 0 0 0-.801.801v9.392c0 .442.359.801.801.801h14.536a.801.801 0 0 0 .801-.801v-9.391a.801.801 0 0 0-.801-.802zm-4.011.001h-5.02l.001-.001H22.07v-3.552c0-1.022.386-1.927.988-2.57.605-.643 1.395-1.013 2.268-1.013.874 0 1.665.37 2.27 1.013.143.153.271.323.389.504l-.001.001c.373.579.6 1.288.6 2.064v3.554z" class="msportalfx-svg-c01" fill="#ffffff"></path></g><defs>
<linearGradient id="a" x1="9" y1="16.39" x2="9" y2="-1.94" gradientUnits="userSpaceOnUse"><stop offset="0" stop-color="#0078d4"></stop><stop offset=".16" stop-color="#1380da"></stop><stop offset=".53" stop-color="#3c91e5"></stop><stop offset=".82" stop-color="#559cec"></stop><stop offset="1" stop-color="#5ea0ef"></stop></linearGradient>
<linearGradient id="b" x1="9.88" y1="7.11" x2="9.99" y2="17.27" gradientUnits="userSpaceOnUse"><stop offset="0" stop-color="#32d4f5"></stop><stop offset=".32" stop-color="#31d1f3"></stop><stop offset=".53" stop-color="#2ec9eb"></stop><stop offset=".7" stop-color="#29bade"></stop><stop offset=".86" stop-color="#22a5cb"></stop><stop offset="1" stop-color="#198ab3"></stop><stop offset="1" stop-color="#198ab3"></stop></linearGradient>
<radialGradient id="c" cx="9.43" cy="7.03" r="7.27" gradientUnits="userSpaceOnUse"><stop offset="0" stop-color="#f2f2f2"></stop><stop offset=".58" stop-color="#eee"></stop><stop offset="1" stop-color="#e6e6e6"></stop></radialGradient>
</defs>
</svg>