<svg viewBox="0 0 16 16" class="" role="presentation" focusable="false" xmlns="http://www.w3.org/2000/svg" xmlns:xlink="http://www.w3.org/1999/xlink" id="FxSymbol0-103" data-type="1"><g><title></title><path d="M9.508 1.551C6.503 1.235 6 .001 6 .001s-.677 1.623-5 1.623v6.659c0 .805.47 1.559 1.12 2.218 1.474 1.494 3.88 2.5 3.88 2.5s5-2.087 5-4.719V1.624c-.556 0-1.051-.027-1.492-.073z" class="msportalfx-svg-c14" fill="#57a300"></path><path opacity=".4" d="M7.237 4.302 9.508 1.55C6.503 1.235 6 .001 6 .001s-.677 1.623-5 1.623v6.659c0 .805.47 1.559 1.12 2.218l1.679-2.034 3.438-4.165z" class="msportalfx-svg-c13" fill="#b8d432"></path><path d="M7 7.999h7v7l-6.979.048z" class="msportalfx-svg-c01" fill="#ffffff"></path><path fill="#3898C6" d="M10 9h3v1h-3zm0 2h3v1h-3zm0 2h3v1h-3zM8 9h1v1H8zm0 2h1v1H8zm0 2h1v1H8z"></path><path d="M14.653 6H6.347A.345.345 0 0 0 6 6.345v9.311c0 .19.155.344.347.344h8.305a.346.346 0 0 0 .348-.345v-9.31A.345.345 0 0 0 14.653 6zM7 15V7.999h7V15H7z" class="msportalfx-svg-c16" fill="#3999c6"></path></g><defs>
</defs>
</svg>