<?xml version="1.0" encoding="UTF-8" standalone="no"?>
<!DOCTYPE svg PUBLIC "-//W3C//DTD SVG 1.1//EN" "http://www.w3.org/Graphics/SVG/1.1/DTD/svg11.dtd">
<!-- Generated by Microsoft Visio, SVG Export Security-Compliance.svg Page-1 -->
<svg xmlns="http://www.w3.org/2000/svg" xmlns:xlink="http://www.w3.org/1999/xlink" xmlns:ev="http://www.w3.org/2001/xml-events"
		xmlns:v="http://schemas.microsoft.com/visio/2003/SVGExtensions/" width="1.17567in" height="1.0669in"
		viewBox="0 0 84.6479 76.8165" xml:space="preserve" color-interpolation-filters="sRGB" class="st6">
	<v:documentProperties v:langID="1033" v:metric="true" v:viewMarkup="false"/>

	<style type="text/css">
	<![CDATA[
		.st1 {fill:#d83b01;stroke:none;stroke-linecap:butt;stroke-width:0.75}
		.st2 {fill:#ffffff;stroke:none;stroke-linecap:butt;stroke-width:0.75}
		.st3 {fill:#bad80a;stroke:none;stroke-linecap:butt;stroke-width:0.75}
		.st4 {fill:none}
		.st5 {stroke:#ffffff;stroke-linecap:round;stroke-linejoin:round;stroke-width:2.2575}
		.st6 {fill:none;fill-rule:evenodd;font-size:12px;overflow:visible;stroke-linecap:square;stroke-miterlimit:3}
	]]>
	</style>

	<g v:mID="0" v:index="1" v:groupContext="foregroundPage">
		<title>Page-1</title>
		<v:pageProperties v:drawingScale="0.0393701" v:pageScale="0.0393701" v:drawingUnits="24" v:shadowOffsetX="9"
				v:shadowOffsetY="-9"/>
		<g id="group1123-1" transform="translate(0.750958,-0.75)" v:mID="1123" v:groupContext="group">
			<title>Security Compliance</title>
			<g id="shape1124-2" v:mID="1124" v:groupContext="shape">
				<title>path8190</title>
				<path d="M35.36 1.5 A24.84 24.84 0 0 1 38.94 1.74 A20.94 20.94 0 0 1 42.23 2.49 A21.6825 21.6825 0 0 1 45.38 3.74
							 A33.9225 33.9225 0 0 1 48.52 5.49 A31.1775 31.1775 -180 0 0 53.82 8.25 A32.895 32.895 -180 0 0 59.2
							 9.91 A40.05 40.05 -180 0 0 64.79 10.72 C66.71 10.87 68.68 10.94 70.72 10.94 L70.72 29.78 A38.04 38.04
							 0 0 1 69.38 39.99 A43.125 43.125 0 0 1 65.63 49.14 A49.5 49.5 0 0 1 60.01 57.3 A71.5725 71.5725 0 0
							 1 52.98 64.5 A83.625 83.625 0 0 1 45 70.78 C42.19 72.72 39.36 74.52 36.51 76.16 L35.36 76.82 L34.22
							 76.16 C31.37 74.52 28.54 72.72 25.73 70.78 A82.7025 82.7025 0 0 1 17.72 64.5 A71.5725 71.5725 0 0 1
							 10.69 57.3 A49.5 49.5 0 0 1 5.07 49.14 A43.125 43.125 0 0 1 1.32 39.99 A38.04 38.04 0 0 1 0 29.78 L0
							 10.93 C2.04 10.93 4.01 10.85 5.93 10.7 A40.05 40.05 -180 0 0 11.53 9.89 A32.895 32.895 -180 0 0 16.9
							 8.24 A31.1775 31.1775 -180 0 0 22.21 5.48 A25.77 25.77 0 0 1 28.47 2.48 A23.0025 23.0025 0 0 1 35.36
							 1.5 Z" class="st1"/>
			</g>
			<g id="shape1125-4" v:mID="1125" v:groupContext="shape" transform="translate(19.1025,-19.1475)">
				<title>path8192</title>
				<path d="M29.29 50.78 L29.29 44.27 A13.02 13.02 -180 1 0 3.25 44.27 L3.25 50.78 L0 50.78 L0 76.82 L32.55 76.82 L32.55
							 50.78 L29.29 50.78 ZM5.08 44.27 A11.19 11.19 0 1 1 27.46 44.27 L27.46 50.78 L5.08 50.78 L5.08 44.27
							 ZM30.72 75.02 L1.83 75.02 L1.83 52.61 L30.72 52.61 L30.72 75.02 Z" class="st2"/>
			</g>
			<g id="shape1126-6" v:mID="1126" v:groupContext="shape" transform="translate(61.3814,-11.994)">
				<title>path8194</title>
				<path d="M21.77 67.8 A12.75 12.75 0 1 1 9.02 55.05 A12.75 12.75 0 0 1 21.77 67.8 Z" class="st3"/>
			</g>
			<g id="shape1127-8" v:mID="1127" v:groupContext="shape" transform="translate(64.0145,-15.8271)">
				<title>polyline8196</title>
				<path d="M0 72.03 L4.78 76.82 L14.35 67.25 L0 72.03 Z" class="st4"/>
				<path d="M0 72.03 L4.78 76.82 L14.35 67.25" class="st5"/>
			</g>
		</g>
	</g>
</svg>
