<?xml version="1.0" encoding="UTF-8" standalone="no"?>
<!DOCTYPE svg PUBLIC "-//W3C//DTD SVG 1.1//EN" "http://www.w3.org/Graphics/SVG/1.1/DTD/svg11.dtd">
<!-- Generated by Microsoft Visio, SVG Export Security-#3.svg Page-1 -->
<svg xmlns="http://www.w3.org/2000/svg" xmlns:xlink="http://www.w3.org/1999/xlink" xmlns:ev="http://www.w3.org/2001/xml-events"
		xmlns:v="http://schemas.microsoft.com/visio/2003/SVGExtensions/" width="0.965496in" height="1.10721in"
		viewBox="0 0 69.5157 79.719" xml:space="preserve" color-interpolation-filters="sRGB" class="st8">
	<v:documentProperties v:langID="1033" v:metric="true" v:viewMarkup="false"/>

	<style type="text/css">
	<![CDATA[
		.st1 {fill:#ffffff;stroke:#556a8a;stroke-linecap:round;stroke-linejoin:round;stroke-width:1.31999}
		.st2 {fill:#bad80a;stroke:#556a8a;stroke-width:1.5}
		.st3 {fill:#e5e5e5;stroke:none;stroke-width:0.75}
		.st4 {fill:#54b958;stroke:none;stroke-linecap:round;stroke-linejoin:round;stroke-width:0.75}
		.st5 {fill:#7f7f7f;stroke:none;stroke-linecap:round;stroke-linejoin:round;stroke-width:0.75}
		.st6 {fill:#78909c;stroke:none;stroke-linecap:round;stroke-linejoin:round;stroke-width:0.75}
		.st7 {fill:#ffffff;stroke:none;stroke-linecap:round;stroke-linejoin:round;stroke-width:0.75}
		.st8 {fill:none;fill-rule:evenodd;font-size:12px;overflow:visible;stroke-linecap:square;stroke-miterlimit:3}
	]]>
	</style>

	<g v:mID="0" v:index="1" v:groupContext="foregroundPage">
		<title>Page-1</title>
		<v:pageProperties v:drawingScale="0.0393701" v:pageScale="0.0393701" v:drawingUnits="24" v:shadowOffsetX="9"
				v:shadowOffsetY="-9"/>
		<g id="group1140-1" transform="translate(0.659994,-0.659994)" v:mID="1140" v:groupContext="group">
			<title>Security #3</title>
			<g id="shape1141-2" v:mID="1141" v:groupContext="shape">
				<title>Sheet.1141</title>
				<path d="M34.1 79.72 C74.12 68.45 67.84 11.75 67.84 11.75 C47.44 13.92 34.1 1.32 34.1 1.32 C34.1 1.32 20.66 13.88
							 0.36 11.75 C0.36 11.75 -5.92 68.38 34.1 79.72 Z" class="st1"/>
			</g>
			<g id="shape1142-4" v:mID="1142" v:groupContext="shape" transform="translate(6.89851,-7.28615)">
				<title>Sheet.1142</title>
				<path d="M0 26.19 C12.4 25.74 21.76 20.85 27.14 17.32 C35.2 22.66 44.56 25.74 54.24 26.19 C54.43 39.86 51.94 71.27
							 27.14 79.72 C2.43 71.17 -0.06 39.79 0 26.19 Z" class="st2"/>
			</g>
			<g id="shape1143-6" v:mID="1143" v:groupContext="shape" transform="translate(9.58739,-10.5892)">
				<title>Sheet.1143</title>
				<path d="M0 31.7 C-0.1 44 2.04 72.14 24.25 79.72 L24.25 79.72 L24.25 23.79 L24.25 23.79 L24.25 23.79 C17.03 28.62
							 8.65 31.34 0 31.7 Z" class="st3"/>
			</g>
			<g id="shape1144-8" v:mID="1144" v:groupContext="shape" transform="translate(6.31416,-6.60611)">
				<title>Sheet.1144</title>
				<path d="M27.53 79.62 C2.33 71.01 -0.09 38.92 0 25.51 L0 24.8 L0.72 24.8 L0.72 24.8 C10.24 24.34 19.43 21.3 27.37
							 16.02 L27.72 15.76 L28.05 16.02 L28.05 16.02 C35.98 21.36 45.24 24.41 54.79 24.8 L55.51 24.8 L55.51
							 25.51 L55.51 25.51 C55.67 38.85 53.24 70.94 27.98 79.62 L27.72 79.72 L27.53 79.62 ZM27.69 17.45 C19.79
							 22.56 10.69 25.54 1.3 26.09 C1.3 39.6 3.95 69.91 27.72 78.26 C51.62 69.91 54.21 39.5 54.11 26.09 C44.72
							 25.57 35.59 22.56 27.69 17.45 Z" class="st4"/>
			</g>
			<g id="shape1145-10" v:mID="1145" v:groupContext="shape" transform="translate(18.8486,-21.9556)">
				<title>Sheet.1145</title>
				<path d="M0 58.22 L0 78 C0 78.94 0.78 79.72 1.72 79.72 L25.74 79.72 C26.68 79.72 27.46 78.94 27.46 78 L27.46 58.22
							 C27.46 57.28 26.68 56.5 25.74 56.5 L24.35 56.5 L24.35 52.81 L24.35 52.81 C24.35 47.01 19.66 42.32 13.86
							 42.32 L13.6 42.32 C7.8 42.32 3.11 47.01 3.08 52.81 L3.08 56.5 L1.72 56.5 L1.72 56.5 C0.78 56.53 0.06
							 57.28 0 58.22 ZM6.48 56.5 L6.48 52.84 L6.48 52.78 L6.48 52.78 C6.48 48.86 9.68 45.65 13.63 45.65 L13.89
							 45.65 C17.81 45.68 21.02 48.86 20.98 52.81 L20.98 56.5 L6.48 56.5 Z" class="st5"/>
			</g>
			<g id="shape1146-12" v:mID="1146" v:groupContext="shape" transform="translate(20.4029,-23.4776)">
				<title>Sheet.1146</title>
				<path d="M0 58.22 C0.03 57.25 0.78 56.47 1.75 56.47 L25.74 56.47 C26.68 56.47 27.46 57.25 27.46 58.22 L27.46 78 C27.46
							 78.94 26.68 79.72 25.74 79.72 L1.75 79.72 C0.78 79.72 0.03 78.94 0 78 L0 58.22 Z" class="st6"/>
			</g>
			<g id="shape1147-14" v:mID="1147" v:groupContext="shape" transform="translate(23.4144,-46.6314)">
				<title>Sheet.1147</title>
				<path d="M21.27 79.72 L21.27 76.03 C21.24 70.23 16.55 65.54 10.78 65.54 L10.52 65.54 C4.73 65.54 0.03 70.23 0 76.03
							 L0 79.72 L3.37 79.72 L3.37 76.03 L3.37 75.99 L3.37 75.99 C3.37 72.04 6.57 68.87 10.49 68.87 L10.78 68.87
							 C14.73 68.87 17.94 72.08 17.94 76.03 L17.94 79.72 L21.27 79.72 Z" class="st7"/>
			</g>
			<g id="shape1148-16" v:mID="1148" v:groupContext="shape" transform="translate(30.2793,-28.4646)">
				<title>Sheet.1148</title>
				<path d="M2.49 74.63 L2.49 79.72 L5.08 79.72 L5.08 74.63 L5.08 74.63 C6.57 74.12 7.58 72.69 7.58 71.11 C7.51 69.06
							 5.83 67.45 3.79 67.45 C1.75 67.45 0.06 69.06 0 71.11 C0 72.69 1 74.12 2.49 74.63 Z" class="st7"/>
			</g>
		</g>
	</g>
</svg>
