<?xml version="1.0" encoding="UTF-8" standalone="no"?>
<!DOCTYPE svg PUBLIC "-//W3C//DTD SVG 1.1//EN" "http://www.w3.org/Graphics/SVG/1.1/DTD/svg11.dtd">
<!-- Generated by Microsoft Visio, SVG Export Security.svg Page-1 -->
<svg xmlns="http://www.w3.org/2000/svg" xmlns:xlink="http://www.w3.org/1999/xlink" xmlns:ev="http://www.w3.org/2001/xml-events"
		xmlns:v="http://schemas.microsoft.com/visio/2003/SVGExtensions/" width="11.6929in" height="8.26772in"
		viewBox="0 0 841.89 595.276" xml:space="preserve" color-interpolation-filters="sRGB" class="st4">
	<v:documentProperties v:langID="1033" v:metric="true" v:viewMarkup="false">
		<v:userDefs>
			<v:ud v:nameU="msvSubprocessMaster" v:prompt="" v:val="VT4(Rectangle)"/>
			<v:ud v:nameU="msvNoAutoConnect" v:val="VT0(1):26"/>
		</v:userDefs>
	</v:documentProperties>

	<style type="text/css">
	<![CDATA[
		.st1 {fill:none;stroke:#556a8a;stroke-linecap:butt;stroke-width:1.5}
		.st2 {fill:#ffffff;stroke:none;stroke-linecap:butt;stroke-width:0.75}
		.st3 {fill:#e5e5e5;stroke:none;stroke-linecap:butt;stroke-width:0.75}
		.st4 {fill:none;fill-rule:evenodd;font-size:12px;overflow:visible;stroke-linecap:square;stroke-miterlimit:3}
	]]>
	</style>

	<g v:mID="0" v:index="1" v:groupContext="foregroundPage">
		<v:userDefs>
			<v:ud v:nameU="msvThemeOrder" v:val="VT0(0):26"/>
		</v:userDefs>
		<title>Page-1</title>
		<v:pageProperties v:drawingScale="0.0393701" v:pageScale="0.0393701" v:drawingUnits="24" v:shadowOffsetX="9"
				v:shadowOffsetY="-9"/>
		<v:layer v:name="Connector" v:index="0"/>
		<g id="group1128-1" transform="translate(18,-533.776)" v:mID="1128" v:groupContext="group">
			<title>Security</title>
			<g id="shape1129-2" v:mID="1129" v:groupContext="shape" transform="translate(6,-16.5)">
				<title>rect6516</title>
				<path d="M0 586.28 A9.00021 9.00021 -180 0 0 9 595.28 L11.25 595.28 A9.00021 9.00021 -180 0 0 20.25 586.28 L20.25
							 577.28 A9.00021 9.00021 -180 0 0 11.25 568.28 L9 568.28 A9.00021 9.00021 -180 0 0 -0 577.28 L0 586.28
							 Z" class="st1"/>
			</g>
			<g id="shape1130-4" v:mID="1130" v:groupContext="shape">
				<title>path6518</title>
				<path d="M33 569.78 L33 593.78 A1.5 1.5 0 0 1 31.5 595.28 L1.5 595.28 A1.5 1.5 0 0 1 0 593.78 L0 569.78 A1.5 1.5
							 0 0 1 1.5 568.28 L31.5 568.28 A1.5 1.5 0 0 1 33 569.78 Z" class="st2"/>
			</g>
			<g id="shape1131-6" v:mID="1131" v:groupContext="shape" transform="translate(8.25,-2.25)">
				<title>path6520</title>
				<path d="M24.75 572.03 L24.75 595.28 L0 570.53 L23.25 570.53 A1.5 1.5 0 0 1 24.75 572.03 Z" class="st3"/>
			</g>
			<g id="shape1132-8" v:mID="1132" v:groupContext="shape">
				<title>path6522</title>
				<path d="M33 593.78 A1.5 1.5 0 0 1 31.5 595.28 L1.5 595.28 A1.5 1.5 0 0 1 0 593.78 L0 569.78 A1.5 1.5 0 0 1 1.5 568.28
							 L31.5 568.28 A1.5 1.5 0 0 1 33 569.78 L33 593.78 Z" class="st1"/>
			</g>
		</g>
	</g>
</svg>
