<?xml version="1.0" encoding="UTF-8" standalone="no"?>
<!DOCTYPE svg PUBLIC "-//W3C//DTD SVG 1.1//EN" "http://www.w3.org/Graphics/SVG/1.1/DTD/svg11.dtd">
<!-- Generated by Microsoft Visio, SVG Export Security-#2.svg Page-1 -->
<svg xmlns="http://www.w3.org/2000/svg" xmlns:xlink="http://www.w3.org/1999/xlink" xmlns:ev="http://www.w3.org/2001/xml-events"
		xmlns:v="http://schemas.microsoft.com/visio/2003/SVGExtensions/" width="0.72101in" height="0.841787in"
		viewBox="0 0 51.9127 60.6086" xml:space="preserve" color-interpolation-filters="sRGB" class="st2">
	<v:documentProperties v:langID="1033" v:metric="true" v:viewMarkup="false"/>

	<style type="text/css">
	<![CDATA[
		.st1 {fill:#0072c6;stroke:none;stroke-linecap:butt;stroke-width:12}
		.st2 {fill:none;fill-rule:evenodd;font-size:12px;overflow:visible;stroke-linecap:square;stroke-miterlimit:3}
	]]>
	</style>

	<g v:mID="0" v:index="1" v:groupContext="foregroundPage">
		<title>Page-1</title>
		<v:pageProperties v:drawingScale="0.0393701" v:pageScale="0.0393701" v:drawingUnits="24" v:shadowOffsetX="9"
				v:shadowOffsetY="-9"/>
		<g id="group1138-1" transform="translate(12,-12)" v:mID="1138" v:groupContext="group">
			<title>Security #2</title>
			<g id="shape1139-2" v:mID="1139" v:groupContext="shape">
				<title>lock</title>
				<path d="M14.17 24 C10.12 24 7.4 25.7 5.88 27.43 C4.37 29.16 3.91 31 3.91 31 L3.86 31.2 L3.86 39.14 L1.07 39.14 C0.48
							 39.14 0 39.62 0 40.21 L0 59.54 C0 60.13 0.48 60.61 1.07 60.61 L26.84 60.61 C27.43 60.61 27.91 60.13
							 27.91 59.54 L27.91 40.21 C27.91 39.62 27.43 39.14 26.84 39.14 L24.05 39.14 L24.05 31.81 L24.03 31.68
							 C24.03 31.68 23.73 29.72 22.34 27.82 C20.95 25.91 18.27 24 14.17 24 L14.17 24 ZM14.17 27.44 C17.28 27.44
							 18.68 28.64 19.57 29.85 C20.41 30.99 20.59 32.03 20.61 32.13 L20.61 39.14 L7.3 39.14 L7.3 31.68 C7.35
							 31.51 7.59 30.7 8.47 29.69 C9.44 28.58 11.02 27.44 14.17 27.44 Z" class="st1"/>
			</g>
		</g>
	</g>
</svg>
