<?xml version="1.0" encoding="UTF-8" standalone="no"?>
<!DOCTYPE svg PUBLIC "-//W3C//DTD SVG 1.1//EN" "http://www.w3.org/Graphics/SVG/1.1/DTD/svg11.dtd">
<!-- Generated by Microsoft Visio, SVG Export Security-#4.svg Page-1 -->
<svg xmlns="http://www.w3.org/2000/svg" xmlns:xlink="http://www.w3.org/1999/xlink" xmlns:ev="http://www.w3.org/2001/xml-events"
		xmlns:v="http://schemas.microsoft.com/visio/2003/SVGExtensions/" width="0.864272in" height="0.782223in"
		viewBox="0 0 62.2276 56.32" xml:space="preserve" color-interpolation-filters="sRGB" class="st13">
	<title>MIS: Security and Governance</title>
	<desc>This package contains stencils that will represent Security and Governance</desc>
	<v:documentProperties v:langID="1033" v:metric="true" v:viewMarkup="false"/>

	<style type="text/css">
	<![CDATA[
		.st1 {fill:#c0ddf4;stroke:none;stroke-width:0.75}
		.st2 {fill:#546670;stroke:none;stroke-width:0.75}
		.st3 {fill:#30404d;stroke:none;stroke-width:0.75}
		.st4 {fill:#7cb65a;stroke:none;stroke-width:0.75}
		.st5 {fill:#ffffff;stroke:none;stroke-width:0.75}
		.st6 {fill:#182a37;stroke:none;stroke-width:0.75}
		.st7 {fill:#69994e;stroke:none;stroke-width:0.75}
		.st8 {fill:#efb252;stroke:none;stroke-width:0.75}
		.st9 {fill:#cc9547;stroke:none;stroke-width:0.75}
		.st10 {fill:#30404d;fill-opacity:0.5;stroke:none;stroke-width:0.75}
		.st11 {fill:#e7e7e7;stroke:none;stroke-width:0.75}
		.st12 {fill:none;stroke:#0078d4;stroke-width:3}
		.st13 {fill:none;fill-rule:evenodd;font-size:12px;overflow:visible;stroke-linecap:square;stroke-miterlimit:3}
	]]>
	</style>

	<g v:mID="0" v:index="1" v:groupContext="foregroundPage">
		<title>Page-1</title>
		<v:pageProperties v:drawingScale="1" v:pageScale="1" v:drawingUnits="0" v:shadowOffsetX="9" v:shadowOffsetY="-9"/>
		<g id="group5-1" transform="translate(0.75,-3)" v:mID="5" v:groupContext="group">
			<v:userDefs/>
			<title>Cloud Foundations/introduction-to-security</title>
			<desc>Created with Sketch.</desc>
			<g id="group6-2" v:mID="6" v:groupContext="group">
				<title>Cloud-Foundations/introduction-</title>
				<g id="group7-3" v:mID="7" v:groupContext="group">
					<title>Mask</title>
					<g id="shape8-4" v:mID="8" v:groupContext="shape" transform="translate(8.15758,7.10543E-15)">
						<title>path-1</title>
						<path d="M0 31.16 A25.1606 25.1606 -180 0 0 25.16 56.32 A25.1606 25.1606 -180 0 0 50.32 31.16 A25.1606 25.1606
									 -180 0 0 25.16 6 A25.1606 25.1606 -180 0 0 0 31.16 Z" class="st1"/>
					</g>
					<g id="group9-6" transform="translate(0,-7.04933)" v:mID="9" v:groupContext="group">
						<title>Sheet.9</title>
						<g id="shape10-7" v:mID="10" v:groupContext="shape" transform="translate(0,-3.57049)">
							<title>Fill-126</title>
							<path d="M0 43.65 L1.13 41.44 L24.32 54.1 L23.2 56.32 L0 43.65 Z" class="st2"/>
						</g>
						<g id="shape11-9" v:mID="11" v:groupContext="shape" transform="translate(2.81775E-13,-3.57049)">
							<title>Fill-127</title>
							<path d="M24.01 53.94 C23.69 54.21 23.41 54.53 23.21 54.93 L23.76 55.21 L23.2 56.32 L0 43.65 L0.56 42.55
										 L22.15 54.39 C22.42 54.53 22.75 54.45 22.93 54.2 C23.08 54 23.26 53.82 23.45 53.66 L24.01
										 53.94 Z" class="st3"/>
						</g>
						<g id="shape12-11" v:mID="12" v:groupContext="shape" transform="translate(25.9873,-5.20071)">
							<title>Fill-128</title>
							<path d="M4.46 51.89 L2.21 56.32 L0 55.19 L2.25 50.76 C2.35 50.56 2.51 50.4 2.68 50.28 L4.59 51.26 C4.6
										 51.47 4.56 51.69 4.46 51.89 Z" class="st2"/>
						</g>
						<g id="shape13-13" v:mID="13" v:groupContext="shape" transform="translate(27.0915,-5.20071)">
							<title>Fill-129</title>
							<path d="M3.49 51.26 C3.49 51.4 3.48 51.55 3.43 51.69 C3.41 51.76 3.39 51.82 3.35 51.89 L1.1 56.32 L0
										 55.76 L1.71 52.39 C1.85 52.11 1.76 51.78 1.51 51.6 C1.31 51.45 1.13 51.29 0.96 51.12 L1.15
										 50.76 C1.18 50.69 1.22 50.64 1.26 50.58 C1.54 50.87 1.87 51.13 2.25 51.32 L2.53 50.77 L3.49
										 51.26 Z" class="st3"/>
						</g>
						<g id="shape14-15" v:mID="14" v:groupContext="shape" transform="translate(46.2487,-9.6222)">
							<title>Fill-131</title>
							<path d="M5.03 49.52 C5.34 49.67 5.46 50.05 5.3 50.35 L2.49 55.89 C2.33 56.2 1.96 56.32 1.66 56.16 L0
										 55.32 L3.38 48.67 L5.03 49.52 Z" class="st2"/>
						</g>
						<g id="shape15-17" v:mID="15" v:groupContext="shape" transform="translate(26.7852,-9.26177)">
							<title>Fill-132</title>
							<path d="M7.56 53.75 C6.62 55.59 4.39 56.32 2.56 55.38 C0.73 54.45 0 52.2 0.93 50.37 L7.56 53.75 Z"
									class="st3"/>
						</g>
						<g id="shape16-19" v:mID="16" v:groupContext="shape" transform="translate(16.0777,-7.25456)">
							<title>Fill-133</title>
							<path d="M29.33 54.61 C28.71 55.83 27.21 56.32 25.99 55.7 L1.7 43.28 C0.49 42.66 0 41.15 0.62 39.93 L2.59
										 36.06 L31.3 50.73 L29.33 54.61 Z" class="st3"/>
						</g>
						<g id="shape17-21" v:mID="17" v:groupContext="shape" transform="translate(22.4295,4.26326E-14)">
							<title>Fill-134</title>
							<path d="M4.94 50 C6.47 50.78 7.07 52.65 6.3 54.18 C5.52 55.71 3.66 56.32 2.13 55.54 C0.61 54.76 0 52.89
										 0.78 51.36 C1.55 49.83 3.42 49.22 4.94 50 Z" class="st3"/>
						</g>
						<g id="shape18-23" v:mID="18" v:groupContext="shape" transform="translate(21.9174,-20.2232)">
							<title>Fill-137</title>
							<path d="M2.52 55.47 C2.21 56.08 1.46 56.32 0.85 56.01 C0.24 55.7 0 54.95 0.31 54.34 C0.62 53.72 1.37
										 53.48 1.98 53.79 C2.59 54.1 2.83 54.85 2.52 55.47 Z" class="st4"/>
						</g>
						<g id="shape19-25" v:mID="19" v:groupContext="shape" transform="translate(48.7383,-9.73725)">
							<title>Fill-138</title>
							<path d="M2.81 50.47 C3.42 50.78 3.29 52.27 2.51 53.8 C1.73 55.33 0.61 56.32 0 56.01 L2.81 50.47 Z"
									class="st5"/>
						</g>
						<g id="shape20-27" v:mID="20" v:groupContext="shape" transform="translate(16.7094,-12.6337)">
							<title>Fill-139</title>
							<path d="M30.66 56.11 L0.85 40.87 C0.24 40.56 0 39.81 0.31 39.2 L3.4 33.11 C3.72 32.49 4.46 32.25 5.07
										 32.56 L38.2 49.5 C38.59 49.7 38.84 50.09 38.87 50.53 C38.9 50.96 38.69 51.38 38.33 51.63
										 L31.93 56.03 C31.55 56.29 31.07 56.32 30.66 56.11 Z" class="st2"/>
						</g>
						<g id="shape21-29" v:mID="21" v:groupContext="shape" transform="translate(26.177,-10.2817)">
							<title>Fill-140</title>
							<path d="M0.44 50.82 L9.27 55.34 L8.99 55.89 C8.83 56.2 8.46 56.32 8.15 56.16 L0.43 52.21 C0.12 52.06
										 0 51.68 0.15 51.38 L0.44 50.82 Z" class="st6"/>
						</g>
						<g id="shape22-31" v:mID="22" v:groupContext="shape" transform="translate(22.0739,-20.2232)">
							<title>Fill-143</title>
							<path d="M2.22 54.12 C2.52 54.49 2.59 55.02 2.36 55.47 C2.05 56.08 1.31 56.32 0.7 56.01 C0.25 55.78 0
										 55.31 0.02 54.84 C0.13 54.97 0.26 55.09 0.42 55.17 C1.03 55.48 1.78 55.24 2.09 54.63 C2.17
										 54.47 2.21 54.29 2.22 54.12 Z" class="st7"/>
						</g>
						<g id="shape23-33" v:mID="23" v:groupContext="shape" transform="translate(18.5503,-21.9526)">
							<title>Sheet.23</title>
							<path d="M2.52 55.47 C2.21 56.08 1.46 56.32 0.85 56.01 C0.24 55.7 0 54.95 0.31 54.34 C0.62 53.72 1.37
										 53.48 1.98 53.79 C2.59 54.1 2.83 54.85 2.52 55.47 Z" class="st8"/>
						</g>
						<g id="shape24-35" v:mID="24" v:groupContext="shape" transform="translate(18.7076,-21.9526)">
							<title>Sheet.24</title>
							<path d="M2.22 54.12 C2.52 54.49 2.59 55.02 2.36 55.47 C2.05 56.08 1.31 56.32 0.7 56.01 C0.25 55.78 0
										 55.31 0.02 54.84 C0.13 54.97 0.26 55.09 0.42 55.17 C1.03 55.48 1.78 55.24 2.09 54.63 C2.17
										 54.47 2.21 54.29 2.22 54.12 Z" class="st9"/>
						</g>
						<g id="shape25-37" v:mID="25" v:groupContext="shape" transform="translate(16.4426,-7.25456)">
							<title>Fill-144</title>
							<path d="M12.94 47.82 C13.55 48.13 14.3 47.89 14.61 47.27 L15.45 45.61 C15.76 45 15.52 44.25 14.91 43.94
										 L1.66 37.17 L2.22 36.06 L30.93 50.73 L28.96 54.61 C28.34 55.83 26.84 56.32 25.63 55.7 L1.34
										 43.28 C0.53 42.87 0.05 42.05 0 41.2 L12.94 47.82 Z" class="st6"/>
						</g>
						<g id="shape26-39" v:mID="26" v:groupContext="shape" transform="translate(27.5186,-9.26177)">
							<title>Fill-145</title>
							<path d="M3.51 52.06 L6.82 53.75 C5.89 55.59 3.65 56.32 1.82 55.38 C0.93 54.93 0.3 54.16 0 53.28 C0.26
										 53.55 0.55 53.81 0.87 54.06 C1.48 54.52 2.37 54.31 2.72 53.62 L3.51 52.06 Z" class="st6"/>
						</g>
						<g id="shape27-41" v:mID="27" v:groupContext="shape" transform="translate(23.0194,-0.0627197)">
							<title>Fill-147</title>
							<path d="M3.9 55.79 C2.28 56.32 0.53 55.43 0 53.79 L5.89 51.87 C6.42 53.51 5.53 55.26 3.9 55.79 Z"
									class="st6"/>
						</g>
						<g id="shape28-43" v:mID="28" v:groupContext="shape" transform="translate(24.5518,-2.12986)">
							<title>Fill-148</title>
							<path d="M1.98 53.79 C2.59 54.1 2.83 54.85 2.52 55.47 C2.21 56.08 1.46 56.32 0.85 56.01 C0.24 55.7 0
										 54.95 0.31 54.34 C0.62 53.72 1.37 53.48 1.98 53.79 Z" class="st3"/>
						</g>
						<g id="shape29-45" v:mID="29" v:groupContext="shape" transform="translate(24.7606,-2.72793)">
							<title>Fill-149</title>
							<path d="M1.49 54.94 C0.97 54.68 0.37 54.82 0 55.23 C0.02 55.13 0.05 55.03 0.1 54.93 C0.41 54.32 1.16
										 54.08 1.77 54.39 C2.38 54.7 2.62 55.45 2.31 56.06 C2.26 56.16 2.2 56.24 2.13 56.32 C2.25
										 55.78 2 55.21 1.49 54.94 Z" class="st6"/>
						</g>
						<g id="shape30-47" v:mID="30" v:groupContext="shape" transform="translate(16.7094,-12.6337)">
							<title>Fill-150</title>
							<path d="M30.66 56.11 L0.85 40.87 C0.24 40.56 0 39.81 0.31 39.2 L15.77 47.1 C16.38 47.41 17.12 47.17
										 17.44 46.56 L19.4 42.68 C19.72 42.07 20.46 41.83 21.07 42.14 L38.74 51.17 C38.64 51.35 38.51
										 51.51 38.33 51.63 L31.93 56.03 C31.55 56.29 31.07 56.32 30.66 56.11 Z" class="st10"/>
						</g>
						<g id="shape31-49" v:mID="31" v:groupContext="shape" transform="translate(48.7383,-9.82616)">
							<title>Fill-151</title>
							<path d="M0 56.1 L1.41 53.33 C2.04 53.65 2.22 54.48 1.78 55.05 C1.14 55.88 0.44 56.32 0 56.1 Z"
									class="st11"/>
						</g>
					</g>
				</g>
				<g id="shape32-51" v:mID="32" v:groupContext="shape" transform="translate(8.15758,7.10543E-15)">
					<title>Sheet.32</title>
					<path d="M0 31.16 A25.1606 25.1606 -180 0 0 25.16 56.32 A25.1606 25.1606 -180 0 0 50.32 31.16 A25.1606 25.1606
								 -180 0 0 25.16 6 A25.1606 25.1606 -180 0 0 0 31.16 Z" class="st12"/>
				</g>
			</g>
		</g>
	</g>
</svg>
