<?xml version="1.0" encoding="UTF-8" standalone="no"?>
<!DOCTYPE svg PUBLIC "-//W3C//DTD SVG 1.1//EN" "http://www.w3.org/Graphics/SVG/1.1/DTD/svg11.dtd">
<!-- Generated by Microsoft Visio, SVG Export Security-Baselines.svg Page-1 -->
<svg xmlns="http://www.w3.org/2000/svg" xmlns:xlink="http://www.w3.org/1999/xlink" xmlns:ev="http://www.w3.org/2001/xml-events"
		xmlns:v="http://schemas.microsoft.com/visio/2003/SVGExtensions/" width="1.67407in" height="1.76139in"
		viewBox="0 0 120.533 126.82" xml:space="preserve" color-interpolation-filters="sRGB" class="st6">
	<title>MIS: Enterprise Mobility and Security</title>
	<desc>This package contains stencils that will represent Enterprise Mobility and Security</desc>
	<v:documentProperties v:langID="1033" v:metric="true" v:viewMarkup="false"/>

	<style type="text/css">
	<![CDATA[
		.st1 {fill:#7fba00;stroke:none;stroke-width:38.25}
		.st2 {fill:#b8d432;fill-opacity:0.4;stroke:none;stroke-width:38.25}
		.st3 {fill:#ffffff;stroke:none;stroke-width:38.25}
		.st4 {fill:#3898c6;stroke:none;stroke-width:38.25}
		.st5 {fill:#3999c6;stroke:none;stroke-width:38.25}
		.st6 {fill:none;fill-rule:evenodd;font-size:12px;overflow:visible;stroke-linecap:square;stroke-miterlimit:3}
	]]>
	</style>

	<g v:mID="0" v:index="1" v:groupContext="foregroundPage">
		<title>Page-1</title>
		<v:pageProperties v:drawingScale="0.0393701" v:pageScale="0.0393701" v:drawingUnits="24" v:shadowOffsetX="9"
				v:shadowOffsetY="-9"/>
		<g id="group5-1" transform="translate(38.25,-38.25)" v:mID="5" v:groupContext="group">
			<title>Sheet.5</title>
			<g id="group6-2" v:mID="6" v:groupContext="group">
				<title>Sheet.6</title>
				<g id="shape7-3" v:mID="7" v:groupContext="shape" transform="translate(2.21823E-13,-9.43245)">
					<title>Sheet.7</title>
					<path d="M26.76 90.81 C17.31 89.81 15.73 85.93 15.73 85.93 C15.73 85.93 13.6 91.04 0 91.04 L0 111.98 C0 114.51
								 1.48 116.88 3.52 118.96 C8.16 123.66 15.73 126.82 15.73 126.82 C15.73 126.82 31.45 120.26 31.45
								 111.98 L31.45 91.04 C29.7 91.04 28.15 90.95 26.76 90.81 Z" class="st1"/>
				</g>
				<g id="shape8-5" v:mID="8" v:groupContext="shape" transform="translate(-2.17826E-13,-17.2954)">
					<title>Sheet.8</title>
					<path d="M19.62 107.32 L26.76 98.67 C17.31 97.68 15.73 93.8 15.73 93.8 C15.73 93.8 13.6 98.9 0 98.9 L0 119.84
								 C0 122.38 1.48 124.75 3.52 126.82 L8.8 120.42 L19.62 107.32 Z" class="st2"/>
				</g>
				<g id="shape9-7" v:mID="9" v:groupContext="shape" transform="translate(18.8712,-2.99737)">
					<title>Sheet.9</title>
					<path d="M0 104.65 L22.02 104.65 L22.02 126.67 L0.07 126.82 L0 104.65 Z" class="st3"/>
				</g>
				<g id="shape10-9" v:mID="10" v:groupContext="shape" transform="translate(22.0164,-6.2904)">
					<title>Sheet.10</title>
					<path d="M6.29 111.09 L15.73 111.09 L15.73 114.24 L6.29 114.24 L6.29 111.09 ZM6.29 117.38 L15.73 117.38 L15.73
								 120.53 L6.29 120.53 L6.29 117.38 ZM6.29 123.67 L15.73 123.67 L15.73 126.82 L6.29 126.82 L6.29 123.67
								 ZM0 111.09 L3.15 111.09 L3.15 114.24 L0 114.24 L0 111.09 ZM0 117.38 L3.15 117.38 L3.15 120.53 L0
								 120.53 L0 117.38 ZM0 123.67 L3.15 123.67 L3.15 126.82 L0 126.82 L0 123.67 Z" class="st4"/>
				</g>
				<g id="shape11-11" v:mID="11" v:groupContext="shape" transform="translate(15.726,0)">
					<title>Sheet.11</title>
					<path d="M27.22 95.37 L1.09 95.37 A1.08509 1.08509 -180 0 0 -0 96.45 L0 125.74 C0 126.34 0.49 126.82 1.09 126.82
								 L27.21 126.82 A1.08824 1.08824 -180 0 0 28.31 125.73 L28.31 96.45 A1.08509 1.08509 -180 0 0 27.22
								 95.37 ZM3.15 123.67 L3.15 101.66 L25.16 101.66 L25.16 123.67 L3.15 123.67 Z" class="st5"/>
				</g>
			</g>
		</g>
	</g>
</svg>
