<svg viewBox="0 0 18 18" class="" role="presentation" focusable="false" xmlns:svg="http://www.w3.org/2000/svg" xmlns:xlink="http://www.w3.org/1999/xlink" id="FxSymbol0-045" data-type="1"><g><title>Icon-manage-321</title><path d="M5.59 13.13h4.32V17a.5.5 0 0 1-.5.5H5.59zm-4.44 4.32h3.72v-4.32H.55v3.72a.6.6 0 0 0 .6.6zm-.6-5h4.32V8.09H1.05a.5.5 0 0 0-.5.5z" fill="url(#beb91629-a2bd-40af-be99-914b769571a4)"></path><path d="M11.5.55a5.89 5.89 0 0 1 5.95 6 5.89 5.89 0 0 1-5.95 5.95H5.55v-6A5.89 5.89 0 0 1 11.5.55z" fill-rule="evenodd" fill="url(#b166d928-c1e7-4c12-bb3f-f2e4856c02db)"></path><path d="M15.16 3.24a1 1 0 0 0-1 1 1 1 0 0 0 .22.62l-1.67 2.99h-.13a1 1 0 0 0-.53.16l-1.29-1.32a1 1 0 0 0 .08-.39 1 1 0 1 0-2.05 0 1 1 0 0 0 .13.48L7.75 8.32a1.26 1.26 0 0 0-.28 0 1 1 0 1 0 1 1 1 1 0 0 0-.13-.47L9.57 7.3a1 1 0 0 0 .25 0 1.05 1.05 0 0 0 .36-.08l1.41 1.48a1.1 1.1 0 0 0 0 .18 1 1 0 0 0 2 0 1.1 1.1 0 0 0-.2-.6l1.67-3h.1a1 1 0 0 0 1-1 1 1 0 0 0-1-1.04z" class="msportalfx-svg-c01" fill="#ffffff"></path></g><defs>
<linearGradient id="beb91629-a2bd-40af-be99-914b769571a4" x1="-6941.93" y1="-2082.96" x2="-6941.93" y2="-2101.68" gradientTransform="matrix(.5 0 0 -.5 3476.4 -1033.45)" gradientUnits="userSpaceOnUse"><stop offset="0" stop-color="#5ea0ef"></stop><stop offset=".18" stop-color="#589eed"></stop><stop offset=".41" stop-color="#4897e9"></stop><stop offset=".66" stop-color="#2e8ce1"></stop><stop offset=".94" stop-color="#0a7cd7"></stop><stop offset="1" stop-color="#0078d4"></stop></linearGradient>
<linearGradient id="b166d928-c1e7-4c12-bb3f-f2e4856c02db" x1="11.5" y1="12.45" x2="11.5" y2=".55" gradientUnits="userSpaceOnUse"><stop offset="0" stop-color="#198ab3"></stop><stop offset=".24" stop-color="#22a5cb"></stop><stop offset=".53" stop-color="#2bbfe2"></stop><stop offset=".79" stop-color="#30cff0"></stop><stop offset="1" stop-color="#32d4f5"></stop></linearGradient>
</defs>
</svg>