<svg viewBox="0 0 18 18" class="" role="presentation" focusable="false" xmlns="http://www.w3.org/2000/svg" xmlns:xlink="http://www.w3.org/1999/xlink" id="FxSymbol0-178" data-type="1"><g><path d="M17.767 9.812a3.941 3.941 0 0 0-3.419-3.787 4.965 4.965 0 0 0-5.114-4.748A5.094 5.094 0 0 0 4.366 4.6 4.7 4.7 0 0 0 .233 9.12 4.771 4.771 0 0 0 5.17 13.7c.147 0 .292-.007.435-.018H13.6a.822.822 0 0 0 .211-.032 3.987 3.987 0 0 0 3.956-3.838Z" fill="url(#59616712-f700-4139-92c6-bd98d17f0347)"></path><path d="M12.5 9.127a1.446 1.446 0 0 0 0-2.041L10.017 4.6a1.437 1.437 0 0 0-2.036 0L5.5 7.086a1.446 1.446 0 0 0 0 2.041L7.565 11.2a.4.4 0 0 1 .118.286v3.85a.492.492 0 0 0 .144.348l.941.944a.325.325 0 0 0 .461 0l.913-.915V15.7l.538-.538a.188.188 0 0 0 0-.266l-.387-.389a.205.205 0 0 1 0-.29l.387-.389a.187.187 0 0 0 0-.266l-.387-.389a.205.205 0 0 1 0-.29l.388-.389a.189.189 0 0 0 0-.266l-.539-.541v-.2ZM9 5.2a.82.82 0 1 1-.817.819A.817.817 0 0 1 9 5.2Z" fill="url(#59616712-f700-4139-92c6-bd98d17f0348)"></path><path d="M8.353 15.418a.176.176 0 0 0 .3-.134v-3.116a.186.186 0 0 0-.081-.154.176.176 0 0 0-.272.154v3.116a.186.186 0 0 0 .053.134ZM7.23 7.916h3.642a.22.22 0 0 1 .22.22v.042a.22.22 0 0 1-.22.22H7.23a.22.22 0 0 1-.22-.22v-.041a.221.221 0 0 1 .221-.221Zm0 .784h3.642a.22.22 0 0 1 .22.22v.041a.221.221 0 0 1-.221.221H7.23a.22.22 0 0 1-.22-.22v-.041a.221.221 0 0 1 .22-.221Z" fill="#0078d4" opacity=".75"></path></g><defs>
<linearGradient id="59616712-f700-4139-92c6-bd98d17f0347" x1="9" y1="13.704" x2="9" y2="1.277" gradientUnits="userSpaceOnUse"><stop offset="0" stop-color="#0078d4"></stop><stop offset=".817" stop-color="#5ea0ef"></stop></linearGradient>
<linearGradient id="59616712-f700-4139-92c6-bd98d17f0348" x1="8.999" y1="16.723" x2="8.999" y2="4.174" gradientUnits="userSpaceOnUse"><stop offset="0" stop-color="#32bedd"></stop><stop offset=".113" stop-color="#3ccce9"></stop><stop offset=".292" stop-color="#47dbf5"></stop><stop offset=".504" stop-color="#4ee3fd"></stop><stop offset=".834" stop-color="#50e6ff"></stop></linearGradient>
</defs>
</svg>