<?xml version="1.0" encoding="UTF-8" standalone="no"?>
<!DOCTYPE svg PUBLIC "-//W3C//DTD SVG 1.1//EN" "http://www.w3.org/Graphics/SVG/1.1/DTD/svg11.dtd">
<!-- Generated by Microsoft Visio, SVG Export Tags.svg Page-1 -->
<svg xmlns="http://www.w3.org/2000/svg" xmlns:xlink="http://www.w3.org/1999/xlink" xmlns:ev="http://www.w3.org/2001/xml-events"
		xmlns:v="http://schemas.microsoft.com/visio/2003/SVGExtensions/" width="1.0275in" height="1.01925in"
		viewBox="0 0 73.98 73.386" xml:space="preserve" color-interpolation-filters="sRGB" class="st4">
	<title>MIS: Security and Governance</title>
	<desc>This package contains stencils that will represent Security and Governance</desc>
	<v:documentProperties v:langID="1033" v:metric="true" v:viewMarkup="false"/>

	<style type="text/css">
	<![CDATA[
		.st1 {fill:#804998;stroke:none;stroke-width:12.24}
		.st2 {fill:#ffffff;fill-opacity:0.098;stroke:none;stroke-width:12.24}
		.st3 {fill:#1e1e1e;fill-opacity:0.3;stroke:none;stroke-width:12.24}
		.st4 {fill:none;fill-rule:evenodd;font-size:12px;overflow:visible;stroke-linecap:square;stroke-miterlimit:3}
	]]>
	</style>

	<g v:mID="0" v:index="1" v:groupContext="foregroundPage">
		<title>Page-1</title>
		<v:pageProperties v:drawingScale="1" v:pageScale="1" v:drawingUnits="0" v:shadowOffsetX="9" v:shadowOffsetY="-9"/>
		<g id="group5-1" transform="translate(12.24,-12.24)" v:mID="5" v:groupContext="group">
			<title>Sheet.5</title>
			<g id="group6-2" v:mID="6" v:groupContext="group">
				<title>Sheet.6</title>
				<g id="shape7-3" v:mID="7" v:groupContext="shape">
					<title>Sheet.7</title>
					<path d="M41.88 24.48 L28.31 24.97 L0 53.29 L20.1 73.39 L48.41 45.07 L49.5 32.1 L41.88 24.48 ZM42.97 34.97 C41.88
								 36.06 40.09 36.06 39.01 34.97 C37.92 33.88 37.92 32.1 39.01 31.01 C40.09 29.92 41.88 29.92 42.97
								 31.01 C44.05 32.1 44.05 33.88 42.97 34.97 Z" class="st1"/>
				</g>
				<g id="shape8-5" v:mID="8" v:groupContext="shape">
					<title>Sheet.8</title>
					<path d="M0 53.29 L20.1 73.39 L24.65 68.93 L24.65 28.64 L0 53.29 Z" class="st2"/>
				</g>
				<g id="shape9-7" v:mID="9" v:groupContext="shape" transform="translate(35.442,-34.848)">
					<title>Sheet.9</title>
					<path d="M9.21 64.18 C7.23 62.2 3.96 62.2 1.98 64.18 C0 66.16 0 69.43 1.98 71.41 C3.96 73.39 7.23 73.39 9.21
								 71.41 C11.19 69.43 11.19 66.16 9.21 64.18 ZM7.52 69.82 C6.43 70.91 4.65 70.91 3.56 69.82 C2.47 68.73
								 2.47 66.95 3.56 65.86 C4.65 64.77 6.43 64.77 7.52 65.86 C8.61 66.95 8.61 68.73 7.52 69.82 Z"
							class="st3"/>
				</g>
			</g>
		</g>
	</g>
</svg>
