<?xml version="1.0" encoding="UTF-8" standalone="no"?>
<!DOCTYPE svg PUBLIC "-//W3C//DTD SVG 1.1//EN" "http://www.w3.org/Graphics/SVG/1.1/DTD/svg11.dtd">
<!-- Generated by Microsoft Visio, SVG Export Threat-Protection.svg Page-1 -->
<svg xmlns="http://www.w3.org/2000/svg" xmlns:xlink="http://www.w3.org/1999/xlink" xmlns:ev="http://www.w3.org/2001/xml-events"
		xmlns:v="http://schemas.microsoft.com/visio/2003/SVGExtensions/" width="1.16273in" height="0.665608in"
		viewBox="0 0 83.7167 47.9238" xml:space="preserve" color-interpolation-filters="sRGB" class="st10">
	<title>MIS: Security and Governance</title>
	<desc>This package contains stencils that will represent Security and Governance</desc>
	<v:documentProperties v:langID="1033" v:metric="true" v:viewMarkup="false"/>

	<style type="text/css">
	<![CDATA[
		.st1 {fill:#2e2e2e;stroke:none;stroke-width:0.75}
		.st2 {fill:#e3e3e3;stroke:none;stroke-width:0.75}
		.st3 {fill:#5d5f5e;stroke:none;stroke-width:0.75}
		.st4 {fill:#ffffff;fill-opacity:0.75;stroke:none;stroke-width:0.75}
		.st5 {fill:#c7c7c7;stroke:none;stroke-width:0.75}
		.st6 {fill:#ec3948;stroke:none;stroke-width:0.75}
		.st7 {stroke:#ffffff;stroke-width:0.75}
		.st8 {fill:#60a860;stroke:none;stroke-width:0.75}
		.st9 {fill:#ffffff;stroke:none;stroke-width:0.75}
		.st10 {fill:none;fill-rule:evenodd;font-size:12px;overflow:visible;stroke-linecap:square;stroke-miterlimit:3}
	]]>
	</style>

	<g v:mID="0" v:index="1" v:groupContext="foregroundPage">
		<title>Page-1</title>
		<v:pageProperties v:drawingScale="0.0393701" v:pageScale="0.0393701" v:drawingUnits="24" v:shadowOffsetX="9"
				v:shadowOffsetY="-9"/>
		<g id="group5-1" transform="translate(0.75,-0.75)" v:mID="5" v:groupContext="group">
			<title>Threat Protection</title>
			<g id="shape6-2" v:mID="6" v:groupContext="shape" transform="translate(7.97312,-1.4973)">
				<title>path595</title>
				<path d="M65.88 47.92 L65.88 4.76 A1.76681 1.76681 -180 0 0 64.11 3 L1.77 3 A1.76681 1.76681 -180 0 0 -0 4.76 L0
							 47.92 L65.88 47.92 Z" class="st1"/>
			</g>
			<g id="shape7-4" v:mID="7" v:groupContext="shape" transform="translate(10.2191,-5.24055)">
				<title>rect597</title>
				<rect x="0" y="9.74263" width="61.3893" height="38.1811" class="st2"/>
			</g>
			<g id="shape8-6" v:mID="8" v:groupContext="shape">
				<title>path599</title>
				<path d="M79.26 47.92 L2.99 47.92 C0.45 47.92 0 44.18 0 44.18 L82.22 44.18 C82.22 44.18 81.23 47.92 79.26 47.92 Z"
						class="st1"/>
			</g>
			<g id="shape9-8" v:mID="9" v:groupContext="shape" transform="translate(40.9137,-44.1703)">
				<title>rect601</title>
				<rect x="0" y="47.1751" width="0.74865" height="0.74865" class="st3"/>
			</g>
			<g id="shape10-10" v:mID="10" v:groupContext="shape" transform="translate(44.1554,-17.7355)">
				<title>polygon603</title>
				<path d="M27.45 47.92 L27.45 22.24 L0 22.24 L27.45 47.92 Z" class="st4"/>
			</g>
			<g id="shape11-12" v:mID="11" v:groupContext="shape" transform="translate(49.1489,-14.2243)">
				<title>rect607</title>
				<rect x="0" y="46.4265" width="14.973" height="1.4973" class="st5"/>
			</g>
			<g id="shape12-14" v:mID="12" v:groupContext="shape" transform="translate(49.1489,-11.2297)">
				<title>rect609</title>
				<rect x="0" y="46.4265" width="20.2135" height="1.4973" class="st5"/>
			</g>
			<g id="shape13-16" v:mID="13" v:groupContext="shape" transform="translate(19.2029,-14.2243)">
				<title>rect613</title>
				<rect x="0" y="46.4265" width="14.973" height="1.4973" class="st5"/>
			</g>
			<g id="shape14-18" v:mID="14" v:groupContext="shape" transform="translate(19.2029,-11.2297)">
				<title>rect615</title>
				<rect x="0" y="46.4265" width="20.2135" height="1.4973" class="st5"/>
			</g>
			<g id="shape15-20" v:mID="15" v:groupContext="shape" transform="translate(49.1489,-35.9352)">
				<title>rect619</title>
				<rect x="0" y="46.4265" width="14.973" height="1.4973" class="st5"/>
			</g>
			<g id="shape16-22" v:mID="16" v:groupContext="shape" transform="translate(49.1489,-33.6892)">
				<title>rect621</title>
				<rect x="0" y="46.4265" width="20.2135" height="1.4973" class="st5"/>
			</g>
			<g id="shape17-24" v:mID="17" v:groupContext="shape" transform="translate(19.2029,-35.9352)">
				<title>rect625</title>
				<rect x="0" y="46.4265" width="14.973" height="1.4973" class="st5"/>
			</g>
			<g id="shape18-26" v:mID="18" v:groupContext="shape" transform="translate(19.2029,-33.6892)">
				<title>rect627</title>
				<rect x="0" y="46.4265" width="20.2135" height="1.4973" class="st5"/>
			</g>
			<g id="shape19-28" v:mID="19" v:groupContext="shape" transform="translate(49.1489,-24.7054)">
				<title>rect631</title>
				<rect x="0" y="46.4265" width="14.973" height="1.4973" class="st5"/>
			</g>
			<g id="shape20-30" v:mID="20" v:groupContext="shape" transform="translate(49.1489,-22.4595)">
				<title>rect633</title>
				<rect x="0" y="46.4265" width="20.2135" height="1.4973" class="st5"/>
			</g>
			<g id="shape21-32" v:mID="21" v:groupContext="shape" transform="translate(19.2029,-24.7054)">
				<title>rect637</title>
				<rect x="0" y="46.4265" width="14.973" height="1.4973" class="st5"/>
			</g>
			<g id="shape22-34" v:mID="22" v:groupContext="shape" transform="translate(19.2029,-22.4595)">
				<title>rect639</title>
				<rect x="0" y="46.4265" width="20.2135" height="1.4973" class="st5"/>
			</g>
			<g id="group23-36" transform="translate(13.1845,-33.1625)" v:mID="23" v:groupContext="group">
				<title>Sheet.23</title>
				<g id="shape24-37" v:mID="24" v:groupContext="shape">
					<title>circle432</title>
					<ellipse cx="2.47429" cy="45.4495" rx="2.47429" ry="2.47429" class="st6"/>
				</g>
				<g id="shape25-39" v:mID="25" v:groupContext="shape" transform="translate(37.757,78.0105) rotate(135)">
					<title>line450</title>
					<path d="M0 47.92 L3.85 47.92" class="st7"/>
				</g>
				<g id="shape26-42" v:mID="26" v:groupContext="shape" transform="translate(-30.0174,80.7322) rotate(-135)">
					<title>line452</title>
					<path d="M0 47.92 L3.85 47.92" class="st7"/>
				</g>
			</g>
			<g id="group27-45" transform="translate(13.1845,-22.0822)" v:mID="27" v:groupContext="group">
				<title>Sheet.27</title>
				<g id="shape28-46" v:mID="28" v:groupContext="shape">
					<title>circle432</title>
					<ellipse cx="2.47429" cy="45.4495" rx="2.47429" ry="2.47429" class="st6"/>
				</g>
				<g id="shape29-48" v:mID="29" v:groupContext="shape" transform="translate(37.757,78.0105) rotate(135)">
					<title>line450</title>
					<path d="M0 47.92 L3.85 47.92" class="st7"/>
				</g>
				<g id="shape30-51" v:mID="30" v:groupContext="shape" transform="translate(-30.0174,80.7322) rotate(-135)">
					<title>line452</title>
					<path d="M0 47.92 L3.85 47.92" class="st7"/>
				</g>
			</g>
			<g id="group31-54" transform="translate(42.7929,-10.7731)" v:mID="31" v:groupContext="group">
				<title>Sheet.31</title>
				<g id="shape32-55" v:mID="32" v:groupContext="shape">
					<title>circle432</title>
					<ellipse cx="2.47429" cy="45.4495" rx="2.47429" ry="2.47429" class="st6"/>
				</g>
				<g id="shape33-57" v:mID="33" v:groupContext="shape" transform="translate(37.757,78.0105) rotate(135)">
					<title>line450</title>
					<path d="M0 47.92 L3.85 47.92" class="st7"/>
				</g>
				<g id="shape34-60" v:mID="34" v:groupContext="shape" transform="translate(-30.0174,80.7322) rotate(-135)">
					<title>line452</title>
					<path d="M0 47.92 L3.85 47.92" class="st7"/>
				</g>
			</g>
			<g id="group35-63" transform="translate(42.7763,-33.5901)" v:mID="35" v:groupContext="group">
				<title>Sheet.35</title>
				<g id="shape36-64" v:mID="36" v:groupContext="shape">
					<title>circle559</title>
					<ellipse cx="2.47429" cy="45.4495" rx="2.47429" ry="2.47429" class="st8"/>
				</g>
				<g id="shape37-66" v:mID="37" v:groupContext="shape" transform="translate(1.1148,-1.28388)">
					<title>polygon641</title>
					<path d="M0.92 47.92 L0 47.01 L0.31 46.7 L0.92 47.31 L2.46 45.77 L2.77 46.07 L0.92 47.92 Z" class="st9"/>
				</g>
			</g>
			<g id="group38-68" transform="translate(42.7929,-22.0739)" v:mID="38" v:groupContext="group">
				<title>Sheet.38</title>
				<g id="shape39-69" v:mID="39" v:groupContext="shape">
					<title>circle559</title>
					<ellipse cx="2.47429" cy="45.4495" rx="2.47429" ry="2.47429" class="st8"/>
				</g>
				<g id="shape40-71" v:mID="40" v:groupContext="shape" transform="translate(1.1148,-1.28388)">
					<title>polygon641</title>
					<path d="M0.92 47.92 L0 47.01 L0.31 46.7 L0.92 47.31 L2.46 45.77 L2.77 46.07 L0.92 47.92 Z" class="st9"/>
				</g>
			</g>
			<g id="group41-73" transform="translate(13.2012,-11.026)" v:mID="41" v:groupContext="group">
				<title>Sheet.41</title>
				<g id="shape42-74" v:mID="42" v:groupContext="shape">
					<title>circle559</title>
					<ellipse cx="2.47429" cy="45.4495" rx="2.47429" ry="2.47429" class="st8"/>
				</g>
				<g id="shape43-76" v:mID="43" v:groupContext="shape" transform="translate(1.1148,-1.28388)">
					<title>polygon641</title>
					<path d="M0.92 47.92 L0 47.01 L0.31 46.7 L0.92 47.31 L2.46 45.77 L2.77 46.07 L0.92 47.92 Z" class="st9"/>
				</g>
			</g>
		</g>
	</g>
</svg>
