<?xml version="1.0" encoding="UTF-8" standalone="no"?>
<!DOCTYPE svg PUBLIC "-//W3C//DTD SVG 1.1//EN" "http://www.w3.org/Graphics/SVG/1.1/DTD/svg11.dtd">
<!-- Generated by Microsoft Visio, SVG Export Threats.svg Page-1 -->
<svg xmlns="http://www.w3.org/2000/svg" xmlns:xlink="http://www.w3.org/1999/xlink" xmlns:ev="http://www.w3.org/2001/xml-events"
		xmlns:v="http://schemas.microsoft.com/visio/2003/SVGExtensions/" width="0.719127in" height="0.719128in"
		viewBox="0 0 51.7771 51.7772" xml:space="preserve" color-interpolation-filters="sRGB" class="st3">
	<title>MIS: Security and Governance</title>
	<desc>This package contains stencils that will represent Security and Governance</desc>
	<v:documentProperties v:langID="1033" v:metric="true" v:viewMarkup="false"/>

	<style type="text/css">
	<![CDATA[
		.st1 {fill:#525252;stroke:none;stroke-width:0.75}
		.st2 {fill:#b00000;stroke:none;stroke-width:0.75}
		.st3 {fill:none;fill-rule:evenodd;font-size:12px;overflow:visible;stroke-linecap:square;stroke-miterlimit:3}
	]]>
	</style>

	<g v:mID="0" v:index="1" v:groupContext="foregroundPage">
		<title>Page-1</title>
		<v:pageProperties v:drawingScale="0.0393701" v:pageScale="0.0393701" v:drawingUnits="24" v:shadowOffsetX="9"
				v:shadowOffsetY="-9"/>
		<g id="group5-1" transform="translate(0.75,-0.75)" v:mID="5" v:groupContext="group">
			<title>Sheet.5</title>
			<g id="shape6-2" v:mID="6" v:groupContext="shape" transform="translate(4.25051,1.06581E-13)">
				<title>path755</title>
				<path d="M41.86 40.53 C41.52 39.76 39.97 37.82 33.79 36.19 L31.56 38.6 C31.34 38.81 31.09 38.9 30.83 38.9 C30.57
							 38.9 30.36 38.81 30.14 38.64 C29.75 38.25 29.71 37.65 30.1 37.22 L36.15 30.78 C34.61 30.31 32.54 30.09
							 31.39 30.05 C31.04 31.51 30.44 33.06 29.41 34.3 C27.22 36.96 24 40.14 20.91 40.14 C17.86 40.14 14.6
							 36.96 12.41 34.3 C11.38 33.06 10.78 31.55 10.43 30.05 C9.27 30.14 7.26 30.35 5.8 30.78 L11.85 37.22
							 C12.24 37.61 12.19 38.25 11.81 38.64 C11.64 38.81 11.38 38.9 11.12 38.9 C10.86 38.9 10.6 38.81 10.39
							 38.6 L8.16 36.19 C1.55 37.95 0.26 40.01 0 40.7 C4.51 47.4 12.19 51.78 20.82 51.78 C29.63 51.78 37.31
							 47.31 41.86 40.53 L41.86 40.53 Z" class="st1"/>
			</g>
			<g id="shape7-4" v:mID="7" v:groupContext="shape" transform="translate(9.18813,-26.7486)">
				<title>path761</title>
				<path d="M0.3 44.78 C0.09 44.99 0 45.25 0 45.51 C0.09 47.7 5.67 51.78 16.01 51.78 C26.36 51.78 31.94 47.7 32.03 45.51
							 C32.03 45.21 31.94 44.99 31.73 44.78 C30.78 43.79 28.29 43.45 26.83 43.36 C27.01 44.18 27.14 44.86 27.22
							 45.34 C27.31 45.9 26.96 46.41 26.41 46.5 C26.36 46.5 26.28 46.5 26.23 46.5 C25.76 46.5 25.33 46.15 25.25
							 45.68 C24.22 40.06 22.5 34.9 21.51 34.47 C20.52 34.04 19.75 34.39 18.51 34.9 C17.65 35.29 16.79 35.68
							 15.8 35.68 C14.81 35.68 13.95 35.29 13.1 34.9 C11.85 34.35 11.08 34.04 10.09 34.47 C9.06 34.9 7.34 40.06
							 6.35 45.68 C6.27 46.24 5.75 46.58 5.2 46.5 C4.64 46.41 4.29 45.9 4.38 45.34 C4.47 44.86 4.59 44.18 4.77
							 43.36 C3.09 43.53 1.07 43.96 0.3 44.78 Z" class="st1"/>
			</g>
			<g id="shape8-6" v:mID="8" v:groupContext="shape" transform="translate(16.2295,-13.6104)">
				<title>path763</title>
				<path d="M1.98 46.67 C4.64 49.93 7.17 51.78 8.93 51.78 C10.69 51.78 13.22 49.93 15.89 46.67 C17.65 44.52 17.86 41.22
							 17.86 39.5 C15.28 40.18 12.28 40.61 8.93 40.61 C5.58 40.61 2.58 40.18 0 39.5 C0 41.22 0.26 44.52 1.98
							 46.67 Z" class="st1"/>
			</g>
			<g id="shape9-8" v:mID="9" v:groupContext="shape" transform="translate(-3.03757E-13,-13.0094)">
				<title>path765</title>
				<path d="M0 39.63 C0 44.01 1.16 48.17 3.13 51.78 C4.16 50.49 6.31 48.9 10.91 47.57 L7.64 44.13 C7.43 43.92 7.34 43.62
							 7.38 43.32 C7.43 43.02 7.6 42.76 7.86 42.59 C9.62 41.56 12.88 41.22 14.38 41.13 C14.25 39.93 14.25 38.9
							 14.25 38.3 C9.92 36.71 7.26 34.26 7.17 31.9 C7.13 31.08 7.43 30.31 8.03 29.71 C9.57 28.12 12.88 27.78
							 14.38 27.69 C15.24 24.17 16.66 19.79 18.46 19.02 C20.31 18.2 21.81 18.93 23.06 19.49 C23.74 19.79 24.39
							 20.09 24.95 20.09 C25.5 20.09 26.15 19.79 26.83 19.49 C28.08 18.93 29.63 18.24 31.43 19.02 C33.23 19.79
							 34.61 24.13 35.51 27.69 C36.62 27.73 40.57 27.95 42.29 29.71 C42.89 30.31 43.19 31.08 43.15 31.9 C43.06
							 34.26 40.4 36.71 36.07 38.3 C36.11 38.94 36.11 39.97 35.98 41.13 C37.44 41.22 40.79 41.56 42.59 42.63
							 C42.85 42.8 43.02 43.06 43.06 43.36 C43.11 43.66 43.02 43.96 42.81 44.18 L39.54 47.61 C44.01 48.9 46.16
							 50.45 47.23 51.69 C49.16 48.13 50.28 44.01 50.28 39.67 C50.28 25.8 38.99 14.51 25.12 14.51 C11.25 14.47
							 0 25.76 0 39.63 L0 39.63 Z" class="st2"/>
			</g>
		</g>
	</g>
</svg>
