<svg viewBox="0 0 50 50" class="fxs-portal-svg" role="presentation" focusable="false" xmlns:svg="http://www.w3.org/2000/svg" xmlns:xlink="http://www.w3.org/1999/xlink" id="FxSymbol0-184" data-type="1"><g><title></title><path d="M31 37H19c1.571 5.8-.577 7-10 7v3h32v-3c-9.423 0-11.571-1.2-10-7z" class="msportalfx-svg-c03" fill="#a0a1a2"></path><path d="M46 4H3.7C2.2 4 1 5.4 1 6.9v28.3C1 36.7 2.2 38 3.7 38H46c1.5 0 3-1.3 3-2.8V6.9C49 5.4 47.5 4 46 4" class="msportalfx-svg-c03" fill="#a0a1a2"></path><path d="M45 34H5V8h40z" class="msportalfx-svg-c19" fill="#0072c6"></path><path opacity=".2" d="M38 4h8H3.7C2.2 4 1 5.4 1 6.9v28.3C1 36.7 2.2 38 3.7 38H8L38 4z" class="msportalfx-svg-c01" fill="#ffffff"></path><path opacity=".2" d="M9 44h32v3H9z"></path><path d="M24.754 30.672c4.287 0 8.039-3.39 8.396-7.673h-2.501c-.357 2.855-2.858 5.175-5.895 5.175-1.786 0-3.573-.892-4.466-2.32L22.967 23H16v7.494l2.501-2.855c1.608 1.784 3.752 3.033 6.253 3.033zm.503-15.855c1.786 0 3.573.892 4.466 2.32l-2.68 2.855h6.967v-7.494l-2.501 2.677c-1.429-1.784-3.752-2.855-6.253-2.855-4.466 0-8.039 3.39-8.396 7.673h2.501c.358-3.035 2.859-5.176 5.896-5.176z" class="msportalfx-svg-c01" fill="#ffffff"></path><path opacity=".15" d="M20 38h10v1H20z" class="msportalfx-svg-c06" fill="#1e1e1e"></path></g><defs>
<linearGradient id="a" x1="-1267.23" y1="3.07" x2="-1267.52" y2="14.64" gradientTransform="matrix(-1 0 0 1 -1256.13 0)" gradientUnits="userSpaceOnUse"><stop offset="0" stop-color="#32d4f5"></stop><stop offset=".23" stop-color="#31d0f1"></stop><stop offset=".46" stop-color="#2cc3e6"></stop><stop offset=".7" stop-color="#25afd4"></stop><stop offset=".94" stop-color="#1c92ba"></stop><stop offset="1" stop-color="#198ab3"></stop></linearGradient>
<linearGradient id="b" x1="6.4" y1="1.32" x2="7.21" y2="11.39"><stop offset=".22" stop-color="#32d4f5"></stop><stop offset=".47" stop-color="#31d1f3"></stop><stop offset=".63" stop-color="#2ec9eb"></stop><stop offset=".77" stop-color="#29bade"></stop><stop offset=".89" stop-color="#22a5cb"></stop><stop offset="1" stop-color="#198ab3"></stop><stop offset="1" stop-color="#198ab3"></stop></linearGradient>
<linearGradient id="c" x1="13.76" y1="18.05" x2="13.76" y2="10.25" gradientUnits="userSpaceOnUse"><stop offset="0" stop-color="#76bc2d"></stop><stop offset=".6" stop-color="#81ce31"></stop><stop offset=".82" stop-color="#86d633"></stop></linearGradient>
</defs>
</svg>