<?xml version="1.0" encoding="UTF-8" standalone="no"?>
<!DOCTYPE svg PUBLIC "-//W3C//DTD SVG 1.1//EN" "http://www.w3.org/Graphics/SVG/1.1/DTD/svg11.dtd">
<!-- Generated by Microsoft Visio, SVG Export User-Access-Permissions.svg Page-1 -->
<svg xmlns="http://www.w3.org/2000/svg" xmlns:xlink="http://www.w3.org/1999/xlink" xmlns:ev="http://www.w3.org/2001/xml-events"
		xmlns:v="http://schemas.microsoft.com/visio/2003/SVGExtensions/" width="1.78684in" height="1.23794in"
		viewBox="0 0 128.653 89.1317" xml:space="preserve" color-interpolation-filters="sRGB" class="st5">
	<v:documentProperties v:langID="1033" v:metric="true" v:viewMarkup="false"/>

	<style type="text/css">
	<![CDATA[
		.st1 {fill:#dddddd;stroke:none;stroke-linecap:round;stroke-linejoin:round;stroke-width:0.75}
		.st2 {fill:#ffffff;stroke:none;stroke-linecap:round;stroke-linejoin:round;stroke-width:0.75}
		.st3 {fill:#bbbbbb;stroke:none;stroke-linecap:round;stroke-linejoin:round;stroke-width:0.75}
		.st4 {fill:#107fc9;stroke:none;stroke-linecap:round;stroke-linejoin:round;stroke-width:0.75}
		.st5 {fill:none;fill-rule:evenodd;font-size:12px;overflow:visible;stroke-linecap:square;stroke-miterlimit:3}
	]]>
	</style>

	<g v:mID="0" v:index="1" v:groupContext="foregroundPage">
		<title>Page-1</title>
		<v:pageProperties v:drawingScale="0.0393701" v:pageScale="0.0393701" v:drawingUnits="24" v:shadowOffsetX="9"
				v:shadowOffsetY="-9"/>
		<g id="group1086-1" v:mID="1086" v:groupContext="group">
			<title>User Access Permissions</title>
			<g id="shape1087-2" v:mID="1087" v:groupContext="shape" transform="translate(0,-7.63779)">
				<title>Sheet.1087</title>
				<path d="M1.43 20.27 L103.77 20.27 C104.55 20.27 105.2 20.91 105.2 21.72 L105.2 87.68 C105.2 88.49 104.55 89.13 103.77
							 89.13 L1.43 89.13 C0.65 89.13 0 88.49 0 87.68 L0 21.72 C0 20.91 0.65 20.27 1.43 20.27 Z" class="st1"/>
			</g>
			<g id="shape1088-4" v:mID="1088" v:groupContext="shape" transform="translate(31.7223,-62.7387)">
				<title>Sheet.1088</title>
				<path d="M0.85 82.79 L38.78 82.79 C39.26 82.79 39.63 83.16 39.63 83.64 L39.63 88.28 C39.63 88.76 39.26 89.13 38.78
							 89.13 L0.85 89.13 C0.37 89.13 0 88.76 0 88.28 L0 83.64 C0 83.16 0.37 82.79 0.85 82.79 Z" class="st2"/>
			</g>
			<g id="shape1089-6" v:mID="1089" v:groupContext="shape" transform="translate(37.1473,-65.367)">
				<title>Sheet.1089</title>
				<path d="M3.38 71.96 C3.47 71.49 3.93 71.1 4.42 71.1 L26.48 71.1 C26.97 71.1 27.43 71.49 27.52 71.96 L30.86 88.28
							 C30.95 88.74 30.65 89.13 30.17 89.13 L0.73 89.13 C0.25 89.13 -0.08 88.74 0.02 88.28 L3.38 71.96 Z"
						class="st3"/>
			</g>
			<g id="shape1090-8" v:mID="1090" v:groupContext="shape" transform="translate(8.7144,-17.7127)">
				<title>Sheet.1090</title>
				<path d="M0 89.13 L0 85.65 C0 85.65 0.23 83.51 2.81 82.84 C2.81 82.84 6.94 81.32 10.19 79.91 C11.87 79.17 12.24 78.73
							 13.92 78 C13.92 78 14.11 77.12 14.04 76.59 L15.35 76.59 C15.35 76.59 15.68 76.77 15.35 74.72 C15.35
							 74.72 13.74 74.31 13.67 71.03 C13.67 71.03 12.47 71.45 12.38 69.47 C12.33 68.13 11.3 66.98 12.79 66.01
							 L12.03 63.96 C12.03 63.96 10.51 55.7 14.87 56.92 C13.05 54.71 25.27 52.52 26.07 59.48 C26.07 59.48 26.65
							 63.26 26.07 65.85 C26.07 65.85 27.85 65.64 26.67 69.07 C26.67 69.07 26 71.54 24.99 70.99 C24.99 70.99
							 25.17 74.12 23.58 74.65 C23.58 74.65 23.7 76.31 23.7 76.43 L25.2 76.66 C25.2 76.66 24.97 78.02 25.24
							 78.18 C25.24 78.18 27.04 79.4 29.16 79.96 C33.29 81.02 38.18 82.84 38.18 84.43 C38.18 84.43 38.59 86.55
							 38.59 89.13 L0 89.13 Z" class="st4"/>
			</g>
			<g id="shape1091-10" v:mID="1091" v:groupContext="shape" transform="translate(53.393,-30.4159)">
				<title>Sheet.1091</title>
				<path d="M0.85 82.24 L41.61 82.24 C42.1 82.24 42.47 82.63 42.47 83.11 L42.47 88.26 C42.47 88.74 42.1 89.13 41.61
							 89.13 L0.85 89.13 C0.39 89.13 0 88.74 0 88.26 L0 83.11 C0 82.63 0.39 82.24 0.85 82.24 Z" class="st3"/>
			</g>
			<g id="shape1092-12" v:mID="1092" v:groupContext="shape" transform="translate(53.393,-43.1421)">
				<title>Sheet.1092</title>
				<path d="M0.85 82.26 L41.61 82.26 C42.1 82.26 42.47 82.63 42.47 83.11 L42.47 88.28 C42.47 88.76 42.1 89.13 41.61
							 89.13 L0.85 89.13 C0.39 89.13 0 88.76 0 88.28 L0 83.11 C0 82.63 0.39 82.26 0.85 82.26 Z" class="st3"/>
			</g>
			<g id="shape1093-14" v:mID="1093" v:groupContext="shape" transform="translate(53.393,-18.243)">
				<title>Sheet.1093</title>
				<path d="M0.85 82.24 L41.61 82.24 C42.1 82.24 42.47 82.63 42.47 83.11 L42.47 88.28 C42.47 88.74 42.1 89.13 41.61
							 89.13 L0.85 89.13 C0.39 89.13 0 88.74 0 88.28 L0 83.11 C0 82.63 0.39 82.24 0.85 82.24 Z" class="st3"/>
			</g>
			<g id="shape1094-16" v:mID="1094" v:groupContext="shape" transform="translate(81.0866,2.84217E-14)">
				<title>Sheet.1094</title>
				<path d="M11.22 43.89 L11.2 78.4 L20.65 87.88 L20.65 87.88 C22.38 89.59 25.26 89.59 26.97 87.86 L32.22 82.6 L28.03
							 78.4 L32.25 74.19 L28.03 69.99 L32.25 65.77 L28.03 61.57 L32.25 57.38 L32.25 45.87 L32.25 45.87 C35.29
							 44.72 38.15 42.92 40.62 40.48 C49.88 31.21 49.88 16.09 40.62 6.82 C31.3 -2.49 16.25 -2.43 6.98 6.84
							 C-2.29 16.11 -2.36 31.17 6.96 40.5 C8.27 41.82 9.7 42.95 11.22 43.89 ZM30.24 24.18 C26.69 27.73 21.02
							 27.73 17.49 24.18 C14.06 20.77 14.08 15.12 17.63 11.57 C21.04 8.16 26.69 8.16 30.1 11.57 C33.65 15.12
							 33.65 20.77 30.24 24.18 Z" class="st4"/>
			</g>
		</g>
	</g>
</svg>
