<svg viewBox="0 0 18 18" class="" role="presentation" focusable="false" xmlns:svg="http://www.w3.org/2000/svg" xmlns:xlink="http://www.w3.org/1999/xlink" id="FxSymbol0-118" data-type="1"><g><title>Icon-identity-230</title><path d="M15.72 18a1.45 1.45 0 0 0 1.45-1.45.47.47 0 0 0 0-.17C16.59 11.81 14 8.09 9 8.09s-7.66 3.15-8.17 8.3A1.46 1.46 0 0 0 2.14 18h13.58z" fill="url(#be92901b-ec33-4c65-adf1-9b0eed06d677)"></path><path d="M9 9.17a4.59 4.59 0 0 1-2.48-.73L9 14.86l2.44-6.38A4.53 4.53 0 0 1 9 9.17z" opacity=".8" class="msportalfx-svg-c01" fill="#ffffff"></path><circle cx="9.01" cy="4.58" r="4.58" fill="url(#b46fc246-25d8-4398-8779-1042e8cacae7)"></circle></g><defs>
<linearGradient id="be92901b-ec33-4c65-adf1-9b0eed06d677" x1="9" y1="6.88" x2="9" y2="20.45" gradientUnits="userSpaceOnUse"><stop offset=".22" stop-color="#32d4f5"></stop><stop offset="1" stop-color="#198ab3"></stop></linearGradient>
<linearGradient id="b46fc246-25d8-4398-8779-1042e8cacae7" x1="8.61" y1="-.4" x2="9.6" y2="11.92" gradientUnits="userSpaceOnUse"><stop offset=".22" stop-color="#32d4f5"></stop><stop offset="1" stop-color="#198ab3"></stop></linearGradient>
</defs>
</svg>