<svg viewBox="0 0 50 50" class="" role="presentation" focusable="false" xmlns:svg="http://www.w3.org/2000/svg" xmlns:xlink="http://www.w3.org/1999/xlink" id="FxSymbol0-0cd" data-type="1"><g><title></title><path d="M28.969 8c0 4.363-3.568 7.9-7.969 7.9s-7.968-3.537-7.968-7.9S16.599.1 21 .1s7.969 3.537 7.969 7.9m-2.033 11L21 27.11 15.064 19H6.501v20H35.5V19z" class="msportalfx-svg-c16" fill="#3999c6"></path><path opacity=".2" d="M13.032 8c0 4.298 3.463 7.787 7.773 7.891L22.806.313A7.95 7.95 0 0 0 21 .1c-4.401 0-7.968 3.537-7.968 7.9m2.034 11H6.5v20h11.371l1.793-13.716z" class="msportalfx-svg-c01" fill="#ffffff"></path><path opacity=".4" d="M35.5 39V25.682C33.383 24.493 33 23 33 23s-1 4.121-9 4.121h-1V39h12.5z" class="msportalfx-svg-c01" fill="#ffffff"></path><path d="M39.314 27.98C33.905 27.372 33 25 33 25s-1.217 3.121-9 3.121v12.805c0 1.548.845 2.998 2.015 4.266C28.668 48.066 33 50 33 50s9-4.014 9-9.074V28.121c-1.001 0-1.891-.052-2.686-.141z" class="msportalfx-svg-c14" fill="#57a300"></path><path opacity=".4" d="M35.226 33.271l4.088-5.291C33.905 27.372 33 25 33 25s-1.217 3.121-9 3.121v12.805c0 1.548.845 2.998 2.015 4.266l3.022-3.911 6.189-8.01z" class="msportalfx-svg-c13" fill="#b8d432"></path></g><defs>
<linearGradient id="a" x1="9" y1="16.39" x2="9" y2="-1.94" gradientUnits="userSpaceOnUse"><stop offset="0" stop-color="#0078d4"></stop><stop offset=".16" stop-color="#1380da"></stop><stop offset=".53" stop-color="#3c91e5"></stop><stop offset=".82" stop-color="#559cec"></stop><stop offset="1" stop-color="#5ea0ef"></stop></linearGradient>
<linearGradient id="b" x1="9.88" y1="7.11" x2="9.99" y2="17.27" gradientUnits="userSpaceOnUse"><stop offset="0" stop-color="#32d4f5"></stop><stop offset=".32" stop-color="#31d1f3"></stop><stop offset=".53" stop-color="#2ec9eb"></stop><stop offset=".7" stop-color="#29bade"></stop><stop offset=".86" stop-color="#22a5cb"></stop><stop offset="1" stop-color="#198ab3"></stop><stop offset="1" stop-color="#198ab3"></stop></linearGradient>
<radialGradient id="c" cx="9.43" cy="7.03" r="7.27" gradientUnits="userSpaceOnUse"><stop offset="0" stop-color="#f2f2f2"></stop><stop offset=".58" stop-color="#eee"></stop><stop offset="1" stop-color="#e6e6e6"></stop></radialGradient>
</defs>
</svg>