<svg viewBox="0 0 32 32" class="" role="presentation" focusable="false" xmlns="http://www.w3.org/2000/svg" xmlns:xlink="http://www.w3.org/1999/xlink" id="FxSymbol0-124" data-type="1"><g><title></title><path fill="url(#955724ae-8582-4ca1-9b57-4284a5f54164)" d="M21.06 0H1.07C.48 0 0 .48 0 1.07v28.954c0 .591.48 1.07 1.07 1.07h19.99a1.07 1.07 0 0 0 1.07-1.07V1.07c0-.59-.479-1.07-1.07-1.07z"></path><path fill="#773ADC" d="M5.262 25.561h11.605c.31 0 .56-.25.56-.56v-1.148a.56.56 0 0 0-.56-.56H5.262a.56.56 0 0 0-.56.56v1.149c0 .309.25.56.56.56zm0-4.399h11.605c.31 0 .56-.25.56-.56v-1.148a.56.56 0 0 0-.56-.56H5.262a.56.56 0 0 0-.56.56v1.148c0 .31.25.56.56.56z"></path><path fill="url(#955724ae-8582-4ca1-9b57-4284a5f54165)" d="M15.63 16.32a.953.953 0 0 0 .987-.945.62.62 0 0 0 0-.117c-.391-3.11-2.158-5.624-5.526-5.624-3.367 0-5.21 2.14-5.577 5.6a.995.995 0 0 0 .89 1.087h9.225z"></path><path fill="#F2F2F2" d="M11.128 10.373a3.089 3.089 0 0 1-1.646-.496l1.646 4.353 1.665-4.322a3.165 3.165 0 0 1-1.665.465z"></path><path fill="url(#955724ae-8582-4ca1-9b57-4284a5f54166)" d="M11.108 10.373a3.111 3.111 0 1 0 0-6.223 3.111 3.111 0 0 0 0 6.223z"></path><path fill="url(#955724ae-8582-4ca1-9b57-4284a5f54167)" d="M24.378 16.278l.915.591c.235.152.51.232.79.233h1.097a1.463 1.463 0 0 1 1.33.855l.455.995c.117.255.304.471.54.622l.914.591a1.463 1.463 0 0 1 .657 1.438l-.155 1.083c-.041.277 0 .56.117.815l.453.995a1.463 1.463 0 0 1-.225 1.564l-.715.827a1.441 1.441 0 0 0-.342.75l-.157 1.083a1.463 1.463 0 0 1-1.035 1.194l-1.049.31c-.269.078-.51.232-.693.444l-.717.826a1.462 1.462 0 0 1-1.516.447l-1.05-.31a1.464 1.464 0 0 0-.823 0l-1.05.31a1.463 1.463 0 0 1-1.516-.447l-.717-.826a1.453 1.453 0 0 0-.694-.445l-1.05-.309a1.464 1.464 0 0 1-1.033-1.194l-.157-1.083a1.442 1.442 0 0 0-.342-.75l-.715-.827a1.463 1.463 0 0 1-.225-1.563l.453-.996c.117-.255.158-.538.117-.815l-.155-1.083a1.464 1.464 0 0 1 .657-1.438l.914-.59c.236-.152.423-.368.54-.622l.455-.995a1.463 1.463 0 0 1 1.33-.856h1.097c.28 0 .555-.081.79-.233l.915-.59a1.463 1.463 0 0 1 1.595 0z"></path><path fill="#B4EC36" d="M23.411 18.68a5.488 5.488 0 1 0 0 10.976 5.488 5.488 0 0 0 0-10.976z"></path><defs></defs></g><defs>
<linearGradient id="955724ae-8582-4ca1-9b57-4284a5f54164" x1="9.639" x2="12.491" y1="-.754" y2="31.848" gradientUnits="userSpaceOnUse"><stop offset=".5" stop-color="#B796F9"></stop><stop offset=".9" stop-color="#A67AF4"></stop></linearGradient>
<linearGradient id="955724ae-8582-4ca1-9b57-4284a5f54165" x1="10.566" x2="11.185" y1="9.65" y2="16.714" gradientUnits="userSpaceOnUse"><stop stop-color="#A67AF4"></stop><stop offset=".241" stop-color="#9065DB"></stop><stop offset=".748" stop-color="#653EAB"></stop><stop offset="1" stop-color="#552F99"></stop></linearGradient>
<linearGradient id="955724ae-8582-4ca1-9b57-4284a5f54166" x1="-122.427" x2="-120.579" y1="97.308" y2="118.402" gradientUnits="userSpaceOnUse"><stop stop-color="#A67AF4"></stop><stop offset=".241" stop-color="#9065DB"></stop><stop offset=".748" stop-color="#653EAB"></stop><stop offset="1" stop-color="#552F99"></stop></linearGradient>
<linearGradient id="955724ae-8582-4ca1-9b57-4284a5f54167" x1="23.588" x2="23.588" y1="32.008" y2="16.055" gradientUnits="userSpaceOnUse"><stop stop-color="#76BC2D"></stop><stop offset=".309" stop-color="#7AC22E"></stop><stop offset=".718" stop-color="#84D332"></stop><stop offset=".785" stop-color="#86D633"></stop></linearGradient>
</defs>
</svg>