<svg viewBox="0 0 18 18" data-islogo="true" class="" role="presentation" focusable="false" xmlns:svg="http://www.w3.org/2000/svg" xmlns:xlink="http://www.w3.org/1999/xlink" id="FxSymbol0-0d7" data-type="1"><g><title>Icon-networking-63</title><path d="M15.06 8.67h-1V5.59a5.81 5.81 0 0 0-1.49-3.92A4.79 4.79 0 0 0 8.91 0a4.79 4.79 0 0 0-3.7 1.67 5.73 5.73 0 0 0-1.49 3.92v3.08h-.81a.7.7 0 0 0-.69.69v8a.7.7 0 0 0 .69.69h12.15a.71.71 0 0 0 .7-.69v-8a.71.71 0 0 0-.7-.69zm-3.37 0H6.13V5.54A3.18 3.18 0 0 1 7 3.39a2.51 2.51 0 0 1 1.88-.86 2.54 2.54 0 0 1 1.89.86 3.19 3.19 0 0 1 .32.43 3 3 0 0 1 .61 1.71z" fill="url(#bd7305f8-8789-4600-a1f2-6594e60eefcc)"></path><path d="M15.09 8.67H2.92a.66.66 0 0 0-.44.17l13.05 9a.67.67 0 0 0 .25-.52v-8a.71.71 0 0 0-.69-.65z" fill="#50e6ff"></path><path d="M2.94 8.67H15.1a.7.7 0 0 1 .45.17l-13.06 9a.7.7 0 0 1-.25-.52v-8a.72.72 0 0 1 .7-.65z" opacity=".2" class="msportalfx-svg-c01" fill="#ffffff"></path><path d="M7.8 10.6L9 9.4a.07.07 0 0 1 .09 0l1.19 1.2a.06.06 0 0 1 0 .1h-.7a.06.06 0 0 0-.06.06v1.54a.06.06 0 0 1-.06.06h-.79a.05.05 0 0 1-.06-.06v-1.54a.07.07 0 0 0-.07-.06h-.7a.06.06 0 0 1-.04-.1zm2.47 5.48l-1.19 1.19a.06.06 0 0 1-.09 0L7.8 16.08a.06.06 0 0 1 0-.1h.7a.07.07 0 0 0 .07-.06v-1.55a.06.06 0 0 1 .06-.06h.74a.06.06 0 0 1 .06.06v1.55a.06.06 0 0 0 .06.06h.7a.06.06 0 0 1 .08.1zm-4.7-1.55v-.7a.06.06 0 0 0-.06-.06H4a.06.06 0 0 1-.06-.06V13a.06.06 0 0 1 .06-.09h1.51a.06.06 0 0 0 .06-.06v-.7a.07.07 0 0 1 .11-.05l1.19 1.2a.06.06 0 0 1 0 .08l-1.19 1.2a.07.07 0 0 1-.11-.05zm6.93-2.38v.7a.06.06 0 0 0 .06.06h1.54s.07 0 .07.06v.74a.07.07 0 0 1-.07.06h-1.54a.06.06 0 0 0-.06.06v.7a.06.06 0 0 1-.1.05l-1.19-1.2v-.08l1.19-1.2s.1-.01.1.05z" class="msportalfx-svg-c01" fill="#ffffff"></path></g><defs>
<linearGradient id="bd7305f8-8789-4600-a1f2-6594e60eefcc" x1="8.59" y1="-7.79" x2="9.12" y2="20.05" gradientUnits="userSpaceOnUse"><stop offset=".22" stop-color="#32d4f5"></stop><stop offset=".47" stop-color="#31d1f3"></stop><stop offset=".63" stop-color="#2ec9eb"></stop><stop offset=".77" stop-color="#29bade"></stop><stop offset=".89" stop-color="#22a5cb"></stop><stop offset="1" stop-color="#198ab3"></stop><stop offset="1" stop-color="#198ab3"></stop></linearGradient>
</defs>
</svg>