<?xml version="1.0" encoding="UTF-8" standalone="no"?>
<!DOCTYPE svg PUBLIC "-//W3C//DTD SVG 1.1//EN" "http://www.w3.org/Graphics/SVG/1.1/DTD/svg11.dtd">
<!-- Generated by Microsoft Visio, SVG Export VPN-Gateway.svg Page-1 -->
<svg xmlns="http://www.w3.org/2000/svg" xmlns:xlink="http://www.w3.org/1999/xlink" xmlns:ev="http://www.w3.org/2001/xml-events"
		xmlns:v="http://schemas.microsoft.com/visio/2003/SVGExtensions/" width="0.966205in" height="1.03889in"
		viewBox="0 0 69.5667 74.8" xml:space="preserve" color-interpolation-filters="sRGB" class="st5">
	<title>MIS: Enterprise Mobility and Security</title>
	<desc>This package contains stencils that will represent Enterprise Mobility and Security</desc>
	<v:documentProperties v:langID="1033" v:metric="true" v:viewMarkup="false"/>

	<style type="text/css">
	<![CDATA[
		.st1 {fill:#a0a1a2;stroke:none;stroke-width:12.24}
		.st2 {fill:#59b4d9;stroke:none;stroke-width:12.24}
		.st3 {fill:#ffffff;fill-opacity:0.15;stroke:none;stroke-width:12.24}
		.st4 {fill:#ffffff;stroke:none;stroke-width:12.24}
		.st5 {fill:none;fill-rule:evenodd;font-size:12px;overflow:visible;stroke-linecap:square;stroke-miterlimit:3}
	]]>
	</style>

	<g v:mID="0" v:index="1" v:groupContext="foregroundPage">
		<title>Page-1</title>
		<v:pageProperties v:drawingScale="0.0393701" v:pageScale="0.0393701" v:drawingUnits="24" v:shadowOffsetX="9"
				v:shadowOffsetY="-9"/>
		<g id="group5-1" transform="translate(12.24,-12.24)" v:mID="5" v:groupContext="group">
			<title>Sheet.5</title>
			<g id="shape6-2" v:mID="6" v:groupContext="shape" transform="translate(5.33392,-30.7959)">
				<title>Sheet.6</title>
				<path d="M34.42 73.89 L34.42 71.68 C34.42 67.25 32.81 63.13 29.99 60.21 C27.37 57.19 21.54 55.28 17.21 55.28 C12.88
							 55.28 7.04 57.19 4.43 60.21 C1.71 63.13 0 67.25 0 71.68 L0 73.89 L7.95 74.8 L7.95 72.79 C7.95 70.17
							 8.86 66.85 10.37 65.14 C11.88 63.43 15.1 62.62 17.21 62.52 C19.32 62.52 22.54 63.43 24.05 65.14 C25.56
							 66.85 26.47 69.06 26.47 71.58 L26.47 74.8 L34.42 73.89 Z" class="st1"/>
			</g>
			<g id="shape7-4" v:mID="7" v:groupContext="shape">
				<title>Sheet.7</title>
				<path d="M5.33 43.1 C1.41 43.1 0 45.41 0 48.43 L0 69.47 C0 72.08 1.61 74.8 4.63 74.8 L40.46 74.8 C43.88 74.8 45.09
							 72.08 45.09 69.47 L45.09 48.43 C45.09 45.72 43.98 43.1 39.75 43.1 L5.33 43.1 Z" class="st2"/>
			</g>
			<g id="shape8-6" v:mID="8" v:groupContext="shape">
				<title>Sheet.8</title>
				<path d="M31.7 43.1 L5.33 43.1 C1.41 43.1 0 45.41 0 48.43 L0 69.47 C0 72.08 1.61 74.8 4.63 74.8 L11.37 74.8 L31.7
							 43.1 Z" class="st3"/>
			</g>
			<g id="shape9-8" v:mID="9" v:groupContext="shape" transform="translate(5.73648,-2.81792)">
				<title>Sheet.9</title>
				<path d="M10.77 54.57 L16.61 48.73 L22.44 54.57 L18.32 54.57 L18.32 58.8 L14.79 58.8 L14.79 54.57 C14.79 54.57 10.77
							 54.57 10.77 54.57 ZM0 63.43 L0 60.01 L6.04 60.01 L6.04 55.98 L11.67 61.62 L6.04 67.25 L6.04 63.33 L0
							 63.33 L0 63.43 ZM16.61 74.8 L10.67 68.86 L14.79 68.86 L14.79 64.74 L18.32 64.74 L18.32 68.86 L22.54
							 68.86 L16.61 74.8 ZM33.21 63.43 L27.17 63.43 L27.17 67.45 L21.44 61.72 L27.17 55.98 L27.17 60.01 L33.21
							 60.01 L33.21 63.43 Z" class="st4"/>
			</g>
		</g>
	</g>
</svg>
