<svg viewBox="0 0 18 18" class="" role="presentation" focusable="false" xmlns:svg="http://www.w3.org/2000/svg" xmlns:xlink="http://www.w3.org/1999/xlink" id="FxSymbol0-04a" data-type="1"><g><title>Icon-web-48</title><path d="M14.18 6.49H9.65A4 4 0 0 0 5.9 10h1.42a2.49 2.49 0 0 1 2.33-2h4.53a2.59 2.59 0 0 1 2.44 2.71 2.6 2.6 0 0 1-2.44 2.72H9.65a2.49 2.49 0 0 1-2.33-2H5.9A4 4 0 0 0 9.65 15h4.53A4.06 4.06 0 0 0 18 10.74a4.06 4.06 0 0 0-3.82-4.25z" fill="url(#a)"></path><path d="M8.35 10H3.82a2.59 2.59 0 0 1-2.44-2.74 2.6 2.6 0 0 1 2.44-2.72h4.53a2.49 2.49 0 0 1 2.33 2h1.42A4 4 0 0 0 8.35 3H3.82A4.06 4.06 0 0 0 0 7.26a4.06 4.06 0 0 0 3.82 4.25h4.53A4 4 0 0 0 12.1 8h-1.42a2.49 2.49 0 0 1-2.33 2z" fill="url(#b)"></path><path d="M8.35 10h-3v1.54h3A4 4 0 0 0 12.1 8h-1.42a2.49 2.49 0 0 1-2.33 2z" fill="url(#c)"></path><path fill="none" d="M0 0h18v18H0z"></path></g><defs>
<linearGradient id="a" x1="9" y1="16.39" x2="9" y2="-1.94" gradientUnits="userSpaceOnUse"><stop offset="0" stop-color="#0078d4"></stop><stop offset=".16" stop-color="#1380da"></stop><stop offset=".53" stop-color="#3c91e5"></stop><stop offset=".82" stop-color="#559cec"></stop><stop offset="1" stop-color="#5ea0ef"></stop></linearGradient>
<linearGradient id="b" x1="9.88" y1="7.11" x2="9.99" y2="17.27" gradientUnits="userSpaceOnUse"><stop offset="0" stop-color="#32d4f5"></stop><stop offset=".32" stop-color="#31d1f3"></stop><stop offset=".53" stop-color="#2ec9eb"></stop><stop offset=".7" stop-color="#29bade"></stop><stop offset=".86" stop-color="#22a5cb"></stop><stop offset="1" stop-color="#198ab3"></stop><stop offset="1" stop-color="#198ab3"></stop></linearGradient>
<radialGradient id="c" cx="9.43" cy="7.03" r="7.27" gradientUnits="userSpaceOnUse"><stop offset="0" stop-color="#f2f2f2"></stop><stop offset=".58" stop-color="#eee"></stop><stop offset="1" stop-color="#e6e6e6"></stop></radialGradient>
</defs>
</svg>