<?xml version="1.0" encoding="UTF-8" standalone="no"?>
<!DOCTYPE svg PUBLIC "-//W3C//DTD SVG 1.1//EN" "http://www.w3.org/Graphics/SVG/1.1/DTD/svg11.dtd">
<!-- Generated by Microsoft Visio, SVG Export API-type.svg Page-1 -->
<svg xmlns="http://www.w3.org/2000/svg" xmlns:xlink="http://www.w3.org/1999/xlink" xmlns:ev="http://www.w3.org/2001/xml-events"
		xmlns:v="http://schemas.microsoft.com/visio/2003/SVGExtensions/" width="11in" height="8.5in" viewBox="0 0 792 612"
		xml:space="preserve" color-interpolation-filters="sRGB" class="st8">
	<v:documentProperties v:langID="1033" v:viewMarkup="false">
		<v:userDefs>
			<v:ud v:nameU="msvSubprocessMaster" v:prompt="" v:val="VT4(Rectangle)"/>
			<v:ud v:nameU="msvNoAutoConnect" v:val="VT0(1):26"/>
		</v:userDefs>
	</v:documentProperties>

	<style type="text/css">
	<![CDATA[
		.st1 {fill:#ffffff;stroke:none;stroke-width:0.75}
		.st2 {fill:#e5e5e5;stroke:none;stroke-width:0.75}
		.st3 {fill:none;stroke:#556a8a;stroke-width:1.5}
		.st4 {fill:none}
		.st5 {stroke:#556a8a;stroke-width:1.5}
		.st6 {fill:#2bc7f4;stroke:none;stroke-width:0.75}
		.st7 {fill:#ed7d31;stroke:none;stroke-width:0.75}
		.st8 {fill:none;fill-rule:evenodd;font-size:12px;overflow:visible;stroke-linecap:square;stroke-miterlimit:3}
	]]>
	</style>

	<g v:mID="0" v:index="1" v:groupContext="foregroundPage">
		<v:userDefs>
			<v:ud v:nameU="msvThemeOrder" v:val="VT0(0):26"/>
		</v:userDefs>
		<title>Page-1</title>
		<v:pageProperties v:drawingScale="1" v:pageScale="1" v:drawingUnits="0" v:shadowOffsetX="9" v:shadowOffsetY="-9"/>
		<g id="group10280-1" transform="translate(27,-540.691)" v:mID="10280" v:groupContext="group">
			<title>API (type)</title>
			<g id="group10281-2" transform="translate(8.39329E-14,-6.80893)" v:mID="10281" v:groupContext="group">
				<title>API</title>
				<g id="shape10282-3" v:mID="10282" v:groupContext="shape" transform="translate(7.19425E-14,-6.80977)">
					<title>path6703</title>
					<path d="M39.69 595.56 A23.25 23.25 0 1 1 16.44 572.31 A23.25 23.25 0 0 1 39.69 595.56 Z" class="st1"/>
				</g>
				<g id="shape10283-5" v:mID="10283" v:groupContext="shape" transform="translate(16.4402,0)">
					<title>path6705</title>
					<path d="M23.25 588.75 A23.25 23.25 0 0 1 0 612 L0 565.5 A23.25 23.25 0 0 1 23.25 588.75 Z" class="st2"/>
				</g>
				<g id="shape10284-7" v:mID="10284" v:groupContext="shape" transform="translate(7.19425E-14,-6.80977)">
					<title>path6707</title>
					<path d="M39.69 595.56 A23.25 23.25 0 1 1 16.44 572.31 A23.25 23.25 0 0 1 39.69 595.56 Z" class="st3"/>
				</g>
				<g id="shape10285-9" v:mID="10285" v:groupContext="shape" transform="translate(8.94023,-10.41)">
					<title>path6709</title>
					<path d="M-0 612 A9.375 9.375 -180 1 0 -0 599.83 L0 612 Z" class="st4"/>
					<path d="M-0 612 A9.375 9.375 -180 1 0 -0 599.83" class="st5"/>
				</g>
				<g id="shape10286-12" v:mID="10286" v:groupContext="shape" transform="translate(2.19023,-16.5)">
					<title>polyline6711</title>
					<path d="M12 612 L0 612 L0 592.5 L28.5 592.5 L28.5 612 L22.5 612 L12 612 Z" class="st4"/>
					<path d="M12 612 L0 612 L0 592.5 L28.5 592.5 L28.5 612 L22.5 612" class="st5"/>
				</g>
				<g id="shape10287-15" v:mID="10287" v:groupContext="shape" transform="translate(11.8952,-11.625)">
					<title>circle6713</title>
					<ellipse cx="4.875" cy="607.125" rx="4.875" ry="4.875" class="st6"/>
				</g>
			</g>
			<g id="shape10288-17" v:mID="10288" v:groupContext="shape" transform="translate(19.8451,0)">
				<title>Sheet.10288</title>
				<ellipse cx="13.5" cy="598.5" rx="13.5" ry="13.5" class="st1"/>
			</g>
			<g id="shape10289-19" v:mID="10289" v:groupContext="shape" transform="translate(20.8451,-1)">
				<title>Sheet.10289</title>
				<ellipse cx="12.5" cy="599.5" rx="12.5" ry="12.5" class="st7"/>
			</g>
		</g>
	</g>
</svg>
