<svg viewBox="0 0 18 18" class="" role="presentation" focusable="false" xmlns="http://www.w3.org/2000/svg" xmlns:xlink="http://www.w3.org/1999/xlink" id="FxSymbol0-20b" data-type="1"><g><path d="M16.089 5.791h-4.62a1.041 1.041 0 0 1-1.035-1.046V.148a.593.593 0 0 0-.4-.148h-7.77a.612.612 0 0 0-.614.614v16.772a.612.612 0 0 0 .614.614h13.472a.609.609 0 0 0 .614-.6V6.292a.615.615 0 0 0-.261-.501Z" fill="url(#49ee2a0f-2a50-4e4d-98b1-69c9afdd7fd4)"></path><path d="M10.434.137v4.608a1.041 1.041 0 0 0 1.035 1.046h4.642Z" fill="#773adc"></path><path d="M14.006 9.111V13.3h-.6V9.111A.114.114 0 0 0 13.292 9H9.3v4.3h-.6V9H4.708a.114.114 0 0 0-.114.114V13.3h-.6V9.111a.715.715 0 0 1 .714-.711h8.584a.714.714 0 0 1 .714.711Z" fill="#f2f2f2"></path><rect x="6.538" y="6.805" width="4.925" height="3.39" rx=".4" transform="rotate(180 9 8.5)" fill="url(#49ee2a0f-2a50-4e4d-98b1-69c9afdd7fd5)"></rect><path d="M7.942 12.034h2.116a.4.4 0 0 1 .4.4v1.739a.4.4 0 0 1-.4.4H7.942a.4.4 0 0 1-.4-.4v-1.739a.4.4 0 0 1 .4-.4Zm-5.105.4v1.739a.4.4 0 0 0 .4.4h2.115a.4.4 0 0 0 .4-.4v-1.739a.4.4 0 0 0-.4-.4H3.236a.4.4 0 0 0-.399.4Zm9.412 0v1.739a.4.4 0 0 0 .4.4h2.116a.4.4 0 0 0 .4-.4v-1.739a.4.4 0 0 0-.4-.4h-2.117a.4.4 0 0 0-.399.4Z" fill="url(#49ee2a0f-2a50-4e4d-98b1-69c9afdd7fd6)"></path></g><defs>
<linearGradient id="49ee2a0f-2a50-4e4d-98b1-69c9afdd7fd4" x1="81" y1="683.516" x2="81" y2="701.516" gradientTransform="matrix(1 0 0 -1 -72 701.516)" gradientUnits="userSpaceOnUse"><stop offset=".001" stop-color="#773adc"></stop><stop offset="1" stop-color="#a67af4"></stop></linearGradient>
<linearGradient id="49ee2a0f-2a50-4e4d-98b1-69c9afdd7fd5" x1="-1277.14" y1="849.465" x2="-1277.14" y2="853.102" gradientTransform="translate(1286.14 -842.872)" gradientUnits="userSpaceOnUse"><stop offset=".001" stop-color="#42e8ca"></stop><stop offset="1" stop-color="#3cd4c2"></stop></linearGradient>
<linearGradient id="49ee2a0f-2a50-4e4d-98b1-69c9afdd7fd6" x1="9" y1="11.875" x2="9" y2="14.598" gradientUnits="userSpaceOnUse"><stop offset=".001" stop-color="#42e8ca"></stop><stop offset="1" stop-color="#3cd4c2"></stop></linearGradient>
</defs>
</svg>