<svg viewBox="0 0 50 50" class="" role="presentation" focusable="false" xmlns:svg="http://www.w3.org/2000/svg" xmlns:xlink="http://www.w3.org/1999/xlink" id="FxSymbol0-0b2" data-type="1"><g><title></title><title>Azure_AppConfiguration</title><path d="M40.945 14.52c0-.357.089-.8.089-1.159A11.477 11.477 0 0 0 29.44 1.945a11.255 11.255 0 0 0-9.364 4.638 8.3 8.3 0 0 0-4.638-1.338A8.736 8.736 0 0 0 6.7 13.9v.713a8.648 8.648 0 0 0-5 7.844A9.659 9.659 0 0 0 11.693 32h24.614a9.659 9.659 0 0 0 9.993-9.543 8.46 8.46 0 0 0-5.355-7.937z" class="msportalfx-svg-c15" fill="#59b4d9"></path><path d="M22.935 35.09l.94 2.232-2.114 3.7 2.32 2.32L27.9 41.55l2.232.94 1.168 3.494.118.411h3.292l1.38-3.905 2.232-.94 3.289 1.7.411.206 2.32-2.32L42.58 37.5l.94-2.232 3.494-1.174.411-.118v-3.291l-3.9-1.38-.94-2.231 1.7-3.289.206-.411-2.232-2.32-3.7 1.791-2.232-.94-1.174-3.494-.208-.411H31.8l-1.38 3.905-2.231.94-3.289-1.7-.411-.206-2.2 2.643 1.586 3.377-.94 2.232-3.494 1.174-.411.206v3.139zm5.756-2.848a4.552 4.552 0 1 1 4.551 4.551 4.5 4.5 0 0 1-4.551-4.551z" class="msportalfx-svg-c11" fill="#fcd116"></path><path d="M8.769 43.023l.868.929-.371 2.207 1.564.722 1.556-1.575 1.27.058 1.212 1.508.133.182 1.62-.6-.029-2.174.929-.868 1.93.242.239.027.722-1.563-1.528-1.475.058-1.27 1.509-1.212.181-.133-.6-1.62-2.174.029-.868-.929.243-1.929.026-.24-1.52-.738-1.5 1.553-1.27-.058-1.212-1.508-.176-.166-1.548.57.029 2.175-.929.867-1.925-.234-.239-.027-.606 1.7 1.394 1.376-.057 1.267-1.51 1.212-.165.176.57 1.548zm2.319-2.447a2.39 2.39 0 1 1 3.068 1.417 2.363 2.363 0 0 1-3.068-1.417z" class="msportalfx-svg-c14" fill="#57a300"></path><path d="M7.947 26.827c0-3.656 1.873-6.51 5.351-8.294v-.713a9.359 9.359 0 0 1 14.18-7.848 12.331 12.331 0 0 1 9.989-5.084 12.081 12.081 0 0 0-8.027-3.032 11.573 11.573 0 0 0-9.364 4.727 8.3 8.3 0 0 0-4.638-1.338A8.736 8.736 0 0 0 6.7 13.9v.713a8.648 8.648 0 0 0-5 7.844 9.457 9.457 0 0 0 7.5 9.275 10.013 10.013 0 0 1-1.253-4.905z" opacity=".2" class="msportalfx-svg-c01" fill="#ffffff"></path></g><defs>
</defs>
</svg>