<?xml version="1.0" encoding="UTF-8" standalone="no"?>
<!DOCTYPE svg PUBLIC "-//W3C//DTD SVG 1.1//EN" "http://www.w3.org/Graphics/SVG/1.1/DTD/svg11.dtd">
<!-- Generated by Microsoft Visio, SVG Export Batch.svg Page-1 -->
<svg xmlns="http://www.w3.org/2000/svg" xmlns:xlink="http://www.w3.org/1999/xlink" xmlns:ev="http://www.w3.org/2001/xml-events"
		xmlns:v="http://schemas.microsoft.com/visio/2003/SVGExtensions/" width="11in" height="8.5in" viewBox="0 0 792 612"
		xml:space="preserve" color-interpolation-filters="sRGB" class="st9">
	<v:documentProperties v:langID="1033" v:viewMarkup="false">
		<v:userDefs>
			<v:ud v:nameU="msvSubprocessMaster" v:prompt="" v:val="VT4(Rectangle)"/>
			<v:ud v:nameU="msvNoAutoConnect" v:val="VT0(1):26"/>
		</v:userDefs>
	</v:documentProperties>

	<style type="text/css">
	<![CDATA[
		.st1 {fill:#0072c6;stroke:none;stroke-width:0.75}
		.st2 {fill:#a0a1a2;stroke:none;stroke-width:0.75}
		.st3 {fill:#ffffff;fill-opacity:0.098;stroke:none;stroke-width:0.75}
		.st4 {fill:#ffffff;stroke:none;stroke-width:0.75}
		.st5 {fill:#3999c6;stroke:none;stroke-width:0.75}
		.st6 {fill:#59b4d9;stroke:none;stroke-width:0.75}
		.st7 {fill:#ffffff;fill-opacity:0.15;stroke:none;stroke-width:0.75}
		.st8 {fill:#ffffff;fill-opacity:0.6;stroke:none;stroke-width:0.75}
		.st9 {fill:none;fill-rule:evenodd;font-size:12px;overflow:visible;stroke-linecap:square;stroke-miterlimit:3}
	]]>
	</style>

	<g v:mID="0" v:index="1" v:groupContext="foregroundPage">
		<v:userDefs>
			<v:ud v:nameU="msvThemeOrder" v:val="VT0(0):26"/>
		</v:userDefs>
		<title>Page-1</title>
		<v:pageProperties v:drawingScale="1" v:pageScale="1" v:drawingUnits="0" v:shadowOffsetX="9" v:shadowOffsetY="-9"/>
		<g id="group10581-1" transform="translate(18,-559.2)" v:mID="10581" v:groupContext="group">
			<title>Batch</title>
			<g id="shape10582-2" v:mID="10582" v:groupContext="shape" transform="translate(0,-15)">
				<title>Sheet.10582</title>
				<path d="M0 611.1 a0.86625 0.86625 -180 0 0 0.9 0.9 L21.6 612 a0.86625 0.86625 -180 0 0 0.9 -0.9 L22.5 596.1 L0 596.1
							 L0 611.1 Z" class="st1"/>
			</g>
			<g id="shape10583-4" v:mID="10583" v:groupContext="shape" transform="translate(0,-30.6)">
				<title>Sheet.10583</title>
				<path d="M21.6 607.8 L0.9 607.8 a0.86625 0.86625 -180 0 0 -0.9 0.9 L0 612 L22.5 612 L22.5 608.7 a0.86625 0.86625
							 -180 0 0 -0.9 -0.9 Z" class="st2"/>
			</g>
			<g id="shape10584-6" v:mID="10584" v:groupContext="shape" transform="translate(1.9984E-14,-15)">
				<title>Sheet.10584</title>
				<path d="M0.9 592.2 a0.86625 0.86625 -180 0 0 -0.9 0.9 L0 611.1 a0.86625 0.86625 -180 0 0 0.9 0.9 L9.53 612 L19.65
							 592.2 L0.9 592.2 Z" class="st3"/>
			</g>
			<g id="shape10585-8" v:mID="10585" v:groupContext="shape" transform="translate(3.544,-22.875)">
				<title>Sheet.10585</title>
				<path d="M0.28 609.53 L0.06 609.3 a0.141 0.141 0 0 1 -1.8735E-15 -0.225 L0.66 608.55 L0.73 608.48 C0.81 608.48 0.81
							 608.48 0.81 608.55 L2.46 610.35 L5.38 606.68 a0.26175 0.26175 0 0 1 0.15 -0.075 L5.61 606.6 L6.28 607.13
							 L6.36 607.2 L6.36 607.28 L2.61 612 L0.28 609.53 Z" class="st4"/>
			</g>
			<g id="shape10586-10" v:mID="10586" v:groupContext="shape" transform="translate(3.5435,-17.025)">
				<title>Sheet.10586</title>
				<path d="M0.28 609.53 L0.06 609.3 a0.14025 0.14025 0 0 1 -1.56819E-15 -0.225 L0.66 608.55 L0.73 608.48 C0.81 608.48
							 0.81 608.48 0.81 608.55 L2.46 610.35 L5.38 606.68 a0.26175 0.26175 0 0 1 0.15 -0.075 L5.61 606.6 L6.28
							 607.13 L6.36 607.2 L6.36 607.28 L2.61 612 L0.28 609.53 Z" class="st4"/>
			</g>
			<g id="shape10587-12" v:mID="10587" v:groupContext="shape" transform="translate(7.5,-7.5)">
				<title>Sheet.10587</title>
				<path d="M0 611.1 a0.86625 0.86625 -180 0 0 0.9 0.9 L21.6 612 a0.86625 0.86625 -180 0 0 0.9 -0.9 L22.5 596.1 L0 596.1
							 L0 611.1 Z" class="st5"/>
			</g>
			<g id="shape10588-14" v:mID="10588" v:groupContext="shape" transform="translate(7.5,-23.1)">
				<title>Sheet.10588</title>
				<path d="M21.6 607.8 L0.9 607.8 a0.86625 0.86625 -180 0 0 -0.9 0.9 L0 612 L22.5 612 L22.5 608.7 a0.86625 0.86625
							 -180 0 0 -0.9 -0.9 Z" class="st2"/>
			</g>
			<g id="shape10589-16" v:mID="10589" v:groupContext="shape" transform="translate(7.5,-7.5)">
				<title>Sheet.10589</title>
				<path d="M0.9 592.2 a0.86625 0.86625 -180 0 0 -0.9 0.9 L0 611.1 a0.86625 0.86625 -180 0 0 0.9 0.9 L9.53 612 L19.65
							 592.2 L0.9 592.2 Z" class="st3"/>
			</g>
			<g id="shape10590-18" v:mID="10590" v:groupContext="shape" transform="translate(11.0435,-15.375)">
				<title>Sheet.10590</title>
				<path d="M0.28 609.53 L0.06 609.3 a0.14025 0.14025 0 0 1 -2.52576E-15 -0.225 L0.66 608.55 L0.73 608.48 C0.81 608.48
							 0.81 608.48 0.81 608.55 L2.46 610.35 L5.38 606.68 a0.26175 0.26175 0 0 1 0.15 -0.075 L5.61 606.6 L6.28
							 607.13 L6.36 607.2 L6.36 607.28 L2.61 612 L0.28 609.53 Z" class="st4"/>
			</g>
			<g id="shape10591-20" v:mID="10591" v:groupContext="shape" transform="translate(11.0435,-9.525)">
				<title>Sheet.10591</title>
				<path d="M0.28 609.53 L0.06 609.3 a0.14025 0.14025 0 0 1 -2.52576E-15 -0.225 L0.66 608.55 L0.73 608.48 C0.81 608.48
							 0.81 608.48 0.81 608.55 L2.46 610.35 L5.38 606.68 a0.26175 0.26175 0 0 1 0.15 -0.075 L5.61 606.6 L6.28
							 607.13 L6.36 607.2 L6.36 607.28 L2.61 612 L0.28 609.53 Z" class="st4"/>
			</g>
			<g id="shape10592-22" v:mID="10592" v:groupContext="shape" transform="translate(15,0)">
				<title>Sheet.10592</title>
				<path d="M0 611.1 a0.86625 0.86625 -180 0 0 0.9 0.9 L21.6 612 a0.86625 0.86625 -180 0 0 0.9 -0.9 L22.5 596.1 L0 596.1
							 L0 611.1 Z" class="st6"/>
			</g>
			<g id="shape10593-24" v:mID="10593" v:groupContext="shape" transform="translate(15,-15.6)">
				<title>Sheet.10593</title>
				<path d="M21.6 607.8 L0.9 607.8 a0.86625 0.86625 -180 0 0 -0.9 0.9 L0 612 L22.5 612 L22.5 608.7 a0.86625 0.86625
							 -180 0 0 -0.9 -0.9 Z" class="st2"/>
			</g>
			<g id="shape10594-26" v:mID="10594" v:groupContext="shape" transform="translate(15,-14.1)">
				<title>Sheet.10594</title>
				<rect x="0" y="610.5" width="22.5" height="1.5" class="st7"/>
			</g>
			<g id="shape10595-28" v:mID="10595" v:groupContext="shape" transform="translate(15,0)">
				<title>Sheet.10595</title>
				<path d="M0.9 592.2 a0.86625 0.86625 -180 0 0 -0.9 0.9 L0 611.1 a0.86625 0.86625 -180 0 0 0.9 0.9 L9.53 612 L19.65
							 592.2 L0.9 592.2 Z" class="st3"/>
			</g>
			<g id="shape10596-30" v:mID="10596" v:groupContext="shape" transform="translate(18.5435,-7.875)">
				<title>Sheet.10596</title>
				<path d="M0.28 609.53 L0.06 609.3 a0.14025 0.14025 0 0 1 -2.47025E-15 -0.225 L0.66 608.55 L0.73 608.48 C0.81 608.48
							 0.81 608.48 0.81 608.55 L2.46 610.35 L5.38 606.68 a0.26175 0.26175 0 0 1 0.15 -0.075 L5.61 606.6 L6.28
							 607.13 L6.36 607.2 L6.36 607.28 L2.61 612 L0.28 609.53 Z" class="st4"/>
			</g>
			<g id="shape10597-32" v:mID="10597" v:groupContext="shape" transform="translate(24.9,-8.925)">
				<title>Sheet.10597</title>
				<rect x="0" y="610.5" width="9" height="1.5" class="st8"/>
			</g>
			<g id="shape10598-34" v:mID="10598" v:groupContext="shape" transform="translate(18.5435,-2.025)">
				<title>Sheet.10598</title>
				<path d="M0.28 609.53 L0.06 609.3 a0.14025 0.14025 0 0 1 -2.47025E-15 -0.225 L0.66 608.55 L0.73 608.48 C0.81 608.48
							 0.81 608.48 0.81 608.55 L2.46 610.35 L5.38 606.68 a0.26175 0.26175 0 0 1 0.15 -0.075 L5.61 606.6 L6.28
							 607.13 L6.36 607.2 L6.36 607.28 L2.61 612 L0.28 609.53 Z" class="st4"/>
			</g>
			<g id="shape10599-36" v:mID="10599" v:groupContext="shape" transform="translate(24.9,-3)">
				<title>Sheet.10599</title>
				<rect x="0" y="610.5" width="9" height="1.5" class="st8"/>
			</g>
		</g>
	</g>
</svg>
