<svg viewBox="0 0 16 16" class="" role="presentation" focusable="false" xmlns="http://www.w3.org/2000/svg" xmlns:xlink="http://www.w3.org/1999/xlink" id="FxSymbol0-049" data-type="51"><g><title></title><path d="M12.5 1.4a10.7 10.7 0 0 1 1.9 1.8 7.8 7.8 0 0 1 1.2 2.2A7.5 7.5 0 0 1 16 8a7.6 7.6 0 0 1-.3 2.1 6.4 6.4 0 0 1-.8 1.9 10.4 10.4 0 0 1-1.2 1.7 10.4 10.4 0 0 1-1.7 1.2 6.4 6.4 0 0 1-1.9.8 7.5 7.5 0 0 1-4.2 0 6.4 6.4 0 0 1-1.9-.8 10.4 10.4 0 0 1-1.7-1.2A10.4 10.4 0 0 1 1.1 12a6.4 6.4 0 0 1-.8-1.9 7.5 7.5 0 0 1 0-4.2 11.9 11.9 0 0 1 .8-2 10.1 10.1 0 0 1 1.3-1.6A10.9 10.9 0 0 1 4.1 1H2V0h4v4H5V1.7a6.2 6.2 0 0 0-1.7 1.1 6.1 6.1 0 0 0-1.2 1.5A5.3 5.3 0 0 0 1.3 6 6.9 6.9 0 0 0 1 8a6.3 6.3 0 0 0 .3 1.9 4.6 4.6 0 0 0 .7 1.6 4.9 4.9 0 0 0 1.1 1.4A4.9 4.9 0 0 0 4.5 14l1.6.8L8 15l1.9-.2 1.6-.8a4.9 4.9 0 0 0 1.4-1.1 4.9 4.9 0 0 0 1.1-1.4 8 8 0 0 0 .8-1.6A12.3 12.3 0 0 0 15 8a6.2 6.2 0 0 0-.4-2.3 6.9 6.9 0 0 0-1-1.9 8.7 8.7 0 0 0-1.7-1.6 7.2 7.2 0 0 0-2-.9l.2-1a6.6 6.6 0 0 1 2.4 1.1z"></path></g><defs>
</defs>
</svg>