<svg xmlns="http://www.w3.org/2000/svg" width="18" height="18" viewBox="0 0 18 18">
  <defs>
    <linearGradient id="d72ee5f9-1f87-48ee-b184-2dc9e2529646" x1="12.701" y1="13.126" x2="12.701" y2="0.841" gradientUnits="userSpaceOnUse">
      <stop offset="0" stop-color="#32bedd" />
      <stop offset="0.532" stop-color="#50e6ff" />
      <stop offset="1" stop-color="#9cebff" />
    </linearGradient>
  </defs>
  <path d="M12.7,13.126a8.5,8.5,0,0,0,1.8-.2,5.463,5.463,0,0,0,1.679-.662,4.7,4.7,0,0,0,.442-.307,2.436,2.436,0,0,0,.392-.38,2.1,2.1,0,0,0,.282-.447,1.223,1.223,0,0,0,.11-.521,1.431,1.431,0,0,0-.049-.386,1.7,1.7,0,0,0-.147-.362L12.7.841,8.177,9.877a1.916,1.916,0,0,0-.135.356,1.494,1.494,0,0,0-.049.38,1.224,1.224,0,0,0,.111.521,2.024,2.024,0,0,0,.282.447,2.436,2.436,0,0,0,.392.38,4.693,4.693,0,0,0,.441.307,5.459,5.459,0,0,0,1.68.662A8.5,8.5,0,0,0,12.7,13.126Z" fill="url(#d72ee5f9-1f87-48ee-b184-2dc9e2529646)" />
  <path d="M7.821,2.44,6.275.936c-.169-.168-.313-.109-.313.152v.676a.185.185,0,0,1-.185.186H5.768c-1,0-3.775.262-3.876,4.062a.194.194,0,0,0,.194.2h.988a.2.2,0,0,0,.2-.194.109.109,0,0,0,0-.018A2.331,2.331,0,0,1,5.8,3.183.194.194,0,0,1,6,3.377V4c0,.313.1.363.313.152L7.821,2.761a.2.2,0,0,0,.051-.27A.19.19,0,0,0,7.821,2.44Z" fill="#b3b3b3" />
  <rect width="18" height="18" fill="none" />
  <polygon points="10.448 9.412 10.448 14.833 5.788 17.568 5.788 12.13 10.448 9.412" fill="#006dcd" />
  <polygon points="10.448 9.412 5.788 12.146 1.127 9.412 5.788 6.693 10.448 9.412" fill="#77b0f7" />
  <polygon points="5.788 12.146 5.788 17.568 1.127 14.833 1.127 9.412 5.788 12.146" fill="#5395ec" />
  <polygon points="1.127 14.833 5.788 12.13 5.788 17.568 1.127 14.833" fill="#77b0f7" opacity="0.2" />
  <polygon points="10.448 14.833 5.788 12.13 5.788 17.568 10.448 14.833" fill="#5395ec" opacity="0.2" />
  <metadata>
    <rdf:RDF xmlns:rdf="http://www.w3.org/1999/02/22-rdf-syntax-ns#">
      <rdf:li>public:true</rdf:li>
      <rdf:li>sdk:false</rdf:li>
      <rdf:li>category: Databases</rdf:li>
    </rdf:RDF>
  </metadata>
</svg>