<svg viewBox="0 0 18 18" class="" role="presentation" focusable="false" xmlns="http://www.w3.org/2000/svg" xmlns:xlink="http://www.w3.org/1999/xlink" id="FxSymbol0-1b4" data-type="1"><g><path fill="url(#49ee2a0f-2a50-4e4d-98b1-69c9afdd78d7)" d="M1.21 4.499 9.006 0 16.8 4.499v9.002L9.006 18 1.2 13.501V4.53l.01-.031z"></path><path fill="#0078d4" d="m1.221 4.515 7.777 4.472.001 8.999-7.789-4.489V4.546l.011-.031z"></path><path d="M5.162 9.83a.053.053 0 0 0-.055-.005l-1.693.959c-.05.028-.016.145.054.185l.9.429.056.032a.173.173 0 0 1 .078.136L4.493 13.6a.489.489 0 0 0 .217.38l.671.4c.124.071.223.016.224-.124l.007-2.043c0-.05.034-.07.078-.045l.056.032 1.048.642c.07.04.105-.037.056-.122L5.217 9.888a.162.162 0 0 0-.055-.058Z" opacity=".9" class="msportalfx-svg-c01" fill="#ffffff"></path><path d="m4.031 6.133 7.6-4.618 2.383 1.373-7.6 4.621v1.463a.109.109 0 0 1-.193.07l-1.008-1.2a.111.111 0 0 0-.113-.036l-.937.2a.109.109 0 0 1-.132-.106Z" opacity=".5" class="msportalfx-svg-c01" fill="#ffffff"></path></g><defs>
<linearGradient id="49ee2a0f-2a50-4e4d-98b1-69c9afdd78d7" x1="-579.075" y1="20.292" x2="-579.075" y2="-3.336" gradientTransform="matrix(-1 0 0 1 -570.075 0)" gradientUnits="userSpaceOnUse"><stop offset="0" stop-color="#0078d4"></stop><stop offset="1" stop-color="#83b9f9"></stop></linearGradient>
</defs>
</svg>