<svg viewBox="0 0 50 50" class="fxs-portal-svg" role="presentation" focusable="false" xmlns:svg="http://www.w3.org/2000/svg" xmlns:xlink="http://www.w3.org/1999/xlink" id="FxSymbol0-0c1" data-type="1"><g><title></title><title>icons_072216</title><path d="M0 2h11v11H0zm13 0h12v11H13zm14 0h11v11H27zM0 15h11v11H0zm13 0h12v11H13zm14 0h11v11H27zM0 28h11v12H0zm13 0h12v12H13zm14 0h11v12H27z" class="msportalfx-svg-c19" fill="#0072c6"></path><circle cx="32.3" cy="35.1" r="13.5" stroke="#59b4d9" stroke-miterlimit="10" stroke-width=".194" class="msportalfx-svg-c15" fill="#59b4d9"></circle><path d="M45.849 34.636l-4.522-4.522a1.581 1.581 0 0 0-2.348 0 1.653 1.653 0 0 0 0 2.348l-1.739-1.739a1.66 1.66 0 0 0-2.348 2.348l3.908 3.913.783.783 1.3 1.3a1.66 1.66 0 0 1-2.348 2.348l-1.3-1.3-.522-.522-.7-.7a1.66 1.66 0 0 0-2.348 2.348l2.7 2.7a1.66 1.66 0 1 0-2.348 2.348l1.917 1.911a13.213 13.213 0 0 0 9.914-13.567zm-22.154 3.897a2 2 0 0 0 0-2.957L21.521 33.4a2 2 0 0 0 2.957 0 2.137 2.137 0 0 0 .435-2.348l2.957 2.957a2 2 0 0 0 2.957 0 2.073 2.073 0 0 0 0-2.957l-2.609-2.783a2 2 0 0 1 0-2.957 2.073 2.073 0 0 1 2.957 0l1.391 1.391a2.091 2.091 0 0 0 2.957-2.957l-1.993-2.193a12.889 12.889 0 0 0-11.076 4.053A13.6 13.6 0 0 0 18.8 36.671l1.851 1.949a2.179 2.179 0 0 0 3.044-.087z" class="msportalfx-svg-c13" fill="#b8d432"></path></g><defs>
<linearGradient id="a" x1="9" y1="16.39" x2="9" y2="-1.94" gradientUnits="userSpaceOnUse"><stop offset="0" stop-color="#0078d4"></stop><stop offset=".16" stop-color="#1380da"></stop><stop offset=".53" stop-color="#3c91e5"></stop><stop offset=".82" stop-color="#559cec"></stop><stop offset="1" stop-color="#5ea0ef"></stop></linearGradient>
<linearGradient id="b" x1="9.88" y1="7.11" x2="9.99" y2="17.27" gradientUnits="userSpaceOnUse"><stop offset="0" stop-color="#32d4f5"></stop><stop offset=".32" stop-color="#31d1f3"></stop><stop offset=".53" stop-color="#2ec9eb"></stop><stop offset=".7" stop-color="#29bade"></stop><stop offset=".86" stop-color="#22a5cb"></stop><stop offset="1" stop-color="#198ab3"></stop><stop offset="1" stop-color="#198ab3"></stop></linearGradient>
<radialGradient id="c" cx="9.43" cy="7.03" r="7.27" gradientUnits="userSpaceOnUse"><stop offset="0" stop-color="#f2f2f2"></stop><stop offset=".58" stop-color="#eee"></stop><stop offset="1" stop-color="#e6e6e6"></stop></radialGradient>
</defs>
</svg>