<svg viewBox="0 0 18 18" class="" role="presentation" focusable="false" xmlns="http://www.w3.org/2000/svg" xmlns:xlink="http://www.w3.org/1999/xlink" id="FxSymbol0-174" data-type="1"><g><path fill="none" stroke="#b3b3b3" stroke-miterlimit="10" stroke-width=".75" d="m6.092 5.301 5.764 8.256"></path><path d="M6.355 4.559A1.026 1.026 0 1 0 7.38 5.585a1.025 1.025 0 0 0-1.025-1.026Z" fill="#32bedd"></path><path d="M11.516 11.886a1.026 1.026 0 1 0 1.026 1.025 1.025 1.025 0 0 0-1.025-1.025Z" fill="#773adc"></path><path fill="none" stroke="#b3b3b3" stroke-miterlimit="10" stroke-width=".75" d="M3.129 9.201h11.108"></path><path d="M3.215 8.106A1.026 1.026 0 1 0 4.24 9.131a1.024 1.024 0 0 0-1.025-1.025Z" fill="#773adc"></path><path d="M13.722 8.175A1.026 1.026 0 1 0 14.747 9.2a1.025 1.025 0 0 0-1.025-1.025Z" fill="#32bedd"></path><path fill="#4f4f4f" stroke="#b3b3b3" stroke-miterlimit="10" stroke-width=".75" d="m5.193 14.022 7.425-10.087"></path><path d="M5.183 14.962a1.024 1.024 0 0 0 1.031-1.018 1.026 1.026 0 1 0-1.032 1.019Z" fill="#32bedd"></path><path d="M12.258 5.29a1.025 1.025 0 0 0 1.031-1.019 1.026 1.026 0 1 0-1.032 1.019Z" fill="#773adc"></path><circle cx="8.981" cy="9.201" r="2.252" fill="url(#49ee2a0f-2a50-4e4d-98b1-69c9afdd7732)"></circle><g fill="#999"><path d="M1.066 0h1.29v3.6a.29.29 0 0 1-.29.29H.786A.29.29 0 0 1 .5 3.6v-3a.569.569 0 0 1 .535-.6Z"></path><path d="M1.066 0h1.29v3.6a.29.29 0 0 1-.29.29H.786A.29.29 0 0 1 .5 3.6v-3a.569.569 0 0 1 .535-.6Z" opacity=".5"></path></g><g fill="#999"><path d="M15.636 0h1.28a.57.57 0 0 1 .57.57v3a.29.29 0 0 1-.29.29h-1.28a.29.29 0 0 1-.29-.29V0Z"></path><path d="M15.636 0h1.28a.57.57 0 0 1 .57.57v3a.29.29 0 0 1-.29.29h-1.28a.29.29 0 0 1-.29-.29V0Z" opacity=".5"></path></g><path d="M17.5.57v1.26H.5V.57A.57.57 0 0 1 1.066 0h15.86a.57.57 0 0 1 .574.57Z" fill="#949494"></path><g fill="#999"><path d="M.786 14.1h1.29a.29.29 0 0 1 .29.29v3.6h-1.3a.57.57 0 0 1-.57-.57v-3a.289.289 0 0 1 .258-.32.172.172 0 0 1 .032 0Z"></path><path d="M.786 14.1h1.29a.29.29 0 0 1 .29.29v3.6h-1.3a.57.57 0 0 1-.57-.57v-3a.289.289 0 0 1 .258-.32.172.172 0 0 1 .032 0Z" opacity=".5"></path></g><g fill="#999"><path d="M15.916 14.1h1.3a.29.29 0 0 1 .29.29v3a.57.57 0 0 1-.57.57h-1.3v-3.6a.289.289 0 0 1 .28-.26Z"></path><path d="M15.916 14.1h1.3a.29.29 0 0 1 .29.29v3a.57.57 0 0 1-.57.57h-1.3v-3.6a.289.289 0 0 1 .28-.26Z" opacity=".5"></path></g><path d="M.5 17.43v-1.26h17v1.26a.57.57 0 0 1-.57.57H1.066a.57.57 0 0 1-.566-.57Z" fill="#949494"></path></g><defs>
<linearGradient id="49ee2a0f-2a50-4e4d-98b1-69c9afdd7732" x1="8.981" y1="11.453" x2="8.981" y2="6.949" gradientUnits="userSpaceOnUse"><stop offset=".255" stop-color="#0078d4"></stop><stop offset="1" stop-color="#5ea0ef"></stop></linearGradient>
</defs>
</svg>