<svg viewBox="0 0 18 18" class="" role="presentation" focusable="false" xmlns="http://www.w3.org/2000/svg" xmlns:xlink="http://www.w3.org/1999/xlink" id="FxSymbol0-175" data-type="1"><g><path d="M.613.993h1.363v3.782a.306.306 0 0 1-.306.306H.307A.306.306 0 0 1 0 4.775V1.606A.6.6 0 0 1 .592.993Z" fill="#a3a3a3"></path><path d="M.613.993h1.363v3.782a.306.306 0 0 1-.306.306H.307A.306.306 0 0 1 0 4.775V1.606A.6.6 0 0 1 .592.993Z" fill="#a3a3a3" opacity=".5"></path><path d="M16.025.993h1.362a.6.6 0 0 1 .6.6v3.18a.306.306 0 0 1-.306.306h-1.35a.306.306 0 0 1-.306-.306V.993Z" fill="#a3a3a3"></path><path d="M16.025.993h1.362a.6.6 0 0 1 .6.6v3.18a.306.306 0 0 1-.306.306h-1.35a.306.306 0 0 1-.306-.306V.993Z" fill="#a3a3a3" opacity=".5"></path><path d="M17.989 1.585v1.32H.032v-1.32a.6.6 0 0 1 .6-.6h16.755a.6.6 0 0 1 .602.6Z" fill="#949494"></path><path d="M.307 12.9H1.67a.306.306 0 0 1 .306.306v3.813H.613A.6.6 0 0 1 0 16.426v-3.201a.306.306 0 0 1 .285-.325Z" fill="#a3a3a3"></path><path d="M.307 12.9H1.67a.306.306 0 0 1 .306.306v3.813H.613A.6.6 0 0 1 0 16.426v-3.201a.306.306 0 0 1 .285-.325Z" fill="#a3a3a3" opacity=".5"></path><path d="M16.331 12.9h1.363a.306.306 0 0 1 .306.3v3.169a.6.6 0 0 1-.6.6h-1.375v-3.75a.306.306 0 0 1 .284-.327Z" fill="#a3a3a3"></path><path d="M16.331 12.9h1.363a.306.306 0 0 1 .306.3v3.169a.6.6 0 0 1-.6.6h-1.375v-3.75a.306.306 0 0 1 .284-.327Z" fill="#a3a3a3" opacity=".5"></path><path d="M0 16.415V15.1h17.958v1.32a.6.6 0 0 1-.6.6H.6a.6.6 0 0 1-.6-.605Z" fill="#949494"></path><path d="M15.436 8.828 13.3 6.664a.106.106 0 0 0-.148-.019.105.105 0 0 0-.04.1v1.33a.1.1 0 0 1-.092.117H7.83a1.237 1.237 0 0 0-.976-.482c-.042 0-.084-.006-.125-.006a1.294 1.294 0 0 0-.122 2.582q.061.006.123.006c.041 0 .083 0 .124-.006a1.272 1.272 0 0 0 .987-.494H13a.106.106 0 0 1 .1.094V11.2a.107.107 0 0 0 .1.11.1.1 0 0 0 .082-.039l2.141-2.129a.235.235 0 0 0 .013-.314Z" fill="url(#49ee2a0f-2a50-4e4d-98b1-69c9afdd7733)"></path><path d="M2.746 5.448v3.083H4.7a2.073 2.073 0 0 1 1.63-1.588v-2H3.246a.5.5 0 0 0-.5.505Z" fill="url(#49ee2a0f-2a50-4e4d-98b1-69c9afdd7734)"></path><path d="M10.259 4.947H7.175v2a2.059 2.059 0 0 1 .99.451h2.594V5.447a.5.5 0 0 0-.5-.5Z" fill="url(#49ee2a0f-2a50-4e4d-98b1-69c9afdd7735)"></path><path d="M7.175 11.053v1.979h3.084a.5.5 0 0 0 .5-.5v-1.94h-2.58a2.046 2.046 0 0 1-1.004.461Z" fill="url(#49ee2a0f-2a50-4e4d-98b1-69c9afdd7736)"></path><path d="M4.7 9.448H2.746v3.084a.5.5 0 0 0 .5.5H6.33v-1.989A2.036 2.036 0 0 1 4.7 9.448Z" fill="url(#49ee2a0f-2a50-4e4d-98b1-69c9afdd7737)"></path> ? </g><defs>
<linearGradient id="49ee2a0f-2a50-4e4d-98b1-69c9afdd7733" x1="10.467" y1="9.987" x2="10.467" y2="7.506" gradientUnits="userSpaceOnUse"><stop offset="0" stop-color="#773adc"></stop><stop offset="1" stop-color="#a67af4"></stop></linearGradient>
<linearGradient id="49ee2a0f-2a50-4e4d-98b1-69c9afdd7734" x1="4.288" y1="13.077" x2="4.58" y2="5.029" gradientUnits="userSpaceOnUse"><stop offset="0" stop-color="#5e9624"></stop><stop offset="1" stop-color="#76bc2d"></stop></linearGradient>
<linearGradient id="49ee2a0f-2a50-4e4d-98b1-69c9afdd7735" x1="8.711" y1="13.237" x2="9.003" y2="5.189" gradientUnits="userSpaceOnUse"><stop offset="0" stop-color="#5e9624"></stop><stop offset="1" stop-color="#76bc2d"></stop></linearGradient>
<linearGradient id="49ee2a0f-2a50-4e4d-98b1-69c9afdd7736" x1="8.915" y1="13.245" x2="9.207" y2="5.197" gradientUnits="userSpaceOnUse"><stop offset="0" stop-color="#5e9624"></stop><stop offset="1" stop-color="#76bc2d"></stop></linearGradient>
<linearGradient id="49ee2a0f-2a50-4e4d-98b1-69c9afdd7737" x1="4.471" y1="13.083" x2="4.763" y2="5.035" gradientUnits="userSpaceOnUse"><stop offset="0" stop-color="#5e9624"></stop><stop offset="1" stop-color="#76bc2d"></stop></linearGradient>
</defs>
</svg>