<svg viewBox="0 0 18 18" class="" role="presentation" focusable="false" xmlns="http://www.w3.org/2000/svg" xmlns:xlink="http://www.w3.org/1999/xlink" id="FxSymbol0-17b" data-type="1"><g><path d="M15.345 5.27h-4.538V.7l3.9-.043a.64.64 0 0 1 .64.641Zm-5.339.043V.657H5.382l.086 4.656ZM.043 10.7h4.624V6.039H0ZM0 15.394a.64.64 0 0 0 .641.64h4.026v-4.613H0ZM0 1.3l.043 3.97h4.624V.657H.641A.641.641 0 0 0 0 1.3Z" fill="url(#49ee2a0f-2a50-4e4d-98b1-69c9afdd773f)"></path><path d="M6.38 6.634h.911v2.527a.205.205 0 0 1-.205.205h-.911a.2.2 0 0 1-.2-.205V7.043a.4.4 0 0 1 .395-.409Z" fill="#a3a3a3"></path><path d="M6.38 6.634h.911v2.527a.205.205 0 0 1-.205.205h-.911a.2.2 0 0 1-.2-.205V7.043a.4.4 0 0 1 .395-.409Z" fill="#a3a3a3" opacity=".5"></path><path d="M16.68 6.634h.911a.4.4 0 0 1 .4.4v2.127a.205.205 0 0 1-.2.205h-.9a.205.205 0 0 1-.205-.205V6.634Z" fill="#a3a3a3"></path><path d="M16.68 6.634h.911a.4.4 0 0 1 .4.4v2.127a.205.205 0 0 1-.2.205h-.9a.205.205 0 0 1-.205-.205V6.634Z" fill="#a3a3a3" opacity=".5"></path><path d="M17.993 7.029v.882h-12v-.882a.4.4 0 0 1 .4-.4h11.2a.4.4 0 0 1 .4.4Z" fill="#949494"></path><path d="M6.175 14.59h.911a.2.2 0 0 1 .205.2v2.549H6.38a.4.4 0 0 1-.41-.395.17.17 0 0 1 0-.022v-2.113a.2.2 0 0 1 .19-.219Z" fill="#a3a3a3"></path><path d="M6.175 14.59h.911a.2.2 0 0 1 .205.2v2.549H6.38a.4.4 0 0 1-.41-.395.17.17 0 0 1 0-.022v-2.113a.2.2 0 0 1 .19-.219Z" fill="#a3a3a3" opacity=".5"></path><path d="M16.885 14.59h.91a.2.2 0 0 1 .2.2v2.118a.4.4 0 0 1-.4.4h-.915v-2.499a.2.2 0 0 1 .19-.219Z" fill="#a3a3a3"></path><path d="M16.885 14.59h.91a.2.2 0 0 1 .2.2v2.118a.4.4 0 0 1-.4.4h-.915v-2.499a.2.2 0 0 1 .19-.219Z" fill="#a3a3a3" opacity=".5"></path><path d="M5.971 16.941v-.883h12v.883a.4.4 0 0 1-.4.4H6.373a.4.4 0 0 1-.402-.4Z" fill="#949494"></path><path d="M14.6 13.516a.071.071 0 0 0 .055-.026l1.43-1.422a.158.158 0 0 0 0-.213l-1.43-1.446a.071.071 0 0 0-.056-.027.079.079 0 0 0-.044.014.074.074 0 0 0-.026.068v.888a.071.071 0 0 1-.062.079h-3.326a.823.823 0 0 0-.653-.322.781.781 0 0 0-.083 0 .864.864 0 0 0-.081 1.725.738.738 0 0 0 .082 0 .75.75 0 0 0 .082 0 .849.849 0 0 0 .66-.33h3.317a.072.072 0 0 1 .071.063v.881a.07.07 0 0 0 .064.068Z" fill="url(#49ee2a0f-2a50-4e4d-98b1-69c9afdd7740)"></path><path d="M11.909 13.035A1.836 1.836 0 1 1 11.9 10.9h1a2.7 2.7 0 1 0 0 2.139Z" fill="#773adc"></path> ? </g><defs>
<linearGradient id="49ee2a0f-2a50-4e4d-98b1-69c9afdd773f" x1="7.673" y1=".689" x2="7.673" y2="16.067" gradientUnits="userSpaceOnUse"><stop offset="0" stop-color="#5ea0ef"></stop><stop offset="1" stop-color="#0078d4"></stop></linearGradient>
<linearGradient id="49ee2a0f-2a50-4e4d-98b1-69c9afdd7740" x1="12.837" y1="13.342" x2="12.837" y2="11.165" gradientUnits="userSpaceOnUse"><stop offset="0" stop-color="#0078d4"></stop><stop offset="1" stop-color="#5ea0ef"></stop></linearGradient>
</defs>
</svg>