<svg viewBox="0 0 18 18" class="" role="presentation" focusable="false" xmlns="http://www.w3.org/2000/svg" xmlns:xlink="http://www.w3.org/1999/xlink" id="FxSymbol0-179" data-type="1"><g><path d="M6.479 13.116v-.757L5.71 12.1l-.2-.517.39-.783v-.088l-.239-.24-.29-.289h-.1l-.756.378L4 10.418l-.328-.844h-.748l-.252.768-.567.253-.844-.479-.555.484v.1l.378.744-.214.517-.87.373v.782h.113l.8.264.214.517-.4.87.53.529h.1l.756-.378.517.214.328.908h.743v-.114l.265-.794.5-.214.883.4.529-.529v-.1l-.378-.742.138-.529Zm-3.164.693a1.059 1.059 0 1 1 1.046-1.072v.013a1.058 1.058 0 0 1-1.046 1.008Z" fill="url(#49ee2a0f-2a50-4e4d-98b1-69c9afdd773c)"></path><path d="M18 8.88V7.405l-.076-.063-1.537-.529L16 5.805l.781-1.513.076-.164-.466-.5-.555-.592-.2.1-1.475.757-1.014-.293-.647-1.64h-1.458l-.076.076-.5 1.5-1.033.39-1.7-.806-1.04 1.033.1.2.769 1.462-.415 1.011-1.777.642v1.475l.214.063 1.563.517.416 1.077-.807 1.7 1.034 1.042.2-.088 1.476-.754 1.009.416.643 1.777h1.487v-.315l.517-1.563 1-.416 1.727.794 1.033-1.033-.1-.2-.723-1.36.29-1.034Zm-6.189 1.362a2.068 2.068 0 1 1 2.055-2.08 2.08 2.08 0 0 1-2.055 2.08Z" fill="url(#49ee2a0f-2a50-4e4d-98b1-69c9afdd773d)"></path></g><defs>
<linearGradient id="49ee2a0f-2a50-4e4d-98b1-69c9afdd773c" x1="3.239" y1="9.574" x2="3.239" y2="16.04" gradientUnits="userSpaceOnUse"><stop offset="0" stop-color="#50e6ff"></stop><stop offset="1" stop-color="#5ea0ef"></stop></linearGradient>
<linearGradient id="49ee2a0f-2a50-4e4d-98b1-69c9afdd773d" x1="11.685" y1="1.96" x2="11.685" y2="14.691" gradientUnits="userSpaceOnUse"><stop offset="0" stop-color="#c69aeb"></stop><stop offset=".994" stop-color="#6f4bb2"></stop></linearGradient>
</defs>
</svg>