<svg viewBox="0 0 18 18" class="" role="presentation" focusable="false" xmlns="http://www.w3.org/2000/svg" xmlns:xlink="http://www.w3.org/1999/xlink" id="FxSymbol0-178" data-type="1"><g><path d="M.613.993h1.363v3.782a.306.306 0 0 1-.306.306H.307A.306.306 0 0 1 0 4.775V1.606A.6.6 0 0 1 .592.993Z" fill="#a3a3a3"></path><path d="M.613.993h1.363v3.782a.306.306 0 0 1-.306.306H.307A.306.306 0 0 1 0 4.775V1.606A.6.6 0 0 1 .592.993Z" fill="#a3a3a3" opacity=".5"></path><path d="M16.025.993h1.362a.6.6 0 0 1 .6.6v3.18a.306.306 0 0 1-.306.306h-1.35a.306.306 0 0 1-.306-.306V.993Z" fill="#a3a3a3"></path><path d="M16.025.993h1.362a.6.6 0 0 1 .6.6v3.18a.306.306 0 0 1-.306.306h-1.35a.306.306 0 0 1-.306-.306V.993Z" fill="#a3a3a3" opacity=".5"></path><path d="M17.989 1.585v1.32H.032v-1.32a.6.6 0 0 1 .6-.6h16.755a.6.6 0 0 1 .602.6Z" fill="#949494"></path><path d="M.307 12.9H1.67a.306.306 0 0 1 .306.306v3.813H.613A.6.6 0 0 1 0 16.426v-3.201a.306.306 0 0 1 .285-.325Z" fill="#a3a3a3"></path><path d="M.307 12.9H1.67a.306.306 0 0 1 .306.306v3.813H.613A.6.6 0 0 1 0 16.426v-3.201a.306.306 0 0 1 .285-.325Z" fill="#a3a3a3" opacity=".5"></path><path d="M16.331 12.9h1.363a.306.306 0 0 1 .306.3v3.169a.6.6 0 0 1-.6.6h-1.375v-3.75a.306.306 0 0 1 .284-.327Z" fill="#a3a3a3"></path><path d="M16.331 12.9h1.363a.306.306 0 0 1 .306.3v3.169a.6.6 0 0 1-.6.6h-1.375v-3.75a.306.306 0 0 1 .284-.327Z" fill="#a3a3a3" opacity=".5"></path><path d="M0 16.415V15.1h17.958v1.32a.6.6 0 0 1-.6.6H.6a.6.6 0 0 1-.6-.605Z" fill="#949494"></path><path d="M12.919 11.292a.105.105 0 0 0 .082-.04l2.14-2.128a.234.234 0 0 0 0-.318l-2.14-2.163a.1.1 0 0 0-.148-.02.106.106 0 0 0-.04.1v1.331a.106.106 0 0 1-.093.117H7.736a1.235 1.235 0 0 0-.976-.482c-.042 0-.083-.006-.124-.006a1.294 1.294 0 0 0-.122 2.582h.246a1.274 1.274 0 0 0 .988-.494h4.963a.106.106 0 0 1 .105.094v1.318a.107.107 0 0 0 .103.109Z" fill="url(#49ee2a0f-2a50-4e4d-98b1-69c9afdd773b)"></path><path d="M8.886 10.57a2.747 2.747 0 1 1-.01-3.2h1.49a4.04 4.04 0 1 0 .006 3.2Z" fill="#773adc"></path> ? </g><defs>
<linearGradient id="49ee2a0f-2a50-4e4d-98b1-69c9afdd773b" x1="10.275" y1="11.03" x2="10.275" y2="7.773" gradientUnits="userSpaceOnUse"><stop offset="0" stop-color="#0078d4"></stop><stop offset="1" stop-color="#5ea0ef"></stop></linearGradient>
</defs>
</svg>