<svg viewBox="0 0 18 18" class="" role="presentation" focusable="false" xmlns="http://www.w3.org/2000/svg" xmlns:xlink="http://www.w3.org/1999/xlink" id="FxSymbol0-0a5" data-type="1"><g><title>Icon-iot-183</title><path fill="#949494" d="M13.96 8.26H7.12l1.93-1.94h3.23v-.75H8.74L6.06 8.26h-2.9v.75h.52l2.69 2.71h4.01v-.75h-3.7L4.73 9.01h9.23v-.75z"></path><path fill="url(#8fb9fb97-5332-4186-952c-624f542b20bb)" d="M11.09 4.66A1.29 1.29 0 1 1 9.8 5.94a1.28 1.28 0 0 1 1.29-1.28zm1.17 4a1.29 1.29 0 1 0 1.29-1.28 1.29 1.29 0 0 0-1.29 1.26zm-2.72 2.67a1.29 1.29 0 1 0 1.29-1.28 1.28 1.28 0 0 0-1.29 1.28z"></path><g fill="#999"><path d="M1.07 1.43h1.29V5a.29.29 0 0 1-.29.29H.79A.29.29 0 0 1 .5 5V2a.57.57 0 0 1 .57-.57z"></path><path d="M1.07 1.43h1.29V5a.29.29 0 0 1-.29.29H.79A.29.29 0 0 1 .5 5V2a.57.57 0 0 1 .57-.57z" opacity=".5"></path></g><g fill="#999"><path d="M15.64 1.43h1.29a.57.57 0 0 1 .57.57v3a.29.29 0 0 1-.29.29h-1.29a.29.29 0 0 1-.28-.29V1.43z"></path><path d="M15.64 1.43h1.29a.57.57 0 0 1 .57.57v3a.29.29 0 0 1-.29.29h-1.29a.29.29 0 0 1-.28-.29V1.43z" opacity=".5"></path></g><path fill="#949494" d="M17.5 2v1.25H.5V2a.57.57 0 0 1 .57-.57h15.87a.57.57 0 0 1 .56.57z"></path><g fill="#999"><path d="M.79 12.68h1.29a.29.29 0 0 1 .29.29v3.6h-1.3A.57.57 0 0 1 .5 16v-3a.29.29 0 0 1 .29-.32z"></path><path d="M.79 12.68h1.29a.29.29 0 0 1 .29.29v3.6h-1.3A.57.57 0 0 1 .5 16v-3a.29.29 0 0 1 .29-.32z" opacity=".5"></path></g><g fill="#999"><path d="M15.92 12.68h1.29a.29.29 0 0 1 .29.29v3a.57.57 0 0 1-.57.57h-1.29V13a.29.29 0 0 1 .28-.32z"></path><path d="M15.92 12.68h1.29a.29.29 0 0 1 .29.29v3a.57.57 0 0 1-.57.57h-1.29V13a.29.29 0 0 1 .28-.32z" opacity=".5"></path></g><path fill="#949494" d="M.5 16v-1.25h17V16a.57.57 0 0 1-.57.57H1.07A.57.57 0 0 1 .5 16z"></path></g><defs>
<linearGradient id="8fb9fb97-5332-4186-952c-624f542b20bb" x1="12.11" x2="12.3" y1="14.5" y2="3.41" gradientUnits="userSpaceOnUse"><stop offset="0" stop-color="#198ab3"></stop><stop offset="0" stop-color="#198ab3"></stop><stop offset=".11" stop-color="#22a5cb"></stop><stop offset=".23" stop-color="#29bade"></stop><stop offset=".37" stop-color="#2ec9eb"></stop><stop offset=".53" stop-color="#31d1f3"></stop><stop offset=".78" stop-color="#32d4f5"></stop></linearGradient>
</defs>
</svg>