<?xml version="1.0" encoding="UTF-8"?>
<svg width="200px" height="200px" viewBox="0 0 200 200" version="1.1" xmlns="http://www.w3.org/2000/svg" xmlns:xlink="http://www.w3.org/1999/xlink">
    <!-- Generator: Sketch 51.2 (57519) - http://www.bohemiancoding.com/sketch -->
    <title>fhirschema-logo</title>
    <desc>Created with Sketch.</desc>
    <defs></defs>
    <g id="fhirschema-logo" stroke="none" stroke-width="1" fill="none" fill-rule="evenodd">
        <g transform="translate(16.000000, 29.000000)" fill="#EA4A35" fill-rule="nonzero" id="Shape">
            <path d="M80.0889073,126.184513 C53.4845026,120.305927 41.4918436,89.5458891 58.7226756,69.8594647 C64.0986952,63.7074571 72.5073412,58.2390058 78.1590541,52.3604207 C89.3246332,41.0133844 90.4274066,29.1195029 75.2642743,17.499044 C100.903752,21.3269598 105.590539,44.4311664 98.0089727,58.2390058 C93.5978796,66.3049713 86.7055468,73.0038241 80.3646006,79.8393882 C67.9584016,95.287763 64.7879285,108.958891 80.0889073,126.184513 Z M106.004079,54.5478011 C106.693312,61.5200765 102.971452,67.125239 97.457586,73.0038241 C94.0114196,76.8317401 71.404568,95.287763 79.6753673,113.880497 C83.1215338,121.67304 93.1843397,125.637667 101.592986,126.184513 C96.2169661,120.989484 94.5628062,117.161568 94.2871129,112.923518 C93.7357262,102.39675 104.487765,91.1864246 108.898858,85.0344169 C116.204731,74.7810708 110.828712,60.6998088 106.004079,54.5478011 Z M0,66.7151052 C12.819739,66.7151052 14.6117456,59.7428299 14.6117456,53.454111 C14.6117456,48.3957936 13.9225123,43.4741874 13.2332789,38.41587 C12.5440457,33.3575526 11.8548124,28.5726578 11.8548124,23.5143404 C11.8548124,6.97227535 22.7446982,0 38.0456772,0 L41.9053835,0 L41.9053835,9.84321225 L38.5970637,9.84321225 C27.9828712,9.84321225 24.2610115,15.585086 24.2610115,25.2915871 C24.2610115,29.3929255 24.8123981,33.7676864 25.5016314,38.0057361 C26.1908647,42.5172085 26.7422513,46.7552582 26.7422513,51.6768643 C26.8800979,63.1606119 21.9176184,68.9024857 13.7846656,71.0898663 L13.7846656,71.5000001 C21.9176184,73.413958 27.0179446,79.5659656 26.7422513,91.0497133 C26.7422513,95.8346081 26.1908647,100.34608 25.5016314,104.720841 C24.8123981,109.232314 24.2610115,113.333652 24.2610115,117.571702 C24.2610115,127.551625 28.3964112,133.156788 38.5970637,133.156788 L41.9053835,133.156788 L41.9053835,143 L38.0456772,143 C23.0203916,143 11.8548124,136.57457 11.8548124,118.391969 C11.8548124,113.607075 12.5440457,108.548757 13.2332789,103.627151 C13.9225123,98.8422563 14.6117456,93.9206502 14.6117456,89.1357553 C14.6117456,83.5305928 12.819739,75.8747611 0,75.8747611 L0,66.7151052 Z M169,75.8747611 C156.180262,75.8747611 154.388255,83.5305928 154.388255,89.1357553 C154.388255,93.9206502 155.077488,98.8422563 155.766722,103.627151 C156.455955,108.412046 157.145188,113.470363 157.145188,118.391969 C157.145188,136.57457 145.703916,143 130.954324,143 L127.094617,143 L127.094617,133.156788 L130.127244,133.156788 C140.190049,133.020077 144.601143,127.551625 144.601143,117.571702 C144.601143,113.333652 143.911909,109.095602 143.360523,104.720841 C142.67129,100.482792 141.982056,95.9713194 141.982056,91.0497133 C141.982056,79.5659656 147.082382,73.413958 154.939642,71.5000001 L154.939642,71.0898663 C146.944536,68.9024857 141.982056,63.1606119 141.982056,51.6768643 C141.982056,46.8919695 142.67129,42.5172085 143.360523,38.0057361 C143.911909,33.7676864 144.601143,29.3929255 144.601143,25.2915871 C144.601143,15.585086 140.741437,9.97992352 130.26509,9.84321225 L126.95677,9.84321225 L126.95677,0 L130.540783,0 C145.979609,0 157.007341,6.97227535 157.007341,23.5143404 C157.007341,28.5726578 156.318108,33.3575526 155.628875,38.41587 C154.939642,43.4741874 154.250409,48.3957936 154.250409,53.454111 C154.250409,59.7428299 156.042415,66.7151052 168.862154,66.7151052 L168.862154,75.8747611 L169,75.8747611 Z"></path>
        </g>
    </g>
</svg>