<?xml version="1.0" encoding="UTF-8"?>
<svg width="200px" height="200px" viewBox="0 0 200 200" version="1.1" xmlns="http://www.w3.org/2000/svg" xmlns:xlink="http://www.w3.org/1999/xlink">
    <!-- Generator: Sketch 51.2 (57519) - http://www.bohemiancoding.com/sketch -->
    <title>fhirjs-logo</title>
    <desc>Created with Sketch.</desc>
    <defs></defs>
    <g id="fhirjs-logo" stroke="none" stroke-width="1" fill="none" fill-rule="evenodd">
        <g id="fhirjs" transform="translate(13.000000, 31.000000)" fill="#EA4A35" fill-rule="nonzero">
            <path d="M122.069162,130.532851 L129.901961,121.200445 C135.021034,125.217706 140.448485,127.257238 146.307666,127.257238 C150.13155,127.257238 152.166845,125.959354 152.166845,123.796214 L152.166845,123.610802 C152.166845,121.447661 150.501604,120.335189 143.59394,118.666481 C132.862389,116.132517 124.47451,113.165924 124.47451,102.597439 L124.47451,102.412027 C124.47451,92.8942093 131.937255,86.1575724 144.14902,86.1575724 C152.721926,86.1575724 159.444563,88.5061247 165.118717,92.8942093 L158.026026,102.968263 C153.277005,99.6926503 148.342959,97.8385301 143.778966,97.8385301 C140.325134,97.8385301 138.659893,99.3218263 138.659893,101.114142 L138.659893,101.299555 C138.659893,103.648107 140.510161,104.575167 147.417826,106.243875 C159.074509,108.77784 166.413904,112.609688 166.413904,122.127506 L166.413904,122.312918 C166.413904,132.757795 158.211052,138.938196 145.814261,138.938196 C136.871301,138.938196 128.298396,136.21882 122.069162,130.532851 Z M80.6848486,130.347439 L89.8128344,121.756681 C92.3415331,124.66147 94.561854,126.51559 97.6456329,126.51559 C101.284492,126.51559 103.504813,124.167038 103.504813,119.408129 L103.504813,87.0846326 L117.566845,87.0846326 L117.566845,119.408129 C117.566845,125.773942 115.901604,130.347439 112.447772,133.870267 C109.178966,137.14588 104.24492,139 98.3857399,139 C89.8128344,138.938196 84.3237078,135.29176 80.6848486,130.347439 Z M127.373262,28 L151.056685,28 C158.889483,28 164.193582,30.0395323 167.647416,33.5005568 C170.546168,36.4053452 172.211408,40.2371938 172.211408,45.3669266 L172.211408,45.5523385 C172.211408,53.4014477 168.017469,58.5311804 161.788236,61.2505568 L174,78.9883073 L157.779323,78.9883073 L147.541177,63.6609132 L141.311943,63.6609132 L141.311943,78.9883073 L127.249911,78.9883073 L127.249911,28 L127.373262,28 Z M150.56328,52.5361916 C155.312299,52.5361916 158.026026,50.1876393 158.026026,46.4793986 L158.026026,46.2939867 C158.026026,42.2767261 155.127273,40.2371938 150.378253,40.2371938 L141.065241,40.2371938 L141.065241,52.4743876 L150.56328,52.4743876 L150.56328,52.5361916 Z M103.68984,28 L117.936899,28 L117.936899,78.9883073 L103.68984,78.9883073 L103.68984,28 Z M48.0584671,28 L62.1204992,28 L62.1204992,47.0356348 L80.191444,47.0356348 L80.191444,28 L94.253476,28 L94.253476,78.9883073 L80.191444,78.9883073 L80.191444,59.6436525 L62.1204992,59.6436525 L62.1204992,78.9883073 L48.0584671,78.9883073 L48.0584671,28 Z M39.7425059,28 L39.7425059,40.4226058 L15.0620321,40.4226058 L15.0620321,49.0133631 L39.7425059,49.0133631 L39.7425059,60.6943208 L15.0620321,60.6943208 L15.0620321,78.9883073 L1,78.9883073 L1,28 L39.7425059,28 Z" id="Shape"></path>
            <polygon id="Line" points="174 0 174 14 0 14 0 0"></polygon>
            <rect id="Rectangle-100" transform="translate(38.000000, 110.000000) rotate(-45.000000) translate(-38.000000, -110.000000) " x="29" y="101" width="18" height="18"></rect>
        </g>
    </g>
</svg>