<svg viewBox="0 0 18 18" class="" role="presentation" focusable="false" xmlns:svg="http://www.w3.org/2000/svg" xmlns:xlink="http://www.w3.org/1999/xlink" id="FxSymbol0-06e" data-type="1"><g><path d="M17.28 3.9h-.91a4.16 4.16 0 0 0-.55 0 .68.68 0 0 1-.59-1l.39-.7a1.83 1.83 0 0 0-.51-.29l-.93 1.66a.7.7 0 0 1-.6.35h-.83a.66.66 0 0 0-.32.08l-1.57 1a.25.25 0 0 1-.16 0H5.27a.29.29 0 0 0-.27.32v4.82l-1.75.54.13.56L5 11v2.9a.29.29 0 0 0 .29.29h9.37l1.15 1.49.49-.31-.68-1.18h1.68a.29.29 0 0 0 .3-.29V4.2a.3.3 0 0 0-.32-.3z" fill="#005ba1"></path><circle cx="15.88" cy="1.08" r="1.09" fill="#50e5ff"></circle><circle cx="16.58" cy="16.59" r="1.42" fill="#50e5ff"></circle><circle cx="1.77" cy="11.44" r="1.77" fill="#50e5ff"></circle><path d="M15.17 4.75l-6.91-1h-.14a1 1 0 0 0-1 .87l-.26 1.69H16V5.9a1 1 0 0 0-.83-1.15z" fill="#0078d4"></path><path d="M15.1 5.18l-6.9-1h-.09a.58.58 0 0 0-.57.5L7.3 6.31h8.22l.07-.47a.58.58 0 0 0-.49-.66z" class="msportalfx-svg-c01" fill="#ffffff"></path><path d="M5.26 5h6.05a.33.33 0 0 1 .21.09l1 1a.29.29 0 0 0 .21.09h4.6a.3.3 0 0 1 .3.29v7.43a.3.3 0 0 1-.3.29h-12A.29.29 0 0 1 5 13.9V5.32A.3.3 0 0 1 5.26 5z" fill="url(#a)"></path></g><defs>
<linearGradient id="a" x1="-1267.23" y1="3.07" x2="-1267.52" y2="14.64" gradientTransform="matrix(-1 0 0 1 -1256.13 0)" gradientUnits="userSpaceOnUse"><stop offset="0" stop-color="#32d4f5"></stop><stop offset=".23" stop-color="#31d0f1"></stop><stop offset=".46" stop-color="#2cc3e6"></stop><stop offset=".7" stop-color="#25afd4"></stop><stop offset=".94" stop-color="#1c92ba"></stop><stop offset="1" stop-color="#198ab3"></stop></linearGradient>
<linearGradient id="b" x1="6.05" y1="11.51" x2="6.05" y2="3" gradientUnits="userSpaceOnUse"><stop offset="0" stop-color="#0078d4"></stop><stop offset=".82" stop-color="#5ea0ef"></stop></linearGradient>
<linearGradient id="c" x1="10.51" y1="6.82" x2="7.93" y2="10.5" gradientUnits="userSpaceOnUse"><stop offset="0" stop-color="#005ba1"></stop><stop offset=".14" stop-color="#035da3" stop-opacity=".97"></stop><stop offset=".3" stop-color="#0b63aa" stop-opacity=".88"></stop><stop offset=".47" stop-color="#196eb6" stop-opacity=".73"></stop><stop offset=".65" stop-color="#2d7cc6" stop-opacity=".52"></stop><stop offset=".84" stop-color="#468edb" stop-opacity=".26"></stop><stop offset="1" stop-color="#5ea0ef" stop-opacity="0"></stop></linearGradient>
</defs>
</svg>