<svg viewBox="0 0 18 18" class="" role="presentation" focusable="false" xmlns="http://www.w3.org/2000/svg" xmlns:xlink="http://www.w3.org/1999/xlink" id="FxSymbol0-01a" data-type="337"><g><path fill="#50e6ff" d="M5.5 13.1l-.6.6a.3.3 0 0 1-.4 0L.2 9.4a.608.608 0 0 1 0-.8L.7 8l4.8 4.8a.188.188 0 0 1 0 .3z"></path><path fill="#1490df" d="M4.8 4.3l.6.6a.3.3 0 0 1 0 .4L.8 9.9l-.6-.6a.6.6 0 0 1 0-.8l4.3-4.3a.367.367 0 0 1 .3.1z"></path><path fill="#50e6ff" d="M17.3 8l.6.6a.608.608 0 0 1 0 .8l-4.4 4.4a.3.3 0 0 1-.4 0l-.6-.6a.3.3 0 0 1 0-.4L17.3 8z"></path><path fill="#1490df" d="M17.8 9.3l-.6.6-4.7-4.7a.3.3 0 0 1 0-.4l.6-.6a.3.3 0 0 1 .4 0l4.3 4.3a.6.6 0 0 1 0 .8z"></path><path fill="url(#716486ba-07a5-4178-9c6a-cec856341a7a)" d="M8.3 9.9H4.7a.215.215 0 0 1-.2-.2v-.1l4.3-8.5c.1 0 .1-.1.2-.1h4.2a.215.215 0 0 1 .2.2v.1L8.4 8h4.9a.215.215 0 0 1 .2.2.1.1 0 0 1-.1.1l-8.2 8.5c-.1 0-.6.5-.4-.2z"></path></g><defs>
<linearGradient id="716486ba-07a5-4178-9c6a-cec856341a7a" x1="-26.319" x2="-26.319" y1="-296.201" y2="-311.705" gradientTransform="matrix(1.156 0 0 1.029 39.425 321.61)" gradientUnits="userSpaceOnUse"><stop offset="0" stop-color="#fea11b"></stop><stop offset=".284" stop-color="#fea51a"></stop><stop offset=".547" stop-color="#feb018"></stop><stop offset=".8" stop-color="#ffc314"></stop><stop offset="1" stop-color="#ffd70f"></stop></linearGradient>
</defs>
</svg>