<svg viewBox="0 0 18 18" class="" role="presentation" focusable="false" xmlns="http://www.w3.org/2000/svg" xmlns:xlink="http://www.w3.org/1999/xlink" id="FxSymbol0-1ab" data-type="140"><g><title>MsPortalFx.base.images-68</title><path fill="#ef7100" d="M9.3 14.752c0-.154-.613-.154-.613 0a1.656 1.656 0 0 1-1.636 1.8h3.882a1.655 1.655 0 0 1-1.633-1.8z"></path><path fill="#f78d1e" d="M13.335 1.1a.571.571 0 0 1 .807 0l.026.028a8.32 8.32 0 0 1-11.736 11.73.57.57 0 0 1-.049-.8l.025-.026A.571.571 0 0 1 3.19 12 7.178 7.178 0 0 0 13.312 1.882a.573.573 0 0 1 .023-.782zm-1.389 16.4h-5.9a.476.476 0 0 1-.476-.476.476.476 0 0 1 .476-.476h5.9a.476.476 0 0 1 .475.476.476.476 0 0 1-.475.476z"></path><circle cx="7.871" cy="6.563" r="6.063" fill="url(#49ee2a0f-2a50-4e4d-98b1-69c9afdd78a1)"></circle><g fill="#42e8ca" clip-path="url(#49ee2a0f-2a50-4e4d-98b1-69c9afdd78a2)"><path d="m.724 1.776 1.962 1.962a.839.839 0 0 1 0 1.187.839.839 0 0 1-1.187 0L-.463 2.963a.839.839 0 0 1 0-1.187.841.841 0 0 1 1.187 0zM6.7 5.389a.839.839 0 0 1 0 1.187.841.841 0 0 1-1.187 0 .841.841 0 0 1 0-1.187.839.839 0 0 1 1.187 0zM3.871-1.974l3.286 3.286a1.407 1.407 0 0 1 0 1.989 1.407 1.407 0 0 1-1.989 0L1.882.015a1.407 1.407 0 0 1 0-1.989 1.407 1.407 0 0 1 1.989 0z"></path><rect width="4.596" height="12.191" x="12.667" y="3.516" rx="2.297" transform="rotate(-45 14.965 9.611)"></rect><path d="m9.744 11.85 6.119 6.119a2.618 2.618 0 0 1 0 3.7 2.618 2.618 0 0 1-3.7 0l-6.122-6.115a2.619 2.619 0 0 1 0-3.7 2.619 2.619 0 0 1 3.703-.004zm.734-2.213a.446.446 0 0 0 .63 0 .445.445 0 0 0 0-.63l5.04 5.039-1.407 1.418"></path><path d="m10.487 9.646 1.468 1.468a.606.606 0 0 1 0 .856.606.606 0 0 1-.856 0L9.631 10.5a.606.606 0 0 1 0-.856.606.606 0 0 1 .856.002z"></path></g></g><defs>
<linearGradient id="49ee2a0f-2a50-4e4d-98b1-69c9afdd78a1" x1="-212.049" x2="-212.049" y1="722.745" y2="734.871" gradientTransform="scale(1 -1) rotate(-45 -989.91 95.67)" gradientUnits="userSpaceOnUse"><stop offset="0" stop-color="#0078d4"></stop><stop offset=".82" stop-color="#5ea0ef"></stop></linearGradient>
<clipPath id="49ee2a0f-2a50-4e4d-98b1-69c9afdd78a2"><circle cx="7.871" cy="6.563" r="6.063" fill="none"></circle></clipPath>
</defs>
</svg>