<svg data-slug-id="fhir-cloud" xmlns="http://www.w3.org/2000/svg" viewBox="0 0 48 48"><path d="M46.7274 22.4741C46.7621 19.7519 45.7146 17.1274 43.8151 15.1773C41.9156 13.2271 39.3195 12.111 36.5974 12.0741C35.6703 12.0753 34.748 12.2065 33.8574 12.4641C32.3447 9.88419 29.9936 7.90059 27.1959 6.84382C24.3982 5.78704 21.3228 5.72092 18.4822 6.65647C15.6417 7.59202 13.2075 9.47273 11.5853 11.9852C9.96315 14.4977 9.25096 17.4902 9.56742 20.4641C8.69505 20.1501 7.76488 20.0294 6.84126 20.1103C5.91765 20.1913 5.02265 20.4719 4.2182 20.9329C3.41374 21.3938 2.71904 22.024 2.18217 22.7799C1.64529 23.5358 1.27906 24.3993 1.10882 25.3107C0.938573 26.2221 0.968382 27.1596 1.19618 28.0583C1.42398 28.9571 1.84433 29.7956 2.42814 30.5159C3.01195 31.2361 3.74528 31.8209 4.57739 32.2298C5.40951 32.6387 6.32053 32.862 7.24742 32.8841H37.1274C39.7569 32.71 42.2192 31.5329 44.0057 29.5956C45.7922 27.6584 46.7665 25.109 46.7274 22.4741V22.4741Z" fill="#0078D4"/><path d="M15.4675 27.2267H14.6375V18.3867H18.7875V19.1167H15.4675V22.3467H18.6075V23.0867H15.4675V27.2267Z" fill="white" stroke="white" stroke-width="0.41" stroke-miterlimit="10"/><path d="M20.3574 27.2267V18.3867H21.1774V22.3467H25.6974V18.3867H26.5274V27.2267H25.6974V23.0867H21.1774V27.2267H20.3574Z" fill="white" stroke="white" stroke-width="0.41" stroke-miterlimit="10"/><path d="M29.4775 18.3867H28.6475V27.2367H29.4775V18.3867Z" fill="white" stroke="white" stroke-width="0.41" stroke-miterlimit="10"/><path d="M36.0175 24.467C35.4675 22.717 34.6575 22.717 34.6575 22.717C36.5875 22.717 36.4975 20.597 36.4975 20.597C36.5112 20.309 36.4657 20.0214 36.3639 19.7517C36.2621 19.482 36.1062 19.236 35.9057 19.0289C35.7051 18.8218 35.4643 18.658 35.198 18.5476C34.9318 18.4372 34.6457 18.3825 34.3575 18.387H31.6575V27.227H32.4875V23.087H33.7775C34.4175 23.087 34.7775 24.007 34.7775 24.007L36.1675 27.227H37.0875C36.6407 26.3445 36.2823 25.42 36.0175 24.467V24.467ZM33.8075 22.257H32.5175V19.117H33.9875C35.7375 19.117 35.5575 20.597 35.5575 20.597C35.5759 20.8275 35.5425 21.0593 35.4598 21.2753C35.377 21.4912 35.2469 21.686 35.0791 21.8451C34.9113 22.0043 34.71 22.1239 34.49 22.1952C34.2699 22.2664 34.0367 22.2875 33.8075 22.257V22.257Z" fill="white" stroke="white" stroke-width="0.41" stroke-miterlimit="10"/><path d="M23.9475 41.9958C35.3854 41.9958 44.6575 41.2526 44.6575 40.3358C44.6575 39.419 35.3854 38.6758 23.9475 38.6758C12.5097 38.6758 3.23755 39.419 3.23755 40.3358C3.23755 41.2526 12.5097 41.9958 23.9475 41.9958Z" fill="#50E6FF"/></svg>