<svg viewBox="0 0 50 50" class="fxs-portal-svg" role="presentation" focusable="false" xmlns:svg="http://www.w3.org/2000/svg" xmlns:xlink="http://www.w3.org/1999/xlink" id="FxSymbol0-116" data-type="1"><g><title></title><circle cx="24.3" cy="11.1" r="4" class="msportalfx-svg-c14" fill="#57a300"></circle><circle cx="24.6" cy="38.9" r="4" class="msportalfx-svg-c14" fill="#57a300"></circle><path d="M14.5 40.9h-1.9c-6.1 0-11.1-5-11.1-11.1v-9.7c.1-5.8 5-10.8 11-11.1h3c1 0 1.8.8 1.8 1.8s-.8 1.8-1.8 1.8h-2.9c-4 .2-7.4 3.5-7.4 7.4v9.7c0 4.1 3.3 7.4 7.4 7.4h1.9c1 0 1.8.8 1.8 1.8 0 1.2-.8 2-1.8 2z" class="msportalfx-svg-c15" fill="#59b4d9"></path><path d="M37.4 40.9h-3.9c-1 0-1.8-.8-1.8-1.8s.8-1.8 1.8-1.8h3.9c4.1 0 7.4-3.3 7.4-7.4v-9.7c0-4.1-3.3-7.4-7.4-7.4h-2.9c-1 0-1.8-.8-1.8-1.8s.8-1.8 1.8-1.8h2.9c6.1 0 11.1 5 11.1 11.1V30c0 6-5 10.9-11.1 10.9z" class="msportalfx-svg-c17" fill="#804998"></path><path d="M24.1 22.2c-2.8 0-5.7-1.1-7.8-3.2-.7-.7-.7-1.9 0-2.6.7-.7 1.9-.7 2.6 0 2.9 2.9 7.6 2.9 10.4 0 2.9-2.9 2.9-7.6 0-10.4-1.4-1.4-3.3-2.2-5.2-2.2-2 0-3.8.8-5.2 2.2-.7.7-1.9.7-2.6 0-.7-.7-.7-1.9 0-2.6C18.4 1.2 21.2 0 24.1 0c3 0 5.7 1.2 7.8 3.2 4.3 4.3 4.3 11.4 0 15.7-2.1 2.2-4.9 3.3-7.8 3.3z" class="msportalfx-svg-c20" fill="#68217a"></path><path d="M24.5 50c-3 0-5.7-1.2-7.8-3.2-4.3-4.3-4.3-11.4 0-15.7 2.1-2.1 4.9-3.2 7.8-3.2 3 0 5.7 1.2 7.8 3.2.7.7.7 1.9 0 2.6-.7.7-1.9.7-2.6 0-1.4-1.4-3.3-2.2-5.2-2.2-2 0-3.8.8-5.2 2.2-2.9 2.9-2.9 7.6 0 10.4 1.4 1.4 3.2 2.2 5.2 2.2s3.8-.8 5.2-2.2c.7-.7 1.9-.7 2.6 0 .7.7.7 1.9 0 2.6-2 2.1-4.8 3.3-7.8 3.3z" class="msportalfx-svg-c19" fill="#0072c6"></path></g><defs>
<linearGradient id="a" x1="9" y1="16.39" x2="9" y2="-1.94" gradientUnits="userSpaceOnUse"><stop offset="0" stop-color="#0078d4"></stop><stop offset=".16" stop-color="#1380da"></stop><stop offset=".53" stop-color="#3c91e5"></stop><stop offset=".82" stop-color="#559cec"></stop><stop offset="1" stop-color="#5ea0ef"></stop></linearGradient>
<linearGradient id="b" x1="9.88" y1="7.11" x2="9.99" y2="17.27" gradientUnits="userSpaceOnUse"><stop offset="0" stop-color="#32d4f5"></stop><stop offset=".32" stop-color="#31d1f3"></stop><stop offset=".53" stop-color="#2ec9eb"></stop><stop offset=".7" stop-color="#29bade"></stop><stop offset=".86" stop-color="#22a5cb"></stop><stop offset="1" stop-color="#198ab3"></stop><stop offset="1" stop-color="#198ab3"></stop></linearGradient>
<radialGradient id="c" cx="9.43" cy="7.03" r="7.27" gradientUnits="userSpaceOnUse"><stop offset="0" stop-color="#f2f2f2"></stop><stop offset=".58" stop-color="#eee"></stop><stop offset="1" stop-color="#e6e6e6"></stop></radialGradient>
</defs>
</svg>