<svg viewBox="0 0 50 50" class="" role="presentation" focusable="false" xmlns="http://www.w3.org/2000/svg" xmlns:xlink="http://www.w3.org/1999/xlink" id="FxSymbol0-0aa" data-type="1"><g><title></title><circle cx="25" cy="25" r="23.9" class="msportalfx-svg-c19" fill="#0072c6"></circle><circle cx="25" cy="25" r="21" opacity=".8" class="msportalfx-svg-c01" fill="#ffffff"></circle><path d="M25.9 20.4v-5h-2.5v5c0 .9-.8 1.7-2.1 2.1l-3.4.7c-2.3.7-3.9 2.5-3.9 4.5v5.7h2.5v-5.7c0-.9.8-1.7 2.1-2.1l3.4-.8c2.3-.6 3.9-2.4 3.9-4.4z" class="msportalfx-svg-c16" fill="#3999c6"></path><path d="M24.1 20.4v-5h2.5v5c0 .9.8 1.7 2.1 2.1l3.4.7c2.3.7 3.9 2.5 3.9 4.5v5.7h-2.5v-5.7c0-.9-.8-1.7-2.1-2.1l-3.4-.8c-2.3-.6-3.9-2.4-3.9-4.4z" class="msportalfx-svg-c16" fill="#3999c6"></path><path d="M19.6 36v-4.6c0-1.1-.9-2-2-2H13c-1.1 0-2 .9-2 2V36c0 1.1.9 2 2 2h4.6c1.1 0 2-.9 2-2zm10.8.2v-4.6c0-1.1.9-2 2-2H37c1.1 0 2 .9 2 2v4.6c0 1.1-.9 2-2 2h-4.6c-1.1 0-2-.9-2-2z" class="msportalfx-svg-c14" fill="#57a300"></path><path d="M26.989 11.011v3.978h-3.978v-3.978h3.978M27.849 8H22.15C20.968 8 20 8.968 20 10.151v5.699c0 1.182.968 2.15 2.151 2.15h5.699c1.182 0 2.15-.968 2.15-2.151V10.15C30 8.968 29.032 8 27.849 8z" class="msportalfx-svg-c17" fill="#804998"></path><path d="M23 11h4v4h-4z" class="msportalfx-svg-c01" fill="#ffffff"></path></g><defs>
</defs>
</svg>