<svg viewBox="0 0 50 50" class="" role="presentation" focusable="false" xmlns:svg="http://www.w3.org/2000/svg" xmlns:xlink="http://www.w3.org/1999/xlink" id="FxSymbol0-0b7" data-type="1"><g><title></title><circle cx="25" cy="25" r="23.9" class="msportalfx-svg-c19" fill="#0072c6"></circle><circle opacity=".8" cx="25" cy="25" r="21" class="msportalfx-svg-c01" fill="#ffffff"></circle><path d="M25.9 20.4v-5h-2.5v5c0 .9-.8 1.7-2.1 2.1l-3.4.7c-2.3.7-3.9 2.5-3.9 4.5v5.7h2.5v-5.7c0-.9.8-1.7 2.1-2.1l3.4-.8c2.3-.6 3.9-2.4 3.9-4.4z" class="msportalfx-svg-c16" fill="#3999c6"></path><path d="M24.1 20.4v-5h2.5v5c0 .9.8 1.7 2.1 2.1l3.4.7c2.3.7 3.9 2.5 3.9 4.5v5.7h-2.5v-5.7c0-.9-.8-1.7-2.1-2.1l-3.4-.8c-2.3-.6-3.9-2.4-3.9-4.4z" class="msportalfx-svg-c16" fill="#3999c6"></path><path d="M19.6 36v-4.6c0-1.1-.9-2-2-2H13c-1.1 0-2 .9-2 2V36c0 1.1.9 2 2 2h4.6c1.1 0 2-.9 2-2zm10.8.2v-4.6c0-1.1.9-2 2-2H37c1.1 0 2 .9 2 2v4.6c0 1.1-.9 2-2 2h-4.6c-1.1 0-2-.9-2-2z" class="msportalfx-svg-c14" fill="#57a300"></path><path d="M26.989 11.011v3.978h-3.978v-3.978h3.978M27.849 8H22.15C20.968 8 20 8.968 20 10.151v5.699c0 1.182.968 2.15 2.151 2.15h5.699c1.182 0 2.15-.968 2.15-2.151V10.15C30 8.968 29.032 8 27.849 8z" class="msportalfx-svg-c17" fill="#804998"></path><path d="M23 11h4v4h-4z" class="msportalfx-svg-c01" fill="#ffffff"></path></g><defs>
<linearGradient id="a" x1="9" y1="16.39" x2="9" y2="-1.94" gradientUnits="userSpaceOnUse"><stop offset="0" stop-color="#0078d4"></stop><stop offset=".16" stop-color="#1380da"></stop><stop offset=".53" stop-color="#3c91e5"></stop><stop offset=".82" stop-color="#559cec"></stop><stop offset="1" stop-color="#5ea0ef"></stop></linearGradient>
<linearGradient id="b" x1="9.88" y1="7.11" x2="9.99" y2="17.27" gradientUnits="userSpaceOnUse"><stop offset="0" stop-color="#32d4f5"></stop><stop offset=".32" stop-color="#31d1f3"></stop><stop offset=".53" stop-color="#2ec9eb"></stop><stop offset=".7" stop-color="#29bade"></stop><stop offset=".86" stop-color="#22a5cb"></stop><stop offset="1" stop-color="#198ab3"></stop><stop offset="1" stop-color="#198ab3"></stop></linearGradient>
<radialGradient id="c" cx="9.43" cy="7.03" r="7.27" gradientUnits="userSpaceOnUse"><stop offset="0" stop-color="#f2f2f2"></stop><stop offset=".58" stop-color="#eee"></stop><stop offset="1" stop-color="#e6e6e6"></stop></radialGradient>
</defs>
</svg>