<svg viewBox="0.5 0.5 50 50" class="fxs-portal-svg" role="presentation" focusable="false" xmlns:svg="http://www.w3.org/2000/svg" xmlns:xlink="http://www.w3.org/1999/xlink" id="FxSymbol0-08f" data-type="180"><g><title></title><path fill-rule="evenodd" d="M37.676 26.891c-.299-.299-.769-1.218-2.176-1.218h-20c-1.408 0-1.877.919-2.176 1.218L7.096 35.54l4.724 1.29 4.481-6.353h18.4l4.481 6.353 4.724-1.29-6.23-8.649z" class="msportalfx-svg-c15" fill="#59b4d9"></path><path fill-rule="evenodd" d="M23.111 14.465h4.778v24.488h-4.778z" class="msportalfx-svg-c15" fill="#59b4d9"></path><path fill-rule="evenodd" d="M29.169.5h-7.338a3.851 3.851 0 0 0-3.84 3.84v6.655a3.851 3.851 0 0 0 3.84 3.84h7.338a3.851 3.851 0 0 0 3.84-3.84V4.34A3.851 3.851 0 0 0 29.169.5zm.427 10.239a.685.685 0 0 1-.683.683h-6.826a.685.685 0 0 1-.683-.683V4.596c0-.375.307-.683.683-.683h6.826c.375 0 .683.307.683.683v6.143z" class="msportalfx-svg-c15" fill="#59b4d9"></path><path fill-rule="evenodd" d="M29.169.5h-7.338a3.851 3.851 0 0 0-3.84 3.84v6.655a3.851 3.851 0 0 0 3.84 3.84h7.338a3.851 3.851 0 0 0 3.84-3.84V4.34A3.851 3.851 0 0 0 29.169.5zm.427 10.239a.685.685 0 0 1-.683.683h-6.826a.685.685 0 0 1-.683-.683V4.596c0-.375.307-.683.683-.683h6.826c.375 0 .683.307.683.683v6.143zm-1.792 27.474h-4.608a3.851 3.851 0 0 0-3.84 3.84v4.608a3.851 3.851 0 0 0 3.84 3.84h4.608a3.851 3.851 0 0 0 3.84-3.84v-4.608a3.852 3.852 0 0 0-3.84-3.84zm.426 8.191a.685.685 0 0 1-.683.683h-4.096a.685.685 0 0 1-.683-.683v-4.096c0-.375.307-.683.683-.683h4.096c.375 0 .683.307.683.683v4.096zM.5 37.053v4.608a3.851 3.851 0 0 0 3.84 3.84h4.608a3.851 3.851 0 0 0 3.84-3.84v-4.608a3.851 3.851 0 0 0-3.84-3.84H4.34a3.851 3.851 0 0 0-3.84 3.84zm3.413.256c0-.375.307-.683.683-.683h4.096c.375 0 .683.307.683.683v4.096a.685.685 0 0 1-.683.683H4.596a.685.685 0 0 1-.683-.683v-4.096zm42.747-4.096h-4.608a3.851 3.851 0 0 0-3.84 3.84v4.608a3.851 3.851 0 0 0 3.84 3.84h4.608a3.851 3.851 0 0 0 3.84-3.84v-4.608a3.851 3.851 0 0 0-3.84-3.84zm.427 8.191a.685.685 0 0 1-.683.683h-4.096a.685.685 0 0 1-.683-.683v-4.096c0-.375.307-.683.683-.683h4.096c.375 0 .683.307.683.683v4.096z" class="msportalfx-svg-c19" fill="#0072c6"></path></g><defs>
<linearGradient id="a" x1="-1267.23" y1="3.07" x2="-1267.52" y2="14.64" gradientTransform="matrix(-1 0 0 1 -1256.13 0)" gradientUnits="userSpaceOnUse"><stop offset="0" stop-color="#32d4f5"></stop><stop offset=".23" stop-color="#31d0f1"></stop><stop offset=".46" stop-color="#2cc3e6"></stop><stop offset=".7" stop-color="#25afd4"></stop><stop offset=".94" stop-color="#1c92ba"></stop><stop offset="1" stop-color="#198ab3"></stop></linearGradient>
<linearGradient id="b" x1="6.05" y1="11.51" x2="6.05" y2="3" gradientUnits="userSpaceOnUse"><stop offset="0" stop-color="#0078d4"></stop><stop offset=".82" stop-color="#5ea0ef"></stop></linearGradient>
<linearGradient id="c" x1="10.51" y1="6.82" x2="7.93" y2="10.5" gradientUnits="userSpaceOnUse"><stop offset="0" stop-color="#005ba1"></stop><stop offset=".14" stop-color="#035da3" stop-opacity=".97"></stop><stop offset=".3" stop-color="#0b63aa" stop-opacity=".88"></stop><stop offset=".47" stop-color="#196eb6" stop-opacity=".73"></stop><stop offset=".65" stop-color="#2d7cc6" stop-opacity=".52"></stop><stop offset=".84" stop-color="#468edb" stop-opacity=".26"></stop><stop offset="1" stop-color="#5ea0ef" stop-opacity="0"></stop></linearGradient>
</defs>
</svg>