<svg viewBox="0 0 18 18" class="" role="presentation" focusable="false" xmlns="http://www.w3.org/2000/svg" xmlns:xlink="http://www.w3.org/1999/xlink" id="FxSymbol0-187" data-type="255"><g><title>MsPortalFx.base.images-23</title><path fill="#5ea0ef" d="M1.078.334h10.11v11.685H1.078z"></path><path fill="#0078d4" d="M11.188 12.353H1.078a.334.334 0 0 1-.334-.334V.334A.333.333 0 0 1 1.078 0h10.11a.333.333 0 0 1 .333.334v11.685a.334.334 0 0 1-.333.334zm-9.777-.668h9.443V.668H1.411z"></path><path fill="#83b9f9" d="M3.01 1.918h10.11v11.685H3.01z"></path><path fill="#0078d4" d="M13.12 13.937H3.01a.335.335 0 0 1-.334-.334V1.918a.335.335 0 0 1 .334-.334h10.11a.334.334 0 0 1 .334.334V13.6a.334.334 0 0 1-.334.337zm-9.776-.668h9.443V2.252H3.344z"></path><path d="M12.082 3.39H5.818a.5.5 0 0 0-.495.5V17.4a.5.5 0 0 0 .495.5h10.856a.5.5 0 0 0 .494-.5V8.454a.5.5 0 0 0-.494-.5h-3.6a.5.5 0 0 1-.495-.495V3.886a.5.5 0 0 0-.497-.496z" class="msportalfx-svg-c01" fill="#ffffff"></path><path fill="url(#49ee2a0f-2a50-4e4d-98b1-69c9afdd77aa)" d="M11.853 4.023v3.393A1.246 1.246 0 0 0 13.1 8.661h3.418v8.6H5.977V4.023h5.876m.24-.742H5.737a.5.5 0 0 0-.5.5V17.5a.5.5 0 0 0 .5.5h11.017a.5.5 0 0 0 .5-.5V8.421a.5.5 0 0 0-.5-.5H13.1a.5.5 0 0 1-.5-.5V3.783a.5.5 0 0 0-.5-.5z"></path><path fill="#0078d4" d="M17.064 8.019 12.422 3.39v3.772a.852.852 0 0 0 .846.857z"></path><rect width="8.177" height="1.097" x="7.157" y="9.982" fill="#5ea0ef" rx=".493"></rect><rect width="8.177" height="1.097" x="7.157" y="11.948" fill="#5ea0ef" rx=".493"></rect><rect width="5.154" height="1.097" x="7.157" y="13.913" fill="#5ea0ef" rx=".493"></rect></g><defs>
<linearGradient id="49ee2a0f-2a50-4e4d-98b1-69c9afdd77aa" x1="11.246" x2="11.246" y1="18" y2="3.281" gradientUnits="userSpaceOnUse"><stop offset="0" stop-color="#0078d4"></stop><stop offset=".817" stop-color="#5ea0ef"></stop></linearGradient>
</defs>
</svg>