<svg viewBox="0 0 14.7 14.7" class="" role="presentation" focusable="false" xmlns="http://www.w3.org/2000/svg" xmlns:xlink="http://www.w3.org/1999/xlink" id="FxSymbol0-1f6" data-type="132"><g><title></title><path d="M1.9 9.4A3.2 3.2 0 0 1 2.1 8a2.8 2.8 0 0 1 .8-1.1l1.7-1.8 5 5-1.8 1.7a2.8 2.8 0 0 1-1.1.8 3.1 3.1 0 0 1-1.3.3l-1.2-.2-.9-.5-2.6 2.5L0 14l2.5-2.6a4.1 4.1 0 0 1-.5-.9 4.5 4.5 0 0 1-.1-1.1zm3.5 2.5.9-.2a2.4 2.4 0 0 0 .8-.6l1.1-1-3.6-3.6-1 1.1-.6.8a3.1 3.1 0 0 0-.1 1 2.8 2.8 0 0 0 .1.9l.6.8.8.6zm6.8-8.6a4.1 4.1 0 0 1 .5.9 5 5 0 0 1 .2 1.2 3.1 3.1 0 0 1-.3 1.3 2.8 2.8 0 0 1-.8 1.1l-1.7 1.8-5-5 1.8-1.7A2.8 2.8 0 0 1 8 2.1a3.2 3.2 0 0 1 1.4-.2h1.1l.9.5L14 0l.7.7zm-1.1 3.8a2.4 2.4 0 0 0 .6-.8 2.9 2.9 0 0 0 .2-.9 3 3 0 0 0-.2-1l-.6-.8-.8-.5a1.5 1.5 0 0 0-.9-.2h-1l-.8.6-1.1 1 3.6 3.6z"></path></g><defs>
</defs>
</svg>