<svg viewBox="0 0 18 18" class="" role="presentation" focusable="false" xmlns="http://www.w3.org/2000/svg" xmlns:xlink="http://www.w3.org/1999/xlink" id="FxSymbol0-212" data-type="235"><g><title>MsPortalFx.base.images-4</title><path fill="url(#49ee2a0f-2a50-4e4d-98b1-69c9afdd7fe0)" d="M.5 5.788h17v9.478a.568.568 0 0 1-.568.568H1.068a.568.568 0 0 1-.568-.568V5.788z"></path><path fill="#0078d4" d="M1.071 2.166h15.858a.568.568 0 0 1 .568.568v3.054H.5V2.734a.568.568 0 0 1 .571-.568z"></path><rect width="3.65" height="1.85" x="2.304" y="7.121" opacity=".9" rx=".283" class="msportalfx-svg-c01" fill="#ffffff"></rect><rect width="3.65" height="1.85" x="7.2" y="7.095" opacity=".9" rx=".283" class="msportalfx-svg-c01" fill="#ffffff"></rect><rect width="3.65" height="1.85" x="12.096" y="7.095" opacity=".9" rx=".283" class="msportalfx-svg-c01" fill="#ffffff"></rect><rect width="3.65" height="1.85" x="2.358" y="9.767" opacity=".9" rx=".283" class="msportalfx-svg-c01" fill="#ffffff"></rect><rect width="3.65" height="1.85" x="7.254" y="9.741" fill="#ffd400" rx=".283"></rect><rect width="3.65" height="1.85" x="12.15" y="9.741" fill="#ffd400" rx=".283"></rect><rect width="3.65" height="1.85" x="2.358" y="12.439" fill="#ffd400" rx=".283"></rect><rect width="3.65" height="1.85" x="7.254" y="12.413" fill="#ffd400" rx=".283"></rect><rect width="3.65" height="1.85" x="12.15" y="12.413" fill="#ffd400" rx=".283"></rect></g><defs>
<linearGradient id="49ee2a0f-2a50-4e4d-98b1-69c9afdd7fe0" x1="9" x2="9" y1="15.834" y2="5.788" gradientUnits="userSpaceOnUse"><stop offset="0" stop-color="#0078d4"></stop><stop offset=".502" stop-color="#4093e6"></stop><stop offset=".775" stop-color="#5ea0ef"></stop></linearGradient>
</defs>
</svg>