<svg viewBox="0 0 50 50" class="" role="presentation" focusable="false" xmlns="http://www.w3.org/2000/svg" xmlns:xlink="http://www.w3.org/1999/xlink" id="FxSymbol0-04e" data-type="1"><g><title></title><path d="M44 14.2c0-.4.1-.9.1-1.3 0-7.1-5.8-12.8-13-12.8C26.9 0 23 2 20.6 5.3c-1.5-1-3.3-1.5-5.2-1.5-5.4 0-9.8 4.4-9.8 9.7v.8C2 16.2 0 19.3 0 23.1c0 6 4.9 10.7 11.2 10.7h27.6c6.3 0 11.2-4.7 11.2-10.7 0-4-2.2-7.2-6-8.9z" class="msportalfx-svg-c15" fill="#59b4d9"></path><path d="M7 28c0-4.1 2.1-7.3 6-9.3v-.8c0-5.7 4.7-10.3 10.4-10.3 2 0 3.9.5 5.5 1.5 2.5-3.5 6.7-5.7 11.2-5.7-2.4-2.1-5.5-3.4-9-3.4-4.2 0-8.1 2-10.5 5.3-1.5-1-3.3-1.5-5.2-1.5-5.4 0-9.8 4.4-9.8 9.7v.8C2 16.2 0 19.3 0 23.1c0 5.1 3.5 9.3 8.4 10.4C7.5 31.9 7 30 7 28z" opacity=".2" class="msportalfx-svg-c01" fill="#ffffff"></path><path d="M26.931 44.244l6.902-6.548v3.553L25.504 50l-8.337-8.72v-3.542l6.865 6.506V32.646h2.899z" class="msportalfx-svg-c17" fill="#804998"></path><path d="M24.069 22.402l-6.902 6.548v-3.553l8.329-8.751 8.337 8.72v3.542l-6.865-6.506V34h-2.899z" class="msportalfx-svg-c01" fill="#ffffff"></path></g><defs>
</defs>
</svg>