<svg viewBox="0 0 32 32" class="" role="presentation" focusable="false" xmlns="http://www.w3.org/2000/svg" xmlns:xlink="http://www.w3.org/1999/xlink" id="FxSymbol0-1b8" data-type="1"><g><title></title><path d="M16.246 5.992q1.822 0 3.42.697 1.596.697 2.786 2.017 1.19 1.319 1.868 3.203.693 1.885.693 4.26 0 1.244-.27 2.6-.257 1.339-.814 2.45-.543 1.094-1.401 1.81-.844.716-2.02.716-1.295 0-1.867-.886-.573-.885-.588-2.43h-.06q-.346 1.488-1.13 2.412-.768.904-2.064.904-.889 0-1.536-.433-.633-.453-1.055-1.169-.407-.735-.602-1.658-.196-.943-.196-1.942 0-1.319.27-2.638.287-1.32.86-2.356.572-1.037 1.446-1.678.889-.66 2.094-.66.346 0 .693.114.361.113.678.34.316.225.557.565t.362.791v-.094q.03-.377.045-.754l.06-.754h1.401l-.362 5.39q-.045.604-.105 1.226-.06.621-.06 1.225 0 .414.03.923.045.49.18.942.136.434.392.735.271.283.723.283.543 0 .965-.283.421-.301.723-.772.316-.471.527-1.075.21-.621.346-1.262.136-.66.181-1.3.06-.642.06-1.17 0-2.072-.542-3.693t-1.521-2.733q-.965-1.112-2.32-1.696-1.341-.584-2.938-.584-1.732 0-3.148.81-1.401.81-2.41 2.205-.995 1.376-1.537 3.223t-.543 3.939q0 2.167.528 3.939.542 1.753 1.536 2.997t2.396 1.922q1.416.678 3.148.678 1.22 0 2.41-.245 1.206-.245 2.305-.904v1.734q-1.13.603-2.365.829-1.235.207-2.455.207-2.004 0-3.661-.772-1.657-.792-2.862-2.224-1.19-1.452-1.853-3.506t-.663-4.58q0-2.544.678-4.711.678-2.168 1.898-3.75 1.22-1.584 2.922-2.47 1.703-.904 3.766-.904zM15.07 22.106q.919 0 1.506-.641.588-.66.919-1.62.331-.962.452-2.055.136-1.093.136-1.98 0-.64-.106-1.186-.105-.547-.346-.943-.226-.396-.618-.622t-.95-.226q-.873 0-1.46.566-.588.565-.95 1.413-.361.848-.527 1.866-.15.999-.15 1.885 0 .622.105 1.262.105.622.347 1.131.24.51.647.83.407.32.995.32zM.774 2.373H6.56v2.412H2.702V28.91H6.56v2.412H.774zm30.853 0v28.949h-5.785V28.91h3.856V4.785h-3.856V2.373z"></path></g><defs>
</defs>
</svg>