<svg viewBox="0 0 50 50" class="" role="presentation" focusable="false" xmlns="http://www.w3.org/2000/svg" xmlns:xlink="http://www.w3.org/1999/xlink" id="FxSymbol0-25f" data-type="1"><g><title></title><path d="M2.356 41.9h45.288A2.356 2.356 0 0 0 50 39.544V10.456A2.356 2.356 0 0 0 47.644 8.1H2.356A2.356 2.356 0 0 0 0 10.456v29.088A2.356 2.356 0 0 0 2.356 41.9z" class="msportalfx-svg-c15" fill="#59b4d9"></path><path d="M27.933 13.555h16.163v2.03H27.933zm0 6.953h16.163v2.03H27.933zm0 6.953h16.163v2.03H27.933zm0 6.953h16.163v2.03H27.933z" class="msportalfx-svg-c19" fill="#0072c6"></path><path d="M18.245 18.105a4.807 4.807 0 1 1-9.613-.001 4.807 4.807 0 0 1 9.613.001m-1.292 6.454-3.515 4.924-3.514-4.924H6.267v12.142H20.61V24.559z" class="msportalfx-svg-c17" fill="#804998"></path><path opacity=".2" d="M8.632 18.105a4.804 4.804 0 0 0 4.689 4.801l1.207-9.478a4.766 4.766 0 0 0-1.089-.129 4.806 4.806 0 0 0-4.807 4.806m1.293 6.454H6.266v12.142h5.32l1.061-8.326z" class="msportalfx-svg-c01" fill="#ffffff"></path></g><defs>
</defs>
</svg>