<svg viewBox="0 0 50 50" class="" role="presentation" focusable="false" xmlns="http://www.w3.org/2000/svg" xmlns:xlink="http://www.w3.org/1999/xlink" id="FxSymbol0-20a" data-type="1"><g><title></title><path d="M42.8 39v4" class="msportalfx-svg-c14" fill="#57a300"></path><path d="M44 6H14v4h29v13h-6v4h7c1.65 0 3-1.35 3-3V9c0-1.65-1.35-3-3-3z" class="msportalfx-svg-c03" fill="#a0a1a2"></path><path d="m38 30-6-5 6-5z" class="msportalfx-svg-c03" fill="#a0a1a2"></path><path d="M7 40V27h10v-4H6c-1.65 0-3 1.35-3 3v15c0 1.65 1.35 3 3 3h27v-4H7z" class="msportalfx-svg-c14" fill="#57a300"></path><path d="m31 37 6 5-6 5zm10.8 2v4M19.9 24v4" class="msportalfx-svg-c14" fill="#57a300"></path><path fill="#0399C6" d="M19 29.581v-9.162c0-.8.661-1.442 1.461-1.419h9.162A1.42 1.42 0 0 1 31 20.377l-.001 9.162c.024.8-.618 1.461-1.419 1.461h-9.162A1.418 1.418 0 0 1 19 29.581z"></path><circle fill="#0399C6" cx="7" cy="8" r="5"></circle><circle fill="#0399C6" cx="43" cy="42" r="5"></circle></g><defs>
</defs>
</svg>