<svg viewBox="0 0 50 50" class="" role="presentation" focusable="false" xmlns="http://www.w3.org/2000/svg" xmlns:xlink="http://www.w3.org/1999/xlink" id="FxSymbol0-209" data-type="1"><g><title></title><path d="M24.89 48.95 2.34 42.2A3.57 3.57 0 0 1 0 39.29v-29c0-1.53 1.46-2.47 2.93-2.87L25.55.95c.18 0 .9.18.9.37l1.43 47.28a4.66 4.66 0 0 1-2.99.35Z" fill="#3796c4"></path><path d="m48 42.29-20.63 6.56a1.66 1.66 0 0 1-2.18-1.64V1.53a.58.58 0 0 1 .75-.58L48 8.29c1 .3 2 1 2 1.91v29.75a2.41 2.41 0 0 1-2 2.34Zm-1-30-17-5v36l17-5Z" fill="#59b2d7"></path><path d="M41.39 28.37h-3.84V14.28l3.84.79z" class="msportalfx-svg-c14" fill="#57a300"></path><path d="m43.32 27.81-7.91.35 4.13 8.24z" class="msportalfx-svg-c14" fill="#57a300"></path></g><defs>
</defs>
</svg>