<svg viewBox="0 0 18 18" class="" role="presentation" focusable="false" xmlns="http://www.w3.org/2000/svg" xmlns:xlink="http://www.w3.org/1999/xlink" id="FxSymbol0-0a7" data-type="1"><g><title>Icon-integration-209</title><path fill="#949494" d="M12.38 10.79L9.4 6.01l-.27.17-.26-.17-2.99 4.78.61.37 2.64-4.23 2.65 4.24.6-.38z"></path><circle cx="9.08" cy="6.21" r="1.54" fill="#86d633"></circle><circle cx="6.11" cy="10.96" r="1.54" fill="url(#8fb9fb97-5332-4186-952c-624f542b20be)"></circle><circle cx="12.06" cy="10.96" r="1.54" fill="url(#8fb9fb97-5332-4186-952c-624f542b20bf)"></circle><g fill="#999"><path d="M1.15 1.27h1.29v3.6a.29.29 0 0 1-.29.29H.87a.29.29 0 0 1-.29-.29v-3a.57.57 0 0 1 .57-.6z"></path><path d="M1.15 1.27h1.29v3.6a.29.29 0 0 1-.29.29H.87a.29.29 0 0 1-.29-.29v-3a.57.57 0 0 1 .57-.6z" opacity=".5"></path></g><g fill="#999"><path d="M15.72 1.27H17a.57.57 0 0 1 .57.57v3a.29.29 0 0 1-.29.29H16a.29.29 0 0 1-.29-.29V1.27h.01z"></path><path d="M15.72 1.27H17a.57.57 0 0 1 .57.57v3a.29.29 0 0 1-.29.29H16a.29.29 0 0 1-.29-.29V1.27h.01z" opacity=".5"></path></g><path fill="#949494" d="M17.58 1.84V3.1h-17V1.84a.57.57 0 0 1 .57-.57h15.86a.57.57 0 0 1 .57.57z"></path><g fill="#999"><path d="M.87 12.52h1.29a.29.29 0 0 1 .29.29v3.6h-1.3a.57.57 0 0 1-.57-.57v-3a.29.29 0 0 1 .29-.32z"></path><path d="M.87 12.52h1.29a.29.29 0 0 1 .29.29v3.6h-1.3a.57.57 0 0 1-.57-.57v-3a.29.29 0 0 1 .29-.32z" opacity=".5"></path></g><g fill="#999"><path d="M16 12.52h1.3a.29.29 0 0 1 .29.29v3a.57.57 0 0 1-.57.57h-1.3v-3.6a.29.29 0 0 1 .28-.26z"></path><path d="M16 12.52h1.3a.29.29 0 0 1 .29.29v3a.57.57 0 0 1-.57.57h-1.3v-3.6a.29.29 0 0 1 .28-.26z" opacity=".5"></path></g><path fill="#949494" d="M.58 15.85v-1.26h17v1.26a.57.57 0 0 1-.57.57H1.15a.57.57 0 0 1-.57-.57z"></path></g><defs>
<linearGradient id="8fb9fb97-5332-4186-952c-624f542b20be" x1="6.11" x2="6.11" y1="12.5" y2="9.42" gradientUnits="userSpaceOnUse"><stop offset="0" stop-color="#6f4bb2"></stop><stop offset="1" stop-color="#c69aeb"></stop></linearGradient>
<linearGradient id="8fb9fb97-5332-4186-952c-624f542b20bf" x1="12.06" x2="12.06" y1="12.5" y2="9.42" gradientUnits="userSpaceOnUse"><stop offset="0" stop-color="#6f4bb2"></stop><stop offset="1" stop-color="#c69aeb"></stop></linearGradient>
</defs>
</svg>