<svg viewBox="0 0 50 50" class="" role="presentation" focusable="false" xmlns="http://www.w3.org/2000/svg" xmlns:xlink="http://www.w3.org/1999/xlink" id="FxSymbol0-25c" data-type="1"><g><title></title><path d="M45 6.8 40.2 2l-2-2H3v50h44V8.8z" class="msportalfx-svg-c15" fill="#59b4d9"></path><path opacity=".8" d="M38 2H5v46h40V9h-7z" class="msportalfx-svg-c01" fill="#ffffff"></path><path d="M34.6 23.75H15.4c-.8 0-1.5.7-1.5 1.7v7.2l2.6.7v-7h16.9v7l2.6-.7v-7.2c.1-1-.6-1.7-1.4-1.7z" class="msportalfx-svg-c19" fill="#0072c6"></path><path d="M26.3 26.15h-2.6v-7.1h2.6z" class="msportalfx-svg-c19" fill="#0072c6"></path><path d="M29.3 7.95h-8.5c-.9 0-1.7.7-1.7 1.7v8c0 .9.7 1.7 1.7 1.7h8.5c.9 0 1.7-.7 1.7-1.7v-8c-.1-1-.8-1.7-1.7-1.7zm-9.9 22.7h-8.5c-.9 0-1.7.7-1.7 1.7v8c0 .9.7 1.7 1.7 1.7h8.5c.9 0 1.7-.7 1.7-1.7v-8c0-.9-.8-1.7-1.7-1.7zm19.7 0h-8.5c-.9 0-1.7.7-1.7 1.7v8c0 .9.7 1.7 1.7 1.7h8.5c.9 0 1.7-.7 1.7-1.7v-8c-.1-.9-.8-1.7-1.7-1.7z" class="msportalfx-svg-c15" fill="#59b4d9"></path></g><defs>
</defs>
</svg>