<svg viewBox="0 0 18 18" class="" role="presentation" focusable="false" xmlns="http://www.w3.org/2000/svg" xmlns:xlink="http://www.w3.org/1999/xlink" id="FxSymbol0-012" data-type="1"><g><title>Icon-integration-214</title><path fill="#50e6ff" d="M13.39 7.4h-.01v-.02h-.02L9 4.41 4.63 7.38h-.02v5.82h8.77V7.4h.01z"></path><path fill="#32bedd" d="M4.61 7.4v5.8L9 10.3z"></path><path fill="#198ab3" d="M13.38 7.4L9 10.3l4.38 2.9z"></path><path fill="url(#8fb9fb97-5332-4186-952c-624f542b2009)" d="M8.99 10.3l-4.38 2.89v.01h8.77v-.01L8.99 10.3z"></path><g fill="#999"><path d="M1.07 1.43h1.29V5a.29.29 0 0 1-.29.29H.79A.29.29 0 0 1 .5 5V2a.57.57 0 0 1 .57-.57z"></path><path d="M1.07 1.43h1.29V5a.29.29 0 0 1-.29.29H.79A.29.29 0 0 1 .5 5V2a.57.57 0 0 1 .57-.57z" opacity=".5"></path></g><g fill="#999"><path d="M15.64 1.43h1.29a.57.57 0 0 1 .57.57v3a.29.29 0 0 1-.29.29h-1.29a.29.29 0 0 1-.28-.29V1.43z"></path><path d="M15.64 1.43h1.29a.57.57 0 0 1 .57.57v3a.29.29 0 0 1-.29.29h-1.29a.29.29 0 0 1-.28-.29V1.43z" opacity=".5"></path></g><path fill="#949494" d="M17.5 2v1.25H.5V2a.57.57 0 0 1 .57-.57h15.87a.57.57 0 0 1 .56.57z"></path><g fill="#999"><path d="M.79 12.68h1.29a.29.29 0 0 1 .29.29v3.6h-1.3A.57.57 0 0 1 .5 16v-3a.29.29 0 0 1 .29-.32z"></path><path d="M.79 12.68h1.29a.29.29 0 0 1 .29.29v3.6h-1.3A.57.57 0 0 1 .5 16v-3a.29.29 0 0 1 .29-.32z" opacity=".5"></path></g><g fill="#999"><path d="M15.92 12.68h1.29a.29.29 0 0 1 .29.29v3a.57.57 0 0 1-.57.57h-1.29V13a.29.29 0 0 1 .28-.32z"></path><path d="M15.92 12.68h1.29a.29.29 0 0 1 .29.29v3a.57.57 0 0 1-.57.57h-1.29V13a.29.29 0 0 1 .28-.32z" opacity=".5"></path></g><path fill="#949494" d="M.5 16v-1.25h17V16a.57.57 0 0 1-.57.57H1.07A.57.57 0 0 1 .5 16z"></path></g><defs>
<linearGradient id="8fb9fb97-5332-4186-952c-624f542b2009" x1="9" x2="9" y1="10.3" y2="13.2" gradientUnits="userSpaceOnUse"><stop offset="0" stop-color="#005ba1"></stop><stop offset=".26" stop-color="#00589d"></stop><stop offset=".53" stop-color="#004f90"></stop><stop offset=".8" stop-color="#003f7c"></stop><stop offset="1" stop-color="#003067"></stop></linearGradient>
</defs>
</svg>