<svg viewBox="0 0 18 18" class="" role="presentation" focusable="false" xmlns="http://www.w3.org/2000/svg" xmlns:xlink="http://www.w3.org/1999/xlink" id="FxSymbol0-0ae" data-type="1"><g><title>Icon-integration-213</title><path fill="url(#69ee1ec5-7933-44da-8666-4df36bad20c0)" d="M17.5 10.26a3.82 3.82 0 00-3.32-3.67A4.8 4.8 0 009.23 2a4.94 4.94 0 00-4.72 3.2 4.56 4.56 0 00-4 4.39A4.62 4.62 0 005.29 14h8.17a1.2 1.2 0 00.2 0 3.87 3.87 0 003.84-3.74z"></path><path fill="url(#69ee1ec5-7933-44da-8666-4df36bad20c1)" d="M11.88 15.53a.48.48 0 01-.49.48H6.72a.48.48 0 01-.49-.48V6.87a.48.48 0 01.49-.48h4.67a.48.48 0 01.49.48z"></path><path d="M6.9 7.39H8v1.35H6.9zm1.62 0H9.6v1.35H8.52zm1.62 0h1.08v1.35h-1.08zM6.9 9.55H8v1.35H6.9zm1.62 0H9.6v1.35H8.52zm1.62 0h1.08v1.35h-1.08zM6.9 11.71H8v1.35H6.9zm1.62 0H9.6v1.35H8.52zm0 2.16H9.6v1.62H8.52zm1.62-2.16h1.08v1.35h-1.08z" class="msportalfx-svg-c01" fill="#ffffff"></path></g><defs>
<linearGradient id="69ee1ec5-7933-44da-8666-4df36bad20c0" x1="9" x2="9" y1="1.99" y2="14.03" gradientUnits="userSpaceOnUse"><stop offset="0" stop-color="#5ea0ef"></stop><stop offset=".18" stop-color="#559cec"></stop><stop offset=".47" stop-color="#3c91e5"></stop><stop offset=".84" stop-color="#1380da"></stop><stop offset="1" stop-color="#0078d4"></stop></linearGradient>
<linearGradient id="69ee1ec5-7933-44da-8666-4df36bad20c1" x1="9.06" x2="9.06" y1="6.39" y2="16.01" gradientUnits="userSpaceOnUse"><stop offset="0" stop-color="#b3b3b3"></stop><stop offset=".12" stop-color="#adadad"></stop><stop offset=".64" stop-color="#9b9b9b"></stop><stop offset="1" stop-color="#949494"></stop></linearGradient>
</defs>
</svg>