<svg viewBox="0 0 18 18" class="" role="presentation" focusable="false" xmlns="http://www.w3.org/2000/svg" xmlns:xlink="http://www.w3.org/1999/xlink" id="FxSymbol0-02d" data-type="63"><g><path fill="url(#a06af2a2-274d-4a73-a200-95a0a116ffce)" d="M.5 5.79h17v9.48a.57.57 0 0 1-.57.57H1.07a.57.57 0 0 1-.57-.57V5.79z"></path><path fill="#37c2b1" d="M1.07 2.17h15.86a.57.57 0 0 1 .57.57v3.05H.5V2.73a.57.57 0 0 1 .57-.56z"></path><path d="M2.81 6.89h12.37a.27.27 0 0 1 .26.27v1.4a.27.27 0 0 1-.26.27H2.81a.27.27 0 0 1-.26-.27v-1.4a.27.27 0 0 1 .26-.27z" class="msportalfx-svg-c01" fill="#ffffff"></path><path fill="#37c2b1" d="M2.82 9.68h12.37a.27.27 0 0 1 .26.27v1.41a.27.27 0 0 1-.26.27H2.82a.27.27 0 0 1-.26-.27V10a.27.27 0 0 1 .26-.32z"></path><path fill="#258277" d="M2.82 12.5h12.37a.27.27 0 0 1 .26.27v1.41a.27.27 0 0 1-.26.27H2.82a.27.27 0 0 1-.26-.27v-1.41a.27.27 0 0 1 .26-.27z"></path></g><defs>
<linearGradient id="a06af2a2-274d-4a73-a200-95a0a116ffce" x1="9" x2="9" y1="15.83" y2="5.79" gradientUnits="userSpaceOnUse"><stop offset="0" stop-color="#b3b3b3"></stop><stop offset=".26" stop-color="#c1c1c1"></stop><stop offset="1" stop-color="#e6e6e6"></stop></linearGradient>
</defs>
</svg>