<svg viewBox="0 0 18 18" class="" role="presentation" focusable="false" xmlns="http://www.w3.org/2000/svg" xmlns:xlink="http://www.w3.org/1999/xlink" id="FxSymbol0-055" data-type="1"><g><title>Icon-362Artboard 1</title><path fill="url(#8fb9fb97-5332-4186-952c-624f542b2053)" d="M13.9 15.5A8.512 8.512 0 013.4 2.1l.1-.1a8.521 8.521 0 0110.4 13.5"></path><path fill="#83b9f9" d="M2.1 10.5a25.824 25.824 0 00-.8 2.6l.6.9.6.6a14.249 14.249 0 011.1-3.5 2.529 2.529 0 01-1.5-.6zm1-4.6A13.655 13.655 0 012.4 3a7.551 7.551 0 00-1.1 1.4 10.548 10.548 0 00.6 2.4 2.73 2.73 0 011.2-.9z"></path><circle cx="4" cy="8.5" r="2.7" fill="url(#8fb9fb97-5332-4186-952c-624f542b2054)"></circle><path fill="#83b9f9" d="M8 13.5a2.106 2.106 0 01.5-1.3A9.2 9.2 0 016 10.3a2.751 2.751 0 01-1.5.8A19.2 19.2 0 006 12.5a8.175 8.175 0 002 1.2zm6.3.2a13.329 13.329 0 01-2.8-.3v.1a1.656 1.656 0 01-.5 1.2 12.967 12.967 0 003.4.2c.4-.4.8-.9 1.2-1.3a5.283 5.283 0 01-1.3.1z"></path><circle cx="9.8" cy="13.5" r="1.8" fill="none"></circle><path fill="#83b9f9" d="M9.3 4.9a13.468 13.468 0 015.9-1.4 6.73 6.73 0 00-1.5-1.4A15.335 15.335 0 009 3.2a9.25 9.25 0 00-1 .5A18.723 18.723 0 016 .8a1.9 1.9 0 00-.9.3 21.123 21.123 0 002.1 3.1A9.841 9.841 0 005 5.9 2.85 2.85 0 016.3 7a8.961 8.961 0 011.9-1.5 22.363 22.363 0 003.7 3.2 2.075 2.075 0 01.6-1 27.892 27.892 0 01-3.2-2.8z"></path><circle cx="13.8" cy="9.1" r="1.9" fill="#f2f2f2"></circle><path fill="#83b9f9" d="M17 10.4c-.1-.1-.2-.1-.3-.2-.1-.1-.2-.1-.3-.2h-.1l-.3-.2h-.1l-.3-.2a1.456 1.456 0 01-.6.9c.1.1.2.1.4.2h.1c.1.1.2.1.3.2.3.2.6.3.9.5.1-.3.2-.7.3-1z"></path><circle cx="4" cy="8.5" r="2.7" fill="#f2f2f2"></circle><circle cx="9.8" cy="13.5" r="1.8" fill="#f2f2f2"></circle><path fill="#821010" d="M5.2 10.5h12.1c.2 0 .5.2.5.4v6.4a.536.536 0 01-.5.5H5.2a.458.458 0 01-.4-.5V11a.458.458 0 01.4-.5z"></path><path fill="#e62323" d="M5.3 11.3h3.6v1.6H5.3z"></path><path fill="#ff7381" d="M9.5 11.3h3.6v1.6H9.5z"></path><path fill="#e62323" d="M13.6 11.3h3.6v1.6h-3.6zm-8.3 2.1h1.5V15H5.3z"></path><path fill="#ff7381" d="M15.7 13.4h1.5V15h-1.5zm-8.3 0H11V15H7.4z"></path><path fill="#e62323" d="M11.5 13.4h3.6V15h-3.6zm-6.2 2.1h3.6v1.6H5.3z"></path><path fill="#ff7381" d="M9.5 15.5h3.6v1.6H9.5z"></path><path fill="#e62323" d="M13.6 15.5h3.6v1.6h-3.6z"></path></g><defs>
<radialGradient id="8fb9fb97-5332-4186-952c-624f542b2053" cx="15013.284" cy="4584.191" r="56.626" gradientTransform="matrix(.15 0 0 .15 -2243.333 -678.832)" gradientUnits="userSpaceOnUse"><stop offset=".183" stop-color="#5ea0ef"></stop><stop offset="1" stop-color="#0078d4"></stop></radialGradient>
<linearGradient id="8fb9fb97-5332-4186-952c-624f542b2054" x1="4.022" x2="3.991" y1="171.297" y2="167.338" gradientTransform="translate(0 -160)" gradientUnits="userSpaceOnUse"><stop offset="0" stop-color="#ccc"></stop><stop offset=".123" stop-color="#d7d7d7"></stop><stop offset=".421" stop-color="#ebebeb"></stop><stop offset=".716" stop-color="#f8f8f8"></stop><stop offset="1" stop-color="#fcfcfc"></stop></linearGradient>
</defs>
</svg>