<?xml version="1.0" encoding="UTF-8" standalone="no"?>
<!DOCTYPE svg PUBLIC "-//W3C//DTD SVG 1.1//EN" "http://www.w3.org/Graphics/SVG/1.1/DTD/svg11.dtd">
<!-- Generated by Microsoft Visio, SVG Export Web-API-type.svg Page-1 -->
<svg xmlns="http://www.w3.org/2000/svg" xmlns:xlink="http://www.w3.org/1999/xlink" xmlns:ev="http://www.w3.org/2001/xml-events"
		xmlns:v="http://schemas.microsoft.com/visio/2003/SVGExtensions/" width="11in" height="8.5in" viewBox="0 0 792 612"
		xml:space="preserve" color-interpolation-filters="sRGB" class="st4">
	<v:documentProperties v:langID="1033" v:viewMarkup="false">
		<v:userDefs>
			<v:ud v:nameU="msvSubprocessMaster" v:prompt="" v:val="VT4(Rectangle)"/>
			<v:ud v:nameU="msvNoAutoConnect" v:val="VT0(1):26"/>
		</v:userDefs>
	</v:documentProperties>

	<style type="text/css">
	<![CDATA[
		.st1 {fill:#59b4d9;stroke:none;stroke-width:0.75}
		.st2 {fill:#ffffff;stroke:none;stroke-width:0.75}
		.st3 {fill:#ed7d31;stroke:none;stroke-width:0.75}
		.st4 {fill:none;fill-rule:evenodd;font-size:12px;overflow:visible;stroke-linecap:square;stroke-miterlimit:3}
	]]>
	</style>

	<g v:mID="0" v:index="1" v:groupContext="foregroundPage">
		<v:userDefs>
			<v:ud v:nameU="msvThemeOrder" v:val="VT0(0):26"/>
		</v:userDefs>
		<title>Page-1</title>
		<v:pageProperties v:drawingScale="1" v:pageScale="1" v:drawingUnits="0" v:shadowOffsetX="9" v:shadowOffsetY="-9"/>
		<g id="group10290-1" transform="translate(18,-523.275)" v:mID="10290" v:groupContext="group">
			<title>Web API (type)</title>
			<g id="group10291-2" transform="translate(0,-11.325)" v:mID="10291" v:groupContext="group">
				<title>Sheet.10291</title>
				<g id="shape10292-3" v:mID="10292" v:groupContext="shape">
					<title>Sheet.10292</title>
					<path d="M45.68 603.15 C34.2 612 17.7 609.75 8.85 598.28 C0 586.8 2.25 570.3 13.73 561.45 C25.2 552.6 41.7 554.85
								 50.55 566.33 C59.4 577.73 57.23 594.15 45.83 603 C45.75 603.08 45.75 603.15 45.68 603.15 Z"
							class="st1"/>
				</g>
				<g id="shape10293-5" v:mID="10293" v:groupContext="shape" transform="translate(6.975,-9.45)">
					<title>Sheet.10293</title>
					<path d="M33.9 596.4 C35.78 598.88 39.38 599.33 41.85 597.45 C42 597.38 42.08 597.23 42.23 597.15 C44.78 598.95
								 46.5 600.08 47.48 600.75 C47.78 600 48 599.25 48.15 598.5 C47.1 597.75 45.68 596.63 43.65 594.98
								 C44.78 592.13 43.35 588.83 40.43 587.7 C38.85 587.1 37.05 587.25 35.55 588.08 C32.85 585.68 29.93
								 582.9 26.85 579.83 C36.45 574.65 43.28 575.4 43.28 575.4 C42.15 573.98 40.88 572.7 39.53 571.5 C35.48
								 570.9 29.18 570.98 21.98 574.8 C19.58 572.33 17.1 569.63 14.63 566.7 C13.43 567.08 12.3 567.53 11.18
								 568.13 C13.2 571.35 15.6 574.35 18.3 577.13 C15.68 579 13.2 581.1 11.03 583.43 C10.73 583.73 10.43
								 584.1 10.13 584.4 C8.7 584.1 7.2 584.18 5.78 584.7 C3.38 579.6 3.6 575.48 3.98 573.3 C2.93 574.35
								 2.03 575.55 1.13 576.75 C0.3 580.28 0.68 584.03 2.18 587.33 C0 590.18 0 594.08 2.18 596.93 C2.33
								 597.15 2.55 597.38 2.78 597.6 C1.88 600.6 1.43 603.68 1.28 606.83 C1.5 607.2 1.5 607.43 1.8 607.8
								 C3.08 609.37 4.58 610.8 6.15 612 C5.93 607.95 6.53 603.9 7.95 600.08 C9.23 600.15 10.43 600 11.63
								 599.48 C12.3 600.08 12.98 600.68 13.73 601.28 C16.13 603.15 18.68 604.8 21.38 606.15 C21.08 609
								 23.1 611.55 25.95 611.85 C27.3 612 28.65 611.62 29.7 610.8 C30.15 610.42 30.53 609.97 30.9 609.52
								 C34.28 610.27 37.73 610.65 41.18 610.58 C41.55 610.58 43.43 608.02 44.55 606.45 C42.98 606.75 38.18
								 607.43 31.65 605.55 C31.05 602.78 28.35 600.98 25.58 601.5 C24.9 601.65 24.3 601.88 23.78 602.25
								 C21.3 600.9 18.9 599.33 16.65 597.53 C16.13 597.15 15.68 596.78 15.23 596.33 C16.73 593.93 16.88
								 590.93 15.53 588.38 C15.83 588.08 16.13 587.78 16.43 587.48 C18.53 585.45 20.85 583.58 23.25 581.93
								 C23.18 581.85 23.1 581.78 23.03 581.7 C23.1 581.78 23.18 581.85 23.25 581.93 C26.55 584.93 30 587.85
								 33.3 590.4 C32.4 592.43 32.63 594.68 33.9 596.4 Z" class="st2"/>
				</g>
			</g>
			<g id="shape10294-7" v:mID="10294" v:groupContext="shape" transform="translate(25.425,0)">
				<title>Sheet.10294</title>
				<ellipse cx="20.25" cy="591.75" rx="20.25" ry="20.25" class="st2"/>
			</g>
			<g id="shape10295-9" v:mID="10295" v:groupContext="shape" transform="translate(26.925,-1.5)">
				<title>Sheet.10295</title>
				<ellipse cx="18.75" cy="593.25" rx="18.75" ry="18.75" class="st3"/>
			</g>
		</g>
	</g>
</svg>
