<svg viewBox="0 0 18 18" class="" role="presentation" focusable="false" xmlns="http://www.w3.org/2000/svg" xmlns:xlink="http://www.w3.org/1999/xlink" id="FxSymbol0-207" data-type="1"><g><path d="M9.731 5.1a2.515 2.515 0 1 0-1.454-.14 2.516 2.516 0 0 0 1.454.14Z" fill="url(#49ee2a0f-2a50-4e4d-98b1-69c9afdd7fd1)"></path><path d="M8.593 3.315a.934.934 0 0 0 1.424-.164.935.935 0 0 0 0-1.028.933.933 0 0 0-1.424-.163.937.937 0 0 0-.291.677.937.937 0 0 0 .291.678Z" class="msportalfx-svg-c01" fill="#ffffff"></path><path d="M15.622 16.482a2.511 2.511 0 1 0-1.454-.141 2.514 2.514 0 0 0 1.454.141Z" fill="url(#49ee2a0f-2a50-4e4d-98b1-69c9afdd7fd2)"></path><path d="M15.216 10.028a6.162 6.162 0 0 1-.036.655 3.314 3.314 0 0 1 1.809.568 7.845 7.845 0 0 0-4.428-8.331 3.314 3.314 0 0 1-.677 1.748 5.986 5.986 0 0 1 3.332 5.36Z" fill="#32bedd"></path><path d="M14.484 14.7a.942.942 0 0 0 .479.243.934.934 0 1 0-.694-1.289.931.931 0 0 0 0 .737.925.925 0 0 0 .215.309Z" class="msportalfx-svg-c01" fill="#ffffff"></path><path d="M3.366 16.453a2.517 2.517 0 1 0-1.453-.142 2.511 2.511 0 0 0 1.453.142Z" fill="url(#49ee2a0f-2a50-4e4d-98b1-69c9afdd7fd3)"></path><path d="M1.6 10.905a3.317 3.317 0 0 1 1.274-.253 3.283 3.283 0 0 1 .421.028 6.105 6.105 0 0 1-.036-.652A5.987 5.987 0 0 1 6.59 4.667a3.702 3.702 0 0 1-.126-.175 3.329 3.329 0 0 1-.551-1.572 7.813 7.813 0 0 0-4.465 8.054c.052-.024.099-.048.152-.069Zm10.755 4.968a3.372 3.372 0 0 1-.3-.571 5.962 5.962 0 0 1-6.021-.232 3.328 3.328 0 0 1-.793 1.273 3.605 3.605 0 0 1-.286.254 7.827 7.827 0 0 0 8.3.175 3.314 3.314 0 0 1-.9-.899Z" fill="#32bedd"></path><path d="M2.229 14.666a.937.937 0 1 0-.215-.309.929.929 0 0 0 .215.309Z" class="msportalfx-svg-c01" fill="#ffffff"></path></g><defs>
<linearGradient id="49ee2a0f-2a50-4e4d-98b1-69c9afdd7fd1" x1="9.237" y1="5.151" x2="9.237" y2=".124" gradientUnits="userSpaceOnUse"><stop offset=".001" stop-color="#773adc"></stop><stop offset="1" stop-color="#a67af4"></stop></linearGradient>
<linearGradient id="49ee2a0f-2a50-4e4d-98b1-69c9afdd7fd2" x1="15.128" y1="16.531" x2="15.128" y2="11.505" gradientUnits="userSpaceOnUse"><stop offset=".001" stop-color="#773adc"></stop><stop offset="1" stop-color="#a67af4"></stop></linearGradient>
<linearGradient id="49ee2a0f-2a50-4e4d-98b1-69c9afdd7fd3" x1="2.872" y1="16.502" x2="2.872" y2="11.475" gradientUnits="userSpaceOnUse"><stop offset=".001" stop-color="#773adc"></stop><stop offset="1" stop-color="#a67af4"></stop></linearGradient>
</defs>
</svg>