<?xml version="1.0" encoding="UTF-8" standalone="no"?>
<!DOCTYPE svg PUBLIC "-//W3C//DTD SVG 1.1//EN" "http://www.w3.org/Graphics/SVG/1.1/DTD/svg11.dtd">
<!-- Generated by Microsoft Visio, SVG Export Buildings-#5.svg Page-1 -->
<svg xmlns="http://www.w3.org/2000/svg" xmlns:xlink="http://www.w3.org/1999/xlink" xmlns:ev="http://www.w3.org/2001/xml-events"
		xmlns:v="http://schemas.microsoft.com/visio/2003/SVGExtensions/" width="1.875in" height="1.24216in"
		viewBox="0 0 135 89.4352" xml:space="preserve" color-interpolation-filters="sRGB" class="st5">
	<v:documentProperties v:langID="1033" v:metric="true" v:viewMarkup="false"/>

	<style type="text/css">
	<![CDATA[
		.st1 {fill:#61768c;stroke:none;stroke-linecap:round;stroke-linejoin:round;stroke-width:0.75}
		.st2 {fill:#3d555f;stroke:none;stroke-linecap:round;stroke-linejoin:round;stroke-width:0.75}
		.st3 {fill:#483c5b;stroke:none;stroke-linecap:round;stroke-linejoin:round;stroke-width:0.75}
		.st4 {fill:#2f2d34;stroke:none;stroke-linecap:round;stroke-linejoin:round;stroke-width:0.75}
		.st5 {fill:none;fill-rule:evenodd;font-size:12px;overflow:visible;stroke-linecap:square;stroke-miterlimit:3}
	]]>
	</style>

	<g v:mID="0" v:index="1" v:groupContext="foregroundPage">
		<title>Page-1</title>
		<v:pageProperties v:drawingScale="1" v:pageScale="1" v:drawingUnits="0" v:shadowOffsetX="9" v:shadowOffsetY="-9"/>
		<g id="group14453-1" v:mID="14453" v:groupContext="group">
			<title>Buildings #5</title>
			<g id="shape14454-2" v:mID="14454" v:groupContext="shape" transform="translate(44.5773,-24.0528)">
				<title>Sheet.14454</title>
				<path d="M0 87.45 L63.04 87.45 L63.04 89.44 L0 89.44 L0 87.45 Z" class="st1"/>
			</g>
			<g id="shape14455-4" v:mID="14455" v:groupContext="shape" transform="translate(46.9944,-1.46615)">
				<title>Sheet.14455</title>
				<path d="M0 66.33 L0 79.53 L2.89 79.53 L2.89 75.21 L2.89 75.21 C2.89 72.79 4.87 70.85 7.29 70.85 C9.67 70.85 11.65
							 72.79 11.65 75.21 L11.65 79.53 L13.83 79.53 L13.83 75.21 L13.83 75.21 C13.83 72.79 15.77 70.85 18.19
							 70.85 C20.6 70.85 22.55 72.79 22.55 75.21 L22.55 79.53 L24.77 79.53 L24.77 75.21 L24.77 75.21 C24.77
							 72.79 26.71 70.85 29.12 70.85 C31.54 70.85 33.48 72.79 33.48 75.21 L33.48 89.44 L35.66 89.44 L35.66
							 75.21 L35.66 75.21 C35.66 72.79 37.64 70.85 40.02 70.85 C42.44 70.85 44.42 72.79 44.42 75.21 L44.42
							 89.44 L46.6 89.44 L46.6 75.21 L46.6 75.21 C46.6 72.79 48.54 70.85 50.96 70.85 C53.37 70.85 55.32 72.79
							 55.32 75.21 L55.32 79.53 L58.25 79.53 L58.25 66.33 L0 66.33 Z" class="st1"/>
			</g>
			<g id="shape14456-6" v:mID="14456" v:groupContext="shape" transform="translate(1.19904E-14,-0.27738)">
				<title>Sheet.14456</title>
				<path d="M0 0.28 L51.12 0.28 L51.12 89.44 L0 89.44 L0 0.28 Z" class="st1"/>
			</g>
			<g id="shape14457-8" v:mID="14457" v:groupContext="shape" transform="translate(42.8339,-81.0741)">
				<title>Sheet.14457</title>
				<path d="M0 86.15 L3.25 86.15 L3.25 89.44 L0 89.44 L0 86.15 Z" class="st2"/>
			</g>
			<g id="shape14458-10" v:mID="14458" v:groupContext="shape" transform="translate(33.2448,-81.0741)">
				<title>Sheet.14458</title>
				<path d="M0 86.15 L3.29 86.15 L3.29 89.44 L0 89.44 L0 86.15 Z" class="st2"/>
			</g>
			<g id="shape14459-12" v:mID="14459" v:groupContext="shape" transform="translate(23.6557,-81.0741)">
				<title>Sheet.14459</title>
				<path d="M0 86.15 L3.29 86.15 L3.29 89.44 L0 89.44 L0 86.15 Z" class="st2"/>
			</g>
			<g id="shape14460-14" v:mID="14460" v:groupContext="shape" transform="translate(14.027,-81.0741)">
				<title>Sheet.14460</title>
				<path d="M0 86.15 L3.29 86.15 L3.29 89.44 L0 89.44 L0 86.15 Z" class="st2"/>
			</g>
			<g id="shape14461-16" v:mID="14461" v:groupContext="shape" transform="translate(4.43792,-81.0741)">
				<title>Sheet.14461</title>
				<path d="M0 86.15 L3.29 86.15 L3.29 89.44 L0 89.44 L0 86.15 Z" class="st2"/>
			</g>
			<g id="shape14462-18" v:mID="14462" v:groupContext="shape" transform="translate(42.8339,-72.6339)">
				<title>Sheet.14462</title>
				<path d="M0 89.44 L0 86.15 L3.25 86.15 L3.25 89.44 L0 89.44 Z" class="st2"/>
			</g>
			<g id="shape14463-20" v:mID="14463" v:groupContext="shape" transform="translate(33.2448,-72.6339)">
				<title>Sheet.14463</title>
				<path d="M0 86.15 L3.29 86.15 L3.29 89.44 L0 89.44 L0 86.15 Z" class="st2"/>
			</g>
			<g id="shape14464-22" v:mID="14464" v:groupContext="shape" transform="translate(23.6557,-72.6339)">
				<title>Sheet.14464</title>
				<path d="M0 86.15 L3.29 86.15 L3.29 89.44 L0 89.44 L0 86.15 Z" class="st2"/>
			</g>
			<g id="shape14465-24" v:mID="14465" v:groupContext="shape" transform="translate(14.027,-72.6339)">
				<title>Sheet.14465</title>
				<path d="M0 86.15 L3.29 86.15 L3.29 89.44 L0 89.44 L0 86.15 Z" class="st2"/>
			</g>
			<g id="shape14466-26" v:mID="14466" v:groupContext="shape" transform="translate(4.43792,-72.6339)">
				<title>Sheet.14466</title>
				<path d="M0 86.15 L3.29 86.15 L3.29 89.44 L0 89.44 L0 86.15 Z" class="st2"/>
			</g>
			<g id="shape14467-28" v:mID="14467" v:groupContext="shape" transform="translate(42.8339,-64.1936)">
				<title>Sheet.14467</title>
				<path d="M0 86.19 L3.25 86.19 L3.25 89.44 L0 89.44 L0 86.19 Z" class="st2"/>
			</g>
			<g id="shape14468-30" v:mID="14468" v:groupContext="shape" transform="translate(33.2448,-64.1936)">
				<title>Sheet.14468</title>
				<path d="M0 86.19 L3.29 86.19 L3.29 89.44 L0 89.44 L0 86.19 Z" class="st2"/>
			</g>
			<g id="shape14469-32" v:mID="14469" v:groupContext="shape" transform="translate(23.6557,-64.1936)">
				<title>Sheet.14469</title>
				<path d="M0 86.19 L3.29 86.19 L3.29 89.44 L0 89.44 L0 86.19 Z" class="st2"/>
			</g>
			<g id="shape14470-34" v:mID="14470" v:groupContext="shape" transform="translate(14.027,-64.1936)">
				<title>Sheet.14470</title>
				<path d="M0 86.19 L3.29 86.19 L3.29 89.44 L0 89.44 L0 86.19 Z" class="st2"/>
			</g>
			<g id="shape14471-36" v:mID="14471" v:groupContext="shape" transform="translate(4.43792,-64.1936)">
				<title>Sheet.14471</title>
				<path d="M0 86.19 L3.29 86.19 L3.29 89.44 L0 89.44 L0 86.19 Z" class="st2"/>
			</g>
			<g id="shape14472-38" v:mID="14472" v:groupContext="shape" transform="translate(42.8339,-55.7137)">
				<title>Sheet.14472</title>
				<path d="M0 86.15 L3.25 86.15 L3.25 89.44 L0 89.44 L0 86.15 Z" class="st2"/>
			</g>
			<g id="shape14473-40" v:mID="14473" v:groupContext="shape" transform="translate(33.2448,-55.7137)">
				<title>Sheet.14473</title>
				<path d="M0 86.15 L3.29 86.15 L3.29 89.44 L0 89.44 L0 86.15 Z" class="st2"/>
			</g>
			<g id="shape14474-42" v:mID="14474" v:groupContext="shape" transform="translate(23.6557,-55.7137)">
				<title>Sheet.14474</title>
				<path d="M0 86.15 L3.29 86.15 L3.29 89.44 L0 89.44 L0 86.15 Z" class="st2"/>
			</g>
			<g id="shape14475-44" v:mID="14475" v:groupContext="shape" transform="translate(14.027,-55.7137)">
				<title>Sheet.14475</title>
				<path d="M0 86.15 L3.29 86.15 L3.29 89.44 L0 89.44 L0 86.15 Z" class="st2"/>
			</g>
			<g id="shape14476-46" v:mID="14476" v:groupContext="shape" transform="translate(4.43792,-55.7137)">
				<title>Sheet.14476</title>
				<path d="M0 86.15 L3.29 86.15 L3.29 89.44 L0 89.44 L0 86.15 Z" class="st2"/>
			</g>
			<g id="shape14477-48" v:mID="14477" v:groupContext="shape" transform="translate(42.8339,-47.2734)">
				<title>Sheet.14477</title>
				<path d="M0 86.15 L3.25 86.15 L3.25 89.44 L0 89.44 L0 86.15 Z" class="st2"/>
			</g>
			<g id="shape14478-50" v:mID="14478" v:groupContext="shape" transform="translate(33.2448,-47.2734)">
				<title>Sheet.14478</title>
				<path d="M0 86.15 L3.29 86.15 L3.29 89.44 L0 89.44 L0 86.15 Z" class="st2"/>
			</g>
			<g id="shape14479-52" v:mID="14479" v:groupContext="shape" transform="translate(23.6557,-47.2734)">
				<title>Sheet.14479</title>
				<path d="M0 86.15 L3.29 86.15 L3.29 89.44 L0 89.44 L0 86.15 Z" class="st2"/>
			</g>
			<g id="shape14480-54" v:mID="14480" v:groupContext="shape" transform="translate(14.027,-47.2734)">
				<title>Sheet.14480</title>
				<path d="M0 86.15 L3.29 86.15 L3.29 89.44 L0 89.44 L0 86.15 Z" class="st2"/>
			</g>
			<g id="shape14481-56" v:mID="14481" v:groupContext="shape" transform="translate(4.43792,-47.2734)">
				<title>Sheet.14481</title>
				<path d="M0 86.15 L3.29 86.15 L3.29 89.44 L0 89.44 L0 86.15 Z" class="st2"/>
			</g>
			<g id="shape14482-58" v:mID="14482" v:groupContext="shape" transform="translate(42.8339,-38.7935)">
				<title>Sheet.14482</title>
				<path d="M0 86.15 L3.25 86.15 L3.25 89.44 L0 89.44 L0 86.15 Z" class="st2"/>
			</g>
			<g id="shape14483-60" v:mID="14483" v:groupContext="shape" transform="translate(33.2448,-38.7935)">
				<title>Sheet.14483</title>
				<path d="M0 86.15 L3.29 86.15 L3.29 89.44 L0 89.44 L0 86.15 Z" class="st2"/>
			</g>
			<g id="shape14484-62" v:mID="14484" v:groupContext="shape" transform="translate(23.6557,-38.7935)">
				<title>Sheet.14484</title>
				<path d="M0 86.15 L3.29 86.15 L3.29 89.44 L0 89.44 L0 86.15 Z" class="st2"/>
			</g>
			<g id="shape14485-64" v:mID="14485" v:groupContext="shape" transform="translate(14.027,-38.7935)">
				<title>Sheet.14485</title>
				<path d="M0 86.15 L3.29 86.15 L3.29 89.44 L0 89.44 L0 86.15 Z" class="st2"/>
			</g>
			<g id="shape14486-66" v:mID="14486" v:groupContext="shape" transform="translate(4.43792,-38.7935)">
				<title>Sheet.14486</title>
				<path d="M0 86.15 L3.29 86.15 L3.29 89.44 L0 89.44 L0 86.15 Z" class="st2"/>
			</g>
			<g id="shape14487-68" v:mID="14487" v:groupContext="shape" transform="translate(42.8339,-30.3533)">
				<title>Sheet.14487</title>
				<path d="M0 86.15 L3.25 86.15 L3.25 89.44 L0 89.44 L0 86.15 Z" class="st2"/>
			</g>
			<g id="shape14488-70" v:mID="14488" v:groupContext="shape" transform="translate(33.2448,-30.3533)">
				<title>Sheet.14488</title>
				<path d="M0 86.15 L3.29 86.15 L3.29 89.44 L0 89.44 L0 86.15 Z" class="st2"/>
			</g>
			<g id="shape14489-72" v:mID="14489" v:groupContext="shape" transform="translate(23.6557,-30.3533)">
				<title>Sheet.14489</title>
				<path d="M0 86.15 L3.29 86.15 L3.29 89.44 L0 89.44 L0 86.15 Z" class="st2"/>
			</g>
			<g id="shape14490-74" v:mID="14490" v:groupContext="shape" transform="translate(14.027,-30.3533)">
				<title>Sheet.14490</title>
				<path d="M0 86.15 L3.29 86.15 L3.29 89.44 L0 89.44 L0 86.15 Z" class="st2"/>
			</g>
			<g id="shape14491-76" v:mID="14491" v:groupContext="shape" transform="translate(4.43792,-30.3533)">
				<title>Sheet.14491</title>
				<path d="M0 86.15 L3.29 86.15 L3.29 89.44 L0 89.44 L0 86.15 Z" class="st2"/>
			</g>
			<g id="shape14492-78" v:mID="14492" v:groupContext="shape" transform="translate(42.8339,-21.913)">
				<title>Sheet.14492</title>
				<path d="M0 86.19 L3.25 86.19 L3.25 89.44 L0 89.44 L0 86.19 Z" class="st2"/>
			</g>
			<g id="shape14493-80" v:mID="14493" v:groupContext="shape" transform="translate(33.2448,-21.913)">
				<title>Sheet.14493</title>
				<path d="M0 86.19 L3.29 86.19 L3.29 89.44 L0 89.44 L0 86.19 Z" class="st2"/>
			</g>
			<g id="shape14494-82" v:mID="14494" v:groupContext="shape" transform="translate(23.6557,-21.913)">
				<title>Sheet.14494</title>
				<path d="M0 86.19 L3.29 86.19 L3.29 89.44 L0 89.44 L0 86.19 Z" class="st2"/>
			</g>
			<g id="shape14495-84" v:mID="14495" v:groupContext="shape" transform="translate(14.027,-21.913)">
				<title>Sheet.14495</title>
				<path d="M0 86.19 L3.29 86.19 L3.29 89.44 L0 89.44 L0 86.19 Z" class="st2"/>
			</g>
			<g id="shape14496-86" v:mID="14496" v:groupContext="shape" transform="translate(4.43792,-21.913)">
				<title>Sheet.14496</title>
				<path d="M0 86.19 L3.29 86.19 L3.29 89.44 L0 89.44 L0 86.19 Z" class="st2"/>
			</g>
			<g id="shape14497-88" v:mID="14497" v:groupContext="shape" transform="translate(42.8339,-13.4331)">
				<title>Sheet.14497</title>
				<path d="M0 86.15 L3.25 86.15 L3.25 89.44 L0 89.44 L0 86.15 Z" class="st2"/>
			</g>
			<g id="shape14498-90" v:mID="14498" v:groupContext="shape" transform="translate(33.2448,-13.4331)">
				<title>Sheet.14498</title>
				<path d="M0 86.15 L3.29 86.15 L3.29 89.44 L0 89.44 L0 86.15 Z" class="st2"/>
			</g>
			<g id="shape14499-92" v:mID="14499" v:groupContext="shape" transform="translate(23.6557,-13.4331)">
				<title>Sheet.14499</title>
				<path d="M0 86.15 L3.29 86.15 L3.29 89.44 L0 89.44 L0 86.15 Z" class="st2"/>
			</g>
			<g id="shape14500-94" v:mID="14500" v:groupContext="shape" transform="translate(14.027,-13.4331)">
				<title>Sheet.14500</title>
				<path d="M0 86.15 L3.29 86.15 L3.29 89.44 L0 89.44 L0 86.15 Z" class="st2"/>
			</g>
			<g id="shape14501-96" v:mID="14501" v:groupContext="shape" transform="translate(4.43792,-13.4331)">
				<title>Sheet.14501</title>
				<path d="M0 86.15 L3.29 86.15 L3.29 89.44 L0 89.44 L0 86.15 Z" class="st2"/>
			</g>
			<g id="shape14502-98" v:mID="14502" v:groupContext="shape" transform="translate(104.45,1.42109E-14)">
				<title>Sheet.14502</title>
				<path d="M20.57 30.08 L0 30.08 L0 89.44 L30.55 89.44 L30.55 37.17 L20.57 30.08 Z" class="st3"/>
			</g>
			<g id="shape14503-100" v:mID="14503" v:groupContext="shape" transform="translate(124.301,-42.9146)">
				<title>Sheet.14503</title>
				<path d="M0 81.15 L4.16 81.15 L4.16 89.44 L0 89.44 L0 81.15 Z" class="st4"/>
			</g>
			<g id="shape14504-102" v:mID="14504" v:groupContext="shape" transform="translate(117.526,-42.9146)">
				<title>Sheet.14504</title>
				<path d="M0 81.15 L4.16 81.15 L4.16 89.44 L0 89.44 L0 81.15 Z" class="st4"/>
			</g>
			<g id="shape14505-104" v:mID="14505" v:groupContext="shape" transform="translate(110.512,-42.9146)">
				<title>Sheet.14505</title>
				<path d="M0 81.15 L4.16 81.15 L4.16 89.44 L0 89.44 L0 81.15 Z" class="st4"/>
			</g>
			<g id="shape14506-106" v:mID="14506" v:groupContext="shape" transform="translate(124.301,-32.8893)">
				<title>Sheet.14506</title>
				<path d="M0 81.15 L4.16 81.15 L4.16 89.44 L0 89.44 L0 81.15 Z" class="st4"/>
			</g>
			<g id="shape14507-108" v:mID="14507" v:groupContext="shape" transform="translate(117.526,-32.8893)">
				<title>Sheet.14507</title>
				<path d="M0 81.15 L4.16 81.15 L4.16 89.44 L0 89.44 L0 81.15 Z" class="st4"/>
			</g>
			<g id="shape14508-110" v:mID="14508" v:groupContext="shape" transform="translate(110.512,-32.8893)">
				<title>Sheet.14508</title>
				<path d="M0 81.15 L4.16 81.15 L4.16 89.44 L0 89.44 L0 81.15 Z" class="st4"/>
			</g>
			<g id="shape14509-112" v:mID="14509" v:groupContext="shape" transform="translate(124.301,-22.9036)">
				<title>Sheet.14509</title>
				<path d="M0 81.15 L4.16 81.15 L4.16 89.44 L0 89.44 L0 81.15 Z" class="st4"/>
			</g>
			<g id="shape14510-114" v:mID="14510" v:groupContext="shape" transform="translate(117.526,-22.9036)">
				<title>Sheet.14510</title>
				<path d="M0 81.15 L4.16 81.15 L4.16 89.44 L0 89.44 L0 81.15 Z" class="st4"/>
			</g>
			<g id="shape14511-116" v:mID="14511" v:groupContext="shape" transform="translate(110.512,-22.9036)">
				<title>Sheet.14511</title>
				<path d="M0 81.15 L4.16 81.15 L4.16 89.44 L0 89.44 L0 81.15 Z" class="st4"/>
			</g>
			<g id="shape14512-118" v:mID="14512" v:groupContext="shape" transform="translate(124.301,-12.8783)">
				<title>Sheet.14512</title>
				<path d="M0 81.15 L4.16 81.15 L4.16 89.44 L0 89.44 L0 81.15 Z" class="st4"/>
			</g>
			<g id="shape14513-120" v:mID="14513" v:groupContext="shape" transform="translate(117.526,-12.8783)">
				<title>Sheet.14513</title>
				<path d="M0 81.15 L4.16 81.15 L4.16 89.44 L0 89.44 L0 81.15 Z" class="st4"/>
			</g>
			<g id="shape14514-122" v:mID="14514" v:groupContext="shape" transform="translate(110.512,-12.8783)">
				<title>Sheet.14514</title>
				<path d="M0 81.15 L4.16 81.15 L4.16 89.44 L0 89.44 L0 81.15 Z" class="st4"/>
			</g>
		</g>
	</g>
</svg>
