<?xml version="1.0" encoding="UTF-8" standalone="no"?>
<!DOCTYPE svg PUBLIC "-//W3C//DTD SVG 1.1//EN" "http://www.w3.org/Graphics/SVG/1.1/DTD/svg11.dtd">
<!-- Generated by Microsoft Visio, SVG Export Building-#4.svg Page-1 -->
<svg xmlns="http://www.w3.org/2000/svg" xmlns:xlink="http://www.w3.org/1999/xlink" xmlns:ev="http://www.w3.org/2001/xml-events"
		xmlns:v="http://schemas.microsoft.com/visio/2003/SVGExtensions/" width="0.375in" height="1.46469in"
		viewBox="0 0 27 105.457" xml:space="preserve" color-interpolation-filters="sRGB" class="st3">
	<v:documentProperties v:langID="1033" v:metric="true" v:viewMarkup="false"/>

	<style type="text/css">
	<![CDATA[
		.st1 {fill:#9d9d9d;stroke:none;stroke-linecap:round;stroke-linejoin:round;stroke-width:0.75}
		.st2 {fill:#eeeeee;stroke:none;stroke-linecap:round;stroke-linejoin:round;stroke-width:0.75}
		.st3 {fill:none;fill-rule:evenodd;font-size:12px;overflow:visible;stroke-linecap:square;stroke-miterlimit:3}
	]]>
	</style>

	<g v:mID="0" v:index="1" v:groupContext="foregroundPage">
		<title>Page-1</title>
		<v:pageProperties v:drawingScale="1" v:pageScale="1" v:drawingUnits="0" v:shadowOffsetX="9" v:shadowOffsetY="-9"/>
		<g id="group14295-1" v:mID="14295" v:groupContext="group">
			<title>Building #5</title>
			<g id="shape14296-2" v:mID="14296" v:groupContext="shape">
				<title>Sheet.14296</title>
				<path d="M0 105.46 L0 22.31 C0 22 0.19 21.58 0.44 21.39 L26.56 0.11 C26.81 -0.09 27 -0.01 27 0.3 L27 105.46 L0 105.46
							 Z" class="st1"/>
			</g>
			<g id="shape14297-4" v:mID="14297" v:groupContext="shape" transform="translate(1.97205,-76.5229)">
				<title>Sheet.14297</title>
				<path d="M0 99.66 L3.38 99.66 L3.38 105.46 L0 105.46 L0 99.66 Z" class="st2"/>
			</g>
			<g id="shape14298-6" v:mID="14298" v:groupContext="shape" transform="translate(1.82597,-76.3525)">
				<title>Sheet.14298</title>
				<path d="M3.36 99.64 L3.36 105.14 L0.32 105.14 L0.32 99.64 L3.36 99.64 ZM3.68 99.32 L0 99.32 L0 105.46 L3.68 105.46
							 L3.68 99.32 Z" class="st1"/>
			</g>
			<g id="shape14299-8" v:mID="14299" v:groupContext="shape" transform="translate(6.01353,-76.5229)">
				<title>Sheet.14299</title>
				<path d="M0 99.66 L3.36 99.66 L3.36 105.46 L0 105.46 L0 99.66 Z" class="st2"/>
			</g>
			<g id="shape14300-10" v:mID="14300" v:groupContext="shape" transform="translate(5.86745,-76.3525)">
				<title>Sheet.14300</title>
				<path d="M3.36 99.64 L3.36 105.14 L0.29 105.14 L0.29 99.64 L3.36 99.64 ZM3.68 99.32 L0 99.32 L0 105.46 L3.68 105.46
							 L3.68 99.32 Z" class="st1"/>
			</g>
			<g id="shape14301-12" v:mID="14301" v:groupContext="shape" transform="translate(10.055,-76.5229)">
				<title>Sheet.14301</title>
				<path d="M0 99.66 L3.36 99.66 L3.36 105.46 L0 105.46 L0 99.66 Z" class="st2"/>
			</g>
			<g id="shape14302-14" v:mID="14302" v:groupContext="shape" transform="translate(9.90893,-76.3525)">
				<title>Sheet.14302</title>
				<path d="M3.36 99.64 L3.36 105.14 L0.29 105.14 L0.29 99.64 L3.36 99.64 ZM3.65 99.32 L0 99.32 L0 105.46 L3.65 105.46
							 L3.65 99.32 Z" class="st1"/>
			</g>
			<g id="shape14303-16" v:mID="14303" v:groupContext="shape" transform="translate(14.0965,-76.5229)">
				<title>Sheet.14303</title>
				<path d="M0 99.66 L3.36 99.66 L3.36 105.46 L0 105.46 L0 99.66 Z" class="st2"/>
			</g>
			<g id="shape14304-18" v:mID="14304" v:groupContext="shape" transform="translate(13.9261,-76.3525)">
				<title>Sheet.14304</title>
				<path d="M3.36 99.64 L3.36 105.14 L0.32 105.14 L0.32 99.64 L3.36 99.64 ZM3.68 99.32 L0 99.32 L0 105.46 L3.68 105.46
							 L3.68 99.32 Z" class="st1"/>
			</g>
			<g id="shape14305-20" v:mID="14305" v:groupContext="shape" transform="translate(18.1136,-76.5229)">
				<title>Sheet.14305</title>
				<path d="M0 99.66 L3.36 99.66 L3.36 105.46 L0 105.46 L0 99.66 Z" class="st2"/>
			</g>
			<g id="shape14306-22" v:mID="14306" v:groupContext="shape" transform="translate(17.9675,-76.3525)">
				<title>Sheet.14306</title>
				<path d="M3.36 99.64 L3.36 105.14 L0.32 105.14 L0.32 99.64 L3.36 99.64 ZM3.68 99.32 L0 99.32 L0 105.46 L3.68 105.46
							 L3.68 99.32 Z" class="st1"/>
			</g>
			<g id="shape14307-24" v:mID="14307" v:groupContext="shape" transform="translate(22.1551,-76.5229)">
				<title>Sheet.14307</title>
				<path d="M0 99.66 L3.36 99.66 L3.36 105.46 L0 105.46 L0 99.66 Z" class="st2"/>
			</g>
			<g id="shape14308-26" v:mID="14308" v:groupContext="shape" transform="translate(22.009,-76.3525)">
				<title>Sheet.14308</title>
				<path d="M3.36 99.64 L3.36 105.14 L0.29 105.14 L0.29 99.64 L3.36 99.64 ZM3.65 99.32 L0 99.32 L0 105.46 L3.65 105.46
							 L3.65 99.32 Z" class="st1"/>
			</g>
			<g id="shape14309-28" v:mID="14309" v:groupContext="shape" transform="translate(10.055,-82.9749)">
				<title>Sheet.14309</title>
				<path d="M0 99.64 L3.36 99.64 L3.36 105.46 L0 105.46 L0 99.64 Z" class="st2"/>
			</g>
			<g id="shape14310-30" v:mID="14310" v:groupContext="shape" transform="translate(9.90893,-82.8288)">
				<title>Sheet.14310</title>
				<path d="M3.36 99.66 L3.36 105.17 L0.29 105.17 L0.29 99.66 L3.36 99.66 ZM3.65 99.35 L0 99.35 L0 105.46 L3.65 105.46
							 L3.65 99.35 Z" class="st1"/>
			</g>
			<g id="shape14311-32" v:mID="14311" v:groupContext="shape" transform="translate(14.0965,-82.9749)">
				<title>Sheet.14311</title>
				<path d="M0 99.64 L3.36 99.64 L3.36 105.46 L0 105.46 L0 99.64 Z" class="st2"/>
			</g>
			<g id="shape14312-34" v:mID="14312" v:groupContext="shape" transform="translate(13.9261,-82.8288)">
				<title>Sheet.14312</title>
				<path d="M3.36 99.66 L3.36 105.17 L0.32 105.17 L0.32 99.66 L3.36 99.66 ZM3.68 99.35 L0 99.35 L0 105.46 L3.68 105.46
							 L3.68 99.35 Z" class="st1"/>
			</g>
			<g id="shape14313-36" v:mID="14313" v:groupContext="shape" transform="translate(18.1136,-82.9749)">
				<title>Sheet.14313</title>
				<path d="M0 99.64 L3.36 99.64 L3.36 105.46 L0 105.46 L0 99.64 Z" class="st2"/>
			</g>
			<g id="shape14314-38" v:mID="14314" v:groupContext="shape" transform="translate(17.9675,-82.8288)">
				<title>Sheet.14314</title>
				<path d="M3.36 99.66 L3.36 105.17 L0.32 105.17 L0.32 99.66 L3.36 99.66 ZM3.68 99.35 L0 99.35 L0 105.46 L3.68 105.46
							 L3.68 99.35 Z" class="st1"/>
			</g>
			<g id="shape14315-40" v:mID="14315" v:groupContext="shape" transform="translate(22.1551,-82.9749)">
				<title>Sheet.14315</title>
				<path d="M0 99.64 L3.36 99.64 L3.36 105.46 L0 105.46 L0 99.64 Z" class="st2"/>
			</g>
			<g id="shape14316-42" v:mID="14316" v:groupContext="shape" transform="translate(22.009,-82.8288)">
				<title>Sheet.14316</title>
				<path d="M3.36 99.66 L3.36 105.17 L0.29 105.17 L0.29 99.66 L3.36 99.66 ZM3.65 99.35 L0 99.35 L0 105.46 L3.65 105.46
							 L3.65 99.35 Z" class="st1"/>
			</g>
			<g id="shape14317-44" v:mID="14317" v:groupContext="shape" transform="translate(18.1136,-89.4513)">
				<title>Sheet.14317</title>
				<path d="M0 99.64 L3.36 99.64 L3.36 105.46 L0 105.46 L0 99.64 Z" class="st2"/>
			</g>
			<g id="shape14318-46" v:mID="14318" v:groupContext="shape" transform="translate(17.9675,-89.3052)">
				<title>Sheet.14318</title>
				<path d="M3.36 99.66 L3.36 105.17 L0.32 105.17 L0.32 99.66 L3.36 99.66 ZM3.68 99.35 L0 99.35 L0 105.46 L3.68 105.46
							 L3.68 99.35 Z" class="st1"/>
			</g>
			<g id="shape14319-48" v:mID="14319" v:groupContext="shape" transform="translate(22.1551,-89.4513)">
				<title>Sheet.14319</title>
				<path d="M0 99.64 L3.36 99.64 L3.36 105.46 L0 105.46 L0 99.64 Z" class="st2"/>
			</g>
			<g id="shape14320-50" v:mID="14320" v:groupContext="shape" transform="translate(22.009,-89.3052)">
				<title>Sheet.14320</title>
				<path d="M3.36 99.66 L3.36 105.17 L0.29 105.17 L0.29 99.66 L3.36 99.66 ZM3.65 99.35 L0 99.35 L0 105.46 L3.65 105.46
							 L3.65 99.35 Z" class="st1"/>
			</g>
			<g id="shape14321-52" v:mID="14321" v:groupContext="shape" transform="translate(1.97205,-70.0223)">
				<title>Sheet.14321</title>
				<path d="M0 99.64 L3.38 99.64 L3.38 105.46 L0 105.46 L0 99.64 Z" class="st2"/>
			</g>
			<g id="shape14322-54" v:mID="14322" v:groupContext="shape" transform="translate(1.82597,-69.8762)">
				<title>Sheet.14322</title>
				<path d="M3.36 99.64 L3.36 105.14 L0.32 105.14 L0.32 99.64 L3.36 99.64 ZM3.68 99.35 L0 99.35 L0 105.46 L3.68 105.46
							 L3.68 99.35 Z" class="st1"/>
			</g>
			<g id="shape14323-56" v:mID="14323" v:groupContext="shape" transform="translate(6.01353,-70.0223)">
				<title>Sheet.14323</title>
				<path d="M0 99.64 L3.36 99.64 L3.36 105.46 L0 105.46 L0 99.64 Z" class="st2"/>
			</g>
			<g id="shape14324-58" v:mID="14324" v:groupContext="shape" transform="translate(5.86745,-69.8762)">
				<title>Sheet.14324</title>
				<path d="M3.36 99.64 L3.36 105.14 L0.29 105.14 L0.29 99.64 L3.36 99.64 ZM3.68 99.35 L0 99.35 L0 105.46 L3.68 105.46
							 L3.68 99.35 Z" class="st1"/>
			</g>
			<g id="shape14325-60" v:mID="14325" v:groupContext="shape" transform="translate(10.055,-70.0223)">
				<title>Sheet.14325</title>
				<path d="M0 99.64 L3.36 99.64 L3.36 105.46 L0 105.46 L0 99.64 Z" class="st2"/>
			</g>
			<g id="shape14326-62" v:mID="14326" v:groupContext="shape" transform="translate(9.90893,-69.8762)">
				<title>Sheet.14326</title>
				<path d="M3.36 99.64 L3.36 105.14 L0.29 105.14 L0.29 99.64 L3.36 99.64 ZM3.65 99.35 L0 99.35 L0 105.46 L3.65 105.46
							 L3.65 99.35 Z" class="st1"/>
			</g>
			<g id="shape14327-64" v:mID="14327" v:groupContext="shape" transform="translate(14.0965,-70.0223)">
				<title>Sheet.14327</title>
				<path d="M0 99.64 L3.36 99.64 L3.36 105.46 L0 105.46 L0 99.64 Z" class="st2"/>
			</g>
			<g id="shape14328-66" v:mID="14328" v:groupContext="shape" transform="translate(13.9261,-69.8762)">
				<title>Sheet.14328</title>
				<path d="M3.36 99.64 L3.36 105.14 L0.32 105.14 L0.32 99.64 L3.36 99.64 ZM3.68 99.35 L0 99.35 L0 105.46 L3.68 105.46
							 L3.68 99.35 Z" class="st1"/>
			</g>
			<g id="shape14329-68" v:mID="14329" v:groupContext="shape" transform="translate(18.1136,-70.0223)">
				<title>Sheet.14329</title>
				<path d="M0 99.64 L3.36 99.64 L3.36 105.46 L0 105.46 L0 99.64 Z" class="st2"/>
			</g>
			<g id="shape14330-70" v:mID="14330" v:groupContext="shape" transform="translate(17.9675,-69.8762)">
				<title>Sheet.14330</title>
				<path d="M3.36 99.64 L3.36 105.14 L0.32 105.14 L0.32 99.64 L3.36 99.64 ZM3.68 99.35 L0 99.35 L0 105.46 L3.68 105.46
							 L3.68 99.35 Z" class="st1"/>
			</g>
			<g id="shape14331-72" v:mID="14331" v:groupContext="shape" transform="translate(22.1551,-70.0223)">
				<title>Sheet.14331</title>
				<path d="M0 99.64 L3.36 99.64 L3.36 105.46 L0 105.46 L0 99.64 Z" class="st2"/>
			</g>
			<g id="shape14332-74" v:mID="14332" v:groupContext="shape" transform="translate(22.009,-69.8762)">
				<title>Sheet.14332</title>
				<path d="M3.36 99.64 L3.36 105.14 L0.29 105.14 L0.29 99.64 L3.36 99.64 ZM3.65 99.35 L0 99.35 L0 105.46 L3.65 105.46
							 L3.65 99.35 Z" class="st1"/>
			</g>
			<g id="shape14333-76" v:mID="14333" v:groupContext="shape" transform="translate(1.97205,-63.5459)">
				<title>Sheet.14333</title>
				<path d="M0 99.64 L3.38 99.64 L3.38 105.46 L0 105.46 L0 99.64 Z" class="st2"/>
			</g>
			<g id="shape14334-78" v:mID="14334" v:groupContext="shape" transform="translate(1.82597,-63.3999)">
				<title>Sheet.14334</title>
				<path d="M3.36 99.64 L3.36 105.14 L0.32 105.14 L0.32 99.64 L3.36 99.64 ZM3.68 99.35 L0 99.35 L0 105.46 L3.68 105.46
							 L3.68 99.35 Z" class="st1"/>
			</g>
			<g id="shape14335-80" v:mID="14335" v:groupContext="shape" transform="translate(6.01353,-63.5459)">
				<title>Sheet.14335</title>
				<path d="M0 99.64 L3.36 99.64 L3.36 105.46 L0 105.46 L0 99.64 Z" class="st2"/>
			</g>
			<g id="shape14336-82" v:mID="14336" v:groupContext="shape" transform="translate(5.86745,-63.3999)">
				<title>Sheet.14336</title>
				<path d="M3.36 99.64 L3.36 105.14 L0.29 105.14 L0.29 99.64 L3.36 99.64 ZM3.68 99.35 L0 99.35 L0 105.46 L3.68 105.46
							 L3.68 99.35 Z" class="st1"/>
			</g>
			<g id="shape14337-84" v:mID="14337" v:groupContext="shape" transform="translate(10.055,-63.5459)">
				<title>Sheet.14337</title>
				<path d="M0 99.64 L3.36 99.64 L3.36 105.46 L0 105.46 L0 99.64 Z" class="st2"/>
			</g>
			<g id="shape14338-86" v:mID="14338" v:groupContext="shape" transform="translate(9.90893,-63.3999)">
				<title>Sheet.14338</title>
				<path d="M3.36 99.64 L3.36 105.14 L0.29 105.14 L0.29 99.64 L3.36 99.64 ZM3.65 99.35 L0 99.35 L0 105.46 L3.65 105.46
							 L3.65 99.35 Z" class="st1"/>
			</g>
			<g id="shape14339-88" v:mID="14339" v:groupContext="shape" transform="translate(14.0965,-63.5459)">
				<title>Sheet.14339</title>
				<path d="M0 99.64 L3.36 99.64 L3.36 105.46 L0 105.46 L0 99.64 Z" class="st2"/>
			</g>
			<g id="shape14340-90" v:mID="14340" v:groupContext="shape" transform="translate(13.9261,-63.3999)">
				<title>Sheet.14340</title>
				<path d="M3.36 99.64 L3.36 105.14 L0.32 105.14 L0.32 99.64 L3.36 99.64 ZM3.68 99.35 L0 99.35 L0 105.46 L3.68 105.46
							 L3.68 99.35 Z" class="st1"/>
			</g>
			<g id="shape14341-92" v:mID="14341" v:groupContext="shape" transform="translate(18.1136,-63.5459)">
				<title>Sheet.14341</title>
				<path d="M0 99.64 L3.36 99.64 L3.36 105.46 L0 105.46 L0 99.64 Z" class="st2"/>
			</g>
			<g id="shape14342-94" v:mID="14342" v:groupContext="shape" transform="translate(17.9675,-63.3999)">
				<title>Sheet.14342</title>
				<path d="M3.36 99.64 L3.36 105.14 L0.32 105.14 L0.32 99.64 L3.36 99.64 ZM3.68 99.35 L0 99.35 L0 105.46 L3.68 105.46
							 L3.68 99.35 Z" class="st1"/>
			</g>
			<g id="shape14343-96" v:mID="14343" v:groupContext="shape" transform="translate(22.1551,-63.5459)">
				<title>Sheet.14343</title>
				<path d="M0 99.64 L3.36 99.64 L3.36 105.46 L0 105.46 L0 99.64 Z" class="st2"/>
			</g>
			<g id="shape14344-98" v:mID="14344" v:groupContext="shape" transform="translate(22.009,-63.3999)">
				<title>Sheet.14344</title>
				<path d="M3.36 99.64 L3.36 105.14 L0.29 105.14 L0.29 99.64 L3.36 99.64 ZM3.65 99.35 L0 99.35 L0 105.46 L3.65 105.46
							 L3.65 99.35 Z" class="st1"/>
			</g>
			<g id="shape14345-100" v:mID="14345" v:groupContext="shape" transform="translate(1.97205,-57.0696)">
				<title>Sheet.14345</title>
				<path d="M0 99.64 L3.38 99.64 L3.38 105.46 L0 105.46 L0 99.64 Z" class="st2"/>
			</g>
			<g id="shape14346-102" v:mID="14346" v:groupContext="shape" transform="translate(1.82597,-56.9235)">
				<title>Sheet.14346</title>
				<path d="M3.36 99.64 L3.36 105.17 L0.32 105.17 L0.32 99.64 L3.36 99.64 ZM3.68 99.35 L0 99.35 L0 105.46 L3.68 105.46
							 L3.68 99.35 Z" class="st1"/>
			</g>
			<g id="shape14347-104" v:mID="14347" v:groupContext="shape" transform="translate(6.01353,-57.0696)">
				<title>Sheet.14347</title>
				<path d="M0 99.64 L3.36 99.64 L3.36 105.46 L0 105.46 L0 99.64 Z" class="st2"/>
			</g>
			<g id="shape14348-106" v:mID="14348" v:groupContext="shape" transform="translate(5.86745,-56.9235)">
				<title>Sheet.14348</title>
				<path d="M3.36 99.64 L3.36 105.17 L0.29 105.17 L0.29 99.64 L3.36 99.64 ZM3.68 99.35 L0 99.35 L0 105.46 L3.68 105.46
							 L3.68 99.35 Z" class="st1"/>
			</g>
			<g id="shape14349-108" v:mID="14349" v:groupContext="shape" transform="translate(10.055,-57.0696)">
				<title>Sheet.14349</title>
				<path d="M0 99.64 L3.36 99.64 L3.36 105.46 L0 105.46 L0 99.64 Z" class="st2"/>
			</g>
			<g id="shape14350-110" v:mID="14350" v:groupContext="shape" transform="translate(9.90893,-56.9235)">
				<title>Sheet.14350</title>
				<path d="M3.36 99.64 L3.36 105.17 L0.29 105.17 L0.29 99.64 L3.36 99.64 ZM3.65 99.35 L0 99.35 L0 105.46 L3.65 105.46
							 L3.65 99.35 Z" class="st1"/>
			</g>
			<g id="shape14351-112" v:mID="14351" v:groupContext="shape" transform="translate(14.0965,-57.0696)">
				<title>Sheet.14351</title>
				<path d="M0 99.64 L3.36 99.64 L3.36 105.46 L0 105.46 L0 99.64 Z" class="st2"/>
			</g>
			<g id="shape14352-114" v:mID="14352" v:groupContext="shape" transform="translate(13.9261,-56.9235)">
				<title>Sheet.14352</title>
				<path d="M3.36 99.64 L3.36 105.17 L0.32 105.17 L0.32 99.64 L3.36 99.64 ZM3.68 99.35 L0 99.35 L0 105.46 L3.68 105.46
							 L3.68 99.35 Z" class="st1"/>
			</g>
			<g id="shape14353-116" v:mID="14353" v:groupContext="shape" transform="translate(18.1136,-57.0696)">
				<title>Sheet.14353</title>
				<path d="M0 99.64 L3.36 99.64 L3.36 105.46 L0 105.46 L0 99.64 Z" class="st2"/>
			</g>
			<g id="shape14354-118" v:mID="14354" v:groupContext="shape" transform="translate(17.9675,-56.9235)">
				<title>Sheet.14354</title>
				<path d="M3.36 99.64 L3.36 105.17 L0.32 105.17 L0.32 99.64 L3.36 99.64 ZM3.68 99.35 L0 99.35 L0 105.46 L3.68 105.46
							 L3.68 99.35 Z" class="st1"/>
			</g>
			<g id="shape14355-120" v:mID="14355" v:groupContext="shape" transform="translate(22.1551,-57.0696)">
				<title>Sheet.14355</title>
				<path d="M0 99.64 L3.36 99.64 L3.36 105.46 L0 105.46 L0 99.64 Z" class="st2"/>
			</g>
			<g id="shape14356-122" v:mID="14356" v:groupContext="shape" transform="translate(22.009,-56.9235)">
				<title>Sheet.14356</title>
				<path d="M3.36 99.64 L3.36 105.17 L0.29 105.17 L0.29 99.64 L3.36 99.64 ZM3.65 99.35 L0 99.35 L0 105.46 L3.65 105.46
							 L3.65 99.35 Z" class="st1"/>
			</g>
			<g id="shape14357-124" v:mID="14357" v:groupContext="shape" transform="translate(1.97205,-50.5933)">
				<title>Sheet.14357</title>
				<path d="M0 99.64 L3.38 99.64 L3.38 105.46 L0 105.46 L0 99.64 Z" class="st2"/>
			</g>
			<g id="shape14358-126" v:mID="14358" v:groupContext="shape" transform="translate(1.82597,-50.4472)">
				<title>Sheet.14358</title>
				<path d="M3.36 99.66 L3.36 105.17 L0.32 105.17 L0.32 99.66 L3.36 99.66 ZM3.68 99.35 L0 99.35 L0 105.46 L3.68 105.46
							 L3.68 99.35 Z" class="st1"/>
			</g>
			<g id="shape14359-128" v:mID="14359" v:groupContext="shape" transform="translate(6.01353,-50.5933)">
				<title>Sheet.14359</title>
				<path d="M0 99.64 L3.36 99.64 L3.36 105.46 L0 105.46 L0 99.64 Z" class="st2"/>
			</g>
			<g id="shape14360-130" v:mID="14360" v:groupContext="shape" transform="translate(5.86745,-50.4472)">
				<title>Sheet.14360</title>
				<path d="M3.36 99.66 L3.36 105.17 L0.29 105.17 L0.29 99.66 L3.36 99.66 ZM3.68 99.35 L0 99.35 L0 105.46 L3.68 105.46
							 L3.68 99.35 Z" class="st1"/>
			</g>
			<g id="shape14361-132" v:mID="14361" v:groupContext="shape" transform="translate(10.055,-50.5933)">
				<title>Sheet.14361</title>
				<path d="M0 99.64 L3.36 99.64 L3.36 105.46 L0 105.46 L0 99.64 Z" class="st2"/>
			</g>
			<g id="shape14362-134" v:mID="14362" v:groupContext="shape" transform="translate(9.90893,-50.4472)">
				<title>Sheet.14362</title>
				<path d="M3.36 99.66 L3.36 105.17 L0.29 105.17 L0.29 99.66 L3.36 99.66 ZM3.65 99.35 L0 99.35 L0 105.46 L3.65 105.46
							 L3.65 99.35 Z" class="st1"/>
			</g>
			<g id="shape14363-136" v:mID="14363" v:groupContext="shape" transform="translate(14.0965,-50.5933)">
				<title>Sheet.14363</title>
				<path d="M0 99.64 L3.36 99.64 L3.36 105.46 L0 105.46 L0 99.64 Z" class="st2"/>
			</g>
			<g id="shape14364-138" v:mID="14364" v:groupContext="shape" transform="translate(13.9261,-50.4472)">
				<title>Sheet.14364</title>
				<path d="M3.36 99.66 L3.36 105.17 L0.32 105.17 L0.32 99.66 L3.36 99.66 ZM3.68 99.35 L0 99.35 L0 105.46 L3.68 105.46
							 L3.68 99.35 Z" class="st1"/>
			</g>
			<g id="shape14365-140" v:mID="14365" v:groupContext="shape" transform="translate(18.1136,-50.5933)">
				<title>Sheet.14365</title>
				<path d="M0 99.64 L3.36 99.64 L3.36 105.46 L0 105.46 L0 99.64 Z" class="st2"/>
			</g>
			<g id="shape14366-142" v:mID="14366" v:groupContext="shape" transform="translate(17.9675,-50.4472)">
				<title>Sheet.14366</title>
				<path d="M3.36 99.66 L3.36 105.17 L0.32 105.17 L0.32 99.66 L3.36 99.66 ZM3.68 99.35 L0 99.35 L0 105.46 L3.68 105.46
							 L3.68 99.35 Z" class="st1"/>
			</g>
			<g id="shape14367-144" v:mID="14367" v:groupContext="shape" transform="translate(22.1551,-50.5933)">
				<title>Sheet.14367</title>
				<path d="M0 99.64 L3.36 99.64 L3.36 105.46 L0 105.46 L0 99.64 Z" class="st2"/>
			</g>
			<g id="shape14368-146" v:mID="14368" v:groupContext="shape" transform="translate(22.009,-50.4472)">
				<title>Sheet.14368</title>
				<path d="M3.36 99.66 L3.36 105.17 L0.29 105.17 L0.29 99.66 L3.36 99.66 ZM3.65 99.35 L0 99.35 L0 105.46 L3.65 105.46
							 L3.65 99.35 Z" class="st1"/>
			</g>
			<g id="shape14369-148" v:mID="14369" v:groupContext="shape" transform="translate(1.97205,-44.117)">
				<title>Sheet.14369</title>
				<path d="M0 99.66 L3.38 99.66 L3.38 105.46 L0 105.46 L0 99.66 Z" class="st2"/>
			</g>
			<g id="shape14370-150" v:mID="14370" v:groupContext="shape" transform="translate(1.82597,-43.9709)">
				<title>Sheet.14370</title>
				<path d="M3.36 99.66 L3.36 105.17 L0.32 105.17 L0.32 99.66 L3.36 99.66 ZM3.68 99.35 L0 99.35 L0 105.46 L3.68 105.46
							 L3.68 99.35 Z" class="st1"/>
			</g>
			<g id="shape14371-152" v:mID="14371" v:groupContext="shape" transform="translate(6.01353,-44.117)">
				<title>Sheet.14371</title>
				<path d="M0 99.66 L3.36 99.66 L3.36 105.46 L0 105.46 L0 99.66 Z" class="st2"/>
			</g>
			<g id="shape14372-154" v:mID="14372" v:groupContext="shape" transform="translate(5.86745,-43.9709)">
				<title>Sheet.14372</title>
				<path d="M3.36 99.66 L3.36 105.17 L0.29 105.17 L0.29 99.66 L3.36 99.66 ZM3.68 99.35 L0 99.35 L0 105.46 L3.68 105.46
							 L3.68 99.35 Z" class="st1"/>
			</g>
			<g id="shape14373-156" v:mID="14373" v:groupContext="shape" transform="translate(10.055,-44.117)">
				<title>Sheet.14373</title>
				<path d="M0 99.66 L3.36 99.66 L3.36 105.46 L0 105.46 L0 99.66 Z" class="st2"/>
			</g>
			<g id="shape14374-158" v:mID="14374" v:groupContext="shape" transform="translate(9.90893,-43.9709)">
				<title>Sheet.14374</title>
				<path d="M3.36 99.66 L3.36 105.17 L0.29 105.17 L0.29 99.66 L3.36 99.66 ZM3.65 99.35 L0 99.35 L0 105.46 L3.65 105.46
							 L3.65 99.35 Z" class="st1"/>
			</g>
			<g id="shape14375-160" v:mID="14375" v:groupContext="shape" transform="translate(14.0965,-44.117)">
				<title>Sheet.14375</title>
				<path d="M0 99.66 L3.36 99.66 L3.36 105.46 L0 105.46 L0 99.66 Z" class="st2"/>
			</g>
			<g id="shape14376-162" v:mID="14376" v:groupContext="shape" transform="translate(13.9261,-43.9709)">
				<title>Sheet.14376</title>
				<path d="M3.36 99.66 L3.36 105.17 L0.32 105.17 L0.32 99.66 L3.36 99.66 ZM3.68 99.35 L0 99.35 L0 105.46 L3.68 105.46
							 L3.68 99.35 Z" class="st1"/>
			</g>
			<g id="shape14377-164" v:mID="14377" v:groupContext="shape" transform="translate(18.1136,-44.117)">
				<title>Sheet.14377</title>
				<path d="M0 99.66 L3.36 99.66 L3.36 105.46 L0 105.46 L0 99.66 Z" class="st2"/>
			</g>
			<g id="shape14378-166" v:mID="14378" v:groupContext="shape" transform="translate(17.9675,-43.9709)">
				<title>Sheet.14378</title>
				<path d="M3.36 99.66 L3.36 105.17 L0.32 105.17 L0.32 99.66 L3.36 99.66 ZM3.68 99.35 L0 99.35 L0 105.46 L3.68 105.46
							 L3.68 99.35 Z" class="st1"/>
			</g>
			<g id="shape14379-168" v:mID="14379" v:groupContext="shape" transform="translate(22.1551,-44.117)">
				<title>Sheet.14379</title>
				<path d="M0 99.66 L3.36 99.66 L3.36 105.46 L0 105.46 L0 99.66 Z" class="st2"/>
			</g>
			<g id="shape14380-170" v:mID="14380" v:groupContext="shape" transform="translate(22.009,-43.9709)">
				<title>Sheet.14380</title>
				<path d="M3.36 99.66 L3.36 105.17 L0.29 105.17 L0.29 99.66 L3.36 99.66 ZM3.65 99.35 L0 99.35 L0 105.46 L3.65 105.46
							 L3.65 99.35 Z" class="st1"/>
			</g>
			<g id="shape14381-172" v:mID="14381" v:groupContext="shape" transform="translate(1.97205,-37.6406)">
				<title>Sheet.14381</title>
				<path d="M0 99.66 L3.38 99.66 L3.38 105.46 L0 105.46 L0 99.66 Z" class="st2"/>
			</g>
			<g id="shape14382-174" v:mID="14382" v:groupContext="shape" transform="translate(1.82597,-37.4702)">
				<title>Sheet.14382</title>
				<path d="M3.36 99.64 L3.36 105.14 L0.32 105.14 L0.32 99.64 L3.36 99.64 ZM3.68 99.32 L0 99.32 L0 105.46 L3.68 105.46
							 L3.68 99.32 Z" class="st1"/>
			</g>
			<g id="shape14383-176" v:mID="14383" v:groupContext="shape" transform="translate(6.01353,-37.6406)">
				<title>Sheet.14383</title>
				<path d="M0 99.66 L3.36 99.66 L3.36 105.46 L0 105.46 L0 99.66 Z" class="st2"/>
			</g>
			<g id="shape14384-178" v:mID="14384" v:groupContext="shape" transform="translate(5.86745,-37.4702)">
				<title>Sheet.14384</title>
				<path d="M3.36 99.64 L3.36 105.14 L0.29 105.14 L0.29 99.64 L3.36 99.64 ZM3.68 99.32 L0 99.32 L0 105.46 L3.68 105.46
							 L3.68 99.32 Z" class="st1"/>
			</g>
			<g id="shape14385-180" v:mID="14385" v:groupContext="shape" transform="translate(10.055,-37.6406)">
				<title>Sheet.14385</title>
				<path d="M0 99.66 L3.36 99.66 L3.36 105.46 L0 105.46 L0 99.66 Z" class="st2"/>
			</g>
			<g id="shape14386-182" v:mID="14386" v:groupContext="shape" transform="translate(9.90893,-37.4702)">
				<title>Sheet.14386</title>
				<path d="M3.36 99.64 L3.36 105.14 L0.29 105.14 L0.29 99.64 L3.36 99.64 ZM3.65 99.32 L0 99.32 L0 105.46 L3.65 105.46
							 L3.65 99.32 Z" class="st1"/>
			</g>
			<g id="shape14387-184" v:mID="14387" v:groupContext="shape" transform="translate(14.0965,-37.6406)">
				<title>Sheet.14387</title>
				<path d="M0 99.66 L3.36 99.66 L3.36 105.46 L0 105.46 L0 99.66 Z" class="st2"/>
			</g>
			<g id="shape14388-186" v:mID="14388" v:groupContext="shape" transform="translate(13.9261,-37.4702)">
				<title>Sheet.14388</title>
				<path d="M3.36 99.64 L3.36 105.14 L0.32 105.14 L0.32 99.64 L3.36 99.64 ZM3.68 99.32 L0 99.32 L0 105.46 L3.68 105.46
							 L3.68 99.32 Z" class="st1"/>
			</g>
			<g id="shape14389-188" v:mID="14389" v:groupContext="shape" transform="translate(18.1136,-37.6406)">
				<title>Sheet.14389</title>
				<path d="M0 99.66 L3.36 99.66 L3.36 105.46 L0 105.46 L0 99.66 Z" class="st2"/>
			</g>
			<g id="shape14390-190" v:mID="14390" v:groupContext="shape" transform="translate(17.9675,-37.4702)">
				<title>Sheet.14390</title>
				<path d="M3.36 99.64 L3.36 105.14 L0.32 105.14 L0.32 99.64 L3.36 99.64 ZM3.68 99.32 L0 99.32 L0 105.46 L3.68 105.46
							 L3.68 99.32 Z" class="st1"/>
			</g>
			<g id="shape14391-192" v:mID="14391" v:groupContext="shape" transform="translate(22.1551,-37.6406)">
				<title>Sheet.14391</title>
				<path d="M0 99.66 L3.36 99.66 L3.36 105.46 L0 105.46 L0 99.66 Z" class="st2"/>
			</g>
			<g id="shape14392-194" v:mID="14392" v:groupContext="shape" transform="translate(22.009,-37.4702)">
				<title>Sheet.14392</title>
				<path d="M3.36 99.64 L3.36 105.14 L0.29 105.14 L0.29 99.64 L3.36 99.64 ZM3.65 99.32 L0 99.32 L0 105.46 L3.65 105.46
							 L3.65 99.32 Z" class="st1"/>
			</g>
			<g id="shape14393-196" v:mID="14393" v:groupContext="shape" transform="translate(1.97205,-31.1399)">
				<title>Sheet.14393</title>
				<path d="M0 99.64 L3.38 99.64 L3.38 105.46 L0 105.46 L0 99.64 Z" class="st2"/>
			</g>
			<g id="shape14394-198" v:mID="14394" v:groupContext="shape" transform="translate(1.82597,-30.9939)">
				<title>Sheet.14394</title>
				<path d="M3.36 99.64 L3.36 105.14 L0.32 105.14 L0.32 99.64 L3.36 99.64 ZM3.68 99.35 L0 99.35 L0 105.46 L3.68 105.46
							 L3.68 99.35 Z" class="st1"/>
			</g>
			<g id="shape14395-200" v:mID="14395" v:groupContext="shape" transform="translate(6.01353,-31.1399)">
				<title>Sheet.14395</title>
				<path d="M0 99.64 L3.36 99.64 L3.36 105.46 L0 105.46 L0 99.64 Z" class="st2"/>
			</g>
			<g id="shape14396-202" v:mID="14396" v:groupContext="shape" transform="translate(5.86745,-30.9939)">
				<title>Sheet.14396</title>
				<path d="M3.36 99.64 L3.36 105.14 L0.29 105.14 L0.29 99.64 L3.36 99.64 ZM3.68 99.35 L0 99.35 L0 105.46 L3.68 105.46
							 L3.68 99.35 Z" class="st1"/>
			</g>
			<g id="shape14397-204" v:mID="14397" v:groupContext="shape" transform="translate(10.055,-31.1399)">
				<title>Sheet.14397</title>
				<path d="M0 99.64 L3.36 99.64 L3.36 105.46 L0 105.46 L0 99.64 Z" class="st2"/>
			</g>
			<g id="shape14398-206" v:mID="14398" v:groupContext="shape" transform="translate(9.90893,-30.9939)">
				<title>Sheet.14398</title>
				<path d="M3.36 99.64 L3.36 105.14 L0.29 105.14 L0.29 99.64 L3.36 99.64 ZM3.65 99.35 L0 99.35 L0 105.46 L3.65 105.46
							 L3.65 99.35 Z" class="st1"/>
			</g>
			<g id="shape14399-208" v:mID="14399" v:groupContext="shape" transform="translate(14.0965,-31.1399)">
				<title>Sheet.14399</title>
				<path d="M0 99.64 L3.36 99.64 L3.36 105.46 L0 105.46 L0 99.64 Z" class="st2"/>
			</g>
			<g id="shape14400-210" v:mID="14400" v:groupContext="shape" transform="translate(13.9261,-30.9939)">
				<title>Sheet.14400</title>
				<path d="M3.36 99.64 L3.36 105.14 L0.32 105.14 L0.32 99.64 L3.36 99.64 ZM3.68 99.35 L0 99.35 L0 105.46 L3.68 105.46
							 L3.68 99.35 Z" class="st1"/>
			</g>
			<g id="shape14401-212" v:mID="14401" v:groupContext="shape" transform="translate(18.1136,-31.1399)">
				<title>Sheet.14401</title>
				<path d="M0 99.64 L3.36 99.64 L3.36 105.46 L0 105.46 L0 99.64 Z" class="st2"/>
			</g>
			<g id="shape14402-214" v:mID="14402" v:groupContext="shape" transform="translate(17.9675,-30.9939)">
				<title>Sheet.14402</title>
				<path d="M3.36 99.64 L3.36 105.14 L0.32 105.14 L0.32 99.64 L3.36 99.64 ZM3.68 99.35 L0 99.35 L0 105.46 L3.68 105.46
							 L3.68 99.35 Z" class="st1"/>
			</g>
			<g id="shape14403-216" v:mID="14403" v:groupContext="shape" transform="translate(22.1551,-31.1399)">
				<title>Sheet.14403</title>
				<path d="M0 99.64 L3.36 99.64 L3.36 105.46 L0 105.46 L0 99.64 Z" class="st2"/>
			</g>
			<g id="shape14404-218" v:mID="14404" v:groupContext="shape" transform="translate(22.009,-30.9939)">
				<title>Sheet.14404</title>
				<path d="M3.36 99.64 L3.36 105.14 L0.29 105.14 L0.29 99.64 L3.36 99.64 ZM3.65 99.35 L0 99.35 L0 105.46 L3.65 105.46
							 L3.65 99.35 Z" class="st1"/>
			</g>
			<g id="shape14405-220" v:mID="14405" v:groupContext="shape" transform="translate(1.97205,-24.7123)">
				<title>Sheet.14405</title>
				<path d="M0 99.64 L3.38 99.64 L3.38 105.46 L0 105.46 L0 99.64 Z" class="st2"/>
			</g>
			<g id="shape14406-222" v:mID="14406" v:groupContext="shape" transform="translate(1.82597,-24.5662)">
				<title>Sheet.14406</title>
				<path d="M3.36 99.64 L3.36 105.14 L0.32 105.14 L0.32 99.64 L3.36 99.64 ZM3.68 99.35 L0 99.35 L0 105.46 L3.68 105.46
							 L3.68 99.35 Z" class="st1"/>
			</g>
			<g id="shape14407-224" v:mID="14407" v:groupContext="shape" transform="translate(6.01353,-24.7123)">
				<title>Sheet.14407</title>
				<path d="M0 99.64 L3.36 99.64 L3.36 105.46 L0 105.46 L0 99.64 Z" class="st2"/>
			</g>
			<g id="shape14408-226" v:mID="14408" v:groupContext="shape" transform="translate(5.86745,-24.5662)">
				<title>Sheet.14408</title>
				<path d="M3.36 99.64 L3.36 105.14 L0.29 105.14 L0.29 99.64 L3.36 99.64 ZM3.68 99.35 L0 99.35 L0 105.46 L3.68 105.46
							 L3.68 99.35 Z" class="st1"/>
			</g>
			<g id="shape14409-228" v:mID="14409" v:groupContext="shape" transform="translate(10.055,-24.7123)">
				<title>Sheet.14409</title>
				<path d="M0 99.64 L3.36 99.64 L3.36 105.46 L0 105.46 L0 99.64 Z" class="st2"/>
			</g>
			<g id="shape14410-230" v:mID="14410" v:groupContext="shape" transform="translate(9.90893,-24.5662)">
				<title>Sheet.14410</title>
				<path d="M3.36 99.64 L3.36 105.14 L0.29 105.14 L0.29 99.64 L3.36 99.64 ZM3.65 99.35 L0 99.35 L0 105.46 L3.65 105.46
							 L3.65 99.35 Z" class="st1"/>
			</g>
			<g id="shape14411-232" v:mID="14411" v:groupContext="shape" transform="translate(14.0965,-24.7123)">
				<title>Sheet.14411</title>
				<path d="M0 99.64 L3.36 99.64 L3.36 105.46 L0 105.46 L0 99.64 Z" class="st2"/>
			</g>
			<g id="shape14412-234" v:mID="14412" v:groupContext="shape" transform="translate(13.9261,-24.5662)">
				<title>Sheet.14412</title>
				<path d="M3.36 99.64 L3.36 105.14 L0.32 105.14 L0.32 99.64 L3.36 99.64 ZM3.68 99.35 L0 99.35 L0 105.46 L3.68 105.46
							 L3.68 99.35 Z" class="st1"/>
			</g>
			<g id="shape14413-236" v:mID="14413" v:groupContext="shape" transform="translate(18.1136,-24.7123)">
				<title>Sheet.14413</title>
				<path d="M0 99.64 L3.36 99.64 L3.36 105.46 L0 105.46 L0 99.64 Z" class="st2"/>
			</g>
			<g id="shape14414-238" v:mID="14414" v:groupContext="shape" transform="translate(17.9675,-24.5662)">
				<title>Sheet.14414</title>
				<path d="M3.36 99.64 L3.36 105.14 L0.32 105.14 L0.32 99.64 L3.36 99.64 ZM3.68 99.35 L0 99.35 L0 105.46 L3.68 105.46
							 L3.68 99.35 Z" class="st1"/>
			</g>
			<g id="shape14415-240" v:mID="14415" v:groupContext="shape" transform="translate(22.1551,-24.7123)">
				<title>Sheet.14415</title>
				<path d="M0 99.64 L3.36 99.64 L3.36 105.46 L0 105.46 L0 99.64 Z" class="st2"/>
			</g>
			<g id="shape14416-242" v:mID="14416" v:groupContext="shape" transform="translate(22.009,-24.5662)">
				<title>Sheet.14416</title>
				<path d="M3.36 99.64 L3.36 105.14 L0.29 105.14 L0.29 99.64 L3.36 99.64 ZM3.65 99.35 L0 99.35 L0 105.46 L3.65 105.46
							 L3.65 99.35 Z" class="st1"/>
			</g>
			<g id="shape14417-244" v:mID="14417" v:groupContext="shape" transform="translate(1.97205,-18.236)">
				<title>Sheet.14417</title>
				<path d="M0 99.64 L3.38 99.64 L3.38 105.46 L0 105.46 L0 99.64 Z" class="st2"/>
			</g>
			<g id="shape14418-246" v:mID="14418" v:groupContext="shape" transform="translate(1.82597,-18.0899)">
				<title>Sheet.14418</title>
				<path d="M3.36 99.64 L3.36 105.14 L0.32 105.14 L0.32 99.64 L3.36 99.64 ZM3.68 99.35 L0 99.35 L0 105.46 L3.68 105.46
							 L3.68 99.35 Z" class="st1"/>
			</g>
			<g id="shape14419-248" v:mID="14419" v:groupContext="shape" transform="translate(6.01353,-18.236)">
				<title>Sheet.14419</title>
				<path d="M0 99.64 L3.36 99.64 L3.36 105.46 L0 105.46 L0 99.64 Z" class="st2"/>
			</g>
			<g id="shape14420-250" v:mID="14420" v:groupContext="shape" transform="translate(5.86745,-18.0899)">
				<title>Sheet.14420</title>
				<path d="M3.36 99.64 L3.36 105.14 L0.29 105.14 L0.29 99.64 L3.36 99.64 ZM3.68 99.35 L0 99.35 L0 105.46 L3.68 105.46
							 L3.68 99.35 Z" class="st1"/>
			</g>
			<g id="shape14421-252" v:mID="14421" v:groupContext="shape" transform="translate(10.055,-18.236)">
				<title>Sheet.14421</title>
				<path d="M0 99.64 L3.36 99.64 L3.36 105.46 L0 105.46 L0 99.64 Z" class="st2"/>
			</g>
			<g id="shape14422-254" v:mID="14422" v:groupContext="shape" transform="translate(9.90893,-18.0899)">
				<title>Sheet.14422</title>
				<path d="M3.36 99.64 L3.36 105.14 L0.29 105.14 L0.29 99.64 L3.36 99.64 ZM3.65 99.35 L0 99.35 L0 105.46 L3.65 105.46
							 L3.65 99.35 Z" class="st1"/>
			</g>
			<g id="shape14423-256" v:mID="14423" v:groupContext="shape" transform="translate(14.0965,-18.236)">
				<title>Sheet.14423</title>
				<path d="M0 99.64 L3.36 99.64 L3.36 105.46 L0 105.46 L0 99.64 Z" class="st2"/>
			</g>
			<g id="shape14424-258" v:mID="14424" v:groupContext="shape" transform="translate(13.9261,-18.0899)">
				<title>Sheet.14424</title>
				<path d="M3.36 99.64 L3.36 105.14 L0.32 105.14 L0.32 99.64 L3.36 99.64 ZM3.68 99.35 L0 99.35 L0 105.46 L3.68 105.46
							 L3.68 99.35 Z" class="st1"/>
			</g>
			<g id="shape14425-260" v:mID="14425" v:groupContext="shape" transform="translate(18.1136,-18.236)">
				<title>Sheet.14425</title>
				<path d="M0 99.64 L3.36 99.64 L3.36 105.46 L0 105.46 L0 99.64 Z" class="st2"/>
			</g>
			<g id="shape14426-262" v:mID="14426" v:groupContext="shape" transform="translate(17.9675,-18.0899)">
				<title>Sheet.14426</title>
				<path d="M3.36 99.64 L3.36 105.14 L0.32 105.14 L0.32 99.64 L3.36 99.64 ZM3.68 99.35 L0 99.35 L0 105.46 L3.68 105.46
							 L3.68 99.35 Z" class="st1"/>
			</g>
			<g id="shape14427-264" v:mID="14427" v:groupContext="shape" transform="translate(22.1551,-18.236)">
				<title>Sheet.14427</title>
				<path d="M0 99.64 L3.36 99.64 L3.36 105.46 L0 105.46 L0 99.64 Z" class="st2"/>
			</g>
			<g id="shape14428-266" v:mID="14428" v:groupContext="shape" transform="translate(22.009,-18.0899)">
				<title>Sheet.14428</title>
				<path d="M3.36 99.64 L3.36 105.14 L0.29 105.14 L0.29 99.64 L3.36 99.64 ZM3.65 99.35 L0 99.35 L0 105.46 L3.65 105.46
							 L3.65 99.35 Z" class="st1"/>
			</g>
			<g id="shape14429-268" v:mID="14429" v:groupContext="shape" transform="translate(1.97205,-11.7597)">
				<title>Sheet.14429</title>
				<path d="M0 99.64 L3.38 99.64 L3.38 105.46 L0 105.46 L0 99.64 Z" class="st2"/>
			</g>
			<g id="shape14430-270" v:mID="14430" v:groupContext="shape" transform="translate(1.82597,-11.6136)">
				<title>Sheet.14430</title>
				<path d="M3.36 99.66 L3.36 105.17 L0.32 105.17 L0.32 99.66 L3.36 99.66 ZM3.68 99.35 L0 99.35 L0 105.46 L3.68 105.46
							 L3.68 99.35 Z" class="st1"/>
			</g>
			<g id="shape14431-272" v:mID="14431" v:groupContext="shape" transform="translate(6.01353,-11.7597)">
				<title>Sheet.14431</title>
				<path d="M0 99.64 L3.36 99.64 L3.36 105.46 L0 105.46 L0 99.64 Z" class="st2"/>
			</g>
			<g id="shape14432-274" v:mID="14432" v:groupContext="shape" transform="translate(5.86745,-11.6136)">
				<title>Sheet.14432</title>
				<path d="M3.36 99.66 L3.36 105.17 L0.29 105.17 L0.29 99.66 L3.36 99.66 ZM3.68 99.35 L0 99.35 L0 105.46 L3.68 105.46
							 L3.68 99.35 Z" class="st1"/>
			</g>
			<g id="shape14433-276" v:mID="14433" v:groupContext="shape" transform="translate(10.055,-11.7597)">
				<title>Sheet.14433</title>
				<path d="M0 99.64 L3.36 99.64 L3.36 105.46 L0 105.46 L0 99.64 Z" class="st2"/>
			</g>
			<g id="shape14434-278" v:mID="14434" v:groupContext="shape" transform="translate(9.90893,-11.6136)">
				<title>Sheet.14434</title>
				<path d="M3.36 99.66 L3.36 105.17 L0.29 105.17 L0.29 99.66 L3.36 99.66 ZM3.65 99.35 L0 99.35 L0 105.46 L3.65 105.46
							 L3.65 99.35 Z" class="st1"/>
			</g>
			<g id="shape14435-280" v:mID="14435" v:groupContext="shape" transform="translate(14.0965,-11.7597)">
				<title>Sheet.14435</title>
				<path d="M0 99.64 L3.36 99.64 L3.36 105.46 L0 105.46 L0 99.64 Z" class="st2"/>
			</g>
			<g id="shape14436-282" v:mID="14436" v:groupContext="shape" transform="translate(13.9261,-11.6136)">
				<title>Sheet.14436</title>
				<path d="M3.36 99.66 L3.36 105.17 L0.32 105.17 L0.32 99.66 L3.36 99.66 ZM3.68 99.35 L0 99.35 L0 105.46 L3.68 105.46
							 L3.68 99.35 Z" class="st1"/>
			</g>
			<g id="shape14437-284" v:mID="14437" v:groupContext="shape" transform="translate(18.1136,-11.7597)">
				<title>Sheet.14437</title>
				<path d="M0 99.64 L3.36 99.64 L3.36 105.46 L0 105.46 L0 99.64 Z" class="st2"/>
			</g>
			<g id="shape14438-286" v:mID="14438" v:groupContext="shape" transform="translate(17.9675,-11.6136)">
				<title>Sheet.14438</title>
				<path d="M3.36 99.66 L3.36 105.17 L0.32 105.17 L0.32 99.66 L3.36 99.66 ZM3.68 99.35 L0 99.35 L0 105.46 L3.68 105.46
							 L3.68 99.35 Z" class="st1"/>
			</g>
			<g id="shape14439-288" v:mID="14439" v:groupContext="shape" transform="translate(22.1551,-11.7597)">
				<title>Sheet.14439</title>
				<path d="M0 99.64 L3.36 99.64 L3.36 105.46 L0 105.46 L0 99.64 Z" class="st2"/>
			</g>
			<g id="shape14440-290" v:mID="14440" v:groupContext="shape" transform="translate(22.009,-11.6136)">
				<title>Sheet.14440</title>
				<path d="M3.36 99.66 L3.36 105.17 L0.29 105.17 L0.29 99.66 L3.36 99.66 ZM3.65 99.35 L0 99.35 L0 105.46 L3.65 105.46
							 L3.65 99.35 Z" class="st1"/>
			</g>
			<g id="shape14441-292" v:mID="14441" v:groupContext="shape" transform="translate(1.97205,-5.11289)">
				<title>Sheet.14441</title>
				<path d="M0 99.64 L3.38 99.64 L3.38 105.46 L0 105.46 L0 99.64 Z" class="st2"/>
			</g>
			<g id="shape14442-294" v:mID="14442" v:groupContext="shape" transform="translate(1.82597,-4.96681)">
				<title>Sheet.14442</title>
				<path d="M3.36 99.66 L3.36 105.17 L0.32 105.17 L0.32 99.66 L3.36 99.66 ZM3.68 99.35 L0 99.35 L0 105.46 L3.68 105.46
							 L3.68 99.35 Z" class="st1"/>
			</g>
			<g id="shape14443-296" v:mID="14443" v:groupContext="shape" transform="translate(6.01353,-5.11289)">
				<title>Sheet.14443</title>
				<path d="M0 99.64 L3.36 99.64 L3.36 105.46 L0 105.46 L0 99.64 Z" class="st2"/>
			</g>
			<g id="shape14444-298" v:mID="14444" v:groupContext="shape" transform="translate(5.86745,-4.96681)">
				<title>Sheet.14444</title>
				<path d="M3.36 99.66 L3.36 105.17 L0.29 105.17 L0.29 99.66 L3.36 99.66 ZM3.68 99.35 L0 99.35 L0 105.46 L3.68 105.46
							 L3.68 99.35 Z" class="st1"/>
			</g>
			<g id="shape14445-300" v:mID="14445" v:groupContext="shape" transform="translate(10.055,-5.11289)">
				<title>Sheet.14445</title>
				<path d="M0 99.64 L3.36 99.64 L3.36 105.46 L0 105.46 L0 99.64 Z" class="st2"/>
			</g>
			<g id="shape14446-302" v:mID="14446" v:groupContext="shape" transform="translate(9.90893,-4.96681)">
				<title>Sheet.14446</title>
				<path d="M3.36 99.66 L3.36 105.17 L0.29 105.17 L0.29 99.66 L3.36 99.66 ZM3.65 99.35 L0 99.35 L0 105.46 L3.65 105.46
							 L3.65 99.35 Z" class="st1"/>
			</g>
			<g id="shape14447-304" v:mID="14447" v:groupContext="shape" transform="translate(14.0965,-5.11289)">
				<title>Sheet.14447</title>
				<path d="M0 99.64 L3.36 99.64 L3.36 105.46 L0 105.46 L0 99.64 Z" class="st2"/>
			</g>
			<g id="shape14448-306" v:mID="14448" v:groupContext="shape" transform="translate(13.9261,-4.96681)">
				<title>Sheet.14448</title>
				<path d="M3.36 99.66 L3.36 105.17 L0.32 105.17 L0.32 99.66 L3.36 99.66 ZM3.68 99.35 L0 99.35 L0 105.46 L3.68 105.46
							 L3.68 99.35 Z" class="st1"/>
			</g>
			<g id="shape14449-308" v:mID="14449" v:groupContext="shape" transform="translate(18.1136,-5.11289)">
				<title>Sheet.14449</title>
				<path d="M0 99.64 L3.36 99.64 L3.36 105.46 L0 105.46 L0 99.64 Z" class="st2"/>
			</g>
			<g id="shape14450-310" v:mID="14450" v:groupContext="shape" transform="translate(17.9675,-4.96681)">
				<title>Sheet.14450</title>
				<path d="M3.36 99.66 L3.36 105.17 L0.32 105.17 L0.32 99.66 L3.36 99.66 ZM3.68 99.35 L0 99.35 L0 105.46 L3.68 105.46
							 L3.68 99.35 Z" class="st1"/>
			</g>
			<g id="shape14451-312" v:mID="14451" v:groupContext="shape" transform="translate(22.1551,-5.11289)">
				<title>Sheet.14451</title>
				<path d="M0 99.64 L3.36 99.64 L3.36 105.46 L0 105.46 L0 99.64 Z" class="st2"/>
			</g>
			<g id="shape14452-314" v:mID="14452" v:groupContext="shape" transform="translate(22.009,-4.96681)">
				<title>Sheet.14452</title>
				<path d="M3.36 99.66 L3.36 105.17 L0.29 105.17 L0.29 99.66 L3.36 99.66 ZM3.65 99.35 L0 99.35 L0 105.46 L3.65 105.46
							 L3.65 99.35 Z" class="st1"/>
			</g>
		</g>
	</g>
</svg>
