<?xml version="1.0" encoding="UTF-8" standalone="no"?>
<!DOCTYPE svg PUBLIC "-//W3C//DTD SVG 1.1//EN" "http://www.w3.org/Graphics/SVG/1.1/DTD/svg11.dtd">
<!-- Generated by Microsoft Visio, SVG Export Electricity-Pole.svg Page-1 -->
<svg xmlns="http://www.w3.org/2000/svg" xmlns:xlink="http://www.w3.org/1999/xlink" xmlns:ev="http://www.w3.org/2001/xml-events"
		xmlns:v="http://schemas.microsoft.com/visio/2003/SVGExtensions/" width="11in" height="8.5in" viewBox="0 0 792 612"
		xml:space="preserve" color-interpolation-filters="sRGB" class="st7">
	<v:documentProperties v:langID="1033" v:viewMarkup="false">
		<v:userDefs>
			<v:ud v:nameU="msvSubprocessMaster" v:prompt="" v:val="VT4(Rectangle)"/>
			<v:ud v:nameU="msvNoAutoConnect" v:val="VT0(1):26"/>
		</v:userDefs>
	</v:documentProperties>

	<style type="text/css">
	<![CDATA[
		.st1 {fill:none}
		.st2 {stroke:#5baccb;stroke-linecap:round;stroke-linejoin:round;stroke-width:0.75}
		.st3 {fill:#4a8aa8;stroke:none;stroke-width:0.75}
		.st4 {fill:#2a3544;stroke:none;stroke-width:0.75}
		.st5 {fill:#4a8aa8;fill-opacity:0.5;stroke:none;stroke-width:0.75}
		.st6 {fill:#006280;stroke:none;stroke-width:0.75}
		.st7 {fill:none;fill-rule:evenodd;font-size:12px;overflow:visible;stroke-linecap:square;stroke-miterlimit:3}
	]]>
	</style>

	<g v:mID="0" v:index="1" v:groupContext="foregroundPage">
		<v:userDefs>
			<v:ud v:nameU="msvThemeOrder" v:val="VT0(0):26"/>
		</v:userDefs>
		<title>Page-1</title>
		<v:pageProperties v:drawingScale="1" v:pageScale="1" v:drawingUnits="0" v:shadowOffsetX="9" v:shadowOffsetY="-9"/>
		<g id="group18372-1" transform="translate(18,-544.562)" v:mID="18372" v:groupContext="group">
			<title>Electricity Pole</title>
			<g id="shape18373-2" v:mID="18373" v:groupContext="shape" transform="translate(79.6478,-42.0332) rotate(5)">
				<title>Sheet.18373</title>
				<path d="M0 611.47 C0.13 611.64 0.26 611.82 0.39 612 L0 611.47 Z" class="st1"/>
				<path d="M0 611.47 C0.13 611.64 0.26 611.82 0.39 612" class="st2"/>
			</g>
			<g id="shape18374-5" v:mID="18374" v:groupContext="shape" transform="translate(73.9083,-9.39831) rotate(5)">
				<title>Sheet.18374</title>
				<path d="M0 611.16 C0 611.16 0 611.18 0 611.18 C0.03 611.64 0.45 612 0.93 611.97 C1.41 611.93 1.77 611.52 1.74 611.06
							 C1.74 611.06 1.74 611.04 1.74 611.04 C1.04 611.09 0.7 611.11 0 611.16 Z" class="st3"/>
			</g>
			<g id="shape18375-7" v:mID="18375" v:groupContext="shape" transform="translate(53.2399,-24.7283) rotate(5)">
				<title>Sheet.18375</title>
				<path d="M19.76 610.27 C13.21 610.77 6.66 611.35 0.12 612 C0.07 611.54 0.05 611.32 0 610.86 C6.56 610.21 13.11 609.63
							 19.68 609.12 C19.71 609.58 19.73 609.81 19.76 610.27 Z" class="st4"/>
			</g>
			<g id="shape18376-9" v:mID="18376" v:groupContext="shape" transform="translate(64.2869,-18.1274) rotate(5)">
				<title>Sheet.18376</title>
				<path d="M0.37 612 C0.22 611.88 0.15 611.82 0 611.7 C2.63 608.74 3.96 607.26 6.66 604.33 C6.81 604.45 6.89 604.51
							 7.04 604.63 C4.34 607.57 3.01 609.04 0.37 612 Z" class="st4"/>
			</g>
			<g id="shape18377-11" v:mID="18377" v:groupContext="shape" transform="translate(53.9475,-18.777) rotate(5)">
				<title>Sheet.18377</title>
				<path d="M7.85 612 C7.98 611.86 8.04 611.78 8.17 611.64 C5.06 609.18 3.49 607.97 0.32 605.55 C0.19 605.69 0.13 605.77
							 0 605.91 C3.17 608.33 4.74 609.55 7.85 612 Z" class="st4"/>
			</g>
			<g id="shape18378-13" v:mID="18378" v:groupContext="shape" transform="translate(64.3786,-15.0273) rotate(5)">
				<title>Sheet.18378</title>
				<path d="M3.67 611.74 C2.43 611.84 1.81 611.89 0.57 612 C0.34 609.33 0.23 608 0 605.33 C1.25 605.23 1.88 605.18 3.13
							 605.07 C3.35 607.74 3.46 609.07 3.67 611.74 Z" class="st4"/>
			</g>
			<g id="shape18379-15" v:mID="18379" v:groupContext="shape" transform="translate(65.6781,-26.18) rotate(5)">
				<title>Sheet.18379</title>
				<path d="M0.3 610.56 C0.13 610.57 0 610.71 0.01 610.87 C0.04 611.21 0.06 611.38 0.09 611.73 C0.1 611.88 0.25 612
							 0.41 611.99 C0.58 611.97 0.71 611.83 0.7 611.68 C0.67 611.33 0.65 611.16 0.63 610.82 C0.61 610.66 0.46
							 610.54 0.3 610.56 Z" class="st4"/>
			</g>
			<g id="shape18380-17" v:mID="18380" v:groupContext="shape" transform="translate(67.6123,-26.1703) rotate(5)">
				<title>Sheet.18380</title>
				<path d="M0.3 610.56 C0.13 610.57 0 610.71 0.01 610.87 C0.04 611.21 0.05 611.38 0.08 611.73 C0.1 611.88 0.24 612
							 0.41 611.99 C0.58 611.97 0.71 611.83 0.69 611.68 C0.67 611.33 0.65 611.16 0.62 610.82 C0.61 610.66 0.46
							 610.54 0.3 610.56 Z" class="st4"/>
			</g>
			<g id="shape18381-19" v:mID="18381" v:groupContext="shape" transform="translate(69.5458,-26.1544) rotate(5)">
				<title>Sheet.18381</title>
				<path d="M0.3 610.56 C0.13 610.57 0 610.71 0.01 610.87 C0.04 611.21 0.05 611.38 0.08 611.73 C0.09 611.88 0.24 612
							 0.41 611.99 C0.58 611.97 0.7 611.83 0.69 611.68 C0.66 611.33 0.65 611.16 0.62 610.82 C0.61 610.66 0.46
							 610.54 0.3 610.56 Z" class="st4"/>
			</g>
			<g id="shape18382-21" v:mID="18382" v:groupContext="shape" transform="translate(71.4794,-26.1331) rotate(5)">
				<title>Sheet.18382</title>
				<path d="M0.3 610.56 C0.13 610.57 0 610.71 0.01 610.87 C0.04 611.21 0.05 611.38 0.08 611.73 C0.09 611.88 0.24 612
							 0.4 611.99 C0.57 611.98 0.7 611.84 0.69 611.68 C0.66 611.34 0.65 611.16 0.62 610.82 C0.61 610.66 0.47
							 610.55 0.3 610.56 Z" class="st4"/>
			</g>
			<g id="shape18383-23" v:mID="18383" v:groupContext="shape" transform="translate(54.1977,-26.1201) rotate(5)">
				<title>Sheet.18383</title>
				<path d="M0.29 610.56 C0.12 610.57 0 610.72 0.02 610.87 C0.05 611.21 0.07 611.39 0.1 611.73 C0.12 611.89 0.27 612
							 0.44 611.98 C0.61 611.97 0.73 611.82 0.71 611.67 C0.68 611.32 0.66 611.15 0.63 610.81 C0.61 610.65 0.46
							 610.54 0.29 610.56 Z" class="st4"/>
			</g>
			<g id="shape18384-25" v:mID="18384" v:groupContext="shape" transform="translate(56.1317,-26.1446) rotate(5)">
				<title>Sheet.18384</title>
				<path d="M0.29 610.56 C0.12 610.57 0 610.71 0.02 610.87 C0.05 611.21 0.07 611.39 0.1 611.73 C0.12 611.88 0.27 612
							 0.43 611.98 C0.6 611.97 0.73 611.83 0.71 611.67 C0.68 611.33 0.66 611.15 0.63 610.81 C0.61 610.65 0.46
							 610.54 0.29 610.56 Z" class="st4"/>
			</g>
			<g id="shape18385-27" v:mID="18385" v:groupContext="shape" transform="translate(58.0665,-26.1632) rotate(5)">
				<title>Sheet.18385</title>
				<path d="M0.29 610.56 C0.13 610.57 0 610.71 0.02 610.87 C0.05 611.21 0.06 611.39 0.1 611.73 C0.11 611.88 0.26 612
							 0.43 611.98 C0.6 611.97 0.72 611.83 0.71 611.67 C0.68 611.33 0.66 611.16 0.63 610.81 C0.61 610.66 0.46
							 610.54 0.29 610.56 Z" class="st4"/>
			</g>
			<g id="shape18386-29" v:mID="18386" v:groupContext="shape" transform="translate(60.0003,-26.1757) rotate(5)">
				<title>Sheet.18386</title>
				<path d="M0.29 610.56 C0.13 610.57 0 610.71 0.01 610.87 C0.05 611.21 0.06 611.38 0.09 611.73 C0.11 611.88 0.26 612
							 0.43 611.98 C0.59 611.97 0.72 611.83 0.7 611.67 L0.63 610.81 C0.61 610.66 0.46 610.54 0.29 610.56 Z"
						class="st4"/>
			</g>
			<g id="shape18387-31" v:mID="18387" v:groupContext="shape" transform="translate(59.0027,1.98288) rotate(5)">
				<title>Sheet.18387</title>
				<path d="M2.99 580.61 C1.79 580.71 1.2 580.76 0 580.87 C0.94 591.25 1.88 601.62 2.82 612 C3.96 611.9 4.53 611.85
							 5.66 611.75 C4.77 601.37 3.88 590.99 2.99 580.61 Z" class="st4"/>
			</g>
			<g id="shape18388-33" v:mID="18388" v:groupContext="shape" transform="translate(57.1987,-40.4534) rotate(5)">
				<title>Sheet.18388</title>
				<path d="M31.99 609.68 C21.36 610.24 10.77 611.01 0.18 612 C0.11 611.28 0.07 610.92 0 610.2 C10.62 609.21 21.25 608.43
							 31.9 607.87 C31.94 608.6 31.96 608.96 31.99 609.68 Z" class="st4"/>
			</g>
			<g id="shape18389-35" v:mID="18389" v:groupContext="shape" transform="translate(74.8897,-29.8202) rotate(5)">
				<title>Sheet.18389</title>
				<path d="M0.59 612 C0.36 611.81 0.24 611.71 0 611.52 C3.61 607.65 7.28 603.84 10.99 600.07 C11.23 600.26 11.35 600.36
							 11.59 600.56 C7.87 604.32 4.21 608.14 0.59 612 Z" class="st4"/>
			</g>
			<g id="shape18390-37" v:mID="18390" v:groupContext="shape" transform="translate(58.3395,-30.9288) rotate(5)">
				<title>Sheet.18390</title>
				<path d="M12.54 612 C12.74 611.77 12.85 611.66 13.06 611.44 C8.92 608.14 4.74 604.89 0.52 601.7 C0.31 601.93 0.21
							 602.04 0 602.27 C4.22 605.46 8.4 608.7 12.54 612 Z" class="st4"/>
			</g>
			<g id="shape18391-39" v:mID="18391" v:groupContext="shape" transform="translate(75.1389,-24.9006) rotate(5)">
				<title>Sheet.18391</title>
				<path d="M5.7 611.68 C3.71 611.8 2.71 611.86 0.72 612 L0 601.46 C2.03 601.32 3.04 601.25 5.06 601.13 C5.32 605.35
							 5.45 607.46 5.7 611.68 Z" class="st3"/>
			</g>
			<g id="group18392-41" transform="translate(75.1389,-24.9006) rotate(5)" v:mID="18392" v:groupContext="group">
				<title>Sheet.18392</title>
				<g id="shape18393-42" v:mID="18393" v:groupContext="shape">
					<title>Sheet.18393</title>
					<path d="M0 601.46 L0.72 612 C1.72 611.93 2.22 611.9 3.21 611.83 C2.94 607.62 2.8 605.51 2.53 601.29 C1.52 601.35
								 1.01 601.39 0 601.46 Z" class="st5"/>
				</g>
			</g>
			<g id="shape18394-44" v:mID="18394" v:groupContext="shape" transform="translate(77.381,-42.5007) rotate(5)">
				<title>Sheet.18394</title>
				<path d="M0.48 609.72 C0.21 609.74 0 609.96 0.02 610.21 C0.05 610.75 0.07 611.02 0.11 611.56 C0.12 611.81 0.36 612
							 0.63 611.98 C0.9 611.96 1.11 611.75 1.1 611.5 C1.06 610.96 1.04 610.68 1.01 610.14 C0.99 609.89 0.76
							 609.7 0.48 609.72 Z" class="st4"/>
			</g>
			<g id="shape18395-46" v:mID="18395" v:groupContext="shape" transform="translate(80.5146,-42.4265) rotate(5)">
				<title>Sheet.18395</title>
				<path d="M0.48 609.72 C0.21 609.74 0 609.96 0.02 610.21 C0.05 610.75 0.07 611.02 0.1 611.56 C0.11 611.81 0.35 612
							 0.62 611.98 C0.89 611.97 1.11 611.75 1.09 611.5 C1.06 610.96 1.04 610.69 1.01 610.14 C0.99 609.9 0.76
							 609.71 0.48 609.72 Z" class="st4"/>
			</g>
			<g id="shape18396-48" v:mID="18396" v:groupContext="shape" transform="translate(83.6487,-42.3371) rotate(5)">
				<title>Sheet.18396</title>
				<path d="M0.49 609.72 C0.21 609.74 0 609.96 0.01 610.2 C0.05 610.75 0.06 611.02 0.09 611.56 C0.11 611.81 0.34 612
							 0.61 611.98 C0.89 611.97 1.1 611.75 1.08 611.5 C1.05 610.96 1.04 610.69 1.01 610.15 C0.99 609.9 0.76
							 609.71 0.49 609.72 Z" class="st4"/>
			</g>
			<g id="shape18397-50" v:mID="18397" v:groupContext="shape" transform="translate(86.781,-42.2332) rotate(5)">
				<title>Sheet.18397</title>
				<path d="M0.49 609.72 C0.21 609.74 0 609.95 0.01 610.2 C0.04 610.75 0.06 611.02 0.08 611.56 C0.1 611.81 0.33 612
							 0.6 611.99 C0.88 611.97 1.09 611.76 1.08 611.51 C1.05 610.96 1.03 610.69 1.01 610.15 C0.99 609.9 0.76
							 609.71 0.49 609.72 Z" class="st4"/>
			</g>
			<g id="shape18398-52" v:mID="18398" v:groupContext="shape" transform="translate(58.7684,-42.6401) rotate(5)">
				<title>Sheet.18398</title>
				<path d="M0.48 609.72 C0.2 609.74 0 609.97 0.02 610.22 C0.07 610.76 0.1 611.03 0.15 611.57 C0.18 611.82 0.42 612
							 0.69 611.97 C0.96 611.95 1.16 611.73 1.14 611.48 C1.09 610.94 1.07 610.67 1.02 610.12 C0.99 609.88 0.75
							 609.69 0.48 609.72 Z" class="st4"/>
			</g>
			<g id="shape18399-54" v:mID="18399" v:groupContext="shape" transform="translate(61.9052,-42.6531) rotate(5)">
				<title>Sheet.18399</title>
				<path d="M0.48 609.72 C0.2 609.74 0 609.97 0.02 610.22 C0.07 610.76 0.1 611.03 0.14 611.57 C0.17 611.82 0.41 612
							 0.68 611.98 C0.95 611.95 1.16 611.73 1.13 611.48 C1.09 610.94 1.06 610.67 1.01 610.13 C0.99 609.88 0.75
							 609.69 0.48 609.72 Z" class="st4"/>
			</g>
			<g id="shape18400-56" v:mID="18400" v:groupContext="shape" transform="translate(65.0412,-42.6515) rotate(5)">
				<title>Sheet.18400</title>
				<path d="M0.48 609.72 C0.21 609.74 0 609.97 0.02 610.21 C0.07 610.76 0.09 611.03 0.14 611.57 C0.16 611.82 0.4 612
							 0.67 611.98 C0.94 611.95 1.15 611.73 1.13 611.48 C1.08 610.94 1.06 610.67 1.01 610.13 C0.99 609.88 0.75
							 609.7 0.48 609.72 Z" class="st4"/>
			</g>
			<g id="shape18401-58" v:mID="18401" v:groupContext="shape" transform="translate(68.1776,-42.6347) rotate(5)">
				<title>Sheet.18401</title>
				<path d="M0.48 609.72 C0.21 609.74 0 609.96 0.02 610.21 C0.06 610.75 0.08 611.02 0.13 611.57 C0.15 611.82 0.39 612
							 0.66 611.98 C0.93 611.96 1.14 611.74 1.12 611.49 C1.08 610.95 1.06 610.67 1.01 610.13 C0.99 609.88 0.75
							 609.7 0.48 609.72 Z" class="st4"/>
			</g>
			<g id="shape18402-60" v:mID="18402" v:groupContext="shape" transform="translate(66.6979,1.93473) rotate(5)">
				<title>Sheet.18402</title>
				<path d="M4.86 562.42 C2.92 562.55 1.94 562.62 0 562.77 C1.25 579.18 2.51 595.59 3.76 612 C5.56 611.86 6.46 611.8
							 8.26 611.67 C7.13 595.25 5.99 578.83 4.86 562.42 Z" class="st6"/>
			</g>
			<g id="group18403-62" transform="translate(66.6979,1.93473) rotate(5)" v:mID="18403" v:groupContext="group">
				<title>Sheet.18403</title>
				<g id="shape18404-63" v:mID="18404" v:groupContext="shape">
					<title>Sheet.18404</title>
					<path d="M2.26 562.6 C1.36 562.67 0.91 562.7 0 562.77 C1.25 579.18 2.51 595.59 3.76 612 C4.6 611.94 5.02 611.9
								 5.86 611.84 C4.66 595.43 3.46 579.02 2.26 562.6 Z" class="st5"/>
				</g>
			</g>
		</g>
	</g>
</svg>
