<?xml version="1.0" encoding="UTF-8" standalone="no"?>
<!DOCTYPE svg PUBLIC "-//W3C//DTD SVG 1.1//EN" "http://www.w3.org/Graphics/SVG/1.1/DTD/svg11.dtd">
<!-- Generated by Microsoft Visio, SVG Export Factory-#2.svg Page-1 -->
<svg xmlns="http://www.w3.org/2000/svg" xmlns:xlink="http://www.w3.org/1999/xlink" xmlns:ev="http://www.w3.org/2001/xml-events"
		xmlns:v="http://schemas.microsoft.com/visio/2003/SVGExtensions/" width="11in" height="8.5in" viewBox="0 0 792 612"
		xml:space="preserve" color-interpolation-filters="sRGB" class="st13">
	<v:documentProperties v:langID="1033" v:viewMarkup="false">
		<v:userDefs>
			<v:ud v:nameU="msvSubprocessMaster" v:prompt="" v:val="VT4(Rectangle)"/>
			<v:ud v:nameU="msvNoAutoConnect" v:val="VT0(1):26"/>
		</v:userDefs>
	</v:documentProperties>

	<style type="text/css">
	<![CDATA[
		.st1 {fill:#a0deec;stroke:none;stroke-width:0.75}
		.st2 {fill:#7f7f7f;stroke:none;stroke-width:0.75}
		.st3 {fill:#2a3544;fill-opacity:0.25;stroke:none;stroke-width:0.75}
		.st4 {fill:#a5a5a5;stroke:none;stroke-width:0.75}
		.st5 {fill:#2a3544;stroke:none;stroke-width:0.75}
		.st6 {fill:#f2f2f2;stroke:none;stroke-width:0.75}
		.st7 {fill:#bfbfbf;stroke:none;stroke-width:0.75}
		.st8 {fill:#2a3544;fill-opacity:0.5;stroke:none;stroke-width:0.75}
		.st9 {fill:#92d050;fill-opacity:0.9;stroke:none;stroke-width:1.26108}
		.st10 {fill:#fdcda4}
		.st11 {stroke:none;stroke-width:1.26108}
		.st12 {fill:#fdcda4;stroke:none;stroke-width:1.26108}
		.st13 {fill:none;fill-rule:evenodd;font-size:12px;overflow:visible;stroke-linecap:square;stroke-miterlimit:3}
	]]>
	</style>

	<g v:mID="0" v:index="1" v:groupContext="foregroundPage">
		<v:userDefs>
			<v:ud v:nameU="msvThemeOrder" v:val="VT0(0):26"/>
		</v:userDefs>
		<title>Page-1</title>
		<v:pageProperties v:drawingScale="1" v:pageScale="1" v:drawingUnits="0" v:shadowOffsetX="9" v:shadowOffsetY="-9"/>
		<g id="group18196-1" transform="translate(18,-534.974)" v:mID="18196" v:groupContext="group">
			<title>Factory #2</title>
			<g id="group18197-2" transform="translate(-46.6056,4.36772) rotate(-7.2)" v:mID="18197" v:groupContext="group">
				<title>Sheet.18197</title>
				<g id="shape18198-3" v:mID="18198" v:groupContext="shape">
					<title>Sheet.18198</title>
					<path d="M15.32 605.53 C15.36 605.14 15.39 604.95 15.43 604.57 C15.74 604.61 15.89 604.63 16.2 604.66 C16.24
								 604.26 16.27 604.06 16.32 603.65 C11.15 603.05 5.99 602.49 0.82 601.96 C0.49 605.35 0.33 607.04
								 0 610.43 C4.85 610.89 9.7 611.42 14.53 612 C14.84 609.41 15 608.11 15.31 605.52 C15.31 605.52 15.31
								 605.53 15.32 605.53 Z" class="st1"/>
				</g>
			</g>
			<g id="shape18199-5" v:mID="18199" v:groupContext="shape" transform="translate(-15.3875,6.17888) rotate(-7.2)">
				<title>Sheet.18199</title>
				<path d="M18.61 612 C16.7 605.83 17.06 598.19 19.27 592.19 C19.31 591.92 16.28 591.17 12.49 590.56 C8.7 589.96 5.59
							 589.72 5.55 589.99 C6.05 596.42 3.48 603.73 0 609.02 C6.22 609.93 12.42 610.92 18.61 612 Z"
						class="st2"/>
			</g>
			<g id="group18200-7" transform="translate(-15.5381,4.98285) rotate(-7.2)" v:mID="18200" v:groupContext="group">
				<title>Sheet.18200</title>
				<g id="shape18201-8" v:mID="18201" v:groupContext="shape">
					<title>Sheet.18201</title>
					<path d="M5.55 591.2 C6.05 597.63 3.48 604.94 0 610.23 C4.6 610.9 6.89 611.25 11.48 612 C9.44 605.23 9.61 598.39
								 10.16 591.43 C7.5 591.08 5.58 590.98 5.55 591.2 Z" class="st3"/>
				</g>
			</g>
			<g id="shape18202-10" v:mID="18202" v:groupContext="shape" transform="translate(-32.4552,6.78974) rotate(-7.2)">
				<title>Sheet.18202</title>
				<path d="M26.46 612 C23.77 603.42 23.69 592.3 26.95 583.87 C27.01 583.48 22.64 582.48 17.19 581.72 C11.73 580.96
							 7.26 580.73 7.21 581.12 C8.04 590.12 4.93 600.79 0 608.32 C8.85 609.4 17.66 610.63 26.46 612 Z"
						class="st4"/>
			</g>
			<g id="group18203-12" transform="translate(-32.7048,4.81411) rotate(-7.2)" v:mID="18203" v:groupContext="group">
				<title>Sheet.18203</title>
				<g id="shape18204-13" v:mID="18204" v:groupContext="shape">
					<title>Sheet.18204</title>
					<path d="M13.16 612 C14.47 602.57 15.78 593.13 17.09 583.7 C11.68 582.95 7.26 582.73 7.21 583.11 C8.04 592.11
								 4.93 602.78 0 610.31 C4.39 610.82 8.78 611.39 13.16 612 Z" class="st3"/>
				</g>
			</g>
			<g id="shape18205-15" v:mID="18205" v:groupContext="shape" transform="translate(-40.1929,-11.694) rotate(-7.2)">
				<title>Sheet.18205</title>
				<path d="M10.04 612 C6.03 611.51 4.02 611.28 0 610.85 C1.67 599.5 3.36 588.16 5.06 576.82 C8.17 577.16 9.72 577.34
							 12.83 577.71 C11.92 589.14 10.99 600.57 10.04 612 Z" class="st2"/>
			</g>
			<g id="shape18206-17" v:mID="18206" v:groupContext="shape" transform="translate(-35.197,-12.3256) rotate(-7.2)">
				<title>Sheet.18206</title>
				<path d="M7.79 577.71 C6.25 577.53 5.47 577.44 3.93 577.26 C2.62 588.64 1.31 600.02 0 611.41 C2 611.64 3 611.76 5
							 612 C5.95 600.57 6.88 589.14 7.79 577.71 Z" class="st4"/>
			</g>
			<g id="shape18207-19" v:mID="18207" v:groupContext="shape" transform="translate(-39.468,-46.3452) rotate(-7.2)">
				<title>Sheet.18207</title>
				<path d="M8.59 605.2 C5.45 604.82 3.88 604.64 0.74 604.29 C0.45 607.02 0.3 608.38 0 611.11 C3.11 611.45 4.66 611.63
							 7.77 612 C8.09 609.28 8.26 607.92 8.59 605.2 Z" class="st5"/>
			</g>
			<g id="shape18208-21" v:mID="18208" v:groupContext="shape" transform="translate(-40.0437,-51.7445) rotate(-7.2)">
				<title>Sheet.18208</title>
				<path d="M8.79 612 C5.27 611.57 3.52 611.37 0 610.99 C0.06 610.45 0.09 610.18 0.15 609.64 C3.67 610.03 5.43 610.23
							 8.95 610.66 C8.89 611.19 8.85 611.46 8.79 612 Z" class="st5"/>
			</g>
			<g id="shape18209-23" v:mID="18209" v:groupContext="shape" transform="translate(-39.9482,-46.2278) rotate(-7.2)">
				<title>Sheet.18209</title>
				<path d="M8.72 612 C5.23 611.58 3.49 611.38 0 611 C0.06 610.46 0.09 610.19 0.15 609.65 C3.64 610.03 5.39 610.23 8.88
							 610.66 C8.82 611.19 8.78 611.46 8.72 612 Z" class="st5"/>
			</g>
			<g id="shape18210-25" v:mID="18210" v:groupContext="shape" transform="translate(-45.8591,-5.06585) rotate(-7.2)">
				<title>Sheet.18210</title>
				<path d="M7.51 585.05 C7.61 585.06 7.66 585.06 7.76 585.07 L7.85 584.22 C7.75 584.21 7.7 584.2 7.6 584.19 C7.71 583.14
							 7.77 582.61 7.88 581.56 L8.13 581.58 C8.16 581.24 8.18 581.07 8.22 580.73 C6.36 580.53 5.42 580.43 3.56
							 580.25 C3.53 580.59 3.51 580.76 3.48 581.11 C3.58 581.12 3.63 581.12 3.74 581.13 C3.63 582.19 3.58 582.71
							 3.48 583.77 C3.37 583.76 3.32 583.75 3.21 583.74 C3.18 584.08 3.16 584.26 3.13 584.6 C3.23 584.61 3.29
							 584.61 3.39 584.63 C2.25 593.56 1.12 602.51 0 611.45 C1.08 611.55 1.62 611.61 2.7 611.72 C3.77 611.83
							 4.31 611.89 5.38 612 C6.1 603.02 6.81 594.03 7.51 585.05 Z" class="st5"/>
			</g>
			<g id="shape18211-27" v:mID="18211" v:groupContext="shape" transform="translate(-46.0853,5.66086) rotate(-7.2)">
				<title>Sheet.18211</title>
				<path d="M1.55 593.84 C8.49 594.54 15.42 595.33 22.35 596.19 C21.66 601.46 20.98 606.73 20.3 612 C13.54 611.16 6.78
							 610.39 0 609.7 C0.52 604.41 1.03 599.13 1.55 593.84 Z" class="st6"/>
			</g>
			<g id="shape18212-29" v:mID="18212" v:groupContext="shape" transform="translate(-46.5198,-10.1068) rotate(-7.2)">
				<title>Sheet.18212</title>
				<path d="M0 609.54 C7.22 610.25 14.44 611.05 21.63 612 C21.67 611.75 21.68 611.63 21.71 611.38 C14.51 610.43 7.29
							 609.63 0.06 608.91 C0.04 609.16 0.02 609.29 0 609.54 Z" class="st5"/>
			</g>
			<g id="group18213-31" transform="translate(-46.5115,-9.43711) rotate(-7.2)" v:mID="18213" v:groupContext="group">
				<title>Sheet.18213</title>
				<g id="shape18214-32" v:mID="18214" v:groupContext="shape">
					<title>Sheet.18214</title>
					<path d="M20.88 611.23 C13.95 610.36 7.02 609.58 0.08 608.87 C0.05 609.18 0.03 609.34 0 609.65 C6.94 610.35 13.86
								 611.14 20.78 612 C20.82 611.69 20.84 611.54 20.88 611.23 Z" class="st7"/>
				</g>
			</g>
			<g id="shape18215-34" v:mID="18215" v:groupContext="shape" transform="translate(-37.0685,-7.87764) rotate(-7.2)">
				<title>Sheet.18215</title>
				<path d="M4.12 612 C2.47 611.8 1.65 611.71 0 611.53 C0.1 610.61 0.15 610.15 0.26 609.23 C1.91 609.41 2.74 609.51
							 4.39 609.71 C4.28 610.62 4.23 611.08 4.12 612 Z" class="st5"/>
			</g>
			<g id="shape18216-36" v:mID="18216" v:groupContext="shape" transform="translate(-31.6731,-7.89876) rotate(-7.2)">
				<title>Sheet.18216</title>
				<path d="M4.12 612 C2.47 611.79 1.65 611.69 0 611.49 C0.11 610.57 0.17 610.12 0.28 609.2 C1.93 609.4 2.76 609.5 4.41
							 609.71 C4.29 610.62 4.23 611.08 4.12 612 Z" class="st5"/>
			</g>
			<g id="shape18217-38" v:mID="18217" v:groupContext="shape" transform="translate(-62.1399,4.70334) rotate(-7.2)">
				<title>Sheet.18217</title>
				<path d="M9.95 598.87 C9.85 598.86 9.8 598.86 9.7 598.85 C9.82 596.97 8.6 595.29 6.82 594.66 C6.86 594.18 6.88 593.94
							 6.92 593.47 C5.98 593.39 5.51 593.35 4.57 593.28 C4.53 593.76 4.52 593.99 4.48 594.47 C2.62 594.81 1.15
							 596.28 0.97 598.16 C0.87 598.15 0.82 598.15 0.72 598.14 C0.69 598.53 0.68 598.73 0.65 599.12 C0.74 599.13
							 0.79 599.13 0.89 599.14 C0.53 604.01 0.35 606.45 0 611.32 C3.43 611.57 5.15 611.7 8.58 612 C9 607.13
							 9.21 604.7 9.63 599.83 C9.73 599.84 9.77 599.85 9.87 599.85 C9.9 599.46 9.92 599.26 9.95 598.87 Z"
						class="st5"/>
			</g>
			<g id="shape18218-40" v:mID="18218" v:groupContext="shape" transform="translate(-74.8541,5.45607) rotate(-7.2)">
				<title>Sheet.18218</title>
				<path d="M7.89 591.04 C7.92 590.62 7.93 590.42 7.96 590 C6.82 589.93 6.25 589.9 5.1 589.83 C5.08 590.24 5.07 590.45
							 5.04 590.86 C2.75 591.33 0.97 593.2 0.84 595.53 C0.56 600.81 0.28 606.09 0 611.36 C4.16 611.59 6.24
							 611.71 10.4 612 C10.77 606.73 11.13 601.45 11.5 596.18 C11.66 593.85 10.12 591.78 7.89 591.04 Z"
						class="st2"/>
			</g>
			<g id="shape18219-42" v:mID="18219" v:groupContext="shape" transform="translate(-67.6984,4.38206) rotate(-7.2)">
				<title>Sheet.18219</title>
				<path d="M0.65 612 C0.39 611.98 0.26 611.97 0 611.96 C0.35 606.56 0.69 601.16 1.04 595.76 C1.31 595.78 1.44 595.79
							 1.71 595.8 C1.36 601.2 1 606.6 0.65 612 Z" class="st7"/>
			</g>
			<g id="shape18220-44" v:mID="18220" v:groupContext="shape" transform="translate(-66.2357,4.29518) rotate(-7.2)">
				<title>Sheet.18220</title>
				<path d="M0.65 612 C0.39 611.98 0.26 611.97 0 611.96 C0.36 606.56 0.72 601.16 1.08 595.76 C1.34 595.78 1.48 595.79
							 1.74 595.81 C1.38 601.21 1.01 606.6 0.65 612 Z" class="st7"/>
			</g>
			<g id="shape18221-46" v:mID="18221" v:groupContext="shape" transform="translate(-76.5112,-10.4316) rotate(-7.2)">
				<title>Sheet.18221</title>
				<path d="M11.67 612 C7 611.67 4.67 611.53 0 611.29 C0.03 610.72 0.04 610.44 0.07 609.88 C4.75 610.13 7.09 610.27
							 11.76 610.6 C11.72 611.16 11.7 611.44 11.67 612 Z" class="st7"/>
			</g>
			<g id="group18222-48" transform="translate(-74.8968,5.1139) rotate(-7.2)" v:mID="18222" v:groupContext="group">
				<title>Sheet.18222</title>
				<g id="shape18223-49" v:mID="18223" v:groupContext="shape">
					<title>Sheet.18223</title>
					<path d="M0 611.71 C2.04 611.82 3.06 611.88 5.09 612 C5.54 604.75 5.98 597.5 6.42 590.25 C5.89 590.22 5.63 590.21
								 5.1 590.17 C5.08 590.59 5.07 590.8 5.04 591.21 C3.3 591.56 1.85 592.73 1.2 594.3 C0.89 594.28 0.73
								 594.27 0.42 594.26 C0.39 594.82 0.38 595.1 0.35 595.66 C0.55 595.67 0.66 595.68 0.87 595.69 C0.86
								 595.75 0.84 595.81 0.84 595.87 C0.56 601.15 0.28 606.43 0 611.71 Z" class="st3"/>
				</g>
			</g>
			<g id="shape18224-51" v:mID="18224" v:groupContext="shape" transform="translate(-64.3217,7.34728) rotate(-7.2)">
				<title>Sheet.18224</title>
				<path d="M0.56 600.63 C11.97 601.46 23.34 602.55 34.7 603.88 C34.31 607.13 34.11 608.75 33.72 612 C22.49 610.68 11.27
							 609.62 0 608.79 C0.22 605.53 0.34 603.89 0.56 600.63 Z" class="st2"/>
			</g>
			<g id="shape18225-53" v:mID="18225" v:groupContext="shape" transform="translate(-64.7556,-0.451348) rotate(-7.2)">
				<title>Sheet.18225</title>
				<path d="M0 608.65 C11.68 609.51 23.32 610.62 34.95 612 C35.01 611.57 35.03 611.35 35.08 610.92 C23.43 609.54 11.78
							 608.42 0.07 607.57 C0.04 608 0.03 608.22 0 608.65 Z" class="st5"/>
			</g>
			<g id="group18226-55" transform="translate(-64.7109,0.462501) rotate(-7.2)" v:mID="18226" v:groupContext="group">
				<title>Sheet.18226</title>
				<g id="shape18227-56" v:mID="18227" v:groupContext="shape">
					<title>Sheet.18227</title>
					<path d="M0.07 607.74 C11.48 608.57 22.85 609.66 34.21 610.99 C34.16 611.39 34.14 611.6 34.09 612 C22.74 610.67
								 11.39 609.59 0 608.76 C0.03 608.35 0.04 608.15 0.07 607.74 Z" class="st8"/>
				</g>
			</g>
			<g id="shape18228-58" v:mID="18228" v:groupContext="shape" transform="translate(-47.235,1.04325) rotate(-7.2)">
				<title>Sheet.18228</title>
				<path d="M4.07 612 C2.44 611.83 1.63 611.75 0 611.6 C0.09 610.68 0.13 610.22 0.22 609.3 C1.86 609.45 2.67 609.53
							 4.31 609.7 C4.21 610.62 4.17 611.08 4.07 612 Z" class="st5"/>
			</g>
			<g id="shape18229-60" v:mID="18229" v:groupContext="shape" transform="translate(-41.9138,0.939221) rotate(-7.2)">
				<title>Sheet.18229</title>
				<path d="M4.07 612 C2.44 611.82 1.63 611.73 0 611.56 C0.1 610.64 0.14 610.18 0.24 609.26 C1.87 609.44 2.69 609.52
							 4.32 609.7 C4.22 610.62 4.17 611.08 4.07 612 Z" class="st5"/>
			</g>
			<g id="shape18230-62" v:mID="18230" v:groupContext="shape" transform="translate(-36.591,0.878072) rotate(-7.2)">
				<title>Sheet.18230</title>
				<path d="M4.07 612 C2.44 611.81 1.63 611.71 0 611.53 C0.1 610.61 0.16 610.15 0.26 609.23 C1.89 609.42 2.71 609.51
							 4.34 609.71 C4.23 610.62 4.17 611.08 4.07 612 Z" class="st5"/>
			</g>
			<g id="group18231-64" transform="translate(-64.7109,4.26696) rotate(-7.2)" v:mID="18231" v:groupContext="group">
				<title>Sheet.18231</title>
				<g id="shape18232-65" v:mID="18232" v:groupContext="shape">
					<title>Sheet.18232</title>
					<path d="M2.13 602.99 C1.53 602.94 1.23 602.92 0.62 602.88 C0.6 603.22 0.59 603.39 0.56 603.73 C0.56 603.83 0.55
								 603.87 0.55 603.96 C0.33 607.14 0.22 608.72 0 611.9 C0.6 611.94 0.89 611.96 1.49 612 C1.75 608.39
								 1.87 606.59 2.13 602.99 Z" class="st8"/>
				</g>
			</g>
			<g id="shape18233-67" v:mID="18233" v:groupContext="shape" transform="translate(-51.6352,-4.92917) rotate(-7.2)">
				<title>Sheet.18233</title>
				<path d="M7.28 585.03 C7.38 585.04 7.43 585.04 7.52 585.05 C7.56 584.71 7.57 584.54 7.61 584.2 C7.51 584.19 7.46
							 584.18 7.36 584.17 C7.46 583.12 7.52 582.59 7.62 581.54 C7.72 581.55 7.77 581.55 7.86 581.56 C7.9 581.22
							 7.91 581.05 7.95 580.7 C6.08 580.52 5.15 580.44 3.29 580.27 C3.26 580.61 3.24 580.78 3.21 581.12 C3.31
							 581.13 3.37 581.14 3.47 581.15 C3.38 582.2 3.33 582.73 3.23 583.79 C3.13 583.78 3.08 583.77 2.97 583.76
							 C2.94 584.11 2.92 584.28 2.89 584.62 C3 584.63 3.05 584.63 3.15 584.64 C2.1 593.59 1.04 602.54 0 611.49
							 C1.08 611.59 1.62 611.64 2.7 611.74 C3.78 611.84 4.31 611.89 5.39 612 C6.03 603.01 6.66 594.02 7.28
							 585.03 Z" class="st5"/>
			</g>
			<g id="group18234-69" transform="translate(-48.0325,-5.50702) rotate(-7.2)" v:mID="18234" v:groupContext="group">
				<title>Sheet.18234</title>
				<g id="shape18235-70" v:mID="18235" v:groupContext="shape">
					<title>Sheet.18235</title>
					<path d="M0.62 605.38 C0.59 605.67 0.58 605.82 0.55 606.11 C0.33 608.43 0.22 609.58 0 611.9 C0.41 611.94 0.62
								 611.96 1.04 612 C1.24 609.15 1.34 607.73 1.53 604.88 C1.19 604.84 1.02 604.83 0.68 604.79 C0.65
								 605.03 0.64 605.15 0.62 605.38 Z" class="st7"/>
				</g>
			</g>
			<g id="shape18236-72" v:mID="18236" v:groupContext="shape" transform="translate(62.5087,-4.11541)">
				<title>XMLID_187_.17955</title>
				<path d="M4.19 609.7 C3.59 611.17 2.3 612 1.29 611.57 C0.29 611.14 0 609.59 0.6 608.12 C1.21 606.66 2.5 605.82 3.5
							 606.26 C4.48 606.69 4.8 608.24 4.19 609.7 Z" class="st9"/>
			</g>
			<g id="shape18237-74" v:mID="18237" v:groupContext="shape" transform="translate(60.5843,-3.82819)">
				<title>XMLID_186_.17956</title>
				<path d="M3.25 608.93 C3.79 610.02 3.62 611.22 2.87 611.63 C2.13 612 1.09 611.43 0.55 610.31 C0 609.21 0.17 608.01
							 0.92 607.61 C1.69 607.23 2.73 607.81 3.25 608.93 Z" class="st9"/>
			</g>
			<g id="shape18238-76" v:mID="18238" v:groupContext="shape" transform="translate(65.1511,-4.02924)">
				<title>XMLID_185_.17957</title>
				<path d="M1.9 611.63 C1.24 612 0.52 611.94 0.26 611.48 C0 611.02 0.32 610.33 0.98 609.96 C1.64 609.59 2.36 609.64
							 2.61 610.1 C2.84 610.59 2.53 611.25 1.9 611.63 Z" class="st9"/>
			</g>
			<g id="shape18239-78" v:mID="18239" v:groupContext="shape" transform="translate(63.8012,-1.44429)">
				<title>XMLID_184_.17958</title>
				<path d="M0.09 612 C0.09 612 0.06 611.89 0.06 611.71 C0.03 611.54 0.03 611.28 0 610.97 C0 610.65 0 610.28 0.03 609.9
							 C0.06 609.53 0.11 609.1 0.17 608.7 C0.26 608.29 0.34 607.89 0.43 607.52 C0.43 607.46 0.46 607.43 0.46
							 607.38 C0.46 607.32 0.49 607.29 0.49 607.23 C0.52 607.15 0.55 607.06 0.57 606.97 C0.63 606.8 0.69 606.66
							 0.75 606.51 C0.78 606.43 0.8 606.37 0.83 606.31 C0.86 606.26 0.89 606.2 0.92 606.14 C0.98 606.03 1.01
							 605.91 1.03 605.85 C1.09 605.68 1.15 605.6 1.15 605.6 C1.26 605.37 1.38 605.19 1.41 605.19 L1.44 605.19
							 C1.49 605.22 1.44 605.42 1.32 605.65 C1.32 605.65 1.29 605.74 1.21 605.91 C1.18 606 1.15 606.08 1.09
							 606.2 C1.06 606.26 1.03 606.31 1.03 606.37 C1.01 606.43 0.98 606.51 0.98 606.57 C0.92 606.72 0.89 606.86
							 0.83 607.03 C0.8 607.12 0.78 607.2 0.75 607.29 C0.75 607.35 0.72 607.38 0.72 607.43 C0.72 607.49 0.69
							 607.52 0.69 607.58 C0.6 607.95 0.52 608.35 0.46 608.73 C0.4 609.13 0.34 609.53 0.32 609.9 C0.29 610.28
							 0.29 610.62 0.32 610.94 C0.32 611.25 0.34 611.48 0.37 611.66 C0.4 611.83 0.4 611.91 0.4 611.91 L0.09
							 612 Z" class="st10"/>
				<path d="M0.09 612 C0.09 612 0.06 611.89 0.06 611.71 C0.03 611.54 0.03 611.28 0 610.97 C0 610.65 0 610.28 0.03 609.9
							 C0.06 609.53 0.11 609.1 0.17 608.7 C0.26 608.29 0.34 607.89 0.43 607.52 C0.43 607.46 0.46 607.43 0.46
							 607.38 C0.46 607.32 0.49 607.29 0.49 607.23 C0.52 607.15 0.55 607.06 0.57 606.97 C0.63 606.8 0.69 606.66
							 0.75 606.51 C0.78 606.43 0.8 606.37 0.83 606.31 C0.86 606.26 0.89 606.2 0.92 606.14 C0.98 606.03 1.01
							 605.91 1.03 605.85 C1.09 605.68 1.15 605.6 1.15 605.6 C1.26 605.37 1.38 605.19 1.41 605.19 L1.44 605.19
							 C1.49 605.22 1.44 605.42 1.32 605.65 C1.32 605.65 1.29 605.74 1.21 605.91 C1.18 606 1.15 606.08 1.09
							 606.2 C1.06 606.26 1.03 606.31 1.03 606.37 C1.01 606.43 0.98 606.51 0.98 606.57 C0.92 606.72 0.89 606.86
							 0.83 607.03 C0.8 607.12 0.78 607.2 0.75 607.29 C0.75 607.35 0.72 607.38 0.72 607.43 C0.72 607.49 0.69
							 607.52 0.69 607.58 C0.6 607.95 0.52 608.35 0.46 608.73 C0.4 609.13 0.34 609.53 0.32 609.9 C0.29 610.28
							 0.29 610.62 0.32 610.94 C0.32 611.25 0.34 611.48 0.37 611.66 C0.4 611.83 0.4 611.91 0.4 611.91"
						class="st11"/>
			</g>
			<g id="shape18240-81" v:mID="18240" v:groupContext="shape" transform="translate(63.8873,-3.7133)">
				<title>XMLID_183_.17959</title>
				<path d="M0.03 611.91 C0 611.89 0.06 611.8 0.14 611.71 C0.14 611.71 0.17 611.68 0.26 611.63 C0.32 611.57 0.43 611.51
							 0.55 611.43 C0.6 611.4 0.66 611.34 0.75 611.31 C0.8 611.28 0.89 611.22 0.98 611.2 C1.01 611.2 1.01 611.17
							 1.03 611.17 C1.06 611.17 1.06 611.14 1.09 611.14 C1.12 611.11 1.18 611.08 1.21 611.08 C1.24 611.05 1.29
							 611.02 1.32 611.02 C1.35 610.99 1.41 610.99 1.44 610.97 C1.78 610.79 2.13 610.65 2.38 610.54 C2.41 610.51
							 2.44 610.51 2.47 610.51 C2.5 610.51 2.53 610.48 2.56 610.48 C2.61 610.45 2.64 610.42 2.7 610.42 C2.76
							 610.39 2.81 610.36 2.81 610.36 C2.84 610.36 2.87 610.33 2.9 610.33 C2.93 610.33 2.96 610.31 2.96 610.31
							 C2.99 610.31 3.02 610.31 3.04 610.31 L3.04 610.33 C3.04 610.33 3.04 610.36 3.02 610.39 C3.02 610.42
							 2.99 610.42 2.96 610.45 C2.93 610.48 2.9 610.48 2.9 610.51 C2.9 610.51 2.87 610.54 2.79 610.56 C2.76
							 610.59 2.7 610.59 2.64 610.62 C2.61 610.62 2.58 610.65 2.56 610.65 C2.53 610.65 2.5 610.68 2.47 610.68
							 C2.21 610.79 1.87 610.94 1.55 611.11 C1.52 611.14 1.46 611.14 1.44 611.17 C1.41 611.2 1.35 611.22 1.32
							 611.22 C1.29 611.25 1.24 611.28 1.21 611.28 C1.18 611.28 1.18 611.31 1.15 611.31 C1.12 611.31 1.12 611.34
							 1.09 611.34 C1.01 611.4 0.95 611.43 0.89 611.48 C0.83 611.54 0.75 611.57 0.69 611.6 C0.57 611.68 0.49
							 611.74 0.4 611.8 C0.34 611.86 0.29 611.89 0.29 611.89 C0.2 611.94 0.09 612 0.09 611.94 L0.03 611.91
							 Z" class="st12"/>
			</g>
			<g id="shape18241-83" v:mID="18241" v:groupContext="shape" transform="translate(65.783,-4.80473)">
				<title>XMLID_182_.17960</title>
				<path d="M0.03 611.89 C0.03 611.86 0.06 611.83 0.09 611.86 C0.09 611.86 0.09 611.86 0.11 611.86 C0.11 611.86 0.14
							 611.86 0.14 611.86 C0.17 611.86 0.17 611.86 0.2 611.86 C0.29 611.89 0.37 611.89 0.49 611.91 C0.6 611.94
							 0.69 611.94 0.78 611.94 C0.86 611.94 0.89 611.94 0.89 611.94 C0.92 611.94 0.95 611.97 0.95 611.97 C0.95
							 612 0.92 612 0.89 612 C0.89 612 0.83 612 0.75 612 C0.66 612 0.57 612 0.46 611.97 C0.34 611.97 0.26 611.94
							 0.17 611.94 C0.14 611.94 0.14 611.94 0.11 611.94 C0.09 611.94 0.09 611.94 0.09 611.94 C0.06 611.94 0.06
							 611.94 0.06 611.94 C0.03 611.94 0 611.91 0 611.89 L0.03 611.89 Z" class="st12"/>
			</g>
			<g id="shape18242-85" v:mID="18242" v:groupContext="shape" transform="translate(64.2033,-6.61419)">
				<title>XMLID_181_.17961</title>
				<path d="M0.37 611.97 C0.34 612 0.29 611.97 0.29 611.91 C0.29 611.91 0.26 611.83 0.23 611.71 C0.2 611.6 0.14 611.43
							 0.11 611.28 C0.09 611.11 0.06 610.97 0.03 610.85 C0.03 610.79 0.03 610.74 0 610.71 C0 610.68 0 610.65
							 0 610.65 C0 610.59 0 610.56 0.03 610.56 L0.06 610.56 C0.09 610.56 0.11 610.59 0.11 610.65 C0.11 610.65
							 0.11 610.68 0.11 610.71 C0.11 610.74 0.11 610.79 0.14 610.85 C0.17 610.97 0.2 611.14 0.23 611.28 C0.26
							 611.43 0.32 611.6 0.37 611.68 C0.43 611.8 0.46 611.86 0.46 611.86 C0.49 611.91 0.46 611.94 0.43 611.97
							 L0.37 611.97 Z" class="st12"/>
			</g>
			<g id="shape18243-87" v:mID="18243" v:groupContext="shape" transform="translate(62.2215,-3.42609)">
				<title>XMLID_180_.17962</title>
				<path d="M1.78 611.89 C1.78 611.86 1.78 611.83 1.75 611.8 C1.72 611.77 1.69 611.74 1.64 611.71 C1.64 611.71 1.64
							 611.71 1.61 611.68 C1.58 611.68 1.55 611.66 1.52 611.63 C1.46 611.57 1.38 611.51 1.26 611.43 C1.06 611.25
							 0.83 610.97 0.66 610.65 C0.57 610.48 0.49 610.33 0.43 610.16 C0.37 609.99 0.32 609.85 0.29 609.73 C0.26
							 609.59 0.23 609.47 0.2 609.42 C0.17 609.33 0.17 609.3 0.17 609.3 C0.14 609.19 0.11 609.1 0.09 609.1
							 L0.06 609.1 C0.03 609.1 0 609.21 0.03 609.33 C0.03 609.33 0.03 609.39 0.06 609.44 C0.09 609.53 0.09
							 609.64 0.14 609.79 C0.17 609.93 0.23 610.08 0.29 610.25 C0.34 610.42 0.43 610.59 0.52 610.76 C0.6 610.94
							 0.69 611.11 0.8 611.25 C0.92 611.4 1.03 611.54 1.12 611.63 C1.24 611.74 1.32 611.8 1.38 611.86 C1.41
							 611.89 1.44 611.91 1.46 611.91 C1.49 611.91 1.49 611.94 1.49 611.94 C1.55 611.97 1.61 612 1.64 612 C1.67
							 612 1.72 612 1.72 611.97 L1.78 611.89 Z" class="st12"/>
			</g>
			<g id="shape18244-89" v:mID="18244" v:groupContext="shape" transform="translate(62.7385,-4.77601)">
				<title>XMLID_179_.17963</title>
				<path d="M0.06 612 C0.03 612 0 611.94 0.03 611.89 C0.03 611.89 0.03 611.86 0.06 611.83 C0.06 611.8 0.09 611.74 0.09
							 611.68 C0.11 611.63 0.11 611.54 0.14 611.48 C0.17 611.4 0.2 611.34 0.23 611.25 C0.26 611.17 0.29 611.08
							 0.32 611.02 C0.34 610.94 0.37 610.88 0.4 610.82 C0.43 610.71 0.46 610.62 0.46 610.62 C0.49 610.56 0.52
							 610.54 0.55 610.54 L0.57 610.54 C0.6 610.54 0.6 610.59 0.57 610.65 C0.57 610.65 0.55 610.74 0.52 610.85
							 C0.49 610.91 0.49 610.99 0.46 611.05 C0.43 611.14 0.43 611.2 0.4 611.28 C0.37 611.37 0.34 611.45 0.34
							 611.51 C0.32 611.6 0.32 611.66 0.29 611.71 C0.26 611.77 0.26 611.83 0.26 611.86 C0.26 611.89 0.26 611.91
							 0.26 611.91 C0.26 611.97 0.2 612 0.17 612 L0.06 612 Z" class="st12"/>
			</g>
			<g id="shape18245-91" v:mID="18245" v:groupContext="shape" transform="translate(61.5321,-5.4366)">
				<title>XMLID_178_.17964</title>
				<path d="M1.01 611.97 C0.98 612 0.95 612 0.89 611.97 C0.89 611.97 0.83 611.94 0.75 611.86 C0.66 611.8 0.55 611.68
							 0.43 611.6 C0.32 611.48 0.23 611.4 0.14 611.31 C0.11 611.25 0.09 611.22 0.06 611.2 C0.03 611.17 0.03
							 611.17 0.03 611.17 C0 611.14 0 611.08 0 611.08 C0.03 611.05 0.06 611.08 0.09 611.11 C0.09 611.11 0.09
							 611.11 0.11 611.14 C0.14 611.17 0.17 611.2 0.2 611.22 C0.29 611.31 0.37 611.4 0.49 611.51 C0.6 611.6
							 0.72 611.68 0.8 611.74 C0.89 611.8 0.95 611.83 0.95 611.83 C0.98 611.86 1.01 611.89 0.98 611.91 L1.01
							 611.97 Z" class="st12"/>
			</g>
			<g id="shape18246-93" v:mID="18246" v:groupContext="shape" transform="translate(69.9569,-3.94114)">
				<title>XMLID_187_.17974</title>
				<path d="M4.19 609.7 C3.59 611.17 2.3 612 1.29 611.57 C0.29 611.14 0 609.59 0.6 608.12 C1.21 606.66 2.5 605.82 3.5
							 606.26 C4.48 606.69 4.8 608.24 4.19 609.7 Z" class="st9"/>
			</g>
			<g id="shape18247-95" v:mID="18247" v:groupContext="shape" transform="translate(68.0325,-3.65392)">
				<title>XMLID_186_.17975</title>
				<path d="M3.25 608.93 C3.79 610.02 3.62 611.22 2.87 611.63 C2.13 612 1.09 611.43 0.55 610.31 C0 609.21 0.17 608.01
							 0.92 607.61 C1.69 607.23 2.73 607.81 3.25 608.93 Z" class="st9"/>
			</g>
			<g id="shape18248-97" v:mID="18248" v:groupContext="shape" transform="translate(72.5993,-3.85497)">
				<title>XMLID_185_.17976</title>
				<path d="M1.9 611.63 C1.24 612 0.52 611.94 0.26 611.48 C0 611.02 0.32 610.33 0.98 609.96 C1.64 609.59 2.36 609.64
							 2.61 610.1 C2.84 610.59 2.53 611.25 1.9 611.63 Z" class="st9"/>
			</g>
			<g id="shape18249-99" v:mID="18249" v:groupContext="shape" transform="translate(71.2494,-1.27002)">
				<title>XMLID_184_.17977</title>
				<path d="M0.09 612 C0.09 612 0.06 611.89 0.06 611.71 C0.03 611.54 0.03 611.28 0 610.97 C0 610.65 0 610.28 0.03 609.9
							 C0.06 609.53 0.11 609.1 0.17 608.7 C0.26 608.29 0.34 607.89 0.43 607.52 C0.43 607.46 0.46 607.43 0.46
							 607.38 C0.46 607.32 0.49 607.29 0.49 607.23 C0.52 607.15 0.55 607.06 0.57 606.97 C0.63 606.8 0.69 606.66
							 0.75 606.51 C0.78 606.43 0.8 606.37 0.83 606.31 C0.86 606.26 0.89 606.2 0.92 606.14 C0.98 606.03 1.01
							 605.91 1.03 605.85 C1.09 605.68 1.15 605.6 1.15 605.6 C1.26 605.37 1.38 605.19 1.41 605.19 L1.44 605.19
							 C1.49 605.22 1.44 605.42 1.32 605.65 C1.32 605.65 1.29 605.74 1.21 605.91 C1.18 606 1.15 606.08 1.09
							 606.2 C1.06 606.26 1.03 606.31 1.03 606.37 C1.01 606.43 0.98 606.51 0.98 606.57 C0.92 606.72 0.89 606.86
							 0.83 607.03 C0.8 607.12 0.78 607.2 0.75 607.29 C0.75 607.35 0.72 607.38 0.72 607.43 C0.72 607.49 0.69
							 607.52 0.69 607.58 C0.6 607.95 0.52 608.35 0.46 608.73 C0.4 609.13 0.34 609.53 0.32 609.9 C0.29 610.28
							 0.29 610.62 0.32 610.94 C0.32 611.25 0.34 611.48 0.37 611.66 C0.4 611.83 0.4 611.91 0.4 611.91 L0.09
							 612 Z" class="st10"/>
				<path d="M0.09 612 C0.09 612 0.06 611.89 0.06 611.71 C0.03 611.54 0.03 611.28 0 610.97 C0 610.65 0 610.28 0.03 609.9
							 C0.06 609.53 0.11 609.1 0.17 608.7 C0.26 608.29 0.34 607.89 0.43 607.52 C0.43 607.46 0.46 607.43 0.46
							 607.38 C0.46 607.32 0.49 607.29 0.49 607.23 C0.52 607.15 0.55 607.06 0.57 606.97 C0.63 606.8 0.69 606.66
							 0.75 606.51 C0.78 606.43 0.8 606.37 0.83 606.31 C0.86 606.26 0.89 606.2 0.92 606.14 C0.98 606.03 1.01
							 605.91 1.03 605.85 C1.09 605.68 1.15 605.6 1.15 605.6 C1.26 605.37 1.38 605.19 1.41 605.19 L1.44 605.19
							 C1.49 605.22 1.44 605.42 1.32 605.65 C1.32 605.65 1.29 605.74 1.21 605.91 C1.18 606 1.15 606.08 1.09
							 606.2 C1.06 606.26 1.03 606.31 1.03 606.37 C1.01 606.43 0.98 606.51 0.98 606.57 C0.92 606.72 0.89 606.86
							 0.83 607.03 C0.8 607.12 0.78 607.2 0.75 607.29 C0.75 607.35 0.72 607.38 0.72 607.43 C0.72 607.49 0.69
							 607.52 0.69 607.58 C0.6 607.95 0.52 608.35 0.46 608.73 C0.4 609.13 0.34 609.53 0.32 609.9 C0.29 610.28
							 0.29 610.62 0.32 610.94 C0.32 611.25 0.34 611.48 0.37 611.66 C0.4 611.83 0.4 611.91 0.4 611.91"
						class="st11"/>
			</g>
			<g id="shape18250-102" v:mID="18250" v:groupContext="shape" transform="translate(71.3355,-3.53903)">
				<title>XMLID_183_.17978</title>
				<path d="M0.03 611.91 C0 611.89 0.06 611.8 0.14 611.71 C0.14 611.71 0.17 611.68 0.26 611.63 C0.32 611.57 0.43 611.51
							 0.55 611.43 C0.6 611.4 0.66 611.34 0.75 611.31 C0.8 611.28 0.89 611.22 0.98 611.2 C1.01 611.2 1.01 611.17
							 1.03 611.17 C1.06 611.17 1.06 611.14 1.09 611.14 C1.12 611.11 1.18 611.08 1.21 611.08 C1.24 611.05 1.29
							 611.02 1.32 611.02 C1.35 610.99 1.41 610.99 1.44 610.97 C1.78 610.79 2.13 610.65 2.38 610.54 C2.41 610.51
							 2.44 610.51 2.47 610.51 C2.5 610.51 2.53 610.48 2.56 610.48 C2.61 610.45 2.64 610.42 2.7 610.42 C2.76
							 610.39 2.81 610.36 2.81 610.36 C2.84 610.36 2.87 610.33 2.9 610.33 C2.93 610.33 2.96 610.31 2.96 610.31
							 C2.99 610.31 3.02 610.31 3.04 610.31 L3.04 610.33 C3.04 610.33 3.04 610.36 3.02 610.39 C3.02 610.42
							 2.99 610.42 2.96 610.45 C2.93 610.48 2.9 610.48 2.9 610.51 C2.9 610.51 2.87 610.54 2.79 610.56 C2.76
							 610.59 2.7 610.59 2.64 610.62 C2.61 610.62 2.58 610.65 2.56 610.65 C2.53 610.65 2.5 610.68 2.47 610.68
							 C2.21 610.79 1.87 610.94 1.55 611.11 C1.52 611.14 1.46 611.14 1.44 611.17 C1.41 611.2 1.35 611.22 1.32
							 611.22 C1.29 611.25 1.24 611.28 1.21 611.28 C1.18 611.28 1.18 611.31 1.15 611.31 C1.12 611.31 1.12 611.34
							 1.09 611.34 C1.01 611.4 0.95 611.43 0.89 611.48 C0.83 611.54 0.75 611.57 0.69 611.6 C0.57 611.68 0.49
							 611.74 0.4 611.8 C0.34 611.86 0.29 611.89 0.29 611.89 C0.2 611.94 0.09 612 0.09 611.94 L0.03 611.91
							 Z" class="st12"/>
			</g>
			<g id="shape18251-104" v:mID="18251" v:groupContext="shape" transform="translate(73.2312,-4.63046)">
				<title>XMLID_182_.17979</title>
				<path d="M0.03 611.89 C0.03 611.86 0.06 611.83 0.09 611.86 C0.09 611.86 0.09 611.86 0.11 611.86 C0.11 611.86 0.14
							 611.86 0.14 611.86 C0.17 611.86 0.17 611.86 0.2 611.86 C0.29 611.89 0.37 611.89 0.49 611.91 C0.6 611.94
							 0.69 611.94 0.78 611.94 C0.86 611.94 0.89 611.94 0.89 611.94 C0.92 611.94 0.95 611.97 0.95 611.97 C0.95
							 612 0.92 612 0.89 612 C0.89 612 0.83 612 0.75 612 C0.66 612 0.57 612 0.46 611.97 C0.34 611.97 0.26 611.94
							 0.17 611.94 C0.14 611.94 0.14 611.94 0.11 611.94 C0.09 611.94 0.09 611.94 0.09 611.94 C0.06 611.94 0.06
							 611.94 0.06 611.94 C0.03 611.94 0 611.91 0 611.89 L0.03 611.89 Z" class="st12"/>
			</g>
			<g id="shape18252-106" v:mID="18252" v:groupContext="shape" transform="translate(71.6515,-6.43992)">
				<title>XMLID_181_.17980</title>
				<path d="M0.37 611.97 C0.34 612 0.29 611.97 0.29 611.91 C0.29 611.91 0.26 611.83 0.23 611.71 C0.2 611.6 0.14 611.43
							 0.11 611.28 C0.09 611.11 0.06 610.97 0.03 610.85 C0.03 610.79 0.03 610.74 0 610.71 C0 610.68 0 610.65
							 0 610.65 C0 610.59 0 610.56 0.03 610.56 L0.06 610.56 C0.09 610.56 0.11 610.59 0.11 610.65 C0.11 610.65
							 0.11 610.68 0.11 610.71 C0.11 610.74 0.11 610.79 0.14 610.85 C0.17 610.97 0.2 611.14 0.23 611.28 C0.26
							 611.43 0.32 611.6 0.37 611.68 C0.43 611.8 0.46 611.86 0.46 611.86 C0.49 611.91 0.46 611.94 0.43 611.97
							 L0.37 611.97 Z" class="st12"/>
			</g>
			<g id="shape18253-108" v:mID="18253" v:groupContext="shape" transform="translate(69.6697,-3.25182)">
				<title>XMLID_180_.17981</title>
				<path d="M1.78 611.89 C1.78 611.86 1.78 611.83 1.75 611.8 C1.72 611.77 1.69 611.74 1.64 611.71 C1.64 611.71 1.64
							 611.71 1.61 611.68 C1.58 611.68 1.55 611.66 1.52 611.63 C1.46 611.57 1.38 611.51 1.26 611.43 C1.06 611.25
							 0.83 610.97 0.66 610.65 C0.57 610.48 0.49 610.33 0.43 610.16 C0.37 609.99 0.32 609.85 0.29 609.73 C0.26
							 609.59 0.23 609.47 0.2 609.42 C0.17 609.33 0.17 609.3 0.17 609.3 C0.14 609.19 0.11 609.1 0.09 609.1
							 L0.06 609.1 C0.03 609.1 0 609.21 0.03 609.33 C0.03 609.33 0.03 609.39 0.06 609.44 C0.09 609.53 0.09
							 609.64 0.14 609.79 C0.17 609.93 0.23 610.08 0.29 610.25 C0.34 610.42 0.43 610.59 0.52 610.76 C0.6 610.94
							 0.69 611.11 0.8 611.25 C0.92 611.4 1.03 611.54 1.12 611.63 C1.24 611.74 1.32 611.8 1.38 611.86 C1.41
							 611.89 1.44 611.91 1.46 611.91 C1.49 611.91 1.49 611.94 1.49 611.94 C1.55 611.97 1.61 612 1.64 612 C1.67
							 612 1.72 612 1.72 611.97 L1.78 611.89 Z" class="st12"/>
			</g>
			<g id="shape18254-110" v:mID="18254" v:groupContext="shape" transform="translate(70.1867,-4.60174)">
				<title>XMLID_179_.17982</title>
				<path d="M0.06 612 C0.03 612 0 611.94 0.03 611.89 C0.03 611.89 0.03 611.86 0.06 611.83 C0.06 611.8 0.09 611.74 0.09
							 611.68 C0.11 611.63 0.11 611.54 0.14 611.48 C0.17 611.4 0.2 611.34 0.23 611.25 C0.26 611.17 0.29 611.08
							 0.32 611.02 C0.34 610.94 0.37 610.88 0.4 610.82 C0.43 610.71 0.46 610.62 0.46 610.62 C0.49 610.56 0.52
							 610.54 0.55 610.54 L0.57 610.54 C0.6 610.54 0.6 610.59 0.57 610.65 C0.57 610.65 0.55 610.74 0.52 610.85
							 C0.49 610.91 0.49 610.99 0.46 611.05 C0.43 611.14 0.43 611.2 0.4 611.28 C0.37 611.37 0.34 611.45 0.34
							 611.51 C0.32 611.6 0.32 611.66 0.29 611.71 C0.26 611.77 0.26 611.83 0.26 611.86 C0.26 611.89 0.26 611.91
							 0.26 611.91 C0.26 611.97 0.2 612 0.17 612 L0.06 612 Z" class="st12"/>
			</g>
			<g id="shape18255-112" v:mID="18255" v:groupContext="shape" transform="translate(68.9804,-5.26233)">
				<title>XMLID_178_.17983</title>
				<path d="M1.01 611.97 C0.98 612 0.95 612 0.89 611.97 C0.89 611.97 0.83 611.94 0.75 611.86 C0.66 611.8 0.55 611.68
							 0.43 611.6 C0.32 611.48 0.23 611.4 0.14 611.31 C0.11 611.25 0.09 611.22 0.06 611.2 C0.03 611.17 0.03
							 611.17 0.03 611.17 C0 611.14 0 611.08 0 611.08 C0.03 611.05 0.06 611.08 0.09 611.11 C0.09 611.11 0.09
							 611.11 0.11 611.14 C0.14 611.17 0.17 611.2 0.2 611.22 C0.29 611.31 0.37 611.4 0.49 611.51 C0.6 611.6
							 0.72 611.68 0.8 611.74 C0.89 611.8 0.95 611.83 0.95 611.83 C0.98 611.86 1.01 611.89 0.98 611.91 L1.01
							 611.97 Z" class="st12"/>
			</g>
		</g>
	</g>
</svg>
