<?xml version="1.0" encoding="UTF-8" standalone="no"?>
<!DOCTYPE svg PUBLIC "-//W3C//DTD SVG 1.1//EN" "http://www.w3.org/Graphics/SVG/1.1/DTD/svg11.dtd">
<!-- Generated by Microsoft Visio, SVG Export High-Voltage-Pole.svg Page-1 -->
<svg xmlns="http://www.w3.org/2000/svg" xmlns:xlink="http://www.w3.org/1999/xlink" xmlns:ev="http://www.w3.org/2001/xml-events"
		xmlns:v="http://schemas.microsoft.com/visio/2003/SVGExtensions/" width="11in" height="8.5in" viewBox="0 0 792 612"
		xml:space="preserve" color-interpolation-filters="sRGB" class="st5">
	<v:documentProperties v:langID="1033" v:viewMarkup="false">
		<v:userDefs>
			<v:ud v:nameU="msvSubprocessMaster" v:prompt="" v:val="VT4(Rectangle)"/>
			<v:ud v:nameU="msvNoAutoConnect" v:val="VT0(1):26"/>
		</v:userDefs>
	</v:documentProperties>

	<style type="text/css">
	<![CDATA[
		.st1 {fill:none;stroke:#006280;stroke-linecap:round;stroke-linejoin:round;stroke-width:0.75}
		.st2 {fill:none}
		.st3 {stroke:#006280;stroke-linecap:round;stroke-linejoin:round;stroke-width:0.75}
		.st4 {fill:#006280;stroke:none;stroke-width:0.75}
		.st5 {fill:none;fill-rule:evenodd;font-size:12px;overflow:visible;stroke-linecap:square;stroke-miterlimit:3}
	]]>
	</style>

	<g v:mID="0" v:index="1" v:groupContext="foregroundPage">
		<v:userDefs>
			<v:ud v:nameU="msvThemeOrder" v:val="VT0(0):26"/>
		</v:userDefs>
		<title>Page-1</title>
		<v:pageProperties v:drawingScale="1" v:pageScale="1" v:drawingUnits="0" v:shadowOffsetX="9" v:shadowOffsetY="-9"/>
		<g id="group18341-1" transform="translate(18,-534.974)" v:mID="18341" v:groupContext="group">
			<title>High Voltage Pole</title>
			<g id="shape18342-2" v:mID="18342" v:groupContext="shape" transform="translate(4.67626E-13,-21.3366)">
				<title>Sheet.18342</title>
				<path d="M0 612 C11.1 611.44 22.18 611.12 33.29 611.04 C27.65 608.48 21.96 606.01 16.24 603.62 C10.79 606.34 5.37
							 609.13 0 612 Z" class="st1"/>
			</g>
			<g id="shape18343-4" v:mID="18343" v:groupContext="shape" transform="translate(2.88687,-33.4257)">
				<title>Sheet.18343</title>
				<path d="M0 612 C8.94 611.55 17.88 611.31 26.83 611.23 C22.25 609.25 17.66 607.31 13.06 605.4 C8.69 607.57 4.34 609.77
							 0 612 Z" class="st1"/>
			</g>
			<g id="shape18344-6" v:mID="18344" v:groupContext="shape" transform="translate(5.44895,-44.1046)">
				<title>Sheet.18344</title>
				<path d="M0 612 C7.03 611.69 14.06 611.48 21.1 611.39 C16.78 609.57 14.61 608.67 10.23 606.91 C6.11 608.92 4.06 609.93
							 0 612 Z" class="st1"/>
			</g>
			<g id="shape18345-8" v:mID="18345" v:groupContext="shape" transform="translate(10.7442,-32.3868)">
				<title>Sheet.18345</title>
				<path d="M0 612 C4.16 611.84 6.23 611.78 10.39 611.69 L0 612 Z" class="st2"/>
				<path d="M0 612 C4.16 611.84 6.23 611.78 10.39 611.69" class="st3"/>
			</g>
			<g id="shape18346-11" v:mID="18346" v:groupContext="shape" transform="translate(3.84961,0)">
				<title>Sheet.18346</title>
				<path d="M0 612 C1.66 604.68 3.38 597.38 5.18 590.09 C7.19 577.98 9.32 565.89 11.57 553.81 C11.12 565.88 10.71 577.95
							 10.34 590.03 C9.44 597.33 8.59 604.63 7.77 611.94 L0 612 Z" class="st2"/>
				<path d="M0 612 C1.66 604.68 3.38 597.38 5.18 590.09 C7.19 577.98 9.32 565.89 11.57 553.81 C11.12 565.88 10.71 577.95
							 10.34 590.03 C9.44 597.33 8.59 604.63 7.77 611.94" class="st3"/>
			</g>
			<g id="shape18347-14" v:mID="18347" v:groupContext="shape" transform="translate(3.84961,-0.000447994)">
				<title>Sheet.18347</title>
				<path d="M2.3 602.01 C4.91 602.33 6.21 602.49 8.81 602.84 C5.84 605.86 2.9 608.91 0 612 L2.3 602.01 Z" class="st2"/>
				<path d="M2.3 602.01 C4.91 602.33 6.21 602.49 8.81 602.84 C5.84 605.86 2.9 608.91 0 612" class="st3"/>
			</g>
			<g id="shape18348-17" v:mID="18348" v:groupContext="shape" transform="translate(6.14872,-9.99161)">
				<title>Sheet.18348</title>
				<path d="M2.22 602.68 C4.41 602.76 5.51 602.81 7.69 602.91 C4.57 606.53 3.03 608.35 0 612 L2.22 602.68 Z"
						class="st2"/>
				<path d="M2.22 602.68 C4.41 602.76 5.51 602.81 7.69 602.91 C4.57 606.53 3.03 608.35 0 612" class="st3"/>
			</g>
			<g id="shape18349-20" v:mID="18349" v:groupContext="shape" transform="translate(8.98004,-21.7559)">
				<title>Sheet.18349</title>
				<path d="M5.42 604.97 C3.23 607.77 2.14 609.18 0 612 L5.42 604.97 Z" class="st2"/>
				<path d="M5.42 604.97 C3.23 607.77 2.14 609.18 0 612" class="st3"/>
			</g>
			<g id="shape18350-23" v:mID="18350" v:groupContext="shape" transform="translate(9.78464,-21.9755)">
				<title>Sheet.18350</title>
				<path d="M0 607.52 C1.77 609.3 2.65 610.2 4.4 612 L0 607.52 Z" class="st2"/>
				<path d="M0 607.52 C1.77 609.3 2.65 610.2 4.4 612" class="st3"/>
			</g>
			<g id="shape18351-26" v:mID="18351" v:groupContext="shape" transform="translate(9.78464,-26.4581)">
				<title>Sheet.18351</title>
				<path d="M0 612 C1.85 609.57 2.78 608.36 4.67 605.95 L0 612 Z" class="st2"/>
				<path d="M0 612 C1.85 609.57 2.78 608.36 4.67 605.95" class="st3"/>
			</g>
			<g id="shape18352-29" v:mID="18352" v:groupContext="shape" transform="translate(15.4168,-0.367803)">
				<title>Sheet.18352</title>
				<path d="M14.49 611.6 C12.42 604.44 10.28 597.3 8.08 590.18 C5.5 578.15 2.8 566.16 0 554.18 C0.99 566.21 1.94 578.25
							 2.87 590.29 C4.2 597.52 5.49 604.76 6.73 612 L14.49 611.6 Z" class="st2"/>
				<path d="M14.49 611.6 C12.42 604.44 10.28 597.3 8.08 590.18 C5.5 578.15 2.8 566.16 0 554.18 C0.99 566.21 1.94 578.25
							 2.87 590.29 C4.2 597.52 5.49 604.76 6.73 612" class="st3"/>
			</g>
			<g id="shape18353-32" v:mID="18353" v:groupContext="shape" transform="translate(20.5786,-0.76383)">
				<title>Sheet.18353</title>
				<path d="M6.45 602.16 C3.86 602.63 2.58 602.87 0 603.37 C3.14 606.21 6.25 609.09 9.33 612 L6.45 602.16 Z"
						class="st2"/>
				<path d="M6.45 602.16 C3.86 602.63 2.58 602.87 0 603.37 C3.14 606.21 6.25 609.09 9.33 612" class="st3"/>
			</g>
			<g id="shape18354-35" v:mID="18354" v:groupContext="shape" transform="translate(18.8153,-10.6045)">
				<title>Sheet.18354</title>
				<path d="M5.45 602.82 C3.27 603.03 2.18 603.14 0 603.38 C3.33 606.8 4.97 608.53 8.21 612 L5.45 602.82 Z"
						class="st2"/>
				<path d="M5.45 602.82 C3.27 603.03 2.18 603.14 0 603.38 C3.33 606.8 4.97 608.53 8.21 612" class="st3"/>
			</g>
			<g id="shape18355-38" v:mID="18355" v:groupContext="shape" transform="translate(17.7477,-22.1887)">
				<title>Sheet.18355</title>
				<path d="M0 605.11 C2.32 607.85 3.47 609.23 5.75 612 L0 605.11 Z" class="st2"/>
				<path d="M0 605.11 C2.32 607.85 3.47 609.23 5.75 612" class="st3"/>
			</g>
			<g id="shape18356-41" v:mID="18356" v:groupContext="shape" transform="translate(18.2894,-22.0803)">
				<title>Sheet.18356</title>
				<path d="M4.15 606.99 C2.47 608.99 1.65 609.99 0 612 L4.15 606.99 Z" class="st2"/>
				<path d="M4.15 606.99 C2.47 608.99 1.65 609.99 0 612" class="st3"/>
			</g>
			<g id="shape18357-44" v:mID="18357" v:groupContext="shape" transform="translate(17.4135,-27.0916)">
				<title>Sheet.18357</title>
				<path d="M5.02 612 C3.03 609.79 2.03 608.69 0 606.49 L5.02 612 Z" class="st2"/>
				<path d="M5.02 612 C3.03 609.79 2.03 608.69 0 606.49" class="st3"/>
			</g>
			<g id="shape18358-47" v:mID="18358" v:groupContext="shape" transform="translate(12.6549,-9.16059)">
				<title>Sheet.18358</title>
				<path d="M0 612 C3.17 611.89 4.75 611.84 7.92 611.77 L0 612 Z" class="st2"/>
				<path d="M0 612 C3.17 611.89 4.75 611.84 7.92 611.77" class="st3"/>
			</g>
			<g id="shape18359-50" v:mID="18359" v:groupContext="shape" transform="translate(13.8417,-19.0837)">
				<title>Sheet.18359</title>
				<path d="M0 612 C1.99 611.93 2.98 611.91 4.97 611.85 L0 612 Z" class="st2"/>
				<path d="M0 612 C1.99 611.93 2.98 611.91 4.97 611.85" class="st3"/>
			</g>
			<g id="shape18360-53" v:mID="18360" v:groupContext="shape" transform="translate(12.6581,-9.16059)">
				<title>Sheet.18360</title>
				<path d="M0 612 C2.42 607.96 3.65 605.95 6.16 601.93 L0 612 Z" class="st2"/>
				<path d="M0 612 C2.42 607.96 3.65 605.95 6.16 601.93" class="st3"/>
			</g>
			<g id="shape18361-56" v:mID="18361" v:groupContext="shape" transform="translate(13.8417,-9.39309)">
				<title>Sheet.18361</title>
				<path d="M6.74 612 C4.08 608.11 2.73 606.17 0 602.31 L6.74 612 Z" class="st2"/>
				<path d="M6.74 612 C4.08 608.11 2.73 606.17 0 602.31" class="st3"/>
			</g>
			<g id="shape18362-59" v:mID="18362" v:groupContext="shape" transform="translate(12.6581,-0.368699)">
				<title>Sheet.18362</title>
				<path d="M0 603.21 C3.2 606.1 6.37 609.03 9.49 612 L0 603.21 Z" class="st2"/>
				<path d="M0 603.21 C3.2 606.1 6.37 609.03 9.49 612" class="st3"/>
			</g>
			<g id="shape18363-62" v:mID="18363" v:groupContext="shape" transform="translate(11.6174,-0.0595832)">
				<title>Sheet.18363</title>
				<path d="M0 612 C2.95 608.85 5.94 605.74 8.96 602.67 L0 612 Z" class="st2"/>
				<path d="M0 612 C2.95 608.85 5.94 605.74 8.96 602.67" class="st3"/>
			</g>
			<g id="shape18364-65" v:mID="18364" v:groupContext="shape" transform="translate(12.6415,-43.0083)">
				<title>Sheet.18364</title>
				<path d="M0 612 C2.49 611.92 3.73 611.88 6.21 611.82 L0 612 Z" class="st2"/>
				<path d="M0 612 C2.49 611.92 3.73 611.88 6.21 611.82" class="st3"/>
			</g>
			<g id="shape18365-68" v:mID="18365" v:groupContext="shape" transform="translate(14.4832,-57.3482)">
				<title>Sheet.18365</title>
				<path d="M1.85 611.13 C1.87 611.59 1.46 611.97 0.96 611.99 C0.45 612 0.03 611.64 0.01 611.19 C0 610.73 0.4 610.35
							 0.91 610.34 C1.42 610.32 1.84 610.68 1.85 611.13 Z" class="st4"/>
			</g>
			<g id="shape18366-70" v:mID="18366" v:groupContext="shape" transform="translate(30.2239,-20.7695)">
				<title>Sheet.18366</title>
				<path d="M0 610.49 C0 610.49 0 610.53 0 610.54 C0 611.33 0.7 612 1.54 612 C2.39 611.99 3.07 611.31 3.07 610.51 C3.07
							 610.51 3.07 610.48 3.07 610.48 C1.84 610.48 1.23 610.48 0 610.49 Z" class="st4"/>
			</g>
			<g id="shape18367-72" v:mID="18367" v:groupContext="shape" transform="translate(0,-19.865)">
				<title>Sheet.18367</title>
				<path d="M0 610.53 C0 610.53 0 610.57 0 610.57 C0.04 611.36 0.77 612 1.61 611.96 C2.46 611.91 3.11 611.2 3.07 610.4
							 C3.07 610.4 3.06 610.37 3.06 610.37 C1.84 610.43 1.23 610.46 0 610.53 Z" class="st4"/>
			</g>
			<g id="shape18368-74" v:mID="18368" v:groupContext="shape" transform="translate(27.247,-32.9804)">
				<title>Sheet.18368</title>
				<path d="M0 610.81 C0 610.81 0 610.84 0 610.84 C0 611.47 0.57 612 1.25 611.99 C1.93 611.99 2.48 611.45 2.47 610.81
							 C2.47 610.81 2.47 610.78 2.47 610.78 C1.48 610.79 0.99 610.8 0 610.81 Z" class="st4"/>
			</g>
			<g id="shape18369-76" v:mID="18369" v:groupContext="shape" transform="translate(2.88419,-32.2569)">
				<title>Sheet.18369</title>
				<path d="M0 610.83 C0 610.83 0 610.86 0 610.87 C0.03 611.5 0.61 612 1.29 611.97 C1.97 611.94 2.5 611.38 2.47 610.74
							 C2.47 610.74 2.47 610.72 2.47 610.72 C1.48 610.76 0.99 610.78 0 610.83 Z" class="st4"/>
			</g>
			<g id="shape18370-78" v:mID="18370" v:groupContext="shape" transform="translate(24.5765,-43.7502)">
				<title>Sheet.18370</title>
				<path d="M0 611.07 C0 611.07 0 611.09 0 611.1 C0 611.59 0.46 612 1 611.99 C1.54 611.98 1.98 611.56 1.97 611.06 C1.97
							 611.06 1.97 611.04 1.97 611.04 C1.18 611.05 0.79 611.06 0 611.07 Z" class="st4"/>
			</g>
			<g id="shape18371-80" v:mID="18371" v:groupContext="shape" transform="translate(5.44895,-43.1853)">
				<title>Sheet.18371</title>
				<path d="M0 611.08 C0 611.08 0 611.11 0 611.11 C0.03 611.6 0.48 612 1.02 611.98 C1.57 611.95 1.99 611.52 1.97 611.02
							 C1.97 611.02 1.97 611 1.97 611 C1.18 611.03 0.79 611.05 0 611.08 Z" class="st4"/>
			</g>
		</g>
	</g>
</svg>
