<?xml version="1.0" encoding="UTF-8"?>
<svg width="62px" height="62px" viewBox="0 0 62 62" version="1.1" xmlns="http://www.w3.org/2000/svg" xmlns:xlink="http://www.w3.org/1999/xlink">
    <!-- Generator: Sketch 59.1 (86144) - https://sketch.com -->
    <title>comprar-casa</title>
    <desc>Created with Sketch.</desc>
    <g id="Page-1" stroke="none" stroke-width="1" fill="none" fill-rule="evenodd">
        <g id="comprar-casa" fill-rule="nonzero">
            <g id="comprar-casa-copy-2">
                <g id="comprar-casa-copy">
                    <path d="M1.0447775,42.4454392 C0.8673025,42.4454392 0.6875025,42.4003275 0.5232025,42.3050025 C0.0233275,42.0159275 -0.1487225,41.3765525 0.1403525,40.8766775 L20.3012025,6.0016775 C22.4417525,2.3002775 26.4275775,7.75000009e-05 30.7040275,7.75000009e-05 C34.9820275,7.75000009e-05 38.9701775,2.3026025 41.1084025,6.0078775 L61.2398025,40.8766775 C61.5288775,41.3765525 61.3568275,42.0159275 60.8569525,42.3042275 C60.3570775,42.5948525 59.7184775,42.4220275 59.4286275,41.9221525 L39.2980025,7.0533525 C37.5310025,3.9921025 34.2372525,2.0910275 30.7040275,2.0910275 C27.1715775,2.0910275 23.8793775,3.9905525 22.1131525,7.0487025 L1.9515275,41.9237025 C1.7570025,42.2585025 1.4059275,42.4454392 1.0447775,42.4454392" id="Fill-1" fill="#EC0000"></path>
                    <path d="M39.2975375,7.0344425 C37.5305375,3.9731925 34.2367875,2.0721175 30.7027875,2.0721175 C27.1718875,2.0721175 23.8789125,3.9716425 22.1119125,7.0297925 L9.7088125,28.4848925 L9.7088125,56.1965675 C9.7088125,59.0423675 12.0252875,61.3596175 14.8710875,61.3596175 L46.5089125,61.3596175 C49.3562625,61.3596175 51.6711875,59.0423675 51.6711875,56.1965675 L51.6711875,28.4662925 L39.2975375,7.0344425 Z" id="Fill-4" fill-opacity="0.6" fill="#FFCC33"></path>
                    <path d="M12.681945,28.485125 L25.085045,7.030025 C26.593195,4.421375 29.21347,2.6598 32.14297,2.1979 C31.63922,2.11885 31.12772,2.07235 30.609245,2.07235 C27.07757,2.07235 23.78537,3.97265 22.017595,7.030025 L9.614495,28.485125 L9.614495,56.1968 C9.614495,58.29705 10.877745,60.105125 12.681945,60.911125 L12.681945,28.485125 Z" id="Fill-6" fill-opacity="0.6" fill="#FFCC33"></path>
                    <polygon id="Fill-8" fill="#B94545" points="24.996075 38.8150225 28.063525 38.8150225 28.063525 35.7475725 24.996075 35.7475725"></polygon>
                    <path d="M24.99716,54.14336 L24.99716,61.359385 L38.310885,61.359385 C38.88826,61.359385 39.355585,60.891285 39.355585,60.31391 L39.355585,38.811535 L33.84921,38.811535 L24.99716,54.14336 Z" id="Fill-10" fill-opacity="0.75" fill="#990000"></path>
                    <path d="M24.99716,41.5859575 L24.99716,54.1432825 L33.84921,38.8114575 L27.77166,38.8114575 C26.241035,38.8114575 24.99716,40.0553325 24.99716,41.5859575" id="Fill-11" fill-opacity="0.65" fill="#990000"></path>
                    <path d="M24.99716,61.359695 L22.97596,61.359695 C22.39781,61.359695 21.92971,60.89082 21.92971,60.313445 L21.92971,60.313445 L21.92971,38.5225375 C21.92971,36.9926875 23.17374,35.7480375 24.70514,35.7480375 L24.70514,35.7480375 L36.582015,35.7480375 C38.111865,35.7480375 39.356515,36.9919125 39.356515,38.5225375 L39.356515,38.5225375 L39.356515,38.8116125 L27.771815,38.8116125 C26.24119,38.8116125 24.997315,40.0554875 24.997315,41.5861125 L24.997315,41.5861125 L24.99716,61.359695 Z" id="Combined-Shape" fill-opacity="0.95" fill="#990000"></path>
                </g>
            </g>
        </g>
    </g>
</svg>