<?xml version="1.0" encoding="UTF-8" standalone="no"?>
<!DOCTYPE svg PUBLIC "-//W3C//DTD SVG 1.1//EN" "http://www.w3.org/Graphics/SVG/1.1/DTD/svg11.dtd">
<!-- Generated by Microsoft Visio, SVG Export Oil-Rig.svg Page-1 -->
<svg xmlns="http://www.w3.org/2000/svg" xmlns:xlink="http://www.w3.org/1999/xlink" xmlns:ev="http://www.w3.org/2001/xml-events"
		xmlns:v="http://schemas.microsoft.com/visio/2003/SVGExtensions/" width="11in" height="8.5in" viewBox="0 0 792 612"
		xml:space="preserve" color-interpolation-filters="sRGB" class="st12">
	<v:documentProperties v:langID="1033" v:viewMarkup="false">
		<v:userDefs>
			<v:ud v:nameU="msvSubprocessMaster" v:prompt="" v:val="VT4(Rectangle)"/>
			<v:ud v:nameU="msvNoAutoConnect" v:val="VT0(1):26"/>
		</v:userDefs>
	</v:documentProperties>

	<style type="text/css">
	<![CDATA[
		.st1 {fill:none}
		.st2 {stroke:#5baccb;stroke-linecap:round;stroke-linejoin:round;stroke-width:0.75}
		.st3 {fill:#2a3544;stroke:none;stroke-width:0.75}
		.st4 {fill:#dbdbdb;stroke:none;stroke-width:0.75}
		.st5 {fill:#535b62;stroke:none;stroke-width:0.75}
		.st6 {fill:#7f7f7f;stroke:none;stroke-width:0.75}
		.st7 {fill:#006280;stroke:none;stroke-width:0.75}
		.st8 {fill:#535b62;fill-opacity:0.25;stroke:none;stroke-width:0.75}
		.st9 {fill:#535b62;stroke:none;stroke-width:0.25}
		.st10 {fill:#2a3544;fill-opacity:0.5;stroke:none;stroke-width:0.75}
		.st11 {fill:#4a8aa8;fill-opacity:0.5;stroke:none;stroke-width:0.75}
		.st12 {fill:none;fill-rule:evenodd;font-size:12px;overflow:visible;stroke-linecap:square;stroke-miterlimit:3}
	]]>
	</style>

	<g v:mID="0" v:index="1" v:groupContext="foregroundPage">
		<v:userDefs>
			<v:ud v:nameU="msvThemeOrder" v:val="VT0(0):26"/>
		</v:userDefs>
		<title>Page-1</title>
		<v:pageProperties v:drawingScale="1" v:pageScale="1" v:drawingUnits="0" v:shadowOffsetX="9" v:shadowOffsetY="-9"/>
		<g id="group18256-1" transform="translate(18,-534.974)" v:mID="18256" v:groupContext="group">
			<title>Oil Rig</title>
			<g id="shape18257-2" v:mID="18257" v:groupContext="shape" transform="translate(-103.451,-8.85764) rotate(-14.6)">
				<title>Sheet.18257</title>
				<path d="M0.09 611.43 C0.06 611.62 0.03 611.81 0 612 L0.09 611.43 Z" class="st1"/>
				<path d="M0.09 611.43 C0.06 611.62 0.03 611.81 0 612" class="st2"/>
			</g>
			<g id="shape18258-5" v:mID="18258" v:groupContext="shape" transform="translate(-144.923,-10.0897) rotate(-14.6)">
				<title>Sheet.18258</title>
				<path d="M10.22 612 C6.95 603.95 3.54 595.97 0 588.04 C0.35 587.92 0.52 587.87 0.87 587.75 C4.4 595.69 7.8 603.68
							 11.07 611.73 C10.73 611.84 10.56 611.89 10.22 612 Z" class="st3"/>
			</g>
			<g id="shape18259-7" v:mID="18259" v:groupContext="shape" transform="translate(-147.144,-9.05896) rotate(-14.6)">
				<title>Sheet.18259</title>
				<path d="M10.15 612 C6.89 604.08 3.51 596.21 0 588.4 C0.17 588.34 0.26 588.31 0.43 588.25 C3.94 596.07 7.32 603.94
							 10.57 611.86 C10.4 611.92 10.32 611.95 10.15 612 Z" class="st3"/>
			</g>
			<g id="shape18260-9" v:mID="18260" v:groupContext="shape" transform="translate(-144.071,-19.7313) rotate(-14.6)">
				<title>Sheet.18260</title>
				<path d="M0.98 611.99 C0.8 611.99 0.7 612 0.52 612 C0.32 608.93 0.22 607.39 0 604.32 C0.18 604.32 0.28 604.32 0.46
							 604.31 C0.68 607.38 0.78 608.92 0.98 611.99 Z" class="st3"/>
			</g>
			<g id="shape18261-11" v:mID="18261" v:groupContext="shape" transform="translate(-148.923,-25.8321) rotate(-14.6)">
				<title>Sheet.18261</title>
				<path d="M1.06 611.99 C0.87 611.99 0.78 611.99 0.59 612 C0.37 608.93 0.25 607.39 0 604.32 C0.19 604.32 0.28 604.32
							 0.47 604.31 C0.71 607.38 0.83 608.92 1.06 611.99 Z" class="st3"/>
			</g>
			<g id="shape18262-13" v:mID="18262" v:groupContext="shape" transform="translate(-143.155,-19.6161) rotate(-14.6)">
				<title>Sheet.18262</title>
				<path d="M0.17 612 C0.1 611.84 0.07 611.76 0 611.61 C0.92 611.31 1.38 611.16 2.3 610.86 C2.37 611.02 2.4 611.09 2.46
							 611.25 C1.54 611.55 1.08 611.7 0.17 612 Z" class="st3"/>
			</g>
			<g id="shape18263-15" v:mID="18263" v:groupContext="shape" transform="translate(-139.308,-13.5941) rotate(-14.6)">
				<title>Sheet.18263</title>
				<path d="M0.9 611.99 C0.72 612 0.63 612 0.45 612 C0.28 608.93 0.19 607.39 0 604.32 C0.18 604.32 0.27 604.32 0.46
							 604.31 C0.64 607.39 0.73 608.92 0.9 611.99 Z" class="st3"/>
			</g>
			<g id="shape18264-17" v:mID="18264" v:groupContext="shape" transform="translate(-138.466,-13.4576) rotate(-14.6)">
				<title>Sheet.18264</title>
				<path d="M0.16 612 C0.1 611.84 0.06 611.76 0 611.61 C0.91 611.31 1.37 611.16 2.28 610.87 C2.35 611.03 2.38 611.11
							 2.44 611.26 C1.53 611.56 1.07 611.7 0.16 612 Z" class="st3"/>
			</g>
			<g id="shape18265-19" v:mID="18265" v:groupContext="shape" transform="translate(-147.931,-25.7355) rotate(-14.6)">
				<title>Sheet.18265</title>
				<path d="M0.17 612 C0.1 611.84 0.07 611.77 0 611.61 C0.93 611.3 1.39 611.15 2.32 610.85 C2.39 611 2.42 611.08 2.49
							 611.24 C1.56 611.54 1.1 611.69 0.17 612 Z" class="st3"/>
			</g>
			<g id="shape18266-21" v:mID="18266" v:groupContext="shape" transform="translate(-153.971,-30.349) rotate(-14.6)">
				<title>Sheet.18266</title>
				<path d="M6.19 612 C6.21 611.91 6.25 611.82 6.26 611.72 C6.5 610.19 5.29 608.73 3.56 608.47 C1.83 608.21 0.24 609.25
							 0.01 610.78 C0 610.87 0.01 610.97 0.01 611.07 C2.48 611.43 3.72 611.61 6.19 612 Z" class="st3"/>
			</g>
			<g id="shape18267-23" v:mID="18267" v:groupContext="shape" transform="translate(-102.038,-10.6035) rotate(-14.6)">
				<title>Sheet.18267</title>
				<path d="M10.41 585.54 C10.72 585.65 10.87 585.71 11.18 585.83 C7.65 594.53 4.17 603.25 0.74 612 C0.44 611.89 0.3
							 611.83 0 611.72 C3.42 602.97 6.89 594.25 10.41 585.54 Z" class="st4"/>
			</g>
			<g id="shape18268-25" v:mID="18268" v:groupContext="shape" transform="translate(-113.635,12.5259) rotate(-14.6)">
				<title>Sheet.18268</title>
				<path d="M36.03 612 C24.1 608.71 12.1 605.78 0 603.2 C0.86 599.08 1.29 597.02 2.16 592.9 C14.49 595.53 26.71 598.52
							 38.86 601.86 C37.73 605.92 37.16 607.95 36.03 612 Z" class="st5"/>
			</g>
			<g id="shape18269-27" v:mID="18269" v:groupContext="shape" transform="translate(-134.129,5.9251) rotate(-14.6)">
				<title>Sheet.18269</title>
				<path d="M16.59 612 C12.81 611.22 10.92 610.85 7.13 610.14 C4.3 608.01 2.88 606.95 0 604.85 C0.73 600.63 1.09 598.52
							 1.82 594.31 C7.74 595.36 13.64 596.47 19.53 597.65 C18.55 602.44 17.57 607.22 16.59 612 Z" class="st3"/>
			</g>
			<g id="shape18270-29" v:mID="18270" v:groupContext="shape" transform="translate(-118.932,7.62756) rotate(-14.6)">
				<title>Sheet.18270</title>
				<path d="M1.35 601.82 C6.81 602.95 12.25 604.13 17.69 605.37 C17.07 608.02 16.76 609.35 16.15 612 C10.78 610.77 5.4
							 609.6 0 608.49 C0.54 605.82 0.81 604.49 1.35 601.82 Z" class="st6"/>
			</g>
			<g id="shape18271-31" v:mID="18271" v:groupContext="shape" transform="translate(-103.51,20.0326) rotate(-14.6)">
				<title>Sheet.18271</title>
				<path d="M5.28 599.33 C4.34 599.11 3.87 599 2.94 598.78 C1.96 603.01 0.98 607.24 0 611.46 C0.91 611.68 1.37 611.78
							 2.29 612 L5.28 599.33 Z" class="st3"/>
			</g>
			<g id="shape18272-33" v:mID="18272" v:groupContext="shape" transform="translate(-94.6426,19.6154) rotate(-14.6)">
				<title>Sheet.18272</title>
				<path d="M4.11 599.35 C3.38 599.22 3.01 599.15 2.28 599.01 C1.52 603.23 0.76 607.45 0 611.67 C0.71 611.8 1.07 611.86
							 1.78 612 C2.56 607.79 3.34 603.57 4.11 599.35 Z" class="st3"/>
			</g>
			<g id="shape18273-35" v:mID="18273" v:groupContext="shape" transform="translate(-92.2029,19.3322) rotate(-14.6)">
				<title>Sheet.18273</title>
				<path d="M2.88 599.4 C2.66 599.35 2.56 599.33 2.34 599.29 C1.56 603.5 0.78 607.7 0 611.9 C0.21 611.94 0.31 611.96
							 0.52 612 C1.31 607.8 2.1 603.6 2.88 599.4 Z" class="st3"/>
			</g>
			<g id="shape18274-37" v:mID="18274" v:groupContext="shape" transform="translate(-111.875,20.0963) rotate(-14.6)">
				<title>Sheet.18274</title>
				<path d="M3.5 599.16 C4.21 599.36 4.57 599.46 5.28 599.66 C4.1 603.78 2.92 607.89 1.75 612 C1.05 611.8 0.7 611.71
							 0 611.51 C1.16 607.39 2.33 603.28 3.5 599.16 Z" class="st3"/>
			</g>
			<g id="shape18275-39" v:mID="18275" v:groupContext="shape" transform="translate(-113.198,19.8911) rotate(-14.6)">
				<title>Sheet.18275</title>
				<path d="M3.48 599.5 C3.69 599.56 3.79 599.59 4 599.65 C2.84 603.77 1.67 607.88 0.51 612 C0.31 611.94 0.2 611.91
							 0 611.86 C1.16 607.74 2.32 603.62 3.48 599.5 Z" class="st3"/>
			</g>
			<g id="shape18276-41" v:mID="18276" v:groupContext="shape" transform="translate(-97.544,19.3129) rotate(-14.6)">
				<title>Sheet.18276</title>
				<path d="M3.12 600.7 C2.97 600.66 2.9 600.64 2.75 600.61 C1.83 604.38 0.92 608.14 0 611.91 C0.15 611.95 0.22 611.97
							 0.36 612 C1.28 608.23 2.2 604.47 3.12 600.7 Z" class="st3"/>
			</g>
			<g id="shape18277-43" v:mID="18277" v:groupContext="shape" transform="translate(-107.279,16.176) rotate(-14.6)">
				<title>Sheet.18277</title>
				<path d="M0.08 609.24 C0.05 609.39 0.03 609.46 0 609.6 C4.11 610.52 6.17 611 10.26 612 C10.3 611.86 10.32 611.79
							 10.35 611.65 C6.25 610.65 4.19 610.17 0.08 609.24 Z" class="st3"/>
			</g>
			<g id="shape18278-45" v:mID="18278" v:groupContext="shape" transform="translate(-105.062,20.4696) rotate(-14.6)">
				<title>Sheet.18278</title>
				<path d="M0.32 599.77 C0.19 599.85 0.13 599.89 0 599.97 C2.65 603.94 5.25 607.95 7.8 612 C7.93 611.93 7.99 611.89
							 8.12 611.81 C5.57 607.76 2.97 603.75 0.32 599.77 Z" class="st3"/>
			</g>
			<g id="shape18279-47" v:mID="18279" v:groupContext="shape" transform="translate(-107.733,19.5661) rotate(-14.6)">
				<title>Sheet.18279</title>
				<path d="M2.54 600.57 C2.69 600.6 2.76 600.62 2.91 600.65 C2.06 604.43 1.21 608.22 0.36 612 C0.22 611.97 0.15 611.95
							 0 611.92 C0.85 608.13 1.69 604.35 2.54 600.57 Z" class="st3"/>
			</g>
			<g id="shape18280-49" v:mID="18280" v:groupContext="shape" transform="translate(-107.664,18.8049) rotate(-14.6)">
				<title>Sheet.18280</title>
				<path d="M12.33 604.36 C12.41 604.48 12.45 604.55 12.53 604.67 C8.38 607.06 4.28 609.5 0.2 612 C0.12 611.88 0.08
							 611.81 0 611.69 C4.07 609.19 8.18 606.74 12.33 604.36 Z" class="st3"/>
			</g>
			<g id="shape18281-51" v:mID="18281" v:groupContext="shape" transform="translate(-112.693,10.9257) rotate(-14.6)">
				<title>Sheet.18281</title>
				<path d="M8.26 608.19 C5.29 607.51 3.81 607.18 0.83 606.55 C0.5 608.1 0.33 608.88 0 610.43 C2.71 611.01 4.06 611.31
							 6.76 611.92 C7.1 612 7.44 611.8 7.51 611.48 C7.81 610.16 7.96 609.5 8.26 608.19 Z" class="st7"/>
			</g>
			<g id="shape18282-53" v:mID="18282" v:groupContext="shape" transform="translate(-99.4118,10.7225) rotate(-14.6)">
				<title>Sheet.18282</title>
				<path d="M0.86 606.33 C3.83 607.03 5.3 607.4 8.26 608.15 C7.87 609.69 7.67 610.46 7.28 612 C4.59 611.32 3.25 610.98
							 0.55 610.34 C0.21 610.25 0 609.93 0.08 609.6 C0.39 608.29 0.55 607.64 0.86 606.33 Z" class="st7"/>
			</g>
			<g id="shape18283-55" v:mID="18283" v:groupContext="shape" transform="translate(-120.218,17.14) rotate(-14.6)">
				<title>Sheet.18283</title>
				<path d="M37.72 611.89 C25.42 608.62 13.05 605.73 0.58 603.21 C0.23 603.14 0 602.81 0.07 602.48 C0.22 601.7 0.29
							 601.31 0.45 600.53 C13.45 603.15 26.34 606.16 39.16 609.59 L38.67 611.38 C38.56 611.77 38.14 612 37.72
							 611.89 Z" class="st3"/>
			</g>
			<g id="shape18284-57" v:mID="18284" v:groupContext="shape" transform="translate(-125.521,17.8593) rotate(-14.6)">
				<title>Sheet.18284</title>
				<path d="M50.12 610.08 C33.81 605.55 17.38 601.7 0.75 598.53 C0.52 598.49 0.31 598.63 0.27 598.85 C0.16 599.43 0.11
							 599.72 0 600.3 C16.86 603.5 33.52 607.4 50.05 612 C50.21 611.45 50.28 611.17 50.44 610.62 C50.51 610.39
							 50.36 610.15 50.12 610.08 Z" class="st7"/>
			</g>
			<g id="shape18285-59" v:mID="18285" v:groupContext="shape" transform="translate(-126.468,8.84185) rotate(-14.6)">
				<title>Sheet.18285</title>
				<path d="M20.21 609.46 C13.64 608.01 7.06 606.66 0.45 605.39 C0.27 606.35 0.18 606.83 0 607.79 C6.81 609.09 13.59
							 610.5 20.36 612 C20.52 611.31 20.6 610.96 20.75 610.27 C20.84 609.91 20.59 609.55 20.21 609.46 Z"
						class="st3"/>
			</g>
			<g id="shape18286-61" v:mID="18286" v:groupContext="shape" transform="translate(-119.844,1.16167) rotate(-14.6)">
				<title>Sheet.18286</title>
				<path d="M17.74 611.14 C11.9 609.8 6.05 608.53 0.17 607.32 C0.1 607.67 0.07 607.84 0 608.19 C5.86 609.39 11.71 610.66
							 17.54 612 C17.62 611.66 17.66 611.48 17.74 611.14 Z" class="st3"/>
			</g>
			<g id="shape18287-63" v:mID="18287" v:groupContext="shape" transform="translate(-95.77,7.97235) rotate(-14.6)">
				<title>Sheet.18287</title>
				<path d="M1.62 600.7 C7.67 602.19 13.71 603.76 19.71 605.45 C18.98 608.07 18.61 609.38 17.87 612 C11.94 610.33 5.98
							 608.78 0 607.3 C0.65 604.66 0.97 603.34 1.62 600.7 Z" class="st6"/>
			</g>
			<g id="shape18288-65" v:mID="18288" v:groupContext="shape" transform="translate(-96.4496,1.5723) rotate(-14.6)">
				<title>Sheet.18288</title>
				<path d="M19.65 611.15 C13.19 609.36 6.72 607.65 0.21 606.04 C0.13 606.38 0.08 606.56 0 606.9 C6.5 608.51 12.96 610.21
							 19.41 612 C19.51 611.66 19.56 611.49 19.65 611.15 Z" class="st3"/>
			</g>
			<g id="group18289-67" transform="translate(-119.25,1.80538) rotate(-14.6)" v:mID="18289" v:groupContext="group">
				<title>Sheet.18289</title>
				<g id="shape18290-68" v:mID="18290" v:groupContext="shape">
					<title>Sheet.18290</title>
					<path d="M16.33 612 C10.9 610.76 5.46 609.58 0 608.45 C0.07 608.09 0.11 607.9 0.18 607.53 C5.65 608.66 11.1 609.85
								 16.54 611.09 C16.45 611.45 16.41 611.64 16.33 612 Z" class="st5"/>
				</g>
			</g>
			<g id="group18291-70" transform="translate(-95.8413,2.14868) rotate(-14.6)" v:mID="18291" v:groupContext="group">
				<title>Sheet.18291</title>
				<g id="shape18292-71" v:mID="18292" v:groupContext="shape">
					<title>Sheet.18292</title>
					<path d="M18.05 612 C12.06 610.31 6.04 608.74 0 607.26 C0.09 606.9 0.13 606.71 0.22 606.35 C6.27 607.84 12.3
								 609.41 18.3 611.1 C18.2 611.46 18.15 611.64 18.05 612 Z" class="st5"/>
				</g>
			</g>
			<g id="shape18293-73" v:mID="18293" v:groupContext="shape" transform="translate(-78.3673,-2.63842) rotate(-14.6)">
				<title>Sheet.18293</title>
				<path d="M0.77 607.61 C2.76 608.16 3.75 608.45 5.74 609.02 C6.18 609.15 6.45 609.59 6.33 610.01 C6.1 610.8 5.98 611.2
							 5.75 612 C3.45 611.33 2.3 611 0 610.36 C0.31 609.26 0.46 608.71 0.77 607.61 Z" class="st5"/>
			</g>
			<g id="shape18294-75" v:mID="18294" v:groupContext="shape" transform="translate(-136.554,-4.31979) rotate(-14.6)">
				<title>Sheet.18294</title>
				<path d="M19.56 612 C13.06 610.68 6.54 609.44 0 608.3 C0.09 607.75 0.14 607.48 0.23 606.93 C6.79 608.08 13.32 609.32
							 19.84 610.64 C19.73 611.19 19.68 611.46 19.56 612 Z" class="st6"/>
			</g>
			<g id="shape18295-77" v:mID="18295" v:groupContext="shape" transform="translate(-136.253,-0.754824) rotate(-14.6)">
				<title>Sheet.18295</title>
				<path d="M19.44 612 C12.97 610.69 6.5 609.46 0 608.32 C0.09 607.78 0.14 607.5 0.23 606.96 C6.75 608.1 13.24 609.33
							 19.72 610.64 C19.61 611.19 19.55 611.46 19.44 612 Z" class="st6"/>
			</g>
			<g id="shape18296-79" v:mID="18296" v:groupContext="shape" transform="translate(-136.862,-7.96201) rotate(-14.6)">
				<title>Sheet.18296</title>
				<path d="M19.69 612 C13.14 610.67 6.58 609.43 0 608.28 C0.09 607.73 0.14 607.46 0.23 606.91 C6.83 608.07 13.41 609.31
							 19.97 610.64 C19.86 611.19 19.8 611.46 19.69 612 Z" class="st6"/>
			</g>
			<g id="group18297-81" transform="translate(-135.887,-7.33322) rotate(-14.6)" v:mID="18297" v:groupContext="group">
				<title>Sheet.18297</title>
				<g id="shape18298-82" v:mID="18298" v:groupContext="shape">
					<title>Sheet.18298</title>
					<path d="M17.88 610.93 C12 609.75 6.1 608.64 0.19 607.59 C0.11 608.02 0.07 608.23 0 608.66 C5.9 609.71 11.79
								 610.82 17.67 612 C17.75 611.57 17.8 611.36 17.88 610.93 Z" class="st8"/>
				</g>
			</g>
			<g id="group18299-84" transform="translate(-135.63,-4.23016) rotate(-14.6)" v:mID="18299" v:groupContext="group">
				<title>Sheet.18299</title>
				<g id="shape18300-85" v:mID="18300" v:groupContext="shape">
					<title>Sheet.18300</title>
					<path d="M17.68 611.47 C11.83 610.29 5.97 609.18 0.09 608.14 L0 608.68 C5.87 609.72 11.72 610.83 17.57 612 C17.61
								 611.79 17.63 611.68 17.68 611.47 Z" class="st9"/>
				</g>
			</g>
			<g id="group18301-87" transform="translate(-135.332,-0.624162) rotate(-14.6)" v:mID="18301" v:groupContext="group">
				<title>Sheet.18301</title>
				<g id="shape18302-88" v:mID="18302" v:groupContext="shape">
					<title>Sheet.18302</title>
					<path d="M17.57 611.43 C11.76 610.26 5.94 609.16 0.1 608.12 C0.06 608.35 0.04 608.47 0 608.7 C5.83 609.73 11.65
								 610.83 17.46 612 C17.5 611.77 17.53 611.66 17.57 611.43 Z" class="st9"/>
				</g>
			</g>
			<g id="shape18303-90" v:mID="18303" v:groupContext="shape" transform="translate(-123.581,-12.89) rotate(-14.6)">
				<title>Sheet.18303</title>
				<path d="M4.8 610.36 C3.18 610.03 2.37 609.86 0.74 609.54 C0.5 609.5 0.27 609.64 0.23 609.85 C0.14 610.32 0.09 610.55
							 0 611.01 C1.97 611.4 2.95 611.6 4.92 612 C5.01 611.54 5.06 611.31 5.15 610.84 C5.2 610.63 5.04 610.41
							 4.8 610.36 Z" class="st3"/>
			</g>
			<g id="shape18304-92" v:mID="18304" v:groupContext="shape" transform="translate(-99.0412,-37.9122) rotate(-14.6)">
				<title>Sheet.18304</title>
				<path d="M1.82 611.75 C1.69 611.99 1.21 612 0.74 611.78 C0.27 611.56 0 611.19 0.13 610.95 C0.26 610.71 0.74 610.7
							 1.21 610.92 C1.68 611.14 1.95 611.51 1.82 611.75 Z" class="st3"/>
			</g>
			<g id="shape18305-94" v:mID="18305" v:groupContext="shape" transform="translate(-110.188,-5.71598) rotate(-14.6)">
				<title>Sheet.18305</title>
				<path d="M6.05 606.56 C4.11 606.11 3.14 605.9 1.2 605.47 C0.72 607.65 0.48 608.74 0 610.92 C1.92 611.34 2.88 611.56
							 4.8 612 C5.3 609.82 5.55 608.73 6.05 606.56 Z" class="st3"/>
			</g>
			<g id="group18306-96" transform="translate(-110.326,-6.2466) rotate(-14.6)" v:mID="18306" v:groupContext="group">
				<title>Sheet.18306</title>
				<g id="shape18307-97" v:mID="18307" v:groupContext="shape">
					<title>Sheet.18307</title>
					<path d="M3.62 606.55 C2.65 606.34 2.17 606.23 1.2 606.02 C0.72 608.2 0.48 609.29 0 611.47 C0.96 611.68 1.44
								 611.78 2.39 612 C2.88 609.82 3.13 608.73 3.62 606.55 Z" class="st10"/>
				</g>
			</g>
			<g id="shape18308-99" v:mID="18308" v:groupContext="shape" transform="translate(-110.398,-11.2849) rotate(-14.6)">
				<title>Sheet.18308</title>
				<path d="M3.05 611.1 C3.09 610.92 3.11 610.83 3.15 610.64 C2.74 610.55 2.53 610.5 2.12 610.41 C2.08 610.59 2.06 610.68
							 2.01 610.87 C1.25 610.7 0.87 610.61 0.1 610.44 C0.06 610.63 0.04 610.72 0 610.91 C1.94 611.34 2.91 611.56
							 4.85 612 C4.89 611.81 4.92 611.72 4.96 611.53 C4.2 611.36 3.81 611.27 3.05 611.1 Z" class="st7"/>
			</g>
			<g id="group18309-101" transform="translate(-110.537,-11.8198) rotate(-14.6)" v:mID="18309" v:groupContext="group">
				<title>Sheet.18309</title>
				<g id="shape18310-102" v:mID="18310" v:groupContext="shape">
					<title>Sheet.18310</title>
					<path d="M2.62 611.08 C2.42 611.03 2.32 611.01 2.12 610.96 C2.08 611.15 2.06 611.24 2.01 611.42 C1.25 611.25
								 0.87 611.16 0.1 610.99 C0.06 611.18 0.04 611.28 0 611.46 C0.97 611.68 1.45 611.78 2.42 612 C2.5
								 611.63 2.54 611.45 2.62 611.08 Z" class="st10"/>
				</g>
			</g>
			<g id="shape18311-104" v:mID="18311" v:groupContext="shape" transform="translate(-99.3556,-11.5073) rotate(-14.6)">
				<title>Sheet.18311</title>
				<path d="M3.05 611.06 C3.09 610.88 3.11 610.79 3.16 610.61 C2.75 610.51 2.54 610.46 2.13 610.36 C2.08 610.54 2.06
							 610.63 2.02 610.81 C1.25 610.63 0.87 610.53 0.11 610.35 C0.07 610.54 0.04 610.63 0 610.82 C1.94 611.28
							 2.9 611.52 4.84 612 C4.88 611.81 4.9 611.72 4.95 611.54 C4.19 611.35 3.81 611.25 3.05 611.06 Z"
						class="st7"/>
			</g>
			<g id="group18312-106" transform="translate(-99.5068,-12.0876) rotate(-14.6)" v:mID="18312" v:groupContext="group">
				<title>Sheet.18312</title>
				<g id="shape18313-107" v:mID="18313" v:groupContext="shape">
					<title>Sheet.18313</title>
					<path d="M2.63 611.08 C2.43 611.03 2.33 611.01 2.13 610.96 C2.08 611.14 2.06 611.23 2.02 611.41 C1.25 611.23
								 0.87 611.13 0.11 610.95 C0.07 611.14 0.04 611.23 0 611.42 C0.96 611.65 1.44 611.76 2.41 612 C2.5
								 611.63 2.54 611.45 2.63 611.08 Z" class="st10"/>
				</g>
			</g>
			<g id="shape18314-109" v:mID="18314" v:groupContext="shape" transform="translate(-99.2534,-5.93637) rotate(-14.6)">
				<title>Sheet.18314</title>
				<path d="M6.14 606.58 C4.21 606.1 3.24 605.86 1.3 605.4 C0.78 607.57 0.52 608.65 0 610.83 C1.92 611.29 2.87 611.52
							 4.79 612 C5.33 609.83 5.6 608.75 6.14 606.58 Z" class="st3"/>
			</g>
			<g id="group18315-111" transform="translate(-99.4039,-6.51247) rotate(-14.6)" v:mID="18315" v:groupContext="group">
				<title>Sheet.18315</title>
				<g id="shape18316-112" v:mID="18316" v:groupContext="shape">
					<title>Sheet.18316</title>
					<path d="M3.71 606.58 C2.75 606.34 2.27 606.23 1.31 605.99 C0.78 608.17 0.52 609.25 0 611.42 C0.95 611.65 1.43
								 611.77 2.38 612 C2.92 609.83 3.18 608.75 3.71 606.58 Z" class="st10"/>
				</g>
			</g>
			<g id="shape18317-114" v:mID="18317" v:groupContext="shape" transform="translate(-90.8507,-11.5334) rotate(-14.6)">
				<title>Sheet.18317</title>
				<path d="M3.05 611.04 C3.09 610.86 3.12 610.77 3.17 610.58 C2.75 610.48 2.55 610.42 2.14 610.32 C2.09 610.5 2.07
							 610.59 2.02 610.77 C1.26 610.57 0.88 610.47 0.12 610.28 C0.07 610.46 0.05 610.56 0 610.74 C1.93 611.24
							 2.89 611.49 4.82 612 C4.87 611.81 4.89 611.72 4.94 611.54 C4.19 611.34 3.81 611.24 3.05 611.04 Z"
						class="st7"/>
			</g>
			<g id="group18318-116" transform="translate(-91.0115,-12.1508) rotate(-14.6)" v:mID="18318" v:groupContext="group">
				<title>Sheet.18318</title>
				<g id="shape18319-117" v:mID="18319" v:groupContext="shape">
					<title>Sheet.18319</title>
					<path d="M2.64 611.09 C2.44 611.03 2.34 611.01 2.14 610.95 C2.09 611.13 2.07 611.23 2.02 611.41 C1.26 611.21
								 0.88 611.11 0.12 610.92 C0.07 611.1 0.05 611.19 0 611.38 C0.96 611.63 1.44 611.75 2.4 612 C2.5 611.63
								 2.54 611.45 2.64 611.09 Z" class="st10"/>
				</g>
			</g>
			<g id="shape18320-119" v:mID="18320" v:groupContext="shape" transform="translate(-90.8308,-5.96219) rotate(-14.6)">
				<title>Sheet.18320</title>
				<path d="M6.21 606.6 C4.28 606.09 3.32 605.84 1.39 605.35 C0.83 607.51 0.55 608.59 0 610.75 C1.91 611.24 2.87 611.49
							 4.77 612 C5.35 609.84 5.63 608.76 6.21 606.6 Z" class="st3"/>
			</g>
			<g id="group18321-121" transform="translate(-90.9903,-6.57311) rotate(-14.6)" v:mID="18321" v:groupContext="group">
				<title>Sheet.18321</title>
				<g id="shape18322-122" v:mID="18322" v:groupContext="shape">
					<title>Sheet.18322</title>
					<path d="M3.79 606.6 C2.83 606.35 2.35 606.22 1.39 605.98 C0.83 608.14 0.55 609.22 0 611.39 C0.95 611.63 1.43
								 611.75 2.38 612 C2.94 609.84 3.22 608.76 3.79 606.6 Z" class="st10"/>
				</g>
			</g>
			<g id="shape18323-124" v:mID="18323" v:groupContext="shape" transform="translate(-95.5498,-5.23994) rotate(-14.6)">
				<title>Sheet.18323</title>
				<path d="M4.03 612 C3.69 611.91 3.51 611.87 3.17 611.78 C3.32 611.16 3.4 610.86 3.56 610.24 C3.73 609.55 3.27 608.84
							 2.52 608.65 C1.51 608.4 1.01 608.27 0 608.03 C0.08 607.7 0.12 607.54 0.2 607.22 C1.21 607.47 1.71 607.59
							 2.72 607.85 C3.95 608.16 4.72 609.33 4.43 610.46 C4.27 611.08 4.19 611.39 4.03 612 Z" class="st4"/>
			</g>
			<g id="shape18324-126" v:mID="18324" v:groupContext="shape" transform="translate(-87.3798,-5.23475) rotate(-14.6)">
				<title>Sheet.18324</title>
				<path d="M3.98 612 C3.63 611.91 3.46 611.86 3.12 611.77 C3.28 611.15 3.36 610.85 3.53 610.23 C3.71 609.55 3.26 608.83
							 2.51 608.63 C1.51 608.36 1.01 608.23 0 607.97 C0.08 607.65 0.13 607.49 0.21 607.16 C1.22 607.43 1.72
							 607.56 2.73 607.83 C3.95 608.15 4.7 609.34 4.4 610.47 C4.23 611.08 4.15 611.39 3.98 612 Z" class="st4"/>
			</g>
			<g id="shape18325-128" v:mID="18325" v:groupContext="shape" transform="translate(-102.682,-10.8381) rotate(-14.6)">
				<title>Sheet.18325</title>
				<path d="M10.97 585.93 C10.79 585.86 10.71 585.83 10.53 585.76 C6.97 594.43 3.46 603.13 0 611.84 C0.17 611.91 0.25
							 611.94 0.42 612 C3.89 603.29 7.4 594.6 10.97 585.93 Z" class="st3"/>
			</g>
			<g id="shape18326-130" v:mID="18326" v:groupContext="shape" transform="translate(-99.8619,-10.8969) rotate(-14.6)">
				<title>Sheet.18326</title>
				<path d="M9 585.56 C8.82 585.5 8.74 585.46 8.56 585.4 C7.65 589.41 6.74 593.41 5.83 597.42 C3.87 602.22 1.92 607.03
							 0 611.84 C0.17 611.9 0.25 611.94 0.42 612 C2.34 607.21 4.28 602.43 6.23 597.65 C7.16 593.62 8.08 589.59
							 9 585.56 Z" class="st3"/>
			</g>
			<g id="shape18327-132" v:mID="18327" v:groupContext="shape" transform="translate(-105.975,-5.13952) rotate(-14.6)">
				<title>Sheet.18327</title>
				<path d="M8.73 607.91 C5.62 607.16 4.06 606.79 0.93 606.08 C0.56 607.72 0.37 608.54 0 610.18 C3.1 610.89 4.65 611.25
							 7.74 612 C8.14 610.36 8.33 609.55 8.73 607.91 Z" class="st7"/>
			</g>
			<g id="group18328-134" transform="translate(-102.159,-6.13337) rotate(-14.6)" v:mID="18328" v:groupContext="group">
				<title>Sheet.18328</title>
				<g id="shape18329-135" v:mID="18329" v:groupContext="shape">
					<title>Sheet.18329</title>
					<path d="M4.79 607.91 C3.26 607.54 2.49 607.36 0.96 607 C0.58 608.64 0.39 609.46 0 611.09 C1.52 611.45 2.28 611.63
								 3.8 612 C4.19 610.36 4.39 609.55 4.79 607.91 Z" class="st11"/>
				</g>
			</g>
			<g id="shape18330-137" v:mID="18330" v:groupContext="shape" transform="translate(-102.819,-9.09199) rotate(-14.6)">
				<title>Sheet.18330</title>
				<path d="M3.98 612 C2.39 611.62 1.59 611.43 0 611.05 C0.05 610.82 0.08 610.71 0.13 610.48 C1.73 610.85 2.53 611.04
							 4.12 611.43 C4.06 611.66 4.03 611.77 3.98 612 Z" class="st7"/>
			</g>
			<g id="shape18331-139" v:mID="18331" v:groupContext="shape" transform="translate(-102.79,-7.91722) rotate(-14.6)">
				<title>Sheet.18331</title>
				<path d="M3.97 612 C2.38 611.62 1.59 611.43 0 611.06 C0.05 610.83 0.08 610.71 0.13 610.48 C1.73 610.86 2.52 611.04
							 4.11 611.43 C4.05 611.66 4.03 611.77 3.97 612 Z" class="st7"/>
			</g>
			<g id="shape18332-141" v:mID="18332" v:groupContext="shape" transform="translate(-102.761,-6.74181) rotate(-14.6)">
				<title>Sheet.18332</title>
				<path d="M3.96 612 C2.38 611.62 1.59 611.43 0 611.06 C0.05 610.83 0.08 610.71 0.13 610.48 C1.72 610.86 2.52 611.04
							 4.1 611.43 C4.05 611.66 4.02 611.77 3.96 612 Z" class="st7"/>
			</g>
			<g id="group18333-143" transform="translate(-94.2618,1.97915) rotate(-14.6)" v:mID="18333" v:groupContext="group">
				<title>Sheet.18333</title>
				<g id="shape18334-144" v:mID="18334" v:groupContext="shape">
					<title>Sheet.18334</title>
					<path d="M5.2 612 C3.12 611.46 2.08 611.2 0 610.68 C0.18 609.95 0.27 609.59 0.45 608.86 C2.54 609.38 3.58 609.65
								 5.67 610.19 C5.48 610.91 5.38 611.28 5.2 612 Z" class="st3"/>
				</g>
			</g>
			<g id="group18335-146" transform="translate(-85.5058,2.03797) rotate(-14.6)" v:mID="18335" v:groupContext="group">
				<title>Sheet.18335</title>
				<g id="shape18336-147" v:mID="18336" v:groupContext="shape">
					<title>Sheet.18336</title>
					<path d="M5.18 612 C3.11 611.43 2.07 611.15 0 610.59 C0.19 609.87 0.29 609.51 0.48 608.79 C2.56 609.34 3.6 609.62
								 5.68 610.2 C5.48 610.92 5.38 611.28 5.18 612 Z" class="st3"/>
				</g>
			</g>
			<g id="group18337-149" transform="translate(-118.038,2.50813) rotate(-14.6)" v:mID="18337" v:groupContext="group">
				<title>Sheet.18337</title>
				<g id="shape18338-150" v:mID="18338" v:groupContext="shape">
					<title>Sheet.18338</title>
					<path d="M5.23 612 C3.14 611.55 2.1 611.33 0 610.9 C0.15 610.17 0.23 609.8 0.38 609.07 C2.48 609.5 3.53 609.72
								 5.63 610.17 C5.47 610.9 5.39 611.27 5.23 612 Z" class="st3"/>
				</g>
			</g>
			<g id="group18339-152" transform="translate(-110.197,2.22265) rotate(-14.6)" v:mID="18339" v:groupContext="group">
				<title>Sheet.18339</title>
				<g id="shape18340-153" v:mID="18340" v:groupContext="shape">
					<title>Sheet.18340</title>
					<path d="M5.22 612 C3.14 611.52 2.09 611.29 0 610.83 C0.16 610.1 0.24 609.73 0.4 609 C2.5 609.46 3.55 609.7 5.64
								 610.18 C5.47 610.91 5.39 611.27 5.22 612 Z" class="st3"/>
				</g>
			</g>
		</g>
	</g>
</svg>
