<?xml version="1.0" encoding="UTF-8" standalone="no"?>
<!DOCTYPE svg PUBLIC "-//W3C//DTD SVG 1.1//EN" "http://www.w3.org/Graphics/SVG/1.1/DTD/svg11.dtd">
<!-- Generated by Microsoft Visio, SVG Export Wind-Pole.svg Page-1 -->
<svg xmlns="http://www.w3.org/2000/svg" xmlns:xlink="http://www.w3.org/1999/xlink" xmlns:ev="http://www.w3.org/2001/xml-events"
		xmlns:v="http://schemas.microsoft.com/visio/2003/SVGExtensions/" width="11in" height="8.5in" viewBox="0 0 792 612"
		xml:space="preserve" color-interpolation-filters="sRGB" class="st4">
	<v:documentProperties v:langID="1033" v:viewMarkup="false">
		<v:userDefs>
			<v:ud v:nameU="msvSubprocessMaster" v:prompt="" v:val="VT4(Rectangle)"/>
			<v:ud v:nameU="msvNoAutoConnect" v:val="VT0(1):26"/>
		</v:userDefs>
	</v:documentProperties>

	<style type="text/css">
	<![CDATA[
		.st1 {fill:#4a8aa8;stroke:none;stroke-width:0.75}
		.st2 {fill:#006280;stroke:none;stroke-width:0.75}
		.st3 {fill:#006280;fill-opacity:0.5;stroke:none;stroke-width:0.75}
		.st4 {fill:none;fill-rule:evenodd;font-size:12px;overflow:visible;stroke-linecap:square;stroke-miterlimit:3}
	]]>
	</style>

	<g v:mID="0" v:index="1" v:groupContext="foregroundPage">
		<v:userDefs>
			<v:ud v:nameU="msvThemeOrder" v:val="VT0(0):26"/>
		</v:userDefs>
		<title>Page-1</title>
		<v:pageProperties v:drawingScale="1" v:pageScale="1" v:drawingUnits="0" v:shadowOffsetX="9" v:shadowOffsetY="-9"/>
		<g id="group18405-1" transform="translate(18,-543.97)" v:mID="18405" v:groupContext="group">
			<title>Wind Pole</title>
			<g id="shape18406-2" v:mID="18406" v:groupContext="shape" transform="translate(-3.98028,-0.0117965) rotate(-1)">
				<title>Sheet.18406</title>
				<path d="M1.66 591.57 C1.44 591.56 1.33 591.55 1.11 591.54 C0.73 598.35 0.36 605.15 0 611.95 C0.47 611.97 0.71 611.98
							 1.19 612 C1.35 605.19 1.51 598.38 1.66 591.57 Z" class="st1"/>
			</g>
			<g id="shape18407-4" v:mID="18407" v:groupContext="shape" transform="translate(-3.38795,-0.0224613) rotate(-1)">
				<title>Sheet.18407</title>
				<path d="M1.07 591.57 C0.96 591.56 0.9 591.56 0.79 591.56 C0.53 598.36 0.26 605.17 0 611.98 C0.24 611.99 0.36 611.99
							 0.59 612 C0.76 605.19 0.91 598.38 1.07 591.57 Z" class="st2"/>
			</g>
			<g id="group18408-6" transform="translate(-3.26272,-19.6502) rotate(-1)" v:mID="18408" v:groupContext="group">
				<title>Sheet.18408</title>
				<g id="shape18409-7" v:mID="18409" v:groupContext="shape">
					<title>Sheet.18409</title>
					<path d="M0.6 611.44 C0.6 611.34 0.6 611.29 0.6 611.19 C0.49 611.18 0.43 611.18 0.32 611.18 C0.22 611.17 0.17
								 611.17 0.06 611.17 C0.06 611.18 0.05 611.18 0.05 611.19 C0.03 611.51 0.02 611.67 0 612 C0.24 611.78
								 0.36 611.67 0.6 611.44 Z" class="st3"/>
				</g>
			</g>
			<g id="shape18410-9" v:mID="18410" v:groupContext="shape" transform="translate(-3.25828,-20.4215) rotate(-1)">
				<title>Sheet.18410</title>
				<path d="M0 611.79 C0.23 611.87 0.34 611.92 0.57 612 C1.59 609.23 2.11 607.84 3.16 605.07 C1.88 607.75 1.25 609.1
							 0 611.79 Z" class="st1"/>
			</g>
			<g id="shape18411-11" v:mID="18411" v:groupContext="shape" transform="translate(-2.97383,-20.4268) rotate(-1)">
				<title>Sheet.18411</title>
				<path d="M2.88 605.07 C1.71 607.8 1.14 609.16 0 611.9 C0.11 611.94 0.17 611.96 0.28 612 C1.31 609.23 1.83 607.84
							 2.88 605.07 Z" class="st2"/>
			</g>
			<g id="shape18412-13" v:mID="18412" v:groupContext="shape" transform="translate(-10.6809,-19.2524) rotate(-1)">
				<title>Sheet.18412</title>
				<path d="M7.77 611.14 C7.74 610.91 7.72 610.8 7.68 610.57 C4.6 611.12 3.06 611.4 0 612 C3.1 611.63 4.66 611.46 7.77
							 611.14 Z" class="st1"/>
			</g>
			<g id="shape18413-15" v:mID="18413" v:groupContext="shape" transform="translate(-10.6805,-19.2524) rotate(-1)">
				<title>Sheet.18413</title>
				<path d="M0 612 C3.08 611.52 4.63 611.29 7.73 610.86 L7.68 610.57 C4.6 611.12 3.06 611.4 0 612 Z" class="st2"/>
			</g>
			<g id="shape18414-17" v:mID="18414" v:groupContext="shape" transform="translate(-3.11277,-14.7524) rotate(-1)">
				<title>Sheet.18414</title>
				<path d="M0.48 606.05 C0.29 606.19 0.19 606.26 0 606.4 C2.06 608.63 3.07 609.75 5.08 612 C3.26 609.61 2.34 608.42
							 0.48 606.05 Z" class="st1"/>
			</g>
			<g id="shape18415-19" v:mID="18415" v:groupContext="shape" transform="translate(-3.11278,-14.7531) rotate(-1)">
				<title>Sheet.18415</title>
				<path d="M5.08 612 C3.17 609.68 2.2 608.52 0.24 606.22 C0.14 606.3 0.1 606.33 0 606.4 C2.06 608.63 3.07 609.75 5.08
							 612 Z" class="st2"/>
			</g>
			<g id="group18416-21" transform="translate(-3.64465,-19.9329) rotate(-1)" v:mID="18416" v:groupContext="group">
				<title>Sheet.18416</title>
				<g id="shape18417-22" v:mID="18417" v:groupContext="shape">
					<title>Sheet.18417</title>
					<path d="M0.68 611.85 C0.74 611.91 0.76 611.94 0.82 612 C0.95 611.97 1.08 611.92 1.17 611.81 C1.17 611.81 1.17
								 611.81 1.17 611.81 C1.21 611.77 1.24 611.72 1.26 611.67 C1.16 611.55 1.12 611.49 1.02 611.37 C1.07
								 611.22 1.1 611.15 1.15 611.01 C1.14 610.99 1.12 610.97 1.1 610.95 C0.96 610.84 0.79 610.8 0.62 610.82
								 C0.56 610.96 0.53 611.02 0.46 611.16 C0.45 611.16 0.44 611.16 0.43 611.17 C0.28 611.19 0.2 611.21
								 0.06 611.23 C0 611.41 0.03 611.6 0.15 611.76 C0.31 611.74 0.39 611.73 0.55 611.71 C0.61 611.77 0.63
								 611.8 0.68 611.85 Z" class="st3"/>
				</g>
			</g>
			<g id="shape18418-24" v:mID="18418" v:groupContext="shape" transform="translate(-3.48337,-20.0373) rotate(-1)">
				<title>Sheet.18418</title>
				<path d="M1.02 611.53 C1.01 611.8 0.78 612 0.5 611.99 C0.22 611.98 0 611.76 0.01 611.49 C0.02 611.23 0.25 611.03
							 0.53 611.04 C0.81 611.05 1.03 611.27 1.02 611.53 Z" class="st1"/>
			</g>
			<g id="shape18419-26" v:mID="18419" v:groupContext="shape" transform="translate(-3.4837,-20.0373) rotate(-1)">
				<title>Sheet.18419</title>
				<path d="M0.51 611.73 C0.28 611.72 0.1 611.57 0.04 611.37 C0.03 611.41 0.01 611.45 0.01 611.5 C0 611.76 0.22 611.98
							 0.5 611.99 C0.78 612 1.01 611.8 1.02 611.53 C1.02 611.49 1.01 611.45 1 611.41 C0.93 611.6 0.74 611.74
							 0.51 611.73 Z" class="st2"/>
			</g>
			<g id="shape18420-28" v:mID="18420" v:groupContext="shape" transform="translate(-0.384239,0.130864) rotate(-1)">
				<title>Sheet.18420</title>
				<path d="M3.37 574.83 C2.96 574.81 2.75 574.8 2.33 574.78 C1.54 587.15 0.76 599.52 0 611.9 C0.86 611.94 1.29 611.96
							 2.16 612 C2.58 599.61 2.98 587.22 3.37 574.83 Z" class="st1"/>
			</g>
			<g id="shape18421-30" v:mID="18421" v:groupContext="shape" transform="translate(0.694671,0.112032) rotate(-1)">
				<title>Sheet.18421</title>
				<path d="M2.3 574.83 C2.09 574.82 1.98 574.82 1.77 574.81 L0 611.95 C0.43 611.97 0.65 611.98 1.08 612 C1.5 599.61
							 1.9 587.22 2.3 574.83 Z" class="st2"/>
			</g>
			<g id="group18422-32" transform="translate(1.22468,-35.6059) rotate(-1)" v:mID="18422" v:groupContext="group">
				<title>Sheet.18422</title>
				<g id="shape18423-33" v:mID="18423" v:groupContext="shape">
					<title>Sheet.18423</title>
					<path d="M1.13 611 C1.13 610.81 1.14 610.72 1.14 610.54 C0.93 610.52 0.83 610.52 0.62 610.51 C0.42 610.5 0.32
								 610.5 0.13 610.49 C0.11 610.5 0.11 610.51 0.09 610.52 C0.06 611.11 0.04 611.41 0 612 C0.45 611.6
								 0.68 611.4 1.13 611 Z" class="st3"/>
				</g>
			</g>
			<g id="shape18424-35" v:mID="18424" v:groupContext="shape" transform="translate(-2.61623,-36.9817) rotate(-1)">
				<title>Sheet.18424</title>
				<path d="M3.85 612 C4.29 611.88 4.51 611.82 4.95 611.71 C3.33 607.47 1.68 603.25 0 599.04 C1.32 603.35 2.6 607.67
							 3.85 612 Z" class="st1"/>
			</g>
			<g id="shape18425-37" v:mID="18425" v:groupContext="shape" transform="translate(-2.61878,-37.1278) rotate(-1)">
				<title>Sheet.18425</title>
				<path d="M0 599.19 C1.5 603.45 2.97 607.72 4.4 612 C4.62 611.94 4.73 611.91 4.95 611.85 C3.33 607.62 1.68 603.4 0
							 599.19 Z" class="st2"/>
			</g>
			<g id="shape18426-39" v:mID="18426" v:groupContext="shape" transform="translate(-7.95952,-27.2736) rotate(-1)">
				<title>Sheet.18426</title>
				<path d="M10.33 602.6 C9.99 602.31 9.82 602.17 9.49 601.88 C6.29 605.22 3.13 608.59 0 612 C3.41 608.83 6.85 605.7
							 10.33 602.6 Z" class="st1"/>
			</g>
			<g id="shape18427-41" v:mID="18427" v:groupContext="shape" transform="translate(-7.95984,-27.2736) rotate(-1)">
				<title>Sheet.18427</title>
				<path d="M0 612 C3.27 608.71 6.57 605.46 9.91 602.24 C9.74 602.1 9.66 602.02 9.49 601.88 C6.29 605.22 3.13 608.59
							 0 612 Z" class="st2"/>
			</g>
			<g id="shape18428-43" v:mID="18428" v:groupContext="shape" transform="translate(1.70477,-33.8217) rotate(-1)">
				<title>Sheet.18428</title>
				<path d="M0.26 608.11 C0.16 608.52 0.11 608.72 0 609.12 C4.82 610.03 9.62 610.99 14.42 612 C9.72 610.65 5 609.36
							 0.26 608.11 Z" class="st1"/>
			</g>
			<g id="shape18429-45" v:mID="18429" v:groupContext="shape" transform="translate(1.7051,-33.8217) rotate(-1)">
				<title>Sheet.18429</title>
				<path d="M14.42 612 C9.67 610.82 4.91 609.69 0.13 608.62 C0.08 608.82 0.05 608.92 0 609.12 C4.82 610.03 9.62 610.99
							 14.42 612 Z" class="st2"/>
			</g>
			<g id="group18430-47" transform="translate(0.654745,-36.065) rotate(-1)" v:mID="18430" v:groupContext="group">
				<title>Sheet.18430</title>
				<g id="shape18431-48" v:mID="18431" v:groupContext="shape">
					<title>Sheet.18431</title>
					<path d="M2.37 610.94 C2.38 610.84 2.34 610.74 2.32 610.65 C2.03 610.57 1.88 610.53 1.59 610.46 C1.49 610.19
								 1.44 610.06 1.34 609.8 C1.29 609.79 1.25 609.77 1.19 609.77 C0.85 609.75 0.55 609.88 0.32 610.08
								 C0.4 610.35 0.43 610.48 0.51 610.74 C0.31 610.95 0.2 611.06 0 611.27 C0.17 611.67 0.59 611.97 1.09
								 611.99 C1.3 612 1.5 611.95 1.68 611.87 C1.68 611.72 1.68 611.65 1.69 611.51 C1.84 611.54 1.92 611.55
								 2.07 611.58 C2.24 611.4 2.36 611.19 2.37 610.94 C2.37 610.94 2.37 610.94 2.37 610.94 Z"
							class="st3"/>
				</g>
			</g>
			<g id="shape18432-50" v:mID="18432" v:groupContext="shape" transform="translate(0.817343,-36.2994) rotate(-1)">
				<title>Sheet.18432</title>
				<path d="M1.93 611.16 C1.91 611.63 1.46 612 0.93 611.97 C0.41 611.95 0 611.54 0.02 611.07 C0.04 610.59 0.49 610.22
							 1.02 610.25 C1.54 610.27 1.95 610.68 1.93 611.16 Z" class="st1"/>
			</g>
			<g id="shape18433-52" v:mID="18433" v:groupContext="shape" transform="translate(0.817337,-36.2997) rotate(-1)">
				<title>Sheet.18433</title>
				<path d="M0.96 611.51 C0.52 611.49 0.18 611.2 0.08 610.84 C0.06 610.91 0.03 610.98 0.02 611.07 C0 611.54 0.41 611.95
							 0.93 611.97 C1.46 612 1.91 611.63 1.93 611.16 C1.93 611.08 1.91 611 1.89 610.92 C1.76 611.28 1.39 611.53
							 0.96 611.51 Z" class="st2"/>
			</g>
		</g>
	</g>
</svg>
