<svg xmlns="http://www.w3.org/2000/svg" viewBox="0 0 48 48"><path fill="#FFF" d="M13.5 44h29c.275 0 .5-.225.5-.5V14h-8.5c-.827 0-1.5-.673-1.5-1.5V4H13.5c-.275 0-.5.225-.5.5v39c0 .275.225.5.5.5z"/><path fill="#FFF" d="M42.293 13L34 4.707V12.5c0 .275.225.5.5.5h7.793z"/><path opacity=".64" fill="#605E5C" d="M43.56 12.854l-9.414-9.415A1.51 1.51 0 0033.086 3H13.5c-.827 0-1.5.673-1.5 1.5v39c0 .827.673 1.5 1.5 1.5h29c.827 0 1.5-.673 1.5-1.5V13.914c0-.4-.156-.777-.44-1.06zM34 4.707L42.293 13H34.5a.501.501 0 01-.5-.5V4.707zM42.5 44h-29a.501.501 0 01-.5-.5v-39c0-.275.225-.5.5-.5H33v8.5c0 .827.673 1.5 1.5 1.5H43v29.5c0 .275-.225.5-.5.5z"/><path fill="#AF2031" d="M6 37h18a2 2 0 002-2V17a2 2 0 00-2-2H6a2 2 0 00-2 2v18a2 2 0 002 2z"/><path fill="#FFF" d="M13.619 20h2.832L21 32h-2.675l-1.003-3h-4.68l-.984 3H9l4.619-12zm3.102 7.289l-1.455-4.343c-.146-.414-.235-.74-.27-.98h-.053c-.023.218-.11.553-.261 1.005l-1.473 4.318h3.512z"/><path fill="#C94F60" d="M39 22v8.5a.5.5 0 01-.5.5H28v1h10.5c.827 0 1.5-.673 1.5-1.5V22h-1z"/><path fill="#E08095" d="M40 23H28v-3h10.5a1.5 1.5 0 011.5 1.5V23z"/><path fill="#C94F60" d="M36.5 28h-3a.5.5 0 000 1h3a.5.5 0 000-1z"/><path fill="#E08095" d="M36.5 25h-3a.5.5 0 000 1h3a.5.5 0 000-1z"/><path fill="#AF2031" d="M30.5 28H28v1h2.5a.5.5 0 000-1z"/><path fill="#C94F60" d="M30.5 25H28v1h2.5a.5.5 0 000-1z"/></svg>