<?xml version="1.0" encoding="utf-8"?>
<!-- Generator: Adobe Illustrator 24.1.0, SVG Export Plug-In . SVG Version: 6.00 Build 0)  -->
<svg version="1.1" id="level_6" xmlns="http://www.w3.org/2000/svg" xmlns:xlink="http://www.w3.org/1999/xlink" x="0px" y="0px"
	 viewBox="0 0 20 28.78" style="enable-background:new 0 0 20 28.78;" xml:space="preserve">
<style type="text/css">
	.st0{fill:#008272;}
</style>
<g>
	<path class="st0" d="M10.09,19.65c2.95,0,5.9,0,8.86,0c1.07,0,1.18,0.14,0.97,1.22c-0.92,4.83-4.45,7.84-9.34,7.9
		c-3.23,0.04-6.47-0.01-9.7,0.02c-0.77,0.01-0.98-0.31-0.97-1.01C-0.04,25.37,0,22.95,0,20.54c0-0.71,0.27-0.9,0.95-0.9
		C4,19.67,7.04,19.65,10.09,19.65z"/>
	<path class="st0" d="M9.07,9.05c0,2.6-0.02,5.21,0.01,7.81c0.01,0.76-0.13,1-1.01,0.93c-4.04-0.36-8.01-4.08-8.06-9.08
		C-0.01,6.11,0.03,3.51,0,0.9C-0.01,0.19,0.27-0.01,0.95,0c2.45,0.04,4.9,0.05,7.34,0.02c0.64-0.01,0.8,0.25,0.79,0.84
		C9.06,3.59,9.07,6.32,9.07,9.05z"/>
	<path class="st0" d="M15.42,17.86c-1.26,0-2.51-0.02-3.77,0.01c-0.56,0.01-0.8-0.21-0.8-0.77c0.01-2.48,0.02-4.96,0-7.44
		c-0.01-0.78,0.41-0.86,1.03-0.81c3.73,0.25,7.29,3.48,7.92,7.21c0.36,2.14,0.34,1.79-1.56,1.81C17.3,17.87,16.36,17.86,15.42,17.86
		z"/>
</g>
</svg>
