<svg xmlns="http://www.w3.org/2000/svg" viewBox="0 0 48 48"><path fill="#FFF" d="M13.5 44h29c.275 0 .5-.225.5-.5V14h-8.5c-.827 0-1.5-.673-1.5-1.5V4H13.5c-.275 0-.5.225-.5.5v39c0 .275.225.5.5.5z"/><path fill="#FFF" d="M42.293 13L34 4.707V12.5c0 .275.225.5.5.5h7.793z"/><path opacity=".64" fill="#605E5C" d="M43.56 12.854l-9.414-9.415A1.51 1.51 0 0033.086 3H13.5c-.827 0-1.5.673-1.5 1.5v39c0 .827.673 1.5 1.5 1.5h29c.827 0 1.5-.673 1.5-1.5V13.914c0-.4-.156-.777-.44-1.06zM34 4.707L42.293 13H34.5a.501.501 0 01-.5-.5V4.707zM42.5 44h-29a.501.501 0 01-.5-.5v-39c0-.275.225-.5.5-.5H33v8.5c0 .827.673 1.5 1.5 1.5H43v29.5c0 .275-.225.5-.5.5z"/><path fill="#33C481" d="M36 31.03h-1.58v-1.54h-.038c-.687 1.187-1.699 1.781-3.034 1.781-.95 0-1.711-.258-2.282-.775-.572-.517-.858-1.212-.858-2.085 0-1.837 1.085-2.909 3.255-3.217l2.957-.414c0-1.67-.678-2.504-2.032-2.504-1.188 0-2.26.401-3.217 1.203v-1.618c.289-.218.784-.428 1.483-.63.7-.202 1.323-.304 1.869-.304 2.317 0 3.477 1.23 3.477 3.69v6.413zm-1.58-4.989l-2.388.337c-.816.116-1.387.31-1.715.583-.327.273-.49.715-.49 1.324 0 .495.175.891.528 1.19.354.299.806.448 1.359.448.783 0 1.43-.276 1.94-.829.51-.552.767-1.242.767-2.07v-.983zm5.58 3.23L38.468 34h-1.126l1.126-4.729H40z"/><path fill="#107C41" d="M6 37h18a2 2 0 002-2V17a2 2 0 00-2-2H6a2 2 0 00-2 2v18a2 2 0 002 2z"/><path fill="#F9F7F7" d="M9.518 32l3.851-6.017L9.841 20h2.839l1.926 3.825c.177.362.298.633.365.811h.025c.127-.29.26-.572.398-.845L17.454 20h2.605l-3.62 5.95L20.15 32h-2.772l-2.225-4.2a3.522 3.522 0 01-.265-.561h-.033a2.605 2.605 0 01-.257.543L12.307 32h-2.79z"/></svg>