<svg xmlns="http://www.w3.org/2000/svg" viewBox="0 0 64 64"><title>Excel_64x</title><path d="M38,8H19.3335A2.33373,2.33373,0,0,0,17,10.3335V20H38Z" fill="#21a366"/><path d="M56.6665,8H38V20H59V10.3335A2.33373,2.33373,0,0,0,56.6665,8Z" fill="#33c481"/><rect x="38" y="32" width="21" height="12" fill="#107c41"/><path d="M38,44V32H17V53.6665A2.33373,2.33373,0,0,0,19.3335,56h37.333A2.33373,2.33373,0,0,0,59,53.6665V44Z" fill="#185c37"/><rect x="17" y="20" width="21" height="12" fill="#107c41"/><rect x="38" y="20" width="21" height="12" fill="#21a366"/><path d="M33,20.33008V46.66992a1.73444,1.73444,0,0,1-.04.3999A2.31378,2.31378,0,0,1,30.66992,49H17V18H30.66992A2.326,2.326,0,0,1,33,20.33008Z" opacity="0.2"/><path d="M34,20.33008V44.66992A3.36171,3.36171,0,0,1,30.66992,48H17V17H30.66992A3.34177,3.34177,0,0,1,34,20.33008Z" opacity="0.1"/><path d="M33,20.33008V44.66992A2.326,2.326,0,0,1,30.66992,47H17V18H30.66992A2.326,2.326,0,0,1,33,20.33008Z" opacity="0.2"/><path d="M32,20.33008V44.66992A2.326,2.326,0,0,1,29.66992,47H17V18H29.66992A2.326,2.326,0,0,1,32,20.33008Z" opacity="0.1"/><rect x="4" y="18.00002" width="27.99996" height="27.99996" rx="2.33333" fill="#107c41"/><path d="M11.2256,39.5835l4.90759-7.60465-4.4951-7.56235h3.61724l2.45379,4.83356q.33839.68763.46538,1.02594h.03173q.24318-.54984.50768-1.06825l2.623-4.79125H24.658l-4.61145,7.52,4.72779,7.647H21.24174L18.40718,34.274a4.43255,4.43255,0,0,1-.33845-.70864h-.04231a3.345,3.345,0,0,1-.32788.68749L14.77937,39.5835Z" fill="#fff"/></svg>