<?xml version="1.0" encoding="utf-8"?>
<!-- Generator: Adobe Illustrator 24.1.0, SVG Export Plug-In . SVG Version: 6.00 Build 0)  -->
<svg version="1.1" id="exchange" xmlns="http://www.w3.org/2000/svg" xmlns:xlink="http://www.w3.org/1999/xlink" x="0px" y="0px"
	 viewBox="0 0 38 35" style="enable-background:new 0 0 38 35;" xml:space="preserve">
<style type="text/css">
	.st0{fill:#28A8EA;}
	.st1{fill:#0078D4;}
	.st2{fill:#50D9FF;}
	.st3{fill:#2086BB;}
	.st4{fill:#2497D2;}
	.st5{fill:#48C3E5;}
	.st6{fill:#1D78A8;}
	.st7{fill:#1D79A8;}
	.st8{fill:#176086;}
	.st9{fill:#2E7D92;}
	.st10{fill:#41AFCE;}
	.st11{fill:#838383;}
	.st12{fill:#155678;}
	.st13{fill:#297083;}
	.st14{fill:#FFFFFF;}
</style>
<g>
	<path class="st0" d="M35.42,1.09h-8.35c-0.63,0-1.24,0.25-1.69,0.7L5.68,21.49c-0.45,0.45-0.7,1.05-0.7,1.69v8.35
		c0,1.32,1.07,2.39,2.39,2.39h0h8.35c0.63,0,1.24-0.25,1.69-0.7l19.71-19.71c0.45-0.45,0.7-1.05,0.7-1.69V3.47
		C37.81,2.15,36.74,1.09,35.42,1.09L35.42,1.09"/>
	<path class="st1" d="M35.42,33.92h-8.35c-0.63,0-1.24-0.25-1.69-0.7l-3.99-3.99v-7.46c0-2.36,1.91-4.27,4.27-4.27h7.46l3.99,3.99
		c0.45,0.45,0.7,1.05,0.7,1.69v8.35C37.81,32.85,36.74,33.92,35.42,33.92z"/>
	<path class="st2" d="M7.37,1.09h8.35c0.63,0,1.24,0.25,1.69,0.7l3.99,3.99v7.46c0,2.36-1.91,4.27-4.27,4.27H9.67l-3.99-3.99
		c-0.45-0.45-0.7-1.05-0.7-1.69V3.47C4.98,2.15,6.05,1.09,7.37,1.09"/>
	<path class="st3" d="M4.98,23.18L4.98,23.18v5.95h13.45c0,0,0,0,0.01,0c0.77,0,1.43-0.56,1.56-1.32c-0.41,0.39-0.96,0.63-1.57,0.64
		H4.98V23.18"/>
	<path class="st4" d="M20.71,15.55c-0.19,0.3-0.42,0.57-0.68,0.81v9.8c0,0,0,0,0,0.01v1.36c0,0.09-0.01,0.18-0.03,0.27c0,0,0,0,0,0
		c0.43-0.41,0.71-1,0.71-1.64V15.55"/>
	<path class="st5" d="M18.43,7.24H4.98v0.68h12.77c0,0,0,0,0,0s0,0,0,0h0.68c0,0,0,0,0,0c0.88,0,1.59,0.71,1.59,1.59v0.01v6.85
		c0.26-0.24,0.49-0.51,0.68-0.81V9.52C20.71,8.26,19.69,7.25,18.43,7.24"/>
	<path class="st6" d="M4.98,23.18L4.98,23.18v5.26h13.45c0.61-0.01,1.16-0.25,1.57-0.64c0,0,0,0,0,0c0.02-0.09,0.03-0.18,0.03-0.27
		v-1.36c0,0.87-0.71,1.58-1.59,1.59h-0.01H4.98V23.18"/>
	<polyline class="st7" points="20.03,16.36 20.03,16.36 20.03,26.17 20.03,26.17 20.03,16.36 	"/>
	<path class="st8" d="M20.03,16.36c-0.21,0.19-0.44,0.37-0.68,0.52v9.29c0,0.88-0.71,1.59-1.59,1.59h-0.01H4.98v-4.58l0,0v4.58
		h13.45h0.01c0.88,0,1.59-0.71,1.59-1.59V16.36"/>
	<path class="st9" d="M18.43,7.92C18.43,7.92,18.43,7.92,18.43,7.92l-0.68,0c0.88,0,1.59,0.71,1.59,1.59v0.01v7.36
		c0.25-0.15,0.47-0.32,0.68-0.52V9.52V9.51C20.02,8.64,19.31,7.92,18.43,7.92"/>
	<polyline class="st10" points="17.75,7.92 17.75,7.92 4.98,7.92 17.75,7.92 17.75,7.92 	"/>
	<path class="st11" d="M4.98,11.82v11.36c0-0.63,0.25-1.24,0.7-1.69l3.99-3.99h0l-3.99-3.99C5.23,13.06,4.98,12.45,4.98,11.82"/>
	<path class="st12" d="M19.34,16.88c-0.65,0.39-1.4,0.62-2.22,0.62H9.67l-3.99,3.99c-0.45,0.45-0.7,1.05-0.7,1.69v4.58h12.77h0.01
		c0.88,0,1.59-0.71,1.59-1.59V16.88"/>
	<path class="st13" d="M17.75,7.92H4.98v3.9c0,0.63,0.25,1.24,0.7,1.69l3.99,3.99h0h7.46c0.81,0,1.57-0.23,2.22-0.62V9.52V9.51
		C19.34,8.64,18.63,7.93,17.75,7.92"/>
	<path class="st1" d="M1.79,7.92h15.96c0.88,0,1.6,0.71,1.6,1.6v15.96c0,0.88-0.71,1.6-1.6,1.6H1.79c-0.88,0-1.6-0.71-1.6-1.6V9.52
		C0.19,8.64,0.91,7.92,1.79,7.92z"/>
	<polygon class="st14" points="12.9,14 8.42,14 8.42,16.62 12.63,16.62 12.63,18.3 8.42,18.3 8.42,21.02 13.14,21.02 13.14,22.69 
		6.39,22.69 6.39,12.31 12.9,12.31 	"/>
</g>
</svg>
