<svg xmlns="http://www.w3.org/2000/svg" viewBox="0 0 64 64"><path d="M55.51 8H43.303a3.488 3.488 0 00-2.468 1.022L12.022 37.835A3.488 3.488 0 0011 40.303V52.51A3.49 3.49 0 0014.49 56h12.207a3.488 3.488 0 002.468-1.022l28.813-28.813A3.49 3.49 0 0059 23.697V11.49A3.49 3.49 0 0055.51 8z" fill="#28a8ea"/><path d="M55.51 56H43.303a3.49 3.49 0 01-2.468-1.022L35 49.143V38.24A6.24 6.24 0 0141.24 32h10.903l5.835 5.835A3.49 3.49 0 0159 40.303V52.51A3.49 3.49 0 0155.51 56z" fill="#0078d4"/><path d="M14.49 8h12.207a3.49 3.49 0 012.468 1.022L35 14.857V25.76A6.24 6.24 0 0128.76 32H17.857l-5.835-5.835A3.49 3.49 0 0111 23.697V11.49A3.49 3.49 0 0114.49 8z" fill="#50d9ff"/><path d="M33 20.33v26.34a1.734 1.734 0 01-.04.4A2.314 2.314 0 0130.67 49H11V18h19.67A2.326 2.326 0 0133 20.33z" opacity=".2"/><path d="M34 20.33v24.34A3.362 3.362 0 0130.67 48H11V17h19.67A3.342 3.342 0 0134 20.33z" opacity=".1"/><path d="M33 20.33v24.34A2.326 2.326 0 0130.67 47H11V18h19.67A2.326 2.326 0 0133 20.33z" opacity=".2"/><path d="M32 20.33v24.34A2.326 2.326 0 0129.67 47H11V18h18.67A2.326 2.326 0 0132 20.33z" opacity=".1"/><rect x="4" y="18" width="28" height="28" rx="2.333" fill="#0078d4"/><path d="M22.585 26.881h-6.547v3.829h6.145v2.454h-6.145v3.976h6.896v2.443h-9.868V24.417h9.52z" fill="#fff"/></svg>