<svg id="Icons" xmlns="http://www.w3.org/2000/svg" viewBox="0 0 40 40"><defs><style>.cls-1{fill:#fff;}.cls-2{fill:#605e5c;opacity:0.64;}.cls-3{fill:#949494;}.cls-4{fill:#1e8bcd;}</style></defs><rect class="cls-1" x="4" y="4" width="32" height="32" rx="0.5"/><path class="cls-2" d="M35.5,37H4.5A1.5,1.5,0,0,1,3,35.5V4.5A1.5,1.5,0,0,1,4.5,3h31A1.5,1.5,0,0,1,37,4.5v31A1.5,1.5,0,0,1,35.5,37ZM4.5,4a.5.5,0,0,0-.5.5v31a.5.5,0,0,0,.5.5h31a.5.5,0,0,0,.5-.5V4.5a.5.5,0,0,0-.5-.5Z"/><path class="cls-3" d="M13,25.65V17H12v8.65A2.35,2.35,0,0,0,14.35,28H18V27H14.35A1.34,1.34,0,0,1,13,25.65Z"/><path class="cls-3" d="M25.65,12H17v1h8.65A1.34,1.34,0,0,1,27,14.35V18h1V14.35A2.35,2.35,0,0,0,25.65,12Z"/><path class="cls-3" d="M14.69,11a.31.31,0,0,1,.31.31v3.38a.31.31,0,0,1-.31.31H11.31a.31.31,0,0,1-.31-.31V11.31a.31.31,0,0,1,.31-.31h3.38m0-1H11.31A1.31,1.31,0,0,0,10,11.31v3.38A1.31,1.31,0,0,0,11.31,16h3.38A1.31,1.31,0,0,0,16,14.69V11.31A1.31,1.31,0,0,0,14.69,10Z"/><rect class="cls-4" x="19" y="19" width="11" height="11" rx="1.85"/></svg>