<svg xmlns="http://www.w3.org/2000/svg" viewBox="0 0 32 32"><path fill="#FFB900" d="M15 8l-1.414-1.414A2 2 0 0012.172 6H3a1 1 0 00-1 1v18.5a.5.5 0 00.5.5h27a.5.5 0 00.5-.5V9a1 1 0 00-1-1H15z"/><path fill="#FFD75E" d="M15 8l-1.414 1.414a2 2 0 01-1.414.586H2v15.5a.5.5 0 00.5.5h27a.5.5 0 00.5-.5V9a1 1 0 00-1-1H15z"/><linearGradient id="a" gradientUnits="userSpaceOnUse" x1="16" y1="8" x2="16" y2="26"><stop offset="0" stop-color="#fff" stop-opacity="0"/><stop offset="1" stop-color="#ffd75e" stop-opacity=".3"/></linearGradient><path fill="url(#a)" d="M15 8l-1.414 1.414a2 2 0 01-1.414.586H2v15.5a.5.5 0 00.5.5h27a.5.5 0 00.5-.5V9a1 1 0 00-1-1H15z"/><path opacity=".4" fill="#FFF" d="M16.5 8l-2.121 2.121a3 3 0 01-2.122.879H2v-1h10.172a2 2 0 001.414-.586L15 8h1.5z"/><path fill="#DA7B16" d="M2 25h28v.5a.5.5 0 01-.5.5h-27a.5.5 0 01-.5-.5V25z"/></svg>