<svg xmlns="http://www.w3.org/2000/svg" viewBox="0 0 32 32"><path fill="#FFF" stroke="#979593" stroke-miterlimit="10" d="M23.086 2.5H9.5a1 1 0 00-1 1v25a1 1 0 001 1h19a1 1 0 001-1V8.914a1 1 0 00-.293-.707l-5.414-5.414a1 1 0 00-.707-.293z"/><path fill="none" stroke="#979593" stroke-miterlimit="10" d="M23.5 2.5v5a1 1 0 001 1h5"/><path fill="#008272" d="M3.5 25h11a1.5 1.5 0 001.5-1.5v-11a1.5 1.5 0 00-1.5-1.5h-11A1.5 1.5 0 002 12.5v11A1.5 1.5 0 003.5 25z"/><path fill="#FFF" d="M11.91 15.3H7.833v1.93h3.822v1.293H7.833V22H6.187v-8h5.723v1.3z"/><path fill="none" stroke="#C8C6C4" stroke-miterlimit="10" d="M25.5 18.5h-6a1 1 0 01-1-1v-4a1 1 0 011-1h6a1 1 0 011 1v4a1 1 0 01-1 1zM25.5 23.5h-6a1 1 0 01-1-1v-1a1 1 0 011-1h6a1 1 0 011 1v1a1 1 0 01-1 1z"/><path fill="none" stroke="#008272" stroke-linecap="round" stroke-linejoin="round" stroke-miterlimit="10" d="M20.593 14.654L22.5 16.52l2.992-4.052"/></svg>