<?xml version="1.0" encoding="utf-8"?>
<!-- Generator: Adobe Illustrator 24.2.0, SVG Export Plug-In . SVG Version: 6.00 Build 0)  -->
<svg version="1.1" id="Layer_1" xmlns="http://www.w3.org/2000/svg" xmlns:xlink="http://www.w3.org/1999/xlink" x="0px" y="0px"
	 viewBox="0 0 1000 1000" style="enable-background:new 0 0 1000 1000;" xml:space="preserve">
<style type="text/css">
	.st0{fill:#7B3E98;}
</style>
<g>
	<path class="st0" d="M552.8,139.8l-432.2,73.6L123,789l433,71.2L552.8,139.8z M352.2,679.3l-61.9-14.4l1.1-303.1l61.9-14.9
		L352.2,679.3z"/>
	<path class="st0" d="M763.1,390.4v-37.6H593.2c-8.3,0-15.1,6.8-15.1,15.1v387.8l23.5,22.1l69.9-69.9h-46.9c-3,0-5.4-2.4-5.4-5.4
		V400.1c0-5.8,4.7-10.5,10.6-10.5L763.1,390.4z"/>
	<path class="st0" d="M810,225.2l-71,70.4h42.4c2.8,0,5.1,2.3,5.1,5.1v297c0,5.9-4.8,10.7-10.7,10.7H642.5v37.9h171.3
		c8,0,14.4-6.5,14.4-14.4V301.2c0-2.8,2.3-5.1,5.1-5.1h46.2L810,225.2z"/>
</g>
</svg>
