<?xml version="1.0" encoding="utf-8"?>
<!-- Generator: Adobe Illustrator 23.0.3, SVG Export Plug-In . SVG Version: 6.00 Build 0)  -->
<svg version="1.1" id="Layer_1" xmlns="http://www.w3.org/2000/svg" xmlns:xlink="http://www.w3.org/1999/xlink" x="0px" y="0px"
	 viewBox="0 0 64 64" style="enable-background:new 0 0 64 64;" xml:space="preserve">
<style type="text/css">
	.st0{fill-rule:evenodd;clip-rule:evenodd;fill:#1490DF;}
	.st1{opacity:0.2;enable-background:new    ;}
	.st2{fill:none;}
	.st3{fill:#FFFFFF;}
</style>
<title>Kaizala-app-icon</title>
<g>
	<title>Kaizala_64x64</title>
	<path class="st0" d="M63,31v2c0,14.9-12.1,27-27,27S9,47.9,9,33V16.7c0-1.1-0.4-2.1-1.2-2.8L4,10C2.7,8.7,2.7,6.4,4,5
		c0.7-0.7,1.6-1,2.5-1H36c7.6,0,14.8,3.2,20,8.8c0.3,0.4,0.6,0.7,0.9,1.1c1,1.2,1.9,2.5,2.6,3.8c0.2,0.4,0.5,0.9,0.7,1.3
		C62.1,22.8,63,26.8,63,31z"/>
	<path class="st1" d="M60.2,19L37,42.3c-2.2,2.2-5.8,2.2-8,0c0,0,0,0,0,0l-9-9c-0.5-0.5-0.7-1.2-0.4-1.9c0-0.1,0.1-0.2,0.2-0.3
		c0.1-0.1,0.1-0.2,0.2-0.2l1.8-1.8c0.7-0.7,1.8-0.7,2.5,0c0,0,0,0,0,0l7.9,7.9c0.5,0.5,1.3,0.5,1.8,0l23-23c1,1.2,1.9,2.5,2.6,3.8
		C59.8,18.2,60,18.6,60.2,19z"/>
	<rect x="1" class="st2" width="64" height="64"/>
	<path class="st1" d="M59.5,17.7l-23,23c-1.9,1.9-5,1.9-7,0c0,0,0,0,0,0L20,31.2c-0.1-0.1-0.1-0.2-0.2-0.2c-0.1-0.1-0.1-0.2-0.2-0.3
		c-0.2-0.4-0.2-0.9,0-1.3c0.1-0.2,0.2-0.4,0.4-0.6l1.8-1.8c0.7-0.7,1.8-0.7,2.5,0c0,0,0,0,0,0l7.9,7.9c0.5,0.5,1.3,0.5,1.8,0
		L56,12.8c0.3,0.4,0.6,0.7,0.9,1.1C57.9,15.1,58.8,16.4,59.5,17.7z"/>
	<path class="st3" d="M33,41c-0.8,0-1.6-0.3-2.1-0.9l-10-10c-1.2-1.2-1.2-3.1,0-4.2l0,0c1.2-1.2,3.1-1.2,4.2,0l7.9,7.9L57.3,9.4
		c1.2-1.2,3.1-1.2,4.2,0l0,0c1.2,1.2,1.2,3.1,0,4.2L35.1,40.1C34.6,40.7,33.8,41,33,41z"/>
</g>
</svg>
