<svg viewBox="0 0 32 32" fill="none" xmlns="http://www.w3.org/2000/svg"><path d="M0 8l8-8h22.729C31.433 0 32 .567 32 1.271V8l-16 3.667L0 8z" fill="#FEE200"/><path d="M9.905 15.762L0 19.857V8h8l1.905 7.762z" fill="url(#paint0_linear)"/><path d="M32 16.095V8H8v8.19l10.905 1.953L32 16.095z" fill="url(#paint1_linear)"/><path d="M32 24v-8H6.238v8.048l15.857 1.476L32 24z" fill="url(#paint2_linear)"/><path d="M8 24l-8 2.667V16h8v8z" fill="url(#paint3_linear)"/><path d="M8 24l-1.238 3.81L8 32h16l8-8H8z" fill="url(#paint4_linear)"/><path d="M8 32H1.505A1.502 1.502 0 010 30.495V24h8v8z" fill="url(#paint5_linear)"/><defs><linearGradient id="paint0_linear" x1="4.952" y1="19.857" x2="4.952" y2="8" gradientUnits="userSpaceOnUse"><stop stop-color="#E25A01"/><stop offset=".61" stop-color="#E15801"/><stop offset=".878" stop-color="#E05101"/><stop offset="1" stop-color="#DE4A01"/></linearGradient><linearGradient id="paint1_linear" x1="20" y1="18.143" x2="20" y2="8" gradientUnits="userSpaceOnUse"><stop stop-color="#F18C0A"/><stop offset=".437" stop-color="#F0880A"/><stop offset=".868" stop-color="#EC7C0A"/><stop offset="1" stop-color="#EB770A"/></linearGradient><linearGradient id="paint2_linear" x1="19.119" y1="25.524" x2="19.119" y2="16" gradientUnits="userSpaceOnUse"><stop stop-color="#D83B01"/><stop offset=".472" stop-color="#D63701"/><stop offset=".937" stop-color="#CE2B01"/><stop offset="1" stop-color="#CD2901"/></linearGradient><linearGradient id="paint3_linear" x1="4" y1="26.667" x2="4" y2="16" gradientUnits="userSpaceOnUse"><stop offset="0" stop-color="#BF3207"/><stop offset=".472" stop-color="#BB3207"/><stop offset=".937" stop-color="#AF3007"/><stop offset="1" stop-color="#AD3007"/></linearGradient><linearGradient id="paint4_linear" x1="19.381" y1="32" x2="19.381" y2="24" gradientUnits="userSpaceOnUse"><stop stop-color="#854A81"/><stop offset=".482" stop-color="#82497E"/><stop offset=".812" stop-color="#794475"/><stop offset="1" stop-color="#703F6C"/></linearGradient><linearGradient id="paint5_linear" x1="4" y1="32" x2="4" y2="24" gradientUnits="userSpaceOnUse"><stop stop-color="#703D6E"/><stop offset=".631" stop-color="#6C3B6A"/><stop offset="1" stop-color="#663764"/></linearGradient></defs></svg>