<svg width="32" height="32" viewBox="0 0 32 32" fill="none" xmlns="http://www.w3.org/2000/svg"><path fill-rule="evenodd" clip-rule="evenodd" d="M28 5V22.5858L22.5858 28H5C4.44772 28 4 27.5523 4 27V9.41421L9.41421 4H27C27.5523 4 28 4.44772 28 5Z" fill="white"/><path opacity="0.64" d="M28.5 5V22.7929L22.7929 28.5H5C4.17157 28.5 3.5 27.8284 3.5 27V9.20711L9.20711 3.5H27C27.8284 3.5 28.5 4.17157 28.5 5Z" stroke="#605E5C"/><rect x="7" y="9" width="4" height="2" rx="1" fill="#ECCF35"/><rect x="7" y="13" width="4" height="2" rx="1" fill="#E25A01"/><rect x="7" y="17" width="4" height="2" rx="1" fill="#BF3207"/><rect x="7" y="21" width="4" height="2" rx="1" fill="#773C6E"/><rect x="13" y="9" width="12" height="2" rx="1" fill="#FED912"/><rect x="13" y="13" width="12" height="2" rx="1" fill="#F18C0A"/><rect x="13" y="17" width="12" height="2" rx="1" fill="#D83B01"/><rect x="13" y="21" width="12" height="2" rx="1" fill="#974B8B"/></svg>