<svg width="96" height="96" viewBox="0 0 96 96" fill="none" xmlns="http://www.w3.org/2000/svg">
<g clip-path="url(#clip0)">
<path d="M20.7448 68.902C18.6683 69.6564 17.5753 71.9661 18.5754 73.936C21.004 78.7205 24.5729 82.8597 28.9916 85.9738C34.5046 89.8592 41.0757 91.9621 47.8202 91.9995C54.5647 92.0368 61.1588 90.0068 66.7145 86.1828C71.1674 83.1179 74.7819 79.0185 77.2635 74.2612C78.2853 72.3024 77.218 69.9808 75.15 69.2034L73.2338 68.483C71.1658 67.7056 68.8876 68.7767 67.7634 70.6786C66.0745 73.5356 63.7777 76.0066 61.0178 77.9062C57.1535 80.566 52.567 81.978 47.8759 81.952C43.1848 81.926 38.6143 80.4633 34.7797 77.7608C32.041 75.8307 29.7717 73.3344 28.1146 70.4589C27.0115 68.5447 24.7453 67.4484 22.6688 68.2029L20.7448 68.902Z" fill="url(#paint0_linear)"/>
<path d="M36.3858 53.6465L42.338 47.6777C45.4642 44.5427 50.542 44.5427 53.6682 47.6777L59.6204 53.6465C61.1214 55.1517 63.1597 55.9977 65.2855 55.9977H72.0046C85.2603 55.9977 96.0062 45.2518 96.0062 31.9961V16.4502C96.0062 13.6452 94.558 10.9936 91.9855 9.8755C77.5007 3.57969 55.2885 3.99433 48.0031 3.99432C40.7177 3.99433 18.5054 3.57969 4.02065 9.8755C1.44815 10.9936 0 13.6452 0 16.4502V31.9961C0 45.2518 10.7459 55.9977 24.0015 55.9977H30.7207C32.8464 55.9977 34.8848 55.1517 36.3858 53.6465Z" fill="url(#paint1_linear)"/>
<rect x="39.002" y="11.9949" width="18.0012" height="8.00051" rx="4.00026" fill="#0078D4"/>
</g>
<defs>
<linearGradient id="paint0_linear" x1="38.0025" y1="58.9978" x2="61.504" y2="100.501" gradientUnits="userSpaceOnUse">
<stop stop-color="#22B8F1"/>
<stop offset="1" stop-color="#018DE1"/>
</linearGradient>
<linearGradient id="paint1_linear" x1="35.4805" y1="-7.31075" x2="82.4401" y2="57.3891" gradientUnits="userSpaceOnUse">
<stop stop-color="#50E6FF"/>
<stop offset="0.675951" stop-color="#0095E6"/>
<stop offset="1" stop-color="#0078D4"/>
</linearGradient>
<clipPath id="clip0">
<rect width="96" height="96" fill="white"/>
</clipPath>
</defs>
</svg>
