<svg viewBox="0 0 32 32" fill="none" xmlns="http://www.w3.org/2000/svg"><path d="M14 12h2v10h-2V12zM8 6c.552 0 1.068.104 1.547.313A4.002 4.002 0 0112 10a3.95 3.95 0 01-.313 1.563 4.015 4.015 0 01-2.14 2.125C9.067 13.896 8.552 14 8 14a3.95 3.95 0 01-1.563-.313 4.064 4.064 0 01-2.125-2.124A3.949 3.949 0 014 10c0-.552.104-1.068.313-1.547a4.016 4.016 0 012.125-2.14A3.949 3.949 0 018 6zm0 6c.281 0 .542-.052.781-.156.24-.104.448-.245.625-.422.188-.188.334-.401.438-.64.104-.24.156-.5.156-.782H8V8c-.281 0-.542.052-.781.156-.24.104-.453.25-.64.438a2.004 2.004 0 00-.423.625c-.104.24-.156.5-.156.781s.052.542.156.781c.104.24.245.453.422.64a2.2 2.2 0 00.64.423c.24.104.5.156.782.156zm4 6H4v-2h8v2zm-8 2h8v2H4v-2zm21-4c.688 0 1.333.135 1.938.406.604.26 1.13.62 1.578 1.078.458.448.817.974 1.078 1.578.27.605.406 1.25.406 1.938v1h2v10H18V22h2v-1c0-.688.13-1.333.39-1.938a5.013 5.013 0 012.657-2.656A4.79 4.79 0 0125 16zm-3 6h6v-1c0-.417-.078-.807-.234-1.172a3.009 3.009 0 00-.641-.953 3.009 3.009 0 00-.953-.64A2.942 2.942 0 0025 18c-.417 0-.807.078-1.172.234-.364.157-.682.37-.953.641-.27.27-.484.588-.64.953A2.942 2.942 0 0022 21v1zm8 2H20v6h10v-6zm-10-8.563a7.348 7.348 0 00-1.172 1.313c-.333.48-.61.995-.828 1.547V10h2v5.438zM24 6v7.578a6.75 6.75 0 00-1.016.203 8.488 8.488 0 00-.984.344V6h2zm4 2v6.125a8.488 8.488 0 00-.984-.344A6.75 6.75 0 0026 13.578V8h2zm2-6c.27 0 .526.052.766.156.25.104.463.25.64.438.188.177.334.39.438.64A1.9 1.9 0 0132 4v14.297a7.607 7.607 0 00-.828-1.547A7.348 7.348 0 0030 15.437V4H2v20h14v2H2c-.27 0-.531-.052-.781-.156a2.207 2.207 0 01-.64-.422 2.207 2.207 0 01-.423-.64A2.012 2.012 0 010 24V4c0-.27.052-.526.156-.766a1.96 1.96 0 01.422-.64c.188-.188.401-.334.64-.438C1.469 2.052 1.73 2 2 2h28z" fill="#000"/></svg>