<svg id="Layer_1" data-name="Layer 1" xmlns="http://www.w3.org/2000/svg" viewBox="0 0 64 64"><defs><style>.cls-1{fill:#0364b8;}.cls-2{fill:#0078d4;}.cls-3{fill:#1490df;}.cls-4{fill:#28a8ea;}</style></defs><title>OneDrive-64-nopadding</title><g id="STYLE_COLOR" data-name="STYLE COLOR"><path class="cls-1" d="M24.4,22.64h0l13.43,8,8-3.37h0A13,13,0,0,1,51,26.25c.29,0,.59,0,.88,0a20,20,0,0,0-36.08-6H16A15.87,15.87,0,0,1,24.4,22.64Z"/><path class="cls-2" d="M24.41,22.64h0A15.87,15.87,0,0,0,16,20.25h-.2A16,16,0,0,0,2.88,45.4l11.84-5L20,38.19l11.73-4.93,6.12-2.58Z"/><path class="cls-3" d="M51.88,26.28c-.29,0-.59,0-.88,0a13,13,0,0,0-5.15,1.06h0l-8,3.37,2.32,1.39,7.61,4.56,3.32,2,11.35,6.8A13,13,0,0,0,51.88,26.28Z"/><path class="cls-4" d="M51.09,38.62l-3.32-2-7.61-4.56-2.32-1.39-6.12,2.58L20,38.19l-5.27,2.22-11.84,5A16,16,0,0,0,16,52.25H51a13,13,0,0,0,11.44-6.83Z"/></g></svg>