<svg xmlns="http://www.w3.org/2000/svg" viewBox="0 0 32 32"><path fill="#FFF" stroke="#979593" stroke-miterlimit="10" d="M28 4.5h.5a1 1 0 011 1v5a1 1 0 01-1 1H28a.5.5 0 00-.5.5v16.5a1 1 0 01-1 1h-17a1 1 0 01-1-1v-25a1 1 0 011-1h17a1 1 0 011 1V4a.5.5 0 00.5.5z"/><g fill="#C8C6C4"><path d="M24.5 15h-9a.5.5 0 010-1h9a.5.5 0 010 1zM24.5 17h-9a.5.5 0 010-1h9a.5.5 0 010 1zM24.5 19h-9a.5.5 0 010-1h9a.5.5 0 010 1zM24.5 21h-9a.5.5 0 010-1h9a.5.5 0 010 1zM24.5 23h-9a.5.5 0 010-1h9a.5.5 0 010 1z"/></g><path fill="#7719AA" d="M3.5 25h11a1.5 1.5 0 001.5-1.5v-11a1.5 1.5 0 00-1.5-1.5h-11A1.5 1.5 0 002 12.5v11A1.5 1.5 0 003.5 25z"/><path fill="#FFF" d="M12.542 22h-1.816S7.073 16.464 7 16.316V22H5.312v-8h2.06l3.663 5.684c-.03-.191-.013-5.672-.013-5.672l1.52-.012v8z"/></svg>