<svg xmlns="http://www.w3.org/2000/svg" viewBox="0 0 64 64"><title>OneNote_64x</title><path d="M56,56H19.33229A2.33229,2.33229,0,0,1,17,53.66771V10.33229A2.33229,2.33229,0,0,1,19.33229,8H56.66771A2.32377,2.32377,0,0,1,58.99,10.33229L59,53A3.6353,3.6353,0,0,1,56,56Z" fill="#ca64ea"/><rect x="47" y="20" width="12" height="12" fill="#ae4bd5"/><rect x="47" y="32" width="12" height="12" fill="#9332bf"/><path d="M47,44H59a0,0,0,0,1,0,0v9.67A2.33,2.33,0,0,1,56.67,56H47a0,0,0,0,1,0,0V44A0,0,0,0,1,47,44Z" fill="#7719aa"/><path d="M33,20.33008V46.66992a1.73444,1.73444,0,0,1-.04.3999A2.31378,2.31378,0,0,1,30.66992,49H17V18H30.66992A2.326,2.326,0,0,1,33,20.33008Z" opacity="0.2"/><path d="M34,20.33008V44.66992A3.36171,3.36171,0,0,1,30.66992,48H17V17H30.66992A3.34177,3.34177,0,0,1,34,20.33008Z" opacity="0.1"/><path d="M33,20.33008V44.66992A2.326,2.326,0,0,1,30.66992,47H17V18H30.66992A2.326,2.326,0,0,1,33,20.33008Z" opacity="0.2"/><path d="M32,20.33008V44.66992A2.326,2.326,0,0,1,29.66992,47H17V18H29.66992A2.326,2.326,0,0,1,32,20.33008Z" opacity="0.1"/><rect x="4" y="18" width="28" height="28" rx="2.33333" fill="#7719aa"/><path d="M11.669,24.41667h3.16307l6.215,10.05823q.42444.677.63666,1.08937h.04042a15.43693,15.43693,0,0,1-.091-2.06241V24.41667h2.6982V39.58333H21.37045L14.92306,29.25012a8.112,8.112,0,0,1-.576-1.06823h-.05053a22.14582,22.14582,0,0,1,.08084,2.26337v9.13807H11.669Z" fill="#fff"/></svg>