<svg xmlns="http://www.w3.org/2000/svg" viewBox="0 0 48 48"><path opacity=".64" fill="#605E5C" d="M39.5 45h-25c-.827 0-1.5-.673-1.5-1.5v-39c0-.827.673-1.5 1.5-1.5h25c.827 0 1.5.673 1.5 1.5v39c0 .827-.673 1.5-1.5 1.5zm-25-41a.5.5 0 00-.5.5v39a.5.5 0 00.5.5h25a.5.5 0 00.5-.5v-39a.5.5 0 00-.5-.5h-25z"/><path fill="#9332BF" d="M43 28h-2v-9h2a1 1 0 011 1v7a1 1 0 01-1 1z"/><path fill="#AE4BD5" d="M43 17h-2V8h2a1 1 0 011 1v7a1 1 0 01-1 1z"/><path fill="#7719AA" d="M43 39h-2v-9h2a1 1 0 011 1v7a1 1 0 01-1 1z"/><path fill="#FFF" d="M14.5 44h25a.5.5 0 00.5-.5v-39a.5.5 0 00-.5-.5h-25a.5.5 0 00-.5.5v39a.5.5 0 00.5.5z"/><path fill="#7719AA" d="M6 37h18a2 2 0 002-2V17a2 2 0 00-2-2H6a2 2 0 00-2 2v18a2 2 0 002 2z"/><path fill="#F9F7F7" d="M9.203 20h3.255l5.76 8.703-.03-8.703h2.578v12h-3.12l-5.838-8.556c.047.369.07 8.556.07 8.556H9.203V20z"/></svg>