<svg xmlns="http://www.w3.org/2000/svg" viewBox="0 0 64 64"><defs><linearGradient id="a" x1="38" y1="33" x2="38" y2="56" gradientUnits="userSpaceOnUse"><stop offset="0" stop-color="#35b8f1"/><stop offset="1" stop-color="#28a8ea"/></linearGradient></defs><path d="M58.963 33.037a1.19 1.19 0 00-.576-1.026l-.006-.004-.023-.013-18.732-10.976a2.557 2.557 0 00-.251-.148 2.529 2.529 0 00-2.305 0 2.555 2.555 0 00-.251.148L18.087 31.994l-.023.013-.006.004a1.202 1.202 0 00.029 2.07l18.732 10.975a2.582 2.582 0 00.25.148h.001a2.529 2.529 0 002.304 0 2.584 2.584 0 00.252-.148L58.358 34.08a1.19 1.19 0 00.605-1.043z" fill="#123b6d"/><path fill="#0364b8" d="M19.556 25.778H32v11.407H19.556z"/><path d="M57 15v-4.667A2.354 2.354 0 0054.625 8h-33.25A2.354 2.354 0 0019 10.333V15z" fill="#0358a7"/><path fill="#0078d4" d="M19 14h13v12H19z"/><path fill="#28a8ea" d="M32 14h13v12H32z"/><path fill="#50d9ff" d="M45 14h12v12H45z"/><path fill="#28a8ea" d="M45 26h12v12H45z"/><path fill="#0078d4" d="M32 26h13v12H32z"/><path fill="#0364b8" d="M32 38h13v12H32z"/><path fill="#14447d" d="M19.556 37.185H32v10.37H19.556z"/><path fill="#0078d4" d="M45 38h12v11H45z"/><path d="M58.416 33.947v.001l-.022.013-.006.003L39.42 44.107a2.74 2.74 0 01-.254.136A2.754 2.754 0 0138 44.5c-.023 0-.044-.007-.067-.007l-1.064-.584a2.61 2.61 0 01-.254-.14L17.614 33.337l-.006-.003-.01-.005L17 33v20.536A2.549 2.549 0 0019.625 56h36.821A2.682 2.682 0 0058 55.51l-.04-.022A2.405 2.405 0 0059 53.536V33a1.083 1.083 0 01-.584.947z" fill="url(#a)"/><path d="M58.417 33.948l-.024.013-.005.003L39.42 44.107a2.672 2.672 0 01-.254.136 2.779 2.779 0 01-2.334 0 2.667 2.667 0 01-.254-.136L17.613 33.964l-.006-.003-.023-.013A1.084 1.084 0 0117 33v20.536A2.548 2.548 0 0019.625 56h36.75A2.548 2.548 0 0059 53.536V33a1.084 1.084 0 01-.583.948z" fill="#1490df"/><path d="M19.63 56h36.816A2.684 2.684 0 0058 55.51L36.869 43.909a2.653 2.653 0 01-.254-.14L17.614 33.337l-.006-.003-.01-.005L17 33v20.466A2.583 2.583 0 0019.63 56z" fill="#28a8ea"/><path d="M57 33.57v1.13l-17.58 9.41c-.08.05-.17.09-.25.13a2.678 2.678 0 01-1.17.26h-.06l-1.07-.59c-.09-.04-.17-.09-.26-.14L19 34.1v-1.14l18.1 9.93c.09.06.15.09.2.12l.88.48a1.665 1.665 0 00.56-.15c.05-.03 14.45-7.73 18.26-9.77z" fill="#0a2767" opacity=".5"/><path d="M33 20.33v26.34a1.734 1.734 0 01-.04.4A2.314 2.314 0 0130.67 49H17V33l.51.28a1.01 1.01 0 01-.03-.24 1.193 1.193 0 01.58-1.03c.01-.01.02-.01.03-.02l1.47-.86V26H19v-8h11.67A2.326 2.326 0 0133 20.33z" opacity=".2"/><path d="M34 20.33v24.34A3.362 3.362 0 0130.67 48H17V33l.51.28a1.01 1.01 0 01-.03-.24 1.193 1.193 0 01.58-1.03c.01-.01.02-.01.03-.02l1.47-.86V26H19v-9h11.67A3.342 3.342 0 0134 20.33z" opacity=".1"/><path d="M33 20.33v24.34A2.326 2.326 0 0130.67 47H17V33l.51.28a1.01 1.01 0 01-.03-.24 1.193 1.193 0 01.58-1.03c.01-.01.02-.01.03-.02l1.47-.86V26H19v-8h11.67A2.326 2.326 0 0133 20.33z" opacity=".2"/><path d="M32 20.33v24.34A2.326 2.326 0 0129.67 47H17V33l.51.28a1.01 1.01 0 01-.03-.24 1.193 1.193 0 01.58-1.03c.01-.01.02-.01.03-.02l1.47-.86V26H19v-8h10.67A2.326 2.326 0 0132 20.33z" opacity=".1"/><rect x="4" y="18" width="28" height="28" rx="2.333" fill="#0f78d4"/><path d="M11.73 28.243a6.342 6.342 0 012.491-2.751 7.53 7.53 0 013.958-.992 7.002 7.002 0 013.661.94 6.278 6.278 0 012.424 2.63 8.489 8.489 0 01.849 3.865 8.95 8.95 0 01-.874 4.045 6.43 6.43 0 01-2.496 2.72 7.279 7.279 0 01-3.8.967 7.172 7.172 0 01-3.742-.951 6.376 6.376 0 01-2.455-2.634 8.28 8.28 0 01-.859-3.82 9.184 9.184 0 01.844-4.019zm2.655 6.458a4.12 4.12 0 001.4 1.81 3.657 3.657 0 002.19.66 3.842 3.842 0 002.336-.68 3.947 3.947 0 001.36-1.815 7.015 7.015 0 00.435-2.526 7.678 7.678 0 00-.409-2.557 4.048 4.048 0 00-1.314-1.882 3.62 3.62 0 00-2.317-.716 3.781 3.781 0 00-2.24.665 4.157 4.157 0 00-1.431 1.826 7.243 7.243 0 00-.01 5.215z" fill="#fff"/><path d="M40.417 43.575l-.996.532A2.721 2.721 0 0138 44.5l-.055-.001 20.02 10.992a2.438 2.438 0 001.01-1.727z" opacity=".05"/><path d="M57.969 55.493a2.538 2.538 0 00.698-.757L39.365 44.14a2.81 2.81 0 01-.198.103A2.754 2.754 0 0138 44.5l-.055-.001z" opacity=".05"/></svg>