<svg xmlns="http://www.w3.org/2000/svg" viewBox="0 0 32 32"><g stroke="#979593" stroke-miterlimit="10"><path fill="#FFF" d="M20.086 2.5H6.5a1 1 0 00-1 1v25a1 1 0 001 1h19a1 1 0 001-1V8.914a1 1 0 00-.293-.707l-5.414-5.414a1 1 0 00-.707-.293z"/><path fill="none" d="M20.5 2.5v5a1 1 0 001 1h5"/></g><g fill="#C8C6C4"><path d="M23.5 13h-15a.5.5 0 010-1h15a.5.5 0 010 1zM23.5 15h-15a.5.5 0 010-1h15a.5.5 0 010 1z"/></g><path fill="#C8C6C4" d="M23.5 17h-15a.5.5 0 010-1h15a.5.5 0 010 1z"/><path fill="#D65532" d="M19 20c.551 0 1 .449 1 1v4c0 .551-.449 1-1 1h-6c-.551 0-1-.449-1-1v-4c0-.551.449-1 1-1h6m0-1h-6a2 2 0 00-2 2v4a2 2 0 002 2h6a2 2 0 002-2v-4a2 2 0 00-2-2zM5 26h4.75a.25.25 0 00.25-.25v-5.5a.25.25 0 00-.25-.25H5a1 1 0 00-1 1v4a1 1 0 001 1zM27 20h-4.75a.25.25 0 00-.25.25v5.5c0 .138.112.25.25.25H27a1 1 0 001-1v-4a1 1 0 00-1-1z"/></svg>