<svg xmlns="http://www.w3.org/2000/svg" viewBox="0 0 64 64"><title>PowerPoint_64x</title><path d="M59.00011,31.75v.5A23.823,23.823,0,0,1,35.25011,56h-.5a23.64956,23.64956,0,0,1-16.79-7c-.31983-.31982-.64014-.66016-.93995-1-.29-.31982-.56982-.66016-.83984-1a23.55988,23.55988,0,0,1-5.18018-14.75v-.5A23.49968,23.49968,0,0,1,15.43029,18a11.83328,11.83328,0,0,1,.75-1A23.70439,23.70439,0,0,1,34.75011,8h.5A23.823,23.823,0,0,1,59.00011,31.75Z" fill="#d35230"/><path d="M59.00011,32v-.22761A23.84219,23.84219,0,0,0,35.22767,8h-.22756V32Z" fill="#ff8f6b"/><path d="M11.00011,31.77239V32h24V8h-.2275A23.84225,23.84225,0,0,0,11.00011,31.77239Z" fill="#ed6c47"/><path d="M33.00011,20.33008V46.66992a1.73444,1.73444,0,0,1-.04.3999A2.31378,2.31378,0,0,1,30.67,49h-12.71c-.31983-.31982-.64014-.66016-.93995-1-.29-.31982-.56982-.66016-.83984-1a23.55988,23.55988,0,0,1-5.18018-14.75v-.5A23.49968,23.49968,0,0,1,15.43029,18H30.67A2.326,2.326,0,0,1,33.00011,20.33008Z" opacity="0.2"/><path d="M34.00011,20.33008V44.66992A3.3617,3.3617,0,0,1,30.67,48H17.02013c-.29-.31982-.56982-.66016-.83984-1a23.55988,23.55988,0,0,1-5.18018-14.75v-.5A23.49968,23.49968,0,0,1,15.43029,18a11.83328,11.83328,0,0,1,.75-1H30.67A3.34176,3.34176,0,0,1,34.00011,20.33008Z" opacity="0.1"/><path d="M33.00011,20.33008V44.66992A2.326,2.326,0,0,1,30.67,47H16.18029a23.55988,23.55988,0,0,1-5.18018-14.75v-.5A23.49968,23.49968,0,0,1,15.43029,18H30.67A2.326,2.326,0,0,1,33.00011,20.33008Z" opacity="0.2"/><path d="M32.00011,20.33008V44.66992A2.326,2.326,0,0,1,29.67,47H16.18029a23.55988,23.55988,0,0,1-5.18018-14.75v-.5A23.49968,23.49968,0,0,1,15.43029,18H29.67A2.326,2.326,0,0,1,32.00011,20.33008Z" opacity="0.1"/><rect x="4.0001" y="18" width="28" height="28" rx="2.33362" fill="#c43e1c"/><path d="M18.46264,24.15741a6.16433,6.16433,0,0,1,4.15282,1.24748A4.519,4.519,0,0,1,24.056,29.01716a5.13027,5.13027,0,0,1-.71236,2.70107,4.8126,4.8126,0,0,1-2.02628,1.83868,6.7279,6.7279,0,0,1-3.0447.65629H15.39156V39.713h-2.955V24.15741Zm-3.07108,7.68015H17.935a3.24545,3.24545,0,0,0,2.2479-.68883,2.57776,2.57776,0,0,0,.75986-2.01224q0-2.57089-2.91278-2.5709H15.39156Z" fill="#fff"/></svg>