<svg xmlns="http://www.w3.org/2000/svg" viewBox="0 0 48 48"><path fill="#FFF" d="M9.5 44h29c.275 0 .5-.225.5-.5V14h-8.5c-.827 0-1.5-.673-1.5-1.5V4H9.5c-.275 0-.5.225-.5.5v39c0 .275.225.5.5.5z"/><path fill="#FFF" d="M38.293 13L30 4.707V12.5c0 .275.225.5.5.5h7.793z"/><path opacity=".64" fill="#605E5C" d="M39.56 12.854l-9.414-9.415A1.51 1.51 0 0029.086 3H9.5C8.673 3 8 3.673 8 4.5v39c0 .827.673 1.5 1.5 1.5h29c.827 0 1.5-.673 1.5-1.5V13.914c0-.4-.156-.777-.44-1.06zM30 4.707L38.293 13H30.5a.501.501 0 01-.5-.5V4.707zM38.5 44h-29a.501.501 0 01-.5-.5v-39c0-.275.225-.5.5-.5H29v8.5c0 .827.673 1.5 1.5 1.5H39v29.5c0 .275-.225.5-.5.5z"/><path fill="none" stroke="#C8C6C4" stroke-linejoin="round" stroke-miterlimit="10" d="M29.5 29.5h-11a2 2 0 01-2-2v-10h15v10a2 2 0 01-2 2z"/><path fill="none" stroke="#C8C6C4" stroke-linecap="round" stroke-linejoin="round" stroke-miterlimit="10" d="M33.5 17.5h-19m5 9v-6"/><path fill="none" stroke="#F5BA9D" stroke-linecap="round" stroke-linejoin="round" stroke-miterlimit="10" d="M22.5 26.5v-5"/><path fill="none" stroke="#C8C6C4" stroke-linecap="round" stroke-linejoin="round" stroke-miterlimit="10" d="M25.501 26.5v-4"/><path fill="none" stroke="#F5BA9D" stroke-linecap="round" stroke-linejoin="round" stroke-miterlimit="10" d="M28.501 26.5v-3"/><path fill="#C8C6C4" d="M23 30h2v1h-2zm3.5 2h-5a.5.5 0 010-1h5a.5.5 0 010 1z"/><path fill="none" stroke="#D04727" stroke-linecap="round" stroke-linejoin="round" stroke-miterlimit="10" d="M16.5 37.5v-4M14.379 35l2.121-2.121L18.621 35"/></svg>