<svg xmlns="http://www.w3.org/2000/svg" viewBox="0 0 96 96"><path fill="#FFF" d="M27 88h58a1 1 0 001-1V28H69c-1.654 0-3-1.346-3-3V8H27a1 1 0 00-1 1v78a1 1 0 001 1z"/><path fill="#FFF" d="M85.586 26L68 8.414V25a1 1 0 001 1h16.586z"/><path opacity=".64" fill="#605E5C" d="M87.121 24.707L69.293 6.879A2.978 2.978 0 0067.172 6H27c-1.654 0-3 1.346-3 3v78c0 1.654 1.346 3 3 3h58c1.654 0 3-1.346 3-3V26.828c0-.8-.313-1.554-.879-2.121zM68 8.414L85.586 26H69a1 1 0 01-1-1V8.414zM85 88H27a1 1 0 01-1-1V9a1 1 0 011-1h39v17c0 1.654 1.346 3 3 3h17v59a1 1 0 01-1 1z"/><path fill="#ED6C47" d="M61 54l-1-1h-8l-1 1v11.158C53.655 67.539 57.153 69 61 69c8.284 0 15-6.716 15-15H61z"/><path fill="#FF8F6B" d="M51 42.842V54h10V39c-3.847 0-7.345 1.46-10 3.842z"/><path fill="#FFC7B5" d="M64 36v15h15c0-8.284-6.716-15-15-15z"/><path fill="#C43E1C" d="M12 74h32a4 4 0 004-4V38a4 4 0 00-4-4H12a4 4 0 00-4 4v32a4 4 0 004 4z"/><path fill="#F9F7F7" d="M29.854 42c2.955 0 5.22.663 6.79 1.985 1.57 1.323 2.356 3.24 2.356 5.748 0 1.611-.389 3.043-1.165 4.297-.777 1.255-1.882 2.23-3.314 2.926C33.09 57.652 31.43 58 29.543 58h-4.544v9H20V42h9.854zM25 54h3.967c1.546 0 2.714-.35 3.505-1.045.79-.697 1.184-1.715 1.184-3.054 0-2.6-1.513-3.901-4.542-3.901H25v8z"/></svg>