<svg xmlns="http://www.w3.org/2000/svg" viewBox="0 0 32 32"><g fill="#FFF"><path d="M9.5 29h19a.5.5 0 00.5-.5V9h-4.5A1.5 1.5 0 0123 7.5V3H9.5a.5.5 0 00-.5.5v25c0 .28.23.5.5.5z"/><path d="M28.3 8L24 3.7v3.8c0 .28.23.5.5.5h3.8z"/></g><path fill="#605E5C" d="M29.56 7.85l-5.41-5.41A1.51 1.51 0 0023.09 2H9.5C8.67 2 8 2.67 8 3.5v25c0 .83.67 1.5 1.5 1.5h19c.83 0 1.5-.67 1.5-1.5V8.91c0-.4-.16-.77-.44-1.06zM24 3.71L28.3 8h-3.8a.5.5 0 01-.5-.5V3.7zM28.5 29h-19a.5.5 0 01-.5-.5v-25c0-.28.23-.5.5-.5H23v4.5c0 .83.67 1.5 1.5 1.5H29v19.5a.5.5 0 01-.5.5z" opacity=".64"/><path fill="none" stroke="#C8C6C4" stroke-miterlimit="10" d="M25.5 26.5h-13a1 1 0 01-1-1v-12h14a1 1 0 011 1v11a1 1 0 01-1 1z"/><path fill="#8BBF8A" d="M23.5 24h-8a.5.5 0 01-.5-.5v-1a.5.5 0 01.5-.5h8a.5.5 0 01.5.5v1a.5.5 0 01-.5.5zm0-6h-8a.5.5 0 01-.5-.5v-1a.5.5 0 01.5-.5h8a.5.5 0 01.5.5v1a.5.5 0 01-.5.5zm-4 1H26v2h-6.5a.5.5 0 01-.5-.5v-1a.5.5 0 01.5-.5z"/><path fill="#31752F" d="M3.5 25h11a1.5 1.5 0 001.5-1.5v-11a1.5 1.5 0 00-1.5-1.5h-11A1.5 1.5 0 002 12.5v11A1.5 1.5 0 003.5 25z"/><path fill="#FFF" d="M9.52 14.2c.92 0 1.63.2 2.12.61.49.41.73 1.01.73 1.8a2.43 2.43 0 01-1.4 2.25c-.44.2-.95.31-1.54.31H7.96v2.73H6.78v-7.7h2.75zM7.96 18h1.3c.5 0 .88-.12 1.14-.34.26-.23.44-.6.44-1.03 0-.85-.55-1.4-1.54-1.4H7.96V18z"/></svg>