<svg version="1.1" id="Layer_1" xmlns="http://www.w3.org/2000/svg" x="0" y="0" viewBox="0 0 64 64" xml:space="preserve"><style>.st3,.st4{opacity:.1;enable-background:new}.st4{opacity:.2}</style><path d="M60.6 59.4H24.9c-1.5 0-2.7-1.2-2.7-2.7V41.1l13.7-6.8L53 41.1h7.6c1.5 0 2.7 1.2 2.7 2.7v12.9c0 1.5-1.2 2.7-2.7 2.7z" fill="#185c37"/><path d="M42.7 22.9l-16 5.7-18.2-5.7V7.3c0-1.5 1.2-2.7 2.7-2.7h28.9c1.5 0 2.7 1.2 2.7 2.7v15.6z" fill="#33c481"/><path d="M8.5 22.9h41.8c1.5 0 2.7 1.2 2.7 2.7v15.6H11.2c-1.5 0-2.7-1.2-2.7-2.7V22.9z" fill="#21a366"/><path class="st3" d="M22.2 51.4h8.7c1.3 0 2.4-.9 2.6-2.2V18.7c0-1.5-1.2-2.7-2.6-2.7H8.5v22.4c0 1.5 1.2 2.7 2.7 2.7h11v10.3z"/><path class="st4" d="M30.9 50.3c2.1 0 3.8-1.7 3.8-3.8V18.7c0-2.1-1.7-3.8-3.8-3.8H8.5v23.6c0 1.5 1.2 2.7 2.7 2.7h11v9.1h8.7z"/><path class="st4" d="M30.9 49.1c1.5 0 2.7-1.2 2.7-2.6V18.7c0-1.5-1.2-2.7-2.6-2.7H8.5v22.4c0 1.5 1.2 2.7 2.7 2.7h11v8h8.7z"/><path class="st3" d="M29.8 49.1c1.5 0 2.7-1.2 2.7-2.6V18.7c0-1.5-1.2-2.7-2.6-2.7H8.5v22.4c0 1.5 1.2 2.7 2.7 2.7h11v8h7.6z"/><path fill="none" d="M-4-4.5h73v73H-4z"/><linearGradient id="SVGID_1_" gradientUnits="userSpaceOnUse" x1="6.071" y1="50.048" x2="26.91" y2="13.952" gradientTransform="matrix(1 0 0 -1 0 64)"><stop offset="0" stop-color="#18884f"/><stop offset=".5" stop-color="#117e43"/><stop offset="1" stop-color="#0b6631"/></linearGradient><path d="M3.2 16h26.6c1.5 0 2.7 1.2 2.7 2.7v26.6c0 1.5-1.2 2.7-2.7 2.7H3.2C1.7 48 .5 46.8.5 45.3V18.7c0-1.5 1.2-2.7 2.7-2.7z" fill="url(#SVGID_1_)"/><path d="M17 23.1c1.7-.1 3.4.4 4.7 1.4 1.1 1.1 1.7 2.6 1.6 4.1 0 1.1-.3 2.1-.8 3.1-.6.9-1.4 1.6-2.3 2.1-1.1.5-2.3.8-3.5.7h-3.3v6.3H10V23.1h7zm-3.5 8.7h2.9c.9.1 1.8-.2 2.6-.8.6-.6.9-1.4.9-2.3 0-2-1.1-2.9-3.3-2.9h-3l-.1 6z" fill="#fff"/></svg>