<svg xmlns="http://www.w3.org/2000/svg" viewBox="0 0 48 48"><path fill="#FFF" d="M13.5 44h29c.275 0 .5-.225.5-.5V14h-8.5c-.827 0-1.5-.673-1.5-1.5V4H13.5c-.275 0-.5.225-.5.5v39c0 .275.225.5.5.5z"/><path fill="#FFF" d="M42.293 13L34 4.707V12.5c0 .275.225.5.5.5h7.793z"/><path opacity=".64" fill="#605E5C" d="M43.56 12.854l-9.414-9.415A1.51 1.51 0 0033.086 3H13.5c-.827 0-1.5.673-1.5 1.5v39c0 .827.673 1.5 1.5 1.5h29c.827 0 1.5-.673 1.5-1.5V13.914c0-.4-.156-.777-.44-1.06zM34 4.707L42.293 13H34.5a.501.501 0 01-.5-.5V4.707zM42.5 44h-29a.501.501 0 01-.5-.5v-39c0-.275.225-.5.5-.5H33v8.5c0 .827.673 1.5 1.5 1.5H43v29.5c0 .275-.225.5-.5.5z"/><path fill="#038387" d="M6 37h18a2 2 0 002-2V17a2 2 0 00-2-2H6a2 2 0 00-2 2v18a2 2 0 002 2z"/><path fill="#F9F7F7" d="M15.668 20c1.4 0 2.473.32 3.216.962.745.642 1.116 1.571 1.116 2.787 0 .78-.184 1.476-.551 2.084-.368.608-.892 1.08-1.57 1.418-.679.338-1.464.506-2.359.506h-2.23V32H11V20h4.668zm-2.379 5.925h1.97c.77 0 1.349-.177 1.741-.532s.589-.871.589-1.552c0-1.322-.752-1.983-2.256-1.983h-2.044v4.067z"/><path fill="#038387" d="M39.5 30H28v1h11.5a.5.5 0 000-1z"/><path fill="#1A9BA1" d="M39.5 27H28v1h11.5a.5.5 0 000-1z"/><path fill="#37C6D0" d="M28 25h11a1 1 0 001-1v-2a1 1 0 00-1-1H28v4z"/></svg>