<svg xmlns="http://www.w3.org/2000/svg" viewBox="0 0 64 64"><circle cx="29.926" cy="20.593" r="15.556" fill="#036c70"/><circle cx="45.481" cy="35.111" r="13.481" fill="#1a9ba1"/><circle cx="32" cy="46.519" r="11.407" fill="#37c6d0"/><path d="M33 20.33v26.34a1.734 1.734 0 01-.04.4A2.314 2.314 0 0130.67 49h-9.81c-.07-.33-.13-.66-.17-1a8.253 8.253 0 01-.09-1c-.01-.16-.01-.32-.01-.48a11.412 11.412 0 017.04-10.54 15.565 15.565 0 01-13.26-15.39 14.77 14.77 0 01.22-2.59h16.08A2.326 2.326 0 0133 20.33z" opacity=".2"/><path d="M34 20.33v24.34A3.362 3.362 0 0130.67 48h-9.98a8.253 8.253 0 01-.09-1c-.01-.16-.01-.32-.01-.48a11.412 11.412 0 017.04-10.54 15.565 15.565 0 01-13.26-15.39 14.77 14.77 0 01.22-2.59c.05-.34.12-.67.2-1h15.88A3.342 3.342 0 0134 20.33z" opacity=".1"/><path d="M33 20.33v24.34A2.326 2.326 0 0130.67 47H20.6c-.01-.16-.01-.32-.01-.48a11.412 11.412 0 017.04-10.54 15.565 15.565 0 01-13.26-15.39 14.77 14.77 0 01.22-2.59h16.08A2.326 2.326 0 0133 20.33z" opacity=".2"/><path d="M32 20.33v24.34A2.326 2.326 0 0129.67 47H20.6c-.01-.16-.01-.32-.01-.48a11.412 11.412 0 017.04-10.54 15.565 15.565 0 01-13.26-15.39 14.77 14.77 0 01.22-2.59h15.08A2.326 2.326 0 0132 20.33z" opacity=".1"/><rect x="4" y="18" width="28" height="28" rx="2.333" fill="#038387"/><path d="M14.37 32.09a4.015 4.015 0 01-1.248-1.319 3.581 3.581 0 01-.435-1.805 3.474 3.474 0 01.808-2.337 4.768 4.768 0 012.148-1.4 9.078 9.078 0 012.935-.456 11.152 11.152 0 013.866.542v2.73a6.04 6.04 0 00-1.75-.715 8.485 8.485 0 00-2.045-.246 4.433 4.433 0 00-2.101.445 1.38 1.38 0 00-.834 1.263 1.28 1.28 0 00.353.895 3.215 3.215 0 00.951.68q.598.297 1.785.788a1.85 1.85 0 01.255.102 14.72 14.72 0 012.25 1.11 4.027 4.027 0 011.33 1.34 3.878 3.878 0 01.48 2.02 3.763 3.763 0 01-.756 2.433 4.23 4.23 0 01-2.025 1.36 9.172 9.172 0 01-2.884.42 15.213 15.213 0 01-2.613-.215 8.968 8.968 0 01-2.122-.614v-2.884a6.83 6.83 0 002.147 1.023 8.365 8.365 0 002.363.378 4.063 4.063 0 002.142-.455 1.437 1.437 0 00.721-1.283 1.37 1.37 0 00-.404-.982 4.097 4.097 0 00-1.114-.777q-.711-.358-2.102-.941a11.947 11.947 0 01-2.102-1.1z" fill="#fff"/></svg>