<svg xmlns="http://www.w3.org/2000/svg" viewBox="0 0 64 64"><circle cx="21.5" cy="21.5" r="14.5" fill="#28a8ea"/><circle cx="42.5" cy="42.5" r="14.5" fill="#28a8ea"/><circle cx="32" cy="32" r="24" fill="#28a8ea"/><path d="M25.776 31.544a7.294 7.294 0 01-2.287-2.415 6.672 6.672 0 01-.784-3.335 5.995 5.995 0 011.412-4.037 8.501 8.501 0 013.682-2.461 14.218 14.218 0 014.82-.811 18.72 18.72 0 013.208.246 11.58 11.58 0 012.224.574 4.312 4.312 0 011.74 1.112 2.25 2.25 0 01.538 1.495 2.165 2.165 0 01-.565 1.558 1.881 1.881 0 01-1.422.592 2.559 2.559 0 01-1.057-.237 19.134 19.134 0 00-2.515-.92 9.13 9.13 0 00-2.424-.3 5.532 5.532 0 00-3.034.774 2.525 2.525 0 00-1.212 2.269 2.281 2.281 0 00.628 1.595 5.734 5.734 0 001.695 1.212q1.067.529 3.18 1.403a3.296 3.296 0 01.456.183 22.589 22.589 0 013.937 2.023 7.937 7.937 0 012.424 2.488 6.56 6.56 0 01.875 3.454 6.948 6.948 0 01-1.212 4.164 7.204 7.204 0 01-3.39 2.516 14.288 14.288 0 01-5.094.829 16.05 16.05 0 01-6.944-1.312 3.78 3.78 0 01-1.43-1.112 2.5 2.5 0 01-.465-1.513 1.977 1.977 0 01.61-1.54 2.252 2.252 0 011.577-.556 4.029 4.029 0 011.84.474q1.057.529 1.668.793a8.382 8.382 0 001.44.455 8.233 8.233 0 001.85.192 4.937 4.937 0 003.107-.83 2.737 2.737 0 001.048-2.269 2.412 2.412 0 00-.656-1.658 6.975 6.975 0 00-1.932-1.404q-1.276-.674-3.59-1.64a22.244 22.244 0 01-3.946-2.05" fill="#fff" fill-rule="evenodd"/><path d="M26.03 7.73a14.153 14.153 0 00-1.94-.5A26.075 26.075 0 007.23 24.09a14.16 14.16 0 00.5 1.94 10.982 10.982 0 00.67 1.67A23.947 23.947 0 0127.7 8.4a10.99 10.99 0 00-1.67-.67z" fill-rule="evenodd" opacity=".1"/><path d="M26.03 7.73a25.02 25.02 0 00-18.3 18.3 10.982 10.982 0 00.67 1.67A23.947 23.947 0 0127.7 8.4a10.99 10.99 0 00-1.67-.67zm30.24 30.24a10.982 10.982 0 00-.67-1.67 23.947 23.947 0 01-19.3 19.3 10.984 10.984 0 001.67.67 14.153 14.153 0 001.94.5 26.075 26.075 0 0016.86-16.86 14.161 14.161 0 00-.5-1.94z" fill-rule="evenodd" opacity=".1"/><path d="M55.6 36.3a23.947 23.947 0 01-19.3 19.3 10.984 10.984 0 001.67.67 25.02 25.02 0 0018.3-18.3 10.982 10.982 0 00-.67-1.67z" fill-rule="evenodd" opacity=".1"/></svg>