<svg xmlns="http://www.w3.org/2000/svg" viewBox="0 0 64 64"><path d="M42 40.531V27.205A1.204 1.204 0 0143.204 26h13.494A2.302 2.302 0 0159 28.302v12.23A8.469 8.469 0 0150.531 49h-.062A8.469 8.469 0 0142 40.531z" fill="#5059c9"/><circle cx="50.5" cy="17.5" r="5.5" fill="#5059c9"/><path d="M49.855 49.622q-.17-.008-.35-.022.174.015.35.022zm.157.005l-.077-.002z" fill="#5059c9"/><circle cx="33" cy="15" r="8" fill="#7b83eb"/><path d="M45.667 26H22.333A2.32 2.32 0 0020 28.308v13.846a14 14 0 0028 0V28.308A2.32 2.32 0 0045.667 26z" fill="#7b83eb"/><path d="M33 26v20.67a1.734 1.734 0 01-.04.4A2.314 2.314 0 0130.67 49h-8.83a10.81 10.81 0 01-.53-1c-.16-.33-.3-.66-.43-1a13.69 13.69 0 01-.88-4.85V28.31A2.316 2.316 0 0122.33 26zm0-5.67V23a8.257 8.257 0 01-1-.06A8.02 8.02 0 0125.58 18h5.09A2.326 2.326 0 0133 20.33z" opacity=".2"/><path d="M34 26v18.67A3.362 3.362 0 0130.67 48h-9.36c-.16-.33-.3-.66-.43-1a13.69 13.69 0 01-.88-4.85V28.31A2.316 2.316 0 0122.33 26zm0-5.67v2.61a8.355 8.355 0 01-2 0A8.02 8.02 0 0125.58 18a8.353 8.353 0 01-.33-1h5.42A3.342 3.342 0 0134 20.33z" opacity=".1"/><path d="M33 26v18.67A2.326 2.326 0 0130.67 47h-9.79a13.69 13.69 0 01-.88-4.85V28.31A2.316 2.316 0 0122.33 26zm0-5.67V23a8.257 8.257 0 01-1-.06A8.02 8.02 0 0125.58 18h5.09A2.326 2.326 0 0133 20.33z" opacity=".2"/><path d="M32 20.33v2.61A8.02 8.02 0 0125.58 18h4.09A2.326 2.326 0 0132 20.33zM22.33 26H32v18.67A2.326 2.326 0 0129.67 47h-8.79a13.69 13.69 0 01-.88-4.85V28.31A2.316 2.316 0 0122.33 26z" opacity=".1"/><rect x="4" y="18" width="28" height="28" rx="2.333" fill="#4b53bc"/><path d="M24.008 26.528h-4.564v13.028h-2.909V26.528h-4.543V24h12.016z" fill="#fff"/></svg>