<svg xmlns="http://www.w3.org/2000/svg" viewBox="0 0 32 32"><path fill="#FFF" stroke="#979593" stroke-miterlimit="10" d="M23.086 2.5H9.5a1 1 0 00-1 1v25a1 1 0 001 1h19a1 1 0 001-1V8.914a1 1 0 00-.293-.707l-5.414-5.414a1 1 0 00-.707-.293z"/><path fill="none" stroke="#979593" stroke-miterlimit="10" d="M23.5 2.5v5a1 1 0 001 1h5"/><circle fill="none" stroke="#C8C6C4" stroke-miterlimit="10" cx="24.5" cy="23.5" r="2"/><circle fill="none" stroke="#C8C6C4" stroke-miterlimit="10" cx="21.5" cy="13.5" r="2"/><circle fill="#C8C6C4" cx="26.5" cy="11.5" r=".5"/><circle fill="#C8C6C4" cx="26.5" cy="14.5" r=".5"/><circle fill="#C8C6C4" cx="26.5" cy="17.5" r=".5"/><circle fill="#C8C6C4" cx="19.5" cy="25.5" r=".5"/><path fill="none" stroke="#C8C6C4" stroke-miterlimit="10" d="M18.5 21h-7a1 1 0 01-1-1v-2a1 1 0 011-1h7a1 1 0 011 1v2a1 1 0 01-1 1zM19.5 19.134h4a1 1 0 011 1V22M21.5 15.5v4"/><path fill="#3955A3" d="M3.5 25h11a1.5 1.5 0 001.5-1.5v-11a1.5 1.5 0 00-1.5-1.5h-11A1.5 1.5 0 002 12.5v11A1.5 1.5 0 003.5 25z"/><path fill="#FFF" d="M8.585 19.295c.233.665.37 1.085.412 1.26h.029c.042-.174.19-.625.446-1.35L11.311 14H13l-3.115 8h-1.81L5 14h1.74l1.845 5.295z"/></svg>