<svg xmlns="http://www.w3.org/2000/svg" viewBox="0 0 16 16"><path opacity=".64" fill="#605E5C" d="M15.56 2.853L13.146.44a1.51 1.51 0 00-1.06-.44H5.5C4.673 0 4 .673 4 1.5v13c0 .827.673 1.5 1.5 1.5h9c.827 0 1.5-.673 1.5-1.5V3.914c0-.4-.156-.777-.44-1.06zm-.707.708c.095.094.147.22.147.353V4h-1.5a.501.501 0 01-.5-.5V1.707l1.854 1.854zM14.5 15h-9a.501.501 0 01-.5-.5v-13c0-.275.225-.5.5-.5H12v2.5c0 .827.673 1.5 1.5 1.5H15v9.5c0 .275-.225.5-.5.5z"/><path fill="#FFF" d="M5.5 15h9c.275 0 .5-.225.5-.5V5h-1.5c-.827 0-1.5-.673-1.5-1.5V1H5.5c-.275 0-.5.225-.5.5v13c0 .275.225.5.5.5z"/><path fill="#FFF" d="M15 4v-.086a.496.496 0 00-.146-.353L13 1.707V3.5c0 .275.225.5.5.5H15z"/><path fill="#185ABD" d="M1 13h7a1 1 0 001-1V5a1 1 0 00-1-1H1a1 1 0 00-1 1v7a1 1 0 001 1z"/><path fill="#FFF" d="M4.23 11L2.015 6h.953l1.546 3.565L6.015 6H7l-2.223 5z"/><path fill="#185ABD" d="M11.5 11h-1v-1h1a.5.5 0 00.5-.5v-3h1v3a1.5 1.5 0 01-1.5 1.5z"/><path fill="#103F91" d="M11 6.5L12.5 5l1.499 1.5-1.5 1.5z"/><path fill="#41A5EE" d="M10 9h1v3h-1z"/></svg>