<svg xmlns="http://www.w3.org/2000/svg" viewBox="0 0 48 48"><path opacity=".64" fill="#605E5C" d="M42.5 45h-29c-.827 0-1.5-.673-1.5-1.5v-39c0-.827.673-1.5 1.5-1.5h29c.827 0 1.5.673 1.5 1.5v39c0 .827-.673 1.5-1.5 1.5zm-29-41a.5.5 0 00-.5.5v39a.5.5 0 00.5.5h29a.5.5 0 00.5-.5v-39a.5.5 0 00-.5-.5h-29z"/><path fill="#FFF" d="M13.5 44h29a.5.5 0 00.5-.5v-39a.5.5 0 00-.5-.5h-29a.5.5 0 00-.5.5v39a.5.5 0 00.5.5z"/><path fill="#185ABD" d="M6 37h18a2 2 0 002-2V17a2 2 0 00-2-2H6a2 2 0 00-2 2v18a2 2 0 002 2z"/><path fill="#FFF" d="M14.398 28.072c.355 1.015.565 1.656.63 1.922h-.016c.064-.266.29-.952.68-2.057l2.796-7.934 2.503-.001-4.661 11.99-2.712.001L9 20.003l2.58-.001 2.817 8.07z"/><path opacity=".64" fill="#C8C6C4" d="M38.5 41h-7c-.827 0-1.5-.673-1.5-1.5v-12c0-.827.673-1.5 1.5-1.5h7c.827 0 1.5.673 1.5 1.5v12c0 .827-.673 1.5-1.5 1.5zm-7-14a.5.5 0 00-.5.5v12a.5.5 0 00.5.5h7a.5.5 0 00.5-.5v-12a.5.5 0 00-.5-.5h-7zm7-5h-7c-.827 0-1.5-.673-1.5-1.5v-12c0-.827.673-1.5 1.5-1.5h7c.827 0 1.5.673 1.5 1.5v12c0 .827-.673 1.5-1.5 1.5zm-7-14a.5.5 0 00-.5.5v12a.5.5 0 00.5.5h7a.5.5 0 00.5-.5v-12a.5.5 0 00-.5-.5h-7zM25 38.858v.642a.5.5 0 01-.5.5h-7a.5.5 0 01-.5-.5V39h-1v.5c0 .827.673 1.5 1.5 1.5h7c.827 0 1.5-.673 1.5-1.5v-1.056c-.31.18-.644.322-1 .414zM17 13V8.5a.5.5 0 01.5-.5h7a.5.5 0 01.5.5v4.642c.356.092.69.233 1 .414V8.5c0-.827-.673-1.5-1.5-1.5h-7c-.827 0-1.5.673-1.5 1.5V13h1z"/></svg>