<svg xmlns="http://www.w3.org/2000/svg" viewBox="0 0 32 32"><defs><linearGradient id="a" x1="26.802" y1="36.441" x2="9.398" y2="6.297" gradientUnits="userSpaceOnUse"><stop offset=".096" stop-color="#30e5d0"/><stop offset="1" stop-color="#0c34fb"/></linearGradient></defs><rect y="4" width="30" height="24" rx="1.33" fill="url(#a)"/><path d="M4.6 12.55a3.794 3.794 0 012.617.967c.683.566 2.948 2.754 3.383 3.266a2.396 2.396 0 003.067.667c.416-.233.625-.323.758-.396a.431.431 0 01.448.04c.128.097.095.337.036.467a3.54 3.54 0 01-3.292 2.28 3.761 3.761 0 01-2.54-.966 49.183 49.183 0 01-3.459-3.543 2.137 2.137 0 00-1.696-.827 2.755 2.755 0 00-1.69.632 5.26 5.26 0 01-.678.403.355.355 0 01-.4-.084c-.193-.228-.014-.45.05-.56A3.9 3.9 0 014.6 12.55z" fill="#fff"/><path d="M30 5.33V6.5L19.86 16.64c-.01.02-.03.03-.05.05a.218.218 0 00-.08.05l-3.52.75a.262.262 0 01-.27-.13l-.03-.06-.83.06a.357.357 0 01-.27-.58l.6-.59-.03-.06a.263.263 0 01.08-.29l.72-1.4.97-.28c.02-.03.03-.05.05-.08.02-.02.03-.04.05-.06L27.28 4h1.39A1.336 1.336 0 0130 5.33z" opacity=".3"/><path d="M16.519 16.673l-1.371.634a.358.358 0 01-.455-.455l.634-1.37z" fill="#1e2021"/><path d="M18.933 15.688L31.937 2.684a.283.283 0 00-.004-.361A9.052 9.052 0 0029.677.067a.283.283 0 00-.361-.004L16.312 13.067a.504.504 0 00-.047.055l.672 1.802 1.941.81a.502.502 0 00.055-.046z" fill="#333"/><path d="M16.265 13.122a.526.526 0 00-.05.082l-.649 1.324-.597 1.219a.258.258 0 00.029.3l.955.956a.26.26 0 00.3.028l1.22-.597 1.323-.649a.466.466 0 00.082-.05z" fill="#ccc"/></svg>