<svg xmlns="http://www.w3.org/2000/svg" viewBox="0 0 64 64"><title>Word_64x</title><path d="M19.33333,56H56.66667A2.33333,2.33333,0,0,0,59,53.66667V44H17v9.66667A2.33333,2.33333,0,0,0,19.33333,56Z" fill="#103f91"/><path d="M56.66667,8H19.33333A2.33333,2.33333,0,0,0,17,10.33333V20H59V10.33333A2.33333,2.33333,0,0,0,56.66667,8Z" fill="#41a5ee"/><rect x="17" y="32" width="42" height="12" fill="#185abd"/><rect x="17" y="20" width="42" height="12" fill="#2b7cd3"/><path d="M33,20.33008V46.66992a1.73444,1.73444,0,0,1-.04.3999A2.31378,2.31378,0,0,1,30.66992,49H17V18H30.66992A2.326,2.326,0,0,1,33,20.33008Z" opacity="0.2"/><path d="M34,20.33008V44.66992A3.36171,3.36171,0,0,1,30.66992,48H17V17H30.66992A3.34177,3.34177,0,0,1,34,20.33008Z" opacity="0.1"/><path d="M33,20.33008V44.66992A2.326,2.326,0,0,1,30.66992,47H17V18H30.66992A2.326,2.326,0,0,1,33,20.33008Z" opacity="0.2"/><path d="M32,20.33008V44.66992A2.326,2.326,0,0,1,29.66992,47H17V18H29.66992A2.326,2.326,0,0,1,32,20.33008Z" opacity="0.1"/><rect x="4" y="18" width="28" height="28" rx="2.33333" fill="#185abd"/><path d="M13.574,35.89214q.06867.5394.0899.94131h.05288q.03172-.38076.12163-.92015.08968-.5394.17451-.90958l2.45374-10.58705h3.173l2.53835,10.4284a15.13086,15.13086,0,0,1,.3173,1.96723h.0423a15.01841,15.01841,0,0,1,.26441-1.90377l2.03069-10.49186H27.72L24.16631,39.58333h-3.3739l-2.422-10.04765q-.10584-.43356-.238-1.13168Q18,27.70595,17.96849,27.38866h-.0423q-.04239.37032-.16394,1.09995t-.19566,1.0788l-2.274,10.01592H11.86587L8.28044,24.41667H11.2207l2.21049,10.6082Q13.505,35.35281,13.574,35.89214Z" fill="#fff"/></svg>