<svg xmlns="http://www.w3.org/2000/svg" viewBox="0 0 96 96"><path fill="#FFF" d="M27 88h58a1 1 0 001-1V28H69c-1.654 0-3-1.346-3-3V8H27a1 1 0 00-1 1v78a1 1 0 001 1z"/><path fill="#FFF" d="M85.586 26L68 8.414V25a1 1 0 001 1h16.586z"/><path opacity=".64" fill="#605E5C" d="M87.121 24.707L69.293 6.879A2.978 2.978 0 0067.172 6H27c-1.654 0-3 1.346-3 3v78c0 1.654 1.346 3 3 3h58c1.654 0 3-1.346 3-3V26.828c0-.8-.313-1.554-.879-2.121zM68 8.414L85.586 26H69a1 1 0 01-1-1V8.414zM85 88H27a1 1 0 01-1-1V9a1 1 0 011-1h39v17c0 1.654 1.346 3 3 3h17v59a1 1 0 01-1 1z"/><path fill="#134A2C" d="M79 64H68a1 1 0 01-1-1v-2a1 1 0 011-1h11a1 1 0 011 1v2a1 1 0 01-1 1z"/><path fill="#185C37" d="M63 64H52a1 1 0 01-1-1v-2a1 1 0 011-1h11a1 1 0 011 1v2a1 1 0 01-1 1z"/><path fill="#21A366" d="M79 56H68a1 1 0 01-1-1v-2a1 1 0 011-1h11a1 1 0 011 1v2a1 1 0 01-1 1z"/><path fill="#107C41" d="M63 56H52a1 1 0 01-1-1v-2a1 1 0 011-1h11a1 1 0 011 1v2a1 1 0 01-1 1z"/><path fill="#33C481" d="M79 48H68a1 1 0 01-1-1v-2a1 1 0 011-1h11a1 1 0 011 1v2a1 1 0 01-1 1z"/><path fill="#21A366" d="M63 48H52a1 1 0 01-1-1v-2a1 1 0 011-1h11a1 1 0 011 1v2a1 1 0 01-1 1z"/><path fill="#107C41" d="M12 74h32a4 4 0 004-4V38a4 4 0 00-4-4H12a4 4 0 00-4 4v32a4 4 0 004 4z"/><path fill="#F9F7F7" d="M16.95 66l7.884-12.034L17.612 42h5.812l3.942 7.649c.362.725.611 1.266.747 1.623h.051c.262-.58.533-1.143.816-1.69L33.194 42h5.335l-7.408 11.9L38.717 66H33.04l-4.554-8.402a6.949 6.949 0 01-.544-1.121h-.067c-.08.268-.255.63-.526 1.088L22.66 66h-5.71z"/></svg>