<svg xmlns="http://www.w3.org/2000/svg" viewBox="0 0 64 64"><path d="M41.201 56.66a.38.38 0 01-.27-.112L23.64 39.284a.443.443 0 01-.106-.29.485.485 0 01.116-.291 11.332 11.332 0 00-.017-13.941.476.476 0 01-.118-.303.46.46 0 01.124-.315l17.251-17.3a.373.373 0 01.27-.111.383.383 0 01.283.123 36.69 36.69 0 012.325 2.779 36.266 36.266 0 016.134 12.554l.263 1.075 6.07-1.622a.391.391 0 01.1-.013.38.38 0 01.37.29 43.586 43.586 0 01-.006 19.668.38.38 0 01-.369.289.387.387 0 01-.1-.014l-6.013-1.616-.26.967a36.436 36.436 0 01-8.477 15.325.379.379 0 01-.28.122z" fill="#0358a7"/><path d="M57.68 21.691a1.38 1.38 0 00-1.702-1.015l-31.3 8.36a10.427 10.427 0 01.007 5.381l31.286 8.411a1.38 1.38 0 001.703-1.013 44.59 44.59 0 00.005-20.124z" fill="#0f78d4"/><path d="M22.915 23.455a1.452 1.452 0 00-.069 1.923 10.26 10.26 0 011.832 3.66l26.218-6.998-.027-.11a37.145 37.145 0 00-6.302-12.898q-1.128-1.492-2.39-2.855a1.384 1.384 0 00-1.994-.039z" fill="#28a8ea"/><path d="M22.933 39.992a1.45 1.45 0 01-.398-.999 1.478 1.478 0 01.341-.923 10.346 10.346 0 001.81-3.653l26.238 7.054a37.435 37.435 0 01-8.71 15.747 1.383 1.383 0 01-1.99.038z" fill="#0358a7"/><path d="M33 20.33v26.34a1.735 1.735 0 01-.04.4 2.323 2.323 0 01-1.25 1.69L29.95 47h-.28a2.235 2.235 0 00.26-.01l-7-7a1.476 1.476 0 01-.4-1 1.458 1.458 0 01.35-.92 10.228 10.228 0 001.34-2.31 10.625 10.625 0 00.47-1.34 10.419 10.419 0 00.34-2.68 10.58 10.58 0 00-.35-2.7 8.998 8.998 0 00-.46-1.32 9.975 9.975 0 00-1.37-2.34 1.449 1.449 0 01.07-1.92L28.36 18h2.31A2.326 2.326 0 0133 20.33z" opacity=".2"/><path d="M34 20.33v24.34a3.291 3.291 0 01-1.04 2.4 3.204 3.204 0 01-2.03.91l-.98-.98h-.28a2.235 2.235 0 00.26-.01l-7-7a1.476 1.476 0 01-.4-1 1.458 1.458 0 01.35-.92 10.228 10.228 0 001.34-2.31 10.625 10.625 0 00.47-1.34 10.419 10.419 0 00.34-2.68 10.58 10.58 0 00-.35-2.7 8.998 8.998 0 00-.46-1.32 9.975 9.975 0 00-1.37-2.34 1.449 1.449 0 01.07-1.92L28.36 18l1-1h1.31A3.342 3.342 0 0134 20.33z" opacity=".1"/><path d="M33 20.33v24.34A2.326 2.326 0 0130.67 47h-1a2.235 2.235 0 00.26-.01l-7-7a1.476 1.476 0 01-.4-1 1.458 1.458 0 01.35-.92 10.228 10.228 0 001.34-2.31 10.625 10.625 0 00.47-1.34 10.419 10.419 0 00.34-2.68 10.58 10.58 0 00-.35-2.7 8.998 8.998 0 00-.46-1.32 9.975 9.975 0 00-1.37-2.34 1.449 1.449 0 01.07-1.92L28.36 18h2.31A2.326 2.326 0 0133 20.33z" opacity=".2"/><path d="M32 20.33v24.34a2.33 2.33 0 01-2.07 2.32l-7-7a1.476 1.476 0 01-.4-1 1.458 1.458 0 01.35-.92 10.228 10.228 0 001.34-2.31 10.625 10.625 0 00.47-1.34 10.419 10.419 0 00.34-2.68 10.58 10.58 0 00-.35-2.7 8.998 8.998 0 00-.46-1.32 9.975 9.975 0 00-1.37-2.34 1.449 1.449 0 01.07-1.92L28.36 18h1.31A2.326 2.326 0 0132 20.33z" opacity=".1"/><rect x="4" y="18" width="28" height="28" rx="2.333" fill="#0f78d4"/><path d="M17.716 30.806a5.482 5.482 0 01.364.978h.034a4.64 4.64 0 01.353-.956l3.299-6.214a1.45 1.45 0 011.281-.77 1.45 1.45 0 011.258 2.173l-4.565 7.945a1.45 1.45 0 00-.193.723v4.02a1.45 1.45 0 01-1.45 1.451H17.8a1.45 1.45 0 01-1.45-1.45v-3.974a1.45 1.45 0 00-.184-.707l-4.48-8.023a1.45 1.45 0 011.266-2.158h.285a1.45 1.45 0 011.289.785z" fill="#fff"/></svg>