<svg viewBox="0 0 50 50" class="" role="presentation" focusable="false" xmlns:svg="http://www.w3.org/2000/svg" xmlns:xlink="http://www.w3.org/1999/xlink" id="FxSymbol0-049" data-type="1"><g><title></title><path d="M0 44.3c0 1.1.9 2 2 2h46c1.1 0 2-.9 2-2V13H0v31.3z" class="msportalfx-svg-c15" fill="#59b4d9"></path><path d="M44 7.4c0-1.2-.9-2.1-2.1-2.1-1.2 0-2.1.9-2.1 2.1v21.1h-4.1c-.4-2.4-1.6-4.7-3.4-6.6-2.4-2.4-5.5-3.7-8.9-3.7-3.3 0-6.5 1.3-8.9 3.7-.8.8-.8 2.1 0 3 .8.8 2.1.8 3 0 1.6-1.6 3.7-2.4 5.9-2.4s4.3.9 5.9 2.4c3.3 3.3 3.3 8.6 0 11.8-1.6 1.6-3.7 2.4-5.9 2.4s-4.3-.9-5.9-2.4c-.8-.8-2.1-.8-3 0-.8.8-.8 2.1 0 3 2.4 2.4 5.5 3.7 8.9 3.7 3.3 0 6.5-1.3 8.9-3.7 2-2 3.1-4.4 3.5-7h6.1c1.2 0 2.1-.9 2.1-2.1V7.4z" class="msportalfx-svg-c01" fill="#ffffff"></path><path d="M23.4 25.6c-2 0-3.7 1.2-4.5 2.9h-8.7V7.4c0-1.2-.9-2.1-2.1-2.1-1.1 0-2 1-2 2.1v23.2c0 1.2.9 2.1 2.1 2.1H19c.8 1.7 2.5 2.9 4.5 2.9 2.8 0 5-2.2 5-5-.1-2.8-2.4-5-5.1-5z" class="msportalfx-svg-c01" fill="#ffffff"></path><path d="M48 3.7H2c-1.1 0-2 .9-2 2v7.6h50V5.7c0-1.1-.9-2-2-2" class="msportalfx-svg-c03" fill="#a0a1a2"></path><path d="M2 3.7c-1.1 0-2 .9-2 2v38.6c0 1.1.9 2 2 2h2.2L43.6 3.7H2z" opacity=".2" class="msportalfx-svg-c01" fill="#ffffff"></path></g><defs>
<linearGradient id="a" x1="9" y1="16.39" x2="9" y2="-1.94" gradientUnits="userSpaceOnUse"><stop offset="0" stop-color="#0078d4"></stop><stop offset=".16" stop-color="#1380da"></stop><stop offset=".53" stop-color="#3c91e5"></stop><stop offset=".82" stop-color="#559cec"></stop><stop offset="1" stop-color="#5ea0ef"></stop></linearGradient>
<linearGradient id="b" x1="9.88" y1="7.11" x2="9.99" y2="17.27" gradientUnits="userSpaceOnUse"><stop offset="0" stop-color="#32d4f5"></stop><stop offset=".32" stop-color="#31d1f3"></stop><stop offset=".53" stop-color="#2ec9eb"></stop><stop offset=".7" stop-color="#29bade"></stop><stop offset=".86" stop-color="#22a5cb"></stop><stop offset="1" stop-color="#198ab3"></stop><stop offset="1" stop-color="#198ab3"></stop></linearGradient>
<radialGradient id="c" cx="9.43" cy="7.03" r="7.27" gradientUnits="userSpaceOnUse"><stop offset="0" stop-color="#f2f2f2"></stop><stop offset=".58" stop-color="#eee"></stop><stop offset="1" stop-color="#e6e6e6"></stop></radialGradient>
</defs>
</svg>