<svg viewBox="0 0 50 50" class="fxs-portal-svg" role="presentation" focusable="false" xmlns:svg="http://www.w3.org/2000/svg" xmlns:xlink="http://www.w3.org/1999/xlink" id="FxSymbol0-05f" data-type="1"><g><title></title><path d="M21.667 0h6.667v5h-6.667zm-10 0h6.667v5h-6.667zM45 45h-3.333v5h5A3.333 3.333 0 0 0 50 46.667v-5h-5V45zM0 31.667h5v6.667H0zM21.667 45h6.667v5h-6.667zM45 31.667h5v6.667h-5zM31.667 45h6.667v5h-6.667zm-20 0h6.667v5h-6.667zM5 45v-3.333H0v5A3.333 3.333 0 0 0 3.333 50h5v-5H5zM0 11.667h5v6.667H0zM5 5h3.333V0h-5A3.334 3.334 0 0 0 0 3.333v5h5V5zM0 21.667h5v6.667H0zm45 0h5v6.667h-5zm0-10.001h5v6.667h-5zM31.666 0h6.667v5h-6.667zM45 5v3.333h5v-5A3.333 3.333 0 0 0 46.667 0h-5v5H45z" class="msportalfx-svg-c15" fill="#59b4d9"></path><path d="M35.328 8.959H9.949c-.863 0-1.558.77-1.558 1.63v17.675c0 .855.695 1.617 1.558 1.617h25.379c.86 0 1.732-.762 1.732-1.617V10.59c.001-.863-.871-1.631-1.732-1.631" class="msportalfx-svg-c03" fill="#a0a1a2"></path><path opacity=".2" d="M35.346 8.961l-.018-.002H9.949c-.863 0-1.558.77-1.558 1.63v17.674c0 .855.695 1.617 1.558 1.617h.604L35.346 8.961z" class="msportalfx-svg-c01" fill="#ffffff"></path><path d="M34.881 27.678H10.564V11.163l24.317-.036z" class="msportalfx-svg-c15" fill="#59b4d9"></path><path d="M23.022 10.159a.406.406 0 1 1-.812 0 .406.406 0 0 1 .812 0" class="msportalfx-svg-c13" fill="#b8d432"></path><path d="M23.039 18.919a.158.158 0 0 1-.077-.022l-5.049-2.91a.154.154 0 0 1 0-.264l5.018-2.891a.156.156 0 0 1 .151 0l5.05 2.912a.152.152 0 0 1 .075.132.15.15 0 0 1-.075.132l-5.016 2.89a.151.151 0 0 1-.077.021" class="msportalfx-svg-c01" fill="#ffffff"></path><path d="M31.531 35.535h-7.796c.937 3.303-.322 3.776-5.834 3.776v1.73h18.746v-1.729c-5.513-.001-6.054-.472-5.116-3.777" class="msportalfx-svg-c04" fill="#7a7a7a"></path><path d="M39.877 14.614H14.498c-.863 0-1.558.77-1.558 1.63v17.675c0 .855.695 1.617 1.558 1.617h25.379c.86 0 1.732-.762 1.732-1.617V16.244c0-.862-.872-1.63-1.732-1.63" class="msportalfx-svg-c03" fill="#a0a1a2"></path><path opacity=".2" d="M39.895 14.616l-.018-.002h-25.38c-.863 0-1.558.77-1.558 1.63v17.674c0 .855.695 1.617 1.558 1.617h.604l24.794-20.919z" class="msportalfx-svg-c01" fill="#ffffff"></path><path d="M39.429 33.333H15.112V16.818l24.317-.036z" class="msportalfx-svg-c15" fill="#59b4d9"></path><path d="M17.901 39.311h18.745v1.73H17.901z" class="msportalfx-svg-c03" fill="#a0a1a2"></path><path d="M27.571 15.814a.406.406 0 1 1-.812 0 .406.406 0 0 1 .812 0" class="msportalfx-svg-c13" fill="#b8d432"></path><path d="M27.587 24.575a.158.158 0 0 1-.077-.022l-5.049-2.91a.154.154 0 0 1 0-.264l5.018-2.891a.156.156 0 0 1 .151 0l5.05 2.912a.152.152 0 0 1 .075.132.15.15 0 0 1-.075.132l-5.016 2.89a.17.17 0 0 1-.077.021" class="msportalfx-svg-c01" fill="#ffffff"></path><path opacity=".7" d="M26.861 31.648a.152.152 0 0 1-.077-.02l-5.033-2.901a.148.148 0 0 1-.078-.132v-5.822a.15.15 0 0 1 .078-.132.152.152 0 0 1 .154 0l5.033 2.9a.162.162 0 0 1 .075.133v5.822a.152.152 0 0 1-.075.132.17.17 0 0 1-.077.02" class="msportalfx-svg-c01" fill="#ffffff"></path><path opacity=".4" d="M28.287 31.648a.168.168 0 0 1-.079-.02.156.156 0 0 1-.074-.132V25.71c0-.054.029-.104.074-.132l5.033-2.899a.153.153 0 0 1 .229.132v5.785a.148.148 0 0 1-.077.132l-5.031 2.901a.167.167 0 0 1-.075.019" class="msportalfx-svg-c01" fill="#ffffff"></path></g><defs>
<linearGradient id="a" x1="9" y1="16.39" x2="9" y2="-1.94" gradientUnits="userSpaceOnUse"><stop offset="0" stop-color="#0078d4"></stop><stop offset=".16" stop-color="#1380da"></stop><stop offset=".53" stop-color="#3c91e5"></stop><stop offset=".82" stop-color="#559cec"></stop><stop offset="1" stop-color="#5ea0ef"></stop></linearGradient>
<linearGradient id="b" x1="9.88" y1="7.11" x2="9.99" y2="17.27" gradientUnits="userSpaceOnUse"><stop offset="0" stop-color="#32d4f5"></stop><stop offset=".32" stop-color="#31d1f3"></stop><stop offset=".53" stop-color="#2ec9eb"></stop><stop offset=".7" stop-color="#29bade"></stop><stop offset=".86" stop-color="#22a5cb"></stop><stop offset="1" stop-color="#198ab3"></stop><stop offset="1" stop-color="#198ab3"></stop></linearGradient>
<radialGradient id="c" cx="9.43" cy="7.03" r="7.27" gradientUnits="userSpaceOnUse"><stop offset="0" stop-color="#f2f2f2"></stop><stop offset=".58" stop-color="#eee"></stop><stop offset="1" stop-color="#e6e6e6"></stop></radialGradient>
</defs>
</svg>