<svg viewBox="0 0 50 50" class="" role="presentation" focusable="false" xmlns:svg="http://www.w3.org/2000/svg" xmlns:xlink="http://www.w3.org/1999/xlink" id="FxSymbol0-084" data-type="1"><g><title></title><path d="M2 46h46a2 2 0 0 0 2-2V11H0v33a2 2 0 0 0 2 2z" class="msportalfx-svg-c03" fill="#a0a1a2"></path><path d="M0 5.988V11h50V5.988A1.994 1.994 0 0 0 48 4H2C.895 4 0 4.89 0 5.988z" class="msportalfx-svg-c04" fill="#7a7a7a"></path><path d="M4 25h42v7H4zm0-10h42v7H4z" class="msportalfx-svg-c01" fill="#ffffff"></path><path d="M4 35h42v7H4z" class="msportalfx-svg-c13" fill="#b8d432"></path><path opacity=".2" d="M43.6 4H1.988C.89 4 0 4.89 0 5.988V44a2 2 0 0 0 2 2h2L43.6 4z" class="msportalfx-svg-c01" fill="#ffffff"></path><path opacity=".4" d="M12 22v17h11v-4h4v4h11V22z" class="msportalfx-svg-c01" fill="#ffffff"></path><path d="M13 19v19h9V26h6v12h9V19z" class="msportalfx-svg-c19" fill="#0072c6"></path></g><defs>
<linearGradient id="a" x1="9" y1="16.39" x2="9" y2="-1.94" gradientUnits="userSpaceOnUse"><stop offset="0" stop-color="#0078d4"></stop><stop offset=".16" stop-color="#1380da"></stop><stop offset=".53" stop-color="#3c91e5"></stop><stop offset=".82" stop-color="#559cec"></stop><stop offset="1" stop-color="#5ea0ef"></stop></linearGradient>
<linearGradient id="b" x1="9.88" y1="7.11" x2="9.99" y2="17.27" gradientUnits="userSpaceOnUse"><stop offset="0" stop-color="#32d4f5"></stop><stop offset=".32" stop-color="#31d1f3"></stop><stop offset=".53" stop-color="#2ec9eb"></stop><stop offset=".7" stop-color="#29bade"></stop><stop offset=".86" stop-color="#22a5cb"></stop><stop offset="1" stop-color="#198ab3"></stop><stop offset="1" stop-color="#198ab3"></stop></linearGradient>
<radialGradient id="c" cx="9.43" cy="7.03" r="7.27" gradientUnits="userSpaceOnUse"><stop offset="0" stop-color="#f2f2f2"></stop><stop offset=".58" stop-color="#eee"></stop><stop offset="1" stop-color="#e6e6e6"></stop></radialGradient>
</defs>
</svg>