<svg viewBox="0 0 18 18" class="" role="presentation" focusable="false" xmlns:svg="http://www.w3.org/2000/svg" xmlns:xlink="http://www.w3.org/1999/xlink" id="FxSymbol0-08d" data-type="1"><g><title>Icon-databases-123</title><path d="M9 5.14c-3.54 0-6.41-1-6.41-2.32v12.36c0 1.27 2.82 2.3 6.32 2.32H9c3.54 0 6.41-1 6.41-2.32V2.82c0 1.29-2.87 2.32-6.41 2.32z" fill="url(#a)"></path><path d="M15.41 2.82c0 1.29-2.87 2.32-6.41 2.32s-6.41-1-6.41-2.32S5.46.5 9 .5s6.41 1 6.41 2.32" fill="#e8e8e8"></path><path d="M13.92 2.63c0 .82-2.21 1.48-4.92 1.48s-4.92-.66-4.92-1.48S6.29 1.16 9 1.16s4.92.66 4.92 1.47" fill="#50e6ff"></path><path d="M9 3a11.55 11.55 0 0 0-3.89.57A11.42 11.42 0 0 0 9 4.11a11.15 11.15 0 0 0 3.89-.58A11.84 11.84 0 0 0 9 3z" fill="#198ab3"></path><path d="M14.25 6.32c-.33 0 .06.25-1.11.3s-1.58 1.25-2.34 2.26a4.93 4.93 0 0 1-3 1.41 3.67 3.67 0 0 0-1.88 1.39.92.92 0 0 1-.71.52c-.27 0-.86.08-.86.08a3.36 3.36 0 0 0-.71.24c.08.33.74.19.74.19a5.25 5.25 0 0 1-.52.47 2.8 2.8 0 0 0 1 .05c.43 0 .76-.41 1.55-.84s2.61 0 2.9 0 .72-.76.82-1c.08.54-.82 2-.82 2a2.11 2.11 0 0 0 1.66-1c.08-.1.33-.62.36-.57s.16.19.21.17a1.88 1.88 0 0 0 .25-.27 7.58 7.58 0 0 0 1.14-2.48C13 9 13 8.13 13.6 7.77s.68-.69.68-.72V7a1.63 1.63 0 0 1-.39-.35.11.11 0 0 1 0-.11.77.77 0 0 0 .48.38s.21-.6-.12-.6zM13 7.38h-.06a.36.36 0 0 1-.3-.08.48.48 0 0 1 .52-.3.3.3 0 0 1-.16.38zm.56 0a2.81 2.81 0 0 1 .33-.58 3.12 3.12 0 0 0-.35.62zm.36-.51a1.81 1.81 0 0 0-.08.51 1.69 1.69 0 0 1 0-.38 1.4 1.4 0 0 0-.16.39 1.34 1.34 0 0 1 .22-.48zm-1.71 4.65s-.49.46-.51.62.54.41.89.32a7.58 7.58 0 0 1-.38-.94z" fill="#f2f2f2"></path></g><defs>
<linearGradient id="a" x1="9" y1="16.39" x2="9" y2="-1.94" gradientUnits="userSpaceOnUse"><stop offset="0" stop-color="#0078d4"></stop><stop offset=".16" stop-color="#1380da"></stop><stop offset=".53" stop-color="#3c91e5"></stop><stop offset=".82" stop-color="#559cec"></stop><stop offset="1" stop-color="#5ea0ef"></stop></linearGradient>
<linearGradient id="b" x1="9.88" y1="7.11" x2="9.99" y2="17.27" gradientUnits="userSpaceOnUse"><stop offset="0" stop-color="#32d4f5"></stop><stop offset=".32" stop-color="#31d1f3"></stop><stop offset=".53" stop-color="#2ec9eb"></stop><stop offset=".7" stop-color="#29bade"></stop><stop offset=".86" stop-color="#22a5cb"></stop><stop offset="1" stop-color="#198ab3"></stop><stop offset="1" stop-color="#198ab3"></stop></linearGradient>
<radialGradient id="c" cx="9.43" cy="7.03" r="7.27" gradientUnits="userSpaceOnUse"><stop offset="0" stop-color="#f2f2f2"></stop><stop offset=".58" stop-color="#eee"></stop><stop offset="1" stop-color="#e6e6e6"></stop></radialGradient>
</defs>
</svg>