<svg viewBox="0, 0, 400,400" class="" role="presentation" focusable="false" xmlns:svg="http://www.w3.org/2000/svg" xmlns:xlink="http://www.w3.org/1999/xlink" id="FxSymbol0-0eb" data-type="1"><g><title></title><g fill-rule="evenodd"><path d="M200 132.398c-104.69.157-135.19.311-135.845.687-1.815 1.041-1.773-.712-1.661 69.404l.106 66.689.911.911.911.911 68.798.106c63.321.097 68.901.053 70.089-.556 1.218-.624 23.977-23.343 63.992-63.88 9.734-9.862 18.22-18.412 18.857-19 .637-.589 3.607-3.559 6.6-6.602 2.993-3.043 7.962-8.025 11.042-11.071 3.08-3.047 5.925-5.867 6.322-6.268.968-.978 19.827-20.247 20.191-20.631.951-1.002 5.045-4.702 6.438-5.821.907-.727 1.649-1.6 1.649-1.94 0-.7-2.54-3.389-3.06-3.239-.187.053-61.09.188-135.34.3" fill="#fbfbfb"></path><path d="M0 200v200h400V0H0v200m337.04-66.64c1.754 1.754 1.713 2.311-.289 3.917-1.393 1.119-5.487 4.819-6.438 5.821-.364.384-19.223 19.653-20.191 20.631-.397.401-3.242 3.221-6.322 6.268-3.08 3.046-8.049 8.028-11.042 11.071-2.993 3.043-5.963 6.013-6.6 6.602-.637.588-9.123 9.138-18.857 19-40.015 40.537-62.774 63.256-63.992 63.88-1.188.609-6.768.653-70.089.556L64.422 271l-.911-.911-.911-.911-.106-66.689c-.112-70.116-.154-68.363 1.661-69.404.655-.376 31.155-.53 135.845-.687 74.25-.112 135.153-.247 135.34-.3.187-.054.952.514 1.7 1.262" fill="#044b93"></path></g></g><defs>
</defs>
</svg>