<svg viewBox="0 0 50 50" class="" role="presentation" focusable="false" xmlns:svg="http://www.w3.org/2000/svg" xmlns:xlink="http://www.w3.org/1999/xlink" id="FxSymbol0-0c0" data-type="1"><g><title></title><path d="M22 44c-1.1 0-2.1-.4-2.9-1.2L1.2 24.9C.4 24.1 0 23.1 0 22c0-1.1.4-2.1 1.2-2.9L19.1 1.2C19.9.4 20.9 0 22 0c1.1 0 2.1.4 2.9 1.2l17.9 17.9c.8.8 1.2 1.8 1.2 2.9s-.4 2.1-1.2 2.9L24.9 42.8c-.8.8-1.8 1.2-2.9 1.2" class="msportalfx-svg-c15" fill="#59b4d9"></path><path d="M34 18.6c-1.9 0-3.4 1.5-3.4 3.4 0 .7.2 1.3.6 1.9l-6.8 6.8-.6-.3V13c1-.6 1.7-1.7 1.7-3 0-1.9-1.5-3.4-3.4-3.4s-3.4 1.5-3.4 3.4c0 1.3.7 2.4 1.7 3v17.4l-.6.3-6.8-6.8c.3-.5.6-1.2.6-1.9 0-1.9-1.5-3.4-3.4-3.4S6.8 20.1 6.8 22s1.5 3.4 3.4 3.4c.4 0 .8-.1 1.1-.2l7.2 7.2c-.2.5-.3 1-.3 1.6 0 2.2 1.8 4 4 4s4-1.8 4-4c0-.5-.1-1.1-.3-1.5l7.2-7.2c.3.1.7.2 1.1.2 1.9 0 3.4-1.5 3.4-3.4-.2-2-1.7-3.5-3.6-3.5z" class="msportalfx-svg-c01" fill="#ffffff"></path><path opacity=".5" d="M21.158 10.653l1.555-1.556 12.871 12.867-1.555 1.556z" class="msportalfx-svg-c01" fill="#ffffff"></path><path opacity=".5" d="M10.009 23.54l-1.556-1.555 12.87-12.87 1.555 1.556z" class="msportalfx-svg-c01" fill="#ffffff"></path><path d="M24.3 34c0 1.3-1.1 2.4-2.4 2.4-1.3 0-2.4-1.1-2.4-2.4s1.1-2.4 2.4-2.4c1.4 0 2.4 1.1 2.4 2.4m-.4-24c0 1.1-.9 1.9-1.9 1.9s-1.9-.9-1.9-1.9.9-1.9 1.9-1.9 1.9.9 1.9 1.9m-12 12c0 1.1-.9 1.9-1.9 1.9-1.1 0-1.9-.9-1.9-1.9 0-1.1.9-1.9 1.9-1.9 1.1 0 1.9.8 1.9 1.9m24 0c0 1.1-.9 1.9-1.9 1.9s-1.9-.9-1.9-1.9c0-1.1.9-1.9 1.9-1.9s1.9.8 1.9 1.9" class="msportalfx-svg-c13" fill="#b8d432"></path><path opacity=".1" d="M24.9 1.2C24.1.4 23.1 0 22 0c-1.1 0-2.1.4-2.9 1.2L1.2 19.1C.4 19.9 0 20.9 0 22c0 1.1.4 2.1 1.2 2.9L11.3 35 30.5 6.8l-5.6-5.6z" class="msportalfx-svg-c01" fill="#ffffff"></path><path d="M48.2 30.3c-.4-.5-1-.8-1.6-1.1-2.7-1.1-6.6.3-9 3.7-3.8-4.5-8.2-5.4-10.7-2.7-5 5.4 1.3 12.6 6.2 16.6 1.9 1.6 3.7 2.7 4.4 3.1 2.7-1.2 17.6-12.1 10.7-19.6" class="msportalfx-svg-c08" fill="#ba141a"></path><path opacity=".2" d="M37.6 32.9c-3.8-4.5-8.2-5.4-10.7-2.7-5 5.4 1.3 12.6 6.2 16.6l13.6-17.7c-2.8-1-6.7.4-9.1 3.8" class="msportalfx-svg-c01" fill="#ffffff"></path><path opacity=".5" d="M26.2 39.1H29l2.5-.1 1.9-5.1c.1-.3.3-.9 1.1-.9s.9.6.9.9l.1 8.5 1.4-2.9c.1-.3.4-.4.6-.4h8.1c.4 0 .7.4.7.7s-.3.9-.7.9h-7.3l-2.6 5.2c-.2.5-.4.7-1 .6-.3-.1-.6-.5-.6-.8l-.1-7.8-.8 2.1c-.1.3-.3.7-.6.7h-5.5l-.5-.8-.4-.8z" class="msportalfx-svg-c01" fill="#ffffff"></path></g><defs>
<linearGradient id="a" x1="9" y1="16.39" x2="9" y2="-1.94" gradientUnits="userSpaceOnUse"><stop offset="0" stop-color="#0078d4"></stop><stop offset=".16" stop-color="#1380da"></stop><stop offset=".53" stop-color="#3c91e5"></stop><stop offset=".82" stop-color="#559cec"></stop><stop offset="1" stop-color="#5ea0ef"></stop></linearGradient>
<linearGradient id="b" x1="9.88" y1="7.11" x2="9.99" y2="17.27" gradientUnits="userSpaceOnUse"><stop offset="0" stop-color="#32d4f5"></stop><stop offset=".32" stop-color="#31d1f3"></stop><stop offset=".53" stop-color="#2ec9eb"></stop><stop offset=".7" stop-color="#29bade"></stop><stop offset=".86" stop-color="#22a5cb"></stop><stop offset="1" stop-color="#198ab3"></stop><stop offset="1" stop-color="#198ab3"></stop></linearGradient>
<radialGradient id="c" cx="9.43" cy="7.03" r="7.27" gradientUnits="userSpaceOnUse"><stop offset="0" stop-color="#f2f2f2"></stop><stop offset=".58" stop-color="#eee"></stop><stop offset="1" stop-color="#e6e6e6"></stop></radialGradient>
</defs>
</svg>