<svg viewBox="0 0 1152 1152" class="" role="presentation" focusable="false" xmlns:svg="http://www.w3.org/2000/svg" xmlns:xlink="http://www.w3.org/1999/xlink" id="FxSymbol0-0e9" data-type="1"><g><title></title><title>AzureARC_outlines</title><path d="M1008.8 852.9l66.9-42.5v-451l-66.8 40.2-.1 453.3z" fill="#4bc8ef"></path><path d="M913.9 340.7v454.2l94.9 58V399.5l-94.9-58.8z" fill="#96d8ec"></path><path d="M1008.8 399.5l66.8-40.2-96.3-60.3-65.5 41.6 95 58.9z" fill="#74cfeb"></path><path d="M143.2 399.5l-66.9-40.2v451.1l66.9 42.5V399.5z" fill="#2f76bc"></path><path d="M143.2 399.5v453.4l94.9-58V340.7l-94.9 58.8z" fill="#1d4b7a"></path><path d="M238.1 340.7l-65.5-41.6-96.2 60.3 66.9 40.2 94.8-58.9z" fill="#509ed7"></path><path d="M577.8 544.1c-65.6 0-126.8-6.7-181.9-19.8-44.1-10.5-84.5-25.2-119.9-43.6-60.6-31.5-85.5-62.6-86.5-63.9-1.2-1.5-.9-3.7.6-4.9 1.5-1.2 3.7-.9 4.9.6.2.3 25.3 31.5 84.7 62.2 34.9 18.1 74.7 32.5 118.2 42.8 54.5 12.9 115 19.5 179.9 19.5 65.1 0 125.5-6.6 179.7-19.6 43.3-10.4 82.7-24.8 117-43 58.3-30.8 82.1-61.6 82.4-62 1.2-1.5 3.4-1.8 4.9-.7 1.5 1.2 1.8 3.4.7 4.9-1 1.3-25 32.5-84.7 63.9-34.9 18.5-74.8 33.1-118.6 43.6-54.7 13.4-115.7 20-181.4 20z" fill="url(#16682029753656025)"></path><path d="M577.8 558.1c-82 0-200.8-7.7-301.4-44.2-60.5-21.9-85.5-43.7-86.5-44.6-1.4-1.3-1.5-3.5-.2-4.9 1.3-1.4 3.4-1.5 4.9-.3.2.2 25.3 22 84.8 43.5 99.6 36 217.3 43.5 298.5 43.5 81.4 0 199-7.6 297.2-43.7 58.3-21.5 82.1-43 82.4-43.2 1.4-1.3 3.7-1.2 4.9.3 1.3 1.4 1.2 3.6-.2 4.9-1 .9-25 22.7-84.7 44.6-34.8 12.8-74.7 23-118.5 30.4-54.7 9.1-115.6 13.7-181.2 13.7z" fill="url(#5483770988075776)"></path><path d="M577.8 572.1c-81.9 0-200.5-4.4-301-25.5-60.4-12.7-85.2-25.2-86.2-25.8-1.7-.9-2.4-3-1.5-4.7s3-2.4 4.7-1.5c.2.1 25.4 12.8 85 25.3 99.8 20.9 217.6 25.3 299 25.3s198.8-4.4 297-25.3c58.7-12.5 83-25.1 83.2-25.3 1.7-1 3.8-.4 4.8 1.3s.4 3.8-1.3 4.8c-.1 0-.1.1-.2.1-1 .5-25 13.1-84.4 25.8-98.8 21.1-217.2 25.5-299.1 25.5z" fill="url(#5861750017047598)"></path><path d="M577.8 586.1c-283.6 0-385.4-24.7-386.4-25-1.9-.5-3-2.4-2.5-4.2.5-1.9 2.4-3 4.2-2.5 1 .2 102.2 24.8 384.7 24.8s380-24.5 381-24.8c1.9-.4 3.8.8 4.2 2.7.4 1.8-.7 3.6-2.4 4.1-.9.1-99.1 24.9-382.8 24.9z" fill="url(#7910850021089573)"></path><path d="M957.6 600.1H192.3c-1.9 0-3.5-1.6-3.5-3.5s1.6-3.5 3.5-3.5h765.4c1.9 0 3.5 1.6 3.5 3.5s-1.6 3.5-3.6 3.5z" fill="url(#3028833842372478)"></path><path d="M959.7 782c-1.1 0-2.1-.5-2.8-1.4-.2-.3-24.3-31.5-82.8-62.2-34.4-18.1-73.7-32.5-116.9-42.8-54.1-12.9-114.4-19.5-179.3-19.5s-125.5 6.6-179.9 19.5c-43.5 10.3-83.3 24.7-118.2 42.8-59.4 30.8-84.4 61.9-84.6 62.2-1.2 1.5-3.4 1.8-4.9.6-1.5-1.2-1.8-3.4-.6-4.9 1-1.3 25.9-32.4 86.5-63.9 35.4-18.4 75.8-33.1 119.9-43.6C451.2 655.7 512.4 649 578 649s126.6 6.7 181.3 19.8c43.8 10.5 83.7 25.2 118.6 43.6 59.7 31.5 83.7 62.6 84.7 63.9 1.2 1.5.9 3.7-.7 4.9-.7.5-1.4.8-2.2.8z" fill="url(#1314771538363857)"></path><path d="M959.7 730c-.9 0-1.7-.3-2.4-.9-.2-.2-24.4-22-83-43.5-98-36-215.4-43.5-296.6-43.5s-198.9 7.5-298.5 43.5c-59.5 21.5-84.6 43.3-84.8 43.5-1.4 1.3-3.6 1.2-4.9-.2-1.3-1.4-1.2-3.6.2-4.9l.1-.1c1-.9 26-22.7 86.5-44.6 55.5-20.1 152.9-44.2 301.4-44.2 65.5 0 126.5 4.6 181.1 13.8 43.8 7.3 83.6 17.5 118.5 30.4 59.6 22 83.7 43.7 84.7 44.7 1.4 1.3 1.5 3.5.2 4.9-.6.7-1.5 1.1-2.5 1.1z" fill="url(#19512602321992745)"></path><path d="M192.3 679c-1.9 0-3.5-1.5-3.5-3.5 0-1.3.7-2.5 1.9-3.1 1-.5 25.9-13.1 86.2-25.8 100.4-21.1 219.1-25.5 301-25.5s200.2 4.4 299.1 25.5c59.5 12.7 83.4 25.3 84.4 25.8 1.7.9 2.4 3 1.6 4.7-.9 1.7-3 2.4-4.7 1.6-.1 0-.1-.1-.2-.1-.2-.1-24.5-12.8-83.2-25.3-98.2-20.9-215.8-25.3-297-25.3-81.5 0-199.6 4.4-299.5 25.4-59.4 12.5-84.2 25-84.5 25.2-.5.3-1 .5-1.6.4z" fill="url(#17469867720865295)"></path><path d="M192.3 639c-1.9 0-3.5-1.6-3.5-3.5 0-1.6 1.1-3 2.6-3.4 1-.2 102.8-25 386.4-25s381.8 24.8 382.8 25c1.9.6 2.9 2.5 2.3 4.4-.5 1.8-2.3 2.8-4.1 2.4-1-.2-98.5-24.8-381-24.8s-383.7 24.5-384.7 24.8c-.3 0-.5.1-.8.1z" fill="url(#18532536307611736)"></path></g><defs>
<linearGradient id="16682029753656025" gradientUnits="userSpaceOnUse" x1="264.011" y1="386.793" x2="1038.451" y2="386.793" gradientTransform="matrix(1 0 0 -1 -75.24 864.42)"><stop offset=".25" stop-color="#0560a5"></stop><stop offset=".8" stop-color="#72c8e6"></stop></linearGradient>
<linearGradient id="5483770988075776" gradientUnits="userSpaceOnUse" x1="264.043" y1="353.736" x2="1038.443" y2="353.736" gradientTransform="matrix(1 0 0 -1 -75.24 864.42)"><stop offset=".25" stop-color="#0560a5"></stop><stop offset=".8" stop-color="#72c8e6"></stop></linearGradient>
<linearGradient id="5861750017047598" gradientUnits="userSpaceOnUse" x1="263.997" y1="321.307" x2="1038.54" y2="321.307" gradientTransform="matrix(1 0 0 -1 -75.24 864.42)"><stop offset=".25" stop-color="#0560a5"></stop><stop offset=".8" stop-color="#72c8e6"></stop></linearGradient>
<linearGradient id="7910850021089573" gradientUnits="userSpaceOnUse" x1="264.003" y1="294.264" x2="1038.343" y2="294.264" gradientTransform="matrix(1 0 0 -1 -75.24 864.42)"><stop offset=".25" stop-color="#0560a5"></stop><stop offset=".8" stop-color="#72c8e6"></stop></linearGradient>
<linearGradient id="3028833842372478" gradientUnits="userSpaceOnUse" x1="264" y1="267.815" x2="1036.36" y2="267.815" gradientTransform="matrix(1 0 0 -1 -75.24 864.42)"><stop offset=".25" stop-color="#0560a5"></stop><stop offset=".8" stop-color="#72c8e6"></stop></linearGradient>
<linearGradient id="1314771538363857" gradientUnits="userSpaceOnUse" x1="264.059" y1="891.735" x2="1038.477" y2="891.735" gradientTransform="translate(-75.24 -176.19)"><stop offset=".25" stop-color="#0560a5"></stop><stop offset=".8" stop-color="#72c8e6"></stop></linearGradient>
<linearGradient id="19512602321992745" gradientUnits="userSpaceOnUse" x1="263.917" y1="858.754" x2="1038.434" y2="858.754" gradientTransform="translate(-75.24 -176.19)"><stop offset=".25" stop-color="#0560a5"></stop><stop offset=".8" stop-color="#72c8e6"></stop></linearGradient>
<linearGradient id="17469867720865295" gradientUnits="userSpaceOnUse" x1="263.986" y1="826.287" x2="1038.62" y2="826.287" gradientTransform="translate(-75.24 -176.19)"><stop offset=".25" stop-color="#0560a5"></stop><stop offset=".8" stop-color="#72c8e6"></stop></linearGradient>
<linearGradient id="18532536307611736" gradientUnits="userSpaceOnUse" x1="264.02" y1="799.23" x2="1038.353" y2="799.23" gradientTransform="translate(-75.24 -176.19)"><stop offset=".25" stop-color="#0560a5"></stop><stop offset=".8" stop-color="#72c8e6"></stop></linearGradient>
</defs>
</svg>