<svg viewBox="0 0 50 50" class="fxs-portal-svg" role="presentation" focusable="false" xmlns:svg="http://www.w3.org/2000/svg" xmlns:xlink="http://www.w3.org/1999/xlink" id="FxSymbol0-0e0" data-type="1"><g><title></title><path d="M37.629 5.96C26.809 4.745 24.999 0 24.999 0S22.564 6.242 7 6.242v25.611c0 3.097 1.69 5.997 4.031 8.532C16.336 46.133 25 50.001 25 50.001s18-8.029 18-18.149V6.242a48 48 0 0 1-5.371-.282z" class="msportalfx-svg-c19" fill="#0072c6"></path><path d="M32.206 24.006h-1.207v-3.552a6.73 6.73 0 0 0-1.655-4.45c-.039-.043-.073-.09-.111-.133-1.098-1.186-2.51-1.948-4.234-1.947-1.721-.001-3.134.761-4.231 1.947C19.667 17.058 19 18.682 19 20.453v3.553h-1.206a.797.797 0 0 0-.794.801v9.392c0 .442.356.801.794.801h14.412a.798.798 0 0 0 .794-.801v-9.391a.798.798 0 0 0-.794-.802zm-4.127.001h-4.677l.001-.001h-1.482v-3.552c0-1.022.383-1.927.98-2.57.6-.643 1.233-1.013 2.099-1.013.867 0 1.501.37 2.101 1.013.142.153.269.323.386.504l-.001.001c.37.579.595 1.288.595 2.064l-.002 3.554z" class="msportalfx-svg-c01" fill="#ffffff"></path></g><defs>
<linearGradient id="a" x1="9" y1="16.39" x2="9" y2="-1.94" gradientUnits="userSpaceOnUse"><stop offset="0" stop-color="#0078d4"></stop><stop offset=".16" stop-color="#1380da"></stop><stop offset=".53" stop-color="#3c91e5"></stop><stop offset=".82" stop-color="#559cec"></stop><stop offset="1" stop-color="#5ea0ef"></stop></linearGradient>
<linearGradient id="b" x1="9.88" y1="7.11" x2="9.99" y2="17.27" gradientUnits="userSpaceOnUse"><stop offset="0" stop-color="#32d4f5"></stop><stop offset=".32" stop-color="#31d1f3"></stop><stop offset=".53" stop-color="#2ec9eb"></stop><stop offset=".7" stop-color="#29bade"></stop><stop offset=".86" stop-color="#22a5cb"></stop><stop offset="1" stop-color="#198ab3"></stop><stop offset="1" stop-color="#198ab3"></stop></linearGradient>
<radialGradient id="c" cx="9.43" cy="7.03" r="7.27" gradientUnits="userSpaceOnUse"><stop offset="0" stop-color="#f2f2f2"></stop><stop offset=".58" stop-color="#eee"></stop><stop offset="1" stop-color="#e6e6e6"></stop></radialGradient>
</defs>
</svg>