<svg viewBox="0 0 42.664 50" class="" role="presentation" focusable="false" xmlns:svg="http://www.w3.org/2000/svg" xmlns:xlink="http://www.w3.org/1999/xlink" id="FxSymbol0-091" data-type="1"><g><title></title><ellipse cx="8.477" cy="2.217" rx="6.902" ry="2.099" class="msportalfx-svg-c13" fill="#b8d432"></ellipse><path d="M42.664 27.695v22.188H0L.017 3.126C.199 4.46 3.821 5.525 8.275 5.525c4.447 0 8.064-1.062 8.257-2.393.002 1.387.054 24.439.054 24.439h-.053" class="msportalfx-svg-c15" fill="#59b4d9"></path><path d="M42.664 16.823v12.042H15.315l15.874-13.427v11.066z" class="msportalfx-svg-c15" fill="#59b4d9"></path><path d="M21.615 34.701h6.231v6.231h-6.231zm-10.578 0h6.231v6.231h-6.231zm21.05 0h6.231v6.231h-6.231z" class="msportalfx-svg-c16" fill="#3999c6"></path></g><defs>
<linearGradient id="a" x1="9" y1="16.39" x2="9" y2="-1.94" gradientUnits="userSpaceOnUse"><stop offset="0" stop-color="#0078d4"></stop><stop offset=".16" stop-color="#1380da"></stop><stop offset=".53" stop-color="#3c91e5"></stop><stop offset=".82" stop-color="#559cec"></stop><stop offset="1" stop-color="#5ea0ef"></stop></linearGradient>
<linearGradient id="b" x1="9.88" y1="7.11" x2="9.99" y2="17.27" gradientUnits="userSpaceOnUse"><stop offset="0" stop-color="#32d4f5"></stop><stop offset=".32" stop-color="#31d1f3"></stop><stop offset=".53" stop-color="#2ec9eb"></stop><stop offset=".7" stop-color="#29bade"></stop><stop offset=".86" stop-color="#22a5cb"></stop><stop offset="1" stop-color="#198ab3"></stop><stop offset="1" stop-color="#198ab3"></stop></linearGradient>
<radialGradient id="c" cx="9.43" cy="7.03" r="7.27" gradientUnits="userSpaceOnUse"><stop offset="0" stop-color="#f2f2f2"></stop><stop offset=".58" stop-color="#eee"></stop><stop offset="1" stop-color="#e6e6e6"></stop></radialGradient>
</defs>
</svg>