<svg viewBox="0 0 50 50" class="" role="presentation" focusable="false" xmlns:svg="http://www.w3.org/2000/svg" xmlns:xlink="http://www.w3.org/1999/xlink" id="FxSymbol0-0c9" data-type="1"><g><title></title><path d="M50 25.5c0-3.2-2.6-5.8-5.8-5.8h-.7c.4-1.3.5-2.7.5-4.1C44.1 7 37.1 0 28.6 0 21.8 0 16 4.4 14 10.6c-1.1-.4-2.2-.6-3.4-.6C4.7 10 0 14.8 0 20.7c0 5.9 4.7 10.6 10.5 10.6h34.1c3.1-.3 5.4-2.8 5.4-5.8" class="msportalfx-svg-c19" fill="#0072c6"></path><path opacity=".1" d="M16.2 31.3c-1.4-1.4-2.4-3.2-2.9-5.2-1.3-5.7 2.2-11.4 7.9-12.7 1.2-.3 2.4-.3 3.5-.2.5-5.4 3.8-10.1 8.6-12.5-1.5-.4-3-.7-4.7-.7C21.8 0 16 4.4 14 10.6c-1.1-.4-2.2-.6-3.4-.6C4.7 10 0 14.8 0 20.7c0 5.9 4.7 10.6 10.5 10.6h5.7z" class="msportalfx-svg-c01" fill="#ffffff"></path><path d="M46.3 46.3L35.8 28v-7.4h.2c1.3 0 2.3-1 2.3-2.3S37.2 16 36 16H24.4c-1.3 0-2.3 1-2.3 2.3s1 2.3 2.3 2.3h.2V28L14 46.3c-1.2 2-.2 3.7 2.1 3.7h28.1c2.4 0 3.3-1.6 2.1-3.7z" class="msportalfx-svg-c15" fill="#59b4d9"></path><path d="M37.6 38.5h-5c.1.3.2.6.2.9 0 1.2-1 2.1-2.1 2.1s-2.1-1-2.1-2.1c0-.3.1-.7.2-.9h-6.1L18.4 46H42l-4.4-7.5z" class="msportalfx-svg-c17" fill="#804998"></path><path d="M30.7 41.5c1.2 0 2.1-1 2.1-2.1 0-.3-.1-.7-.2-.9h-3.8c-.1.3-.2.6-.2.9 0 1.2 1 2.1 2.1 2.1z" class="msportalfx-svg-c20" fill="#68217a"></path><circle cx="33.4" cy="43.2" r="1" class="msportalfx-svg-c20" fill="#68217a"></circle><path opacity=".25" d="M14 46.3L24.6 28v-7.4h-.2c-1.3 0-2.3-1-2.3-2.3s1-2.3 2.3-2.3h5v12l-5.6 22h-7.7c-2.3 0-3.2-1.6-2.1-3.7z" class="msportalfx-svg-c01" fill="#ffffff"></path></g><defs>
<linearGradient id="a" x1="9" y1="16.39" x2="9" y2="-1.94" gradientUnits="userSpaceOnUse"><stop offset="0" stop-color="#0078d4"></stop><stop offset=".16" stop-color="#1380da"></stop><stop offset=".53" stop-color="#3c91e5"></stop><stop offset=".82" stop-color="#559cec"></stop><stop offset="1" stop-color="#5ea0ef"></stop></linearGradient>
<linearGradient id="b" x1="9.88" y1="7.11" x2="9.99" y2="17.27" gradientUnits="userSpaceOnUse"><stop offset="0" stop-color="#32d4f5"></stop><stop offset=".32" stop-color="#31d1f3"></stop><stop offset=".53" stop-color="#2ec9eb"></stop><stop offset=".7" stop-color="#29bade"></stop><stop offset=".86" stop-color="#22a5cb"></stop><stop offset="1" stop-color="#198ab3"></stop><stop offset="1" stop-color="#198ab3"></stop></linearGradient>
<radialGradient id="c" cx="9.43" cy="7.03" r="7.27" gradientUnits="userSpaceOnUse"><stop offset="0" stop-color="#f2f2f2"></stop><stop offset=".58" stop-color="#eee"></stop><stop offset="1" stop-color="#e6e6e6"></stop></radialGradient>
</defs>
</svg>