<svg viewBox="-163 237 32 32" class="" role="presentation" focusable="false" xmlns:svg="http://www.w3.org/2000/svg" xmlns:xlink="http://www.w3.org/1999/xlink" id="FxSymbol0-09d" data-type="1"><g><title></title><path d="M-144 251.5c0 .3-.2.5-.5.5h-3.9c-.3 0-.5-.2-.5-.5v-2.9c0-.3.2-.5.5-.5h3.9c.3 0 .5.2.5.5v2.9zm7 3c0 .3-.2.5-.5.5h-3.9c-.3 0-.5-.2-.5-.5v-2.9c0-.3.2-.5.5-.5h3.9c.3 0 .5.2.5.5v2.9zm-7 3c0 .3-.2.5-.5.5h-3.9c-.3 0-.5-.2-.5-.5v-2.9c0-.3.2-.5.5-.5h3.9c.3 0 .5.2.5.5v2.9zm-7-9c0 .3-.2.5-.5.5h-4c-.3 0-.5-.2-.5-.5v-3c0-.3.2-.5.5-.5h3.9c.4 0 .6.2.6.5v3z" class="msportalfx-svg-c13" fill="#b8d432"></path><path d="M-133.5 238h-28c-.3 0-.5.2-.5.5v6c0 .3.2.5.5.5h3c.3 0 .5-.2.5-.5V242h21v2.5c0 .3.2.5.6.5h2.9c.3 0 .5-.2.5-.5v-6c0-.3-.2-.5-.5-.5zm0 23.1h-2.9c-.3 0-.5.2-.5.5v2.4H-158v-2.5c0-.3-.2-.5-.6-.5h-2.9c-.3 0-.5.2-.5.6v5.9c0 .3.2.5.5.5h28c.3 0 .5-.2.5-.5v-5.9c0-.3-.2-.5-.5-.5z" class="msportalfx-svg-c19" fill="#0072c6"></path><path d="M-151 254.5c0 .3-.2.5-.5.5h-4c-.3 0-.5-.2-.5-.5v-3c0-.3.2-.5.5-.5h3.9c.4 0 .6.2.6.5v3zm0 6c0 .3-.2.5-.5.5h-4c-.3 0-.5-.2-.5-.5v-3c0-.3.2-.5.5-.5h3.9c.4 0 .6.2.6.5v3z" class="msportalfx-svg-c13" fill="#b8d432"></path></g><defs>
<linearGradient id="a" x1="9" y1="16.39" x2="9" y2="-1.94" gradientUnits="userSpaceOnUse"><stop offset="0" stop-color="#0078d4"></stop><stop offset=".16" stop-color="#1380da"></stop><stop offset=".53" stop-color="#3c91e5"></stop><stop offset=".82" stop-color="#559cec"></stop><stop offset="1" stop-color="#5ea0ef"></stop></linearGradient>
<linearGradient id="b" x1="9.88" y1="7.11" x2="9.99" y2="17.27" gradientUnits="userSpaceOnUse"><stop offset="0" stop-color="#32d4f5"></stop><stop offset=".32" stop-color="#31d1f3"></stop><stop offset=".53" stop-color="#2ec9eb"></stop><stop offset=".7" stop-color="#29bade"></stop><stop offset=".86" stop-color="#22a5cb"></stop><stop offset="1" stop-color="#198ab3"></stop><stop offset="1" stop-color="#198ab3"></stop></linearGradient>
<radialGradient id="c" cx="9.43" cy="7.03" r="7.27" gradientUnits="userSpaceOnUse"><stop offset="0" stop-color="#f2f2f2"></stop><stop offset=".58" stop-color="#eee"></stop><stop offset="1" stop-color="#e6e6e6"></stop></radialGradient>
</defs>
</svg>