<svg viewBox="0 0 50 50" class="" role="presentation" focusable="false" xmlns:svg="http://www.w3.org/2000/svg" xmlns:xlink="http://www.w3.org/1999/xlink" id="FxSymbol0-09e" data-type="1"><g><title></title><path d="M9.5 18h-4a.5.5 0 0 1-.5-.5v-3a.5.5 0 0 1 .5-.5h4a.5.5 0 0 1 .5.5v3a.5.5 0 0 1-.5.5zm0 7h-4a.5.5 0 0 1-.5-.5v-3a.5.5 0 0 1 .5-.5h4a.5.5 0 0 1 .5.5v3a.5.5 0 0 1-.5.5zm0-14h-4a.5.5 0 0 1-.5-.5v-3a.5.5 0 0 1 .5-.5h4a.5.5 0 0 1 .5.5v3a.5.5 0 0 1-.5.5z" class="msportalfx-svg-c14" fill="#57a300"></path><path d="M0 1.5v6a.5.5 0 0 0 .5.5h2a.5.5 0 0 0 .5-.5v-3a.5.5 0 0 1 .5-.5h21a.5.5 0 0 1 .5.5v3a.5.5 0 0 0 .5.5h2a.5.5 0 0 0 .5-.5v-6a.5.5 0 0 0-.5-.5H.5a.5.5 0 0 0-.5.5z" class="msportalfx-svg-c04" fill="#7a7a7a"></path><path d="M20.5 27h-4a.5.5 0 0 1-.5-.5v-3a.5.5 0 0 1 .5-.5h4a.5.5 0 0 1 .5.5v3a.5.5 0 0 1-.5.5zm0 7h-4a.5.5 0 0 1-.5-.5v-3a.5.5 0 0 1 .5-.5h4a.5.5 0 0 1 .5.5v3a.5.5 0 0 1-.5.5zm0-14h-4a.5.5 0 0 1-.5-.5v-3a.5.5 0 0 1 .5-.5h4a.5.5 0 0 1 .5.5v3a.5.5 0 0 1-.5.5z" class="msportalfx-svg-c14" fill="#57a300"></path><path d="M11 10.5v6a.5.5 0 0 0 .5.5h2a.5.5 0 0 0 .5-.5v-3a.5.5 0 0 1 .5-.5h21a.5.5 0 0 1 .5.5v3a.5.5 0 0 0 .5.5h2a.5.5 0 0 0 .5-.5v-6a.5.5 0 0 0-.5-.5h-27a.5.5 0 0 0-.5.5z" class="msportalfx-svg-c04" fill="#7a7a7a"></path><path d="M31.5 36h-4a.5.5 0 0 1-.5-.5v-3a.5.5 0 0 1 .5-.5h4a.5.5 0 0 1 .5.5v3a.5.5 0 0 1-.5.5zm7-4h-4a.5.5 0 0 1-.5-.5v-3a.5.5 0 0 1 .5-.5h4a.5.5 0 0 1 .5.5v3a.5.5 0 0 1-.5.5zm0 7h-4a.5.5 0 0 1-.5-.5v-3a.5.5 0 0 1 .5-.5h4a.5.5 0 0 1 .5.5v3a.5.5 0 0 1-.5.5zm7-3h-4a.5.5 0 0 1-.5-.5v-3a.5.5 0 0 1 .5-.5h4a.5.5 0 0 1 .5.5v3a.5.5 0 0 1-.5.5zm-14 7h-4a.5.5 0 0 1-.5-.5v-3a.5.5 0 0 1 .5-.5h4a.5.5 0 0 1 .5.5v3a.5.5 0 0 1-.5.5zm0-14h-4a.5.5 0 0 1-.5-.5v-3a.5.5 0 0 1 .5-.5h4a.5.5 0 0 1 .5.5v3a.5.5 0 0 1-.5.5z" class="msportalfx-svg-c14" fill="#57a300"></path><path d="M22 19.5v6a.5.5 0 0 0 .5.5h2a.5.5 0 0 0 .5-.5v-3a.5.5 0 0 1 .5-.5h21a.5.5 0 0 1 .5.5v3a.5.5 0 0 0 .5.5h2a.5.5 0 0 0 .5-.5v-6a.5.5 0 0 0-.5-.5h-27a.5.5 0 0 0-.5.5zm28 29v-6a.5.5 0 0 0-.5-.5h-2a.5.5 0 0 0-.5.5v3a.5.5 0 0 1-.5.5h-21a.5.5 0 0 1-.5-.5v-3a.5.5 0 0 0-.5-.5h-2a.5.5 0 0 0-.5.5v6a.5.5 0 0 0 .5.5h27a.5.5 0 0 0 .5-.5z" class="msportalfx-svg-c16" fill="#3999c6"></path><path d="M11 28H3.5a.5.5 0 0 1-.5-.5v-3a.5.5 0 0 0-.5-.5h-2a.5.5 0 0 0-.5.5v6a.5.5 0 0 0 .5.5H11v-3zm11 9h-7.5a.5.5 0 0 1-.5-.5v-3a.5.5 0 0 0-.5-.5h-2a.5.5 0 0 0-.5.5v6a.5.5 0 0 0 .5.5H22v-3z" class="msportalfx-svg-c04" fill="#7a7a7a"></path></g><defs>
<linearGradient id="a" x1="9" y1="16.39" x2="9" y2="-1.94" gradientUnits="userSpaceOnUse"><stop offset="0" stop-color="#0078d4"></stop><stop offset=".16" stop-color="#1380da"></stop><stop offset=".53" stop-color="#3c91e5"></stop><stop offset=".82" stop-color="#559cec"></stop><stop offset="1" stop-color="#5ea0ef"></stop></linearGradient>
<linearGradient id="b" x1="9.88" y1="7.11" x2="9.99" y2="17.27" gradientUnits="userSpaceOnUse"><stop offset="0" stop-color="#32d4f5"></stop><stop offset=".32" stop-color="#31d1f3"></stop><stop offset=".53" stop-color="#2ec9eb"></stop><stop offset=".7" stop-color="#29bade"></stop><stop offset=".86" stop-color="#22a5cb"></stop><stop offset="1" stop-color="#198ab3"></stop><stop offset="1" stop-color="#198ab3"></stop></linearGradient>
<radialGradient id="c" cx="9.43" cy="7.03" r="7.27" gradientUnits="userSpaceOnUse"><stop offset="0" stop-color="#f2f2f2"></stop><stop offset=".58" stop-color="#eee"></stop><stop offset="1" stop-color="#e6e6e6"></stop></radialGradient>
</defs>
</svg>