<svg viewBox="0 0 50 50" class="fxs-portal-svg" role="presentation" focusable="false" xmlns:svg="http://www.w3.org/2000/svg" xmlns:xlink="http://www.w3.org/1999/xlink" id="FxSymbol0-061" data-type="1"><g><title></title><path d="M31 38H19c1.634 5.768-.386 7-10 7v3h32v-3c-9.614 0-11.636-1.229-10-7z" class="msportalfx-svg-c04" fill="#7a7a7a"></path><path d="M46.979 2H2.717C1.213 2 0 3.325 0 4.805v30.412c0 1.471 1.213 2.782 2.717 2.782h44.262c1.501 0 3.021-1.31 3.021-2.782V4.805C50 3.321 48.48 2 46.979 2" class="msportalfx-svg-c03" fill="#a0a1a2"></path><path opacity=".2" d="M47.01 2.003l-.031-.002H2.716c-1.504 0-2.717 1.324-2.717 2.805v30.411C-.001 36.69 1.212 38 2.716 38h1.053L47.01 2.003z" class="msportalfx-svg-c01" fill="#ffffff"></path><path d="M46 6v28H4V6z" class="msportalfx-svg-c15" fill="#59b4d9"></path><path d="M9 44.979L41 45v3H9z" class="msportalfx-svg-c03" fill="#a0a1a2"></path><path d="M25.517 4.095a.71.71 0 1 1-1.42 0 .71.71 0 0 1 1.42 0" class="msportalfx-svg-c13" fill="#b8d432"></path><path d="M25.027 18.802a.271.271 0 0 1-.13-.036l-8.56-4.858a.257.257 0 0 1-.128-.221c0-.091.05-.175.128-.22l8.508-4.826a.265.265 0 0 1 .256 0l8.563 4.859a.25.25 0 0 1 .127.22.251.251 0 0 1-.127.22l-8.505 4.825a.274.274 0 0 1-.132.037" class="msportalfx-svg-c01" fill="#ffffff"></path><path opacity=".7" d="M23.797 30.608a.245.245 0 0 1-.13-.034l-8.534-4.842a.25.25 0 0 1-.133-.221v-9.717c0-.092.05-.175.132-.221a.26.26 0 0 1 .261 0l8.533 4.84a.265.265 0 0 1 .126.223v9.717a.26.26 0 0 1-.126.221.274.274 0 0 1-.129.034" class="msportalfx-svg-c01" fill="#ffffff"></path><path opacity=".4" d="M26.213 30.608a.28.28 0 0 1-.134-.034.257.257 0 0 1-.125-.221v-9.656c0-.09.05-.174.125-.221l8.533-4.84a.257.257 0 0 1 .257 0 .252.252 0 0 1 .131.22v9.655a.25.25 0 0 1-.131.221l-8.53 4.842a.236.236 0 0 1-.126.034" class="msportalfx-svg-c01" fill="#ffffff"></path><path d="M15 8H6v9h3v-6h6zM6 23v9h9v-3H9v-6zm29 9h9v-9h-3v6h-6zm9-15V8h-9v3h6v6z" class="msportalfx-svg-c01" fill="#ffffff"></path></g><defs>
<linearGradient id="a" x1="9" y1="16.39" x2="9" y2="-1.94" gradientUnits="userSpaceOnUse"><stop offset="0" stop-color="#0078d4"></stop><stop offset=".16" stop-color="#1380da"></stop><stop offset=".53" stop-color="#3c91e5"></stop><stop offset=".82" stop-color="#559cec"></stop><stop offset="1" stop-color="#5ea0ef"></stop></linearGradient>
<linearGradient id="b" x1="9.88" y1="7.11" x2="9.99" y2="17.27" gradientUnits="userSpaceOnUse"><stop offset="0" stop-color="#32d4f5"></stop><stop offset=".32" stop-color="#31d1f3"></stop><stop offset=".53" stop-color="#2ec9eb"></stop><stop offset=".7" stop-color="#29bade"></stop><stop offset=".86" stop-color="#22a5cb"></stop><stop offset="1" stop-color="#198ab3"></stop><stop offset="1" stop-color="#198ab3"></stop></linearGradient>
<radialGradient id="c" cx="9.43" cy="7.03" r="7.27" gradientUnits="userSpaceOnUse"><stop offset="0" stop-color="#f2f2f2"></stop><stop offset=".58" stop-color="#eee"></stop><stop offset="1" stop-color="#e6e6e6"></stop></radialGradient>
</defs>
</svg>