<svg viewBox="0 0 24 24" class="" role="presentation" focusable="false" xmlns:svg="http://www.w3.org/2000/svg" xmlns:xlink="http://www.w3.org/1999/xlink" id="FxSymbol0-0c6" data-type="1"><g><title></title><path d="M11.5 1C8.5 1 6 3.5 6 6.5 6 9 7.6 11 9.7 11.7L8.5 13l1.5 1.3-1.5 1.4L10 17l-1.5 1.5 3 2.8 2.5-2.6v-7.3c1.8-1 3-2.8 3-5 0-3-2.5-5.4-5.5-5.4zm1 4s-.2 0-.3.2-.2.2-.3.2H11l-.2-.2-.2-.3V4l.2-.2.3-.2h.9l.2.2.2.3V5z" class="msportalfx-svg-c11" fill="#fcd116"></path><path opacity=".4" d="M12 12v7.2l1-1v-6.4a5.5 5.5 0 0 1-1 .2z" class="msportalfx-svg-c10" fill="#ff8c00"></path><path opacity=".4" d="M11.5 10A3.5 3.5 0 0 0 15 7H8a3.5 3.5 0 0 0 3.5 3z" class="msportalfx-svg-c01" fill="#ffffff"></path><path d="M17.4 3.8c.3.6.4 1 .5 1.7a9.5 9.5 0 0 1 3 7c0 5.2-4.3 9.5-9.5 9.5S2 17.7 2 12.5a9.5 9.5 0 0 1 3-7l.6-1.7A10.5 10.5 0 0 0 1 12.5C1 18.3 5.7 23 11.5 23S22 18.3 22 12.5c0-3.6-1.8-6.8-4.6-8.7z" class="msportalfx-svg-c14" fill="#57a300"></path></g><defs>
<linearGradient id="a" x1="9" y1="16.39" x2="9" y2="-1.94" gradientUnits="userSpaceOnUse"><stop offset="0" stop-color="#0078d4"></stop><stop offset=".16" stop-color="#1380da"></stop><stop offset=".53" stop-color="#3c91e5"></stop><stop offset=".82" stop-color="#559cec"></stop><stop offset="1" stop-color="#5ea0ef"></stop></linearGradient>
<linearGradient id="b" x1="9.88" y1="7.11" x2="9.99" y2="17.27" gradientUnits="userSpaceOnUse"><stop offset="0" stop-color="#32d4f5"></stop><stop offset=".32" stop-color="#31d1f3"></stop><stop offset=".53" stop-color="#2ec9eb"></stop><stop offset=".7" stop-color="#29bade"></stop><stop offset=".86" stop-color="#22a5cb"></stop><stop offset="1" stop-color="#198ab3"></stop><stop offset="1" stop-color="#198ab3"></stop></linearGradient>
<radialGradient id="c" cx="9.43" cy="7.03" r="7.27" gradientUnits="userSpaceOnUse"><stop offset="0" stop-color="#f2f2f2"></stop><stop offset=".58" stop-color="#eee"></stop><stop offset="1" stop-color="#e6e6e6"></stop></radialGradient>
</defs>
</svg>