<svg viewBox="0 0 50 50" class="" role="presentation" focusable="false" xmlns:svg="http://www.w3.org/2000/svg" xmlns:xlink="http://www.w3.org/1999/xlink" id="FxSymbol0-0f2" data-type="1"><g><title></title><path d="M40.877 15.18c.034-.368.056-.74.056-1.118 0-6.607-5.35-11.962-11.95-11.962-5.114 0-9.466 3.222-11.171 7.744a12.383 12.383 0 0 0-4.264-.766C6.673 9.078 1.1 14.657 1.1 21.539S6.673 34 13.548 34H39.44c5.225 0 9.461-4.24 9.461-9.47 0-4.74-3.483-8.655-8.024-9.35z" class="msportalfx-svg-c15" fill="#59b4d9"></path><path d="M25 22c-7.18 0-13 5.82-13 13s5.82 13 13 13 13-5.82 13-13-5.82-13-13-13z" class="msportalfx-svg-c15" fill="#59b4d9"></path><path opacity=".8" d="M25 22c-7.18 0-13 5.82-13 13s5.82 13 13 13 13-5.82 13-13-5.82-13-13-13z" class="msportalfx-svg-c01" fill="#ffffff"></path><path d="M25 21c-7.732 0-14 6.268-14 14s6.268 14 14 14 14-6.268 14-14-6.268-14-14-14zm0 26.133c-6.69 0-12.133-5.443-12.133-12.133S18.31 22.867 25 22.867 37.134 28.31 37.134 35 31.69 47.133 25 47.133z" class="msportalfx-svg-c19" fill="#0072c6"></path><path d="M25 22.058c-3.574 0-6.471 5.794-6.471 12.942S21.426 47.942 25 47.942 31.471 42.148 31.471 35 28.574 22.058 25 22.058zm0 24.607c-2.237 0-4.729-4.791-4.729-11.665S22.764 23.335 25 23.335 29.729 28.126 29.729 35 27.237 46.665 25 46.665z" class="msportalfx-svg-c19" fill="#0072c6"></path><path d="M12.218 34.125h25.565v1.75H12.218zm23.221-7.368c-2.235 1.313-5.92 2.297-10.439 2.297s-8.204-.984-10.439-2.297c-.254.316-.617 1.45-.72 1.604 2.557 1.538 6.603 2.533 11.159 2.533s8.602-.994 11.159-2.533c-.102-.154-.466-1.288-.72-1.604zm.72 15.504c-2.557-1.538-6.603-2.533-11.159-2.533s-8.602.994-11.159 2.533c.102.154.466 1.288.72 1.604 2.235-1.313 5.921-2.297 10.439-2.297s8.204.984 10.439 2.297c.254-.316.618-1.45.72-1.604z" class="msportalfx-svg-c19" fill="#0072c6"></path><path d="M12.727 29.52c-3.374-2.445-5.109-5.872-5.158-9.199-.1-6.713 7.008-12.271 7.311-12.504l2.444 3.166c-1.623 1.259-5.819 5.383-5.756 9.287.033 2.022 1.181 4.325 3.507 6.012l-2.348 3.238z" class="msportalfx-svg-c16" fill="#3999c6"></path><path d="M13.314 28.71c-3.104-2.25-4.701-5.409-4.746-8.404-.092-6.218 6.634-11.477 6.922-11.698l1.222 1.583c-.063.049-6.225 4.876-6.144 10.09.036 2.328 1.355 4.951 3.92 6.81l-1.174 1.619z" class="msportalfx-svg-c01" fill="#ffffff"></path><circle cx="16" cy="9" r="3.9" class="msportalfx-svg-c16" fill="#3999c6"></circle><circle cx="16" cy="9" r="2.9" class="msportalfx-svg-c01" fill="#ffffff"></circle><path d="M31.747 36.861l-1.895-3.523c11.783-6.337 10.197-15.885 10.18-15.98l3.936-.715c.092.506 2.096 12.518-12.221 20.218z" class="msportalfx-svg-c16" fill="#3999c6"></path><path d="M31.274 35.98l-.947-1.762c12.416-6.678 10.709-16.938 10.69-17.04l1.967-.357c.021.117 1.972 11.8-11.71 19.159z" class="msportalfx-svg-c01" fill="#ffffff"></path><circle cx="13.9" cy="27.9" r="2.9" class="msportalfx-svg-c17" fill="#804998"></circle><path d="M42 19.899c-2.15 0-3.9-1.749-3.9-3.899s1.75-3.9 3.9-3.9 3.9 1.75 3.9 3.9-1.749 3.899-3.9 3.899z" class="msportalfx-svg-c16" fill="#3999c6"></path><circle cx="42" cy="16" r="2.9" class="msportalfx-svg-c01" fill="#ffffff"></circle><circle cx="30.9" cy="35.1" r="2.9" class="msportalfx-svg-c17" fill="#804998"></circle></g><defs>
</defs>
</svg>