<svg viewBox="0 0 50 50" class="fxs-portal-svg" role="presentation" focusable="false" xmlns:svg="http://www.w3.org/2000/svg" xmlns:xlink="http://www.w3.org/1999/xlink" id="FxSymbol0-077" data-type="1"><g><title></title><path d="M41.681 36.313L39.199 46l-8.605-5.095z" class="msportalfx-svg-c17" fill="#804998"></path><path d="M24.025 25.996s-.475.862-1 1c6.594 0 10.902 10.95 13.469 17.34l3.331-.962c-2.623-6.939-5.8-17.378-15.8-17.378zm17.656-12.317l-2.482-9.687-8.605 5.095z" class="msportalfx-svg-c17" fill="#804998"></path><path d="M24.025 23.996s-.475-.862-1-1c6.594 0 10.902-10.95 13.469-17.34l3.331.962c-2.623 6.939-5.8 17.378-15.8 17.378zm18.018-5l8 6-8 6z" class="msportalfx-svg-c17" fill="#804998"></path><path d="M45.204 22.996V27H21v-4.004z" class="msportalfx-svg-c17" fill="#804998"></path><path d="M4.754 38H19a4.754 4.754 0 0 0 4.754-4.754V16.75A4.754 4.754 0 0 0 19 11.996H4.754A4.753 4.753 0 0 0 0 16.75v16.497A4.753 4.753 0 0 0 4.754 38z" class="msportalfx-svg-c14" fill="#57a300"></path><path opacity=".2" d="M4.754 38L19 11.996H4.754A4.753 4.753 0 0 0 0 16.75v16.497A4.753 4.753 0 0 0 4.754 38z" class="msportalfx-svg-c01" fill="#ffffff"></path><path d="M14 21.996h6v6h-6zM4 16h6v6H4zm0 12h6v6H4z" class="msportalfx-svg-c01" fill="#ffffff"></path></g><defs>
<linearGradient id="a" x1="9" y1="16.39" x2="9" y2="-1.94" gradientUnits="userSpaceOnUse"><stop offset="0" stop-color="#0078d4"></stop><stop offset=".16" stop-color="#1380da"></stop><stop offset=".53" stop-color="#3c91e5"></stop><stop offset=".82" stop-color="#559cec"></stop><stop offset="1" stop-color="#5ea0ef"></stop></linearGradient>
<linearGradient id="b" x1="9.88" y1="7.11" x2="9.99" y2="17.27" gradientUnits="userSpaceOnUse"><stop offset="0" stop-color="#32d4f5"></stop><stop offset=".32" stop-color="#31d1f3"></stop><stop offset=".53" stop-color="#2ec9eb"></stop><stop offset=".7" stop-color="#29bade"></stop><stop offset=".86" stop-color="#22a5cb"></stop><stop offset="1" stop-color="#198ab3"></stop><stop offset="1" stop-color="#198ab3"></stop></linearGradient>
<radialGradient id="c" cx="9.43" cy="7.03" r="7.27" gradientUnits="userSpaceOnUse"><stop offset="0" stop-color="#f2f2f2"></stop><stop offset=".58" stop-color="#eee"></stop><stop offset="1" stop-color="#e6e6e6"></stop></radialGradient>
</defs>
</svg>