<svg viewBox="0 0 50 50" class="fxs-portal-svg" role="presentation" focusable="false" xmlns:svg="http://www.w3.org/2000/svg" xmlns:xlink="http://www.w3.org/1999/xlink" id="FxSymbol0-076" data-type="1"><g><title></title><path d="M43 15.9c0 4.9-3.9 8.8-8.8 8.8s-8.8-3.9-8.8-8.8c.1-4.9 4-8.8 8.8-8.8 4.9 0 8.8 3.9 8.8 8.8m-2.4 11.9l-6.4 9-6.4-9h-9.3V50H50V27.8z" class="msportalfx-svg-c15" fill="#59b4d9"></path><path opacity=".2" d="M25.5 15.9c0 4.8 3.9 8.7 8.6 8.8l2.2-17.3c-.7-.3-1.4-.3-2.1-.3-4.8 0-8.7 3.9-8.7 8.8m2.3 11.9h-9.3V50h12.4l1.9-15.3z" class="msportalfx-svg-c01" fill="#ffffff"></path><path d="M5.6 18.4l4.9 5.2h-4L0 16.9l6.5-6.7h4l-4.9 5.1H20v3.1z" class="msportalfx-svg-c03" fill="#a0a1a2"></path><path d="M20 0v18.4h-3.1V0z" class="msportalfx-svg-c03" fill="#a0a1a2"></path></g><defs>
<linearGradient id="a" x1="9" y1="16.39" x2="9" y2="-1.94" gradientUnits="userSpaceOnUse"><stop offset="0" stop-color="#0078d4"></stop><stop offset=".16" stop-color="#1380da"></stop><stop offset=".53" stop-color="#3c91e5"></stop><stop offset=".82" stop-color="#559cec"></stop><stop offset="1" stop-color="#5ea0ef"></stop></linearGradient>
<linearGradient id="b" x1="9.88" y1="7.11" x2="9.99" y2="17.27" gradientUnits="userSpaceOnUse"><stop offset="0" stop-color="#32d4f5"></stop><stop offset=".32" stop-color="#31d1f3"></stop><stop offset=".53" stop-color="#2ec9eb"></stop><stop offset=".7" stop-color="#29bade"></stop><stop offset=".86" stop-color="#22a5cb"></stop><stop offset="1" stop-color="#198ab3"></stop><stop offset="1" stop-color="#198ab3"></stop></linearGradient>
<radialGradient id="c" cx="9.43" cy="7.03" r="7.27" gradientUnits="userSpaceOnUse"><stop offset="0" stop-color="#f2f2f2"></stop><stop offset=".58" stop-color="#eee"></stop><stop offset="1" stop-color="#e6e6e6"></stop></radialGradient>
</defs>
</svg>