<svg viewBox="0 0 50 50" class="fxs-portal-svg" role="presentation" focusable="false" xmlns:svg="http://www.w3.org/2000/svg" xmlns:xlink="http://www.w3.org/1999/xlink" id="FxSymbol0-07b" data-type="1"><g><title></title><title>ServiceEndpointsPolicy</title><path d="M35.5 47c-2.236 0-4.5-1.717-4.5-5a5.821 5.821 0 0 1 1.547-4H10V9.9a7.824 7.824 0 0 1 8-8h25.614l-1.707 1.707A8.661 8.661 0 0 0 40 8.9V41c0 2.768-1.179 6-4.5 6z" class="msportalfx-svg-c01" fill="#ffffff"></path><path d="M43 1H19C13 1 9 4.9 9 10.9V37H7.5a5.5 5.5 0 0 0 0 11H36c4 0 5-4 5-6V8.9h6.6a7.876 7.876 0 0 0 .4-2.3C48 3.5 45.8 1 43 1zm-4 7.9V42c0 2-.5 4-3.5 4-1.7 0-3.5-1.3-3.5-4a5.03 5.03 0 0 1 4-4.9V37H11V9.9a6.835 6.835 0 0 1 7-7h23.2a9.618 9.618 0 0 0-2.2 6z"></path><path d="M21 18a2 2 0 1 1-2-2 2 2 0 0 1 2 2zm10-2a2 2 0 1 0 2 2 2 2 0 0 0-2-2zm-5.25 13.648v-9.8a2 2 0 1 0-1.5 0v9.8a2 2 0 1 0 1.5 0z" class="msportalfx-svg-c14" fill="#57a300"></path><path d="M20 26a1 1 0 0 1-.707-.293l-7-7a1 1 0 0 1 0-1.414l7-7a1 1 0 0 1 1.414 1.414L14.414 18l6.293 6.293A1 1 0 0 1 20 26zm10.707-.293l7-7a1 1 0 0 0 0-1.414l-7-7a1 1 0 0 0-1.414 1.414L35.586 18l-6.293 6.293a1 1 0 1 0 1.414 1.414z" class="msportalfx-svg-c15" fill="#59b4d9"></path></g><defs>
<linearGradient id="a" x1="9" y1="16.39" x2="9" y2="-1.94" gradientUnits="userSpaceOnUse"><stop offset="0" stop-color="#0078d4"></stop><stop offset=".16" stop-color="#1380da"></stop><stop offset=".53" stop-color="#3c91e5"></stop><stop offset=".82" stop-color="#559cec"></stop><stop offset="1" stop-color="#5ea0ef"></stop></linearGradient>
<linearGradient id="b" x1="9.88" y1="7.11" x2="9.99" y2="17.27" gradientUnits="userSpaceOnUse"><stop offset="0" stop-color="#32d4f5"></stop><stop offset=".32" stop-color="#31d1f3"></stop><stop offset=".53" stop-color="#2ec9eb"></stop><stop offset=".7" stop-color="#29bade"></stop><stop offset=".86" stop-color="#22a5cb"></stop><stop offset="1" stop-color="#198ab3"></stop><stop offset="1" stop-color="#198ab3"></stop></linearGradient>
<radialGradient id="c" cx="9.43" cy="7.03" r="7.27" gradientUnits="userSpaceOnUse"><stop offset="0" stop-color="#f2f2f2"></stop><stop offset=".58" stop-color="#eee"></stop><stop offset="1" stop-color="#e6e6e6"></stop></radialGradient>
</defs>
</svg>