<svg viewBox="0 0 167 167" class="" role="presentation" focusable="false" xmlns:svg="http://www.w3.org/2000/svg" xmlns:xlink="http://www.w3.org/1999/xlink" id="FxSymbol0-08e" data-type="1"><g><title></title><path fill="#7fbb42" d="M44.8 53.7h14.9v14.9H44.8zM33 94.1h14.9V109H33zm21.2 0h14.9V109H54.2zm21 0h14.9V109H75.2zM33 73.9h14.9v14.9H33zm21.2 0h14.9v14.9H54.2z"></path><path d="M66 6.2L7.3 37.4v9.1h12v63h10v-63h73v59h11v-59h11v-9.1z" class="msportalfx-svg-c16" fill="#3999c6"></path><path opacity=".8" fill="#b8d433" d="M59.7 68.6H58v-13H44.8v-1.9h14.9z"></path><path opacity=".5" fill="#b8d433" d="M44.8 53.7h1.7v13h13.2v1.9H44.8z"></path><path opacity=".8" fill="#b8d433" d="M47.9 88.8h-1.7v-13H33v-1.9h14.9z"></path><path opacity=".5" fill="#b8d433" d="M33 73.9h1.7v13h13.2v1.9H33z"></path><path opacity=".8" fill="#b8d433" d="M69.2 88.8h-1.8v-13H54.2v-1.9h15z"></path><path opacity=".5" fill="#b8d433" d="M54.2 73.9H56v13h13.2v1.9h-15z"></path><path opacity=".8" fill="#b8d433" d="M47.9 109h-1.7V96H33v-1.9h14.9z"></path><path opacity=".5" fill="#b8d433" d="M33 94.1h1.7v13h13.2v1.9H33z"></path><path opacity=".8" fill="#b8d433" d="M69.2 109h-1.8V96H54.2v-1.9h15z"></path><path opacity=".5" fill="#b8d433" d="M54.2 94.1H56v13h13.2v1.9h-15z"></path><path opacity=".8" fill="#b8d433" d="M90.1 109h-1.7V96H75.2v-1.9h14.9z"></path><path opacity=".5" fill="#b8d433" d="M75.2 94.1h1.7v13h13.2v1.9H75.2z"></path><path opacity=".8" fill="#b8d433" d="M47 68.6h-2.2v-1.7l12.9-13.2h2v1.5zm9.4 20.2h-2.2v-1.7l13-13.2h2v1.5zm-21.2 0H33v-1.7l12.9-13.2h2v1.5zm0 20.2H33v-1.7l12.9-13.2h2v1.5zm21.2 0h-2.2v-1.7l13-13.2h2v1.5zm21 0h-2.2v-1.7l12.9-13.2h2v1.5z"></path><path d="M95.6 80.5v64.9c0 6.7 15.1 12.2 33.7 12.2V80.5H95.6z" class="msportalfx-svg-c16" fill="#3999c6"></path><path d="M128.8 157.6h.5c18.6 0 33.7-5.5 33.7-12.2V80.5h-34.2v77.1z" fill="#5ab4d9"></path><path d="M163 80.5c0 6.7-15.1 12.2-33.7 12.2s-33.7-5.5-33.7-12.2 15.1-12.2 33.7-12.2S163 73.7 163 80.5" class="msportalfx-svg-c01" fill="#ffffff"></path><path d="M156.1 79.8c0 4.4-12 8.1-26.8 8.1s-26.8-3.6-26.8-8.1c0-4.4 12-8.1 26.8-8.1s26.8 3.6 26.8 8.1" fill="#7fbb42"></path><path d="M150.5 84.7c3.5-1.4 5.6-3.1 5.6-4.9 0-4.4-12-8.1-26.8-8.1s-26.8 3.6-26.8 8.1c0 1.9 2.1 3.6 5.6 4.9 4.9-1.9 12.6-3.1 21.2-3.1 8.6-.1 16.3 1.2 21.2 3.1" fill="#b8d433"></path><path d="M104 127v-4.6c.8.7 1.7 1.2 2.7 1.6 1 .3 2 .5 2.9.5.6 0 1.1-.1 1.5-.2.4-.1.8-.2 1.1-.4.3-.2.5-.4.6-.7.1-.3.2-.5.2-.8 0-.4-.1-.8-.3-1.1-.2-.3-.5-.6-.9-.9-.4-.3-.9-.5-1.4-.8-.5-.2-1.1-.5-1.8-.8-1.6-.7-2.8-1.5-3.6-2.4-.8-1-1.2-2.1-1.2-3.5 0-1.1.2-2 .6-2.7.4-.8 1-1.4 1.7-1.9s1.6-.9 2.6-1.1c1-.2 2-.3 3.1-.3s2 .1 2.8.2c.8.1 1.6.3 2.3.6v4.3c-.3-.2-.7-.4-1.1-.6-.4-.2-.8-.3-1.2-.4-.4-.1-.9-.2-1.3-.3-.4-.1-.8-.1-1.2-.1-.5 0-1 0-1.4.1-.4.1-.8.2-1.1.4-.3.2-.5.4-.7.6-.2.3-.2.5-.2.8 0 .3.1.6.3.9.2.3.4.5.8.8.3.2.7.5 1.2.7.5.2 1 .5 1.6.7.8.3 1.6.7 2.2 1.1.7.4 1.2.8 1.7 1.3s.8 1 1.1 1.7c.2.6.4 1.3.4 2.2 0 1.1-.2 2.1-.6 2.9-.4.8-1 1.4-1.8 1.9-.7.5-1.6.8-2.6 1s-2 .3-3.1.3-2.2-.1-3.2-.3c-1.1 0-2-.3-2.7-.7zm25.9 1.2c-2.9 0-5.3-1-7.2-2.9-1.8-1.9-2.8-4.4-2.8-7.5 0-3.2.9-5.8 2.8-7.8s4.3-3 7.4-3c2.9 0 5.3 1 7.1 2.9 1.8 1.9 2.7 4.4 2.7 7.6 0 3.2-.9 5.8-2.8 7.8l-.2.2-.2.2 5.2 5h-6.5l-2.7-2.8c-.7.2-1.7.3-2.8.3zm.2-17.2c-1.6 0-2.9.6-3.9 1.8-1 1.2-1.4 2.8-1.4 4.8s.5 3.6 1.4 4.8c1 1.2 2.2 1.8 3.7 1.8 1.6 0 2.8-.6 3.8-1.7.9-1.2 1.4-2.8 1.4-4.8 0-2.1-.5-3.8-1.4-5-.8-1.1-2-1.7-3.6-1.7zm25.5 16.8h-12.2v-20.5h4.6V124h7.6v3.8z" class="msportalfx-svg-c01" fill="#ffffff"></path></g><defs>
<linearGradient id="a" x1="9" y1="16.39" x2="9" y2="-1.94" gradientUnits="userSpaceOnUse"><stop offset="0" stop-color="#0078d4"></stop><stop offset=".16" stop-color="#1380da"></stop><stop offset=".53" stop-color="#3c91e5"></stop><stop offset=".82" stop-color="#559cec"></stop><stop offset="1" stop-color="#5ea0ef"></stop></linearGradient>
<linearGradient id="b" x1="9.88" y1="7.11" x2="9.99" y2="17.27" gradientUnits="userSpaceOnUse"><stop offset="0" stop-color="#32d4f5"></stop><stop offset=".32" stop-color="#31d1f3"></stop><stop offset=".53" stop-color="#2ec9eb"></stop><stop offset=".7" stop-color="#29bade"></stop><stop offset=".86" stop-color="#22a5cb"></stop><stop offset="1" stop-color="#198ab3"></stop><stop offset="1" stop-color="#198ab3"></stop></linearGradient>
<radialGradient id="c" cx="9.43" cy="7.03" r="7.27" gradientUnits="userSpaceOnUse"><stop offset="0" stop-color="#f2f2f2"></stop><stop offset=".58" stop-color="#eee"></stop><stop offset="1" stop-color="#e6e6e6"></stop></radialGradient>
</defs>
</svg>