<svg viewBox="0 0 50 50" class="" role="presentation" focusable="false" xmlns:svg="http://www.w3.org/2000/svg" xmlns:xlink="http://www.w3.org/1999/xlink" id="FxSymbol0-07f" data-type="1"><g><title></title><path d="M47 33v14H9v-6h20v-8h18zM33 11H19v8h14v-8zM19 1H1v10h18V1zm0 18H7v8h12v-8zm-8 10H3v6h8v-6z" class="msportalfx-svg-c19" fill="#0072c6"></path><path d="M47 17v14H29v-6h10v-8h8zM27 33h-8v6h8v-6z" class="msportalfx-svg-c01" fill="#ffffff"></path><path d="M37 15v8H27v8H17v8H7v8.5A1.5 1.5 0 0 0 8.5 49h39a1.5 1.5 0 0 0 1.5-1.5V15H37zm-8 10h8v6h-8v-6zm8 14h-8v-6h8v6zm-18-6h8v6h-8v-6zm-2 14H9v-6h8v6zm10 0h-8v-6h8v6zm10 0h-8v-6h8v6zm10 0h-8v-6h8v6zm0-8h-8v-6h8v6zm0-8h-8v-6h8v6zm-8-8v-6h8v6h-8z" class="msportalfx-svg-c03" fill="#a0a1a2"></path><path d="M49 15H37V9h10.5a1.5 1.5 0 0 1 1.5 1.5V15z" class="msportalfx-svg-c04" fill="#7a7a7a"></path><path opacity=".1" d="M1 1h18v10H1z" class="msportalfx-svg-c01" fill="#ffffff"></path><path opacity=".1" d="M37 19V9h10L37 19zM27 29l6-6h-6v6zm-10 2v8l8-8h-8zM7 39v10l10-10H7zm26-20H19v-8h14v8zm-14-8H1V1h18v10zm0 16H7v-8h12v8zm-8 8H3v-6h8v6z" class="msportalfx-svg-c01" fill="#ffffff"></path></g><defs>
<linearGradient id="a" x1="9" y1="16.39" x2="9" y2="-1.94" gradientUnits="userSpaceOnUse"><stop offset="0" stop-color="#0078d4"></stop><stop offset=".16" stop-color="#1380da"></stop><stop offset=".53" stop-color="#3c91e5"></stop><stop offset=".82" stop-color="#559cec"></stop><stop offset="1" stop-color="#5ea0ef"></stop></linearGradient>
<linearGradient id="b" x1="9.88" y1="7.11" x2="9.99" y2="17.27" gradientUnits="userSpaceOnUse"><stop offset="0" stop-color="#32d4f5"></stop><stop offset=".32" stop-color="#31d1f3"></stop><stop offset=".53" stop-color="#2ec9eb"></stop><stop offset=".7" stop-color="#29bade"></stop><stop offset=".86" stop-color="#22a5cb"></stop><stop offset="1" stop-color="#198ab3"></stop><stop offset="1" stop-color="#198ab3"></stop></linearGradient>
<radialGradient id="c" cx="9.43" cy="7.03" r="7.27" gradientUnits="userSpaceOnUse"><stop offset="0" stop-color="#f2f2f2"></stop><stop offset=".58" stop-color="#eee"></stop><stop offset="1" stop-color="#e6e6e6"></stop></radialGradient>
</defs>
</svg>