<svg xmlns="http://www.w3.org/2000/svg" xmlns:xlink="http://www.w3.org/1999/xlink" width="298" height="53" viewBox="0 0 298 53">
  <defs>
    <clipPath id="clip-path">
      <rect id="Rectangle_268" data-name="Rectangle 268" width="298" height="53"/>
    </clipPath>
  </defs>
  <g id="Hor_Blue" clip-path="url(#clip-path)">
    <g id="Group_821" data-name="Group 821" transform="translate(-1040 -360)">
      <path id="APIMATIC" d="M22.449,0,20.244-7.24H9.154L6.949,0H0L10.736-30.543h7.885L29.4,0ZM18.7-12.65q-3.058-9.841-3.443-11.131T14.71-25.82q-.687,2.663-3.932,13.17ZM39.676-16.1H41.8a7.067,7.067,0,0,0,4.452-1.176A4.114,4.114,0,0,0,47.728-20.7a4.218,4.218,0,0,0-1.238-3.35,5.8,5.8,0,0,0-3.88-1.082H39.676ZM54.24-20.93q0,4.91-3.069,7.511t-8.728,2.6H39.676V0h-6.45V-30.418h9.716q5.534,0,8.416,2.382T54.24-20.93ZM59.983,0V-30.418h6.45V0ZM86.968,0,79.644-23.864h-.187q.4,7.282.4,9.716V0H74.089V-30.418h8.78l7.2,23.261h.125l7.636-23.261h8.78V0H100.6V-14.4q0-1.019.031-2.351t.281-7.074h-.187L92.876,0Zm45.918,0L130.68-7.24H119.591L117.386,0h-6.949l10.736-30.543h7.885L139.835,0Zm-3.745-12.65q-3.058-9.841-3.443-11.131t-.551-2.039q-.687,2.663-3.932,13.17ZM155.4,0h-6.45V-25.05h-8.26v-5.368h22.969v5.368H155.4Zm12.941,0V-30.418h6.45V0Zm27.027-25.487a6.572,6.572,0,0,0-5.638,2.736q-2,2.736-2,7.625,0,10.174,7.636,10.174a24.137,24.137,0,0,0,7.761-1.6v5.409a21.552,21.552,0,0,1-8.364,1.56q-6.637,0-10.153-4.026t-3.516-11.558a18.873,18.873,0,0,1,1.727-8.312,12.481,12.481,0,0,1,4.962-5.472,14.679,14.679,0,0,1,7.584-1.9,20.468,20.468,0,0,1,8.9,2.143l-2.081,5.243a34.44,34.44,0,0,0-3.433-1.415A10.241,10.241,0,0,0,195.365-25.487Z" transform="translate(1133.828 402.277)" fill="#0c7ff2"/>
      <path id="Shape_4_copy" data-name="Shape 4 copy" d="M474.879,1224.99H440.836a16.248,16.248,0,0,1-14.219-9.12,15.986,15.986,0,0,1-1.546-5.443,20.217,20.217,0,0,1-.068-2.483,16.2,16.2,0,0,1,9.035-13.721c.134-.08.375-.139.329-.345a19.909,19.909,0,0,1,.2-6.332,19.343,19.343,0,0,1,4-8.464,19.925,19.925,0,0,1,6.819-5.286,19.406,19.406,0,0,1,24.816,7.617c.335.534.59,1.113.912,1.653a11.071,11.071,0,0,1,5.081-1.844,10.944,10.944,0,0,1,8.339,2.8,10.835,10.835,0,0,1,3.435,7.125,10.673,10.673,0,0,1-1.052,5.441c-.095.181-.185.365-.264.552a21.366,21.366,0,0,1,2.476,1.084,14.41,14.41,0,0,1,6.294,6.856,14.255,14.255,0,0,1,.688,9.348,13.956,13.956,0,0,1-3.5,6.188A14.275,14.275,0,0,1,482.74,1225Q478.809,1224.97,474.879,1224.99Zm6.915-12.765a5.837,5.837,0,0,1,.352.785,4.157,4.157,0,1,0,4.382-5.916,4.672,4.672,0,0,0-2.5.347c-.121-1.036-.069-2.088-.137-3.131-.271.243-.5.531-.749.791a4.138,4.138,0,0,1-.363-.706q-1.96-4.216-3.775-8.5c-.111-.177.087-.3.211-.382a4.071,4.071,0,0,0,1.74-2.443,4.34,4.34,0,0,0-.374-2.966,4.172,4.172,0,0,0-2.994-2.121,4.254,4.254,0,0,0-3.074.692,5.1,5.1,0,0,0-1.355,1.552c-.731-.771-1.4-1.6-2.11-2.389-.113.345-.049.715-.131,1.067a1.971,1.971,0,0,1-.309-.08q-8.435-3.239-16.94-6.3c-.148-.038-.294-.147-.22-.318a4.165,4.165,0,0,0-7.688-2.807,4.208,4.208,0,0,0-.094,4.077,4.989,4.989,0,0,0,1.554,1.638c-.827.7-1.738,1.3-2.547,2.014a8.979,8.979,0,0,1,1.148.179q-4.813,9.189-9.711,18.334c-.056.181-.238.143-.376.1a4.169,4.169,0,0,0-4.584,1.737,4.127,4.127,0,0,0-.272,4.045,4.169,4.169,0,0,0,7.906-1.381c.838.619,1.6,1.34,2.416,1.991-.024-.389-.094-.775-.089-1.166a8.572,8.572,0,0,1,.931.153,127.41,127.41,0,0,0,38.989,1.175c.214-.02.428-.078.643-.078a1.106,1.106,0,0,1,.119,0ZM433,1212.58a3.275,3.275,0,1,1,1.566.411,3.1,3.1,0,0,1-1.566-.411Zm.981-4.844a2.106,2.106,0,1,0,2.3.774A2.1,2.1,0,0,0,433.981,1207.736Zm24.936,4.52a124.169,124.169,0,0,1-17.582-2.138,10.375,10.375,0,0,1,.6-.975c-1.033.141-2.045.432-3.076.595-.133-.143-.061-.41-.116-.6-.014-.344-.208-.665-.215-1,2.884-1.64,5.846-3.144,8.843-4.563a144.664,144.664,0,0,1,21.246-8.061c.748-.2,1.486-.454,2.245-.613.023.338-.03.677-.009,1.017.76-.682,1.495-1.391,2.251-2.076a4.933,4.933,0,0,0,1.71,1.822,4.385,4.385,0,0,0,3.182.413c.139-.068.2.113.246.2.794,1.839,1.576,3.685,2.4,5.511.549,1.259,1.166,2.491,1.7,3.757-.392.077-.789.119-1.184.185a3.954,3.954,0,0,0,.618.491c.631.474,1.293.91,1.9,1.412a4.265,4.265,0,0,0-1.857,2.608c-.108.355-.048.743-.15,1.094-3.158.453-6.345.708-9.53.89-2.354.122-4.713.191-7.07.191-2.043,0-4.1-.046-6.151-.156Zm-20.937-4.985a5.778,5.778,0,0,0-1.174-1.111c2.473-4.658,4.969-9.3,7.416-13.975.8-1.5,1.563-3.007,2.374-4.493.29.239.561.5.844.75.007-1.063-.01-2.126.02-3.187a4.807,4.807,0,0,0,2.228.4,4.241,4.241,0,0,0,3.445-2.389,6.245,6.245,0,0,1,.827.27c4.054,1.453,8.09,2.953,12.118,4.471,1.507.585,3.029,1.133,4.525,1.745-.251.317-.551.592-.8.909,1.075-.025,2.146-.131,3.221-.142a5.428,5.428,0,0,0-.268,1.47,5.794,5.794,0,0,0,.191,1.443c-1.008-.128-2.006-.322-3.013-.458q.378.516.763,1.028a1.36,1.36,0,0,1-.485.193,145.4,145.4,0,0,0-31.867,13.08.587.587,0,0,1-.235.089.135.135,0,0,1-.129-.094Z" transform="translate(615 -812)" fill="#0c7ff2"/>
    </g>
  </g>
</svg>
