<svg xmlns="http://www.w3.org/2000/svg" width="400" height="400" viewBox="0 0 400 400">
  <defs>
    <linearGradient id="icon-fhir-a" x1="50.006%" x2="50.006%" y1="119.039%" y2="8.638%">
      <stop offset="0%" stop-color="#FFF"/>
      <stop offset="4%" stop-color="#FFF7BC"/>
      <stop offset="8%" stop-color="#FFF083"/>
      <stop offset="12%" stop-color="#FFEB54"/>
      <stop offset="15%" stop-color="#FFE72F"/>
      <stop offset="19%" stop-color="#FFE415"/>
      <stop offset="22%" stop-color="#FFE206"/>
      <stop offset="24%" stop-color="#FFE100"/>
      <stop offset="28%" stop-color="#FFDA00"/>
      <stop offset="34%" stop-color="#FAC600"/>
      <stop offset="42%" stop-color="#F2A200"/>
      <stop offset="52%" stop-color="#E86A14"/>
      <stop offset="62%" stop-color="#DE1119"/>
      <stop offset="100%" stop-color="#E20E18"/>
    </linearGradient>
    <linearGradient id="icon-fhir-b" x1="49.978%" x2="49.978%" y1="1716.568%" y2="1589.042%">
      <stop offset="0%" stop-color="#FFF"/>
      <stop offset="4%" stop-color="#FFF7BC"/>
      <stop offset="8%" stop-color="#FFF083"/>
      <stop offset="12%" stop-color="#FFEB54"/>
      <stop offset="15%" stop-color="#FFE72F"/>
      <stop offset="19%" stop-color="#FFE415"/>
      <stop offset="22%" stop-color="#FFE206"/>
      <stop offset="24%" stop-color="#FFE100"/>
      <stop offset="28%" stop-color="#FFDA00"/>
      <stop offset="34%" stop-color="#FAC600"/>
      <stop offset="42%" stop-color="#F2A200"/>
      <stop offset="52%" stop-color="#E86A14"/>
      <stop offset="62%" stop-color="#DE1119"/>
      <stop offset="100%" stop-color="#E20E18"/>
    </linearGradient>
    <linearGradient id="icon-fhir-c" x1="49.988%" x2="49.988%" y1="1584.277%" y2="1423.609%">
      <stop offset="0%" stop-color="#FFF"/>
      <stop offset="4%" stop-color="#FFF7BC"/>
      <stop offset="8%" stop-color="#FFF083"/>
      <stop offset="12%" stop-color="#FFEB54"/>
      <stop offset="15%" stop-color="#FFE72F"/>
      <stop offset="19%" stop-color="#FFE415"/>
      <stop offset="22%" stop-color="#FFE206"/>
      <stop offset="24%" stop-color="#FFE100"/>
      <stop offset="28%" stop-color="#FFDA00"/>
      <stop offset="34%" stop-color="#FAC600"/>
      <stop offset="42%" stop-color="#F2A200"/>
      <stop offset="52%" stop-color="#E86A14"/>
      <stop offset="62%" stop-color="#DE1119"/>
      <stop offset="100%" stop-color="#E20E18"/>
    </linearGradient>
    <linearGradient id="icon-fhir-d" x1="49.99%" x2="49.99%" y1="98.848%" y2="-27.528%">
      <stop offset="0%" stop-color="#FFFCEE"/>
      <stop offset="64%" stop-color="#FFE62E"/>
      <stop offset="75%" stop-color="#FFE300"/>
      <stop offset="81%" stop-color="#FFE100"/>
      <stop offset="85%" stop-color="#FFDB00"/>
      <stop offset="89%" stop-color="#FFD000"/>
      <stop offset="92%" stop-color="#FCC000"/>
      <stop offset="95%" stop-color="#F7AA00"/>
      <stop offset="98%" stop-color="#F18E00"/>
      <stop offset="100%" stop-color="#EC7503"/>
    </linearGradient>
    <linearGradient id="icon-fhir-e" x1="50.011%" x2="50.011%" y1="95.015%" y2="-58.071%">
      <stop offset="0%" stop-color="#FFF"/>
      <stop offset="4%" stop-color="#FFF8BC"/>
      <stop offset="8%" stop-color="#FFF183"/>
      <stop offset="12%" stop-color="#FFEC54"/>
      <stop offset="15%" stop-color="#FFE82F"/>
      <stop offset="19%" stop-color="#FFE515"/>
      <stop offset="22%" stop-color="#FFE406"/>
      <stop offset="24%" stop-color="#FFE300"/>
      <stop offset="28%" stop-color="#FFDB00"/>
      <stop offset="34%" stop-color="#FDC700"/>
      <stop offset="42%" stop-color="#F4A200"/>
      <stop offset="52%" stop-color="#E96A13"/>
      <stop offset="62%" stop-color="#DE1119"/>
      <stop offset="100%" stop-color="#E20E18"/>
    </linearGradient>
    <linearGradient id="icon-fhir-f" x1="49.984%" x2="49.984%" y1="95.253%" y2="13.048%">
      <stop offset="0%" stop-color="#FFFCEE"/>
      <stop offset="58%" stop-color="#FFE62E"/>
      <stop offset="69%" stop-color="#FFE300"/>
      <stop offset="82%" stop-color="#FDC200"/>
      <stop offset="94%" stop-color="#F7A400"/>
      <stop offset="100%" stop-color="#F49800"/>
    </linearGradient>
  </defs>
  <g fill="none" transform="translate(68)">
    <path fill="url(#icon-fhir-a)" d="M149.45501,0.356410942 C149.45501,0.356410942 192.392172,67.4954241 184.92484,133.720981 C177.457507,199.946538 131.720096,230.730004 108.85139,281.700847 C85.9826845,332.671689 99.5172245,385.834826 118.185556,399.536666 C93.4500169,382.181003 28.1108579,349.753316 32.7779407,263.888456 C35.1114821,237.398233 51.9129801,189.441795 92.0498921,143.312269 C132.186804,97.1827428 158.789176,78.0001676 149.45501,0.356410942 Z"/>
    <path fill="url(#icon-fhir-b)" d="M60.1549403,353.203243 C60.1549403,353.203243 3.30199636,311.501921 0.678014335,248.949938 C-1.50863735,221.300149 12.9232638,179.145551 47.9096908,146.963009 C87.7067516,110.247715 99.0773404,102.542036 107.386617,93.0232558 C84.2081089,121.579596 33.91512,176.879175 26.0431739,224.473075 C19.3311158,270.452575 31.7257383,317.227105 60.1549403,353.203243 Z"/>
    <path fill="url(#icon-fhir-c)" d="M131.958169,399.536666 C131.958169,399.536666 92.8625845,344.244806 121.339615,284.771209 C130.992846,266.650348 165.261815,227.156162 181.672308,190.914439 C198.0828,154.672716 201.461431,132.834755 200.496108,107.279693 C226.07717,141.198229 266.620739,242.024561 220.285231,320.083657 C234.765077,311.255545 256.484847,291.740771 264.207431,270.367447 C260.346139,313.392878 240.074354,394.239799 131.958169,399.536666 Z"/>
    <path fill="url(#icon-fhir-d)" d="M135.768099,395.972556 C135.768099,395.972556 109.825654,352.212101 139.260351,308.922187 C162.708331,273.631497 187.652989,266.573359 201.621998,228.459414 C204.116464,268.455529 202.619785,321.156293 166.200583,365.387292 C179.739681,363.164863 192.547668,358.010667 203.617571,350.32993 C194.637494,367.457679 178.672912,388.914418 135.768099,395.972556 Z"/>
    <path fill="url(#icon-fhir-e)" d="M103.588689,381.716119 C103.588689,381.716119 32.5275452,302.722694 82.3186865,221.83721 C117.124144,163.656424 161.597785,159.872308 171.265968,75.2027087 C171.265968,136.221582 178.033696,166.494511 124.375282,234.608602 C89.0864144,279.261173 80.8684591,339.617826 103.588689,381.716119 Z"/>
    <path fill="url(#icon-fhir-f)" d="M186.346322,0.356410942 C186.346322,0.356410942 205.188894,55.4927542 148.661177,134.521513 C107.299433,191.955204 25.9546698,277.416536 112.354757,381.716119 C77.4270624,345.418026 43.4185173,282.470701 81.1036619,207.577168 C115.801569,140.035147 199.21442,96.1098605 186.346322,0.356410942 Z"/>
    <path fill="#E02726" d="M225.363709,66.1826966 C224.636263,66.8004128 223.699249,67.11342 222.747454,67.0566502 L220.567242,67.0566502 L220.567242,61.8129283 L224.491624,61.8129283 C224.822178,61.8591074 225.128513,62.0126031 225.363709,62.2499051 C225.799751,62.686882 225.799751,62.686882 225.799751,63.1238588 L225.799751,64.1726032 C226.196473,64.9113881 226.013454,65.8284443 225.363709,66.3574873 M233.648515,77.7188848 L232.340388,74.2230702 C231.85474,73.151547 231.270843,72.1275375 230.596218,71.1642324 C229.93716,70.3903663 228.993167,69.9173585 227.979964,69.8533019 C229.461374,69.4945528 230.817766,68.7393869 231.904345,67.6684178 C232.78382,66.5500041 233.246439,65.1591729 233.212473,63.7356263 C233.186078,62.6582829 232.885923,61.6054881 232.340388,60.6767885 C231.846946,59.7471904 231.087786,58.9864035 230.160176,58.4919044 C229.178373,57.9759125 228.157834,57.5376012 227.107879,57.1809739 C225.832526,56.8205728 224.506687,56.6729416 223.183497,56.7439971 L215.770776,56.7439971 C214.954021,56.7195476 214.163401,57.0339592 213.585611,57.6129877 C213.007821,58.1920161 212.694082,58.9843301 212.718479,59.8028349 L212.718479,79.0298153 C212.759034,79.4946132 213.12676,79.8631269 213.590564,79.9037689 C214.590949,80.1508637 215.613452,80.2972486 216.642861,80.3407458 C217.950988,80.3407458 218.823073,80.3407458 219.259115,79.9037689 C219.695158,79.4667921 219.695158,79.4667921 219.695158,79.0298153 L219.695158,72.0381861 L221.003285,72.0381861 C221.758644,71.9242044 222.529988,72.0788037 223.183497,72.4751629 C223.796216,73.2487733 224.24169,74.1416321 224.491624,75.0970238 L225.363709,79.0298153 C225.363709,79.4667921 225.363709,79.4667921 225.799751,79.9037689 L226.235794,80.3407458 C226.715114,80.2829271 227.195082,80.4432593 227.543921,80.7777226 L233.212473,80.7777226 C233.648515,80.7777226 233.648515,80.7777226 233.648515,80.3407458 L233.648515,79.9037689 C234.089408,79.2424871 234.089408,78.3801667 233.648515,77.7188848 M238.881024,76.4079543 C238.245977,78.4558362 237.034746,80.2765754 235.392685,81.6516763 C234.020524,83.2972563 232.203678,84.5110824 230.160176,85.1474909 C227.943781,86.0417552 225.572611,86.4873023 223.183497,86.4584213 C220.931445,86.5343997 218.692518,86.0856547 216.642861,85.1474909 C214.681248,84.3478534 212.901367,83.1587234 211.410352,81.6516763 C209.997384,79.9243356 208.823973,78.0134576 207.922012,75.9709775 C207.02966,73.7498333 206.585066,71.3735822 206.613885,68.9793483 C206.6251,66.7304752 207.069263,64.5049013 207.922012,62.4246959 C208.55706,60.376814 209.76829,58.5560748 211.410352,57.1809739 C212.782512,55.5353939 214.599358,54.3215677 216.642861,53.6851593 C218.859255,52.790895 221.230425,52.3453479 223.619539,52.3742288 C225.867675,52.3433212 228.096835,52.7901086 230.160176,53.6851593 C232.121789,54.4847968 233.90167,55.6739268 235.392685,57.1809739 C236.805652,58.9083146 237.979063,60.8191926 238.881024,62.8616727 C239.773376,65.0828169 240.217971,67.459068 240.189151,69.8533019 L238.881024,76.4079543 M244.985618,60.2398117 C243.80451,57.5165586 242.184011,55.0067854 240.189151,52.8112057 C238.071229,50.7190858 235.548602,49.0833002 232.77643,48.0044606 C229.657526,47.1112873 226.42716,46.669839 223.183497,46.6935301 C220.04356,46.6368745 216.925896,47.231988 214.026606,48.4414374 C211.254434,49.5202771 208.731807,51.1560626 206.613885,53.2481825 C204.383918,55.2525324 202.728124,57.8169701 201.817418,60.6767885 C200.531237,63.5578857 199.933997,66.700112 200.073249,69.8533019 C199.933997,73.0064918 200.531237,76.1487182 201.817418,79.0298153 C202.998527,81.7530684 204.619025,84.2628416 206.613885,86.4584213 C208.731807,88.5505412 211.254434,90.1863268 214.026606,91.2651664 C216.914177,92.5133296 220.040257,93.1100494 223.183497,93.0130738 C226.323434,93.0697293 229.441098,92.4746159 232.340388,91.2651664 C235.11256,90.1863268 237.635187,88.5505412 239.753109,86.4584213 C241.983076,84.4540715 243.63887,81.8896337 244.549576,79.0298153 C245.835757,76.1487182 246.432996,73.0064918 246.293745,69.8533019 C246.599038,66.5906777 246.151459,63.3013969 244.985618,60.2398117"/>
  </g>
</svg>
