<svg data-name="Layer 1" xmlns="http://www.w3.org/2000/svg" xmlns:xlink="http://www.w3.org/1999/xlink" viewBox="0 0 255.85 103.84"><defs><linearGradient id="a" x1="27.72" y1="1034.61" x2="27.72" y2="938.12" gradientTransform="translate(0 -918.01)" gradientUnits="userSpaceOnUse"><stop offset="0" stop-color="#fff"/><stop offset=".04" stop-color="#fff7bc"/><stop offset=".08" stop-color="#fff083"/><stop offset=".12" stop-color="#ffeb54"/><stop offset=".15" stop-color="#ffe72f"/><stop offset=".19" stop-color="#ffe415"/><stop offset=".22" stop-color="#ffe206"/><stop offset=".24" stop-color="#ffe100"/><stop offset=".28" stop-color="#ffda00"/><stop offset=".34" stop-color="#fac600"/><stop offset=".42" stop-color="#f2a200"/><stop offset=".52" stop-color="#e86a14"/><stop offset=".62" stop-color="#de1119"/><stop offset="1" stop-color="#e20e18"/></linearGradient><linearGradient id="b" x1="15.22" y1="1020.47" x2="15.22" y2="947.27" xlink:href="#a"/><linearGradient id="c" x1="44.27" y1="1034.61" x2="44.27" y2="933.55" xlink:href="#a"/><linearGradient id="d" x1="39.39" y1="1016.66" x2="39.39" y2="971.67" gradientTransform="translate(0 -918.01)" gradientUnits="userSpaceOnUse"><stop offset="0" stop-color="#fffcee"/><stop offset=".64" stop-color="#ffe62e"/><stop offset=".75" stop-color="#ffe300"/><stop offset=".81" stop-color="#ffe100"/><stop offset=".85" stop-color="#ffdb00"/><stop offset=".89" stop-color="#ffd000"/><stop offset=".92" stop-color="#fcc000"/><stop offset=".95" stop-color="#f7aa00"/><stop offset=".98" stop-color="#f18e00"/><stop offset="1" stop-color="#ec7503"/></linearGradient><linearGradient id="e" x1="28.05" y1="1009.44" x2="28.05" y2="910.24" gradientTransform="translate(0 -918.01)" gradientUnits="userSpaceOnUse"><stop offset="0" stop-color="#fff"/><stop offset=".04" stop-color="#fff8bc"/><stop offset=".08" stop-color="#fff183"/><stop offset=".12" stop-color="#ffec54"/><stop offset=".15" stop-color="#ffe82f"/><stop offset=".19" stop-color="#ffe515"/><stop offset=".22" stop-color="#ffe406"/><stop offset=".24" stop-color="#ffe300"/><stop offset=".28" stop-color="#ffdb00"/><stop offset=".34" stop-color="#fdc700"/><stop offset=".42" stop-color="#f4a200"/><stop offset=".52" stop-color="#e96a13"/><stop offset=".62" stop-color="#de1119"/><stop offset="1" stop-color="#e20e18"/></linearGradient><linearGradient id="f" x1="30.43" y1="1011.23" x2="30.43" y2="943" gradientTransform="translate(0 -918.01)" gradientUnits="userSpaceOnUse"><stop offset="0" stop-color="#fffcee"/><stop offset=".58" stop-color="#ffe62e"/><stop offset=".69" stop-color="#ffe300"/><stop offset=".82" stop-color="#fdc200"/><stop offset=".94" stop-color="#f7a400"/><stop offset="1" stop-color="#f49800"/></linearGradient></defs><title>FHIR-HL7-Logo_01</title><path d="M243.15 100H45.85a6 6 0 0 1-6-6V57.16a6 6 0 0 1 6-6h202.3c3.3 0 1 2.7 1 6V94a6 6 0 0 1-6 6z" fill="#fff"/><path d="M58.35 73a22.38 22.38 0 0 1-2 3.7c2.7-10.7.8-23.6-4.1-33.4-1.6-3.1-3.8-5.9-5.6-8.9-1.1-1.8-2.4-3.9-2-5.2a26.52 26.52 0 0 0 1.1-7.4 26.35 26.35 0 0 0-.2-2.8c-.1-.8-.3-1.5-.4-2.2-.1-.3-.1-.6-.2-.9a8.65 8.65 0 0 0-.7-1.7c-.3-.6-.7-1.1-1-1.7a.76.76 0 0 1-.2-.4c0 .2-.1.3-.1.4l-.3.9c-.2 1.2-.3 2.5-.6 3.7-.1.4-.2.8-.3 1.1s-.2.8-.1 1a51.73 51.73 0 0 0-3.6-7.1l-4.8-7.7 1.1 9a36.94 36.94 0 0 1-.1 11.6h-.1a58.42 58.42 0 0 1-8.2 9.3l-.2.2c-.6.6-1.3 1.1-1.9 1.6a16.92 16.92 0 0 0-2.5 2.3c-3 2.5-5.9 5-8.8 7.6-8.7 7.7-12 17.7-11.5 24.1.3 7.4 4 14.9 10.5 21.3a55.11 55.11 0 0 0 10.9 7.7c8.5 5 18.3 5.2 26.4-.4A29.46 29.46 0 0 0 60.25 83a48.29 48.29 0 0 0 1.8-9.2l1.4-15c.1.06-5.1 14.2-5.1 14.2z" fill="#fff" stroke="#fff" stroke-miterlimit="10" stroke-width="2"/><path d="M163.85 59.66h14.8v2.7h-11.8v11.1h11.2v2.7h-11.2v14.7h-3.1v-31.2zm20.3 0h3.1v13.8h15.8v-13.8h3.1v31.2h-3.1v-14.7h-15.8v14.7h-3.1zm29.3 0h3.1v31.2h-3.1zm10.4 0h8c5.5 0 9.2 2.4 9.2 8.1 0 4-3.1 6.7-6.9 7.2v.1c2.5.3 3 1.7 4 3.8l5.3 12.1h-3.4l-4.5-10.6c-1.8-4-3.1-4.2-6.1-4.2H227v14.7h-3.1v-31.2zm3.1 13.8h3.3c3.6 0 7.8-1.4 7.8-5.7 0-5.1-3.6-5.4-7.9-5.4H227v11.1z" fill="#e30613"/><path d="M36.35 12.56s9.2 14.7 7.6 29.2-11.4 21.24-16.3 32.4-2 22.8 2 25.8c-5.3-3.8-19.3-10.9-18.3-29.7.5-5.8 4.1-16.3 12.7-26.4s14.3-14.3 12.3-31.3z" fill="url(#a)"/><path d="M16.65 92.56s-13-9.2-13.6-23c-.5-6.1 2.8-15.4 10.8-22.5 9.1-8.1 11.7-9.8 13.6-11.9-5.3 6.3-16.8 18.5-18.6 29a36.26 36.26 0 0 0 7.8 28.4z" fill="url(#b)"/><path d="M32.75 101s-8.1-11.9-2.2-24.7c2-3.9 9.1-12.4 12.5-20.2s4.1-12.5 3.9-18c5.3 7.3 13.7 29 4.1 45.8 3-1.9 7.5-6.1 9.1-10.7-.8 9.26-5 26.66-27.4 27.8z" fill="url(#c)"/><path d="M33.65 99.06s-5.2-9.3.7-18.5c4.7-7.5 9.7-9 12.5-17.1.5 8.5.2 19.7-7.1 29.1a17.81 17.81 0 0 0 7.5-3.2c-1.8 3.64-5 8.2-13.6 9.7z" fill="url(#d)"/><path d="M25.05 94.66s-14.7-16.7-4.4-33.8c7.2-12.3 16.4-13.1 18.4-31 0 12.9 1.4 19.3-9.7 33.7-7.3 9.44-9 22.2-4.3 31.1z" fill="url(#e)"/><path d="M43.35 14.16s4.1 12-8.2 29.2c-9 12.5-26.7 31.1-7.9 53.8-7.6-7.9-15-21.6-6.8-37.9C28 44.56 46.15 35 43.35 14.16z" fill="url(#f)"/><ellipse cx="52.05" cy="29.16" rx="7.7" ry="7.5" fill="#fff"/><path d="M52.55 28.46a.85.85 0 0 1-.6.2h-.5v-1.2h.9a.35.35 0 0 1 .2.1c.1.1.1.1.1.2V28a.4.4 0 0 1-.1.5m1.9 2.6l-.3-.8a4.35 4.35 0 0 0-.4-.7.86.86 0 0 0-.6-.3 1.93 1.93 0 0 0 .9-.5 1.4 1.4 0 0 0 .3-.9 1.45 1.45 0 0 0-.2-.7 1.21 1.21 0 0 0-.5-.5 4.88 4.88 0 0 0-.7-.3 2.77 2.77 0 0 0-.9-.1h-1.7a.68.68 0 0 0-.7.7v4.4a.22.22 0 0 0 .2.2 3.55 3.55 0 0 0 .7.1c.3 0 .5 0 .6-.1s.1-.1.1-.2v-1.6h.3a.75.75 0 0 1 .5.1 1.63 1.63 0 0 1 .3.6l.2.9c0 .1 0 .1.1.2l.1.1a.37.37 0 0 1 .3.1h1.3c.1 0 .1 0 .1-.1v-.1a.45.45 0 0 0 0-.5m1.2-.3a2.55 2.55 0 0 1-.8 1.2 2.55 2.55 0 0 1-1.2.8 4.15 4.15 0 0 1-1.6.3 3.34 3.34 0 0 1-1.5-.3 3.6 3.6 0 0 1-1.2-.8 5.67 5.67 0 0 1-.8-1.3 4.15 4.15 0 0 1-.3-1.6 4 4 0 0 1 .3-1.5 2.55 2.55 0 0 1 .8-1.2 2.55 2.55 0 0 1 1.2-.8 4.15 4.15 0 0 1 1.6-.3 3.65 3.65 0 0 1 1.5.3 3.6 3.6 0 0 1 1.2.8 5.67 5.67 0 0 1 .8 1.3 4.15 4.15 0 0 1 .3 1.6l-.3 1.5m1.4-3.7a6.19 6.19 0 0 0-1.1-1.7 5 5 0 0 0-1.7-1.1 7.8 7.8 0 0 0-2.2-.3 5.22 5.22 0 0 0-2.1.4 5 5 0 0 0-1.7 1.1 3.86 3.86 0 0 0-1.1 1.7 4.64 4.64 0 0 0-.4 2.1 4.64 4.64 0 0 0 .4 2.1 6.19 6.19 0 0 0 1.1 1.7 5 5 0 0 0 1.7 1.1 4.92 4.92 0 0 0 2.1.4 5.22 5.22 0 0 0 2.1-.4 5 5 0 0 0 1.7-1.1 3.86 3.86 0 0 0 1.1-1.7 4.64 4.64 0 0 0 .4-2.1 4.89 4.89 0 0 0-.3-2.2" fill="#e02726"/><ellipse cx="146.95" cy="58.76" rx="7.7" ry="7.5" fill="#fff"/><path d="M147.45 58.06a.85.85 0 0 1-.6.2h-.5v-1.2h.9a.35.35 0 0 1 .2.1c.1.1.1.1.1.2v.2a.44.44 0 0 1-.1.5m2 2.5l-.3-.8a4.35 4.35 0 0 0-.4-.7.86.86 0 0 0-.6-.3 1.93 1.93 0 0 0 .9-.5 1.4 1.4 0 0 0 .3-.9 1.45 1.45 0 0 0-.2-.7 1.21 1.21 0 0 0-.5-.5 4.88 4.88 0 0 0-.7-.3 2.77 2.77 0 0 0-.9-.1h-1.7a.68.68 0 0 0-.7.7V61a.22.22 0 0 0 .2.2 3.55 3.55 0 0 0 .7.1c.3 0 .5 0 .6-.1s.1-.1.1-.2v-1.6h.3a.75.75 0 0 1 .5.1 1.63 1.63 0 0 1 .3.6l.2.9c0 .1 0 .1.1.2l.1.1a.37.37 0 0 1 .3.1h1.3c.1 0 .1 0 .1-.1v-.1c.1-.2 0-.3 0-.6m1.1-.3a3.68 3.68 0 0 1-2 2 4.15 4.15 0 0 1-1.6.3 3.34 3.34 0 0 1-1.5-.3 3.6 3.6 0 0 1-1.2-.8 5.67 5.67 0 0 1-.8-1.3 4.15 4.15 0 0 1-.3-1.6 4 4 0 0 1 .3-1.5 3.68 3.68 0 0 1 2-2 4.15 4.15 0 0 1 1.6-.3 3.65 3.65 0 0 1 1.5.3 3.6 3.6 0 0 1 1.2.8 5.67 5.67 0 0 1 .8 1.3 4.15 4.15 0 0 1 .3 1.6 4 4 0 0 1-.3 1.5m1.4-3.7a6.19 6.19 0 0 0-1.1-1.7 5 5 0 0 0-1.7-1.1 4.92 4.92 0 0 0-2.1-.4 5.22 5.22 0 0 0-2.1.4 5 5 0 0 0-1.7 1.1 3.86 3.86 0 0 0-1.1 1.7 5.71 5.71 0 0 0 0 4.2 6.19 6.19 0 0 0 1.1 1.7 5 5 0 0 0 1.7 1.1 4.92 4.92 0 0 0 2.1.4 5.22 5.22 0 0 0 2.1-.4 5 5 0 0 0 1.7-1.1 3.86 3.86 0 0 0 1.1-1.7 4.64 4.64 0 0 0 .4-2.1 7.79 7.79 0 0 0-.4-2.1" fill="#e02726"/><ellipse cx="248.15" cy="58.76" rx="7.7" ry="7.5" fill="#fff"/><path d="M248.65 58.06a.85.85 0 0 1-.6.2h-.5v-1.2h.9a.35.35 0 0 1 .2.1c.1.1.1.1.1.2v.2a.44.44 0 0 1-.1.5m2 2.5l-.3-.8a4.35 4.35 0 0 0-.4-.7.86.86 0 0 0-.6-.3 1.93 1.93 0 0 0 .9-.5 1.4 1.4 0 0 0 .3-.9 1.45 1.45 0 0 0-.2-.7 1.21 1.21 0 0 0-.5-.5 4.88 4.88 0 0 0-.7-.3 2.77 2.77 0 0 0-.9-.1h-1.7a.68.68 0 0 0-.7.7V61a.22.22 0 0 0 .2.2 3.55 3.55 0 0 0 .7.1c.3 0 .5 0 .6-.1s.1-.1.1-.2v-1.6h.3a.75.75 0 0 1 .5.1 1.63 1.63 0 0 1 .3.6l.2.9c0 .1 0 .1.1.2l.1.1a.37.37 0 0 1 .3.1h1.3c.1 0 .1 0 .1-.1v-.1c.1-.2 0-.3 0-.6m1.1-.3a3.68 3.68 0 0 1-2 2 4.15 4.15 0 0 1-1.6.3 3.34 3.34 0 0 1-1.5-.3 3.6 3.6 0 0 1-1.2-.8 5.67 5.67 0 0 1-.8-1.3 4.15 4.15 0 0 1-.3-1.6 4 4 0 0 1 .3-1.5 3.68 3.68 0 0 1 2-2 4.15 4.15 0 0 1 1.6-.3 3.65 3.65 0 0 1 1.5.3 3.6 3.6 0 0 1 1.2.8 5.67 5.67 0 0 1 .8 1.3 4.15 4.15 0 0 1 .3 1.6 4 4 0 0 1-.3 1.5m1.4-3.7a6.19 6.19 0 0 0-1.1-1.7 5 5 0 0 0-1.7-1.1 4.92 4.92 0 0 0-2.1-.4 5.22 5.22 0 0 0-2.1.4 5 5 0 0 0-1.7 1.1 3.86 3.86 0 0 0-1.1 1.7 5.71 5.71 0 0 0 0 4.2 6.19 6.19 0 0 0 1.1 1.7 5 5 0 0 0 1.7 1.1 4.92 4.92 0 0 0 2.1.4 5.22 5.22 0 0 0 2.1-.4 5 5 0 0 0 1.7-1.1 3.86 3.86 0 0 0 1.1-1.7 4.64 4.64 0 0 0 .4-2.1 7.79 7.79 0 0 0-.4-2.1" fill="#e02726"/><path d="M75.61 59.66v13.27h14.51V59.66h3.09V91h-3.09V76H75.61v15h-3.14V59.66zM101.55 59.66h3.08v28.2h12.82V91h-15.9zM138.17 59.66v2.4l-13.41 28.82h-3.63l13.36-28-.42-.09h-14.15v-3.1z" fill="#e30613"/></svg>