<?xml version="1.0" encoding="iso-8859-1"?>
<!-- Generator: Adobe Illustrator 20.1.0, SVG Export Plug-In . SVG Version: 6.00 Build 0)  -->
<!DOCTYPE svg PUBLIC "-//W3C//DTD SVG 1.1//EN" "http://www.w3.org/Graphics/SVG/1.1/DTD/svg11.dtd">
<svg version="1.1" xmlns="http://www.w3.org/2000/svg" xmlns:xlink="http://www.w3.org/1999/xlink" x="0px" y="0px"
	 viewBox="0 0 220 75" style="enable-background:new 0 0 220 75;" xml:space="preserve">
<g id="marketo">
	<g>
		<path style="fill:#8D70C9;" d="M168.513,10.869h-4.021c-0.977,0-1.961,0.777-2.182,1.725l-5.183,22.123
			c2.766,0.843,5.06,1.78,6.943,2.707l5.817-24.83C170.11,11.646,169.491,10.869,168.513,10.869z M157.574,17.787h-4.019
			c-0.979,0-1.962,0.777-2.183,1.725l-3.094,13.202c2.676,0.424,5.076,0.948,7.219,1.532l3.452-14.734
			C159.172,18.564,158.554,17.787,157.574,17.787z M137.07,26.332h-4.021c-0.977,0-1.961,0.777-2.182,1.725l-0.857,3.656
			c0.625-0.046,1.27-0.08,1.958-0.088c1.963-0.021,3.835,0.006,5.622,0.075l0.854-3.644
			C138.665,27.108,138.047,26.332,137.07,26.332z M147.584,21.742h-4.021c-0.977,0-1.961,0.776-2.183,1.725l-1.95,8.322
			c2.667,0.15,5.134,0.394,7.411,0.712l2.116-9.034C149.18,22.518,148.561,21.742,147.584,21.742z"/>
		<g>
			<g>
				<g>
					<path style="fill:#333E48;" d="M54.397,40.768c0.239-1.035,1.303-1.881,2.365-1.881h3.987c1.062,0,1.9,0.868,1.863,1.93
						l-0.097,2.758c-0.038,1.061-0.093,2.798-0.123,3.859c0,0-0.045,1.562-0.045,2.227c-0.1,1.996-0.2,3.625-0.333,5.786
						c0.466-1.097,1.031-2.461,1.663-3.923c0.499-1.197,1.197-2.86,1.53-3.625l3.209-7.247c0.43-0.971,1.65-1.765,2.712-1.765h3.954
						c1.062,0,1.735,0.846,1.497,1.881l-4.552,19.714c-0.239,1.035-1.303,1.882-2.365,1.882h-1.426
						c-1.062,0-1.717-0.842-1.456-1.871l3.473-13.682c0.261-1.03,0.119-1.079-0.315-0.11l-6.235,13.902
						c-0.434,0.969-1.659,1.762-2.721,1.762h-0.894c-1.062,0-1.922-0.868-1.912-1.931l0.13-13.564c0.01-1.061-0.159-1.08-0.375-0.04
						l-2.838,13.645c-0.216,1.039-1.262,1.89-2.324,1.89h-1.426c-1.062,0-1.735-0.846-1.496-1.882L54.397,40.768z"/>
					<path style="fill:#333E48;" d="M88.418,60.335c-0.033,0.266-0.1,0.532-0.1,0.798c0,0.798,0.233,0.964,0.499,1.23h-4.122
						c-1.062,0-1.826-0.419-1.698-0.931c0.128-0.512-0.424-0.363-1.228,0.332c0,0-1.233,1.065-3.328,1.065
						c-0.366,0-3.525,0-3.525-3.227c0-1.097,0.698-4.223,1.796-5.486c1.097-1.264,2.694-1.73,8.912-3.525
						c0.166-0.699,0.399-1.829,0.399-2.095c0-0.931-0.865-0.997-1.43-0.997c-1.496,0-1.763,0.797-2.261,2.594h-3.124
						c-1.062,0-1.694-0.837-1.406-1.858c0,0,0.64-2.266,2.269-3.097c1.231-0.632,2.926-0.931,4.789-0.931
						c3.059,0,6.218,0.765,6.218,3.891c0,0.665,0,0.665,0,0.665c-0.164,0.731-0.494,2.177-0.733,3.212L88.418,60.335z M84.86,54.016
						c-1.197,0.367-2.727,0.832-3.359,1.33c-0.864,0.699-1.097,2.594-1.097,2.927c0,0.598,0.266,1.097,1.164,1.097
						c0.931,0,0.931,0,0.931,0c0.695-0.585,1.479-1.906,1.743-2.935L84.86,54.016z"/>
					<path style="fill:#333E48;" d="M99.458,48.098c1.463-2.794,2.561-3.426,5.354-3.857l-0.83,3.09
						c-0.275,1.026-0.83,1.85-1.232,1.832c0,0,0,0-0.366,0c-2.926,0-3.459,1.263-4.223,4.522l-1.562,6.798
						c-0.238,1.035-1.302,1.882-2.363,1.882h-1.393c-1.062,0-1.735-0.846-1.495-1.881L94.6,46.42
						c0.239-1.035,1.304-1.882,2.366-1.882h1.393c1.062,0,1.733,0.846,1.491,1.88L99.458,48.098z"/>
					<path style="fill:#333E48;" d="M110.762,38.886c1.062,0,1.735,0.846,1.496,1.881l-1.99,8.608
						c-0.239,1.034,0.117,1.21,0.791,0.39l3.068-3.735c0.675-0.82,2.095-1.492,3.157-1.492h2.091c1.061,0,1.349,0.646,0.638,1.435
						l-4.332,4.812c-0.711,0.789-1.041,2.266-0.734,3.284l1.943,6.445c0.307,1.017-0.311,1.848-1.372,1.848h-1.592
						c-1.062,0-2.153-0.84-2.424-1.867l-1.541-5.843c-0.271-1.027-0.687-1.02-0.924,0.015l-1.332,5.814
						c-0.237,1.035-1.301,1.882-2.362,1.882h-1.426c-1.062,0-1.735-0.846-1.496-1.882l4.552-19.714
						c0.239-1.035,1.303-1.881,2.365-1.881H110.762z"/>
					<path style="fill:#333E48;" d="M133.909,56.611c-0.333,1.329-0.699,2.892-1.796,4.09c-1.064,1.231-2.826,2.129-5.952,2.129
						c-0.899,0-3.392-0.133-4.955-1.364c-0.765-0.598-1.463-1.529-1.463-3.425c0-2.361,1.696-8.913,2.262-10.243
						c0.598-1.43,1.995-3.691,6.85-3.691c2.128,0,6.284,0.399,6.284,4.356c0,0.732-0.133,1.497-0.299,2.262
						c-0.266,1.297-0.532,2.494-0.865,3.99h-6.582c-1.062,0-2.134,0.845-2.381,1.878c0,0-0.148,0.616-0.148,1.381
						c0,0.167,0.033,0.366,0.1,0.532c0.233,0.399,0.765,0.665,1.463,0.665c1.496,0,1.645-0.675,1.645-0.675
						c0.229-1.037,1.285-1.885,2.348-1.885H133.909z M129.62,51.456c0.133-0.565,0.465-1.962,0.465-2.427
						c0-0.333-0.066-0.665-0.266-0.898c-0.332-0.399-0.93-0.466-1.263-0.466c-1.629,0-1.995,1.896-1.995,1.896
						c-0.202,1.043,0.503,1.896,1.564,1.896H129.62z"/>
					<path style="fill:#333E48;" d="M140.533,40.735c0.237-1.035,1.299-1.882,2.36-1.882h1.36c1.062,0,1.733,0.846,1.491,1.88
						l-0.451,1.926c-0.242,1.034,0.091,1.88,0.741,1.88c0.649,0,1.009,0.719,0.798,1.597c-0.211,0.878-0.906,1.597-1.546,1.597
						c-0.64,0-1.361,0.846-1.602,1.88l-1.285,5.517c-0.241,1.034-0.498,2.21-0.571,2.613c0,0,0,0,0,0.3
						c0,0.93,0.665,0.93,2.161,0.93l-0.34,1.509c-0.234,1.036-1.294,1.884-2.355,1.884c0,0-5.153,0-5.153-2.66
						c0-0.566,0.101-0.998,0.3-1.73l2.01-8.365c0.247-1.033-0.028-1.877-0.614-1.877c-0.585,0-0.899-0.719-0.698-1.597
						c0.201-0.878,0.852-1.597,1.446-1.597c0.595,0,1.275-0.847,1.511-1.882L140.533,40.735z"/>
					<path style="fill:#333E48;" d="M161.747,48.962c0,1.863-1.43,7.781-1.929,9.312c-0.632,1.862-1.663,4.489-6.983,4.489
						c-3.991,0-6.552-1.33-6.552-4.822c0-1.929,1.496-7.815,1.796-8.745c0.566-1.896,1.696-5.122,6.818-5.122
						C157.557,44.074,161.747,44.507,161.747,48.962z M156.492,49.661c0.067-0.233,0.101-0.465,0.101-0.699
						c0.033-0.864-0.633-1.329-1.43-1.329c-1.43,0-1.73,1.23-1.896,2.028l-1.224,5.236c-0.242,1.034-0.499,2.179-0.572,2.545
						c0,0,0,0,0,0.366c0,0.699,0.399,1.364,1.43,1.364c1.43,0,1.551-0.515,1.551-0.515c0.244-1.033,0.634-2.727,0.866-3.763
						L156.492,49.661z"/>
				</g>
			</g>
			<g>
				<path style="fill:#333E48;" d="M165.499,44.089c1.243,0,2.252,1.029,2.252,2.283c0,1.284-1.009,2.303-2.262,2.303
					c-1.264,0-2.283-1.019-2.283-2.303c0-1.253,1.019-2.283,2.283-2.283H165.499z M165.479,44.547c-0.959,0-1.733,0.816-1.733,1.834
					c0,1.03,0.774,1.835,1.753,1.835c0.959,0.01,1.733-0.805,1.733-1.835c0-1.019-0.774-1.834-1.743-1.834H165.479z M165.091,47.707
					h-0.54V45.17c0.193-0.031,0.417-0.072,0.816-0.072c0.438,0,0.713,0.072,0.876,0.204c0.143,0.102,0.225,0.285,0.225,0.541
					c0,0.295-0.204,0.52-0.489,0.591v0.02c0.224,0.051,0.367,0.255,0.407,0.622c0.051,0.397,0.102,0.55,0.133,0.632h-0.55
					c-0.062-0.092-0.102-0.316-0.153-0.652c-0.041-0.275-0.204-0.387-0.489-0.387h-0.235V47.707z M165.091,46.239h0.245
					c0.326,0,0.57-0.102,0.57-0.367c0-0.204-0.152-0.367-0.52-0.367c-0.132,0-0.224,0-0.295,0.01V46.239z"/>
			</g>
		</g>
	</g>
</g>
<g id="Layer_1">
</g>
</svg>
