<svg xmlns="http://www.w3.org/2000/svg" viewBox="0 0 127.87 25"><defs><style>.cls-1{fill:#e8762c;}.cls-2{fill:#c62036;}.cls-3,.cls-8{fill:#5a869a;}.cls-4{fill:#5c6691;}.cls-5{fill:#eb9028;}.cls-6,.cls-9{fill:#1e457e;}.cls-6,.cls-8{fill-rule:evenodd;}.cls-7{fill:#7098a4;}</style></defs><title>tableau_logo</title><g id="Layer_2" data-name="Layer 2"><g id="Layer_1-2" data-name="Layer 1"><polygon class="cls-1" points="16.44 11.48 13.04 11.48 13.04 7.79 11.71 7.79 11.71 11.48 8.31 11.48 8.31 12.8 11.71 12.8 11.71 16.49 13.04 16.49 13.04 12.8 16.44 12.8 16.44 11.48"/><polygon class="cls-2" points="9.61 17.52 6.56 17.52 6.56 14.21 5.41 14.21 5.41 17.52 2.36 17.52 2.36 18.53 5.41 18.53 5.41 21.84 6.56 21.84 6.56 18.53 9.61 18.53 9.61 17.52"/><polygon class="cls-3" points="22.39 5.68 19.34 5.68 19.34 2.36 18.19 2.36 18.19 5.68 15.14 5.68 15.14 6.69 18.19 6.69 18.19 9.98 19.34 9.98 19.34 6.69 22.39 6.69 22.39 5.68"/><polygon class="cls-4" points="14.95 21.19 12.89 21.19 12.89 18.88 11.9 18.88 11.9 21.19 9.84 21.19 9.84 22.08 11.9 22.08 11.9 24.39 12.89 24.39 12.89 22.08 14.95 22.08 14.95 21.19"/><polygon class="cls-5" points="9.61 5.68 6.53 5.68 6.53 2.36 5.45 2.36 5.45 5.68 2.36 5.68 2.36 6.66 5.45 6.66 5.45 9.98 6.53 9.98 6.53 6.66 9.61 6.66 9.61 5.68"/><polygon class="cls-4" points="24.73 11.7 22.66 11.7 22.66 9.39 21.68 9.39 21.68 11.7 19.61 11.7 19.61 12.59 21.68 12.59 21.68 14.89 22.66 14.89 22.66 12.59 24.73 12.59 24.73 11.7"/><polygon class="cls-6" points="22.39 17.52 19.34 17.52 19.34 14.21 18.19 14.21 18.19 17.52 15.14 17.52 15.14 18.53 18.19 18.53 18.19 21.84 19.34 21.84 19.34 18.53 22.39 18.53 22.39 17.52"/><polygon class="cls-7" points="12.03 0 12.03 2.26 9.98 2.26 9.98 2.95 12.03 2.95 12.03 5.21 12.76 5.21 12.76 2.95 14.81 2.95 14.81 2.26 12.76 2.26 12.76 0 12.03 0"/><polygon class="cls-7" points="4.83 11.79 2.77 11.79 2.77 9.56 2.05 9.56 2.05 11.79 0 11.79 0 12.5 2.05 12.49 2.05 14.72 2.77 14.72 2.77 12.48 4.83 12.47 4.83 11.79"/><path class="cls-8" d="M35.86,24.78a1.54,1.54,0,0,0,.81.22c.59,0,.92-.27.92-.69a.65.65,0,0,0-.31-.59,3.07,3.07,0,0,0-.58-.25c-.21-.08-.31-.16-.31-.26s.11-.19.34-.19a1.82,1.82,0,0,1,.76.24v-.48a1.76,1.76,0,0,0-.79-.19c-.54,0-.88.28-.88.67s.28.62.87.82c.21.08.31.12.31.26s-.12.21-.35.21a1.45,1.45,0,0,1-.79-.3Z"/><path class="cls-8" d="M47.33,23.79a1.18,1.18,0,0,0,.37.88,1.26,1.26,0,0,0,.9.33,1.29,1.29,0,0,0,.91-.33,1.18,1.18,0,0,0,.37-.88,1.16,1.16,0,0,0-.37-.87,1.25,1.25,0,0,0-.91-.33,1.22,1.22,0,0,0-.9.33,1.16,1.16,0,0,0-.37.87m.61,0a.67.67,0,1,1,1.33,0,.67.67,0,1,1-1.33,0"/><polygon class="cls-8" points="60.24 24.96 60.83 24.96 60.83 24 61.7 24 61.7 23.56 60.83 23.56 60.83 23.05 61.76 23.05 61.76 22.62 60.24 22.62 60.24 24.96"/><polygon class="cls-8" points="72.67 24.96 73.29 24.96 73.29 23.06 74.06 23.06 74.06 22.62 71.9 22.62 71.9 23.06 72.67 23.06 72.67 24.96"/><polygon class="cls-8" points="84.43 24.98 84.67 24.98 85.2 23.52 85.73 24.98 85.97 24.98 86.92 22.62 86.31 22.62 85.86 23.9 85.4 22.62 85.01 22.62 84.55 23.89 84.1 22.62 83.49 22.62 84.43 24.98"/><path class="cls-8" d="M95.75,25h.63l.18-.46h1l.17.46h.62l-.91-2.34h-.68Zm1-.86.36-.89.33.89Z"/><path class="cls-8" d="M107.84,25h.58V24h.07a.41.41,0,0,1,.43.29l.29.67h.66l-.37-.8a.55.55,0,0,0-.28-.3.56.56,0,0,0,.41-.56c0-.47-.3-.68-.93-.68h-.86Zm.86-1.38h-.28V23h.28c.22,0,.33.1.33.27s-.11.27-.33.27"/><polygon class="cls-8" points="119.57 24.96 121.16 24.96 121.16 24.52 120.16 24.52 120.16 23.96 121.09 23.96 121.09 23.53 120.16 23.53 120.16 23.05 121.13 23.05 121.13 22.62 119.57 22.62 119.57 24.96"/><path class="cls-6" d="M65.78,10.24a5.54,5.54,0,0,1,2-.41c2.28,0,3.83,1.6,3.83,4.12S70,18.09,67.11,18.09a9.35,9.35,0,0,1-3-.54L64.07,6h1.71Zm1.5,6.27A2.29,2.29,0,0,0,69.79,14a2.29,2.29,0,0,0-2.36-2.57,4.09,4.09,0,0,0-1.65.42v4.4a4.19,4.19,0,0,0,1.5.29"/><rect class="cls-9" x="78.69" y="4.39" width="1.69" height="15.15"/><path class="cls-6" d="M89.73,13.05h3.88A1.53,1.53,0,0,0,92,11.42a2.26,2.26,0,0,0-2.29,1.63m1.91,5.07a3.94,3.94,0,0,1-3.8-4.26,3.84,3.84,0,0,1,3.91-4c2.43,0,3.84,1.8,3.72,4.45H89.62a2.26,2.26,0,0,0,2.23,2.25A6,6,0,0,0,95,15.92v1.62a6,6,0,0,1-3.39.58"/><path class="cls-6" d="M120.55,16.78a1.61,1.61,0,0,0,1.8-1.77V10h1.71v5.22c0,1.75-1.36,2.81-3.51,2.81s-3.5-1.06-3.5-2.81V10h1.7v5a1.61,1.61,0,0,0,1.8,1.77"/><path class="cls-6" d="M52.81,18.09c-2.85,0-4.48-1.53-4.48-4.14s1.55-4.12,3.83-4.12a3.5,3.5,0,0,1,2,.54V9.79h1.71l-.05,7.76a8.54,8.54,0,0,1-3,.54m-.17-1.58a5.92,5.92,0,0,0,1.47-.18l0-4.38a2.88,2.88,0,0,0-1.65-.55A2.29,2.29,0,0,0,50.13,14a2.28,2.28,0,0,0,2.51,2.54"/><path class="cls-6" d="M106.83,18.09c-2.86,0-4.48-1.53-4.48-4.14s1.54-4.12,3.82-4.12a3.5,3.5,0,0,1,2,.54V9.79h1.71l0,7.76a8.53,8.53,0,0,1-3,.54m-.18-1.58a6.19,6.19,0,0,0,1.47-.18l0-4.38a2.88,2.88,0,0,0-1.65-.55A2.29,2.29,0,0,0,104.14,14a2.29,2.29,0,0,0,2.51,2.54"/><polygon class="cls-9" points="35.61 6.55 37.31 6.55 37.31 11.36 41.88 11.36 41.88 12.94 37.31 12.94 37.31 18.14 35.61 18.14 35.61 12.94 31.04 12.94 31.04 11.36 35.61 11.36 35.61 6.55"/><path class="cls-9" d="M126.87,9.93a1,1,0,1,1-1,1,1,1,0,0,1,1-1Zm0,.16a.86.86,0,1,0,.81.86.83.83,0,0,0-.81-.86Zm-.19,1.45h-.18V10.41a1.39,1.39,0,0,1,.32,0,.59.59,0,0,1,.35.09.25.25,0,0,1,.1.23.29.29,0,0,1-.22.28h0c.1,0,.17.11.19.28a2,2,0,0,0,.07.28h-.18a.73.73,0,0,1-.08-.29.22.22,0,0,0-.24-.2h-.13Zm0-.63h.13c.15,0,.27-.05.27-.19s-.07-.2-.27-.2h-.13Z"/></g></g></svg>