<svg viewBox="0 0 18 18" data-islogo="true" class="" role="presentation" focusable="false" xmlns:svg="http://www.w3.org/2000/svg" xmlns:xlink="http://www.w3.org/1999/xlink" id="FxSymbol0-0fd" data-type="44"><g><path d="M17.165 16.376c-.468-3.742-2.3-6.911-5.683-7.938a4.579 4.579 0 1 0-5.01-.038c-3.406.913-5.224 3.784-5.639 7.989a1.462 1.462 0 0 0 1.3 1.6 1.428 1.428 0 0 0 .15.011h13.433a1.454 1.454 0 0 0 1.459-1.448 1.472 1.472 0 0 0-.01-.176z" fill="url(#d9b62a82-57e7-477e-a04b-2470f7b7c43f)"></path><path d="M9.013 9.17a4.561 4.561 0 0 1-2.482-.731l2.457 6.42 2.44-6.377a4.559 4.559 0 0 1-2.415.688z" opacity=".8" class="msportalfx-svg-c01" fill="#ffffff"></path></g><defs>
<linearGradient id="a" x1="9" y1="16.39" x2="9" y2="-1.94" gradientUnits="userSpaceOnUse"><stop offset="0" stop-color="#0078d4"></stop><stop offset=".16" stop-color="#1380da"></stop><stop offset=".53" stop-color="#3c91e5"></stop><stop offset=".82" stop-color="#559cec"></stop><stop offset="1" stop-color="#5ea0ef"></stop></linearGradient>
<linearGradient id="b" x1="9.88" y1="7.11" x2="9.99" y2="17.27" gradientUnits="userSpaceOnUse"><stop offset="0" stop-color="#32d4f5"></stop><stop offset=".32" stop-color="#31d1f3"></stop><stop offset=".53" stop-color="#2ec9eb"></stop><stop offset=".7" stop-color="#29bade"></stop><stop offset=".86" stop-color="#22a5cb"></stop><stop offset="1" stop-color="#198ab3"></stop><stop offset="1" stop-color="#198ab3"></stop></linearGradient>
<radialGradient id="c" cx="9.43" cy="7.03" r="7.27" gradientUnits="userSpaceOnUse"><stop offset="0" stop-color="#f2f2f2"></stop><stop offset=".58" stop-color="#eee"></stop><stop offset="1" stop-color="#e6e6e6"></stop></radialGradient>
<linearGradient id="d9b62a82-57e7-477e-a04b-2470f7b7c43f" x1="7.61" y1="-.746" x2="9.609" y2="24.118" gradientUnits="userSpaceOnUse"><stop offset="0" stop-color="#32d4f5"></stop><stop offset=".209" stop-color="#30cff0"></stop><stop offset=".466" stop-color="#2bc0e3"></stop><stop offset=".748" stop-color="#23a7cd"></stop><stop offset="1" stop-color="#198ab3"></stop></linearGradient>
</defs>
</svg>