<?xml version="1.0" encoding="UTF-8" standalone="no"?>
<!DOCTYPE svg PUBLIC "-//W3C//DTD SVG 1.1//EN" "http://www.w3.org/Graphics/SVG/1.1/DTD/svg11.dtd">
<!-- Generated by Microsoft Visio, SVG Export Dashboard.svg Page-1 -->
<svg xmlns="http://www.w3.org/2000/svg" xmlns:xlink="http://www.w3.org/1999/xlink" xmlns:ev="http://www.w3.org/2001/xml-events"
		xmlns:v="http://schemas.microsoft.com/visio/2003/SVGExtensions/" width="1.04532in" height="0.694782in"
		viewBox="0 0 75.2632 50.0243" xml:space="preserve" color-interpolation-filters="sRGB" class="st4">
	<v:documentProperties v:langID="1033" v:metric="true" v:viewMarkup="false"/>

	<style type="text/css">
	<![CDATA[
		.st1 {fill:#f09c00;stroke:none;stroke-width:0.690696}
		.st2 {fill:#dbdbdb;stroke:none;stroke-width:0.690696}
		.st3 {fill:#003a55;stroke:none;stroke-width:0.690696}
		.st4 {fill:none;fill-rule:evenodd;font-size:12px;overflow:visible;stroke-linecap:square;stroke-miterlimit:3}
	]]>
	</style>

	<g v:mID="0" v:index="1" v:groupContext="foregroundPage">
		<title>Page-1</title>
		<v:pageProperties v:drawingScale="1" v:pageScale="1" v:drawingUnits="0" v:shadowOffsetX="9" v:shadowOffsetY="-9"/>
		<g id="group19077-1" transform="translate(0.690696,-0.690696)" v:mID="19077" v:groupContext="group">
			<title>Dashboard</title>
			<g id="group19078-2" v:mID="19078" v:groupContext="group">
				<title>Sheet.19078</title>
				<g id="shape19079-3" v:mID="19079" v:groupContext="shape" transform="translate(5.02889,-4.9738E-14)">
					<title>Sheet.19079</title>
					<path d="M0 47.52 L0 49.17 C0 49.64 0.38 50.02 0.85 50.02 L62.48 50.02 C62.95 50.02 63.34 49.64 63.34 49.17 L63.33
								 47.52 L0 47.52 Z" class="st1"/>
				</g>
				<g id="shape19080-5" v:mID="19080" v:groupContext="shape" transform="translate(0,-3.88507)">
					<title>Sheet.19080</title>
					<path d="M73.03 29.61 L67.49 28.64 L61.61 23.87 C61.52 23.8 61.42 23.74 61.33 23.69 C61.33 17.01 61.34 8.9 61.34
								 8.9 C61.34 6.89 59.71 5.27 57.7 5.27 L15.64 5.27 C13.63 5.27 12 6.89 12 8.9 C12 8.9 12.01 17.93
								 12.01 25.17 L6.71 28.58 L1.03 28.58 C0.46 28.58 0 29.04 0 29.61 C0 30.18 0.46 30.64 1.03 30.64 L6.78
								 30.64 C7.13 30.64 7.48 30.54 7.77 30.35 L12.03 27.62 C12.03 33.15 12.04 39.83 12.05 39.87 L5.03
								 50.02 L68.37 50.02 L61.3 39.81 C61.31 39.76 61.31 32.3 61.32 26.3 L66.23 30.28 C66.47 30.48 66.76
								 30.61 67.07 30.66 L72.67 31.65 C73.23 31.74 73.77 31.37 73.87 30.81 C73.97 30.25 73.59 29.71 73.03
								 29.61 Z" class="st2"/>
				</g>
			</g>
			<g id="shape19081-7" v:mID="19081" v:groupContext="shape" transform="translate(5.02889,7.10543E-15)">
				<title>Sheet.19081</title>
				<path d="M0 47.52 L0 49.17 C0 49.64 0.38 50.02 0.85 50.02 L62.48 50.02 C62.95 50.02 63.34 49.64 63.34 49.17 L63.33
							 47.52 L0 47.52 Z" class="st3"/>
			</g>
			<g id="shape19082-9" v:mID="19082" v:groupContext="shape" transform="translate(-5.59552E-14,-3.88507)">
				<title>Sheet.19082</title>
				<path d="M73.03 29.61 L67.49 28.64 L61.61 23.87 C61.52 23.8 61.42 23.74 61.33 23.69 C61.33 17.01 61.34 8.9 61.34
							 8.9 C61.34 6.89 59.71 5.27 57.7 5.27 L15.64 5.27 C13.63 5.27 12 6.89 12 8.9 C12 8.9 12.01 17.93 12.01
							 25.17 L6.71 28.58 L1.03 28.58 C0.46 28.58 0 29.04 0 29.61 C0 30.18 0.46 30.64 1.03 30.64 L6.78 30.64
							 C7.13 30.64 7.48 30.54 7.77 30.35 L12.03 27.62 C12.03 33.15 12.04 39.83 12.05 39.87 L5.03 50.02 L68.37
							 50.02 L61.3 39.81 C61.31 39.76 61.31 32.3 61.32 26.3 L66.23 30.28 C66.47 30.48 66.76 30.61 67.07 30.66
							 L72.67 31.65 C73.23 31.74 73.77 31.37 73.87 30.81 C73.97 30.25 73.59 29.71 73.03 29.61 ZM59.08 7.44
							 L59.08 24.09 C59.06 24.11 59.04 24.12 59.03 24.14 L55.05 29.03 L49.96 23.24 C49.6 22.83 49.09 22.6 48.53
							 22.62 C47.98 22.63 47.48 22.89 47.14 23.32 L43.13 28.47 L38.33 13.76 C38.08 13.01 37.38 12.5 36.58 12.5
							 C36.58 12.5 36.58 12.5 36.58 12.5 C35.78 12.5 35.08 13.01 34.84 13.77 L30.45 27.45 L26.45 22.41 C26.04
							 21.89 25.41 21.64 24.75 21.73 C24.11 21.82 23.57 22.24 23.31 22.84 L19.5 32.02 L14.64 25.51 C14.55 25.39
							 14.43 25.28 14.32 25.19 L14.32 7.44 L59.08 7.44 ZM27.36 49.05 L28.39 46.17 L43.99 46.17 L46.02 49.05
							 L27.36 49.05 ZM14.32 39.97 L14.32 28.53 L18.09 33.58 C18.44 34.04 18.99 34.31 19.56 34.31 C19.64 34.31
							 19.71 34.31 19.79 34.3 C20.44 34.22 21 33.79 21.25 33.18 L25.07 24 L29.1 29.08 C29.52 29.61 30.2 29.86
							 30.86 29.74 C31.53 29.62 32.08 29.14 32.28 28.5 L36.59 15.08 L41.3 29.52 C41.51 30.17 42.05 30.64 42.72
							 30.76 C43.39 30.87 44.07 30.61 44.49 30.08 L48.6 24.81 L53.68 30.6 C54.03 31.01 54.56 31.25 55.09 31.22
							 C55.63 31.21 56.14 30.97 56.48 30.55 L59.08 27.35 L59.08 39.97 L14.32 39.97 Z" class="st3"/>
			</g>
		</g>
	</g>
</svg>
