<?xml version="1.0" encoding="UTF-8" standalone="no"?>
<!DOCTYPE svg PUBLIC "-//W3C//DTD SVG 1.1//EN" "http://www.w3.org/Graphics/SVG/1.1/DTD/svg11.dtd">
<!-- Generated by Microsoft Visio, SVG Export YAML-1.svg Page-1 -->
<svg xmlns="http://www.w3.org/2000/svg" xmlns:xlink="http://www.w3.org/1999/xlink" xmlns:ev="http://www.w3.org/2001/xml-events"
		xmlns:v="http://schemas.microsoft.com/visio/2003/SVGExtensions/" width="0.526896in" height="0.526896in"
		viewBox="0 0 37.9365 37.9365" xml:space="preserve" color-interpolation-filters="sRGB" class="st5">
	<v:documentProperties v:langID="1033" v:metric="true" v:viewMarkup="false"/>

	<style type="text/css">
	<![CDATA[
		.st1 {fill:#0095a3;stroke:none;stroke-width:0.75}
		.st2 {fill:#ffffff;stroke:none;stroke-width:0.75}
		.st3 {fill:#ffffff;stroke:none;stroke-width:1.19531}
		.st4 {fill:#0095a3;stroke:none;stroke-width:3.54839}
		.st5 {fill:none;fill-rule:evenodd;font-size:12px;overflow:visible;stroke-linecap:square;stroke-miterlimit:3}
	]]>
	</style>

	<g v:mID="0" v:index="1" v:groupContext="foregroundPage">
		<title>Page-1</title>
		<v:pageProperties v:drawingScale="0.0393701" v:pageScale="0.0393701" v:drawingUnits="24" v:shadowOffsetX="8.50394"
				v:shadowOffsetY="-8.50394"/>
		<g id="group15-1" transform="translate(0.75,-0.75)" v:mID="15" v:groupContext="group">
			<title>YAML #1</title>
			<g id="shape16-2" v:mID="16" v:groupContext="shape">
				<title>circle821</title>
				<ellipse cx="18.2182" cy="19.7182" rx="18.2182" ry="18.2182" class="st1"/>
			</g>
			<g id="shape17-4" v:mID="17" v:groupContext="shape" transform="translate(7.63496,-6.26914)">
				<title>path823</title>
				<path d="M19.75 22.64 L19.18 22.64 L19.18 19.88 a0.396843 0.396843 -180 0 0 -1.42109E-13 -0.051127 a0.457708 0.457708
							 -180 0 0 -0.109558 -0.301893 L14.47 14.28 a0.455274 0.455274 -180 0 0 -0.0925155 -0.0779078 L14.35 14.18
							 a0.460143 0.460143 -180 0 0 -0.0925155 -0.0389539 L14.23 14.15 a0.486924 0.486924 -180 0 0 -0.107123
							 -0.0146077 L2.83 14.13 a0.934893 0.934893 -180 0 0 -0.934893 0.932459 L1.9 22.64 L1.33 22.64 A1.33417
							 1.33417 -180 0 0 -0 23.97 L0 30.92 A1.33417 1.33417 -180 0 0 1.33 32.25 L1.91 32.25 L1.91 37 a0.937328
							 0.937328 -180 0 0 0.927589 0.934893 L18.24 37.94 a0.934893 0.934893 -180 0 0 0.934893 -0.934893 L19.18
							 32.25 L19.75 32.25 A1.33417 1.33417 -180 0 0 21.09 30.92 L21.09 23.97 A1.33417 1.33417 -180 0 0 19.76
							 22.64 L19.75 22.64 ZM2.83 15.06 L13.66 15.06 L13.66 19.84 a0.467447 0.467447 -180 0 0 0.467447 0.467447
							 L18.25 20.3 L18.25 22.64 L2.83 22.64 L2.83 15.06 ZM14.61 30.31 L13.23 30.31 L13.13 27.91 C13.11 27.16
							 13.08 26.25 13.08 25.33 L13.06 25.33 C12.86 26.14 12.6 27.04 12.36 27.77 L11.6 30.21 L10.48 30.21 L9.81
							 27.78 C9.61 27.05 9.39 26.15 9.24 25.33 L9.22 25.33 C9.19 26.18 9.16 27.14 9.11 27.93 L9 30.31 L7.7
							 30.31 L8.1 24.04 L9.99 24.04 L10.61 26.13 C10.8 26.86 10.99 27.64 11.14 28.37 L11.16 28.37 C11.34 27.64
							 11.55 26.82 11.76 26.12 L12.43 24.04 L14.28 24.04 L14.61 30.31 ZM1.66 30.31 L3.48 27.15 L1.73 24.04
							 L3.36 24.04 L3.91 25.19 C4.09 25.57 4.23 25.88 4.39 26.23 L4.41 26.23 C4.56 25.83 4.68 25.55 4.84 25.19
							 L5.37 24.04 L6.97 24.04 L5.21 27.1 L7.07 30.31 L5.43 30.31 L4.86 29.18 C4.62 28.74 4.48 28.41 4.31 28.05
							 L4.29 28.05 C4.17 28.41 4.01 28.74 3.81 29.18 L3.28 30.31 L1.66 30.31 ZM18.25 36.74 L2.83 36.74 L2.83
							 32.25 L18.24 32.25 L18.25 36.74 ZM19.62 30.31 L15.7 30.31 L15.7 24.04 L17.13 24.04 L17.13 29.12 L19.62
							 29.12 L19.62 30.31 Z" class="st2"/>
			</g>
			<g id="shape18-6" v:mID="18" v:groupContext="shape" transform="translate(8.94212,-12.2547)">
				<title>Sheet.18</title>
				<path d="M18.55 37.16 C18.55 37.59 18.2 37.94 17.78 37.94 L0.77 37.94 C0.35 37.94 0 37.59 0 37.16 L0 29.43 C0 29.01
							 0.35 28.66 0.77 28.66 L17.78 28.66 C18.2 28.66 18.55 29.01 18.55 29.43 L18.55 37.16 Z" class="st3"/>
			</g>
			<g id="group19-8" transform="translate(8.94212,-14.5224)" v:mID="19" v:groupContext="group">
				<title>Sheet.19</title>
				<g id="shape20-9" v:mID="20" v:groupContext="shape">
					<title>Sheet.20</title>
					<path d="M2.56 36.36 L2.56 37.94 L1.77 37.94 L1.77 36.36 L0 33.2 L0.79 33.2 L2.15 35.47 L3.48 33.2 L4.27 33.2
								 L2.56 36.36 Z" class="st4"/>
				</g>
				<g id="shape21-11" v:mID="21" v:groupContext="shape" transform="translate(3.95065,0)">
					<title>Sheet.21</title>
					<path d="M3.67 36.86 L1.3 36.86 L0.85 37.94 L0 37.94 L2.09 33.2 L2.91 33.2 L4.96 37.9 L4.11 37.9 L3.67 36.86
								 ZM3.35 36.13 L2.47 34.05 L1.58 36.13 L3.35 36.13 Z" class="st4"/>
				</g>
				<g id="shape22-13" v:mID="22" v:groupContext="shape" transform="translate(9.51316,-0.0316052)">
					<title>Sheet.22</title>
					<path d="M0.95 33.23 L2.5 36.36 L4.05 33.23 L4.99 33.23 L4.99 37.94 L4.27 37.94 L4.27 34.43 L2.78 37.46 L2.28
								 37.46 L0.76 34.43 L0.76 37.94 L0 37.94 L0 33.23 L0.95 33.23 Z" class="st4"/>
				</g>
				<g id="shape23-15" v:mID="23" v:groupContext="shape" transform="translate(15.7394,-0.0316052)">
					<title>Sheet.23</title>
					<path d="M0.79 33.23 L0.79 37.21 L2.81 37.21 L2.81 37.94 L0 37.94 L0 33.23 L0.79 33.23 Z" class="st4"/>
				</g>
			</g>
		</g>
	</g>
</svg>
