<?xml version="1.0" encoding="UTF-8" standalone="no"?>
<!DOCTYPE svg PUBLIC "-//W3C//DTD SVG 1.1//EN" "http://www.w3.org/Graphics/SVG/1.1/DTD/svg11.dtd">
<!-- Generated by Microsoft Visio, SVG Export YAML.svg Page-1 -->
<svg xmlns="http://www.w3.org/2000/svg" xmlns:xlink="http://www.w3.org/1999/xlink" xmlns:ev="http://www.w3.org/2001/xml-events"
		xmlns:v="http://schemas.microsoft.com/visio/2003/SVGExtensions/" width="11.6929in" height="8.26772in"
		viewBox="0 0 841.89 595.276" xml:space="preserve" color-interpolation-filters="sRGB" class="st6">
	<v:documentProperties v:langID="1033" v:metric="true" v:viewMarkup="false">
		<v:userDefs>
			<v:ud v:nameU="msvSubprocessMaster" v:prompt="" v:val="VT4(Rectangle)"/>
			<v:ud v:nameU="msvNoAutoConnect" v:val="VT0(1):26"/>
		</v:userDefs>
	</v:documentProperties>

	<style type="text/css">
	<![CDATA[
		.st1 {fill:#e2e5e7;stroke:none;stroke-width:1.19531}
		.st2 {fill:#b0b7bd;stroke:none;stroke-width:1.19531}
		.st3 {fill:#cad1d8;stroke:none;stroke-width:1.19531}
		.st4 {fill:#0095a3;stroke:none;stroke-width:1.19531}
		.st5 {fill:#ffffff;stroke:none;stroke-width:3.54839}
		.st6 {fill:none;fill-rule:evenodd;font-size:12px;overflow:visible;stroke-linecap:square;stroke-miterlimit:3}
	]]>
	</style>

	<g v:mID="0" v:index="1" v:groupContext="foregroundPage">
		<v:userDefs>
			<v:ud v:nameU="msvThemeOrder" v:val="VT0(0):26"/>
		</v:userDefs>
		<title>Page-1</title>
		<v:pageProperties v:drawingScale="0.0393701" v:pageScale="0.0393701" v:drawingUnits="24" v:shadowOffsetX="8.50394"
				v:shadowOffsetY="-8.50394"/>
		<g id="group1-1" transform="translate(18,-540.839)" v:mID="1" v:groupContext="group">
			<title>YAML</title>
			<g id="group2-2" v:mID="2" v:groupContext="group">
				<title>CSS #1.389</title>
				<g id="group3-3" v:mID="3" v:groupContext="group">
					<title>PPT #1</title>
					<g id="group4-4" v:mID="4" v:groupContext="group">
						<title>HTML #1</title>
						<g id="shape5-5" v:mID="5" v:groupContext="shape" transform="translate(4.55456,0)">
							<title>Sheet.5</title>
							<path d="M2.28 558.84 C1.02 558.84 0 559.86 0 561.12 L0 593 C0 594.25 1.02 595.28 2.28 595.28 L25.05
										 595.28 C26.3 595.28 27.33 594.25 27.33 593 L27.33 567.95 L18.22 558.84 L2.28 558.84 Z"
									class="st1"/>
						</g>
						<g id="shape6-7" v:mID="6" v:groupContext="shape" transform="translate(22.7728,-27.3274)">
							<title>Sheet.6</title>
							<path d="M2.28 595.28 L9.11 595.28 L0 586.17 L0 593 C0 594.25 1.02 595.28 2.28 595.28 Z" class="st2"/>
						</g>
						<g id="shape7-9" v:mID="7" v:groupContext="shape" transform="translate(25.0501,-20.4955)">
							<title>Sheet.7</title>
							<path d="M6.83 595.28 L0 588.44 L6.83 588.44 L6.83 595.28 Z" class="st3"/>
						</g>
						<g id="shape8-11" v:mID="8" v:groupContext="shape" transform="translate(0,-5.6932)">
							<title>Sheet.8</title>
							<path d="M27.33 594.14 C27.33 594.76 26.81 595.28 26.19 595.28 L1.14 595.28 C0.51 595.28 0 594.76 0 594.14
										 L0 582.75 C0 582.12 0.51 581.61 1.14 581.61 L26.19 581.61 C26.81 581.61 27.33 582.12 27.33
										 582.75 L27.33 594.14 Z" class="st4"/>
						</g>
						<g id="shape9-13" v:mID="9" v:groupContext="shape" transform="translate(4.55456,-4.55456)">
							<title>Sheet.9</title>
							<path d="M21.63 594.14 L0 594.14 L0 595.28 L21.63 595.28 C22.26 595.28 22.77 594.76 22.77 594.14 L22.77
										 593 C22.77 593.62 22.26 594.14 21.63 594.14 Z" class="st3"/>
						</g>
					</g>
				</g>
			</g>
			<g id="group10-15" transform="translate(1.67961,-9.12147)" v:mID="10" v:groupContext="group">
				<title>Sheet.10</title>
				<g id="shape11-16" v:mID="11" v:groupContext="shape">
					<title>Sheet.11</title>
					<path d="M3.33 593.22 L3.33 595.28 L2.3 595.28 L2.3 593.22 L0 589.12 L1.03 589.12 L2.79 592.07 L4.52 589.12 L5.54
								 589.12 L3.33 593.22 Z" class="st5"/>
				</g>
				<g id="shape12-18" v:mID="12" v:groupContext="shape" transform="translate(5.13163,0)">
					<title>Sheet.12</title>
					<path d="M4.76 593.88 L1.68 593.88 L1.11 595.28 L0 595.28 L2.71 589.12 L3.78 589.12 L6.45 595.23 L5.34 595.23
								 L4.76 593.88 ZM4.35 592.94 L3.2 590.23 L2.05 592.94 L4.35 592.94 Z" class="st5"/>
				</g>
				<g id="shape13-20" v:mID="13" v:groupContext="shape" transform="translate(12.357,-0.041053)">
					<title>Sheet.13</title>
					<path d="M1.23 589.16 L3.24 593.22 L5.25 589.16 L6.49 589.16 L6.49 595.28 L5.54 595.28 L5.54 590.72 L3.61 594.66
								 L2.96 594.66 L0.99 590.72 L0.99 595.28 L0 595.28 L0 589.16 L1.23 589.16 Z" class="st5"/>
				</g>
				<g id="shape14-22" v:mID="14" v:groupContext="shape" transform="translate(20.4444,-0.041053)">
					<title>Sheet.14</title>
					<path d="M1.03 589.16 L1.03 594.33 L3.65 594.33 L3.65 595.28 L0 595.28 L0 589.16 L1.03 589.16 Z" class="st5"/>
				</g>
			</g>
		</g>
	</g>
</svg>
