<svg viewBox="0 0 18 18" data-islogo="true" class="" role="presentation" focusable="false" xmlns:svg="http://www.w3.org/2000/svg" xmlns:xlink="http://www.w3.org/1999/xlink" id="FxSymbol0-104" data-type="145"><g><path d="M1.93 2.11L3.14.7a.59.59 0 0 1 .45-.2H15.2a.81.81 0 0 1 .89.83v14.5a.57.57 0 0 1-.2.43l-1.3 1.19H2.72l-.81-.33z" fill="#005ba1"></path><path d="M2.91 2.1l.74-.84A.5.5 0 0 1 4 1.08h10.89a.52.52 0 0 1 .52.52v13.78a.52.52 0 0 1-.17.39l-1.16 1.05z" class="msportalfx-svg-c01" fill="#ffffff"></path><path d="M14 2.09H2a.06.06 0 0 0-.06.06v15a.39.39 0 0 0 .39.38H14a.38.38 0 0 0 .38-.38V2.48a.39.39 0 0 0-.38-.39z" fill="url(#b93faeec-7689-4420-8aa7-e05fa2c2bc23)"></path><rect x="4.72" y="6.2" width="6.58" height="2.38" rx=".28" class="msportalfx-svg-c01" fill="#ffffff"></rect></g><defs>
<linearGradient id="a" x1="9" y1="16.39" x2="9" y2="-1.94" gradientUnits="userSpaceOnUse"><stop offset="0" stop-color="#0078d4"></stop><stop offset=".16" stop-color="#1380da"></stop><stop offset=".53" stop-color="#3c91e5"></stop><stop offset=".82" stop-color="#559cec"></stop><stop offset="1" stop-color="#5ea0ef"></stop></linearGradient>
<linearGradient id="b" x1="9.88" y1="7.11" x2="9.99" y2="17.27" gradientUnits="userSpaceOnUse"><stop offset="0" stop-color="#32d4f5"></stop><stop offset=".32" stop-color="#31d1f3"></stop><stop offset=".53" stop-color="#2ec9eb"></stop><stop offset=".7" stop-color="#29bade"></stop><stop offset=".86" stop-color="#22a5cb"></stop><stop offset="1" stop-color="#198ab3"></stop><stop offset="1" stop-color="#198ab3"></stop></linearGradient>
<radialGradient id="c" cx="9.43" cy="7.03" r="7.27" gradientUnits="userSpaceOnUse"><stop offset="0" stop-color="#f2f2f2"></stop><stop offset=".58" stop-color="#eee"></stop><stop offset="1" stop-color="#e6e6e6"></stop></radialGradient>
<linearGradient id="b93faeec-7689-4420-8aa7-e05fa2c2bc23" x1="8.15" y1="17.5" x2="8.15" y2="2.09" gradientUnits="userSpaceOnUse"><stop offset="0" stop-color="#1988d9"></stop><stop offset=".9" stop-color="#54aef0"></stop></linearGradient>
</defs>
</svg>