<svg viewBox="0 0 64 64" class="fxs-portal-svg" role="presentation" focusable="false" xmlns:svg="http://www.w3.org/2000/svg" xmlns:xlink="http://www.w3.org/1999/xlink" id="FxSymbol0-06d" data-type="1"><g><title></title><g class="msportalfx-svg-c15" fill="#59b4d9"><path d="M40.81 26.821c-.445-.681-1.01-1.249-1.696-1.705s-1.464-.754-2.335-.897a6.228 6.228 0 0 0-2.547.098c-.828.208-1.58.56-2.255 1.058a6.749 6.749 0 0 0-1.718 1.871c-.47.75-.782 1.601-.938 2.553-.161.982-.151 1.925.029 2.828s.504 1.712.972 2.428a6.37 6.37 0 0 0 1.78 1.804 6.06 6.06 0 0 0 2.454.955c.88.144 1.722.097 2.526-.141a5.98 5.98 0 0 0 2.165-1.159 6.917 6.917 0 0 0 1.618-2.005c.44-.801.74-1.693.901-2.676a7.488 7.488 0 0 0-.028-2.703 6.578 6.578 0 0 0-.928-2.309z"></path><path d="M60.399 33.594a10.34 10.34 0 0 0-4.019-3.315c.126-.413.246-.838.361-1.275.115-.437.173-.935.173-1.494 0-1.433-.251-2.781-.754-4.044a11.25 11.25 0 0 0-2.072-3.37 9.958 9.958 0 0 0-3.061-2.331 8.324 8.324 0 0 0-3.721-.856c-2.533 0-4.438.741-5.714 2.222-.649-2.623-1.842-4.633-3.579-6.029s-3.736-2.095-5.997-2.095c-1.444 0-2.784.297-4.019.892a10.102 10.102 0 0 0-3.25 2.495c-.931 1.069-1.659 2.331-2.182 3.789-.523 1.457-.785 3.024-.785 4.699 0 .17.016.37.047.601.031.231.058.431.078.601-.398-.17-.89-.304-1.476-.401a11.136 11.136 0 0 0-1.821-.146c-.649 0-1.287.128-1.915.383a7.313 7.313 0 0 0-1.758 1.02 11.4 11.4 0 0 0-1.523 1.447c-.47.536-.863.613-1.177 1.613H10.32a6.564 6.564 0 0 0-3.155.793 9.222 9.222 0 0 0-2.637 2.127 10.649 10.649 0 0 0-1.837 3.076A9.813 9.813 0 0 0 2 37.638c0 1.481.23 2.859.691 4.134.46 1.275 1.073 2.368 1.837 3.278.764.911 1.643 1.636 2.637 2.158A6.69 6.69 0 0 0 10.32 48h44.647c.837 0 1.669-.264 2.496-.774s1.58-1.182 2.261-2.008c.68-.826 1.23-1.775 1.648-2.844A8.812 8.812 0 0 0 62 39.132c0-2.234-.534-4.081-1.601-5.538zm-15.745-1.286a10.436 10.436 0 0 1-.774 2.595 11.176 11.176 0 0 1-1.346 2.26 10.8 10.8 0 0 1-1.789 1.829c-.662.531-1.361.966-2.096 1.303-.735.337-1.495.569-2.281.695s-1.563.126-2.332.001c-.611-.1-1.143-.221-1.595-.362a7.187 7.187 0 0 1-1.21-.494 5.86 5.86 0 0 1-.941-.614 9.162 9.162 0 0 1-.788-.721l-8.208 6.503c-.456.289-.92.395-1.393.318a1.998 1.998 0 0 1-.751-.294 2.564 2.564 0 0 1-.666-.639 2.234 2.234 0 0 1-.43-.944 2.91 2.91 0 0 1 .318-1.991c.169-.305.379-.557.63-.755l7.906-6.225c-.35-.941-.547-1.86-.59-2.756-.044-.896.008-1.79.153-2.681.147-.901.41-1.75.787-2.546.377-.796.836-1.522 1.376-2.177a9.835 9.835 0 0 1 1.829-1.721c.68-.492 1.394-.893 2.143-1.201.749-.309 1.522-.515 2.319-.619s1.584-.092 2.362.035a7.707 7.707 0 0 1 2.281.747 8.67 8.67 0 0 1 1.957 1.373c.59.549 1.111 1.17 1.564 1.862a10.453 10.453 0 0 1 1.645 4.676 9.645 9.645 0 0 1-.08 2.543z"></path></g></g><defs>
<linearGradient id="a" x1="-1267.23" y1="3.07" x2="-1267.52" y2="14.64" gradientTransform="matrix(-1 0 0 1 -1256.13 0)" gradientUnits="userSpaceOnUse"><stop offset="0" stop-color="#32d4f5"></stop><stop offset=".23" stop-color="#31d0f1"></stop><stop offset=".46" stop-color="#2cc3e6"></stop><stop offset=".7" stop-color="#25afd4"></stop><stop offset=".94" stop-color="#1c92ba"></stop><stop offset="1" stop-color="#198ab3"></stop></linearGradient>
<linearGradient id="b" x1="6.05" y1="11.51" x2="6.05" y2="3" gradientUnits="userSpaceOnUse"><stop offset="0" stop-color="#0078d4"></stop><stop offset=".82" stop-color="#5ea0ef"></stop></linearGradient>
<linearGradient id="c" x1="10.51" y1="6.82" x2="7.93" y2="10.5" gradientUnits="userSpaceOnUse"><stop offset="0" stop-color="#005ba1"></stop><stop offset=".14" stop-color="#035da3" stop-opacity=".97"></stop><stop offset=".3" stop-color="#0b63aa" stop-opacity=".88"></stop><stop offset=".47" stop-color="#196eb6" stop-opacity=".73"></stop><stop offset=".65" stop-color="#2d7cc6" stop-opacity=".52"></stop><stop offset=".84" stop-color="#468edb" stop-opacity=".26"></stop><stop offset="1" stop-color="#5ea0ef" stop-opacity="0"></stop></linearGradient>
</defs>
</svg>