<svg viewBox="0 0 50 50" class="fxs-portal-svg" role="presentation" focusable="false" xmlns:svg="http://www.w3.org/2000/svg" xmlns:xlink="http://www.w3.org/1999/xlink" id="FxSymbol0-159" data-type="1"><g><title></title><path d="M14.6 14.8l25.6 25.6c4 4 3.8 9.5 3.8 9.5s-5.9-.2-9.5-3.8L8.9 20.5l5.7-5.7z"></path><path d="M45.8.2c-.4 1.4-1.5 2.6-3 3.1-.4.1-.9.2-1.3.2L39 2.8l-2.2-.6-.5-.1c-.7-.2-1.5.2-1.7 1-.2.7.2 1.5 1 1.7l4.2 1.1.9.2c.7.1 1.5.1 2.2-.2.6-.2 1.1-.5 1.6-.9 1.3-1.1 1.9-3 1.3-4.8z"></path><path d="M38.2 11.9c-.7.2-1.5-.2-1.7-1l-1.9-7.1c-.2-.7.2-1.5 1-1.7.7-.2 1.5.2 1.7 1l1.9 7.1c.2.7-.3 1.5-1 1.7z" class="msportalfx-svg-c02" fill="#e5e5e5"></path><path d="M29.3 8.3c-.2.7.2 1.5 1 1.7l7.1 1.9c.7.2 1.5-.2 1.7-1 .2-.7-.2-1.5-1-1.7L31 7.3c-.7-.2-1.5.3-1.7 1z"></path><path d="M32.9 17.1c-.7.2-1.5-.2-1.7-1L29.3 9c-.2-.7.2-1.5 1-1.7.7-.2 1.5.2 1.7 1l1.9 7.1c.2.8-.2 1.5-1 1.7z" class="msportalfx-svg-c02" fill="#e5e5e5"></path><path d="M24.1 13.5c-.2.7.2 1.5 1 1.7l7.1 1.9c.7.2 1.5-.2 1.7-1 .2-.7-.2-1.5-1-1.7l-7.1-1.9c-.7-.1-1.5.3-1.7 1z"></path><path d="M27.7 22.4c-.7.2-1.5-.2-1.7-1l-1.9-7.1c-.2-.7.2-1.5 1-1.7.7-.2 1.5.2 1.7 1l1.9 7.1c.2.7-.3 1.5-1 1.7z" class="msportalfx-svg-c02" fill="#e5e5e5"></path><path d="M18.8 18.8c-.2.7.2 1.5 1 1.7l7.1 1.9c.7.2 1.5-.2 1.7-1 .2-.7-.2-1.5-1-1.7l-7.1-1.9c-.7-.2-1.5.2-1.7 1z"></path><path d="M22.5 27.6c-.7.2-1.5-.2-1.7-1l-1.9-7.1c-.2-.7.2-1.5 1-1.7.7-.2 1.5.2 1.7 1l1.9 7.1c.2.8-.3 1.5-1 1.7z" class="msportalfx-svg-c02" fill="#e5e5e5"></path><path d="M13.6 24c-.2.7.2 1.5 1 1.7l7.1 1.9c.7.2 1.5-.2 1.7-1 .2-.7-.2-1.5-1-1.7L15.3 23c-.7-.2-1.5.3-1.7 1z"></path><path d="M19.9 42.6c0 4.1-3.3 7.4-7.4 7.4-4.1 0-7.4-3.3-7.4-7.4V7.4C5.1 3.3 8.4 0 12.5 0c4.1 0 7.4 3.3 7.4 7.4v35.2z" class="msportalfx-svg-c19" fill="#0072c6"></path><path opacity=".1" d="M5.1 32.6V7.4C5.1 3.3 8.4 0 12.5 0c4.1 0 7.4 3.3 7.4 7.4v12.2l-14.8 13z" class="msportalfx-svg-c01" fill="#ffffff"></path><path d="M17.5 27.7c0-.6-.5-1.2-1.2-1.2h-.1c.1-.3.1-.5.1-.8 0-1.7-1.4-3.1-3.1-3.1-1.4 0-2.5.9-2.9 2.1-.2-.1-.4-.1-.7-.1-1.2 0-2.1 1-2.1 2.1 0 1.2.9 2.1 2.1 2.1h6.8c.6 0 1.1-.5 1.1-1.1" class="msportalfx-svg-c01" fill="#ffffff"></path></g><defs>
<linearGradient id="a" x1="9" y1="16.39" x2="9" y2="-1.94" gradientUnits="userSpaceOnUse"><stop offset="0" stop-color="#0078d4"></stop><stop offset=".16" stop-color="#1380da"></stop><stop offset=".53" stop-color="#3c91e5"></stop><stop offset=".82" stop-color="#559cec"></stop><stop offset="1" stop-color="#5ea0ef"></stop></linearGradient>
<linearGradient id="b" x1="9.88" y1="7.11" x2="9.99" y2="17.27" gradientUnits="userSpaceOnUse"><stop offset="0" stop-color="#32d4f5"></stop><stop offset=".32" stop-color="#31d1f3"></stop><stop offset=".53" stop-color="#2ec9eb"></stop><stop offset=".7" stop-color="#29bade"></stop><stop offset=".86" stop-color="#22a5cb"></stop><stop offset="1" stop-color="#198ab3"></stop><stop offset="1" stop-color="#198ab3"></stop></linearGradient>
<radialGradient id="c" cx="9.43" cy="7.03" r="7.27" gradientUnits="userSpaceOnUse"><stop offset="0" stop-color="#f2f2f2"></stop><stop offset=".58" stop-color="#eee"></stop><stop offset="1" stop-color="#e6e6e6"></stop></radialGradient>
</defs>
</svg>