<svg viewBox="0 0 50 50" class="" role="presentation" focusable="false" xmlns:svg="http://www.w3.org/2000/svg" xmlns:xlink="http://www.w3.org/1999/xlink" id="FxSymbol0-01d" data-type="1"><g><title></title><path d="M50 25.392c0-3.292-2.665-5.799-5.799-5.799h-.784c.313-1.254.627-2.665.627-4.075A15.453 15.453 0 0 0 28.527 0c-6.74 0-12.539 4.389-14.577 10.658-1.097-.313-2.194-.627-3.448-.627C4.702 10.031 0 14.734 0 20.69s4.702 10.658 10.502 10.658h34.169A5.96 5.96 0 0 0 50 25.392" class="msportalfx-svg-c15" fill="#59b4d9"></path><path opacity=".2" d="M15.987 31.348c-1.411-1.411-2.351-3.135-2.821-5.172-1.254-5.799 2.194-11.442 7.994-12.696 1.254-.313 2.351-.313 3.448-.157.47-5.329 3.762-10.188 8.621-12.539A14.755 14.755 0 0 0 28.527 0c-6.74 0-12.539 4.389-14.577 10.658-1.097-.313-2.194-.627-3.448-.627C4.702 10.031 0 14.734 0 20.69s4.702 10.658 10.502 10.658h5.485z" class="msportalfx-svg-c01" fill="#ffffff"></path><path d="M36.526 31.972c-1.58 1.436-3.663 2.298-5.961 2.298s-4.381-.862-5.961-2.298L23.741 50l6.823-6.895L37.388 50l-.862-18.028z" class="msportalfx-svg-c08" fill="#ba141a"></path><circle cx="30.564" cy="25.723" r="11.636" class="msportalfx-svg-c09" fill="#dd5900"></circle><circle cx="30.564" cy="25.723" r="8.763" class="msportalfx-svg-c10" fill="#ff8c00"></circle><path opacity=".15" d="M22.305 33.983c-4.525-4.525-4.525-11.923 0-16.448s11.923-4.525 16.448 0L22.305 33.983z" class="msportalfx-svg-c01" fill="#ffffff"></path></g><defs>
<linearGradient id="a" x1="9" y1="16.39" x2="9" y2="-1.94" gradientUnits="userSpaceOnUse"><stop offset="0" stop-color="#0078d4"></stop><stop offset=".16" stop-color="#1380da"></stop><stop offset=".53" stop-color="#3c91e5"></stop><stop offset=".82" stop-color="#559cec"></stop><stop offset="1" stop-color="#5ea0ef"></stop></linearGradient>
<linearGradient id="b" x1="9.88" y1="7.11" x2="9.99" y2="17.27" gradientUnits="userSpaceOnUse"><stop offset="0" stop-color="#32d4f5"></stop><stop offset=".32" stop-color="#31d1f3"></stop><stop offset=".53" stop-color="#2ec9eb"></stop><stop offset=".7" stop-color="#29bade"></stop><stop offset=".86" stop-color="#22a5cb"></stop><stop offset="1" stop-color="#198ab3"></stop><stop offset="1" stop-color="#198ab3"></stop></linearGradient>
<radialGradient id="c" cx="9.43" cy="7.03" r="7.27" gradientUnits="userSpaceOnUse"><stop offset="0" stop-color="#f2f2f2"></stop><stop offset=".58" stop-color="#eee"></stop><stop offset="1" stop-color="#e6e6e6"></stop></radialGradient>
</defs>
</svg>