<svg viewBox="0 0 50 50" class="" role="presentation" focusable="false" xmlns="http://www.w3.org/2000/svg" xmlns:xlink="http://www.w3.org/1999/xlink" id="FxSymbol0-260" data-type="1"><g><title></title><path d="M45 6.8 40.2 2l-2-2H3v50h44V8.8z" class="msportalfx-svg-c15" fill="#59b4d9"></path><path opacity=".8" d="M38 2H5v46h40V9h-7z" class="msportalfx-svg-c01" fill="#ffffff"></path><path d="M28.8 42.88c0 .6-.5 1.1-1.1 1.1H12.6c-.6 0-1.1-.5-1.1-1.1s.5-1.1 1.1-1.1h15.1c.6 0 1.1.5 1.1 1.1" class="msportalfx-svg-c06" fill="#1e1e1e"></path><path d="M38.9 24.2c0 .6-.5 1.1-1.1 1.1H12.6c-.6 0-1.1-.5-1.1-1.1s.5-1.1 1.1-1.1h25.1c.7 0 1.2.5 1.2 1.1m0-7.5c0 .6-.5 1.1-1.1 1.1H12.6c-.6 0-1.1-.5-1.1-1.1s.5-1.1 1.1-1.1h25.1c.7 0 1.2.5 1.2 1.1" class="msportalfx-svg-c15" fill="#59b4d9"></path><path d="m27.695 42.108 1.021 1.022-1.691.668z" class="msportalfx-svg-c06" fill="#1e1e1e"></path><path d="M38.9 31.977c0 .6-.5 1.1-1.1 1.1H12.6c-.6 0-1.1-.5-1.1-1.1 0-.6.5-1.1 1.1-1.1h25.1c.7 0 1.2.5 1.2 1.1" class="msportalfx-svg-c15" fill="#59b4d9"></path><path d="m49.511 22.099-.786-.786a1.667 1.667 0 0 0-2.359 0L29.873 37.805l-.022.022.007.007-2.164 4.275 1.021 1.021 4.275-2.164.007.008L49.511 24.46a1.67 1.67 0 0 0 0-2.361z" class="msportalfx-svg-c19" fill="#0072c6"></path></g><defs>
</defs>
</svg>