<svg viewBox="0 0 18 18" data-islogo="true" class="" role="presentation" focusable="false" xmlns:svg="http://www.w3.org/2000/svg" xmlns:xlink="http://www.w3.org/1999/xlink" id="FxSymbol0-109" data-type="42"><g><path d="M17.5 2.5v10.83a.58.58 0 0 1-.58.58H12.4a.15.15 0 0 0-.15.14v1.75a.28.28 0 0 1-.45.23l-2.72-2.09h-8a.58.58 0 0 1-.58-.58V2.5a.58.58 0 0 1 .58-.59h15.84a.58.58 0 0 1 .58.59z" fill="url(#a51c5162-ca9f-41ce-8a38-7edecf47093d)"></path><path d="M9.54 9.63H8.38A.36.36 0 0 1 8 9.29l-.2-5.86a.35.35 0 0 1 .35-.36h1.7a.35.35 0 0 1 .35.37L9.89 9.3a.35.35 0 0 1-.35.33z" class="msportalfx-svg-c01" fill="#ffffff"></path><rect x="8.13" y="10.62" width="1.69" height="1.69" rx=".61" class="msportalfx-svg-c01" fill="#ffffff"></rect></g><defs>
<linearGradient id="a51c5162-ca9f-41ce-8a38-7edecf47093d" x1="9" y1="17.2" x2="9" y2="-3.28" gradientUnits="userSpaceOnUse"><stop offset="0" stop-color="#5e9624"></stop><stop offset=".18" stop-color="#629c25"></stop><stop offset=".44" stop-color="#6dae2a"></stop><stop offset=".73" stop-color="#7fcb30"></stop><stop offset=".82" stop-color="#86d633"></stop></linearGradient>
</defs>
</svg>