<svg viewBox="0 0 18 18" data-islogo="true" class="" role="presentation" focusable="false" xmlns:svg="http://www.w3.org/2000/svg" xmlns:xlink="http://www.w3.org/1999/xlink" id="FxSymbol0-023" data-type="28"><g><path d="M6.48 12.29h4.8v4.8h-4.8zm-5.6-6.4h4.8v-4.8H1.55a.67.67 0 0 0-.67.67zm.67 11.2h4.13v-4.8H.88v4.13a.67.67 0 0 0 .67.67zm-.67-5.6h4.8v-4.8H.88zm11.2 5.6h4.14a.67.67 0 0 0 .66-.67v-4.13h-4.8zm-5.6-5.6h4.8v-4.8h-4.8zm5.6 0h4.8v-4.8h-4.8zm0-10.4v4.8h4.8V1.76a.67.67 0 0 0-.66-.67zm-5.6 4.8h4.8v-4.8h-4.8z" fill="url(#4e699898-585a-406b-a6ed-da97f9dc93dc)"></path></g><defs>
<linearGradient id="4e699898-585a-406b-a6ed-da97f9dc93dc" x1="8.88" y1="17.09" x2="8.88" y2="1.09" gradientUnits="userSpaceOnUse"><stop offset="0" stop-color="#5e9624"></stop><stop offset=".01" stop-color="#5e9724"></stop><stop offset=".35" stop-color="#6cab29"></stop><stop offset=".68" stop-color="#73b82c"></stop><stop offset="1" stop-color="#76bc2d"></stop></linearGradient>
<linearGradient id="a" x1="9" y1="16.39" x2="9" y2="-1.94" gradientUnits="userSpaceOnUse"><stop offset="0" stop-color="#0078d4"></stop><stop offset=".16" stop-color="#1380da"></stop><stop offset=".53" stop-color="#3c91e5"></stop><stop offset=".82" stop-color="#559cec"></stop><stop offset="1" stop-color="#5ea0ef"></stop></linearGradient>
<linearGradient id="b" x1="9.88" y1="7.11" x2="9.99" y2="17.27" gradientUnits="userSpaceOnUse"><stop offset="0" stop-color="#32d4f5"></stop><stop offset=".32" stop-color="#31d1f3"></stop><stop offset=".53" stop-color="#2ec9eb"></stop><stop offset=".7" stop-color="#29bade"></stop><stop offset=".86" stop-color="#22a5cb"></stop><stop offset="1" stop-color="#198ab3"></stop><stop offset="1" stop-color="#198ab3"></stop></linearGradient>
<radialGradient id="c" cx="9.43" cy="7.03" r="7.27" gradientUnits="userSpaceOnUse"><stop offset="0" stop-color="#f2f2f2"></stop><stop offset=".58" stop-color="#eee"></stop><stop offset="1" stop-color="#e6e6e6"></stop></radialGradient>
</defs>
</svg>