<svg viewBox="0 0 18 18" class="" role="presentation" focusable="false" xmlns="http://www.w3.org/2000/svg" xmlns:xlink="http://www.w3.org/1999/xlink" id="FxSymbol0-085" data-type="1"><g><title>Icon-analytics-148</title><rect x=".5" y="2.52" width="6.92" height="5.31" rx=".28" fill="url(#6696633276351349)"></rect><rect x="10.58" y="5.58" width="6.92" height="5.31" rx=".28" fill="url(#07102327777352002)"></rect><rect x="1.82" y="10.18" width="6.92" height="5.31" rx=".42" fill="url(#82200442307294)"></rect><path d="M13.15 8.92l.23-.64-8.56-3.15-.23.63zm.53-.09l-.32-.6-8.07 4.25.31.6zM5 13.37l.67-.12-1.36-7.71-.67.12z" fill="#773adc"></path><circle cx="14.04" cy="8.23" r="1.08" transform="rotate(-32.41 14.042 8.242)" class="msportalfx-svg-c01" fill="#ffffff"></circle><circle cx="3.96" cy="5.17" r="1.08" transform="rotate(-32.41 3.966 5.164)" class="msportalfx-svg-c01" fill="#ffffff"></circle><circle cx="5.29" cy="12.83" r="1.08" transform="rotate(-32.41 5.285 12.824)" class="msportalfx-svg-c01" fill="#ffffff"></circle></g><defs>
<linearGradient id="6696633276351349" x1="3.96" y1="2.52" x2="3.96" y2="7.82" gradientUnits="userSpaceOnUse"><stop offset="0" stop-color="#32d4f5"></stop><stop offset="1" stop-color="#198ab3"></stop></linearGradient>
<linearGradient id="07102327777352002" x1="14.04" y1="5.58" x2="14.04" y2="10.89" gradientUnits="userSpaceOnUse"><stop offset="0" stop-color="#32d4f5"></stop><stop offset="1" stop-color="#198ab3"></stop></linearGradient>
<linearGradient id="82200442307294" x1="5.29" y1="10.18" x2="5.29" y2="15.48" gradientUnits="userSpaceOnUse"><stop offset="0" stop-color="#32d4f5"></stop><stop offset="1" stop-color="#198ab3"></stop></linearGradient>
</defs>
</svg>