<svg viewBox="0 0 18 18" data-islogo="true" class="" role="presentation" focusable="false" xmlns:svg="http://www.w3.org/2000/svg" xmlns:xlink="http://www.w3.org/1999/xlink" id="FxSymbol0-037" data-type="301"><g><path d="M14.18 5.89a4.85 4.85 0 0 0-4.95-4.71 5 5 0 0 0-4.75 3.29A4.61 4.61 0 0 0 .5 9a4.67 4.67 0 0 0 4.79 4.5 3 3 0 0 0 .42 0h1.2a1.47 1.47 0 0 1-.11-.56 1.51 1.51 0 0 1 .2-.73H5.29A3.41 3.41 0 0 1 1.77 9a3.33 3.33 0 0 1 2.91-3.27l.76-.12.25-.73a3.73 3.73 0 0 1 3.54-2.43 3.6 3.6 0 0 1 3.68 3.45V7l1.09.15a2.59 2.59 0 0 1 2.26 2.49 2.63 2.63 0 0 1-2.62 2.54h-1.23A3.92 3.92 0 0 0 8.54 9a.64.64 0 1 0 0 1.27 2.65 2.65 0 0 1 0 5.29.64.64 0 1 0 0 1.27 3.92 3.92 0 0 0 3.87-3.34h1.05a.64.64 0 0 0 .2 0 3.91 3.91 0 0 0 3.84-3.85 3.86 3.86 0 0 0-3.32-3.75z" fill="url(#80ad5814-27aa-4fca-985e-61e63ee62793)"></path><rect x="6.8" y="11.35" width="3.12" height="3.12" rx="1.54" fill="url(#18bda8d9-ed36-4286-bd77-98cb70547890)"></rect></g><defs>
<linearGradient id="a" x1="9" y1="16.39" x2="9" y2="-1.94" gradientUnits="userSpaceOnUse"><stop offset="0" stop-color="#0078d4"></stop><stop offset=".16" stop-color="#1380da"></stop><stop offset=".53" stop-color="#3c91e5"></stop><stop offset=".82" stop-color="#559cec"></stop><stop offset="1" stop-color="#5ea0ef"></stop></linearGradient>
<linearGradient id="80ad5814-27aa-4fca-985e-61e63ee62793" x1="9" y1="16.82" x2="9" y2="1.18" gradientUnits="userSpaceOnUse"><stop offset="0" stop-color="#198ab3"></stop><stop offset=".09" stop-color="#1f9dc4"></stop><stop offset=".24" stop-color="#28b5d9"></stop><stop offset=".4" stop-color="#2dc6e9"></stop><stop offset=".57" stop-color="#31d1f2"></stop><stop offset=".78" stop-color="#32d4f5"></stop></linearGradient>
<linearGradient id="18bda8d9-ed36-4286-bd77-98cb70547890" x1="8.36" y1="11.35" x2="8.36" y2="14.46" gradientUnits="userSpaceOnUse"><stop offset="0" stop-color="#c69aeb"></stop><stop offset="1" stop-color="#6f4bb2"></stop></linearGradient>
<linearGradient id="b" x1="9.88" y1="7.11" x2="9.99" y2="17.27" gradientUnits="userSpaceOnUse"><stop offset="0" stop-color="#32d4f5"></stop><stop offset=".32" stop-color="#31d1f3"></stop><stop offset=".53" stop-color="#2ec9eb"></stop><stop offset=".7" stop-color="#29bade"></stop><stop offset=".86" stop-color="#22a5cb"></stop><stop offset="1" stop-color="#198ab3"></stop><stop offset="1" stop-color="#198ab3"></stop></linearGradient>
<radialGradient id="c" cx="9.43" cy="7.03" r="7.27" gradientUnits="userSpaceOnUse"><stop offset="0" stop-color="#f2f2f2"></stop><stop offset=".58" stop-color="#eee"></stop><stop offset="1" stop-color="#e6e6e6"></stop></radialGradient>
</defs>
</svg>