<svg viewBox="0 0 50 50" class="" role="presentation" focusable="false" xmlns="http://www.w3.org/2000/svg" xmlns:xlink="http://www.w3.org/1999/xlink" id="FxSymbol0-1eb" data-type="1"><g><title></title><circle cx="23.5" cy="24.5" r="5.4" class="msportalfx-svg-c14" fill="#57a300"></circle><path d="M1 22h22v5H1z" class="msportalfx-svg-c14" fill="#57a300"></path><path d="M37 22h12v5H37z" class="msportalfx-svg-c16" fill="#3999c6"></path><path d="M23.5 10.1c-4.268 0-8.087 1.872-10.723 4.823a2.485 2.485 0 0 0-.827 1.846 2.5 2.5 0 0 0 2.5 2.5 2.48 2.48 0 0 0 1.668-.65l.01.01c.019-.024.042-.045.062-.07.043-.041.079-.088.118-.133 1.732-2.048 4.306-3.361 7.191-3.361 5.202 0 9.435 4.232 9.435 9.435s-4.232 9.435-9.435 9.435c-2.831 0-5.359-1.266-7.09-3.246a2.48 2.48 0 0 0-.251-.281l-.031-.035-.005.005a2.484 2.484 0 0 0-1.673-.654 2.5 2.5 0 0 0-2.5 2.5c0 .646.252 1.229.654 1.673l-.001.001.01.011c.04.043.078.086.121.126C15.373 37.01 19.21 38.9 23.5 38.9c7.953 0 14.4-6.447 14.4-14.4s-6.447-14.4-14.4-14.4z" class="msportalfx-svg-c16" fill="#3999c6"></path></g><defs>
</defs>
</svg>