<svg viewBox="0 0 18 18" class="" role="presentation" focusable="false" xmlns="http://www.w3.org/2000/svg" xmlns:xlink="http://www.w3.org/1999/xlink" id="FxSymbol0-1b0" data-type="1"><g><path d="M7.922 5.992h-1.9a1.126 1.126 0 0 1-1.128-1.125V0h1.05v4.867a.075.075 0 0 0 .075.075h1.9ZM12.079 0v4.867a.075.075 0 0 1-.079.075h-.86v-.02a2.81 2.81 0 0 0-2.77-2.279.459.459 0 0 0-.114.911.543.543 0 0 0 .114 0 1.9 1.9 0 0 1 0 3.791.459.459 0 0 0-.114.91.435.435 0 0 0 .114 0 2.806 2.806 0 0 0 2.748-2.263H12a1.126 1.126 0 0 0 1.125-1.125V0Z" fill="#32bedd"></path><rect x="6.823" y="4.328" width="2.236" height="2.236" rx="1.104" fill="url(#59616712-f700-4139-92c6-bd98d17f043f)"></rect><rect x="5.141" y="10.444" width="7.803" height="1.047" rx=".47" fill="#32bedd"></rect><rect x="5.141" y="12.319" width="7.803" height="1.047" rx=".47" fill="#32bedd"></rect><rect x="5.141" y="14.195" width="4.918" height="1.047" rx=".47" fill="#32bedd"></rect><path d="M15.351 1v16H2.649V1h12.7m.4-1h-13.5a.6.6 0 0 0-.6.6v16.8a.6.6 0 0 0 .6.6h13.5a.6.6 0 0 0 .6-.6V.6a.6.6 0 0 0-.6-.6Z" fill="url(#59616712-f700-4139-92c6-bd98d17f0440)"></path></g><defs>
<linearGradient id="59616712-f700-4139-92c6-bd98d17f043f" x1="7.941" y1="4.214" x2="7.941" y2="6.45" gradientUnits="userSpaceOnUse"><stop offset="0" stop-color="#c69aeb"></stop><stop offset="1" stop-color="#6f4bb2"></stop></linearGradient>
<linearGradient id="59616712-f700-4139-92c6-bd98d17f0440" x1="9" x2="9" y2="18" gradientUnits="userSpaceOnUse"><stop offset="0" stop-color="#50e6ff"></stop><stop offset="1" stop-color="#32bedd"></stop></linearGradient>
</defs>
</svg>