<svg viewBox="0 0 18 18" class="" role="presentation" focusable="false" xmlns="http://www.w3.org/2000/svg" xmlns:xlink="http://www.w3.org/1999/xlink" id="FxSymbol0-070" data-type="1"><g><path d="M18 9.1a4.092 4.092 0 0 1-4.061 3.944c-.007 0-.094.005-.246.007h-.844c-.876.007-2.164.014-3.441.02h-.845l-3.412.014h-.484c-.049 0-.1-.005-.149-.009-.07-.005-.14-.013-.211-.021A4.9 4.9 0 0 1 0 8.39a4.826 4.826 0 0 1 4.244-4.649 5.226 5.226 0 0 1 5-3.407 5.1 5.1 0 0 1 5.25 4.875A4.043 4.043 0 0 1 18 9.1Z" fill="url(#59616712-f700-4139-92c6-bd98d17f012c)"></path><path d="M13.47 10.391V16.6h-.424a.423.423 0 0 1-.423-.424v-5.783a.424.424 0 1 1 .847 0Zm-8.093 5.781v-5.779a.424.424 0 1 0-.847 0v6.2h.426a.422.422 0 0 0 .421-.4.082.082 0 0 0 0-.022ZM9 6.452a.424.424 0 0 0-.423.425v9.3A.424.424 0 0 0 9 16.6h.425V6.876A.424.424 0 0 0 9 6.452Z" fill="#50e6ff"></path><path d="M6.367 16.339a1.413 1.413 0 1 1-1.413-1.413 1.413 1.413 0 0 1 1.413 1.413Zm8.092 0a1.413 1.413 0 1 0-1.413 1.413 1.413 1.413 0 0 0 1.413-1.413Zm-4.046 0A1.413 1.413 0 1 0 9 17.752a1.413 1.413 0 0 0 1.413-1.413Z" fill="url(#59616712-f700-4139-92c6-bd98d17f012d)"></path></g><defs>
<linearGradient id="59616712-f700-4139-92c6-bd98d17f012c" x1="6.702" y1="12.768" x2="11.294" y2="4.527" gradientUnits="userSpaceOnUse"><stop offset="0" stop-color="#0078d4"></stop><stop offset=".156" stop-color="#1380da"></stop><stop offset=".528" stop-color="#3c91e5"></stop><stop offset=".822" stop-color="#559cec"></stop><stop offset="1" stop-color="#5ea0ef"></stop></linearGradient>
<linearGradient id="59616712-f700-4139-92c6-bd98d17f012d" x1="9" y1="15.493" x2="9" y2="18.751" gradientUnits="userSpaceOnUse"><stop offset="0" stop-color="#a67af4"></stop><stop offset=".999" stop-color="#773adc"></stop></linearGradient>
</defs>
</svg>