<svg viewBox="0 0 50 50" class="fxs-portal-svg" role="presentation" focusable="false" xmlns:svg="http://www.w3.org/2000/svg" xmlns:xlink="http://www.w3.org/1999/xlink" id="FxSymbol0-0c2" data-type="1"><g><title></title><path d="M0 2h11v11H0zm13 0h12v11H13zm14 0h11v11H27zM0 15h11v11H0zm13 0h12v11H13zm14 0h11v11H27zM0 28h11v12H0zm13 0h12v12H13zm14 0h11v12H27z" class="msportalfx-svg-c19" fill="#0072c6"></path><path d="M30.808 45.742a.311.311 0 0 1-.161-.042l-10.462-6a.309.309 0 0 1-.161-.273V27.4a.319.319 0 0 1 .161-.276.332.332 0 0 1 .319 0l10.46 6a.32.32 0 0 1 .156.275v12.028a.313.313 0 0 1-.156.273.319.319 0 0 1-.157.042m2.954.058a.311.311 0 0 0 .161-.042l10.462-6a.309.309 0 0 0 .161-.273V27.454a.319.319 0 0 0-.161-.276.332.332 0 0 0-.319 0l-10.46 6a.32.32 0 0 0-.156.275v12.029a.313.313 0 0 0 .156.273.319.319 0 0 0 .157.042" class="msportalfx-svg-c01" fill="#ffffff"></path><path d="M32.316 49.322a.306.306 0 0 1-.157-.045l-10.494-6.014a.315.315 0 0 1-.159-.276.308.308 0 0 1 .159-.27l10.427-5.976a.325.325 0 0 1 .315 0l10.5 6.018a.317.317 0 0 1 .158.27.321.321 0 0 1-.158.275l-10.432 5.973a.312.312 0 0 1-.159.045" class="msportalfx-svg-c01" fill="#ffffff"></path><path d="M32.316 41a.306.306 0 0 1-.157-.045l-10.494-6.011a.315.315 0 0 1-.159-.276.308.308 0 0 1 .159-.27l10.427-5.976a.325.325 0 0 1 .315 0L42.9 34.44a.317.317 0 0 1 .158.27.321.321 0 0 1-.158.275l-10.425 5.973a.312.312 0 0 1-.159.045" class="msportalfx-svg-c01" fill="#ffffff"></path><path d="M30.808 48.461a.311.311 0 0 1-.161-.042l-10.462-6a.309.309 0 0 1-.161-.273V30.118a.319.319 0 0 1 .161-.276.332.332 0 0 1 .319 0l10.46 6a.32.32 0 0 1 .156.275v12.029a.313.313 0 0 1-.156.273.319.319 0 0 1-.157.042m2.961 0a.331.331 0 0 1-.161-.042.314.314 0 0 1-.157-.273V36.191a.321.321 0 0 1 .157-.275l10.458-5.994a.328.328 0 0 1 .32 0 .318.318 0 0 1 .156.272v11.955a.316.316 0 0 1-.156.273l-10.462 6a.291.291 0 0 1-.156.042" class="msportalfx-svg-c15" fill="#59b4d9"></path><path d="M33.768 48.461a.331.331 0 0 1-.161-.042.314.314 0 0 1-.157-.273V36.191a.321.321 0 0 1 .157-.275l10.458-5.994a.328.328 0 0 1 .32 0 .318.318 0 0 1 .156.272v11.955a.316.316 0 0 1-.156.273l-10.462 6a.291.291 0 0 1-.156.042" opacity=".5" class="msportalfx-svg-c01" fill="#ffffff"></path><path d="M32.316 33.842a.306.306 0 0 1-.157-.045l-10.494-6.015a.315.315 0 0 1-.159-.276.308.308 0 0 1 .159-.27l10.427-5.976a.325.325 0 0 1 .315 0l10.5 6.018a.317.317 0 0 1 .158.27.321.321 0 0 1-.158.275L32.475 33.8a.312.312 0 0 1-.159.045" class="msportalfx-svg-c16" fill="#3999c6"></path></g><defs>
<linearGradient id="a" x1="9" y1="16.39" x2="9" y2="-1.94" gradientUnits="userSpaceOnUse"><stop offset="0" stop-color="#0078d4"></stop><stop offset=".16" stop-color="#1380da"></stop><stop offset=".53" stop-color="#3c91e5"></stop><stop offset=".82" stop-color="#559cec"></stop><stop offset="1" stop-color="#5ea0ef"></stop></linearGradient>
<linearGradient id="b" x1="9.88" y1="7.11" x2="9.99" y2="17.27" gradientUnits="userSpaceOnUse"><stop offset="0" stop-color="#32d4f5"></stop><stop offset=".32" stop-color="#31d1f3"></stop><stop offset=".53" stop-color="#2ec9eb"></stop><stop offset=".7" stop-color="#29bade"></stop><stop offset=".86" stop-color="#22a5cb"></stop><stop offset="1" stop-color="#198ab3"></stop><stop offset="1" stop-color="#198ab3"></stop></linearGradient>
<radialGradient id="c" cx="9.43" cy="7.03" r="7.27" gradientUnits="userSpaceOnUse"><stop offset="0" stop-color="#f2f2f2"></stop><stop offset=".58" stop-color="#eee"></stop><stop offset="1" stop-color="#e6e6e6"></stop></radialGradient>
</defs>
</svg>