<svg viewBox="0 0 18 18" data-islogo="true" class="" role="presentation" focusable="false" xmlns:svg="http://www.w3.org/2000/svg" xmlns:xlink="http://www.w3.org/1999/xlink" id="FxSymbol0-026" data-type="72"><g><path d="M14.209 15.717A8.5 8.5 0 0 1 3.791 2.283l.086-.065a8.5 8.5 0 0 1 10.332 13.5" fill="url(#84d4b995-4159-4d4d-aee0-170d911ffad6)"></path><path d="M2.481 10.645a18.877 18.877 0 0 0-.836 2.624 9.46 9.46 0 0 0 .622.922 8.126 8.126 0 0 0 .555.647 17.828 17.828 0 0 1 1.083-3.468 2.72 2.72 0 0 1-1.424-.725zM3.46 6.11a11.947 11.947 0 0 1-.689-2.945 8.4 8.4 0 0 0-1.1 1.458 13.23 13.23 0 0 0 .568 2.362A2.731 2.731 0 0 1 3.46 6.11z" fill="#83b9f9"></path><circle cx="4.377" cy="8.681" r="2.732" fill="url(#cc4eaa77-f606-4858-82be-b6f017f8e0e6)"></circle><path d="M8.36 13.67a1.764 1.764 0 0 1 .54-1.27 11.978 11.978 0 0 1-2.525-1.857 2.716 2.716 0 0 1-1.492.821 11.821 11.821 0 0 0 1.447 1.287A12.384 12.384 0 0 0 8.376 13.9a1.9 1.9 0 0 1-.016-.23zm6.298.212a11.928 11.928 0 0 1-2.754-.321c0 .036.006.072.006.109a1.767 1.767 0 0 1-.506 1.24 13.883 13.883 0 0 0 3.412.243 8.479 8.479 0 0 0 1.151-1.343 12.188 12.188 0 0 1-1.309.072z" fill="#83b9f9"></path><circle cx="10.135" cy="13.67" r="1.775" fill="url(#21835eba-54d1-4895-bec7-c7debbea7644)"></circle><path d="M9.653 5.1A13.556 13.556 0 0 1 15.6 3.65a8.4 8.4 0 0 0-1.486-1.445A14.443 14.443 0 0 0 9.42 3.313c-.328.14-.646.3-.959.467A16.964 16.964 0 0 1 6.484.868a8.645 8.645 0 0 0-1.084.419A17.744 17.744 0 0 0 7.457 4.38a12.382 12.382 0 0 0-2.114 1.748 2.731 2.731 0 0 1 1.346 1.1 11.932 11.932 0 0 1 1.926-1.536 27.632 27.632 0 0 0 3.7 3.235 1.844 1.844 0 0 1 .612-.988A26.781 26.781 0 0 1 9.653 5.1z" fill="#83b9f9"></path><circle cx="14.18" cy="9.268" r="1.885" fill="#f2f2f2"></circle><path d="M17.347 10.539a19.22 19.22 0 0 1-.321-.169L17 10.354l-.3-.16-.055-.03-.267-.149-.066-.036L16 9.8a1.8 1.8 0 0 1-.637.925l.374.214.084.047c.115.065.231.129.348.193l.034.019q.42.23.862.456a8.493 8.493 0 0 0 .283-1.114z" fill="#83b9f9"></path><circle cx="4.377" cy="8.681" r="2.732" fill="#f2f2f2"></circle><circle cx="10.135" cy="13.67" r="1.775" fill="#f2f2f2"></circle></g><defs>
<radialGradient id="84d4b995-4159-4d4d-aee0-170d911ffad6" cx="13428.814" cy="3518.86" r="56.667" gradientTransform="matrix(.15 0 0 .15 -2005.333 -518.832)" gradientUnits="userSpaceOnUse"><stop offset=".183" stop-color="#5ea0ef"></stop><stop offset="1" stop-color="#0078d4"></stop></radialGradient>
<linearGradient id="cc4eaa77-f606-4858-82be-b6f017f8e0e6" x1="4.399" y1="11.484" x2="4.368" y2="7.525" gradientUnits="userSpaceOnUse"><stop offset="0" stop-color="#ccc"></stop><stop offset=".123" stop-color="#d7d7d7"></stop><stop offset=".421" stop-color="#ebebeb"></stop><stop offset=".716" stop-color="#f8f8f8"></stop><stop offset="1" stop-color="#fcfcfc"></stop></linearGradient>
<linearGradient id="21835eba-54d1-4895-bec7-c7debbea7644" x1="10.135" y1="15.445" x2="10.135" y2="11.895"></linearGradient>
<linearGradient id="a" x1="9" y1="16.39" x2="9" y2="-1.94" gradientUnits="userSpaceOnUse"><stop offset="0" stop-color="#0078d4"></stop><stop offset=".16" stop-color="#1380da"></stop><stop offset=".53" stop-color="#3c91e5"></stop><stop offset=".82" stop-color="#559cec"></stop><stop offset="1" stop-color="#5ea0ef"></stop></linearGradient>
<linearGradient id="b" x1="9.88" y1="7.11" x2="9.99" y2="17.27" gradientUnits="userSpaceOnUse"><stop offset="0" stop-color="#32d4f5"></stop><stop offset=".32" stop-color="#31d1f3"></stop><stop offset=".53" stop-color="#2ec9eb"></stop><stop offset=".7" stop-color="#29bade"></stop><stop offset=".86" stop-color="#22a5cb"></stop><stop offset="1" stop-color="#198ab3"></stop><stop offset="1" stop-color="#198ab3"></stop></linearGradient>
<radialGradient id="c" cx="9.43" cy="7.03" r="7.27" gradientUnits="userSpaceOnUse"><stop offset="0" stop-color="#f2f2f2"></stop><stop offset=".58" stop-color="#eee"></stop><stop offset="1" stop-color="#e6e6e6"></stop></radialGradient>
</defs>
</svg>