<svg viewBox="0 0 18 18" class="" role="presentation" focusable="false" xmlns:svg="http://www.w3.org/2000/svg" xmlns:xlink="http://www.w3.org/1999/xlink" id="FxSymbol0-0bc" data-type="1"><g><title>Icon-identity-232</title><path d="M5.67 10.61H10v4.32H5.67zm-5-5.76H5V.53H1.23a.6.6 0 0 0-.6.6zm.6 10.08H5v-4.32H.63v3.72a.6.6 0 0 0 .6.6zm-.6-5H5V5.57H.63zm10.08 5h3.72a.6.6 0 0 0 .6-.6v-3.72h-4.36zm-5-5H10V5.57H5.67zm5 0H15V5.57h-4.29zm0-9.36v4.28H15V1.13a.6.6 0 0 0-.6-.6zm-5 4.32H10V.53H5.67z" fill="url(#efeb8e96-2af0-4681-9a6a-45f9b0262f19)"></path><path fill="#32bedd" d="M17.37 10.7v4.51l-3.87 2.26v-4.51l3.87-2.26z"></path><path fill="#9cebff" d="M17.37 10.7l-3.87 2.27-3.87-2.27 3.87-2.26 3.87 2.26z"></path><path fill="#50e6ff" d="M13.5 12.97v4.5l-3.87-2.26V10.7l3.87 2.27z"></path><path fill="#9cebff" d="M9.63 15.21l3.87-2.25v4.51l-3.87-2.26z"></path><path fill="#50e6ff" d="M17.37 15.21l-3.87-2.25v4.51l3.87-2.26z"></path></g><defs>
<linearGradient id="efeb8e96-2af0-4681-9a6a-45f9b0262f19" x1="-6518.78" y1="1118.86" x2="-6518.78" y2="1090.06" gradientTransform="matrix(.5 0 0 -.5 3267.42 559.99)" gradientUnits="userSpaceOnUse"><stop offset="0" stop-color="#5ea0ef"></stop><stop offset=".18" stop-color="#589eed"></stop><stop offset=".41" stop-color="#4897e9"></stop><stop offset=".66" stop-color="#2e8ce1"></stop><stop offset=".94" stop-color="#0a7cd7"></stop><stop offset="1" stop-color="#0078d4"></stop></linearGradient>
</defs>
</svg>