<svg viewBox="0 0 18 18" class="" role="presentation" focusable="false" xmlns:svg="http://www.w3.org/2000/svg" xmlns:xlink="http://www.w3.org/1999/xlink" id="FxSymbol0-089" data-type="1"><g><title>Icon-web-47</title><path d="M8.57 8.69H1V2.18a1.1 1.1 0 0 1 1.09-1.1h6.48zm-6.63-.94h5.69V2H2.09a.15.15 0 0 0-.15.15zM17 8.69H9.43V1.08h6.48A1.1 1.1 0 0 1 17 2.18zm-6.63-.94h5.69V2.18a.15.15 0 0 0-.15-.18h-5.54zm-1.8 9.33H2.09A1.09 1.09 0 0 1 1 16V9.48h7.57zm-6.63-6.66V16a.15.15 0 0 0 .15.15h5.54v-5.73zm13.97 6.66H9.43v-7.6H17V16a1.09 1.09 0 0 1-1.09 1.08zm-5.54-.94h5.54a.15.15 0 0 0 .15-.15v-5.57h-5.69z" fill="#949494"></path><path d="M14.67 10.62a2.59 2.59 0 0 0-2.21-2.5A3.24 3.24 0 0 0 9.15 5 3.32 3.32 0 0 0 6 7.17a3.08 3.08 0 0 0-2.66 3 3.11 3.11 0 0 0 3.19 3h5.61a2.61 2.61 0 0 0 2.53-2.55z" fill="url(#a)"></path><path fill="none" d="M0 0h18v18H0z"></path></g><defs>
<linearGradient id="a" x1="9" y1="16.39" x2="9" y2="-1.94" gradientUnits="userSpaceOnUse"><stop offset="0" stop-color="#0078d4"></stop><stop offset=".16" stop-color="#1380da"></stop><stop offset=".53" stop-color="#3c91e5"></stop><stop offset=".82" stop-color="#559cec"></stop><stop offset="1" stop-color="#5ea0ef"></stop></linearGradient>
<linearGradient id="b" x1="9.88" y1="7.11" x2="9.99" y2="17.27" gradientUnits="userSpaceOnUse"><stop offset="0" stop-color="#32d4f5"></stop><stop offset=".32" stop-color="#31d1f3"></stop><stop offset=".53" stop-color="#2ec9eb"></stop><stop offset=".7" stop-color="#29bade"></stop><stop offset=".86" stop-color="#22a5cb"></stop><stop offset="1" stop-color="#198ab3"></stop><stop offset="1" stop-color="#198ab3"></stop></linearGradient>
<radialGradient id="c" cx="9.43" cy="7.03" r="7.27" gradientUnits="userSpaceOnUse"><stop offset="0" stop-color="#f2f2f2"></stop><stop offset=".58" stop-color="#eee"></stop><stop offset="1" stop-color="#e6e6e6"></stop></radialGradient>
</defs>
</svg>