<svg viewBox="0 0 18 18" data-islogo="true" class="" role="presentation" focusable="false" xmlns:svg="http://www.w3.org/2000/svg" xmlns:xlink="http://www.w3.org/1999/xlink" id="FxSymbol0-04c" data-type="154"><g><path d="M10.56 16.93a.56.56 0 0 1-.57.57H1.14a.56.56 0 0 1-.56-.57V1.07A.56.56 0 0 1 1.14.5H10a.56.56 0 0 1 .57.57z" fill="url(#312f5f0e-2665-4dbe-ad9a-f9be3cbceffa)"></path><path d="M2 6.46a1.08 1.08 0 0 1 1.13-1.08h5a1.08 1.08 0 0 1 1.05 1.08A1.08 1.08 0 0 1 8.1 7.55h-5A1.09 1.09 0 0 1 2 6.46zm0-3.22a1.09 1.09 0 0 1 1.13-1.09h5a1.08 1.08 0 0 1 1.05 1.09A1.08 1.08 0 0 1 8.1 4.32h-5A1.08 1.08 0 0 1 2 3.24z" fill="#003067"></path><circle cx="3.17" cy="3.24" r=".73" fill="#50e6ff"></circle><circle cx="3.17" cy="6.46" r=".73" fill="#50e6ff"></circle><path d="M17.42 14.38a3.12 3.12 0 0 0-2.67-3 3.93 3.93 0 0 0-4-3.8 4 4 0 0 0-3.83 2.66 3.7 3.7 0 0 0-3.22 3.59 3.77 3.77 0 0 0 3.86 3.67h6.77a3.15 3.15 0 0 0 3.09-3.12z" fill="url(#13c7faaf-c808-4b0a-8b59-d062456c03fa)"></path></g><defs>
<linearGradient id="a" x1="9" y1="16.39" x2="9" y2="-1.94" gradientUnits="userSpaceOnUse"><stop offset="0" stop-color="#0078d4"></stop><stop offset=".16" stop-color="#1380da"></stop><stop offset=".53" stop-color="#3c91e5"></stop><stop offset=".82" stop-color="#559cec"></stop><stop offset="1" stop-color="#5ea0ef"></stop></linearGradient>
<linearGradient id="b" x1="9.88" y1="7.11" x2="9.99" y2="17.27" gradientUnits="userSpaceOnUse"><stop offset="0" stop-color="#32d4f5"></stop><stop offset=".32" stop-color="#31d1f3"></stop><stop offset=".53" stop-color="#2ec9eb"></stop><stop offset=".7" stop-color="#29bade"></stop><stop offset=".86" stop-color="#22a5cb"></stop><stop offset="1" stop-color="#198ab3"></stop><stop offset="1" stop-color="#198ab3"></stop></linearGradient>
<radialGradient id="c" cx="9.43" cy="7.03" r="7.27" gradientUnits="userSpaceOnUse"><stop offset="0" stop-color="#f2f2f2"></stop><stop offset=".58" stop-color="#eee"></stop><stop offset="1" stop-color="#e6e6e6"></stop></radialGradient>
<linearGradient id="312f5f0e-2665-4dbe-ad9a-f9be3cbceffa" x1="5.57" y1="17.5" x2="5.57" y2=".5" gradientUnits="userSpaceOnUse"><stop offset=".05" stop-color="#949494"></stop><stop offset=".36" stop-color="#979797"></stop><stop offset=".54" stop-color="#9f9f9f"></stop><stop offset=".69" stop-color="#adadad"></stop><stop offset=".73" stop-color="#b3b3b3"></stop></linearGradient>
<linearGradient id="13c7faaf-c808-4b0a-8b59-d062456c03fa" x1="10.56" y1="6.02" x2="10.56" y2="19.71" gradientUnits="userSpaceOnUse"><stop offset=".18" stop-color="#5ea0ef"></stop><stop offset="1" stop-color="#0078d4"></stop></linearGradient>
</defs>
</svg>