<svg viewBox="0 0 50 50" class="fxs-portal-svg" role="presentation" focusable="false" xmlns:svg="http://www.w3.org/2000/svg" xmlns:xlink="http://www.w3.org/1999/xlink" id="FxSymbol0-14f" data-type="1"><g><title></title><path d="M49.662 25.717c.499-.499.399-1.298 0-1.797l-2.396-2.396L36.482 11.04c-.499-.499-1.198-.499-1.697 0-.499.499-.599 1.298 0 1.797L46.068 23.92a1.266 1.266 0 0 1 0 1.797L34.585 37.199a1.266 1.266 0 0 0 0 1.797c.499.499 1.298.399 1.697 0l10.684-10.584.1-.1 2.596-2.595zm-49.324 0c-.499-.499-.399-1.298 0-1.797l2.396-2.396L13.518 11.04c.499-.499 1.198-.499 1.697 0 .499.499.599 1.298 0 1.797L4.132 23.92a1.266 1.266 0 0 0 0 1.797l11.283 11.482a1.266 1.266 0 0 1 0 1.797c-.499.499-1.298.399-1.697 0L2.834 28.513l-.1-.1-2.396-2.696z" class="msportalfx-svg-c03" fill="#a0a1a2"></path><path d="M18.68 34.686l4.377-4.692.425 6.402-3.383 4.37-1.559-.555z" class="msportalfx-svg-c12" fill="#fee087"></path><path d="M18.541 40.211l1.559.555-1.422 1.523z" class="msportalfx-svg-c06" fill="#1e1e1e"></path><path d="M27.978 15.835l-.839-.299-1.457-.518-7.014 19.702 2.723-.383.022-.062-.022.061 2.079 2.093 7.014-19.702-2.506-.892z" class="msportalfx-svg-c10" fill="#ff8c00"></path><path opacity=".3" d="M18.668 34.72l2.723-.383 6.587-18.502-2.296-.817z" class="msportalfx-svg-c01" fill="#ffffff"></path><path d="M25.293 16.113l1.71-4.802 4.802 1.71-1.71 4.801z" class="msportalfx-svg-c02" fill="#e5e5e5"></path><path d="M26.148 13.713l.213-.6 4.802 1.71-.213.6z" class="msportalfx-svg-c14" fill="#57a300"></path><path d="M27.002 11.312l1.283-3.601 4.801 1.71-1.282 3.6z"></path><path opacity=".3" d="M27.002 11.312l1.283-3.601 4.801 1.71-1.282 3.6z" class="msportalfx-svg-c01" fill="#ffffff"></path></g><defs>
<linearGradient id="a" x1="9" y1="16.39" x2="9" y2="-1.94" gradientUnits="userSpaceOnUse"><stop offset="0" stop-color="#0078d4"></stop><stop offset=".16" stop-color="#1380da"></stop><stop offset=".53" stop-color="#3c91e5"></stop><stop offset=".82" stop-color="#559cec"></stop><stop offset="1" stop-color="#5ea0ef"></stop></linearGradient>
<linearGradient id="b" x1="9.88" y1="7.11" x2="9.99" y2="17.27" gradientUnits="userSpaceOnUse"><stop offset="0" stop-color="#32d4f5"></stop><stop offset=".32" stop-color="#31d1f3"></stop><stop offset=".53" stop-color="#2ec9eb"></stop><stop offset=".7" stop-color="#29bade"></stop><stop offset=".86" stop-color="#22a5cb"></stop><stop offset="1" stop-color="#198ab3"></stop><stop offset="1" stop-color="#198ab3"></stop></linearGradient>
<radialGradient id="c" cx="9.43" cy="7.03" r="7.27" gradientUnits="userSpaceOnUse"><stop offset="0" stop-color="#f2f2f2"></stop><stop offset=".58" stop-color="#eee"></stop><stop offset="1" stop-color="#e6e6e6"></stop></radialGradient>
</defs>
</svg>