<svg viewBox="0 0 10 10" class="" role="presentation" focusable="false" xmlns="http://www.w3.org/2000/svg" xmlns:xlink="http://www.w3.org/1999/xlink" id="FxSymbol0-0b7" data-type="1"><g><title></title><path d="M1 1h1.928v1.928H1zm2.279 0h2.104v1.928H3.279zm2.454 0h1.928v1.928H5.733zM1 3.279h1.928v1.928H1zm2.279 0h2.104v1.928H3.279zm2.454 0h1.928v1.928H5.733zM1 5.558h1.928v2.104H1zm2.279 0h2.104v2.104H3.279zm2.454 0h1.928v2.104H5.733z" class="msportalfx-svg-c19" fill="#0072c6"></path><path d="M5.579 8.851a.64.64 0 0 1-.45-.191L2.362 5.893a.641.641 0 0 1-.19-.449.64.64 0 0 1 .191-.45L5.13 2.227c.123-.123.286-.191.45-.191s.327.068.45.191l2.78 2.78c.122.123.19.273.19.45a.64.64 0 0 1-.191.45L6.029 8.66a.64.64 0 0 1-.45.191" class="msportalfx-svg-c13" fill="#b8d432"></path><path d="M5.579 2.636l-.9.9h.641v1.308h.532V3.536h.627zm0 5.615l.9-.899h-.641V6.071h-.532v1.281h-.627zm.422-2.807l.9.899v-.627h1.213v-.545H6.901v-.627zm-.831 0l-.9-.9v.627H3.044v.545H4.27v.627z" class="msportalfx-svg-c01" fill="#ffffff"></path></g><defs>
</defs>
</svg>