<svg viewBox="0 0 18 18" class="" role="presentation" focusable="false" xmlns="http://www.w3.org/2000/svg" xmlns:xlink="http://www.w3.org/1999/xlink" id="FxSymbol0-1ec" data-type="1"><g><g><path d="M16.808 17.2a.905.905 0 0 0 .908-.9 1 1 0 0 0-.006-.109c-.356-2.844-1.979-5.16-5.074-5.16-3.15 0-4.775 1.961-5.091 5.168a.909.909 0 0 0 .811 1h.091Z" fill="url(#94a115a1-5689-4c39-bee0-5c63fda4ab80)"></path><path d="M12.636 11.7a2.841 2.841 0 0 1-1.545-.455l1.529 4 1.519-3.969a2.841 2.841 0 0 1-1.503.424Z" opacity=".8" class="msportalfx-svg-c01" fill="#ffffff"></path><circle cx="12.636" cy="8.847" r="2.854" fill="url(#94a115a1-5689-4c39-bee0-5c63fda4ab81)"></circle><path d="M.284 1.406v3.736h4.339V.8H.887a.6.6 0 0 0-.603.606Z" fill="url(#94a115a1-5689-4c39-bee0-5c63fda4ab82)"></path><path d="M.286 14.664a.6.6 0 0 0 .6.6h3.737v-4.336H.286Zm0-8.798h4.337v4.339H.286z" fill="url(#94a115a1-5689-4c39-bee0-5c63fda4ab83)"></path><path d="M14.146.8H10.41v4.342h4.339V1.406A.6.6 0 0 0 14.146.8Z" fill="url(#94a115a1-5689-4c39-bee0-5c63fda4ab84)"></path><path fill="url(#94a115a1-5689-4c39-bee0-5c63fda4ab85)" d="M5.347.803h4.339v4.339H5.347zm0 9.402h3.945a3.591 3.591 0 0 1 .394-3.431v-.908H5.347Zm0 5.062h1.566a5.7 5.7 0 0 1 2.773-4.309v-.03H5.347Z"></path></g></g><defs>
<linearGradient id="94a115a1-5689-4c39-bee0-5c63fda4ab80" x1="12.628" y1="10.273" x2="12.628" y2="18.722" gradientUnits="userSpaceOnUse"><stop offset="0" stop-color="#86d633"></stop><stop offset=".999" stop-color="#76bc2d"></stop></linearGradient>
<linearGradient id="94a115a1-5689-4c39-bee0-5c63fda4ab81" x1="12.386" y1="5.744" x2="13.003" y2="13.415"><stop offset="0" stop-color="#86d633"></stop><stop offset=".999" stop-color="#76bc2d"></stop></linearGradient>
<linearGradient id="94a115a1-5689-4c39-bee0-5c63fda4ab82" x1="2.454" y1=".714" x2="2.454" y2="9.058" gradientUnits="userSpaceOnUse"><stop offset="0" stop-color="#5ea0ef"></stop><stop offset=".178" stop-color="#589eed"></stop><stop offset=".406" stop-color="#4897e9"></stop><stop offset=".662" stop-color="#2e8ce1"></stop><stop offset=".936" stop-color="#0a7cd7"></stop><stop offset="1" stop-color="#0078d4"></stop></linearGradient>
<linearGradient id="94a115a1-5689-4c39-bee0-5c63fda4ab83" x1="2.455" y1=".714" x2="2.455" y2="9.058"><stop offset="0" stop-color="#5ea0ef"></stop><stop offset=".178" stop-color="#589eed"></stop><stop offset=".406" stop-color="#4897e9"></stop><stop offset=".662" stop-color="#2e8ce1"></stop><stop offset=".936" stop-color="#0a7cd7"></stop><stop offset="1" stop-color="#0078d4"></stop></linearGradient>
<linearGradient id="94a115a1-5689-4c39-bee0-5c63fda4ab84" x1="12.579" y1=".714" x2="12.579" y2="9.058"><stop offset="0" stop-color="#5ea0ef"></stop><stop offset=".178" stop-color="#589eed"></stop><stop offset=".406" stop-color="#4897e9"></stop><stop offset=".662" stop-color="#2e8ce1"></stop><stop offset=".936" stop-color="#0a7cd7"></stop><stop offset="1" stop-color="#0078d4"></stop></linearGradient>
<linearGradient id="94a115a1-5689-4c39-bee0-5c63fda4ab85" x1="7.516" y1=".714" x2="7.516" y2="9.058"><stop offset="0" stop-color="#5ea0ef"></stop><stop offset=".178" stop-color="#589eed"></stop><stop offset=".406" stop-color="#4897e9"></stop><stop offset=".662" stop-color="#2e8ce1"></stop><stop offset=".936" stop-color="#0a7cd7"></stop><stop offset="1" stop-color="#0078d4"></stop></linearGradient>
</defs>
</svg>