<svg viewBox="0 0 18 18" class="" role="presentation" focusable="false" xmlns="http://www.w3.org/2000/svg" xmlns:xlink="http://www.w3.org/1999/xlink" id="FxSymbol0-0b5" data-type="1"><g><title>Icon-networking-83</title><path d="M16.36 8.4c0 4.84-5.85 8.74-7.12 9.53a.46.46 0 0 1-.48 0c-1.27-.79-7.12-4.69-7.12-9.53V2.58a.46.46 0 0 1 .45-.46C6.64 2 5.59 0 9 0s2.36 2 6.91 2.12a.46.46 0 0 1 .45.46Z" fill="#1b93eb"></path><path d="M15.75 8.45c0 4.44-5.36 8-6.53 8.74a.43.43 0 0 1-.44 0c-1.17-.72-6.53-4.3-6.53-8.74V3.11a.42.42 0 0 1 .41-.42C6.83 2.58 5.87.75 9 .75s2.17 1.83 6.34 1.94a.42.42 0 0 1 .41.42Z" fill="url(#59616712-f700-4139-92c6-bd98d17f0233)"></path><path d="M11.05 12.94c-1.12-.15-1.11-.88-1.1-2H7.83c0 1.17 0 1.9-1.1 2a.58.58 0 0 0-.53.52h5.39a.59.59 0 0 0-.54-.52Z" fill="#1f56a3"></path><rect x="4.02" y="4.04" width="9.72" height="6.88" rx=".33" fill="#1490df"></rect><rect x="4.58" y="4.57" width="8.59" height="5.71" rx=".16" class="msportalfx-svg-c01" fill="#ffffff"></rect><path fill="#0078d4" d="m10.62 6.42.01 2.01-1.75 1.01V7.43l1.74-1.01z"></path><path fill="#83b9f9" d="M10.62 6.42 8.88 7.43 7.13 6.42l1.74-1.01 1.75 1.01z"></path><path fill="#5ea0ef" d="m8.88 7.43-.01 2.01-1.74-1.01V6.42l1.75 1.01z"></path><path fill="#5ea0ef" opacity=".2" d="M8.88 7.43v2.01l1.74-1.01-1.74-1z"></path><path fill="#83b9f9" opacity=".2" d="m8.87 7.45.01.01v2.01h-.01L7.13 8.46l1.74-1.01z"></path></g><defs>
<linearGradient id="59616712-f700-4139-92c6-bd98d17f0233" x1="9" y1="1.36" x2="9" y2="17.87" gradientUnits="userSpaceOnUse"><stop offset="0" stop-color="#6bb9f2"></stop><stop offset="1" stop-color="#1b93eb"></stop></linearGradient>
</defs>
</svg>