<svg viewBox="0 0 18 18" class="" role="presentation" focusable="false" xmlns="http://www.w3.org/2000/svg" xmlns:xlink="http://www.w3.org/1999/xlink" id="FxSymbol0-034" data-type="1"><g><title>Application group</title><circle cx="9" cy="9" r="8.5" fill="url(#94a115a1-5689-4c39-bee0-5c63fda4a03b)"></circle><path d="M7.776 10.632h2.448v2.448H7.776ZM4.92 7.368h2.448V4.92H5.262a.341.341 0 0 0-.342.342Zm.342 5.712h2.106v-2.448H4.92v2.106a.341.341 0 0 0 .342.342Zm-.342-2.856h2.448V7.776H4.92Zm5.712 2.856h2.106a.341.341 0 0 0 .342-.342v-2.106h-2.448Zm-2.856-2.856h2.448V7.776H7.776Zm2.856 0h2.448V7.776h-2.448Zm0-5.3v2.444h2.448V5.262a.341.341 0 0 0-.342-.342ZM7.776 7.368h2.448V4.92H7.776Z" class="msportalfx-svg-c01" fill="#ffffff"></path></g><defs>
<linearGradient id="94a115a1-5689-4c39-bee0-5c63fda4a03b" x1="9" y1="17.5" x2="9" y2=".5" gradientUnits="userSpaceOnUse"><stop offset="0" stop-color="#005ba1"></stop><stop offset=".168" stop-color="#0063ae"></stop><stop offset=".577" stop-color="#0072ca"></stop><stop offset=".815" stop-color="#0078d4"></stop></linearGradient>
</defs>
</svg>