<svg viewBox="0 0 10 10" class="fxs-portal-svg" role="presentation" focusable="false" xmlns:svg="http://www.w3.org/2000/svg" xmlns:xlink="http://www.w3.org/1999/xlink" id="FxSymbol0-172" data-type="1"><g><title></title><path d="M1 1h1.928v1.928H1zm2.279 0h2.104v1.928H3.279zm2.454 0h1.928v1.928H5.733zM1 3.279h1.928v1.928H1zm2.279 0h2.104v1.928H3.279zm2.454 0h1.928v1.928H5.733zM1 5.558h1.928v2.104H1zm2.279 0h2.104v2.104H3.279zm2.454 0h1.928v2.104H5.733z" class="msportalfx-svg-c19" fill="#0072c6"></path><path d="M5.579 8.851a.64.64 0 0 1-.45-.191L2.362 5.893a.641.641 0 0 1-.19-.449.64.64 0 0 1 .191-.45L5.13 2.227c.123-.123.286-.191.45-.191s.327.068.45.191l2.78 2.78c.122.123.19.273.19.45a.64.64 0 0 1-.191.45L6.029 8.66a.64.64 0 0 1-.45.191" class="msportalfx-svg-c13" fill="#b8d432"></path><path d="M5.579 2.636l-.9.9h.641v1.308h.532V3.536h.627zm0 5.615l.9-.899h-.641V6.071h-.532v1.281h-.627zm.422-2.807l.9.899v-.627h1.213v-.545H6.901v-.627zm-.831 0l-.9-.9v.627H3.044v.545H4.27v.627z" class="msportalfx-svg-c01" fill="#ffffff"></path></g><defs>
<linearGradient id="a" x1="-1267.23" y1="3.07" x2="-1267.52" y2="14.64" gradientTransform="matrix(-1 0 0 1 -1256.13 0)" gradientUnits="userSpaceOnUse"><stop offset="0" stop-color="#32d4f5"></stop><stop offset=".23" stop-color="#31d0f1"></stop><stop offset=".46" stop-color="#2cc3e6"></stop><stop offset=".7" stop-color="#25afd4"></stop><stop offset=".94" stop-color="#1c92ba"></stop><stop offset="1" stop-color="#198ab3"></stop></linearGradient>
<linearGradient id="b" x1="6.4" y1="1.32" x2="7.21" y2="11.39"><stop offset=".22" stop-color="#32d4f5"></stop><stop offset=".47" stop-color="#31d1f3"></stop><stop offset=".63" stop-color="#2ec9eb"></stop><stop offset=".77" stop-color="#29bade"></stop><stop offset=".89" stop-color="#22a5cb"></stop><stop offset="1" stop-color="#198ab3"></stop><stop offset="1" stop-color="#198ab3"></stop></linearGradient>
<linearGradient id="c" x1="13.76" y1="18.05" x2="13.76" y2="10.25" gradientUnits="userSpaceOnUse"><stop offset="0" stop-color="#76bc2d"></stop><stop offset=".6" stop-color="#81ce31"></stop><stop offset=".82" stop-color="#86d633"></stop></linearGradient>
</defs>
</svg>