<svg viewBox="0 0 50 50" class="" role="presentation" focusable="false" xmlns="http://www.w3.org/2000/svg" xmlns:xlink="http://www.w3.org/1999/xlink" id="FxSymbol0-25e" data-type="1"><g><title></title><path d="M45 6.8 40.2 2l-2-2H3v50h44V8.8z" class="msportalfx-svg-c15" fill="#59b4d9"></path><path opacity=".8" d="M38 2H5v46h40V9h-7z" class="msportalfx-svg-c01" fill="#ffffff"></path><path d="m39.778 39.572.751-1.733-.231-.173-1.617-1.386v-1.386l1.791-1.617-.693-1.733h-.289l-2.137.173-.982-.982.116-2.426-1.733-.751-.173.231-1.386 1.617h-1.386L30.19 27.5l-1.733.693v.289l.173 2.137-.982.982-2.426-.116-.751 1.733.231.173 1.617 1.386v1.386l-1.791 1.617.693 1.733h.289l2.137-.173.982.982-.116 2.426 1.733.751.173-.231 1.386-1.617h1.386l1.617 1.791 1.733-.693v-.289l-.173-2.137.982-.982 2.428.231zm-8.829-.345c-2.028-.835-2.982-3.221-2.147-5.249.835-2.028 3.221-2.982 5.249-2.147 2.028.835 2.982 3.221 2.147 5.249-.895 2.028-3.221 2.982-5.249 2.147" class="msportalfx-svg-c04" fill="#7a7a7a"></path><path fill="#1CB9EC" d="M34.532 36.392c-.457 1.118-1.778 1.626-2.896 1.169-1.118-.457-1.626-1.778-1.169-2.896.457-1.118 1.778-1.626 2.896-1.169s1.627 1.778 1.169 2.896"></path><path d="m30.975 24.599 1.029-2.383-.317-.238-2.216-1.906v-1.906l2.453-2.224-.95-2.383h-.396l-2.928.238-1.345-1.35.158-3.336-2.373-1.032-.237.318-1.899 2.224h-1.899L17.838 8l-2.374.953v.397l.237 2.939-1.345 1.35-3.324-.159-1.029 2.383.317.238 2.216 1.906v1.906l-2.453 2.224.95 2.383h.396l2.928-.238 1.345 1.35-.158 3.336L17.917 30l.237-.318 1.899-2.224h1.899l2.216 2.462 2.374-.953v-.397l-.237-2.939 1.345-1.35 3.325.318zm-12.096-.475c-2.778-1.148-4.086-4.429-2.942-7.217s4.413-4.101 7.191-2.952 4.086 4.429 2.942 7.217c-1.226 2.788-4.413 4.101-7.191 2.952" class="msportalfx-svg-c04" fill="#7a7a7a"></path><path d="m39.778 39.572.751-1.733-.231-.173-1.617-1.386v-1.386l1.791-1.617-.693-1.733h-.289l-2.137.173-.982-.982.116-2.426-1.733-.751-.173.231-1.386 1.617h-1.386L30.19 27.5l-1.733.693v.289l.173 2.137-.982.982-2.426-.116-.751 1.733.231.173 1.617 1.386v1.386l-1.791 1.617.693 1.733h.289l2.137-.173.982.982-.116 2.426 1.733.751.173-.231 1.386-1.617h1.386l1.617 1.791 1.733-.693v-.289l-.173-2.137.982-.982 2.428.231zm-8.829-.345c-2.028-.835-2.982-3.221-2.147-5.249.835-2.028 3.221-2.982 5.249-2.147 2.028.835 2.982 3.221 2.147 5.249-.895 2.028-3.221 2.982-5.249 2.147m.026-14.628 1.029-2.383-.317-.238-2.216-1.906v-1.906l2.453-2.224-.95-2.383h-.396l-2.928.238-1.345-1.35.158-3.336-2.373-1.032-.237.318-1.899 2.224h-1.899L17.838 8l-2.374.953v.397l.237 2.939-1.345 1.35-3.324-.159-1.029 2.383.317.238 2.216 1.906v1.906l-2.453 2.224.95 2.383h.396l2.928-.238 1.345 1.35-.158 3.336L17.917 30l.237-.318 1.899-2.224h1.899l2.216 2.462 2.374-.953v-.397l-.237-2.939 1.345-1.35 3.325.318zm-12.096-.475c-2.778-1.148-4.086-4.429-2.942-7.217s4.413-4.101 7.191-2.952 4.086 4.429 2.942 7.217c-1.226 2.788-4.413 4.101-7.191 2.952" opacity=".3" class="msportalfx-svg-c06" fill="#1e1e1e"></path><path fill="#1CB9EC" d="M23.683 20.178c-.603 1.474-2.344 2.143-3.818 1.541-1.474-.603-2.143-2.344-1.541-3.818s2.344-2.143 3.818-1.541c1.474.603 2.144 2.345 1.541 3.818"></path></g><defs>
</defs>
</svg>