<svg viewBox="0 0 52 52" class="" role="presentation" focusable="false" xmlns="http://www.w3.org/2000/svg" xmlns:xlink="http://www.w3.org/1999/xlink" id="FxSymbol0-1ea" data-type="1"><g><title></title><path d="M24.664 1c6.687 0 12.918 2.584 17.781 7.295 9.726 9.726 9.726 25.684 0 35.41C37.734 48.416 31.351 51 24.664 51s-12.918-2.584-17.781-7.295c-1.672-1.672-1.672-4.255 0-5.927s4.255-1.672 5.927 0c3.191 3.191 7.295 5.015 11.854 5.015s8.663-1.672 11.854-4.863c6.535-6.535 6.535-17.173 0-23.556-3.191-3.191-7.447-5.015-11.854-5.015s-8.663 1.672-11.854 4.863c-1.672 1.672-4.255 1.672-5.927 0s-1.672-4.255 0-5.927C11.594 3.584 17.977 1 24.664 1z" class="msportalfx-svg-c19" fill="#0072c6"></path><path d="m27.358 23.085-8.336-8.846h6.635l11.228 11.398-11.058 11.398h-6.805l8.336-8.676H3.808a1.548 1.548 0 0 1-1.548-1.548v-2.178c0-.855.693-1.548 1.548-1.548h23.55z" class="msportalfx-svg-c14" fill="#57a300"></path></g><defs>
</defs>
</svg>