<svg viewBox="0 0 50 50" class="fxs-portal-svg" role="presentation" focusable="false" xmlns:svg="http://www.w3.org/2000/svg" xmlns:xlink="http://www.w3.org/1999/xlink" id="FxSymbol0-18d" data-type="308"><g><title></title><path d="M27.9 6.2c-4 .4-7.5 2.4-9.9 5.4-2.4 2.9-3.6 6.7-3.2 10.8.4 4 2.4 7.5 5.4 9.9 2.9 2.4 6.7 3.6 10.8 3.2 4-.4 7.5-2.4 9.9-5.4 2.4-2.9 3.6-6.7 3.2-10.8-.4-4.1-2.5-7.6-5.5-10-2.5-2-5.7-3.2-9.1-3.2-.6.1-1.1.1-1.6.1" class="msportalfx-svg-c01" fill="#ffffff"></path><path d="M46.2 19.1c-.5-4.8-2.9-8.9-6.4-11.7-.7-.5-1.4-1-2.1-1.4l-1.4 2.6c.6.3 1.1.7 1.6 1.1 2.9 2.3 4.9 5.7 5.3 9.7.4 3.9-.8 7.6-3.1 10.5-2.3 2.8-5.7 4.8-9.6 5.2-2.6.3-5.2-.2-7.4-1.2l-1.4 2.6c2.7 1.3 5.8 1.9 9.1 1.5 4.7-.5 8.8-2.9 11.6-6.3 2.8-3.4 4.3-7.9 3.8-12.6" class="msportalfx-svg-c16" fill="#3999c6"></path><path d="M20.1 32c-2.8-2.3-4.8-5.7-5.2-9.6-.4-3.9.8-7.6 3.1-10.5 2.3-2.8 5.7-4.8 9.6-5.2 3.2-.3 6.2.4 8.7 1.9L37.7 6c-3-1.8-6.7-2.6-10.4-2.2-4.7.5-8.8 2.9-11.6 6.3-2.8 3.4-4.2 7.9-3.7 12.6.5 4.7 2.9 8.8 6.3 11.6 1.1.9 2.3 1.6 3.6 2.2l1.4-2.6c-1.2-.5-2.3-1.2-3.2-1.9" class="msportalfx-svg-c03" fill="#a0a1a2"></path><path d="M20.1 32c-2.8-2.3-4.8-5.7-5.2-9.6-.4-3.9.8-7.6 3.1-10.5 2.3-2.8 5.7-4.8 9.6-5.2 3.2-.3 6.2.4 8.7 1.9L37.7 6c-3-1.8-6.7-2.6-10.4-2.2-4.7.5-8.8 2.9-11.6 6.3-2.8 3.4-4.2 7.9-3.7 12.6.5 4.7 2.9 8.8 6.3 11.6 1.1.9 2.3 1.6 3.6 2.2l1.4-2.6c-1.2-.5-2.3-1.2-3.2-1.9" class="msportalfx-svg-c15" fill="#59b4d9"></path><path d="M36.3 25.4L29.7 23c-.7-.3-1.1-1-.8-1.8.3-.7 1-1.1 1.8-.8l6.6 2.4c.7.3 1.1 1 .8 1.8-.3.7-1.1 1-1.8.8z" class="msportalfx-svg-c04" fill="#7a7a7a"></path><path d="M28.9 22.8c-.8 0-1.4-.6-1.4-1.4V9.7c0-.8.6-1.4 1.4-1.4.8 0 1.4.6 1.4 1.4v11.7c0 .8-.6 1.4-1.4 1.4z" class="msportalfx-svg-c04" fill="#7a7a7a"></path><circle cx="28.9" cy="21.4" r="2" class="msportalfx-svg-c06" fill="#1e1e1e"></circle><path d="M27.3 36.3l7 6.5L28 50l.1-4.7h-1.7c-12.5 0-22.7-10.2-22.7-22.7S13.9 0 26.4 0c6.3 0 12.1 2.6 16.2 6.8-3.6-3.5-8.4-5.6-13.8-5.6C17.9 1.1 9.2 9.9 9.1 20.8c0 10.4 8.5 18.9 18.7 19.6l-.5-4.1z" class="msportalfx-svg-c13" fill="#b8d432"></path><path opacity=".2" d="M28.5 43.4C16.1 42.9 6.4 32.4 6.9 20c.3-7.7 4.5-14.4 10.6-18.2C9.4 5.3 3.7 13.3 3.7 22.7c0 12.5 10.2 22.7 22.7 22.7h1.7L28 50l6.2-7.1c-1.8.4-3.7.5-5.7.5z" class="msportalfx-svg-c06" fill="#1e1e1e"></path></g><defs>
<linearGradient id="a" x1="-1267.23" y1="3.07" x2="-1267.52" y2="14.64" gradientTransform="matrix(-1 0 0 1 -1256.13 0)" gradientUnits="userSpaceOnUse"><stop offset="0" stop-color="#32d4f5"></stop><stop offset=".23" stop-color="#31d0f1"></stop><stop offset=".46" stop-color="#2cc3e6"></stop><stop offset=".7" stop-color="#25afd4"></stop><stop offset=".94" stop-color="#1c92ba"></stop><stop offset="1" stop-color="#198ab3"></stop></linearGradient>
<linearGradient id="b" x1="6.4" y1="1.32" x2="7.21" y2="11.39"><stop offset=".22" stop-color="#32d4f5"></stop><stop offset=".47" stop-color="#31d1f3"></stop><stop offset=".63" stop-color="#2ec9eb"></stop><stop offset=".77" stop-color="#29bade"></stop><stop offset=".89" stop-color="#22a5cb"></stop><stop offset="1" stop-color="#198ab3"></stop><stop offset="1" stop-color="#198ab3"></stop></linearGradient>
<linearGradient id="c" x1="13.76" y1="18.05" x2="13.76" y2="10.25" gradientUnits="userSpaceOnUse"><stop offset="0" stop-color="#76bc2d"></stop><stop offset=".6" stop-color="#81ce31"></stop><stop offset=".82" stop-color="#86d633"></stop></linearGradient>
</defs>
</svg>