<svg viewBox="0 0 18 18" class="" role="presentation" focusable="false" xmlns="http://www.w3.org/2000/svg" xmlns:xlink="http://www.w3.org/1999/xlink" id="FxSymbol0-104" data-type="1"><g><rect y=".685" width="18" height="12" rx=".6" fill="url(#11939283429364878)"></rect><path d="M12.61 16.315c-1.78-.28-1.85-1.56-1.85-3.63H7.23c0 2.07-.06 3.35-1.84 3.63a1 1 0 0 0-.89 1h9a1 1 0 0 0-.89-1z" fill="url(#5288919613540202)"></path><path d="M10.109 2.179a.277.277 0 0 0-.135.538 4.107 4.107 0 1 1-4.486 1.837l.111.077.779.543a.048.048 0 0 0 .05-.056l-.183-2.124a.048.048 0 0 0-.055-.039L4.2 3.6a.048.048 0 0 0-.034.067l.821.541.046.031a4.647 4.647 0 1 0 5.079-2.06z" opacity=".8" class="msportalfx-svg-c01" fill="#ffffff"></path><path d="M11.183 5.8l-.334-.579.181-1.056-.849-.49-.824.685h-.668l-.824-.685-.849.49.184 1.06-.337.575-1.005.371v.981l1.005.371.334.578-.181 1.061.849.49.824-.685h.668l.824.685.849-.49-.181-1.057.334-.578 1.005-.371v-.981zm-2.16 2.346A1.481 1.481 0 1 1 10.5 6.665a1.481 1.481 0 0 1-1.477 1.481z" class="msportalfx-svg-c01" fill="#ffffff"></path></g><defs>
<linearGradient id="11939283429364878" x1="9" y1="778.831" x2="9" y2="790.831" gradientTransform="matrix(1 0 0 -1 0 791.516)" gradientUnits="userSpaceOnUse"><stop offset="0" stop-color="#0078d4"></stop><stop offset=".8" stop-color="#5ea0ef"></stop></linearGradient>
<linearGradient id="5288919613540202" x1="9" y1="774.201" x2="9" y2="778.831" gradientTransform="matrix(1 0 0 -1 0 791.516)" gradientUnits="userSpaceOnUse"><stop offset="0" stop-color="#ccc"></stop><stop offset="1" stop-color="#707070"></stop></linearGradient>
</defs>
</svg>