<svg viewBox="0 0 96 96" class="" role="presentation" focusable="false" xmlns:svg="http://www.w3.org/2000/svg" xmlns:xlink="http://www.w3.org/1999/xlink" id="FxSymbol0-0c9" data-type="1"><g><title></title><defs><clipPath id="clip-icon5_-_Risky_user"><path d="M0 0h96v96H0z"></path></clipPath></defs><g clip-path="url(#clip-icon5_-_Risky_user)"><path d="M55.409 19.716a19.888 19.888 0 0 1-19.715 20.061 19.888 19.888 0 0 1-20.061-19.715A19.888 19.888 0 0 1 35.348 0h.171a19.8 19.8 0 0 1 19.89 19.71v.006" class="msportalfx-svg-c15" fill="#59b4d9"></path><path d="M95.376 89.521l-10.094-17L75.188 54.99A3.755 3.755 0 0 0 72.001 53a3.757 3.757 0 0 0-3.188 1.992L58.72 71.46 48.626 89.523a3.726 3.726 0 0 0 3.188 5.844h40.374a3.726 3.726 0 0 0 3.188-5.846zM72.532 65.615h2.657l-1.063 15.406h-4.25l-.531-15.406zm-.531 23.372a3.187 3.187 0 0 1-3.187-3.187 3.187 3.187 0 0 1 3.187-3.187 3.187 3.187 0 0 1 3.187 3.187 3.187 3.187 0 0 1-3.187 3.187z" class="msportalfx-svg-c10" fill="#ff8c00"></path><path d="M44.995 95.5a7.712 7.712 0 0 1-.992-3.984 8.265 8.265 0 0 1 1.157-3.99l10.068-18.017.039-.07.042-.069 10.086-16.455a7.867 7.867 0 0 1 5.644-3.849v-2.873H50.061l-14.542 20.2-14.542-20.2H.001V96h45.325c-.113-.166-.231-.325-.331-.5z" class="msportalfx-svg-c15" fill="#59b4d9"></path></g></g><defs>
</defs>
</svg>