<svg viewBox="0 0 115 115" class="" role="presentation" focusable="false" xmlns="http://www.w3.org/2000/svg" xmlns:xlink="http://www.w3.org/1999/xlink" id="FxSymbol0-111" data-type="1"><g><path fill="none" d="M0 0h115v115H0z"></path><path fill="#ccebf8" d="m61.01 68.63 23.97-14.04 24.27 14.04V96.4l-24.27 13.74L61.01 96.4V68.63z"></path><path fill="#b3e3f6" d="m61.01 68.63 23.97 13.74v27.77L61.01 96.4V68.63z"></path><path fill="#75d0eb" d="M109.25 68.63 84.98 82.37v27.77l24.27-13.74V68.63z"></path><path d="M69.78 73.3 93.17 59l7.31 4.09L77.09 77.4v8.18h-.88L73 81.78h-.59l-2.92.59h-.3Z" fill="#e9f7fe"></path><path d="M70.49 8.63H9.74a3.79 3.79 0 0 0-4 3.59v77.66a3.79 3.79 0 0 0 4 3.59h49v-26l15.72-9.37V12.22a3.79 3.79 0 0 0-3.97-3.59Z" fill="url(#94a115a1-5689-4c39-bee0-5c63fda4a174)"></path><path d="M29.72 27.4a2.93 2.93 0 0 1 2.93-2.92h31.87a2.93 2.93 0 0 1 2.92 2.92v2.92a2.93 2.93 0 0 1-2.92 2.93H32.65a2.94 2.94 0 0 1-2.93-2.93ZM24.46 47a2.93 2.93 0 0 1-2.92 2.92H16A2.93 2.93 0 0 1 13.06 47v-2.93A2.93 2.93 0 0 1 16 41.14h5.56a2.93 2.93 0 0 1 2.92 2.93Zm0-16.68a2.93 2.93 0 0 1-2.92 2.93H16a2.93 2.93 0 0 1-2.92-2.93V27.4A2.93 2.93 0 0 1 16 24.48h5.56a2.93 2.93 0 0 1 2.92 2.92ZM29.72 47v-2.93a2.93 2.93 0 0 1 2.93-2.93h31.87a2.93 2.93 0 0 1 2.92 2.93V47a2.93 2.93 0 0 1-2.92 2.92H32.65A2.76 2.76 0 0 1 29.72 47" fill="#f3f3f3"></path></g><defs>
<linearGradient id="94a115a1-5689-4c39-bee0-5c63fda4a174" x1="-523.9" y1="2629.04" x2="-523.9" y2="2470.72" gradientTransform="matrix(1 0 0 -1 564 2595.44)" gradientUnits="userSpaceOnUse"><stop offset="0" stop-color="#8bb6e1"></stop><stop offset=".8" stop-color="#2e76bc"></stop></linearGradient>
</defs>
</svg>