<svg viewBox="0 0 18 18" class="" role="presentation" focusable="false" xmlns="http://www.w3.org/2000/svg" xmlns:xlink="http://www.w3.org/1999/xlink" id="FxSymbol0-0ca" data-type="1"><g><path d="M.5 5.79h17v9.48a.57.57 0 0 1-.57.57H1.07a.57.57 0 0 1-.57-.57V5.79Z" fill="url(#59616712-f700-4139-92c6-bd98d17f0250)"></path><path d="M1.07 2.17h15.86a.57.57 0 0 1 .57.57v3.05H.5V2.73a.57.57 0 0 1 .57-.56Z" fill="#198ab3"></path><path d="M2.81 6.89h12.36a.27.27 0 0 1 .27.27v1.4a.27.27 0 0 1-.27.27H2.81a.27.27 0 0 1-.26-.27v-1.4a.27.27 0 0 1 .26-.27Z" class="msportalfx-svg-c01" fill="#ffffff"></path><path d="M2.82 9.68h12.36a.27.27 0 0 1 .27.27v1.41a.27.27 0 0 1-.27.27H2.82a.26.26 0 0 1-.26-.27V10a.26.26 0 0 1 .26-.32Zm0 2.82h12.36a.27.27 0 0 1 .27.27v1.41a.27.27 0 0 1-.27.27H2.82a.26.26 0 0 1-.26-.27v-1.41a.26.26 0 0 1 .26-.27Z" fill="#9cebff"></path><path d="M5.11 7.86v5.59a.28.28 0 0 0 .28.28h2.35a.28.28 0 0 0 .26-.28v-3.32a.27.27 0 0 1 .28-.28h1.41a.27.27 0 0 1 .28.28v3.32a.28.28 0 0 0 .29.28h2.35a.28.28 0 0 0 .28-.28V7.86a.28.28 0 0 0-.28-.28H5.39a.28.28 0 0 0-.28.28Z" fill="#0078d4"></path></g><defs>
<linearGradient id="59616712-f700-4139-92c6-bd98d17f0250" x1="9" y1="15.83" x2="9" y2="5.79" gradientUnits="userSpaceOnUse"><stop offset="0" stop-color="#32bedd"></stop><stop offset=".18" stop-color="#32caea"></stop><stop offset=".41" stop-color="#32d2f2"></stop><stop offset=".78" stop-color="#32d4f5"></stop></linearGradient>
</defs>
</svg>