<svg viewBox="0 0 36 36" class="" role="presentation" focusable="false" xmlns="http://www.w3.org/2000/svg" xmlns:xlink="http://www.w3.org/1999/xlink" id="FxSymbol0-0e1" data-type="1"><g><title></title><path d="M4.332 4.925v26.149c0 2.753 6.111 4.926 13.6 4.926V4.925z" fill="#3998c5"></path><path d="M17.791 36h.217c7.566 0 13.6-2.173 13.6-4.926V4.925H17.791z" fill="#59b3d8"></path><path d="M31.613 4.926c0 2.681-6.111 4.925-13.6 4.925S4.332 7.605 4.332 4.926 10.443 0 17.936 0s13.677 2.246 13.677 4.926z" class="msportalfx-svg-c01" fill="#ffffff"></path><path d="M28.846 4.635c0 1.811-4.874 3.26-10.84 3.26S7.1 6.447 7.1 4.635s4.874-3.259 10.84-3.259 10.906 1.449 10.906 3.259z" fill="#7fb900"></path><path d="M26.52 6.591c1.455-.576 2.255-1.231 2.255-1.956 0-1.81-4.873-3.259-10.839-3.259S7.1 2.825 7.1 4.635c0 .725.873 1.449 2.256 1.956a24.751 24.751 0 0 1 8.58-1.231 26.6 26.6 0 0 1 8.584 1.231z" fill="#b7d332"></path><path d="M25.639 24.348c-2.165.444-2.314-.288-2.314-.288 2.286-3.377 3.242-7.664 2.417-8.712-2.25-2.862-6.147-1.508-6.209-1.473h-.021a7.721 7.721 0 0 0-1.446-.15 3.584 3.584 0 0 0-2.287.681s-6.948-2.85-6.624 3.583c.072 1.368 1.97 10.356 4.238 7.641.829-.993 1.63-1.832 1.63-1.832a2.108 2.108 0 0 0 1.374.35l.039-.033a1.482 1.482 0 0 0 .016.388c-.585.648-.413.764-1.581 1s-.487.674-.035.787a2.4 2.4 0 0 0 2.68-.864l-.035.137a3.872 3.872 0 0 1 .362 2.1 5.777 5.777 0 0 0 .135 2.025c.18.488.362 1.588 1.9 1.26a2.259 2.259 0 0 0 2.039-2.167c.066-.84.217-.719.224-1.468l.119-.356c.138-1.14.022-1.508.812-1.337l.192.017a4.4 4.4 0 0 0 1.79-.3c.963-.444 1.533-1.187.585-.992z" fill="#336790"></path><path d="M16.5 18.706a.922.922 0 0 0-.313-.1.672.672 0 0 0-.461.065.172.172 0 0 0-.048.049.156.156 0 0 0-.024.063c-.021.144.194.415.463.452a.473.473 0 0 0 .065 0 .509.509 0 0 0 .459-.293l.007-.025c.008-.04-.002-.131-.148-.211zm5.982-.225a.878.878 0 0 0-.311-.007c-.224.033-.442.133-.424.265v.013a.45.45 0 0 0 .169.2.456.456 0 0 0 .249.073h.059a.546.546 0 0 0 .308-.169.352.352 0 0 0 .116-.234c-.007-.07-.067-.122-.166-.141z" class="msportalfx-svg-c01" fill="#ffffff"></path><path d="M26.293 24.32c-.105-.318-.56-.223-.71-.192-1.525.313-1.952 0-2.041-.083a17.641 17.641 0 0 0 2.358-5.282c.422-1.679.414-3.012-.018-3.561a4.935 4.935 0 0 0-3.832-1.887 7.449 7.449 0 0 0-2.564.341h-.018l-.029.01-.026.01a6.024 6.024 0 0 0-1.357-.176 3.868 3.868 0 0 0-2.295.648 10.126 10.126 0 0 0-2.2-.549 4.557 4.557 0 0 0-3.245.582c-1 .711-1.472 1.987-1.381 3.793.044.852 1.3 7.636 3.26 8.289a1.2 1.2 0 0 0 1.331-.527c.7-.838 1.353-1.533 1.518-1.706a2.4 2.4 0 0 0 1.141.3.8.8 0 0 0 .009.12c-.072.082-.137.164-.206.251-.263.333-.325.411-1.176.586-.345.072-.8.205-.811.545s.473.554.756.624a2.59 2.59 0 0 0 2.634-.635 17.4 17.4 0 0 0 .254 4.032 1.884 1.884 0 0 0 1.811 1.389 2.853 2.853 0 0 0 .6-.068 2.284 2.284 0 0 0 2.107-2.132c.125-.72.342-2.47.434-3.351a2.233 2.233 0 0 0 .811.122 4.5 4.5 0 0 0 1.7-.319c.555-.252 1.318-.772 1.185-1.174zm-4.041.936c-.038.492-.323 2.862-.472 3.721a1.907 1.907 0 0 1-1.8 1.813 1.523 1.523 0 0 1-1.965-1.08 21.229 21.229 0 0 1-.21-4.7.178.178 0 0 0-.02-.088.991.991 0 0 0-.037-.18 1 1 0 0 0-.184-.344.99.99 0 0 0-.3-.245l-.024-.013a.729.729 0 0 0-.629-.037 5.028 5.028 0 0 1 .259-.822l.041-.108c.046-.124.1-.247.162-.383a5.316 5.316 0 0 0 .279-3.857 1.328 1.328 0 0 0-.573-.887 1.335 1.335 0 0 0-1.041-.193 3.951 3.951 0 0 0-1.528.543 5.813 5.813 0 0 1 1.342-3.557 3.316 3.316 0 0 1 2.5-.936 5.167 5.167 0 0 1 3.761 1.635 6.066 6.066 0 0 1 1.373 2.246c-1.031-.123-1.725.062-2.066.547-.723 1.034.421 3.082.973 4.067.094.168.192.341.222.415a3.641 3.641 0 0 0 .582.931 1.912 1.912 0 0 1 .2.268l-.047.013c-.292.078-.838.231-.789 1.228zm-9.925.635c-.658-.216-1.388-1.532-2.057-3.7a23.65 23.65 0 0 1-.931-4.232c-.083-1.663.325-2.823 1.214-3.45a3.612 3.612 0 0 1 2.1-.563 9.117 9.117 0 0 1 2.743.5 1.5 1.5 0 0 0-.127.116 6.51 6.51 0 0 0-1.469 4.279v.013a12.545 12.545 0 0 1-.045 2.466 2.707 2.707 0 0 0 .718 2.27 2.26 2.26 0 0 0 .243.216c-.25.265-.846.908-1.489 1.68-.31.369-.605.5-.9.4zm1.821-4.521a12.929 12.929 0 0 0 .051-2.488 3.056 3.056 0 0 1 2.025-.628.873.873 0 0 1 .737.763 4.922 4.922 0 0 1-.255 3.611c-.06.133-.122.27-.173.406l-.041.108a6.265 6.265 0 0 0-.261.8 1.972 1.972 0 0 1-1.476-.625 2.322 2.322 0 0 1-.607-1.948zm2.436 3.246l.019-.024a.328.328 0 0 1 .2-.14.335.335 0 0 1 .242.033l.032.017a.6.6 0 0 1 .264.792 2.212 2.212 0 0 1-2.468.792 1.065 1.065 0 0 1-.462-.226 1.1 1.1 0 0 1 .486-.175c.95-.193 1.085-.321 1.408-.728.072-.092.162-.205.282-.339zm6.1-1.954c-.038-.091-.122-.24-.237-.448l-.005-.008c-.473-.843-1.578-2.818-.995-3.649a1.33 1.33 0 0 1 1.146-.414 4.872 4.872 0 0 1 .627.047 5.113 5.113 0 0 1-.079.828 6.745 6.745 0 0 0-.094.875 6.584 6.584 0 0 0 .072.992 3.5 3.5 0 0 1-.223 2.18 2.631 2.631 0 0 1-.211-.4zm2.716-3.59a19.827 19.827 0 0 1-2.072 4.58 1.744 1.744 0 0 0-.123-.158l-.046-.059-.013-.016a3.668 3.668 0 0 0 .354-2.589 6.1 6.1 0 0 1-.067-.926 6.618 6.618 0 0 1 .09-.831 4.991 4.991 0 0 0 .083-1.013.331.331 0 0 0 .011-.129 6.178 6.178 0 0 0-3.548-4.038c3.238-.788 4.917.817 5.5 1.55.434.55.369 1.839-.173 3.629zM23.154 24.4a1.066 1.066 0 0 0 .145-.047 1.076 1.076 0 0 0 .1.077 3.25 3.25 0 0 0 2.268.082 1.317 1.317 0 0 1 .208-.028 2.585 2.585 0 0 1-.915.649 3.573 3.573 0 0 1-2.26.167c-.039-.023-.047-.04-.048-.044-.041-.7.235-.777.506-.852z" class="msportalfx-svg-c01" fill="#ffffff"></path><ellipse cx="30.026" cy="30.331" rx="6.665" ry="4.836" transform="rotate(-40.155 30.027 30.331)" fill="#00791e"></ellipse><path d="M35.121 26.033a3.894 3.894 0 0 0-2.4-1.282l-5.679 11.094a7.273 7.273 0 0 0 6.1-1.818c2.816-2.374 3.701-5.953 1.979-7.994z" opacity=".2" class="msportalfx-svg-c01" fill="#ffffff"></path><path d="M28.385 32.419c-1.351-.57-1.447-2.816.095-3.955 2.5-1.791 2.653.789.654 1.123-.008.926 2.607.817 3.727-1.257 1.26-2.333-2.441-3.81-5.65-.273-2.052 2.263-2.1 5.36-.291 6.035a5.478 5.478 0 0 0 7.026-5.73c-1.729 4.05-4.192 4.638-5.561 4.057z" class="msportalfx-svg-c01" fill="#ffffff"></path></g><defs>
</defs>
</svg>