<svg viewBox="0 0 50 50" class="" role="presentation" focusable="false" xmlns:svg="http://www.w3.org/2000/svg" xmlns:xlink="http://www.w3.org/1999/xlink" id="FxSymbol0-0cb" data-type="1"><g><title></title><path d="M6.7 28.6c0 2.4 2 4.5 4.6 4.8h29.6c5 0 9.1-3.8 9.1-8.5 0-4.8-4.1-8.5-9.1-8.5-1.1 0-2 .3-3 .5-1.8-5-6.8-8.5-12.6-8.5h-.1c-7.4 0-13.3 5.6-13.3 12.4 0 1.1.3 2.3.5 3.3h-.7c-2.7-.2-5 1.8-5 4.5" class="msportalfx-svg-c19" fill="#0072c6"></path><path d="M0 34.9c0 2.7 2.2 5 5.1 5.3H38c5.6 0 10.1-4.2 10.1-9.5s-4.5-9.5-10.1-9.5c-1.2 0-2.3.3-3.3.6-2-5.6-7.5-9.5-14-9.5h-.1c-8.2 0-14.8 6.2-14.8 13.8 0 1.3.3 2.5.6 3.6h-.8c-3 0-5.6 2.2-5.6 5.2" class="msportalfx-svg-c15" fill="#59b4d9"></path><path opacity=".2" d="M20.7 12.3h-.1c-8.2 0-14.8 6.2-14.8 13.8 0 1.3.3 2.5.6 3.6h-.8c-3 0-5.6 2.2-5.6 5.2 0 2.7 2.2 5 5.1 5.3h.8c-3-6.8 4.4-8.2 4.4-8.2-.7-16.7 15-18.6 15.4-18.8-1.5-.6-3.2-.9-5-.9z" class="msportalfx-svg-c01" fill="#ffffff"></path><path d="M16.3 23.6h4.9l7.2 7.2-9.5 9.4h-4.8l9.3-9.4zm11-10.7h5l5.7 5.8-7.1 6.9h-4.6l6.7-7zm5.8 12.9H38l4.8 4.8-6.6 6.5h-4.8l6.4-6.5z" class="msportalfx-svg-c01" fill="#ffffff"></path></g><defs>
<linearGradient id="a" x1="9" y1="16.39" x2="9" y2="-1.94" gradientUnits="userSpaceOnUse"><stop offset="0" stop-color="#0078d4"></stop><stop offset=".16" stop-color="#1380da"></stop><stop offset=".53" stop-color="#3c91e5"></stop><stop offset=".82" stop-color="#559cec"></stop><stop offset="1" stop-color="#5ea0ef"></stop></linearGradient>
<linearGradient id="b" x1="9.88" y1="7.11" x2="9.99" y2="17.27" gradientUnits="userSpaceOnUse"><stop offset="0" stop-color="#32d4f5"></stop><stop offset=".32" stop-color="#31d1f3"></stop><stop offset=".53" stop-color="#2ec9eb"></stop><stop offset=".7" stop-color="#29bade"></stop><stop offset=".86" stop-color="#22a5cb"></stop><stop offset="1" stop-color="#198ab3"></stop><stop offset="1" stop-color="#198ab3"></stop></linearGradient>
<radialGradient id="c" cx="9.43" cy="7.03" r="7.27" gradientUnits="userSpaceOnUse"><stop offset="0" stop-color="#f2f2f2"></stop><stop offset=".58" stop-color="#eee"></stop><stop offset="1" stop-color="#e6e6e6"></stop></radialGradient>
</defs>
</svg>