<svg viewBox="0 0 18 18" class="" role="presentation" focusable="false" xmlns="http://www.w3.org/2000/svg" xmlns:xlink="http://www.w3.org/1999/xlink" id="FxSymbol0-147" data-type="1"><g><title></title><path fill="#32bedd" d="M16.41 4.004v7.967l-6.885 4.003V7.995l6.885-3.991z"></path><path fill="#9cebff" d="M16.41 4.004 9.526 8.006 2.64 4.003 9.526 0l6.884 4.004z"></path><path fill="#50e6ff" d="M9.525 8.006v7.968L2.64 11.971V4.003l6.885 4.003z"></path><path fill="#9cebff" d="m2.64 11.971 6.885-3.976v7.979L2.64 11.971z"></path><path fill="#50e6ff" d="M16.41 11.971 9.525 7.995v7.979l6.885-4.003z"></path><path d="m13.087 14.679-3.334 3.273a.168.168 0 0 1-.286-.122l.017-1.82v-.11c-3.975-.037-7.931-2.2-7.895-6.023.56.857 3.378 3.152 7.921 3.2v-.033l.017-1.819a.168.168 0 0 1 .288-.117l3.272 3.335a.167.167 0 0 1 0 .236Z" fill="#773adc"></path></g><defs>
</defs>
</svg>