<svg viewBox="0 0 18 18" class="" role="presentation" focusable="false" xmlns="http://www.w3.org/2000/svg" xmlns:xlink="http://www.w3.org/1999/xlink" id="FxSymbol0-145" data-type="1"><g><path d="M6.181 15.007a.84.84 0 0 1 .271-.615.844.844 0 0 1-.271-.616V11.6a.851.851 0 0 1 .85-.85h6.642a6.352 6.352 0 0 0-5.8-3.324c-4.275 0-6.614 2.712-7.076 7.1a1.263 1.263 0 0 0 1.126 1.38l4.258.02Z" fill="url(#59616712-f700-4139-92c6-bd98d17f02fc)"></path><path d="M7.931 8.363a3.923 3.923 0 0 1-2.107-.632l2.107 5.529 2.1-5.486a4.021 4.021 0 0 1-2.1.589Z" opacity=".8" class="msportalfx-svg-c01" fill="#ffffff"></path><circle cx="7.898" cy="4.415" r="3.949" fill="url(#59616712-f700-4139-92c6-bd98d17f02fd)"></circle><rect x="6.679" y="11.249" width="10.53" height="2.879" rx=".352" fill="url(#59616712-f700-4139-92c6-bd98d17f02fe)"></rect><rect x="15.573" y="11.753" width=".787" height=".787" rx=".176" class="msportalfx-svg-c01" fill="#ffffff"></rect><rect x="15.573" y="12.837" width=".787" height=".787" rx=".176" opacity=".6" class="msportalfx-svg-c01" fill="#ffffff"></rect><rect x="6.679" y="14.655" width="10.53" height="2.879" rx=".352" fill="url(#59616712-f700-4139-92c6-bd98d17f02ff)"></rect><rect x="15.573" y="15.159" width=".787" height=".787" rx=".176" class="msportalfx-svg-c01" fill="#ffffff"></rect><rect x="15.573" y="16.244" width=".787" height=".787" rx=".176" opacity=".6" class="msportalfx-svg-c01" fill="#ffffff"></rect></g><defs>
<linearGradient id="59616712-f700-4139-92c6-bd98d17f02fc" x1="7.268" y1="7.422" x2="7.209" y2="15.946" gradientUnits="userSpaceOnUse"><stop offset="0" stop-color="#a67af4"></stop><stop offset="1" stop-color="#773adc"></stop></linearGradient>
<linearGradient id="59616712-f700-4139-92c6-bd98d17f02fd" x1="7.926" y1=".466" x2="7.871" y2="8.364" gradientUnits="userSpaceOnUse"><stop offset="0" stop-color="#a67af4"></stop><stop offset="1" stop-color="#773adc"></stop></linearGradient>
<linearGradient id="59616712-f700-4139-92c6-bd98d17f02fe" x1="11.954" y1="11.215" x2="11.934" y2="14.162" gradientUnits="userSpaceOnUse"><stop offset="0" stop-color="#3cd4c2"></stop><stop offset="1" stop-color="#37c2b1"></stop></linearGradient>
<linearGradient id="59616712-f700-4139-92c6-bd98d17f02ff" x1="11.954" y1="14.621" x2="11.934" y2="17.569" gradientUnits="userSpaceOnUse"><stop offset="0" stop-color="#3cd4c2"></stop><stop offset="1" stop-color="#37c2b1"></stop></linearGradient>
</defs>
</svg>