<svg viewBox="0 0 18 18" class="" role="presentation" focusable="false" xmlns="http://www.w3.org/2000/svg" xmlns:xlink="http://www.w3.org/1999/xlink" id="FxSymbol0-0ee" data-type="1"><g><path fill="#003067" d="M5.459 3.98l.464-.862 5.445 2.929-.464.863z"></path><path fill="url(#955724ae-8582-4ca1-9b57-4284a5f54117)" d="M7.081 4.2V1.5H.33v2.7c0 .716 1.511 1.3 3.376 1.3s3.376-.58 3.376-1.3z"></path><ellipse cx="3.707" cy="1.546" fill="#83b9f9" rx="3.376" ry="1.296"></ellipse><path fill="url(#955724ae-8582-4ca1-9b57-4284a5f54118)" d="M16.115 8.616v-2.7h-6.75v2.7c0 .716 1.511 1.3 3.376 1.3s3.376-.58 3.376-1.3z"></path><ellipse cx="12.741" cy="5.96" fill="#83b9f9" rx="3.376" ry="1.296"></ellipse><path fill="#003067" d="M3.22 4.168h.98v7.962h-.98z"></path><circle cx="3.75" cy="3.337" r="1.157" fill="#c3f1ff"></circle><path fill="url(#955724ae-8582-4ca1-9b57-4284a5f54119)" d="M7.081 12.824v-2.7H.33v2.7c0 .716 1.511 1.3 3.376 1.3s3.376-.58 3.376-1.3z"></path><ellipse cx="3.707" cy="10.167" fill="#83b9f9" rx="3.376" ry="1.296"></ellipse><path fill="#003067" d="M3.99 11.36l8.745-4.291.432.88-8.745 4.29z"></path><circle cx="3.701" cy="11.939" r="1.157" fill="#c3f1ff"></circle><circle cx="12.743" cy="7.548" r="1.157" fill="#c3f1ff"></circle><path fill="#003067" d="M17.166 15.5a.255.255 0 00-.1-.185A17 17 0 0015.563 14a3.563 3.563 0 00-2.638-.706 5.515 5.515 0 00-3.339 2.066.224.224 0 00-.058.14.26.26 0 00.1.186 17.319 17.319 0 001.507 1.315 3.568 3.568 0 002.637.706 5.517 5.517 0 003.339-2.066.229.229 0 00.059-.141z"></path><circle cx="13.381" cy="15.501" r="1.846" fill="#c3f1ff"></circle><path fill="#003067" d="M13.389 14.478a.875.875 0 00-.144.029.537.537 0 01.1.292.559.559 0 01-.559.558.548.548 0 01-.368-.145.985.985 0 00-.062.3 1.038 1.038 0 101.038-1.037zm4.14-1.006a6.582 6.582 0 00-1.929-1.231l.437-.776a.458.458 0 00.044-.34.441.441 0 00-.806-.106l-.535.952a5.762 5.762 0 00-.914-.143v-.975a.442.442 0 00-.883 0v.974a5.879 5.879 0 00-.934.144l-.536-.952a.442.442 0 00-.6-.158.45.45 0 00-.159.6l.437.776a6.582 6.582 0 00-1.931 1.231c-.422.382.2 1 .624.624a5.183 5.183 0 017.067 0c.415.384 1.04-.238.618-.62z"></path><path fill="none" stroke="#b31b1b" stroke-miterlimit="10" d="M-4.934-3.691h29.331V30.57H-4.934z"></path></g><defs>
<linearGradient id="955724ae-8582-4ca1-9b57-4284a5f54117" x1="3.707" x2="3.707" y1="5.123" y2="2.061" gradientUnits="userSpaceOnUse"><stop offset="0" stop-color="#0078d4"></stop><stop offset="1" stop-color="#5ea0ef"></stop></linearGradient>
<linearGradient id="955724ae-8582-4ca1-9b57-4284a5f54118" x1="12.741" x2="12.741" y1="10.558" y2="5.161" gradientUnits="userSpaceOnUse"><stop offset="0" stop-color="#0078d4"></stop><stop offset="1" stop-color="#5ea0ef"></stop></linearGradient>
<linearGradient id="955724ae-8582-4ca1-9b57-4284a5f54119" x1="3.707" x2="3.707" y1="13.723" y2="10.378" gradientUnits="userSpaceOnUse"><stop offset="0" stop-color="#0078d4"></stop><stop offset="1" stop-color="#5ea0ef"></stop></linearGradient>
</defs>
</svg>