<svg viewBox="0 0 24 24" class="" role="presentation" focusable="false" xmlns="http://www.w3.org/2000/svg" xmlns:xlink="http://www.w3.org/1999/xlink" id="FxSymbol0-10f" data-type="1"><g><title></title><path d="M18.912 7.83h-.252c.145-.467.18-.971.18-1.473C18.876 3.265 16.356.75 13.296.75a5.507 5.507 0 0 0-5.255 3.811 3.493 3.493 0 0 0-1.225-.217C4.692 4.344 3 6.07 3 8.189A3.784 3.784 0 0 0 6.78 12H11V9H8.5l4-4 4 4H14v3h5.056C20.172 11.893 21 10.994 21 9.914a2.089 2.089 0 0 0-2.088-2.084z" class="msportalfx-svg-c19" fill="#0072c6"></path><path d="M2 16.5v4c0 .828 1.343 1.5 3 1.5s3-.672 3-1.5v-4H2z" fill="#3c9be4"></path><path d="M5 16.5H2v4c0 .828 1.343 1.5 3 1.5v-5.5z" opacity=".25" class="msportalfx-svg-c01" fill="#ffffff"></path><ellipse cx="5" cy="16.5" rx="3" ry="1.5" class="msportalfx-svg-c13" fill="#b8d432"></ellipse><path d="M3 24H0V13h3v1H1v9h2zm18 0h3V13h-3v1h2v9h-2z" class="msportalfx-svg-c03" fill="#a0a1a2"></path><path d="M4.5 9.438a4.061 4.061 0 0 1 5.982-3.58 5.606 5.606 0 0 1 7.752-2.071C17.313 1.986 15.438.75 13.296.75a5.507 5.507 0 0 0-5.255 3.811 3.493 3.493 0 0 0-1.225-.217C4.692 4.344 3 6.07 3 8.189c0 1.518.874 2.803 2.132 3.416A4.019 4.019 0 0 1 4.5 9.438z" fill="#ecf0f1" opacity=".2"></path><path d="M9 16.5v4c0 .828 1.343 1.5 3 1.5s3-.672 3-1.5v-4H9z" fill="#3c9be4"></path><path d="M12 16.5H9v4c0 .828 1.343 1.5 3 1.5v-5.5z" opacity=".25" class="msportalfx-svg-c01" fill="#ffffff"></path><ellipse cx="12" cy="16.5" rx="3" ry="1.5" class="msportalfx-svg-c13" fill="#b8d432"></ellipse><path d="M16 16.5v4c0 .828 1.343 1.5 3 1.5s3-.672 3-1.5v-4h-6z" fill="#3c9be4"></path><path d="M19 16.5h-3v4c0 .828 1.343 1.5 3 1.5v-5.5z" opacity=".25" class="msportalfx-svg-c01" fill="#ffffff"></path><ellipse cx="19" cy="16.5" rx="3" ry="1.5" class="msportalfx-svg-c13" fill="#b8d432"></ellipse></g><defs>
</defs>
</svg>