<svg viewBox="0 0 18 18" class="" role="presentation" focusable="false" xmlns="http://www.w3.org/2000/svg" xmlns:xlink="http://www.w3.org/1999/xlink" id="FxSymbol0-123" data-type="1"><g><path d="M7.773 3.682 0 11.455v4.909A1.637 1.637 0 0 0 1.636 18h14.728A1.637 1.637 0 0 0 18 16.364V1.636A1.637 1.637 0 0 0 16.364 0h-.819L9.818 5.727Z" fill="url(#59616712-f700-4139-92c6-bd98d17f02c4)"></path><path d="M7.773 8.591.586 15.778a1.194 1.194 0 0 0-.381 1.379A1.635 1.635 0 0 0 1.636 18h14.728A1.637 1.637 0 0 0 18 16.364V2.455l-8.182 8.181Z" fill="url(#59616712-f700-4139-92c6-bd98d17f02c5)"></path><path d="M9.818 5.727 15.545 0H1.636A1.637 1.637 0 0 0 0 1.636v9.819l7.773-7.773Z" fill="url(#59616712-f700-4139-92c6-bd98d17f02c6)"></path></g><defs>
<linearGradient id="59616712-f700-4139-92c6-bd98d17f02c4" x1="15.601" y1="771.736" x2="2.537" y2="793.07" gradientTransform="matrix(1 0 0 -1 0 791.516)" gradientUnits="userSpaceOnUse"><stop offset="0" stop-color="#0078d4"></stop><stop offset="1" stop-color="#289bf2"></stop></linearGradient>
<linearGradient id="59616712-f700-4139-92c6-bd98d17f02c5" x1="5.138" y1="789.264" x2="13.27" y2="773.77" gradientTransform="matrix(1 0 0 -1 0 791.516)" gradientUnits="userSpaceOnUse"><stop offset="0" stop-color="#00ccf9"></stop><stop offset="1" stop-color="#0095e6"></stop></linearGradient>
<linearGradient id="59616712-f700-4139-92c6-bd98d17f02c6" x1="5.768" y1="791.577" x2="9.72" y2="780.168" gradientTransform="matrix(1 0 0 -1 0 791.516)" gradientUnits="userSpaceOnUse"><stop offset="0" stop-color="#7cecff"></stop><stop offset="1" stop-color="#50e6ff"></stop></linearGradient>
</defs>
</svg>