<svg viewBox="0 0 40 40" class="" role="presentation" focusable="false" xmlns:svg="http://www.w3.org/2000/svg" xmlns:xlink="http://www.w3.org/1999/xlink" id="FxSymbol0-05b" data-type="1"><g><title></title><path d="M19 19H2V2h17v17zM5 16h11V5H5v11zm33 3H21V2h17v17zm-14-3h11V5H24v11zm-5 22H2V21h17v17zM5 35h11V24H5v11zm33 3H21V21h17v17zm-14-3h11V24H24v11z" fill="url(#paint0_linear)"></path><path d="M38 16v3H23.9v-3H38z" fill="url(#paint1_linear)"></path><path d="M2 19v-3h14.1v3H2z" fill="url(#paint2_linear)"></path><path d="M16 2h3v14h-3V2z" fill="url(#paint3_linear)"></path><path d="M21 2h3v14h-3V2z" fill="url(#paint4_linear)"></path><path d="M24 38h-3V24h3v14z" fill="url(#paint5_linear)"></path><path d="M19 38h-3V24h3v14z" fill="url(#paint6_linear)"></path><path d="M38 21v3H23.9v-3H38z" fill="url(#paint7_linear)"></path><path d="M2 24v-3h14.1v3H2z" fill="url(#paint8_linear)"></path><path d="M32 19.8c0-2.8-.8-6.3-2.2-10.4-.3.8-.8 1.5-1.2 2.1C26.3 9.3 23.3 8 20 8 13.4 8 8 13.4 8 20s5.4 12 12 12 12-5.4 12-12v-.2z" fill="#5FB832"></path><path d="M29.7 25.4c-3 3.9-9.3 2.6-13.3 2.8 0 0-.7 0-1.4.1l.6-.2c2.8-1 4.2-1.2 5.9-2.1 3.3-1.7 6.5-5.3 7.1-9.1-1.2 3.7-5 6.8-8.4 8-2.3.9-6.6 1.7-6.6 1.7l-.2-.1c-2.9-1.4-3-7.7 2.2-9.7 2.3-.9 4.5-.4 7-1 2.7-.7 5.7-2.6 7-5.2 1.5 4.3 3.1 10.8.1 14.8zm-16.9 3.9a1 1 0 1 0 0-2 1 1 0 0 0 0 2z" class="msportalfx-svg-c01" fill="#ffffff"></path><defs></defs></g><defs>
<linearGradient id="paint0_linear" x1="25.405" y1="11.03" x2="25.405" y2="30.221" gradientUnits="userSpaceOnUse"><stop stop-color="#FFD70F"></stop><stop offset=".12" stop-color="#FC1"></stop><stop offset=".44" stop-color="#FEB517"></stop><stop offset=".75" stop-color="#FEA61A"></stop><stop offset="1" stop-color="#FEA11B"></stop></linearGradient>
<linearGradient id="paint1_linear" x1="153.547" y1="263.242" x2="153.547" y2="98.855" gradientUnits="userSpaceOnUse"><stop stop-color="#949494"></stop><stop offset=".41" stop-color="#C1C1C1"></stop><stop offset="1" stop-color="#fff"></stop></linearGradient>
<linearGradient id="paint2_linear" x1="16.068" y1="17.5" x2="2" y2="17.5" gradientUnits="userSpaceOnUse"><stop stop-color="#00315C"></stop><stop offset=".785" stop-color="#0080E5"></stop></linearGradient>
<linearGradient id="paint3_linear" x1="17.5" y1="16" x2="17.5" y2="3.783" gradientUnits="userSpaceOnUse"><stop stop-color="#00315C"></stop><stop offset=".785" stop-color="#008AF0"></stop></linearGradient>
<linearGradient id="paint4_linear" x1="22.5" y1="16" x2="22.5" y2="3.783" gradientUnits="userSpaceOnUse"><stop stop-color="#00315C"></stop><stop offset=".785" stop-color="#008AF0"></stop></linearGradient>
<linearGradient id="paint5_linear" x1="22.5" y1="24.404" x2="22.5" y2="38.172" gradientUnits="userSpaceOnUse"><stop stop-color="#00294F"></stop><stop offset=".704" stop-color="#005BA6"></stop><stop offset=".828" stop-color="#0457AC"></stop><stop offset="1" stop-color="#0050B2"></stop></linearGradient>
<linearGradient id="paint6_linear" x1="17.5" y1="24.404" x2="17.5" y2="38.172" gradientUnits="userSpaceOnUse"><stop stop-color="#00294F"></stop><stop offset=".704" stop-color="#005BA6"></stop><stop offset=".828" stop-color="#0457AC"></stop><stop offset="1" stop-color="#0050B2"></stop></linearGradient>
<linearGradient id="paint7_linear" x1="23.932" y1="22.5" x2="38" y2="22.5" gradientUnits="userSpaceOnUse"><stop stop-color="#00315C"></stop><stop offset=".579" stop-color="#0E71C7"></stop><stop offset="1" stop-color="#0A75D5"></stop></linearGradient>
<linearGradient id="paint8_linear" x1="16.068" y1="22.5" x2="2" y2="22.5" gradientUnits="userSpaceOnUse"><stop stop-color="#00315C"></stop><stop offset=".579" stop-color="#0E71C7"></stop><stop offset="1" stop-color="#0A75D5"></stop></linearGradient>
</defs>
</svg>