<svg viewBox="0 0 18 18" class="" role="presentation" focusable="false" xmlns="http://www.w3.org/2000/svg" xmlns:xlink="http://www.w3.org/1999/xlink" id="FxSymbol0-088" data-type="1"><g><title>Icon-analytics-145</title><path d="M1.47 1.47l15.06 15.06a.57.57 0 0 0 1-.4V1.07a.57.57 0 0 0-.6-.57H1.87a.57.57 0 0 0-.4.97z" fill="url(#5695662989764969)"></path><path d="M5.53 5.53l6.94 6.94 5-5v-6.4a.57.57 0 0 0-.54-.57h-6.37z" fill="#50e6ff"></path><rect x="-.38" y="12.85" width="9.37" height="1.7" rx=".27" transform="rotate(-45 4.307 13.706)" fill="url(#11010471982487724)"></rect><rect x=".12" y="9.23" width="5.99" height="1.7" rx=".27" transform="rotate(-45 3.107 10.083)" fill="url(#8497551904656575)"></rect><rect x="4.89" y="14.04" width="5.99" height="1.7" rx=".27" transform="rotate(-45 7.877 14.887)" fill="url(#09595241863098636)"></rect><rect x="9.19" y="4.75" width="1.7" height="1.7" rx=".38" transform="rotate(-45 10.04 5.601)" class="msportalfx-svg-c01" fill="#ffffff"></rect><rect x="11.59" y="2.35" width="1.7" height="1.7" rx=".38" transform="rotate(-45 12.435 3.2)" class="msportalfx-svg-c01" fill="#ffffff"></rect><rect x="11.59" y="7.15" width="1.7" height="1.7" rx=".38" transform="rotate(-45 12.442 7.996)" class="msportalfx-svg-c01" fill="#ffffff"></rect><path d="M13.91 5.33l.66-.66a.38.38 0 0 1 .54 0l.66.66a.38.38 0 0 1 0 .54l-.66.66a.38.38 0 0 1-.54 0l-.66-.66a.38.38 0 0 1 0-.54" class="msportalfx-svg-c01" fill="#ffffff"></path></g><defs>
<linearGradient id="5695662989764969" x1="1.3" y1="8.6" x2="17.5" y2="8.6" gradientUnits="userSpaceOnUse"><stop offset=".1" stop-color="#54aef0"></stop><stop offset="1" stop-color="#1988d9"></stop></linearGradient>
<linearGradient id="11010471982487724" x1=".5" y1="13.7" x2="8.11" y2="13.7" gradientTransform="rotate(45 4.304 13.703)" gradientUnits="userSpaceOnUse"><stop offset="0" stop-color="#b3b2b3"></stop><stop offset="1" stop-color="#979797"></stop></linearGradient>
<linearGradient id="8497551904656575" x1=".5" y1="10.08" x2="5.72" y2="10.08" gradientTransform="rotate(45 3.115 10.08)" gradientUnits="userSpaceOnUse"><stop offset="0" stop-color="#b3b2b3"></stop><stop offset="1" stop-color="#979797"></stop></linearGradient>
<linearGradient id="09595241863098636" x1="5.28" y1="14.89" x2="10.49" y2="14.89" gradientTransform="rotate(45 7.88 14.894)" gradientUnits="userSpaceOnUse"><stop offset="0" stop-color="#b3b2b3"></stop><stop offset="1" stop-color="#979797"></stop></linearGradient>
</defs>
</svg>