<svg viewBox="0 0 18 18" class="" role="presentation" focusable="false" xmlns="http://www.w3.org/2000/svg" xmlns:xlink="http://www.w3.org/1999/xlink" id="FxSymbol0-0e5" data-type="1"><g><path d="M17.567 15.119c-.159.7-1.029 1.382-2.6 1.916a21.455 21.455 0 0 1-12.052.017C1.466 16.539.684 15.89.562 15.221c-.021-.118 0-1.954 0-1.954l17.038-.158s-.013 1.924-.033 2.01z" fill="#5ea0ef"></path><ellipse cx="9.07" cy="13.229" rx="8.525" ry="2.947" transform="rotate(-.575 9.101 13.199)" fill="#50e6ff"></ellipse><path d="M18 8.934a4.044 4.044 0 0 0-3.51-3.887A5.1 5.1 0 0 0 9.24.173a5.228 5.228 0 0 0-5 3.407A4.826 4.826 0 0 0 0 8.224a4.9 4.9 0 0 0 5.068 4.706c.151 0 .3-.007.447-.019h8.207a.819.819 0 0 0 .217-.032A4.093 4.093 0 0 0 18 8.934z" fill="url(#adfa8e4e-1f23-48f9-9e52-8a2742c1922a)"></path><rect x="4.47" y="6.267" width="8.973" height="2.453" rx=".3" fill="#9cebff"></rect><rect x="4.47" y="9.123" width="8.973" height="2.453" rx=".3" fill="#50e6ff"></rect><rect x="4.47" y="12.027" width="8.973" height="2.453" rx=".3" fill="#32bedd"></rect><path d="M12.569 7.367H12.2a.15.15 0 0 1-.15-.15v-.371a.15.15 0 0 1 .15-.15h.37a.15.15 0 0 1 .15.15v.371a.15.15 0 0 1-.151.15zm.15.774v-.37a.15.15 0 0 0-.15-.15H12.2a.15.15 0 0 0-.15.15v.37a.15.15 0 0 0 .15.15h.37a.15.15 0 0 0 .149-.15zm0 1.932V9.7a.15.15 0 0 0-.15-.15H12.2a.15.15 0 0 0-.15.15v.371a.15.15 0 0 0 .15.15h.37a.15.15 0 0 0 .149-.148zm0 .924v-.371a.15.15 0 0 0-.15-.15H12.2a.15.15 0 0 0-.15.15V11a.15.15 0 0 0 .15.15h.37a.15.15 0 0 0 .149-.15zm0 1.98v-.371a.15.15 0 0 0-.15-.15H12.2a.15.15 0 0 0-.15.15v.371a.15.15 0 0 0 .15.15h.37a.15.15 0 0 0 .149-.15zm0 .924v-.37a.15.15 0 0 0-.15-.15H12.2a.15.15 0 0 0-.15.15v.37a.15.15 0 0 0 .15.15h.37a.15.15 0 0 0 .149-.151z" class="msportalfx-svg-c01" fill="#ffffff"></path></g><defs>
<linearGradient id="adfa8e4e-1f23-48f9-9e52-8a2742c1922a" x1="9" y1="12.93" x2="9" y2=".173" gradientUnits="userSpaceOnUse"><stop offset="0" stop-color="#0078d4"></stop><stop offset="1" stop-color="#5ea0ef"></stop></linearGradient>
</defs>
</svg>