<svg viewBox="0 0 104.26 112.97" class="" role="presentation" focusable="false" xmlns="http://www.w3.org/2000/svg" xmlns:xlink="http://www.w3.org/1999/xlink" id="FxSymbol0-081" data-type="1"><g><title></title><path fill="#ff3621" d="M0 29.44v3.4l52.13 29.41 46.56-26.29.01 10.62-46.57 26.46L2.62 44.91 0 46.37v20.35l52.13 29.34 46.56-26.2.01 10.54-46.57 26.46L2.62 78.73 0 80.19v3.45l52.13 29.33 52.13-29.33V63.27l-2.63-1.45-49.5 28.13L5.56 63.49V53l46.57 26.17 52.13-29.34V29.76l-2.63-1.46-49.5 28.14L7.95 31.33 52.13 6.38l36.39 20.56 3.18-1.79v-2.8L52.13 0 0 29.44z"></path></g><defs>
</defs>
</svg>