<svg viewBox="0 0 200 199.7" class="" role="presentation" focusable="false" xmlns="http://www.w3.org/2000/svg" xmlns:xlink="http://www.w3.org/1999/xlink" id="FxSymbol0-0d3" data-type="1"><g><title></title><path d="m69.56 93.03-23.3 8.5c.3 3.8.9 7.5 1.9 11.1l22.1-8c-.7-4-1-7.8-.7-11.6M172.55 67.2c-1.6-3.3-3.5-6.6-5.6-9.6l-23.3 8.5c2.7 2.8 5 5.9 6.9 9.2-.1-.1 22-8.1 22-8.1z" fill="#c32034"></path><path d="M121.31 60.59c4.8 2.2 9 5.4 12.6 9l23.3-8.5c-6.4-9-15.3-16.6-26-21.6-33.3-15.5-73-1.1-88.5 32.2-5 10.8-6.9 22.2-6 33.3l23.3-8.5c.4-5.1 1.6-10.1 3.9-15 10-21.6 35.7-30.9 57.4-20.9" fill="#db212f"></path><path d="m49.56 111.95-22.1 8c2 8 5.6 15.7 10.4 22.6l23.2-8.5c-5.9-6.1-9.9-13.8-11.5-22.1" fill="#ea2227"></path><path d="M146.16 103.15c-.4 5.1-1.7 10.1-3.9 15-10.1 21.6-35.9 31.1-57.5 20.9-4.8-2.2-9-5.4-12.6-9l-23.2 8.5c6.4 9 15.2 16.6 26 21.6 33.3 15.5 73 1.1 88.5-32.2 5-10.8 6.9-22.2 6-33.3l-23.3 8.5z" fill="#db212f"></path><path d="m151.89 74.68-22.1 8c4.1 7.4 6.1 15.9 5.4 24.4l23.2-8.5c-.6-8.2-2.9-16.3-6.5-23.9" fill="#ea2227"></path><path d="m46.32 101.46 23.2-8.4-.1 4.6-22.4 8.3-.7-4.5zm97.31-35.5 23.6-8 2.5 3.6-22.9 8c-.1.1-3.2-3.6-3.2-3.6z" fill="#ad213a"></path><path d="m48.84 138.51 23.2-8.3 7 6.5-24.4 9c.1 0-5.8-7.2-5.8-7.2zm120.94-43.68-23.6 8.4-1.7 9.3 25.2-8.8c-.1-.1.1-8.9.1-8.9z" fill="#ba2034"></path></g><defs>
</defs>
</svg>