<svg viewBox="0 0 18 18" data-islogo="true" class="" role="presentation" focusable="false" xmlns:svg="http://www.w3.org/2000/svg" xmlns:xlink="http://www.w3.org/1999/xlink" id="FxSymbol0-017" data-type="335"><g><path d="M17.8 8.29L9.41.5a.61.61 0 0 0-.82 0L.2 8.29a.62.62 0 0 0 .47 1.06h1.72a.3.3 0 0 1 .3.3v7.4a.61.61 0 0 0 .61.61h11.4a.61.61 0 0 0 .61-.61v-7.4a.3.3 0 0 1 .3-.3h1.72a.62.62 0 0 0 .47-1.06z" fill="url(#b787b15c-863f-4e78-ac5e-558b4b5bea3b)"></path><path d="M7.07 12.4h3.86a.36.36 0 0 1 .32.38v4.88h-4.5v-4.88a.36.36 0 0 1 .32-.38z" fill="#e6e6e6"></path><path d="M.67 9.35h.53l7.39-6.86a.61.61 0 0 1 .82 0l7.39 6.86h.53a.62.62 0 0 0 .47-1.06L9.41.5a.61.61 0 0 0-.82 0L.2 8.29a.62.62 0 0 0 .47 1.06z" fill="#005ba1"></path></g><defs>
<linearGradient id="b787b15c-863f-4e78-ac5e-558b4b5bea3b" x1="9" y1="17.66" x2="9" y2=".34" gradientUnits="userSpaceOnUse"><stop offset="0" stop-color="#0078d4"></stop><stop offset=".17" stop-color="#1c84dc"></stop><stop offset=".38" stop-color="#3990e4"></stop><stop offset=".59" stop-color="#4d99ea"></stop><stop offset=".8" stop-color="#5a9eee"></stop><stop offset="1" stop-color="#5ea0ef"></stop></linearGradient>
<linearGradient id="a" x1="9" y1="16.39" x2="9" y2="-1.94" gradientUnits="userSpaceOnUse"><stop offset="0" stop-color="#0078d4"></stop><stop offset=".16" stop-color="#1380da"></stop><stop offset=".53" stop-color="#3c91e5"></stop><stop offset=".82" stop-color="#559cec"></stop><stop offset="1" stop-color="#5ea0ef"></stop></linearGradient>
<linearGradient id="b" x1="9.88" y1="7.11" x2="9.99" y2="17.27" gradientUnits="userSpaceOnUse"><stop offset="0" stop-color="#32d4f5"></stop><stop offset=".32" stop-color="#31d1f3"></stop><stop offset=".53" stop-color="#2ec9eb"></stop><stop offset=".7" stop-color="#29bade"></stop><stop offset=".86" stop-color="#22a5cb"></stop><stop offset="1" stop-color="#198ab3"></stop><stop offset="1" stop-color="#198ab3"></stop></linearGradient>
<radialGradient id="c" cx="9.43" cy="7.03" r="7.27" gradientUnits="userSpaceOnUse"><stop offset="0" stop-color="#f2f2f2"></stop><stop offset=".58" stop-color="#eee"></stop><stop offset="1" stop-color="#e6e6e6"></stop></radialGradient>
</defs>
</svg>