<svg viewBox="0 0 18 18" class="" role="presentation" focusable="false" xmlns="http://www.w3.org/2000/svg" xmlns:xlink="http://www.w3.org/1999/xlink" id="FxSymbol0-0c7" data-type="1"><g><title>Icon-integration-211</title><path d="M18 10.73a3.77 3.77 0 0 0-3.28-3.63 4.75 4.75 0 0 0-4.9-4.55 4.89 4.89 0 0 0-4.69 3.18 4.48 4.48 0 0 0-3.94 4.34 4.57 4.57 0 0 0 4.73 4.39h8.29A3.81 3.81 0 0 0 18 10.73Z" fill="url(#59616712-f700-4139-92c6-bd98d17f024d)"></path><path d="M0 11.66a3.76 3.76 0 0 1 3.8-3.8 3.77 3.77 0 0 1 3.8 3.8v3.79H3.8A3.76 3.76 0 0 1 0 11.66Z" fill="#50e6ff" fill-rule="evenodd"></path><path d="M6.17 11.91v-.56l-.57-.2-.14-.38.28-.59v-.06l-.18-.18-.21-.24h-.08l-.56.3-.38-.11-.25-.63h-.55l-.19.57-.42.17-.65-.31-.39.39v.07l.29.56-.17.42-.67.25v.56h.08l.59.2.16.38-.3.65.39.4h.08l.55-.28.39.16.24.67h.56v-.08l.19-.6.38-.16.66.31.39-.39v-.08l-.28-.56.11-.39Zm-2.35.52a.79.79 0 0 1 0-1.57.78.78 0 0 1 .79.78.78.78 0 0 1-.79.79Z" class="msportalfx-svg-c01" fill="#ffffff"></path></g><defs>
<linearGradient id="59616712-f700-4139-92c6-bd98d17f024d" x1="9.59" y1="17.96" x2="9.59" y2="-.17" gradientUnits="userSpaceOnUse"><stop offset="0" stop-color="#0078d4"></stop><stop offset=".82" stop-color="#5ea0ef"></stop></linearGradient>
</defs>
</svg>