<svg viewBox="0 0 18 18" class="" role="presentation" focusable="false" xmlns="http://www.w3.org/2000/svg" xmlns:xlink="http://www.w3.org/1999/xlink" id="FxSymbol0-0f1" data-type="1"><g><circle cx="9.617" cy="8.853" r="7.921" fill="url(#955724ae-8582-4ca1-9b57-4284a5f5411e)"></circle><path fill="#e6e6e6" d="M9.617 17.236A8.383 8.383 0 1 1 18 8.853a8.392 8.392 0 0 1-8.383 8.383zm0-15.842a7.459 7.459 0 1 0 7.458 7.459 7.466 7.466 0 0 0-7.458-7.459z"></path><path fill="#50e6ff" d="M14.938 9.573a2.391 2.391 0 0 0-2.075-2.3 3.014 3.014 0 0 0-3.1-2.882A3.092 3.092 0 0 0 6.8 6.408a2.852 2.852 0 0 0-2.5 2.745 2.9 2.9 0 0 0 3 2.783c.089 0 .177 0 .264-.011h4.853a.451.451 0 0 0 .128-.02 2.418 2.418 0 0 0 2.393-2.332zm-11.545-.72a1.7 1.7 0 1 1-1.7-1.7 1.7 1.7 0 0 1 1.7 1.7zM14.32.729a1.7 1.7 0 1 0 1.7 1.7 1.7 1.7 0 0 0-1.7-1.7zm0 12.652a1.7 1.7 0 1 0 1.7 1.7 1.7 1.7 0 0 0-1.7-1.7z"></path></g><defs>
<linearGradient id="955724ae-8582-4ca1-9b57-4284a5f5411e" x1="9.617" x2="9.617" y1=".932" y2="16.773" gradientUnits="userSpaceOnUse"><stop offset="0" stop-color="#5ea0ef"></stop><stop offset=".817" stop-color="#0078d4"></stop></linearGradient>
</defs>
</svg>