<svg viewBox="0 0 18 18" class="" role="presentation" focusable="false" xmlns:svg="http://www.w3.org/2000/svg" xmlns:xlink="http://www.w3.org/1999/xlink" id="FxSymbol0-07c" data-type="1"><g><title>Icon-databases-137</title><path d="M13.5 4.62c-2.21 0-4-.57-4-1.28v6.79c0 .69 1.76 1.26 3.95 1.27h.05c2.21 0 4-.57 4-1.27V3.34c0 .71-1.79 1.28-4 1.28z" fill="url(#ac420e47-f190-46df-ab14-7e1f8fa3a93d)"></path><path d="M17.5 3.34c0 .71-1.79 1.28-4 1.28s-4-.57-4-1.28 1.79-1.27 4-1.27 4 .57 4 1.27" fill="#e8e8e8"></path><path d="M16.57 3.24c0 .45-1.38.81-3.07.81s-3.07-.36-3.07-.81 1.38-.81 3.07-.81 3.07.36 3.07.81" fill="#50e6ff"></path><path d="M13.5 3.43a8.65 8.65 0 0 0-2.43.3 7.8 7.8 0 0 0 2.43.32 7.8 7.8 0 0 0 2.43-.32 8.65 8.65 0 0 0-2.43-.3z" fill="#32bedd"></path><path d="M4.5 4.62c-2.21 0-4-.57-4-1.28v6.79c0 .69 1.76 1.26 4 1.27 2.21 0 4-.57 4-1.27V3.34c0 .71-1.79 1.28-4 1.28z" fill="url(#a51ffd84-af0a-457a-abee-1f70656da56f)"></path><path d="M8.5 3.34c0 .71-1.79 1.28-4 1.28s-4-.57-4-1.28 1.79-1.27 4-1.27 4 .57 4 1.27" fill="#e8e8e8"></path><path d="M7.57 3.24c0 .45-1.38.81-3.07.81s-3.07-.36-3.07-.81 1.38-.81 3.07-.81 3.07.36 3.07.81" fill="#50e6ff"></path><path d="M4.5 3.43a8.65 8.65 0 0 0-2.43.3 7.8 7.8 0 0 0 2.43.32 7.8 7.8 0 0 0 2.43-.32 8.65 8.65 0 0 0-2.43-.3z" fill="#32bedd"></path><path d="M9 9.15c-2.21 0-4-.57-4-1.28v6.79c0 .7 1.76 1.26 3.95 1.27H9c2.21 0 4-.57 4-1.27V7.87c0 .71-1.79 1.28-4 1.28z" fill="url(#bbb4b87e-b1f0-4042-b6d6-9b91b5dac799)"></path><path d="M13 7.87c0 .71-1.79 1.28-4 1.28s-4-.57-4-1.28S6.79 6.6 9 6.6s4 .57 4 1.27" fill="#e8e8e8"></path><path d="M12.07 7.77c0 .45-1.38.81-3.07.81s-3.07-.36-3.07-.81S7.31 7 9 7s3.07.36 3.07.81" fill="#50e6ff"></path><path d="M9 8a8.65 8.65 0 0 0-2.43.3A7.8 7.8 0 0 0 9 8.58a7.8 7.8 0 0 0 2.43-.32A8.65 8.65 0 0 0 9 8z" fill="#32bedd"></path></g><defs>
<linearGradient id="ac420e47-f190-46df-ab14-7e1f8fa3a93d" x1="9.5" y1="7.37" x2="17.5" y2="7.37" gradientUnits="userSpaceOnUse"><stop offset="0" stop-color="#005ba1"></stop><stop offset=".07" stop-color="#0060a9"></stop><stop offset=".36" stop-color="#0071c8"></stop><stop offset=".52" stop-color="#0078d4"></stop><stop offset="1" stop-color="#005ba1"></stop></linearGradient>
<linearGradient id="a51ffd84-af0a-457a-abee-1f70656da56f" x1=".5" y1="7.37" x2="8.5" y2="7.37" gradientUnits="userSpaceOnUse"><stop offset="0" stop-color="#005ba1"></stop><stop offset=".07" stop-color="#0060a9"></stop><stop offset=".36" stop-color="#0071c8"></stop><stop offset=".52" stop-color="#0078d4"></stop><stop offset="1" stop-color="#005ba1"></stop></linearGradient>
<linearGradient id="bbb4b87e-b1f0-4042-b6d6-9b91b5dac799" x1="5" y1="11.9" x2="13" y2="11.9" gradientUnits="userSpaceOnUse"><stop offset="0" stop-color="#005ba1"></stop><stop offset=".07" stop-color="#0060a9"></stop><stop offset=".36" stop-color="#0071c8"></stop><stop offset=".52" stop-color="#0078d4"></stop><stop offset="1" stop-color="#005ba1"></stop></linearGradient>
</defs>
</svg>