<svg viewBox="0 0 24 24" class="" role="presentation" focusable="false" xmlns:svg="http://www.w3.org/2000/svg" xmlns:xlink="http://www.w3.org/1999/xlink" id="FxSymbol0-07b" data-type="1"><g><title></title><path d="M21.216 9.441h-.336c.192-.623.24-1.295.24-1.965C21.168 3.354 17.808 0 13.728 0a7.348 7.348 0 0 0-7.007 5.08 4.71 4.71 0 0 0-1.633-.287C2.256 4.793 0 7.094 0 9.92c0 2.814 2.234 5.055 5 5.076v-2.35c0-2.314 3.888-3.369 7.5-3.369s7.5 1.055 7.5 3.369V15h1.408C22.896 14.857 24 13.658 24 12.221a2.785 2.785 0 0 0-2.784-2.78z" class="msportalfx-svg-c19" fill="#0072c6"></path><path d="M6 12.646v8.986c0 1.297 2.863 2.348 6.411 2.365V24h.089c3.59 0 6.5-1.061 6.5-2.367v-8.986H6z" class="msportalfx-svg-c15" fill="#59b4d9"></path><path d="M12.5 12.646V24c3.59 0 6.5-1.061 6.5-2.367v-8.986h-6.5z" class="msportalfx-svg-c16" fill="#3999c6"></path><path d="M19 12.646c0 1.307-2.91 2.367-6.5 2.367S6 13.953 6 12.646c0-1.309 2.91-2.369 6.5-2.369s6.5 1.061 6.5 2.369" class="msportalfx-svg-c13" fill="#b8d432"></path><path d="M2 11.584a5.417 5.417 0 0 1 7.976-4.773A7.488 7.488 0 0 1 16.498 3c1.395 0 2.695.387 3.814 1.051C19.085 1.648 16.585 0 13.728 0a7.348 7.348 0 0 0-7.007 5.08 4.71 4.71 0 0 0-1.633-.287C2.256 4.793 0 7.094 0 9.92a5.053 5.053 0 0 0 2.843 4.557A5.388 5.388 0 0 1 2 11.584z" fill="#ecf0f1" opacity=".2"></path><path d="M12.5 3l-4 4H11v6h3V7h2.5z" class="msportalfx-svg-c01" fill="#ffffff"></path><path d="M45.216 9.44h-.336c.192-.623.24-1.294.24-1.965C45.168 3.354 41.808 0 37.728 0a7.345 7.345 0 0 0-7.007 5.079 4.682 4.682 0 0 0-1.633-.286C26.256 4.793 24 7.092 24 9.919 24 12.747 26.256 15 29.04 15H30v6.631c0 1.297 2.863 2.35 6.411 2.366V24h.089c3.59 0 6.5-1.062 6.5-2.369V15h2.408C46.896 14.855 48 13.657 48 12.22a2.785 2.785 0 0 0-2.784-2.78zm-8.619 13.558l-.181-.001c-3.473-.017-5.284-1.003-5.416-1.366v-7.729c1.15.666 3.181 1.11 5.5 1.11 2.321 0 4.351-.444 5.501-1.11l.003 7.699c-.132.383-1.986 1.376-5.407 1.397zM37 6v6h-1V6h-1.086L36.5 4.413 38.086 6H37zm1 7v-1.645c2.443.227 3.815.951 3.992 1.289-.21.403-2.098 1.368-5.492 1.368s-5.281-.965-5.491-1.368c.176-.338 1.549-1.062 3.991-1.289V13h3zm7.355 1H43v-1.356c0-1.119-2.134-2.055-5-2.301V7h2.5l-4-4-4 4H35v3.344c-2.866.246-5 1.182-5 2.301V14h-.96C26.812 14 25 12.169 25 9.919c0-2.275 1.834-4.126 4.088-4.126.453 0 .863.071 1.291.227l.975.354.317-.986A6.337 6.337 0 0 1 37.728 1c1.716 0 3.329.676 4.546 1.906a6.35 6.35 0 0 1 1.847 4.569c0 .716-.061 1.231-.196 1.671l-.397 1.294h1.69c.983 0 1.784.798 1.784 1.779-.002.912-.706 1.669-1.647 1.781z" fill="#4a4a4a"></path></g><defs>
</defs>
</svg>