<svg viewBox="0 0 18 18" class="" role="presentation" focusable="false" xmlns="http://www.w3.org/2000/svg" xmlns:xlink="http://www.w3.org/1999/xlink" id="FxSymbol0-122" data-type="1"><g><title>Icon-migrate-281</title><path d="M18 10.53a3.26 3.26 0 0 0-2.83-3.13 4.11 4.11 0 0 0-4.23-3.93 4.22 4.22 0 0 0-4 2.75A3.89 3.89 0 0 0 3.5 10a4 4 0 0 0 4.08 3.79h7.18A3.29 3.29 0 0 0 18 10.53Z" fill="url(#59616712-f700-4139-92c6-bd98d17f02c2)"></path><path d="M14.9 11.22A3.35 3.35 0 0 0 12 8a4.21 4.21 0 0 0-4.35-4 4.33 4.33 0 0 0-4.14 2.79A4 4 0 0 0 0 10.63a4.06 4.06 0 0 0 4.2 3.9h7.34a3.38 3.38 0 0 0 3.36-3.31Z" fill="url(#59616712-f700-4139-92c6-bd98d17f02c3)"></path><path d="M4.82 9.37h.85a.23.23 0 0 1 .17.07l2 2a.24.24 0 0 1 0 .35l-2.72 2.67a.24.24 0 0 1-.17.07h-.81a.25.25 0 0 1-.14-.42l2.31-2.34a.23.23 0 0 0 0-.34L4.65 9.78a.24.24 0 0 1 .17-.41ZM8.25 6h.87a.25.25 0 0 1 .17.08l1.53 1.55a.24.24 0 0 1 0 .34l-2 1.91a.24.24 0 0 1-.17.07h-.73a.25.25 0 0 1-.18-.41L9.27 8a.25.25 0 0 0 0-.34l-1.19-1.2A.24.24 0 0 1 8.25 6Zm1.79 4h.85a.28.28 0 0 1 .17.07l1.25 1.25a.25.25 0 0 1 0 .34l-1.81 1.83a.23.23 0 0 1-.17.07h-.82a.24.24 0 0 1-.17-.41l1.42-1.44a.25.25 0 0 0 0-.34l-.89-.91a.24.24 0 0 1 .13-.41Z" class="msportalfx-svg-c01" fill="#ffffff"></path></g><defs>
<linearGradient id="59616712-f700-4139-92c6-bd98d17f02c2" x1="10.75" y1="13.54" x2="10.75" y2="2.92" gradientUnits="userSpaceOnUse"><stop offset="0" stop-color="#0078d4"></stop><stop offset=".16" stop-color="#1380da"></stop><stop offset=".53" stop-color="#3c91e5"></stop><stop offset=".82" stop-color="#559cec"></stop><stop offset="1" stop-color="#5ea0ef"></stop></linearGradient>
<linearGradient id="59616712-f700-4139-92c6-bd98d17f02c3" x1="7.45" y1="17.24" x2="7.45" y2="1.19" gradientUnits="userSpaceOnUse"><stop offset="0" stop-color="#198ab3"></stop><stop offset="0" stop-color="#198ab3"></stop><stop offset=".11" stop-color="#22a5cb"></stop><stop offset=".23" stop-color="#29bade"></stop><stop offset=".37" stop-color="#2ec9eb"></stop><stop offset=".53" stop-color="#31d1f3"></stop><stop offset=".78" stop-color="#32d4f5"></stop></linearGradient>
</defs>
</svg>