<svg viewBox="0 0 18 18" class="" role="presentation" focusable="false" xmlns="http://www.w3.org/2000/svg" xmlns:xlink="http://www.w3.org/1999/xlink" id="FxSymbol0-0e6" data-type="1"><g><path d="M8.736 5.229H6.62a2.644 2.644 0 0 0-.41 5.253 2.824 2.824 0 0 1 .027-.982 1.67 1.67 0 0 1 .383-3.3h2.116a1.675 1.675 0 0 1 0 3.35h-.582a1.275 1.275 0 0 0-.124.529 1.234 1.234 0 0 0 .084.441h.622a2.645 2.645 0 0 0 0-5.289z" fill="url(#ea0182c4-a05a-47e0-8d38-dceaa08cffc1)"></path><path d="M11.79 7.468a3.042 3.042 0 0 1 .031.405 2.722 2.722 0 0 1-.058.577 1.671 1.671 0 0 1-.383 3.3H9.264a1.675 1.675 0 0 1 0-3.35h.582a1.195 1.195 0 0 0 .04-.97h-.622a2.645 2.645 0 0 0 0 5.289h2.116a2.644 2.644 0 0 0 .41-5.253z" fill="url(#b2374fe1-82b4-4770-97f1-de978b276dd6)"></path><path d="M9-.025l-7.85 4.49v8.97L9 17.975l7.85-4.49v-9zm6.4 12.57l-6.4 3.7-6.4-3.661V5.355l6.4-3.7 6.4 3.71z" fill="#0078d4"></path><path fill="url(#f85376f9-8ccb-4ef0-ab3e-33ae7fcb4e4a)" d="M9 0L1.15 4.49l1.45.89L9 1.68l6.4 3.7 1.45-.89L9 0z"></path></g><defs>
<linearGradient id="ea0182c4-a05a-47e0-8d38-dceaa08cffc1" x1="7.688" y1="-26.771" x2="7.688" y2="-21.482" gradientTransform="translate(0 32)" gradientUnits="userSpaceOnUse"><stop offset=".23" stop-color="#5ea0ef"></stop><stop offset=".32" stop-color="#5b9fee"></stop><stop offset=".48" stop-color="#509aeb"></stop><stop offset=".57" stop-color="#3f92e6"></stop><stop offset=".75" stop-color="#2688df"></stop><stop offset=".93" stop-color="#127fd9"></stop></linearGradient>
<linearGradient id="b2374fe1-82b4-4770-97f1-de978b276dd6" x1="10.312" y1="-24.568" x2="10.312" y2="-19.279" gradientTransform="translate(0 32)" gradientUnits="userSpaceOnUse"><stop offset=".2" stop-color="#50e6ff"></stop><stop offset=".65" stop-color="#32bedd"></stop><stop offset="1" stop-color="#198ab3"></stop></linearGradient>
<linearGradient id="f85376f9-8ccb-4ef0-ab3e-33ae7fcb4e4a" x1="9" y1="5.38" x2="9" gradientUnits="userSpaceOnUse"><stop offset=".199" stop-color="#005ba1"></stop><stop offset="1" stop-color="#0078d4"></stop></linearGradient>
</defs>
</svg>