<svg viewBox="0 0 18 18" class="" role="presentation" focusable="false" xmlns:svg="http://www.w3.org/2000/svg" xmlns:xlink="http://www.w3.org/1999/xlink" id="FxSymbol0-0eb" data-type="1"><g><title>Icon471-AzureLighthouse</title><path d="M16.65 17.08l-3.59-9.32a.28.28 0 0 0-.26-.18h-2.56V5.36a1.3 1.3 0 1 0-2.59 0v2.22H5.34a.29.29 0 0 0-.27.18l-3.72 9.32a.55.55 0 0 0 .45.78h14.4a.55.55 0 0 0 .45-.78z" fill="url(#a)"></path><path d="M3.37 12L12 7.58h.75a.28.28 0 0 1 .27.19l.83 2.15L1.8 16zm6.17 5.84l6-3.6 1.09 2.84a.56.56 0 0 1-.46.78z" fill="#83b9f9"></path><path d="M8.87.16L4.75 2.55a.16.16 0 0 0-.08.14v.37a.16.16 0 0 0 .16.16h.62v4.36h.78V3.22h5.44v4.36h.77V3.22h.63a.16.16 0 0 0 .16-.16v-.37a.16.16 0 0 0-.08-.14L9 .16a.22.22 0 0 0-.13 0z" fill="#0078d4"></path></g><defs>
<linearGradient id="a" x1="9" y1="17.86" x2="9" y2="4.06" gradientUnits="userSpaceOnUse"><stop offset="0" stop-color="#0078d4"></stop><stop offset=".16" stop-color="#1380da"></stop><stop offset=".53" stop-color="#3c91e5"></stop><stop offset=".82" stop-color="#559cec"></stop><stop offset="1" stop-color="#5ea0ef"></stop></linearGradient>
<linearGradient id="b" x1="6.4" y1="1.32" x2="7.21" y2="11.39"><stop offset=".22" stop-color="#32d4f5"></stop><stop offset=".47" stop-color="#31d1f3"></stop><stop offset=".63" stop-color="#2ec9eb"></stop><stop offset=".77" stop-color="#29bade"></stop><stop offset=".89" stop-color="#22a5cb"></stop><stop offset="1" stop-color="#198ab3"></stop><stop offset="1" stop-color="#198ab3"></stop></linearGradient>
<linearGradient id="c" x1="13.76" y1="18.05" x2="13.76" y2="10.25" gradientUnits="userSpaceOnUse"><stop offset="0" stop-color="#76bc2d"></stop><stop offset=".6" stop-color="#81ce31"></stop><stop offset=".82" stop-color="#86d633"></stop></linearGradient>
</defs>
</svg>