<?xml version="1.0" encoding="UTF-8" standalone="no"?>
<!DOCTYPE svg PUBLIC "-//W3C//DTD SVG 1.1//EN" "http://www.w3.org/Graphics/SVG/1.1/DTD/svg11.dtd">
<!-- Generated by Microsoft Visio, SVG Export Azure-Backup-Archive.svg Page-1 -->
<svg xmlns="http://www.w3.org/2000/svg" xmlns:xlink="http://www.w3.org/1999/xlink" xmlns:ev="http://www.w3.org/2001/xml-events"
		xmlns:v="http://schemas.microsoft.com/visio/2003/SVGExtensions/" width="11in" height="8.5in" viewBox="0 0 792 612"
		xml:space="preserve" color-interpolation-filters="sRGB" class="st5">
	<v:documentProperties v:langID="1033" v:viewMarkup="false">
		<v:userDefs>
			<v:ud v:nameU="msvSubprocessMaster" v:prompt="" v:val="VT4(Rectangle)"/>
			<v:ud v:nameU="msvNoAutoConnect" v:val="VT0(1):26"/>
		</v:userDefs>
	</v:documentProperties>

	<style type="text/css">
	<![CDATA[
		.st1 {fill:#0072c6;stroke:none;stroke-width:0.75}
		.st2 {fill:#59b4d9;stroke:none;stroke-width:0.75}
		.st3 {fill:#fee087;stroke:none;stroke-width:0.75}
		.st4 {fill:#1e1e1e;fill-opacity:0.2;stroke:none;stroke-width:0.75}
		.st5 {fill:none;fill-rule:evenodd;font-size:12px;overflow:visible;stroke-linecap:square;stroke-miterlimit:3}
	]]>
	</style>

	<g v:mID="0" v:index="1" v:groupContext="foregroundPage">
		<v:userDefs>
			<v:ud v:nameU="msvThemeOrder" v:val="VT0(0):26"/>
		</v:userDefs>
		<title>Page-1</title>
		<v:pageProperties v:drawingScale="1" v:pageScale="1" v:drawingUnits="0" v:shadowOffsetX="9" v:shadowOffsetY="-9"/>
		<g id="group9972-1" transform="translate(18,-538.572)" v:mID="9972" v:groupContext="group">
			<title>Azure Backup Archive</title>
			<g id="shape9973-2" v:mID="9973" v:groupContext="shape" transform="translate(16.26,-23.0935)">
				<title>Sheet.9973</title>
				<path d="M37.84 593.02 C37.88 592.6 37.9 592.16 37.9 591.72 A12.8025 12.8025 -180 0 0 14.74 584.34 A9.68025 9.68025
							 -180 0 0 -0 591.56 A18.5385 18.5385 0 0 1 2.36 591.38 A17.25 17.25 0 0 1 12.52 594.7 C14.7 589.68 20.24
							 586.46 26.38 586.28 L26.38 581.98 L33.88 588.4 L26.38 594.78 L26.38 590.58 C22.86 590.72 19.44 592.04
							 17.46 595.24 L17.86 595.2 A14.0123 14.0123 0 0 1 31.78 607.42 A14.2725 14.2725 0 0 1 35.78 612 A10.4827
							 10.4827 -180 0 0 43.74 601.86 C43.74 597.92 41.62 594.78 37.84 593.02 Z" class="st1"/>
			</g>
			<g id="shape9974-4" v:mID="9974" v:groupContext="shape" transform="translate(-2.07834E-13,-6.03327)">
				<title>Sheet.9974</title>
				<path d="M5.9 592.6 C5.86 592.16 5.84 591.72 5.84 591.28 A12.8115 12.8115 0 0 1 29 583.9 A9.69675 9.69675 0 0 1 43.78
							 592.04 L43.76 592.8 C47.36 594.62 49.3 597.64 49.3 601.42 C49.3 607.36 44.46 612 38.28 612 L11.02 612
							 C4.84 612 0 607.36 0 601.42 C0 597.5 2.12 594.36 5.9 592.6 Z" class="st2"/>
			</g>
			<g id="shape9975-6" v:mID="9975" v:groupContext="shape" transform="translate(27.4493,-0.0332718)">
				<title>Sheet.9975</title>
				<path d="M31.29 588.45 L31.29 585.86 L14.26 585.86 L10.39 582 L0 582 L0 610.46 A1.5435 1.5435 -180 0 0 1.54 612 L31.01
							 612 A1.5435 1.5435 -180 0 0 32.55 610.46 L32.55 588.45 L31.29 588.45 L31.29 588.45 Z" class="st3"/>
			</g>
			<g id="shape9976-8" v:mID="9976" v:groupContext="shape" transform="translate(27.4508,-2.27374E-13)">
				<title>Sheet.9976</title>
				<path d="M3.09 588.42 L3.09 610.42 A1.5435 1.5435 0 1 1 -0 610.42 L0 581.97 L10.39 581.97 L14.26 585.83 L31.29 585.83
							 L31.29 588.42 L3.09 588.42 Z" class="st4"/>
			</g>
		</g>
	</g>
</svg>
