<svg viewBox="0 0 115 115" class="" role="presentation" focusable="false" xmlns:svg="http://www.w3.org/2000/svg" xmlns:xlink="http://www.w3.org/1999/xlink" id="FxSymbol0-0a7" data-type="1"><g><title></title><title>atlasicon</title><path d="M92.704 102.91c-25.07 19.5-61.117 14.912-80.615-10.16C-7.41 67.678-2.821 31.626 22.248 12.126c.163-.164.327-.328.655-.492 25.233-19.173 61.28-14.093 80.451 11.143 19.007 25.236 14.255 60.796-10.65 80.133z" fill="url(#paint0_linear)"></path><path d="M66.651 15.403L23.886 83.41l53.58-20.811L66.65 15.403z" fill="#9CEBFF"></path><path opacity=".7" d="M57.967 29.168L84.511 93.57l-17.86-78.166-8.684 13.765z" class="msportalfx-svg-c01" fill="#ffffff"></path><path d="M56.492 70.791l16.058-6.227 11.96 29.169L56.492 70.79z" fill="#32BEDD"></path><defs></defs></g><defs>
<linearGradient id="paint0_linear" x1="25.405" y1="11.03" x2="25.405" y2="30.221" gradientUnits="userSpaceOnUse"><stop stop-color="#FFD70F"></stop><stop offset=".12" stop-color="#FC1"></stop><stop offset=".44" stop-color="#FEB517"></stop><stop offset=".75" stop-color="#FEA61A"></stop><stop offset="1" stop-color="#FEA11B"></stop></linearGradient>
</defs>
</svg>