<svg viewBox="0 0 50 50" class="" role="presentation" focusable="false" xmlns:svg="http://www.w3.org/2000/svg" xmlns:xlink="http://www.w3.org/1999/xlink" id="FxSymbol0-0c0" data-type="1"><g><title></title><path d="M49 25c0 13.254-10.746 24-24.001 24S1 38.254 1 25 11.744 1 24.999 1 49 11.746 49 25" class="msportalfx-svg-c17" fill="#804998"></path><path opacity=".15" d="M13.499 44.918C2.498 38.567-1.269 24.5 5.081 13.5S25.498-1.271 36.499 5.081" class="msportalfx-svg-c01" fill="#ffffff"></path><path d="M38.061 29.061L35.94 26.94l-9.256 9.256c-.06-.027-.122-.048-.184-.072V22h-3v14.123c-.062.024-.124.045-.184.072l-6.51-6.51c.23-.517.363-1.085.363-1.687a4.175 4.175 0 0 0-4.17-4.166c-2.299.002-4.167 1.873-4.166 4.17s1.871 4.166 4.167 4.166h.003a4.13 4.13 0 0 0 1.682-.362l6.51 6.51a4.137 4.137 0 0 0-.363 1.687 4.173 4.173 0 0 0 4.167 4.166h.003a4.174 4.174 0 0 0 4.166-4.17c0-.599-.134-1.166-.363-1.682l9.256-9.256zM13 27.832c.046 0 .088.019.119.049l-.237.237a.171.171 0 0 1-.049-.119c-.001-.079.089-.167.167-.167zm12 12.336a.167.167 0 0 1-.118-.049L25 40l.119.119a.171.171 0 0 1-.119.049z" class="msportalfx-svg-c01" fill="#ffffff"></path><path d="M27.168 39.999a2.168 2.168 0 1 1-2.169-2.167H25c1.197 0 2.167.97 2.168 2.167" class="msportalfx-svg-c14" fill="#57a300"></path><path d="M36.999 32.168c-2.296 0-4.165-1.868-4.167-4.166s1.867-4.168 4.166-4.17a4.175 4.175 0 0 1 4.17 4.166 4.172 4.172 0 0 1-4.166 4.17h-.003zM37 27.832c-.078 0-.168.088-.168.167a.168.168 0 1 0 .168-.167z" class="msportalfx-svg-c01" fill="#ffffff"></path><path d="M39.168 27.999a2.168 2.168 0 1 1-2.169-2.167H37c1.197 0 2.167.97 2.168 2.167m-24 0a2.168 2.168 0 1 1-2.169-2.167H13c1.197 0 2.167.97 2.168 2.167" class="msportalfx-svg-c14" fill="#57a300"></path><path d="M29.973 14.9c0 2.707-2.193 4.9-4.9 4.9s-4.9-2.193-4.9-4.9 2.193-4.9 4.9-4.9c2.707 0 4.9 2.193 4.9 4.9" class="msportalfx-svg-c17" fill="#804998"></path><path d="M25.073 7c-4.364 0-7.9 3.536-7.9 7.9s3.536 7.9 7.9 7.9 7.9-3.536 7.9-7.9-3.536-7.9-7.9-7.9zm0 12.8a4.899 4.899 0 0 1-4.9-4.9c0-2.707 2.193-4.9 4.9-4.9 2.707 0 4.9 2.193 4.9 4.9 0 2.707-2.193 4.9-4.9 4.9z" class="msportalfx-svg-c01" fill="#ffffff"></path><path opacity=".5" d="M16.021 27.1l6.762-6.762a5.932 5.932 0 0 1-2.388-1.855L13.9 24.979a3.16 3.16 0 0 1 2.121 2.121zm17.997 0l-6.762-6.762a5.932 5.932 0 0 0 2.388-1.855l6.496 6.496a3.159 3.159 0 0 0-2.122 2.121z" class="msportalfx-svg-c01" fill="#ffffff"></path></g><defs>
</defs>
</svg>