<svg viewBox="0 0 18 18" class="" role="presentation" focusable="false" xmlns="http://www.w3.org/2000/svg" xmlns:xlink="http://www.w3.org/1999/xlink" id="FxSymbol0-108" data-type="1"><g><path d="M14.428 3.35l-5.195-3a2.624 2.624 0 0 0-2.622 0l-5.195 3A2.625 2.625 0 0 0 .105 5.621v6a2.625 2.625 0 0 0 1.311 2.272l5.2 3a2.624 2.624 0 0 0 2.622 0l5.2-3a2.625 2.625 0 0 0 1.311-2.272v-6a2.625 2.625 0 0 0-1.321-2.271z" fill="url(#8508916053961002)"></path><path d="M16.842 7.743l-3.653-2.109a2.109 2.109 0 0 0-2.107 0L7.43 7.743a2.1 2.1 0 0 0-1.053 1.824v4.218a2.106 2.106 0 0 0 1.053 1.824l3.652 2.109a2.109 2.109 0 0 0 2.107 0l3.653-2.109a2.108 2.108 0 0 0 1.058-1.824V9.567a2.107 2.107 0 0 0-1.058-1.824z" fill="url(#43896060656334157)"></path><path fill="url(#018223525750102)" d="M7.578 2.963l1.052-.582 4.51 9.347-.366.4H2.835l.112-1.197h8.381l-3.75-7.968z"></path><circle cx="2.732" cy="11.585" r="1.5" class="msportalfx-svg-c01" fill="#ffffff"></circle><circle cx="12.136" cy="11.676" r="2.344" class="msportalfx-svg-c01" fill="#ffffff"></circle><circle cx="8.041" cy="2.558" r="1.5" class="msportalfx-svg-c01" fill="#ffffff"></circle></g><defs>
<linearGradient id="8508916053961002" x1="13.119" y1="5.643" x2="11.489" y2="16.919" gradientUnits="userSpaceOnUse"><stop offset="0" stop-color="#a67af4"></stop><stop offset="1" stop-color="#773adc"></stop></linearGradient>
<linearGradient id="43896060656334157" x1="10.798" y1="7.388" x2="14.441" y2="19.066" gradientUnits="userSpaceOnUse"><stop offset="0" stop-color="#50e6ff"></stop><stop offset=".997" stop-color="#32bedd"></stop></linearGradient>
<linearGradient id="018223525750102" x1="-.168" y1="4.114" x2="12.572" y2="10.895" gradientUnits="userSpaceOnUse"><stop offset="0" stop-color="#fff"></stop><stop offset="1" stop-color="#9cebff"></stop></linearGradient>
</defs>
</svg>