<svg viewBox="0 0 18 18" class="" role="presentation" focusable="false" xmlns="http://www.w3.org/2000/svg" xmlns:xlink="http://www.w3.org/1999/xlink" id="FxSymbol0-0c8" data-type="1"><g><title>Icon691_DataBox_Gateway</title><path d="M17.947 11.369a4.019 4.019 0 0 0-3.489-3.864 5.068 5.068 0 0 0-5.22-4.847A5.2 5.2 0 0 0 4.27 6.046a4.8 4.8 0 0 0-4.217 4.616 4.869 4.869 0 0 0 5.038 4.68c.15 0 .3-.008.444-.02H13.7a.8.8 0 0 0 .215-.032 4.068 4.068 0 0 0 4.032-3.921Z" fill="url(#59616712-f700-4139-92c6-bd98d17f024e)"></path><path d="M9.468 10.545a4.708 4.708 0 1 0-4.707 4.8H9.47v-4.8Z" fill="#50e6ff"></path><path d="m1.325 11.747 1.782 1.473a.169.169 0 0 0 .277-.13v-.641h4.253v-1h-6.2a.168.168 0 0 0-.112.298Z" opacity=".75" class="msportalfx-svg-c01" fill="#ffffff"></path><path d="M7.96 10.255 6.14 8.778a.169.169 0 0 0-.276.13v.646H2.01v1h5.843a.168.168 0 0 0 .107-.299Z" class="msportalfx-svg-c01" fill="#ffffff"></path></g><defs>
<linearGradient id="59616712-f700-4139-92c6-bd98d17f024e" x1="9" y1="15.342" x2="9" y2="2.658" gradientUnits="userSpaceOnUse"><stop offset="0" stop-color="#0078d4"></stop><stop offset=".817" stop-color="#5ea0ef"></stop></linearGradient>
</defs>
</svg>