<svg viewBox="0 0 18 18" class="" role="presentation" focusable="false" xmlns="http://www.w3.org/2000/svg" xmlns:xlink="http://www.w3.org/1999/xlink" id="FxSymbol0-144" data-type="1"><g><path d="M4.351 2.08a7.351 7.351 0 0 0-1.236 2.477H1.59A5.747 5.747 0 0 1 4.351 2.08ZM1.236 9.367h1.77a7.717 7.717 0 0 1-.3-2.021 9.867 9.867 0 0 1 .247-2.18h-1.66a5.655 5.655 0 0 0-.057 4.201Zm3.511 3.389A8.573 8.573 0 0 1 3.2 9.978H1.507a5.74 5.74 0 0 0 3.24 2.778Zm-.9-2.778a6.159 6.159 0 0 0 2.138 3.053c.055.006.111.006.166.008 0-.017-.01-.032-.01-.05V10.68a.782.782 0 0 1 .15-.441v-.261Zm-.529-2.632a7.216 7.216 0 0 0 .329 2.021H6.3v-4.2H3.574a9.307 9.307 0 0 0-.256 2.179Zm.425-2.789H6.3V1.643a5.535 5.535 0 0 0-.55.053 4.694 4.694 0 0 0-2.007 2.861Zm3.533-2.879a5.737 5.737 0 0 0-.371-.031v2.909h2.416a4.592 4.592 0 0 0-2.045-2.878Zm-.371 7.689h2.512a7.254 7.254 0 0 0 .33-2.021 9.255 9.255 0 0 0-.257-2.18H6.905Zm1.77-7.331A7.262 7.262 0 0 1 9.95 4.557h1.608a5.746 5.746 0 0 0-2.883-2.521Zm1.433 3.13a9.856 9.856 0 0 1 .247 2.178 7.732 7.732 0 0 1-.3 2.023h1.854a5.655 5.655 0 0 0-.057-4.2Z" fill="url(#59616712-f700-4139-92c6-bd98d17f02f9)"></path><rect x="6.573" y="13.922" width="11.177" height="3.056" rx=".374" fill="url(#59616712-f700-4139-92c6-bd98d17f02fa)"></rect><rect x="16.014" y="14.457" width=".835" height=".835" rx=".187" class="msportalfx-svg-c01" fill="#ffffff"></rect><rect x="16.014" y="15.608" width=".835" height=".835" rx=".187" opacity=".6" class="msportalfx-svg-c01" fill="#ffffff"></rect><path d="M6.154 13.039c-.055 0-.111 0-.166-.008A6.159 6.159 0 0 1 3.85 9.978h2.444v.261a.791.791 0 0 1 .653-.362h5.4a6.159 6.159 0 0 0-.045-5.2l-.058-.122A6.331 6.331 0 0 0 7.43 1.087a1.337 1.337 0 0 0-.295-.036 6.124 6.124 0 0 0-1.206.003 1.734 1.734 0 0 0-.344.053A6.336 6.336 0 0 0 .91 4.557H.9v.013a6.3 6.3 0 0 0 4.884 9.044.159.159 0 0 0 .048.007 6.069 6.069 0 0 0 .713.048.793.793 0 0 1-.391-.63Zm5.758-3.672h-1.854a7.732 7.732 0 0 0 .3-2.023 9.856 9.856 0 0 0-.247-2.178h1.747a5.655 5.655 0 0 1 .054 4.201Zm-.354-4.81H9.95a7.262 7.262 0 0 0-1.275-2.521 5.746 5.746 0 0 1 2.883 2.521Zm-4.653-2.91c.124.007.248.016.371.031a4.592 4.592 0 0 1 2.045 2.878H6.905Zm0 3.519H9.49a9.255 9.255 0 0 1 .257 2.18 7.254 7.254 0 0 1-.33 2.021H6.905ZM6.3 9.367H3.647a7.216 7.216 0 0 1-.329-2.021 9.307 9.307 0 0 1 .256-2.18H6.3ZM5.746 1.7c.181-.027.364-.044.55-.053v2.91H3.743A4.694 4.694 0 0 1 5.746 1.7Zm-1.4.384a7.351 7.351 0 0 0-1.231 2.473H1.59A5.747 5.747 0 0 1 4.351 2.08ZM1.293 5.166h1.663a9.867 9.867 0 0 0-.247 2.18 7.717 7.717 0 0 0 .3 2.021H1.236a5.655 5.655 0 0 1 .057-4.201Zm.214 4.812H3.2a8.573 8.573 0 0 0 1.551 2.778 5.74 5.74 0 0 1-3.244-2.778Z" fill="#b796f9"></path><rect x="6.573" y="10.307" width="11.177" height="3.056" rx=".374" fill="url(#59616712-f700-4139-92c6-bd98d17f02fb)"></rect><rect x="16.014" y="10.841" width=".835" height=".835" rx=".187" class="msportalfx-svg-c01" fill="#ffffff"></rect><rect x="16.014" y="11.993" width=".835" height=".835" rx=".187" opacity=".6" class="msportalfx-svg-c01" fill="#ffffff"></rect></g><defs>
<linearGradient id="59616712-f700-4139-92c6-bd98d17f02f9" x1="6.574" y1="1.643" x2="6.574" y2="13.015" gradientUnits="userSpaceOnUse"><stop offset="0" stop-color="#9d79eb"></stop><stop offset="1" stop-color="#7548d6"></stop></linearGradient>
<linearGradient id="59616712-f700-4139-92c6-bd98d17f02fa" x1="12.173" y1="13.886" x2="12.151" y2="17.014" gradientUnits="userSpaceOnUse"><stop offset="0" stop-color="#3cd4c2"></stop><stop offset="1" stop-color="#37c2b1"></stop></linearGradient>
<linearGradient id="59616712-f700-4139-92c6-bd98d17f02fb" x1="12.173" y1="10.27" x2="12.151" y2="13.399" gradientUnits="userSpaceOnUse"><stop offset="0" stop-color="#3cd4c2"></stop><stop offset="1" stop-color="#37c2b1"></stop></linearGradient>
</defs>
</svg>