<svg viewBox="0 0 18 18" class="" role="presentation" focusable="false" xmlns="http://www.w3.org/2000/svg" xmlns:xlink="http://www.w3.org/1999/xlink" id="FxSymbol0-0ca" data-type="1"><g><path d="M7.773 3.682L0 11.455v4.909A1.637 1.637 0 0 0 1.636 18h14.728A1.637 1.637 0 0 0 18 16.364V1.636A1.637 1.637 0 0 0 16.364 0h-.819L9.818 5.727z" fill="url(#abe241b1-5a9a-45d6-aa6a-018218fcb790)"></path><path d="M7.773 8.591L.586 15.778a1.194 1.194 0 0 0-.381 1.379A1.635 1.635 0 0 0 1.636 18h14.728A1.637 1.637 0 0 0 18 16.364V2.455l-8.182 8.181z" fill="url(#aa8b03fb-bed7-4004-829e-edcb663a744f)"></path><path d="M9.818 5.727L15.545 0H1.636A1.637 1.637 0 0 0 0 1.636v9.819l7.773-7.773z" fill="url(#b62f4b11-b9c6-44f0-b9c4-a8dc21d95f47)"></path></g><defs>
<linearGradient id="abe241b1-5a9a-45d6-aa6a-018218fcb790" x1="15.601" y1="771.736" x2="2.537" y2="793.07" gradientTransform="matrix(1 0 0 -1 0 791.516)" gradientUnits="userSpaceOnUse"><stop offset="0" stop-color="#0078d4"></stop><stop offset="1" stop-color="#289bf2"></stop></linearGradient>
<linearGradient id="aa8b03fb-bed7-4004-829e-edcb663a744f" x1="5.138" y1="789.264" x2="13.27" y2="773.77" gradientTransform="matrix(1 0 0 -1 0 791.516)" gradientUnits="userSpaceOnUse"><stop offset="0" stop-color="#00ccf9"></stop><stop offset="1" stop-color="#0095e6"></stop></linearGradient>
<linearGradient id="b62f4b11-b9c6-44f0-b9c4-a8dc21d95f47" x1="5.768" y1="791.577" x2="9.72" y2="780.168" gradientTransform="matrix(1 0 0 -1 0 791.516)" gradientUnits="userSpaceOnUse"><stop offset="0" stop-color="#7cecff"></stop><stop offset="1" stop-color="#50e6ff"></stop></linearGradient>
</defs>
</svg>