<svg viewBox="0 0 18 18" class="" role="presentation" focusable="false" xmlns="http://www.w3.org/2000/svg" xmlns:xlink="http://www.w3.org/1999/xlink" id="FxSymbol0-10b" data-type="1"><g><path fill="url(#8775721509064169)" d="M3.779 4.344l2.454 1.274 2.23 12.24-7.111-4.102 2.427-9.412z"></path><path d="M13.344 1.4L10.89.13 3.91 4.266a.368.368 0 0 0-.169.226l-2.389 9.264 7.111-4.214 7.11 4.1z" fill="url(#9794750736682545)"></path><path d="M6.233 5.618L13.344 1.4l2.229 12.24-6.653 3.947a.369.369 0 0 1-.552-.251z" fill="#773adc"></path><path d="M13.325 12.378l1.822-1.056-.017-.09-1.819 1.058V9.7l1.723 1-.019-.105-1.7-.991v-.062l-.055.032 1.426-.825-.016-.085-1.381.8V6.853l1.173.679-.019-.1-1.112-.644.9-.522-.016-.085-.927.538V4.086l.612.358-.019-.106-.6-.351V1.376a.453.453 0 0 0-.078-.067l-.25.149.247-.143v2.624l-2.229-1.3-.149.088V5.3L8.624 4.026l-.754.448.612-.354v2.6L6.261 5.43l-.12.072.081.429V5.5l2.239 1.3v.007L6.594 7.9l.019.1 1.905-1.109V9.5L6.7 8.448l.025.134 1.72 1-1.38.8.018.092 1.408-.815v2.6l-1.2-.7.02.106 1.141.661-.916.53.019.1.923-.535v2.64l-.59-.343.02.106.5.291-.4.231.017.089.425-.246v2.287a.375.375 0 0 0 .081.068v-2.353l2.214 1.282.081-.048-2.251-1.3 2.253-1.306v2.608l.081-.048v-2.56l2.185 1.265.081-.048-2.223-1.286 2.248-1.309v2.574l.081-.048v-2.52l2.137 1.237a.383.383 0 0 0 .048-.066zM10.9 2.69L13.14 4 10.9 5.3zm-.073 2.828v2.589l-2.2-1.281.021-.012-.032-.014zm0 2.685L8.6 9.5V6.908zM8.563 4.085l2.252 1.309v.034L8.563 6.737zm2.263 6.876l-2.256 1.3V9.656zm-2.27 4.073v-2.59l2.226 1.3zm2.3-1.349l-2.28-1.326 2.28-1.319zm.015-2.794l-2.253-1.3 2.253-1.306zM10.9 5.4l2.3-1.333v2.708l-2.3-1.343V5.4zm.056 2.826l.036-.021-.019-.005L13.2 6.9v2.626zm2.222 1.381l-2.23 1.293V8.316zM10.9 5.526l2.249 1.308L10.9 8.141zm.029 8.135v-2.579l2.221 1.292zm2.3-1.338L10.955 11l2.274-1.318z" fill="url(#23167074985235558)"></path><path d="M13.517 1.433c0-.024-.031-.034-.043-.055a.225.225 0 0 0-.1-.158L11.146.065a.532.532 0 0 0-.516.014L3.7 4.189a.163.163 0 0 0-.08.144v.007c0 .008-.014.011-.017.02l-2.338 9.068a.536.536 0 0 0 .249.594l6.868 3.961h.011a.156.156 0 0 0 .067.015.165.165 0 0 0 .083-.023l6.892-4.075a.533.533 0 0 0 .252-.553zM10.8.359a.2.2 0 0 1 .2-.006L13.009 1.4 8.218 4.237 6.327 5.358a.208.208 0 0 1-.2.005L4.114 4.319zM1.677 13.74a.209.209 0 0 1-.1-.232l2.3-8.941 2.099 1.085.024.011a.208.208 0 0 1 .108.147l.013.074 1.444 7.922.677 3.719zm13.593-.12l-6.689 3.964L6.439 5.826a.21.21 0 0 1 .1-.215l6.689-3.964 2.142 11.758a.208.208 0 0 1-.1.215z" fill="#552f99"></path></g><defs>
<linearGradient id="8775721509064169" x1="4.907" y1="17.858" x2="4.907" y2="4.344" gradientUnits="userSpaceOnUse"><stop offset="0" stop-color="#773adc"></stop><stop offset="1" stop-color="#a67af4"></stop></linearGradient>
<linearGradient id="9794750736682545" x1="8.463" y1="13.756" x2="8.463" y2=".13" gradientUnits="userSpaceOnUse"><stop offset="0" stop-color="#552f99"></stop><stop offset="1" stop-color="#773adc"></stop></linearGradient>
<linearGradient id="23167074985235558" x1="6.141" y1="9.429" x2="15.466" y2="9.429" gradientUnits="userSpaceOnUse"><stop offset="0" stop-color="#a67af4"></stop><stop offset="1" stop-color="#773adc"></stop></linearGradient>
</defs>
</svg>