<svg viewBox="0 0 64 64" class="" role="presentation" focusable="false" xmlns:svg="http://www.w3.org/2000/svg" xmlns:xlink="http://www.w3.org/1999/xlink" id="FxSymbol0-07d" data-type="1"><g><title></title><path d="M64 11v46H0V11a4 4 0 0 1 4-4h56a4 4 0 0 1 4 4z" fill="#80bceb"></path><circle cx="6" cy="12" r="2" fill="#414042"></circle><circle cx="12" cy="12" r="2" fill="#414042"></circle><circle cx="18" cy="12" r="2" fill="#414042"></circle><path d="M64 11v39l-4-4-2-25-24-1L21 7h39a4 4 0 0 1 4 4z" fill="#aad2f2"></path><path fill="#231f20" d="M3 16h58v38H3z"></path><path d="M10.08 28.95v1.38h-.79V29A4.3 4.3 0 0 1 7 28.45V27a3.17 3.17 0 0 0 1.05.56 3.82 3.82 0 0 0 1.24.23V25a5.33 5.33 0 0 1-1.94-1.28 2.23 2.23 0 0 1-.44-1.38 2.26 2.26 0 0 1 .67-1.63 2.84 2.84 0 0 1 1.71-.83v-1.14h.78v1.12a4 4 0 0 1 1.84.36v1.36a3.23 3.23 0 0 0-1.83-.58v3A5.67 5.67 0 0 1 12 25.21a2.16 2.16 0 0 1-.13 2.94 3.13 3.13 0 0 1-1.79.8zm-.78-5.36v-2.53a1.34 1.34 0 0 0-.76.41 1.09 1.09 0 0 0-.28.76 1.22 1.22 0 0 0 .23.77 2.45 2.45 0 0 0 .8.59zm.78 1.76v2.44q1.08-.23 1.08-1.12t-1.08-1.32zm8.53 5.53h-5.4v-.75h5.4z" class="msportalfx-svg-c01" fill="#ffffff"></path><path fill="#414042" d="M61 16v31L30 16h31z"></path></g><defs>
<linearGradient id="a" x1="-1267.23" y1="3.07" x2="-1267.52" y2="14.64" gradientTransform="matrix(-1 0 0 1 -1256.13 0)" gradientUnits="userSpaceOnUse"><stop offset="0" stop-color="#32d4f5"></stop><stop offset=".23" stop-color="#31d0f1"></stop><stop offset=".46" stop-color="#2cc3e6"></stop><stop offset=".7" stop-color="#25afd4"></stop><stop offset=".94" stop-color="#1c92ba"></stop><stop offset="1" stop-color="#198ab3"></stop></linearGradient>
<linearGradient id="b" x1="6.05" y1="11.51" x2="6.05" y2="3" gradientUnits="userSpaceOnUse"><stop offset="0" stop-color="#0078d4"></stop><stop offset=".82" stop-color="#5ea0ef"></stop></linearGradient>
<linearGradient id="c" x1="10.51" y1="6.82" x2="7.93" y2="10.5" gradientUnits="userSpaceOnUse"><stop offset="0" stop-color="#005ba1"></stop><stop offset=".14" stop-color="#035da3" stop-opacity=".97"></stop><stop offset=".3" stop-color="#0b63aa" stop-opacity=".88"></stop><stop offset=".47" stop-color="#196eb6" stop-opacity=".73"></stop><stop offset=".65" stop-color="#2d7cc6" stop-opacity=".52"></stop><stop offset=".84" stop-color="#468edb" stop-opacity=".26"></stop><stop offset="1" stop-color="#5ea0ef" stop-opacity="0"></stop></linearGradient>
</defs>
</svg>