<svg viewBox="0 0 18 18" class="" role="presentation" focusable="false" xmlns:svg="http://www.w3.org/2000/svg" xmlns:xlink="http://www.w3.org/1999/xlink" id="FxSymbol0-02e" data-type="1"><g><title></title><defs><clipPath id="b"><path d="M14.969 7.53a6.137 6.137 0 1 1-7.395-4.543 6.137 6.137 0 0 1 7.395 4.543z" fill="none"></path></clipPath></defs><title>Icon-databases-121</title><path d="M2.954 5.266a.175.175 0 0 1-.176-.176A2.012 2.012 0 0 0 .769 3.081a.176.176 0 0 1-.176-.175.176.176 0 0 1 .176-.176A2.012 2.012 0 0 0 2.778.72a.175.175 0 0 1 .176-.176.175.175 0 0 1 .176.176 2.012 2.012 0 0 0 2.009 2.009.175.175 0 0 1 .176.176.175.175 0 0 1-.176.176A2.011 2.011 0 0 0 3.13 5.09a.177.177 0 0 1-.176.176zm12.657 12.19a.141.141 0 0 1-.141-.141 1.609 1.609 0 0 0-1.607-1.607.141.141 0 0 1-.141-.14.141.141 0 0 1 .141-.141 1.608 1.608 0 0 0 1.607-1.607.141.141 0 0 1 .141-.141.141.141 0 0 1 .141.141 1.608 1.608 0 0 0 1.607 1.607.141.141 0 1 1 0 .282 1.609 1.609 0 0 0-1.607 1.607.141.141 0 0 1-.141.14z" fill="#50e6ff"></path><path d="M14.969 7.53a6.137 6.137 0 1 1-7.395-4.543 6.137 6.137 0 0 1 7.395 4.543z" fill="url(#a)"></path><g clip-path="url(#b)" fill="#f2f2f2"><path d="M5.709 13.115a1.638 1.638 0 1 0 .005-3.275 1.307 1.307 0 0 0 .007-.14A1.651 1.651 0 0 0 4.06 8.064H2.832a6.251 6.251 0 0 0 1.595 5.051zm9.336-5.3c0-.015 0-.03-.007-.044a5.978 5.978 0 0 0-1.406-2.88 1.825 1.825 0 0 0-.289-.09 1.806 1.806 0 0 0-2.3 1.663 2 2 0 0 0-.2-.013 1.737 1.737 0 0 0-.581 3.374 1.451 1.451 0 0 0 .541.1h2.03a13.453 13.453 0 0 0 2.212-2.11z"></path></g><path d="M17.191 3.832c-.629-1.047-2.1-1.455-4.155-1.149a14.606 14.606 0 0 0-2.082.452 6.456 6.456 0 0 1 1.528.767c.241-.053.483-.116.715-.151a7.49 7.49 0 0 1 1.103-.089 2.188 2.188 0 0 1 1.959.725c.383.638.06 1.729-.886 3a16.723 16.723 0 0 1-4.749 4.051A16.758 16.758 0 0 1 4.8 13.7c-1.564.234-2.682 0-3.065-.636s-.06-1.73.886-2.995c.117-.157.146-.234.279-.392a6.252 6.252 0 0 1 .026-1.63 11.552 11.552 0 0 0-1.17 1.372C.517 11.076.181 12.566.809 13.613a3.165 3.165 0 0 0 2.9 1.249 8.434 8.434 0 0 0 1.251-.1 17.855 17.855 0 0 0 6.219-2.4A17.808 17.808 0 0 0 16.24 8.03c1.243-1.661 1.579-3.15.951-4.198z" fill="#50e6ff"></path></g><defs>
<linearGradient id="a" x1="9" y1="16.39" x2="9" y2="-1.94" gradientUnits="userSpaceOnUse"><stop offset="0" stop-color="#0078d4"></stop><stop offset=".16" stop-color="#1380da"></stop><stop offset=".53" stop-color="#3c91e5"></stop><stop offset=".82" stop-color="#559cec"></stop><stop offset="1" stop-color="#5ea0ef"></stop></linearGradient>
<linearGradient id="b" x1="9.88" y1="7.11" x2="9.99" y2="17.27" gradientUnits="userSpaceOnUse"><stop offset="0" stop-color="#32d4f5"></stop><stop offset=".32" stop-color="#31d1f3"></stop><stop offset=".53" stop-color="#2ec9eb"></stop><stop offset=".7" stop-color="#29bade"></stop><stop offset=".86" stop-color="#22a5cb"></stop><stop offset="1" stop-color="#198ab3"></stop><stop offset="1" stop-color="#198ab3"></stop></linearGradient>
<radialGradient id="c" cx="9.43" cy="7.03" r="7.27" gradientUnits="userSpaceOnUse"><stop offset="0" stop-color="#f2f2f2"></stop><stop offset=".58" stop-color="#eee"></stop><stop offset="1" stop-color="#e6e6e6"></stop></radialGradient>
</defs>
</svg>