<svg viewBox="0 0 50 50" class="fxs-portal-svg" role="presentation" focusable="false" xmlns:svg="http://www.w3.org/2000/svg" xmlns:xlink="http://www.w3.org/1999/xlink" id="FxSymbol0-0c6" data-type="1"><g><title></title><path d="M42.362 6H7.638C4 6 2 10 3.863 13s3.966 8.819 3.966 8.819C8.53 23.724 10.923 25 13.047 25h23.906c2.125 0 4.517-1.276 5.219-3.181 0 0 2.103-5.819 3.966-8.819S46 6 42.362 6zm1.227 5.418c-2.005 3.229-4.148 9.132-4.238 9.382-.262.711-1.027 1.2-1.897 1.2H12.547c-.87 0-1.636-.489-1.904-1.218-.083-.232-2.227-6.135-4.231-9.364a1.651 1.651 0 0 1-.049-1.683C6.549 9.399 6.922 9 7.638 9h34.725c.716 0 1.089.399 1.275.735.11.199.433.907-.049 1.683z" class="msportalfx-svg-c10" fill="#ff8c00"></path><path opacity=".6" d="M42.362 6H27v3h15.362c.716 0 1.089.399 1.275.735.11.198.434.906-.049 1.683-2.005 3.229-4.148 9.132-4.238 9.382-.262.711-1.027 1.2-1.897 1.2H27v3h9.953c2.125 0 4.517-1.276 5.219-3.181 0 0 2.103-5.819 3.966-8.819S46 6 42.362 6z" class="msportalfx-svg-c09" fill="#dd5900"></path><path d="M21 29h8v11h-8z" class="msportalfx-svg-c11" fill="#fcd116"></path><path opacity=".4" d="M25 29h4v11h-4z" class="msportalfx-svg-c09" fill="#dd5900"></path><path d="M37.929 47.753l-1.851-6.467c-.593-1.381-1.102-2.286-2.7-2.286H16.622c-1.598 0-2.106.905-2.699 2.286l-1.851 6.467c-.258.597.215 1.247.906 1.247h24.044c.691 0 1.164-.65.907-1.247z" class="msportalfx-svg-c10" fill="#ff8c00"></path><path opacity=".6" d="M37.929 47.753l-1.851-6.467c-.593-1.381-1.102-2.286-2.7-2.286H25v10h12.022c.691 0 1.164-.65.907-1.247z" class="msportalfx-svg-c09" fill="#dd5900"></path><path opacity=".4" d="M21 31.894c1.225.701 2.583 1.106 4 1.106 1.422 0 2.778-.402 4-1.096V29h-8v2.894z" class="msportalfx-svg-c09" fill="#dd5900"></path><path d="M37.455 1H12.47c-1.722 0-1.63 1.987-1.224 2.445s3.337 4.13 3.337 17.278c0 5.639 4.808 10.277 10.38 10.277 5.622 0 10.38-4.644 10.38-10.277 0-13.148 2.825-16.768 3.337-17.278S39.287 1 37.455 1z" class="msportalfx-svg-c11" fill="#fcd116"></path><path opacity=".3" d="M25 30.998c5.605-.021 10.343-4.655 10.343-10.275 0-13.148 2.825-16.768 3.337-17.278.511-.51.607-2.445-1.225-2.445H25v29.998z" class="msportalfx-svg-c09" fill="#dd5900"></path></g><defs>
</defs>
</svg>