<svg viewBox="0 0 18 18" class="" role="presentation" focusable="false" xmlns="http://www.w3.org/2000/svg" xmlns:xlink="http://www.w3.org/1999/xlink" id="FxSymbol0-172" data-type="288"><g><path fill="url(#94a115a1-5689-4c39-bee0-5c63fda4a20d)" d="M15.353 15.379c-.425-3.4-2.093-6.28-5.164-7.212a4.16 4.16 0 1 0-4.551-.036C2.543 8.961.892 11.568.515 15.39A1.328 1.328 0 0 0 1.7 16.847c.044 0 .089.007.134.007h12.2a1.322 1.322 0 0 0 1.326-1.316 1.4 1.4 0 0 0-.007-.159z"></path><path d="M7.947 8.831a4.144 4.144 0 0 1-2.256-.664L7.924 14l2.217-5.794a4.145 4.145 0 0 1-2.194.625z" class="msportalfx-svg-c01" fill="#ffffff"></path><path fill="#32bedd" d="M17.493 11.131v4.239L13.85 17.5v-4.245l3.643-2.124z"></path><path fill="#9cebff" d="M17.493 11.131 13.85 13.26l-3.643-2.13L13.85 9l3.643 2.131z"></path><path fill="#50e6ff" d="M13.85 13.26v4.24l-3.643-2.13v-4.24l3.643 2.13z"></path><path fill="#9cebff" d="m10.207 15.37 3.643-2.115V17.5l-3.643-2.13z"></path><path fill="#50e6ff" d="m17.493 15.37-3.643-2.115V17.5l3.643-2.13z"></path></g><defs>
<linearGradient id="94a115a1-5689-4c39-bee0-5c63fda4a20d" x1="7.935" x2="7.935" y1="17.597" y2="-4.453" gradientUnits="userSpaceOnUse"><stop offset="0" stop-color="#5e9624"></stop><stop offset=".061" stop-color="#659d25"></stop><stop offset=".479" stop-color="#90c82e"></stop><stop offset=".807" stop-color="#aae234"></stop><stop offset="1" stop-color="#b4ec36"></stop></linearGradient>
</defs>
</svg>