<?xml version="1.0" encoding="UTF-8" standalone="no"?>
<!DOCTYPE svg PUBLIC "-//W3C//DTD SVG 1.1//EN" "http://www.w3.org/Graphics/SVG/1.1/DTD/svg11.dtd">
<!-- Generated by Microsoft Visio, SVG Export Azure-Storage-Blog-Cool-Tier.svg Page-1 -->
<svg xmlns="http://www.w3.org/2000/svg" xmlns:xlink="http://www.w3.org/1999/xlink" xmlns:ev="http://www.w3.org/2001/xml-events"
		xmlns:v="http://schemas.microsoft.com/visio/2003/SVGExtensions/" width="1.38892in" height="1.23368in"
		viewBox="0 0 100.002 88.8249" xml:space="preserve" color-interpolation-filters="sRGB" class="st6">
	<v:documentProperties v:langID="1033" v:metric="true" v:viewMarkup="false"/>

	<style type="text/css">
	<![CDATA[
		.st1 {fill:#a0a1a2;stroke:none;stroke-width:12.24}
		.st2 {fill:#7a7a7a;stroke:none;stroke-width:12.24}
		.st3 {fill:#ffffff;stroke:none;stroke-width:12.24}
		.st4 {fill:#2272b9;stroke:none;stroke-width:0.859306}
		.st5 {fill:#ffffff;fill-opacity:0.2;stroke:none;stroke-width:12.24}
		.st6 {fill:none;fill-rule:evenodd;font-size:12px;overflow:visible;stroke-linecap:square;stroke-miterlimit:3}
	]]>
	</style>

	<g v:mID="0" v:index="1" v:groupContext="foregroundPage">
		<title>Page-1</title>
		<v:pageProperties v:drawingScale="1" v:pageScale="1" v:drawingUnits="0" v:shadowOffsetX="9" v:shadowOffsetY="-9"/>
		<g id="group1475-1" transform="translate(12.24,-12.24)" v:mID="1475" v:groupContext="group">
			<title>Azure Storage (Blog) Cool Tier</title>
			<g id="shape1476-2" v:mID="1476" v:groupContext="shape">
				<title>Sheet.1476</title>
				<path d="M0 85.96 C0 87.47 1.06 88.82 2.87 88.82 L72.65 88.82 C74.16 88.82 75.52 87.77 75.52 85.96 L75.52 35.96 L0
							 35.96 L0 85.96 Z" class="st1"/>
			</g>
			<g id="shape1477-4" v:mID="1477" v:groupContext="shape" transform="translate(1.35891E-13,-52.8655)">
				<title>Sheet.1477</title>
				<path d="M72.65 77.35 L2.87 77.35 C1.06 77.35 0 78.7 0 80.22 L0 88.82 L75.52 88.82 L75.52 80.22 C75.52 78.7 74.46
							 77.35 72.65 77.35 Z" class="st2"/>
			</g>
			<g id="shape1478-6" v:mID="1478" v:groupContext="shape" transform="translate(28.3963,-36.4017)">
				<title>Sheet.1478</title>
				<rect x="0" y="77.3455" width="19.0316" height="11.4794" class="st3"/>
			</g>
			<g id="shape1479-8" v:mID="1479" v:groupContext="shape" transform="translate(28.3963,-20.8441)">
				<title>Sheet.1479</title>
				<rect x="0" y="77.3455" width="19.0316" height="11.4794" class="st4"/>
			</g>
			<g id="shape1480-10" v:mID="1480" v:groupContext="shape" transform="translate(51.053,-20.8441)">
				<title>Sheet.1480</title>
				<rect x="0" y="77.3455" width="19.0316" height="11.4794" class="st4"/>
			</g>
			<g id="shape1481-12" v:mID="1481" v:groupContext="shape" transform="translate(51.053,-36.4017)">
				<title>Sheet.1481</title>
				<rect x="0" y="77.3455" width="19.0316" height="11.4794" class="st3"/>
			</g>
			<g id="shape1482-14" v:mID="1482" v:groupContext="shape" transform="translate(5.73968,-36.4017)">
				<title>Sheet.1482</title>
				<rect x="0" y="77.3455" width="19.0316" height="11.4794" class="st3"/>
			</g>
			<g id="shape1483-16" v:mID="1483" v:groupContext="shape" transform="translate(5.73968,-20.8441)">
				<title>Sheet.1483</title>
				<rect x="0" y="77.3455" width="19.0316" height="11.4794" class="st3"/>
			</g>
			<g id="shape1484-18" v:mID="1484" v:groupContext="shape" transform="translate(5.73968,-5.43759)">
				<title>Sheet.1484</title>
				<rect x="0" y="77.3455" width="19.0316" height="11.4794" class="st4"/>
			</g>
			<g id="shape1485-20" v:mID="1485" v:groupContext="shape" transform="translate(28.3963,-5.43759)">
				<title>Sheet.1485</title>
				<rect x="0" y="77.3455" width="19.0316" height="11.4794" class="st4"/>
			</g>
			<g id="shape1486-22" v:mID="1486" v:groupContext="shape" transform="translate(51.053,-5.43759)">
				<title>Sheet.1486</title>
				<rect x="0" y="77.3455" width="19.0316" height="11.4794" class="st4"/>
			</g>
			<g id="shape1487-24" v:mID="1487" v:groupContext="shape">
				<title>Sheet.1487</title>
				<path d="M2.87 24.48 C1.51 24.48 0 25.84 0 27.35 L0 38.53 L0 43.51 L0 85.96 C0 87.47 1.51 88.82 2.87 88.82 L6.04
							 88.82 L65.86 24.48 L2.87 24.48 Z" class="st5"/>
			</g>
		</g>
	</g>
</svg>
