<svg viewBox="0 0 18 18" class="" role="presentation" focusable="false" xmlns="http://www.w3.org/2000/svg" xmlns:xlink="http://www.w3.org/1999/xlink" id="FxSymbol0-14b" data-type="1"><g><path d="M17.891 7.681a2.889 2.889 0 0 0-2.508-2.776 3.641 3.641 0 0 0-3.75-3.482 3.735 3.735 0 0 0-3.57 2.434 3.447 3.447 0 0 0-3.03 3.317 3.5 3.5 0 0 0 3.62 3.362c.108 0 .214 0 .319-.014h5.863a.611.611 0 0 0 .155-.023 2.923 2.923 0 0 0 2.901-2.818Z" fill="url(#59616712-f700-4139-92c6-bd98d17f0305)"></path><path d="m9.835 11 .018.414.41.055a2.371 2.371 0 0 1 2.058 2.3 2.409 2.409 0 0 1-2.384 2.379h-6.3A2.976 2.976 0 0 1 .56 13.262a2.919 2.919 0 0 1 2.571-2.8l.3-.037.1-.285a3.216 3.216 0 0 1 3.078-2.119h.022A3.116 3.116 0 0 1 9.835 11Z" class="msportalfx-svg-c01" fill="#ffffff"></path><path d="m13.6 5.66-1.587-1.538c-.173-.173-.319-.112-.319.156v.691a.194.194 0 0 1-.016.075.183.183 0 0 1-.108.1.194.194 0 0 1-.075.012c-1.02 0-3.864.268-3.967 4.157a.2.2 0 0 0 .2.2h1.01a.2.2 0 0 0 .08-.017.208.208 0 0 0 .067-.047.222.222 0 0 0 .042-.071.2.2 0 0 0 .01-.081 2.386 2.386 0 0 1 2.592-2.878.2.2 0 0 1 .2.2v.639c0 .32.1.372.32.156L13.6 5.989a.193.193 0 0 0 .064-.072.2.2 0 0 0 0-.185.2.2 0 0 0-.064-.072Z" class="msportalfx-svg-c01" fill="#ffffff"></path><path d="M3.578 16.577A3.469 3.469 0 0 1 .11 13.213v-.031A3.417 3.417 0 0 1 3.116 9.9a3.713 3.713 0 0 1 3.545-2.44 3.608 3.608 0 0 1 3.712 3.452 2.865 2.865 0 0 1 2.486 2.775v.017a2.9 2.9 0 0 1-2.874 2.868H3.7c-.041.005-.082.005-.122.005ZM1.1 13.2a2.483 2.483 0 0 0 2.567 2.389H9.98a1.914 1.914 0 0 0 1.89-1.889 1.876 1.876 0 0 0-1.628-1.8l-.822-.11-.035-.828A2.622 2.622 0 0 0 6.69 8.451h-.032a2.72 2.72 0 0 0-2.613 1.79l-.208.571-.6.072A2.425 2.425 0 0 0 1.1 13.2Z" fill="url(#59616712-f700-4139-92c6-bd98d17f0306)"></path></g><defs>
<linearGradient id="59616712-f700-4139-92c6-bd98d17f0305" x1="11.462" y1="10.536" x2="11.462" y2="1.423" gradientUnits="userSpaceOnUse"><stop offset="0" stop-color="#0078d4"></stop><stop offset=".149" stop-color="#1882db"></stop><stop offset=".373" stop-color="#378fe4"></stop><stop offset=".594" stop-color="#4c99ea"></stop><stop offset=".806" stop-color="#5a9eee"></stop><stop offset="1" stop-color="#5ea0ef"></stop></linearGradient>
<linearGradient id="59616712-f700-4139-92c6-bd98d17f0306" x1="6.484" y1="16.577" x2="6.484" y2="7.461" gradientUnits="userSpaceOnUse"><stop offset="0" stop-color="#32bedd"></stop><stop offset="1" stop-color="#50e6ff"></stop></linearGradient>
</defs>
</svg>