<svg viewBox="0 0 18 18" class="" role="presentation" focusable="false" xmlns="http://www.w3.org/2000/svg" xmlns:xlink="http://www.w3.org/1999/xlink" id="FxSymbol0-0f8" data-type="1"><g><path fill="#76bc2d" d="M16.674 16.136H1.884a.474.474 0 110-.948h14.79a.474.474 0 110 .948z"></path><path fill="#76bc2d" d="M8.893 12.704h1.129v2.994H8.893z"></path><rect width="4.058" height="17" x="6.971" y="-5.452" fill="#5ea0ef" rx=".567" transform="rotate(90 9 3.048)"></rect><rect width="4.058" height="17" x="6.971" y="-1.479" fill="#0078d4" rx=".567" transform="rotate(90 9 7.021)"></rect><rect width="4.058" height="17" x="6.971" y="2.551" fill="#005ba1" rx=".567" transform="rotate(90 9 11.051)"></rect><path fill="url(#955724ae-8582-4ca1-9b57-4284a5f54126)" d="M17.5 4.511V1.586a.567.567 0 00-.567-.567H1.067a.567.567 0 00-.567.567v2.925a.567.567 0 00.352.524.566.566 0 00-.352.524v2.925a.566.566 0 00.444.552.566.566 0 00-.444.553v2.924a.567.567 0 00.567.567h15.866a.567.567 0 00.567-.567V9.589a.566.566 0 00-.444-.553.566.566 0 00.444-.552V5.559a.566.566 0 00-.352-.524.567.567 0 00.352-.524z"></path><circle cx="3.215" cy="2.939" r=".933" fill="#f2f2f2"></circle><circle cx="6.088" cy="2.939" r=".933" fill="#f2f2f2"></circle><circle cx="3.215" cy="6.825" r=".933" fill="#83b9f9"></circle><circle cx="6.088" cy="6.825" r=".933" fill="#83b9f9"></circle><circle cx="3.215" cy="10.673" r=".933" fill="#83b9f9"></circle><circle cx="6.088" cy="10.673" r=".933" fill="#83b9f9"></circle><rect width="5.122" height="2.887" x="6.882" y="14.094" fill="url(#955724ae-8582-4ca1-9b57-4284a5f54127)" rx="1.443"></rect></g><defs>
<linearGradient id="955724ae-8582-4ca1-9b57-4284a5f54126" x1="9" x2="9" y1="13.08" y2="1.019" gradientUnits="userSpaceOnUse"><stop offset="0" stop-color="#005ba1"></stop><stop offset=".16" stop-color="#005fa8" stop-opacity=".866"></stop><stop offset=".491" stop-color="#0069b9" stop-opacity=".52"></stop><stop offset=".939" stop-color="#0078d4" stop-opacity="0"></stop></linearGradient>
<linearGradient id="955724ae-8582-4ca1-9b57-4284a5f54127" x1="9.443" x2="9.443" y1="16.981" y2="14.094" gradientUnits="userSpaceOnUse"><stop offset="0" stop-color="#005ba1"></stop><stop offset=".15" stop-color="#0063af"></stop><stop offset=".439" stop-color="#006fc3"></stop><stop offset=".724" stop-color="#0076d0"></stop><stop offset="1" stop-color="#0078d4"></stop></linearGradient>
</defs>
</svg>