<svg viewBox="0 0 50 50" class="fxs-portal-svg" role="presentation" focusable="false" xmlns:svg="http://www.w3.org/2000/svg" xmlns:xlink="http://www.w3.org/1999/xlink" id="FxSymbol0-183" data-type="1"><g><title></title><path d="M22.3 37.3C15.8 41.8 5.4 48.7 4.4 49.5c-1.3.9-3.2.5-3.8-.3-.6-.9-.6-2.8.7-3.7.8-.5 14.5-9.8 18.7-12.7l2.4 2.6c1.1 1.1-.1 1.9-.1 1.9zM22 31S10 18.1 8.6 16.7c-1.3-1.5-.1-3.2.6-3.8.7-.6 2.8-1.5 3.9-.4S27.6 28 28.6 29.1s.9 2.8-.8 4c-.3.2-1.1.8-2.3 1.6-.1.1-.6.5-1.1.8 0 0 1.1-.8.3-1.7L22 31zm8.6-8.5c5.4 5.8 13.8 14.9 14.7 15.8 1.1 1.2 3 1.2 3.8.5s1.2-2.5.1-3.7c-.6-.7-11.9-12.8-15.3-16.5l-2.9 2c-1.4.8-.4 1.9-.4 1.9zm1.2-5.9S46.3 6.5 47.9 5.3s.8-3.1.2-3.8S45.7-.6 44.4.3 27 12.4 25.8 13.3s-1.5 2.5 0 4.1c.2.3.9 1 1.9 2.1.1.1.5.6.9 1 0 0-.9-1 .1-1.7l3.1-2.2z" class="msportalfx-svg-c19" fill="#0072c6"></path></g><defs>
<linearGradient id="a" x1="-1267.23" y1="3.07" x2="-1267.52" y2="14.64" gradientTransform="matrix(-1 0 0 1 -1256.13 0)" gradientUnits="userSpaceOnUse"><stop offset="0" stop-color="#32d4f5"></stop><stop offset=".23" stop-color="#31d0f1"></stop><stop offset=".46" stop-color="#2cc3e6"></stop><stop offset=".7" stop-color="#25afd4"></stop><stop offset=".94" stop-color="#1c92ba"></stop><stop offset="1" stop-color="#198ab3"></stop></linearGradient>
<linearGradient id="b" x1="6.4" y1="1.32" x2="7.21" y2="11.39"><stop offset=".22" stop-color="#32d4f5"></stop><stop offset=".47" stop-color="#31d1f3"></stop><stop offset=".63" stop-color="#2ec9eb"></stop><stop offset=".77" stop-color="#29bade"></stop><stop offset=".89" stop-color="#22a5cb"></stop><stop offset="1" stop-color="#198ab3"></stop><stop offset="1" stop-color="#198ab3"></stop></linearGradient>
<linearGradient id="c" x1="13.76" y1="18.05" x2="13.76" y2="10.25" gradientUnits="userSpaceOnUse"><stop offset="0" stop-color="#76bc2d"></stop><stop offset=".6" stop-color="#81ce31"></stop><stop offset=".82" stop-color="#86d633"></stop></linearGradient>
</defs>
</svg>