<svg viewBox="0 0 32 32" class="" role="presentation" focusable="false" xmlns="http://www.w3.org/2000/svg" xmlns:xlink="http://www.w3.org/1999/xlink" id="FxSymbol0-261" data-type="1"><g><title></title><rect width="100%" height="100%" class="msportalfx-svg-c19" fill="#0072c6"></rect><g class="msportalfx-svg-c01" fill="#ffffff"><path d="M20.308 20.513v2.461h-6.564v-3.282h-2.052v3.692c0 .68.551 1.231 1.231 1.231h7.795c.68 0 1.23-.55 1.23-1.23v-4.103h-1.64zm-1.026-1.231h3.693l-1.847-2.462zM8 7.384h9.026v.82H8zm0 10.667h9.026v.82H8z"></path><path d="M8 7.384h.82v11.488H8zm8.205 0h.82v11.488h-.82zM9.641 9.846h5.744v.82H9.64zm0 2.461h5.744v.821H9.64zm0 2.462h5.744v.82H9.64zm8.616 0H24v.82h-5.743zm0-2.462H24v.821h-5.743zm0-2.461H24v.82h-5.743z"></path></g></g><defs>
</defs>
</svg>