<svg viewBox="0 0 50 50" class="" role="presentation" focusable="false" xmlns:svg="http://www.w3.org/2000/svg" xmlns:xlink="http://www.w3.org/1999/xlink" id="FxSymbol0-0ce" data-type="1"><g><title></title><path d="M43.4 47.004c-.48 0 .009.098-.4 0v-4.957H7c-.204 0-5-.046-5-4v-31c0-2.68 2.333-3.9 4.5-3.9s4.5 1.221 4.5 3.9v1h28.1c5.407 0 8.9 1.632 8.9 7.1v28.9c0 2.244-2.021 2.957-4.6 2.957z" class="msportalfx-svg-c15" fill="#59b4d9"></path><path opacity=".7" d="M43.4 47.004c-.48 0 .009.098-.4 0v-4.957H7c-.204 0-5-.046-5-4v-31c0-2.68 2.333-3.9 4.5-3.9s4.5 1.221 4.5 3.9v1h28.1c5.407 0 8.9 1.632 8.9 7.1v28.9c0 2.244-2.021 2.957-4.6 2.957z" class="msportalfx-svg-c01" fill="#ffffff"></path><path d="M39.1 7.048H12c0-3-2.5-4.9-5.5-4.9S1 4.048 1 7.048v30c0 5 3 6 6 6h35v5s7 0 7-5v-27.9c0-6-3-8.1-9.9-8.1zm7.9 36.2s-2-2.2-5.9-2.2H7c-2 0-4-.5-4-3.5 0-1.7 1.3-3.5 4-3.5 3 0 4.9 3 4.9 3h.1v-28h28.1c4 0 6.9 1.1 6.9 5.1v29.1z" class="msportalfx-svg-c19" fill="#0072c6"></path><path d="M36 31.999l1.5 4 1.5-4zM36 18h3v12h-3zm1.5-4.9c.828 0 1.5.647 1.5 1.446L38.973 16 36 15.974v-1.429c0-.798.672-1.445 1.5-1.445zm-13.5-1c.552 0 1 .647 1 1.446L24.982 15 23 14.974v-1.429c0-.798.448-1.445 1-1.445z" class="msportalfx-svg-c19" fill="#0072c6"></path><path d="M24 14.1a3.9 3.9 0 1 0 0 7.8 3.9 3.9 0 0 0 0-7.8zm0 6.8c-1.599 0-2.9-1.301-2.9-2.9s1.301-2.9 2.9-2.9 2.9 1.301 2.9 2.9-1.301 2.9-2.9 2.9z" class="msportalfx-svg-c19" fill="#0072c6"></path><path d="M24 20.914V19l-1.867 1.307-4.017 12.364-.285 4.112 2.186-3.494h.001l4.017-12.364z" class="msportalfx-svg-c19" fill="#0072c6"></path><path d="M29.884 32.671l-4.017-12.364L24 19v1.914l-.035.011 4.017 12.364h.001l2.186 3.494z" class="msportalfx-svg-c19" fill="#0072c6"></path><path d="M32 28H16a.5.5 0 0 1 0-1h16a.5.5 0 0 1 0 1z" class="msportalfx-svg-c19" fill="#0072c6"></path></g><defs>
<linearGradient id="a" x1="9" y1="16.39" x2="9" y2="-1.94" gradientUnits="userSpaceOnUse"><stop offset="0" stop-color="#0078d4"></stop><stop offset=".16" stop-color="#1380da"></stop><stop offset=".53" stop-color="#3c91e5"></stop><stop offset=".82" stop-color="#559cec"></stop><stop offset="1" stop-color="#5ea0ef"></stop></linearGradient>
<linearGradient id="b" x1="9.88" y1="7.11" x2="9.99" y2="17.27" gradientUnits="userSpaceOnUse"><stop offset="0" stop-color="#32d4f5"></stop><stop offset=".32" stop-color="#31d1f3"></stop><stop offset=".53" stop-color="#2ec9eb"></stop><stop offset=".7" stop-color="#29bade"></stop><stop offset=".86" stop-color="#22a5cb"></stop><stop offset="1" stop-color="#198ab3"></stop><stop offset="1" stop-color="#198ab3"></stop></linearGradient>
<radialGradient id="c" cx="9.43" cy="7.03" r="7.27" gradientUnits="userSpaceOnUse"><stop offset="0" stop-color="#f2f2f2"></stop><stop offset=".58" stop-color="#eee"></stop><stop offset="1" stop-color="#e6e6e6"></stop></radialGradient>
</defs>
</svg>