<svg viewBox="0 0 162 157" class="" role="presentation" focusable="false" xmlns="http://www.w3.org/2000/svg" xmlns:xlink="http://www.w3.org/1999/xlink" id="FxSymbol0-091" data-type="1"><g><title></title><title>bonsai-logomark</title><g fill="none"><path d="M33.63 28.31a.9.9 0 0 0 .89-.9v-5.33a.9.9 0 0 1 .89-.9h21.37a.9.9 0 0 0 .89-.9v-.93a.9.9 0 0 0-.89-.9h-9.82a.9.9 0 0 1-.89-.89V14.9a.9.9 0 0 1 .89-.9H61.6a.9.9 0 0 1 .89.9v9.88a.9.9 0 0 1-.89.9h-9.82a.9.9 0 0 0-.89.9v8a.9.9 0 0 0 .89.9H65.4a.9.9 0 0 1 .89.9v2.69a.9.9 0 0 1-.89.9H43.17a.9.9 0 0 1-.89-.9V36.4a.9.9 0 0 1 .89-.9h2a.9.9 0 0 0 .89-.9v-8a.9.9 0 0 0-.89-.9h-4.93a.9.9 0 0 0-.89.9v5.3a.9.9 0 0 1-.89.89H23.89a.9.9 0 0 1-.89-.89v-2.7a.9.9 0 0 1 .89-.9l9.74.01zm57.53 6a.9.9 0 0 0 .89.9h20.41a.9.9 0 0 0 .89-.9v-.93a.9.9 0 0 0-.89-.9h-5.88a.89.89 0 0 1-.89-.89V28.9a.9.9 0 0 1 .89-.9h10.69a.9.9 0 0 1 .89.9v9.88a.9.9 0 0 1-.89.9h-9.75a.9.9 0 0 0-.89.9v.85a.9.9 0 0 0 .89.9h17.41a.9.9 0 0 1 .89.9v12.6a.9.9 0 0 0 .89.9h7.85a.9.9 0 0 1 .89.89v2.61a.9.9 0 0 1-.89.9H122a.9.9 0 0 1-.89-.9V47.69a.9.9 0 0 0-.89-.9h-17.5a.9.9 0 0 1-.89-.9V40.6a.9.9 0 0 0-.89-.9h-1.13a.9.9 0 0 0-.89.9v5.3a.9.9 0 0 1-.89.9h-3a.9.9 0 0 1-.89-.9v-5.3a.9.9 0 0 0-.89-.9h-5.87a.9.9 0 0 1-.89-.9v-5.4a.9.9 0 0 0-.89-.9h-1.13a.9.9 0 0 0-.89.9v5.4a.9.9 0 0 1-.89.9h-8.8a.9.9 0 0 1-.89-.9v-2.7a.9.9 0 0 1 .89-.9h4a.9.9 0 0 0 .89-.9v-5.4a.9.9 0 0 1 .89-.9h10.56a.9.9 0 0 1 .89.9l.04 5.41zm-11.7 20.16a.9.9 0 0 0-.89.9v1.81a.89.89 0 0 1-.89.89H66.89a.89.89 0 0 1-.89-.89v-2.69a.9.9 0 0 1 .89-.9h6a.9.9 0 0 0 .89-.9v-1.8a.9.9 0 0 1 .89-.89h8.8a.9.9 0 0 1 .89.89v2.69a.9.9 0 0 1-.89.9l-4.01-.01z" fill="#52A646"></path><path d="M40.73 11.38a.9.9 0 0 0-.89.9v5.4a.9.9 0 0 1-.89.9h-3.06a.9.9 0 0 1-.89-.9V7.87a.9.9 0 0 1 .89-.87h16.56a.9.9 0 0 1 .89.9v2.61a.9.9 0 0 1-.89.9l-11.72-.03zM82.01 6.3a.9.9 0 0 0 .89.9h6a.9.9 0 0 1 .89.9v2.61a.9.9 0 0 1-.89.89H78.17a.9.9 0 0 1-.89-.89V5.38a.9.9 0 0 0-.89-.9H63.72a.9.9 0 0 0-.89.9v.93a.9.9 0 0 0 .89.91h5.88a.9.9 0 0 1 .89.9v5.3a.9.9 0 0 0 .89.89h19.34a.9.9 0 0 1 .89.9v9.88a.9.9 0 0 1-.89.9h-3a.9.9 0 0 1-.89-.9v-5.4a.9.9 0 0 0-.89-.9H66.56a.9.9 0 0 1-.89-.9v-5.4a.9.9 0 0 0-.89-.9h-5.89a.89.89 0 0 1-.89-.89V.9a.9.9 0 0 1 .89-.9h22.23a.9.9 0 0 1 .89.9v5.4zm39.97 20.25a.9.9 0 0 0-.89-.9h-20.42a.9.9 0 0 0-.89.9v5.34a.9.9 0 0 1-.89.9h-3a.9.9 0 0 1-.89-.9v-9.82a.9.9 0 0 1 .89-.9h9.83a.89.89 0 0 0 .89-.89v-.93a.89.89 0 0 0-.89-.89h-7.85a.9.9 0 0 1-.89-.9v-2.67a.89.89 0 0 1 .89-.89h12.59a.89.89 0 0 1 .89.89v5.4a.9.9 0 0 0 .89.89h13.62a.9.9 0 0 1 .89.9v6.21a.9.9 0 0 1-.89.89h-3a.9.9 0 0 1-.89-.89l.01-1.74zm7.67 10.83a.9.9 0 0 0-.89-.9h-5.87a.9.9 0 0 1-.89-.9V32.9a.9.9 0 0 1 .89-.9h10.69a.9.9 0 0 1 .89.9v13.4a.9.9 0 0 1-.89.89h-3a.9.9 0 0 1-.89-.89l-.04-8.92zm20.6 25.12a.9.9 0 0 0-.89-.9h-6a.9.9 0 0 1-.89-.9v-5.32a.9.9 0 0 0-.89-.9h-11.69a.9.9 0 0 1-.89-.89V50.9a.9.9 0 0 1 .89-.9h16.57a.9.9 0 0 1 .89.9v5.4a.9.9 0 0 0 .89.9h5.87a.9.9 0 0 1 .89.89v9.81a.9.9 0 0 1-.89.9h-3a.9.9 0 0 1-.89-.9l.03-5.4z" fill="#52A646"></path><path d="M140.67 70.43a.9.9 0 0 0-.89.9v3.57a.9.9 0 0 1-.89.9h-3a.9.9 0 0 1-.89-.9v-8a.9.9 0 0 1 .89-.9h10.78a.9.9 0 0 1 .89.9v2.69a.9.9 0 0 1-.89.9l-6-.06zM77.14 25.49a.9.9 0 0 0-.89.9v5.33a.89.89 0 0 1-.89.89H58.89a.9.9 0 0 1-.89-.89v-2.7a.9.9 0 0 1 .89-.9h11.72a.9.9 0 0 0 .89-.9v-.85a.9.9 0 0 0-.89-.9h-2.08a.9.9 0 0 1-.89-.9V21.9a.9.9 0 0 1 .89-.9h10.69a.9.9 0 0 1 .89.9v2.69a.9.9 0 0 1-.89.9h-2.08zM121.8 76.1a.9.9 0 0 0-.89.9v5.4a.9.9 0 0 1-.89.9h-3a.9.9 0 0 1-.89-.9v-9.81a.9.9 0 0 1 .89-.9h9.75a.9.9 0 0 0 .89-.89v-.92a.9.9 0 0 0-.89-.89h-15.55a.9.9 0 0 1-.89-.9V55.57a.9.9 0 0 0-.89-.9h-1.05a.9.9 0 0 0-.89.9v15.24a.9.9 0 0 1-.89.89h-10.8a.9.9 0 0 1-.89-.89V59.16a.9.9 0 0 0-.86-.88h-5.88a.9.9 0 0 1-.89-.89v-9a.89.89 0 0 0-.89-.89H66.89a.9.9 0 0 1-.89-.9v-2.7a.9.9 0 0 1 .89-.9h24.17a.9.9 0 0 1 .89.9v9a.9.9 0 0 0 .89.9h6a.9.9 0 0 1 .89.9v11.16a.9.9 0 0 0 .89.89h1.14a.89.89 0 0 0 .89-.89V51.09a.9.9 0 0 1 .89-.89h14.57a.89.89 0 0 1 .89.89v2.69a.9.9 0 0 1-.89.9h-2.05a.9.9 0 0 0-.89.9v8a.9.9 0 0 0 .89.9h15.59a.89.89 0 0 1 .89.89v9.81a.9.9 0 0 1-.89.9l-9.85.02zm16.65 9.5a.9.9 0 0 0-.89.9v10.76a.9.9 0 0 1-.89.9h-3a.9.9 0 0 1-.89-.9V86.53a.9.9 0 0 0-.89-.9h-6a.9.9 0 0 1-.89-.9v-2.71a.9.9 0 0 1 .89-.9h17.49a.89.89 0 0 0 .89-.89V74.9a.9.9 0 0 1 .89-.9h3a.9.9 0 0 1 .89.9v9.81a.9.9 0 0 1-.89.9l-9.71-.01z" fill="#52A646"></path><path d="M146.76 92.67a.9.9 0 0 0-.89.9v.84a.9.9 0 0 0 .89.9h13.62a.9.9 0 0 1 .89.89v9.89a.9.9 0 0 1-.89.9h-8.8a.9.9 0 0 1-.89-.9v-2.68a.9.9 0 0 1 .89-.9h4a.9.9 0 0 0 .89-.89v-.93a.9.9 0 0 0-.89-.9h-8.8a.9.9 0 0 0-.89.9v5.4a.9.9 0 0 1-.89.9h-6a.89.89 0 0 0-.89.89v.93a.9.9 0 0 0 .89.9h17.49a.9.9 0 0 1 .89.9v2.61a.9.9 0 0 1-.89.9h-22.21a.9.9 0 0 1-.89-.9v-5.33a.9.9 0 0 0-.89-.89h-6a.9.9 0 0 1-.89-.9v-5.4a.9.9 0 0 0-.89-.9h-10.83a.9.9 0 0 1-.89-.9v-9.81a.89.89 0 0 1 .89-.89h11.8a.9.9 0 0 1 .89.89v2.69a.9.9 0 0 1-.89.9h-6.93a.9.9 0 0 0-.89.9v.83a.9.9 0 0 0 .89.9h10.8a.9.9 0 0 1 .89.89v5.41c0 .492.398.89.89.89h8.8a.9.9 0 0 0 .89-.89V89.09a.89.89 0 0 1 .89-.89h9.83a.9.9 0 0 0 .89-.9v-5.4a.9.9 0 0 1 .89-.9h3a.9.9 0 0 1 .89.9v9.88a.9.9 0 0 1-.89.9l-9.77-.01zM13.63 40.48a.9.9 0 0 0-.89.9v.85a.9.9 0 0 0 .89.9h9.83a.9.9 0 0 1 .89.9v5.37a.9.9 0 0 0 .89.9h8.8a.9.9 0 0 0 .89-.9V36.9a.9.9 0 0 1 .88-.9h3a.89.89 0 0 1 .89.89v5.33a.9.9 0 0 0 .89.9h13.68a.9.9 0 0 1 .89.9v9.88a.9.9 0 0 1-.89.9h-6.9a.9.9 0 0 1-.89-.9v-2.69a.9.9 0 0 1 .89-.9h2.08a.9.9 0 0 0 .89-.9v-.93a.9.9 0 0 0-.89-.9h-8.8a.9.9 0 0 0-.89.9v5.4a.9.9 0 0 1-.89.9H25.25a.9.9 0 0 0-.89.9v3.57a.9.9 0 0 1-.89.9h-3a.9.9 0 0 1-.89-.9V48.49a.9.9 0 0 0-.89-.9h-9.8a.9.9 0 0 1-.89-.9V36.9a.9.9 0 0 1 .89-.89h22.23a.89.89 0 0 1 .89.89v2.69a.9.9 0 0 1-.89.9l-17.49-.01zm49.19 19.54a.9.9 0 0 0 .89.9h5.87a.9.9 0 0 1 .89.9v2.69a.9.9 0 0 1-.89.9H58.89a.9.9 0 0 1-.89-.9V43.9a.9.9 0 0 1 .89-.9h3a.9.9 0 0 1 .89.9l.04 16.12z" fill="#52A646"></path><path d="M13.67 54.47a.9.9 0 0 0-.89.9v8.93a.9.9 0 0 1-.89.9h-3a.9.9 0 0 1-.89-.9V50.89a.9.9 0 0 1 .89-.89h6.82a.9.9 0 0 1 .89.89v2.69a.9.9 0 0 1-.89.9l-2.04-.01z" fill="#52A646"></path><path d="M4.82 66.83a.9.9 0 0 0 .89.9h8.84a.9.9 0 0 0 .89-.9v-1.81a.9.9 0 0 1 .89-.9h13.58a.89.89 0 0 0 .89-.89V57.9a.9.9 0 0 1 .89-.9h22.32a.9.9 0 0 1 .89.9v8.93a.9.9 0 0 0 .89.9h6a.9.9 0 0 1 .89.9v2.69a.9.9 0 0 1-.89.9H50.98a.9.9 0 0 1-.89-.9V69.5a.9.9 0 0 0-.89-.9h-5.88a.9.9 0 0 1-.89-.89v-2.69a.9.9 0 0 1 .89-.9h5.87a.9.9 0 0 0 .89-.89v-.93a.9.9 0 0 0-.89-.89H36.55a.9.9 0 0 0-.89.89v12.53a.9.9 0 0 1-.89.9h-5.91a.89.89 0 0 0-.89.89v5.41a.9.9 0 0 1-.89.9H13.37a.9.9 0 0 0-.89.9v1.81a.9.9 0 0 1-.89.9h-3a.9.9 0 0 1-.89-.9v-9.9a.9.9 0 0 1 .89-.9h3a.9.9 0 0 1 .89.9v1.81a.9.9 0 0 0 .89.89h8.88a.9.9 0 0 0 .89-.89v-5.33a.9.9 0 0 1 .89-.9h5.88a.9.9 0 0 0 .89-.9v-.92a.9.9 0 0 0-.89-.9h-8.8a.9.9 0 0 0-.89.9v1.81a.9.9 0 0 1-.89.9H.89a.9.9 0 0 1-.89-.9V57.9a.9.9 0 0 1 .89-.9h3a.9.9 0 0 1 .89.9l.04 8.93zM91.02 61v3.58a.9.9 0 0 1-.89.89H76.89a.89.89 0 0 1-.89-.89V61" fill="#52A646"></path><path d="M127.072 110.06c0-.39-9.25-1.48-15.08-3.32a53.91 53.91 0 0 1-9.4-3.82c-1.41-.74-.47-2.3.07-2.87 2-2.14 6.94-5.7 6.63-6.16-.31-.46-5.76 3.74-9.83 6.25a2.76 2.76 0 0 1-2.28.29c-10.46-3.23-23.83-7.08-23.83-12.66s8.41-6.69 20.4-6.5c4 .06 11.64-2.3 14.59-3.68.2-.09.14-.43-.08-.36-4.29 1.35-10.73 2.94-15.92 2.3-8.92-1.1-10.53-1.76-13.5-.93-.46.13-.73-.35-.51-.78 1.3-2.54 4.07-5.13 10.12-7.38.18-.07 0-.31-.14-.28-5.39.9-11.21 2.44-13.95 5.25a.35.35 0 0 1-.57-.24c-.37-4-5.62-5.86-7.16-6.17-.15 0-.3.12-.17.2 2.14 1.31 6.2 5.24 3.78 9-6.27 9.87-18 11.78-20.16 20.41-1.85 7.43 16.4 19.19 16.4 26.07 0 10.4-21 16.61-21 16.61a.84.84 0 0 0 .35 1.6h66.11a1.06 1.06 0 0 0 1.07-1.43c-5-17.78-40-29.61-47.22-36.08-1.81-1.63-3.24-3.41-2.22-5.63 3.42-7.43 37.26 7.17 50.83 9.57 2.89.51 12.63 1.07 12.63.69" fill="#473A4B"></path><path d="M55.09 87.742c-3-3.09-9.74-8.88-11.86-10.69a.142.142 0 1 0-.22.18c1.66 2.87 3.68 6.64 4.67 8.24a.45.45 0 0 1-.41.69c-2.87-.16-9.35-.37-13.1-.48a.17.17 0 0 0 0 .34 84.26 84.26 0 0 1 17.42 5 .93.93 0 0 0 .92-.11c.78-.59 1.61-1.17 2.48-1.76a.91.91 0 0 0 .15-1.37m58.887 68.878c4.62 0 8.46-4.08 9-9.32a1.2 1.2 0 0 0-1.19-1.34h-84.65a1.2 1.2 0 0 0-1.18 1.33c.57 5.24 4.4 9.32 9 9.32l69.02.01z" fill="#473A4B"></path></g></g><defs>
</defs>
</svg>