<svg viewBox="0 0 18 18" class="" role="presentation" focusable="false" xmlns="http://www.w3.org/2000/svg" xmlns:xlink="http://www.w3.org/1999/xlink" id="FxSymbol0-20f" data-type="15"><g><title></title><title>MsPortalFx.base.images-18</title><path fill="#76bc2d" d="M13.067 2.794v4.791L8.926 9.993V5.194l4.141-2.4z"></path><path fill="#b4ec36" d="M13.067 2.794 8.926 5.201 4.785 2.793 8.926.386l4.141 2.408z"></path><path fill="#86d633" d="M8.926 5.201v4.792L4.785 7.585V2.793l4.141 2.408z"></path><path fill="#76bc2d" d="M8.782 10.416v4.791l-4.141 2.407v-4.798l4.141-2.4z"></path><path fill="#b4ec36" d="m8.782 10.416-4.141 2.406L.5 10.415l4.141-2.408 4.141 2.409z"></path><path fill="#86d633" d="M4.641 12.822v4.792L.5 15.207v-4.792l4.141 2.407z"></path><path fill="#76bc2d" d="M17.5 10.416v4.791l-4.141 2.407v-4.798l4.141-2.4z"></path><path fill="#b4ec36" d="m17.5 10.416-4.14 2.406-4.142-2.407 4.142-2.408 4.14 2.409z"></path><path fill="#86d633" d="M13.359 12.822v4.792l-4.141-2.407v-4.792l4.141 2.407z"></path></g><defs>
</defs>
</svg>