<svg viewBox="0 0 18 18" class="" role="presentation" focusable="false" xmlns="http://www.w3.org/2000/svg" xmlns:xlink="http://www.w3.org/1999/xlink" id="FxSymbol0-121" data-type="1"><g><title></title><path fill="#a33a85" d="m15.434 9.798-1.71 1.01-1.72 1-3.01 1.77-3-1.77-1.71-1-1.72-1.01 1.35-.79 5.08 2.98 5.09-2.98 1.35.79z"></path><path fill="#59285f" d="M15.434 9.798v1.72l-6.44 3.78-6.43-3.78v-1.72l1.72 1.01 1.71 1 3 1.77 3.01-1.77 1.72-1 1.71-1.01z"></path><path fill="#a33a85" d="m15.434 6.488-1.71 1-1.11.65-.61.36-3.01 1.76-3-1.76-.61-.36-1.1-.65-1.72-1 6.43-3.79 6.44 3.79z"></path><path fill="#59285f" d="M15.434 6.488v1.72l-1.35.8-5.09 2.98-5.08-2.98-1.35-.8v-1.72l1.72 1 1.1.65.61.36 3 1.76 3.01-1.76.61-.36 1.11-.65 1.71-1z"></path><path d="M16.755 4.794v8.416a.565.565 0 0 1-.281.49l-7.186 4.222A.566.566 0 0 1 9 18V9.022l7.679-4.51a.569.569 0 0 1 .076.282Z" fill="#a33a85" opacity=".6"></path><path d="M16.68 4.512 9 9.011v.011L1.32 4.511a.551.551 0 0 1 .206-.211L8.718.075a.569.569 0 0 1 .57 0l7.189 4.227a.567.567 0 0 1 .203.21Z" fill="#dc92bf" opacity=".6"></path><path d="M9 9.022V18a.547.547 0 0 1-.284-.077L1.526 13.7a.565.565 0 0 1-.281-.49V4.791a.564.564 0 0 1 .075-.28Z" fill="#ce74b6" opacity=".6"></path></g><defs>
</defs>
</svg>