<svg viewBox="0 0 18 18" data-islogo="true" class="" role="presentation" focusable="false" xmlns:svg="http://www.w3.org/2000/svg" xmlns:xlink="http://www.w3.org/1999/xlink" id="FxSymbol0-0f3" data-type="303"><g><rect x="3.7" y="5.49" width="1.18" height="5.26" rx=".52" transform="rotate(-90 4.29 8.12)" fill="#b3b3b3"></rect><rect x="2.04" y="7.88" width="1.18" height="5.26" rx=".52" transform="rotate(-90 2.63 10.51)" fill="#a3a3a3"></rect><rect x="3.7" y="10.26" width="1.18" height="5.26" rx=".52" transform="rotate(-90 4.295 12.895)" class="msportalfx-svg-c04" fill="#7a7a7a"></rect><path d="M18 11a3.28 3.28 0 0 0-2.81-3.18 4.13 4.13 0 0 0-4.21-4 4.23 4.23 0 0 0-4 2.8 3.89 3.89 0 0 0-3.38 3.8 4 4 0 0 0 4.06 3.86h7.11A3.32 3.32 0 0 0 18 11z" fill="url(#2c7d12b3-6bdd-4f74-839f-aa6c64a4ee35)"></path></g><defs>
<linearGradient id="a" x1="9" y1="16.39" x2="9" y2="-1.94" gradientUnits="userSpaceOnUse"><stop offset="0" stop-color="#0078d4"></stop><stop offset=".16" stop-color="#1380da"></stop><stop offset=".53" stop-color="#3c91e5"></stop><stop offset=".82" stop-color="#559cec"></stop><stop offset="1" stop-color="#5ea0ef"></stop></linearGradient>
<linearGradient id="b" x1="9.88" y1="7.11" x2="9.99" y2="17.27" gradientUnits="userSpaceOnUse"><stop offset="0" stop-color="#32d4f5"></stop><stop offset=".32" stop-color="#31d1f3"></stop><stop offset=".53" stop-color="#2ec9eb"></stop><stop offset=".7" stop-color="#29bade"></stop><stop offset=".86" stop-color="#22a5cb"></stop><stop offset="1" stop-color="#198ab3"></stop><stop offset="1" stop-color="#198ab3"></stop></linearGradient>
<radialGradient id="c" cx="9.43" cy="7.03" r="7.27" gradientUnits="userSpaceOnUse"><stop offset="0" stop-color="#f2f2f2"></stop><stop offset=".58" stop-color="#eee"></stop><stop offset="1" stop-color="#e6e6e6"></stop></radialGradient>
<linearGradient id="2c7d12b3-6bdd-4f74-839f-aa6c64a4ee35" x1="10.79" y1="2.17" x2="10.79" y2="16.56" gradientUnits="userSpaceOnUse"><stop offset=".18" stop-color="#5ea0ef"></stop><stop offset="1" stop-color="#0078d4"></stop></linearGradient>
</defs>
</svg>