<svg viewBox="0 0 50 50" class="fxs-portal-svg" role="presentation" focusable="false" xmlns:svg="http://www.w3.org/2000/svg" xmlns:xlink="http://www.w3.org/1999/xlink" id="FxSymbol0-185" data-type="1"><g><title></title><path d="M1 0h29v33H1z" class="msportalfx-svg-c03" fill="#a0a1a2"></path><path opacity=".8" fill-rule="evenodd" clip-rule="evenodd" d="M3 2h25v29H3z" class="msportalfx-svg-c01" fill="#ffffff"></path><path d="M20 17h29v33H20z" class="msportalfx-svg-c03" fill="#a0a1a2"></path><path opacity=".8" fill-rule="evenodd" clip-rule="evenodd" d="M22 19h25v29H22z" class="msportalfx-svg-c01" fill="#ffffff"></path><path fill-rule="evenodd" clip-rule="evenodd" d="M29 32h12.998v2H27zm1.001 4.001H42v2H30.001zM42 30H32l2-2h8zm-16 6h3v3h-3zm4.001 4H42v2H30.001zM8 12h15v2H8zm0 8h9.999v2H8zm0-4h9.999v2H8zm0-8h15v2H8zm18 32h3v3h-3z" class="msportalfx-svg-c03" fill="#a0a1a2"></path><path fill-rule="evenodd" clip-rule="evenodd" d="M32.5 26.5L27 22v3H12.002v3H27v3z" class="msportalfx-svg-c19" fill="#0072c6"></path></g><defs>
<linearGradient id="a" x1="-1267.23" y1="3.07" x2="-1267.52" y2="14.64" gradientTransform="matrix(-1 0 0 1 -1256.13 0)" gradientUnits="userSpaceOnUse"><stop offset="0" stop-color="#32d4f5"></stop><stop offset=".23" stop-color="#31d0f1"></stop><stop offset=".46" stop-color="#2cc3e6"></stop><stop offset=".7" stop-color="#25afd4"></stop><stop offset=".94" stop-color="#1c92ba"></stop><stop offset="1" stop-color="#198ab3"></stop></linearGradient>
<linearGradient id="b" x1="6.4" y1="1.32" x2="7.21" y2="11.39"><stop offset=".22" stop-color="#32d4f5"></stop><stop offset=".47" stop-color="#31d1f3"></stop><stop offset=".63" stop-color="#2ec9eb"></stop><stop offset=".77" stop-color="#29bade"></stop><stop offset=".89" stop-color="#22a5cb"></stop><stop offset="1" stop-color="#198ab3"></stop><stop offset="1" stop-color="#198ab3"></stop></linearGradient>
<linearGradient id="c" x1="13.76" y1="18.05" x2="13.76" y2="10.25" gradientUnits="userSpaceOnUse"><stop offset="0" stop-color="#76bc2d"></stop><stop offset=".6" stop-color="#81ce31"></stop><stop offset=".82" stop-color="#86d633"></stop></linearGradient>
</defs>
</svg>