<svg viewBox="0 0 18 18" class="" role="presentation" focusable="false" xmlns="http://www.w3.org/2000/svg" xmlns:xlink="http://www.w3.org/1999/xlink" id="FxSymbol0-150" data-type="1"><g><path d="M10.18 9V3.32L0 13.5V4a4.9 4.9 0 0 1 1.33-2.69A4.43 4.43 0 0 1 4.27 0h9.23L18 4.5 13.5 9Z" fill="url(#59616712-f700-4139-92c6-bd98d17f030d)"></path><path d="M7.82 9v5.68L18 4.5V14a4.9 4.9 0 0 1-1.33 2.71A4.49 4.49 0 0 1 13.73 18H4.5L0 13.5 4.5 9Z" fill="url(#59616712-f700-4139-92c6-bd98d17f030e)"></path><path d="M7.82 14.68 18 4.5V14a4.9 4.9 0 0 1-1.33 2.71A4.49 4.49 0 0 1 13.73 18Z" fill="url(#59616712-f700-4139-92c6-bd98d17f030f)"></path></g><defs>
<linearGradient id="59616712-f700-4139-92c6-bd98d17f030d" x1="9" x2="9" y2="13.5" gradientUnits="userSpaceOnUse"><stop offset="0" stop-color="#e83231"></stop><stop offset="1" stop-color="#ce1817"></stop></linearGradient>
<linearGradient id="59616712-f700-4139-92c6-bd98d17f030e" x1="16.61" y1="16.75" x2="4.38" y2="4.3" gradientUnits="userSpaceOnUse"><stop offset=".04" stop-color="#a80000"></stop><stop offset=".32" stop-color="#a30302"></stop><stop offset=".63" stop-color="#960c06"></stop><stop offset=".71" stop-color="#910f08"></stop><stop offset=".74" stop-color="#8b0e07"></stop><stop offset=".79" stop-color="#790a05"></stop><stop offset=".85" stop-color="#5b0502"></stop><stop offset=".89" stop-color="#400"></stop></linearGradient>
<linearGradient id="59616712-f700-4139-92c6-bd98d17f030f" x1="17.38" y1="16.32" x2="11.61" y2="7.64" gradientUnits="userSpaceOnUse"><stop offset=".35" stop-color="#a80000"></stop><stop offset=".52" stop-color="#a20402"></stop><stop offset=".75" stop-color="#910f08"></stop><stop offset=".8" stop-color="#8b0e07"></stop><stop offset=".87" stop-color="#790a05"></stop><stop offset=".94" stop-color="#5b0502"></stop><stop offset=".99" stop-color="#400"></stop></linearGradient>
</defs>
</svg>