<svg viewBox="0 0 18 18" class="" role="presentation" focusable="false" xmlns="http://www.w3.org/2000/svg" xmlns:xlink="http://www.w3.org/1999/xlink" id="FxSymbol0-122" data-type="1"><g><path d="M2.256 2.337h13.488a.563.563 0 0 1 .563.563v14.538a.563.563 0 0 1-.563.562H2.256a.563.563 0 0 1-.563-.562V2.9a.563.563 0 0 1 .563-.563Z" fill="url(#94a115a1-5689-4c39-bee0-5c63fda4a18f)"></path><rect x="2.605" y="3.293" width="12.83" height="13.75" rx=".596" fill="#a67af4"></rect><path d="M10.138 1.257a1.153 1.153 0 0 0-2.3-.208 1.2 1.2 0 0 0 0 .208H5.614a.493.493 0 0 0-.5.493v2.1h7.762V1.752a.494.494 0 0 0-.494-.5h-2.244ZM8.831.7a.577.577 0 0 1 .712.4.61.61 0 0 1 .022.159H9.55a.571.571 0 0 1-.57.57.56.56 0 0 1-.218-.042.575.575 0 0 1-.327-.7A.567.567 0 0 1 8.831.7Z" fill="#b796f9"></path><path d="M5.948 9.755 3.721 7.5a.283.283 0 0 1 0-.4l.722-.713a.283.283 0 0 1 .4 0l1.1 1.116a.282.282 0 0 0 .4 0L9 4.822a.282.282 0 0 1 .4 0l.723.713a.283.283 0 0 1 0 .4L6.35 9.755a.282.282 0 0 1-.402 0Z" fill="url(#94a115a1-5689-4c39-bee0-5c63fda4a190)"></path><path d="m14.588 11.574-.718-.718a.282.282 0 0 0-.4 0l-1 1a.281.281 0 0 1-.4 0l-1-1a.282.282 0 0 0-.4 0l-.718.718a.282.282 0 0 0 0 .4l1 1a.282.282 0 0 1 0 .4l-1 1a.282.282 0 0 0 0 .4l.718.718a.282.282 0 0 0 .4 0l1-1a.282.282 0 0 1 .4 0l1 1a.282.282 0 0 0 .4 0l.718-.718a.282.282 0 0 0 0-.4l-1-1a.284.284 0 0 1 0-.4l1-1a.282.282 0 0 0 0-.4Z" fill="url(#94a115a1-5689-4c39-bee0-5c63fda4a191)"></path><rect x="2.375" y="9.488" width="13.175" height="1.581" rx=".283" transform="rotate(-45.004 8.963 10.279)" fill="url(#94a115a1-5689-4c39-bee0-5c63fda4a192)"></rect></g><defs>
<linearGradient id="94a115a1-5689-4c39-bee0-5c63fda4a18f" x1="9" y1=".565" x2="9" y2="15.99" gradientUnits="userSpaceOnUse"><stop offset="0" stop-color="#a67af4"></stop><stop offset="1" stop-color="#773adc"></stop></linearGradient>
<linearGradient id="94a115a1-5689-4c39-bee0-5c63fda4a190" x1="-.325" y1="15.494" x2="6.312" y2="7.273" gradientUnits="userSpaceOnUse"><stop offset="0" stop-color="#773adc" stop-opacity="0"></stop><stop offset="1" stop-color="#fff"></stop></linearGradient>
<linearGradient id="94a115a1-5689-4c39-bee0-5c63fda4a191" x1="11.853" y1="24.06" x2="12.279" y2="13.034" gradientUnits="userSpaceOnUse"><stop offset="0" stop-color="#773adc" stop-opacity="0"></stop><stop offset="1" stop-color="#fff"></stop></linearGradient>
<linearGradient id="94a115a1-5689-4c39-bee0-5c63fda4a192" x1="-12.032" y1="29.217" x2="9.538" y2="9.759" gradientTransform="rotate(45.004 8.963 10.278)" gradientUnits="userSpaceOnUse"><stop offset="0" stop-color="#773adc" stop-opacity="0"></stop><stop offset="1" stop-color="#fff"></stop></linearGradient>
</defs>
</svg>