<svg viewBox="0 0 181.2 179.5" class="" role="presentation" focusable="false" xmlns:svg="http://www.w3.org/2000/svg" xmlns:xlink="http://www.w3.org/1999/xlink" id="FxSymbol0-066" data-type="1"><g><title></title><path stroke="#4293f4" d="M131.4 162c-10.4 0-20.2-5.2-26.1-13.9-3.3-5-8.8-7.9-14.7-7.9-6 0-11.3 2.9-14.7 7.9-5.8 8.7-15.5 14-26.1 14-17.4 0-31.5-14.1-31.5-31.5 0-10.4 5.2-20.2 13.9-26.1 5-3.3 7.9-8.8 7.9-14.7 0-6-2.9-11.3-7.9-14.7-8.7-5.8-14-15.5-14-26.1 0-17.4 14.1-31.5 31.5-31.5 10.4 0 20.2 5.2 26.1 13.9 3.3 5 8.8 7.9 14.7 7.9s11.4-3 14.7-7.9c5.8-8.7 15.5-14 26.1-14 17.4 0 31.5 14.1 31.5 31.5 0 10.4-5.2 20.2-13.9 26.1-5 3.3-7.9 8.8-7.9 14.7 0 6 2.9 11.3 7.9 14.7 8.7 5.8 14 15.5 14 26.1 0 17.4-14.1 31.5-31.5 31.5zm-40.8-30.3c8.7 0 16.8 4.3 21.7 11.6 4.4 6.4 11.5 10.2 19.1 10.2 12.7 0 23-10.3 23-23 0-7.7-3.8-14.8-10.2-19.1-7.3-4.9-11.7-13.1-11.7-21.8s4.3-16.8 11.6-21.7c6.4-4.4 10.2-11.5 10.2-19.1 0-12.7-10.3-23-23-23-7.7 0-14.8 3.8-19.1 10.2-4.9 7.3-13.1 11.7-21.7 11.7s-16.8-4.3-21.7-11.6c-4.4-6.4-11.5-10.2-19.1-10.2-12.7 0-23 10.3-23 23 0 7.7 3.8 14.8 10.2 19.1 7.3 4.9 11.7 13.1 11.7 21.7 0 8.7-4.3 16.8-11.6 21.7-6.4 4.4-10.2 11.5-10.2 19.1 0 12.7 10.3 23 23 23 7.7 0 14.8-3.8 19.1-10.2 4.9-7.3 13-11.6 21.7-11.6z"></path><path stroke="#4293f4" d="M90.6 125.8c-6.4 0-12.8-2.4-17.7-7.2L62 107.8c-9.8-9.8-9.9-25.8-.2-35.7l10.8-10.9c9.8-9.8 25.8-9.9 35.7-.2l10.9 10.8c4.8 4.7 7.5 11.1 7.5 17.8 0 6.8-2.6 13.1-7.3 17.9l-10.8 10.9c-4.9 4.9-11.4 7.4-18 7.4zm-.1-63.7c-4.3 0-8.7 1.6-12 4.9L67.8 78c-6.5 6.6-6.4 17.2.1 23.8l10.9 10.8c6.6 6.5 17.2 6.4 23.8-.1l10.8-10.9c3.2-3.2 4.9-7.4 4.9-11.9s-1.8-8.7-5-11.8l-10.9-10.8c-3.3-3.4-7.6-5-11.9-5z"></path></g><defs>
<linearGradient id="a" x1="9" y1="16.39" x2="9" y2="-1.94" gradientUnits="userSpaceOnUse"><stop offset="0" stop-color="#0078d4"></stop><stop offset=".16" stop-color="#1380da"></stop><stop offset=".53" stop-color="#3c91e5"></stop><stop offset=".82" stop-color="#559cec"></stop><stop offset="1" stop-color="#5ea0ef"></stop></linearGradient>
<linearGradient id="b" x1="9.88" y1="7.11" x2="9.99" y2="17.27" gradientUnits="userSpaceOnUse"><stop offset="0" stop-color="#32d4f5"></stop><stop offset=".32" stop-color="#31d1f3"></stop><stop offset=".53" stop-color="#2ec9eb"></stop><stop offset=".7" stop-color="#29bade"></stop><stop offset=".86" stop-color="#22a5cb"></stop><stop offset="1" stop-color="#198ab3"></stop><stop offset="1" stop-color="#198ab3"></stop></linearGradient>
<radialGradient id="c" cx="9.43" cy="7.03" r="7.27" gradientUnits="userSpaceOnUse"><stop offset="0" stop-color="#f2f2f2"></stop><stop offset=".58" stop-color="#eee"></stop><stop offset="1" stop-color="#e6e6e6"></stop></radialGradient>
</defs>
</svg>