<svg viewBox="0 0 77.8 71.5" class="fxs-portal-svg" role="presentation" focusable="false" xmlns:svg="http://www.w3.org/2000/svg" xmlns:xlink="http://www.w3.org/1999/xlink" id="FxSymbol0-14e" data-type="1"><g><title></title><g focusable="false"><path d="M 40.2 44.8 C 35.7 48.3 30.3 50 25 50 c -7.5 0 -15 -3.4 -19.9 -9.8 c -8.4 -11 -6.3 -26.6 4.7 -35 C 14.3 1.7 19.7 0 25 0 c 7.5 0 15 3.4 19.9 9.8 C 53.2 20.8 51.2 36.4 40.2 44.8" class="msportalfx-svg-c15" fill="#59b4d9"></path><path d="M 35.6 29.4 c 1.8 2.4 5.2 2.8 7.5 1 c 0.1 -0.1 0.2 -0.2 0.3 -0.3 c 2.4 1.7 4.1 2.8 5 3.5 c 0.3 -0.7 0.5 -1.4 0.7 -2.1 c -1 -0.7 -2.3 -1.8 -4.3 -3.4 c 0.6 -1.7 0.4 -3.6 -0.7 -5.2 c -1.7 -2.2 -4.6 -2.7 -6.9 -1.4 c -2.5 -2.3 -5.3 -4.9 -8.3 -7.8 c 9.2 -4.9 15.7 -4.2 15.7 -4.2 c -1.1 -1.4 -2.3 -2.6 -3.6 -3.7 c -3.9 -0.6 -9.9 -0.5 -16.7 3.1 l 0 0 h 0 c -2.3 -2.4 -4.6 -5 -7 -7.7 C 16.1 1.5 15 2 14 2.5 c 1.7 2.9 4.1 5.7 6.8 8.6 l 0 0 c 0 0 0 0 0 0 c -2.2 1.5 -4.7 3.6 -6.9 6 c -0.3 0.3 -0.6 0.6 -0.8 0.9 c -1.4 -0.3 -2.8 -0.2 -4.1 0.3 C 6.6 13.4 6.7 9.5 7.1 7.5 c -1 1 -1.9 2.1 -2.7 3.3 c -0.6 2.4 -0.8 5.9 1 10.1 c -2 2.6 -2.1 6.4 0 9.2 c 0.2 0.2 0.4 0.4 0.6 0.6 c -0.9 3.1 -1.3 6.2 -1.5 8.8 C 4.7 39.7 4.7 40 5 40.3 c 1.2 1.5 2.7 2.8 4.2 4 c -0.2 -2.8 0 -6.8 1.7 -11.4 c 1.2 0.1 2.4 -0.1 3.5 -0.6 c 0.6 0.6 1.3 1.1 2 1.7 c 2.5 1.9 4.9 3.5 7.3 4.6 c -0.1 1.2 0.2 2.5 1 3.5 c 1.7 2.2 4.8 2.6 7 0.9 c 0.5 -0.3 0.8 -0.8 1.1 -1.2 c 3.9 0.9 7.3 1 9.8 1 c 0.4 0 2.2 -2.4 3.2 -3.9 c -1.5 0.3 -6.1 0.9 -12.3 -0.8 c -0.2 -0.7 -0.4 -1.4 -0.9 -2 c -1.6 -2.1 -4.5 -2.5 -6.6 -1.1 c -2.2 -1.2 -4.4 -2.6 -6.8 -4.5 c -0.5 -0.4 -0.9 -0.7 -1.4 -1.1 c 1.4 -2.2 1.6 -5.1 0.3 -7.6 c 0.3 -0.3 0.6 -0.6 0.9 -0.9 c 2.3 -2.2 4.5 -3.9 6.5 -5.3 c -0.1 -0.1 -0.2 -0.2 -0.2 -0.2 c 0.1 0.1 0.2 0.2 0.2 0.2 c 0 0 0 0 0 0 c 3.1 2.9 6.4 5.6 9.6 8.1 C 34.2 25.6 34.3 27.7 35.6 29.4 Z" class="msportalfx-svg-c01" fill="#ffffff"></path></g><path d="M67.5 65.8C63 69.3 57.7 71 52.4 71c-7.5 0-15-3.4-19.9-9.8-8.4-11-6.3-26.6 4.7-35C41.7 22.7 47 21 52.3 21c7.5 0 15 3.4 19.9 9.8 8.4 11 6.3 26.7-4.7 35" class="msportalfx-svg-c14" fill="#57a300"></path><path d="M62.9 50.4c1.8 2.4 5.2 2.8 7.5 1l.3-.3c2.4 1.7 4.1 2.8 5 3.5.3-.7.5-1.4.7-2.1-1-.7-2.3-1.8-4.3-3.4.6-1.7.4-3.6-.7-5.2-1.7-2.2-4.6-2.7-6.9-1.4-2.5-2.3-5.3-4.9-8.3-7.8 9.2-4.9 15.7-4.2 15.7-4.2-1.1-1.4-2.3-2.6-3.6-3.7-3.9-.6-9.9-.5-16.7 3.1-2.3-2.4-4.6-5-7-7.7-1.1.4-2.2.8-3.3 1.3 1.7 2.9 4.1 5.7 6.8 8.6-2.2 1.5-4.7 3.6-6.9 6-.3.3-.6.6-.8.9-1.4-.3-2.8-.2-4.1.3-2.3-4.9-2.1-8.8-1.7-10.8-1 1-1.9 2.1-2.7 3.3-.6 2.4-.8 5.9 1 10.1-2 2.6-2.1 6.4 0 9.2l.6.6c-.9 3.1-1.3 6.2-1.5 8.8.2.3.2.6.5.9 1.2 1.5 2.7 2.8 4.2 4-.2-2.8 0-6.8 1.7-11.4 1.2.1 2.4-.1 3.5-.6.6.6 1.3 1.1 2 1.7 2.5 1.9 4.9 3.5 7.3 4.6-.1 1.2.2 2.5 1 3.5 1.7 2.2 4.8 2.6 7 .9.5-.3.8-.8 1.1-1.2 3.9.9 7.3 1 9.8 1 .4 0 2.2-2.4 3.2-3.9-1.5.3-6.1.9-12.3-.8-.2-.7-.4-1.4-.9-2-1.6-2.1-4.5-2.5-6.6-1.1-2.2-1.2-4.4-2.6-6.8-4.5-.5-.4-.9-.7-1.4-1.1 1.4-2.2 1.6-5.1.3-7.5l.9-.9c2.3-2.2 4.5-3.9 6.5-5.3l-.2-.2.2.2c3.1 2.9 6.4 5.6 9.6 8.1-1.1 1.7-.9 3.8.3 5.5z" class="msportalfx-svg-c01" fill="#ffffff"></path></g><defs>
<linearGradient id="a" x1="9" y1="16.39" x2="9" y2="-1.94" gradientUnits="userSpaceOnUse"><stop offset="0" stop-color="#0078d4"></stop><stop offset=".16" stop-color="#1380da"></stop><stop offset=".53" stop-color="#3c91e5"></stop><stop offset=".82" stop-color="#559cec"></stop><stop offset="1" stop-color="#5ea0ef"></stop></linearGradient>
<linearGradient id="b" x1="9.88" y1="7.11" x2="9.99" y2="17.27" gradientUnits="userSpaceOnUse"><stop offset="0" stop-color="#32d4f5"></stop><stop offset=".32" stop-color="#31d1f3"></stop><stop offset=".53" stop-color="#2ec9eb"></stop><stop offset=".7" stop-color="#29bade"></stop><stop offset=".86" stop-color="#22a5cb"></stop><stop offset="1" stop-color="#198ab3"></stop><stop offset="1" stop-color="#198ab3"></stop></linearGradient>
<radialGradient id="c" cx="9.43" cy="7.03" r="7.27" gradientUnits="userSpaceOnUse"><stop offset="0" stop-color="#f2f2f2"></stop><stop offset=".58" stop-color="#eee"></stop><stop offset="1" stop-color="#e6e6e6"></stop></radialGradient>
</defs>
</svg>