<svg viewBox="0 0 50 50" class="fxs-portal-svg" role="presentation" focusable="false" xmlns:svg="http://www.w3.org/2000/svg" xmlns:xlink="http://www.w3.org/1999/xlink" id="FxSymbol0-05e" data-type="1"><g><title></title><path d="M43.339 18.659c.195-.911.291-1.779.291-2.643C43.63 9.39 38.232 4 31.595 4a12 12 0 0 0-10.81 6.736 8.661 8.661 0 0 0-6.114-2.523c-4.763 0-8.638 3.875-8.638 8.637 0 .646.072 1.298.218 1.968C2.328 20.416 0 23.731 0 27.763c0 5.437 4.443 9.696 10.113 9.696h.646c.11 4.968 4.18 8.975 9.164 8.975a9.138 9.138 0 0 0 7.996-4.681 6.65 6.65 0 0 0 4.36 1.628c3.42 0 6.249-2.591 6.65-5.922h.961c5.67 0 10.11-4.259 10.11-9.696 0-4.199-2.544-7.654-6.661-9.104" class="msportalfx-svg-c15" fill="#59b4d9"></path><path d="M39.437 23.192l.736-1.743-.213-.184-1.607-1.396.008-1.411 1.812-1.62-.713-1.753-.279.019-2.125.152-.992-1.006.135-2.428-1.742-.735-.184.212-1.397 1.609-1.412-.01-1.621-1.81-1.752.711.02.281.15 2.125-1.004.99-2.428-.135-.736 1.743.213.184 1.608 1.397-.009 1.412-1.81 1.621.711 1.752.281-.021 2.123-.149.992 1.005-.135 2.426 1.743.736.184-.213 1.396-1.608 1.412.01 1.621 1.812 1.752-.712-.02-.282-.15-2.124 1.006-.992 2.426.135zm-8.809-.499a3.871 3.871 0 1 1 3.01-7.135 3.871 3.871 0 0 1-3.01 7.135m-2.271 9.255v-1.893l-.266-.086-2.025-.663-.539-1.304 1.04-2.198-1.336-1.337-.251.127-1.899.962-1.305-.541-.818-2.289-1.891-.002-.087.269-.663 2.023-1.304.539-2.198-1.039-1.337 1.337.127.251.962 1.9-.54 1.302-2.29.819-.001 1.891.267.088 2.025.661.539 1.306-1.04 2.196 1.336 1.34.251-.128 1.901-.964 1.302.541.819 2.289 1.891.001.087-.266.663-2.025 1.305-.539 2.196 1.04 1.339-1.336-.127-.251-.964-1.899.542-1.305 2.289-.817zm-8.313 2.96a3.872 3.872 0 1 1 .007-7.745 3.872 3.872 0 0 1-.007 7.745" class="msportalfx-svg-c01" fill="#ffffff"></path><path d="M34.449 20.103a2.513 2.513 0 1 1-4.63-1.953 2.513 2.513 0 0 1 4.63 1.953M22.561 31.037a2.513 2.513 0 0 1-5.026-.003 2.513 2.513 0 1 1 5.026.003" class="msportalfx-svg-c13" fill="#b8d432"></path></g><defs>
<linearGradient id="a" x1="9" y1="16.39" x2="9" y2="-1.94" gradientUnits="userSpaceOnUse"><stop offset="0" stop-color="#0078d4"></stop><stop offset=".16" stop-color="#1380da"></stop><stop offset=".53" stop-color="#3c91e5"></stop><stop offset=".82" stop-color="#559cec"></stop><stop offset="1" stop-color="#5ea0ef"></stop></linearGradient>
<linearGradient id="b" x1="9.88" y1="7.11" x2="9.99" y2="17.27" gradientUnits="userSpaceOnUse"><stop offset="0" stop-color="#32d4f5"></stop><stop offset=".32" stop-color="#31d1f3"></stop><stop offset=".53" stop-color="#2ec9eb"></stop><stop offset=".7" stop-color="#29bade"></stop><stop offset=".86" stop-color="#22a5cb"></stop><stop offset="1" stop-color="#198ab3"></stop><stop offset="1" stop-color="#198ab3"></stop></linearGradient>
<radialGradient id="c" cx="9.43" cy="7.03" r="7.27" gradientUnits="userSpaceOnUse"><stop offset="0" stop-color="#f2f2f2"></stop><stop offset=".58" stop-color="#eee"></stop><stop offset="1" stop-color="#e6e6e6"></stop></radialGradient>
</defs>
</svg>