<svg viewBox="0 0 18 18" class="" role="presentation" focusable="false" xmlns="http://www.w3.org/2000/svg" xmlns:xlink="http://www.w3.org/1999/xlink" id="FxSymbol0-124" data-type="1"><g><path d="M9.637 12.782A4.487 4.487 0 0 1 14.119 8.3a4.426 4.426 0 0 1 1.891.434A3.672 3.672 0 0 0 12.945 5.8a4.592 4.592 0 0 0-4.69-4.467 4.7 4.7 0 0 0-4.467 3.1A4.352 4.352 0 0 0 0 8.725a4.413 4.413 0 0 0 4.529 4.289h5.132c-.004-.079-.024-.152-.024-.232Z" fill="url(#94a115a1-5689-4c39-bee0-5c63fda4a196)"></path><circle cx="4.314" cy="8.63" r=".657" fill="#e3e3e3"></circle><path d="M6.627 8.88v-.527h-.074l-.565-.185-.148-.361.287-.607-.37-.37h-.074l-.527.27-.356-.145-.232-.638h-.532v.074l-.185.564-.389.145-.6-.287-.37.37v.074l.268.527-.148.361-.648.231v.574h.074l.565.185.147.365-.287.611.37.37h.074l.528-.269.36.148.232.64h.527v-.074l.185-.565.361-.148.611.287.37-.37v-.074l-.269-.527.148-.361Zm-2.313.768a1.008 1.008 0 1 1 .018 0Z" class="msportalfx-svg-c01" fill="#ffffff"></path><circle cx="8.718" cy="5.799" r=".777" fill="#e3e3e3"></circle><path d="M11.494 6.1v-.634h-.084l-.684-.213-.158-.472.343-.74-.444-.441h-.084l-.638.324-.426-.176-.277-.768h-.657v.092l-.222.676-.435.176-.722-.343-.444.444.046.084.259.684-.148.463-.777.25v.675h.093l.675.219.157.417-.342.74.463.472.092-.046.629-.324.435.175.278.768h.629V8.51l.222-.676.435-.175.731.341.444-.444-.046-.083-.269-.667.176-.434Zm-2.776.92A1.221 1.221 0 1 1 9.939 5.8a1.212 1.212 0 0 1-1.2 1.221Z" class="msportalfx-svg-c01" fill="#ffffff"></path><path d="M14.121 8.9A3.882 3.882 0 1 0 18 12.782 3.882 3.882 0 0 0 14.119 8.9Z" fill="url(#94a115a1-5689-4c39-bee0-5c63fda4a197)"></path><path d="m16.1 10.615-2.288.014a.135.135 0 0 0-.1.232l.823.807L13 13.207l-.806-.822a.136.136 0 0 0-.233.094l-.014 2.288a.183.183 0 0 0 .183.183l2.288-.014a.135.135 0 0 0 .135-.136.139.139 0 0 0-.04-.1l-.823-.807 1.539-1.539.807.822a.137.137 0 0 0 .233-.094l.014-2.288a.183.183 0 0 0-.183-.179Z" class="msportalfx-svg-c01" fill="#ffffff"></path></g><defs>
<linearGradient id="94a115a1-5689-4c39-bee0-5c63fda4a196" x1="8.006" y1="1.867" x2="8.006" y2="12.695" gradientUnits="userSpaceOnUse"><stop offset="0" stop-color="#5ea0ef"></stop><stop offset="1" stop-color="#0078d4"></stop></linearGradient>
<linearGradient id="94a115a1-5689-4c39-bee0-5c63fda4a197" x1="14.119" y1="8.901" x2="14.119" y2="16.873" gradientUnits="userSpaceOnUse"><stop offset="0" stop-color="#faa21d"></stop><stop offset=".4" stop-color="#f79415"></stop><stop offset="1" stop-color="#ef7100"></stop></linearGradient>
</defs>
</svg>