<svg viewBox="0 0 52 52" class="" role="presentation" focusable="false" xmlns:svg="http://www.w3.org/2000/svg" xmlns:xlink="http://www.w3.org/1999/xlink" id="FxSymbol0-069" data-type="1"><g><title></title><g fill="none" fill-rule="evenodd"><rect width="48" height="48" x="2" y="2" fill="#E4E4E4" rx="2"></rect><path fill="#81BA33" d="M28.403 36.715c-.264.191-.64.425-1.131.7-.491.275-1.108.545-1.85.808s-1.616.49-2.621.682c-1.005.192-2.143.287-3.411.287-1.796 0-3.495-.269-5.1-.808-1.603-.538-3.01-1.346-4.219-2.423-1.209-1.078-2.166-2.418-2.872-4.022-.707-1.604-1.06-3.471-1.06-5.602 0-2.083.341-3.932 1.024-5.548.682-1.616 1.616-2.98 2.8-4.093 1.186-1.114 2.574-1.963 4.166-2.55 1.592-.586 3.31-.88 5.153-.88.981 0 1.867.06 2.657.18s1.49.275 2.1.467a10.65 10.65 0 0 1 1.563.61c.43.216.778.407 1.041.575.55.407.946.832 1.185 1.274.24.443.36.904.36 1.383 0 .455-.09.886-.27 1.293a5.18 5.18 0 0 1-.646 1.095 6.455 6.455 0 0 1-.754.826 3.89 3.89 0 0 1-.629.485c-.24-.24-.544-.521-.916-.844a6.39 6.39 0 0 0-1.346-.88 10.256 10.256 0 0 0-1.814-.682c-.682-.192-1.442-.288-2.28-.288-1.053 0-2.01.174-2.872.521a6.4 6.4 0 0 0-2.245 1.508c-.634.659-1.125 1.455-1.472 2.388-.347.934-.52 1.987-.52 3.16 0 1.197.19 2.25.574 3.16.383.91.91 1.67 1.58 2.28a6.663 6.663 0 0 0 2.388 1.383c.921.311 1.92.467 2.998.467 1.34 0 2.496-.168 3.465-.503.97-.335 1.706-.682 2.209-1.041l2.693 4.632h.072z"></path><path fill="#486385" d="M26.257 31.508c.144.12.467.305.97.557.503.25 1.137.502 1.903.754.766.251 1.652.478 2.657.682 1.006.203 2.095.305 3.268.305.957 0 1.723-.066 2.298-.197.575-.132 1.017-.306 1.329-.521.31-.215.514-.46.61-.736.096-.275.144-.557.144-.844 0-.575-.234-1.047-.7-1.418-.467-.371-1.335-.665-2.604-.88l-3.663-.647a20.999 20.999 0 0 1-2.872-.718 9.075 9.075 0 0 1-2.568-1.292 6.474 6.474 0 0 1-1.849-2.119c-.479-.862-.718-1.927-.718-3.196 0-1.101.203-2.136.61-3.106A6.742 6.742 0 0 1 26.94 15.6c.837-.718 1.897-1.286 3.177-1.705 1.281-.42 2.783-.629 4.507-.629 1.245 0 2.334.066 3.268.198.933.132 1.735.293 2.406.485.67.191 1.214.383 1.633.574.42.192.725.347.916.467.407.24.796.569 1.167.987.371.42.557.916.557 1.49 0 .408-.072.797-.216 1.168a5.474 5.474 0 0 1-.52 1.023c-.204.311-.425.58-.665.808a6.07 6.07 0 0 1-.61.52c-.24-.239-.599-.508-1.077-.807a8.911 8.911 0 0 0-1.724-.808c-.67-.24-1.436-.443-2.298-.61a14.48 14.48 0 0 0-2.765-.252c-.934 0-1.676.078-2.227.233-.55.156-.963.348-1.238.575-.276.227-.455.485-.539.772a2.84 2.84 0 0 0-.126.79c0 .215.03.419.09.61.06.192.204.377.431.557.227.18.55.347.97.503.418.155.987.305 1.705.449l3.806.754c1.341.263 2.52.592 3.537.987 1.018.395 1.874.88 2.568 1.454a5.44 5.44 0 0 1 1.562 2.083c.347.814.52 1.784.52 2.909 0 2.513-.939 4.476-2.818 5.889-1.88 1.412-4.53 2.118-7.954 2.118-1.556 0-2.986-.131-4.291-.395-1.305-.263-2.448-.568-3.43-.915-.98-.347-1.777-.677-2.387-.988-.61-.31-.976-.526-1.095-.646l2.477-4.74z"></path></g></g><defs>
<linearGradient id="a" x1="9" y1="16.39" x2="9" y2="-1.94" gradientUnits="userSpaceOnUse"><stop offset="0" stop-color="#0078d4"></stop><stop offset=".16" stop-color="#1380da"></stop><stop offset=".53" stop-color="#3c91e5"></stop><stop offset=".82" stop-color="#559cec"></stop><stop offset="1" stop-color="#5ea0ef"></stop></linearGradient>
<linearGradient id="b" x1="9.88" y1="7.11" x2="9.99" y2="17.27" gradientUnits="userSpaceOnUse"><stop offset="0" stop-color="#32d4f5"></stop><stop offset=".32" stop-color="#31d1f3"></stop><stop offset=".53" stop-color="#2ec9eb"></stop><stop offset=".7" stop-color="#29bade"></stop><stop offset=".86" stop-color="#22a5cb"></stop><stop offset="1" stop-color="#198ab3"></stop><stop offset="1" stop-color="#198ab3"></stop></linearGradient>
<radialGradient id="c" cx="9.43" cy="7.03" r="7.27" gradientUnits="userSpaceOnUse"><stop offset="0" stop-color="#f2f2f2"></stop><stop offset=".58" stop-color="#eee"></stop><stop offset="1" stop-color="#e6e6e6"></stop></radialGradient>
</defs>
</svg>