<svg viewBox="0 0 50 50" class="" role="presentation" focusable="false" xmlns="http://www.w3.org/2000/svg" xmlns:xlink="http://www.w3.org/1999/xlink" id="FxSymbol0-0a3" data-type="1"><g><title></title><title>CS favicon</title><path fill="#83bc41" d="M27.21 36.21a13 13 0 0 1-1.52.85 17 17 0 0 1-2.06.83 18.6 18.6 0 0 1-2.63.64 19.34 19.34 0 0 1-3.33.26 16.37 16.37 0 0 1-5.41-.88 12.71 12.71 0 0 1-4.43-2.6 12.3 12.3 0 0 1-3-4.25 14.37 14.37 0 0 1-1.11-5.83 15.09 15.09 0 0 1 1.08-5.88 12.21 12.21 0 0 1 3-4.33 12.74 12.74 0 0 1 4.51-2.66 17 17 0 0 1 5.59-.9 19.34 19.34 0 0 1 4.3.41 11.23 11.23 0 0 1 2.89 1 7.27 7.27 0 0 1 .8.53A2.8 2.8 0 0 1 27 16.91a1.78 1.78 0 0 1-.29.5c-1 1.29-3.07.54-4.25 0a10.45 10.45 0 0 0-4.33-.8 10.12 10.12 0 0 0-3.27.51 7 7 0 0 0-2.63 1.57 7.5 7.5 0 0 0-1.75 2.63 9.82 9.82 0 0 0-.64 3.74 10 10 0 0 0 .67 3.87 7 7 0 0 0 1.86 2.63 7.6 7.6 0 0 0 2.74 1.52 11 11 0 0 0 3.35.47 10.38 10.38 0 0 0 4.15-.7 18.69 18.69 0 0 0 2.14-1.06Z"></path><path fill="#496487" d="M23.27 31.62a7.89 7.89 0 0 0 1.29.67 23.08 23.08 0 0 0 2.29.85 23.67 23.67 0 0 0 3.12.75 21.89 21.89 0 0 0 3.82.31 11.7 11.7 0 0 0 4.38-.7 2.44 2.44 0 0 0 1.7-2.4 2.5 2.5 0 0 0-1.08-2.19 9 9 0 0 0-3.87-1.06l-4-.47a18.87 18.87 0 0 1-3.77-.75 9.7 9.7 0 0 1-3-1.47 6.56 6.56 0 0 1-1.93-2.3 7.13 7.13 0 0 1-.69-3.27 7.69 7.69 0 0 1 .64-3.12 7 7 0 0 1 2-2.6 10.11 10.11 0 0 1 3.64-1.78 19.92 19.92 0 0 1 5.44-.65 23.2 23.2 0 0 1 8.33 1.18 8.29 8.29 0 0 1 1.72.94 2.42 2.42 0 0 1 1 3.25c-.89 1.67-2.77.88-2.94.79A12.44 12.44 0 0 0 40 17a18.89 18.89 0 0 0-6.65-1.11q-6 0-6 3.15a2.25 2.25 0 0 0 1.13 2 8.18 8.18 0 0 0 3.25.94l5.25.69a14 14 0 0 1 6.65 2.36A6.12 6.12 0 0 1 46 30.3a7.37 7.37 0 0 1-3.07 6.19q-3.07 2.32-8.84 2.32a28.36 28.36 0 0 1-5.09-.42 30.66 30.66 0 0 1-3.94-.94 19.61 19.61 0 0 1-2.69-1.07 8.17 8.17 0 0 1-1.34-.77Z"></path><path fill="#83bc41" d="m24.56 32.28-.4-.17c-.51.27-1 .52-1.57.75l-.89 1.39-.7 1.36a6.19 6.19 0 0 0 1.29.8 6.58 6.58 0 0 0 2.62 1l.76-.34a13 13 0 0 0 1.52-.85l-2.07-3.69Z"></path></g><defs>
</defs>
</svg>