<?xml version="1.0" encoding="utf-8"?>
<!-- Generator: Adobe Illustrator 22.1.0, SVG Export Plug-In . SVG Version: 6.00 Build 0)  -->
<svg version="1.1" id="Layer_1" xmlns="http://www.w3.org/2000/svg" xmlns:xlink="http://www.w3.org/1999/xlink" x="0px" y="0px"
	 width="50px" height="50px" viewBox="0 0 50 50" enable-background="new 0 0 50 50" xml:space="preserve">
<path fill="#59B4D9" d="M33.99,12.727c0.007-0.156,0.024-0.31,0.024-0.468C34.014,6.593,29.414,2,23.74,2
	c-3.984,0-7.431,2.269-9.135,5.579c-0.843-0.233-1.727-0.367-2.645-0.367c-5.473,0-9.909,4.43-9.909,9.894
	c0,0.108,0.013,0.212,0.016,0.319C2.063,17.53,2.05,17.632,2.05,17.737C2.05,22.853,6.292,27,11.525,27h21.056
	c4.07,0,7.369-3.225,7.369-7.204C39.95,16.289,37.385,13.37,33.99,12.727z"/>
<path opacity="0.2" fill="#FFFFFF" d="M33.99,12.727c0.007-0.156,0.024-0.31,0.024-0.468C34.014,6.593,29.414,2,23.74,2
	c-3.984,0-7.431,2.269-9.135,5.579c-0.843-0.233-1.727-0.367-2.645-0.367c-5.473,0-9.909,4.43-9.909,9.894
	c0,0.108,0.013,0.212,0.016,0.319C2.063,17.53,2.05,17.632,2.05,17.737C2.05,22.853,6.292,27,11.525,27h21.056
	c4.07,0,7.369-3.225,7.369-7.204C39.95,16.289,37.385,13.37,33.99,12.727z"/>
<path opacity="0.4" fill="#3999C6" d="M27.182,28.586l-11.31-11.31C15.877,17.183,15.9,17.095,15.9,17c0-2.702-2.198-4.9-4.9-4.9
	S6.1,14.298,6.1,17c0,2.702,2.198,4.9,4.9,4.9c0.095,0,0.183-0.023,0.276-0.028l11.31,11.31L27.182,28.586z"/>
<path fill="#3999C6" d="M11.988,31.5c-0.008-0.181-0.027-0.359-0.027-0.541c0-6.549,5.316-11.859,11.873-11.859
	c4.604,0,8.588,2.623,10.558,6.449c0.974-0.269,1.996-0.425,3.057-0.425c6.325,0,11.452,5.121,11.452,11.438
	c0,0.125-0.015,0.245-0.019,0.369c0.004,0.121,0.019,0.239,0.019,0.361C48.9,43.206,43.998,48,37.95,48H13.617
	C8.913,48,5.1,44.271,5.1,39.672C5.1,35.618,8.064,32.244,11.988,31.5z"/>
<path fill="none" stroke="#FFFFFF" stroke-width="3" stroke-miterlimit="10" d="M28.046,48"/>
<path fill="none" stroke="#FFFFFF" stroke-width="3" stroke-miterlimit="10" d="M16.046,22"/>
<path fill="#FFFFFF" d="M24,25.1c-0.615,0-1.197,0.126-1.739,0.333l-7.438-7.438c0.075-0.304,0.127-0.618,0.127-0.945
	c0-2.182-1.768-3.95-3.95-3.95s-3.95,1.768-3.95,3.95S8.818,21,11,21c0.356,0,0.694-0.062,1.022-0.15l7.411,7.411
	C19.226,28.803,19.1,29.385,19.1,30c0,2.706,2.194,4.9,4.9,4.9s4.9-2.194,4.9-4.9S26.706,25.1,24,25.1z"/>
</svg>
