<svg viewBox="0 0 52 52" class="" role="presentation" focusable="false" xmlns="http://www.w3.org/2000/svg" xmlns:xlink="http://www.w3.org/1999/xlink" id="FxSymbol0-0a5" data-type="1"><g><title></title><g fill="none" fill-rule="evenodd"><g stroke="#81BA33"><path fill="#81BA33" stroke-width="3" d="M28.978 45.122v-5"></path><path fill="#81BA33" stroke-linecap="round" stroke-width="3" d="M45.373 47.107H33.202m-9.467 0H11.564"></path><path stroke-width="2" d="M24.74 49.167h8.475v-3.869H24.74z" class="msportalfx-svg-c01" fill="#ffffff"></path></g><path fill="#EAEAEA" fill-rule="nonzero" stroke="#486385" stroke-width="2" d="M47.002 29.774h-36.03c-.845 0-1.502.543-1.502 1.24v7.52c0 .698.657 1.24 1.501 1.24h36.031c.845 0 1.502-.542 1.502-1.24v-7.52c0-.697-.657-1.24-1.502-1.24Z"></path><path stroke="#486385" d="M14.303 36.095c-.75 0-1.407-.616-1.407-1.32 0-.705.657-1.321 1.407-1.321.751 0 1.408.616 1.408 1.32 0 .705-.657 1.32-1.408 1.32Z"></path><g fill="#486385" transform="translate(36.879 32)"><rect width="7.201" height="1.2" x=".58" y="4.093" rx=".6"></rect><rect width="7.201" height="1.2" x=".58" y="2.056" rx=".6"></rect><rect width="7.201" height="1.2" x=".58" y=".056" rx=".6"></rect></g><path fill="#EAEAEA" fill-rule="nonzero" stroke="#486385" stroke-width="2" d="M47.002 17.147h-36.03c-.845 0-1.502.543-1.502 1.24v7.52c0 .698.657 1.24 1.501 1.24h36.031c.845 0 1.502-.542 1.502-1.24v-7.52c0-.697-.657-1.24-1.502-1.24Z"></path><path stroke="#486385" d="M14.303 23.468c-.75 0-1.407-.616-1.407-1.32 0-.705.657-1.321 1.407-1.321.751 0 1.408.616 1.408 1.32 0 .705-.657 1.32-1.408 1.32Z"></path><g fill="#486385" transform="translate(36.879 19.373)"><rect width="7.201" height="1.2" x=".58" y="4.093" rx=".6"></rect><rect width="7.201" height="1.2" x=".58" y="2.056" rx=".6"></rect><rect width="7.201" height="1.2" x=".58" y=".056" rx=".6"></rect></g><path fill="#EAEAEA" fill-rule="nonzero" stroke="#486385" stroke-width="2" d="M47.002 4.52h-36.03c-.845 0-1.502.542-1.502 1.24v7.519c0 .698.657 1.24 1.501 1.24h36.031c.845 0 1.502-.542 1.502-1.24v-7.52c0-.697-.657-1.24-1.502-1.24Z"></path><path stroke="#486385" d="M14.303 10.84c-.75 0-1.407-.616-1.407-1.32 0-.705.657-1.321 1.407-1.321.751 0 1.408.616 1.408 1.32 0 .705-.657 1.32-1.408 1.32Z"></path><g fill="#486385" transform="translate(36.879 6.745)"><rect width="7.201" height="1.2" x=".58" y="4.093" rx=".6"></rect><rect width="7.201" height="1.2" x=".58" y="2.056" rx=".6"></rect><rect width="7.201" height="1.2" x=".58" y=".056" rx=".6"></rect></g><path fill-rule="nonzero" d="m48.424 3.808-.026-.002H10.736c-1.28 0-2.312 1.37-2.312 2.9v31.449c0 1.522 1.032 2.877 2.312 2.877h.896L48.424 3.808Z" opacity=".2" class="msportalfx-svg-c01" fill="#ffffff"></path><g transform="translate(1 1)"><circle cx="12.85" cy="12.088" r="12.005" fill="#F7F7F7" stroke="#81BA33" stroke-width="1.4"></circle><path fill="#81BA33" d="M13.297 16.607a5.394 5.394 0 0 1-1.329.672 8.003 8.003 0 0 1-2.689.433c-.8 0-1.558-.12-2.273-.36a5.355 5.355 0 0 1-1.88-1.08 5.132 5.132 0 0 1-1.28-1.794c-.316-.714-.473-1.547-.473-2.496 0-.929.152-1.753.456-2.473.304-.72.72-1.329 1.249-1.825a5.41 5.41 0 0 1 1.856-1.137 6.593 6.593 0 0 1 2.297-.392c.438 0 .833.027 1.185.08.352.054.664.123.936.208a4.751 4.751 0 0 1 1.16.529c.246.181.422.37.529.568.106.197.16.403.16.616 0 .203-.04.395-.12.576-.08.182-.176.344-.288.488a2.877 2.877 0 0 1-.337.369 1.734 1.734 0 0 1-.28.216 8.274 8.274 0 0 0-.408-.376 2.849 2.849 0 0 0-.6-.393 4.572 4.572 0 0 0-.808-.304 3.757 3.757 0 0 0-1.017-.128c-.47 0-.896.078-1.28.232a2.853 2.853 0 0 0-1 .673 3.037 3.037 0 0 0-.657 1.064 4.02 4.02 0 0 0-.232 1.409c0 .533.085 1.003.256 1.408.17.406.406.744.704 1.016a2.97 2.97 0 0 0 1.065.617c.41.138.856.208 1.336.208.598 0 1.113-.075 1.545-.224.432-.15.76-.304.984-.464l1.2 2.064h.033Z"></path><path fill="#486385" d="M12.34 14.286c.064.054.209.136.433.249.224.112.506.224.848.336.341.112.736.213 1.184.304.449.09.934.136 1.457.136.427 0 .768-.03 1.024-.088.256-.059.454-.136.593-.232a.68.68 0 0 0 .272-.328c.042-.123.064-.249.064-.377a.773.773 0 0 0-.312-.632c-.208-.165-.595-.296-1.16-.392l-1.633-.288a9.36 9.36 0 0 1-1.281-.32 4.045 4.045 0 0 1-1.144-.576 2.886 2.886 0 0 1-.825-.945c-.213-.384-.32-.859-.32-1.424 0-.491.09-.953.272-1.385.182-.432.46-.808.833-1.128.373-.32.845-.574 1.416-.76.571-.187 1.24-.28 2.009-.28.555 0 1.04.029 1.456.087a8.15 8.15 0 0 1 1.073.216c.299.086.541.171.728.257.187.085.323.154.408.208.182.106.355.253.52.44a.969.969 0 0 1 .249.664c0 .181-.032.355-.096.52a2.44 2.44 0 0 1-.233.456c-.09.14-.189.26-.296.36a2.672 2.672 0 0 1-.272.233 2.777 2.777 0 0 0-.48-.36 3.972 3.972 0 0 0-.768-.36 7.075 7.075 0 0 0-1.025-.273 6.454 6.454 0 0 0-1.232-.112c-.416 0-.747.035-.992.104-.246.07-.43.155-.553.256a.703.703 0 0 0-.24.344 1.266 1.266 0 0 0-.056.353c0 .096.014.186.04.272.027.085.09.168.192.248.102.08.246.155.432.224.187.07.44.136.76.2l1.697.336a9.364 9.364 0 0 1 1.577.44c.454.176.835.392 1.144.649.31.256.542.565.697.928.154.363.232.795.232 1.296 0 1.12-.419 1.996-1.257 2.625-.837.63-2.02.945-3.545.945a9.681 9.681 0 0 1-1.913-.176 11.362 11.362 0 0 1-1.528-.408 9.046 9.046 0 0 1-1.065-.44c-.272-.14-.435-.235-.488-.289l1.104-2.113Z"></path></g></g></g><defs>
</defs>
</svg>