<svg viewBox="0 0 18 18" class="" role="presentation" focusable="false" xmlns:svg="http://www.w3.org/2000/svg" xmlns:xlink="http://www.w3.org/1999/xlink" id="FxSymbol0-034" data-type="1"><g><title>Icon-machinelearning-162</title><path d="M18 11.38a4 4 0 0 0-3.51-3.88 5.1 5.1 0 0 0-5.25-4.88A5.25 5.25 0 0 0 4.22 6 4.8 4.8 0 0 0 0 10.67a4.9 4.9 0 0 0 5.07 4.71h8.65a.78.78 0 0 0 .22 0 4.1 4.1 0 0 0 4.06-4z" fill="url(#b6c43bd9-e37f-4191-93c2-d3a7a84c505e)"></path><path d="M5.42 10.39h-.88a1.09 1.09 0 1 0 0 .49h.88a.2.2 0 0 1 .2.2v4.3h.49v-4.3a.69.69 0 0 0-.69-.69zm-1.95.88a.64.64 0 1 1 .64-.64.64.64 0 0 1-.64.64z" fill="#9cebff"></path><path d="M8.94 10.61v-1a.7.7 0 0 0-.7-.7H6.69a.2.2 0 0 1-.2-.2V3.4l-.23.12-.26.14v5a.69.69 0 0 0 .69.69h1.55a.21.21 0 0 1 .21.21v1a1.08 1.08 0 0 0-.85 1.06 1.09 1.09 0 1 0 1.34-1.06zm-.25 1.7a.64.64 0 1 1 .64-.64.64.64 0 0 1-.64.64z" fill="#f2f2f2"></path><path d="M14.53 8.5a1.09 1.09 0 0 0-.25 2.15v.2a.21.21 0 0 1-.21.21h-2V7.54a.69.69 0 0 0-.69-.69h-1.03A1.08 1.08 0 0 0 9.29 6a1.09 1.09 0 1 0 1.06 1.34h1.07a.2.2 0 0 1 .2.2v7.84h.49v-3.83h2a.7.7 0 0 0 .7-.7v-.2a1.09 1.09 0 0 0 .85-1.06 1.09 1.09 0 0 0-1.13-1.09zm-5.24-.77a.64.64 0 1 1 .64-.64.64.64 0 0 1-.64.64zm5.24 2.5a.64.64 0 1 1 .63-.64.64.64 0 0 1-.63.64z" fill="#9cebff"></path></g><defs>
<linearGradient id="b6c43bd9-e37f-4191-93c2-d3a7a84c505e" x1="9" y1="19.13" x2="9" y2="-.29" gradientUnits="userSpaceOnUse"><stop offset="0" stop-color="#0078d4"></stop><stop offset=".16" stop-color="#1380da"></stop><stop offset=".53" stop-color="#3c91e5"></stop><stop offset=".82" stop-color="#559cec"></stop><stop offset="1" stop-color="#5ea0ef"></stop></linearGradient>
</defs>
</svg>