<svg viewBox="0 0 19 19" class="" role="presentation" focusable="false" xmlns="http://www.w3.org/2000/svg" xmlns:xlink="http://www.w3.org/1999/xlink" id="FxSymbol0-234" data-type="1"><g><path fill="#0078d4" d="M7.62 14.109a.715.715 0 0 0 .718-.65v-.118c-.3-2.127-1.495-3.9-3.887-3.9S.743 10.918.5 13.341a.712.712 0 0 0 .6.768z"></path><path fill="#0078d4" d="M4.391 9.973a2.187 2.187 0 1 0-2.213-2.187 2.2 2.2 0 0 0 2.213 2.187zm13.395 4.313a.715.715 0 0 0 .718-.65v-.118c-.3-2.127-1.5-3.9-3.887-3.9s-3.648 1.537-3.887 3.9a.712.712 0 0 0 .6.768z"></path><path fill="#0078d4" d="M14.617 10.15A2.187 2.187 0 1 0 12.4 7.964a2.2 2.2 0 0 0 2.217 2.186z"></path><path fill="url(#406fd2f9-470a-4939-b13a-553c6cc30f0c)" d="M14.617 16a1.066 1.066 0 0 0 1.076-1.064v-.118c-.418-3.309-2.332-5.968-5.98-5.968s-5.561 2.25-5.98 5.968A1.07 1.07 0 0 0 4.69 16z"></path><path d="M9.713 9.618a3.187 3.187 0 0 1-1.794-.532L9.713 13.7l1.794-4.61a3.187 3.187 0 0 1-1.794.528z" opacity=".8" class="msportalfx-svg-c01" fill="#ffffff"></path><path fill="url(#406fd2f9-470a-4939-b13a-553c6cc30f0d)" d="M9.713 9.618a3.309 3.309 0 1 0-3.349-3.309 3.329 3.329 0 0 0 3.349 3.309z"></path></g><defs>
<linearGradient id="406fd2f9-470a-4939-b13a-553c6cc30f0c" x1="-209.29" x2="-209.29" y1="225.538" y2="215.751" gradientTransform="matrix(1 0 0 -1 219 233.5)" gradientUnits="userSpaceOnUse"><stop offset=".22" stop-color="#32d4f5"></stop><stop offset="1" stop-color="#198ab3"></stop></linearGradient>
<linearGradient id="406fd2f9-470a-4939-b13a-553c6cc30f0d" x1="-209.572" x2="-208.867" y1="230.788" y2="221.901" gradientTransform="matrix(1 0 0 -1 219 233.5)" gradientUnits="userSpaceOnUse"><stop offset=".22" stop-color="#32d4f5"></stop><stop offset="1" stop-color="#198ab3"></stop></linearGradient>
</defs>
</svg>