<svg viewBox="0 0 18 18" class="" role="presentation" focusable="false" xmlns="http://www.w3.org/2000/svg" xmlns:xlink="http://www.w3.org/1999/xlink" id="FxSymbol0-202" data-type="33"><g><title>MsPortalFx.base.images-65</title><rect width="4.396" height="13.247" x="1.367" y="3.753" fill="url(#406fd2f9-470a-4939-b13a-553c6cc30ac1)" rx=".517"></rect><rect width="4.396" height="13.247" x="6.802" y="3.753" fill="url(#406fd2f9-470a-4939-b13a-553c6cc30ac2)" rx=".517"></rect><rect width="4.396" height="13.247" x="12.238" y="3.753" fill="url(#406fd2f9-470a-4939-b13a-553c6cc30ac3)" rx=".517"></rect><path fill="#faa21d" d="M1.617 1h3.895a.251.251 0 0 1 .251.251v2.871h-4.4V1.251A.251.251 0 0 1 1.617 1z"></path><path fill="#86d633" d="M7.053 1h3.894a.251.251 0 0 1 .251.251v2.871H6.8V1.251A.251.251 0 0 1 7.053 1z"></path><path fill="#5ea0ef" d="M12.488 1h3.894a.251.251 0 0 1 .251.251v2.871h-4.4V1.251A.251.251 0 0 1 12.488 1z"></path></g><defs>
<linearGradient id="406fd2f9-470a-4939-b13a-553c6cc30ac1" x1="3.565" x2="3.565" y1="17" y2="3.753" gradientUnits="userSpaceOnUse"><stop offset="0" stop-color="#fea11b"></stop><stop offset=".127" stop-color="#feac19"></stop><stop offset=".562" stop-color="#ffcb12"></stop><stop offset=".804" stop-color="#ffd70f"></stop></linearGradient>
<linearGradient id="406fd2f9-470a-4939-b13a-553c6cc30ac2" x1="9" x2="9" y1="17" y2="3.753" gradientUnits="userSpaceOnUse"><stop offset="0" stop-color="#5e9624"></stop><stop offset=".546" stop-color="#6dad2a"></stop><stop offset=".999" stop-color="#76bc2d"></stop></linearGradient>
<linearGradient id="406fd2f9-470a-4939-b13a-553c6cc30ac3" x1="14.435" x2="14.435" y1="17" y2="3.753" gradientUnits="userSpaceOnUse"><stop offset="0" stop-color="#1b93eb"></stop><stop offset="1" stop-color="#6bb9f2"></stop></linearGradient>
</defs>
</svg>