<svg viewBox="0 0 50 50" class="fxs-portal-svg" role="presentation" focusable="false" xmlns:svg="http://www.w3.org/2000/svg" xmlns:xlink="http://www.w3.org/1999/xlink" id="FxSymbol0-13c" data-type="68"><g><title></title><path d="M2.001 45.578v-27.8a2.927 2.927 0 0 1 2.927-2.927h39.145a2.927 2.927 0 0 1 2.928 2.927v27.8h-45z" class="msportalfx-svg-c08" fill="#ba141a"></path><path d="M44.271 31.609a5.199 5.199 0 1 0 0 10.399A5.157 5.157 0 0 0 47 41.217V32.4a5.16 5.16 0 0 0-2.729-.791z" class="msportalfx-svg-c17" fill="#804998"></path><path d="M37.111 14.851h-3.389V9.997c0-.887-.72-1.608-1.607-1.608h-15.23a1.61 1.61 0 0 0-1.607 1.608v4.854H11.89V9.997A5.003 5.003 0 0 1 16.885 5h15.23a5.002 5.002 0 0 1 4.996 4.997v4.854z" class="msportalfx-svg-c06" fill="#1e1e1e"></path><path opacity=".6" d="M19.077 35.804L2 31.731v6.608l15.587 3.717z" class="msportalfx-svg-c12" fill="#fee087"></path><path opacity=".8" d="M16.84 19.344c.254 1.656-2.448 3.445-6.035 3.996-3.588.551-6.702-.344-6.956-2-.255-1.656 2.447-3.445 6.035-3.996 3.587-.551 6.702.344 6.956 2" class="msportalfx-svg-c10" fill="#ff8c00"></path><path opacity=".2" d="M44.271 33.274a3.533 3.533 0 0 0 0 7.068A3.511 3.511 0 0 0 47 39.028v-4.44a3.513 3.513 0 0 0-2.729-1.314z" class="msportalfx-svg-c01" fill="#ffffff"></path><path opacity=".3" d="M2 27.127h45v2.112H2z" class="msportalfx-svg-c06" fill="#1e1e1e"></path><path opacity=".3" d="M28.187 25.966c.727 0 1.314.588 1.314 1.314v3.988c0 .726-.587 1.314-1.314 1.314h-7.376a1.313 1.313 0 0 1-1.313-1.314V27.28c0-.726.587-1.314 1.313-1.314h7.376z" class="msportalfx-svg-c06" fill="#1e1e1e"></path><path d="M2.001 26.002h45v2.111h-45z" class="msportalfx-svg-c02" fill="#e5e5e5"></path></g><defs>
<linearGradient id="a" x1="-1267.23" y1="3.07" x2="-1267.52" y2="14.64" gradientTransform="matrix(-1 0 0 1 -1256.13 0)" gradientUnits="userSpaceOnUse"><stop offset="0" stop-color="#32d4f5"></stop><stop offset=".23" stop-color="#31d0f1"></stop><stop offset=".46" stop-color="#2cc3e6"></stop><stop offset=".7" stop-color="#25afd4"></stop><stop offset=".94" stop-color="#1c92ba"></stop><stop offset="1" stop-color="#198ab3"></stop></linearGradient>
<linearGradient id="b" x1="6.4" y1="1.32" x2="7.21" y2="11.39"><stop offset=".22" stop-color="#32d4f5"></stop><stop offset=".47" stop-color="#31d1f3"></stop><stop offset=".63" stop-color="#2ec9eb"></stop><stop offset=".77" stop-color="#29bade"></stop><stop offset=".89" stop-color="#22a5cb"></stop><stop offset="1" stop-color="#198ab3"></stop><stop offset="1" stop-color="#198ab3"></stop></linearGradient>
<linearGradient id="c" x1="13.76" y1="18.05" x2="13.76" y2="10.25" gradientUnits="userSpaceOnUse"><stop offset="0" stop-color="#76bc2d"></stop><stop offset=".6" stop-color="#81ce31"></stop><stop offset=".82" stop-color="#86d633"></stop></linearGradient>
</defs>
</svg>