<svg viewBox="0 0 18 18" class="" role="presentation" focusable="false" xmlns="http://www.w3.org/2000/svg" xmlns:xlink="http://www.w3.org/1999/xlink" id="FxSymbol0-153" data-type="1"><g><path d="M12.85 2.257 9 4.517l-3.85-2.26L9 0Zm-6.7 8.091-.73-.43L3.854 9 0 11.248l3.85 2.26 3.85-2.26Zm8-1.35-1.57.92-.73.43-1.55.9 3.11 1.83.74.43.36-.21 3.49-2.05Z" fill="#b796f9"></path><path d="M9 4.518V9l-1.56-.91-.73-.43-1.56-.91V2.258l3.49 2.05Zm-9 6.735v4.49L3.854 18v-4.487Zm13.414 1.825v-.01l-3.11-1.82v4.5L14.154 18v-4.49Z" fill="#a67af4"></path><path d="M12.081 13.49a1.081 1.081 0 0 1 .492.935.285.285 0 0 1-.248.287h-.024l.206.912.062.278c.022.108-.035.165-.119.116l-.139-.079-.138-.08q-.242-.141-.483-.278a.273.273 0 0 1-.119-.26c.09-.277.175-.557.262-.836.009-.027.007-.043-.019-.078a.99.99 0 0 1-.238-.7c.023-.217.137-.315.324-.286a.545.545 0 0 1 .181.069Z" fill="url(#59616712-f700-4139-92c6-bd98d17f0314)"></path><path d="M12.854 2.258v4.49l-1.56.91-.73.43L9 9V4.508Zm-8.26 10.81v.01l-.74.43V18l3.85-2.25v-4.5Zm9.56.437V18L18 15.743v-4.49ZM7.7 13.088v.85h2.6v-.85Zm-.99-5.43-1.29 2.26.73.43 1.29-2.26Zm4.58 0-.73.43 1.29 2.26.73-.43Z" fill="#773adc"></path><path d="M6.932 4.5a1.08 1.08 0 0 1 .491.935.285.285 0 0 1-.247.286h-.025l.206.912.062.279c.02.093-.035.164-.119.115l-.139-.079-.138-.08-.483-.28a.273.273 0 0 1-.119-.26c.09-.277.175-.557.262-.836.009-.027.007-.043-.019-.078a.99.99 0 0 1-.238-.7c.023-.217.138-.315.325-.285a.539.539 0 0 1 .181.071Z" fill="url(#59616712-f700-4139-92c6-bd98d17f0315)"></path><path d="M1.782 13.49a1.082 1.082 0 0 1 .491.935.285.285 0 0 1-.247.287h-.025l.206.912.062.278c.023.108-.035.165-.119.116l-.139-.079-.138-.08q-.242-.141-.483-.278a.273.273 0 0 1-.119-.26c.09-.277.175-.557.263-.836.009-.027.006-.043-.02-.078a.99.99 0 0 1-.238-.7c.023-.217.138-.315.325-.286a.562.562 0 0 1 .181.069Z" fill="url(#59616712-f700-4139-92c6-bd98d17f0316)"></path></g><defs>
<linearGradient id="59616712-f700-4139-92c6-bd98d17f0314" x1="11.565" y1="14.729" x2="12.577" y2="14.729" gradientUnits="userSpaceOnUse"><stop offset=".001" stop-color="#773adc"></stop><stop offset="1" stop-color="#552f99"></stop></linearGradient>
<linearGradient id="59616712-f700-4139-92c6-bd98d17f0315" x1="6.415" y1="5.733" x2="7.427" y2="5.733" gradientUnits="userSpaceOnUse"><stop offset=".001" stop-color="#773adc"></stop><stop offset="1" stop-color="#552f99"></stop></linearGradient>
<linearGradient id="59616712-f700-4139-92c6-bd98d17f0316" x1="1.265" y1="14.729" x2="2.278" y2="14.729" gradientUnits="userSpaceOnUse"><stop offset=".001" stop-color="#773adc"></stop><stop offset="1" stop-color="#552f99"></stop></linearGradient>
</defs>
</svg>