<svg viewBox="0 0 48 48" class="" role="presentation" focusable="false" xmlns="http://www.w3.org/2000/svg" xmlns:xlink="http://www.w3.org/1999/xlink" id="FxSymbol0-0fc" data-type="1"><g><title></title><path fill="#b4e1e4" d="M0 0h48v48H0z"></path><path fill="#0074a3" d="M23.77 41.54A17.19 17.19 0 1 0 6.58 24.35a17.19 17.19 0 0 0 17.19 17.19z"></path><path fill-rule="evenodd" d="M23.77 18.64a2 2 0 0 0-2 2v6.74a2 2 0 1 0 4 0v-6.75a2 2 0 0 0-2-1.99zm2.56 2.51a2 2 0 0 1 4 0v5.06a2 2 0 1 1-4 0zm4.56 4.49a2 2 0 1 1 2 2 2 2 0 0 1-2-2zM17.22 24a2 2 0 0 1 4 0v2.24a2 2 0 1 1-4 0zm-2.56-.26a2 2 0 1 0 2 2 2 2 0 0 0-2-2.03z" class="msportalfx-svg-c01" fill="#ffffff"></path></g><defs>
</defs>
</svg>