<svg viewBox="0 0 18 18" data-islogo="true" class="" role="presentation" focusable="false" xmlns:svg="http://www.w3.org/2000/svg" xmlns:xlink="http://www.w3.org/1999/xlink" id="FxSymbol0-059" data-type="1"><g><title></title><defs><clipPath id="f0c68de7-8aac-4038-bd4b-8e0fb8fab5fc"><path d="M10.58 8.34L13 10.92a.22.22 0 0 1 0 .3l-.47.49a.2.2 0 0 1-.3 0L9 8.34A.22.22 0 0 1 9 8l3.15-3.32a.2.2 0 0 1 .3 0l.47.49a.23.23 0 0 1 0 .31L10.58 8a.22.22 0 0 0 0 .34z" fill="none"></path></clipPath><clipPath id="e1eb0374-eab6-40b9-91d8-e8a5f1c9b58a"><path d="M7.11 9.91l-2.43 2.57a.23.23 0 0 0 0 .31l.47.49a.2.2 0 0 0 .3 0l3.2-3.37a.22.22 0 0 0 0-.3L5.5 6.29a.2.2 0 0 0-.3 0l-.47.49a.22.22 0 0 0 0 .3l2.38 2.53a.2.2 0 0 1 0 .3z" fill="none"></path></clipPath></defs><title>Icon-networking-81</title><circle cx="9" cy="9" r="8.5" fill="url(#b1cd44f2-d62b-4753-a859-aa68f089cdca)"></circle><circle cx="9" cy="9" r="7.4" class="msportalfx-svg-c01" fill="#ffffff"></circle><g clip-path="url(#f0c68de7-8aac-4038-bd4b-8e0fb8fab5fc)"><path fill="#5e9624" d="M10.43 8.19l2.73 2.88-.77.8-3.5-3.68 3.45-3.63.77.8-2.68 2.83z"></path><path fill="#86d633" d="M13.16 11.07l-2.73-2.88-.76.8 2.72 2.88.77-.8z"></path></g><g clip-path="url(#e1eb0374-eab6-40b9-91d8-e8a5f1c9b58a)"><path fill="#5e9624" d="M7.26 9.76l-2.72 2.88.76.8 3.5-3.68-3.45-3.63-.77.8 2.68 2.83z"></path><path fill="#86d633" d="M4.54 12.64l2.72-2.88.76.8-2.72 2.88-.76-.8z"></path></g></g><defs>
<radialGradient id="b1cd44f2-d62b-4753-a859-aa68f089cdca" cx="46.42" cy="43.21" r="9" gradientTransform="matrix(.94 0 0 .94 -34.84 -31.81)" gradientUnits="userSpaceOnUse"><stop offset=".18" stop-color="#5ea0ef"></stop><stop offset=".56" stop-color="#5c9fee"></stop><stop offset=".69" stop-color="#559ced"></stop><stop offset=".78" stop-color="#4a97e9"></stop><stop offset=".86" stop-color="#3990e4"></stop><stop offset=".93" stop-color="#2387de"></stop><stop offset=".99" stop-color="#087bd6"></stop><stop offset="1" stop-color="#0078d4"></stop></radialGradient>
</defs>
</svg>