<svg viewBox="0 0 50 50" class="fxs-portal-svg" role="presentation" focusable="false" xmlns:svg="http://www.w3.org/2000/svg" xmlns:xlink="http://www.w3.org/1999/xlink" id="FxSymbol0-06b" data-type="87"><g><title></title><path d="M48.083 28.179H17.287c-1.325 0-2.417-1.12-2.417-2.14s1.091-1.86 2.417-1.86h30.796c1.351 0 2.417.84 2.417 1.86s-1.065 2.14-2.417 2.14zm0-15.592H17.287c-1.325 0-2.417-1.12-2.417-2.14s1.091-1.86 2.417-1.86h30.796c1.351 0 2.417.84 2.417 1.86s-1.065 2.14-2.417 2.14zm.026 31.185H17.287c-1.325 0-2.417-1.12-2.417-2.14 0-1.04 1.091-1.86 2.417-1.86h30.822c1.325 0 2.391.82 2.391 1.86 0 1.02-1.065 2.14-2.391 2.14z" class="msportalfx-svg-c03" fill="#a0a1a2"></path><path d="M.5 9.907l1.748-1.75 3.501 3.501 7.003-7.003L14.5 6.406 5.749 15.16zM.5 25.5l1.748-1.75 3.501 3.5 7.003-7.002 1.748 1.751-8.751 8.753zm0 15.592l1.748-1.75 3.501 3.501 7.003-7.003 1.748 1.751-8.751 8.754z" class="msportalfx-svg-c13" fill="#b8d432"></path></g><defs>
<linearGradient id="a" x1="-1267.23" y1="3.07" x2="-1267.52" y2="14.64" gradientTransform="matrix(-1 0 0 1 -1256.13 0)" gradientUnits="userSpaceOnUse"><stop offset="0" stop-color="#32d4f5"></stop><stop offset=".23" stop-color="#31d0f1"></stop><stop offset=".46" stop-color="#2cc3e6"></stop><stop offset=".7" stop-color="#25afd4"></stop><stop offset=".94" stop-color="#1c92ba"></stop><stop offset="1" stop-color="#198ab3"></stop></linearGradient>
<linearGradient id="b" x1="6.05" y1="11.51" x2="6.05" y2="3" gradientUnits="userSpaceOnUse"><stop offset="0" stop-color="#0078d4"></stop><stop offset=".82" stop-color="#5ea0ef"></stop></linearGradient>
<linearGradient id="c" x1="10.51" y1="6.82" x2="7.93" y2="10.5" gradientUnits="userSpaceOnUse"><stop offset="0" stop-color="#005ba1"></stop><stop offset=".14" stop-color="#035da3" stop-opacity=".97"></stop><stop offset=".3" stop-color="#0b63aa" stop-opacity=".88"></stop><stop offset=".47" stop-color="#196eb6" stop-opacity=".73"></stop><stop offset=".65" stop-color="#2d7cc6" stop-opacity=".52"></stop><stop offset=".84" stop-color="#468edb" stop-opacity=".26"></stop><stop offset="1" stop-color="#5ea0ef" stop-opacity="0"></stop></linearGradient>
</defs>
</svg>