<svg viewBox="0 0 50 50" class="fxs-portal-svg" role="presentation" focusable="false" xmlns:svg="http://www.w3.org/2000/svg" xmlns:xlink="http://www.w3.org/1999/xlink" id="FxSymbol0-189" data-type="1"><g><title></title><path d="M31.426 35.534H17.83C19.464 41.302 17.614 43 8 43v3h32.347v-3.02c-9.614 0-10.557-1.675-8.921-7.446" class="msportalfx-svg-c04" fill="#7a7a7a"></path><path d="M44.969 1H2.726C1.217 1 0 2.345 0 3.847v28.866c0 1.493 1.217 2.823 2.726 2.823H44.97c1.506 0 3.031-1.33 3.031-2.823V3.847C48 2.341 46.475 1 44.969 1" class="msportalfx-svg-c03" fill="#a0a1a2"></path><path opacity=".2" d="M44.858 1.003l-.031-.002H2.717C1.213 1.001 0 2.345 0 3.848v28.865c0 1.494 1.213 2.824 2.717 2.824H3.77L44.858 1.003z" class="msportalfx-svg-c01" fill="#ffffff"></path><path d="M44 5v27H4V5z" class="msportalfx-svg-c15" fill="#59b4d9"></path><path d="M3.942 31.689H4V4.849l36.527-.058h.002l-36.587.058z" class="msportalfx-svg-c15" fill="#59b4d9"></path><path d="M8 43l32.347-.021V46H8z" class="msportalfx-svg-c03" fill="#a0a1a2"></path><path d="M24.709 3a.71.71 0 1 1-1.42 0 .71.71 0 0 1 1.42 0" class="msportalfx-svg-c13" fill="#b8d432"></path><path d="M24.026 17.294a.264.264 0 0 1-.128-.036L15.483 12.4a.256.256 0 0 1 0-.441l8.365-4.826a.255.255 0 0 1 .251 0l8.418 4.859a.253.253 0 0 1 .125.22.251.251 0 0 1-.125.22l-8.362 4.825a.257.257 0 0 1-.129.037" class="msportalfx-svg-c01" fill="#ffffff"></path><path opacity=".7" d="M22.749 29.238a.238.238 0 0 1-.128-.034l-8.39-4.788a.246.246 0 0 1-.13-.218v-9.607c0-.091.049-.173.13-.218a.255.255 0 0 1 .256 0l8.389 4.786a.261.261 0 0 1 .124.219v9.607c0 .092-.05.173-.124.218a.268.268 0 0 1-.127.035" class="msportalfx-svg-c01" fill="#ffffff"></path><path opacity=".4" d="M25.255 29.238a.273.273 0 0 1-.132-.034.258.258 0 0 1-.123-.219v-9.547a.26.26 0 0 1 .123-.218l8.389-4.786a.252.252 0 0 1 .252 0c.08.044.129.128.129.217v9.546a.246.246 0 0 1-.129.218l-8.387 4.788a.218.218 0 0 1-.122.035" class="msportalfx-svg-c01" fill="#ffffff"></path><circle cx="38" cy="38" r="11.9" class="msportalfx-svg-c17" fill="#804998"></circle><path d="M40.692 43.452a5.99 5.99 0 0 1-2.692.645A6.104 6.104 0 0 1 31.903 38 6.104 6.104 0 0 1 38 31.903c3 0 5.495 2.24 5.999 5.097H41l4 5.5 4-5.5h-2.455c-.525-4.252-4.154-7.618-8.545-7.618-4.752 0-8.618 3.867-8.618 8.618 0 4.752 3.866 8.618 8.618 8.618a8.571 8.571 0 0 0 4.195-1.101l-1.503-2.065z" class="msportalfx-svg-c01" fill="#ffffff"></path></g><defs>
<linearGradient id="a" x1="-1267.23" y1="3.07" x2="-1267.52" y2="14.64" gradientTransform="matrix(-1 0 0 1 -1256.13 0)" gradientUnits="userSpaceOnUse"><stop offset="0" stop-color="#32d4f5"></stop><stop offset=".23" stop-color="#31d0f1"></stop><stop offset=".46" stop-color="#2cc3e6"></stop><stop offset=".7" stop-color="#25afd4"></stop><stop offset=".94" stop-color="#1c92ba"></stop><stop offset="1" stop-color="#198ab3"></stop></linearGradient>
<linearGradient id="b" x1="6.4" y1="1.32" x2="7.21" y2="11.39"><stop offset=".22" stop-color="#32d4f5"></stop><stop offset=".47" stop-color="#31d1f3"></stop><stop offset=".63" stop-color="#2ec9eb"></stop><stop offset=".77" stop-color="#29bade"></stop><stop offset=".89" stop-color="#22a5cb"></stop><stop offset="1" stop-color="#198ab3"></stop><stop offset="1" stop-color="#198ab3"></stop></linearGradient>
<linearGradient id="c" x1="13.76" y1="18.05" x2="13.76" y2="10.25" gradientUnits="userSpaceOnUse"><stop offset="0" stop-color="#76bc2d"></stop><stop offset=".6" stop-color="#81ce31"></stop><stop offset=".82" stop-color="#86d633"></stop></linearGradient>
</defs>
</svg>