<svg viewBox="0 0 50 50" class="fxs-portal-svg" role="presentation" focusable="false" xmlns:svg="http://www.w3.org/2000/svg" xmlns:xlink="http://www.w3.org/1999/xlink" id="FxSymbol0-074" data-type="1"><g><title></title><path d="M37.8 13.1l-3.3-3.3-10.7 10.8 10.7 10.8 3.3-3.1-7.3-7.4zm-25.6 9.1l7.3 7.3-7.3 7.4 3.3 3.3 10.7-10.8-10.7-10.8z" class="msportalfx-svg-c13" fill="#b8d432"></path><path d="M25 0C11.1 0 0 11.4 0 25c0 13.9 11.4 25 25 25s25-11.4 25-25S38.9 0 25 0zm0 3.3C37 3.3 46.7 13 46.7 25S36.9 46.7 25 46.7 3.3 36.9 3.3 25 13 3.3 25 3.3z" class="msportalfx-svg-c15" fill="#59b4d9"></path></g><defs>
<linearGradient id="a" x1="9" y1="16.39" x2="9" y2="-1.94" gradientUnits="userSpaceOnUse"><stop offset="0" stop-color="#0078d4"></stop><stop offset=".16" stop-color="#1380da"></stop><stop offset=".53" stop-color="#3c91e5"></stop><stop offset=".82" stop-color="#559cec"></stop><stop offset="1" stop-color="#5ea0ef"></stop></linearGradient>
<linearGradient id="b" x1="9.88" y1="7.11" x2="9.99" y2="17.27" gradientUnits="userSpaceOnUse"><stop offset="0" stop-color="#32d4f5"></stop><stop offset=".32" stop-color="#31d1f3"></stop><stop offset=".53" stop-color="#2ec9eb"></stop><stop offset=".7" stop-color="#29bade"></stop><stop offset=".86" stop-color="#22a5cb"></stop><stop offset="1" stop-color="#198ab3"></stop><stop offset="1" stop-color="#198ab3"></stop></linearGradient>
<radialGradient id="c" cx="9.43" cy="7.03" r="7.27" gradientUnits="userSpaceOnUse"><stop offset="0" stop-color="#f2f2f2"></stop><stop offset=".58" stop-color="#eee"></stop><stop offset="1" stop-color="#e6e6e6"></stop></radialGradient>
</defs>
</svg>