<svg viewBox="0 0 18 18" class="" role="presentation" focusable="false" xmlns:svg="http://www.w3.org/2000/svg" xmlns:xlink="http://www.w3.org/1999/xlink" id="FxSymbol0-084" data-type="1"><g><title>Icon-containers-105</title><path d="M16.22 7.44A4.19 4.19 0 0 0 14 6.32a4.91 4.91 0 0 0-5.1-4.7 5.07 5.07 0 0 0-4.84 3.29A4.62 4.62 0 0 0 0 9.39a4.73 4.73 0 0 0 4.89 4.54h8.56a4 4 0 0 0 3.92-3.81 3.67 3.67 0 0 0-1.14-2.63" fill="url(#acf8419d-8bd3-4d4c-a313-79bfa4dbbb30)"></path><path fill="#767676" d="M10.07 6.22l.01 4.28 7.91 1.68V9.2l-7.92-2.98z"></path><path fill="#999" d="M10.07 6.22l-2.14 1.3v3.98l2.15-1"></path><path fill="#a3a3a3" d="M13.68 10.56l.72.2V8.43l-.72-.25v2.38zm-.72-2.61l-.72-.26v2.49l.72.2V7.95zm2.16 3l.7.19.02-2.22-.72-.24v2.27zm-4.31-1.14l.72.18V7.46l-.72-.24v2.59zm6.46-.4l-.72-.25v2.17l.72.2V9.41z"></path><path d="M8.66 10.43l-.36.21V7.81l.36-.19zm.71-3.22L9 7.45v2.75l.37-.2z" fill="#b3b3b3"></path><path fill="url(#b70b4374-3fee-4f3a-a2a1-8f4484807b01)" d="M17.99 12.18l-2.16.74-7.9-1.42 2.15-1 7.91 1.68z"></path><path fill="#767676" d="M17.99 15.23l-7.95 1.51.04-5.59 7.91 1.47v2.61z"></path><path fill="#a3a3a3" d="M10.81 15.82v-3.55l.72.09v3.34l-.72.12zm2.15-.36l-.72.13v-3.14l.72.11v2.9zm.72-.11v-2.72l.72.09v2.5l-.72.13zm2.15-.38l-.71.13v-2.29l.71.11v2.05zm1.46-.23l-.74.13v-1.88l.69.09.05 1.66z"></path><path d="M7.93 15.46V12.2l2.16-1v5.6z" fill="#999"></path><path d="M8.61 15.45l-.32-.16v-2.76l.32-.15zM9.38 12l-.38.19v3.48l.37.19V12z" fill="#b3b3b3"></path></g><defs>
<linearGradient id="acf8419d-8bd3-4d4c-a313-79bfa4dbbb30" x1="8.67" y1="17.54" x2="8.67" y2="-1.19" gradientUnits="userSpaceOnUse"><stop offset="0" stop-color="#0078d4"></stop><stop offset=".16" stop-color="#1380da"></stop><stop offset=".53" stop-color="#3c91e5"></stop><stop offset=".82" stop-color="#559cec"></stop><stop offset="1" stop-color="#5ea0ef"></stop></linearGradient>
<linearGradient id="b70b4374-3fee-4f3a-a2a1-8f4484807b01" x1="12.96" y1="10.5" x2="12.96" y2="12.92" gradientUnits="userSpaceOnUse"><stop offset="0" stop-color="#333132"></stop><stop offset="1" stop-color="#5b5a5c"></stop></linearGradient>
</defs>
</svg>