<svg viewBox="0 0 50 50" class="" role="presentation" focusable="false" xmlns="http://www.w3.org/2000/svg" xmlns:xlink="http://www.w3.org/1999/xlink" id="FxSymbol0-1d5" data-type="1"><g><title></title><path d="m19.4 45.9 2.8-3.8c-7.3-1.6-14.1-7.8-14.8-15.7-.7-8.6 4.8-16.3 12.9-18.5l3-3.9L19.5.5C7.5 3.3-1 14.5.1 27.1c1 12 10.5 21.3 22 22.7l-2.7-3.9zM28.8.2l2.4 3.9-3.3 3.6c7.3 1.7 14.1 7.9 14.8 15.7.7 8.5-4.7 16.2-12.7 18.5l-2.3 4.3 3.5 3c11.7-3 19.8-14 18.7-26.4C48.9 11 39.9 1.9 28.8.2z" class="msportalfx-svg-c19" fill="#0072c6"></path><path d="M12.7 21.5h4.1v9.7h-4.1z" class="msportalfx-svg-c19" fill="#0072c6"></path><path d="M19.5 16h4.1v15.2h-4.1z" class="msportalfx-svg-c15" fill="#59b4d9"></path><path d="M26.3 22.9h4.1v8.3h-4.1z" class="msportalfx-svg-c16" fill="#3999c6"></path><path d="M33.2 18.7h4.1v12.4h-4.1z" class="msportalfx-svg-c19" fill="#0072c6"></path></g><defs>
</defs>
</svg>