<svg viewBox="0 0 50 50" class="fxs-portal-svg" role="presentation" focusable="false" xmlns:svg="http://www.w3.org/2000/svg" xmlns:xlink="http://www.w3.org/1999/xlink" id="FxSymbol0-059" data-type="1"><g><title></title><path d="M22.891 15.949l-7.647 2.921V6.537l7.647 2.708z" class="msportalfx-svg-c17" fill="#804998"></path><path d="M8.289 8.565v8.1l5.728 2.179V6.537L8.289 8.565zm.628 7.513l-.312-.097V9.274l.312-.088.328-.092.349-.098v7.292l-.349-.108-.328-.102zm1.436.445l-.392-.121v-7.51l.392-.11.415-.117.444-.125v8.249l-.444-.138-.415-.128zm1.84.569l-.508-.157V8.407l.508-.143.542-.153.586-.165v9.496l-.586-.181-.542-.169z" class="msportalfx-svg-c20" fill="#68217a"></path><path d="M40.791 15.949l-7.648 2.921V6.537l7.648 2.708z" class="msportalfx-svg-c17" fill="#804998"></path><path d="M26.189 8.565v8.1l5.728 2.179V6.537l-5.728 2.028zm.627 7.513l-.312-.097V9.274l.312-.088.328-.092.349-.098v7.292l-.349-.108-.328-.102zm1.436.445l-.392-.121v-7.51l.392-.11.415-.117.444-.125v8.249l-.444-.138-.415-.128zm1.84.569l-.508-.157V8.407l.508-.143.542-.153.586-.165v9.496l-.586-.181-.542-.169z" class="msportalfx-svg-c20" fill="#68217a"></path><path d="M22.891 40.543l-7.647 2.92V31.13l7.647 2.709z" class="msportalfx-svg-c17" fill="#804998"></path><path d="M8.289 33.159v8.1l5.728 2.179V31.13l-5.728 2.029zm.628 7.513l-.312-.097v-6.707l.312-.088.328-.092.349-.098v7.292l-.349-.108-.328-.102zm1.436.444l-.392-.121v-7.509l.392-.111.415-.117.444-.125v8.249l-.444-.138-.415-.128zm1.84.57l-.508-.157V33l.508-.143.542-.153.586-.165v9.496l-.586-.181-.542-.168z" class="msportalfx-svg-c20" fill="#68217a"></path><path d="M40.791 40.543l-7.648 2.92V31.13l7.648 2.709z" class="msportalfx-svg-c17" fill="#804998"></path><path d="M26.189 33.159v8.1l5.728 2.179V31.13l-5.728 2.029zm.627 7.513l-.312-.097v-6.707l.312-.088.328-.092.349-.098v7.292l-.349-.108-.328-.102zm1.436.444l-.392-.121v-7.509l.392-.111.415-.117.444-.125v8.249l-.444-.138-.415-.128zm1.84.57l-.508-.157V33l.508-.143.542-.153.586-.165v9.496l-.586-.181-.542-.168z" class="msportalfx-svg-c20" fill="#68217a"></path><path d="M32.417 28.21l-7.648 2.92V18.798l7.648 2.708z" class="msportalfx-svg-c17" fill="#804998"></path><path d="M17.815 20.826v8.1l5.728 2.179V18.798l-5.728 2.028zm.627 7.513l-.312-.097v-6.707l.312-.088.328-.092.349-.098v7.292l-.349-.108-.328-.102zm1.436.445l-.392-.121v-7.509l.392-.11.415-.117.444-.125v8.249l-.444-.138-.415-.129zm1.84.569l-.508-.157v-8.528l.508-.143.542-.153.586-.165v9.496l-.586-.181-.542-.169z" class="msportalfx-svg-c20" fill="#68217a"></path><path d="M14.61 28.21l-7.648 2.92V18.798l7.648 2.708z" class="msportalfx-svg-c17" fill="#804998"></path><path d="M.008 20.826v8.1l5.728 2.179V18.798L.008 20.826zm.627 7.513l-.312-.097v-6.707l.312-.088.328-.092.349-.098v7.292l-.349-.108-.328-.102zm1.436.445l-.392-.121v-7.509l.392-.11.415-.117.445-.127v8.249l-.444-.138-.416-.127zm1.84.569l-.508-.157v-8.528l.508-.143.542-.153.586-.165v9.496l-.586-.181-.542-.169z" class="msportalfx-svg-c20" fill="#68217a"></path><path d="M50 28.21l-7.648 2.92V18.798L50 21.506z" class="msportalfx-svg-c17" fill="#804998"></path><path d="M35.398 20.826v8.1l5.728 2.179V18.798l-5.728 2.028zm.627 7.513l-.312-.097v-6.707l.312-.088.328-.092.349-.098v7.292l-.349-.108-.328-.102zm1.436.445l-.392-.121v-7.509l.392-.11.415-.117.444-.125v8.249l-.444-.138-.415-.129zm1.84.569l-.508-.157v-8.528l.508-.143.542-.153.586-.165v9.496l-.586-.181-.542-.169z" class="msportalfx-svg-c20" fill="#68217a"></path></g><defs>
<linearGradient id="a" x1="9" y1="16.39" x2="9" y2="-1.94" gradientUnits="userSpaceOnUse"><stop offset="0" stop-color="#0078d4"></stop><stop offset=".16" stop-color="#1380da"></stop><stop offset=".53" stop-color="#3c91e5"></stop><stop offset=".82" stop-color="#559cec"></stop><stop offset="1" stop-color="#5ea0ef"></stop></linearGradient>
<linearGradient id="b" x1="9.88" y1="7.11" x2="9.99" y2="17.27" gradientUnits="userSpaceOnUse"><stop offset="0" stop-color="#32d4f5"></stop><stop offset=".32" stop-color="#31d1f3"></stop><stop offset=".53" stop-color="#2ec9eb"></stop><stop offset=".7" stop-color="#29bade"></stop><stop offset=".86" stop-color="#22a5cb"></stop><stop offset="1" stop-color="#198ab3"></stop><stop offset="1" stop-color="#198ab3"></stop></linearGradient>
<radialGradient id="c" cx="9.43" cy="7.03" r="7.27" gradientUnits="userSpaceOnUse"><stop offset="0" stop-color="#f2f2f2"></stop><stop offset=".58" stop-color="#eee"></stop><stop offset="1" stop-color="#e6e6e6"></stop></radialGradient>
</defs>
</svg>