<svg viewBox="0 0 50 50" class="fxs-portal-svg" role="presentation" focusable="false" xmlns:svg="http://www.w3.org/2000/svg" xmlns:xlink="http://www.w3.org/1999/xlink" id="FxSymbol0-198" data-type="1"><g><title></title><path d="M21.049 35.709V23.315l11.476-6.322L44 23.315v12.394l-11.475 6.322z" class="msportalfx-svg-c17" fill="#804998"></path><path d="M32.525 19.277L42 24.496v10.031l-9.475 5.22-9.475-5.22V24.496l9.475-5.219m0-2.284L21.05 23.314v12.394l11.475 6.321L44 35.709V23.315l-11.475-6.322z" opacity=".6" class="msportalfx-svg-c17" fill="#804998"></path><path d="M23.049 34.528V24.496l9.476-5.219L42 24.496v10.032l-9.475 5.219z" opacity=".4" class="msportalfx-svg-c01" fill="#ffffff"></path><path d="M0 35.709V23.315l11.475-6.322 11.476 6.322v12.394l-11.476 6.322z" class="msportalfx-svg-c17" fill="#804998"></path><path d="M11.475 19.277l9.475 5.22v10.031l-9.475 5.22L2 34.528V24.496l9.475-5.219m0-2.284L0 23.315v12.394l11.475 6.321 11.475-6.321V23.315l-11.475-6.322z" opacity=".6" class="msportalfx-svg-c17" fill="#804998"></path><path d="M2 34.528V24.496l9.476-5.219 9.475 5.219v10.032l-9.475 5.219z" opacity=".4" class="msportalfx-svg-c01" fill="#ffffff"></path><path d="M10.984 18.937V7.038L22 .969l11.016 6.069v11.899L22 25.005z" class="msportalfx-svg-c17" fill="#804998"></path><path d="M22 3.253l9.016 4.967v9.535L22 22.722l-9.016-4.967V8.22L22 3.253m0-2.284L10.984 7.038v11.899L22 25.005l11.016-6.069V7.038L22 .969z" opacity=".6" class="msportalfx-svg-c17" fill="#804998"></path><path d="M12.984 17.755V8.22L22 3.253l9.017 4.967v9.535L22 22.722z" opacity=".4" class="msportalfx-svg-c01" fill="#ffffff"></path><path d="M14.88 31.969a4.502 4.502 0 0 0-.289-4.931l7.012-10.215c.249.022.497.032.744.012l6.492 10.138c-.137.172-.275.343-.388.539a4.505 4.505 0 0 0 1.646 6.145 4.505 4.505 0 0 0 6.145-1.646 4.505 4.505 0 0 0-1.646-6.145 4.474 4.474 0 0 0-2.5-.589l-6.531-10.213c.114-.15.235-.292.331-.459 1.24-2.148.501-4.905-1.646-6.145s-4.905-.501-6.145 1.646a4.502 4.502 0 0 0 .289 4.931l-7.012 10.215a4.494 4.494 0 0 0-4.293 2.219 4.505 4.505 0 0 0 1.646 6.145 4.506 4.506 0 0 0 6.145-1.647z" opacity=".4" class="msportalfx-svg-c17" fill="#804998"></path><circle cx="22" cy="12.354" r="3.58" class="msportalfx-svg-c01" fill="#ffffff"></circle><circle cx="10.985" cy="29.719" r="3.58" class="msportalfx-svg-c01" fill="#ffffff"></circle><circle cx="32.346" cy="29.76" r="3.58" class="msportalfx-svg-c01" fill="#ffffff"></circle><path d="M21.325 12.857l1.63-.843 10.207 17.324-1.631.843z" class="msportalfx-svg-c01" fill="#ffffff"></path><path d="M10.143 29.234l11.101-17.298 1.59.918-11.101 17.298z" class="msportalfx-svg-c01" fill="#ffffff"></path><path d="M34 44h8v2h-8zm0 4h8l-2 2h-4z" class="msportalfx-svg-c04" fill="#7a7a7a"></path><path opacity=".4" d="M26.1 27.388c0 3.544 1.269 6.338 3.67 8.08 1.486 1.078 2.614 3.112 3.451 6.18L44 35.709V23.315l-10.072-5.548c-4.513 1.473-7.828 5.279-7.828 9.621z" class="msportalfx-svg-c01" fill="#ffffff"></path><path d="M48.9 27.388c0-5.125-5.064-9.279-10.9-9.279s-10.9 4.154-10.9 9.279c0 2.878.914 5.57 3.257 7.27 2.211 1.605 3.323 4.652 3.988 7.311h7.311c.665-2.659 1.777-5.706 3.988-7.311 2.342-1.7 3.256-4.393 3.256-7.27z" class="msportalfx-svg-c19" fill="#0072c6"></path><path opacity=".2" d="M44.314 19.737C42.613 18.71 40.22 18.109 38 18.109c-5.836 0-10.9 4.154-10.9 9.279 0 2.527.705 4.911 2.463 6.606l14.751-14.257z" class="msportalfx-svg-c01" fill="#ffffff"></path><path opacity=".8" d="M41.622 27.413a2.625 2.625 0 0 0-2.625 2.625v1.296h-1.994v-1.296a2.625 2.625 0 1 0-2.625 2.625h1.296v8.64h1.329v-8.64h1.994v8.64h1.329v-8.64h1.296a2.625 2.625 0 1 0 0-5.25zm-8.557 2.626c0-.724.589-1.313 1.313-1.313s1.296.556 1.296 1.279v1.329h-1.329c-.724.001-1.28-.572-1.28-1.295zm7.261-.033c0-.724.572-1.279 1.296-1.279.724 0 1.313.589 1.313 1.313s-.556 1.296-1.279 1.296h-1.329v-1.33z" class="msportalfx-svg-c01" fill="#ffffff"></path></g><defs>
<linearGradient id="a" x1="-1267.23" y1="3.07" x2="-1267.52" y2="14.64" gradientTransform="matrix(-1 0 0 1 -1256.13 0)" gradientUnits="userSpaceOnUse"><stop offset="0" stop-color="#32d4f5"></stop><stop offset=".23" stop-color="#31d0f1"></stop><stop offset=".46" stop-color="#2cc3e6"></stop><stop offset=".7" stop-color="#25afd4"></stop><stop offset=".94" stop-color="#1c92ba"></stop><stop offset="1" stop-color="#198ab3"></stop></linearGradient>
<linearGradient id="b" x1="6.4" y1="1.32" x2="7.21" y2="11.39"><stop offset=".22" stop-color="#32d4f5"></stop><stop offset=".47" stop-color="#31d1f3"></stop><stop offset=".63" stop-color="#2ec9eb"></stop><stop offset=".77" stop-color="#29bade"></stop><stop offset=".89" stop-color="#22a5cb"></stop><stop offset="1" stop-color="#198ab3"></stop><stop offset="1" stop-color="#198ab3"></stop></linearGradient>
<linearGradient id="c" x1="13.76" y1="18.05" x2="13.76" y2="10.25" gradientUnits="userSpaceOnUse"><stop offset="0" stop-color="#76bc2d"></stop><stop offset=".6" stop-color="#81ce31"></stop><stop offset=".82" stop-color="#86d633"></stop></linearGradient>
</defs>
</svg>