<svg viewBox="0 0 50 50" class="fxs-portal-svg" role="presentation" focusable="false" xmlns:svg="http://www.w3.org/2000/svg" xmlns:xlink="http://www.w3.org/1999/xlink" id="FxSymbol0-05a" data-type="1"><g><title></title><path d="M42 11.318C41.64 4.74 36.015-.301 29.437.059A11.926 11.926 0 0 0 20.4 5.011a9.444 9.444 0 0 0-14.932 9.8A8.97 8.97 0 0 0 9.164 31.95h30.378c5.779-.003 10.461-4.689 10.458-10.468a10.463 10.463 0 0 0-8-10.164z" class="msportalfx-svg-c15" fill="#59b4d9"></path><path d="M13.1 21.95a1 1 0 0 0-1 1v26a1 1 0 0 0 1 1h24a1 1 0 0 0 1-1v-26a1 1 0 0 0-1-1h-24z" class="msportalfx-svg-c17" fill="#804998"></path><path d="M23.1 21.95v-7h-3l5-7 5 7h-3v7zm10 3h-18v22h20v-22h-2z" class="msportalfx-svg-c01" fill="#ffffff"></path><path d="M17.067 26.95h4v18h-4zm6 0h4v18h-4zm6 0h4v18h-4z" class="msportalfx-svg-c17" fill="#804998"></path></g><defs>
<linearGradient id="a" x1="9" y1="16.39" x2="9" y2="-1.94" gradientUnits="userSpaceOnUse"><stop offset="0" stop-color="#0078d4"></stop><stop offset=".16" stop-color="#1380da"></stop><stop offset=".53" stop-color="#3c91e5"></stop><stop offset=".82" stop-color="#559cec"></stop><stop offset="1" stop-color="#5ea0ef"></stop></linearGradient>
<linearGradient id="b" x1="9.88" y1="7.11" x2="9.99" y2="17.27" gradientUnits="userSpaceOnUse"><stop offset="0" stop-color="#32d4f5"></stop><stop offset=".32" stop-color="#31d1f3"></stop><stop offset=".53" stop-color="#2ec9eb"></stop><stop offset=".7" stop-color="#29bade"></stop><stop offset=".86" stop-color="#22a5cb"></stop><stop offset="1" stop-color="#198ab3"></stop><stop offset="1" stop-color="#198ab3"></stop></linearGradient>
<radialGradient id="c" cx="9.43" cy="7.03" r="7.27" gradientUnits="userSpaceOnUse"><stop offset="0" stop-color="#f2f2f2"></stop><stop offset=".58" stop-color="#eee"></stop><stop offset="1" stop-color="#e6e6e6"></stop></radialGradient>
</defs>
</svg>