<svg viewBox="0 0 18 18" class="" role="presentation" focusable="false" xmlns="http://www.w3.org/2000/svg" xmlns:xlink="http://www.w3.org/1999/xlink" id="FxSymbol0-094" data-type="1"><g><title>Icon-manage-302</title><path d="M10 10.24a1 1 0 0 1-.31.79 1.49 1.49 0 0 1-.89.37v.6h-.44v-.62a2.36 2.36 0 0 1-1.1-.28v-.81a1.8 1.8 0 0 0 .5.25 2.49 2.49 0 0 0 .6.14V9.64a2.42 2.42 0 0 1-.91-.53 1.15 1.15 0 0 1 .06-1.55 1.41 1.41 0 0 1 .85-.38v-.55h.43v.54a2.21 2.21 0 0 1 .92.2v.8a2.28 2.28 0 0 0-.92-.31V9a2.34 2.34 0 0 1 .92.54 1 1 0 0 1 .29.7ZM8.36 8.81v-.93A.4.4 0 0 0 8 8.3c0 .21.13.38.4.51Zm.85 1.47c0-.19-.14-.34-.42-.47v.9c.28-.05.42-.19.42-.43Z" fill="#258277"></path><path d="M16.54 9.49h-3.6a4.43 4.43 0 0 1-1.48 3.3l2.39 2.69a8 8 0 0 0 2.69-6" fill="#ffca00"></path><path d="M8.52 13.93a4.43 4.43 0 0 1 0-8.86V1.49a8 8 0 0 0-8 8 8 8 0 0 0 8 8 8 8 0 0 0 5.34-2l-2.4-2.69a4.38 4.38 0 0 1-2.94 1.13Z" fill="url(#59616712-f700-4139-92c6-bd98d17f01fd)"></path><path d="M8.15.48v4.16a5.09 5.09 0 0 1 5.17 5.18h4.18A9.34 9.34 0 0 0 8.15.48Z" fill="#ccc"></path><path d="M13.34 9.82a5.13 5.13 0 0 0-5.06-5.18h-.13l.33.62a4.5 4.5 0 0 1 4.23 4.25Z" fill="#999"></path></g><defs>
<radialGradient id="59616712-f700-4139-92c6-bd98d17f01fd" cx="7.18" cy="9.5" r="7.38" gradientUnits="userSpaceOnUse"><stop offset="0" stop-color="#76bc2d"></stop><stop offset=".41" stop-color="#74b92c"></stop><stop offset=".66" stop-color="#6fb12a"></stop><stop offset=".88" stop-color="#66a227"></stop><stop offset="1" stop-color="#5e9624"></stop></radialGradient>
</defs>
</svg>