<svg viewBox="0 0 50 50" class="" role="presentation" focusable="false" xmlns:svg="http://www.w3.org/2000/svg" xmlns:xlink="http://www.w3.org/1999/xlink" id="FxSymbol0-02f" data-type="1"><g><title></title><path d="M23.577.808L4.457 11.672A2.88 2.88 0 0 0 3 14.176v21.648a2.88 2.88 0 0 0 1.457 2.504l19.12 10.864a2.882 2.882 0 0 0 2.846 0l19.12-10.864A2.88 2.88 0 0 0 47 35.824V14.176a2.88 2.88 0 0 0-1.457-2.504L26.423.808a2.882 2.882 0 0 0-2.846 0z" class="msportalfx-svg-c14" fill="#57a300"></path><path opacity=".4" d="M32.506 4.265L26.422.808a2.882 2.882 0 0 0-2.846 0L4.457 11.672A2.88 2.88 0 0 0 3 14.176v21.648a2.88 2.88 0 0 0 1.457 2.504l12.969 7.369 15.08-41.432z" class="msportalfx-svg-c13" fill="#b8d432"></path><circle cx="25" cy="8" r="2.9" class="msportalfx-svg-c01" fill="#ffffff"></circle><circle cx="25" cy="42" r="2.9" class="msportalfx-svg-c01" fill="#ffffff"></circle><path d="M35.021 30.645c0 4.243-4.208 7.322-10.007 7.322-5.098 0-8.294-1.921-9.76-5.871l4.977-.937c.644 1.391 2.066 2.979 5.198 2.979 3.134 0 4.302-1.882 4.302-3.068 0-2.467-2.975-3.322-4.255-3.575-5.433-1.078-9.279-2.321-9.279-8.542 0-5.108 4.749-6.92 8.816-6.92 4.449 0 7.342 1.471 8.838 4.495l-4.3 1.365c-.902-1.538-2.442-2.351-4.462-2.351-2.95 0-3.73 2.033-3.73 3.108 0 1.481 1.477 2.779 3.762 3.31 2.866.665 4.879 1.176 6.053 1.67 1.86.783 3.847 3.037 3.847 7.015" class="msportalfx-svg-c01" fill="#ffffff"></path><circle opacity=".2" cx="25" cy="8" r="2.9" class="msportalfx-svg-c14" fill="#57a300"></circle><circle opacity=".2" cx="25" cy="42" r="2.9" class="msportalfx-svg-c14" fill="#57a300"></circle><path opacity=".2" d="M35.021 30.645c0 4.243-4.208 7.322-10.007 7.322-5.098 0-8.294-1.921-9.76-5.871l4.977-.937c.644 1.391 2.066 2.979 5.198 2.979 3.134 0 4.302-1.882 4.302-3.068 0-2.467-2.975-3.322-4.255-3.575-5.433-1.078-9.279-2.321-9.279-8.542 0-5.108 4.749-6.92 8.816-6.92 4.449 0 7.342 1.471 8.838 4.495l-4.3 1.365c-.902-1.538-2.442-2.351-4.462-2.351-2.95 0-3.73 2.033-3.73 3.108 0 1.481 1.477 2.779 3.762 3.31 2.866.665 4.879 1.176 6.053 1.67 1.86.783 3.847 3.037 3.847 7.015" class="msportalfx-svg-c14" fill="#57a300"></path></g><defs>
<linearGradient id="a" x1="9" y1="16.39" x2="9" y2="-1.94" gradientUnits="userSpaceOnUse"><stop offset="0" stop-color="#0078d4"></stop><stop offset=".16" stop-color="#1380da"></stop><stop offset=".53" stop-color="#3c91e5"></stop><stop offset=".82" stop-color="#559cec"></stop><stop offset="1" stop-color="#5ea0ef"></stop></linearGradient>
<linearGradient id="b" x1="9.88" y1="7.11" x2="9.99" y2="17.27" gradientUnits="userSpaceOnUse"><stop offset="0" stop-color="#32d4f5"></stop><stop offset=".32" stop-color="#31d1f3"></stop><stop offset=".53" stop-color="#2ec9eb"></stop><stop offset=".7" stop-color="#29bade"></stop><stop offset=".86" stop-color="#22a5cb"></stop><stop offset="1" stop-color="#198ab3"></stop><stop offset="1" stop-color="#198ab3"></stop></linearGradient>
<radialGradient id="c" cx="9.43" cy="7.03" r="7.27" gradientUnits="userSpaceOnUse"><stop offset="0" stop-color="#f2f2f2"></stop><stop offset=".58" stop-color="#eee"></stop><stop offset="1" stop-color="#e6e6e6"></stop></radialGradient>
</defs>
</svg>