<svg viewBox="0 0 16 18" class="" role="presentation" focusable="false" xmlns="http://www.w3.org/2000/svg" xmlns:xlink="http://www.w3.org/1999/xlink" id="FxSymbol0-105" data-type="1"><g><title></title><path d="m1.948 12.334-1.312 3.42H14.15l-1.312-3.42a.45.45 0 0 0-.414-.3H2.36a.448.448 0 0 0-.413.3Z" fill="#50E6FF"></path><path d="M7.262.508a4.328 4.328 0 0 0-4.194 4.457v.059c0 1.969 2.5 6.585 3.638 9.35a.594.594 0 0 0 1.1 0c1.137-2.787 3.642-7.441 3.642-9.349A4.381 4.381 0 0 0 7.262.508Zm0 6.118a1.863 1.863 0 1 1 0-3.726 1.863 1.863 0 0 1 0 3.726Z" fill="url(#94a115a1-5689-4c39-bee0-5c63fda4a15e)"></path><path d="M.636 15.754H14.15v1.272a.465.465 0 0 1-.465.465H1.1a.465.465 0 0 1-.465-.465v-1.272Z" fill="#32BEDD"></path><path d="M10.051 16.135 7.806 8.981a.311.311 0 0 1 .419-.381l6.95 2.962a.311.311 0 0 1 .023.561L12.4 13.6a.323.323 0 0 0-.114.1l-1.68 2.515a.31.31 0 0 1-.555-.08Z" fill="url(#94a115a1-5689-4c39-bee0-5c63fda4a15f)"></path><defs></defs></g><defs>
<linearGradient id="94a115a1-5689-4c39-bee0-5c63fda4a15e" x1="7.261" y1=".509" x2="7.261" y2="14.745" gradientUnits="userSpaceOnUse"><stop stop-color="#B77AF4"></stop><stop offset=".621" stop-color="#8C4FE4"></stop><stop offset=".997" stop-color="#773ADC"></stop></linearGradient>
<linearGradient id="94a115a1-5689-4c39-bee0-5c63fda4a15f" x1="15.092" y1="18.241" x2="8.981" y2="7.269" gradientUnits="userSpaceOnUse"><stop offset=".301" stop-color="#198AB3"></stop><stop offset=".997" stop-color="#50E6FF"></stop></linearGradient>
</defs>
</svg>