<svg viewBox="0 0 50 50" class="" role="presentation" focusable="false" xmlns="http://www.w3.org/2000/svg" xmlns:xlink="http://www.w3.org/1999/xlink" id="FxSymbol0-0d5" data-type="1"><g><title></title><path d="M26.9 9A8.9 8.9 0 1 1 9.1 9a8.9 8.9 0 0 1 17.8 0m-2.35 11L18 29.327 11.45 20H2.001v23H34V20z" class="msportalfx-svg-c17" fill="#804998"></path><path opacity=".2" d="M9.101 9c0 4.842 3.867 8.773 8.681 8.89L20.017.34A8.817 8.817 0 0 0 18 .1 8.899 8.899 0 0 0 9.101 9m2.351 11H2v23h12.547l1.978-15.772z" class="msportalfx-svg-c01" fill="#ffffff"></path><path d="M45.751 50H14.249A3.25 3.25 0 0 1 11 46.751V34.249A3.25 3.25 0 0 1 14.249 31h31.502A3.25 3.25 0 0 1 49 34.249v12.502A3.25 3.25 0 0 1 45.751 50z" class="msportalfx-svg-c03" fill="#a0a1a2"></path><path d="M13 46.898V34.102c0-.609.493-1.102 1.102-1.102h31.796c.609 0 1.102.493 1.102 1.102v12.796c0 .609-.493 1.102-1.102 1.102H14.102A1.102 1.102 0 0 1 13 46.898z" class="msportalfx-svg-c06" fill="#1e1e1e"></path><path opacity=".2" d="M14 33a1 1 0 0 0-1 1v13a1 1 0 0 0 1 1h16V33H14z" class="msportalfx-svg-c01" fill="#ffffff"></path><path d="M27.475 36.276a.336.336 0 0 0-.132-.227l-1.264-.975a.347.347 0 0 0-.487.059l-5.549 7.119-3.168-3.397a.343.343 0 0 0-.487-.02l-1.169 1.08a.346.346 0 0 0-.09.377.346.346 0 0 0 .069.346l.405.439L20.195 46l7.203-9.235a.336.336 0 0 0 .077-.258c-.004-.025-.015-.046-.023-.068a.371.371 0 0 0 .023-.163zM44 36.833L42.167 35 38.5 38.667 34.833 35 33 36.833l3.667 3.667L33 44.167 34.833 46l3.667-3.667L42.167 46 44 44.167 40.333 40.5z" class="msportalfx-svg-c01" fill="#ffffff"></path></g><defs>
</defs>
</svg>