<svg viewBox="0 0 18 18" class="" role="presentation" focusable="false" xmlns="http://www.w3.org/2000/svg" xmlns:xlink="http://www.w3.org/1999/xlink" id="FxSymbol0-209" data-type="1"><g><rect x="2.904" y="1.129" width="14.119" height="14.119" rx=".559" fill="url(#406fd2f9-470a-4939-b13a-553c6cc30bde)"></rect><rect x=".977" y="2.752" width="14.119" height="14.119" rx=".559" fill="url(#406fd2f9-470a-4939-b13a-553c6cc30bdf)"></rect><rect x="2.317" y="11.269" width="7.695" height="1.2" rx=".6" fill="#f2f2f2"></rect><rect x="2.317" y="13.581" width="9.954" height="1.2" rx=".6" fill="#f2f2f2"></rect><rect x="2.317" y="8.957" width="5.048" height="1.2" rx=".6" fill="#f2f2f2"></rect><path d="M14.035 7.7v-.649l-.09-.034-.69-.227-.181-.441.351-.746-.453-.452-.09.045-.645.328-.437-.181-.282-.78h-.645l-.034.09-.226.69-.441.181-.735-.351-.452.453.045.09.328.645-.185.439-.791.282v.645l.09.034.69.226.181.441-.351.746.452.453.091-.046.644-.327.441.18.283.781h.645l.034-.091.226-.69.441-.18.746.35.452-.452-.047-.089-.328-.644.181-.441Zm-2.827.935a1.241 1.241 0 1 1 1.241-1.24 1.239 1.239 0 0 1-1.241 1.235Z" fill="url(#406fd2f9-470a-4939-b13a-553c6cc30be0)"></path></g><defs>
<linearGradient id="406fd2f9-470a-4939-b13a-553c6cc30bde" x1="9.964" y1="15.248" x2="9.964" y2="1.129" gradientUnits="userSpaceOnUse"><stop offset="0" stop-color="#258277"></stop><stop offset=".241" stop-color="#26867b"></stop><stop offset=".498" stop-color="#2a9387"></stop><stop offset=".763" stop-color="#30a99a"></stop><stop offset=".999" stop-color="#37c2b1"></stop></linearGradient>
<linearGradient id="406fd2f9-470a-4939-b13a-553c6cc30bdf" x1="8.036" y1="16.871" x2="8.036" y2="2.752" gradientUnits="userSpaceOnUse"><stop offset=".233" stop-color="#37c2b1"></stop><stop offset="1" stop-color="#3cd4c2"></stop></linearGradient>
<linearGradient id="406fd2f9-470a-4939-b13a-553c6cc30be0" x1="11.208" y1="10.217" x2="11.208" y2="4.563" gradientUnits="userSpaceOnUse"><stop offset="0" stop-color="#fff" stop-opacity=".8"></stop><stop offset="1" stop-color="#fff"></stop></linearGradient>
</defs>
</svg>