<svg viewBox="0 0 18 18" data-islogo="true" class="" role="presentation" focusable="false" xmlns:svg="http://www.w3.org/2000/svg" xmlns:xlink="http://www.w3.org/1999/xlink" id="FxSymbol0-018" data-type="350"><g><path d="M.548 2.625h16.9a.523.523 0 0 1 .552.493v11.764a.523.523 0 0 1-.548.493H.548A.523.523 0 0 1 0 14.882V3.118a.523.523 0 0 1 .548-.493z" fill="url(#b9c28a53-487f-43de-a7d7-e2ac1fde95df)"></path><path d="M7.446 4.125h8.09a.153.153 0 0 1 .158.148v4.48a.153.153 0 0 1-.158.148h-8.09a.152.152 0 0 1-.157-.148v-4.48a.152.152 0 0 1 .157-.148z" class="msportalfx-svg-c01" fill="#ffffff"></path><rect x="2.233" y="4.125" width="3.405" height="9.611" rx=".149" class="msportalfx-svg-c01" fill="#ffffff"></rect><path d="M12.406 10.259h3.137a.148.148 0 0 1 .151.144v3.188a.148.148 0 0 1-.151.145h-3.137a.148.148 0 0 1-.15-.145V10.4a.147.147 0 0 1 .15-.141zm-4.973 0h3.087a.148.148 0 0 1 .148.148v3.182a.148.148 0 0 1-.148.148H7.433a.144.144 0 0 1-.144-.144V10.4a.144.144 0 0 1 .144-.141z" class="msportalfx-svg-c01" fill="#ffffff"></path></g><defs>
<linearGradient id="b9c28a53-487f-43de-a7d7-e2ac1fde95df" x1="9" y1=".713" x2="9" y2="17.405" gradientUnits="userSpaceOnUse"><stop offset=".089" stop-color="#6cc6b9"></stop><stop offset=".464" stop-color="#6ac4b7"></stop><stop offset=".637" stop-color="#62bdb0"></stop><stop offset=".769" stop-color="#56b1a4"></stop><stop offset=".88" stop-color="#439f93"></stop><stop offset=".976" stop-color="#2c897d"></stop><stop offset="1" stop-color="#258277"></stop></linearGradient>
<linearGradient id="a" x1="9" y1="16.39" x2="9" y2="-1.94" gradientUnits="userSpaceOnUse"><stop offset="0" stop-color="#0078d4"></stop><stop offset=".16" stop-color="#1380da"></stop><stop offset=".53" stop-color="#3c91e5"></stop><stop offset=".82" stop-color="#559cec"></stop><stop offset="1" stop-color="#5ea0ef"></stop></linearGradient>
<linearGradient id="b" x1="9.88" y1="7.11" x2="9.99" y2="17.27" gradientUnits="userSpaceOnUse"><stop offset="0" stop-color="#32d4f5"></stop><stop offset=".32" stop-color="#31d1f3"></stop><stop offset=".53" stop-color="#2ec9eb"></stop><stop offset=".7" stop-color="#29bade"></stop><stop offset=".86" stop-color="#22a5cb"></stop><stop offset="1" stop-color="#198ab3"></stop><stop offset="1" stop-color="#198ab3"></stop></linearGradient>
<radialGradient id="c" cx="9.43" cy="7.03" r="7.27" gradientUnits="userSpaceOnUse"><stop offset="0" stop-color="#f2f2f2"></stop><stop offset=".58" stop-color="#eee"></stop><stop offset="1" stop-color="#e6e6e6"></stop></radialGradient>
</defs>
</svg>