<svg viewBox="-549 251 100 100" class="" role="presentation" focusable="false" xmlns:svg="http://www.w3.org/2000/svg" xmlns:xlink="http://www.w3.org/1999/xlink" id="FxSymbol0-07e" data-type="1"><g><title></title><path d="M-489.9 269.8l-2.9-5c-1.1-1.9-3.2-3.1-5.4-3.1h-44.6c-3.4 0-6.2 2.8-6.2 6.2v3.2h60.2c-.5-.3-.8-.8-1.1-1.3z" class="msportalfx-svg-c16" fill="#3999c6"></path><path d="M-452.9 274.3H-549V334c0 3.4 2.8 6.2 6.2 6.2h87.6c3.4 0 6.2-2.8 6.2-6.2v-54c0-2.5-1.6-4.7-3.9-5.7zm-33.4 30l-17.7 25.3c-.2.2-.4.4-.7.4-.1 0-.3 0-.4-.1-.4-.2-.6-.6-.4-1l4.6-15.1h-10.3c-.3 0-.6-.2-.8-.5-.1-.3-.1-.6.1-.9l17.2-25c.2-.2.4-.4.7-.4.1 0 .2 0 .4.1.4.2.6.6.4 1l-4.4 14.8h10.6c.5 0 .9.4.9.9 0 .2-.1.3-.2.5z" class="msportalfx-svg-c15" fill="#59b4d9"></path></g><defs>
<linearGradient id="a" x1="9" y1="16.39" x2="9" y2="-1.94" gradientUnits="userSpaceOnUse"><stop offset="0" stop-color="#0078d4"></stop><stop offset=".16" stop-color="#1380da"></stop><stop offset=".53" stop-color="#3c91e5"></stop><stop offset=".82" stop-color="#559cec"></stop><stop offset="1" stop-color="#5ea0ef"></stop></linearGradient>
<linearGradient id="b" x1="9.88" y1="7.11" x2="9.99" y2="17.27" gradientUnits="userSpaceOnUse"><stop offset="0" stop-color="#32d4f5"></stop><stop offset=".32" stop-color="#31d1f3"></stop><stop offset=".53" stop-color="#2ec9eb"></stop><stop offset=".7" stop-color="#29bade"></stop><stop offset=".86" stop-color="#22a5cb"></stop><stop offset="1" stop-color="#198ab3"></stop><stop offset="1" stop-color="#198ab3"></stop></linearGradient>
<radialGradient id="c" cx="9.43" cy="7.03" r="7.27" gradientUnits="userSpaceOnUse"><stop offset="0" stop-color="#f2f2f2"></stop><stop offset=".58" stop-color="#eee"></stop><stop offset="1" stop-color="#e6e6e6"></stop></radialGradient>
</defs>
</svg>