<svg viewBox="0 0 18 18" class="" role="presentation" focusable="false" xmlns:svg="http://www.w3.org/2000/svg" xmlns:xlink="http://www.w3.org/1999/xlink" id="FxSymbol0-075" data-type="1"><g><title>Icon-analytics-150</title><path d="M17.1 3.6H9.69a.34.34 0 0 1-.22-.07L7.35 2.12a.43.43 0 0 0-.22-.06H.9a.4.4 0 0 0-.4.39v13.1a.4.4 0 0 0 .4.39h16.2a.4.4 0 0 0 .4-.39V4a.4.4 0 0 0-.4-.4z" fill="#005ba1"></path><rect x="2.05" y="2.82" width="3.86" height=".77" rx=".16" class="msportalfx-svg-c01" fill="#ffffff"></rect><rect x="2.05" y="2.82" width=".77" height=".77" rx=".11" fill="#1ac3f2"></rect><path d="M17.1 3.58H9a.36.36 0 0 0-.28.12L7.37 5a.43.43 0 0 1-.28.11H.9a.4.4 0 0 0-.4.4v10a.4.4 0 0 0 .4.39h16.2a.4.4 0 0 0 .4-.39V4a.4.4 0 0 0-.4-.42z" fill="url(#a2f5a399-e513-4b5d-9b50-e5cb6806323d)"></path><path d="M10.18 5.7a.15.15 0 0 0-.08 0s-.09 0-.13.07l-3.16 4.59a.16.16 0 0 0 0 .16.19.19 0 0 0 .15.1h1.87L8 13.4a.13.13 0 0 0 .07.18.1.1 0 0 0 .07 0c.06 0 .09 0 .13-.07l3.26-4.66v-.1a.17.17 0 0 0-.17-.16h-2l.81-2.73a.13.13 0 0 0 .01-.16z" class="msportalfx-svg-c01" fill="#ffffff"></path></g><defs>
<linearGradient id="a2f5a399-e513-4b5d-9b50-e5cb6806323d" x1="9.24" y1=".96" x2="8.85" y2="16.52" gradientUnits="userSpaceOnUse"><stop offset="0" stop-color="#32d4f5"></stop><stop offset=".23" stop-color="#31d0f1"></stop><stop offset=".46" stop-color="#2cc3e6"></stop><stop offset=".7" stop-color="#25afd4"></stop><stop offset=".94" stop-color="#1c92ba"></stop><stop offset="1" stop-color="#198ab3"></stop></linearGradient>
</defs>
</svg>