<svg viewBox="0 0 18 18" class="" role="presentation" focusable="false" xmlns="http://www.w3.org/2000/svg" xmlns:xlink="http://www.w3.org/1999/xlink" id="FxSymbol0-0cb" data-type="1"><g><title>Icon-storage-98</title><path fill="#949494" d="m16 4.79-.73-.36-2.21 4.54h-1.89v.8h1.91l2.19 4.5.73-.36-2.22-4.56L16 4.79z"></path><path d="M15.63 6.14a1.45 1.45 0 0 1-.81-.24 1.47 1.47 0 0 1-.68-1 1.53 1.53 0 0 1 1.49-1.87 1.51 1.51 0 0 1 .82.24 1.54 1.54 0 0 1 .67 1 1.53 1.53 0 0 1-1.49 1.86Z" class="msportalfx-svg-c01" fill="#ffffff"></path><path d="M15.63 3.42a1.2 1.2 0 0 1 .64.19 1.17 1.17 0 0 1 .52.74 1.19 1.19 0 0 1-.15.9 1.21 1.21 0 0 1-1 .55 1.18 1.18 0 0 1-.64-.18 1.2 1.2 0 0 1-.53-.75 1.2 1.2 0 0 1 1.16-1.45m0-.68a1.87 1.87 0 1 0 1 .29 1.85 1.85 0 0 0-1-.29Z" fill="#32bedd"></path><path d="M15.63 15.62a1.45 1.45 0 0 1-.81-.24 1.51 1.51 0 0 1-.48-2.1 1.52 1.52 0 0 1 2.11-.48 1.53 1.53 0 0 1-.82 2.82Z" class="msportalfx-svg-c01" fill="#ffffff"></path><path d="M15.63 12.9a1.2 1.2 0 0 1 .64.19 1.17 1.17 0 0 1 .52.74 1.19 1.19 0 0 1-.15.9 1.21 1.21 0 0 1-1 .55 1.18 1.18 0 0 1-.64-.18 1.2 1.2 0 0 1-.53-.75 1.2 1.2 0 0 1 1.16-1.45m0-.68a1.87 1.87 0 1 0 1 .29 1.85 1.85 0 0 0-1-.29Z" fill="#32bedd"></path><path d="M6 5.72C3 5.72.5 4.83.5 3.74v10.52c0 1.09 2.41 2 5.39 2H6c3 0 5.47-.88 5.47-2V3.74C11.43 4.83 9 5.72 6 5.72Z" fill="url(#59616712-f700-4139-92c6-bd98d17f0251)"></path><path d="M11.43 3.74c0 1.09-2.45 2-5.47 2S.5 4.83.5 3.74 3 1.76 6 1.76s5.47.88 5.47 2" fill="#e8e8e8"></path><path d="M10.15 3.58c0 .69-1.87 1.25-4.19 1.25s-4.19-.56-4.19-1.25S3.65 2.32 6 2.32s4.19.56 4.19 1.26" fill="#50e6ff"></path><path d="M6 3.87a10.12 10.12 0 0 0-3.31.47A9.67 9.67 0 0 0 6 4.83a9.78 9.78 0 0 0 3.32-.49A10.14 10.14 0 0 0 6 3.87Z" fill="#198ab3"></path></g><defs>
<linearGradient id="59616712-f700-4139-92c6-bd98d17f0251" x1=".5" y1="9.99" x2="11.43" y2="9.99" gradientUnits="userSpaceOnUse"><stop offset="0" stop-color="#005ba1"></stop><stop offset=".07" stop-color="#0060a9"></stop><stop offset=".36" stop-color="#0071c8"></stop><stop offset=".52" stop-color="#0078d4"></stop><stop offset=".64" stop-color="#0074cd"></stop><stop offset=".82" stop-color="#006abb"></stop><stop offset="1" stop-color="#005ba1"></stop></linearGradient>
</defs>
</svg>