<svg viewBox="0 0 420.2 270.1" class="" role="presentation" focusable="false" xmlns:svg="http://www.w3.org/2000/svg" xmlns:xlink="http://www.w3.org/1999/xlink" id="FxSymbol0-082" data-type="1"><g><title></title><path fill="#2272B9" d="M312.1 65.2c-20.5-36-59.7-58.3-103.2-58.3-28.8 0-55.3 9.9-75.6 26.8 26 4.1 50.1 16.2 69.1 35.3 23.7 23.7 36.8 55.2 36.8 88.6v105.5h66.7c57.3 0 104-44.8 104-99.8 0-52.7-43.5-95.9-97.8-98.1z"></path><path fill="#45ADD2" d="M120.6 52.4c-61.9-2.8-113 48.4-110.2 110.2 2.6 56.5 50 100.6 106.6 100.6h104.3V158.9c-.1-56.6-44.2-104-100.7-106.5z"></path><path d="M198.4 166.8V154c0-1.6-1-3-2.6-3.5l-17.8-5.8c-1-.3-1.9-1.1-2.3-2.1l-3.9-9.4c-.4-1-.4-2.1.1-3L180 113c.7-1.4.4-3.1-.7-4.2l-9.1-9.1c-1.1-1.1-2.9-1.4-4.3-.7l-16.7 8.5c-1 .5-2.1.5-3.1.1l-9.4-3.9c-1-.4-1.7-1.2-2.1-2.2l-6.4-17.9c-.5-1.5-1.9-2.5-3.5-2.5H112c-1.6 0-3 1-3.5 2.6l-5.8 17.8c-.3 1-1.1 1.9-2.1 2.3l-9.4 3.9c-1 .4-2.1.4-3-.1L71 99.5c-1.4-.7-3.1-.4-4.2.7l-9.1 9.1c-1.1 1.1-1.4 2.9-.7 4.3l8.5 16.7c.5 1 .5 2.1.1 3.1l-3.9 9.4c-.4 1-1.2 1.7-2.2 2.1l-17.9 6.4c-1.5.5-2.5 1.9-2.5 3.5v12.8c0 1.6 1 3 2.5 3.5l17.8 5.8c1 .3 1.9 1.1 2.3 2.1l3.9 9.4c.4 1 .4 2.1-.1 3l-8.1 17.2c-.7 1.4-.4 3.1.7 4.2l9.1 9.1c1.1 1.1 2.9 1.4 4.3.7l16.7-8.5c1-.5 2.1-.5 3.1-.1l9.4 3.9c1 .4 1.7 1.2 2.1 2.2l6.4 17.9c.5 1.5 1.9 2.5 3.5 2.5h12.8c1.6 0 3-1 3.5-2.6l5.8-17.8c.3-1 1.1-1.9 2.1-2.3l9.4-3.9c1-.4 2.1-.4 3 .1l17.2 8.1c1.4.7 3.1.4 4.2-.7l9.1-9.1c1.1-1.1 1.4-2.9.7-4.3l-8.5-16.7c-.5-1-.5-2.1-.1-3.1l3.9-9.4c.4-1 1.2-1.7 2.2-2.1l17.9-6.4c1.5-.6 2.5-2 2.5-3.5zm-75.9 32.8c-10.4 1-20.6-2.1-28.6-8.8-8.1-6.6-13.1-16-14.1-26.4-1-10.4 2.1-20.6 8.8-28.6 6.6-8.1 16-13.1 26.4-14.1 14.4-1.5 27.9 5.3 35.8 16.4 3.8 5.4 6.1 11.8 6.9 18.8 2.1 21.5-13.6 40.7-35.2 42.7z" class="msportalfx-svg-c01" fill="#ffffff"></path></g><defs>
<linearGradient id="a" x1="9" y1="16.39" x2="9" y2="-1.94" gradientUnits="userSpaceOnUse"><stop offset="0" stop-color="#0078d4"></stop><stop offset=".16" stop-color="#1380da"></stop><stop offset=".53" stop-color="#3c91e5"></stop><stop offset=".82" stop-color="#559cec"></stop><stop offset="1" stop-color="#5ea0ef"></stop></linearGradient>
<linearGradient id="b" x1="9.88" y1="7.11" x2="9.99" y2="17.27" gradientUnits="userSpaceOnUse"><stop offset="0" stop-color="#32d4f5"></stop><stop offset=".32" stop-color="#31d1f3"></stop><stop offset=".53" stop-color="#2ec9eb"></stop><stop offset=".7" stop-color="#29bade"></stop><stop offset=".86" stop-color="#22a5cb"></stop><stop offset="1" stop-color="#198ab3"></stop><stop offset="1" stop-color="#198ab3"></stop></linearGradient>
<radialGradient id="c" cx="9.43" cy="7.03" r="7.27" gradientUnits="userSpaceOnUse"><stop offset="0" stop-color="#f2f2f2"></stop><stop offset=".58" stop-color="#eee"></stop><stop offset="1" stop-color="#e6e6e6"></stop></radialGradient>
</defs>
</svg>