<svg viewBox="0 0 18 18" data-islogo="true" class="" role="presentation" focusable="false" xmlns:svg="http://www.w3.org/2000/svg" xmlns:xlink="http://www.w3.org/1999/xlink" id="FxSymbol0-05e" data-type="1"><g><title>Icon-networking-72</title><path d="M16.36 8.4c0 4.84-5.85 8.74-7.12 9.53a.46.46 0 0 1-.48 0c-1.27-.79-7.12-4.69-7.12-9.53V2.58a.46.46 0 0 1 .45-.46C6.64 2 5.59 0 9 0s2.36 2 6.91 2.12a.46.46 0 0 1 .45.46z" fill="#0078d4"></path><path d="M15.75 8.45c0 4.44-5.36 8-6.53 8.74a.43.43 0 0 1-.44 0c-1.17-.72-6.53-4.3-6.53-8.74V3.11a.42.42 0 0 1 .41-.42C6.83 2.58 5.87.75 9 .75s2.17 1.83 6.34 1.94a.42.42 0 0 1 .41.42z" fill="url(#bf34fd15-2ab2-49bf-80d2-731c19b20dc3)"></path><path d="M11.8 12.52a.48.48 0 0 1-.48.48H6.68a.48.48 0 0 1-.48-.48V3.94a.48.48 0 0 1 .48-.49h4.64a.48.48 0 0 1 .48.49z" fill="#e6e6e6"></path><path d="M7 5a.6.6 0 0 1 .6-.6h2.8a.6.6 0 0 1 .6.6.6.6 0 0 1-.6.61H7.6A.6.6 0 0 1 7 5z" fill="#003067"></path><circle cx="7.63" cy="4.99" r=".41" fill="#50e6ff"></circle><path d="M7 6.9a.61.61 0 0 1 .6-.61h2.8a.61.61 0 0 1 .6.61.6.6 0 0 1-.6.61H7.6A.6.6 0 0 1 7 6.9z" fill="#003067"></path><circle cx="7.63" cy="6.9" r=".41" fill="#50e6ff"></circle></g><defs>
<linearGradient id="bf34fd15-2ab2-49bf-80d2-731c19b20dc3" x1="9" y1="1.36" x2="9" y2="17.87" gradientUnits="userSpaceOnUse"><stop offset=".18" stop-color="#5ea0ef"></stop><stop offset="1" stop-color="#0078d4"></stop></linearGradient>
</defs>
</svg>