<svg viewBox="0 0 18 18" class="" role="presentation" focusable="false" xmlns="http://www.w3.org/2000/svg" xmlns:xlink="http://www.w3.org/1999/xlink" id="FxSymbol0-0ea" data-type="1"><g><title>deployment-script</title><path d="M14.85 5.55h2.823a.326.326 0 0 0 .319-.4L16.872.255a.326.326 0 0 0-.32-.255h-2.824a.326.326 0 0 0-.318.4l1.12 4.896a.326.326 0 0 0 .318.254zM1.447 18h2.824a.326.326 0 0 0 .318-.4l-1.12-4.896a.326.326 0 0 0-.318-.254H.327a.326.326 0 0 0-.319.4l1.12 4.896a.326.326 0 0 0 .319.254z" fill="#0078d4"></path><path d="M12.587 18H1.501a.3.3 0 0 1-.292-.367l3.98-17.4A.3.3 0 0 1 5.483 0h11.086a.3.3 0 0 1 .293.367l-3.981 17.4a.3.3 0 0 1-.293.233z" fill="url(#b7a9d82a-e70c-4174-88ec-bc7515e9920b)"></path><path fill="#c3f1ff" d="M12.2 9.021L7.883 4.1l-1.23 1.079L9.891 8.87 6.2 12.108l1.079 1.23L12.2 9.021z"></path></g><defs>
<linearGradient id="b7a9d82a-e70c-4174-88ec-bc7515e9920b" x1="9.035" x2="9.035" y2="18" gradientUnits="userSpaceOnUse"><stop offset="0" stop-color="#5ea0ef"></stop><stop offset=".201" stop-color="#5a9eee"></stop><stop offset=".41" stop-color="#4d99ea"></stop><stop offset=".622" stop-color="#3990e4"></stop><stop offset=".835" stop-color="#1c84dc"></stop><stop offset="1" stop-color="#0078d4"></stop></linearGradient>
</defs>
</svg>