<svg viewBox="0 0 16 16" class="" role="presentation" focusable="false" xmlns:svg="http://www.w3.org/2000/svg" xmlns:xlink="http://www.w3.org/1999/xlink" id="FxSymbol0-14c" data-type="1"><g><title></title><path d="M9.023 1.497L6.96.629.397 3.394l2.311 1.018zm2.506 1.053L5.172 5.498l1.764.776 6.74-2.821z" class="msportalfx-svg-c16" fill="#3999c6"></path><path d="M10.106 12.196a3.228 3.228 0 0 1 3.816-3.173v-5.14l-6.68 2.909v8.579l3.375-1.437a3.21 3.21 0 0 1-.51-1.738z" class="msportalfx-svg-c15" fill="#59b4d9"></path><path d="M10.106 12.196a3.228 3.228 0 0 1 3.816-3.173v-5.14l-6.68 2.909v8.579l3.375-1.437a3.21 3.21 0 0 1-.51-1.738z" opacity=".5" class="msportalfx-svg-c01" fill="#ffffff"></path><path d="M13.311 9.472c-1.482 0-2.688 1.206-2.688 2.688s1.206 2.689 2.688 2.689c1.483 0 2.689-1.206 2.689-2.689s-1.206-2.688-2.689-2.688zm-1.3 3.807c-.091-.09-.097-.222.001-.322l.762-.814-.603-.637c-.046-.049-.094-.095-.139-.145-.096-.105-.094-.236.005-.33.083-.08.227-.077.317.015.269.275.535.552.802.829.044.046.09.09.132.138.091.104.095.227-.002.323-.317.317-.637.631-.959.943a.218.218 0 0 1-.316 0zm2.6-.943c-.318.317-.637.631-.96.943a.218.218 0 0 1-.315 0c-.092-.09-.097-.222 0-.322l.762-.814-.602-.637c-.046-.049-.094-.095-.14-.145-.096-.105-.093-.236.006-.33.083-.08.226-.077.316.015.27.275.536.552.803.829.044.046.09.09.132.138.091.104.094.227-.002.323z" class="msportalfx-svg-c04" fill="#7a7a7a"></path><path d="M4.93 6.155v2.219L3.613 6.75l-1.328.518V4.92L0 3.886v8.66l6.678 2.825V6.882L4.93 6.155zm-.34 4.56c-.134.09-.317.053-.383-.046L3.459 9.56v2.421c0 .105-.124.268-.301.268s-.302-.163-.302-.268v-2.73l-.78.408c-.073.039-.27 0-.346-.146-.076-.144-.001-.338.072-.377l1.347-.705a.193.193 0 0 1 .119-.041.2.2 0 0 1 .161.087l.01.01 1.251 1.856c.067.1.034.281-.1.371z" class="msportalfx-svg-c15" fill="#59b4d9"></path><path d="M11.643 14.264l.735-1.035-.051.05a.218.218 0 0 1-.316 0c-.091-.09-.097-.222.001-.322l.762-.814-.603-.637c-.046-.049-.094-.095-.139-.145-.096-.105-.094-.236.005-.33.083-.08.227-.077.317.015.269.275.535.552.802.829l.105.11.296-.415-.06-.064c-.047-.049-.095-.095-.14-.145-.097-.105-.094-.236.005-.33.083-.08.226-.077.316.015l.145.149.925-1.303a2.67 2.67 0 0 0-1.437-.42 2.691 2.691 0 0 0-2.688 2.688c0 .852.4 1.611 1.02 2.104z" class="msportalfx-svg-c03" fill="#a0a1a2"></path></g><defs>
<linearGradient id="a" x1="9" y1="16.39" x2="9" y2="-1.94" gradientUnits="userSpaceOnUse"><stop offset="0" stop-color="#0078d4"></stop><stop offset=".16" stop-color="#1380da"></stop><stop offset=".53" stop-color="#3c91e5"></stop><stop offset=".82" stop-color="#559cec"></stop><stop offset="1" stop-color="#5ea0ef"></stop></linearGradient>
<linearGradient id="b" x1="9.88" y1="7.11" x2="9.99" y2="17.27" gradientUnits="userSpaceOnUse"><stop offset="0" stop-color="#32d4f5"></stop><stop offset=".32" stop-color="#31d1f3"></stop><stop offset=".53" stop-color="#2ec9eb"></stop><stop offset=".7" stop-color="#29bade"></stop><stop offset=".86" stop-color="#22a5cb"></stop><stop offset="1" stop-color="#198ab3"></stop><stop offset="1" stop-color="#198ab3"></stop></linearGradient>
<radialGradient id="c" cx="9.43" cy="7.03" r="7.27" gradientUnits="userSpaceOnUse"><stop offset="0" stop-color="#f2f2f2"></stop><stop offset=".58" stop-color="#eee"></stop><stop offset="1" stop-color="#e6e6e6"></stop></radialGradient>
</defs>
</svg>