<svg viewBox="0 0 50 50" class="fxs-portal-svg" role="presentation" focusable="false" xmlns:svg="http://www.w3.org/2000/svg" xmlns:xlink="http://www.w3.org/1999/xlink" id="FxSymbol0-154" data-type="215"><g><title></title><path d="M42.744 50H7.256c-3.27 0-5.93-2.66-5.93-5.93v-9.863a1.562 1.562 0 1 1 3.126 0v9.863a2.81 2.81 0 0 0 2.805 2.805h35.489a2.81 2.81 0 0 0 2.805-2.805v-9.863a1.562 1.562 0 1 1 3.126 0v9.863A5.941 5.941 0 0 1 42.744 50z" class="msportalfx-svg-c03" fill="#a0a1a2"></path><path d="M7.006 16.691h9.87v27.614h-9.87zm13.059 0h9.87v27.614h-9.87z" class="msportalfx-svg-c15" fill="#59b4d9"></path><path d="M33.125 16.691h9.869v27.614h-9.869zm-16.217-5.265C16.908 5.125 22.035 0 28.336 0S39.89 4.784 39.89 11.084a1.562 1.562 0 1 1-3.126 0c0-4.578-3.852-7.959-8.429-7.959s-8.302 3.723-8.302 8.301h-3.125z" class="msportalfx-svg-c13" fill="#b8d432"></path><path d="M44.365 8.782l-6.166 6.166-6.166-6.166z" class="msportalfx-svg-c13" fill="#b8d432"></path></g><defs>
<linearGradient id="a" x1="9" y1="16.39" x2="9" y2="-1.94" gradientUnits="userSpaceOnUse"><stop offset="0" stop-color="#0078d4"></stop><stop offset=".16" stop-color="#1380da"></stop><stop offset=".53" stop-color="#3c91e5"></stop><stop offset=".82" stop-color="#559cec"></stop><stop offset="1" stop-color="#5ea0ef"></stop></linearGradient>
<linearGradient id="b" x1="9.88" y1="7.11" x2="9.99" y2="17.27" gradientUnits="userSpaceOnUse"><stop offset="0" stop-color="#32d4f5"></stop><stop offset=".32" stop-color="#31d1f3"></stop><stop offset=".53" stop-color="#2ec9eb"></stop><stop offset=".7" stop-color="#29bade"></stop><stop offset=".86" stop-color="#22a5cb"></stop><stop offset="1" stop-color="#198ab3"></stop><stop offset="1" stop-color="#198ab3"></stop></linearGradient>
<radialGradient id="c" cx="9.43" cy="7.03" r="7.27" gradientUnits="userSpaceOnUse"><stop offset="0" stop-color="#f2f2f2"></stop><stop offset=".58" stop-color="#eee"></stop><stop offset="1" stop-color="#e6e6e6"></stop></radialGradient>
</defs>
</svg>