<svg viewBox="0 0 50 50" class="fxs-portal-svg" role="presentation" focusable="false" xmlns:svg="http://www.w3.org/2000/svg" xmlns:xlink="http://www.w3.org/1999/xlink" id="FxSymbol0-037" data-type="210"><g><title></title><path d="M24.069 9.256l-6.902 6.548v-3.553L25.496 3.5l8.337 8.72v3.542l-6.865-6.506v11.598h-2.899zM48.648 25.5H2.353C1.333 25.5.5 26.332.5 27.353v21.294c0 1.021.836 1.853 1.848 1.853h46.295c1.02 0 1.853-.832 1.853-1.853V27.353a1.858 1.858 0 0 0-1.848-1.853zm-1.92 21.01h-42.5V29.5h42.5v17.01z"></path><path d="M21.146 34.176h8.323V42.5h-8.323zm12.418 0h8.32V42.5h-8.32zm-24.835 0h8.324V42.5H8.729z"></path></g><defs>
<linearGradient id="a" x1="9" y1="17.86" x2="9" y2="4.06" gradientUnits="userSpaceOnUse"><stop offset="0" stop-color="#0078d4"></stop><stop offset=".16" stop-color="#1380da"></stop><stop offset=".53" stop-color="#3c91e5"></stop><stop offset=".82" stop-color="#559cec"></stop><stop offset="1" stop-color="#5ea0ef"></stop></linearGradient>
<linearGradient id="b" x1="6.4" y1="1.32" x2="7.21" y2="11.39"><stop offset=".22" stop-color="#32d4f5"></stop><stop offset=".47" stop-color="#31d1f3"></stop><stop offset=".63" stop-color="#2ec9eb"></stop><stop offset=".77" stop-color="#29bade"></stop><stop offset=".89" stop-color="#22a5cb"></stop><stop offset="1" stop-color="#198ab3"></stop><stop offset="1" stop-color="#198ab3"></stop></linearGradient>
<linearGradient id="c" x1="13.76" y1="18.05" x2="13.76" y2="10.25" gradientUnits="userSpaceOnUse"><stop offset="0" stop-color="#76bc2d"></stop><stop offset=".6" stop-color="#81ce31"></stop><stop offset=".82" stop-color="#86d633"></stop></linearGradient>
</defs>
</svg>