<svg viewBox="0 0 16 16" class="msportalfx-svg-palette-inherit" role="presentation" focusable="false" xmlns:svg="http://www.w3.org/2000/svg" xmlns:xlink="http://www.w3.org/1999/xlink" id="FxSymbol0-191" data-type="133"><g><title></title><path d="M10.3 4h-.9l-3.9 8h1z"></path><path d="M11.1 2.2h-.8L4.6 13.9h.9zM4.6 4c-.9 0-1.5.8-1.6 2H0v4h3c.1.9.5 1.7 1.1 1.9L8 4m4.8 2c-.2-.9-.6-1.6-1.2-1.9L7.8 12H11c.2 0 .3 0 .5-.1.7-.2 1.1-1 1.3-1.9H16V6h-3.2z"></path></g><defs>
<linearGradient id="a" x1="-1267.23" y1="3.07" x2="-1267.52" y2="14.64" gradientTransform="matrix(-1 0 0 1 -1256.13 0)" gradientUnits="userSpaceOnUse"><stop offset="0" stop-color="#32d4f5"></stop><stop offset=".23" stop-color="#31d0f1"></stop><stop offset=".46" stop-color="#2cc3e6"></stop><stop offset=".7" stop-color="#25afd4"></stop><stop offset=".94" stop-color="#1c92ba"></stop><stop offset="1" stop-color="#198ab3"></stop></linearGradient>
<linearGradient id="b" x1="6.4" y1="1.32" x2="7.21" y2="11.39"><stop offset=".22" stop-color="#32d4f5"></stop><stop offset=".47" stop-color="#31d1f3"></stop><stop offset=".63" stop-color="#2ec9eb"></stop><stop offset=".77" stop-color="#29bade"></stop><stop offset=".89" stop-color="#22a5cb"></stop><stop offset="1" stop-color="#198ab3"></stop><stop offset="1" stop-color="#198ab3"></stop></linearGradient>
<linearGradient id="c" x1="13.76" y1="18.05" x2="13.76" y2="10.25" gradientUnits="userSpaceOnUse"><stop offset="0" stop-color="#76bc2d"></stop><stop offset=".6" stop-color="#81ce31"></stop><stop offset=".82" stop-color="#86d633"></stop></linearGradient>
</defs>
</svg>