<svg viewBox="0 0 18 18" class="" role="presentation" focusable="false" xmlns="http://www.w3.org/2000/svg" xmlns:xlink="http://www.w3.org/1999/xlink" id="FxSymbol0-12b" data-type="1"><g><path d="M14.975 9.021v.155A5.977 5.977 0 0 1 9 15h-.063l-.857-1.455a.871.871 0 0 0-.759-.435.88.88 0 0 0-.821.554l-.262.657c-.1-.053-.2-.11-.3-.167l-.089-.054a1.719 1.719 0 0 1-.12-.076l-.115-.078-.08-.058-.08-.058-.048-.036-.134-.1a3.838 3.838 0 0 1-.135-.113l-.115-.1A.063.063 0 0 1 5 13.455a4.374 4.374 0 0 1-.223-.21l-.114-.116a.081.081 0 0 1-.016-.016 3.6 3.6 0 0 1-.2-.229c-.036-.041-.07-.083-.1-.125s-.069-.086-.1-.13-.066-.087-.1-.13-.064-.09-.1-.137-.06-.091-.09-.138a.839.839 0 0 1-.05-.081 2.468 2.468 0 0 1-.155-.272c-.026-.042-.048-.085-.071-.129a3.996 3.996 0 0 1-.122-.255c-.021-.046-.042-.092-.062-.14s-.044-.1-.063-.153-.04-.1-.056-.152-.031-.08-.044-.123-.021-.062-.031-.094-.023-.072-.032-.107a3.328 3.328 0 0 1-.047-.163l-.041-.163a4.92 4.92 0 0 1-.036-.166 5.964 5.964 0 0 1-.111-.842c0-.048-.006-.1-.007-.147v-.216A5.955 5.955 0 0 1 3.1 8.08c.011-.074.025-.15.039-.226s.026-.121.04-.182a.645.645 0 0 1 .021-.084c.014-.062.029-.124.048-.186v-.017c.018-.064.038-.129.059-.194v-.012a5.978 5.978 0 0 1 5.675-4.133l.831 1.41a.883.883 0 0 0 1.581-.121l.265-.665a4.881 4.881 0 0 1 .446.248l.047.026c.05.033.1.065.151.1.089.058.176.118.261.182.112.081.222.17.327.263.052.045.1.091.155.139a5.921 5.921 0 0 1 1.873 3.586 6.192 6.192 0 0 1 .051.566v.154a.502.502 0 0 1 .005.087Z" fill="url(#94a115a1-5689-4c39-bee0-5c63fda4a19e)"></path><g opacity=".8" class="msportalfx-svg-c01" fill="#ffffff"><path opacity=".6" d="m11.964 11.806-1.861-3.258-.185.106.151-.112-2.107-2.996-.386.279L9.443 8.48l-4.136.341.039.481 4.097-.341-1.358 2.258.408.246L9.89 9.14l1.661 2.901.413-.235z"></path><path d="M11.775 11.119h-.006a.879.879 0 0 0-.187.018.856.856 0 0 0-.679.826v.017a.866.866 0 1 0 .872-.861Zm-2.913-.27a.728.728 0 0 0-.431-.205.457.457 0 0 0-.083-.006h-.006a.746.746 0 0 0-.75.738v.006a.75.75 0 1 0 1.27-.533ZM5.984 8.765a.743.743 0 1 0 .088.353.742.742 0 0 0-.088-.353ZM7.833 4.8h-.027a.928.928 0 0 0 .017 1.856.954.954 0 0 0 .3-.049.933.933 0 0 0 .628-.873.927.927 0 0 0-.918-.934Zm2.085 2.815a1.119 1.119 0 0 0-.438.085 1.123 1.123 0 0 0-.661.83.984.984 0 0 0-.019.17v.027a1.131 1.131 0 0 0 .314.776 1.106 1.106 0 0 0 .4.266 1.125 1.125 0 0 0 .407.078 1.147 1.147 0 0 0 .348-.055 1.118 1.118 0 0 0-.348-2.181Z"></path></g><path d="M16.5 11.493a.463.463 0 0 1-.611.288l-.539-.216a.461.461 0 0 1-.263-.574A6.408 6.408 0 0 0 11.431 3.1l-.156.391-.275.688a.461.461 0 0 1-.825.062l-.693-1.177-.893-1.515a.461.461 0 0 1 .272-.677l3.006-.854a.462.462 0 0 1 .555.616l-.432 1.077a7.909 7.909 0 0 1 4.51 9.782Zm-7.468 5.636-3.006.852a.46.46 0 0 1-.554-.614l.433-1.081A7.907 7.907 0 0 1 1.5 6.55a.464.464 0 0 1 .611-.288l.529.212a.467.467 0 0 1 .274.574A6.409 6.409 0 0 0 6.462 14.9l.157-.391.273-.682a.461.461 0 0 1 .826-.063l.714 1.212.872 1.48a.461.461 0 0 1-.272.673Z" fill="#0078d4"></path></g><defs>
<linearGradient id="94a115a1-5689-4c39-bee0-5c63fda4a19e" x1="8.999" y1="6.807" x2="8.999" y2="13.192" gradientUnits="userSpaceOnUse"><stop offset="0" stop-color="#50e6ff"></stop><stop offset=".949" stop-color="#32bedd"></stop></linearGradient>
</defs>
</svg>