<svg viewBox="0 0 34 34" class="" role="presentation" focusable="false" xmlns="http://www.w3.org/2000/svg" xmlns:xlink="http://www.w3.org/1999/xlink" id="FxSymbol0-257" data-type="1"><g><title></title><path d="M9.214 8.632 21.609 1.48l12.39 7.153v14.312l-12.392 7.154-12.41-7.154V8.681l.017-.049Z" fill="url(#406fd2f9-470a-4939-b13a-553c6cc30fd8)"></path><path d="m9.214 8.625 12.31 6.93.002 14.308-12.382-7.138.053-14.051.017-.05Z" fill="#0078D4"></path><path d="m.01 20.094 7.175-4.142 7.174 4.142v8.285L7.185 32.52 0 28.379v-8.257l.01-.028Z" fill="#9CEBFF"></path><path d="m.019 20.107 7.159 4.118v8.283L.009 28.375v-8.24l.01-.028Z" fill="#32BEDD"></path><path d="m14.36 20.094-7.184 4.131-.002 8.283 7.185-4.13v-8.284Z" fill="#50E6FF"></path><path opacity=".5" d="M13.636 11.063 25.6 3.79l3.753 2.163-11.975 7.27v4.005a.172.172 0 0 1-.304.11l-1.587-1.89a.172.172 0 0 0-.168-.056l-1.477.32a.172.172 0 0 1-.208-.167l.002-4.48Z" class="msportalfx-svg-c01" fill="#ffffff"></path><defs></defs></g><defs>
<linearGradient id="406fd2f9-470a-4939-b13a-553c6cc30fd8" x1="21.599" y1="28.192" x2="21.599" y2="1.192" gradientUnits="userSpaceOnUse"><stop stop-color="#0078D4"></stop><stop offset="1" stop-color="#83B9F9"></stop></linearGradient>
</defs>
</svg>