<svg viewBox="0 0 50 50" role="presentation" focusable="false" xmlns:svg="http://www.w3.org/2000/svg" xmlns:xlink="http://www.w3.org/1999/xlink" aria-hidden="true"><g><path d="M46 33c0 1.657-1.359 3-3.036 3H3.036C1.359 36 0 34.657 0 33V3c0-1.657 1.359-3 3.036-3h39.928C44.641 0 46 1.343 46 3v30z" class="msportalfx-svg-c05" fill="#3e3e3e"></path><path d="M2.962 5H43v26H2.962z" class="msportalfx-svg-c16" fill="#3999c6"></path><path d="M26 2.689c0 .38-.308.688-.688.688H20.89a.689.689 0 1 1 0-1.377h4.422c.38 0 .688.309.688.689" class="msportalfx-svg-c01" fill="#ffffff"></path><path opacity=".15" d="M31 0H3a3 3 0 0 0-3 3v30a3 3 0 0 0 3 3h12L31 0z" class="msportalfx-svg-c01" fill="#ffffff"></path><path d="M50 47.545C50 48.901 48.913 50 47.572 50H29.428C28.087 50 27 48.901 27 47.545v-31.09C27 15.099 28.087 14 29.428 14h18.143C48.913 14 50 15.099 50 16.455v31.09z" class="msportalfx-svg-c05" fill="#3e3e3e"></path><path d="M29 18h19v27H29z" class="msportalfx-svg-c15" fill="#59b4d9"></path><path d="M42.607 16.171c0 .335-.436.606-.974.606H35.37c-.54 0-.977-.271-.977-.606 0-.335.437-.607.977-.607h6.263c.538 0 .974.272.974.607" class="msportalfx-svg-c01" fill="#ffffff"></path><path opacity=".15" d="M45.089 14H29.464A2.46 2.46 0 0 0 27 16.455v31.091A2.458 2.458 0 0 0 29.464 50H31.6l13.489-36z" class="msportalfx-svg-c01" fill="#ffffff"></path></g></svg>