<svg viewBox="0 0 50 50" role="presentation" focusable="false" xmlns:svg="http://www.w3.org/2000/svg" xmlns:xlink="http://www.w3.org/1999/xlink" aria-hidden="true"><g><path d="M32 41c0 1.657-1.323 3-2.956 3H6.956C5.323 44 4 42.657 4 41V3c0-1.657 1.323-3 2.956-3h22.088C30.677 0 32 1.343 32 3v38z" class="msportalfx-svg-c05" fill="#3e3e3e"></path><path d="M6 5h24v33H6z" class="msportalfx-svg-c15" fill="#59b4d9"></path><path d="M23 2.817c0 .408-.53.738-1.186.738h-7.625c-.657 0-1.189-.33-1.189-.738s.532-.739 1.189-.739h7.625c.656 0 1.186.331 1.186.739" class="msportalfx-svg-c01" fill="#ffffff"></path><path opacity=".15" d="M26.021 0H7a3 3 0 0 0-3 3v38a3 3 0 0 0 3 3h2.6L26.021 0z" class="msportalfx-svg-c01" fill="#ffffff"></path><path stroke="#3999C6" stroke-width="2" stroke-linecap="round" stroke-linejoin="round" stroke-miterlimit="10" d="M21.042 26.042h22.917v22.917H21.042z" class="msportalfx-svg-c01" fill="#ffffff"></path><path d="M24.26 37.613a.604.604 0 0 1-.16-.433.597.597 0 0 1 .196-.409l1.568-1.451a.59.59 0 0 1 .402-.159c.168 0 .317.067.432.193l4.158 4.458 7.287-9.334a.58.58 0 0 1 .466-.228c.134 0 .258.044.362.127l1.698 1.311c.126.09.208.227.228.391a.555.555 0 0 1-.14.449l-9.373 12.003a.426.426 0 0 1-.649.028l-6.475-6.946z" class="msportalfx-svg-c16" fill="#3999c6"></path></g></svg>