<svg viewBox="0 0 50 50" role="presentation" focusable="false" xmlns:svg="http://www.w3.org/2000/svg" xmlns:xlink="http://www.w3.org/1999/xlink" aria-hidden="true"><g><path fill-rule="evenodd" clip-rule="evenodd" d="M20 44h12l-3-7 3-7V19H20z" class="msportalfx-svg-c03" fill="#a0a1a2"></path><path opacity=".5" fill-rule="evenodd" clip-rule="evenodd" d="M20 44h12l-3-7 3-7V19H20z" class="msportalfx-svg-c02" fill="#e5e5e5"></path><path d="M25.328 41.757l-.49-1.194-2.733-.896L21 39.252v-4.361l3.884-1.387.488-1.191-1.511-2.978-.322-.645 3.09-3.09 3.617 1.726 1.191-.488.563-1.715V3c0-1.657-1.323-3-2.956-3H6.956C5.323 0 4 1.343 4 3v38c0 1.657 1.323 3 2.956 3h17.318l1.054-2.243z" class="msportalfx-svg-c05" fill="#3e3e3e"></path><path d="M21 34.891l3.884-1.387.488-1.191-1.511-2.978-.322-.645 3.09-3.089L30 27.209V5H6v33h15z" class="msportalfx-svg-c15" fill="#59b4d9"></path><path d="M23 2.817c0 .408-.53.738-1.186.738h-7.625c-.657 0-1.189-.33-1.189-.738s.532-.739 1.189-.739h7.625c.656 0 1.186.331 1.186.739" class="msportalfx-svg-c01" fill="#ffffff"></path><path opacity=".15" d="M26.021 0H7a3 3 0 0 0-3 3v38a3 3 0 0 0 3 3h2.6L26.021 0z" class="msportalfx-svg-c01" fill="#ffffff"></path><path d="M48 38.404V35.44l-.416-.156-3.172-1.04-.832-2.028 1.612-3.432-2.08-2.08-.416.208-2.964 1.508-2.028-.832-1.3-3.588H33.44l-.156.416-1.04 3.172-2.028.832-3.38-1.612-2.08 2.08.208.416 1.508 2.964-.832 2.028-3.64 1.3v2.964l.416.156 3.172 1.04.832 2.028-1.612 3.432 2.08 2.08.416-.208 2.964-1.508 2.028.832 1.3 3.588h2.964l.156-.416 1.04-3.172 2.028-.832 3.432 1.612 2.08-2.08-.208-.416-1.508-2.964.832-2.028 3.588-1.3zM35 41.42c-2.444 0-4.42-1.976-4.42-4.42s1.976-4.42 4.42-4.42 4.42 1.976 4.42 4.42-1.976 4.42-4.42 4.42z" class="msportalfx-svg-c04" fill="#7a7a7a"></path></g></svg>