<svg viewBox="0 0 96 96" class="" role="presentation" focusable="false" xmlns="http://www.w3.org/2000/svg" xmlns:xlink="http://www.w3.org/1999/xlink" id="FxSymbol0-11f" data-type="1"><g><title></title><path d="M95.866 54.836c-2.95 10.706-10.103 14.247-17.814 17.517-.533.225-1.795.647-3.753.647H41.044c-6.266 0-15.81-.102-20.263-.153-2.448-.029-3.994-.715-4.732-1.082C6.727 67.117 1.214 59.594.15 50.078c-.444-3.967-1.397-20.049 22.098-26.25C30.08 9.1 38.695 6.775 49.66 6c14.096 0 25.844 10.077 27.41 25.58 7.832 1.551 20.362 9.303 18.796 23.256Z" fill="url(#59616712-f700-4139-92c6-bd98d17f02bc)"></path><path d="M89.993 66.496c0 16.29-13.206 29.497-29.497 29.497C44.206 95.993 31 82.787 31 66.496 31 50.206 44.206 37 60.496 37s29.497 13.206 29.497 29.496Z" class="msportalfx-svg-c01" fill="#ffffff"></path><path fill-rule="evenodd" clip-rule="evenodd" d="M60.496 92.112c14.147 0 25.616-11.469 25.616-25.616S74.643 40.881 60.496 40.881 34.881 52.35 34.881 66.496c0 14.147 11.468 25.616 25.615 25.616Zm0 3.88c16.29 0 29.497-13.205 29.497-29.496C89.993 50.206 76.787 37 60.496 37 44.206 37 31 50.206 31 66.496s13.206 29.497 29.496 29.497Z" fill="url(#59616712-f700-4139-92c6-bd98d17f02bd)"></path><path d="M71.43 61.278c-3.359 0-6.082 2.734-6.082 6.107 0 1.965-.435 3.83-1.214 5.499-2.062 4.418-6.53 7.477-11.71 7.477-7.137 0-12.923-5.81-12.923-12.976a12.96 12.96 0 0 1 3.77-9.16 12.865 12.865 0 0 1 7.602-3.724v3.082a9.859 9.859 0 0 0-5.926 3.313 9.909 9.909 0 0 0-2.405 6.489 9.911 9.911 0 0 0 2.75 6.87 9.835 9.835 0 0 0 7.132 3.053 9.808 9.808 0 0 0 4.613-1.145 9.927 9.927 0 0 0 5.27-8.778c0-2.064.68-3.968 1.827-5.5a9.096 9.096 0 0 1 7.296-3.66c4.782 0 8.705 3.694 9.091 8.396h-3.056c-.375-3.012-2.934-5.343-6.035-5.343Z" fill="#417BE9"></path><path fill-rule="evenodd" clip-rule="evenodd" d="M64.098 72.96c-2.077 4.377-6.523 7.402-11.674 7.402-7.137 0-12.923-5.81-12.923-12.977a12.96 12.96 0 0 1 3.77-9.16 12.873 12.873 0 0 1 7.602-3.724v3.082a9.859 9.859 0 0 0-5.927 3.314 9.908 9.908 0 0 0-2.405 6.488 9.912 9.912 0 0 0 2.752 6.87 9.835 9.835 0 0 0 7.131 3.053 9.808 9.808 0 0 0 4.613-1.145 9.927 9.927 0 0 0 5.27-8.778 9.15 9.15 0 0 1 1.826-5.5 9.096 9.096 0 0 1 7.297-3.66c4.61 0 8.423 3.435 9.036 7.896.023.165.041.332.055.5h-3.057c-.374-3.012-2.933-5.343-6.034-5.343-3.36 0-6.082 2.734-6.082 6.107a12.971 12.971 0 0 1-1.25 5.574ZM51.205 54.125a.5.5 0 0 1 .168.375v3.082a.5.5 0 0 1-.422.495 9.358 9.358 0 0 0-5.625 3.145 9.408 9.408 0 0 0-2.284 6.162 9.41 9.41 0 0 0 2.613 6.524 9.335 9.335 0 0 0 6.77 2.899 9.307 9.307 0 0 0 4.377-1.087 9.427 9.427 0 0 0 5.005-8.336c0-2.175.716-4.184 1.926-5.8a9.597 9.597 0 0 1 7.697-3.86c5.046 0 9.182 3.898 9.59 8.855a.5.5 0 0 1-.499.542h-3.057a.5.5 0 0 1-.496-.439c-.344-2.766-2.694-4.904-5.538-4.904-3.08 0-5.582 2.508-5.582 5.606 0 2.04-.452 3.976-1.261 5.71-2.14 4.587-6.78 7.767-12.163 7.767C45.008 80.862 39 74.826 39 67.385c0-3.713 1.496-7.076 3.915-9.513a13.365 13.365 0 0 1 7.898-3.868.5.5 0 0 1 .392.122Z" fill="#417BE9"></path><path d="M71.35 76.794a9.001 9.001 0 0 1-4.206-1.04l1.554-2.786a6 6 0 0 0 2.652.616c2.889 0 5.316-2.046 6.004-4.816h3.166c-.737 4.555-4.562 8.026-9.17 8.026Z" fill="#1453C8"></path><path fill-rule="evenodd" clip-rule="evenodd" d="M66.665 75.898a.5.5 0 0 1 .042-.387l1.554-2.786a.5.5 0 0 1 .658-.206 5.498 5.498 0 0 0 2.432.564c2.642 0 4.881-1.873 5.518-4.435a.5.5 0 0 1 .486-.38h3.166a.5.5 0 0 1 .494.58c-.775 4.781-4.795 8.447-9.664 8.447a9.502 9.502 0 0 1-4.44-1.097.5.5 0 0 1-.246-.3Zm13.761-6.629c-.927 4.306-4.638 7.525-9.075 7.525a8.995 8.995 0 0 1-4.206-1.039l1.553-2.787a6 6 0 0 0 2.653.616c2.888 0 5.315-2.046 6.004-4.815h3.166a9.906 9.906 0 0 1-.095.5Z" fill="#1453C8"></path><path d="M60.422 61.635a10.164 10.164 0 0 0-1.924-1.94 10.414 10.414 0 0 0-5.621-2.125V54.5c2.285.124 4.419.8 6.259 1.895 1.363.81 2.565 1.85 3.55 3.063l-2.264 2.177Z" fill="#88AEF1"></path><path fill-rule="evenodd" clip-rule="evenodd" d="M60.382 62.133a.5.5 0 0 1-.36-.197 9.658 9.658 0 0 0-1.83-1.845 9.914 9.914 0 0 0-5.351-2.022.5.5 0 0 1-.465-.499V54.5a.5.5 0 0 1 .527-.5c2.368.128 4.58.83 6.488 1.965 1.413.84 2.66 1.918 3.683 3.177a.5.5 0 0 1-.042.677l-2.264 2.176a.5.5 0 0 1-.386.139Zm-.273-.892c.107.128.212.26.313.394l2.263-2.177a13.374 13.374 0 0 0-3.55-3.063 13.645 13.645 0 0 0-6.259-1.895v3.07c2.116.15 4.054.92 5.622 2.124.594.457 1.134.976 1.61 1.547Z" fill="#88AEF1"></path><defs></defs></g><defs>
<linearGradient id="59616712-f700-4139-92c6-bd98d17f02bc" x1="45.706" y1="70.355" x2="44.393" y2="6" gradientUnits="userSpaceOnUse"><stop stop-color="#2889E0"></stop><stop offset="1" stop-color="#50E6FF"></stop></linearGradient>
<linearGradient id="59616712-f700-4139-92c6-bd98d17f02bd" x1="75.245" y1="91.845" x2="45.287" y2="39.304" gradientUnits="userSpaceOnUse"><stop stop-color="#C398E9"></stop><stop offset="1" stop-color="#704CB3"></stop></linearGradient>
</defs>
</svg>