<svg viewBox="0 0 18 18" data-islogo="true" class="" role="presentation" focusable="false" xmlns:svg="http://www.w3.org/2000/svg" xmlns:xlink="http://www.w3.org/1999/xlink" id="FxSymbol0-102" data-type="146"><g><path d="M15.2.5H3.59a.57.57 0 0 0-.44.2L1.93 2.11l13.38 13.56-2 1.83h1a.71.71 0 0 0 .46-.17l1.17-1.07a.59.59 0 0 0 .19-.43V1.33A.81.81 0 0 0 15.2.5z" fill="#5e9624"></path><path d="M2.91 2.1l.74-.84A.5.5 0 0 1 4 1.08h10.88a.52.52 0 0 1 .52.52v13.78a.52.52 0 0 1-.17.38l-1.15 1.06" class="msportalfx-svg-c01" fill="#ffffff"></path><path d="M14 2.09H2a.06.06 0 0 0-.05.06v15a.38.38 0 0 0 .38.38H14a.38.38 0 0 0 .38-.38V2.48a.38.38 0 0 0-.38-.39z" fill="url(#483b2950-bb82-4ac3-9e20-373ae65a5958)"></path><path d="M12.5 7.82a.37.37 0 0 0-.37-.39h-1.85a.16.16 0 0 0-.15.09L9.36 8.9 8.1 6.35 6.93 10l-1-2.6-1.32 2.44a.18.18 0 0 1-.15.1h-.6a.37.37 0 0 0-.37.33.37.37 0 0 0 .37.41h1a.18.18 0 0 0 .16-.1l.78-1.47 1.21 3 1.23-3.86 1.08 2.19 1.21-2.17a.16.16 0 0 1 .15-.09h1.45a.37.37 0 0 0 .37-.36z" class="msportalfx-svg-c01" fill="#ffffff"></path></g><defs>
<linearGradient id="a" x1="9" y1="16.39" x2="9" y2="-1.94" gradientUnits="userSpaceOnUse"><stop offset="0" stop-color="#0078d4"></stop><stop offset=".16" stop-color="#1380da"></stop><stop offset=".53" stop-color="#3c91e5"></stop><stop offset=".82" stop-color="#559cec"></stop><stop offset="1" stop-color="#5ea0ef"></stop></linearGradient>
<linearGradient id="b" x1="9.88" y1="7.11" x2="9.99" y2="17.27" gradientUnits="userSpaceOnUse"><stop offset="0" stop-color="#32d4f5"></stop><stop offset=".32" stop-color="#31d1f3"></stop><stop offset=".53" stop-color="#2ec9eb"></stop><stop offset=".7" stop-color="#29bade"></stop><stop offset=".86" stop-color="#22a5cb"></stop><stop offset="1" stop-color="#198ab3"></stop><stop offset="1" stop-color="#198ab3"></stop></linearGradient>
<radialGradient id="c" cx="9.43" cy="7.03" r="7.27" gradientUnits="userSpaceOnUse"><stop offset="0" stop-color="#f2f2f2"></stop><stop offset=".58" stop-color="#eee"></stop><stop offset="1" stop-color="#e6e6e6"></stop></radialGradient>
<linearGradient id="483b2950-bb82-4ac3-9e20-373ae65a5958" x1="8.15" y1="17.49" x2="8.15" y2="2.09" gradientUnits="userSpaceOnUse"><stop offset="0" stop-color="#5e9624"></stop><stop offset=".31" stop-color="#69a828"></stop><stop offset=".93" stop-color="#86d633"></stop></linearGradient>
</defs>
</svg>