<svg viewBox="0 0 18 18" class="" role="presentation" focusable="false" xmlns="http://www.w3.org/2000/svg" xmlns:xlink="http://www.w3.org/1999/xlink" id="FxSymbol0-12c" data-type="1"><g><rect y="2.715" width="18" height="12.57" rx=".6" fill="url(#94a115a1-5689-4c39-bee0-5c63fda4a19f)"></rect><path d="M1.529 7.1a.368.368 0 0 1-.369-.367V4.324a.367.367 0 0 1 .368-.367h2.255a.368.368 0 0 1 0 .736H1.9v2.04a.367.367 0 0 1-.37.367Zm14.942 0a.367.367 0 0 1-.367-.367v-2.04h-1.888a.368.368 0 0 1 0-.736h2.255a.368.368 0 0 1 .369.367v2.409a.367.367 0 0 1-.368.367ZM3.784 14.043H1.529a.368.368 0 0 1-.369-.367v-2.409a.368.368 0 0 1 .736 0v2.04h1.888a.368.368 0 0 1 0 .736Zm12.687 0h-2.254a.368.368 0 0 1 0-.736H16.1v-2.04a.368.368 0 0 1 .736 0v2.409a.367.367 0 0 1-.368.367Z" class="msportalfx-svg-c01" fill="#ffffff"></path><path d="M11.6 5.689a.426.426 0 0 0-.654-.034 2.689 2.689 0 0 1-2 .821 2.692 2.692 0 0 1-1.987-.81.426.426 0 0 0-.659.041l-2.453 3.4a.327.327 0 0 0 0 .381c.778 1.087 4.893 6.145 10.293 0a.327.327 0 0 0 .014-.41Z" fill="url(#94a115a1-5689-4c39-bee0-5c63fda4a1a0)"></path></g><defs>
<linearGradient id="94a115a1-5689-4c39-bee0-5c63fda4a19f" x1="-278" y1="854.231" x2="-278" y2="866.801" gradientTransform="matrix(1 0 0 -1 287 869.516)" gradientUnits="userSpaceOnUse"><stop offset="0" stop-color="#0078d4"></stop><stop offset=".156" stop-color="#1380da"></stop><stop offset=".528" stop-color="#3c91e5"></stop><stop offset=".822" stop-color="#559cec"></stop><stop offset="1" stop-color="#5ea0ef"></stop></linearGradient>
<linearGradient id="94a115a1-5689-4c39-bee0-5c63fda4a1a0" x1="9" y1="12.482" x2="9" y2="5.518" gradientUnits="userSpaceOnUse"><stop offset="0" stop-color="#ef7100"></stop><stop offset="1" stop-color="#faa21d"></stop></linearGradient>
</defs>
</svg>