<svg viewBox="0 0 50 50" class="" role="presentation" focusable="false" xmlns:svg="http://www.w3.org/2000/svg" xmlns:xlink="http://www.w3.org/1999/xlink" id="FxSymbol0-0b1" data-type="1"><g><title></title><path d="M31 0H3v36h28V0z" class="msportalfx-svg-c19" fill="#0072c6"></path><path d="M18 9v37h25.901L44 9H18zm23.915 2v15H19.986V11h21.929zM19.986 44V28h21.929v16H19.986z" class="msportalfx-svg-c19" fill="#0072c6"></path><circle cx="19" cy="45" r="4.9" class="msportalfx-svg-c14" fill="#57a300"></circle><path d="M19 46.9c-1.048 0-1.9-.853-1.9-1.9s.853-1.9 1.9-1.9 1.9.852 1.9 1.9-.852 1.9-1.9 1.9z" class="msportalfx-svg-c01" fill="#ffffff"></path><circle cx="43" cy="45" r="4.9" class="msportalfx-svg-c14" fill="#57a300"></circle><path d="M43 46.9c-1.048 0-1.9-.853-1.9-1.9s.853-1.9 1.9-1.9 1.9.852 1.9 1.9-.852 1.9-1.9 1.9z" class="msportalfx-svg-c01" fill="#ffffff"></path><circle cx="43" cy="10" r="4.9" class="msportalfx-svg-c14" fill="#57a300"></circle><circle cx="43" cy="10" r="1.9" class="msportalfx-svg-c01" fill="#ffffff"></circle><circle cx="43" cy="27" r="4.9" class="msportalfx-svg-c14" fill="#57a300"></circle><circle cx="43" cy="27" r="1.9" class="msportalfx-svg-c01" fill="#ffffff"></circle><path opacity=".3" d="M5.901 2.9h22.257v29.999H5.901z" class="msportalfx-svg-c01" fill="#ffffff"></path><path opacity=".6" d="M22.854 11H31V9h-8.146c-.445-1.664-1.951-2.9-3.754-2.9-2.151 0-3.9 1.75-3.9 3.9 0 1.766 1.188 3.245 2.801 3.723v9.554C16.388 23.755 15.2 25.234 15.2 27s1.188 3.245 2.801 3.723L18 36h1.986v-5.211A3.9 3.9 0 0 0 22.854 28H31v-2h-8.146a3.896 3.896 0 0 0-2.868-2.789v-9.422A3.9 3.9 0 0 0 22.854 11z" class="msportalfx-svg-c21" fill="#00188f"></path></g><defs>
<linearGradient id="a" x1="9" y1="16.39" x2="9" y2="-1.94" gradientUnits="userSpaceOnUse"><stop offset="0" stop-color="#0078d4"></stop><stop offset=".16" stop-color="#1380da"></stop><stop offset=".53" stop-color="#3c91e5"></stop><stop offset=".82" stop-color="#559cec"></stop><stop offset="1" stop-color="#5ea0ef"></stop></linearGradient>
<linearGradient id="b" x1="9.88" y1="7.11" x2="9.99" y2="17.27" gradientUnits="userSpaceOnUse"><stop offset="0" stop-color="#32d4f5"></stop><stop offset=".32" stop-color="#31d1f3"></stop><stop offset=".53" stop-color="#2ec9eb"></stop><stop offset=".7" stop-color="#29bade"></stop><stop offset=".86" stop-color="#22a5cb"></stop><stop offset="1" stop-color="#198ab3"></stop><stop offset="1" stop-color="#198ab3"></stop></linearGradient>
<radialGradient id="c" cx="9.43" cy="7.03" r="7.27" gradientUnits="userSpaceOnUse"><stop offset="0" stop-color="#f2f2f2"></stop><stop offset=".58" stop-color="#eee"></stop><stop offset="1" stop-color="#e6e6e6"></stop></radialGradient>
</defs>
</svg>