<svg viewBox="0 0 18 18" data-islogo="true" class="" role="presentation" focusable="false" xmlns:svg="http://www.w3.org/2000/svg" xmlns:xlink="http://www.w3.org/1999/xlink" id="FxSymbol0-04f" data-type="244"><g><ellipse cx="8.96" cy="11.82" rx="7.5" ry="3.08" fill="#76bc2d"></ellipse><ellipse cx="9.15" cy="11.79" rx="2.49" ry=".68" fill="#5e9624"></ellipse><ellipse cx="8.96" cy="4.99" rx="7.5" ry="3.08" fill="url(#1b6e0a97-8883-43cf-a60c-601baf04b466)"></ellipse><ellipse cx="9.15" cy="4.95" rx="2.49" ry=".68" fill="#005ba1"></ellipse><path d="M9 14.84c4.15 0 7.5-1.38 7.5-3.08v1.82c-.14 1.65-3.44 3-7.5 3S1.5 15.2 1.5 13.5v-1.74c-.04 1.7 3.32 3.08 7.5 3.08z" fill="#5e9624"></path><path d="M9 8c4.15 0 7.5-1.38 7.5-3.08v1.82c-.14 1.65-3.44 3-7.5 3S1.5 8.36 1.5 6.66V4.92C1.46 6.62 4.82 8 9 8z" fill="#0078d4"></path></g><defs>
<linearGradient id="a" x1="9" y1="16.39" x2="9" y2="-1.94" gradientUnits="userSpaceOnUse"><stop offset="0" stop-color="#0078d4"></stop><stop offset=".16" stop-color="#1380da"></stop><stop offset=".53" stop-color="#3c91e5"></stop><stop offset=".82" stop-color="#559cec"></stop><stop offset="1" stop-color="#5ea0ef"></stop></linearGradient>
<linearGradient id="b" x1="9.88" y1="7.11" x2="9.99" y2="17.27" gradientUnits="userSpaceOnUse"><stop offset="0" stop-color="#32d4f5"></stop><stop offset=".32" stop-color="#31d1f3"></stop><stop offset=".53" stop-color="#2ec9eb"></stop><stop offset=".7" stop-color="#29bade"></stop><stop offset=".86" stop-color="#22a5cb"></stop><stop offset="1" stop-color="#198ab3"></stop><stop offset="1" stop-color="#198ab3"></stop></linearGradient>
<radialGradient id="c" cx="9.43" cy="7.03" r="7.27" gradientUnits="userSpaceOnUse"><stop offset="0" stop-color="#f2f2f2"></stop><stop offset=".58" stop-color="#eee"></stop><stop offset="1" stop-color="#e6e6e6"></stop></radialGradient>
<linearGradient id="1b6e0a97-8883-43cf-a60c-601baf04b466" x1="5.51" y1="802.5" x2="12.94" y2="810.58" gradientTransform="matrix(1 0 0 1.59 0 -1278.76)" gradientUnits="userSpaceOnUse"><stop offset="0" stop-color="#0078d4"></stop><stop offset=".02" stop-color="#0d7ed8"></stop><stop offset=".08" stop-color="#2b8ae0"></stop><stop offset=".15" stop-color="#4194e7"></stop><stop offset=".22" stop-color="#519beb"></stop><stop offset=".29" stop-color="#5b9fee"></stop><stop offset=".4" stop-color="#5ea0ef"></stop><stop offset=".55" stop-color="#5b9fee"></stop><stop offset=".68" stop-color="#509aeb"></stop><stop offset=".8" stop-color="#3f92e6"></stop><stop offset=".91" stop-color="#2688df"></stop><stop offset=".99" stop-color="#127fd9"></stop></linearGradient>
</defs>
</svg>