<svg viewBox="0 0 50 50" class="" role="presentation" focusable="false" xmlns:svg="http://www.w3.org/2000/svg" xmlns:xlink="http://www.w3.org/1999/xlink" id="FxSymbol0-0e2" data-type="1"><g><title></title><path d="M1 8v33a1 1 0 0 0 1 1h13c3.956 0 5.331 1.057 5.787 1.634.186.236.47.366.771.366h5.885c.301 0 .584-.13.771-.366C28.669 43.057 30.044 42 34 42h13a1 1 0 0 0 1-1V8a1 1 0 0 0-1-1H2a1 1 0 0 0-1 1z" class="msportalfx-svg-c19" fill="#0072c6"></path><path d="M5 10h39v29H5z" class="msportalfx-svg-c02" fill="#e5e5e5"></path><path d="M45.646 9.176c-.198-.167-4.91-4.076-12.004-4.076-5.685 0-8.224 3.052-9.142 4.582-.918-1.53-3.457-4.582-9.142-4.582-7.094 0-11.806 3.909-12.004 4.076L3 9.475v29.749h43V9.475l-.354-.299z" class="msportalfx-svg-c04" fill="#7a7a7a"></path><path d="M15.472 6.1C8.593 6.1 4 9.94 4 9.94V38s6.172-1.246 11.543-1.246C19.871 36.754 24.2 39 24.2 39V10.888S22.357 6.1 15.472 6.1zm18.056 0C40.407 6.1 45 9.94 45 9.94V38s-6.172-1.246-11.543-1.246C29.129 36.754 24.8 39 24.8 39V10.888S26.643 6.1 33.528 6.1z" class="msportalfx-svg-c02" fill="#e5e5e5"></path><path opacity=".2" d="M13 7.27c-4.082.57-7.02 2.456-8 3.163v26.362c1.649-.292 4.771-.777 8-.962V7.27zm21-.16c-.12-.003-.237-.01-.358-.01-5.415 0-7.283 3.249-7.642 3.997v26.349c1.687-.698 4.605-1.69 7.571-1.69.142 0 .286.007.429.008V7.11z" class="msportalfx-svg-c01" fill="#ffffff"></path><path opacity=".4" fill="#231F20" d="M6 12.227a19.008 19.008 0 0 1 9.358-2.075c3.115.119 5.235 1.149 6.642 2.284v1.343c-1.222-1.208-3.292-2.499-6.642-2.627-4.17-.159-7.487 1.212-9.358 2.236v-1.161zm0 4a19.008 19.008 0 0 1 9.358-2.075c3.115.119 5.235 1.149 6.642 2.284v1.343c-1.222-1.208-3.292-2.499-6.642-2.627-4.17-.159-7.487 1.212-9.358 2.236v-1.161zm0 4a19.008 19.008 0 0 1 9.358-2.075c3.115.119 5.235 1.149 6.642 2.284v1.343c-1.222-1.208-3.292-2.499-6.642-2.627-4.17-.159-7.487 1.212-9.358 2.236v-1.161zm0 4a19.008 19.008 0 0 1 9.358-2.075c3.115.119 5.235 1.149 6.642 2.284v1.343c-1.222-1.208-3.292-2.499-6.642-2.627-4.17-.159-7.487 1.212-9.358 2.236v-1.161zm0 4a19.008 19.008 0 0 1 9.358-2.075c3.115.119 5.235 1.149 6.642 2.284v1.343c-1.222-1.208-3.292-2.499-6.642-2.627-4.17-.159-7.487 1.212-9.358 2.236v-1.161zm0 4a19.008 19.008 0 0 1 9.358-2.075c3.115.119 5.235 1.149 6.642 2.284v1.343c-1.222-1.208-3.292-2.499-6.642-2.627-4.17-.159-7.487 1.212-9.358 2.236v-1.161zm37-20a19.008 19.008 0 0 0-9.358-2.075c-3.115.119-5.235 1.149-6.642 2.284v1.343c1.222-1.208 3.292-2.499 6.642-2.627 4.17-.159 7.487 1.212 9.358 2.236v-1.161zm0 4a19.008 19.008 0 0 0-9.358-2.075c-3.115.119-5.235 1.149-6.642 2.284v1.343c1.222-1.208 3.292-2.499 6.642-2.627 4.17-.159 7.487 1.212 9.358 2.236v-1.161zm0 4a19.008 19.008 0 0 0-9.358-2.075c-3.115.119-5.235 1.149-6.642 2.284v1.343c1.222-1.208 3.292-2.499 6.642-2.627 4.17-.159 7.487 1.212 9.358 2.236v-1.161zm0 4a19.008 19.008 0 0 0-9.358-2.075c-3.115.119-5.235 1.149-6.642 2.284v1.343c1.222-1.208 3.292-2.499 6.642-2.627 4.17-.159 7.487 1.212 9.358 2.236v-1.161zM40 27c-1.557-.396-4.357-.925-6.358-.848-3.115.119-5.235 1.149-6.642 2.284v1.343c1.222-1.208 3.292-2.499 6.642-2.627a17.673 17.673 0 0 1 5.358.629L40 27z"></path><path opacity=".2" d="M13 7.27c-4.082.57-7.02 2.456-8 3.163v26.362c1.649-.292 4.771-.777 8-.962V7.27zm21-.16c-.12-.003-.237-.01-.358-.01-5.415 0-7.283 3.249-7.642 3.997v26.349c1.687-.698 4.605-1.69 7.571-1.69.142 0 .286.007.429.008V7.11z" class="msportalfx-svg-c01" fill="#ffffff"></path></g><defs>
</defs>
</svg>