<svg viewBox="0 0 352 273" class="" role="presentation" focusable="false" xmlns="http://www.w3.org/2000/svg" xmlns:xlink="http://www.w3.org/1999/xlink" id="FxSymbol0-0fb" data-type="1"><g><title></title><path d="M282.769 132.323H71.211v95.269c0 24.751 47.34 44.984 106.859 44.984 59.519 0 106.86-19.644 106.86-44.984l-2.161-95.269Z" fill="#773ADC"></path><path d="M163.728 1.894 6.583 82.234A13.947 13.947 0 0 0 1.672 100.7a12.178 12.178 0 0 0 4.91 5.5l157.146 68.359a18.275 18.275 0 0 0 14.34 0l166.575-68.752a14.141 14.141 0 0 0 5.5-18.464 12.377 12.377 0 0 0-5.5-5.893L178.461 1.5a16.894 16.894 0 0 0-14.733.393Z" fill="url(#94a115a1-5689-4c39-bee0-5c63fda4a151)"></path><path d="M310.074 159.826a24.759 24.759 0 0 0-4.518-10.214 101.954 101.954 0 0 0-49.501-43.805l-68.359-28.482-21.804 15.518 68.752 29.268a99.198 99.198 0 0 1 53.429 52.251 154.706 154.706 0 0 1 5.5 33.001l16.501-47.537Zm-13.358 47.537 8.25-16.304 10.411 13.357h1.965a98.218 98.218 0 0 0-7.465-44.59l-13.161 47.537Z" fill="#50E6FF"></path><path d="M174.533 99.719c14.538 0 26.322-5.98 26.322-13.358 0-7.377-11.784-13.357-26.322-13.357-14.537 0-26.322 5.98-26.322 13.357 0 7.377 11.785 13.358 26.322 13.358Z" fill="#552F99"></path><defs></defs></g><defs>
<linearGradient id="94a115a1-5689-4c39-bee0-5c63fda4a151" x1="175.711" y1="-58.018" x2="175.711" y2="212.666" gradientUnits="userSpaceOnUse"><stop offset=".13" stop-color="#773ADC"></stop><stop offset=".23" stop-color="#8249E2"></stop><stop offset=".43" stop-color="#9664EC"></stop><stop offset=".6" stop-color="#A274F2"></stop><stop offset=".74" stop-color="#A67AF4"></stop></linearGradient>
</defs>
</svg>