<svg viewBox="0 0 18 18" class="" role="presentation" focusable="false" xmlns:svg="http://www.w3.org/2000/svg" xmlns:xlink="http://www.w3.org/1999/xlink" id="FxSymbol0-0bb" data-type="1"><g><title></title><defs><clipPath id="b36c7b72-34c8-47c6-ac8b-a96783f174f2"><circle cx="13.26" cy="13.27" r="4.16" fill="none"></circle></clipPath></defs><title>Icon-identity-225</title><path d="M5.61 10.65h4.33V15H5.61zm-5-5.76h4.28V.57H1.17a.6.6 0 0 0-.6.6zM1.17 15h3.72v-4.35H.57v3.72a.6.6 0 0 0 .6.63zm-.6-5h4.32V5.61H.57zm10.09 5h3.72a.6.6 0 0 0 .6-.6v-3.75h-4.32zm-5-5h4.28V5.61H5.61zm5.05 0H15V5.61h-4.34zm0-9.36v4.25H15V1.17a.6.6 0 0 0-.6-.6zm-5 4.32h4.23V.57H5.61z" fill="url(#b715ec20-95db-414c-982b-71456fb0c9ab)"></path><path d="M10.66 15h4.15a.59.59 0 0 1-.18-.29h-4z" opacity=".95" fill="url(#f7e46209-f134-49aa-a850-2e9a1b04fba6)"></path><circle cx="13.26" cy="13.27" r="4.16" fill="#32bedd"></circle><g clip-path="url(#b36c7b72-34c8-47c6-ac8b-a96783f174f2)" fill="#b4ec36"><path d="M17.06 13.87c-.21.11-.51.05-.65.16a1.6 1.6 0 0 0-.63.66c0 .06 0 .15-.07.18-.28.19-.56.39-.3.81-.3 0-.2-.27-.34-.35a.77.77 0 0 0-1.06.54.34.34 0 0 0 .16.37.26.26 0 0 0 .36-.12.18.18 0 0 1 .26-.06c0 .16-.28.45.18.46.12 0 .09.14.06.23s.06.24.19.3 0 0 0 .05c-.37 0-.45-.45-.81-.5a4.28 4.28 0 0 1-.43-.14c-.27-.09-.58-.14-.64-.54a.77.77 0 0 0-.36-.49c-.12-.08-.19-.23-.31-.32a1 1 0 0 0-.22-.36.94.94 0 0 1-.14-.87 2.32 2.32 0 0 0-.1-1.68c-.1-.32-.12-.65-.48-.86s-.3.12-.44.05-.22.13-.26.15c-.29.08-.54.33-.91.29.14-.07.25-.11.35-.17s.29-.14.07-.38-.14-.59.45-.83c-.05-.14-.41-.11-.25-.37s.28-.13.43 0c.1-.19-.12-.43.05-.54a2.86 2.86 0 0 1 .72-.29.25.25 0 0 1 .34.11c.18.28.54.33.72.61.05.09.15 0 .22 0 .41-.14.68.12 1 .33s.27.34.53.31a.49.49 0 0 1 .21 0c.16.07.31.11.43-.06a.3.3 0 0 0 .26-.23c.06-.09.09-.22.24-.16A1.15 1.15 0 0 0 16 11c.13-.1.26-.16.11-.39a.37.37 0 0 1 .25-.56.54.54 0 0 1 .63.23c.19.34.25.73.47 1 .07.09 0 .13 0 .2s-.18 0-.28-.06l.07.43a.66.66 0 0 1-.82-.25c0-.12 0-.17.12-.23s.19-.11.19-.24a.19.19 0 0 0-.1-.2c-.08 0-.13 0-.15.09s-.33.25-.28.53-.19.22-.33.14c-.33-.17-.45.13-.59.29s0 .34.16.46.31.21.37.4a.88.88 0 0 0 .29-.58c0-.18.07-.43.32-.46a.43.43 0 0 1 .44.28c.05.11.13.12.23.13a8.79 8.79 0 0 1 .54 1.52l-.37-.05c0-.29-.25-.16-.39-.22-.04.18.19.23.18.41z"></path><path d="M15.62 10.27c-.13-.12-.27-.23-.06-.4s.2-.29.3 0a.37.37 0 0 1-.24.4zm.31-.4c.11-.11.25-.1.27 0s-.13.19-.26.23-.09-.1-.01-.23zm-.77-.93l-.35.06c0-.25.25-.27.42-.23s-.02.12-.07.17z"></path></g></g><defs>
<linearGradient id="b715ec20-95db-414c-982b-71456fb0c9ab" x1="-6784.85" y1="1118.78" x2="-6784.85" y2="1089.98" gradientTransform="matrix(.5 0 0 -.5 3400.41 559.99)" gradientUnits="userSpaceOnUse"><stop offset="0" stop-color="#5ea0ef"></stop><stop offset=".18" stop-color="#589eed"></stop><stop offset=".41" stop-color="#4897e9"></stop><stop offset=".66" stop-color="#2e8ce1"></stop><stop offset=".94" stop-color="#0a7cd7"></stop><stop offset="1" stop-color="#0078d4"></stop></linearGradient>
<linearGradient id="f7e46209-f134-49aa-a850-2e9a1b04fba6" x1="-1.47" y1="14.91" x2="17.16" y2="14.8" gradientUnits="userSpaceOnUse"><stop offset="0" stop-color="#449cdd" stop-opacity=".15"></stop><stop offset=".16" stop-color="#2870ab" stop-opacity="0"></stop><stop offset=".18" stop-color="#2469a3" stop-opacity=".06"></stop><stop offset=".23" stop-color="#1a5991" stop-opacity=".19"></stop><stop offset=".28" stop-color="#144f86" stop-opacity=".27"></stop><stop offset=".34" stop-color="#124c82" stop-opacity=".3"></stop><stop offset=".76" stop-color="#002851" stop-opacity=".35"></stop><stop offset=".9" stop-color="#2f7ab6" stop-opacity="0"></stop><stop offset="1" stop-color="#449cdd" stop-opacity="0"></stop></linearGradient>
</defs>
</svg>