<svg viewBox="0 0 50 50" class="" role="presentation" focusable="false" xmlns:svg="http://www.w3.org/2000/svg" xmlns:xlink="http://www.w3.org/1999/xlink" id="FxSymbol0-0b3" data-type="1"><g><title></title><path d="M3.167 13h22.667v4H3.167zm5 10h25.667v4H8.167zm-5 10h22.667v4H3.167z" class="msportalfx-svg-c19" fill="#0072c6"></path><circle cx="4" cy="35" r="3.9" class="msportalfx-svg-c13" fill="#b8d432"></circle><ellipse transform="rotate(-45.001 4 15)" cx="4" cy="15" rx="3.9" ry="3.9" class="msportalfx-svg-c13" fill="#b8d432"></ellipse><ellipse transform="rotate(-45.001 9 25)" cx="9" cy="25" rx="3.9" ry="3.9" class="msportalfx-svg-c15" fill="#59b4d9"></ellipse><path d="M24 20V10l8 5zm0 20V30l8 5zm8-10V20l8 5zm17.2 8.6h-4.8c-.5 0-.8.3-.8.8v4H7V50h42.2c.5 0 .8-.3.8-.8v-9.8c0-.5-.3-.8-.8-.8zM49.281 0H7v6.7h36.381v4.2c0 .5.3.8 1 .8h4.8c.5 0 .8-.3.8-.8V.9c.1-.6-.2-.9-.7-.9z" class="msportalfx-svg-c19" fill="#0072c6"></path></g><defs>
<linearGradient id="a" x1="9" y1="16.39" x2="9" y2="-1.94" gradientUnits="userSpaceOnUse"><stop offset="0" stop-color="#0078d4"></stop><stop offset=".16" stop-color="#1380da"></stop><stop offset=".53" stop-color="#3c91e5"></stop><stop offset=".82" stop-color="#559cec"></stop><stop offset="1" stop-color="#5ea0ef"></stop></linearGradient>
<linearGradient id="b" x1="9.88" y1="7.11" x2="9.99" y2="17.27" gradientUnits="userSpaceOnUse"><stop offset="0" stop-color="#32d4f5"></stop><stop offset=".32" stop-color="#31d1f3"></stop><stop offset=".53" stop-color="#2ec9eb"></stop><stop offset=".7" stop-color="#29bade"></stop><stop offset=".86" stop-color="#22a5cb"></stop><stop offset="1" stop-color="#198ab3"></stop><stop offset="1" stop-color="#198ab3"></stop></linearGradient>
<radialGradient id="c" cx="9.43" cy="7.03" r="7.27" gradientUnits="userSpaceOnUse"><stop offset="0" stop-color="#f2f2f2"></stop><stop offset=".58" stop-color="#eee"></stop><stop offset="1" stop-color="#e6e6e6"></stop></radialGradient>
</defs>
</svg>