<svg viewBox="0 0 18 18" class="" role="presentation" focusable="false" xmlns="http://www.w3.org/2000/svg" xmlns:xlink="http://www.w3.org/1999/xlink" id="FxSymbol0-0eb" data-type="1"><g><title>Icon-integration-206</title><g fill="#a3a3a3"><path d="M1.06 1.42h1.29V5a.29.29 0 0 1-.29.29H.77A.29.29 0 0 1 .48 5V2a.57.57 0 0 1 .58-.58z"></path><path d="M1.06 1.42h1.29V5a.29.29 0 0 1-.29.29H.77A.29.29 0 0 1 .48 5V2a.57.57 0 0 1 .58-.58z" opacity=".5"></path></g><g fill="#a3a3a3"><path d="M15.65 1.42h1.29a.57.57 0 0 1 .57.57V5a.29.29 0 0 1-.29.29h-1.28a.29.29 0 0 1-.29-.29V1.42z"></path><path d="M15.65 1.42h1.29a.57.57 0 0 1 .57.57V5a.29.29 0 0 1-.29.29h-1.28a.29.29 0 0 1-.29-.29V1.42z" opacity=".5"></path></g><path d="M17.51 1.98v1.25h-17V1.98a.57.57 0 0 1 .57-.57h15.86a.57.57 0 0 1 .57.57z" fill="#949494"></path><g fill="#a3a3a3"><path d="M.77 12.69h1.29a.29.29 0 0 1 .29.29v3.61H1.06A.57.57 0 0 1 .48 16v-3a.29.29 0 0 1 .29-.31z"></path><path d="M.77 12.69h1.29a.29.29 0 0 1 .29.29v3.61H1.06A.57.57 0 0 1 .48 16v-3a.29.29 0 0 1 .29-.31z" opacity=".5"></path></g><g fill="#a3a3a3"><path d="M15.94 12.69h1.29a.29.29 0 0 1 .29.29v3a.57.57 0 0 1-.57.57h-1.3V13a.29.29 0 0 1 .29-.31z"></path><path d="M15.94 12.69h1.29a.29.29 0 0 1 .29.29v3a.57.57 0 0 1-.57.57h-1.3V13a.29.29 0 0 1 .29-.31z" opacity=".5"></path></g><path d="M.48 16.02v-1.25h17v1.25a.57.57 0 0 1-.57.57H1.05a.57.57 0 0 1-.57-.57z" fill="#949494"></path><path d="M14.91 8.84L13.09 7a.09.09 0 0 0-.16.07V8.2a.09.09 0 0 1-.1.1H7.59a1.05 1.05 0 0 0-.83-.41 1.1 1.1 0 1 0 0 2.19 1.08 1.08 0 0 0 .84-.42h5.23a.09.09 0 0 1 .1.09v1.11a.09.09 0 0 0 .16.06l1.82-1.81a.2.2 0 0 0 0-.27z" fill="#6f4bb2"></path><path d="M11.55 5.59L9.73 3.78a.09.09 0 0 0-.16.07V5a.09.09 0 0 1-.09.1H6.2a1.07 1.07 0 0 0-.84-.41 1.1 1.1 0 1 0 .85 1.77h3.27a.09.09 0 0 1 .09.09v1.06a.09.09 0 0 0 .16.06l1.82-1.81a.2.2 0 0 0 0-.27z" fill="url(#c271a9f9-5c81-4b93-a97f-0500911812e7)"></path><path d="M11.55 12.15l-1.82-1.81a.09.09 0 0 0-.16.07v1.1a.1.1 0 0 1-.09.1H6.2a1.07 1.07 0 0 0-.84-.41 1.1 1.1 0 1 0 .85 1.8h3.27a.09.09 0 0 1 .09.09v1.11a.09.09 0 0 0 .16.06l1.82-1.81a.2.2 0 0 0 0-.3z" fill="url(#60856305-a21f-4ab3-afb2-c15c83e7d74c)"></path></g><defs>
<linearGradient id="c271a9f9-5c81-4b93-a97f-0500911812e7" x1="7.94" y1="7.7" x2="7.94" y2="3.75" gradientUnits="userSpaceOnUse"><stop offset="0" stop-color="#50e6ff"></stop><stop offset="1" stop-color="#5ea0ef"></stop></linearGradient>
<linearGradient id="60856305-a21f-4ab3-afb2-c15c83e7d74c" x1="7.94" y1="14.26" x2="7.94" y2="10.31" gradientUnits="userSpaceOnUse"><stop offset="0" stop-color="#50e6ff"></stop><stop offset="1" stop-color="#5ea0ef"></stop></linearGradient>
</defs>
</svg>