<svg viewBox="0 0 18 18" data-islogo="true" class="" role="presentation" focusable="false" xmlns:svg="http://www.w3.org/2000/svg" xmlns:xlink="http://www.w3.org/1999/xlink" id="FxSymbol0-097" data-type="1"><g><title></title><title>Icon-analytics-144</title><path d="M10.83 8.42a.26.26 0 0 1-.24.27H8.5a.26.26 0 0 1-.27-.24V6.89a.26.26 0 0 1 .24-.27h2.09a.26.26 0 0 1 .27.24v1.56zM14.54 10a.26.26 0 0 1-.24.27h-2.09a.26.26 0 0 1-.27-.24V8.48a.26.26 0 0 1 .24-.27h2.09a.26.26 0 0 1 .27.24V10zm-3.71 1.6a.26.26 0 0 1-.24.27H8.5a.26.26 0 0 1-.27-.24v-1.56a.26.26 0 0 1 .24-.27h2.09a.26.26 0 0 1 .27.24v1.56z" fill="#76bc2d"></path><path d="M7.12 6.84a.25.25 0 0 1-.23.26H4.74a.26.26 0 0 1-.27-.23V5.25A.26.26 0 0 1 4.71 5H6.8c.22 0 .32.11.32.27z" fill="#86d633"></path><path d="M7.12 10a.25.25 0 0 1-.23.27H4.74a.26.26 0 0 1-.27-.27V8.42a.26.26 0 0 1 .24-.26H6.8c.22 0 .32.11.32.26zm0 3.19a.25.25 0 0 1-.23.27H4.74a.26.26 0 0 1-.27-.24V11.6a.25.25 0 0 1 .24-.26H6.8c.22 0 .32.1.32.26z" fill="#76bc2d"></path><g fill="#999"><path d="M1.07 1.51h1.29v3.6a.29.29 0 0 1-.29.29H.79a.29.29 0 0 1-.29-.29v-3a.57.57 0 0 1 .57-.6z"></path><path d="M1.07 1.51h1.29v3.6a.29.29 0 0 1-.29.29H.79a.29.29 0 0 1-.29-.29v-3a.57.57 0 0 1 .57-.6z" opacity=".5"></path></g><g fill="#999"><path d="M15.64 1.51h1.29a.57.57 0 0 1 .57.57v3a.29.29 0 0 1-.29.29h-1.29a.29.29 0 0 1-.29-.29V1.51h.01z"></path><path d="M15.64 1.51h1.29a.57.57 0 0 1 .57.57v3a.29.29 0 0 1-.29.29h-1.29a.29.29 0 0 1-.29-.29V1.51h.01z" opacity=".5"></path></g><path d="M17.5 2.08v1.25H.5V2.08a.57.57 0 0 1 .57-.57h15.87a.57.57 0 0 1 .56.57z" fill="#949494"></path><g fill="#999"><path d="M.79 12.76h1.29a.29.29 0 0 1 .29.29v3.6h-1.3a.57.57 0 0 1-.57-.57V13a.29.29 0 0 1 .29-.24z"></path><path d="M.79 12.76h1.29a.29.29 0 0 1 .29.29v3.6h-1.3a.57.57 0 0 1-.57-.57V13a.29.29 0 0 1 .29-.24z" opacity=".5"></path></g><g fill="#999"><path d="M15.92 12.76h1.29a.29.29 0 0 1 .29.29v3a.57.57 0 0 1-.57.57h-1.29V13a.29.29 0 0 1 .28-.24z"></path><path d="M15.92 12.76h1.29a.29.29 0 0 1 .29.29v3a.57.57 0 0 1-.57.57h-1.29V13a.29.29 0 0 1 .28-.24z" opacity=".5"></path></g><path d="M.5 16.08v-1.25h17v1.25a.57.57 0 0 1-.57.57H1.07a.57.57 0 0 1-.57-.57z" fill="#949494"></path></g><defs>
</defs>
</svg>