<svg viewBox="0 0 50 50" class="" role="presentation" focusable="false" xmlns:svg="http://www.w3.org/2000/svg" xmlns:xlink="http://www.w3.org/1999/xlink" id="FxSymbol0-0ac" data-type="1"><g><title></title><path d="M39 22v-2H24.004l-.008-.004L16.991 27H11.82l12-12H32v-2h-9v.005L22.992 13 8.991 27H7v2h6l7 6.999V36h17v-2H20.828l-4.999-5H28v-2h-8.18l5-5z" class="msportalfx-svg-c19" fill="#0072c6"></path><circle cx="30" cy="28" r="2.9" class="msportalfx-svg-c15" fill="#59b4d9"></circle><ellipse transform="rotate(-45.001 33 14)" cx="33" cy="14" rx="2.9" ry="2.9" class="msportalfx-svg-c15" fill="#59b4d9"></ellipse><ellipse transform="rotate(-45.001 40 21)" cx="40" cy="21" rx="2.9" ry="2.9" class="msportalfx-svg-c13" fill="#b8d432"></ellipse><ellipse transform="rotate(-45.001 37 35)" cx="37" cy="35" rx="2.9" ry="2.9" class="msportalfx-svg-c13" fill="#b8d432"></ellipse><path d="M.801 0C.3 0 0 .3 0 .8v10c0 .5.3.8.801.8h5.008c.501 0 .801-.3.801-.8V6.7h36.76v4.2c0 .5.3.8 1.002.8h4.808c.501 0 .801-.3.801-.8V.9c.1-.6-.2-.9-.701-.9H.801zM49.2 50c.5 0 .8-.3.8-.8v-9.8c0-.5-.3-.8-.8-.8h-4.8c-.5 0-.8.3-.8.8v4H6.7v-4.2c0-.5-.3-.8-1-.8H.8c-.5 0-.8.3-.8 1v9.8c0 .5.3.8.8.8h48.4z" class="msportalfx-svg-c19" fill="#0072c6"></path></g><defs>
<linearGradient id="a" x1="9" y1="16.39" x2="9" y2="-1.94" gradientUnits="userSpaceOnUse"><stop offset="0" stop-color="#0078d4"></stop><stop offset=".16" stop-color="#1380da"></stop><stop offset=".53" stop-color="#3c91e5"></stop><stop offset=".82" stop-color="#559cec"></stop><stop offset="1" stop-color="#5ea0ef"></stop></linearGradient>
<linearGradient id="b" x1="9.88" y1="7.11" x2="9.99" y2="17.27" gradientUnits="userSpaceOnUse"><stop offset="0" stop-color="#32d4f5"></stop><stop offset=".32" stop-color="#31d1f3"></stop><stop offset=".53" stop-color="#2ec9eb"></stop><stop offset=".7" stop-color="#29bade"></stop><stop offset=".86" stop-color="#22a5cb"></stop><stop offset="1" stop-color="#198ab3"></stop><stop offset="1" stop-color="#198ab3"></stop></linearGradient>
<radialGradient id="c" cx="9.43" cy="7.03" r="7.27" gradientUnits="userSpaceOnUse"><stop offset="0" stop-color="#f2f2f2"></stop><stop offset=".58" stop-color="#eee"></stop><stop offset="1" stop-color="#e6e6e6"></stop></radialGradient>
</defs>
</svg>