<svg viewBox="0 0 50 50" class="fxs-portal-svg" role="presentation" focusable="false" xmlns:svg="http://www.w3.org/2000/svg" xmlns:xlink="http://www.w3.org/1999/xlink" id="FxSymbol0-035" data-type="291"><g><title></title><path d="M36.4 0H17.6l-8 25.2c-.2.6.1 1 .7 1h8.8c.3 0 .5.1.6.2.2.2.2.5.1.8l-9.1 22.1c-.2.6-.1.7.3.2L40.1 17c.4-.5.2-.9-.4-.9H28.5c-.6 0-.9-.4-.6-1L36.4 0z" class="msportalfx-svg-c11" fill="#fcd116"></path><path opacity=".3" d="M39.7 16.1h-5.8L12.3 48.5 40.1 17c.4-.5.3-.9-.4-.9zM36.4 0h-5.5l-7.8 16.1h5.2c-.5-.1-.7-.5-.4-1L36.4 0z" class="msportalfx-svg-c10" fill="#ff8c00"></path></g><defs>
<linearGradient id="a" x1="9" y1="17.86" x2="9" y2="4.06" gradientUnits="userSpaceOnUse"><stop offset="0" stop-color="#0078d4"></stop><stop offset=".16" stop-color="#1380da"></stop><stop offset=".53" stop-color="#3c91e5"></stop><stop offset=".82" stop-color="#559cec"></stop><stop offset="1" stop-color="#5ea0ef"></stop></linearGradient>
<linearGradient id="b" x1="6.4" y1="1.32" x2="7.21" y2="11.39"><stop offset=".22" stop-color="#32d4f5"></stop><stop offset=".47" stop-color="#31d1f3"></stop><stop offset=".63" stop-color="#2ec9eb"></stop><stop offset=".77" stop-color="#29bade"></stop><stop offset=".89" stop-color="#22a5cb"></stop><stop offset="1" stop-color="#198ab3"></stop><stop offset="1" stop-color="#198ab3"></stop></linearGradient>
<linearGradient id="c" x1="13.76" y1="18.05" x2="13.76" y2="10.25" gradientUnits="userSpaceOnUse"><stop offset="0" stop-color="#76bc2d"></stop><stop offset=".6" stop-color="#81ce31"></stop><stop offset=".82" stop-color="#86d633"></stop></linearGradient>
</defs>
</svg>