<svg viewBox="0 0 50 50" class="fxs-portal-svg" role="presentation" focusable="false" xmlns:svg="http://www.w3.org/2000/svg" xmlns:xlink="http://www.w3.org/1999/xlink" id="FxSymbol0-11b" data-type="20"><g><title></title><path d="M32.426 38.534H18.83c1.634 5.768-.561 6.595-10.175 6.595v3.02h32.692v-3.02c-9.614 0-10.557-.824-8.921-6.595" class="msportalfx-svg-c04" fill="#7a7a7a"></path><path d="M46.98 2H2.718C1.214 2 .001 3.345.001 4.847v30.866c0 1.493 1.213 2.823 2.717 2.823H46.98c1.501 0 3.021-1.33 3.021-2.823V4.847C50.001 3.341 48.481 2 46.98 2" class="msportalfx-svg-c03" fill="#a0a1a2"></path><path opacity=".2" d="M47.011 2.003l-.031-.002H2.717C1.213 2.001 0 3.345 0 4.848v30.865c0 1.494 1.213 2.824 2.717 2.824H3.77L47.011 2.003z" class="msportalfx-svg-c01" fill="#ffffff"></path><path d="M46.212 5.848v28.841H3.79V5.848l42.422-.062z" class="msportalfx-svg-c15" fill="#59b4d9"></path><path d="M26.43 20.575l6.903-6.548v3.553l-8.33 8.751-8.337-8.72v-3.542l6.866 6.506V6.977h2.898zm-8.652 8.605h14.445v3.333H17.778z" class="msportalfx-svg-c01" fill="#ffffff"></path><path d="M8.655 45.128h32.692v3.021H8.655z" class="msportalfx-svg-c03" fill="#a0a1a2"></path><path d="M25.518 4.095a.71.71 0 1 1-1.42 0 .71.71 0 0 1 1.42 0" class="msportalfx-svg-c13" fill="#b8d432"></path></g><defs>
<linearGradient id="a" x1="9" y1="16.39" x2="9" y2="-1.94" gradientUnits="userSpaceOnUse"><stop offset="0" stop-color="#0078d4"></stop><stop offset=".16" stop-color="#1380da"></stop><stop offset=".53" stop-color="#3c91e5"></stop><stop offset=".82" stop-color="#559cec"></stop><stop offset="1" stop-color="#5ea0ef"></stop></linearGradient>
<linearGradient id="b" x1="9.88" y1="7.11" x2="9.99" y2="17.27" gradientUnits="userSpaceOnUse"><stop offset="0" stop-color="#32d4f5"></stop><stop offset=".32" stop-color="#31d1f3"></stop><stop offset=".53" stop-color="#2ec9eb"></stop><stop offset=".7" stop-color="#29bade"></stop><stop offset=".86" stop-color="#22a5cb"></stop><stop offset="1" stop-color="#198ab3"></stop><stop offset="1" stop-color="#198ab3"></stop></linearGradient>
<radialGradient id="c" cx="9.43" cy="7.03" r="7.27" gradientUnits="userSpaceOnUse"><stop offset="0" stop-color="#f2f2f2"></stop><stop offset=".58" stop-color="#eee"></stop><stop offset="1" stop-color="#e6e6e6"></stop></radialGradient>
</defs>
</svg>