<svg viewBox="0 0 18 18" class="" role="presentation" focusable="false" xmlns="http://www.w3.org/2000/svg" xmlns:xlink="http://www.w3.org/1999/xlink" id="FxSymbol0-115" data-type="1"><g><path fill="#773adc" d="M4.894 3.468l1.156.667-3.207 5.556-1.156-.668zm1.164.774l1.157-.668 3.207 5.556-1.156.667zM9.212 9.8v1.335H2.797V9.8z"></path><circle cx="6.124" cy="2.649" r="1.626" fill="#86d633"></circle><circle cx="1.626" cy="10.564" r="1.626" fill="#86d633"></circle><circle cx="12.284" cy="11.348" r="5.325" class="msportalfx-svg-c01" fill="#ffffff"></circle><path d="M9.853 12.725a.3.3 0 0 1-.212-.512l1.128-1.127a.3.3 0 1 1 .424.423l-1.128 1.128a.3.3 0 0 1-.212.088zm.833.833a.3.3 0 0 1-.212-.512l1.126-1.127a.3.3 0 1 1 .424.424L10.9 13.471a.3.3 0 0 1-.214.087zm.825.825a.3.3 0 0 1-.212-.511l1.127-1.128a.3.3 0 1 1 .425.424L11.724 14.3a.3.3 0 0 1-.213.083zm.413-3.729a.3.3 0 0 1-.212-.511l1.128-1.128a.3.3 0 0 1 .424.424l-1.128 1.127a.3.3 0 0 1-.212.088zm.833.833a.3.3 0 0 1-.212-.511l1.127-1.128a.3.3 0 1 1 .425.424L12.97 11.4a.3.3 0 0 1-.213.087zm.825.825a.3.3 0 0 1-.212-.512l1.13-1.128a.3.3 0 0 1 .424.425l-1.128 1.128a.3.3 0 0 1-.214.087z" fill="#773adc"></path><path d="M9.62 12.022a.3.3 0 0 0-.425 0L7.27 13.947a5.717 5.717 0 0 0 2.947 2.634l1.769-1.768a.3.3 0 0 0 0-.426z" fill="#a67af4"></path><path d="M14.973 6.249L12.78 8.442a.3.3 0 0 0 0 .425l2.366 2.366a.3.3 0 0 0 .425 0L17.606 9.2a5.713 5.713 0 0 0-2.633-2.951z" fill="#b796f9"></path><path d="M12.3 6.335a4.946 4.946 0 1 1-4.946 4.946A4.952 4.952 0 0 1 12.3 6.335m0-.75a5.7 5.7 0 1 0 5.7 5.7 5.7 5.7 0 0 0-5.7-5.7z" fill="url(#8508916053961002)"></path></g><defs>
<linearGradient id="8508916053961002" x1="13.119" y1="5.643" x2="11.489" y2="16.919" gradientUnits="userSpaceOnUse"><stop offset="0" stop-color="#a67af4"></stop><stop offset="1" stop-color="#773adc"></stop></linearGradient>
</defs>
</svg>