<svg viewBox="0 0 34 34" class="" role="presentation" focusable="false" xmlns:svg="http://www.w3.org/2000/svg" xmlns:xlink="http://www.w3.org/1999/xlink" id="FxSymbol0-0ed" data-type="1"><g><title></title><g clip-path="url(#clip0)"><path d="M11.333 19.984v-3.683h19.55V5.874a1.209 1.209 0 0 0-1.209-1.208H1.21A1.209 1.209 0 0 0 0 5.874v14.64a1.209 1.209 0 0 0 1.209 1.208H17v-1.738h-5.667zm3.495-4.873H6.46v-3.778h8.368v3.778zm9.728 0h-8.444v-3.778h8.444v3.778zm4.892 0h-3.551v-3.778h3.475l.076 3.778zm-8.444-8.745h8.368v3.777h-8.368V6.366zm-9.67 0H19.7v3.777h-8.368V6.366zm-9.634 0h8.387v3.777H1.7V6.366zm0 4.967h3.494v3.778H1.7v-3.778zm8.387 8.651H1.7v-3.683h8.387v3.683z" fill="#821010"></path><path d="M10.068 6.366H1.7v3.702h8.368V6.366z" fill="#E62323"></path><path d="M19.72 6.366h-8.368v3.702h8.368V6.366z" fill="#FF7381"></path><path d="M29.372 6.366h-8.367v3.702h8.367V6.366zM5.176 11.333H1.7v3.703h3.476v-3.703z" fill="#E62323"></path><path d="M29.372 11.333h-3.475v3.703h3.475v-3.703zm-14.544 0H6.46v3.703h8.368v-3.703z" fill="#FF7381"></path><path d="M24.48 11.333h-8.368v3.703h8.368v-3.703zm-14.412 4.968H1.7v3.702h8.368v-3.702z" fill="#E62323"></path><path d="M17 16.754a.472.472 0 0 1 .491-.453h-6.158v3.683H17v-3.23z" fill="#FF7381"></path><path d="M34 16.773v1.795H17v10.275a.51.51 0 0 0 .529.491h15.885a.528.528 0 0 0 .548-.49v-12.07H34zm-15.64 4.401a.7.7 0 1 1 .699.7.717.717 0 0 1-.699-.7zm.699 6.347a.699.699 0 1 1 .699-.699.718.718 0 0 1-.7.7zm0-2.984a.717.717 0 0 1-.699-.7.699.699 0 1 1 1.398 0 .718.718 0 0 1-.7.718v-.018zm13.052 2.569c0 .132-.189.245-.415.245H21.212c-.226 0-.415-.113-.415-.245v-.662c0-.113.189-.226.415-.226h10.484c.226 0 .415.113.415.226v.662zm0-2.985c0 .132-.189.246-.415.246H21.212c-.226 0-.415-.114-.415-.246v-.585c0-.133.189-.227.415-.227h10.484c.226 0 .415.094.415.226v.586zm0-2.663c0 .132-.189.245-.415.245H21.212c-.226 0-.415-.113-.415-.245v-.586c0-.113.189-.227.415-.227h10.484c.226 0 .415.114.415.227v.586z" fill="#E6E6E6"></path><path d="M17.548 16.282a.474.474 0 0 0-.548.472v1.795h17v-1.776a.49.49 0 0 0-.51-.453H17.548v-.038zm14.147 7.027H21.212c-.227 0-.415.094-.415.226v.586c0 .132.188.246.415.246h10.483c.227 0 .416-.114.416-.246v-.585c0-.133-.189-.227-.415-.227zm0-2.663H21.212c-.227 0-.415.113-.415.226v.586c0 .132.188.245.415.245h10.483c.227 0 .416-.113.416-.245v-.586c0-.094-.189-.226-.415-.226zm0 5.647H21.212c-.227 0-.415.114-.415.227v.586c0 .132.188.245.415.245h10.483c.227 0 .416-.113.416-.245v-.662s-.189-.15-.415-.15zm-12.636-4.42a.699.699 0 1 0 0-1.397.699.699 0 0 0 0 1.397zm0 2.664a.699.699 0 1 0 0-1.398.699.699 0 0 0 0 1.398zm0 2.984a.699.699 0 1 0 0-1.398.699.699 0 0 0 0 1.398z" fill="#666"></path></g><defs><clipPath id="clip0"><path d="M0 0h34v34H0z" class="msportalfx-svg-c01" fill="#ffffff"></path></clipPath></defs></g><defs>
</defs>
</svg>