<svg viewBox="0 0 34 34" class="" role="presentation" focusable="false" xmlns:svg="http://www.w3.org/2000/svg" xmlns:xlink="http://www.w3.org/1999/xlink" id="FxSymbol0-0ec" data-type="1"><g><title></title><path d="M27.276 2.001H1.152A1.096 1.096 0 0 0 0 3.116v13.43a1.096 1.096 0 0 0 1.115 1.095h14.468v-5.288a.925.925 0 0 1 .643-.888h.245a9.236 9.236 0 0 0 6.026-2.191A4.383 4.383 0 0 1 23.8 8.8a7.555 7.555 0 0 1 1.587-.226 7.405 7.405 0 0 1 1.586.15c.49.094.963.266 1.398.51v-6.12A1.094 1.094 0 0 0 27.276 2zm-7.971 10.654v3.475h7.668v-3.475h-7.668z" fill="#821010"></path><path d="M9.293 3.55H1.606v3.4h7.687v-3.4z" fill="#E62323"></path><path d="M18.133 3.55h-7.687v3.4h7.687v-3.4z" fill="#FF7381"></path><path d="M26.992 3.55h-7.687v3.4h7.687v-3.4zM4.798 8.103H1.606v3.4h3.192v-3.4z" fill="#E62323"></path><path d="M26.973 8.103v.68a7.405 7.405 0 0 0-1.586-.208 7.556 7.556 0 0 0-1.587.151v-.623h3.173zm-13.316 0H5.969v3.4h7.688v-3.4z" fill="#FF7381"></path><path d="M22.497 8.103v1.152a9.236 9.236 0 0 1-6.026 2.191H14.81V8.103h7.688zM9.293 12.674H1.606v3.4h7.687v-3.4z" fill="#E62323"></path><path d="M15.583 12.655h-5.137v3.4h5.137v-3.4z" fill="#FF7381"></path><path d="M34 19.908c0 5.667-6.8 10.162-8.273 11.088a.604.604 0 0 1-.567 0c-1.53-.907-8.33-5.421-8.33-11.088v-6.743a.548.548 0 0 1 .529-.548c5.289-.132 4.061-2.456 8.028-2.456 3.966 0 2.739 2.324 8.027 2.456a.548.548 0 0 1 .53.548L34 19.908z" fill="#DFA500"></path><path d="M25.387 20.626V11.03c3.645 0 2.512 2.135 7.366 2.267a.491.491 0 0 1 .491.491v6.762l-7.857.076zm0 0h-7.82c.472 4.854 6.27 8.707 7.555 9.444h.227l.038-9.444z" fill="url(#paint0_linear)"></path><path d="M18.02 13.297c4.854-.132 3.778-2.267 7.367-2.267v9.596h-7.82v-6.838a.49.49 0 0 1 .453-.491zm15.187 7.329h-7.82v9.595h.208c1.36-.868 7.14-4.646 7.612-9.595z" fill="#FFD400"></path><defs></defs></g><defs>
<linearGradient id="paint0_linear" x1="25.405" y1="11.03" x2="25.405" y2="30.221" gradientUnits="userSpaceOnUse"><stop stop-color="#FFD70F"></stop><stop offset=".12" stop-color="#FC1"></stop><stop offset=".44" stop-color="#FEB517"></stop><stop offset=".75" stop-color="#FEA61A"></stop><stop offset="1" stop-color="#FEA11B"></stop></linearGradient>
</defs>
</svg>