<svg viewBox="0 0 115 115" class="" role="presentation" focusable="false" xmlns:svg="http://www.w3.org/2000/svg" xmlns:xlink="http://www.w3.org/1999/xlink" id="FxSymbol0-056" data-type="1"><g><title></title><path d="M73.5 87H42.3c3.5 12.3 1 14.1-19.5 14.1v6.4h69.8v-6.4C72 101.1 70 99.3 73.5 87" class="msportalfx-svg-c04" fill="#7a7a7a"></path><path d="M104.5 9H10c-3.2 0-5.8 2.9-5.8 6.1V81c0 3.2 2.6 6 5.8 6h94.5c3.2 0 6.4-2.8 6.4-6V15.1c.1-3.2-3.2-6.1-6.4-6.1" class="msportalfx-svg-c03" fill="#a0a1a2"></path><path opacity=".2" d="M104.6 9H10c-3.2 0-5.8 2.9-5.8 6.1V81c0 3.2 2.6 6 5.8 6h2.2l92.4-78z" class="msportalfx-svg-c01" fill="#ffffff"></path><path d="M102.7 17.2v61.6H12.3V17.2z" class="msportalfx-svg-c15" fill="#59b4d9"></path><path d="M12.3 78.8h.2V17.2l82.5-.1-82.7.1z" class="msportalfx-svg-c15" fill="#59b4d9"></path><path d="M22.7 101.1h69.8v6.4H22.7z" class="msportalfx-svg-c03" fill="#a0a1a2"></path><path d="M58.7 13.5c0 .8-.7 1.5-1.5 1.5s-1.5-.7-1.5-1.5.7-1.5 1.5-1.5 1.5.7 1.5 1.5" class="msportalfx-svg-c13" fill="#b8d432"></path><path d="M57.7 57.8c-.1 0-.1 0-.2-.1L44.1 50c-.1-.1-.2-.2-.2-.4 0-.1.1-.3.2-.3l13.3-7.7c.1-.1.3-.1.4 0l13.4 7.7c.1.1.2.2.2.3 0 .1-.1.3-.2.3l-13.3 7.7-.2.2" class="msportalfx-svg-c01" fill="#ffffff"></path><path opacity=".7" d="M55.7 76.5c-.1 0-.1 0-.2-.1l-13.3-7.7c-.1-.1-.2-.2-.2-.4V53c0-.1.1-.3.2-.4.1-.1.3-.1.4 0l13.3 7.7c.1.1.2.2.2.4v15.4c0 .1-.1.3-.2.4h-.2" class="msportalfx-svg-c01" fill="#ffffff"></path><path opacity=".4" d="M59.5 76.5c-.1 0-.1 0-.2-.1s-.2-.2-.2-.4V60.8c0-.1.1-.3.2-.4l13.3-7.7c.1-.1.3-.1.4 0 .1.1.2.2.2.3v15.3c0 .1-.1.3-.2.4l-13.3 7.7c0 .1-.1.1-.2.1" class="msportalfx-svg-c01" fill="#ffffff"></path><path d="M40.1 18c18.2 12.8 17.7 29.6 17.7 29.6s-5-16-26.3-22.6l11.4.3-2.8-7.3zM72 26.1C57.6 34.6 56.7 48 56.7 48S61.6 35.5 78 31.9l-8.6-.4 2.6-5.4zM57.7 45.9c-.2-.3-4.3-6.5-11.4-9.4-4.6-1.8-8.1-2.4-10.5-1.5-1.3.5-2.2 1.3-2.7 2.5-.8 2-.7 5.9 8.8 9.7 7.1 2.9 14.4 1.2 14.7 1.1l2.1-.8-1-1.6zm-12.6-6.4c3.8 1.5 6.7 4.2 8.3 6.1-2.5.2-6.4.2-10.2-1.4-5.5-2.2-7.5-4.5-7.1-5.6.1-.2.2-.5.8-.6.7-.3 3-.6 8.2 1.5zM58.5 48c.3.1 7.4 2.3 14.8.1 4.7-1.5 7.8-3.3 9.1-5.4.7-1.2.9-2.4.5-3.6-.6-2.1-3.2-5-13-2-7.3 2.3-12 8.2-12.2 8.4l-1.3 1.7 2.1.8zm13.9-3c-3.9 1.2-7.8.9-10.3.5 1.8-1.7 4.9-4.2 8.8-5.4 5.7-1.8 8.6-1.3 9-.1.1.2.1.5-.2 1-.4.6-1.9 2.3-7.3 4z" class="msportalfx-svg-c08" fill="#ba141a"></path></g><defs>
<linearGradient id="a" x1="9" y1="16.39" x2="9" y2="-1.94" gradientUnits="userSpaceOnUse"><stop offset="0" stop-color="#0078d4"></stop><stop offset=".16" stop-color="#1380da"></stop><stop offset=".53" stop-color="#3c91e5"></stop><stop offset=".82" stop-color="#559cec"></stop><stop offset="1" stop-color="#5ea0ef"></stop></linearGradient>
<linearGradient id="b" x1="9.88" y1="7.11" x2="9.99" y2="17.27" gradientUnits="userSpaceOnUse"><stop offset="0" stop-color="#32d4f5"></stop><stop offset=".32" stop-color="#31d1f3"></stop><stop offset=".53" stop-color="#2ec9eb"></stop><stop offset=".7" stop-color="#29bade"></stop><stop offset=".86" stop-color="#22a5cb"></stop><stop offset="1" stop-color="#198ab3"></stop><stop offset="1" stop-color="#198ab3"></stop></linearGradient>
<radialGradient id="c" cx="9.43" cy="7.03" r="7.27" gradientUnits="userSpaceOnUse"><stop offset="0" stop-color="#f2f2f2"></stop><stop offset=".58" stop-color="#eee"></stop><stop offset="1" stop-color="#e6e6e6"></stop></radialGradient>
</defs>
</svg>