<svg viewBox="0 0 48 38.914" class="" role="presentation" focusable="false" xmlns="http://www.w3.org/2000/svg" xmlns:xlink="http://www.w3.org/1999/xlink" id="FxSymbol0-0ec" data-type="1"><g><title></title><g fill="#ea7600"><path d="M33.408 10.274l-3.04 3.193 4.458 4.649 1.486 1.458-1.486 1.456-4.458 4.65 3.04 3.193 9.049-9.3z"></path><path d="M32.997 19.593l-9.209-9.209-4.86 4.86-4.857-4.857-9.209 9.209 9.212 9.207 4.858-4.858 4.859 4.856z"></path></g><path d="M6.779 0L0 6.84v25.233l6.779 6.84 2.716-3.491-5.917-5.971V9.12l5.917-5.971zm34.443 0l6.779 6.84v25.233l-6.779 6.84-2.716-3.491 5.917-5.971V9.12l-5.917-5.971z" fill="#757676"></path></g><defs>
</defs>
</svg>