<svg viewBox="0 0 18 18" class="" role="presentation" focusable="false" xmlns="http://www.w3.org/2000/svg" xmlns:xlink="http://www.w3.org/1999/xlink" id="FxSymbol0-133" data-type="1"><g><path d="M13.022 16.764c-2.09-.28-2.055-1.624-2.045-3.8H7.061c.01 2.179.045 3.523-2.046 3.8a1.066 1.066 0 0 0-.984.958h9.981a1.072 1.072 0 0 0-.99-.958Z" fill="#1f56a3"></path><rect y=".278" width="18" height="12.747" rx=".61" fill="#1490df"></rect><rect x="1.037" y="1.265" width="15.901" height="10.576" rx=".305" class="msportalfx-svg-c01" fill="#ffffff"></rect><ellipse cx="6.154" cy="6.58" rx="1.966" ry="1.974" fill="url(#94a115a1-5689-4c39-bee0-5c63fda4a1a8)"></ellipse><ellipse cx="11.66" cy="3.494" rx=".961" ry=".968" fill="#32bedd"></ellipse><ellipse cx="11.66" cy="6.655" rx=".961" ry=".968" fill="#32bedd"></ellipse><ellipse cx="11.66" cy="9.809" rx=".961" ry=".968" fill="#32bedd"></ellipse><ellipse cx="9.467" cy="5.112" rx=".961" ry=".968" fill="#50e6ff"></ellipse><ellipse cx="9.467" cy="8.274" rx=".961" ry=".968" fill="#50e6ff"></ellipse></g><defs>
<linearGradient id="94a115a1-5689-4c39-bee0-5c63fda4a1a8" x1="6.154" y1="782.955" x2="6.154" y2="786.91" gradientTransform="matrix(1 0 0 -1 0 791.516)" gradientUnits="userSpaceOnUse"><stop offset="0" stop-color="#198ab3"></stop><stop offset=".16" stop-color="#1f9ac2"></stop><stop offset=".5" stop-color="#29bade"></stop><stop offset=".8" stop-color="#30cdef"></stop><stop offset="1" stop-color="#32d4f5"></stop></linearGradient>
</defs>
</svg>