<svg viewBox="0 0 16 16" class="" role="presentation" focusable="false" xmlns="http://www.w3.org/2000/svg" xmlns:xlink="http://www.w3.org/1999/xlink" id="FxSymbol0-222" data-type="1"><g><title></title><title>Asset 1</title><path d="M6 8.556A1.561 1.561 0 0 1 7.556 7H11.3c1.593-1.953 2.511-4.286.726-6.208-1.3-1.4-3.949-.808-5.518 1.374C4.559-.151 2.233-.609.907.792c-1.352 1.455-1 3.151-.189 4.552L2.1 5.317l1.325-.054 1-2.64a.565.565 0 0 1 .568-.458.421.421 0 0 1 .46.485l.027 4.39.7-1.481a.351.351 0 0 1 .325-.216h4.22a.382.382 0 0 1 .352.377c0 .189-.162.458-.352.458H6.939L5.587 8.872c-.081.269-.216.35-.514.323-.162-.027-.3-.269-.3-.431l-.054-4.04-.406 1.1c-.027.135-.162.35-.3.377H1.1A17.842 17.842 0 0 0 6 10.763Z" class="msportalfx-svg-c15" fill="#59b4d9"></path><path d="M14.807 8H8.131C7.47 8 7 8.351 7 8.936v4.2a1.136 1.136 0 0 0 1.14 1.127h2.412L12.532 16l.015-1.725h2.242a1.133 1.133 0 0 0 1.2-1.057L16 9a1.084 1.084 0 0 0-1.193-1" class="msportalfx-svg-c13" fill="#b8d432"></path><path d="M12 12.94a.5.5 0 1 1-.5-.5.5.5 0 0 1 .5.5M11 9v3h1V9h-1z" class="msportalfx-svg-c01" fill="#ffffff"></path></g><defs>
</defs>
</svg>