<svg viewBox="0 0 44.992 50" class="" role="presentation" focusable="false" xmlns="http://www.w3.org/2000/svg" xmlns:xlink="http://www.w3.org/1999/xlink" id="FxSymbol0-221" data-type="1"><g><title></title><title>Asset 1</title><path d="M42.992 45.365h2V0h-41C2.7.167 0 3.3 0 3.751l.059 43.882A2.368 2.368 0 0 0 2.427 50h37.565v-.729Z" class="msportalfx-svg-c15" fill="#59b4d9"></path><path d="M5.774 2a3.1 3.1 0 0 0-2.507 1c-2.275 2 .39 2 1.495 2h35.23v44.271l3-3.906V2Z" class="msportalfx-svg-c02" fill="#e5e5e5"></path><path opacity=".5" d="m39.992 49.271 3-3.906V2l-3 3v44.271z" class="msportalfx-svg-c03" fill="#a0a1a2"></path><path d="M30.307 18.771c-2.4-2.6-7.291-1.5-10.187 2.547-3.6-4.294-7.89-5.143-10.337-2.547-2.5 2.7-1.848 5.842-.35 8.439l2.547-.05 2.447-.1 1.848-4.894a1.044 1.044 0 0 1 1.049-.849.779.779 0 0 1 .849.9l.05 8.139 1.3-2.746a.649.649 0 0 1 .6-.4h7.79a.707.707 0 0 1 .649.7c0 .35-.3.849-.649.849h-6.994l-2.5 4.994c-.15.5-.4.649-.949.6-.3-.05-.549-.5-.549-.8l-.1-7.49-.749 2.047c-.05.25-.3.649-.549.7h-5.39a31.512 31.512 0 0 0 9.787 8.839v.05-.05c2.997-1.101 17.129-11.587 10.387-18.878Z" class="msportalfx-svg-c01" fill="#ffffff"></path></g><defs>
</defs>
</svg>