<svg viewBox="0 0 15.969 16.008" class="" role="presentation" focusable="false" xmlns="http://www.w3.org/2000/svg" xmlns:xlink="http://www.w3.org/1999/xlink" id="FxSymbol0-21f" data-type="1"><g><title></title><title>Asset 1</title><path d="M11 9h.2a3.553 3.553 0 0 1 .2-1H11ZM8 6h1v1H8zm0 2h1v1H8zm3-1h1V6h-1ZM5 6h1v1H5zm0 2h1v1H5zM2 8h1v1H2zm6 2h1v1H8zm-3 0h1v1H5zm-3 0h1v1H2zm11.9 1.8L12.7 13H14v-1.2Z" class="msportalfx-svg-c15" fill="#59b4d9"></path><path d="M6.9 12.1 6 12H1V5h12v1.3a3.553 3.553 0 0 1 1-.2V1h-3V0h-1v1H4V0H3v1H0v12h6.3a1.8 1.8 0 0 1 .6-.9ZM1 2h2v1h1V2h6v1h1V2h2v2H1Z" class="msportalfx-svg-c15" fill="#59b4d9"></path><path d="M14.1 10.7a1.612 1.612 0 0 0 1.3-.6 1.789 1.789 0 0 0 .5-1.8l-1.1 1.2-1-.3-.3-1.1L14.6 7h-.5a1.974 1.974 0 0 0-1.4.6 1.843 1.843 0 0 0-.5 1.8l-2.8 2.8c-.2 0-.3-.1-.5-.1a1.612 1.612 0 0 0-1.3.6 1.789 1.789 0 0 0-.5 1.8l1.1-1.1 1 .3.3 1.1-1.1 1.1a.749.749 0 0 0 .5.1 1.991 1.991 0 0 0 1.9-2.5l2.8-2.8Z" class="msportalfx-svg-c04" fill="#7a7a7a"></path></g><defs>
</defs>
</svg>