<svg viewBox="0 0 18 18" data-islogo="true" class="" role="presentation" focusable="false" xmlns:svg="http://www.w3.org/2000/svg" xmlns:xlink="http://www.w3.org/1999/xlink" id="FxSymbol0-02c" data-type="200"><g><path d="M15.945 16.554c-.417-3.333-2.051-6.156-5.062-7.071a4.079 4.079 0 1 0-4.462-.035c-3.034.814-4.653 3.37-5.023 7.116a1.3 1.3 0 0 0 1.161 1.429A1.15 1.15 0 0 0 2.69 18h11.965a1.294 1.294 0 0 0 1.3-1.29 1.347 1.347 0 0 0-.01-.156z" fill="url(#c65454eb-9438-4288-964d-793b2b82de23)"></path><path d="M8.684 10.135a4.068 4.068 0 0 1-2.211-.651L8.662 15.2l2.173-5.681a4.063 4.063 0 0 1-2.151.616z" opacity=".8" class="msportalfx-svg-c01" fill="#ffffff"></path><path d="M14.805 7.227a6.39 6.39 0 0 0-.092-2.543A6.207 6.207 0 0 0 8.888.008a5.543 5.543 0 0 0-5.212 2.764.588.588 0 0 0 .187.812.543.543 0 0 0 .737-.164 4.515 4.515 0 0 1 4.223-2.285 5.078 5.078 0 0 1 4.758 3.679 5.242 5.242 0 0 1 .126 2.137.936.936 0 0 0-.536.589l-.273.9a.94.94 0 1 0 1.8.547l.274-.9a.938.938 0 0 0-.167-.86z" fill="#767676"></path></g><defs>
<linearGradient id="c65454eb-9438-4288-964d-793b2b82de23" x1="7.434" y1="1.303" x2="9.215" y2="23.449" gradientUnits="userSpaceOnUse"><stop offset=".225" stop-color="#32d4f5"></stop><stop offset=".389" stop-color="#30cff1"></stop><stop offset=".584" stop-color="#2bc0e4"></stop><stop offset=".795" stop-color="#23a9ce"></stop><stop offset="1" stop-color="#198ab3"></stop></linearGradient>
<linearGradient id="a" x1="9" y1="16.39" x2="9" y2="-1.94" gradientUnits="userSpaceOnUse"><stop offset="0" stop-color="#0078d4"></stop><stop offset=".16" stop-color="#1380da"></stop><stop offset=".53" stop-color="#3c91e5"></stop><stop offset=".82" stop-color="#559cec"></stop><stop offset="1" stop-color="#5ea0ef"></stop></linearGradient>
<linearGradient id="b" x1="9.88" y1="7.11" x2="9.99" y2="17.27" gradientUnits="userSpaceOnUse"><stop offset="0" stop-color="#32d4f5"></stop><stop offset=".32" stop-color="#31d1f3"></stop><stop offset=".53" stop-color="#2ec9eb"></stop><stop offset=".7" stop-color="#29bade"></stop><stop offset=".86" stop-color="#22a5cb"></stop><stop offset="1" stop-color="#198ab3"></stop><stop offset="1" stop-color="#198ab3"></stop></linearGradient>
<radialGradient id="c" cx="9.43" cy="7.03" r="7.27" gradientUnits="userSpaceOnUse"><stop offset="0" stop-color="#f2f2f2"></stop><stop offset=".58" stop-color="#eee"></stop><stop offset="1" stop-color="#e6e6e6"></stop></radialGradient>
</defs>
</svg>