<svg viewBox="0 0 50 50" class="fxs-portal-svg" role="presentation" focusable="false" xmlns:svg="http://www.w3.org/2000/svg" xmlns:xlink="http://www.w3.org/1999/xlink" id="FxSymbol0-126" data-type="140"><g><title></title><path d="M23.987 40.351h-3.951c.957 5.788-2.336 6.618-7.968 6.618V50h19.151v-3.031c-5.631 0-8.19-.827-7.232-6.618" class="msportalfx-svg-c10" fill="#ff8c00"></path><path d="M12.07 46.968h19.151V50H12.07z" class="msportalfx-svg-c11" fill="#fcd116"></path><path stroke="#59B4D9" stroke-width=".232" stroke-miterlimit="10" d="M23.968 30.928a2.315 2.315 0 0 1 3.274 0l-3.66-3.66a2.315 2.315 0 0 1 3.274-3.274l.971.971.756.686 1.79 1.79a2.315 2.315 0 0 0 3.274-3.274l-1.79-1.79-1.133-1.133-5.447-5.447a2.315 2.315 0 0 1 3.274-3.274l2.387 2.387a2.315 2.315 0 0 1 3.274-3.274l6.195 6.195A18.63 18.63 0 0 0 34.949 5.48 18.636 18.636 0 0 0 23.617.097l2.778 2.778a2.92 2.92 0 1 1-4.131 4.131l-1.9-1.9a2.92 2.92 0 1 0-4.131 4.131l3.743 3.743a2.92 2.92 0 1 1-4.131 4.131l-4.106-4.106a2.92 2.92 0 0 1-4.722 3.273l2.988 2.988a2.92 2.92 0 1 1-4.131 4.131l-2.778-2.778a18.633 18.633 0 0 0 5.383 11.332c4.898 4.898 11.834 6.508 18.077 4.842l-2.589-2.589a2.317 2.317 0 0 1 .001-3.276z" class="msportalfx-svg-c15" fill="#59b4d9"></path><path d="M40.409 17.831l-6.195-6.195a2.315 2.315 0 0 0-3.274 3.274l-2.387-2.387a2.315 2.315 0 0 0-3.274 3.274l5.447 5.447 1.133 1.133 1.79 1.79a2.315 2.315 0 0 1-3.274 3.274l-1.79-1.79-.756-.686-.971-.971a2.315 2.315 0 0 0-3.274 3.274l3.66 3.66a2.315 2.315 0 0 0-3.274 3.274l2.589 2.589a18.62 18.62 0 0 0 8.392-4.842 18.673 18.673 0 0 0 5.458-14.118zm-30.404 5.563a2.92 2.92 0 0 0 0-4.131l-2.988-2.988a2.92 2.92 0 1 0 4.722-3.273l4.106 4.106a2.92 2.92 0 1 0 4.131-4.131l-3.743-3.743a2.92 2.92 0 1 1 4.131-4.131l1.9 1.9a2.92 2.92 0 1 0 4.131-4.131L23.617.094C18.214-.452 12.619 1.341 8.48 5.48s-5.932 9.734-5.383 15.137l2.778 2.778a2.92 2.92 0 0 0 4.13-.001z" class="msportalfx-svg-c13" fill="#b8d432"></path><path d="M21.714 43.656c-6.662 0-12.926-2.594-17.637-7.305a1.74 1.74 0 1 1 2.461-2.461 21.32 21.32 0 0 0 15.176 6.286A21.32 21.32 0 0 0 36.89 33.89c4.054-4.054 6.286-9.443 6.286-15.176S40.944 7.592 36.89 3.538a1.74 1.74 0 1 1 2.461-2.461c4.711 4.711 7.305 10.974 7.305 17.637s-2.594 12.926-7.305 17.637-10.975 7.305-17.637 7.305z" class="msportalfx-svg-c11" fill="#fcd116"></path></g><defs>
<linearGradient id="a" x1="9" y1="16.39" x2="9" y2="-1.94" gradientUnits="userSpaceOnUse"><stop offset="0" stop-color="#0078d4"></stop><stop offset=".16" stop-color="#1380da"></stop><stop offset=".53" stop-color="#3c91e5"></stop><stop offset=".82" stop-color="#559cec"></stop><stop offset="1" stop-color="#5ea0ef"></stop></linearGradient>
<linearGradient id="b" x1="9.88" y1="7.11" x2="9.99" y2="17.27" gradientUnits="userSpaceOnUse"><stop offset="0" stop-color="#32d4f5"></stop><stop offset=".32" stop-color="#31d1f3"></stop><stop offset=".53" stop-color="#2ec9eb"></stop><stop offset=".7" stop-color="#29bade"></stop><stop offset=".86" stop-color="#22a5cb"></stop><stop offset="1" stop-color="#198ab3"></stop><stop offset="1" stop-color="#198ab3"></stop></linearGradient>
<radialGradient id="c" cx="9.43" cy="7.03" r="7.27" gradientUnits="userSpaceOnUse"><stop offset="0" stop-color="#f2f2f2"></stop><stop offset=".58" stop-color="#eee"></stop><stop offset="1" stop-color="#e6e6e6"></stop></radialGradient>
</defs>
</svg>