<svg viewBox="0 0 50 50" class="fxs-portal-svg" role="presentation" focusable="false" xmlns:svg="http://www.w3.org/2000/svg" xmlns:xlink="http://www.w3.org/1999/xlink" id="FxSymbol0-0e7" data-type="1"><g><title></title><path d="M23 15h3v28h-3z" class="msportalfx-svg-c19" fill="#0072c6"></path><path d="M43.333 1H5.667C4.746 1 4 1.746 4 2.667v10.667C4 14.254 4.746 15 5.667 15h37.667c.92 0 1.666-.746 1.666-1.667V2.667C45 1.75 44.25 1 43.333 1z" class="msportalfx-svg-c04" fill="#7a7a7a"></path><path d="M38 3h3v3h-3zm0 6h3v3h-3z" class="msportalfx-svg-c13" fill="#b8d432"></path><path d="M43.333 20H5.667C4.746 20 4 20.746 4 21.667v10.667C4 33.254 4.746 34 5.667 34h37.667c.92 0 1.666-.746 1.666-1.667V21.667C45 20.75 44.25 20 43.333 20z" class="msportalfx-svg-c04" fill="#7a7a7a"></path><path d="M38 22h3v3h-3zm0 6h3v3h-3z" class="msportalfx-svg-c13" fill="#b8d432"></path><circle cx="24.5" cy="45.514" r="4.4" class="msportalfx-svg-c14" fill="#57a300"></circle><circle cx="24.5" cy="45.5" r="4.4" class="msportalfx-svg-c19" fill="#0072c6"></circle></g><defs>
<linearGradient id="a" x1="9" y1="16.39" x2="9" y2="-1.94" gradientUnits="userSpaceOnUse"><stop offset="0" stop-color="#0078d4"></stop><stop offset=".16" stop-color="#1380da"></stop><stop offset=".53" stop-color="#3c91e5"></stop><stop offset=".82" stop-color="#559cec"></stop><stop offset="1" stop-color="#5ea0ef"></stop></linearGradient>
<linearGradient id="b" x1="9.88" y1="7.11" x2="9.99" y2="17.27" gradientUnits="userSpaceOnUse"><stop offset="0" stop-color="#32d4f5"></stop><stop offset=".32" stop-color="#31d1f3"></stop><stop offset=".53" stop-color="#2ec9eb"></stop><stop offset=".7" stop-color="#29bade"></stop><stop offset=".86" stop-color="#22a5cb"></stop><stop offset="1" stop-color="#198ab3"></stop><stop offset="1" stop-color="#198ab3"></stop></linearGradient>
<radialGradient id="c" cx="9.43" cy="7.03" r="7.27" gradientUnits="userSpaceOnUse"><stop offset="0" stop-color="#f2f2f2"></stop><stop offset=".58" stop-color="#eee"></stop><stop offset="1" stop-color="#e6e6e6"></stop></radialGradient>
</defs>
</svg>