<svg viewBox="0 0 50 50" class="fxs-portal-svg" role="presentation" focusable="false" xmlns:svg="http://www.w3.org/2000/svg" xmlns:xlink="http://www.w3.org/1999/xlink" id="FxSymbol0-0e6" data-type="1"><g><title></title><path d="M39 0H4a2 2 0 0 0-2 2v9a2 2 0 0 0 2 2h35a2 2 0 0 0 2-2V2c0-1.1-.9-2-2-2zm0 18H4a2 2 0 0 0-2 2v9a2 2 0 0 0 2 2h35a2 2 0 0 0 2-2v-9a2 2 0 0 0-2-2z" class="msportalfx-svg-c16" fill="#3999c6"></path><path opacity=".3" d="M9.667 21A2.67 2.67 0 0 0 7 23.667V31h32a2 2 0 0 0 2-2v-8H9.667zm0-18A2.67 2.67 0 0 0 7 5.667V13h32a2 2 0 0 0 2-2V3H9.667z" class="msportalfx-svg-c01" fill="#ffffff"></path><path d="M26 13h3v30h-3z" class="msportalfx-svg-c19" fill="#0072c6"></path><path d="M45.333 4H9.667C8.746 4 8 4.746 8 5.667v8.667C8 15.254 8.746 16 9.667 16h35.667c.92 0 1.666-.746 1.666-1.667V5.667C47 4.75 46.25 4 45.333 4z" class="msportalfx-svg-c04" fill="#7a7a7a"></path><path d="M41 6h2v2h-2zm0 4h2v2h-2z" class="msportalfx-svg-c13" fill="#b8d432"></path><path d="M45.333 22H9.667C8.746 22 8 22.746 8 23.667v8.667C8 33.254 8.746 34 9.667 34h35.667c.92 0 1.666-.746 1.666-1.667v-8.667C47 22.75 46.25 22 45.333 22z" class="msportalfx-svg-c04" fill="#7a7a7a"></path><path d="M41 24h2v2h-2zm0 4h2v2h-2z" class="msportalfx-svg-c13" fill="#b8d432"></path><circle cx="27.5" cy="45.5" r="4.4" class="msportalfx-svg-c19" fill="#0072c6"></circle></g><defs>
<linearGradient id="a" x1="9" y1="16.39" x2="9" y2="-1.94" gradientUnits="userSpaceOnUse"><stop offset="0" stop-color="#0078d4"></stop><stop offset=".16" stop-color="#1380da"></stop><stop offset=".53" stop-color="#3c91e5"></stop><stop offset=".82" stop-color="#559cec"></stop><stop offset="1" stop-color="#5ea0ef"></stop></linearGradient>
<linearGradient id="b" x1="9.88" y1="7.11" x2="9.99" y2="17.27" gradientUnits="userSpaceOnUse"><stop offset="0" stop-color="#32d4f5"></stop><stop offset=".32" stop-color="#31d1f3"></stop><stop offset=".53" stop-color="#2ec9eb"></stop><stop offset=".7" stop-color="#29bade"></stop><stop offset=".86" stop-color="#22a5cb"></stop><stop offset="1" stop-color="#198ab3"></stop><stop offset="1" stop-color="#198ab3"></stop></linearGradient>
<radialGradient id="c" cx="9.43" cy="7.03" r="7.27" gradientUnits="userSpaceOnUse"><stop offset="0" stop-color="#f2f2f2"></stop><stop offset=".58" stop-color="#eee"></stop><stop offset="1" stop-color="#e6e6e6"></stop></radialGradient>
</defs>
</svg>