<svg viewBox="0 0 18 18" class="" role="presentation" focusable="false" xmlns="http://www.w3.org/2000/svg" xmlns:xlink="http://www.w3.org/1999/xlink" id="FxSymbol0-0cd" data-type="1"><g><path d="M18 9.5a4.094 4.094 0 0 0-3.51-3.961A5.139 5.139 0 0 0 9.24.569a5.27 5.27 0 0 0-5.024 3.475A4.857 4.857 0 0 0 0 8.773a4.937 4.937 0 0 0 5.068 4.8c.151 0 .3-.007.447-.02h8.207a.781.781 0 0 0 .217-.033A4.13 4.13 0 0 0 18 9.5Z" fill="url(#59616712-f700-4139-92c6-bd98d17f0254)"></path><rect x="7.35" y="7.267" width="9" height="9" rx=".6" fill="#50e6ff"></rect><rect x="6.914" y="7.193" width="9.871" height="9.871" rx=".6" fill="#50e6ff"></rect><rect x="8.393" y="8.538" width="7.266" height="1.696" rx=".3" class="msportalfx-svg-c01" fill="#ffffff"></rect><rect x="8.393" y="11.279" width="7.266" height="1.696" rx=".3" opacity=".8" class="msportalfx-svg-c01" fill="#ffffff"></rect><rect x="8.393" y="14.02" width="7.266" height="1.696" rx=".3" opacity=".6" class="msportalfx-svg-c01" fill="#ffffff"></rect></g><defs>
<linearGradient id="59616712-f700-4139-92c6-bd98d17f0254" x1="9" y1="15.563" x2="9" y2="-2.323" gradientUnits="userSpaceOnUse"><stop offset="0" stop-color="#0078d4"></stop><stop offset="1" stop-color="#5ea0ef"></stop></linearGradient>
</defs>
</svg>