<svg viewBox="0 0 50 50" class="" role="presentation" focusable="false" xmlns:svg="http://www.w3.org/2000/svg" xmlns:xlink="http://www.w3.org/1999/xlink" id="FxSymbol0-070" data-type="1"><g><title></title><path d="M42.798 15.286c.009-.189.029-.375.029-.566 0-6.848-5.559-12.4-12.416-12.4-4.815 0-8.98 2.742-11.04 6.744a11.95 11.95 0 0 0-3.196-.444C9.561 8.619 4.2 13.985 4.2 21c0 6.555 5.126 11.539 11.45 11.539h25.444c4.918 0 8.906-3.899 8.906-8.708 0-4.239-3.099-7.767-7.202-8.545z" class="msportalfx-svg-c15" fill="#59b4d9"></path><path opacity=".4" d="M15 32.507c.216.012.431.032.65.032h25.444A9.06 9.06 0 0 0 44 32.055V22H15v10.507z" class="msportalfx-svg-c01" fill="#ffffff"></path><path fill="#894998" d="M16 22h27v24a2 2 0 0 1-2 2H18a2 2 0 0 1-2-2V22z"></path><path opacity=".8" d="M19 29v-5h21v5z" class="msportalfx-svg-c01" fill="#ffffff"></path><path opacity=".7" d="M19 37v-5h21v5z" class="msportalfx-svg-c01" fill="#ffffff"></path><path opacity=".6" d="M19 45v-5h21v5z" class="msportalfx-svg-c01" fill="#ffffff"></path><path opacity=".2" d="M40 24v1H19v-1zm0 8v1H19v-1zm0 8v1H19v-1z" class="msportalfx-svg-c01" fill="#ffffff"></path><path opacity=".4" d="M12.5 25h-7c-.2 0-.392.03-.578.074A11.287 11.287 0 0 0 8.417 30H12.5c1.379 0 2.5-1.121 2.5-2.5S13.879 25 12.5 25z" class="msportalfx-svg-c01" fill="#ffffff"></path><path d="M5.5 29h7a1.5 1.5 0 0 0 0-3h-7a1.5 1.5 0 0 0 0 3zm-1.9 8h8.9a1.5 1.5 0 0 0 0-3H3.6a1.5 1.5 0 0 0 0 3zm-2 8h10.9a1.5 1.5 0 0 0 0-3H1.6a1.5 1.5 0 0 0 0 3z" class="msportalfx-svg-c03" fill="#a0a1a2"></path><path d="M12.5 43.44H1.6c-.542 0-1.012-.29-1.276-.72a1.492 1.492 0 0 0-.224.78A1.5 1.5 0 0 0 1.6 45h10.9a1.5 1.5 0 0 0 1.5-1.5c0-.287-.085-.552-.224-.78-.264.43-.734.72-1.276.72zm0-8.006H3.6c-.542 0-1.012-.29-1.276-.72-.14.228-.224.493-.224.78a1.5 1.5 0 0 0 1.5 1.5h8.9a1.5 1.5 0 0 0 1.5-1.5c0-.287-.085-.552-.224-.78-.264.43-.734.72-1.276.72zm0-8.033h-7c-.542 0-1.012-.29-1.276-.72a1.492 1.492 0 0 0-.224.78 1.5 1.5 0 0 0 1.5 1.5h7a1.5 1.5 0 0 0 1.5-1.5c0-.287-.085-.552-.224-.78-.264.431-.734.72-1.276.72z" class="msportalfx-svg-c04" fill="#7a7a7a"></path></g><defs>
</defs>
</svg>