<svg viewBox="0 0 50 50" class="" role="presentation" focusable="false" xmlns:svg="http://www.w3.org/2000/svg" xmlns:xlink="http://www.w3.org/1999/xlink" id="FxSymbol0-0bd" data-type="1"><g><title></title><path d="M40.839 40.843A22.255 22.255 0 0 1 25 47.404h-.001a22.262 22.262 0 0 1-15.838-6.56C4.93 36.612 2.6 30.988 2.6 25.004s2.33-11.609 6.56-15.84 9.855-6.56 15.839-6.56 11.609 2.33 15.841 6.561a22.252 22.252 0 0 1 6.56 15.839 22.259 22.259 0 0 1-6.561 15.839z" class="msportalfx-svg-c02" fill="#e5e5e5"></path><path opacity=".5" d="M9.161 40.844C4.93 36.612 2.6 30.988 2.6 25.004s2.33-11.609 6.56-15.84 9.855-6.56 15.839-6.56 11.609 2.33 15.841 6.561L9.161 40.844z" class="msportalfx-svg-c01" fill="#ffffff"></path><path fill="#2999C6" d="M5.611 32.767a20.767 20.767 0 0 1 2.728-20.349 5.855 5.855 0 0 1-1.218-1.121 5.906 5.906 0 0 1-.762-1.226C.754 17.056-.334 26.444 3.06 34.387a8.858 8.858 0 0 1 2.551-1.62zM16.339 2.756a8.897 8.897 0 0 1 1.746 2.548 20.821 20.821 0 0 1 6.914-1.201c4.466 0 8.706 1.412 12.249 3.99a5.847 5.847 0 0 1 1.555-1.96l.004-.003c.14-.114.285-.217.431-.316C32.549.84 23.859-.166 16.339 2.756zM44.39 17.24a20.769 20.769 0 0 1-2.729 20.349c.447.309.86.68 1.219 1.121.312.383.561.796.762 1.225 5.605-6.985 6.693-16.372 3.3-24.315a8.904 8.904 0 0 1-2.552 1.62zM31.912 44.703A20.814 20.814 0 0 1 25 45.904h-.001a20.739 20.739 0 0 1-12.248-3.99 5.847 5.847 0 0 1-1.555 1.96l-.004.003a5.657 5.657 0 0 1-.413.302c6.688 4.97 15.37 5.986 22.882 3.074a8.862 8.862 0 0 1-1.749-2.55z"></path><path fill="#2999C6" d="M14.179 4.833a5.91 5.91 0 0 1-.005 8.348 5.912 5.912 0 0 1-8.348-.005c-2.3-2.304-2.298-6.049.005-8.348s6.045-2.298 8.344.001l.004.004z"></path><path d="M12.046 11.049a2.892 2.892 0 1 0-4.089-.002l.001.001a2.891 2.891 0 0 0 4.088.001" class="msportalfx-svg-c01" fill="#ffffff"></path><path fill="#2999C6" d="M36.827 4.829a5.91 5.91 0 0 1 8.348.005 5.912 5.912 0 0 1-.005 8.348 5.91 5.91 0 0 1-8.348-.005 5.91 5.91 0 0 1 .001-8.344l.004-.004z"></path><path d="M43.044 6.962a2.892 2.892 0 1 0-.002 4.089l.001-.001a2.893 2.893 0 0 0 .001-4.088" class="msportalfx-svg-c01" fill="#ffffff"></path><path fill="#2999C6" d="M35.822 45.174a5.91 5.91 0 0 1 .005-8.348 5.912 5.912 0 0 1 8.348.005c2.3 2.304 2.298 6.049-.005 8.348s-6.045 2.298-8.344-.001l-.004-.004z"></path><path d="M37.954 38.958a2.892 2.892 0 1 0 4.089.002l-.001-.001a2.891 2.891 0 0 0-4.088-.001" class="msportalfx-svg-c01" fill="#ffffff"></path><path fill="#2999C6" d="M13.173 45.178a5.91 5.91 0 0 1-8.348-.005 5.912 5.912 0 0 1 .005-8.348c2.304-2.3 6.049-2.298 8.348.005s2.298 6.045-.001 8.344l-.004.004z"></path><path d="M6.956 43.045a2.892 2.892 0 1 0 .002-4.089l-.001.001a2.893 2.893 0 0 0-.001 4.088M22 22.004l3 9 3-9z" class="msportalfx-svg-c01" fill="#ffffff"></path><path d="M35.03 32.782C34.459 27.7 32.094 23.44 28 22.004l-3 9-3-9c-3.996 1.343-6.534 5.177-7.032 10.795-.102 1.099.615 2.081 1.602 2.194.06.007.12.01.18.011h16.5c.986.004 1.789-.883 1.792-1.982 0-.08-.004-.16-.012-.24z" class="msportalfx-svg-c17" fill="#804998"></path><circle cx="25" cy="17.004" r="5.9" class="msportalfx-svg-c17" fill="#804998"></circle></g><defs>
</defs>
</svg>