<svg viewBox="0 0 50 50" class="fxs-portal-svg" role="presentation" focusable="false" xmlns:svg="http://www.w3.org/2000/svg" xmlns:xlink="http://www.w3.org/1999/xlink" id="FxSymbol0-062" data-type="1"><g><title></title><title>LogicAppsAlt</title><path d="M39 50H1V2h38v48zM3 47.97L37 48V4L3 4.03v43.94z" class="msportalfx-svg-c16" fill="#3999c6"></path><path d="M3 4.03h34v43.939H3z" class="msportalfx-svg-c15" fill="#59b4d9"></path><path d="M3 4.03h34v43.939H3z" opacity=".4" class="msportalfx-svg-c01" fill="#ffffff"></path><path opacity=".5" d="M30.524 15.963l-9.434-5.407c-.694-.39-1.526-.393-2.256.008l-9.367 5.367C8.766 16.338 7 17 7 20.247v10.797c0 .836.457 1.604 1.152 1.98l9.329 5.346C17.838 38.59 19 39 20 39s2.144-.402 2.49-.609l9.335-5.353A2.279 2.279 0 0 0 33 31.044V20.316c0-3.316-1.772-3.955-2.476-4.353z" class="msportalfx-svg-c16" fill="#3999c6"></path><path d="M20.03 23.589a.292.292 0 0 1-.143-.04l-9.416-5.398a.284.284 0 0 1 0-.49l9.359-5.362a.289.289 0 0 1 .282 0l9.419 5.399c.088.05.14.143.14.244a.28.28 0 0 1-.14.244l-9.356 5.361a.286.286 0 0 1-.145.042" class="msportalfx-svg-c01" fill="#ffffff"></path><path d="M18.677 36.707a.264.264 0 0 1-.143-.038l-9.387-5.38A.276.276 0 0 1 9 31.044V20.247c0-.102.055-.194.145-.246a.283.283 0 0 1 .287 0l9.386 5.378a.295.295 0 0 1 .139.248v10.797a.292.292 0 0 1-.139.246.3.3 0 0 1-.141.037m2.657 0a.298.298 0 0 1-.147-.038.286.286 0 0 1-.138-.246V25.695c0-.1.055-.193.138-.246l9.386-5.378a.28.28 0 0 1 .283 0 .283.283 0 0 1 .144.245v10.728a.28.28 0 0 1-.144.246l-9.383 5.38a.263.263 0 0 1-.139.037" class="msportalfx-svg-c16" fill="#3999c6"></path><path opacity=".8" d="M18.677 36.707a.264.264 0 0 1-.143-.038l-9.387-5.38A.276.276 0 0 1 9 31.044V20.247c0-.102.055-.194.145-.246a.283.283 0 0 1 .287 0l9.386 5.378a.295.295 0 0 1 .139.248v10.797a.292.292 0 0 1-.139.246.3.3 0 0 1-.141.037" class="msportalfx-svg-c01" fill="#ffffff"></path><path opacity=".6" d="M21.334 36.707a.298.298 0 0 1-.147-.038.286.286 0 0 1-.138-.246V25.695c0-.1.055-.193.138-.246l9.386-5.378a.28.28 0 0 1 .283 0 .283.283 0 0 1 .144.245v10.728a.28.28 0 0 1-.144.246l-9.383 5.38a.263.263 0 0 1-.139.037" class="msportalfx-svg-c01" fill="#ffffff"></path><path d="M42 31l8 6-8 6z" class="msportalfx-svg-c17" fill="#804998"></path><path opacity=".4" d="M37 41.087a20.985 20.985 0 0 1 2-.37v-6.958a19.8 19.8 0 0 0-2 .411v6.917z" class="msportalfx-svg-c01" fill="#ffffff"></path><path d="M42 39.506c-8 0-13 3.994-14 5.494 0-6.735 7-10.475 14-10.475v4.981z" class="msportalfx-svg-c17" fill="#804998"></path></g><defs>
<linearGradient id="a" x1="9" y1="16.39" x2="9" y2="-1.94" gradientUnits="userSpaceOnUse"><stop offset="0" stop-color="#0078d4"></stop><stop offset=".16" stop-color="#1380da"></stop><stop offset=".53" stop-color="#3c91e5"></stop><stop offset=".82" stop-color="#559cec"></stop><stop offset="1" stop-color="#5ea0ef"></stop></linearGradient>
<linearGradient id="b" x1="9.88" y1="7.11" x2="9.99" y2="17.27" gradientUnits="userSpaceOnUse"><stop offset="0" stop-color="#32d4f5"></stop><stop offset=".32" stop-color="#31d1f3"></stop><stop offset=".53" stop-color="#2ec9eb"></stop><stop offset=".7" stop-color="#29bade"></stop><stop offset=".86" stop-color="#22a5cb"></stop><stop offset="1" stop-color="#198ab3"></stop><stop offset="1" stop-color="#198ab3"></stop></linearGradient>
<radialGradient id="c" cx="9.43" cy="7.03" r="7.27" gradientUnits="userSpaceOnUse"><stop offset="0" stop-color="#f2f2f2"></stop><stop offset=".58" stop-color="#eee"></stop><stop offset="1" stop-color="#e6e6e6"></stop></radialGradient>
</defs>
</svg>