<svg viewBox="0 0 18 18" data-islogo="true" class="" role="presentation" focusable="false" xmlns:svg="http://www.w3.org/2000/svg" xmlns:xlink="http://www.w3.org/1999/xlink" id="FxSymbol0-042" data-type="1"><g><title>Icon-compute-38</title><rect x=".32" y=".65" width="12" height="15.01" rx=".5" fill="#0078d4"></rect><rect x="2.07" y="2.34" width="12" height="15.01" rx=".5" fill="url(#f1f6faa7-ad54-4b4c-a870-89c001f694fd)"></rect><path d="M17.64 12.79l-2.87-2.86a.14.14 0 0 0-.25.1v1.67c-3.45 0-6.9 1.84-6.9 5.17.49-.74 3-2.71 6.9-2.71v1.6a.15.15 0 0 0 .25.11L17.64 13a.17.17 0 0 0 0-.21z" fill="#773adc"></path><path fill="#50e6ff" d="M11.57 6.82v4.07l-3.5 2.05V8.86l3.5-2.04z"></path><path fill="#c3f1ff" d="M11.57 6.82l-3.5 2.05-3.5-2.05 3.5-2.05 3.5 2.05z"></path><path fill="#9cebff" d="M8.07 8.87v4.07l-3.5-2.05V6.82l3.5 2.05z"></path><path fill="#c3f1ff" d="M4.57 10.89l3.5-2.03v4.08l-3.5-2.05z"></path><path fill="#9cebff" d="M11.57 10.89l-3.5-2.03v4.08l3.5-2.05z"></path></g><defs>
<linearGradient id="f1f6faa7-ad54-4b4c-a870-89c001f694fd" x1="8.07" y1="17.35" x2="8.07" y2="2.34" gradientUnits="userSpaceOnUse"><stop offset="0" stop-color="#32bedd"></stop><stop offset=".3" stop-color="#36c3e1"></stop><stop offset=".67" stop-color="#41d2ee"></stop><stop offset="1" stop-color="#50e6ff"></stop></linearGradient>
</defs>
</svg>