<svg viewBox="0 0 18 18" class="" role="presentation" focusable="false" xmlns="http://www.w3.org/2000/svg" xmlns:xlink="http://www.w3.org/1999/xlink" id="FxSymbol0-091" data-type="1"><g><path d="M8.574 12.334a.231.231 0 0 1-.226-.236v-.381h-.386a.231.231 0 0 1 0-.462h.616a.231.231 0 0 1 .231.231v.622a.231.231 0 0 1-.235.226Zm-.889 2.207a.231.231 0 0 1-.1-.438 1.171 1.171 0 0 0 .629-.814.231.231 0 0 1 .445.124 1.642 1.642 0 0 1-.869 1.105.233.233 0 0 1-.105.023Zm-.759 1.025H6.31a.23.23 0 0 1-.231-.231 1.057 1.057 0 0 1 .286-.717.231.231 0 0 1 .339.315.627.627 0 0 0-.114.171h.336a.231.231 0 0 1 0 .462Zm4.992 0H10.67a.231.231 0 0 1 0-.462h1.248a.231.231 0 0 1 0 .462Zm1.864 0h-.616a.231.231 0 0 1 0-.462h.334a.636.636 0 0 0-.114-.17.231.231 0 0 1 .337-.315 1.048 1.048 0 0 1 .289.716.231.231 0 0 1-.23.231Zm-1.377-1.024a.23.23 0 0 1-.1-.023 1.641 1.641 0 0 1-.872-1.1.231.231 0 1 1 .445-.125 1.176 1.176 0 0 0 .631.814.231.231 0 0 1-.1.438Zm-.892-2.208a.231.231 0 0 1-.231-.226v-.622a.232.232 0 0 1 .231-.231h.616a.231.231 0 0 1 0 .462h-.389v.381a.231.231 0 0 1-.226.236Zm5.454-.617h-1.21a.231.231 0 0 1 0-.462h1.21a.231.231 0 1 1 0 .462Zm-2.421 0h-1.21a.231.231 0 0 1 0-.462h1.21a.231.231 0 0 1 0 .462Zm-7.8 0H5.535a.231.231 0 0 1 0-.462h1.211a.231.231 0 0 1 0 .462Zm-2.421 0H3.114a.231.231 0 0 1 0-.462h1.211a.231.231 0 0 1 0 .462Zm13.191-.876a.23.23 0 0 1-.231-.231V9.4a.231.231 0 0 1 .462 0v1.21a.231.231 0 0 1-.231.231Zm-14.944 0a.231.231 0 0 1-.231-.231V9.394a.231.231 0 0 1 .462 0v1.211a.232.232 0 0 1-.231.231ZM17.516 8.42a.23.23 0 0 1-.231-.231v-1.21a.231.231 0 0 1 .462 0v1.21a.231.231 0 0 1-.231.231ZM2.572 8.415a.231.231 0 0 1-.231-.231V6.973a.231.231 0 0 1 .462 0v1.211a.232.232 0 0 1-.231.231ZM17.516 6a.23.23 0 0 1-.231-.231V4.558a.231.231 0 0 1 .462 0v1.21a.231.231 0 0 1-.231.232ZM2.572 5.993a.23.23 0 0 1-.231-.231v-1.21a.231.231 0 0 1 .462 0v1.21a.231.231 0 0 1-.231.231Zm14.944-2.415a.23.23 0 0 1-.231-.231v-1.21a.231.231 0 1 1 .462 0v1.21a.231.231 0 0 1-.231.231ZM2.572 3.572a.23.23 0 0 1-.231-.231v-1.21a.231.231 0 1 1 .462 0v1.21a.231.231 0 0 1-.231.231ZM16.7 1.755h-1.206a.231.231 0 0 1 0-.462H16.7a.231.231 0 1 1 0 .462Zm-2.422 0h-1.21a.231.231 0 0 1 0-.462h1.21a.231.231 0 1 1 0 .462Zm-2.421 0h-1.21a.231.231 0 0 1 0-.462h1.21a.231.231 0 1 1 0 .462Zm-2.421 0H8.231a.231.231 0 0 1 0-.462h1.21a.231.231 0 1 1 0 .462Zm-2.421 0H5.81a.231.231 0 0 1 0-.462h1.21a.231.231 0 1 1 0 .462Zm-2.421 0H3.389a.231.231 0 0 1 0-.462H4.6a.231.231 0 0 1 0 .462Z" fill="#37c2b1"></path><rect x=".253" y="2.896" width="14.944" height="9.963" rx=".499" fill="url(#59616712-f700-4139-92c6-bd98d17f01c7)"></rect><path d="M10.722 15.872c-1.477-.231-1.535-1.3-1.531-3.013H6.26c0 1.716-.054 2.782-1.532 3.013a.87.87 0 0 0-.736.835h7.472a.875.875 0 0 0-.742-.835Z" fill="#1f56a3"></path><path fill="#50e6ff" d="M9.987 6.379V9.01l-2.262 1.327V7.699l2.262-1.32z"></path><path fill="#c3f1ff" d="M9.987 6.379 7.733 7.706 5.464 6.379 7.733 5.06l2.254 1.319z"></path><path fill="#9cebff" d="M7.725 7.706v2.631L5.464 9.01V6.379l2.261 1.327z"></path><path fill="#c3f1ff" d="m5.464 9.01 2.261-1.311v2.638L5.464 9.01z"></path><path fill="#9cebff" d="M9.987 9.01 7.725 7.699v2.638L9.987 9.01z"></path><path d="M4.619 4.08H2.546a.5.5 0 0 0-.5.5v2.08a.249.249 0 0 0 .249.249h.166a.249.249 0 0 0 .249-.249V4.736h1.909a.248.248 0 0 0 .241-.249v-.158a.248.248 0 0 0-.241-.249Zm0 6.529H2.7V8.7a.248.248 0 0 0-.248-.248H2.3a.249.249 0 0 0-.249.248v2.111a.5.5 0 0 0 .49.505h2.078a.255.255 0 0 0 .244-.268v-.191a.248.248 0 0 0-.244-.248ZM12.935 4.1h-2.043a.248.248 0 0 0-.249.248v.162a.247.247 0 0 0 .225.27H12.8v1.893a.248.248 0 0 0 .249.249h.173a.248.248 0 0 0 .249-.249V4.6a.5.5 0 0 0-.5-.5Zm.256 4.368h-.158a.248.248 0 0 0-.249.248v1.915h-1.892a.249.249 0 0 0-.249.249v.166a.249.249 0 0 0 .249.249h2.073a.505.505 0 0 0 .505-.5V8.716a.249.249 0 0 0-.247-.25.172.172 0 0 0-.032.002Z" class="msportalfx-svg-c01" fill="#ffffff"></path></g><defs>
<linearGradient id="59616712-f700-4139-92c6-bd98d17f01c7" x1="7.725" y1="12.859" x2="7.725" y2="2.896" gradientUnits="userSpaceOnUse"><stop offset="0" stop-color="#0078d4"></stop><stop offset=".817" stop-color="#5ea0ef"></stop></linearGradient>
</defs>
</svg>