<svg viewBox="0 0 18 18" data-islogo="true" class="" role="presentation" focusable="false" xmlns:svg="http://www.w3.org/2000/svg" xmlns:xlink="http://www.w3.org/1999/xlink" id="FxSymbol0-040" data-type="1"><g><title>Icon-compute-33</title><rect x="-.2" y=".87" width="18" height="12" rx=".6" fill="url(#a7cb4d9d-9f89-4e53-8eda-938427310066)"></rect><path fill="#50e6ff" d="M11.8 5.12v3.49l-3 1.76v-3.5l3-1.75z"></path><path fill="#c3f1ff" d="M11.8 5.12L8.81 6.88 5.8 5.12l3.01-1.75 2.99 1.75z"></path><path fill="#9cebff" d="M8.8 6.88v3.49l-3-1.76V5.12l3 1.76z"></path><path fill="#c3f1ff" d="M5.8 8.61l3-1.74v3.5l-3-1.76z"></path><path fill="#9cebff" d="M11.8 8.61l-3-1.74v3.5l3-1.76z"></path><path d="M12.41 16.5c-1.78-.28-1.85-1.56-1.84-3.63H7c0 2.07 0 3.35-1.81 3.63a1 1 0 0 0-.88 1h9a1.06 1.06 0 0 0-.9-1z" fill="url(#eab4c6b4-621d-4d9b-b611-15ceb58765b1)"></path><path d="M4.68 2.07H1.93a.66.66 0 0 0-.66.66v2.76a.33.33 0 0 0 .33.33h.22a.33.33 0 0 0 .33-.33V2.94h2.53A.33.33 0 0 0 5 2.61V2.4a.33.33 0 0 0-.32-.33zm0 8.66H2.14V8.2a.33.33 0 0 0-.33-.33H1.6a.33.33 0 0 0-.33.33V11a.66.66 0 0 0 .66.67h2.75a.34.34 0 0 0 .32-.39v-.22a.33.33 0 0 0-.32-.33zM15.71 2.1H13a.33.33 0 0 0-.33.33v.21A.33.33 0 0 0 13 3h2.53v2.51a.33.33 0 0 0 .33.33h.23a.33.33 0 0 0 .33-.33V2.76a.66.66 0 0 0-.71-.66zm.34 5.79h-.21a.33.33 0 0 0-.33.33v2.54H13a.33.33 0 0 0-.33.33v.22a.33.33 0 0 0 .33.33h2.75a.67.67 0 0 0 .67-.66V8.22a.33.33 0 0 0-.37-.33z" class="msportalfx-svg-c01" fill="#ffffff"></path></g><defs>
<linearGradient id="a7cb4d9d-9f89-4e53-8eda-938427310066" x1="8.8" y1="12.87" x2="8.8" y2=".87" gradientUnits="userSpaceOnUse"><stop offset="0" stop-color="#0078d4"></stop><stop offset=".82" stop-color="#5ea0ef"></stop></linearGradient>
<linearGradient id="eab4c6b4-621d-4d9b-b611-15ceb58765b1" x1="8.81" y1="17.5" x2="8.81" y2="12.87" gradientUnits="userSpaceOnUse"><stop offset="0" stop-color="#1490df"></stop><stop offset=".98" stop-color="#1f56a3"></stop></linearGradient>
</defs>
</svg>