<svg viewBox="0 0 18 18" data-islogo="true" class="" role="presentation" focusable="false" xmlns:svg="http://www.w3.org/2000/svg" xmlns:xlink="http://www.w3.org/1999/xlink" id="FxSymbol0-041" data-type="1"><g><title>Icon-compute-37</title><rect x=".38" y=".56" width="13.49" height="16.88" rx=".56" fill="url(#abcca3e9-b94e-41fe-a92a-6f6cddbb1654)"></rect><path d="M17.58 12.38l-2.87-2.87a.15.15 0 0 0-.25.1v1.68c-3.45 0-6.9 1.84-6.9 5.16.49-.74 3-2.71 6.9-2.71v1.61a.15.15 0 0 0 .25.1l2.87-2.87a.15.15 0 0 0 0-.2z" fill="#773adc"></path><path fill="#50e6ff" d="M11.06 5.6v4.58l-3.93 2.3V7.89l3.93-2.29z"></path><path fill="#c3f1ff" d="M11.06 5.6L7.13 7.9 3.19 5.6l3.94-2.3 3.93 2.3z"></path><path fill="#9cebff" d="M7.13 7.9v4.58l-3.94-2.3V5.6l3.94 2.3z"></path><path fill="#c3f1ff" d="M3.19 10.18l3.94-2.29v4.59l-3.94-2.3z"></path><path fill="#9cebff" d="M11.06 10.18L7.13 7.89v4.59l3.93-2.3z"></path></g><defs>
<linearGradient id="abcca3e9-b94e-41fe-a92a-6f6cddbb1654" x1="7.12" y1="17.44" x2="7.12" y2=".56" gradientUnits="userSpaceOnUse"><stop offset="0" stop-color="#32bedd"></stop><stop offset=".36" stop-color="#34c1e0"></stop><stop offset=".63" stop-color="#3ccbe8"></stop><stop offset=".88" stop-color="#48dbf6"></stop><stop offset="1" stop-color="#50e6ff"></stop></linearGradient>
</defs>
</svg>