<svg viewBox="0 0 18 18" data-islogo="true" class="" role="presentation" focusable="false" xmlns:svg="http://www.w3.org/2000/svg" xmlns:xlink="http://www.w3.org/1999/xlink" id="FxSymbol0-070" data-type="362"><g><path d="M10.23 17.39l.81-.87V14.2H7v2.32l.81.87a.32.32 0 0 0 .19.11h2a.32.32 0 0 0 .23-.11z" fill="#cecece"></path><path d="M9 .5a5.89 5.89 0 0 0-5.91 6.57c.27 2.47 2.62 3.62 3.29 6.75a.49.49 0 0 0 .47.38h4.3a.49.49 0 0 0 .47-.38c.67-3.13 3-4.28 3.29-6.75A5.89 5.89 0 0 0 9 .5zM7 14.2" fill="url(#19c2a79c-d8cd-4e28-ace7-2fc90c293d59)"></path><path d="M11.46 3.79a1.4 1.4 0 0 0-1.35 1.44V6H8v-.77a1.41 1.41 0 0 0-1.41-1.44 1.4 1.4 0 0 0-1.35 1.44 1.41 1.41 0 0 0 1.35 1.45h.64v6a.36.36 0 0 0 .72 0v-6h2.16v6a.36.36 0 1 0 .72 0v-6h.63a1.4 1.4 0 0 0 1.35-1.45 1.4 1.4 0 0 0-1.35-1.44zM7.23 6h-.68a.74.74 0 0 1-.68-.77.74.74 0 0 1 .68-.77.74.74 0 0 1 .68.77zm4.28 0h-.68v-.81a.68.68 0 1 1 1.35 0 .73.73 0 0 1-.67.81z" fill="url(#1670aa70-a021-477d-b4a7-d51134dff8dc)"></path><path fill="#999" d="M6.96 15.8l4.08-.79v-.45l-4.08.8v.44zm4.08.31v-.44l-4.08.81v.04l.31.34 3.77-.75z"></path></g><defs>
<linearGradient id="a" x1="-1267.23" y1="3.07" x2="-1267.52" y2="14.64" gradientTransform="matrix(-1 0 0 1 -1256.13 0)" gradientUnits="userSpaceOnUse"><stop offset="0" stop-color="#32d4f5"></stop><stop offset=".23" stop-color="#31d0f1"></stop><stop offset=".46" stop-color="#2cc3e6"></stop><stop offset=".7" stop-color="#25afd4"></stop><stop offset=".94" stop-color="#1c92ba"></stop><stop offset="1" stop-color="#198ab3"></stop></linearGradient>
<linearGradient id="b" x1="6.05" y1="11.51" x2="6.05" y2="3" gradientUnits="userSpaceOnUse"><stop offset="0" stop-color="#0078d4"></stop><stop offset=".82" stop-color="#5ea0ef"></stop></linearGradient>
<linearGradient id="c" x1="10.51" y1="6.82" x2="7.93" y2="10.5" gradientUnits="userSpaceOnUse"><stop offset="0" stop-color="#005ba1"></stop><stop offset=".14" stop-color="#035da3" stop-opacity=".97"></stop><stop offset=".3" stop-color="#0b63aa" stop-opacity=".88"></stop><stop offset=".47" stop-color="#196eb6" stop-opacity=".73"></stop><stop offset=".65" stop-color="#2d7cc6" stop-opacity=".52"></stop><stop offset=".84" stop-color="#468edb" stop-opacity=".26"></stop><stop offset="1" stop-color="#5ea0ef" stop-opacity="0"></stop></linearGradient>
<radialGradient id="19c2a79c-d8cd-4e28-ace7-2fc90c293d59" cx="9" cy="7.35" r="6.42" gradientUnits="userSpaceOnUse"><stop offset="0" stop-color="#b77af4"></stop><stop offset=".21" stop-color="#b378f2"></stop><stop offset=".43" stop-color="#a672ed"></stop><stop offset=".65" stop-color="#9267e4"></stop><stop offset=".88" stop-color="#7559d8"></stop><stop offset="1" stop-color="#624fd0"></stop></radialGradient>
<linearGradient id="1670aa70-a021-477d-b4a7-d51134dff8dc" x1="9.02" y1="3.91" x2="9.08" y2="11.49" gradientUnits="userSpaceOnUse"><stop offset="0" stop-color="#f2f2f2"></stop><stop offset=".23" stop-color="#f1f1f2" stop-opacity=".99"></stop><stop offset=".37" stop-color="#ededf1" stop-opacity=".95"></stop><stop offset=".48" stop-color="#e7e5f0" stop-opacity=".89"></stop><stop offset=".58" stop-color="#dedbee" stop-opacity=".81"></stop><stop offset=".67" stop-color="#d3ceeb" stop-opacity=".7"></stop><stop offset=".76" stop-color="#c4bee8" stop-opacity=".57"></stop><stop offset=".84" stop-color="#b4abe5" stop-opacity=".41"></stop><stop offset=".92" stop-color="#a095e1" stop-opacity=".22"></stop><stop offset=".99" stop-color="#8b7ddc" stop-opacity=".02"></stop><stop offset="1" stop-color="#897bdc" stop-opacity="0"></stop></linearGradient>
</defs>
</svg>