<svg viewBox="0 0 18 18" class="" role="presentation" focusable="false" xmlns:svg="http://www.w3.org/2000/svg" xmlns:xlink="http://www.w3.org/1999/xlink" id="FxSymbol0-0f0" data-type="1"><g><path d="M14.32 12.76a.59.59 0 0 1-.57.57H5.07a.57.57 0 0 1-.57-.57V1.18a.55.55 0 0 1 .55-.57h8.7a.57.57 0 0 1 .57.57z" fill="#777"></path><path d="M12.32 14.76a.59.59 0 0 1-.57.57H3.07a.57.57 0 0 1-.57-.57V3.18a.55.55 0 0 1 .55-.57h8.7a.57.57 0 0 1 .57.57z" fill="#999"></path><path d="M10.32 16.76a.59.59 0 0 1-.57.57H1.07a.58.58 0 0 1-.57-.57V5.18a.55.55 0 0 1 .55-.57h8.7a.57.57 0 0 1 .57.57z" fill="url(#a30745b0-ad63-49cb-b0a6-bfff2ae873e7)"></path><path d="M1.94 7.31A1.06 1.06 0 0 1 3 6.24h4.9a1.07 1.07 0 0 1 1.1 1 1.08 1.08 0 0 1-1.08 1.13H3a1.08 1.08 0 0 1-1.06-1.06z" fill="#003067"></path><circle cx="3.06" cy="7.31" r=".72" fill="#50e6ff"></circle><path d="M17.5 14.08a3.35 3.35 0 0 0-2.91-3.22 4.21 4.21 0 0 0-4.35-4A4.31 4.31 0 0 0 6.1 9.64a4 4 0 0 0-3.52 3.85 4.06 4.06 0 0 0 4.2 3.9h7.39a3.38 3.38 0 0 0 3.33-3.31z" fill="url(#a9d4c02a-89a8-4dd3-9cb4-7cc2e8933fb4)"></path><path d="M13.61 14.45v-3.36h-.93v4.12h2.45v-.76zm-7.1-1.65a2.67 2.67 0 0 1-.51-.31.47.47 0 0 1-.12-.32.32.32 0 0 1 .15-.3.63.63 0 0 1 .42-.12 1.68 1.68 0 0 1 1 .29v-.86a2.82 2.82 0 0 0-1-.15 1.7 1.7 0 0 0-1.09.33 1.08 1.08 0 0 0-.41.89 1.35 1.35 0 0 0 .94 1.2 2.51 2.51 0 0 1 .61.36.42.42 0 0 1 .15.32.33.33 0 0 1-.15.3.78.78 0 0 1-.45.12A1.61 1.61 0 0 1 5 14.13v.92a2.28 2.28 0 0 0 1 .23A1.93 1.93 0 0 0 7.15 15a1.06 1.06 0 0 0 .43-.91 1 1 0 0 0-.25-.7 2.26 2.26 0 0 0-.82-.59zm5.16 1.58a2.33 2.33 0 0 0 .33-1.26 2.27 2.27 0 0 0-.25-1.12 1.7 1.7 0 0 0-.69-.74A1.88 1.88 0 0 0 10 11a2.1 2.1 0 0 0-1 .29 1.87 1.87 0 0 0-.73.77A2.49 2.49 0 0 0 8 13.2a2.28 2.28 0 0 0 .24 1.05 1.86 1.86 0 0 0 .68.74 2.07 2.07 0 0 0 1 .29l.85 1H12l-1.19-1.1a1.82 1.82 0 0 0 .86-.8zm-.93-.25a.93.93 0 0 1-.76.35.92.92 0 0 1-.75-.36 1.5 1.5 0 0 1-.28-1 1.43 1.43 0 0 1 .29-1 .93.93 0 0 1 .77-.37.87.87 0 0 1 .74.37 1.48 1.48 0 0 1 .28 1 1.47 1.47 0 0 1-.29 1.01z" fill="#f2f2f2"></path></g><defs>
<linearGradient id="a30745b0-ad63-49cb-b0a6-bfff2ae873e7" x1="5.41" y1="17.33" x2="5.41" y2="4.61" gradientUnits="userSpaceOnUse"><stop offset="0" stop-color="#949494"></stop><stop offset=".53" stop-color="#a2a2a2"></stop><stop offset="1" stop-color="#b3b3b3"></stop></linearGradient>
<linearGradient id="a9d4c02a-89a8-4dd3-9cb4-7cc2e8933fb4" x1="10.04" y1="-1347.39" x2="10.04" y2="-1336.82" gradientTransform="matrix(1 0 0 -1 0 -1330)" gradientUnits="userSpaceOnUse"><stop offset="0" stop-color="#0078d4"></stop><stop offset=".16" stop-color="#1380da"></stop><stop offset=".53" stop-color="#3c91e5"></stop><stop offset=".82" stop-color="#559cec"></stop><stop offset="1" stop-color="#5ea0ef"></stop></linearGradient>
</defs>
</svg>