<svg viewBox="0 0 36 36" class="" role="presentation" focusable="false" xmlns="http://www.w3.org/2000/svg" xmlns:xlink="http://www.w3.org/1999/xlink" id="FxSymbol0-165" data-type="1"><g><title></title><path d="M26.485 5.748c-4.67-4.67-12.234-4.686-16.924-.047l-7.56 7.561a6.75 6.75 0 0 0 0 9.476l7.56 7.56c4.69 4.64 12.253 4.624 16.924-.046l7.479-7.479a6.75 6.75 0 0 0 0-9.546l-7.479-7.479Z" fill="url(#59616712-f700-4139-92c6-bd98d17f0329)"></path><path d="M27.237 6.5H18c-6.627 0-12 5.373-12 12v8.237L9.562 30.3c.068.068.138.135.208.201H18c6.627 0 12-5.373 12-12V9.263L27.237 6.5Z" fill="#000" fill-opacity=".16"></path><path d="M26.737 6H18C11.096 6 5.5 11.596 5.5 18.5v7.737l1 1V18.5C6.5 12.149 11.649 7 18 7h9.737l-1-1ZM29.5 8.763V18.5C29.5 24.851 24.351 30 18 30H9.263l.299.299c.25.247.507.48.772.701H18c6.904 0 12.5-5.596 12.5-12.5V9.763l-1-1Z" fill="#000" fill-opacity=".12"></path><path d="M7.5 30H18c6.627 0 12-5.373 12-12V7.5A1.5 1.5 0 0 0 28.5 6H18C11.373 6 6 11.373 6 18v10.5A1.5 1.5 0 0 0 7.5 30Z" fill="url(#59616712-f700-4139-92c6-bd98d17f032a)"></path><path d="M27 18.5a9 9 0 1 1-18 0 9 9 0 0 1 18 0Z" fill="#000" fill-opacity=".16"></path><path fill-rule="evenodd" clip-rule="evenodd" d="M18 10a8.5 8.5 0 1 0 0 17 8.5 8.5 0 0 0 0-17Zm-9.5 8.5a9.5 9.5 0 1 1 19 0 9.5 9.5 0 0 1-19 0Z" fill="#000" fill-opacity=".12"></path><circle cx="18" cy="18" r="9" fill="url(#59616712-f700-4139-92c6-bd98d17f032b)"></circle><defs></defs></g><defs>
<linearGradient id="59616712-f700-4139-92c6-bd98d17f0329" x1="19.62" y1="33.877" x2="15.019" y2="3.328" gradientUnits="userSpaceOnUse"><stop stop-color="#0A5932"></stop><stop offset="1" stop-color="#33990F"></stop></linearGradient>
<linearGradient id="59616712-f700-4139-92c6-bd98d17f032a" x1="12.188" y1="7.5" x2="22.997" y2="29.187" gradientUnits="userSpaceOnUse"><stop stop-color="#63D237"></stop><stop offset="1" stop-color="#37B659"></stop></linearGradient>
<linearGradient id="59616712-f700-4139-92c6-bd98d17f032b" x1="15.563" y1="7.125" x2="29.354" y2="26.07" gradientUnits="userSpaceOnUse"><stop stop-color="#DAFF70"></stop><stop offset="1" stop-color="#63CD13"></stop></linearGradient>
</defs>
</svg>