<svg viewBox="0 0 50 50" class="" role="presentation" focusable="false" xmlns:svg="http://www.w3.org/2000/svg" xmlns:xlink="http://www.w3.org/1999/xlink" id="FxSymbol0-0d9" data-type="1"><g><title></title><path d="M48.4 18H24.619c-.617-1.686-2.222-2.9-4.119-2.9a4.405 4.405 0 0 0-4.4 4.4c0 2.426 1.974 4.4 4.4 4.4 1.897 0 3.503-1.214 4.119-2.9H47v20H37v-7h-3v9.41c0 .883.716 1.59 1.6 1.59h12.8c.884 0 1.6-.715 1.6-1.598V19.598c0-.883-.716-1.598-1.6-1.598zM44 43h-4v-1h4v1z" class="msportalfx-svg-c16" fill="#3999c6"></path><path d="M24.024 32H39v3.5l7-5.045-7-5.955V28H5V10h31v6h4V8c0-.951-1.042-2-2-2H3c-.958 0-2 1.049-2 2v22c0 .951 1.042 2 2 2h13.976c-.134 3.786-1.091 6-7.976 6v2h23v-2c-6.884 0-7.842-2.214-7.976-6z" class="msportalfx-svg-c16" fill="#3999c6"></path></g><defs>
<linearGradient id="a" x1="9" y1="16.39" x2="9" y2="-1.94" gradientUnits="userSpaceOnUse"><stop offset="0" stop-color="#0078d4"></stop><stop offset=".16" stop-color="#1380da"></stop><stop offset=".53" stop-color="#3c91e5"></stop><stop offset=".82" stop-color="#559cec"></stop><stop offset="1" stop-color="#5ea0ef"></stop></linearGradient>
<linearGradient id="b" x1="9.88" y1="7.11" x2="9.99" y2="17.27" gradientUnits="userSpaceOnUse"><stop offset="0" stop-color="#32d4f5"></stop><stop offset=".32" stop-color="#31d1f3"></stop><stop offset=".53" stop-color="#2ec9eb"></stop><stop offset=".7" stop-color="#29bade"></stop><stop offset=".86" stop-color="#22a5cb"></stop><stop offset="1" stop-color="#198ab3"></stop><stop offset="1" stop-color="#198ab3"></stop></linearGradient>
<radialGradient id="c" cx="9.43" cy="7.03" r="7.27" gradientUnits="userSpaceOnUse"><stop offset="0" stop-color="#f2f2f2"></stop><stop offset=".58" stop-color="#eee"></stop><stop offset="1" stop-color="#e6e6e6"></stop></radialGradient>
</defs>
</svg>