<svg viewBox="0 0 50 50" class="" role="presentation" focusable="false" xmlns:svg="http://www.w3.org/2000/svg" xmlns:xlink="http://www.w3.org/1999/xlink" id="FxSymbol0-0da" data-type="1"><g><title></title><path d="M38 36l7-4.5-7-5.5zM19.5 24.9c-2.4 0-4.4-2-4.4-4.4 0-2.4 2-4.4 4.4-4.4 2.4 0 4.4 2 4.4 4.4 0 2.4-2 4.4-4.4 4.4z" class="msportalfx-svg-c19" fill="#0072c6"></path><path d="M4 29V11h31v6h4V9c0-1-1-2-2-2H2C1 7 0 8 0 9v22c0 1 1 2 2 2h38v-4H4z" class="msportalfx-svg-c19" fill="#0072c6"></path><path d="M48.4 19H20v3h27v21H36v-8h-3v10.4c0 .9.7 1.6 1.6 1.6h13.8c.9 0 1.6-.7 1.6-1.6V20.6c0-.9-.7-1.6-1.6-1.6zM43 45h-3v-1h3v1z" class="msportalfx-svg-c19" fill="#0072c6"></path><path d="M23 32h-7c0 5 0 8-8 8v2h23v-2c-8 0-8-3-8-8z" class="msportalfx-svg-c19" fill="#0072c6"></path></g><defs>
<linearGradient id="a" x1="9" y1="16.39" x2="9" y2="-1.94" gradientUnits="userSpaceOnUse"><stop offset="0" stop-color="#0078d4"></stop><stop offset=".16" stop-color="#1380da"></stop><stop offset=".53" stop-color="#3c91e5"></stop><stop offset=".82" stop-color="#559cec"></stop><stop offset="1" stop-color="#5ea0ef"></stop></linearGradient>
<linearGradient id="b" x1="9.88" y1="7.11" x2="9.99" y2="17.27" gradientUnits="userSpaceOnUse"><stop offset="0" stop-color="#32d4f5"></stop><stop offset=".32" stop-color="#31d1f3"></stop><stop offset=".53" stop-color="#2ec9eb"></stop><stop offset=".7" stop-color="#29bade"></stop><stop offset=".86" stop-color="#22a5cb"></stop><stop offset="1" stop-color="#198ab3"></stop><stop offset="1" stop-color="#198ab3"></stop></linearGradient>
<radialGradient id="c" cx="9.43" cy="7.03" r="7.27" gradientUnits="userSpaceOnUse"><stop offset="0" stop-color="#f2f2f2"></stop><stop offset=".58" stop-color="#eee"></stop><stop offset="1" stop-color="#e6e6e6"></stop></radialGradient>
</defs>
</svg>