<svg viewBox="0 0 50 50" class="fxs-portal-svg" role="presentation" focusable="false" xmlns:svg="http://www.w3.org/2000/svg" xmlns:xlink="http://www.w3.org/1999/xlink" aria-hidden="true"><g><path d="M47.922 10.084a.572.572 0 0 1 .078.279.569.569 0 0 1-.298.479L28.26 21.506a.644.644 0 0 1-.589.008L8.296 10.879A.547.547 0 0 1 8 10.392a.546.546 0 0 1 .292-.489L27.733.076a.6.6 0 0 1 .592.005l19.38 9.798a.534.534 0 0 1 .217.205" class="msportalfx-svg-c05" fill="#3e3e3e"></path><path d="M27.909 42a.569.569 0 0 1-.295-.076L8.299 31.296A.543.543 0 0 1 8 30.811V10.459a.55.55 0 0 1 .299-.485.602.602 0 0 1 .59 0l19.313 10.624a.579.579 0 0 1 .286.489V41.44a.565.565 0 0 1-.579.56" class="msportalfx-svg-c05" fill="#3e3e3e"></path><path d="M28.091 42a.633.633 0 0 1-.293-.076.565.565 0 0 1-.286-.485V21.088a.58.58 0 0 1 .286-.489L47.111 9.975a.602.602 0 0 1 .59 0c.187.1.299.283.299.484v20.352a.543.543 0 0 1-.299.485L28.386 41.924a.569.569 0 0 1-.295.076" class="msportalfx-svg-c05" fill="#3e3e3e"></path><path opacity=".8" d="M47.922 10.084a.572.572 0 0 1 .078.279.569.569 0 0 1-.298.479L28.26 21.506a.644.644 0 0 1-.589.008L8.296 10.879A.547.547 0 0 1 8 10.392a.546.546 0 0 1 .292-.489L27.733.076a.6.6 0 0 1 .592.005l19.38 9.798a.534.534 0 0 1 .217.205" class="msportalfx-svg-c10" fill="#ff8c00"></path><path opacity=".5" d="M27.909 42a.569.569 0 0 1-.295-.076L8.299 31.296A.543.543 0 0 1 8 30.811V10.459a.55.55 0 0 1 .299-.485.602.602 0 0 1 .59 0l19.313 10.624a.579.579 0 0 1 .286.489V41.44a.565.565 0 0 1-.579.56" class="msportalfx-svg-c10" fill="#ff8c00"></path><path opacity=".3" d="M28.091 42a.633.633 0 0 1-.293-.076.565.565 0 0 1-.286-.485V21.088a.58.58 0 0 1 .286-.489L47.111 9.975a.602.602 0 0 1 .59 0c.187.1.299.283.299.484v20.352a.543.543 0 0 1-.299.485L28.386 41.924a.569.569 0 0 1-.295.076" class="msportalfx-svg-c10" fill="#ff8c00"></path><path opacity=".3" d="M47.922 10.084a.572.572 0 0 1 .078.279.569.569 0 0 1-.298.479L28.26 21.506a.644.644 0 0 1-.589.008L8.296 10.879A.547.547 0 0 1 8 10.392a.546.546 0 0 1 .292-.489L27.733.076a.6.6 0 0 1 .592.005l19.38 9.798a.534.534 0 0 1 .217.205" class="msportalfx-svg-c12" fill="#fee087"></path><path d="M47.423 31.091l-8.905-4.699a.996.996 0 0 0-.999 0l-8.905 4.699a.994.994 0 0 0-.495.86v10.355c0 .355.189.682.495.86l8.905 5.172c.309.179.69.179.999 0l8.905-5.172a.994.994 0 0 0 .495-.86V31.952a.996.996 0 0 0-.495-.861z" class="msportalfx-svg-c01" fill="#ffffff"></path><path d="M38.028 36.191a.278.278 0 0 1-.134-.038l-8.804-5.082a.267.267 0 0 1 0-.461l8.751-4.576a.268.268 0 0 1 .263 0l8.807 4.611a.264.264 0 0 1 .131.23.262.262 0 0 1-.131.23l-8.748 5.048a.27.27 0 0 1-.135.038m-.98 12.017a.251.251 0 0 1-.134-.036l-8.778-5.066a.26.26 0 0 1-.136-.231V32.709c0-.096.051-.183.136-.231a.263.263 0 0 1 .268 0l8.777 5.064a.28.28 0 0 1 .13.233v10.166a.272.272 0 0 1-.13.231.28.28 0 0 1-.133.036m1.914 0a.287.287 0 0 1-.138-.036.27.27 0 0 1-.129-.231V37.839c0-.094.051-.182.129-.231l8.777-5.064a.26.26 0 0 1 .264 0 .263.263 0 0 1 .135.23v10.101a.261.261 0 0 1-.135.231l-8.774 5.066a.236.236 0 0 1-.129.036" class="msportalfx-svg-c16" fill="#3999c6"></path><path opacity=".4" d="M38.028 36.191a.278.278 0 0 1-.134-.038l-8.804-5.082a.267.267 0 0 1 0-.461l8.751-4.576a.268.268 0 0 1 .263 0l8.807 4.611a.264.264 0 0 1 .131.23.262.262 0 0 1-.131.23l-8.748 5.048a.27.27 0 0 1-.135.038" class="msportalfx-svg-c01" fill="#ffffff"></path><path opacity=".2" d="M37.048 48.208a.251.251 0 0 1-.134-.036l-8.778-5.066a.26.26 0 0 1-.136-.231V32.709c0-.096.051-.183.136-.231a.263.263 0 0 1 .268 0l8.777 5.064a.28.28 0 0 1 .13.233v10.166a.272.272 0 0 1-.13.231.28.28 0 0 1-.133.036" class="msportalfx-svg-c01" fill="#ffffff"></path><path d="M27.086 28.422a.381.381 0 0 1-.134.505l-11.794 7.104a.358.358 0 0 1-.357.005L3.046 28.952a.372.372 0 0 1-.18-.324.374.374 0 0 1 .177-.326l11.794-6.17a.337.337 0 0 1 .359.003l11.757 6.151c.055.03.1.076.133.136" class="msportalfx-svg-c06" fill="#1e1e1e"></path><path d="M14.941 50a.371.371 0 0 1-.192-.05L2.195 42.877A.363.363 0 0 1 2 42.554V28.36c0-.134.073-.256.195-.323a.385.385 0 0 1 .383 0l12.553 7.07c.112.07.186.191.186.325v14.194a.378.378 0 0 1-.376.374" class="msportalfx-svg-c06" fill="#1e1e1e"></path><path d="M15.059 50a.415.415 0 0 1-.19-.05.377.377 0 0 1-.186-.323V35.433c0-.134.074-.256.186-.325l12.553-7.07a.385.385 0 0 1 .383 0 .366.366 0 0 1 .195.322v14.194a.363.363 0 0 1-.195.323L15.251 49.95a.371.371 0 0 1-.192.05" class="msportalfx-svg-c06" fill="#1e1e1e"></path><path opacity=".9" d="M27.949 27.875a.438.438 0 0 1 .051.2.411.411 0 0 1-.194.342l-12.637 7.611a.385.385 0 0 1-.383.006l-12.594-7.59A.4.4 0 0 1 2 28.095a.398.398 0 0 1 .19-.349l12.637-6.611a.362.362 0 0 1 .385.003l12.597 6.59a.375.375 0 0 1 .14.147" class="msportalfx-svg-c12" fill="#fee087"></path><path opacity=".7" d="M14.941 50a.371.371 0 0 1-.192-.05L2.195 42.877A.363.363 0 0 1 2 42.554V28.36c0-.134.073-.256.195-.323a.385.385 0 0 1 .383 0l12.553 7.07c.112.07.186.191.186.325v14.194a.378.378 0 0 1-.376.374" class="msportalfx-svg-c12" fill="#fee087"></path><path opacity=".4" d="M15.059 50a.415.415 0 0 1-.19-.05.377.377 0 0 1-.186-.323V35.433c0-.134.074-.256.186-.325l12.553-7.07a.385.385 0 0 1 .383 0 .366.366 0 0 1 .195.322v14.194a.363.363 0 0 1-.195.323L15.251 49.95a.371.371 0 0 1-.192.05" class="msportalfx-svg-c12" fill="#fee087"></path><path opacity=".4" d="M29 43.599l-1-.564V32.248l1 .574z" class="msportalfx-svg-c01" fill="#ffffff"></path></g></svg>