<svg viewBox="0 0 18 18" class="" role="presentation" focusable="false" xmlns="http://www.w3.org/2000/svg" xmlns:xlink="http://www.w3.org/1999/xlink" id="FxSymbol0-13a" data-type="1"><g><rect x="16.935" y="8.059" width=".667" height="3.487" rx=".229" fill="#0078d4"></rect><rect x="16.935" y="12.204" width=".667" height="1.254" rx=".229" fill="#0078d4"></rect><path d="M10.506 5.668h5.161a.162.162 0 0 1 .162.162v1.2h-5.485v-1.2a.162.162 0 0 1 .162-.162Zm-.162 9.687h5.486v1.166a.16.16 0 0 1-.16.16H10.5a.16.16 0 0 1-.16-.16v-1.166h.004Z" fill="#005ba1"></path><rect x="9.016" y="6.643" width="8.151" height="8.712" rx=".371" fill="url(#94a115a1-5689-4c39-bee0-5c63fda4a1b1)"></rect><rect x="9.732" y="7.363" width="6.797" height="7.271" rx=".31" fill="#005ba1"></rect><path d="M13.947 7.822a.8.8 0 0 0-.819.536.8.8 0 0 0-.824-.531c-.74.061-.777.794-.764 1.074.007.2.048.831 1.581 1.925l.013.009.013-.01c1.533-1.1 1.57-1.746 1.575-1.954.009-.271-.034-.994-.775-1.049Z" fill="url(#94a115a1-5689-4c39-bee0-5c63fda4a1b2)"></path><path d="M16.518 11.7h-1.951a.061.061 0 0 0-.048.025l-.443.763a.059.059 0 0 1-.081.018.077.077 0 0 1-.018-.018l-.634-1.2a.113.113 0 0 0-.151-.053.116.116 0 0 0-.054.053L12.53 13.1a.058.058 0 0 1-.077.029.063.063 0 0 1-.028-.028l-.517-1.208a.114.114 0 0 0-.154-.048.117.117 0 0 0-.048.048l-.713 1.281a.055.055 0 0 1-.048.029H9.7v.447h1.51a.047.047 0 0 0 .048-.029l.444-.817a.059.059 0 0 1 .079-.023.051.051 0 0 1 .023.023l.608 1.414a.113.113 0 0 0 .145.067.111.111 0 0 0 .067-.067l.642-1.9a.054.054 0 0 1 .069-.031.053.053 0 0 1 .031.031l.535 1.015a.112.112 0 0 0 .149.046.117.117 0 0 0 .045-.046l.682-1.147a.056.056 0 0 1 .047-.029h1.691Z" class="msportalfx-svg-c01" fill="#ffffff"></path><path d="M8.613 7.063a.775.775 0 0 1 .774-.774h.554v-.41a.566.566 0 0 1 .565-.566h3.073a4.647 4.647 0 0 0-4.732-3.992 4.784 4.784 0 0 0-4.572 3.118A4.408 4.408 0 0 0 .4 8.682a4.48 4.48 0 0 0 4.636 4.307h3.577Z" fill="url(#94a115a1-5689-4c39-bee0-5c63fda4a1b3)"></path></g><defs>
<linearGradient id="94a115a1-5689-4c39-bee0-5c63fda4a1b1" x1="13.092" y1="15.355" x2="13.092" y2="6.643" gradientUnits="userSpaceOnUse"><stop offset="0" stop-color="#0078d4"></stop><stop offset="1" stop-color="#5ea0ef"></stop></linearGradient>
<linearGradient id="94a115a1-5689-4c39-bee0-5c63fda4a1b2" x1="311.131" y1="392.681" x2="311.131" y2="395.697" gradientTransform="matrix(1 0 0 -1 -298 403.516)" gradientUnits="userSpaceOnUse"><stop offset=".001" stop-color="#f78d1e"></stop><stop offset="1" stop-color="#faa21d"></stop></linearGradient>
<linearGradient id="94a115a1-5689-4c39-bee0-5c63fda4a1b3" x1="6.989" y1="1.319" x2="6.989" y2="12.992" gradientUnits="userSpaceOnUse"><stop offset=".225" stop-color="#5ea0ef"></stop><stop offset="1" stop-color="#0078d4"></stop></linearGradient>
</defs>
</svg>