<svg viewBox="0 0 18 18" class="" role="presentation" focusable="false" xmlns="http://www.w3.org/2000/svg" xmlns:xlink="http://www.w3.org/1999/xlink" id="FxSymbol0-0bc" data-type="1"><g><path d="M.5 4.429h9.548v5.327a.321.321 0 0 1-.321.321H.821A.321.321 0 0 1 .5 9.756Z" fill="#83b9f9"></path><path d="M.821 2.389h8.906a.321.321 0 0 1 .321.321v1.719H.5V2.71a.321.321 0 0 1 .321-.321Z" fill="#1f56a3"></path><rect x="1.784" y="3.003" width="6.979" height=".822" rx=".161" fill="#f2f2f2"></rect><path d="M4.221 7.187h9.558v5.326a.321.321 0 0 1-.321.321H4.542a.321.321 0 0 1-.321-.321Z" fill="#83b9f9"></path><path d="M4.542 5.156h8.906a.321.321 0 0 1 .321.321v1.71H4.231v-1.71a.321.321 0 0 1 .311-.321Z" fill="#1f56a3"></path><rect x="5.506" y="5.77" width="6.979" height=".822" rx=".161" fill="#f2f2f2"></rect><path d="M7.952 9.963H17.5v5.327a.321.321 0 0 1-.321.321H8.273a.321.321 0 0 1-.321-.321Z" fill="url(#59616712-f700-4139-92c6-bd98d17f023b)"></path><path d="M8.273 7.923h8.906a.321.321 0 0 1 .321.321v1.719H7.952V8.244a.321.321 0 0 1 .321-.321Z" fill="#0078d4"></path><g fill="#0078d4"><circle cx="14.874" cy="12.438" r=".774"></circle><circle cx="12.759" cy="12.438" r=".774"></circle><circle cx="10.577" cy="12.438" r=".774"></circle></g><rect x="9.236" y="8.537" width="6.979" height=".822" rx=".161" fill="#f2f2f2"></rect></g><defs>
<linearGradient id="59616712-f700-4139-92c6-bd98d17f023b" x1="12.726" y1="2199.244" x2="12.726" y2="2193.605" gradientTransform="translate(0 -2183.642)" gradientUnits="userSpaceOnUse"><stop offset="0" stop-color="#32bedd"></stop><stop offset=".18" stop-color="#32caea"></stop><stop offset=".41" stop-color="#32d2f2"></stop><stop offset=".78" stop-color="#32d4f5"></stop></linearGradient>
</defs>
</svg>