<svg viewBox="0 0 50 50" class="" role="presentation" focusable="false" xmlns="http://www.w3.org/2000/svg" xmlns:xlink="http://www.w3.org/1999/xlink" id="FxSymbol0-227" data-type="1"><g><title></title><path d="M47 50H3c-1.66 0-3-1.34-3-3V3c0-1.66 1.34-3 3-3h44c1.66 0 3 1.34 3 3v44c0 1.66-1.34 3-3 3z" class="msportalfx-svg-c15" fill="#59b4d9"></path><path d="M47 3v44H3V3z" opacity=".9" class="msportalfx-svg-c01" fill="#ffffff"></path><path d="M19.02 28H8.98C7.89 28 7 28.89 7 29.98v10.05C7 41.11 7.89 42 8.98 42h10.05c1.09 0 1.98-.89 1.98-1.98V29.98A2 2 0 0 0 19.02 28zm0-20H8.98C7.89 8 7 8.89 7 9.98v10.05C7 21.11 7.89 22 8.98 22h10.05c1.09 0 1.98-.89 1.98-1.98V9.98A2 2 0 0 0 19.02 8z" class="msportalfx-svg-c16" fill="#3999c6"></path><path d="M27.47 15.63l-.53-.57a.568.568 0 0 1-.14-.37c.01-.13.07-.26.17-.35l1.53-1.41c.1-.09.22-.14.34-.14.14 0 .28.06.37.17l4.09 4.39 7.13-9.14c.1-.12.24-.2.4-.2.12 0 .22.04.31.11l1.65 1.27c.11.08.17.19.2.33a.51.51 0 0 1-.11.38l-9.03 11.56a.48.48 0 0 1-.73.03l-5.65-6.06z" class="msportalfx-svg-c14" fill="#57a300"></path><path d="M42.06 30.06l-2.12-2.12L35 32.88l-4.94-4.94-2.12 2.12L32.88 35l-4.94 4.94 2.12 2.12L35 37.12l4.94 4.94 2.12-2.12L37.12 35z" class="msportalfx-svg-c19" fill="#0072c6"></path></g><defs>
</defs>
</svg>