<svg viewBox="0 0 18 18" data-islogo="true" class="" role="presentation" focusable="false" xmlns:svg="http://www.w3.org/2000/svg" xmlns:xlink="http://www.w3.org/1999/xlink" id="FxSymbol0-033" data-type="1"><g><title>Icon-containers-101</title><path d="M5.76 1.05l-2.86.53v3.89l2.86.62L8.47 5a.27.27 0 0 0 .16-.24V2.21A.25.25 0 0 0 8.46 2z" fill="url(#aeb2a765-9cdc-409c-947f-a212bb6989c4)"></path><path d="M5.87 6l2.58-1a.25.25 0 0 0 .15-.23V2.23A.26.26 0 0 0 8.43 2l-2.6-.88a.25.25 0 0 0-.12 0l-2.61.46a.18.18 0 0 0-.1.19V5.3a.19.19 0 0 0 .15.19L5.73 6a.36.36 0 0 0 .14 0z" fill="none"></path><path d="M2.9 1.58v3.89l2.89.62v-5zm1.21 3.6L3.3 5V2l.81-.13zm1.27.23l-.93-.15V1.83l.93-.17z" fill="#341a6e"></path><path d="M11.94 1.1l-2.86.52v3.9l2.86.62L14.65 5a.24.24 0 0 0 .16-.23V2.25a.25.25 0 0 0-.17-.25z" fill="url(#eddb5ac8-06fb-4f61-bf76-5c91bf882f19)"></path><path d="M9.08 1.62v3.9l2.92.62v-5zm1.22 3.61l-.81-.16v-3l.81-.14zm1.26.23l-.93-.15V1.87l.93-.16z" fill="#341a6e"></path><path d="M2.82 6.43L0 7v3.9l2.86.61 2.71-1.09a.25.25 0 0 0 .16-.23v-2.6a.26.26 0 0 0-.17-.24z" fill="url(#b4cf5827-6183-4b67-9e1b-e5a697c1c1dc)"></path><path d="M0 7v3.9l2.89.61v-5zm1.22 3.61l-.85-.21v-3l.81-.13zm1.26.22l-.93-.15V7.21l.93-.16z" fill="#341a6e"></path><path d="M9 6.39l-2.86.53v3.9l2.86.61 2.71-1.09a.25.25 0 0 0 .16-.23V7.55a.26.26 0 0 0-.17-.24z" fill="url(#fbd9145a-6ef5-4316-87e0-eff4874a6c5c)"></path><path d="M6.13 6.92v3.9l2.87.61v-5zm1.21 3.61l-.8-.17v-3l.8-.13zm1.27.22l-.93-.15V7.17L8.61 7z" fill="#341a6e"></path><path d="M15.17 6.44L12.31 7v3.9l2.86.61 2.71-1.09a.26.26 0 0 0 .16-.23V7.6a.26.26 0 0 0-.17-.24z" fill="url(#ad82296d-3929-4228-9888-abcc5676f1ad)"></path><path d="M12.31 7v3.9l2.89.61v-5zm1.21 3.61l-.81-.17v-3l.81-.13zm1.26.22l-.92-.15V7.22l.92-.16z" fill="#341a6e"></path><path d="M5.69 11.86l-2.86.53v3.9l2.86.61 2.71-1.09a.25.25 0 0 0 .15-.23V13a.25.25 0 0 0-.17-.24z" fill="url(#b56491c6-aee5-452c-b572-0c52485d3fb4)"></path><path d="M5.79 16.84l2.62-1.06a.19.19 0 0 0 .12-.17V13a.25.25 0 0 0-.17-.23l-2.6-.89h-.12L3 12.39a.2.2 0 0 0-.16.19v3.54a.19.19 0 0 0 .16.18l2.62.55a.22.22 0 0 0 .17-.01z" fill="none"></path><path d="M2.83 12.39v3.9l2.89.61v-5zM4 16l-.81-.17v-3l.81-.14zm1.26.22l-.93-.15v-3.43l.93-.16z" fill="#341a6e"></path><path d="M11.87 11.91L9 12.44v3.9l2.86.61 2.71-1.09a.26.26 0 0 0 .16-.23v-2.56a.26.26 0 0 0-.17-.24z" fill="url(#b5e1fb96-5509-44a1-9e88-8f1ccb9e2583)"></path><path d="M9 12.44v3.9l2.9.66v-5zm1.21 3.61l-.81-.17v-3l.81-.13zm1.27.22l-.93-.15v-3.43l.93-.16z" fill="#341a6e"></path></g><defs>
<linearGradient id="aeb2a765-9cdc-409c-947f-a212bb6989c4" x1="2.9" y1="3.57" x2="8.63" y2="3.57" gradientUnits="userSpaceOnUse"><stop offset="0" stop-color="#b77af4"></stop><stop offset="1" stop-color="#773adc"></stop></linearGradient>
<linearGradient id="eddb5ac8-06fb-4f61-bf76-5c91bf882f19" x1="9.08" y1="3.62" x2="14.81" y2="3.62"><stop offset="0" stop-color="#b77af4"></stop><stop offset="1" stop-color="#773adc"></stop></linearGradient>
<linearGradient id="b4cf5827-6183-4b67-9e1b-e5a697c1c1dc" x1="-.04" y1="8.95" x2="5.69" y2="8.95"><stop offset="0" stop-color="#b77af4"></stop><stop offset="1" stop-color="#773adc"></stop></linearGradient>
<linearGradient id="fbd9145a-6ef5-4316-87e0-eff4874a6c5c" x1="6.13" y1="8.91" x2="11.86" y2="8.91"><stop offset="0" stop-color="#b77af4"></stop><stop offset="1" stop-color="#773adc"></stop></linearGradient>
<linearGradient id="ad82296d-3929-4228-9888-abcc5676f1ad" x1="12.31" y1="8.96" x2="18.04" y2="8.96"><stop offset="0" stop-color="#b77af4"></stop><stop offset="1" stop-color="#773adc"></stop></linearGradient>
<linearGradient id="b56491c6-aee5-452c-b572-0c52485d3fb4" x1="2.83" y1="14.38" x2="8.55" y2="14.38"><stop offset="0" stop-color="#b77af4"></stop><stop offset="1" stop-color="#773adc"></stop></linearGradient>
<linearGradient id="b5e1fb96-5509-44a1-9e88-8f1ccb9e2583" x1="9.01" y1="14.43" x2="14.74" y2="14.43"><stop offset="0" stop-color="#b77af4"></stop><stop offset="1" stop-color="#773adc"></stop></linearGradient>
</defs>
</svg>