<svg viewBox="0 0 18 18" class="" role="presentation" focusable="false" xmlns="http://www.w3.org/2000/svg" xmlns:xlink="http://www.w3.org/1999/xlink" id="FxSymbol0-111" data-type="1"><g><path fill="#5ea0ef" d="M17.947 15.105c-.167.733-1.083 1.456-2.738 2.018a22.6 22.6 0 01-12.69.018C.994 16.6.171 15.917.042 15.213c-.022-.124 0-2.058 0-2.058l17.935-.166s-.009 2.026-.03 2.116z"></path><ellipse cx="9.001" cy="13.115" fill="#50e6ff" rx="8.976" ry="3.103" transform="rotate(-.575 9.002 13.099)"></ellipse><path fill="url(#955724ae-8582-4ca1-9b57-4284a5f54141)" d="M6.322.041L3.875.494v3.337l2.447.522 2.455-.984V.879L6.322.041z"></path><path fill="none" d="M6.416 4.3l2.241-.9a.173.173 0 00.1-.12V1.016a.181.181 0 00-.108-.154L6.382.092h-.1L4.055.5a.17.17 0 00-.129.154v3.02a.164.164 0 00.129.163l2.25.47a.261.261 0 00.111-.007z"></path><path fill="url(#955724ae-8582-4ca1-9b57-4284a5f54142)" d="M11.617.084L9.171.537v3.337l2.446.522 2.447-.993V.922L11.617.084z"></path><path fill="url(#955724ae-8582-4ca1-9b57-4284a5f54143)" d="M3.815 4.644l-2.447.453v3.337l2.447.522 2.455-.984v-2.49l-2.455-.838z"></path><path fill="url(#955724ae-8582-4ca1-9b57-4284a5f54144)" d="M9.094 4.609l-2.447.454v3.336l2.447.531 2.446-.993V5.448l-2.446-.839z"></path><path fill="url(#955724ae-8582-4ca1-9b57-4284a5f54145)" d="M14.372 4.652l-2.447.454v3.336l2.447.522 2.456-.984V5.491l-2.456-.839z"></path><path fill="url(#955724ae-8582-4ca1-9b57-4284a5f54146)" d="M6.262 9.298l-2.447.445v3.336l2.447.531 2.455-.993v-2.481l-2.455-.838z"></path><path fill="none" d="M6.356 13.541l2.233-.855a.156.156 0 00.1-.154v-2.225a.171.171 0 00-.112-.188l-2.258-.77a.152.152 0 00-.1 0L4 9.751a.163.163 0 00-.137.163v3.028a.163.163 0 00.128.163l2.25.436a.189.189 0 00.115 0z"></path><path fill="url(#955724ae-8582-4ca1-9b57-4284a5f54147)" d="M11.549 9.332l-2.447.453v3.337l2.447.522 2.455-.984v-2.49l-2.455-.838z"></path><path fill="#341a6e" d="M3.875.494v3.337l2.472.522V.075zm1.044 3.08l-.693-.137V.871L4.919.76zM6 3.771l-.8-.128V.708L6 .571zM9.171.537v3.337l2.455.522V.118zm1.035 3.08l-.693-.137V.914L10.206.8zm1.078.2l-.8-.128V.751l.8-.145zM1.36 5.1v3.308l2.472.522V4.652zM2.4 8.186l-.7-.146V5.474l.693-.12zm1.086.222l-.8-.128V5.311l.8-.137zm3.161-3.345v3.345l2.464.522V4.652zm1.035 3.088l-.693-.145V5.439l.693-.119zm1.078.189l-.8-.129V5.277l.8-.137zm3.165-3.234v3.3l2.475.524V4.652zm1.044 3.088l-.693-.145V5.482l.693-.12zm1.078.188l-.795-.128V5.32l.8-.137zM3.815 9.743v3.336l2.473.531V9.264zm1.044 3.088l-.693-.145v-2.567L4.859 10zm1.078.2l-.8-.128V9.957l.8-.137zM9.1 9.785v3.337l2.473.522V9.366zm1.044 3.089l-.693-.146v-2.566l.693-.12zm1.078.188l-.8-.128V10l.8-.137z"></path></g><defs>
<linearGradient id="955724ae-8582-4ca1-9b57-4284a5f54141" x1="3.875" x2="8.777" y1="2.197" y2="2.197" gradientUnits="userSpaceOnUse"><stop offset="0" stop-color="#b77af4"></stop><stop offset="1" stop-color="#773adc"></stop></linearGradient>
<linearGradient id="955724ae-8582-4ca1-9b57-4284a5f54142" x1="9.171" x2="14.064" y1="2.24" y2="2.24" gradientUnits="userSpaceOnUse"><stop offset="0" stop-color="#b77af4"></stop><stop offset="1" stop-color="#773adc"></stop></linearGradient>
<linearGradient id="955724ae-8582-4ca1-9b57-4284a5f54143" x1="1.368" x2="6.27" y1="6.8" y2="6.8" gradientUnits="userSpaceOnUse"><stop offset="0" stop-color="#b77af4"></stop><stop offset="1" stop-color="#773adc"></stop></linearGradient>
<linearGradient id="955724ae-8582-4ca1-9b57-4284a5f54144" x1="6.647" x2="11.54" y1="6.77" y2="6.77" gradientUnits="userSpaceOnUse"><stop offset="0" stop-color="#b77af4"></stop><stop offset="1" stop-color="#773adc"></stop></linearGradient>
<linearGradient id="955724ae-8582-4ca1-9b57-4284a5f54145" x1="11.925" x2="16.828" y1="6.808" y2="6.808" gradientUnits="userSpaceOnUse"><stop offset="0" stop-color="#b77af4"></stop><stop offset="1" stop-color="#773adc"></stop></linearGradient>
<linearGradient id="955724ae-8582-4ca1-9b57-4284a5f54146" x1="3.815" x2="8.717" y1="11.454" y2="11.454" gradientUnits="userSpaceOnUse"><stop offset="0" stop-color="#b77af4"></stop><stop offset="1" stop-color="#773adc"></stop></linearGradient>
<linearGradient id="955724ae-8582-4ca1-9b57-4284a5f54147" x1="9.102" x2="14.004" y1="11.488" y2="11.488" gradientUnits="userSpaceOnUse"><stop offset="0" stop-color="#b77af4"></stop><stop offset="1" stop-color="#773adc"></stop></linearGradient>
</defs>
</svg>