<svg viewBox="0 0 18 18" class="" role="presentation" focusable="false" xmlns:svg="http://www.w3.org/2000/svg" xmlns:xlink="http://www.w3.org/1999/xlink" id="FxSymbol0-0cd" data-type="1"><g><title>Icon-devops-265</title><path d="M17.5 9.08a3.82 3.82 0 0 0-3.32-3.67A4.81 4.81 0 0 0 9.23.8 5 5 0 0 0 4.48 4a4.54 4.54 0 0 0-4 4.39 4.62 4.62 0 0 0 4.79 4.44 3 3 0 0 0 .42 0h7.75a.64.64 0 0 0 .2 0 3.86 3.86 0 0 0 3.86-3.75z" fill="url(#e57d1fe5-b52e-4274-9d08-e2461ccc36fe)"></path><path d="M14.81 17.2H5.17c-.31 0-.49-.49-.32-.75l3.32-4.84a.34.34 0 0 0 .07-.22v-3.2A.2.2 0 0 0 8.05 8h-.18a.38.38 0 0 1-.38-.38v-.17a.38.38 0 0 1 .38-.38h4.23a.38.38 0 0 1 .38.38v.17a.38.38 0 0 1-.38.38h-.18a.19.19 0 0 0-.19.19v3.21a.36.36 0 0 0 .07.22l3.32 4.83c.17.25-.01.75-.31.75z" fill="url(#be195039-c4e2-4308-9e01-e416f2347f85)"></path><path d="M6.28 15.9l2.52-3.68a.94.94 0 0 0 .2-.52v-1.48a.29.29 0 0 1 .29-.29h1.44a.29.29 0 0 1 .29.29v1.58a.61.61 0 0 0 .11.35l2.58 3.75a.23.23 0 0 1-.18.35h-7a.22.22 0 0 1-.25-.35z" class="msportalfx-svg-c01" fill="#ffffff"></path></g><defs>
<linearGradient id="e57d1fe5-b52e-4274-9d08-e2461ccc36fe" x1="9" y1="16.39" x2="9" y2="-1.94" gradientUnits="userSpaceOnUse"><stop offset="0" stop-color="#0078d4"></stop><stop offset=".16" stop-color="#1380da"></stop><stop offset=".53" stop-color="#3c91e5"></stop><stop offset=".82" stop-color="#559cec"></stop><stop offset="1" stop-color="#5ea0ef"></stop></linearGradient>
<linearGradient id="be195039-c4e2-4308-9e01-e416f2347f85" x1="9.88" y1="7.11" x2="9.99" y2="17.27" gradientUnits="userSpaceOnUse"><stop offset="0" stop-color="#32d4f5"></stop><stop offset=".32" stop-color="#31d1f3"></stop><stop offset=".53" stop-color="#2ec9eb"></stop><stop offset=".7" stop-color="#29bade"></stop><stop offset=".86" stop-color="#22a5cb"></stop><stop offset="1" stop-color="#198ab3"></stop><stop offset="1" stop-color="#198ab3"></stop></linearGradient>
</defs>
</svg>