<svg viewBox="0 0 18 18" class="" role="presentation" focusable="false" xmlns="http://www.w3.org/2000/svg" xmlns:xlink="http://www.w3.org/1999/xlink" id="FxSymbol0-121" data-type="1"><g><path d="m11.579 12.4-1.987-1.975-.053-.052a1.778 1.778 0 0 1 .052-2.511l.73-.732-.565-.822a.48.48 0 0 1-.084-.272V2.008a.239.239 0 0 1 .239-.239h.224a.479.479 0 0 0 .479-.479v-.216A.478.478 0 0 0 10.135.6H4.827a.479.479 0 0 0-.479.479v.211a.48.48 0 0 0 .479.479h.224a.24.24 0 0 1 .24.239v4.018a.485.485 0 0 1-.084.271l-4.172 6.08c-.218.318.01.934.4.934h10.144Z" fill="url(#59616712-f700-4139-92c6-bd98d17f02c0)"></path><path d="M16.631 10.123a1.356 1.356 0 0 0 .042-1.917l-.042-.042-2.413-2.386a1.355 1.355 0 0 0-1.918-.035l-.035.035-2.378 2.386a1.354 1.354 0 0 0-.042 1.916l.042.043 2 1.986a.365.365 0 0 1 .113.271v3.694a.474.474 0 0 0 .135.332l.9.9a.305.305 0 0 0 .431.017l.016-.017.874-.874.516-.515a.191.191 0 0 0 0-.258l-.373-.373a.2.2 0 0 1 0-.277l.373-.373a.191.191 0 0 0 0-.258l-.373-.373a.2.2 0 0 1 0-.277l.373-.373a.184.184 0 0 0 0-.251l-.516-.522v-.19Zm-3.389-2.2a.787.787 0 0 1-.014-1.573h.014a.787.787 0 0 1 0 1.573Z" fill="url(#59616712-f700-4139-92c6-bd98d17f02c1)"></path><path d="M12.625 16.128A.17.17 0 0 0 12.91 16v-2.983a.182.182 0 0 0-.081-.149.17.17 0 0 0-.258.149V16a.166.166 0 0 0 .054.128Z" fill="#faa21d"></path><rect x="11.337" y="8.957" width="3.911" height=".461" rx=".21" fill="#faa21d"></rect><rect x="11.337" y="9.709" width="3.911" height=".461" rx=".21" fill="#faa21d"></rect><path d="M9.638 10.382a1.324 1.324 0 0 1-.053-.053 1.7 1.7 0 0 1-.022-2.338l-.7-1.011a.783.783 0 0 1-.137-.442V4.551a.368.368 0 0 0-.368-.368h-1.8a.369.369 0 0 0-.369.368v1.861a1.163 1.163 0 0 1-.2.656l-3.169 4.62a.276.276 0 0 0 .227.432h8.337Z" class="msportalfx-svg-c01" fill="#ffffff"></path></g><defs>
<linearGradient id="59616712-f700-4139-92c6-bd98d17f02c0" x1="6.136" y1=".665" x2="6.274" y2="13.402" gradientUnits="userSpaceOnUse"><stop offset="0" stop-color="#5ea0ef"></stop><stop offset="1" stop-color="#0078d4"></stop></linearGradient>
<linearGradient id="59616712-f700-4139-92c6-bd98d17f02c1" x1="13.259" y1="5.363" x2="13.259" y2="17.405" gradientUnits="userSpaceOnUse"><stop offset=".001" stop-color="#ffbd02"></stop><stop offset="1" stop-color="#ffd400"></stop></linearGradient>
</defs>
</svg>