<svg viewBox="0 0 18 18" class="" role="presentation" focusable="false" xmlns="http://www.w3.org/2000/svg" xmlns:xlink="http://www.w3.org/1999/xlink" id="FxSymbol0-0c2" data-type="1"><g><path d="M5.927 14.472H3.721a.119.119 0 0 0-.119.119v3.338a.06.06 0 0 0 .06.06.064.064 0 0 0 .037-.013l1.089-.853a.053.053 0 0 1 .024-.011l1.238-.965v-1.556a.119.119 0 0 0-.123-.119Z" fill="url(#59616712-f700-4139-92c6-bd98d17f0244)"></path><path d="m4.808 17.109 1.238-.965v1.8a.059.059 0 0 1-.059.056.063.063 0 0 1-.037-.012Z" fill="#76bc2d"></path><path d="M1.871 1.632 3.092.21A.592.592 0 0 1 3.545 0h11.708a.817.817 0 0 1 .894.732.614.614 0 0 1 0 .1v13.456a.572.572 0 0 1-.2.433l-1.311 1.2H2.668l-.817-.332Z" fill="#0078d4"></path><path d="m2.859 1.627.746-.853a.507.507 0 0 1 .353-.181h10.983a.525.525 0 0 1 .524.524v12.72a.522.522 0 0 1-.171.394l-1.17 1.059Z" class="msportalfx-svg-c01" fill="#ffffff"></path><path d="M14.043 1.611H1.939a.061.061 0 0 0-.061.061v13.952a.394.394 0 0 0 .394.382h11.771a.382.382 0 0 0 .382-.382V2.008a.4.4 0 0 0-.382-.397Z" fill="url(#59616712-f700-4139-92c6-bd98d17f0245)"></path><path d="M8.156 14.123A1.625 1.625 0 1 1 9.781 12.5a1.626 1.626 0 0 1-1.625 1.623Zm0-2.562a.938.938 0 1 0 .944.939.938.938 0 0 0-.944-.939Z" opacity=".9" class="msportalfx-svg-c01" fill="#ffffff"></path><path d="M11.944 6.737H9.906a.071.071 0 0 0-.051.122l.582.582a.083.083 0 0 1 0 .117L8.859 9.137c-.071.07-.122.152-.187.226V5.15a.072.072 0 0 1 .072-.072h.85a.073.073 0 0 0 .051-.123L8.2 3.515a.071.071 0 0 0-.1 0l-1.438 1.44a.073.073 0 0 0 .051.123h.843a.08.08 0 0 1 .072.072v4.21c-.064-.073-.115-.154-.184-.223L5.866 7.558a.082.082 0 0 1 0-.117l.581-.582a.072.072 0 0 0 0-.1.07.07 0 0 0-.05-.02H4.359a.071.071 0 0 0-.071.071v2.036a.071.071 0 0 0 .072.071.077.077 0 0 0 .05-.02l.61-.61a.082.082 0 0 1 .117 0l1.578 1.578a3.038 3.038 0 0 1 .726 1.182 1.56 1.56 0 0 1 1.42-.006 3.052 3.052 0 0 1 .726-1.176l1.578-1.578a.083.083 0 0 1 .118 0l.61.61a.074.074 0 0 0 .049.02.073.073 0 0 0 .073-.071V6.808a.072.072 0 0 0-.071-.071Z" fill="url(#59616712-f700-4139-92c6-bd98d17f0246)"></path></g><defs>
<linearGradient id="59616712-f700-4139-92c6-bd98d17f0244" x1="-559.176" y1="1007.063" x2="-559.176" y2="1010.919" gradientTransform="matrix(1 0 0 -1 564 1025.516)" gradientUnits="userSpaceOnUse"><stop offset="0" stop-color="#76bc2d"></stop><stop offset=".4" stop-color="#84d332"></stop><stop offset=".75" stop-color="#86d633"></stop></linearGradient>
<linearGradient id="59616712-f700-4139-92c6-bd98d17f0245" x1="-555.849" y1="73.585" x2="-555.849" y2="55.904" gradientTransform="translate(564 -54.484)" gradientUnits="userSpaceOnUse"><stop offset="0" stop-color="#0078d4"></stop><stop offset="1" stop-color="#83b9f9"></stop></linearGradient>
<linearGradient id="59616712-f700-4139-92c6-bd98d17f0246" x1="8.151" y1="4.178" x2="8.151" y2="10.677" gradientUnits="userSpaceOnUse"><stop offset="0" stop-color="#fff"></stop><stop offset="1" stop-color="#fff" stop-opacity=".7"></stop></linearGradient>
</defs>
</svg>