<svg viewBox="0 0 50 50" class="fxs-portal-svg" role="presentation" focusable="false" xmlns:svg="http://www.w3.org/2000/svg" xmlns:xlink="http://www.w3.org/1999/xlink" id="FxSymbol0-06e" data-type="1"><g><title></title><path d="M25 50c-1.2 0-2.4-.5-3.3-1.4L1.4 28.3C.5 27.4 0 26.2 0 25s.5-2.4 1.4-3.3L21.7 1.4C22.6.5 23.8 0 25 0s2.4.5 3.3 1.4l20.4 20.4c.9.9 1.4 2 1.4 3.3 0 1.2-.5 2.4-1.4 3.3L28.3 48.6c-.9.9-2.1 1.4-3.3 1.4" class="msportalfx-svg-c14" fill="#57a300"></path><path opacity=".15" d="M28.3 1.4C27.4.5 26.2 0 25 0s-2.4.5-3.3 1.4L1.4 21.7C.5 22.6 0 23.8 0 25s.5 2.4 1.4 3.3l11.5 11.5L34.6 7.7l-6.3-6.3z" class="msportalfx-svg-c01" fill="#ffffff"></path><path d="M25 4.4L18.4 11h4.7v9.6H27V11h4.6zm0 41.2l6.6-6.6h-4.7v-9.4H23V39h-4.6zM28.1 25l6.6 6.6V27h8.9v-4h-8.9v-4.6zM22 25l-6.6-6.6V23h-9v4h9v4.6z" class="msportalfx-svg-c01" fill="#ffffff"></path></g><defs>
<linearGradient id="a" x1="9" y1="16.39" x2="9" y2="-1.94" gradientUnits="userSpaceOnUse"><stop offset="0" stop-color="#0078d4"></stop><stop offset=".16" stop-color="#1380da"></stop><stop offset=".53" stop-color="#3c91e5"></stop><stop offset=".82" stop-color="#559cec"></stop><stop offset="1" stop-color="#5ea0ef"></stop></linearGradient>
<linearGradient id="b" x1="9.88" y1="7.11" x2="9.99" y2="17.27" gradientUnits="userSpaceOnUse"><stop offset="0" stop-color="#32d4f5"></stop><stop offset=".32" stop-color="#31d1f3"></stop><stop offset=".53" stop-color="#2ec9eb"></stop><stop offset=".7" stop-color="#29bade"></stop><stop offset=".86" stop-color="#22a5cb"></stop><stop offset="1" stop-color="#198ab3"></stop><stop offset="1" stop-color="#198ab3"></stop></linearGradient>
<radialGradient id="c" cx="9.43" cy="7.03" r="7.27" gradientUnits="userSpaceOnUse"><stop offset="0" stop-color="#f2f2f2"></stop><stop offset=".58" stop-color="#eee"></stop><stop offset="1" stop-color="#e6e6e6"></stop></radialGradient>
</defs>
</svg>