<svg viewBox="0 0 50 50" class="" role="presentation" focusable="false" xmlns="http://www.w3.org/2000/svg" xmlns:xlink="http://www.w3.org/1999/xlink" id="FxSymbol0-0be" data-type="1"><g><title></title><path d="M25 50c-1.2 0-2.4-.5-3.3-1.4L1.4 28.3C.5 27.4 0 26.2 0 25s.5-2.4 1.4-3.3L21.7 1.4C22.6.5 23.8 0 25 0s2.4.5 3.3 1.4l20.4 20.4c.9.9 1.4 2 1.4 3.3 0 1.2-.5 2.4-1.4 3.3L28.3 48.6c-.9.9-2.1 1.4-3.3 1.4" class="msportalfx-svg-c14" fill="#57a300"></path><path opacity=".15" d="M28.3 1.4C27.4.5 26.2 0 25 0s-2.4.5-3.3 1.4L1.4 21.7C.5 22.6 0 23.8 0 25s.5 2.4 1.4 3.3l11.5 11.5L34.6 7.7l-6.3-6.3z" class="msportalfx-svg-c01" fill="#ffffff"></path><path d="M25 4.4 18.4 11h4.7v9.6H27V11h4.6zm0 41.2 6.6-6.6h-4.7v-9.4H23V39h-4.6zM28.1 25l6.6 6.6V27h8.9v-4h-8.9v-4.6zM22 25l-6.6-6.6V23h-9v4h9v4.6z" class="msportalfx-svg-c01" fill="#ffffff"></path></g><defs>
</defs>
</svg>