<svg viewBox="0 0 18 18" class="" role="presentation" focusable="false" xmlns="http://www.w3.org/2000/svg" xmlns:xlink="http://www.w3.org/1999/xlink" id="FxSymbol0-114" data-type="1"><g><title></title><path fill="#773ADC" d="M17.591.418A1.4 1.4 0 0 0 16.6.009H6.544a1.407 1.407 0 0 0-1.4 1.4v10.065a1.407 1.407 0 0 0 1.4 1.4H16.6a1.4 1.4 0 0 0 1.4-1.4V1.407a1.4 1.4 0 0 0-.409-.989z"></path><path fill="url(#955724ae-8582-4ca1-9b57-4284a5f54148)" d="M14.886 3.123a1.4 1.4 0 0 0-.989-.409H3.839a1.407 1.407 0 0 0-1.4 1.4v10.065a1.407 1.407 0 0 0 1.4 1.4H13.9a1.4 1.4 0 0 0 1.4-1.4V4.112a1.402 1.402 0 0 0-.414-.989z"></path><path fill="url(#955724ae-8582-4ca1-9b57-4284a5f54149)" d="M11.456 17.991H1.4a1.407 1.407 0 0 1-1.4-1.4V6.526a1.407 1.407 0 0 1 1.4-1.4h10.056a1.4 1.4 0 0 1 1.4 1.4v10.067a1.4 1.4 0 0 1-1.4 1.4v-.002z"></path><path d="M4.48 13.637a.333.333 0 0 0-.325.34v.68A.333.333 0 0 0 4.48 15h6.16a.334.334 0 0 0 .303-.212.331.331 0 0 0 .022-.128v-.68a.332.332 0 0 0-.324-.34l-6.161-.003zm-2.591.331a.33.33 0 0 1 .33-.331h.7a.33.33 0 0 1 .33.331v.7a.331.331 0 0 1-.331.332h-.7a.331.331 0 0 1-.33-.331v-.701zm2.591-3.089a.334.334 0 0 0-.325.34v.68a.333.333 0 0 0 .325.34h6.161a.334.334 0 0 0 .302-.212.33.33 0 0 0 .022-.128v-.68a.333.333 0 0 0-.324-.34h-6.16zm-2.591.331a.33.33 0 0 1 .33-.331h.7a.33.33 0 0 1 .33.331v.7a.331.331 0 0 1-.33.33h-.7a.33.33 0 0 1-.33-.33v-.7zM4.48 8.122a.333.333 0 0 0-.325.34v.68a.334.334 0 0 0 .325.34h6.161a.333.333 0 0 0 .324-.34v-.68a.332.332 0 0 0-.324-.34h-6.16zm-2.591.33a.33.33 0 0 1 .33-.33h.7a.331.331 0 0 1 .33.33v.7a.331.331 0 0 1-.33.331h-.7a.331.331 0 0 1-.33-.331v-.7z" class="msportalfx-svg-c01" fill="#ffffff"></path><defs></defs></g><defs>
<linearGradient id="955724ae-8582-4ca1-9b57-4284a5f54148" x1="8.819" x2="9.017" y1="13.816" y2="-4.795" gradientUnits="userSpaceOnUse"><stop stop-color="#773ADC"></stop><stop offset=".157" stop-color="#7D43DF"></stop><stop offset=".411" stop-color="#8E5BE6"></stop><stop offset=".729" stop-color="#A981F2"></stop><stop offset=".88" stop-color="#B796F9"></stop></linearGradient>
<linearGradient id="955724ae-8582-4ca1-9b57-4284a5f54149" x1="6.427" x2="6.427" y1="22.732" y2="3.164" gradientUnits="userSpaceOnUse"><stop stop-color="#773ADC"></stop><stop offset=".869" stop-color="#B796F9"></stop></linearGradient>
</defs>
</svg>