<svg viewBox="0 0 18 18" class="" role="presentation" focusable="false" xmlns="http://www.w3.org/2000/svg" xmlns:xlink="http://www.w3.org/1999/xlink" id="FxSymbol0-112" data-type="353"><g><title>Icon-manage-307</title><path d="M5.59 13.13h4.32v4.32H5.59zm-4.44 4.32h3.72v-4.32H.55v3.72a.6.6 0 0 0 .6.6zm-.6-5h4.32V8.09H.55z" fill="url(#a997e203-1d7d-4cb9-b131-5dc44e029b46)"></path><path d="M11.5.55a5.89 5.89 0 0 1 5.95 6 5.89 5.89 0 0 1-5.95 5.95H5.55v-6A5.89 5.89 0 0 1 11.5.55z" fill-rule="evenodd" fill="url(#e122e9d8-aee5-4f1a-a60e-b1eae355daa5)"></path><path d="M7.59 5.65h1.36v4.08H7.59zm2.72 1.36h1.36v2.72h-1.36zm2.72-2.72h1.36v5.44h-1.36z" class="msportalfx-svg-c01" fill="#ffffff"></path></g><defs>
<linearGradient id="a997e203-1d7d-4cb9-b131-5dc44e029b46" x1="5.23" y1="17.45" x2="5.23" y2="8.09" gradientUnits="userSpaceOnUse"><stop offset="0" stop-color="#1988d9"></stop><stop offset=".9" stop-color="#54aef0"></stop></linearGradient>
<linearGradient id="e122e9d8-aee5-4f1a-a60e-b1eae355daa5" x1="11.5" y1="12.45" x2="11.5" y2=".55" gradientUnits="userSpaceOnUse"><stop offset="0" stop-color="#198ab3"></stop><stop offset=".01" stop-color="#198bb4"></stop><stop offset=".44" stop-color="#27b2d7"></stop><stop offset=".79" stop-color="#2fcbed"></stop><stop offset="1" stop-color="#32d4f5"></stop></linearGradient>
</defs>
</svg>