<svg viewBox="0 0 50 50" class="fxs-portal-svg" role="presentation" focusable="false" xmlns:svg="http://www.w3.org/2000/svg" xmlns:xlink="http://www.w3.org/1999/xlink" id="FxSymbol0-0fa" data-type="353"><g><title></title><path fill-rule="evenodd" clip-rule="evenodd" d="M1 26h10v10H1zm0-13h10v10H1zm0 26h10v10H1zm13 0h10v10H14zm13 0h10v10H27z" class="msportalfx-svg-c03" fill="#a0a1a2"></path><path fill-rule="evenodd" clip-rule="evenodd" d="M31.5 1C21.705 1 14 8.705 14 18.5V36h17.5C41.295 36 49 28.295 49 18.5S41.295 1 31.5 1z" class="msportalfx-svg-c19" fill="#0072c6"></path><path fill-rule="evenodd" clip-rule="evenodd" d="M21 16h3v11h-3V16zm7 3h3v8h-3v-8zm7-7h3v15h-3V12z" class="msportalfx-svg-c01" fill="#ffffff"></path></g><defs>
<linearGradient id="a" x1="9" y1="16.39" x2="9" y2="-1.94" gradientUnits="userSpaceOnUse"><stop offset="0" stop-color="#0078d4"></stop><stop offset=".16" stop-color="#1380da"></stop><stop offset=".53" stop-color="#3c91e5"></stop><stop offset=".82" stop-color="#559cec"></stop><stop offset="1" stop-color="#5ea0ef"></stop></linearGradient>
<linearGradient id="b" x1="9.88" y1="7.11" x2="9.99" y2="17.27" gradientUnits="userSpaceOnUse"><stop offset="0" stop-color="#32d4f5"></stop><stop offset=".32" stop-color="#31d1f3"></stop><stop offset=".53" stop-color="#2ec9eb"></stop><stop offset=".7" stop-color="#29bade"></stop><stop offset=".86" stop-color="#22a5cb"></stop><stop offset="1" stop-color="#198ab3"></stop><stop offset="1" stop-color="#198ab3"></stop></linearGradient>
<radialGradient id="c" cx="9.43" cy="7.03" r="7.27" gradientUnits="userSpaceOnUse"><stop offset="0" stop-color="#f2f2f2"></stop><stop offset=".58" stop-color="#eee"></stop><stop offset="1" stop-color="#e6e6e6"></stop></radialGradient>
</defs>
</svg>