<svg viewBox="0 0 50 50" class="" role="presentation" focusable="false" xmlns:svg="http://www.w3.org/2000/svg" xmlns:xlink="http://www.w3.org/1999/xlink" id="FxSymbol0-01e" data-type="1"><g><title></title><path d="M26 21.3v-5h-2.5v5c0 .9-.8 1.7-2.1 2.1l-3.4.7c-2.3.7-3.9 2.5-3.9 4.5v5.7h2.5v-5.7c0-.9.8-1.7 2.1-2.1l3.4-.8c2.3-.6 3.9-2.4 3.9-4.4z" class="msportalfx-svg-c15" fill="#59b4d9"></path><path d="M19.6 36.9v-4.6c0-1.1-.9-2-2-2H13c-1.1 0-2 .9-2 2v4.6c0 1.1.9 2 2 2h4.6c1.1 0 2-.9 2-2z" class="msportalfx-svg-c14" fill="#57a300"></path><path d="M23.2 21.3v-5h2.5v5c0 .9.8 1.7 2.1 2.1l4.2.9c2.3.7 3.9 2.5 3.9 4.5v5.7h-2.5v-5.7c0-.9-.8-1.7-2.1-2.1l-4.2-.9c-2.3-.7-3.9-2.5-3.9-4.5z" class="msportalfx-svg-c15" fill="#59b4d9"></path><path d="M30.4 37.1v-4.6c0-1.1.9-2 2-2H37c1.1 0 2 .9 2 2v4.6c0 1.1-.9 2-2 2h-4.6c-1.1 0-2-.9-2-2z" class="msportalfx-svg-c14" fill="#57a300"></path><path d="M23.2 16.3H26v4.8h-2.8z" class="msportalfx-svg-c15" fill="#59b4d9"></path><path d="M26.5 11.7v3.7h-3.7v-3.7h3.7m.8-2.8H22c-1.1 0-2 .9-2 2v5.3c0 1.1.9 2 2 2h5.3c1.1 0 2-.9 2-2v-5.3c0-1.1-.9-2-2-2z" class="msportalfx-svg-c19" fill="#0072c6"></path><path d="M7.9 44.4c-2.1 0-3.6-.4-4.5-1.1-.9-.8-1.3-2.1-1.3-4V28.9c0-1.7-.7-2.6-2.1-2.6v-2.6c1.4 0 2.1-.9 2.1-2.7V10.8c0-1.9.4-3.3 1.3-4.1s2.4-1.1 4.5-1.1v2.6c-1.5 0-2.3.8-2.3 2.5v10c0 2.3-.7 3.7-2.2 4.3 1.4.6 2.2 2 2.2 4.3v9.9c0 .9.2 1.6.5 2 .4.4.9.6 1.7.6l.1 2.6c-.1 0 0 0 0 0zM42.1 5.6c2.1 0 3.6.4 4.5 1.1.9.8 1.3 2.1 1.3 4v10.4c0 1.7.7 2.6 2.1 2.6v2.6c-1.4 0-2.1.9-2.1 2.7v10.1c0 1.9-.4 3.3-1.3 4.1-.9.8-2.4 1.2-4.5 1.2v-2.6c1.5 0 2.3-.8 2.3-2.5v-10c0-2.3.7-3.7 2.2-4.3-1.4-.6-2.2-2-2.2-4.3v-9.9c0-.9-.2-1.6-.5-2-.4-.4-.9-.6-1.7-.6l-.1-2.6z" class="msportalfx-svg-c15" fill="#59b4d9"></path></g><defs>
<linearGradient id="a" x1="9" y1="16.39" x2="9" y2="-1.94" gradientUnits="userSpaceOnUse"><stop offset="0" stop-color="#0078d4"></stop><stop offset=".16" stop-color="#1380da"></stop><stop offset=".53" stop-color="#3c91e5"></stop><stop offset=".82" stop-color="#559cec"></stop><stop offset="1" stop-color="#5ea0ef"></stop></linearGradient>
<linearGradient id="b" x1="9.88" y1="7.11" x2="9.99" y2="17.27" gradientUnits="userSpaceOnUse"><stop offset="0" stop-color="#32d4f5"></stop><stop offset=".32" stop-color="#31d1f3"></stop><stop offset=".53" stop-color="#2ec9eb"></stop><stop offset=".7" stop-color="#29bade"></stop><stop offset=".86" stop-color="#22a5cb"></stop><stop offset="1" stop-color="#198ab3"></stop><stop offset="1" stop-color="#198ab3"></stop></linearGradient>
<radialGradient id="c" cx="9.43" cy="7.03" r="7.27" gradientUnits="userSpaceOnUse"><stop offset="0" stop-color="#f2f2f2"></stop><stop offset=".58" stop-color="#eee"></stop><stop offset="1" stop-color="#e6e6e6"></stop></radialGradient>
</defs>
</svg>