<svg viewBox="0 0 18 18" class="" role="presentation" focusable="false" xmlns:svg="http://www.w3.org/2000/svg" xmlns:xlink="http://www.w3.org/1999/xlink" id="FxSymbol0-092" data-type="1"><g><title></title><path d="M8.77 10.25v-3h.11c.47 0 .66-.33.66-1a.78.78 0 0 0-.93-.87H3.08a.78.78 0 0 0-.8.75v.36a.8.8 0 0 0 .83.76h.1v3L0 16.23 1.11 18h9.26l1.31-1.77zM5 13.79l-1.4 2.34H1.69L5 10.25v-3h1.91v3l2 3.54H5z" class="msportalfx-svg-c15" fill="#59b4d9"></path><path d="M4.99 13.79L3.6 16.13H1.69l3.36-5.88V7.26h1.86v2.99l1.97 3.54H4.99z" class="msportalfx-svg-c02" fill="#e5e5e5"></path><path d="M11.76 0h-.26a6.85 6.85 0 0 0-5.87 4l-.17.49h1L6.63 4h1.44L8 4.49h1V4h2v2h-.6a3.54 3.54 0 0 1 0 .44 2.9 2.9 0 0 1-.05.56H11v2h-1v1h1v2h-.32l.53 1h.54A6.43 6.43 0 0 0 18 6.5 6.51 6.51 0 0 0 11.76 0zm-4.6 3a5.91 5.91 0 0 1 2.4-2 4.84 4.84 0 0 0-1.27 2H7.16zM11 3H9.21A3.7 3.7 0 0 1 11 .83V3zm6.23 3h-1.76a5.87 5.87 0 0 0-.29-2h1.4a4.82 4.82 0 0 1 .66 2zm-1-3h-1.3a4.82 4.82 0 0 0-1.13-1.94A6.21 6.21 0 0 1 16.22 3zM12 .83A3.26 3.26 0 0 1 13.94 3H12V.83zM12 4h2.3a7 7 0 0 1 .32 2H12V4zm0 3h2.62a7.14 7.14 0 0 1-.32 2H12V7zm0 5v-2h2a3.72 3.72 0 0 1-2 2zm1.52 0A6 6 0 0 0 15 10h1.16a6.63 6.63 0 0 1-2.64 2zm3.14-3h-1.48a7.69 7.69 0 0 0 .35-2h1.71a5.94 5.94 0 0 1-.58 2z" class="msportalfx-svg-c03" fill="#a0a1a2"></path></g><defs>
</defs>
</svg>