<svg viewBox="0 0 16 15.14" class="" role="presentation" focusable="false" xmlns="http://www.w3.org/2000/svg" xmlns:xlink="http://www.w3.org/1999/xlink" id="FxSymbol0-049" data-type="1"><g><title></title><title>Icon204Asset 1</title><path d="M10.37 12.06H6c.51 1.86-.2 2.12-3.27 2.12v1h10.45v-1c-3 0-3.32-.26-2.81-2.12" class="msportalfx-svg-c04" fill="#7a7a7a"></path><path d="M15 0H.86A.92.92 0 0 0 0 .93v10.24a.88.88 0 0 0 .86.89H15a1 1 0 0 0 1-.89V.93A1 1 0 0 0 15 0m-.26 1.25v9.57H1.22V1.25h13.56z" class="msportalfx-svg-c03" fill="#a0a1a2"></path><path d="M14.78 10.82H1.22V1.25l13.56-.03v9.6z" class="msportalfx-svg-c15" fill="#59b4d9"></path><path d="M1.22 10.82V1.25H13.6L15 0H.86A.92.92 0 0 0 0 .93v10.24a.88.88 0 0 0 .86.89h.36l1.47-1.21H1.22z" opacity=".2" class="msportalfx-svg-c01" fill="#ffffff"></path><path d="M1.22 10.82V1.25l12.38-.03-12.38.03v9.57z" class="msportalfx-svg-c15" fill="#59b4d9"></path><path d="M7.69 5.52A1.72 1.72 0 0 0 9.3 5a1.59 1.59 0 0 0 .28-1.58l-.83 1-.93-.14-.33-.87.83-1A1.71 1.71 0 0 0 6.78 3a1.59 1.59 0 0 0-.27 1.57L3.8 7.83a.78.78 0 0 0 .11 1.09A.76.76 0 0 0 5 8.81z" class="msportalfx-svg-c01" fill="#ffffff"></path><path d="M2.78 14.18h10.46v.96H2.78z" class="msportalfx-svg-c03" fill="#a0a1a2"></path><path d="M11.92 8.28l.08-.46-.44-.27V7.2l.35-.43-.12-.18-.13-.23h-.07l-.52.13-.3-.16-.07-.63-.46-.11-.3.41h-.36l-.47-.3-.41.3v.07l.13.52-.21.29L8 6.9l-.11.46.11.04.46.28.04.32-.38.48.25.41h.07L9 8.77l.25.23.07.61.46.11v-.06l.28-.46.34-.06.49.38.4-.25V9.2l-.12-.52.16-.3zm-2.05 0a.66.66 0 0 1-.5-.8.67.67 0 0 1 .8-.5.68.68 0 0 1 .5.8.67.67 0 0 1-.8.47z" opacity=".75" class="msportalfx-svg-c01" fill="#ffffff"></path></g><defs>
</defs>
</svg>