<svg viewBox="0 0 50 50" class="" role="presentation" focusable="false" xmlns:svg="http://www.w3.org/2000/svg" xmlns:xlink="http://www.w3.org/1999/xlink" id="FxSymbol0-051" data-type="1"><g><title></title><title>ManagementGroups</title><path d="M35 21.4l-.288.692-8.944-10.732L25 12l-.768-.64-8.944 10.732L15 21.4 9.077 35.615l1.846.77L15 26.6l4.077 9.785 1.846-.77-4.767-11.44L25 13.562l8.844 10.613-4.767 11.44 1.846.77L35 26.6l4.077 9.785 1.846-.77L35 21.4z" class="msportalfx-svg-c14" fill="#57a300"></path><circle cx="40" cy="36" r="3" class="msportalfx-svg-c16" fill="#3999c6"></circle><circle cx="30" cy="36" r="3" class="msportalfx-svg-c16" fill="#3999c6"></circle><circle cx="25" cy="12" r="5" class="msportalfx-svg-c17" fill="#804998"></circle><circle cx="15" cy="24" r="4" class="msportalfx-svg-c19" fill="#0072c6"></circle><circle cx="35" cy="24" r="4" class="msportalfx-svg-c19" fill="#0072c6"></circle><circle cx="20" cy="36" r="3" class="msportalfx-svg-c16" fill="#3999c6"></circle><circle cx="10" cy="36" r="3" class="msportalfx-svg-c16" fill="#3999c6"></circle><path d="M9.5 45.4a1.854 1.854 0 0 1-.7-.2l-6.8-4a4.125 4.125 0 0 1-2-3.4V12.6a3.994 3.994 0 0 1 2-3.4l6.8-4a1.458 1.458 0 0 1 1.5 2.5l-6.8 4a1.346 1.346 0 0 0-.5.9v25.2a1.346 1.346 0 0 0 .5.9l6.8 4a1.456 1.456 0 0 1 .5 2 1.709 1.709 0 0 1-1.3.7zM40.5 5a1.854 1.854 0 0 1 .7.2l6.8 4a4.125 4.125 0 0 1 2 3.4v25.2a3.994 3.994 0 0 1-2 3.4l-6.8 4a1.458 1.458 0 0 1-1.5-2.5l6.8-4a1.346 1.346 0 0 0 .5-.9V12.6a1.346 1.346 0 0 0-.5-.9l-6.8-4a1.456 1.456 0 0 1-.5-2 1.889 1.889 0 0 1 1.3-.7z" class="msportalfx-svg-c04" fill="#7a7a7a"></path></g><defs>
<linearGradient id="a" x1="9" y1="16.39" x2="9" y2="-1.94" gradientUnits="userSpaceOnUse"><stop offset="0" stop-color="#0078d4"></stop><stop offset=".16" stop-color="#1380da"></stop><stop offset=".53" stop-color="#3c91e5"></stop><stop offset=".82" stop-color="#559cec"></stop><stop offset="1" stop-color="#5ea0ef"></stop></linearGradient>
<linearGradient id="b" x1="9.88" y1="7.11" x2="9.99" y2="17.27" gradientUnits="userSpaceOnUse"><stop offset="0" stop-color="#32d4f5"></stop><stop offset=".32" stop-color="#31d1f3"></stop><stop offset=".53" stop-color="#2ec9eb"></stop><stop offset=".7" stop-color="#29bade"></stop><stop offset=".86" stop-color="#22a5cb"></stop><stop offset="1" stop-color="#198ab3"></stop><stop offset="1" stop-color="#198ab3"></stop></linearGradient>
<radialGradient id="c" cx="9.43" cy="7.03" r="7.27" gradientUnits="userSpaceOnUse"><stop offset="0" stop-color="#f2f2f2"></stop><stop offset=".58" stop-color="#eee"></stop><stop offset="1" stop-color="#e6e6e6"></stop></radialGradient>
</defs>
</svg>