<svg viewBox="0 0 50 50" class="" role="presentation" focusable="false" xmlns:svg="http://www.w3.org/2000/svg" xmlns:xlink="http://www.w3.org/1999/xlink" id="FxSymbol0-0d5" data-type="1"><g><title></title><path d="M26.194 35.171c.044 0 .087-.01.125-.031l8.081-4.476a.23.23 0 0 0 .125-.204v-8.982a.237.237 0 0 0-.125-.206.263.263 0 0 0-.247 0l-8.08 4.476a.236.236 0 0 0-.12.205v8.983c0 .086.046.161.12.204.04.021.08.031.121.031m0 11.829c.044 0 .087-.01.125-.031l8.081-4.476a.23.23 0 0 0 .125-.204v-8.982a.237.237 0 0 0-.125-.206.263.263 0 0 0-.247 0l-8.08 4.476a.236.236 0 0 0-.12.205v8.983c0 .086.046.161.12.204.04.021.08.031.121.031M36.67 29.256c.044 0 .087-.01.125-.031l8.081-4.476a.229.229 0 0 0 .124-.204v-8.982a.237.237 0 0 0-.125-.206.263.263 0 0 0-.247 0l-8.08 4.476a.236.236 0 0 0-.12.205v8.983c0 .086.046.161.12.204a.251.251 0 0 0 .122.031m0 11.829c.044 0 .087-.01.125-.031l8.081-4.476a.228.228 0 0 0 .124-.204v-8.982a.237.237 0 0 0-.125-.206.263.263 0 0 0-.247 0l-8.08 4.476a.236.236 0 0 0-.12.205v8.983c0 .086.046.161.12.204a.251.251 0 0 0 .122.031" class="msportalfx-svg-c16" fill="#3999c6"></path><path opacity=".15" fill="#62117A" d="M26.194 47c.044 0 .087-.01.125-.031l8.081-4.476a.23.23 0 0 0 .125-.204v-8.982a.237.237 0 0 0-.125-.206.263.263 0 0 0-.247 0l-8.08 4.476a.236.236 0 0 0-.12.205v8.983c0 .086.046.161.12.204.04.021.08.031.121.031m10.476-5.915c.044 0 .087-.01.125-.031l8.081-4.476a.228.228 0 0 0 .124-.204v-8.982a.237.237 0 0 0-.125-.206.263.263 0 0 0-.247 0l-8.08 4.476a.236.236 0 0 0-.12.205v8.983c0 .086.046.161.12.204a.251.251 0 0 0 .122.031m-10.476-5.914c.044 0 .087-.01.125-.031l8.081-4.476a.23.23 0 0 0 .125-.204v-8.982a.237.237 0 0 0-.125-.206.263.263 0 0 0-.247 0l-8.08 4.476a.236.236 0 0 0-.12.205v8.983c0 .086.046.161.12.204.04.021.08.031.121.031m10.476-5.915c.044 0 .087-.01.125-.031l8.081-4.476a.229.229 0 0 0 .124-.204v-8.982a.237.237 0 0 0-.125-.206.263.263 0 0 0-.247 0l-8.08 4.476a.236.236 0 0 0-.12.205v8.983c0 .086.046.161.12.204a.251.251 0 0 0 .122.031"></path><path d="M23.806 35.171a.257.257 0 0 1-.125-.031L15.6 30.664a.23.23 0 0 1-.125-.204v-8.982c0-.084.046-.161.125-.206a.263.263 0 0 1 .247 0l8.08 4.476c.075.043.12.121.12.205v8.983a.234.234 0 0 1-.12.204.256.256 0 0 1-.121.031m0 11.829a.257.257 0 0 1-.125-.031L15.6 42.493a.23.23 0 0 1-.125-.204v-8.982c0-.084.046-.161.125-.206a.263.263 0 0 1 .247 0l8.08 4.476c.075.043.12.121.12.205v8.983a.234.234 0 0 1-.12.204.256.256 0 0 1-.121.031M13.33 29.256a.257.257 0 0 1-.125-.031l-8.081-4.476A.229.229 0 0 1 5 24.545v-8.982c0-.084.046-.161.125-.206a.263.263 0 0 1 .247 0l8.08 4.476c.075.043.12.121.12.205v8.983a.234.234 0 0 1-.12.204.251.251 0 0 1-.122.031m0 11.829a.257.257 0 0 1-.125-.031l-8.081-4.476A.228.228 0 0 1 5 36.374v-8.982c0-.084.046-.161.125-.206a.263.263 0 0 1 .247 0l8.08 4.476c.075.043.12.121.12.205v8.983a.234.234 0 0 1-.12.204.251.251 0 0 1-.122.031m3.51-22.3a.237.237 0 0 1 .09-.085l8.031-4.364a.25.25 0 0 1 .243-.002l7.95 4.327a.226.226 0 0 1 .119.2.24.24 0 0 1-.124.199l-8.03 4.363a.256.256 0 0 1-.242-.002l-7.951-4.328a.222.222 0 0 1-.12-.195.234.234 0 0 1 .034-.113M6.37 13.086a.234.234 0 0 1 .089-.085l7.942-4.364a.246.246 0 0 1 .241-.002l7.862 4.327a.225.225 0 0 1 .118.2.238.238 0 0 1-.123.199l-7.942 4.363a.25.25 0 0 1-.239-.002l-7.863-4.328a.225.225 0 0 1-.119-.195.224.224 0 0 1 .034-.113m21.161.096a.234.234 0 0 1 .089-.085l7.942-4.364a.246.246 0 0 1 .241-.002l7.862 4.327a.225.225 0 0 1 .118.2.238.238 0 0 1-.123.199l-7.942 4.363a.25.25 0 0 1-.239-.002l-7.863-4.328a.225.225 0 0 1-.119-.195.228.228 0 0 1 .034-.113M16.88 7.558a.242.242 0 0 1 .09-.084l8.031-4.293a.253.253 0 0 1 .243-.002l7.95 4.257a.22.22 0 0 1 .119.196.236.236 0 0 1-.124.196l-8.03 4.292a.262.262 0 0 1-.242-.002l-7.951-4.257a.218.218 0 0 1-.12-.192.23.23 0 0 1 .034-.111" class="msportalfx-svg-c15" fill="#59b4d9"></path><path opacity=".2" d="M16.84 18.785a.237.237 0 0 1 .09-.085l8.031-4.364a.25.25 0 0 1 .243-.002l7.95 4.327a.226.226 0 0 1 .119.2.24.24 0 0 1-.124.199l-8.03 4.363a.256.256 0 0 1-.242-.002l-7.951-4.328a.222.222 0 0 1-.12-.195.234.234 0 0 1 .034-.113M6.37 13.086a.234.234 0 0 1 .089-.085l7.942-4.364a.246.246 0 0 1 .241-.002l7.862 4.327a.225.225 0 0 1 .118.2.238.238 0 0 1-.123.199l-7.942 4.363a.25.25 0 0 1-.239-.002l-7.863-4.328a.225.225 0 0 1-.119-.195.224.224 0 0 1 .034-.113m21.161.096a.234.234 0 0 1 .089-.085l7.942-4.364a.246.246 0 0 1 .241-.002l7.862 4.327a.225.225 0 0 1 .118.2.238.238 0 0 1-.123.199l-7.942 4.363a.25.25 0 0 1-.239-.002l-7.863-4.328a.225.225 0 0 1-.119-.195.228.228 0 0 1 .034-.113M16.88 7.558a.242.242 0 0 1 .09-.084l8.031-4.293a.253.253 0 0 1 .243-.002l7.95 4.257a.22.22 0 0 1 .119.196.236.236 0 0 1-.124.196l-8.03 4.292a.262.262 0 0 1-.242-.002l-7.951-4.257a.218.218 0 0 1-.12-.192.23.23 0 0 1 .034-.111" class="msportalfx-svg-c01" fill="#ffffff"></path><path opacity=".4" d="M45 15.563c0-.093-.069-.158-.099-.182l-.129-.103c-1.718 4.544-6.32 11.112-14.445 17.253-6.541 4.944-12.578 7.544-17.108 8.578l7.297 4.086c4.243-1.76 8.688-4.33 12.955-7.555 4.699-3.551 8.61-7.442 11.529-11.284V15.563z" class="msportalfx-svg-c01" fill="#ffffff"></path><path d="M48.617 8.142c-2.588-3.569-8.635-3.899-15.859-1.501l3.625 1.944c4.843-1.175 8.383-.711 9.581.94 2.376 3.277-2.299 14.18-15.034 23.805-12.735 9.625-24.314 11.008-26.69 7.73-.862-1.189-.782-3.389.26-6.16v-6.825C.228 34.37-1.184 40.303 1.383 43.842c4.345 5.992 18.442 2.858 31.485-7s20.094-22.708 15.749-28.7z" class="msportalfx-svg-c17" fill="#804998"></path></g><defs>
<linearGradient id="a" x1="9" y1="16.39" x2="9" y2="-1.94" gradientUnits="userSpaceOnUse"><stop offset="0" stop-color="#0078d4"></stop><stop offset=".16" stop-color="#1380da"></stop><stop offset=".53" stop-color="#3c91e5"></stop><stop offset=".82" stop-color="#559cec"></stop><stop offset="1" stop-color="#5ea0ef"></stop></linearGradient>
<linearGradient id="b" x1="9.88" y1="7.11" x2="9.99" y2="17.27" gradientUnits="userSpaceOnUse"><stop offset="0" stop-color="#32d4f5"></stop><stop offset=".32" stop-color="#31d1f3"></stop><stop offset=".53" stop-color="#2ec9eb"></stop><stop offset=".7" stop-color="#29bade"></stop><stop offset=".86" stop-color="#22a5cb"></stop><stop offset="1" stop-color="#198ab3"></stop><stop offset="1" stop-color="#198ab3"></stop></linearGradient>
<radialGradient id="c" cx="9.43" cy="7.03" r="7.27" gradientUnits="userSpaceOnUse"><stop offset="0" stop-color="#f2f2f2"></stop><stop offset=".58" stop-color="#eee"></stop><stop offset="1" stop-color="#e6e6e6"></stop></radialGradient>
</defs>
</svg>