<svg viewBox="0 0 50.5 42.833" class="" role="presentation" focusable="false" xmlns="http://www.w3.org/2000/svg" xmlns:xlink="http://www.w3.org/1999/xlink" id="FxSymbol0-1ed" data-type="1"><g><title></title><path d="M.25 40.767a2.006 2.006 0 0 0 2 2h46a2.006 2.006 0 0 0 2-2v-32h-50Z" class="msportalfx-svg-c16" fill="#3999c6"></path><path d="M48.25.167h-46a2.006 2.006 0 0 0-2 2v7.3h50v-7.3a2.006 2.006 0 0 0-2-2Z" class="msportalfx-svg-c03" fill="#a0a1a2"></path><path opacity=".15" d="M.25 9.467h50v3.3h-50z" class="msportalfx-svg-c01" fill="#ffffff"></path><path d="M2.25.167a2.006 2.006 0 0 0-2 2v38.6a2.006 2.006 0 0 0 2 2h19.2l22.4-42.6Z" opacity=".1" class="msportalfx-svg-c01" fill="#ffffff"></path><path d="M20.458 37.112q-4.171-.047-4.171-3.563v-3.457q0-2.319-1.829-2.437v-1.711q1.829-.117 1.829-2.484V20.1q0-3.562 4.171-3.609V18.3q-1.863.048-1.863 2.239v3.3a2.729 2.729 0 0 1-2.332 2.918v.043a2.688 2.688 0 0 1 2.337 2.894v3.27a2.96 2.96 0 0 0 .416 1.787 1.788 1.788 0 0 0 1.447.556Zm14.273-9.457q-1.815.117-1.816 2.437v3.457q0 3.516-4.148 3.563v-1.8a1.8 1.8 0 0 0 1.447-.562 2.9 2.9 0 0 0 .428-1.781v-3.27A2.681 2.681 0 0 1 32.95 26.8v-.035a2.723 2.723 0 0 1-2.308-2.918v-3.3q0-2.192-1.875-2.239v-1.821q4.148.047 4.148 3.609v3.364q0 2.367 1.816 2.484Z" class="msportalfx-svg-c01" fill="#ffffff"></path></g><defs>
</defs>
</svg>