<svg viewBox="0 0 18 18" class="" role="presentation" focusable="false" xmlns="http://www.w3.org/2000/svg" xmlns:xlink="http://www.w3.org/1999/xlink" id="FxSymbol0-08e" data-type="1"><g><path d="m9.243 3.927 4.372 2.515 3.048-1.76A8.792 8.792 0 0 0 2.735 2.824a10.019 10.019 0 0 1 6.508 1.103Z" fill="url(#59616712-f700-4139-92c6-bd98d17f01a7)"></path><path d="m13.558 6.442-.069 6.034 3.168.851A8.792 8.792 0 0 0 11.415.536a10.442 10.442 0 0 1 2.143 5.906Z" fill="#0078d4"></path><path d="M13.552 11.646 9 14.276l.071 3.5a8.8 8.8 0 0 0 8.764-8.8 8.432 8.432 0 0 0-.288-2.09 9.573 9.573 0 0 1-3.995 4.76Z" fill="#5ea0ef"></path><path d="m9 14.276-4.555-2.63-3.02 1.812a8.78 8.78 0 0 0 13.672 1.881A9.908 9.908 0 0 1 9 14.276Z" fill="url(#59616712-f700-4139-92c6-bd98d17f01a8)"></path><path d="m4.442 11.646.069-6.237-3.117-.821A8.744 8.744 0 0 0 .2 9a8.847 8.847 0 0 0 6.535 8.5 10.191 10.191 0 0 1-2.293-5.854Z" fill="#0078d4"></path><path d="M4.6 6.3 9 3.757a10.579 10.579 0 0 0-5.942-1.245A8.758 8.758 0 0 0 .2 9a9.013 9.013 0 0 0 .314 2.32A10.25 10.25 0 0 1 4.6 6.3Z" fill="#5ea0ef"></path><path fill="#c3f1ff" d="M13.552 11.646v-5.26L8.997 3.757 4.442 6.386v5.26l4.555 2.63 4.555-2.63z"></path><path fill="url(#59616712-f700-4139-92c6-bd98d17f01a9)" d="M9.003 9.071v5.205l-4.561-2.63V6.404l4.561 2.667z"></path><path fill="#50e6ff" d="M8.997 9.071v5.205l4.561-2.63V6.404L8.997 9.071z"></path></g><defs>
<linearGradient id="59616712-f700-4139-92c6-bd98d17f01a7" x1="-481.386" y1="-747.701" x2="-463.782" y2="-778.247" gradientTransform="rotate(60 -897.554 33.597)" gradientUnits="userSpaceOnUse"><stop offset="0" stop-color="#005ba1"></stop><stop offset=".366" stop-color="#004e8f"></stop><stop offset="1" stop-color="#003067"></stop></linearGradient>
<linearGradient id="59616712-f700-4139-92c6-bd98d17f01a8" x1="-1395.588" y1="671.239" x2="-1374.204" y2="633.738" gradientTransform="rotate(-120 -872.416 -68.59)" gradientUnits="userSpaceOnUse"><stop offset="0" stop-color="#005ba1"></stop><stop offset=".451" stop-color="#004685"></stop><stop offset="1" stop-color="#003067"></stop></linearGradient>
<linearGradient id="59616712-f700-4139-92c6-bd98d17f01a9" x1="6.003" y1="14.447" x2="7.447" y2="6.204" gradientUnits="userSpaceOnUse"><stop offset=".26" stop-color="#50e6ff"></stop><stop offset=".42" stop-color="#79eaff"></stop><stop offset=".58" stop-color="#99edff"></stop><stop offset=".733" stop-color="#b0efff"></stop><stop offset=".876" stop-color="#bef1ff"></stop><stop offset="1" stop-color="#c3f1ff"></stop></linearGradient>
</defs>
</svg>