<svg viewBox="0 0 50 50" class="fxs-portal-svg" role="presentation" focusable="false" xmlns:svg="http://www.w3.org/2000/svg" xmlns:xlink="http://www.w3.org/1999/xlink" aria-hidden="true"><g><path d="M24.65 50L3 37.5v-25L24.65 0l21.651 12.5v25z" class="msportalfx-svg-c05" fill="#3e3e3e"></path><path opacity=".2" d="M24.651 50L46.3 37.5v-25S28.413 26.12 24.651 50" class="msportalfx-svg-c01" fill="#ffffff"></path><path d="M34.172 14.958c-5.55-5.526-14.518-5.526-20.074 0-5.549 5.549-5.549 14.535 0 20.084 5.549 5.525 14.524 5.525 20.074 0 5.543-5.545 5.543-14.531 0-20.084" class="msportalfx-svg-c01" fill="#ffffff"></path><path d="M32.227 16.903c-4.474-4.456-11.705-4.456-16.185 0-4.473 4.474-4.473 11.719 0 16.192 4.475 4.456 11.711 4.456 16.185 0 4.47-4.469 4.47-11.715 0-16.192" class="msportalfx-svg-c15" fill="#59b4d9"></path><path d="M31.029 24.986l-10.902-7.17v7.199h10.859z" class="msportalfx-svg-c01" fill="#ffffff"></path><path opacity=".8" d="M30.986 25.015H20.127v7.198z" class="msportalfx-svg-c01" fill="#ffffff"></path></g></svg>