<svg viewBox="0 0 50 50" class="fxs-portal-svg" role="presentation" focusable="false" xmlns:svg="http://www.w3.org/2000/svg" xmlns:xlink="http://www.w3.org/1999/xlink" id="FxSymbol0-05d" data-type="1"><g><title></title><path d="M47.465 21.535c-1.349-1.349-3.284-1.726-4.982-1.173l-3.8-3.8a4 4 0 0 0-5.245-5.245l-3.8-3.8c.553-1.698.176-3.633-1.173-4.982a4.9 4.9 0 0 0-6.93 0c-1.349 1.349-1.726 3.284-1.173 4.982l-3.8 3.8a4 4 0 0 0-5.245 5.245l-3.8 3.8c-1.698-.553-3.633-.176-4.982 1.173a4.9 4.9 0 0 0 0 6.93c1.349 1.349 3.284 1.726 4.982 1.173l3.8 3.8a4 4 0 0 0 5.245 5.245l3.8 3.8c-.553 1.698-.176 3.633 1.173 4.982a4.9 4.9 0 0 0 6.93 0c1.349-1.349 1.726-3.284 1.173-4.982l3.8-3.8a4 4 0 0 0 5.245-5.245l3.8-3.8c1.698.553 3.633.176 4.982-1.173a4.901 4.901 0 0 0 0-6.93zM22.152 40.031l-3.469-3.469c.204-.48.317-1.008.317-1.562s-.113-1.082-.317-1.562L25 27.121l6.317 6.317C31.113 33.918 31 34.446 31 35s.113 1.082.317 1.562l-3.469 3.469a4.883 4.883 0 0 0-5.696 0zM9.969 22.152l3.469-3.469c.48.204 1.008.317 1.562.317s1.082-.113 1.562-.317L22.879 25l-6.317 6.317C16.082 31.113 15.554 31 15 31s-1.082.113-1.562.317l-3.469-3.469a4.883 4.883 0 0 0 0-5.696zM27.848 9.969l3.469 3.469C31.113 13.918 31 14.446 31 15s.113 1.082.317 1.562L25 22.879l-6.317-6.317c.204-.48.317-1.008.317-1.562s-.113-1.082-.317-1.562l3.469-3.469a4.883 4.883 0 0 0 5.696 0zM35 31c-.554 0-1.082.113-1.562.317L27.121 25l6.317-6.317c.48.204 1.008.317 1.562.317s1.082-.113 1.562-.317l3.469 3.469a4.88 4.88 0 0 0 0 5.696l-3.469 3.469A3.984 3.984 0 0 0 35 31z" class="msportalfx-svg-c09" fill="#dd5900"></path></g><defs>
<linearGradient id="a" x1="9" y1="16.39" x2="9" y2="-1.94" gradientUnits="userSpaceOnUse"><stop offset="0" stop-color="#0078d4"></stop><stop offset=".16" stop-color="#1380da"></stop><stop offset=".53" stop-color="#3c91e5"></stop><stop offset=".82" stop-color="#559cec"></stop><stop offset="1" stop-color="#5ea0ef"></stop></linearGradient>
<linearGradient id="b" x1="9.88" y1="7.11" x2="9.99" y2="17.27" gradientUnits="userSpaceOnUse"><stop offset="0" stop-color="#32d4f5"></stop><stop offset=".32" stop-color="#31d1f3"></stop><stop offset=".53" stop-color="#2ec9eb"></stop><stop offset=".7" stop-color="#29bade"></stop><stop offset=".86" stop-color="#22a5cb"></stop><stop offset="1" stop-color="#198ab3"></stop><stop offset="1" stop-color="#198ab3"></stop></linearGradient>
<radialGradient id="c" cx="9.43" cy="7.03" r="7.27" gradientUnits="userSpaceOnUse"><stop offset="0" stop-color="#f2f2f2"></stop><stop offset=".58" stop-color="#eee"></stop><stop offset="1" stop-color="#e6e6e6"></stop></radialGradient>
</defs>
</svg>