<svg xmlns="http://www.w3.org/2000/svg" class="" id="FxSymbol0-0cd" role="presentation" viewBox="0 0 50 50" focusable="false" xmlns:xlink="http://www.w3.org/1999/xlink" xmlns:svg="http://www.w3.org/2000/svg">
<g>
<title/>
<path class="msportalfx-svg-c19" fill="#0072c6" d="M 38 36 l 7 -4.5 l -7 -5.5 Z M 19.5 24.9 c -2.4 0 -4.4 -2 -4.4 -4.4 c 0 -2.4 2 -4.4 4.4 -4.4 c 2.4 0 4.4 2 4.4 4.4 c 0 2.4 -2 4.4 -4.4 4.4 Z"/>
<path class="msportalfx-svg-c19" fill="#0072c6" d="M 4 29 V 11 h 31 v 6 h 4 V 9 c 0 -1 -1 -2 -2 -2 H 2 C 1 7 0 8 0 9 v 22 c 0 1 1 2 2 2 h 38 v -4 H 4 Z"/>
<path class="msportalfx-svg-c19" fill="#0072c6" d="M 48.4 19 H 20 v 3 h 27 v 21 H 36 v -8 h -3 v 10.4 c 0 0.9 0.7 1.6 1.6 1.6 h 13.8 c 0.9 0 1.6 -0.7 1.6 -1.6 V 20.6 c 0 -0.9 -0.7 -1.6 -1.6 -1.6 Z M 43 45 h -3 v -1 h 3 v 1 Z"/>
<path class="msportalfx-svg-c19" fill="#0072c6" d="M 23 32 h -7 c 0 5 0 8 -8 8 v 2 h 23 v -2 c -8 0 -8 -3 -8 -8 Z"/>
</g>
</svg>