<svg viewBox="0 0 28 28" class="" role="presentation" focusable="false" xmlns="http://www.w3.org/2000/svg" xmlns:xlink="http://www.w3.org/1999/xlink" id="FxSymbol0-0eb" data-type="1"><g><path d="M25.05 12.7c0 7.3-8.78 13.11-10.68 14.3a.69.69 0 0 1-.73 0C11.73 25.81 3 20 3 12.7V4a.7.7 0 0 1 .68-.69C10.46 3.09 8.89.1 14 .1s3.55 3 10.37 3.18a.7.7 0 0 1 .68.69Z" fill="#32bedd"></path><path d="M24.13 12.78c0 6.65-8 12-9.79 13.1a.62.62 0 0 1-.67 0c-1.75-1.09-9.8-6.45-9.8-13.1v-8a.64.64 0 0 1 .62-.64C10.75 4 9.31 1.22 14 1.22S17.25 4 23.51 4.13a.63.63 0 0 1 .62.64Z" fill="url(#94a115a1-5689-4c39-bee0-5c63fda4a13a)"></path><path d="m18 16.65-2.71-4.73-.27.14.22-.16-3.07-4.37-.56.4 2.73 3.87-6 .5v.7l6-.5-2 3.29.59.36 2-3.38L17.4 17l.61-.34Z" fill="#e6e6e6"></path><g class="msportalfx-svg-c01" fill="#ffffff"><circle cx="15" cy="12.15" r="1.59"></circle><circle cx="11.93" cy="7.8" r="1.35"></circle><circle cx="8.33" cy="12.74" r="1.09"></circle><circle cx="12.71" cy="16.05" r="1.09"></circle><circle cx="17.71" cy="16.91" r="1.26"></circle></g></g><defs>
<linearGradient id="94a115a1-5689-4c39-bee0-5c63fda4a13a" x1="14" y1="27.86" x2="14" y2="3.1" gradientTransform="matrix(1 0 0 -1 0 30)" gradientUnits="userSpaceOnUse"><stop offset=".22" stop-color="#32d4f5"></stop><stop offset=".47" stop-color="#31d1f3"></stop><stop offset=".63" stop-color="#2ec9eb"></stop><stop offset=".77" stop-color="#29bade"></stop><stop offset=".89" stop-color="#22a5cb"></stop><stop offset="1" stop-color="#198ab3"></stop></linearGradient>
</defs>
</svg>