<svg viewBox="0 0 113.4 113.4" class="fxs-portal-svg" role="presentation" focusable="false" xmlns:svg="http://www.w3.org/2000/svg" xmlns:xlink="http://www.w3.org/1999/xlink" id="FxSymbol0-033" data-type="371"><g><title></title><g transform="translate(26.167 17.388)"><path d="M-8.6 76.8v10.3c0 2 1.4 3.4 3.4 3.4h75.3V76.8H-8.6z" class="msportalfx-svg-c26" fill="#be9555"></path><path d="M-5.1 78.5v6.8c.1 1.9 1.6 3.4 3.3 3.4h72V78.5H-5.1z" class="msportalfx-svg-c01" fill="#ffffff"></path><polygon opacity=".2" points="-5.1,78.5 -5.1,80.2 70.2,80.2 70.2,78.5" class="msportalfx-svg-c27" fill="#4f4d52"></polygon><polygon opacity=".2" points="25.7,78.5 36,88.8 25.7,88.8" class="msportalfx-svg-c27" fill="#4f4d52"></polygon><polygon points="27.4,95.6 20.6,92.2 15.4,95.6 15.4,78.5 27.4,78.5" class="msportalfx-svg-c28" fill="#ef6f59"></polygon><polygon points="70.2,76.8 -8.6,76.8 -8.6,-17.4 70.2,-17.4" class="msportalfx-svg-c29" fill="#f7cb64"></polygon><path opacity=".127" d="M30.8 69.9c0 1.9-1.5 3.4-3.4 3.4h-36v3.4h78.8v-89h-36c-1.9 0-3.4 1.5-3.4 3.4v78.8z"></path></g><path d="M40.3 61.8h6.8v15.9h-3.7v-13h-3.2v-2.9zm16.4 16.1c-3.9 0-6.8-3-6.8-8.2s2.9-8.2 6.8-8.2 6.8 3 6.8 8.2-2.8 8.2-6.8 8.2zm0-3.1c1.8 0 3.1-1.5 3.1-5.1 0-3.6-1.3-5.1-3.1-5.1s-3.1 1.5-3.1 5.1c.1 3.6 1.3 5.1 3.1 5.1zm7.8-13h6.8v15.9h-3.7v-13h-3.2v-2.9z"></path><path d="M40.3 61.8h6.8v15.9h-3.7v-13h-3.2v-2.9zm16.4 16.1c-3.9 0-6.8-3-6.8-8.2s2.9-8.2 6.8-8.2 6.8 3 6.8 8.2-2.8 8.2-6.8 8.2zm0-3.1c1.8 0 3.1-1.5 3.1-5.1 0-3.6-1.3-5.1-3.1-5.1s-3.1 1.5-3.1 5.1c.1 3.6 1.3 5.1 3.1 5.1zm7.8-13h6.8v15.9h-3.7v-13h-3.2v-2.9z" class="msportalfx-svg-c25" fill="#4c3b12"></path><g transform="translate(36 25)"><polygon points="27.8,-6.9 20.4,8.7 33.4,24.4 9.4,27.3 46.6,27.7" class="msportalfx-svg-c25" fill="#4c3b12"></polygon><polygon points="26.3,-13 9.5,1.8 -3,24 7.7,22.9" class="msportalfx-svg-c25" fill="#4c3b12"></polygon></g></g><defs>
<linearGradient id="a" x1="9" y1="16.39" x2="9" y2="-1.94" gradientUnits="userSpaceOnUse"><stop offset="0" stop-color="#0078d4"></stop><stop offset=".16" stop-color="#1380da"></stop><stop offset=".53" stop-color="#3c91e5"></stop><stop offset=".82" stop-color="#559cec"></stop><stop offset="1" stop-color="#5ea0ef"></stop></linearGradient>
<linearGradient id="b" x1="9.88" y1="7.11" x2="9.99" y2="17.27" gradientUnits="userSpaceOnUse"><stop offset="0" stop-color="#32d4f5"></stop><stop offset=".32" stop-color="#31d1f3"></stop><stop offset=".53" stop-color="#2ec9eb"></stop><stop offset=".7" stop-color="#29bade"></stop><stop offset=".86" stop-color="#22a5cb"></stop><stop offset="1" stop-color="#198ab3"></stop><stop offset="1" stop-color="#198ab3"></stop></linearGradient>
<radialGradient id="c" cx="9.43" cy="7.03" r="7.27" gradientUnits="userSpaceOnUse"><stop offset="0" stop-color="#f2f2f2"></stop><stop offset=".58" stop-color="#eee"></stop><stop offset="1" stop-color="#e6e6e6"></stop></radialGradient>
</defs>
</svg>