<svg id="Layer_1" data-name="Layer 1" xmlns="http://www.w3.org/2000/svg" viewBox="0 0 400 140"><defs><style>.cls-1,.cls-3{fill:none;stroke-miterlimit:10;}.cls-1{stroke:#acacac;stroke-dasharray:1.02 1.53;}.cls-14,.cls-2,.cls-9{fill:#fff;}.cls-3{stroke:#fff;stroke-width:0.51px;}.cls-4{fill:#88be88;}.cls-5{fill:#60a860;}.cls-6{fill:#2e2e2e;}.cls-7{fill:#c9b9da;}.cls-8{fill:#5d5f5e;}.cls-9{opacity:0.15;}.cls-10{fill:#c9aac9;}.cls-11{fill:#757575;}.cls-12{fill:#999;}.cls-13{fill:#333;}.cls-14{opacity:0.25;}.cls-15{fill:#925592;}.cls-16{fill:#909090;}.cls-17{fill:#231f20;}.cls-18{fill:#aad2f2;}</style></defs><title>ems_device-app-mgmt-1</title><polyline class="cls-1" points="78.5 102.5 193.81 88.41 300.74 47.56"/><polyline class="cls-1" points="123.4 49.12 193.81 88.41 291.5 98.5"/><line class="cls-1" x1="226.79" y1="27.75" x2="193.81" y2="88.41"/><circle class="cls-2" cx="193.81" cy="88.41" r="2.38"/><circle class="cls-3" cx="193.81" cy="88.41" r="11.22"/><circle class="cls-4" cx="114" cy="40" r="18"/><circle class="cls-2" cx="193.81" cy="89.41" r="36.34"/><path class="cls-5" d="M193.48,128.38a38.15,38.15,0,1,0-38.16-38.15A38.2,38.2,0,0,0,193.48,128.38Zm-6.57-71.89c.62-.12,1.24-.2,1.87-.29A39.59,39.59,0,0,0,183.32,68H175.1A31.67,31.67,0,0,1,186.91,56.49ZM211.77,68h-6.92a40.21,40.21,0,0,0-5.27-11.54l.3,0A31.6,31.6,0,0,1,211.77,68Zm8.78,19.65a45.73,45.73,0,0,0-4.13-16.85h5.36a34.15,34.15,0,0,1,5.94,16.85Zm7.3,2.8a34.13,34.13,0,0,1-3,13.82h-6.33a47,47,0,0,0,2.11-13.82ZM199.7,124c-.45.08-.9.14-1.36.21,3.46-3.76,6.22-9.74,7.86-17.2h8.35C211.37,114.63,206.1,120.67,199.7,124Zm-27.34-17H182c1.62,7.49,4.35,13.52,7.79,17.37-.85-.09-1.68-.23-2.51-.38C180.82,120.67,175.54,114.64,172.36,107Zm-1-2.8A44.18,44.18,0,0,1,169,90.4h11.23a81.55,81.55,0,0,0,1.13,13.82ZM205.1,90.4a78.15,78.15,0,0,1-1.19,13.82H184.29a77,77,0,0,1-1.22-13.82Zm-22-2.8a77.84,77.84,0,0,1,2.32-16.85h17.3a77.84,77.84,0,0,1,2.32,16.85ZM203.35,107c-1.93,8.49-5.31,14.85-9.45,17.46-3.91-2.91-7.15-9.25-9-17.46Zm3.41-2.8A80.57,80.57,0,0,0,207.9,90.4h9.93a44.26,44.26,0,0,1-2.24,13.82Zm11-16.61h-9.94a80.73,80.73,0,0,0-2.17-16.85h7.68A42.76,42.76,0,0,1,217.76,87.6ZM193.48,55.84c.74,0,1.46.06,2.19.11,2.48,2.64,4.65,6.8,6.27,12H186.23c1.64-5.24,3.83-9.44,6.33-12.07C192.87,55.88,193.17,55.84,193.48,55.84ZM182.55,70.75a80.55,80.55,0,0,0-2.19,16.85H169.13a42.83,42.83,0,0,1,4.4-16.85ZM166.33,87.6h-7.1a34.15,34.15,0,0,1,5.94-16.85h5.29A45.72,45.72,0,0,0,166.33,87.6Zm-.08,2.8a47,47,0,0,0,2.11,13.82h-6.26a34.13,34.13,0,0,1-3-13.82ZM163.51,107h5.84a39.45,39.45,0,0,0,9.24,14.15A34.57,34.57,0,0,1,163.51,107Zm44.64,14.25A39.34,39.34,0,0,0,217.53,107h5.91A34.57,34.57,0,0,1,208.15,121.27ZM219.62,68H215a37.62,37.62,0,0,0-6.8-8.76A34.54,34.54,0,0,1,219.62,68Zm-41-8.67A37.84,37.84,0,0,0,171.89,68h-4.56A34.54,34.54,0,0,1,178.58,59.28Z"/><rect class="cls-6" x="282" y="84" width="41" height="28" rx="2.16" ry="2.16"/><rect class="cls-7" x="284" y="86" width="37" height="24"/><polygon class="cls-8" points="321 98.8 322 98.93 322 97.91 321 98.03 321 98.8"/><polygon class="cls-9" points="321 100.95 321 86 304.67 86 321 100.95"/><path class="cls-6" d="M326.74,116a24,24,0,0,1-5.07.39,27.65,27.65,0,0,1-5.41-.39c-.75-.19-1.26-.65-1.26-1.36V92c0-.73.48-1.16,1.29-1.29a43.14,43.14,0,0,1,5.35-.33,31.5,31.5,0,0,1,5.07.33c.87.14,1.29.59,1.29,1.32V114.6C328,115.31,327.62,115.76,326.74,116Z"/><rect class="cls-10" x="316" y="93" width="11" height="20"/><circle class="cls-11" cx="321.84" cy="91.66" r="0.25"/><circle class="cls-11" cx="317.82" cy="91.87" r="0.2"/><polygon class="cls-9" points="327.04 100.33 327.04 93 319.04 93 327.04 100.33"/><circle class="cls-12" cx="302" cy="48" r="18"/><path class="cls-2" d="M123.6,32.23l-3.17,3.16-2-.68-.68-2,3.17-2.93a4.2,4.2,0,0,0-4.75.9,4.61,4.61,0,0,0-.9,4.74L105.06,45.54a1.51,1.51,0,0,0,0,2.26l.23.23a1.77,1.77,0,0,0,2.49,0l9.95-10.15a4.2,4.2,0,0,0,4.75-.9,4.7,4.7,0,0,0,1.13-4.74M105.73,47.35a.85.85,0,0,1,0-1.35c.45-.45,1.13-.45,1.36,0a.85.85,0,0,1,0,1.35c-.23.45-.9.45-1.36,0"/><path class="cls-13" d="M123.07,48.72l.94-.94a1.57,1.57,0,0,0,0-2.36l-7.08-6.83a1.25,1.25,0,0,0-1.89-.24l-4.49-4.48L110.09,32l-3.78-2.12-.94.94,2.12,3.77,1.89.47,4.49,4.48a1.76,1.76,0,0,0,0,2.12l7.08,7.07a1.77,1.77,0,0,0,2.13,0"/><path class="cls-6" d="M245,36V7.2A1.2,1.2,0,0,0,243.8,6H200.2A1.2,1.2,0,0,0,199,7.2V36Z"/><rect class="cls-7" x="201" y="8" width="42" height="26"/><path class="cls-6" d="M248,38H196c-1.73-.23-2-2.62-2-2h56C250,35.38,249.33,37.77,248,38Z"/><rect class="cls-8" x="222" y="7" width="1" height="1"/><polygon class="cls-14" points="243 8 224.29 8 243 25.5 243 8"/><rect class="cls-15" x="209" y="13" width="18" height="2"/><rect class="cls-15" x="209" y="16" width="18" height="2"/><rect class="cls-15" x="209" y="19" width="18" height="2"/><rect class="cls-15" x="209" y="22" width="18" height="2"/><rect class="cls-15" x="209" y="25" width="18" height="2"/><rect class="cls-15" x="209" y="28" width="18" height="2"/><rect class="cls-2" x="213" y="13" width="18" height="2"/><rect class="cls-15" x="212" y="16" width="18" height="2"/><rect class="cls-2" x="221" y="19" width="12" height="2"/><rect class="cls-2" x="213" y="22" width="18" height="2"/><rect class="cls-2" x="215" y="25" width="18" height="2"/><rect class="cls-2" x="212" y="28" width="18" height="2"/><rect class="cls-13" x="72" y="76" width="26" height="40"/><rect class="cls-16" x="76" y="80" width="18" height="3"/><rect class="cls-16" x="76" y="88" width="18" height="3"/><rect class="cls-16" x="90" y="110" width="4" height="3"/><path class="cls-17" d="M308,41c0-2.94-2-5-6-5s-6,2.08-6,5v4h-3V60h18V45h-3Zm1,6V58H295V47Zm-11-2V41c0-2,1-3,4-3s4,1,4,3v4Zm5,7v4h-2V52Z"/><path class="cls-18" d="M144.64,107.5a11.2,11.2,0,0,1,5.37,1.36,17.62,17.62,0,0,1,28.79-11.53,25.87,25.87,0,0,1,51.31,3.17,15,15,0,1,1,3.79,29.5H144.64a11.25,11.25,0,0,1,0-22.5Z"/></svg>