<?xml version="1.0" encoding="utf-8"?>
<!-- Generator: Adobe Illustrator 19.1.0, SVG Export Plug-In . SVG Version: 6.00 Build 0)  -->
<!DOCTYPE svg PUBLIC "-//W3C//DTD SVG 1.1//EN" "http://www.w3.org/Graphics/SVG/1.1/DTD/svg11.dtd">
<svg version="1.1" id="Layer_1" xmlns="http://www.w3.org/2000/svg" xmlns:xlink="http://www.w3.org/1999/xlink" x="0px" y="0px"
	 viewBox="-155 -44 648 648" style="enable-background:new -155 -44 648 648;" xml:space="preserve">
<style type="text/css">
	.st0{fill:#FFFFFF;}
	.st1{fill:#515150;}
</style>
<g id="Layer_1_1_">
</g>
<g id="Layer_80">
	<g>
		<path class="st0" d="M175.4,303.4h-14.5v-16c0-2.4-2.1-4.5-4.5-4.5h-62c-2.4,0-4.5,2.1-4.5,4.5v40c0,2.4,2.1,4.5,4.5,4.5h23
			c0,2.5-0.2,3.8-1,4.6c-1.3,1.3-4.8,1.9-12,1.9h-1.5v7h45.5v5.5c0,2.2,1.8,4,4,4h23c2.2,0,4-1.8,4-4v-43.5
			C179.4,305.2,177.6,303.4,175.4,303.4z"/>
		<g>
			<polygon class="st1" points="159.4,335.4 169.7,327.9 159.4,320.4 			"/>
			<path class="st1" d="M146.4,339.9c-15.7,0-14.5-2.5-14.5-12h-6.5h-6.5c0,9.5,1.2,12-14.5,12v4h42V339.9z"/>
			<path class="st1" d="M125.4,313.8c-3.6,0-6.4-2.9-6.4-6.4c0-3.6,2.9-6.5,6.4-6.5c3.6,0,6.5,2.9,6.5,6.5
				C131.8,311,128.9,313.8,125.4,313.8z"/>
			<polygon class="st1" points="159.4,335.9 169.7,327.9 159.4,319.9 			"/>
			<path class="st1" d="M162.4,330.4v-5h-66v-36h58v13.5h5v-15.5c0-1.5-1.5-3-3-3h-62c-1.5,0-3,1.5-3,3v40c0,1.5,1.5,3,3,3h24.5
				c0.1,7.5-0.2,9.5-14.5,9.5v4h42v-4c-14.3,0-14.6-2-14.5-9.5H162.4z"/>
			<path class="st1" d="M175.4,304.9h-44.1c-1-2.3-3.3-3.9-5.9-3.9c-3.6,0-6.5,2.9-6.5,6.4s2.9,6.4,6.5,6.4c2.7,0,5-1.6,5.9-3.9
				h42.6v37h-20v-14.5h-4v18.5c0,1.4,1.1,2.5,2.5,2.5h23c1.4,0,2.5-1.1,2.5-2.5v-43.5C177.9,306,176.8,304.9,175.4,304.9z
				 M166.4,350.9h-5v-1.5h5V350.9z"/>
		</g>
	</g>
</g>
</svg>
