<svg viewBox="0 0 50 50" class="fxs-portal-svg" role="presentation" focusable="false" xmlns:svg="http://www.w3.org/2000/svg" xmlns:xlink="http://www.w3.org/1999/xlink" id="FxSymbol0-128" data-type="1"><g><title></title><path d="M1.648 10H6.25A.75.75 0 0 0 7 9.25V6h29v3.25c0 .414.336.75.75.75h3.578c.405 0 .672-.257.672-.638V1.648A.648.648 0 0 0 40.352 1H1.661C1.267 1 1 1.257 1 1.638v7.714c0 .358.29.648.648.648zM34 36H7v-3.328c0-.405-.262-.672-.787-.672H1.661c-.394 0-.661.257-.661.771v7.567c0 .366.296.662.661.662H34v-5zm-1-23H10v.437l8.356 8.224c1.095 1.08 2.647 1.531 4.228 1.167.816-.188 1.545-.648 2.141-1.235L33 13.437V13z" class="msportalfx-svg-c19" fill="#0072c6"></path><path d="M17.566 23.389L10 15.944V30h23V15.944l-7.555 7.445C24.395 24.435 22.999 25 21.505 25s-2.889-.565-3.939-1.611z" class="msportalfx-svg-c19" fill="#0072c6"></path><path d="M36 44l-9 7 2.374-11.62L22 32h9.781L36 21l4.211 11H50l-7.374 7.38L45 51z" class="msportalfx-svg-c10" fill="#ff8c00"></path><path opacity=".4" d="M36 42.733l-7.479 5.817 1.94-9.496L24.413 33h8.056l3.53-9.205L39.523 33h8.064l-6.048 6.054 1.94 9.496z" class="msportalfx-svg-c11" fill="#fcd116"></path></g><defs>
</defs>
</svg>