<svg viewBox="0 0 18 18" data-islogo="true" class="" role="presentation" focusable="false" xmlns:svg="http://www.w3.org/2000/svg" xmlns:xlink="http://www.w3.org/1999/xlink" id="FxSymbol0-02b" data-type="41"><g><ellipse cx="9" cy="9" rx="8.5" ry="8.47" fill="url(#f051d603-750c-4bf4-be82-40ddcd6ad25e)"></ellipse><ellipse cx="9" cy="9" rx="7.4" ry="7.37" class="msportalfx-svg-c01" fill="#ffffff"></ellipse><path d="M2.72 9.44a6.24 6.24 0 0 0 1.82 4l2-2a3.53 3.53 0 0 1-1-2z" fill="#9cebff"></path><path d="M13.13 4.27a6.25 6.25 0 0 0-3.69-1.53v2.79a3.41 3.41 0 0 1 1.71.7zm-8.26 0l2 2a3.41 3.41 0 0 1 1.71-.7V2.74a6.25 6.25 0 0 0-3.71 1.53zm6.91 2.58a3.6 3.6 0 0 1 .71 1.71h2.79a6.16 6.16 0 0 0-1.53-3.67z" fill="#32bedd"></path><path d="M6.22 6.85l-2-2a6.16 6.16 0 0 0-1.5 3.71h2.79a3.6 3.6 0 0 1 .71-1.71z" fill="#50e6ff"></path><path d="M14.14 7a.45.45 0 0 0-.57-.25L9.45 8.41l.32.81 4.12-1.63a.44.44 0 0 0 .25-.59z" fill="#f04049"></path><ellipse cx="9" cy="9" rx="1.2" ry="1.2" fill="url(#999c85b2-8be1-4ef5-a6ad-aab6321150be)"></ellipse></g><defs>
<radialGradient id="f051d603-750c-4bf4-be82-40ddcd6ad25e" cx="5.72" cy="7.45" r="8.42" gradientTransform="matrix(1.01 0 0 1.01 3.23 1.51)" gradientUnits="userSpaceOnUse"><stop offset=".18" stop-color="#5ea0ef"></stop><stop offset=".56" stop-color="#5c9fee"></stop><stop offset=".69" stop-color="#559ced"></stop><stop offset=".78" stop-color="#4a97e9"></stop><stop offset=".86" stop-color="#3990e4"></stop><stop offset=".93" stop-color="#2387de"></stop><stop offset=".99" stop-color="#087bd6"></stop><stop offset="1" stop-color="#0078d4"></stop></radialGradient>
<radialGradient id="999c85b2-8be1-4ef5-a6ad-aab6321150be" cx="28.18" cy="202.29" r="2.7" gradientTransform="matrix(.95 0 0 .95 -17.77 -185.01)" gradientUnits="userSpaceOnUse"><stop offset=".19" stop-color="#8c8e90"></stop><stop offset=".35" stop-color="#848688"></stop><stop offset=".6" stop-color="#6e7071"></stop><stop offset=".91" stop-color="#4a4b4c"></stop><stop offset="1" stop-color="#3e3f3f"></stop></radialGradient>
<linearGradient id="a" x1="9" y1="16.39" x2="9" y2="-1.94" gradientUnits="userSpaceOnUse"><stop offset="0" stop-color="#0078d4"></stop><stop offset=".16" stop-color="#1380da"></stop><stop offset=".53" stop-color="#3c91e5"></stop><stop offset=".82" stop-color="#559cec"></stop><stop offset="1" stop-color="#5ea0ef"></stop></linearGradient>
<linearGradient id="b" x1="9.88" y1="7.11" x2="9.99" y2="17.27" gradientUnits="userSpaceOnUse"><stop offset="0" stop-color="#32d4f5"></stop><stop offset=".32" stop-color="#31d1f3"></stop><stop offset=".53" stop-color="#2ec9eb"></stop><stop offset=".7" stop-color="#29bade"></stop><stop offset=".86" stop-color="#22a5cb"></stop><stop offset="1" stop-color="#198ab3"></stop><stop offset="1" stop-color="#198ab3"></stop></linearGradient>
<radialGradient id="c" cx="9.43" cy="7.03" r="7.27" gradientUnits="userSpaceOnUse"><stop offset="0" stop-color="#f2f2f2"></stop><stop offset=".58" stop-color="#eee"></stop><stop offset="1" stop-color="#e6e6e6"></stop></radialGradient>
</defs>
</svg>