<svg viewBox="0 0 14.976 20" class="fxs-portal-svg" role="presentation" focusable="false" xmlns:svg="http://www.w3.org/2000/svg" xmlns:xlink="http://www.w3.org/1999/xlink" id="FxSymbol0-0c8" data-type="1"><g><title></title><title>MFA_Icon</title><g><path d="M7.488 1.9a3.094 3.094 0 0 1 3.093 3.015c.616.083 1.248.193 1.893.336q.006-.127.006-.256a4.992 4.992 0 1 0-9.984 0q0 .121.006.241C3.057 5.115 3.692 5 4.4 4.908A3.094 3.094 0 0 1 7.488 1.9z"></path><path d="M0 6.892v1.873A12.194 12.194 0 0 0 7.488 20a12.194 12.194 0 0 0 7.488-11.235V6.892A22.926 22.926 0 0 0 0 6.892zM9.984 14.4H4.992v-.33a2.5 2.5 0 0 1 1.694-2.365 1.872 1.872 0 1 1 1.6 0 2.5 2.5 0 0 1 1.698 2.365z"></path></g></g></svg>