<svg viewBox="0 0 50 50" class="" role="presentation" focusable="false" xmlns:svg="http://www.w3.org/2000/svg" xmlns:xlink="http://www.w3.org/1999/xlink" id="FxSymbol0-0d2" data-type="1"><g><title></title><path d="M45.9 11c0 3.239-2.661 5.9-5.9 5.9s-5.9-2.661-5.9-5.9 2.661-5.9 5.9-5.9c3.297 0 5.9 2.661 5.9 5.9m-1.503 8l-4.427 6.105L35.603 19H31v15h18V19z" class="msportalfx-svg-c16" fill="#3999c6"></path><path opacity=".2" d="M34.1 11a5.864 5.864 0 0 0 5.784 5.9l1.504-11.626a4.914 4.914 0 0 0-1.33-.174C36.761 5.1 34.1 7.761 34.1 11m1.503 8H31v15h6.782l1.35-10.067z" class="msportalfx-svg-c01" fill="#ffffff"></path><path d="M27.9 11c0 5.435-4.465 9.9-9.9 9.9S8.1 16.435 8.1 11s4.465-9.9 9.9-9.9c5.532 0 9.9 4.465 9.9 9.9m-2.084 13l-7.868 10.581L10.184 24H2v26h32V24z" class="msportalfx-svg-c19" fill="#0072c6"></path><path opacity=".2" d="M8.1 11c0 5.435 4.271 9.803 9.706 9.9L20.33 1.391a8.283 8.283 0 0 0-2.233-.291C12.565 1.1 8.1 5.565 8.1 11m2.014 13H2v26h11.755l2.393-17.837z" class="msportalfx-svg-c01" fill="#ffffff"></path></g><defs>
<linearGradient id="a" x1="9" y1="16.39" x2="9" y2="-1.94" gradientUnits="userSpaceOnUse"><stop offset="0" stop-color="#0078d4"></stop><stop offset=".16" stop-color="#1380da"></stop><stop offset=".53" stop-color="#3c91e5"></stop><stop offset=".82" stop-color="#559cec"></stop><stop offset="1" stop-color="#5ea0ef"></stop></linearGradient>
<linearGradient id="b" x1="9.88" y1="7.11" x2="9.99" y2="17.27" gradientUnits="userSpaceOnUse"><stop offset="0" stop-color="#32d4f5"></stop><stop offset=".32" stop-color="#31d1f3"></stop><stop offset=".53" stop-color="#2ec9eb"></stop><stop offset=".7" stop-color="#29bade"></stop><stop offset=".86" stop-color="#22a5cb"></stop><stop offset="1" stop-color="#198ab3"></stop><stop offset="1" stop-color="#198ab3"></stop></linearGradient>
<radialGradient id="c" cx="9.43" cy="7.03" r="7.27" gradientUnits="userSpaceOnUse"><stop offset="0" stop-color="#f2f2f2"></stop><stop offset=".58" stop-color="#eee"></stop><stop offset="1" stop-color="#e6e6e6"></stop></radialGradient>
</defs>
</svg>