<svg viewBox="0 0 480 480" class="" role="presentation" focusable="false" xmlns="http://www.w3.org/2000/svg" xmlns:xlink="http://www.w3.org/1999/xlink" id="FxSymbol0-13e" data-type="1"><g><title></title><title>engine</title><rect x="31" y="194" width="71" height="103" rx="20" ry="20" fill="purple"></rect><rect x="399" y="156.5" width="38" height="183" rx="20" ry="20" fill="purple"></rect><rect x="208" y="89.5" width="141" height="43" rx="20" ry="20" fill="purple"></rect><path d="M74 230h346v32H74z" fill="purple"></path><path d="m186.282 148-22.762 33.353c-6.42 0 3.03-.2-19.26 0-22.29.2-18.928-6.71-18.169 71.687.76 78.396.814 69.025.66 69.047-.308.046 15.52-.226 56.03-.813L210.794 353l124.315-1.627c28.93-.315 29.385-1.262 28.89-34.167l-1.75-131.785-.876-24.405c-.799-6.915-4.129-11.932-16.634-12.203L186.282 148z" fill="purple"></path></g><defs>
</defs>
</svg>