<svg viewBox="0 0 50 50" class="fxs-portal-svg" role="presentation" focusable="false" xmlns:svg="http://www.w3.org/2000/svg" xmlns:xlink="http://www.w3.org/1999/xlink" id="FxSymbol0-18c" data-type="167"><g><title></title><path d="M50 43.012H0l6-11h38z" class="msportalfx-svg-c13" fill="#b8d432"></path><path d="M35.387 34.763a16.863 16.863 0 0 1-10.274 3.489c-5.094 0-10.131-2.287-13.46-6.64-5.687-7.426-4.283-18.046 3.156-23.736a16.774 16.774 0 0 1 10.273-3.487c5.094 0 10.132 2.287 13.46 6.645 5.688 7.423 4.27 18.045-3.155 23.729" class="msportalfx-svg-c15" fill="#59b4d9"></path><path d="M32.276 24.289a3.648 3.648 0 0 0 5.108.68c.083-.063.148-.141.224-.209 1.632 1.149 2.901 2.001 3.54 2.436.189-.49.315-.954.449-1.445a95.399 95.399 0 0 1-3.037-2.372 3.635 3.635 0 0 0-.494-3.503 3.631 3.631 0 0 0-4.698-.933 150.826 150.826 0 0 1-5.617-5.306c6.208-3.339 10.619-2.85 10.619-2.85a16.995 16.995 0 0 0-2.443-2.504c-2.618-.404-6.685-.359-11.332 2.113l-.002-.002h-.001a134.616 134.616 0 0 1-4.73-5.224 15.84 15.84 0 0 0-2.244.912c1.185 1.939 2.779 3.894 4.575 5.802l.021.021a31.718 31.718 0 0 0-4.713 4.065c-.196.209-.385.42-.571.631a5.118 5.118 0 0 0-2.789.191c-1.534-3.309-1.411-5.967-1.168-7.337a17.86 17.86 0 0 0-1.824 2.213c-.4 1.637-.514 3.996.667 6.839a5.107 5.107 0 0 0-.004 6.2c.119.155.246.299.379.437a25.647 25.647 0 0 0-.989 5.935c.161.218.161.394.32.607.812 1.042 1.839 2.027 2.824 2.822a19.102 19.102 0 0 1 1.155-7.81 5.09 5.09 0 0 0 2.359-.383c.434.382.887.767 1.372 1.159a28.212 28.212 0 0 0 4.935 3.145 3.368 3.368 0 0 0 .656 2.383 3.385 3.385 0 0 0 4.73.622 3.32 3.32 0 0 0 .75-.824c2.635.587 4.936.69 6.643.69.261 0 1.475-1.65 2.17-2.673-1.039.218-4.121.641-8.332-.569a3.366 3.366 0 0 0-.608-1.341c-1.07-1.402-3.026-1.705-4.483-.767a31.773 31.773 0 0 1-4.578-3.041 31.026 31.026 0 0 1-.92-.757 5.134 5.134 0 0 0 .216-5.114c.194-.194.384-.388.59-.581 1.565-1.462 3.038-2.633 4.416-3.573-.042-.038-.078-.114-.118-.153.041.038.079.08.12.08h-.001c2.114 2 4.356 3.843 6.479 5.498-.563 1.189-.475 2.674.379 3.79z" class="msportalfx-svg-c01" fill="#ffffff"></path><path d="M0 43h50v3H0z" class="msportalfx-svg-c04" fill="#7a7a7a"></path><path opacity=".5" d="M0 43h50v3H0z" class="msportalfx-svg-c09" fill="#dd5900"></path></g><defs>
<linearGradient id="a" x1="-1267.23" y1="3.07" x2="-1267.52" y2="14.64" gradientTransform="matrix(-1 0 0 1 -1256.13 0)" gradientUnits="userSpaceOnUse"><stop offset="0" stop-color="#32d4f5"></stop><stop offset=".23" stop-color="#31d0f1"></stop><stop offset=".46" stop-color="#2cc3e6"></stop><stop offset=".7" stop-color="#25afd4"></stop><stop offset=".94" stop-color="#1c92ba"></stop><stop offset="1" stop-color="#198ab3"></stop></linearGradient>
<linearGradient id="b" x1="6.4" y1="1.32" x2="7.21" y2="11.39"><stop offset=".22" stop-color="#32d4f5"></stop><stop offset=".47" stop-color="#31d1f3"></stop><stop offset=".63" stop-color="#2ec9eb"></stop><stop offset=".77" stop-color="#29bade"></stop><stop offset=".89" stop-color="#22a5cb"></stop><stop offset="1" stop-color="#198ab3"></stop><stop offset="1" stop-color="#198ab3"></stop></linearGradient>
<linearGradient id="c" x1="13.76" y1="18.05" x2="13.76" y2="10.25" gradientUnits="userSpaceOnUse"><stop offset="0" stop-color="#76bc2d"></stop><stop offset=".6" stop-color="#81ce31"></stop><stop offset=".82" stop-color="#86d633"></stop></linearGradient>
</defs>
</svg>