<svg viewBox="0 0 18 18" class="" role="presentation" focusable="false" xmlns="http://www.w3.org/2000/svg" xmlns:xlink="http://www.w3.org/1999/xlink" id="FxSymbol0-16b" data-type="1"><g><circle cx="10.475" cy="4.23" r=".911" fill="#76bc2d"></circle><circle cx="7.567" cy="4.238" r=".911" fill="#76bc2d"></circle><circle cx="4.66" cy="4.238" r=".911" fill="#76bc2d"></circle><path d="M5.322 7.882 4.8 8.4a.235.235 0 0 1-.333 0L.605 4.554a.471.471 0 0 1 0-.666l.521-.523 4.2 4.183a.237.237 0 0 1 0 .334Z" fill="#50e6ff"></path><path d="m4.721.08.523.52a.235.235 0 0 1 0 .333L1.122 5.068.6 4.547a.473.473 0 0 1 0-.667L4.388.08a.235.235 0 0 1 .333 0Z" fill="#1490df"></path><path d="M11.494 6.355h1.159l1.813-1.808a.472.472 0 0 0 0-.666l-.522-.523-3.005 3Z" fill="#50e6ff"></path><path d="m14.465 4.542-.523.521L9.82.929a.235.235 0 0 1 0-.329l.529-.527a.235.235 0 0 1 .333 0l3.789 3.8a.472.472 0 0 1 0 .667Z" fill="#1490df"></path><path d="M17.539 13.124V11.9h-.162l-1.331-.413-.306-.918.666-1.439-.864-.864h-.162l-1.241.63-.828-.342-.54-1.494h-1.277v.18l-.432 1.314-.846.342-1.4-.666-.864.864.09.162.5 1.331-.288.9-1.511.485v1.314h.18l1.313.432.306.809-.666 1.44.9.917.18-.09 1.223-.629.846.342.541 1.493h1.223v-.18l.432-1.313.846-.342 1.421.665.864-.863-.09-.162-.522-1.3.342-.845Zm-5.361 1.8h-.037a2.357 2.357 0 1 1 .037 0Z" fill="url(#59616712-f700-4139-92c6-bd98d17f0332)"></path></g><defs>
<linearGradient id="59616712-f700-4139-92c6-bd98d17f0332" x1="12.141" y1="7.014" x2="12.141" y2="17.81" gradientUnits="userSpaceOnUse"><stop offset="0" stop-color="#5ea0ef"></stop><stop offset="1" stop-color="#0078d4"></stop></linearGradient>
</defs>
</svg>