<svg viewBox="0 0 50 50" class="fxs-portal-svg" role="presentation" focusable="false" xmlns:svg="http://www.w3.org/2000/svg" xmlns:xlink="http://www.w3.org/1999/xlink" id="FxSymbol0-056" data-type="1"><g><title></title><path d="M38.2 6c-11-1.2-12.9-6-12.9-6S22.8 6.2 7 6.2v25.6c0 3.1 1.7 6 4.1 8.5 5.4 5.7 14.2 9.6 14.2 9.6s18.3-8 18.3-18.1V6.2c-2 0-3.8-.1-5.4-.2z" class="msportalfx-svg-c19" fill="#0072c6"></path><path opacity=".4" d="M29.9 16.5L38.2 6c-11-1.2-12.9-6-12.9-6S22.8 6.2 7 6.2v25.6c0 3.1 1.7 6 4.1 8.5l6.2-7.8 12.6-16z" class="msportalfx-svg-c16" fill="#3999c6"></path><g class="msportalfx-svg-c01" fill="#ffffff"><path opacity=".3" d="M10.8 24.4v6.1c0 2.5 1.4 4.8 3.3 6.8 4.3 4.6 11.3 7.6 11.3 7.6V24.4H10.8z"></path><path opacity=".7" d="M25.3 44.9s14.6-6.4 14.6-14.4v-6.1H25.3v20.5zm0-39.8s-2 5-14.6 5v14.3h14.6V5.1z"></path><path opacity=".3" d="M35.5 9.9c-8.7-1-10.2-4.7-10.2-4.7v19.2h14.6V10.1c-1.6 0-3.1-.1-4.4-.2z"></path></g></g><defs>
</defs>
</svg>