<svg viewBox="0 0 18 18" data-islogo="true" class="" role="presentation" focusable="false" xmlns:svg="http://www.w3.org/2000/svg" xmlns:xlink="http://www.w3.org/1999/xlink" id="FxSymbol0-054" data-type="1"><g><title>Icon-networking-66</title><rect x="-.15" y="14.53" width="5.89" height="1.34" rx=".63" transform="rotate(-45 2.797 15.202)" fill="#198ab3"></rect><path d="M17 4.35A6.44 6.44 0 0 0 16.25 3a6.24 6.24 0 0 0-8.74-1.24l-.06.05a6.18 6.18 0 0 0-2.21 3.33c0 .22-.1.44-.13.66A6.25 6.25 0 0 0 7 11.26a2.09 2.09 0 0 0 .22.2l.22.18a5.76 5.76 0 0 0 .94.6l.1.06.17.07.14.07.15.06.16.06.14.05.2.06h.11l.29.08.32.07h.08a1.9 1.9 0 0 0 .25 0h1.52a5.1 5.1 0 0 0 .76-.15 6.2 6.2 0 0 0 2.21-1.1 6.36 6.36 0 0 0 1.13-1.13A6.28 6.28 0 0 0 17 4.35zm-1.45-.93h-1.22a5.92 5.92 0 0 0-.88-1.66 5.34 5.34 0 0 1 2.13 1.66zm-3.91-2a3.27 3.27 0 0 1 1.8 2h-1.8zm0 2.84h2.07a9.23 9.23 0 0 1 .33 2.11h-2.4zm0 2.91h2.4a9.23 9.23 0 0 1-.33 2.12h-2.04V7.13zM8.52 5.74a8.73 8.73 0 0 1 .28-1.52h2.07v2.11H8.48c.01-.2.02-.4.04-.59zm2.35-4.36v2H9.08a3.23 3.23 0 0 1 1.79-2zM7.94 2.44a5.83 5.83 0 0 1 1.1-.64 6.12 6.12 0 0 0-.88 1.67H7a5.68 5.68 0 0 1 .94-1.03zM6.45 4.22H8a9.11 9.11 0 0 0-.24 1.34c0 .25-.05.51-.05.77H5.85A6.46 6.46 0 0 1 6 5.58a6 6 0 0 1 .45-1.36zm-.6 2.91h1.83A9.35 9.35 0 0 0 8 9.25H6.45a5.36 5.36 0 0 1-.6-2.12zM7 10.07h1.21a5.92 5.92 0 0 0 .88 1.66A5.31 5.31 0 0 1 7 10.07zm3.89 2a3.23 3.23 0 0 1-1.79-2h1.79zm0-2.84H8.8a9.24 9.24 0 0 1-.32-2.12h2.39v2.14zm1.53 2.42a2 2 0 0 1-.73.42v-2h1.8a4.44 4.44 0 0 1-1.09 1.6zM14.6 11a5.19 5.19 0 0 1-1.15.68 5.92 5.92 0 0 0 .88-1.66h1.25a5.35 5.35 0 0 1-.98.98zm1.48-1.78h-1.5a10.64 10.64 0 0 0 .29-2.12h1.81a5.27 5.27 0 0 1-.6 2.15zm-1.21-2.89a10.64 10.64 0 0 0-.29-2.11h1.51a5.54 5.54 0 0 1 .6 2.11z" fill="url(#ec945175-c80b-46fd-89db-7eac10420933)"></path><circle cx="6.36" cy="10.94" r="4.04" fill="#50e6ff"></circle><circle cx="6.35" cy="10.87" r="3.17" class="msportalfx-svg-c01" fill="#ffffff"></circle><path d="M4.72 10.94l.8 1.86.81-2.39.67 1.36.83-1.4h1.29A3.57 3.57 0 0 0 9 9.9H7.61l-.54.91-.83-1.58-.77 2.27-.7-1.61-.86 1.57h-.46a2.57 2.57 0 0 0 .15.47h.58z" fill="#76bc2d"></path></g><defs>
<radialGradient id="ec945175-c80b-46fd-89db-7eac10420933" cx="6.61" cy="45.13" r="6.4" gradientTransform="matrix(.94 0 0 .94 5.04 -35.89)" gradientUnits="userSpaceOnUse"><stop offset="0" stop-color="#5ea0ef"></stop><stop offset=".28" stop-color="#5b9fee"></stop><stop offset=".47" stop-color="#529bec"></stop><stop offset=".64" stop-color="#4394e7"></stop><stop offset=".79" stop-color="#2d8be1"></stop><stop offset=".93" stop-color="#117fd9"></stop><stop offset="1" stop-color="#0078d4"></stop></radialGradient>
</defs>
</svg>