<svg viewBox="0 0 50 50" class="fxs-portal-svg" role="presentation" focusable="false" xmlns:svg="http://www.w3.org/2000/svg" xmlns:xlink="http://www.w3.org/1999/xlink" id="FxSymbol0-12a" data-type="1"><g><title></title><path d="M21.8 22.3c-.1 0-.2 0-.3-.1L3.8 12.1c-.2-.1-.3-.3-.3-.5s.1-.4.3-.5l17.6-10c.2-.1.4-.1.5 0l17.7 10.2c.2.1.3.3.3.5s-.1.4-.3.5L22 22.2c-.1.1-.1.1-.2.1" class="msportalfx-svg-c16" fill="#3999c6"></path><path d="M19.2 47c-.1 0-.2 0-.3-.1L1.3 36.8c-.2-.1-.3-.3-.3-.5V16c0-.2.1-.4.3-.5.2-.1.4-.1.5 0l17.7 10.1c.2.1.3.3.3.5v20.3c0 .2-.1.4-.3.5-.1.1-.2.1-.3.1m5 0c-.1 0-.2 0-.3-.1-.2-.1-.3-.3-.3-.5V26.3c0-.2.1-.4.3-.5l17.7-10.1c.2-.1.4-.1.5 0 .2.1.3.3.3.5v20.2c0 .2-.1.4-.3.5l-17.6 10c-.1.1-.2.1-.3.1" class="msportalfx-svg-c15" fill="#59b4d9"></path><path d="M24.2 47c-.1 0-.2 0-.3-.1-.2-.1-.3-.3-.3-.5V26.3c0-.2.1-.4.3-.5l17.7-10.1c.2-.1.4-.1.5 0 .2.1.3.3.3.5v20.2c0 .2-.1.4-.3.5l-17.6 10c-.1.1-.2.1-.3.1" opacity=".5" class="msportalfx-svg-c01" fill="#ffffff"></path><path d="M48 32l-2-2-6.5 6.9L33 30l-2 2 6.6 7-6.6 7 2 2 6.5-6.9L46 48l2-2-6.6-7z" class="msportalfx-svg-c22" fill="#a4262c"></path></g><defs>
<linearGradient id="a" x1="9" y1="17.86" x2="9" y2="4.06" gradientUnits="userSpaceOnUse"><stop offset="0" stop-color="#0078d4"></stop><stop offset=".16" stop-color="#1380da"></stop><stop offset=".53" stop-color="#3c91e5"></stop><stop offset=".82" stop-color="#559cec"></stop><stop offset="1" stop-color="#5ea0ef"></stop></linearGradient>
<linearGradient id="b" x1="6.4" y1="1.32" x2="7.21" y2="11.39"><stop offset=".22" stop-color="#32d4f5"></stop><stop offset=".47" stop-color="#31d1f3"></stop><stop offset=".63" stop-color="#2ec9eb"></stop><stop offset=".77" stop-color="#29bade"></stop><stop offset=".89" stop-color="#22a5cb"></stop><stop offset="1" stop-color="#198ab3"></stop><stop offset="1" stop-color="#198ab3"></stop></linearGradient>
<linearGradient id="c" x1="13.76" y1="18.05" x2="13.76" y2="10.25" gradientUnits="userSpaceOnUse"><stop offset="0" stop-color="#76bc2d"></stop><stop offset=".6" stop-color="#81ce31"></stop><stop offset=".82" stop-color="#86d633"></stop></linearGradient>
</defs>
</svg>