<svg viewBox="0 0 19.858 20.872" class="fxs-portal-svg" role="presentation" focusable="false" xmlns:svg="http://www.w3.org/2000/svg" xmlns:xlink="http://www.w3.org/1999/xlink" id="FxSymbol0-175" data-type="1"><g><title></title><path d="M7.976 17.1c-.234 0-.371.337-.371.826 0 1.47 1.215 2.573 2.713 2.573s2.713-1.06 2.713-2.53c0-.489-.137-.87-.371-.87H7.976z" class="msportalfx-svg-c11" fill="#fcd116"></path><path d="M16.997 16.1V6.661c0-3.409-3.361-6.173-7-6.173s-7 2.764-7 6.173V16.1h-2v2h18v-2h-2z" class="msportalfx-svg-c10" fill="#ff8c00"></path><path opacity=".2" d="M14.616 2.337C13.423 1.196 11.589.488 9.748.488c-3.639 0-6.75 2.764-6.75 6.173v6.956l11.618-11.28z" class="msportalfx-svg-c01" fill="#ffffff"></path><path opacity=".2" d="M1.013 16.124h17.975v1.978H1.013z"></path></g><defs>
<linearGradient id="a" x1="-1267.23" y1="3.07" x2="-1267.52" y2="14.64" gradientTransform="matrix(-1 0 0 1 -1256.13 0)" gradientUnits="userSpaceOnUse"><stop offset="0" stop-color="#32d4f5"></stop><stop offset=".23" stop-color="#31d0f1"></stop><stop offset=".46" stop-color="#2cc3e6"></stop><stop offset=".7" stop-color="#25afd4"></stop><stop offset=".94" stop-color="#1c92ba"></stop><stop offset="1" stop-color="#198ab3"></stop></linearGradient>
<linearGradient id="b" x1="6.4" y1="1.32" x2="7.21" y2="11.39"><stop offset=".22" stop-color="#32d4f5"></stop><stop offset=".47" stop-color="#31d1f3"></stop><stop offset=".63" stop-color="#2ec9eb"></stop><stop offset=".77" stop-color="#29bade"></stop><stop offset=".89" stop-color="#22a5cb"></stop><stop offset="1" stop-color="#198ab3"></stop><stop offset="1" stop-color="#198ab3"></stop></linearGradient>
<linearGradient id="c" x1="13.76" y1="18.05" x2="13.76" y2="10.25" gradientUnits="userSpaceOnUse"><stop offset="0" stop-color="#76bc2d"></stop><stop offset=".6" stop-color="#81ce31"></stop><stop offset=".82" stop-color="#86d633"></stop></linearGradient>
</defs>
</svg>