<svg viewBox="0 0 18 18" class="" role="presentation" focusable="false" xmlns="http://www.w3.org/2000/svg" xmlns:xlink="http://www.w3.org/1999/xlink" id="FxSymbol0-140" data-type="1"><g><path d="m7.846 9.132 3.342-6.582a.357.357 0 0 1 .633-.006l3.334 6.291a2.243 2.243 0 0 1 .333 1.285c0 1.356-1.786 2.455-3.989 2.455S7.51 11.476 7.51 10.12a1.691 1.691 0 0 1 .336-.988Z" fill="url(#94a115a1-5689-4c39-bee0-5c63fda4a1b7)"></path><path fill="#50e6ff" d="M10.548 8.127v4.741L6.45 15.25v-4.748l4.098-2.375z"></path><path fill="#9cebff" d="M6.45 10.508v4.742l-4.098-2.382V8.126l4.098 2.382z"></path><path fill="#c3f1ff" d="m10.548 8.127-4.097 2.381-4.099-2.382 4.099-2.382 4.097 2.383z"></path><path d="m10.688 8.207.139-.08-.139-.081v-.164l-.14.082L6.45 5.581l-4.1 2.382-.14-.082v.164l-.14.081.14.081v4.742l4.1 2.382v.169l.141-.082.14.082v-.164l4.1-2.382ZM6.45 5.906l3.817 2.22-3.822 2.216-.945-.551-2.868-1.665Zm-3.957 6.881V8.371l3.816 2.218v4.416Zm4.1 2.218v-4.416l3.817-2.218v4.416Z" fill="#32bedd"></path><path d="M.6 4.908a.574.574 0 0 1-.575-.574V.574A.574.574 0 0 1 .6 0h3.52a.575.575 0 0 1 0 1.149H1.176v3.185a.574.574 0 0 1-.576.574Zm16.8 0a.574.574 0 0 1-.574-.574V1.149h-2.948a.575.575 0 0 1 0-1.149H17.4a.574.574 0 0 1 .575.574v3.76a.574.574 0 0 1-.575.574ZM4.122 18H.6a.574.574 0 0 1-.575-.574v-3.76a.575.575 0 0 1 1.149 0v3.185h2.948a.575.575 0 0 1 0 1.149ZM17.4 18h-3.52a.575.575 0 0 1 0-1.149h2.946v-3.185a.575.575 0 0 1 1.149 0v3.76A.574.574 0 0 1 17.4 18Z" fill="#50e6ff"></path><path d="M2.855 8.152a.467.467 0 1 1-.466-.466.467.467 0 0 1 .466.466ZM6.45 5.3a.466.466 0 1 0 .466.466.465.465 0 0 0-.466-.466Zm4.091 2.386a.467.467 0 1 0 .466.466.466.466 0 0 0-.466-.466ZM6.45 10.042a.467.467 0 1 0 .466.466.466.466 0 0 0-.466-.466Zm-4.061 2.411a.467.467 0 1 0 .466.467.467.467 0 0 0-.466-.467Zm4.061 2.331a.466.466 0 1 0 .466.466.466.466 0 0 0-.466-.466Zm4.091-2.331a.467.467 0 1 0 .466.467.467.467 0 0 0-.466-.467Z" fill="#198ab3"></path></g><defs>
<linearGradient id="94a115a1-5689-4c39-bee0-5c63fda4a1b7" x1="11.499" y1="2.355" x2="11.499" y2="12.575" gradientUnits="userSpaceOnUse"><stop offset="0" stop-color="#42e8ca"></stop><stop offset="1" stop-color="#37c2b1"></stop></linearGradient>
</defs>
</svg>