<svg viewBox="0 0 50 50" class="msportalfx-svg-palette-inherit" role="presentation" focusable="false" xmlns:svg="http://www.w3.org/2000/svg" xmlns:xlink="http://www.w3.org/1999/xlink" id="FxSymbol0-083" data-type="1"><g><title></title><path d="M7 19h12v8H7v-8zm26 0v-8H19v8h14zM19 1H1v10h18V1zm-8 28H3v6h8v-6zM49 9.141V47.5a1.5 1.5 0 0 1-1.5 1.5h-39A1.5 1.5 0 0 1 7 47.5V39h10v-8h10v-8h10V9h11.859a.14.14 0 0 1 .141.141zM17 41H9v6h8v-6zm10 0h-8v6h8v-6zm0-8h-8v6h8v-6zm10 8h-8v6h8v-6zm0-8h-8v6h8v-6zm0-8h-8v6h8v-6zm10 16h-8v6h8v-6zm0-8h-8v6h8v-6zm0-8h-8v6h8v-6zm0-8h-8v6h8v-6zM19 1H1v10h18V1z" class="msportalfx-svg-c04" fill="#7a7a7a"></path></g><defs>
<linearGradient id="a" x1="-1267.23" y1="3.07" x2="-1267.52" y2="14.64" gradientTransform="matrix(-1 0 0 1 -1256.13 0)" gradientUnits="userSpaceOnUse"><stop offset="0" stop-color="#32d4f5"></stop><stop offset=".23" stop-color="#31d0f1"></stop><stop offset=".46" stop-color="#2cc3e6"></stop><stop offset=".7" stop-color="#25afd4"></stop><stop offset=".94" stop-color="#1c92ba"></stop><stop offset="1" stop-color="#198ab3"></stop></linearGradient>
<linearGradient id="b" x1="6.05" y1="11.51" x2="6.05" y2="3" gradientUnits="userSpaceOnUse"><stop offset="0" stop-color="#0078d4"></stop><stop offset=".82" stop-color="#5ea0ef"></stop></linearGradient>
<linearGradient id="c" x1="10.51" y1="6.82" x2="7.93" y2="10.5" gradientUnits="userSpaceOnUse"><stop offset="0" stop-color="#005ba1"></stop><stop offset=".14" stop-color="#035da3" stop-opacity=".97"></stop><stop offset=".3" stop-color="#0b63aa" stop-opacity=".88"></stop><stop offset=".47" stop-color="#196eb6" stop-opacity=".73"></stop><stop offset=".65" stop-color="#2d7cc6" stop-opacity=".52"></stop><stop offset=".84" stop-color="#468edb" stop-opacity=".26"></stop><stop offset="1" stop-color="#5ea0ef" stop-opacity="0"></stop></linearGradient>
</defs>
</svg>