<svg viewBox="0 0 18 18" data-islogo="true" class="" role="presentation" focusable="false" xmlns:svg="http://www.w3.org/2000/svg" xmlns:xlink="http://www.w3.org/1999/xlink" id="FxSymbol0-044" data-type="1"><g><title>Icon-compute-27</title><rect x="-.17" y=".87" width="18" height="12" rx=".6" fill="url(#add877bb-eba5-4f6c-85e2-a20ca8b1f954)"></rect><rect x=".83" y="1.87" width="16" height="10" rx=".33" class="msportalfx-svg-c01" fill="#ffffff"></rect><path fill="#0078d4" d="M11.83 5.12v3.49l-3 1.76v-3.5l3-1.75z"></path><path fill="#83b9f9" d="M11.83 5.12l-3 1.76-3-1.76 3-1.75 3 1.75z"></path><path fill="#5ea0ef" d="M8.83 6.88v3.49l-3-1.76V5.12l3 1.76z"></path><path fill="#83b9f9" opacity=".2" d="M5.83 8.61l3-1.74v3.5l-3-1.76z"></path><path fill="#5ea0ef" opacity=".2" d="M11.83 8.61l-3-1.74v3.5l3-1.76z"></path><path d="M12.44 16.5c-1.78-.28-1.85-1.56-1.85-3.63H7.06c0 2.07-.06 3.35-1.84 3.63a1 1 0 0 0-.89 1h9a1 1 0 0 0-.89-1z" fill="url(#abfd55c2-f4e9-4954-8f01-2256c47fcbfe)"></path><path d="M5.1 2.57H2.62a.59.59 0 0 0-.6.59v2.48a.3.3 0 0 0 .3.3h.2a.3.3 0 0 0 .3-.3V3.35H5.1a.3.3 0 0 0 .3-.3v-.19a.3.3 0 0 0-.3-.29zm0 7.8H2.81V8.09a.3.3 0 0 0-.3-.3h-.19a.3.3 0 0 0-.3.3v2.48a.59.59 0 0 0 .6.59H5.1a.3.3 0 0 0 .3-.29v-.2a.3.3 0 0 0-.3-.3zM15 2.59h-2.44a.29.29 0 0 0-.3.3v.19a.29.29 0 0 0 .3.29h2.28v2.3a.29.29 0 0 0 .3.29h.2a.29.29 0 0 0 .29-.29V3.19a.59.59 0 0 0-.63-.6zm.34 5.22h-.19a.3.3 0 0 0-.3.3v2.28h-2.29a.29.29 0 0 0-.3.3v.2a.3.3 0 0 0 .3.3H15a.59.59 0 0 0 .59-.6V8.11a.3.3 0 0 0-.25-.3z" fill="#5ea0ef"></path></g><defs>
<linearGradient id="add877bb-eba5-4f6c-85e2-a20ca8b1f954" x1="8.83" y1="12.87" x2="8.83" y2=".87" gradientUnits="userSpaceOnUse"><stop offset="0" stop-color="#0078d4"></stop><stop offset=".82" stop-color="#5ea0ef"></stop></linearGradient>
<linearGradient id="abfd55c2-f4e9-4954-8f01-2256c47fcbfe" x1="8.83" y1="17.5" x2="8.83" y2="12.87" gradientUnits="userSpaceOnUse"><stop offset="0" stop-color="#1490df"></stop><stop offset=".98" stop-color="#1f56a3"></stop></linearGradient>
</defs>
</svg>