<svg viewBox="0 0 18 18" class="" role="presentation" focusable="false" xmlns="http://www.w3.org/2000/svg" xmlns:xlink="http://www.w3.org/1999/xlink" id="FxSymbol0-0f3" data-type="1"><g><path d="M18 7.5a3.148 3.148 0 0 0-2.73-3.056A3.96 3.96 0 0 0 11.2.66a4.074 4.074 0 0 0-3.894 2.678 3.747 3.747 0 0 0-3.3 3.616 3.809 3.809 0 0 0 3.907 3.708h6.93A3.188 3.188 0 0 0 18 7.5z" fill="url(#bc99d29d-6fcb-4faf-ad5d-7554405ac4e3)"></path><path d="M14.323 4.774l-1.864-1.813c-.2-.2-.376-.132-.376.184v.814a.224.224 0 0 1-.224.225h-.011c-1.2 0-4.552.316-4.674 4.9a.234.234 0 0 0 .234.235H8.6a.235.235 0 0 0 .236-.234v-.021a2.813 2.813 0 0 1 3.053-3.394.235.235 0 0 1 .234.235v.753c0 .377.123.438.377.184l1.823-1.681a.234.234 0 0 0 .062-.325.261.261 0 0 0-.062-.062z" class="msportalfx-svg-c01" fill="#ffffff"></path><circle cx="5.502" cy="10.498" r="5.379" fill="#0078d4"></circle><path d="M11 10.316h-.009a5.5 5.5 0 1 0 0 .363H11zm-2.282 0a6.33 6.33 0 0 0-.442-2.29h1.7a5.071 5.071 0 0 1 .644 2.29zm-8.34.363h1.978a6.31 6.31 0 0 0 .454 2.292H1.025a5.067 5.067 0 0 1-.644-2.292zm7.335-3.015h-2.03V5.607a5.785 5.785 0 0 1 2.03 2.057zm-2.393 0h-1.9a6.131 6.131 0 0 1 1.9-1.912zm0 .362v2.29h-2.6a5.5 5.5 0 0 1 .519-2.29zm-2.965 2.29H.381a5.07 5.07 0 0 1 .643-2.29h1.815a5.923 5.923 0 0 0-.484 2.29zm.363.363h2.6v2.292h-2.1a5.84 5.84 0 0 1-.5-2.292zm2.6 2.654v2.032a5.939 5.939 0 0 1-1.927-2.032zm.363 0h2a5.993 5.993 0 0 1-2 2.081zm0-.362v-2.292h2.678a5.84 5.84 0 0 1-.5 2.292zm0-2.655v-2.29h2.2a5.878 5.878 0 0 1 .474 2.29zm4.1-2.652H8.106A5.962 5.962 0 0 0 6.04 5.413a5.124 5.124 0 0 1 3.742 2.251zM5.215 5.387a6.445 6.445 0 0 0-2.194 2.277h-1.8a5.127 5.127 0 0 1 3.994-2.277zm-3.993 7.946h1.764A6.139 6.139 0 0 0 5 15.587a5.126 5.126 0 0 1-3.778-2.254zm4.863 2.245a6.121 6.121 0 0 0 2.006-2.245h1.691a5.129 5.129 0 0 1-3.697 2.245zm3.893-2.607H8.267a6.289 6.289 0 0 0 .454-2.292h1.9a5.08 5.08 0 0 1-.643 2.292z" fill="#83b9f9"></path></g><defs>
<linearGradient id="bc99d29d-6fcb-4faf-ad5d-7554405ac4e3" x1="11.003" y1="10.663" x2="11.003" y2=".658" gradientUnits="userSpaceOnUse"><stop offset="0" stop-color="#773adc"></stop><stop offset="1" stop-color="#a67af4"></stop></linearGradient>
</defs>
</svg>