<svg viewBox="0 0 18 18" class="" role="presentation" focusable="false" xmlns="http://www.w3.org/2000/svg" xmlns:xlink="http://www.w3.org/1999/xlink" id="FxSymbol0-11c" data-type="1"><g><circle cx="7.123" cy="6.981" r="6.981" fill="url(#23198782636063697)"></circle><circle cx="11.022" cy="11.164" r="6.684" fill="#0078d4"></circle><path d="M17.858 10.94h-.011a6.835 6.835 0 1 0 0 .45h.011zm-2.835 0a7.851 7.851 0 0 0-.55-2.846h2.145a6.351 6.351 0 0 1 .782 2.846zm-10.375.45h2.466a7.83 7.83 0 0 0 .564 2.847h-2.25a6.334 6.334 0 0 1-.78-2.847zm6.284-3.746h-2.5a7.724 7.724 0 0 1 2.5-2.466zm.45-2.465a7.094 7.094 0 0 1 2.388 2.465h-2.388zm-.45 2.915v2.846H7.563a6.816 6.816 0 0 1 .645-2.846zM7.113 10.94H4.648a6.338 6.338 0 0 1 .779-2.846h2.287a7.364 7.364 0 0 0-.601 2.846zm.451.45h3.368v2.847H8.183a7.252 7.252 0 0 1-.619-2.847zm3.368 3.3v2.61A7.461 7.461 0 0 1 8.4 14.688zm.45 0h2.352a7.349 7.349 0 0 1-2.352 2.494zm0-.451V11.39h3.191a7.252 7.252 0 0 1-.619 2.847zm0-3.3V8.094h2.6a7.3 7.3 0 0 1 .59 2.846zm4.962-3.3h-2.086a7.429 7.429 0 0 0-2.621-2.829 6.389 6.389 0 0 1 4.707 2.834zM10.7 4.8a8 8 0 0 0-2.759 2.844H5.7a6.379 6.379 0 0 1 5-2.844zm-5 9.888h2.2a7.648 7.648 0 0 0 2.558 2.833A6.387 6.387 0 0 1 5.7 14.688zm5.99 2.826a7.649 7.649 0 0 0 2.548-2.826h2.1a6.39 6.39 0 0 1-4.646 2.826zm4.925-3.277h-2.156a7.83 7.83 0 0 0 .564-2.847H17.4a6.346 6.346 0 0 1-.783 2.847z" fill="#83b9f9"></path><path d="M11.031 9.684a1.538 1.538 0 0 0-.663.154l-4.04-4.976a1.573 1.573 0 1 0-.707.548L9.7 10.438a1.539 1.539 0 0 0-.23.8 1.557 1.557 0 1 0 1.557-1.557z" fill="#42e8ca"></path></g><defs>
<linearGradient id="23198782636063697" x1="7.123" x2="7.123" y2="13.962" gradientUnits="userSpaceOnUse"><stop offset="0" stop-color="#0078d4"></stop><stop offset="1" stop-color="#005ba1"></stop></linearGradient>
</defs>
</svg>