<svg viewBox="0 0 18 18" class="" role="presentation" focusable="false" xmlns="http://www.w3.org/2000/svg" xmlns:xlink="http://www.w3.org/1999/xlink" id="FxSymbol0-26e" data-type="309"><g><title>MsPortalFx.base.images-58</title><path fill="url(#0d8109c4-efc9-40cf-b95b-2b7b8958517b)" d="M18 10.075a4.044 4.044 0 0 0-3.51-3.887 5.1 5.1 0 0 0-5.25-4.875 5.229 5.229 0 0 0-5 3.408A4.825 4.825 0 0 0 0 9.364a4.9 4.9 0 0 0 5.068 4.707c.151 0 .3-.007.447-.019h8.207a.819.819 0 0 0 .217-.033A4.093 4.093 0 0 0 18 10.075z"></path><path fill="#32bedd" d="M12.067 11.806h-6.36a.276.276 0 0 0-.282.27v1.732a.276.276 0 0 0 .281.27h6.361a.276.276 0 0 0 .281-.27v-1.732a.277.277 0 0 0-.281-.27z"></path><path fill="#198ab3" d="M12.067 14.415h-6.36a.276.276 0 0 0-.282.27v1.731a.276.276 0 0 0 .281.271h6.361a.276.276 0 0 0 .281-.271v-1.731a.277.277 0 0 0-.281-.27z"></path><path fill="#b4ec36" d="M11.27 12.231h.373a.072.072 0 0 1 .072.072v.356a.069.069 0 0 1-.069.069h-.379a.069.069 0 0 1-.069-.069V12.3a.072.072 0 0 1 .072-.069zm-.002.856h.376a.072.072 0 0 1 .072.072v.353a.072.072 0 0 1-.072.072h-.374a.072.072 0 0 1-.072-.072v-.356a.069.069 0 0 1 .07-.069zm.021 1.74h.376a.072.072 0 0 1 .072.072v.356a.069.069 0 0 1-.069.069h-.376a.072.072 0 0 1-.072-.072V14.9a.069.069 0 0 1 .069-.073zm0 .856h.376a.072.072 0 0 1 .072.072v.356a.069.069 0 0 1-.069.069h-.379a.069.069 0 0 1-.069-.069v-.359a.069.069 0 0 1 .069-.069z"></path><path fill="#50e6ff" d="M12.007 8.993h-6.36a.276.276 0 0 0-.282.271V11a.277.277 0 0 0 .281.271h6.361a.277.277 0 0 0 .281-.271V9.264a.277.277 0 0 0-.281-.271z"></path><path d="M11.208 9.419h.376a.072.072 0 0 1 .072.072v.356a.069.069 0 0 1-.069.069h-.377a.072.072 0 0 1-.072-.072v-.356a.069.069 0 0 1 .07-.069zm0 .856h.376a.072.072 0 0 1 .072.072v.353a.069.069 0 0 1-.069.069h-.379a.069.069 0 0 1-.069-.069v-.359a.069.069 0 0 1 .069-.066zm.427-2.875-2.43 2.43a.29.29 0 0 1-.41 0L6.365 7.4a.13.13 0 0 1 .092-.221h1.494a.129.129 0 0 0 .129-.129V4.014a.1.1 0 0 1 .1-.1h1.636a.1.1 0 0 1 .1.1v3.037a.129.129 0 0 0 .129.129h1.494a.13.13 0 0 1 .096.22z" class="msportalfx-svg-c01" fill="#ffffff"></path></g><defs>
<linearGradient id="0d8109c4-efc9-40cf-b95b-2b7b8958517b" x1="9" x2="9" y1="14.071" y2="1.313" gradientUnits="userSpaceOnUse"><stop offset="0" stop-color="#0078d4"></stop><stop offset=".156" stop-color="#1380da"></stop><stop offset=".528" stop-color="#3c91e5"></stop><stop offset=".822" stop-color="#559cec"></stop><stop offset="1" stop-color="#5ea0ef"></stop></linearGradient>
</defs>
</svg>