<svg viewBox="0 0 50 50" class="" role="presentation" focusable="false" xmlns="http://www.w3.org/2000/svg" xmlns:xlink="http://www.w3.org/1999/xlink" id="FxSymbol0-1c9" data-type="1"><g><title></title><path d="M31.7 32c-2.6 2-5.6 2.9-8.6 2.9-4.3 0-8.5-1.9-11.3-5.6-4.8-6.2-3.6-15.2 2.7-20 2.6-2 5.6-2.9 8.6-2.9 4.3 0 8.5 1.9 11.3 5.6 4.8 6.3 3.6 15.2-2.7 20" class="msportalfx-svg-c15" fill="#59b4d9"></path><path d="M29.1 23.2c1 1.3 3 1.6 4.3.6l.2-.2c1.4 1 2.3 1.6 2.9 2 .2-.4.3-.8.4-1.2-.6-.4-1.3-1-2.4-1.9.4-1 .2-2.1-.4-2.9-1-1.2-2.6-1.5-4-.8-1.5-1.3-3-2.8-4.7-4.5 5.2-2.8 8.9-2.4 8.9-2.4-.6-.8-1.3-1.5-2.1-2.1-2.2-.3-5.6-.3-9.5 1.8-1.3-1.4-2.6-2.8-4-4.4-.6.2-1.3.5-1.9.8 1 1.6 2.3 3.3 3.8 4.9-1.3.9-2.7 2.1-4 3.4-.2.2-.3.4-.5.5-.8-.2-1.6-.1-2.3.2-1.3-2.8-1.2-5-1-6.2-.6.6-1.1 1.2-1.5 1.9-.3 1.4-.4 3.4.6 5.8-1.2 1.5-1.2 3.6 0 5.2.1.1.2.3.3.4-.5 1.8-.8 3.5-.8 5 .1.2.1.3.3.5.7.9 1.5 1.6 2.4 2.3-.1-1.6 0-3.9 1-6.5.7.1 1.3-.1 2-.3.4.3.7.6 1.2 1 1.4 1.1 2.8 2 4.1 2.6-.1.7.1 1.4.6 2 1 1.2 2.7 1.5 4 .5.3-.2.5-.4.6-.7 2.2.5 4.2.6 5.6.6.2 0 1.2-1.4 1.8-2.2-.9.2-3.5.5-7-.5-.1-.4-.2-.8-.5-1.1-.9-1.2-2.5-1.4-3.8-.6-1.2-.7-2.5-1.5-3.8-2.6-.3-.2-.5-.4-.8-.6.8-1.3.9-2.9.2-4.3l.5-.5c1.3-1.2 2.6-2.2 3.7-3l-.1-.1.1.1c1.8 1.6 3.7 3.2 5.4 4.6-.6.7-.5 2 .2 2.9z" class="msportalfx-svg-c01" fill="#ffffff"></path><path d="M34.4 41.9h.1c4.4 0 7.9-1.3 7.9-2.9V23.7h-8.1v18.2z" class="msportalfx-svg-c15" fill="#59b4d9"></path><path d="M26.6 23.7V39c0 1.6 3.5 2.9 7.9 2.9V23.7h-7.9z" class="msportalfx-svg-c16" fill="#3999c6"></path><path d="M42.5 23.7c0 1.6-3.5 2.9-7.9 2.9s-7.9-1.3-7.9-2.9c0-1.6 3.5-2.9 7.9-2.9 4.3 0 7.9 1.3 7.9 2.9" class="msportalfx-svg-c01" fill="#ffffff"></path><path d="M40.9 23.5c0 1.1-2.8 1.9-6.3 1.9s-6.3-.8-6.3-1.9 2.8-1.9 6.3-1.9 6.3.9 6.3 1.9" class="msportalfx-svg-c14" fill="#57a300"></path><path d="M39.5 24.7c.8-.3 1.3-.7 1.3-1.2 0-1.1-2.8-1.9-6.3-1.9s-6.3.8-6.3 1.9c0 .4.5.8 1.3 1.2 1.2-.4 3-.7 5-.7 2.1-.1 3.9.3 5 .7" class="msportalfx-svg-c13" fill="#b8d432"></path><path fill="#DADDE0" d="M34.6 35.3c-1 0-1.8.7-2.1 1.6h-8.3c-3.5 0-6.4-2.9-6.4-6.4h-1.3c0 4.2 3.5 7.7 7.7 7.7h8.3c.3.9 1.1 1.6 2.1 1.6 1.2 0 2.2-1 2.2-2.2 0-1.3-1-2.3-2.2-2.3z"></path><path fill="#DADDE0" d="M16.5 26.7h1.3v4h-1.3z"></path></g><defs>
</defs>
</svg>