<svg viewBox="0 0 50 50" class="fxs-portal-svg" role="presentation" focusable="false" xmlns:svg="http://www.w3.org/2000/svg" xmlns:xlink="http://www.w3.org/1999/xlink" id="FxSymbol0-18a" data-type="1"><g><title></title><path d="M14.059 28c1.309 4.802.632 5.867-7.059 5.867V36h26v-2.133c-7.691 0-9.371-1.068-8.064-5.867H14.059" class="msportalfx-svg-c04" fill="#7a7a7a"></path><path d="M2.416 0C1.215 0-.001 1.028-.002 2.182v23.654c0 1.144 1.216 2.163 2.417 2.163h35.41c1.204 0 2.174-1.019 2.174-2.163V2.182c0-1.151-.97-2.182-2.173-2.182H2.416" class="msportalfx-svg-c03" fill="#a0a1a2"></path><path opacity=".2" d="M37.609.002L37.584 0H2.174C.97.001 0 1.031 0 2.183v23.653C0 26.981.97 28 2.174 28h.842L37.609.002z" class="msportalfx-svg-c01" fill="#ffffff"></path><path d="M37 3v22H3V3z" class="msportalfx-svg-c15" fill="#59b4d9"></path><path d="M6.999 34h26v2h-26z" class="msportalfx-svg-c03" fill="#a0a1a2"></path><path d="M19.586 1.634a.56.56 0 0 1 .568-.554.56.56 0 0 1 .567.554.56.56 0 0 1-.567.554.56.56 0 0 1-.568-.554" class="msportalfx-svg-c13" fill="#b8d432"></path><path d="M19.979 13.1a.222.222 0 0 1-.105-.028L13.07 9.285a.197.197 0 0 1 0-.346l6.85-3.814a.213.213 0 0 1 .205 0l6.806 3.788a.201.201 0 0 1 .103.173c0 .07-.04.137-.103.173l-6.848 3.812a.22.22 0 0 1-.104.029" class="msportalfx-svg-c01" fill="#ffffff"></path><path opacity=".7" d="M21.198 22.728a.2.2 0 0 1-.198-.203v-7.71c0-.072.039-.138.098-.176l6.599-3.841a.196.196 0 0 1 .201 0 .199.199 0 0 1 .102.175v7.71c0 .075-.038.14-.102.176l-6.599 3.842a.19.19 0 0 1-.101.027" class="msportalfx-svg-c01" fill="#ffffff"></path><path opacity=".4" d="M18.799 22.728a.174.174 0 0 1-.096-.027l-6.601-3.842a.197.197 0 0 1-.102-.175v-7.661a.201.201 0 0 1 .3-.175l6.603 3.841a.209.209 0 0 1 .097.175v7.662a.206.206 0 0 1-.097.175.218.218 0 0 1-.104.027" class="msportalfx-svg-c01" fill="#ffffff"></path><path d="M35.075 39.075l10 10 .002-.002a2.825 2.825 0 0 0 3.996-3.996l.002-.002-10-10-4 4z"></path><path opacity=".4" d="M40.385 36.385l-4 4L39 43a14.01 14.01 0 0 0 4-4l-2.615-2.615z"></path><circle cx="29" cy="29" r="11" class="msportalfx-svg-c01" fill="#ffffff"></circle><path opacity=".2" d="M21.49 32.49c0-6.501 4.53-11 11-11 2.01 0 3.889.548 5.51 1.49-1.904-3.279-5.445-5.49-9.51-5.49-6.075 0-11 4.925-11 11 0 4.065 2.211 7.606 5.49 9.51a10.932 10.932 0 0 1-1.49-5.51z"></path><path d="M29 15.1c-7.677 0-13.9 6.223-13.9 13.9S21.323 42.9 29 42.9 42.9 36.677 42.9 29 36.677 15.1 29 15.1zm0 24.2c-5.689 0-10.3-4.611-10.3-10.3S23.311 18.7 29 18.7 39.3 23.312 39.3 29 34.689 39.3 29 39.3z"></path><path d="M22 26h3v8h-3zm5 2h3v6h-3zm5-5h3v11h-3z" class="msportalfx-svg-c14" fill="#57a300"></path><path d="M261.059 174c1.309 4.802.632 5.867-7.059 5.867V182h26v-2.133c-7.691 0-9.371-1.068-8.064-5.867h-10.877" class="msportalfx-svg-c04" fill="#7a7a7a"></path><path d="M249.416 146c-1.201 0-2.417 1.028-2.418 2.182v23.654c0 1.144 1.216 2.163 2.417 2.163h35.41c1.204 0 2.174-1.019 2.174-2.163v-23.654c0-1.151-.97-2.182-2.173-2.182h-35.41" class="msportalfx-svg-c03" fill="#a0a1a2"></path><path opacity=".2" d="M284.609 146.002l-.025-.002h-35.41c-1.204.001-2.174 1.031-2.174 2.183v23.653c0 1.145.97 2.164 2.174 2.164h.842l34.593-27.998z" class="msportalfx-svg-c01" fill="#ffffff"></path><path d="M284 149v22h-34v-22z" class="msportalfx-svg-c15" fill="#59b4d9"></path><path d="M253.999 180h26v2h-26z" class="msportalfx-svg-c03" fill="#a0a1a2"></path><path d="M266.586 147.634c0-.306.254-.554.568-.554s.567.247.567.554c0 .306-.253.554-.567.554s-.568-.248-.568-.554" class="msportalfx-svg-c13" fill="#b8d432"></path><path d="M266.979 159.1a.222.222 0 0 1-.105-.028l-6.804-3.787a.197.197 0 0 1 0-.346l6.85-3.814a.213.213 0 0 1 .205 0l6.806 3.788a.201.201 0 0 1 .103.173c0 .07-.04.137-.103.173l-6.848 3.812a.22.22 0 0 1-.104.029" class="msportalfx-svg-c01" fill="#ffffff"></path><path opacity=".7" d="M268.198 168.728a.2.2 0 0 1-.198-.203v-7.71c0-.072.039-.138.098-.176l6.599-3.841a.196.196 0 0 1 .201 0 .199.199 0 0 1 .102.175v7.71c0 .075-.038.14-.102.176l-6.599 3.842a.19.19 0 0 1-.101.027" class="msportalfx-svg-c01" fill="#ffffff"></path><path opacity=".4" d="M265.799 168.728a.174.174 0 0 1-.096-.027l-6.601-3.842a.197.197 0 0 1-.102-.175v-7.661a.201.201 0 0 1 .3-.175l6.603 3.841a.209.209 0 0 1 .097.175v7.662a.206.206 0 0 1-.097.175.218.218 0 0 1-.104.027" class="msportalfx-svg-c01" fill="#ffffff"></path><path d="M282.075 185.075l10 10 .002-.002a2.825 2.825 0 0 0 3.996-3.996l.002-.002-10-10-4 4z"></path><path opacity=".4" d="M287.385 182.385l-4 4L286 189a14.01 14.01 0 0 0 4-4l-2.615-2.615z"></path><circle cx="276" cy="175" r="11" class="msportalfx-svg-c01" fill="#ffffff"></circle><path opacity=".2" d="M268.49 178.49c0-6.501 4.53-11 11-11 2.01 0 3.889.548 5.51 1.49-1.904-3.279-5.445-5.49-9.51-5.49-6.075 0-11 4.925-11 11 0 4.065 2.211 7.606 5.49 9.51a10.932 10.932 0 0 1-1.49-5.51z"></path><path d="M276 161.1c-7.677 0-13.9 6.223-13.9 13.9s6.223 13.9 13.9 13.9 13.9-6.223 13.9-13.9-6.223-13.9-13.9-13.9zm0 24.2c-5.689 0-10.3-4.611-10.3-10.3s4.611-10.3 10.3-10.3 10.3 4.612 10.3 10.3-4.611 10.3-10.3 10.3z"></path><path d="M269 172h3v8h-3zm5 2h3v6h-3zm5-5h3v11h-3z" class="msportalfx-svg-c14" fill="#57a300"></path></g><defs>
<linearGradient id="a" x1="-1267.23" y1="3.07" x2="-1267.52" y2="14.64" gradientTransform="matrix(-1 0 0 1 -1256.13 0)" gradientUnits="userSpaceOnUse"><stop offset="0" stop-color="#32d4f5"></stop><stop offset=".23" stop-color="#31d0f1"></stop><stop offset=".46" stop-color="#2cc3e6"></stop><stop offset=".7" stop-color="#25afd4"></stop><stop offset=".94" stop-color="#1c92ba"></stop><stop offset="1" stop-color="#198ab3"></stop></linearGradient>
<linearGradient id="b" x1="6.4" y1="1.32" x2="7.21" y2="11.39"><stop offset=".22" stop-color="#32d4f5"></stop><stop offset=".47" stop-color="#31d1f3"></stop><stop offset=".63" stop-color="#2ec9eb"></stop><stop offset=".77" stop-color="#29bade"></stop><stop offset=".89" stop-color="#22a5cb"></stop><stop offset="1" stop-color="#198ab3"></stop><stop offset="1" stop-color="#198ab3"></stop></linearGradient>
<linearGradient id="c" x1="13.76" y1="18.05" x2="13.76" y2="10.25" gradientUnits="userSpaceOnUse"><stop offset="0" stop-color="#76bc2d"></stop><stop offset=".6" stop-color="#81ce31"></stop><stop offset=".82" stop-color="#86d633"></stop></linearGradient>
</defs>
</svg>