<svg viewBox="0 0 18 18" class="" role="presentation" focusable="false" xmlns="http://www.w3.org/2000/svg" xmlns:xlink="http://www.w3.org/1999/xlink" id="FxSymbol0-0b4" data-type="1"><g><path d="M7.145 3.861a5.005 5.005 0 0 1 4.736 3.4l2.135-.347a7.142 7.142 0 0 0-9.589-4.658l.307 2.227a4.962 4.962 0 0 1 2.411-.622Z" fill="url(#94a115a1-5689-4c39-bee0-5c63fda4a0f9)"></path><path d="M11.853 7.2a4.942 4.942 0 0 1 .286 1.656A5 5 0 1 1 3.191 5.8s.349-.49.511-.672a.127.127 0 0 1 .126.012l.076.054 1.145.82a.13.13 0 0 0 .2-.127l-.561-3.411a.292.292 0 0 0-.335-.24L.946 2.8a.13.13 0 0 0-.054.234l1.145.82a7.139 7.139 0 1 0 11.848 2.655Z" fill="url(#94a115a1-5689-4c39-bee0-5c63fda4a0fa)"></path><path d="M17.336 15.35a.661.661 0 0 0 .664-.659.546.546 0 0 0 0-.08c-.259-2.079-1.446-3.772-3.708-3.772-2.3 0-3.491 1.434-3.722 3.778a.665.665 0 0 0 .593.73h.067Z" fill="#32bedd"></path><circle cx="14.287" cy="9.247" r="2.086" fill="url(#94a115a1-5689-4c39-bee0-5c63fda4a0fb)"></circle><path d="M14.244 16.364a.841.841 0 0 0 .844-.838.855.855 0 0 0-.006-.1c-.331-2.644-1.839-4.8-4.717-4.8-2.928 0-4.438 1.823-4.732 4.8a.845.845 0 0 0 .754.928.794.794 0 0 0 .085 0Z" fill="#50e6ff"></path><circle cx="10.365" cy="8.603" r="2.653" fill="url(#94a115a1-5689-4c39-bee0-5c63fda4a0fc)"></circle></g><defs>
<linearGradient id="94a115a1-5689-4c39-bee0-5c63fda4a0f9" x1="9.723" y1="7.674" x2="8.608" y2="1.35" gradientUnits="userSpaceOnUse"><stop offset="0" stop-color="#0078d4"></stop><stop offset="1" stop-color="#005ba1"></stop></linearGradient>
<linearGradient id="94a115a1-5689-4c39-bee0-5c63fda4a0fa" x1="12.891" y1="13.178" x2="-.602" y2="5.388" gradientUnits="userSpaceOnUse"><stop offset=".301" stop-color="#0078d4"></stop><stop offset="1" stop-color="#5ea0ef"></stop></linearGradient>
<linearGradient id="94a115a1-5689-4c39-bee0-5c63fda4a0fb" x1="14.287" y1="6.971" x2="14.287" y2="12.596" gradientUnits="userSpaceOnUse"><stop offset=".225" stop-color="#32bedd"></stop><stop offset="1" stop-color="#198ab3"></stop></linearGradient>
<linearGradient id="94a115a1-5689-4c39-bee0-5c63fda4a0fc" x1="10.365" y1="5.709" x2="10.365" y2="12.862" gradientUnits="userSpaceOnUse"><stop offset=".225" stop-color="#50e6ff"></stop><stop offset="1" stop-color="#32bedd"></stop></linearGradient>
</defs>
</svg>