<svg viewBox="0 0 87.475 50" class="" role="presentation" focusable="false" xmlns="http://www.w3.org/2000/svg" xmlns:xlink="http://www.w3.org/1999/xlink" id="FxSymbol0-21e" data-type="1"><g><title></title><title>Asset 12container-appservice</title><path d="M32.048 11.585H3.816v20.99h27.266l33.051 10.767V1.363L32.048 11.585z" class="msportalfx-svg-c11" fill="#fcd116"></path><path d="M64.133 0h5.855v44.705h-5.855zM0 14.266h3.816V30.44H0z" class="msportalfx-svg-c19" fill="#0072c6"></path><path d="M25.874 34.774a1.634 1.634 0 0 0-.363.042V32.55H11.88L15.969 50h9.541V37.641a1.634 1.634 0 0 0 .363.042 1.457 1.457 0 1 0 0-2.908Zm48.203-12.421a5.8 5.8 0 0 0-4.066-5.531v11.061a5.8 5.8 0 0 0 4.066-5.53Z" fill="#4d4d4d"></path><path opacity=".2" d="M3.816 24.248v8.314h27.266l33.051 10.767v-8.314L31.082 24.248H3.816z" class="msportalfx-svg-c04" fill="#7a7a7a"></path><path d="m81.892 17.967 5.215-1.285.369 1.5-5.222 1.287a15.344 15.344 0 0 0-.362-1.502Zm-2.648 13.907 3.987 3.532-1.026 1.158-3.971-3.518q.534-.56 1.01-1.172Zm-1.01-20.214 3.971-3.518L83.231 9.3l-3.987 3.532q-.477-.612-1.01-1.172Zm4.019 13.574 5.222 1.287-.369 1.5-5.215-1.285a15.344 15.344 0 0 0 .362-1.502Z" class="msportalfx-svg-c10" fill="#ff8c00"></path></g><defs>
</defs>
</svg>