<svg viewBox="0 0 96 96" class="" role="presentation" focusable="false" xmlns="http://www.w3.org/2000/svg" xmlns:xlink="http://www.w3.org/1999/xlink" id="FxSymbol0-0e3" data-type="1"><g><g clip-path="url(#59616712-f700-4139-92c6-bd98d17f0278)"><path d="M84 0v96H52V0Z" fill="url(#59616712-f700-4139-92c6-bd98d17f0275)"></path><path d="M64 28v68H32V24h28a4 4 0 0 1 4 4Z" fill="url(#59616712-f700-4139-92c6-bd98d17f0276)"></path><path d="M12 48v48h32V52a4 4 0 0 0-4-4Z" fill="url(#59616712-f700-4139-92c6-bd98d17f0277)"></path></g></g><defs>
<linearGradient id="59616712-f700-4139-92c6-bd98d17f0275" x1="45.593" y1="95.494" x2="87.792" y2="6.047" gradientTransform="matrix(1 0 0 -1 0 96)" gradientUnits="userSpaceOnUse"><stop offset="0" stop-color="#e6ad10"></stop><stop offset="1" stop-color="#c87e0e"></stop></linearGradient>
<linearGradient id="59616712-f700-4139-92c6-bd98d17f0276" x1="29.359" y1="70.638" x2="64.848" y2="1.812" gradientTransform="matrix(1 0 0 -1 0 96)" gradientUnits="userSpaceOnUse"><stop offset="0" stop-color="#f6d751"></stop><stop offset="1" stop-color="#e6ad10"></stop></linearGradient>
<linearGradient id="59616712-f700-4139-92c6-bd98d17f0277" x1="16.415" y1="49.863" x2="36.025" y2="3.385" gradientTransform="matrix(1 0 0 -1 0 96)" gradientUnits="userSpaceOnUse"><stop offset="0" stop-color="#f9e589"></stop><stop offset="1" stop-color="#f6d751"></stop></linearGradient>
<clipPath id="59616712-f700-4139-92c6-bd98d17f0278"><path d="M52 4a4 4 0 0 1 4-4h24a4 4 0 0 1 4 4v88a4 4 0 0 1-4 4H16a4 4 0 0 1-4-4V52a4 4 0 0 1 4-4h16V28a4 4 0 0 1 4-4h16Z"></path></clipPath>
</defs>
</svg>