<svg viewBox="0 0 50 50" class="" role="presentation" focusable="false" xmlns:svg="http://www.w3.org/2000/svg" xmlns:xlink="http://www.w3.org/1999/xlink" id="FxSymbol0-082" data-type="47"><g><title></title><path d="M0 44.627c0 1.108.898 2.007 2.007 2.007h45.986A2.007 2.007 0 0 0 50 44.627V12.634H0v31.993z" class="msportalfx-svg-c16" fill="#3999c6"></path><path d="M47.993 4H2.007A2.006 2.006 0 0 0 0 6.007v7.291h50V6.007A2.007 2.007 0 0 0 47.993 4z" class="msportalfx-svg-c03" fill="#a0a1a2"></path><path opacity=".15" d="M0 13.298h50v3.336H0z" class="msportalfx-svg-c01" fill="#ffffff"></path><path opacity=".1" d="M2.014 4A2.007 2.007 0 0 0 .007 6.007v38.62c0 1.108.899 2.007 2.007 2.007h19.188L43.62 4H2.014z" class="msportalfx-svg-c01" fill="#ffffff"></path><path d="M7.363 37.334v-1.272l8.98-4.425v-.053l-8.98-5.021v-1.246l11.034 6.188v.238zm10.258 4.451h11.262v1.576H17.621z" class="msportalfx-svg-c01" fill="#ffffff"></path></g><defs>
<linearGradient id="a" x1="-1267.23" y1="3.07" x2="-1267.52" y2="14.64" gradientTransform="matrix(-1 0 0 1 -1256.13 0)" gradientUnits="userSpaceOnUse"><stop offset="0" stop-color="#32d4f5"></stop><stop offset=".23" stop-color="#31d0f1"></stop><stop offset=".46" stop-color="#2cc3e6"></stop><stop offset=".7" stop-color="#25afd4"></stop><stop offset=".94" stop-color="#1c92ba"></stop><stop offset="1" stop-color="#198ab3"></stop></linearGradient>
<linearGradient id="b" x1="6.05" y1="11.51" x2="6.05" y2="3" gradientUnits="userSpaceOnUse"><stop offset="0" stop-color="#0078d4"></stop><stop offset=".82" stop-color="#5ea0ef"></stop></linearGradient>
<linearGradient id="c" x1="10.51" y1="6.82" x2="7.93" y2="10.5" gradientUnits="userSpaceOnUse"><stop offset="0" stop-color="#005ba1"></stop><stop offset=".14" stop-color="#035da3" stop-opacity=".97"></stop><stop offset=".3" stop-color="#0b63aa" stop-opacity=".88"></stop><stop offset=".47" stop-color="#196eb6" stop-opacity=".73"></stop><stop offset=".65" stop-color="#2d7cc6" stop-opacity=".52"></stop><stop offset=".84" stop-color="#468edb" stop-opacity=".26"></stop><stop offset="1" stop-color="#5ea0ef" stop-opacity="0"></stop></linearGradient>
</defs>
</svg>