<svg viewBox="0 0 18 18" class="" role="presentation" focusable="false" xmlns="http://www.w3.org/2000/svg" xmlns:xlink="http://www.w3.org/1999/xlink" id="FxSymbol0-205" data-type="1"><g><path d="M0 5.427h18v10.035a.6.6 0 0 1-.6.6H.6a.6.6 0 0 1-.6-.6V5.427Z" fill="url(#406fd2f9-470a-4939-b13a-553c6cc30bd6)"></path><path d="M.6 1.591h16.8a.6.6 0 0 1 .6.6v3.236H0V2.192a.6.6 0 0 1 .6-.6Z" fill="#773adc"></path><path d="M5.429 13.13a.237.237 0 0 1-.237-.235 2.711 2.711 0 0 0-2.706-2.707.236.236 0 0 1-.237-.235.238.238 0 0 1 .237-.238 2.709 2.709 0 0 0 2.706-2.709.236.236 0 0 1 .234-.237.235.235 0 0 1 .24.231 2.71 2.71 0 0 0 2.707 2.712.236.236 0 0 1 .237.235.236.236 0 0 1-.235.237 2.711 2.711 0 0 0-2.707 2.707.238.238 0 0 1-.239.239Z" class="msportalfx-svg-c01" fill="#ffffff"></path><path d="M12.939 13.939a.19.19 0 0 1-.19-.19 2.168 2.168 0 0 0-2.165-2.165.19.19 0 0 1-.19-.188.19.19 0 0 1 .19-.19 2.167 2.167 0 0 0 2.165-2.165.19.19 0 0 1 .19-.19.19.19 0 0 1 .19.19 2.166 2.166 0 0 0 2.164 2.165.19.19 0 1 1 0 .38 2.166 2.166 0 0 0-2.164 2.164.19.19 0 0 1-.19.189Z" opacity=".8" class="msportalfx-svg-c01" fill="#ffffff"></path></g><defs>
<linearGradient id="406fd2f9-470a-4939-b13a-553c6cc30bd6" x1="9" y1="16.062" x2="9" y2="5.427" gradientUnits="userSpaceOnUse"><stop offset="0" stop-color="#773adc"></stop><stop offset=".775" stop-color="#b796f9"></stop></linearGradient>
</defs>
</svg>