<svg viewBox="0 0 18 18" class="" role="presentation" focusable="false" xmlns="http://www.w3.org/2000/svg" xmlns:xlink="http://www.w3.org/1999/xlink" id="FxSymbol0-218" data-type="358"><g><title></title><path fill="#86d633" d="M6.439 12.049a1.92 1.92 0 0 1-.561.224 3.569 3.569 0 0 1-.822.082 4.736 4.736 0 0 1-3.043-1.135l-.007 2.468a5.2 5.2 0 0 0 1.422.467 9.337 9.337 0 0 0 1.731.159 8.1 8.1 0 0 0 1.685-.164 4.54 4.54 0 0 0 .695-.207 3.408 3.408 0 0 1-1.1-1.894zm-.821-9.84A1.1 1.1 0 1 0 4.517 1.1a1.1 1.1 0 0 0 1.101 1.109zM4.541 9.361q.507.21.947.411a5.3 5.3 0 0 1 .758.419 2.349 2.349 0 0 1 .282.223 3.415 3.415 0 0 1 1.595-2.007c-.081-.056-.156-.114-.243-.166a9.771 9.771 0 0 0-1.19-.594q-.486-.2-.871-.392a4.5 4.5 0 0 1-.654-.387 1.694 1.694 0 0 1-.416-.418.884.884 0 0 1-.145-.5.832.832 0 0 1 .133-.458 1.128 1.128 0 0 1 .371-.35 1.949 1.949 0 0 1 .592-.224 3.4 3.4 0 0 1 .771-.079 5.048 5.048 0 0 1 .652.048 5.2 5.2 0 0 1 .69.145 4.842 4.842 0 0 1 .674.245 3.676 3.676 0 0 1 .6.341l.007-2.306a6.052 6.052 0 0 0-1.229-.324 10.037 10.037 0 0 0-1.532-.108 7.067 7.067 0 0 0-1.666.184 4.227 4.227 0 0 0-1.386.586 2.936 2.936 0 0 0-.948 1.019 3 3 0 0 0-.352 1.484 2.881 2.881 0 0 0 .631 1.883 4.838 4.838 0 0 0 1.929 1.325zM5.58 15.1a1.1 1.1 0 1 0 1.1 1.107 1.1 1.1 0 0 0-1.1-1.107z"></path><rect width="1.319" height="5.789" x="13.293" y="12.848" fill="#999" rx=".616" transform="rotate(-45 13.952 15.742)"></rect><path fill="#b3b3b3" d="M9.659 7.411a3.972 3.972 0 1 0 3.972 3.972 3.971 3.971 0 0 0-3.972-3.972zm.008 7.02a3.12 3.12 0 1 1 3.12-3.119 3.118 3.118 0 0 1-3.12 3.119z"></path><path fill="#b4ec36" d="M9.67 8.607a4.7 4.7 0 0 0-.416-.374 3.1 3.1 0 0 0-2.509 1.994 2.332 2.332 0 0 1 .473.46 1.159 1.159 0 0 1 .224.7 1.069 1.069 0 0 1-.14.536 1.242 1.242 0 0 1-.425.429c-.037.024-.085.043-.126.064a3.108 3.108 0 0 0 2.111 1.9c.056-.032.12-.055.174-.089A3.452 3.452 0 0 0 10.188 13a3.809 3.809 0 0 0 .424-1.879 3.85 3.85 0 0 0-.242-1.422 3.319 3.319 0 0 0-.7-1.092z"></path></g><defs>
</defs>
</svg>