<svg viewBox="0 0 18 18" class="" role="presentation" focusable="false" xmlns="http://www.w3.org/2000/svg" xmlns:xlink="http://www.w3.org/1999/xlink" id="FxSymbol0-255" data-type="1"><g><title></title><path fill-rule="evenodd" clip-rule="evenodd" d="M6.225 15.322H1.556c-.933 0-1.556-.46-1.556-1.148V3.842c0-.689.623-1.148 1.556-1.148h4.67v12.628Z" fill="#C5C5C5"></path><path fill-rule="evenodd" clip-rule="evenodd" d="M6.225 4.575H0v-.94c0-.47.486-.94 1.4-.94h4.825v1.88Z" fill="#4753C3"></path><path fill-rule="evenodd" clip-rule="evenodd" d="M16.444 15.322h-4.67V2.694h4.67c.934 0 1.556.46 1.556 1.148v10.332c0 .688-.622 1.148-1.556 1.148Z" fill="#C5C5C5"></path><path fill-rule="evenodd" clip-rule="evenodd" d="M11.775 4.575v-1.88h4.669c.778 0 1.4.375 1.556.845v1.034h-6.225Z" fill="#50E6FF"></path><path d="M4.774 0h8.99c.674 0 1.123.415 1.123 1.037v15.56c0 .623-.45 1.038-1.123 1.038h-8.99c-.674 0-1.124-.415-1.124-1.037V1.038C3.65.414 4.1 0 4.774 0Z" fill="#E1E1E1"></path><path d="M4.774 0h8.99c.674 0 1.123.292 1.123.729v1.458H3.65V.729C3.65.292 4.1 0 4.774 0Z" fill="#5C9FEF"></path><path fill-rule="evenodd" clip-rule="evenodd" d="M6.69 7.063 5.109 5.749l.609-.716.852.597L7.91 3.6l.852.597-2.07 2.866Zm0 4.3-1.582-1.314.609-.717.852.597L7.91 7.9l.852.597-2.07 2.866Zm0 4.11L5.109 14.16l.609-.717.852.598 1.34-2.03.852.597-2.07 2.865Z" fill="#72746F"></path></g><defs>
</defs>
</svg>