<svg viewBox="0 0 50 50" class="" role="presentation" focusable="false" xmlns:svg="http://www.w3.org/2000/svg" xmlns:xlink="http://www.w3.org/1999/xlink" id="FxSymbol0-0ea" data-type="1"><g><title></title><path d="M23 7.1h3V26h-3z" class="msportalfx-svg-c04" fill="#7a7a7a"></path><path d="M28.9 6.5c0 2.389-2.011 4.4-4.4 4.4s-4.4-2.011-4.4-4.4 2.011-4.4 4.4-4.4 4.4 2.011 4.4 4.4zm6.125 40.496a1.38 1.38 0 0 1-.984-.398 1.481 1.481 0 0 1 0-2.091l10.564-10.566a.856.856 0 0 0 .001-1.215L34.224 22.53a1.29 1.29 0 0 1-.469-.945c-.02-.41.149-.829.467-1.149a1.425 1.425 0 0 1 1.156-.432c.37 0 .722.154 1 .431l9.916 9.641 2.21 2.209c.447.558.604 1.487 0 2.093l-2.389 2.389-9.923 9.831a1.456 1.456 0 0 1-1.014.402h.003l-.156-.004zm-21.196 0a1.45 1.45 0 0 1-1.012-.398L2.712 36.861.495 34.364c-.596-.594-.45-1.499-.012-2.052l2.229-2.232 9.924-9.648a1.417 1.417 0 0 1 1.151-.428c.367 0 .717.154.998.431.317.318.487.737.469 1.149a1.34 1.34 0 0 1-.49.965L4.589 32.726a.853.853 0 0 0-.001 1.215l10.384 10.564a1.487 1.487 0 0 1-.001 2.091c-.261.26-.611.403-.987.404l-.155-.004z" class="msportalfx-svg-c16" fill="#3999c6"></path><path d="M23.9 25h-4.8a5.996 5.996 0 1 0-.933 11.92A6.977 6.977 0 0 1 18.1 36c0-.448.046-.886.127-1.311A3.8 3.8 0 0 1 15.3 31c0-2.096 1.704-3.8 3.8-3.8h4.8c2.096 0 3.8 1.704 3.8 3.8s-1.704 3.8-3.8 3.8h-1.32c-.174.365-.28.769-.28 1.2 0 .353.073.688.193 1H23.9a6 6 0 1 0 0-12z" class="msportalfx-svg-c19" fill="#0072c6"></path><path d="M30.833 30.08c.04.302.068.608.068.92 0 .448-.046.886-.127 1.311A3.8 3.8 0 0 1 33.7 36c0 2.096-1.704 3.8-3.8 3.8h-4.8c-2.096 0-3.8-1.704-3.8-3.8s1.704-3.8 3.8-3.8h1.32c.175-.365.281-.769.281-1.2 0-.353-.073-.688-.193-1h-1.407a6 6 0 1 0 0 12h4.8a6 6 0 0 0 6-6 5.997 5.997 0 0 0-5.068-5.92z" class="msportalfx-svg-c19" fill="#0072c6"></path></g><defs>
<linearGradient id="a" x1="9" y1="16.39" x2="9" y2="-1.94" gradientUnits="userSpaceOnUse"><stop offset="0" stop-color="#0078d4"></stop><stop offset=".16" stop-color="#1380da"></stop><stop offset=".53" stop-color="#3c91e5"></stop><stop offset=".82" stop-color="#559cec"></stop><stop offset="1" stop-color="#5ea0ef"></stop></linearGradient>
<linearGradient id="b" x1="9.88" y1="7.11" x2="9.99" y2="17.27" gradientUnits="userSpaceOnUse"><stop offset="0" stop-color="#32d4f5"></stop><stop offset=".32" stop-color="#31d1f3"></stop><stop offset=".53" stop-color="#2ec9eb"></stop><stop offset=".7" stop-color="#29bade"></stop><stop offset=".86" stop-color="#22a5cb"></stop><stop offset="1" stop-color="#198ab3"></stop><stop offset="1" stop-color="#198ab3"></stop></linearGradient>
<radialGradient id="c" cx="9.43" cy="7.03" r="7.27" gradientUnits="userSpaceOnUse"><stop offset="0" stop-color="#f2f2f2"></stop><stop offset=".58" stop-color="#eee"></stop><stop offset="1" stop-color="#e6e6e6"></stop></radialGradient>
</defs>
</svg>