<svg viewBox="0 0 18 18" class="" role="presentation" focusable="false" xmlns="http://www.w3.org/2000/svg" xmlns:xlink="http://www.w3.org/1999/xlink" id="FxSymbol0-170" data-type="1"><g><path d="M8.588 6.076h-1.8a2.246 2.246 0 0 0-.348 4.461 2.409 2.409 0 0 1 .026-.837 1.418 1.418 0 0 1 .326-2.8h1.8a1.422 1.422 0 0 1 0 2.844h-.498a1.07 1.07 0 0 0-.1.449 1.018 1.018 0 0 0 .071.374h.527a2.246 2.246 0 1 0 0-4.491Z" fill="url(#59616712-f700-4139-92c6-bd98d17f0335)"></path><path d="M11.182 7.977a2.644 2.644 0 0 1 .026.345 2.308 2.308 0 0 1-.049.49 1.418 1.418 0 0 1-.325 2.8h-1.8a1.422 1.422 0 0 1 0-2.844h.494a1.045 1.045 0 0 0 .1-.449 1.028 1.028 0 0 0-.071-.375h-.52a2.246 2.246 0 0 0 0 4.491h1.8a2.246 2.246 0 0 0 .348-4.461Z" fill="url(#59616712-f700-4139-92c6-bd98d17f0336)"></path><path d="m5.58 13.381-.412.416a.282.282 0 0 1-.4 0L.164 9.2a.566.566 0 0 1 0-.8l.416-.408 5 4.993a.276.276 0 0 1 0 .391Z" fill="#50e6ff"></path><path d="m5.082 3.876.46.46a.282.282 0 0 1 0 .4L.625 9.665l-.461-.456a.566.566 0 0 1 0-.8l4.521-4.533a.282.282 0 0 1 .397 0Z" fill="#1490df"></path><path d="M12.417 13.707a.276.276 0 0 1-.006-.391h.006l5-4.988.416.415a.566.566 0 0 1 0 .8l-4.611 4.588a.276.276 0 0 1-.391.006l-.006-.005Z" fill="#50e6ff"></path><path d="m13.311 4.205 4.525 4.536a.563.563 0 0 1 0 .793l-.461.46-4.921-4.932a.287.287 0 0 1 0-.4l.46-.457a.282.282 0 0 1 .397 0Z" fill="#1490df"></path></g><defs>
<linearGradient id="59616712-f700-4139-92c6-bd98d17f0335" x1="7.699" y1="956.076" x2="7.699" y2="960.567" gradientTransform="translate(0 -950)" gradientUnits="userSpaceOnUse"><stop offset=".23" stop-color="#5ea0ef"></stop><stop offset=".32" stop-color="#5b9fee"></stop><stop offset=".48" stop-color="#509aeb"></stop><stop offset=".57" stop-color="#3f92e6"></stop><stop offset=".75" stop-color="#2688df"></stop><stop offset=".93" stop-color="#127fd9"></stop></linearGradient>
<linearGradient id="59616712-f700-4139-92c6-bd98d17f0336" x1="9.927" y1="957.947" x2="9.927" y2="962.438" gradientTransform="translate(0 -950)" gradientUnits="userSpaceOnUse"><stop offset=".02" stop-color="#5ea0ef"></stop><stop offset=".14" stop-color="#5b9fee"></stop><stop offset=".23" stop-color="#5b9fee"></stop><stop offset=".34" stop-color="#509aeb"></stop><stop offset=".44" stop-color="#3f92e6"></stop><stop offset=".63" stop-color="#2688df"></stop><stop offset=".93" stop-color="#127fd9"></stop></linearGradient>
</defs>
</svg>