<svg viewBox="0 0 50 50" class="" role="presentation" focusable="false" xmlns="http://www.w3.org/2000/svg" xmlns:xlink="http://www.w3.org/1999/xlink" id="FxSymbol0-16f" data-type="1"><g><title></title><path d="M24 7.1h3v26.8h-3z" class="msportalfx-svg-c04" fill="#7a7a7a"></path><path d="M30.9 33.5c0 2.931-2.469 5.4-5.4 5.4s-5.4-2.469-5.4-5.4 2.469-5.4 5.4-5.4 5.4 2.469 5.4 5.4z" class="msportalfx-svg-c14" fill="#57a300"></path><path d="M29.9 6.5c0 2.389-2.011 4.4-4.4 4.4s-4.4-2.011-4.4-4.4 2.011-4.4 4.4-4.4 4.4 2.011 4.4 4.4zm6.125 40.496a1.38 1.38 0 0 1-.984-.398 1.481 1.481 0 0 1 0-2.091l10.564-10.566a.856.856 0 0 0 .001-1.215L35.224 22.53a1.29 1.29 0 0 1-.469-.945c-.02-.41.149-.829.467-1.149a1.425 1.425 0 0 1 1.156-.432c.37 0 .722.154 1 .431l9.916 9.641 2.21 2.209c.447.558.604 1.487 0 2.093l-2.389 2.389-9.923 9.831a1.456 1.456 0 0 1-1.014.402h.003l-.156-.004zm-21.196 0a1.45 1.45 0 0 1-1.012-.398L3.712 36.861l-2.217-2.497c-.596-.594-.45-1.499-.012-2.052l2.229-2.232 9.924-9.648a1.417 1.417 0 0 1 1.151-.428c.367 0 .717.154.998.431.317.318.487.737.469 1.149a1.34 1.34 0 0 1-.49.965L5.589 32.726a.853.853 0 0 0-.001 1.215l10.384 10.564a1.487 1.487 0 0 1-.001 2.091c-.261.26-.611.403-.987.404l-.155-.004z" class="msportalfx-svg-c16" fill="#3999c6"></path></g><defs>
</defs>
</svg>