<svg viewBox="0 0 50 50" class="fxs-portal-svg" role="presentation" focusable="false" xmlns:svg="http://www.w3.org/2000/svg" xmlns:xlink="http://www.w3.org/1999/xlink" id="FxSymbol0-067" data-type="14"><g><title></title><path d="M4 0h10.003v50H4z" class="msportalfx-svg-c02" fill="#e5e5e5"></path><path d="M6 2h5.941v46H6z" class="msportalfx-svg-c15" fill="#59b4d9"></path><path opacity=".6" d="M6 20h6.003v28H6z" class="msportalfx-svg-c01" fill="#ffffff"></path><path d="M4 18h9.999v4H4z" class="msportalfx-svg-c04" fill="#7a7a7a"></path><path opacity=".7" d="M4.001 18h10v2h-10z" class="msportalfx-svg-c01" fill="#ffffff"></path><path d="M20 0h10.003v50H20z" class="msportalfx-svg-c02" fill="#e5e5e5"></path><path d="M22 2h5.941v46H22z" class="msportalfx-svg-c15" fill="#59b4d9"></path><path opacity=".6" d="M22.005 36h6.003v12h-6.003z" class="msportalfx-svg-c01" fill="#ffffff"></path><path d="M20 34h9.999v4H20z" class="msportalfx-svg-c04" fill="#7a7a7a"></path><path opacity=".7" d="M20.001 34h10v2h-10z" class="msportalfx-svg-c01" fill="#ffffff"></path><path d="M36 0h10.003v50H36z" class="msportalfx-svg-c02" fill="#e5e5e5"></path><path d="M38 2h5.941v46H38z" class="msportalfx-svg-c15" fill="#59b4d9"></path><path opacity=".6" d="M38 20h6.003v28H38z" class="msportalfx-svg-c01" fill="#ffffff"></path><path d="M36 18h9.999v4H36z" class="msportalfx-svg-c04" fill="#7a7a7a"></path><path opacity=".7" d="M36.001 18h10v2h-10z" class="msportalfx-svg-c01" fill="#ffffff"></path><path opacity=".2" d="M4.001 22h10v2h-10zm31.969 0h10v2h-10zM20.007 38h10v2h-10z" class="msportalfx-svg-c06" fill="#1e1e1e"></path></g><defs>
<linearGradient id="a" x1="-1267.23" y1="3.07" x2="-1267.52" y2="14.64" gradientTransform="matrix(-1 0 0 1 -1256.13 0)" gradientUnits="userSpaceOnUse"><stop offset="0" stop-color="#32d4f5"></stop><stop offset=".23" stop-color="#31d0f1"></stop><stop offset=".46" stop-color="#2cc3e6"></stop><stop offset=".7" stop-color="#25afd4"></stop><stop offset=".94" stop-color="#1c92ba"></stop><stop offset="1" stop-color="#198ab3"></stop></linearGradient>
<linearGradient id="b" x1="6.05" y1="11.51" x2="6.05" y2="3" gradientUnits="userSpaceOnUse"><stop offset="0" stop-color="#0078d4"></stop><stop offset=".82" stop-color="#5ea0ef"></stop></linearGradient>
<linearGradient id="c" x1="10.51" y1="6.82" x2="7.93" y2="10.5" gradientUnits="userSpaceOnUse"><stop offset="0" stop-color="#005ba1"></stop><stop offset=".14" stop-color="#035da3" stop-opacity=".97"></stop><stop offset=".3" stop-color="#0b63aa" stop-opacity=".88"></stop><stop offset=".47" stop-color="#196eb6" stop-opacity=".73"></stop><stop offset=".65" stop-color="#2d7cc6" stop-opacity=".52"></stop><stop offset=".84" stop-color="#468edb" stop-opacity=".26"></stop><stop offset="1" stop-color="#5ea0ef" stop-opacity="0"></stop></linearGradient>
</defs>
</svg>