<svg viewBox="0 0 50 50" class="" role="presentation" focusable="false" xmlns="http://www.w3.org/2000/svg" xmlns:xlink="http://www.w3.org/1999/xlink" id="FxSymbol0-1a6" data-type="1"><g><title></title><path d="M29.364 47.462A2.538 2.538 0 0 1 26.826 50H2.538A2.538 2.538 0 0 1 0 47.462V2.538A2.538 2.538 0 0 1 2.538 0h24.288a2.538 2.538 0 0 1 2.538 2.538v44.924z" class="msportalfx-svg-c03" fill="#a0a1a2"></path><path d="M4.316 27.024a3.191 3.191 0 0 1 3.191-3.191h14.614a3.191 3.191 0 0 1 0 6.382H7.507a3.19 3.19 0 0 1-3.191-3.191z" class="msportalfx-svg-c06" fill="#1e1e1e"></path><circle cx="7.643" cy="27.024" r="2.142" class="msportalfx-svg-c15" fill="#59b4d9"></circle><path d="M4.316 17.545a3.191 3.191 0 0 1 3.191-3.191h14.614a3.191 3.191 0 0 1 0 6.382H7.507a3.191 3.191 0 0 1-3.191-3.191z" class="msportalfx-svg-c06" fill="#1e1e1e"></path><circle cx="7.643" cy="17.545" r="2.142" class="msportalfx-svg-c15" fill="#59b4d9"></circle><path d="M4.316 8.065a3.191 3.191 0 0 1 3.191-3.191h14.614a3.191 3.191 0 0 1 0 6.382H7.507a3.19 3.19 0 0 1-3.191-3.191z" class="msportalfx-svg-c06" fill="#1e1e1e"></path><circle cx="7.643" cy="8.065" r="2.142" class="msportalfx-svg-c15" fill="#59b4d9"></circle><path d="M49.949 45.373c0-2.555-2.051-4.626-4.585-4.626-.191 0-.379.015-.559.04.28-1.039.434-2.132.434-3.261 0-6.81-5.475-12.331-12.227-12.331-5.395 0-9.969 3.523-11.594 8.413a8.206 8.206 0 0 0-2.73-.471c-4.619 0-8.357 3.775-8.357 8.43 0 4.658 3.738 8.433 8.357 8.433l.012-.003V50h27.036l-.005-.023c2.359-.186 4.218-2.173 4.218-4.604" class="msportalfx-svg-c13" fill="#b8d432"></path><path opacity=".2" d="M23.128 50a8.447 8.447 0 0 1-2.29-4.123c-1.036-4.538 1.768-9.051 6.271-10.079a8.207 8.207 0 0 1 2.766-.149c.409-4.24 2.995-8.011 6.848-9.872a12.117 12.117 0 0 0-3.712-.583c-5.395 0-9.969 3.523-11.594 8.413a8.201 8.201 0 0 0-2.73-.471c-4.619 0-8.357 3.775-8.357 8.43 0 4.658 3.738 8.433 8.357 8.433l.012-.003V50h4.429z" class="msportalfx-svg-c01" fill="#ffffff"></path></g><defs>
</defs>
</svg>