<svg viewBox="0 0 18 18" data-islogo="true" class="" role="presentation" focusable="false" xmlns:svg="http://www.w3.org/2000/svg" xmlns:xlink="http://www.w3.org/1999/xlink" id="FxSymbol0-04a" data-type="1"><g><title></title><title>ProximityPlacementGroups</title><path d="M0 15.59a.16.16 0 0 0 .09.15l1.22.71 2.07 1.2a.18.18 0 0 0 .24-.06l.69-1.22a.16.16 0 0 0-.06-.23l-2.43-1.41a.18.18 0 0 1-.08-.15V3.42a.18.18 0 0 1 .08-.15l2.43-1.41a.16.16 0 0 0 .06-.23L3.62.41a.18.18 0 0 0-.24-.06l-2 1.18-1.29.73a.16.16 0 0 0-.09.15v13.18z" fill="#949494"></path><path d="M4.31 1.63L3.62.41a.18.18 0 0 0-.18-.08.11.11 0 0 0-.08 0l-2 1.18-1.3.75-.06.06a.24.24 0 0 0 0 .08l1.74 1a.18.18 0 0 1 .08-.15l2.43-1.39a.16.16 0 0 0 .06-.23zm0 14.74l-.69 1.22a.18.18 0 0 1-.18.08.11.11 0 0 1-.08 0l-2-1.18-1.3-.75-.06-.06a.24.24 0 0 1 0-.08l1.74-1a.18.18 0 0 0 .08.15l2.43 1.41a.16.16 0 0 1 .06.21z" fill="#a3a3a3"></path><path d="M18 2.41a.16.16 0 0 0-.09-.15l-1.22-.71-2.07-1.2a.18.18 0 0 0-.24.06l-.69 1.22a.16.16 0 0 0 .06.23l2.43 1.41a.18.18 0 0 1 .08.15v11.16a.18.18 0 0 1-.08.15l-2.43 1.41a.16.16 0 0 0-.06.23l.69 1.22a.18.18 0 0 0 .24.06l2-1.18 1.26-.73a.16.16 0 0 0 .09-.15V2.41z" fill="#949494"></path><path d="M13.69 16.37l.69 1.22a.18.18 0 0 0 .18.08.11.11 0 0 0 .08 0l2-1.18 1.26-.73.06-.06a.24.24 0 0 0 0-.08l-1.74-1a.18.18 0 0 1-.08.15l-2.43 1.41a.16.16 0 0 0-.02.19zm0-14.74l.69-1.22a.18.18 0 0 1 .18-.08.11.11 0 0 1 .08 0l2 1.18 1.26.73.06.06a.24.24 0 0 1 0 .08l-1.74 1a.18.18 0 0 0-.08-.15l-2.39-1.37a.16.16 0 0 1-.06-.23z" fill="#a3a3a3"></path><path d="M8.52 12.91a.3.3 0 0 1-.31.29H3.37a.3.3 0 0 1-.32-.29V5.06a.3.3 0 0 1 .32-.29h4.84a.3.3 0 0 1 .31.29z" fill="#999"></path><path d="M3.86 8.37a.62.62 0 0 1 .59-.65h2.72a.63.63 0 0 1 .6.65.63.63 0 0 1-.6.66H4.45a.62.62 0 0 1-.59-.66zm0-1.94a.63.63 0 0 1 .59-.66h2.72a.64.64 0 0 1 .6.66.63.63 0 0 1-.6.65H4.45a.62.62 0 0 1-.59-.65z" fill="#003067"></path><circle cx="4.62" cy="6.43" r=".44" fill="#50e6ff"></circle><circle cx="4.62" cy="8.37" r=".44" fill="#50e6ff"></circle><path d="M15.08 12.91a.3.3 0 0 1-.32.29H9.93a.3.3 0 0 1-.32-.29V5.06a.3.3 0 0 1 .32-.29h4.83a.3.3 0 0 1 .32.29z" fill="#999"></path><path d="M10.41 8.37a.63.63 0 0 1 .6-.65h2.72a.63.63 0 0 1 .6.65.63.63 0 0 1-.6.66H11a.63.63 0 0 1-.6-.66zm0-1.94a.64.64 0 0 1 .6-.66h2.72a.64.64 0 0 1 .6.66.63.63 0 0 1-.6.65H11a.63.63 0 0 1-.6-.65z" fill="#003067"></path><circle cx="11.18" cy="6.43" r=".44" fill="#50e6ff"></circle><circle cx="11.18" cy="8.37" r=".44" fill="#50e6ff"></circle></g><defs>
</defs>
</svg>