<svg viewBox="0 0 18 18" data-islogo="true" class="" role="presentation" focusable="false" xmlns:svg="http://www.w3.org/2000/svg" xmlns:xlink="http://www.w3.org/1999/xlink" id="FxSymbol0-057" data-type="1"><g><title>Lighthouse-GS-networking-372</title><path d="M0 4.16h10.11V9.8a.34.34 0 0 1-.34.34H.34A.34.34 0 0 1 0 9.8V4.16z" fill="url(#b6125be5-5e46-486d-bdee-ef1ac2eafdaa)"></path><path d="M.34 2h9.43a.34.34 0 0 1 .34.34v1.82H0V2.34A.34.34 0 0 1 .34 2z" fill="#767676"></path><rect x="1.36" y="2.65" width="7.39" height=".87" rx=".17" fill="#f2f2f2"></rect><path d="M3.94 7.08h10.12v5.64a.34.34 0 0 1-.34.34H4.28a.34.34 0 0 1-.34-.34z" fill="url(#adf1cfb9-1a2a-44ee-aac6-05ac5cdb186f)"></path><path d="M4.28 4.93h9.43a.34.34 0 0 1 .34.34v1.81H3.95V5.27a.34.34 0 0 1 .33-.34z" fill="#767676"></path><rect x="5.3" y="5.58" width="7.39" height=".87" rx=".17" fill="#f2f2f2"></rect><path d="M7.89 10.02H18v5.64a.34.34 0 0 1-.34.34H8.23a.34.34 0 0 1-.34-.34z" fill="url(#f0461ac7-cb08-44b4-94c6-8fe04f936f9b)"></path><path d="M8.23 7.86h9.43a.34.34 0 0 1 .34.34v1.82H7.89V8.2a.34.34 0 0 1 .34-.34z" fill="#767676"></path><g fill="#f2f2f2"><circle cx="15.22" cy="12.64" r=".82"></circle><circle cx="12.98" cy="12.64" r=".82"></circle><circle cx="10.67" cy="12.64" r=".82"></circle></g><rect x="9.25" y="8.51" width="7.39" height=".87" rx=".17" fill="#f2f2f2"></rect></g><defs>
<linearGradient id="b6125be5-5e46-486d-bdee-ef1ac2eafdaa" x1="5.055" y1="-1401.772" x2="5.055" y2="-1395.802" gradientTransform="matrix(1 0 0 -1 0 -1391.642)" gradientUnits="userSpaceOnUse"><stop offset="0" stop-color="#32bedd"></stop><stop offset=".18" stop-color="#32caea"></stop><stop offset=".41" stop-color="#32d2f2"></stop><stop offset=".78" stop-color="#32d4f5"></stop></linearGradient>
<linearGradient id="adf1cfb9-1a2a-44ee-aac6-05ac5cdb186f" x1="9" y1="-1404.702" x2="9" y2="-1398.732"><stop offset="0" stop-color="#32bedd"></stop><stop offset=".18" stop-color="#32caea"></stop><stop offset=".41" stop-color="#32d2f2"></stop><stop offset=".78" stop-color="#32d4f5"></stop></linearGradient>
<linearGradient id="f0461ac7-cb08-44b4-94c6-8fe04f936f9b" x1="12.945" y1="-1407.632" x2="12.945" y2="-1401.662"><stop offset="0" stop-color="#32bedd"></stop><stop offset=".18" stop-color="#32caea"></stop><stop offset=".41" stop-color="#32d2f2"></stop><stop offset=".78" stop-color="#32d4f5"></stop></linearGradient>
</defs>
</svg>