<svg viewBox="0 0 46 46" class="" role="presentation" focusable="false" xmlns="http://www.w3.org/2000/svg" xmlns:xlink="http://www.w3.org/1999/xlink" id="FxSymbol0-228" data-type="1"><g><title></title><path d="M22.834 0C11.157 0 11.886 5.064 11.886 5.064l.013 5.246h11.144v1.575H7.473S0 11.038 0 22.82c0 11.783 6.522 11.365 6.522 11.365H9.9v-5.468s.305-6.718 6.933-6.718h11.053s6.21.297 6.21-5.805V6.105S35.038 0 22.834 0zM16.69 3.528c1.109 0 2.005.896 2.005 2.005s-.896 2.005-2.005 2.005-2.005-.896-2.005-2.005.896-2.005 2.005-2.005z" class="msportalfx-svg-c19" fill="#0072c6"></path><path d="M23.166 46c11.678 0 10.948-5.064 10.948-5.064l-.013-5.246H22.958v-1.575h15.57s7.473.847 7.473-10.935-6.522-11.365-6.522-11.365H36.1v5.468s-.305 6.718-6.933 6.718H18.114s-6.21-.297-6.21 5.805v10.089S10.962 46 23.166 46zm6.144-3.528a2.003 2.003 0 0 1-2.005-2.005c0-1.109.896-2.005 2.005-2.005s2.005.896 2.005 2.005a2.003 2.003 0 0 1-2.005 2.005z" class="msportalfx-svg-c11" fill="#fcd116"></path></g><defs>
</defs>
</svg>