<svg viewBox="-0.5 0.5 50 50" class="" role="presentation" focusable="false" xmlns="http://www.w3.org/2000/svg" xmlns:xlink="http://www.w3.org/1999/xlink" id="FxSymbol0-1d3" data-type="384"><g><title></title><path d="M42.63 22.172c.249-.976.386-1.985.386-3.006 0-4.03-1.973-7.582-5.021-9.731l-4.781 8.054c-.196.303-.045.555.32.555l6.134-.039c.353-.012.442.208.205.472L24.041 36.535c-.234.27-.329.226-.187-.104l4.997-12.202c.116-.323-.05-.591-.41-.591h-4.864c-.347 0-.537-.252-.401-.599l5.825-15.541c-3.935.742-7.17 3.448-8.677 7.054a8.316 8.316 0 0 0-6.359-2.959c-4.597 0-8.342 3.76-8.342 8.404 0 .813.116 1.57.32 2.297a9.924 9.924 0 0 0-6.443 9.3c0 5.463 4.398 9.906 9.831 9.906h30.334c5.448 0 9.834-4.436 9.834-9.906a9.837 9.837 0 0 0-6.869-9.422z" class="msportalfx-svg-c15" fill="#59b4d9"></path></g><defs>
</defs>
</svg>