<svg viewBox="0 0 160 160" class="" role="presentation" focusable="false" xmlns:svg="http://www.w3.org/2000/svg" xmlns:xlink="http://www.w3.org/1999/xlink" id="FxSymbol0-055" data-type="1"><g><title></title><path d="M38.486 91.852S21.864 79.338 9.737 82.998c3.359-12.04 20.081-25.685 35.156-28.363 17.704 2.027 20.81 5.133 20.81 5.133L38.486 91.852z" class="msportalfx-svg-c10" fill="#ff8c00"></path><path d="M68.778 122.144l32.084-27.217s3.107 3.107 5.133 20.81c-2.678 15.075-16.323 31.797-28.363 35.156 3.659-12.127-8.854-28.749-8.854-28.749z" class="msportalfx-svg-c09" fill="#dd5900"></path><path d="M153.597 5.923S82.605 20.996 37.655 90.799l31.066 31.066c69.803-44.95 84.876-115.942 84.876-115.942z" class="msportalfx-svg-c11" fill="#fcd116"></path><path d="M153.597 5.923S82.605 20.996 37.655 90.799l31.066 31.066c69.803-44.95 84.876-115.942 84.876-115.942z" opacity=".2" class="msportalfx-svg-c10" fill="#ff8c00"></path><path d="M153.597 5.923L53.188 106.332l15.533 15.533c69.803-44.95 84.877-115.942 84.876-115.942z" class="msportalfx-svg-c09" fill="#dd5900"></path><path d="M41.562 94.702c34.994-52.092 83.884-73.267 102.261-79.005-5.738 18.377-26.913 67.267-79.005 102.261L41.562 94.702z" class="msportalfx-svg-c10" fill="#ff8c00"></path><path d="M153.597 5.923s-17.748 3.768-41.115 16.262l24.852 24.852c12.495-23.366 16.263-41.114 16.263-41.114z" class="msportalfx-svg-c19" fill="#0072c6"></path><path d="M6.521 153s.027-37.306 31.134-62.2l31.066 31.066C43.827 152.973 6.521 153 6.521 153z" class="msportalfx-svg-c10" fill="#ff8c00"></path><path d="M17.045 142.488c.893-8.805 6.502-30.02 24.951-47.346l22.386 22.386c-17.381 18.521-38.544 24.091-47.337 24.96z" class="msportalfx-svg-c11" fill="#fcd116"></path><path d="M28.052 131.484c1.852-8.635 6.831-21.663 17.107-33.183l16.072 16.072c-12.971 11.649-26.85 15.763-33.179 17.111z" opacity=".6" class="msportalfx-svg-c01" fill="#ffffff"></path><ellipse cx="99.855" cy="59.664" rx="16" ry="16" class="msportalfx-svg-c01" fill="#ffffff"></ellipse><ellipse cx="99.852" cy="59.66" rx="11.98" ry="11.98" class="msportalfx-svg-c11" fill="#fcd116"></ellipse><path d="M110.712 54.597c2.796 5.997.202 13.125-5.795 15.921s-13.125.202-15.921-5.795l21.716-10.126z" opacity=".4" class="msportalfx-svg-c10" fill="#ff8c00"></path><path d="M47.559 118.23c-3.602 3.602-11.102 4.898-11.102 4.898s1.584-7.918 4.833-11.167l30.077-30.077 6.269 6.269-30.077 30.077z" class="msportalfx-svg-c09" fill="#dd5900"></path></g><defs>
<linearGradient id="a" x1="9" y1="16.39" x2="9" y2="-1.94" gradientUnits="userSpaceOnUse"><stop offset="0" stop-color="#0078d4"></stop><stop offset=".16" stop-color="#1380da"></stop><stop offset=".53" stop-color="#3c91e5"></stop><stop offset=".82" stop-color="#559cec"></stop><stop offset="1" stop-color="#5ea0ef"></stop></linearGradient>
<linearGradient id="b" x1="9.88" y1="7.11" x2="9.99" y2="17.27" gradientUnits="userSpaceOnUse"><stop offset="0" stop-color="#32d4f5"></stop><stop offset=".32" stop-color="#31d1f3"></stop><stop offset=".53" stop-color="#2ec9eb"></stop><stop offset=".7" stop-color="#29bade"></stop><stop offset=".86" stop-color="#22a5cb"></stop><stop offset="1" stop-color="#198ab3"></stop><stop offset="1" stop-color="#198ab3"></stop></linearGradient>
<radialGradient id="c" cx="9.43" cy="7.03" r="7.27" gradientUnits="userSpaceOnUse"><stop offset="0" stop-color="#f2f2f2"></stop><stop offset=".58" stop-color="#eee"></stop><stop offset="1" stop-color="#e6e6e6"></stop></radialGradient>
</defs>
</svg>