<svg viewBox="0 0 18 18" data-islogo="true" class="" role="presentation" focusable="false" xmlns:svg="http://www.w3.org/2000/svg" xmlns:xlink="http://www.w3.org/1999/xlink" id="FxSymbol0-025" data-type="195"><g><circle cx="8.882" cy="9.09" r="8.5" fill="url(#c221dec4-92a3-42a2-a549-877cb46903a9)"></circle><circle cx="8.916" cy="9.09" r="7.401" class="msportalfx-svg-c01" fill="#ffffff"></circle><path d="M12.354 5.353l.896-.897.29.29-.897.896zm1.576 3.524h1.268v.409H13.93zm-1.634 3.876l.289-.29.896.897-.289.29zM8.71 14.077h.409v1.268H8.71zM4.249 4.704l.289-.29.897.897-.29.29zm.061 8.693l.896-.897.29.29-.897.896zm-1.757-4.52h1.268v.409H2.553zm9.419 2.483L9.821 9.209a.518.518 0 0 0-.351-.148.507.507 0 0 0 .065-.238V3.348a.522.522 0 0 0-.52-.521h-.1a.522.522 0 0 0-.521.521v5.475a.522.522 0 0 0 .521.521h.058a.514.514 0 0 0 .042.67l2.151 2.151a.521.521 0 0 0 .735 0l.07-.07a.521.521 0 0 0 .001-.735z" class="msportalfx-svg-c04" fill="#7a7a7a"></path><circle cx="8.921" cy="9.076" r="1.204" fill="url(#ef8fa756-659f-4ecf-bddd-2e62e962bc77)"></circle></g><defs>
<radialGradient id="c221dec4-92a3-42a2-a549-877cb46903a9" cx="-7.554" cy="17.423" r="9" gradientTransform="matrix(.944 0 0 .944 16.017 -7.365)" gradientUnits="userSpaceOnUse"><stop offset=".183" stop-color="#5ea0ef"></stop><stop offset=".555" stop-color="#5c9fee"></stop><stop offset=".689" stop-color="#559ced"></stop><stop offset=".785" stop-color="#4a97e9"></stop><stop offset=".862" stop-color="#3990e4"></stop><stop offset=".928" stop-color="#2387de"></stop><stop offset=".985" stop-color="#087bd6"></stop><stop offset="1" stop-color="#0078d4"></stop></radialGradient>
<radialGradient id="ef8fa756-659f-4ecf-bddd-2e62e962bc77" cx="-7.174" cy="18.501" r="1.259" gradientTransform="matrix(.943 0 0 .943 15.676 -8.345)" gradientUnits="userSpaceOnUse"><stop offset="0" stop-color="#7f7f7f"></stop><stop offset="1" stop-color="#5e5e5e"></stop></radialGradient>
<linearGradient id="a" x1="9" y1="16.39" x2="9" y2="-1.94" gradientUnits="userSpaceOnUse"><stop offset="0" stop-color="#0078d4"></stop><stop offset=".16" stop-color="#1380da"></stop><stop offset=".53" stop-color="#3c91e5"></stop><stop offset=".82" stop-color="#559cec"></stop><stop offset="1" stop-color="#5ea0ef"></stop></linearGradient>
<linearGradient id="b" x1="9.88" y1="7.11" x2="9.99" y2="17.27" gradientUnits="userSpaceOnUse"><stop offset="0" stop-color="#32d4f5"></stop><stop offset=".32" stop-color="#31d1f3"></stop><stop offset=".53" stop-color="#2ec9eb"></stop><stop offset=".7" stop-color="#29bade"></stop><stop offset=".86" stop-color="#22a5cb"></stop><stop offset="1" stop-color="#198ab3"></stop><stop offset="1" stop-color="#198ab3"></stop></linearGradient>
<radialGradient id="c" cx="9.43" cy="7.03" r="7.27" gradientUnits="userSpaceOnUse"><stop offset="0" stop-color="#f2f2f2"></stop><stop offset=".58" stop-color="#eee"></stop><stop offset="1" stop-color="#e6e6e6"></stop></radialGradient>
</defs>
</svg>