<svg viewBox="17 -17 50 50" class="fxs-portal-svg" role="presentation" focusable="false" xmlns:svg="http://www.w3.org/2000/svg" xmlns:xlink="http://www.w3.org/1999/xlink" id="FxSymbol0-18b" data-type="1"><g><title></title><path d="M59.78-2.597L24.775 32.408a2.122 2.122 0 0 1-3 0l-4.154-4.154a2.122 2.122 0 0 1 0-3L52.626-9.75a2.122 2.122 0 0 1 3 0l4.154 4.154a2.12 2.12 0 0 1 0 2.999z" class="msportalfx-svg-c16" fill="#3999c6"></path><path opacity=".6" d="M36.634 6.243l7.636-7.637 7.154 7.154-7.637 7.636z" class="msportalfx-svg-c19" fill="#0072c6"></path><path d="M45.818-16.443L66.473 4.212 52.846 17.838 32.191-2.817z" class="msportalfx-svg-c04" fill="#7a7a7a"></path><path d="M32.191-2.817l-.556-4.941L40.877-17l4.941.556zm34.282 7.029l.557 4.941-9.242 9.242-4.941-.557z" class="msportalfx-svg-c03" fill="#a0a1a2"></path></g><defs>
<linearGradient id="a" x1="-1267.23" y1="3.07" x2="-1267.52" y2="14.64" gradientTransform="matrix(-1 0 0 1 -1256.13 0)" gradientUnits="userSpaceOnUse"><stop offset="0" stop-color="#32d4f5"></stop><stop offset=".23" stop-color="#31d0f1"></stop><stop offset=".46" stop-color="#2cc3e6"></stop><stop offset=".7" stop-color="#25afd4"></stop><stop offset=".94" stop-color="#1c92ba"></stop><stop offset="1" stop-color="#198ab3"></stop></linearGradient>
<linearGradient id="b" x1="6.4" y1="1.32" x2="7.21" y2="11.39"><stop offset=".22" stop-color="#32d4f5"></stop><stop offset=".47" stop-color="#31d1f3"></stop><stop offset=".63" stop-color="#2ec9eb"></stop><stop offset=".77" stop-color="#29bade"></stop><stop offset=".89" stop-color="#22a5cb"></stop><stop offset="1" stop-color="#198ab3"></stop><stop offset="1" stop-color="#198ab3"></stop></linearGradient>
<linearGradient id="c" x1="13.76" y1="18.05" x2="13.76" y2="10.25" gradientUnits="userSpaceOnUse"><stop offset="0" stop-color="#76bc2d"></stop><stop offset=".6" stop-color="#81ce31"></stop><stop offset=".82" stop-color="#86d633"></stop></linearGradient>
</defs>
</svg>