<svg viewBox="0 0 18 18" class="" role="presentation" focusable="false" xmlns="http://www.w3.org/2000/svg" xmlns:xlink="http://www.w3.org/1999/xlink" id="FxSymbol0-1dc" data-type="1"><g><title></title><path d="M7.773 3.682 0 11.454v4.91C0 17.267.733 18 1.636 18h14.728c.903 0 1.636-.733 1.636-1.636V1.636C18 .733 17.267 0 16.364 0h-.819L9.819 5.727 7.773 3.682Z" fill="url(#94a115a1-5689-4c39-bee0-5c63fda4a78f)"></path><path d="M9.818 5.727 15.545 0H1.636C.733 0 0 .733 0 1.636v9.819l7.773-7.773 2.045 2.045Z" fill="#B198F2"></path><path fill-rule="evenodd" clip-rule="evenodd" d="M8.182 12a4.125 4.125 0 1 1 8.25 0 4.125 4.125 0 0 1-8.25 0Zm1.1-1.5a3.387 3.387 0 0 1 1.8-1.646c-.368.398-.66.97-.838 1.646h-.961Zm-.267.75a3.386 3.386 0 0 0 0 1.5h1.087a6.212 6.212 0 0 1 0-1.5H9.015Zm2.066 3.896A3.387 3.387 0 0 1 9.284 13.5h.961c.177.676.47 1.248.838 1.646Zm.278-.88a3.528 3.528 0 0 1-.335-.766h.908v1.386c-.183-.107-.382-.301-.573-.62Zm1.323.62c.183-.107.381-.301.573-.62a3.59 3.59 0 0 0 .335-.766h-.908v1.386Zm0-2.136h1.073a5.42 5.42 0 0 0 0-1.5h-1.073v1.5Zm0-2.25h.908a3.533 3.533 0 0 0-.335-.766c-.192-.319-.39-.513-.573-.62V10.5Zm-.75-1.386V10.5h-.908c.09-.29.205-.549.335-.766.191-.319.39-.513.573-.62Zm0 2.136v1.5h-1.074a5.436 5.436 0 0 1 0-1.5h1.074Zm1.6 3.896c.367-.398.66-.97.838-1.646h.961a3.387 3.387 0 0 1-1.799 1.646Zm.98-2.396h1.086a3.388 3.388 0 0 0 0-1.5h-1.086a6.212 6.212 0 0 1 0 1.5Zm.819-2.25h-.961c-.177-.676-.47-1.248-.838-1.646a3.387 3.387 0 0 1 1.799 1.646Z" class="msportalfx-svg-c01" fill="#ffffff"></path><defs></defs></g><defs>
<linearGradient id="94a115a1-5689-4c39-bee0-5c63fda4a78f" x1="18" y1="18" x2="-1.109" y2="16.733" gradientUnits="userSpaceOnUse"><stop stop-color="#6E44D4"></stop><stop offset="1" stop-color="#9E7FED"></stop></linearGradient>
</defs>
</svg>