<svg viewBox="0 0 50 50" class="fxs-portal-svg" role="presentation" focusable="false" xmlns:svg="http://www.w3.org/2000/svg" xmlns:xlink="http://www.w3.org/1999/xlink" id="FxSymbol0-073" data-type="1"><g><title></title><path d="M.5 45.1c0 1.1.9 2 2 2h46c1.1 0 2-.9 2-2V13.8H.5v31.3z" class="msportalfx-svg-c15" fill="#59b4d9"></path><path d="M48.5 4.5h-46c-1.1 0-2 .9-2 2v10.6h50V6.5c0-1.1-.9-2-2-2" class="msportalfx-svg-c19" fill="#0072c6"></path><path d="M13.4 9.3h33.7v3.9H13.4z" class="msportalfx-svg-c01" fill="#ffffff"></path><path d="M11.8 11.2c0 2.7-2.2 4.9-4.9 4.9S2 13.9 2 11.2s2.2-4.9 4.9-4.9 4.9 2.2 4.9 4.9" class="msportalfx-svg-c15" fill="#59b4d9"></path><path d="M6.4 11.7l2.2 2.4H7.4l-2.9-2.8 2.9-2.9h1.2l-2.2 2.4h5.4v.9z" class="msportalfx-svg-c01" fill="#ffffff"></path><path d="M17.9 36.6c0 .6-.2 1-.6 1.4s-.9.5-1.6.5c-.6 0-1.1-.2-1.5-.6s-.6-.8-.6-1.4c0-.6.2-1 .6-1.4s.9-.5 1.6-.5c.6 0 1.1.2 1.5.6s.6.8.6 1.4zm8.9 0c0 .6-.2 1-.6 1.4s-.9.5-1.6.5c-.6 0-1.1-.2-1.5-.6s-.6-.8-.6-1.4c0-.6.2-1 .6-1.4s.9-.5 1.6-.5c.6 0 1.1.2 1.5.6s.6.8.6 1.4zm8.9 0c0 .6-.2 1-.6 1.4s-.9.5-1.6.5c-.6 0-1.1-.2-1.5-.6s-.6-.8-.6-1.4c0-.6.2-1 .6-1.4.4-.4.9-.5 1.6-.5.6 0 1.1.2 1.5.6s.6.8.6 1.4z" class="msportalfx-svg-c19" fill="#0072c6"></path></g><defs>
<linearGradient id="a" x1="9" y1="16.39" x2="9" y2="-1.94" gradientUnits="userSpaceOnUse"><stop offset="0" stop-color="#0078d4"></stop><stop offset=".16" stop-color="#1380da"></stop><stop offset=".53" stop-color="#3c91e5"></stop><stop offset=".82" stop-color="#559cec"></stop><stop offset="1" stop-color="#5ea0ef"></stop></linearGradient>
<linearGradient id="b" x1="9.88" y1="7.11" x2="9.99" y2="17.27" gradientUnits="userSpaceOnUse"><stop offset="0" stop-color="#32d4f5"></stop><stop offset=".32" stop-color="#31d1f3"></stop><stop offset=".53" stop-color="#2ec9eb"></stop><stop offset=".7" stop-color="#29bade"></stop><stop offset=".86" stop-color="#22a5cb"></stop><stop offset="1" stop-color="#198ab3"></stop><stop offset="1" stop-color="#198ab3"></stop></linearGradient>
<radialGradient id="c" cx="9.43" cy="7.03" r="7.27" gradientUnits="userSpaceOnUse"><stop offset="0" stop-color="#f2f2f2"></stop><stop offset=".58" stop-color="#eee"></stop><stop offset="1" stop-color="#e6e6e6"></stop></radialGradient>
</defs>
</svg>