<svg viewBox="0 0 50 50" class="fxs-portal-svg" role="presentation" focusable="false" xmlns:svg="http://www.w3.org/2000/svg" xmlns:xlink="http://www.w3.org/1999/xlink" id="FxSymbol0-108" data-type="24"><g><title></title><path d="M48.065 11.912V7.935H21.897L15.963 2H0v43.708c0 1.31 1.06 2.371 2.37 2.372h45.258a2.372 2.372 0 0 0 2.371-2.372V11.912h-1.934z" class="msportalfx-svg-c12" fill="#fee087"></path><path d="M26.176 27.945a.32.32 0 0 1-.155-.044l-10.175-5.873a.309.309 0 0 1 0-.533l10.112-5.835a.314.314 0 0 1 .306 0l10.178 5.876a.305.305 0 0 1 .152.265.307.307 0 0 1-.152.267l-10.111 5.833a.303.303 0 0 1-.155.044" class="msportalfx-svg-c09" fill="#dd5900"></path><path d="M24.714 42.221a.292.292 0 0 1-.155-.041l-10.144-5.855a.302.302 0 0 1-.156-.267V24.309a.31.31 0 0 1 .156-.269.322.322 0 0 1 .31 0l10.143 5.855a.32.32 0 0 1 .15.268v11.75c0 .113-.06.211-.15.267a.318.318 0 0 1-.154.041" class="msportalfx-svg-c10" fill="#ff8c00"></path><path opacity=".5" d="M27.585 42.221a.315.315 0 0 1-.157-.041.309.309 0 0 1-.152-.267V30.239c0-.11.059-.211.152-.268l10.141-5.853a.31.31 0 0 1 .462.266v11.674a.306.306 0 0 1-.156.267l-10.14 5.855a.275.275 0 0 1-.15.041" class="msportalfx-svg-c10" fill="#ff8c00"></path><path opacity=".2" d="M4.742 11.912v33.796a2.372 2.372 0 1 1-4.742 0V2h15.963l5.934 5.935h26.168v3.977H4.742z" class="msportalfx-svg-c06" fill="#1e1e1e"></path></g><defs>
<linearGradient id="a" x1="9" y1="16.39" x2="9" y2="-1.94" gradientUnits="userSpaceOnUse"><stop offset="0" stop-color="#0078d4"></stop><stop offset=".16" stop-color="#1380da"></stop><stop offset=".53" stop-color="#3c91e5"></stop><stop offset=".82" stop-color="#559cec"></stop><stop offset="1" stop-color="#5ea0ef"></stop></linearGradient>
<linearGradient id="b" x1="9.88" y1="7.11" x2="9.99" y2="17.27" gradientUnits="userSpaceOnUse"><stop offset="0" stop-color="#32d4f5"></stop><stop offset=".32" stop-color="#31d1f3"></stop><stop offset=".53" stop-color="#2ec9eb"></stop><stop offset=".7" stop-color="#29bade"></stop><stop offset=".86" stop-color="#22a5cb"></stop><stop offset="1" stop-color="#198ab3"></stop><stop offset="1" stop-color="#198ab3"></stop></linearGradient>
<radialGradient id="c" cx="9.43" cy="7.03" r="7.27" gradientUnits="userSpaceOnUse"><stop offset="0" stop-color="#f2f2f2"></stop><stop offset=".58" stop-color="#eee"></stop><stop offset="1" stop-color="#e6e6e6"></stop></radialGradient>
</defs>
</svg>