<svg viewBox="0 0 18 18" class="" role="presentation" focusable="false" xmlns="http://www.w3.org/2000/svg" xmlns:xlink="http://www.w3.org/1999/xlink" id="FxSymbol0-187" data-type="24"><g><title>MsPortalFx.base.images-26</title><path fill="#dfa500" d="M17.579 3.283H9.727a.419.419 0 0 1-.233-.07L7.251 1.721a.42.42 0 0 0-.233-.071H.421A.42.42 0 0 0 0 2.07v13.86a.42.42 0 0 0 .421.42h17.158a.42.42 0 0 0 .421-.42V3.7a.42.42 0 0 0-.421-.417z"></path><rect width="4.091" height=".818" x="1.636" y="2.455" rx=".172" class="msportalfx-svg-c01" fill="#ffffff"></rect><path fill="url(#59616712-f700-4139-92c6-bd98d17f036b)" d="M17.579 3.263H8.956a.421.421 0 0 0-.3.123L7.272 4.773a.42.42 0 0 1-.3.123H.421a.42.42 0 0 0-.421.42V15.91a.42.42 0 0 0 .421.419h17.158A.42.42 0 0 0 18 15.91V3.683a.42.42 0 0 0-.421-.42z"></path><path fill="#f78d1e" d="M12.754 8.051v4.054L9.25 14.142v-4.06l3.504-2.031z"></path><path fill="#ffb34d" d="M12.754 8.051 9.25 10.088 5.746 8.05 9.25 6.013l3.504 2.038z"></path><path fill="#faa21d" d="M9.25 10.087v4.055l-3.504-2.037V8.05l3.504 2.037z"></path></g><defs>
<linearGradient id="59616712-f700-4139-92c6-bd98d17f036b" x1="9.252" x2="8.842" y1=".485" y2="16.966" gradientUnits="userSpaceOnUse"><stop offset="0" stop-color="#ffd400"></stop><stop offset=".415" stop-color="#ffd000"></stop><stop offset=".845" stop-color="#ffc301"></stop><stop offset="1" stop-color="#ffbd02"></stop></linearGradient>
</defs>
</svg>