<svg viewBox="0 0 50 50" class="fxs-portal-svg" role="presentation" focusable="false" xmlns:svg="http://www.w3.org/2000/svg" xmlns:xlink="http://www.w3.org/1999/xlink" id="FxSymbol0-163" data-type="1"><g><title></title><path d="M8 28.4c-2.1 0-3.6-.4-4.5-1.1-.9-.8-1.3-2.1-1.3-4v-3.4c0-1.7-.7-2.6-2.1-2.6v-2.6c1.4 0 2.1-.9 2.1-2.7V8.8c0-1.9.4-3.3 1.3-4.1S5.9 3.6 8 3.6v2.6c-1.5 0-2.3.8-2.3 2.5v3c0 2.3-.7 3.7-2.2 4.3 1.4.6 2.2 2 2.2 4.3v2.9c0 .9.2 1.6.5 2 .4.4.9.6 1.7.6v2.6zm34-6.8c2.1 0 3.6.4 4.5 1.1.9.8 1.3 2.1 1.3 4v3.4c0 1.7.7 2.6 2.1 2.6v2.6c-1.4 0-2.1.9-2.1 2.7v3.1c0 1.9-.4 3.3-1.3 4.1-.9.8-2.4 1.2-4.5 1.2v-2.6c1.5 0 2.3-.8 2.3-2.5v-3c0-2.3.7-3.7 2.2-4.3-1.4-.6-2.2-2-2.2-4.3v-2.9c0-.9-.2-1.6-.5-2-.4-.4-.9-.6-1.7-.6v-2.6z"></path><path d="M25.7 27H12.9c-1.3 0-2.4-1.1-2.4-2.1s1.1-1.9 2.4-1.9h12.8c1.4 0 2.4.8 2.4 1.9s-1 2.1-2.4 2.1zm11 9.1H16.9c-1.3 0-2.4-1.1-2.4-2.1s1.1-1.9 2.4-1.9h19.8c1.4 0 2.4.8 2.4 1.9s-1 2.1-2.4 2.1zm0-19H12.9c-1.3 0-2.4-1.1-2.4-2.1s1.1-1.9 2.4-1.9h23.8c1.4 0 2.4.8 2.4 1.9s-1 2.1-2.4 2.1zm-4-9.5H12.9c-1.3 0-2.4-1.1-2.4-2.1s1.1-1.9 2.4-1.9h19.8c1.4 0 2.4.8 2.4 1.9s-1 2.1-2.4 2.1zm-1 38.8H16.9c-1.3 0-2.4-1.1-2.4-2.1s1.1-1.9 2.4-1.9h14.8c1.3 0 2.4.8 2.4 1.9 0 1-1 2.1-2.4 2.1z" class="msportalfx-svg-c03" fill="#a0a1a2"></path></g><defs>
<linearGradient id="a" x1="-1267.23" y1="3.07" x2="-1267.52" y2="14.64" gradientTransform="matrix(-1 0 0 1 -1256.13 0)" gradientUnits="userSpaceOnUse"><stop offset="0" stop-color="#32d4f5"></stop><stop offset=".23" stop-color="#31d0f1"></stop><stop offset=".46" stop-color="#2cc3e6"></stop><stop offset=".7" stop-color="#25afd4"></stop><stop offset=".94" stop-color="#1c92ba"></stop><stop offset="1" stop-color="#198ab3"></stop></linearGradient>
<linearGradient id="b" x1="6.4" y1="1.32" x2="7.21" y2="11.39"><stop offset=".22" stop-color="#32d4f5"></stop><stop offset=".47" stop-color="#31d1f3"></stop><stop offset=".63" stop-color="#2ec9eb"></stop><stop offset=".77" stop-color="#29bade"></stop><stop offset=".89" stop-color="#22a5cb"></stop><stop offset="1" stop-color="#198ab3"></stop><stop offset="1" stop-color="#198ab3"></stop></linearGradient>
<linearGradient id="c" x1="13.76" y1="18.05" x2="13.76" y2="10.25" gradientUnits="userSpaceOnUse"><stop offset="0" stop-color="#76bc2d"></stop><stop offset=".6" stop-color="#81ce31"></stop><stop offset=".82" stop-color="#86d633"></stop></linearGradient>
</defs>
</svg>