<svg viewBox="0 0 18 18" data-islogo="true" class="" role="presentation" focusable="false" xmlns:svg="http://www.w3.org/2000/svg" xmlns:xlink="http://www.w3.org/1999/xlink" id="FxSymbol0-06a" data-type="211"><g><path d="M8.66 17.12c8.18-5.86 8.46-9.28 8.49-10.35.05-1.5-.15-5.41-4.15-5.72A4.26 4.26 0 0 0 8.66 3.9a4.28 4.28 0 0 0-4.39-2.85C.32 1.36.11 5.27.16 6.77c0 1.07.32 4.49 8.5 10.35" fill="url(#0198e927-4342-4a5c-acd7-f54791e848fd)"></path><path d="M17.15 6.77C17.2 5.27 17 1.36 13 1.05A4.26 4.26 0 0 0 8.66 3.9a4.28 4.28 0 0 0-4.39-2.85C.32 1.36.11 5.27.16 6.77c0 1.07.24 4.44 8.43 10.3" fill="none"></path><path d="M17.15 6.18h-4a.17.17 0 0 0-.13.07l-1.21 2.09a.16.16 0 0 1-.27 0L9.81 5.05a.31.31 0 0 0-.56 0L7.59 10a.16.16 0 0 1-.29 0L5.88 6.71a.31.31 0 0 0-.55 0L3.39 10.2a.16.16 0 0 1-.13.08H1.42a13 13 0 0 0 .9 1.22H4a.13.13 0 0 0 .13-.08l1.21-2.23a.16.16 0 0 1 .28 0l1.66 3.86a.31.31 0 0 0 .58 0l1.75-5.2a.15.15 0 0 1 .28 0l1.46 2.77a.3.3 0 0 0 .53 0l1.86-3.13a.16.16 0 0 1 .13-.08h3.23" class="msportalfx-svg-c01" fill="#ffffff"></path></g><defs>
<linearGradient id="a" x1="-1267.23" y1="3.07" x2="-1267.52" y2="14.64" gradientTransform="matrix(-1 0 0 1 -1256.13 0)" gradientUnits="userSpaceOnUse"><stop offset="0" stop-color="#32d4f5"></stop><stop offset=".23" stop-color="#31d0f1"></stop><stop offset=".46" stop-color="#2cc3e6"></stop><stop offset=".7" stop-color="#25afd4"></stop><stop offset=".94" stop-color="#1c92ba"></stop><stop offset="1" stop-color="#198ab3"></stop></linearGradient>
<linearGradient id="b" x1="6.05" y1="11.51" x2="6.05" y2="3" gradientUnits="userSpaceOnUse"><stop offset="0" stop-color="#0078d4"></stop><stop offset=".82" stop-color="#5ea0ef"></stop></linearGradient>
<linearGradient id="c" x1="10.51" y1="6.82" x2="7.93" y2="10.5" gradientUnits="userSpaceOnUse"><stop offset="0" stop-color="#005ba1"></stop><stop offset=".14" stop-color="#035da3" stop-opacity=".97"></stop><stop offset=".3" stop-color="#0b63aa" stop-opacity=".88"></stop><stop offset=".47" stop-color="#196eb6" stop-opacity=".73"></stop><stop offset=".65" stop-color="#2d7cc6" stop-opacity=".52"></stop><stop offset=".84" stop-color="#468edb" stop-opacity=".26"></stop><stop offset="1" stop-color="#5ea0ef" stop-opacity="0"></stop></linearGradient>
<linearGradient id="0198e927-4342-4a5c-acd7-f54791e848fd" x1="8.66" y1="17.12" x2="8.66" y2="1.03" gradientUnits="userSpaceOnUse"><stop offset="0" stop-color="#1988d9"></stop><stop offset=".22" stop-color="#218ddc"></stop><stop offset=".56" stop-color="#379ce5"></stop><stop offset=".9" stop-color="#54aef0"></stop></linearGradient>
</defs>
</svg>