<svg viewBox="0 0 18 18" class="" role="presentation" focusable="false" xmlns="http://www.w3.org/2000/svg" xmlns:xlink="http://www.w3.org/1999/xlink" id="FxSymbol0-14b" data-type="1"><g><circle cx="11.352" cy="8.49" r="6.597" fill="#005ba1"></circle><path d="M6.72 1.7a6.847 6.847 0 0 0-2.454 12.438l.235-.59a.13.13 0 0 1 .224-.033l1.691 2.183a.134.134 0 0 1-.021.186.13.13 0 0 1-.065.027l-2.715.387a.131.131 0 0 1-.147-.114.135.135 0 0 1 .008-.067l.344-.874a7.965 7.965 0 0 1-3.539-4.811A6.966 6.966 0 0 1 5.15 1.93a6.76 6.76 0 0 1 1.57-.23Z" fill="#86d633"></path><path d="M8.285 1.854A6.63 6.63 0 0 0 3.49 13.07a6.384 6.384 0 0 0 .618.539l.075-.189a.474.474 0 0 1 .45-.3.468.468 0 0 1 .167.035.473.473 0 0 1 .195.148l1.127 1.455A6.634 6.634 0 1 0 8.285 1.854Z" fill="url(#94a115a1-5689-4c39-bee0-5c63fda4a1c8)"></path><path fill="url(#94a115a1-5689-4c39-bee0-5c63fda4a1c9)" d="M11.18 6.699v3.368l-2.895 1.698V8.388l2.895-1.689z"></path><path fill="#c3f1ff" d="M11.18 6.699 8.294 8.397 5.39 6.699 8.294 5.01l2.886 1.689z"></path><path fill="url(#94a115a1-5689-4c39-bee0-5c63fda4a1ca)" d="M8.285 8.397v3.368L5.39 10.067V6.699l2.895 1.698z"></path><path d="M6.362 4.34h-2.05a.492.492 0 0 0-.493.492v2.059a.246.246 0 0 0 .246.246h.164a.246.246 0 0 0 .246-.246V4.989h1.888a.246.246 0 0 0 .238-.247v-.156a.246.246 0 0 0-.239-.246Zm0 7.6H4.468v-1.887a.246.246 0 0 0-.246-.246h-.157a.246.246 0 0 0-.246.246v2.088a.492.492 0 0 0 .485.5h2.058a.254.254 0 0 0 .242-.265L6.6 12.35v-.164a.246.246 0 0 0-.239-.246Zm5.858-7.577H10.2a.246.246 0 0 0-.247.246v.157a.246.246 0 0 0 .223.267l.023.001h1.888v1.872a.246.246 0 0 0 .246.246h.171a.246.246 0 0 0 .246-.246V4.855a.492.492 0 0 0-.49-.494c-.013 0-.026 0-.04.002Zm.254 5.459h-.156a.246.246 0 0 0-.246.247v1.894h-1.873a.246.246 0 0 0-.246.246v.164a.246.246 0 0 0 .246.247h2.052a.5.5 0 0 0 .5-.493v-2.059a.246.246 0 0 0-.245-.247.24.24 0 0 0-.032.001Z" class="msportalfx-svg-c01" fill="#ffffff"></path></g><defs>
<linearGradient id="94a115a1-5689-4c39-bee0-5c63fda4a1c8" x1="8.285" y1="15.127" x2="8.285" y2="1.854" gradientUnits="userSpaceOnUse"><stop offset="0" stop-color="#0078d4"></stop><stop offset="1" stop-color="#5ea0ef"></stop></linearGradient>
<linearGradient id="94a115a1-5689-4c39-bee0-5c63fda4a1c9" x1="11.155" y1="10.195" x2="8.63" y2="8.486" gradientUnits="userSpaceOnUse"><stop offset="0" stop-color="#32bedd"></stop><stop offset="1" stop-color="#9cebff"></stop></linearGradient>
<linearGradient id="94a115a1-5689-4c39-bee0-5c63fda4a1ca" x1="6.837" y1="11.765" x2="6.837" y2="6.699" gradientUnits="userSpaceOnUse"><stop offset="0" stop-color="#32bedd"></stop><stop offset="1" stop-color="#9cebff"></stop></linearGradient>
</defs>
</svg>