<svg viewBox="0 0 18 18" data-islogo="true" class="" role="presentation" focusable="false" xmlns:svg="http://www.w3.org/2000/svg" xmlns:xlink="http://www.w3.org/1999/xlink" id="FxSymbol0-05c" data-type="1"><g><title>Icon-networking-71</title><path d="M18 9.16l-2.12 2.12a.1.1 0 0 1-.18-.08V10a.11.11 0 0 0-.11-.1h-3.5l2.18 2.1a.09.09 0 0 0 .12 0l.61-.62a.08.08 0 0 1 .14.06v2.19a.12.12 0 0 1-.12.12h-2.15a.08.08 0 0 1-.06-.14l.62-.61a.09.09 0 0 0 0-.12L11.64 11V7.17l1.83-1.82a.08.08 0 0 0 0-.11l-.62-.61a.08.08 0 0 1 .06-.14h2.19a.13.13 0 0 1 .12.13v2.13a.08.08 0 0 1-.14.06l-.61-.61a.09.09 0 0 0-.12 0l-2.23 2.11h3.43a.11.11 0 0 0 .11-.11V7a.1.1 0 0 1 .18-.08L18 9a.1.1 0 0 1 0 .16z" fill="#0078d4"></path><rect y="3.41" width="11.64" height="11.18" rx=".58" fill="url(#ace104d6-1f53-40e3-a991-cb43c1f1aa51)"></rect><g class="msportalfx-svg-c01" fill="#ffffff"><rect x="2.27" y="4.78" width="2.73" height="2.61" rx=".29"></rect><rect x="6.92" y="7.77" width="2.73" height="2.61" rx=".29"></rect><rect x="2.27" y="10.61" width="2.73" height="2.61" rx=".29"></rect></g></g><defs>
<linearGradient id="ace104d6-1f53-40e3-a991-cb43c1f1aa51" x1="5.82" y1="25.68" x2="5.82" y2="14.64" gradientTransform="matrix(1 0 0 1.01 0 -11.41)" gradientUnits="userSpaceOnUse"><stop offset="0" stop-color="#5e9624"></stop><stop offset=".01" stop-color="#5f9724"></stop><stop offset=".35" stop-color="#6cab29"></stop><stop offset=".68" stop-color="#73b82c"></stop><stop offset="1" stop-color="#76bc2d"></stop></linearGradient>
</defs>
</svg>