<svg viewBox="0 0 18 18" data-islogo="true" class="" role="presentation" focusable="false" xmlns:svg="http://www.w3.org/2000/svg" xmlns:xlink="http://www.w3.org/1999/xlink" id="FxSymbol0-05b" data-type="1"><g><title>Icon-networking-82</title><path d="M16.23 17.17A1.21 1.21 0 0 0 17.46 16v-.2c-.49-3.86-2.69-7-6.89-7s-6.48 2.66-6.91 7a1.24 1.24 0 0 0 1.1 1.36h11.47z" fill="url(#ec6ad825-6008-44c0-8c46-d31711213827)"></path><path d="M10.57 9.71a3.86 3.86 0 0 1-2.1-.61l2.08 5.42 2.06-5.39a3.83 3.83 0 0 1-2.04.58z" opacity=".8" class="msportalfx-svg-c01" fill="#ffffff"></path><circle cx="10.57" cy="5.84" r="3.87" fill="url(#b2c2be9e-0a70-4a83-ab8f-bf8022e67924)"></circle><path d="M6 5.88V1a.16.16 0 0 0-.16-.17H4.57a.17.17 0 0 0-.18.17v4.71a.18.18 0 0 1-.17.17H3.1a.12.12 0 0 1-.1-.12V4.45a.11.11 0 0 0-.19-.08L.59 6.57a.16.16 0 0 0 0 .24L2.79 9A.11.11 0 0 0 3 8.93V7.61a.11.11 0 0 1 .1-.11h2.74A.17.17 0 0 0 6 7.33V5.88z" fill="#0078d4"></path></g><defs>
<linearGradient id="ec6ad825-6008-44c0-8c46-d31711213827" x1="10.56" y1="7.77" x2="10.56" y2="19.24" gradientUnits="userSpaceOnUse"><stop offset=".22" stop-color="#32d4f5"></stop><stop offset=".47" stop-color="#31d1f3"></stop><stop offset=".63" stop-color="#2ec9eb"></stop><stop offset=".77" stop-color="#29bade"></stop><stop offset=".89" stop-color="#22a5cb"></stop><stop offset="1" stop-color="#198ab3"></stop><stop offset="1" stop-color="#198ab3"></stop></linearGradient>
<linearGradient id="b2c2be9e-0a70-4a83-ab8f-bf8022e67924" x1="10.23" y1="1.63" x2="11.07" y2="12.04"><stop offset=".22" stop-color="#32d4f5"></stop><stop offset=".47" stop-color="#31d1f3"></stop><stop offset=".63" stop-color="#2ec9eb"></stop><stop offset=".77" stop-color="#29bade"></stop><stop offset=".89" stop-color="#22a5cb"></stop><stop offset="1" stop-color="#198ab3"></stop><stop offset="1" stop-color="#198ab3"></stop></linearGradient>
</defs>
</svg>