<svg viewBox="0 0 18 18" class="" role="presentation" focusable="false" xmlns="http://www.w3.org/2000/svg" xmlns:xlink="http://www.w3.org/1999/xlink" id="FxSymbol0-14c" data-type="1"><g><circle cx="9" cy="9" r="8.329" fill="url(#94a115a1-5689-4c39-bee0-5c63fda4a1cb)"></circle><path d="m6.6 4.138 2.3-2.3a.273.273 0 0 1 .387 0l2.3 2.3a.122.122 0 0 1-.086.209h-1.415a.122.122 0 0 0-.122.123v2.873a.1.1 0 0 1-.1.1H8.321a.1.1 0 0 1-.1-.1V4.47a.122.122 0 0 0-.121-.123H6.687a.123.123 0 0 1-.087-.209Zm4.986 9.724-2.3 2.3a.273.273 0 0 1-.387 0l-2.3-2.3a.123.123 0 0 1 .087-.209H8.1a.122.122 0 0 0 .122-.123v-2.873a.1.1 0 0 1 .1-.1h1.544a.1.1 0 0 1 .1.1v2.873a.122.122 0 0 0 .122.123H11.5a.122.122 0 0 1 .086.209Z" fill="#9cebff"></path><path d="m12.884 11.513-2.3-2.3a.273.273 0 0 1 0-.387l2.3-2.3a.122.122 0 0 1 .209.086v1.415a.123.123 0 0 0 .122.123h2.874a.1.1 0 0 1 .1.1v1.542a.1.1 0 0 1-.1.1h-2.874a.122.122 0 0 0-.122.122v1.414a.123.123 0 0 1-.209.085ZM5.116 6.527l2.3 2.3a.273.273 0 0 1 0 .387l-2.3 2.3a.123.123 0 0 1-.209-.087v-1.415a.122.122 0 0 0-.122-.122H1.911a.1.1 0 0 1-.1-.1V8.247a.1.1 0 0 1 .1-.1h2.874a.123.123 0 0 0 .122-.123V6.613a.122.122 0 0 1 .209-.086Z" fill="#f2f2f2"></path></g><defs>
<linearGradient id="94a115a1-5689-4c39-bee0-5c63fda4a1cb" x1="9" y1="17.329" x2="9" y2=".671" gradientUnits="userSpaceOnUse"><stop offset="0" stop-color="#005ba1"></stop><stop offset=".15" stop-color="#0063af"></stop><stop offset=".439" stop-color="#006fc3"></stop><stop offset=".724" stop-color="#0076d0"></stop><stop offset="1" stop-color="#0078d4"></stop></linearGradient>
</defs>
</svg>