<svg viewBox="0 0 50 50" class="fxs-portal-svg" role="presentation" focusable="false" xmlns:svg="http://www.w3.org/2000/svg" xmlns:xlink="http://www.w3.org/1999/xlink" id="FxSymbol0-187" data-type="1"><g><title></title><path d="M32.4 38.4H18.8c1.6 5.8-.6 6.6-10.2 6.6v3h32.6v-3c-9.5 0-10.4-.8-8.8-6.6" class="msportalfx-svg-c04" fill="#7a7a7a"></path><path d="M46.9 5l.1 31H3V5h44z" class="msportalfx-svg-c15" fill="#59b4d9"></path><path d="M47 1.9H2.7C1.2 1.9 0 3.2 0 4.7v30.9c0 1.5 1.2 2.8 2.7 2.8H47c1.5 0 3-1.3 3-2.8V4.7c0-1.5-1.5-2.8-3-2.8m-.8 3.8v28.8H3.8V5.7l42.4-.1v.1z" class="msportalfx-svg-c03" fill="#a0a1a2"></path><path opacity=".2" d="M3.8 34.6V5.7l38.7-.1L47 1.9H2.7C1.2 1.9 0 3.2 0 4.7v30.9c0 1.5 1.2 2.8 2.7 2.8h1.1l4.6-3.8H3.8z" class="msportalfx-svg-c01" fill="#ffffff"></path><path d="M25.5 4c0 .4-.3.7-.7.7-.4 0-.7-.3-.7-.7 0-.4.3-.7.7-.7.4 0 .7.3.7.7" class="msportalfx-svg-c13" fill="#b8d432"></path><path d="M34 24h-1.999v-2c0-1.654-1.346-3-3-3H26v-3.001L28 16a1 1 0 0 0 1-1V9a1 1 0 0 0-1-1h-6a1 1 0 0 0-1 1v5.997a1 1 0 0 0 1 1l2 .001V19h-3c-1.654 0-3 1.346-3 3v2h-2a1 1 0 0 0-1 1v5.997a1 1 0 0 0 1 1L22 32a1 1 0 0 0 1-1v-6a1 1 0 0 0-1-1h-2v-2c0-.551.449-1 1-1h8c.552 0 1 .449 1 1v2h-2a1 1 0 0 0-1 1v5.996a1 1 0 0 0 1 1l5.999.004A1 1 0 0 0 35 31v-5.999A1 1 0 0 0 34 24z" class="msportalfx-svg-c01" fill="#ffffff"></path></g><defs>
<linearGradient id="a" x1="-1267.23" y1="3.07" x2="-1267.52" y2="14.64" gradientTransform="matrix(-1 0 0 1 -1256.13 0)" gradientUnits="userSpaceOnUse"><stop offset="0" stop-color="#32d4f5"></stop><stop offset=".23" stop-color="#31d0f1"></stop><stop offset=".46" stop-color="#2cc3e6"></stop><stop offset=".7" stop-color="#25afd4"></stop><stop offset=".94" stop-color="#1c92ba"></stop><stop offset="1" stop-color="#198ab3"></stop></linearGradient>
<linearGradient id="b" x1="6.4" y1="1.32" x2="7.21" y2="11.39"><stop offset=".22" stop-color="#32d4f5"></stop><stop offset=".47" stop-color="#31d1f3"></stop><stop offset=".63" stop-color="#2ec9eb"></stop><stop offset=".77" stop-color="#29bade"></stop><stop offset=".89" stop-color="#22a5cb"></stop><stop offset="1" stop-color="#198ab3"></stop><stop offset="1" stop-color="#198ab3"></stop></linearGradient>
<linearGradient id="c" x1="13.76" y1="18.05" x2="13.76" y2="10.25" gradientUnits="userSpaceOnUse"><stop offset="0" stop-color="#76bc2d"></stop><stop offset=".6" stop-color="#81ce31"></stop><stop offset=".82" stop-color="#86d633"></stop></linearGradient>
</defs>
</svg>