<svg viewBox="0 0 50 50" class="" role="presentation" focusable="false" xmlns:svg="http://www.w3.org/2000/svg" xmlns:xlink="http://www.w3.org/1999/xlink" id="FxSymbol0-046" data-type="1"><g><title></title><title>Artboard 5</title><path d="M.917 37h24.259l23.741-24h-48v24" class="msportalfx-svg-c19" fill="#0072c6"></path><path d="M28.62 17.992h-4.514v10.73l-3.944-10.733h-3.909l-3.367 8.98c-.359-2.263-2.7-3.045-4.542-3.63-1.216-.391-2.507-.965-2.494-1.599.01-.522.692-1.006 2.043-.932a7.378 7.378 0 0 1 3.304.89l1.568-2.731a12.182 12.182 0 0 0-5.113-1.215h-.01a6.21 6.21 0 0 0-4.517 1.649 3.806 3.806 0 0 0-1.08 2.633 3.537 3.537 0 0 0 1.55 3.153c.941.63 1.978 1.104 3.069 1.404 1.252.389 2.276.726 2.263 1.446a1.048 1.048 0 0 1-.295.703 1.992 1.992 0 0 1-1.455.456 6.233 6.233 0 0 1-3.736-1.07l-1.394 2.77a10.417 10.417 0 0 0 5.11 1.36h.234a6.161 6.161 0 0 0 3.884-1.302c.058-.047.111-.096.165-.142l-.453 1.209h4.1l.689-2.093a7.452 7.452 0 0 0 2.41.382 7.566 7.566 0 0 0 2.352-.362l.663 2.073h6.687v-4.336h1.459c3.525 0 5.61-1.796 5.61-4.804.001-3.353-2.025-4.889-6.337-4.889zm-10.432 9.184a4.075 4.075 0 0 1-1.446-.253l1.433-4.514h.028l1.405 4.527a4.27 4.27 0 0 1-1.42.24zm10.699-2.594h-.997v-3.637h.994c1.326 0 2.388.44 2.388 1.795 0 1.401-1.058 1.842-2.388 1.842" class="msportalfx-svg-c01" fill="#ffffff"></path><path d="M32.079 33.875c.794 0 1.44.646 1.44 1.44s-.646 1.44-1.44 1.44c-.794 0-1.44-.646-1.44-1.44s.646-1.44 1.44-1.44m0-.25a1.69 1.69 0 1 0 0 3.38 1.69 1.69 0 0 0 0-3.38z" class="msportalfx-svg-c19" fill="#0072c6"></path><path d="M32.39 35.419a.46.46 0 0 0 .463-.457l-.001-.031c0-.347-.208-.5-.625-.5h-.674V36.2h.267l.003-.768h.309l.465.766h.3l-.507-.779zm-.568-.215v-.549h.362c.185 0 .383.04.383.26 0 .275-.2.289-.427.289h-.318z" class="msportalfx-svg-c19" fill="#0072c6"></path></g><defs>
</defs>
</svg>