<svg viewBox="0 0 15 15" class="" role="presentation" focusable="false" xmlns="http://www.w3.org/2000/svg" xmlns:xlink="http://www.w3.org/1999/xlink" id="FxSymbol0-07a" data-type="1"><g><title></title><path d="M14.15 5.048V.98A.146.146 0 0 0 14 .833H9.935a.146.146 0 0 0-.103.25l1.12 1.121.075.074a.148.148 0 0 1 0 .208L6.12 7.39a.148.148 0 0 0 0 .207l1.264 1.264a.148.148 0 0 0 .208 0L12.5 3.957a.146.146 0 0 1 .208 0l.074.074L13.9 5.15a.146.146 0 0 0 .25-.103Z" fill="url(#59616712-f700-4139-92c6-bd98d17f0137)"></path><path d="M11.162 7.814v2.978a.342.342 0 0 1-.342.342H4.022a.342.342 0 0 1-.342-.342V4.375a.342.342 0 0 1 .342-.342h3.406a.188.188 0 0 0 .188-.187V3.13a.188.188 0 0 0-.188-.188h-4.5a.343.343 0 0 0-.341.343v8.597a.341.341 0 0 0 .341.341h8.981a.34.34 0 0 0 .343-.341V7.814a.187.187 0 0 0-.189-.187h-.714a.187.187 0 0 0-.187.187Z" fill="#B3B3B3"></path><path d="M13.94 13.308h-.86v.859h.86v-.859Zm-1.734.859h-.873v-.859h.875l-.002.859Zm-1.75 0h-.873v-.859h.874l-.001.859Zm-1.75 0h-.873v-.859h.875l-.002.859Zm-1.75 0h-.873v-.859h.874l-.001.859Zm-1.75 0h-.873v-.859h.875l-.002.859Zm-1.75 0h-.873v-.859h.875l-.002.859Zm-1.748-.859H.85v.859h.858v-.859Zm0-.875H.85v-.874h.858v.874Zm0-1.75H.85v-.875h.858v.875Zm0-1.75H.85V8.06h.858v.873Zm0-1.75H.85V6.31h.858v.873Zm0-1.75H.85v-.872h.858v.872Zm0-1.75H.85v-.872h.858v.872Zm0-2.605H.85v.859h.858v-.859Zm5.249.859h-.874v-.859h.874v.859Zm-1.75 0h-.874v-.859h.875l-.001.859Zm-1.75 0h-.874v-.859h.875l-.001.859Zm10.481 10.496h-.855v-.874h.858l-.003.874Zm0-1.75h-.855v-.875h.858l-.003.875Zm0-1.75h-.855V8.06h.858l-.003.873Z" fill="#76BC2D"></path><defs></defs></g><defs>
<linearGradient id="59616712-f700-4139-92c6-bd98d17f0137" x1="8.148" y1="-1.101" x2="12.553" y2="10.857" gradientUnits="userSpaceOnUse"><stop stop-color="#6BB9F2"></stop><stop offset="1" stop-color="#1B93EB"></stop></linearGradient>
</defs>
</svg>