<svg viewBox="0 0 50 50" class="" role="presentation" focusable="false" xmlns:svg="http://www.w3.org/2000/svg" xmlns:xlink="http://www.w3.org/1999/xlink" id="FxSymbol0-0d0" data-type="1"><g><title></title><path d="M27.4 9.8c-3.4.4-6.3 2-8.3 4.5-2 2.5-3 5.7-2.7 9 .4 3.4 2 6.3 4.5 8.3 2.5 2 5.7 3 9 2.7 3.4-.4 6.3-2.1 8.3-4.5 2-2.5 3-5.7 2.7-9-.4-3.4-2.1-6.3-4.6-8.4-2.1-1.7-4.8-2.7-7.6-2.7-.4 0-.8 0-1.3.1" class="msportalfx-svg-c01" fill="#ffffff"></path><path d="M42.8 20.5c-.4-4-2.5-7.5-5.4-9.8-.6-.5-1.2-.9-1.8-1.2l-1.1 2.2c.5.3.9.6 1.4.9 2.4 2 4.1 4.8 4.5 8.1.3 3.3-.7 6.4-2.6 8.8-1.9 2.4-4.8 4-8.1 4.4-2.2.2-4.3-.2-6.2-1l-1.1 2.2c2.3 1.1 4.9 1.6 7.6 1.3 4-.4 7.4-2.4 9.7-5.3 2.3-2.8 3.5-6.6 3.1-10.6" class="msportalfx-svg-c16" fill="#3999c6"></path><path d="M20.9 31.4c-2.4-1.9-4-4.8-4.4-8.1-.3-3.3.7-6.4 2.6-8.8 1.9-2.4 4.8-4 8.1-4.4 2.7-.3 5.2.3 7.3 1.6l1.1-2.2C33 8 30 7.3 26.9 7.6c-4 .4-7.4 2.4-9.7 5.3-2.3 2.9-3.6 6.6-3.1 10.6.4 4 2.4 7.4 5.3 9.7.9.7 1.9 1.4 3 1.9l1.1-2.2c-1-.4-1.8-.9-2.6-1.5" class="msportalfx-svg-c03" fill="#a0a1a2"></path><path d="M20.9 31.4c-2.4-1.9-4-4.8-4.4-8.1-.3-3.3.7-6.4 2.6-8.8 1.9-2.4 4.8-4 8.1-4.4 2.7-.3 5.2.3 7.3 1.6l1.1-2.2C33 8 30 7.3 26.9 7.6c-4 .4-7.4 2.4-9.7 5.3-2.3 2.9-3.6 6.6-3.1 10.6.4 4 2.4 7.4 5.3 9.7.9.7 1.9 1.4 3 1.9l1.1-2.2c-1-.4-1.8-.9-2.6-1.5" class="msportalfx-svg-c15" fill="#59b4d9"></path><path d="M34.5 25.8l-5.6-2c-.6-.2-.9-.9-.7-1.5.2-.6.9-.9 1.5-.7l5.6 2c.6.2.9.9.7 1.5-.2.6-.9 1-1.5.7z" class="msportalfx-svg-c04" fill="#7a7a7a"></path><path d="M28.3 23.6c-.6 0-1.2-.5-1.2-1.2v-9.8c0-.6.5-1.2 1.2-1.2.6 0 1.2.5 1.2 1.2v9.8c0 .7-.5 1.2-1.2 1.2z" class="msportalfx-svg-c04" fill="#7a7a7a"></path><circle cx="28.3" cy="22.5" r="1.7" class="msportalfx-svg-c06" fill="#1e1e1e"></circle><path d="M26.9 35l5.9 5.5-5.2 6 .1-3.9h-1.4c-10.5 0-19.1-8.5-19.1-19.1s8.4-19 19-19c5.3 0 10.1 2.2 13.6 5.7-3-2.9-7.1-4.7-11.6-4.8-9.1 0-16.5 7.4-16.5 16.5 0 8.8 7.1 15.9 15.7 16.5l-.5-3.4z" class="msportalfx-svg-c13" fill="#b8d432"></path><path opacity=".2" d="M28 40.9c-10.5-.4-18.6-9.2-18.2-19.6.3-6.5 3.8-12.1 8.9-15.3-6.8 2.9-11.6 9.7-11.6 17.6 0 10.5 8.5 19.1 19.1 19.1h1.4l-.1 3.9 5.2-6c-1.5.3-3.1.4-4.7.3z" class="msportalfx-svg-c06" fill="#1e1e1e"></path><path d="M9.6 43.9c-.2 0-.5-.1-.7-.2l-6.8-4c-1.2-.7-2-2.1-2-3.4V11.1c0-1.3.8-2.8 2-3.4l6.8-4c.7-.4 1.6-.2 2 .5.4.7.2 1.6-.5 2l-6.8 4c-.2.1-.5.6-.5.9v25.2c0 .3.3.8.5.9l6.8 4c.7.4.9 1.3.5 2-.3.4-.8.7-1.3.7zM40.4 3.5c.2 0 .5.1.7.2l6.8 4c1.2.7 2 2.1 2 3.4v25.2c0 1.3-.8 2.8-2 3.4l-6.8 4c-.7.4-1.6.2-2-.5-.4-.7-.2-1.6.5-2l6.8-4c.2-.1.5-.6.5-.9V11.1c0-.3-.3-.8-.5-.9l-6.8-4c-.7-.4-.9-1.3-.5-2 .4-.4.8-.7 1.3-.7z" class="msportalfx-svg-c04" fill="#7a7a7a"></path></g><defs>
<linearGradient id="a" x1="9" y1="16.39" x2="9" y2="-1.94" gradientUnits="userSpaceOnUse"><stop offset="0" stop-color="#0078d4"></stop><stop offset=".16" stop-color="#1380da"></stop><stop offset=".53" stop-color="#3c91e5"></stop><stop offset=".82" stop-color="#559cec"></stop><stop offset="1" stop-color="#5ea0ef"></stop></linearGradient>
<linearGradient id="b" x1="9.88" y1="7.11" x2="9.99" y2="17.27" gradientUnits="userSpaceOnUse"><stop offset="0" stop-color="#32d4f5"></stop><stop offset=".32" stop-color="#31d1f3"></stop><stop offset=".53" stop-color="#2ec9eb"></stop><stop offset=".7" stop-color="#29bade"></stop><stop offset=".86" stop-color="#22a5cb"></stop><stop offset="1" stop-color="#198ab3"></stop><stop offset="1" stop-color="#198ab3"></stop></linearGradient>
<radialGradient id="c" cx="9.43" cy="7.03" r="7.27" gradientUnits="userSpaceOnUse"><stop offset="0" stop-color="#f2f2f2"></stop><stop offset=".58" stop-color="#eee"></stop><stop offset="1" stop-color="#e6e6e6"></stop></radialGradient>
</defs>
</svg>