<svg viewBox="0 0 18 18" class="" role="presentation" focusable="false" xmlns:svg="http://www.w3.org/2000/svg" xmlns:xlink="http://www.w3.org/1999/xlink" id="FxSymbol0-087" data-type="1"><g><title>Azure-Search</title><path d="M18 11.32a4.12 4.12 0 0 0-3.51-4 5.15 5.15 0 0 0-5.25-5 5.25 5.25 0 0 0-5 3.49A4.86 4.86 0 0 0 0 10.59a5 5 0 0 0 5.07 4.82h8.65a.78.78 0 0 0 .22 0A4.13 4.13 0 0 0 18 11.32z" fill="url(#a)"></path><path d="M12.33 6.59a3.07 3.07 0 0 0-5.61.85 3.16 3.16 0 0 0 .33 2.27l-2.34 2.37a.79.79 0 0 0 0 1.12.78.78 0 0 0 .56.23.76.76 0 0 0 .56-.23l2.33-2.36a3.14 3.14 0 0 0 .81.33 3.08 3.08 0 0 0 3.36-4.58zm-.54 2.1a2.16 2.16 0 0 1-2.09 1.65 1.79 1.79 0 0 1-.51-.07 1.87 1.87 0 0 1-.7-.32 2.13 2.13 0 0 1-.56-.56 2.17 2.17 0 0 1-.31-1.73A2.14 2.14 0 0 1 9.7 6a2.31 2.31 0 0 1 .52.06 2.18 2.18 0 0 1 1.32 1 2.13 2.13 0 0 1 .25 1.63z" fill="#f2f2f2"></path><ellipse cx="9.69" cy="8.18" rx="2.15" ry="2.16" fill="#83b9f9"></ellipse><path fill="none" d="M0 0h18v18H0z"></path></g><defs>
<linearGradient id="a" x1="9" y1="16.39" x2="9" y2="-1.94" gradientUnits="userSpaceOnUse"><stop offset="0" stop-color="#0078d4"></stop><stop offset=".16" stop-color="#1380da"></stop><stop offset=".53" stop-color="#3c91e5"></stop><stop offset=".82" stop-color="#559cec"></stop><stop offset="1" stop-color="#5ea0ef"></stop></linearGradient>
<linearGradient id="b" x1="9.88" y1="7.11" x2="9.99" y2="17.27" gradientUnits="userSpaceOnUse"><stop offset="0" stop-color="#32d4f5"></stop><stop offset=".32" stop-color="#31d1f3"></stop><stop offset=".53" stop-color="#2ec9eb"></stop><stop offset=".7" stop-color="#29bade"></stop><stop offset=".86" stop-color="#22a5cb"></stop><stop offset="1" stop-color="#198ab3"></stop><stop offset="1" stop-color="#198ab3"></stop></linearGradient>
<radialGradient id="c" cx="9.43" cy="7.03" r="7.27" gradientUnits="userSpaceOnUse"><stop offset="0" stop-color="#f2f2f2"></stop><stop offset=".58" stop-color="#eee"></stop><stop offset="1" stop-color="#e6e6e6"></stop></radialGradient>
</defs>
</svg>