<svg viewBox="0 0 19 19" class="" role="presentation" focusable="false" xmlns="http://www.w3.org/2000/svg" xmlns:xlink="http://www.w3.org/1999/xlink" id="FxSymbol0-233" data-type="1"><g><path fill="#0078d4" d="M17.1 8.887c0 4.9-6.039 8.85-7.337 9.658a.456.456 0 0 1-.5 0C7.94 17.761 1.9 13.79 1.9 8.887V3a.469.469 0 0 1 .474-.466C7.067 2.416 5.969.381 9.488.381s2.445 2.035 7.137 2.157A.486.486 0 0 1 17.1 3z"></path><path fill="url(#406fd2f9-470a-4939-b13a-553c6cc30f0b)" d="M16.491 8.921c0 4.605-5.563 8.283-6.766 9.034a.479.479 0 0 1-.451 0C8.072 17.2 2.509 13.5 2.509 8.921v-5.5a.438.438 0 0 1 .426-.425c4.31-.125 3.332-2 6.565-2s2.255 1.9 6.565 2a.438.438 0 0 1 .426.425z"></path><path d="M9.5 13.148a.912.912 0 1 0-.912-.912.912.912 0 0 0 .912.912zm.456-2.432h-.912a.445.445 0 0 1-.456-.432V4.46a.445.445 0 0 1 .456-.431h.912a.445.445 0 0 1 .456.431v5.824a.445.445 0 0 1-.456.432z" class="msportalfx-svg-c01" fill="#ffffff"></path></g><defs>
<linearGradient id="406fd2f9-470a-4939-b13a-553c6cc30f0b" x1="-209.5" x2="-209.5" y1="229.091" y2="212.018" gradientTransform="matrix(1 0 0 -1 219 230.686)" gradientUnits="userSpaceOnUse"><stop offset=".18" stop-color="#5ea0ef"></stop><stop offset="1" stop-color="#0078d4"></stop></linearGradient>
</defs>
</svg>