<svg viewBox="0 0 19 19" class="" role="presentation" focusable="false" xmlns="http://www.w3.org/2000/svg" xmlns:xlink="http://www.w3.org/1999/xlink" id="FxSymbol0-235" data-type="1"><g><path fill="#1b93eb" d="M16.82 8.886c0 4.81-5.752 8.574-7.006 9.411a.477.477 0 0 1-.523 0C8.036 17.565 2.18 13.7 2.18 8.886V3.135a.451.451 0 0 1 .42-.419C7.2 2.612 6.154.625 9.5.625s2.3 1.987 6.8 2.091a.479.479 0 0 1 .523.419z"></path><path fill="url(#406fd2f9-470a-4939-b13a-553c6cc30f0e)" d="M16.192 8.99c0 4.392-5.333 7.947-6.483 8.575a.319.319 0 0 1-.418 0c-1.15-.732-6.483-4.183-6.483-8.575V3.762a.575.575 0 0 1 .313-.523C7.2 3.135 6.258 1.357 9.4 1.357s2.2 1.882 6.274 1.882a.45.45 0 0 1 .419.418z"></path><path d="M9.219 5.378a.313.313 0 0 1 .562 0l.875 1.772a.314.314 0 0 0 .236.172l1.957.284a.314.314 0 0 1 .174.535l-1.416 1.38a.312.312 0 0 0-.09.278l.334 1.949a.313.313 0 0 1-.455.33l-1.75-.92a.314.314 0 0 0-.292 0l-1.75.92a.313.313 0 0 1-.455-.33L7.483 9.8a.312.312 0 0 0-.09-.278L5.977 8.141a.314.314 0 0 1 .174-.535l1.957-.284a.314.314 0 0 0 .236-.172z" class="msportalfx-svg-c01" fill="#ffffff"></path></g><defs>
<linearGradient id="406fd2f9-470a-4939-b13a-553c6cc30f0e" x1="-209.5" x2="-209.5" y1="213.634" y2="229.92" gradientTransform="matrix(1 0 0 -1 219 230.686)" gradientUnits="userSpaceOnUse"><stop offset="0" stop-color="#1b93eb"></stop><stop offset=".21" stop-color="#2095eb"></stop><stop offset=".44" stop-color="#2e9ced"></stop><stop offset=".69" stop-color="#45a7ef"></stop><stop offset=".95" stop-color="#64b6f1"></stop><stop offset="1" stop-color="#6bb9f2"></stop></linearGradient>
</defs>
</svg>