<svg viewBox="0 0 18 18" class="" role="presentation" focusable="false" xmlns:svg="http://www.w3.org/2000/svg" xmlns:xlink="http://www.w3.org/1999/xlink" id="FxSymbol0-003" data-type="1"><g><path d="M16.083 8.438c0 4.571-5.626 8.25-6.85 9a.449.449 0 0 1-.466 0c-1.224-.747-6.85-4.426-6.85-9v-5.5a.44.44 0 0 1 .434-.438C6.728 2.386 5.72.5 9 .5s2.272 1.886 6.649 2a.44.44 0 0 1 .434.435z" fill="#76bc2d"></path><path d="M15.5 8.485c0 4.191-5.16 7.566-6.282 8.25a.412.412 0 0 1-.428 0c-1.126-.684-6.29-4.059-6.29-8.25V3.441a.4.4 0 0 1 .4-.4C6.916 2.935 5.992 1.205 9 1.205s2.084 1.73 6.1 1.837a.4.4 0 0 1 .4.4z" fill="url(#f36136e6-f568-4134-ab6f-c0fefbc04f83)"></path><path d="M11.853 7.66h-.408V6.243a2.652 2.652 0 0 0-.7-1.809 2.358 2.358 0 0 0-3.483 0 2.606 2.606 0 0 0-.7 1.808V7.66h-.415a.328.328 0 0 0-.326.32v3.682a.329.329 0 0 0 .326.32h5.706a.329.329 0 0 0 .326-.32V7.98a.328.328 0 0 0-.326-.32zm-1.549 0H7.7V6.219a1.434 1.434 0 0 1 .41-.99 1.2 1.2 0 0 1 1.788 0 1.394 1.394 0 0 1 .153.2 1.445 1.445 0 0 1 .258.791z" class="msportalfx-svg-c01" fill="#ffffff"></path><path d="M6.148 7.658h5.705a.328.328 0 0 1 .21.08L5.938 11.9a.313.313 0 0 1-.116-.241v-3.68a.328.328 0 0 1 .326-.321z" fill="#b3b3b3" opacity=".15"></path><path d="M11.853 7.658H6.147a.328.328 0 0 0-.209.08l6.124 4.162a.314.314 0 0 0 .117-.241v-3.68a.329.329 0 0 0-.326-.321z" fill="#a3a3a3" opacity=".09"></path></g><defs>
<linearGradient id="f36136e6-f568-4134-ab6f-c0fefbc04f83" x1="9" y1="16.795" x2="9" y2="1.205" gradientUnits="userSpaceOnUse"><stop offset="0" stop-color="#5e9624"></stop><stop offset=".321" stop-color="#639d26"></stop><stop offset=".794" stop-color="#6fb12a"></stop><stop offset=".999" stop-color="#76bc2d"></stop></linearGradient>
</defs>
</svg>