<svg viewBox="0 0 612 792" class="" role="presentation" focusable="false" xmlns:svg="http://www.w3.org/2000/svg" xmlns:xlink="http://www.w3.org/1999/xlink" id="FxSymbol0-0ba" data-type="1"><g><title></title><path d="M399 118c61 0 122 0 183-.1 3.4 0 4.1.7 4.1 4.1-.1 60.7-.1 121.3-.1 182-58.9 0-117.8 0-176.8-.1-3.1 0-6.2 1.5-9.2.1-.3-.3-.6-.7-1-1V118z" class="msportalfx-svg-c19" fill="#0072c6"></path><path d="M28 304h185.8l.4-.1c-.1 2.2-.2 4.3-.2 6.5V490l.1-.1h-186C28 428 28 366 28 304z" class="msportalfx-svg-c15" fill="#59b4d9"></path><path d="M28 490h186v186c-60.7 0-121.3 0-182 .1-3.4 0-4.1-.7-4.1-4.1.1-60.7.1-121.3.1-182z" class="msportalfx-svg-c19" fill="#0072c6"></path><path d="M214 676V490l-.1.1h179.6c2.2 0 4.3-.2 6.5-.2l-.1.4v185.8C338 676 276 676 214 676z" class="msportalfx-svg-c15" fill="#59b4d9"></path><path d="M586 490H406c-2 0-4 .1-6 .2l.1-.4c0-61.9 0-123.8-.1-185.8 3.1 1.5 6.2-.1 9.2-.1 59 .1 117.9.1 176.8.1v186zM213.8 304c.1-5.1.2-10.3.2-15.4V118h185v185c-1.1 1.4-2.7 1-4.2 1h-181z" class="msportalfx-svg-c16" fill="#3999c6"></path><path d="M214.3 303.9h180.6c1.4 0 3 .4 4.2-1 .3.3.6.7 1 1 0 61.9 0 123.8.1 185.8-2.2.1-4.3.2-6.5.2H214.1V310.3c-.1-2.1.1-4.2.2-6.4z" class="msportalfx-svg-c19" fill="#0072c6"></path></g><defs>
<linearGradient id="a" x1="9" y1="16.39" x2="9" y2="-1.94" gradientUnits="userSpaceOnUse"><stop offset="0" stop-color="#0078d4"></stop><stop offset=".16" stop-color="#1380da"></stop><stop offset=".53" stop-color="#3c91e5"></stop><stop offset=".82" stop-color="#559cec"></stop><stop offset="1" stop-color="#5ea0ef"></stop></linearGradient>
<linearGradient id="b" x1="9.88" y1="7.11" x2="9.99" y2="17.27" gradientUnits="userSpaceOnUse"><stop offset="0" stop-color="#32d4f5"></stop><stop offset=".32" stop-color="#31d1f3"></stop><stop offset=".53" stop-color="#2ec9eb"></stop><stop offset=".7" stop-color="#29bade"></stop><stop offset=".86" stop-color="#22a5cb"></stop><stop offset="1" stop-color="#198ab3"></stop><stop offset="1" stop-color="#198ab3"></stop></linearGradient>
<radialGradient id="c" cx="9.43" cy="7.03" r="7.27" gradientUnits="userSpaceOnUse"><stop offset="0" stop-color="#f2f2f2"></stop><stop offset=".58" stop-color="#eee"></stop><stop offset="1" stop-color="#e6e6e6"></stop></radialGradient>
</defs>
</svg>