<svg viewBox="0 0 18 18" class="" role="presentation" focusable="false" xmlns="http://www.w3.org/2000/svg" xmlns:xlink="http://www.w3.org/1999/xlink" id="FxSymbol0-08a" data-type="1"><g><path fill="#e27908" d="m10.15 2.978-1.267-.93-1.246.92-5.905 4.209 2.298 6.948.481 1.471h1.894v-1.47l-.832-.001L3.53 7.77l5.353-3.862 5.395 3.872-.357 1.109h1.547v.056l.567-1.717v-.051L10.15 2.978z"></path><circle cx="4.868" cy="15.054" r="2.524" fill="url(#59616712-f700-4139-92c6-bd98d17f019e)"></circle><circle cx="15.32" cy="7.494" r="2.524" fill="url(#59616712-f700-4139-92c6-bd98d17f019f)"></circle><circle cx="2.68" cy="7.494" r="2.524" fill="url(#59616712-f700-4139-92c6-bd98d17f01a0)"></circle><circle cx="8.883" cy="2.891" r="2.524" fill="url(#59616712-f700-4139-92c6-bd98d17f01a1)"></circle><path d="m13.211 16.532.583-.244 1.012.466.606-.606-.059-.118-.421-.8.17-.606.968-.4v-.864l-.045-.037-.9-.31-.229-.591.458-.887.044-.1-.273-.295-.325-.34-.118.059-.865.443-.591-.17-.376-.96h-.857l-.045.044-.295.879-.606.229-1-.473-.606.606.059.118.451.857-.244.591-1.04.377v.864l.126.037.916.3.244.628-.473 1 .606.613.118-.051.864-.443.591.243.377 1.042h.872m-.466-2.608a1.212 1.212 0 1 1 1.205-1.219 1.219 1.219 0 0 1-1.205 1.219Z" fill="url(#59616712-f700-4139-92c6-bd98d17f01a2)"></path></g><defs>
<linearGradient id="59616712-f700-4139-92c6-bd98d17f019e" x1="2594.032" y1="1204.356" x2="2594.005" y2="1194.252" gradientTransform="matrix(.5 0 0 .5 -1290.942 -587.969)" gradientUnits="userSpaceOnUse"><stop offset="0" stop-color="#ef7100"></stop><stop offset="1" stop-color="#faa21d"></stop></linearGradient>
<linearGradient id="59616712-f700-4139-92c6-bd98d17f019f" x1="15.32" y1="781.498" x2="15.32" y2="786.545" gradientTransform="matrix(1 0 0 -1 0 791.516)" gradientUnits="userSpaceOnUse"><stop offset="0" stop-color="#ef7100"></stop><stop offset="1" stop-color="#faa21d"></stop></linearGradient>
<linearGradient id="59616712-f700-4139-92c6-bd98d17f01a0" x1="2.68" y1="781.498" x2="2.68" y2="786.545" gradientTransform="matrix(1 0 0 -1 0 791.516)" gradientUnits="userSpaceOnUse"><stop offset="0" stop-color="#ef7100"></stop><stop offset="1" stop-color="#faa21d"></stop></linearGradient>
<linearGradient id="59616712-f700-4139-92c6-bd98d17f01a1" x1="8.883" y1="786.102" x2="8.883" y2="791.149" gradientTransform="matrix(1 0 0 -1 0 791.516)" gradientUnits="userSpaceOnUse"><stop offset="0" stop-color="#ef7100"></stop><stop offset="1" stop-color="#faa21d"></stop></linearGradient>
<linearGradient id="59616712-f700-4139-92c6-bd98d17f01a2" x1="12.368" y1="17.633" x2="12.368" y2="10.172" gradientUnits="userSpaceOnUse"><stop offset="0" stop-color="#773adc"></stop><stop offset=".204" stop-color="#7b3fde"></stop><stop offset=".459" stop-color="#864fe4"></stop><stop offset=".741" stop-color="#9968ed"></stop><stop offset=".899" stop-color="#a67af4"></stop></linearGradient>
</defs>
</svg>