<svg viewBox="0 0 18 18" class="" role="presentation" focusable="false" xmlns:svg="http://www.w3.org/2000/svg" xmlns:xlink="http://www.w3.org/1999/xlink" id="FxSymbol0-053" data-type="1"><g><title>Icon-general-4</title><path d="M8.66 17.12c8.18-5.86 8.46-9.28 8.49-10.35.05-1.5-.15-5.41-4.15-5.72A4.26 4.26 0 0 0 8.66 3.9a4.28 4.28 0 0 0-4.39-2.85C.32 1.36.11 5.27.16 6.77c0 1.07.32 4.49 8.5 10.35" fill="url(#a)"></path><path d="M17.15 6.77C17.2 5.27 17 1.36 13 1.05A4.26 4.26 0 0 0 8.66 3.9a4.28 4.28 0 0 0-4.39-2.85C.32 1.36.11 5.27.16 6.77c0 1.07.24 4.44 8.43 10.3" fill="none"></path><path d="M17.15 6.18h-4a.17.17 0 0 0-.13.07l-1.21 2.09a.16.16 0 0 1-.27 0L9.81 5.05a.31.31 0 0 0-.56 0L7.59 10a.16.16 0 0 1-.29 0L5.88 6.71a.31.31 0 0 0-.55 0L3.39 10.2a.16.16 0 0 1-.13.08H1.42a13 13 0 0 0 .9 1.22H4a.13.13 0 0 0 .13-.08l1.21-2.23a.16.16 0 0 1 .28 0l1.66 3.86a.31.31 0 0 0 .58 0l1.75-5.2a.15.15 0 0 1 .28 0l1.46 2.77a.3.3 0 0 0 .53 0l1.86-3.13a.16.16 0 0 1 .13-.08h3.23" class="msportalfx-svg-c01" fill="#ffffff"></path></g><defs>
<linearGradient id="a" x1="9" y1="16.39" x2="9" y2="-1.94" gradientUnits="userSpaceOnUse"><stop offset="0" stop-color="#0078d4"></stop><stop offset=".16" stop-color="#1380da"></stop><stop offset=".53" stop-color="#3c91e5"></stop><stop offset=".82" stop-color="#559cec"></stop><stop offset="1" stop-color="#5ea0ef"></stop></linearGradient>
<linearGradient id="b" x1="9.88" y1="7.11" x2="9.99" y2="17.27" gradientUnits="userSpaceOnUse"><stop offset="0" stop-color="#32d4f5"></stop><stop offset=".32" stop-color="#31d1f3"></stop><stop offset=".53" stop-color="#2ec9eb"></stop><stop offset=".7" stop-color="#29bade"></stop><stop offset=".86" stop-color="#22a5cb"></stop><stop offset="1" stop-color="#198ab3"></stop><stop offset="1" stop-color="#198ab3"></stop></linearGradient>
<radialGradient id="c" cx="9.43" cy="7.03" r="7.27" gradientUnits="userSpaceOnUse"><stop offset="0" stop-color="#f2f2f2"></stop><stop offset=".58" stop-color="#eee"></stop><stop offset="1" stop-color="#e6e6e6"></stop></radialGradient>
</defs>
</svg>