<svg viewBox="0 0 50 50" class="" role="presentation" focusable="false" xmlns:svg="http://www.w3.org/2000/svg" xmlns:xlink="http://www.w3.org/1999/xlink" id="FxSymbol0-051" data-type="1"><g><title></title><path d="M.833 0C.333 0 0 .333 0 .833v10c0 .5.333.833.833.833h5c.5 0 .833-.333.833-.833V6.667h36.667v4.167c0 .5.333.833 1 .833h4.833c.5 0 .833-.333.833-.833v-10C50 .333 49.667 0 49.167 0H.833zm48.334 50c.5 0 .833-.333.833-.833v-9.833c0-.5-.333-.833-.833-.833h-4.833c-.5 0-.833.333-.833.833v4H6.667v-4.167c0-.5-.333-.833-1-.833H.833c-.5 0-.833.333-.833 1v9.833c0 .5.333.833.833.833h48.334z" class="msportalfx-svg-c19" fill="#0072c6"></path><path d="M29.857 26.098C28.56 27.395 26.835 28.11 25 28.11s-3.56-.714-4.858-2.012l-9.309-9.309v18.923h28.333V16.788l-9.309 9.31z" class="msportalfx-svg-c15" fill="#59b4d9"></path><path d="M25 26.728a5.451 5.451 0 0 0 3.88-1.607l10.286-10.286v-.545H10.833v.546L21.119 25.12A5.452 5.452 0 0 0 25 26.728z" class="msportalfx-svg-c15" fill="#59b4d9"></path></g><defs>
<linearGradient id="a" x1="-1267.23" y1="3.07" x2="-1267.52" y2="14.64" gradientTransform="matrix(-1 0 0 1 -1256.13 0)" gradientUnits="userSpaceOnUse"><stop offset="0" stop-color="#32d4f5"></stop><stop offset=".23" stop-color="#31d0f1"></stop><stop offset=".46" stop-color="#2cc3e6"></stop><stop offset=".7" stop-color="#25afd4"></stop><stop offset=".94" stop-color="#1c92ba"></stop><stop offset="1" stop-color="#198ab3"></stop></linearGradient>
<linearGradient id="b" x1="6.05" y1="11.51" x2="6.05" y2="3" gradientUnits="userSpaceOnUse"><stop offset="0" stop-color="#0078d4"></stop><stop offset=".82" stop-color="#5ea0ef"></stop></linearGradient>
<linearGradient id="c" x1="10.51" y1="6.82" x2="7.93" y2="10.5" gradientUnits="userSpaceOnUse"><stop offset="0" stop-color="#005ba1"></stop><stop offset=".14" stop-color="#035da3" stop-opacity=".97"></stop><stop offset=".3" stop-color="#0b63aa" stop-opacity=".88"></stop><stop offset=".47" stop-color="#196eb6" stop-opacity=".73"></stop><stop offset=".65" stop-color="#2d7cc6" stop-opacity=".52"></stop><stop offset=".84" stop-color="#468edb" stop-opacity=".26"></stop><stop offset="1" stop-color="#5ea0ef" stop-opacity="0"></stop></linearGradient>
</defs>
</svg>