<svg viewBox="0 0 18 18" class="" role="presentation" focusable="false" xmlns="http://www.w3.org/2000/svg" xmlns:xlink="http://www.w3.org/1999/xlink" id="FxSymbol0-1ad" data-type="1"><g><path d="M9.234 10.94a.428.428 0 0 1 .213-.37l3.98-2.311a.427.427 0 0 1 .205-.057 6.694 6.694 0 1 0-4.397 4.982Z" fill="url(#59616712-f700-4139-92c6-bd98d17f0438)"></path><path d="M1.743 10.951a6.722 6.722 0 0 0 .978.922l1.662-1.662-.95-.95Z" fill="#b796f9"></path><path d="M3.724 5.338a3.187 3.187 0 0 0 4.507 4.508l1.461-1.462-4.506-4.507Z" fill="url(#59616712-f700-4139-92c6-bd98d17f0439)"></path><path d="m9.336 2.21.09.089a.48.48 0 0 1 0 .678l-1.83 1.828-.766-.766L8.66 2.21a.48.48 0 0 1 .678 0Zm1.896 1.895.088.089a.48.48 0 0 1 0 .678l-1.83 1.83-.766-.766 1.83-1.83a.48.48 0 0 1 .679 0Z" fill="#f2f2f2"></path><rect x="7.211" y="1.81" width="1.414" height="7.603" rx=".24" transform="rotate(-45 7.918 5.611)" fill="#b796f9"></rect><path fill="#32bedd" d="M17.613 10.931v4.599l-3.974 2.311v-4.605l3.974-2.305z"></path><path fill="#9cebff" d="m17.613 10.931-3.974 2.311-3.98-2.316 3.98-2.311 3.974 2.316z"></path><path fill="#50e6ff" d="M13.639 13.242v4.599l-3.98-2.311v-4.604l3.98 2.316z"></path></g><defs>
<linearGradient id="59616712-f700-4139-92c6-bd98d17f0438" x1="7.078" y1="13.541" x2="7.078" y2=".159" gradientUnits="userSpaceOnUse"><stop offset=".001" stop-color="#773adc"></stop><stop offset="1" stop-color="#a67af4"></stop></linearGradient>
<linearGradient id="59616712-f700-4139-92c6-bd98d17f0439" x1="384.582" y1="-227.631" x2="379.702" y2="-232.511" gradientTransform="scale(1 -1) rotate(45 -74.683 -572.457)" gradientUnits="userSpaceOnUse"><stop offset="0" stop-color="#fff" stop-opacity=".7"></stop><stop offset=".997" stop-color="#fff"></stop></linearGradient>
</defs>
</svg>