<svg viewBox="0 0 18 18" data-islogo="true" class="" role="presentation" focusable="false" xmlns:svg="http://www.w3.org/2000/svg" xmlns:xlink="http://www.w3.org/1999/xlink" id="FxSymbol0-060" data-type="1"><g><title>Icon-networking-85</title><path d="M13.35 2.88a2.31 2.31 0 0 1 2.3-2.32 1.86 1.86 0 0 1 1.59 1.88 1.86 1.86 0 0 1-.41 1.18.71.71 0 0 1-.55.26h-3z" fill="#0078d4"></path><path d="M13.56.51h-9A2.29 2.29 0 0 0 2.29 2.8v14.69h9a2.29 2.29 0 0 0 2.29-2.29V5.29a25.76 25.76 0 0 1 0-3C13.94.3 16.09.65 16.09.65a11.13 11.13 0 0 0-2.53-.14z" fill="url(#b5baf554-e9b4-4fe7-b8e9-cf87296b34cc)"></path><path d="M8 11.64v-4.7a.53.53 0 0 0 .27-.46.54.54 0 0 0-.54-.54.54.54 0 0 0-.26 1v4.7a.55.55 0 0 0-.27.47.54.54 0 1 0 1.07 0 .55.55 0 0 0-.27-.47z" fill="#f2f2f2"></path><path d="M11.45 17.43a1.84 1.84 0 0 1-.89-3.24.23.23 0 0 0-.15-.41H2.3a1.85 1.85 0 0 0 0 3.64 1.36 1.36 0 0 0 .29 0z" fill="#5ea0ef"></path><circle cx="9.44" cy="6.49" r=".55" fill="#f2f2f2"></circle><circle cx="7.69" cy="6.49" r=".55" fill="#f2f2f2"></circle><circle cx="5.95" cy="6.49" r=".55" fill="#f2f2f2"></circle><path d="M6 9l.32-.32a.15.15 0 0 0 0-.2L3.83 6l-.32.32a.28.28 0 0 0 0 .4L5.83 9A.15.15 0 0 0 6 9z" fill="#b3b3b3"></path><path d="M6.3 4.3L6 4a.15.15 0 0 0-.2 0L3.51 6.27a.28.28 0 0 0 0 .4l.31.33L6.3 4.5a.13.13 0 0 0 0-.2z" fill="#f2f2f2"></path><path d="M9.32 9L9 8.67a.13.13 0 0 1 0-.2L11.53 6l.31.32a.28.28 0 0 1 0 .4L9.52 9a.15.15 0 0 1-.2 0z" fill="#b3b3b3"></path><path d="M9.05 4.3l.32-.3a.15.15 0 0 1 .2 0l2.27 2.28a.28.28 0 0 1 0 .4l-.31.32-2.48-2.5a.15.15 0 0 1 0-.2z" fill="#f2f2f2"></path></g><defs>
<linearGradient id="b5baf554-e9b4-4fe7-b8e9-cf87296b34cc" x1="9.19" y1="17.5" x2="9.19" y2=".5" gradientUnits="userSpaceOnUse"><stop offset="0" stop-color="#0078d4"></stop><stop offset=".82" stop-color="#5ea0ef"></stop></linearGradient>
</defs>
</svg>