<svg viewBox="0 0 16.127 16.205" class="" role="presentation" focusable="false" xmlns="http://www.w3.org/2000/svg" xmlns:xlink="http://www.w3.org/1999/xlink" id="FxSymbol0-21d" data-type="1"><g><title></title><title>Asset 1</title><path d="m4.827 4.705-.5 1.1a6.589 6.589 0 0 0-.3 1h-2.9a27.328 27.328 0 0 0 5 3.6 5.483 5.483 0 0 1 5.4-4.4h.5c1.1-1.7 1.5-3.6 0-5.2-1.3-1.4-3.9-.8-5.5 1.4-1.9-2.4-4.3-2.8-5.6-1.4-1.4 1.5-1 3.2-.2 4.6h1.4l1.3-.1 1-2.6c.1-.2.2-.5.6-.5s.5.3.9.5v4.3l.3-1.5c.1-.1.2-.2.3-.8h4.2c.2.6.4.8.4 1s-.4.1-.4.1h-3.8l-1.3 3.1a.462.462 0 0 1-.5.3.271.271 0 0 1-.2-.4v-4.1Z" class="msportalfx-svg-c15" fill="#59b4d9"></path><path d="M11.527 7.005a5.019 5.019 0 0 1 1.2.2 5.359 5.359 0 0 1 1.1.5 5.5 5.5 0 0 1 .9.7 5.5 5.5 0 0 1 .7.9 11.731 11.731 0 0 1 .5 1.1 5.019 5.019 0 0 1 .2 1.2 5.019 5.019 0 0 1-.2 1.2 5.359 5.359 0 0 1-.5 1.1 5.5 5.5 0 0 1-.7.9 5.5 5.5 0 0 1-.9.7 11.731 11.731 0 0 1-1.1.5 5.019 5.019 0 0 1-1.2.2 5.019 5.019 0 0 1-1.2-.2 5.359 5.359 0 0 1-1.1-.5 5.5 5.5 0 0 1-.9-.7 5.5 5.5 0 0 1-.7-.9 11.731 11.731 0 0 1-.5-1.1c0-.5-.1-.9-.1-1.3a5.019 5.019 0 0 1 .2-1.2 5.359 5.359 0 0 1 .5-1.1 2.361 2.361 0 0 1 .6-.9 5.5 5.5 0 0 1 .9-.7 11.731 11.731 0 0 1 1.1-.5 2.462 2.462 0 0 1 1.2-.1Z" class="msportalfx-svg-c22" fill="#a4262c"></path><path d="m13.427 9.905-1.5 1.6 1.5 1.6-.3.3-1.6-1.5-1.6 1.5-.3-.3 1.5-1.6-1.5-1.6.3-.3 1.6 1.5 1.6-1.5.3.3z" class="msportalfx-svg-c01" fill="#ffffff"></path></g><defs>
</defs>
</svg>