<svg viewBox="0 0 40 40" class="" role="presentation" focusable="false" xmlns="http://www.w3.org/2000/svg" xmlns:xlink="http://www.w3.org/1999/xlink" id="FxSymbol0-0f5" data-type="1"><g><title></title><path d="M24.314 17.118l3.022.005a3.092 3.092 0 0 1 3.365-2.421 3.102 3.102 0 0 1 2.742 3.417 3.093 3.093 0 0 1-3.417 2.742 3.102 3.102 0 0 1-2.685-2.413l-3.027-.005v7.401l3.113 3.12a5.417 5.417 0 0 1 3.292-1.125c1.65 0 3.187.738 4.22 2.024.023.031.044.063.068.094A16.9 16.9 0 0 0 40 17.954C40 8.605 32.392 1 23.038 1c-5.655 0-10.67 2.782-13.752 7.048h15.028v9.07zm2.17 12.776l-3.015-3.017H8.625c2.996 4.818 8.334 8.034 14.416 8.034.847 0 1.675-.065 2.488-.183a5.425 5.425 0 0 1 .955-4.834z" fill="#919191"></path><path d="M18.091 16.482h-4.326v-4.167h-2.353v10.442h2.353v-4.251h4.326v4.253h2.361V12.315h-2.36v4.167zM6.816 22.903c.24-.028.478-.065.719-.117.502-.113 1.738-.348 2.407-1.674.204-.405.332-.883.332-1.466 0-.424-.062-.792-.188-1.111a2.588 2.588 0 0 0-.546-.85 3.968 3.968 0 0 0-.855-.667 9.24 9.24 0 0 0-1.127-.557 12.78 12.78 0 0 1-.823-.368 4.146 4.146 0 0 1-.513-.296c-.034-.023-.076-.047-.107-.07-.17-.123-.3-.254-.392-.392a.835.835 0 0 1-.139-.47.81.81 0 0 1 .123-.435 1.1 1.1 0 0 1 .35-.332c.142-.086.317-.154.518-.204.013-.002.024-.008.037-.01.22-.053.46-.076.73-.076a4.718 4.718 0 0 1 1.267.18c.22.06.432.139.638.23.207.092.397.199.573.322v-2.178c-.487-.225-1.69-.4-2.61-.4h-.028c-2.5.01-3.527 1.31-3.744 1.7-.22.392-.327.857-.327 1.4 0 .696.201 1.287.601 1.778.4.492 1.01.905 1.825 1.245.194.078.38.16.557.235.115.05.23.1.337.15.277.125.515.256.72.391.2.136.36.285.478.445a.901.901 0 0 1 .065.965.965.965 0 0 1-.332.334c-.149.094-.324.17-.554.223a5.49 5.49 0 0 1-.46.08c-2.696.393-5.462-1-6.348-1.388v2.15c.86.216 3.867 1.584 6.816 1.233zm23.354-3.359zM4.75 31.418a1.773 1.773 0 1 0 .196.01c-.068-.004-.13-.01-.196-.01z" class="msportalfx-svg-c01" fill="#ffffff"></path><path d="M34.939 29.863a5.385 5.385 0 0 0-4.22-2.024c-1.187 0-2.35.4-3.292 1.124l-3.113-3.119v-7.4l3.027.004a3.104 3.104 0 0 0 3.025 2.432 3.093 3.093 0 0 0 3.077-2.761 3.102 3.102 0 0 0-3.082-3.435 3.092 3.092 0 0 0-3.025 2.439l-3.022-.005V8.046H0V19.52c.886.387 3.652 1.78 6.34 1.391.154-.02.306-.047.46-.081.23-.052.405-.128.554-.222a.965.965 0 0 0 .332-.335.897.897 0 0 0-.065-.965 1.88 1.88 0 0 0-.479-.444 4.913 4.913 0 0 0-.718-.392c-.11-.05-.223-.1-.338-.15a19.634 19.634 0 0 0-.557-.234c-.815-.34-1.424-.756-1.824-1.245-.4-.491-.602-1.082-.602-1.778 0-.543.11-1.011.327-1.401.217-.39 1.247-1.689 3.744-1.7h.029c.92 0 2.12.176 2.609.4v2.178a3.768 3.768 0 0 0-.573-.321 4.532 4.532 0 0 0-.638-.23 5.459 5.459 0 0 0-.65-.136 4.246 4.246 0 0 0-.615-.045c-.267 0-.51.027-.73.076-.013.003-.023.008-.036.01-.201.05-.377.118-.518.205a1.072 1.072 0 0 0-.35.332.772.772 0 0 0-.123.434.83.83 0 0 0 .139.47c.091.139.222.27.392.392.031.024.073.048.107.071.149.1.316.199.512.295.244.12.518.24.824.369.418.175.792.36 1.127.557.332.196.617.418.855.667.238.248.42.53.546.85.126.318.188.687.188 1.11 0 .583-.128 1.062-.332 1.467-.669 1.326-1.906 1.563-2.408 1.673a7.497 7.497 0 0 1-.719.118c-2.943.348-5.95-1.02-6.81-1.237v5.206h4.091l-.005 3.291a3.091 3.091 0 0 0-2.413 2.685 3.1 3.1 0 0 0 3.083 3.435 3.093 3.093 0 0 0 3.077-2.76 3.101 3.101 0 0 0-2.421-3.365l.005-3.29h18.055l3.014 3.02a5.429 5.429 0 0 0-.957 4.832 5.38 5.38 0 0 0 5.195 3.921c1.224 0 2.424-.42 3.38-1.19a5.406 5.406 0 0 0 .903-7.502c-.024-.027-.042-.06-.068-.09zM28.6 17.588a1.774 1.774 0 1 1 3.526.39 1.774 1.774 0 0 1-3.526-.39zM6.515 33.387a1.773 1.773 0 1 1-3.526-.389 1.773 1.773 0 0 1 3.526.389zm13.937-10.628h-2.36v-4.253h-4.327v4.248h-2.353V12.315h2.353v4.165h4.326v-4.165h2.361v10.444zm12.824 13.666a4.08 4.08 0 0 1-5.736-.63 4.075 4.075 0 0 1-.11-4.955c.21-.285.452-.549.74-.779.065-.052.136-.102.204-.149a4.07 4.07 0 0 1 2.345-.747 4.079 4.079 0 0 1 2.557 7.26z" fill="#2F2F2F"></path><path d="M33.906 30.692a4.073 4.073 0 0 0-5.532-.78c-.068.05-.139.097-.204.15-.288.23-.533.493-.74.778a4.075 4.075 0 0 0 3.297 6.482 4.079 4.079 0 0 0 3.18-6.63z" class="msportalfx-svg-c01" fill="#ffffff"></path></g><defs>
</defs>
</svg>