<svg viewBox="0 0 50 50" class="" role="presentation" focusable="false" xmlns:svg="http://www.w3.org/2000/svg" xmlns:xlink="http://www.w3.org/1999/xlink" id="FxSymbol0-0d3" data-type="1"><g><title></title><path fill="#646565" d="M2 9h5.5v1H3s-1 0-1-1z"></path><path opacity=".5" fill="#646565" d="M6 6H5a3 3 0 0 0-3 3h1a2 2 0 0 1 2-2h1V6z"></path><path fill="#646565" d="M2 15h5.5v1H3s-1 0-1-1z"></path><path opacity=".5" fill="#646565" d="M6 12H5a3 3 0 0 0-3 3h1a2 2 0 0 1 2-2h1v-1z"></path><path fill="#646565" d="M2 21h5.5v1H3s-1 0-1-1z"></path><path opacity=".5" fill="#646565" d="M6 18H5a3 3 0 0 0-3 3h1a2 2 0 0 1 2-2h1v-1z"></path><path fill="#646565" d="M2 27h5.5v1H3s-1 0-1-1z"></path><path opacity=".5" fill="#646565" d="M6 24H5a3 3 0 0 0-3 3h1a2 2 0 0 1 2-2h1v-1z"></path><path fill="#646565" d="M2 33h5.5v1H3s-1 0-1-1z"></path><path opacity=".5" fill="#646565" d="M6 30H5a3 3 0 0 0-3 3h1a2 2 0 0 1 2-2h1v-1z"></path><path fill="#646565" d="M2 39h5.5v1H3s-1 0-1-1z"></path><path opacity=".5" fill="#646565" d="M6 36H5a3 3 0 0 0-3 3h1a2 2 0 0 1 2-2h1v-1z"></path><path fill="#646565" d="M2 45h5.5v1H3s-1 0-1-1z"></path><path opacity=".5" fill="#646565" d="M6 42H5a3 3 0 0 0-3 3h1a2 2 0 0 1 2-2h1v-1z"></path><path d="M14 2c-3 0-7 3-7 3h2v42h35v2l3-3V2H14z" class="msportalfx-svg-c19" fill="#0072c6"></path><path opacity=".75" d="M12 3L8.5 5H10v43h34l2-2V3z" class="msportalfx-svg-c01" fill="#ffffff"></path><path opacity=".8" d="M12.5 3L9 5h35l2-2z" class="msportalfx-svg-c01" fill="#ffffff"></path><path d="M6 50v-3h2l1-1v-1l-1-1H6v-3h2l1-1v-1l-1-1H6v-3h2l1-1v-1l-1-1H6v-3h2l1-1v-1l-1-1H6v-3h2l1-1v-1l-1-1H6v-3h2l1-1v-1l-1-1H6v-3h2l1-1V9L8 8H6V5h38v45H6z" class="msportalfx-svg-c19" fill="#0072c6"></path><path d="M28.657 31.053a.143.143 0 0 0 .068-.017l4.445-2.462a.126.126 0 0 0 .068-.112v-4.94a.13.13 0 0 0-.068-.113.148.148 0 0 0-.136 0L28.59 25.87a.13.13 0 0 0-.066.113v4.941c0 .047.025.089.066.112a.136.136 0 0 0 .067.017m0 6.506a.143.143 0 0 0 .068-.017l4.445-2.462a.126.126 0 0 0 .068-.112v-4.94a.13.13 0 0 0-.068-.113.148.148 0 0 0-.136 0l-4.444 2.462a.13.13 0 0 0-.066.113v4.941a.127.127 0 0 0 .133.128m5.761-9.759a.15.15 0 0 0 .069-.017l4.445-2.462a.126.126 0 0 0 .068-.112v-4.94a.128.128 0 0 0-.069-.113.148.148 0 0 0-.136 0l-4.444 2.462a.13.13 0 0 0-.066.113v4.941c0 .047.025.089.066.112a.153.153 0 0 0 .067.016m0 6.506a.15.15 0 0 0 .069-.017l4.445-2.462a.126.126 0 0 0 .068-.112v-4.94a.128.128 0 0 0-.069-.113.148.148 0 0 0-.136 0l-4.444 2.462a.13.13 0 0 0-.066.113v4.941c0 .047.025.089.066.112a.153.153 0 0 0 .067.016m-7.075-3.253a.143.143 0 0 1-.068-.017l-4.445-2.462a.126.126 0 0 1-.068-.112v-4.94a.13.13 0 0 1 .068-.113.148.148 0 0 1 .136 0l4.444 2.462a.13.13 0 0 1 .066.113v4.941a.127.127 0 0 1-.133.128m0 6.506a.143.143 0 0 1-.068-.017L22.83 35.08a.126.126 0 0 1-.068-.112v-4.94a.13.13 0 0 1 .068-.113.148.148 0 0 1 .136 0l4.444 2.462a.13.13 0 0 1 .066.113v4.941a.127.127 0 0 1-.133.128M21.582 27.8a.143.143 0 0 1-.068-.017l-4.445-2.462a.125.125 0 0 1-.069-.112v-4.94a.13.13 0 0 1 .068-.113.148.148 0 0 1 .136 0l4.444 2.462a.13.13 0 0 1 .066.113v4.941a.127.127 0 0 1-.132.128m0 6.506a.143.143 0 0 1-.068-.017l-4.445-2.462a.125.125 0 0 1-.069-.112v-4.94a.13.13 0 0 1 .068-.113.148.148 0 0 1 .136 0l4.444 2.462a.13.13 0 0 1 .066.113v4.941a.127.127 0 0 1-.132.128m1.93-12.265a.126.126 0 0 1 .05-.047l4.417-2.4a.136.136 0 0 1 .134-.001l4.372 2.38a.123.123 0 0 1 .066.11.133.133 0 0 1-.068.11l-4.417 2.4a.142.142 0 0 1-.133-.001l-4.373-2.38a.121.121 0 0 1-.048-.171m-5.759-3.135a.13.13 0 0 1 .049-.047l4.368-2.4a.132.132 0 0 1 .132-.001l4.324 2.38c.04.022.065.063.065.11a.133.133 0 0 1-.068.11l-4.368 2.4a.138.138 0 0 1-.131-.001l-4.325-2.38a.122.122 0 0 1-.065-.107.142.142 0 0 1 .019-.064m11.639.053a.13.13 0 0 1 .049-.047l4.368-2.4a.132.132 0 0 1 .132-.001l4.324 2.38c.04.022.065.063.065.11a.133.133 0 0 1-.068.11l-4.368 2.4a.138.138 0 0 1-.131-.001l-4.325-2.38a.122.122 0 0 1-.065-.107.138.138 0 0 1 .019-.064m-5.858-3.093a.13.13 0 0 1 .05-.046l4.417-2.361a.141.141 0 0 1 .134-.001l4.372 2.341a.121.121 0 0 1 .066.108.132.132 0 0 1-.068.108l-4.417 2.361a.145.145 0 0 1-.133-.001l-4.373-2.342a.119.119 0 0 1-.066-.106c0-.023.007-.043.018-.061" class="msportalfx-svg-c01" fill="#ffffff"></path><path d="M23.136 43.167c-1.797 0-3.402-1.483-4.574-2.567-.335-.31-.651-.602-.86-.749-.772-.548-2.28-1.137-3.764-1.137l-1.375-.002a1.503 1.503 0 0 1-1.495-1.5v-4.653c0-.827.673-1.5 1.5-1.5h2.24l.111 1.002v-1c.644 0 1.647-.187 2.534-.352.71-.132 1.38-.256 1.938-.308.243-.021.491-.033.741-.033.707 0 3.096.115 4.132 1.597.122.17.685.846.941 1.053.216.174.753.359 1.613.359l.157-.002c.067-.002.225-.017.434-.035.597-.052 1.499-.131 2.183-.131.161 0 .31.005.438.015 1.308.097 2.016.987 2.139 1.827.047.32 0 .759-.175 1.164l.487-.238c1.542-.758 3.654-1.795 4.876-2.207a4.296 4.296 0 0 1 1.37-.236c.991 0 1.811.41 2.191 1.097.206.37.458 1.141-.163 2.137-.322.518-.834 1.019-1.404 1.373a455.094 455.094 0 0 1-3.273 2.006c-.465.283-.94.591-1.408.894-1.609 1.042-2.636 1.686-3.41 1.792a7.985 7.985 0 0 1-1.053.052c-.342 0-.723-.009-1.106-.018A47.395 47.395 0 0 0 28 42.849c-.265 0-.509.005-.713.021-.305.023-.648.058-1.019.096-.901.088-2.021.201-3.132.201z" class="msportalfx-svg-c19" fill="#0072c6"></path><path d="M37.577 34.816c-1.698.574-5.42 2.522-6.273 2.885-1.004.428-2.997.686-5.222.645-1.23-.023-2.109-.156-2.603-.616 0 0-1.761-1.43-2.118-1.781-.603-.595.177-1.498.785-1.022.447.35 1.196 1.102 1.924 1.646.728.545 3.297.291 4.36.217 1.225-.085 1.916-.323 2.189-.456.397-.193.497-.79.461-1.039-.053-.367-.39-.913-1.222-.974-.833-.062-2.682.148-2.956.155-1.281.031-2.038-.269-2.422-.578-.384-.31-1.042-1.126-1.134-1.259-.645-.923-2.435-1.281-3.962-1.14-1.274.117-3.435.696-4.675.661h-2.24a.5.5 0 0 0-.5.5v4.653a.5.5 0 0 0 .498.5l1.372.002c1.624 0 3.335.607 4.342 1.32s2.956 3.133 4.856 3.133c1.506 0 3.017-.216 4.076-.296s3.087.083 3.911-.03 2.773-1.537 4.422-2.541c1.009-.614 2.135-1.3 3.278-2.009.455-.283.851-.677 1.084-1.052.815-1.312-.589-2.079-2.231-1.524z" class="msportalfx-svg-c01" fill="#ffffff"></path></g><defs>
<linearGradient id="a" x1="9" y1="16.39" x2="9" y2="-1.94" gradientUnits="userSpaceOnUse"><stop offset="0" stop-color="#0078d4"></stop><stop offset=".16" stop-color="#1380da"></stop><stop offset=".53" stop-color="#3c91e5"></stop><stop offset=".82" stop-color="#559cec"></stop><stop offset="1" stop-color="#5ea0ef"></stop></linearGradient>
<linearGradient id="b" x1="9.88" y1="7.11" x2="9.99" y2="17.27" gradientUnits="userSpaceOnUse"><stop offset="0" stop-color="#32d4f5"></stop><stop offset=".32" stop-color="#31d1f3"></stop><stop offset=".53" stop-color="#2ec9eb"></stop><stop offset=".7" stop-color="#29bade"></stop><stop offset=".86" stop-color="#22a5cb"></stop><stop offset="1" stop-color="#198ab3"></stop><stop offset="1" stop-color="#198ab3"></stop></linearGradient>
<radialGradient id="c" cx="9.43" cy="7.03" r="7.27" gradientUnits="userSpaceOnUse"><stop offset="0" stop-color="#f2f2f2"></stop><stop offset=".58" stop-color="#eee"></stop><stop offset="1" stop-color="#e6e6e6"></stop></radialGradient>
</defs>
</svg>