<svg viewBox="0 0 50 50" class="" role="presentation" focusable="false" xmlns:svg="http://www.w3.org/2000/svg" xmlns:xlink="http://www.w3.org/1999/xlink" id="FxSymbol0-0d1" data-type="1"><g><title></title><path d="M43.9 9c0 4.886-4.014 8.9-8.9 8.9s-8.9-4.014-8.9-8.9S30.114.1 35 .1c4.973 0 8.9 4.014 8.9 8.9m-2.061 11l-6.885 9.36L28.161 20H21v23h28V20z" class="msportalfx-svg-c16" fill="#3999c6"></path><path opacity=".2" d="M26.1 9c0 4.886 3.84 8.813 8.726 8.9L37.095.362A7.428 7.428 0 0 0 35.087.1C30.114.1 26.1 4.114 26.1 9m2.078 11H21v23h10.399l2.117-15.779z" class="msportalfx-svg-c01" fill="#ffffff"></path><path opacity=".2" d="M21 23h5v20h-5z" class="msportalfx-svg-c01" fill="#ffffff"></path><path d="M0 24h7v7H0z" class="msportalfx-svg-c14" fill="#57a300"></path><path opacity=".2" d="M0 24h7v7H0z" class="msportalfx-svg-c06" fill="#1e1e1e"></path><path d="M9 24h7v7H9z" class="msportalfx-svg-c14" fill="#57a300"></path><path opacity=".2" d="M9 24h7v7H9z" class="msportalfx-svg-c06" fill="#1e1e1e"></path><path d="M18 24h7v7h-7z" class="msportalfx-svg-c14" fill="#57a300"></path><path opacity=".2" d="M18 24h7v7h-7z" class="msportalfx-svg-c06" fill="#1e1e1e"></path><path d="M0 33h7v7H0z" class="msportalfx-svg-c14" fill="#57a300"></path><path opacity=".2" d="M0 33h7v7H0z" class="msportalfx-svg-c06" fill="#1e1e1e"></path><path d="M9 33h7v7H9z" class="msportalfx-svg-c14" fill="#57a300"></path><path opacity=".2" d="M9 33h7v7H9z" class="msportalfx-svg-c06" fill="#1e1e1e"></path><path d="M18 33h7v7h-7z" class="msportalfx-svg-c14" fill="#57a300"></path><path opacity=".2" d="M18 33h7v7h-7z" class="msportalfx-svg-c06" fill="#1e1e1e"></path><path d="M0 42h7v7H0z" class="msportalfx-svg-c14" fill="#57a300"></path><path opacity=".2" d="M0 42h7v7H0z" class="msportalfx-svg-c06" fill="#1e1e1e"></path><path d="M9 42h7v7H9z" class="msportalfx-svg-c14" fill="#57a300"></path><path opacity=".2" d="M9 42h7v7H9z" class="msportalfx-svg-c06" fill="#1e1e1e"></path><path d="M18 42h7v7h-7z" class="msportalfx-svg-c14" fill="#57a300"></path><path opacity=".2" d="M18 42h7v7h-7z" class="msportalfx-svg-c06" fill="#1e1e1e"></path></g><defs>
<linearGradient id="a" x1="9" y1="16.39" x2="9" y2="-1.94" gradientUnits="userSpaceOnUse"><stop offset="0" stop-color="#0078d4"></stop><stop offset=".16" stop-color="#1380da"></stop><stop offset=".53" stop-color="#3c91e5"></stop><stop offset=".82" stop-color="#559cec"></stop><stop offset="1" stop-color="#5ea0ef"></stop></linearGradient>
<linearGradient id="b" x1="9.88" y1="7.11" x2="9.99" y2="17.27" gradientUnits="userSpaceOnUse"><stop offset="0" stop-color="#32d4f5"></stop><stop offset=".32" stop-color="#31d1f3"></stop><stop offset=".53" stop-color="#2ec9eb"></stop><stop offset=".7" stop-color="#29bade"></stop><stop offset=".86" stop-color="#22a5cb"></stop><stop offset="1" stop-color="#198ab3"></stop><stop offset="1" stop-color="#198ab3"></stop></linearGradient>
<radialGradient id="c" cx="9.43" cy="7.03" r="7.27" gradientUnits="userSpaceOnUse"><stop offset="0" stop-color="#f2f2f2"></stop><stop offset=".58" stop-color="#eee"></stop><stop offset="1" stop-color="#e6e6e6"></stop></radialGradient>
</defs>
</svg>