<svg viewBox="0 0 18 18" data-islogo="true" class="" role="presentation" focusable="false" xmlns:svg="http://www.w3.org/2000/svg" xmlns:xlink="http://www.w3.org/1999/xlink" id="FxSymbol0-043" data-type="1"><g><title>Icon-compute-39</title><rect x="5.62" y=".56" width="9.97" height="12.48" rx=".42" fill="#005ba1"></rect><rect x="4.11" y="1.91" width="9.97" height="12.48" rx=".42" fill="#0078d4"></rect><rect x="2.58" y="3.27" width="9.97" height="12.48" rx=".42" fill="#32bedd"></rect><path fill="#50e6ff" d="M10.48 6.99v3.39l-2.91 1.7V8.69l2.91-1.7z"></path><path fill="#c3f1ff" d="M10.48 6.99L7.57 8.7 4.66 6.99l2.91-1.7 2.91 1.7z"></path><path fill="#9cebff" d="M7.57 8.7v3.38l-2.91-1.7V6.99L7.57 8.7z"></path><path fill="#c3f1ff" d="M4.66 10.38l2.91-1.69v3.39l-2.91-1.7z"></path><path fill="#9cebff" d="M10.48 10.38L7.57 8.69v3.39l2.91-1.7z"></path><rect x=".56" y="11.44" width="16.87" height="5.99" rx=".56" fill="url(#bc25fd79-1e91-4c2f-8691-1f9665f6d0dc)"></rect><rect x="6.6" y="12.92" width="4.81" height=".87" rx=".43" fill="#f2f2f2"></rect></g><defs>
<linearGradient id="bc25fd79-1e91-4c2f-8691-1f9665f6d0dc" x1="9" y1="17.44" x2="9" y2="11.44" gradientUnits="userSpaceOnUse"><stop offset="0" stop-color="#0078d4"></stop><stop offset=".82" stop-color="#5ea0ef"></stop></linearGradient>
</defs>
</svg>