<svg viewBox="0 0 50 50" class="fxs-portal-svg" role="presentation" focusable="false" xmlns:svg="http://www.w3.org/2000/svg" xmlns:xlink="http://www.w3.org/1999/xlink" id="FxSymbol0-064" data-type="1"><g><title></title><title>LogicAppsAlt</title><path d="M1 30h48v20H1z" class="msportalfx-svg-c19" fill="#0072c6"></path><path d="M1 30v20h13.44l18.24-20z" opacity=".2" class="msportalfx-svg-c01" fill="#ffffff"></path><path d="M2 2v27h3V5h26v24h3V2z" class="msportalfx-svg-c16" fill="#3999c6"></path><path d="M42.5 11H45v18h3V8h-5.5z" class="msportalfx-svg-c17" fill="#804998"></path><path d="M34.5 8H39v21h3V5h-7.5z" class="msportalfx-svg-c14" fill="#57a300"></path><path d="M5 5h26v24H5z" class="msportalfx-svg-c16" fill="#3999c6"></path><path opacity=".5" d="M5 5h26v24H5z" class="msportalfx-svg-c01" fill="#ffffff"></path><path d="M34.5 8H39v21h-4.5z" class="msportalfx-svg-c14" fill="#57a300"></path><path d="M46 11v18h-3.5V11" class="msportalfx-svg-c17" fill="#804998"></path><path opacity=".6" d="M42.5 11H45v18h-2.5zm-8-3H39v21h-4.5z" class="msportalfx-svg-c01" fill="#ffffff"></path><path opacity=".5" d="M10.642 26.451L15.002 29h6.044c1.593-.929 3.554-2.075 4.318-2.526.562-.332.931-.614 1.175-.93A1.42 1.42 0 0 0 27 24.505v-8.931c0-.426-.194-.814-.505-1.075-.245-.292-.602-.558-1.137-.87l-6.672-3.9a1.413 1.413 0 0 0-.704-.187c-.249 0-.496.066-.716.191 0 0-5.254 3.062-6.629 3.874-.562.332-.931.614-1.175.93A1.41 1.41 0 0 0 9 15.574v8.931c0 .426.194.814.505 1.075.245.293.602.559 1.137.871z" class="msportalfx-svg-c16" fill="#3999c6"></path><path d="M18.021 19.125a.202.202 0 0 1-.101-.029L11.257 15.2a.205.205 0 0 1 0-.353l6.622-3.87a.202.202 0 0 1 .199 0l6.665 3.897a.202.202 0 0 1 .099.176.2.2 0 0 1-.099.176l-6.62 3.869a.198.198 0 0 1-.102.03" class="msportalfx-svg-c01" fill="#ffffff"></path><path opacity=".8" d="M17.164 20.417l-6.642-3.882a.195.195 0 0 0-.203 0 .203.203 0 0 0-.103.177v7.899c0 .074.039.14.098.179l6.642 3.882c.066.038.306.022.306-.177v-7.899a.214.214 0 0 0-.098-.179z" class="msportalfx-svg-c01" fill="#ffffff"></path><path opacity=".5" d="M18.836 20.417l6.642-3.882a.195.195 0 0 1 .203 0 .203.203 0 0 1 .103.177v7.899c0 .074-.039.14-.098.179l-6.642 3.882c-.066.038-.306.022-.306-.177v-7.899c0-.074.039-.141.098-.179z" class="msportalfx-svg-c01" fill="#ffffff"></path></g><defs>
<linearGradient id="a" x1="9" y1="16.39" x2="9" y2="-1.94" gradientUnits="userSpaceOnUse"><stop offset="0" stop-color="#0078d4"></stop><stop offset=".16" stop-color="#1380da"></stop><stop offset=".53" stop-color="#3c91e5"></stop><stop offset=".82" stop-color="#559cec"></stop><stop offset="1" stop-color="#5ea0ef"></stop></linearGradient>
<linearGradient id="b" x1="9.88" y1="7.11" x2="9.99" y2="17.27" gradientUnits="userSpaceOnUse"><stop offset="0" stop-color="#32d4f5"></stop><stop offset=".32" stop-color="#31d1f3"></stop><stop offset=".53" stop-color="#2ec9eb"></stop><stop offset=".7" stop-color="#29bade"></stop><stop offset=".86" stop-color="#22a5cb"></stop><stop offset="1" stop-color="#198ab3"></stop><stop offset="1" stop-color="#198ab3"></stop></linearGradient>
<radialGradient id="c" cx="9.43" cy="7.03" r="7.27" gradientUnits="userSpaceOnUse"><stop offset="0" stop-color="#f2f2f2"></stop><stop offset=".58" stop-color="#eee"></stop><stop offset="1" stop-color="#e6e6e6"></stop></radialGradient>
</defs>
</svg>