<svg viewBox="0 0 50 50" class="" role="presentation" focusable="false" xmlns:svg="http://www.w3.org/2000/svg" xmlns:xlink="http://www.w3.org/1999/xlink" id="FxSymbol0-08a" data-type="1"><g><title></title><title>SignalRServiceblue</title><path d="M20.455 36.363l2.823-6.818h6.267a4.551 4.551 0 0 0 4.546-4.544 4.551 4.551 0 0 0-4.546-4.546H9.09L20.455 9.09v4.547h9.09c6.277 0 11.365 5.088 11.365 11.364 0 6.102-4.825 11.044-10.863 11.314l9.209 9.209C45.745 41.007 50 33.504 50 25 50 11.194 38.806 0 25 0S0 11.194 0 25s11.194 25 25 25c2.737 0 5.36-.455 7.825-1.265l-12.37-12.372z" fill-rule="evenodd" class="msportalfx-svg-c15" fill="#59b4d9"></path></g><defs>
<linearGradient id="a" x1="9" y1="16.39" x2="9" y2="-1.94" gradientUnits="userSpaceOnUse"><stop offset="0" stop-color="#0078d4"></stop><stop offset=".16" stop-color="#1380da"></stop><stop offset=".53" stop-color="#3c91e5"></stop><stop offset=".82" stop-color="#559cec"></stop><stop offset="1" stop-color="#5ea0ef"></stop></linearGradient>
<linearGradient id="b" x1="9.88" y1="7.11" x2="9.99" y2="17.27" gradientUnits="userSpaceOnUse"><stop offset="0" stop-color="#32d4f5"></stop><stop offset=".32" stop-color="#31d1f3"></stop><stop offset=".53" stop-color="#2ec9eb"></stop><stop offset=".7" stop-color="#29bade"></stop><stop offset=".86" stop-color="#22a5cb"></stop><stop offset="1" stop-color="#198ab3"></stop><stop offset="1" stop-color="#198ab3"></stop></linearGradient>
<radialGradient id="c" cx="9.43" cy="7.03" r="7.27" gradientUnits="userSpaceOnUse"><stop offset="0" stop-color="#f2f2f2"></stop><stop offset=".58" stop-color="#eee"></stop><stop offset="1" stop-color="#e6e6e6"></stop></radialGradient>
</defs>
</svg>