<svg viewBox="0 0 52 52" class="fxs-portal-svg" role="presentation" focusable="false" xmlns:svg="http://www.w3.org/2000/svg" xmlns:xlink="http://www.w3.org/1999/xlink" id="FxSymbol0-177" data-type="1"><g><title></title><path d="M24.664 1c6.687 0 12.918 2.584 17.781 7.295 9.726 9.726 9.726 25.684 0 35.41C37.734 48.416 31.351 51 24.664 51s-12.918-2.584-17.781-7.295c-1.672-1.672-1.672-4.255 0-5.927s4.255-1.672 5.927 0c3.191 3.191 7.295 5.015 11.854 5.015s8.663-1.672 11.854-4.863c6.535-6.535 6.535-17.173 0-23.556-3.191-3.191-7.447-5.015-11.854-5.015s-8.663 1.672-11.854 4.863c-1.672 1.672-4.255 1.672-5.927 0s-1.672-4.255 0-5.927C11.594 3.584 17.977 1 24.664 1z" class="msportalfx-svg-c19" fill="#0072c6"></path><path d="M27.358 23.085l-8.336-8.846h6.635l11.228 11.398-11.058 11.398h-6.805l8.336-8.676H3.808a1.548 1.548 0 0 1-1.548-1.548v-2.178c0-.855.693-1.548 1.548-1.548h23.55z" class="msportalfx-svg-c14" fill="#57a300"></path></g><defs>
<linearGradient id="a" x1="-1267.23" y1="3.07" x2="-1267.52" y2="14.64" gradientTransform="matrix(-1 0 0 1 -1256.13 0)" gradientUnits="userSpaceOnUse"><stop offset="0" stop-color="#32d4f5"></stop><stop offset=".23" stop-color="#31d0f1"></stop><stop offset=".46" stop-color="#2cc3e6"></stop><stop offset=".7" stop-color="#25afd4"></stop><stop offset=".94" stop-color="#1c92ba"></stop><stop offset="1" stop-color="#198ab3"></stop></linearGradient>
<linearGradient id="b" x1="6.4" y1="1.32" x2="7.21" y2="11.39"><stop offset=".22" stop-color="#32d4f5"></stop><stop offset=".47" stop-color="#31d1f3"></stop><stop offset=".63" stop-color="#2ec9eb"></stop><stop offset=".77" stop-color="#29bade"></stop><stop offset=".89" stop-color="#22a5cb"></stop><stop offset="1" stop-color="#198ab3"></stop><stop offset="1" stop-color="#198ab3"></stop></linearGradient>
<linearGradient id="c" x1="13.76" y1="18.05" x2="13.76" y2="10.25" gradientUnits="userSpaceOnUse"><stop offset="0" stop-color="#76bc2d"></stop><stop offset=".6" stop-color="#81ce31"></stop><stop offset=".82" stop-color="#86d633"></stop></linearGradient>
</defs>
</svg>