<svg viewBox="0 0 50 50" class="fxs-portal-svg" role="presentation" focusable="false" xmlns:svg="http://www.w3.org/2000/svg" xmlns:xlink="http://www.w3.org/1999/xlink" id="FxSymbol0-060" data-type="1"><g><title></title><path d="M10 4H0v10h3V7h7zM0 36v10h10v-3H3v-7zm40 10h10V36h-3v7h-7zm10-32V4H40v3h7v7z" class="msportalfx-svg-c04" fill="#7a7a7a"></path><path d="M45 34.757c0 4-8.954 7.243-19.998 7.243S5.004 38.758 5.004 34.757v-3.904H45v3.904z" class="msportalfx-svg-c14" fill="#57a300"></path><path d="M45 30.854c0 4-8.954 7.243-19.998 7.243S5.004 34.854 5.004 30.854s8.954-7.243 19.998-7.243S45 26.854 45 30.854" class="msportalfx-svg-c13" fill="#b8d432"></path><path d="M31.412 30.437c0 1.064-2.87 1.925-6.411 1.925s-6.411-.862-6.411-1.925c0-1.064 2.871-1.925 6.411-1.925s6.411.862 6.411 1.925" class="msportalfx-svg-c14" fill="#57a300"></path><path opacity=".25" d="M31.412 30.437c0 1.064-2.87 1.925-6.411 1.925s-6.411-.862-6.411-1.925c0-1.064 2.871-1.925 6.411-1.925s6.411.862 6.411 1.925" class="msportalfx-svg-c21" fill="#00188f"></path><path opacity=".25" d="M39.457 25.892c-2.801-1.061-6.483-1.815-10.622-2.106l-2.595 4.803c1.277.075 2.418.263 3.301.53l9.916-3.227zM9.725 35.565c2.881 1.234 6.878 2.114 11.429 2.436l3.034-5.615c-1.263-.048-2.411-.206-3.334-.442L9.725 35.565z" class="msportalfx-svg-c01" fill="#ffffff"></path><path d="M45 19.146c0 4-8.954 7.243-19.998 7.243S5.004 23.146 5.004 19.146v-3.904H45v3.904z" class="msportalfx-svg-c19" fill="#0072c6"></path><path d="M45 15.243c0 4-8.954 7.243-19.998 7.243S5.004 19.242 5.004 15.243 13.957 8 25.002 8 45 11.242 45 15.243" class="msportalfx-svg-c15" fill="#59b4d9"></path><path d="M31.412 14.826c0 1.064-2.87 1.925-6.411 1.925s-6.411-.862-6.411-1.925 2.871-1.925 6.411-1.925 6.411.861 6.411 1.925" class="msportalfx-svg-c19" fill="#0072c6"></path><path opacity=".25" d="M39.457 10.241c-2.801-1.062-6.483-1.815-10.622-2.106l-2.595 4.803c1.277.075 2.418.263 3.301.53l9.916-3.227zM9.725 19.914c2.881 1.234 6.878 2.114 11.429 2.436l3.034-5.615c-1.263-.048-2.411-.206-3.334-.442L9.725 19.914z" class="msportalfx-svg-c01" fill="#ffffff"></path></g><defs>
<linearGradient id="a" x1="9" y1="16.39" x2="9" y2="-1.94" gradientUnits="userSpaceOnUse"><stop offset="0" stop-color="#0078d4"></stop><stop offset=".16" stop-color="#1380da"></stop><stop offset=".53" stop-color="#3c91e5"></stop><stop offset=".82" stop-color="#559cec"></stop><stop offset="1" stop-color="#5ea0ef"></stop></linearGradient>
<linearGradient id="b" x1="9.88" y1="7.11" x2="9.99" y2="17.27" gradientUnits="userSpaceOnUse"><stop offset="0" stop-color="#32d4f5"></stop><stop offset=".32" stop-color="#31d1f3"></stop><stop offset=".53" stop-color="#2ec9eb"></stop><stop offset=".7" stop-color="#29bade"></stop><stop offset=".86" stop-color="#22a5cb"></stop><stop offset="1" stop-color="#198ab3"></stop><stop offset="1" stop-color="#198ab3"></stop></linearGradient>
<radialGradient id="c" cx="9.43" cy="7.03" r="7.27" gradientUnits="userSpaceOnUse"><stop offset="0" stop-color="#f2f2f2"></stop><stop offset=".58" stop-color="#eee"></stop><stop offset="1" stop-color="#e6e6e6"></stop></radialGradient>
</defs>
</svg>