<svg viewBox="0 0 50 50" role="presentation" focusable="false" xmlns:svg="http://www.w3.org/2000/svg" xmlns:xlink="http://www.w3.org/1999/xlink" aria-hidden="true"><g><path d="M47 38c0 1.657-1.359 3-3.036 3H4.036C2.359 41 1 39.657 1 38V8c0-1.657 1.359-3 3.036-3h39.928C45.641 5 47 6.343 47 8v30z" class="msportalfx-svg-c05" fill="#3e3e3e"></path><path d="M3.962 10H44v26H3.962z" class="msportalfx-svg-c16" fill="#3999c6"></path><path d="M27 7.689c0 .38-.308.688-.688.688H21.89a.689.689 0 1 1 0-1.377h4.422c.38 0 .688.309.688.689" class="msportalfx-svg-c01" fill="#ffffff"></path><path opacity=".15" d="M32 5H4a3 3 0 0 0-3 3v30a3 3 0 0 0 3 3h12L32 5z" class="msportalfx-svg-c01" fill="#ffffff"></path><path d="M35 24s-11 1.063-11 14h-5l7.5 9 7.5-9h-5c0-11.52 6-14 6-14z" class="msportalfx-svg-c14" fill="#57a300"></path><path d="M35 24s-11 1.063-11 14h-5l7.5 9-.5-4c0-18.884 9-19 9-19zm-1 25s11-1.063 11-14h5l-7.5-9-7.5 9h5c0 11.52-6 14-6 14z" class="msportalfx-svg-c13" fill="#b8d432"></path><path d="M34 49s11-1.063 11-14h5l-7.5-9 .5 4c0 18.884-9 19-9 19z" class="msportalfx-svg-c14" fill="#57a300"></path></g></svg>