<svg viewBox="0 0 50 50" class="" role="presentation" focusable="false" xmlns:svg="http://www.w3.org/2000/svg" xmlns:xlink="http://www.w3.org/1999/xlink" id="FxSymbol0-0bb" data-type="1"><g><title></title><path d="M41.364 15.205c.027-.343.053-.686.053-1.036 0-7.245-5.973-13.119-13.342-13.119-5.948 0-10.982 3.829-12.704 9.115a12.121 12.121 0 0 0-2.222-.224c-6.6 0-11.95 5.151-11.95 11.504 0 6.354 5.35 11.504 11.95 11.504h26.556c5.133 0 9.294-4.006 9.294-8.948.001-4.395-3.294-8.042-7.635-8.796z" class="msportalfx-svg-c15" fill="#59b4d9"></path><path opacity=".4" d="M15 33V17.078c0-1.145.933-2.078 2.078-2.078h17.844c1.145 0 2.078.933 2.078 2.078V33H15z" class="msportalfx-svg-c01" fill="#ffffff"></path><path d="M34.922 16H17.078c-.595 0-1.078.483-1.078 1.078v30.843c0 .596.483 1.079 1.078 1.079h17.843c.596 0 1.079-.483 1.079-1.078V17.078c0-.595-.483-1.078-1.078-1.078z" class="msportalfx-svg-c04" fill="#7a7a7a"></path><path opacity=".4" d="M34.922 16H28L16 43v4.922c0 .595.483 1.078 1.078 1.078h17.843c.596 0 1.079-.483 1.079-1.078V17.078c0-.595-.483-1.078-1.078-1.078z" class="msportalfx-svg-c06" fill="#1e1e1e"></path><path d="M18 19h4v5h-4zm6 0h4v5h-4zm6 0h4v5h-4zm-12 8h4v5h-4zm6 0h4v5h-4zm6 0h4v5h-4zm-12 8h4v5h-4zm6 0h4v5h-4zm0 8h4v6h-4zm6-8h4v5h-4z" class="msportalfx-svg-c01" fill="#ffffff"></path><path d="M18 19h4v5h-4zm6 0h4v5h-4zm6 0h4v5h-4zm-12 8h4v5h-4zm6 0h4v5h-4zm6 0h4v5h-4zm-12 8h4v5h-4zm6 0h4v5h-4zm0 8h4v6h-4zm6-8h4v5h-4z" opacity=".15" class="msportalfx-svg-c15" fill="#59b4d9"></path></g><defs>
<linearGradient id="a" x1="9" y1="16.39" x2="9" y2="-1.94" gradientUnits="userSpaceOnUse"><stop offset="0" stop-color="#0078d4"></stop><stop offset=".16" stop-color="#1380da"></stop><stop offset=".53" stop-color="#3c91e5"></stop><stop offset=".82" stop-color="#559cec"></stop><stop offset="1" stop-color="#5ea0ef"></stop></linearGradient>
<linearGradient id="b" x1="9.88" y1="7.11" x2="9.99" y2="17.27" gradientUnits="userSpaceOnUse"><stop offset="0" stop-color="#32d4f5"></stop><stop offset=".32" stop-color="#31d1f3"></stop><stop offset=".53" stop-color="#2ec9eb"></stop><stop offset=".7" stop-color="#29bade"></stop><stop offset=".86" stop-color="#22a5cb"></stop><stop offset="1" stop-color="#198ab3"></stop><stop offset="1" stop-color="#198ab3"></stop></linearGradient>
<radialGradient id="c" cx="9.43" cy="7.03" r="7.27" gradientUnits="userSpaceOnUse"><stop offset="0" stop-color="#f2f2f2"></stop><stop offset=".58" stop-color="#eee"></stop><stop offset="1" stop-color="#e6e6e6"></stop></radialGradient>
</defs>
</svg>