<svg viewBox="0 0 50 50" class="" role="presentation" focusable="false" xmlns:svg="http://www.w3.org/2000/svg" xmlns:xlink="http://www.w3.org/1999/xlink" id="FxSymbol0-0d8" data-type="1"><g><title></title><path fill-rule="evenodd" clip-rule="evenodd" d="M0 18h15v15H0zm0 17h15v15H0zm17 0h15v15H17z" class="msportalfx-svg-c09" fill="#dd5900"></path><path fill-rule="evenodd" clip-rule="evenodd" d="M33.5 0C24.265 0 17 7.265 17 16.5V33h16.5C42.735 33 50 25.735 50 16.5S42.735 0 33.5 0z" class="msportalfx-svg-c16" fill="#3999c6"></path><circle fill-rule="evenodd" clip-rule="evenodd" cx="23" cy="25" r="3" class="msportalfx-svg-c01" fill="#ffffff"></circle><circle fill-rule="evenodd" clip-rule="evenodd" cx="37" cy="22" r="3" class="msportalfx-svg-c01" fill="#ffffff"></circle><circle fill-rule="evenodd" clip-rule="evenodd" cx="30" cy="14" r="3" class="msportalfx-svg-c01" fill="#ffffff"></circle><path fill="none" stroke="#FFF" stroke-width="2" stroke-miterlimit="10" d="M24 24l6-10"></path><circle fill-rule="evenodd" clip-rule="evenodd" cx="43" cy="11" r="3" class="msportalfx-svg-c01" fill="#ffffff"></circle><path fill="none" stroke="#FFF" stroke-width="2" stroke-miterlimit="10" d="M42 12l-5 10m0 0l-7-8"></path></g><defs>
<linearGradient id="a" x1="9" y1="16.39" x2="9" y2="-1.94" gradientUnits="userSpaceOnUse"><stop offset="0" stop-color="#0078d4"></stop><stop offset=".16" stop-color="#1380da"></stop><stop offset=".53" stop-color="#3c91e5"></stop><stop offset=".82" stop-color="#559cec"></stop><stop offset="1" stop-color="#5ea0ef"></stop></linearGradient>
<linearGradient id="b" x1="9.88" y1="7.11" x2="9.99" y2="17.27" gradientUnits="userSpaceOnUse"><stop offset="0" stop-color="#32d4f5"></stop><stop offset=".32" stop-color="#31d1f3"></stop><stop offset=".53" stop-color="#2ec9eb"></stop><stop offset=".7" stop-color="#29bade"></stop><stop offset=".86" stop-color="#22a5cb"></stop><stop offset="1" stop-color="#198ab3"></stop><stop offset="1" stop-color="#198ab3"></stop></linearGradient>
<radialGradient id="c" cx="9.43" cy="7.03" r="7.27" gradientUnits="userSpaceOnUse"><stop offset="0" stop-color="#f2f2f2"></stop><stop offset=".58" stop-color="#eee"></stop><stop offset="1" stop-color="#e6e6e6"></stop></radialGradient>
</defs>
</svg>