<svg viewBox="0 0 50 50" class="" role="presentation" focusable="false" xmlns:svg="http://www.w3.org/2000/svg" xmlns:xlink="http://www.w3.org/1999/xlink" id="FxSymbol0-0b2" data-type="1"><g><title></title><path d="M2.293 32L23 17.293 43.707 32 23 47.707 2.293 32z" class="msportalfx-svg-c16" fill="#3999c6"></path><path d="M7.362 32.079L23 20.973l15.638 11.106L23 43.941z" class="msportalfx-svg-c01" fill="#ffffff"></path><path opacity=".4" d="M7.362 32.079L23 20.973l15.638 11.106L23 43.941z" class="msportalfx-svg-c15" fill="#59b4d9"></path><circle cx="40" cy="32" r="6.9" class="msportalfx-svg-c01" fill="#ffffff"></circle><path d="M40 28.1c2.15 0 3.9 1.75 3.9 3.9s-1.75 3.9-3.9 3.9-3.9-1.75-3.9-3.9 1.75-3.9 3.9-3.9m0-3a6.9 6.9 0 1 0 0 13.8 6.9 6.9 0 1 0 0-13.8z" class="msportalfx-svg-c16" fill="#3999c6"></path><path d="M48.773 9.551C48.773 4.388 44.845.1 40 .1s-8.773 4.113-8.773 9.451S40 29.5 40 33c0-3.5 8.773-18.286 8.773-23.449z" class="msportalfx-svg-c17" fill="#804998"></path><circle cx="40" cy="9" r="3.9" class="msportalfx-svg-c01" fill="#ffffff"></circle><circle cx="23" cy="20" r="4.9" class="msportalfx-svg-c17" fill="#804998"></circle><circle cx="6" cy="32" r="4.9" class="msportalfx-svg-c17" fill="#804998"></circle><circle cx="23" cy="45" r="4.9" class="msportalfx-svg-c17" fill="#804998"></circle></g><defs>
<linearGradient id="a" x1="9" y1="16.39" x2="9" y2="-1.94" gradientUnits="userSpaceOnUse"><stop offset="0" stop-color="#0078d4"></stop><stop offset=".16" stop-color="#1380da"></stop><stop offset=".53" stop-color="#3c91e5"></stop><stop offset=".82" stop-color="#559cec"></stop><stop offset="1" stop-color="#5ea0ef"></stop></linearGradient>
<linearGradient id="b" x1="9.88" y1="7.11" x2="9.99" y2="17.27" gradientUnits="userSpaceOnUse"><stop offset="0" stop-color="#32d4f5"></stop><stop offset=".32" stop-color="#31d1f3"></stop><stop offset=".53" stop-color="#2ec9eb"></stop><stop offset=".7" stop-color="#29bade"></stop><stop offset=".86" stop-color="#22a5cb"></stop><stop offset="1" stop-color="#198ab3"></stop><stop offset="1" stop-color="#198ab3"></stop></linearGradient>
<radialGradient id="c" cx="9.43" cy="7.03" r="7.27" gradientUnits="userSpaceOnUse"><stop offset="0" stop-color="#f2f2f2"></stop><stop offset=".58" stop-color="#eee"></stop><stop offset="1" stop-color="#e6e6e6"></stop></radialGradient>
</defs>
</svg>