<svg viewBox="0 0 18 18" class="" role="presentation" focusable="false" xmlns:svg="http://www.w3.org/2000/svg" xmlns:xlink="http://www.w3.org/1999/xlink" id="FxSymbol0-096" data-type="1"><g><title>Icon-databases-136</title><path d="M10.32 16.76a.58.58 0 0 1-.57.57H1.07a.57.57 0 0 1-.57-.57V1.18a.56.56 0 0 1 .57-.57h8.68a.57.57 0 0 1 .57.57z" fill="url(#a)"></path><path d="M1.94 6.47A1.07 1.07 0 0 1 3 5.41h4.9A1.07 1.07 0 0 1 9 6.47a1.07 1.07 0 0 1-1.1 1.07H3a1.07 1.07 0 0 1-1.06-1.07zm0-3.16A1.07 1.07 0 0 1 3 2.24h4.9A1.07 1.07 0 0 1 9 3.31a1.07 1.07 0 0 1-1.1 1.06H3a1.07 1.07 0 0 1-1.06-1.06z" fill="#003067"></path><circle cx="3.06" cy="3.31" r=".72" fill="#50e6ff"></circle><circle cx="3.06" cy="6.47" r=".72" fill="#50e6ff"></circle><path d="M17.5 14.08a3.36 3.36 0 0 0-2.91-3.22 4.22 4.22 0 0 0-4.35-4A4.32 4.32 0 0 0 6.1 9.64a4 4 0 0 0-3.52 3.85 4.06 4.06 0 0 0 4.2 3.9h7.39a3.39 3.39 0 0 0 3.33-3.31z" fill="url(#b)"></path><path d="M13.61 14.45v-3.36h-.93v4.12h2.45v-.76zm-7.1-1.65a2.23 2.23 0 0 1-.51-.31.44.44 0 0 1-.12-.32.34.34 0 0 1 .15-.3.66.66 0 0 1 .42-.12 1.66 1.66 0 0 1 1 .29v-.86a2.89 2.89 0 0 0-1-.15 1.69 1.69 0 0 0-1.09.33 1.1 1.1 0 0 0-.41.89 1.34 1.34 0 0 0 .94 1.2 2.51 2.51 0 0 1 .61.36.42.42 0 0 1 .15.32.34.34 0 0 1-.15.3.75.75 0 0 1-.45.12 1.63 1.63 0 0 1-1.08-.42v.92a2.25 2.25 0 0 0 1.03.23A1.91 1.91 0 0 0 7.15 15a1.07 1.07 0 0 0 .43-.91 1 1 0 0 0-.25-.7 2.36 2.36 0 0 0-.82-.59zm5.16 1.58a2.37 2.37 0 0 0 .33-1.26 2.28 2.28 0 0 0-.25-1.12 1.77 1.77 0 0 0-.69-.74A1.94 1.94 0 0 0 10 11a2.21 2.21 0 0 0-1 .29 1.87 1.87 0 0 0-.73.77A2.52 2.52 0 0 0 8 13.2a2.26 2.26 0 0 0 .24 1.05 1.87 1.87 0 0 0 .68.74 2 2 0 0 0 1 .29l.85 1h1.2l-1.19-1.1a1.82 1.82 0 0 0 .89-.8zm-.93-.25a.92.92 0 0 1-.76.35.91.91 0 0 1-.75-.36 1.5 1.5 0 0 1-.28-1 1.46 1.46 0 0 1 .29-1 .92.92 0 0 1 .77-.37.86.86 0 0 1 .74.37 1.54 1.54 0 0 1 .28 1 1.47 1.47 0 0 1-.29 1.01z" fill="#f2f2f2"></path></g><defs>
<linearGradient id="a" x1="9" y1="16.39" x2="9" y2="-1.94" gradientUnits="userSpaceOnUse"><stop offset="0" stop-color="#0078d4"></stop><stop offset=".16" stop-color="#1380da"></stop><stop offset=".53" stop-color="#3c91e5"></stop><stop offset=".82" stop-color="#559cec"></stop><stop offset="1" stop-color="#5ea0ef"></stop></linearGradient>
<linearGradient id="b" x1="9.88" y1="7.11" x2="9.99" y2="17.27" gradientUnits="userSpaceOnUse"><stop offset="0" stop-color="#32d4f5"></stop><stop offset=".32" stop-color="#31d1f3"></stop><stop offset=".53" stop-color="#2ec9eb"></stop><stop offset=".7" stop-color="#29bade"></stop><stop offset=".86" stop-color="#22a5cb"></stop><stop offset="1" stop-color="#198ab3"></stop><stop offset="1" stop-color="#198ab3"></stop></linearGradient>
<radialGradient id="c" cx="9.43" cy="7.03" r="7.27" gradientUnits="userSpaceOnUse"><stop offset="0" stop-color="#f2f2f2"></stop><stop offset=".58" stop-color="#eee"></stop><stop offset="1" stop-color="#e6e6e6"></stop></radialGradient>
</defs>
</svg>