<svg viewBox="0 0 18 18" class="" role="presentation" focusable="false" xmlns:svg="http://www.w3.org/2000/svg" xmlns:xlink="http://www.w3.org/1999/xlink" id="FxSymbol0-097" data-type="1"><g><title>Sql virtual machine</title><rect x=".54" y="1.18" width="16.91" height="11.27" rx=".56" fill="url(#a)"></rect><path d="M12.39 15.87c-1.67-.26-1.74-1.47-1.73-3.41H7.34c0 1.94-.06 3.15-1.73 3.41a1 1 0 0 0-.84 1h8.46a1 1 0 0 0-.84-1z" fill="url(#b)"></path><path d="M13.07 7.89V4.41h-1v4.25h2.53v-.77zM5.73 6.17a2 2 0 0 1-.52-.31.45.45 0 0 1-.13-.34.36.36 0 0 1 .16-.31.69.69 0 0 1 .43-.11 1.66 1.66 0 0 1 1 .29v-.88a2.77 2.77 0 0 0-1-.17 1.73 1.73 0 0 0-1.13.35 1.12 1.12 0 0 0-.42.92A1.38 1.38 0 0 0 5 6.85a2.49 2.49 0 0 1 .63.37.41.41 0 0 1 .16.33.4.4 0 0 1-.16.32.76.76 0 0 1-.42.13 1.69 1.69 0 0 1-1.12-.44v1a2.27 2.27 0 0 0 1.1.24 2 2 0 0 0 1.21-.39 1.12 1.12 0 0 0 .44-.94 1 1 0 0 0-.26-.72 2.54 2.54 0 0 0-.85-.58zm5.34 1.64a2.4 2.4 0 0 0 .34-1.3 2.44 2.44 0 0 0-.26-1.13 1.85 1.85 0 0 0-.72-.77 2.05 2.05 0 0 0-1-.27 2.23 2.23 0 0 0-1.11.28 1.89 1.89 0 0 0-.76.8 2.47 2.47 0 0 0-.31 1.18 2.44 2.44 0 0 0 .24 1.08 1.92 1.92 0 0 0 .71.76 2.06 2.06 0 0 0 1 .3l.88 1h1.24l-1.21-1.16a1.78 1.78 0 0 0 .96-.77zm-1-.26a.94.94 0 0 1-.78.36.92.92 0 0 1-.78-.37 1.55 1.55 0 0 1-.3-1 1.57 1.57 0 0 1 .3-1 1 1 0 0 1 .8-.37.9.9 0 0 1 .77.37 1.65 1.65 0 0 1 .28 1 1.5 1.5 0 0 1-.25 1.01z" fill="url(#c)"></path></g><defs>
<linearGradient id="a" x1="9" y1="16.39" x2="9" y2="-1.94" gradientUnits="userSpaceOnUse"><stop offset="0" stop-color="#0078d4"></stop><stop offset=".16" stop-color="#1380da"></stop><stop offset=".53" stop-color="#3c91e5"></stop><stop offset=".82" stop-color="#559cec"></stop><stop offset="1" stop-color="#5ea0ef"></stop></linearGradient>
<linearGradient id="b" x1="9.88" y1="7.11" x2="9.99" y2="17.27" gradientUnits="userSpaceOnUse"><stop offset="0" stop-color="#32d4f5"></stop><stop offset=".32" stop-color="#31d1f3"></stop><stop offset=".53" stop-color="#2ec9eb"></stop><stop offset=".7" stop-color="#29bade"></stop><stop offset=".86" stop-color="#22a5cb"></stop><stop offset="1" stop-color="#198ab3"></stop><stop offset="1" stop-color="#198ab3"></stop></linearGradient>
<radialGradient id="c" cx="9.43" cy="7.03" r="7.27" gradientUnits="userSpaceOnUse"><stop offset="0" stop-color="#f2f2f2"></stop><stop offset=".58" stop-color="#eee"></stop><stop offset="1" stop-color="#e6e6e6"></stop></radialGradient>
</defs>
</svg>