<svg viewBox="0 0 18 18" class="" role="presentation" focusable="false" xmlns:svg="http://www.w3.org/2000/svg" xmlns:xlink="http://www.w3.org/1999/xlink" id="FxSymbol0-092" data-type="1"><g><title>SQL elastic pool</title><rect x="2.46" y="2.46" width="13.08" height="13.08" rx=".61" transform="rotate(-45 8.999 9.003)" fill="url(#a)"></rect><path d="M9 3.41c-.95 0-1.71-.24-1.71-.55v2.91c0 .29.75.54 1.68.54H9c.94 0 1.71-.24 1.71-.54V2.86c.01.31-.71.55-1.71.55z" fill="#50e6ff"></path><path d="M10.72 2.86c0 .31-.77.55-1.71.55S7.3 3.17 7.3 2.86s.76-.54 1.7-.54 1.71.24 1.71.54" fill="#eaeaea"></path><path d="M10.32 2.82c0 .19-.59.35-1.31.35S7.7 3 7.7 2.82s.58-.35 1.3-.35 1.31.16 1.31.35" fill="#50e6ff"></path><path d="M9 2.9A3.57 3.57 0 0 0 8 3a3.52 3.52 0 0 0 1 .14A3.52 3.52 0 0 0 10 3a3.62 3.62 0 0 0-1-.1z" fill="#32bedd"></path><path d="M9 12.82c-.95 0-1.71-.24-1.71-.55v2.91c0 .29.75.54 1.68.54H9c.94 0 1.71-.24 1.71-.54v-2.91c.01.31-.71.55-1.71.55z" fill="#50e6ff"></path><path d="M10.72 12.27c0 .31-.77.55-1.71.55s-1.71-.24-1.71-.55.76-.54 1.71-.54 1.71.24 1.71.54" fill="#eaeaea"></path><path d="M10.32 12.23c0 .19-.59.35-1.31.35s-1.31-.16-1.31-.35.58-.35 1.31-.35 1.31.16 1.31.35" fill="#50e6ff"></path><path d="M9 12.31a3.57 3.57 0 0 0-1 .13 3.52 3.52 0 0 0 1 .14 3.52 3.52 0 0 0 1-.14 3.62 3.62 0 0 0-1-.13z" fill="#32bedd"></path><path d="M13.22 8.09c-1 0-1.71-.24-1.71-.54v2.9c0 .3.75.54 1.69.55.94 0 1.71-.25 1.71-.55v-2.9c.02.3-.75.54-1.69.54z" fill="#50e6ff"></path><path d="M14.93 7.55c0 .3-.77.54-1.71.54s-1.71-.24-1.71-.54.76-.55 1.71-.55 1.71.25 1.71.55" fill="#eaeaea"></path><path d="M14.53 7.5c0 .2-.59.35-1.31.35s-1.31-.15-1.31-.35.58-.34 1.31-.34 1.31.15 1.31.34" fill="#50e6ff"></path><path d="M13.22 7.58a3.52 3.52 0 0 0-1 .14 3.57 3.57 0 0 0 1 .13 3.57 3.57 0 0 0 1-.13 3.57 3.57 0 0 0-1-.14z" fill="#32bedd"></path><path d="M4.92 8.09c-.95 0-1.71-.24-1.71-.54v2.9c0 .3.75.54 1.68.55.94 0 1.71-.25 1.71-.55v-2.9c.03.3-.74.54-1.68.54z" fill="#50e6ff"></path><path d="M6.63 7.55c0 .3-.77.54-1.71.54s-1.71-.24-1.71-.54S4 7 4.92 7s1.71.25 1.71.55" fill="#eaeaea"></path><path d="M6.23 7.5c0 .2-.59.35-1.31.35S3.61 7.7 3.61 7.5s.58-.34 1.31-.34 1.31.15 1.31.34" fill="#50e6ff"></path><path d="M4.92 7.58a3.52 3.52 0 0 0-1 .14 3.57 3.57 0 0 0 1 .13 3.57 3.57 0 0 0 1-.13 3.57 3.57 0 0 0-1-.14z" fill="#32bedd"></path></g><defs>
<linearGradient id="a" x1="9" y1="16.39" x2="9" y2="-1.94" gradientUnits="userSpaceOnUse"><stop offset="0" stop-color="#0078d4"></stop><stop offset=".16" stop-color="#1380da"></stop><stop offset=".53" stop-color="#3c91e5"></stop><stop offset=".82" stop-color="#559cec"></stop><stop offset="1" stop-color="#5ea0ef"></stop></linearGradient>
<linearGradient id="b" x1="9.88" y1="7.11" x2="9.99" y2="17.27" gradientUnits="userSpaceOnUse"><stop offset="0" stop-color="#32d4f5"></stop><stop offset=".32" stop-color="#31d1f3"></stop><stop offset=".53" stop-color="#2ec9eb"></stop><stop offset=".7" stop-color="#29bade"></stop><stop offset=".86" stop-color="#22a5cb"></stop><stop offset="1" stop-color="#198ab3"></stop><stop offset="1" stop-color="#198ab3"></stop></linearGradient>
<radialGradient id="c" cx="9.43" cy="7.03" r="7.27" gradientUnits="userSpaceOnUse"><stop offset="0" stop-color="#f2f2f2"></stop><stop offset=".58" stop-color="#eee"></stop><stop offset="1" stop-color="#e6e6e6"></stop></radialGradient>
</defs>
</svg>