<svg viewBox="0 0 18 18" data-islogo="true" class="" role="presentation" focusable="false" xmlns:svg="http://www.w3.org/2000/svg" xmlns:xlink="http://www.w3.org/1999/xlink" id="FxSymbol0-0f9" data-type="152"><g><path d="M6.84 5.09c-3.5 0-6.34-1-6.34-2.3V15c0 1.26 2.79 2.28 6.25 2.3h.09c3.5 0 6.34-1 6.34-2.3V2.79c0 1.27-2.84 2.3-6.34 2.3z" fill="url(#5b612930-a7c8-44c8-abfb-b98c8b7edce1)"></path><path d="M13.18 2.79c0 1.27-2.84 2.3-6.34 2.3S.5 4.06.5 2.79 3.34.49 6.84.49s6.34 1 6.34 2.3" fill="#e8e8e8"></path><path d="M11.7 2.6c0 .81-2.18 1.46-4.86 1.46S2 3.41 2 2.6s2.16-1.46 4.84-1.46 4.86.66 4.86 1.46" fill="#50e6ff"></path><path d="M6.84 2.94A12 12 0 0 0 3 3.49a11.25 11.25 0 0 0 3.85.57 11.25 11.25 0 0 0 3.85-.57 12 12 0 0 0-3.86-.55z" fill="#198ab3"></path><path d="M10.74 11.1V7.72h-.93v4.14h2.46v-.76zM3.59 9.43a1.92 1.92 0 0 1-.51-.31A.44.44 0 0 1 3 8.8a.38.38 0 0 1 .16-.31.72.72 0 0 1 .42-.11 1.67 1.67 0 0 1 1 .29v-.86a2.67 2.67 0 0 0-1-.16 1.74 1.74 0 0 0-1.2.35 1.13 1.13 0 0 0-.41.9c0 .51.32.91 1 1.21a2.9 2.9 0 0 1 .61.36.4.4 0 0 1 .16.32.38.38 0 0 1-.16.31.75.75 0 0 1-.45.12A1.6 1.6 0 0 1 2 10.77v.93a2.29 2.29 0 0 0 1.07.23 2 2 0 0 0 1.18-.32 1.1 1.1 0 0 0 .43-.92 1 1 0 0 0-.25-.7 2.42 2.42 0 0 0-.84-.56zM8.79 11a2.4 2.4 0 0 0 .33-1.27 2.32 2.32 0 0 0-.25-1.1 1.81 1.81 0 0 0-.7-.75 2 2 0 0 0-1-.26 2.18 2.18 0 0 0-1.09.27 1.87 1.87 0 0 0-.73.77 2.41 2.41 0 0 0-.26 1.15 2.26 2.26 0 0 0 .24 1.05 1.83 1.83 0 0 0 .68.75 2 2 0 0 0 1 .29l.85 1h1.19l-1.2-1.11a1.81 1.81 0 0 0 .94-.79zm-.93-.26a1 1 0 0 1-1.53 0 1.51 1.51 0 0 1-.28-1 1.48 1.48 0 0 1 .29-1 .92.92 0 0 1 .78-.37.89.89 0 0 1 .75.37 1.62 1.62 0 0 1 .27 1 1.46 1.46 0 0 1-.28 1.03z" fill="#f2f2f2"></path><path d="M14.81 17.49l.24-.79.47-.27.81.36.52-.53v-.06l-.37-.71.22-.5.81-.29h.09v-.73h-.1l-.8-.24-.26-.46.35-.82-.53-.51h-.06l-.71.36L15 12l-.32-.89h-.74v.11l-.24.79-.51.22-.87-.4-.51.53.05.1.38.74-.2.51-.94.29v.74h.11l.79.24.22.51-.39.86.53.52.09-.05.74-.38.51.2.34.89h.73zm-1.2-2.36a1.06 1.06 0 1 1 1.49-1.52 1.06 1.06 0 0 1-1.49 1.52z" fill="#949494"></path></g><defs>
<linearGradient id="a" x1="9" y1="16.39" x2="9" y2="-1.94" gradientUnits="userSpaceOnUse"><stop offset="0" stop-color="#0078d4"></stop><stop offset=".16" stop-color="#1380da"></stop><stop offset=".53" stop-color="#3c91e5"></stop><stop offset=".82" stop-color="#559cec"></stop><stop offset="1" stop-color="#5ea0ef"></stop></linearGradient>
<linearGradient id="b" x1="9.88" y1="7.11" x2="9.99" y2="17.27" gradientUnits="userSpaceOnUse"><stop offset="0" stop-color="#32d4f5"></stop><stop offset=".32" stop-color="#31d1f3"></stop><stop offset=".53" stop-color="#2ec9eb"></stop><stop offset=".7" stop-color="#29bade"></stop><stop offset=".86" stop-color="#22a5cb"></stop><stop offset="1" stop-color="#198ab3"></stop><stop offset="1" stop-color="#198ab3"></stop></linearGradient>
<radialGradient id="c" cx="9.43" cy="7.03" r="7.27" gradientUnits="userSpaceOnUse"><stop offset="0" stop-color="#f2f2f2"></stop><stop offset=".58" stop-color="#eee"></stop><stop offset="1" stop-color="#e6e6e6"></stop></radialGradient>
<linearGradient id="5b612930-a7c8-44c8-abfb-b98c8b7edce1" x1=".5" y1="10.04" x2="13.18" y2="10.04" gradientUnits="userSpaceOnUse"><stop offset="0" stop-color="#005ba1"></stop><stop offset=".07" stop-color="#0060a9"></stop><stop offset=".36" stop-color="#0071c8"></stop><stop offset=".52" stop-color="#0078d4"></stop><stop offset=".64" stop-color="#0074cd"></stop><stop offset=".82" stop-color="#006abb"></stop><stop offset="1" stop-color="#005ba1"></stop></linearGradient>
</defs>
</svg>