<svg viewBox="0 0 18 18" class="" role="presentation" focusable="false" xmlns:svg="http://www.w3.org/2000/svg" xmlns:xlink="http://www.w3.org/1999/xlink" id="FxSymbol0-07a" data-type="1"><g><title>Icon-databases-125</title><path fill="url(#fbb0c6d7-8dd3-4464-9217-32033b9dbe40)" d="M7.37.5L.68 4.38v.96h1.23v7.28h1.21V5.34h8.5v7.89h1.21V5.34h1.23v-.96L7.37.5z"></path><path d="M4.33 12.62h2.43V10.2H4.33zm3.64 0h2.43V10.2H8zM4.33 9h2.43V6.55H4.33zM8 6.55V9h2.4V6.55z" fill="#50e6ff"></path><path d="M13.14 10.41c-2.31 0-4.14-.6-4.14-1.33v7.09c0 .73 1.84 1.32 4.12 1.33h.06c2.31 0 4.18-.6 4.18-1.33V9.08c-.04.73-1.91 1.33-4.22 1.33z" fill="url(#f4df9409-8db7-49ba-98de-c39ce5949175)"></path><path d="M17.32 9.08c0 .73-1.87 1.33-4.18 1.33S9 9.81 9 9.08s1.87-1.33 4.18-1.33 4.18.59 4.18 1.33" fill="#e8e8e8"></path><path d="M16.35 9c0 .47-1.44.85-3.21.85s-3.2-.41-3.2-.85 1.43-.85 3.2-.85 3.21.38 3.21.85" fill="#50e6ff"></path><path d="M13.14 9.17a8.59 8.59 0 0 0-2.54.32 8.5 8.5 0 0 0 2.54.33 8.5 8.5 0 0 0 2.54-.33 8.59 8.59 0 0 0-2.54-.32z" fill="#32bedd"></path></g><defs>
<linearGradient id="fbb0c6d7-8dd3-4464-9217-32033b9dbe40" x1="7.37" y1=".5" x2="7.37" y2="13.23" gradientUnits="userSpaceOnUse"><stop offset="0" stop-color="#b3b2b3"></stop><stop offset=".38" stop-color="#afaeaf"></stop><stop offset=".76" stop-color="#a2a2a2"></stop><stop offset="1" stop-color="#979797"></stop></linearGradient>
<linearGradient id="f4df9409-8db7-49ba-98de-c39ce5949175" x1="8.96" y1="13.29" x2="17.32" y2="13.29" gradientUnits="userSpaceOnUse"><stop offset="0" stop-color="#005ba1"></stop><stop offset=".07" stop-color="#0060a9"></stop><stop offset=".36" stop-color="#0071c8"></stop><stop offset=".52" stop-color="#0078d4"></stop><stop offset=".64" stop-color="#0074cd"></stop><stop offset=".82" stop-color="#006abb"></stop><stop offset="1" stop-color="#005ba1"></stop></linearGradient>
</defs>
</svg>