<svg viewBox="0 0 18 18" class="" role="presentation" focusable="false" xmlns:svg="http://www.w3.org/2000/svg" xmlns:xlink="http://www.w3.org/1999/xlink" id="FxSymbol0-07e" data-type="1"><g><title>SQL elastic pool</title><rect x="2.46" y="2.46" width="13.08" height="13.08" rx=".61" transform="rotate(-45 8.999 9.003)" fill="url(#a3e5dfd8-a5f0-49b4-8cf9-1d0f89138e2c)"></rect><path d="M9 3.41c-.95 0-1.71-.24-1.71-.55v2.91c0 .29.75.54 1.68.54H9c.94 0 1.71-.24 1.71-.54V2.86c.01.31-.71.55-1.71.55z" fill="#50e6ff"></path><path d="M10.72 2.86c0 .31-.77.55-1.71.55S7.3 3.17 7.3 2.86s.76-.54 1.7-.54 1.71.24 1.71.54" fill="#eaeaea"></path><path d="M10.32 2.82c0 .19-.59.35-1.31.35S7.7 3 7.7 2.82s.58-.35 1.3-.35 1.31.16 1.31.35" fill="#50e6ff"></path><path d="M9 2.9A3.57 3.57 0 0 0 8 3a3.52 3.52 0 0 0 1 .14A3.52 3.52 0 0 0 10 3a3.62 3.62 0 0 0-1-.1z" fill="#32bedd"></path><path d="M9 12.82c-.95 0-1.71-.24-1.71-.55v2.91c0 .29.75.54 1.68.54H9c.94 0 1.71-.24 1.71-.54v-2.91c.01.31-.71.55-1.71.55z" fill="#50e6ff"></path><path d="M10.72 12.27c0 .31-.77.55-1.71.55s-1.71-.24-1.71-.55.76-.54 1.71-.54 1.71.24 1.71.54" fill="#eaeaea"></path><path d="M10.32 12.23c0 .19-.59.35-1.31.35s-1.31-.16-1.31-.35.58-.35 1.31-.35 1.31.16 1.31.35" fill="#50e6ff"></path><path d="M9 12.31a3.57 3.57 0 0 0-1 .13 3.52 3.52 0 0 0 1 .14 3.52 3.52 0 0 0 1-.14 3.62 3.62 0 0 0-1-.13z" fill="#32bedd"></path><path d="M13.22 8.09c-1 0-1.71-.24-1.71-.54v2.9c0 .3.75.54 1.69.55.94 0 1.71-.25 1.71-.55v-2.9c.02.3-.75.54-1.69.54z" fill="#50e6ff"></path><path d="M14.93 7.55c0 .3-.77.54-1.71.54s-1.71-.24-1.71-.54.76-.55 1.71-.55 1.71.25 1.71.55" fill="#eaeaea"></path><path d="M14.53 7.5c0 .2-.59.35-1.31.35s-1.31-.15-1.31-.35.58-.34 1.31-.34 1.31.15 1.31.34" fill="#50e6ff"></path><path d="M13.22 7.58a3.52 3.52 0 0 0-1 .14 3.57 3.57 0 0 0 1 .13 3.57 3.57 0 0 0 1-.13 3.57 3.57 0 0 0-1-.14z" fill="#32bedd"></path><path d="M4.92 8.09c-.95 0-1.71-.24-1.71-.54v2.9c0 .3.75.54 1.68.55.94 0 1.71-.25 1.71-.55v-2.9c.03.3-.74.54-1.68.54z" fill="#50e6ff"></path><path d="M6.63 7.55c0 .3-.77.54-1.71.54s-1.71-.24-1.71-.54S4 7 4.92 7s1.71.25 1.71.55" fill="#eaeaea"></path><path d="M6.23 7.5c0 .2-.59.35-1.31.35S3.61 7.7 3.61 7.5s.58-.34 1.31-.34 1.31.15 1.31.34" fill="#50e6ff"></path><path d="M4.92 7.58a3.52 3.52 0 0 0-1 .14 3.57 3.57 0 0 0 1 .13 3.57 3.57 0 0 0 1-.13 3.57 3.57 0 0 0-1-.14z" fill="#32bedd"></path></g><defs>
<linearGradient id="a3e5dfd8-a5f0-49b4-8cf9-1d0f89138e2c" x1="-3071.86" y1="6711.69" x2="-3071.86" y2="6747.69" gradientTransform="matrix(.35 .35 .35 -.35 -1284.32 3474.58)" gradientUnits="userSpaceOnUse"><stop offset="0" stop-color="#005ba1"></stop><stop offset=".1" stop-color="#0060a9"></stop><stop offset=".52" stop-color="#0071c8"></stop><stop offset=".75" stop-color="#0078d4"></stop></linearGradient>
</defs>
</svg>