<svg viewBox="0 0 18 18" class="" role="presentation" focusable="false" xmlns="http://www.w3.org/2000/svg" xmlns:xlink="http://www.w3.org/1999/xlink" id="FxSymbol0-0d1" data-type="1"><g><path d="M0 5.6h18v10.035a.6.6 0 0 1-.6.6H.6a.6.6 0 0 1-.6-.6V5.6Z" fill="url(#59616712-f700-4139-92c6-bd98d17f0258)"></path><rect x="1.309" y="6.657" width="15.527" height="8.514" rx=".6" fill="#5ea0ef" opacity=".6"></rect><path d="M.6 1.764h16.8a.6.6 0 0 1 .6.6V5.6H0V2.365a.6.6 0 0 1 .6-.601Z" fill="#005ba1"></path><path d="m7.109 13.217-.321.32a.144.144 0 0 1-.205 0l-2.325-2.332a.29.29 0 0 1 0-.41l.321-.32 2.531 2.537a.145.145 0 0 1-.001.205Zm3.653 0 .321.32a.144.144 0 0 0 .205 0l2.325-2.332a.29.29 0 0 0 0-.41l-.322-.32-2.53 2.537a.145.145 0 0 0 .001.205Z" opacity=".8" class="msportalfx-svg-c01" fill="#ffffff"></path><path d="m6.831 8.433.32.321a.144.144 0 0 1 0 .205l-2.575 2.568-.32-.322a.289.289 0 0 1 0-.41l2.37-2.363a.145.145 0 0 1 .205.001Zm4.207 0-.32.321a.144.144 0 0 0 0 .205l2.575 2.568.32-.321a.292.292 0 0 0 0-.411l-2.37-2.362a.144.144 0 0 0-.205.001Zm-2.879 5.93-.513-.163a.105.105 0 0 1-.067-.131l2.09-6.529a.1.1 0 0 1 .13-.067l.513.164a.1.1 0 0 1 .067.13L8.289 14.3a.1.1 0 0 1-.13.063ZM3.166 3.847a.76.76 0 1 1-.76-.76.76.76 0 0 1 .76.76Zm1.634-.76a.76.76 0 1 0 .76.76.76.76 0 0 0-.76-.76Zm2.393 0a.76.76 0 1 0 .76.76.76.76 0 0 0-.762-.76Z" class="msportalfx-svg-c01" fill="#ffffff"></path></g><defs>
<linearGradient id="59616712-f700-4139-92c6-bd98d17f0258" x1="9" y1="16.236" x2="9" y2="5.599" gradientUnits="userSpaceOnUse"><stop offset="0" stop-color="#005ba1"></stop><stop offset=".775" stop-color="#0078d4"></stop></linearGradient>
</defs>
</svg>