<svg viewBox="0 0 50 50" class="" role="presentation" focusable="false" xmlns="http://www.w3.org/2000/svg" xmlns:xlink="http://www.w3.org/1999/xlink" id="FxSymbol0-224" data-type="1"><g><title></title><path d="M5 0h40v50H5z" class="msportalfx-svg-c16" fill="#3999c6"></path><path d="M9.531 38.289l-.462-.413c-.092-.083-.092-.248 0-.413l1.293-.992c.092-.083.092-.083.185-.083.092 0 .185 0 .185.083l3.417 3.306 5.911-6.694c.093-.083.185-.083.277-.083s.092 0 .185.083l1.385.909c.093.082.093.082.093.165s0 .165-.092.165L14.242 43l-4.711-4.711z" class="msportalfx-svg-c01" fill="#ffffff"></path><path d="M25 36.5h16v3H25z" opacity=".6" class="msportalfx-svg-c01" fill="#ffffff"></path><path d="M9.531 25.289l-.462-.413c-.092-.083-.092-.248 0-.413l1.293-.992c.092-.083.092-.083.185-.083.092 0 .185 0 .185.083l3.417 3.306 5.911-6.694c.093-.083.185-.083.277-.083s.092 0 .185.083l1.385.909c.093.082.093.082.093.165s0 .165-.092.165L14.242 30l-4.711-4.711z" class="msportalfx-svg-c01" fill="#ffffff"></path><path d="M25 23.5h16v3H25z" opacity=".6" class="msportalfx-svg-c01" fill="#ffffff"></path><path d="M9.531 12.289l-.462-.413c-.092-.083-.092-.248 0-.413l1.293-.992c.092-.083.092-.083.185-.083.092 0 .185 0 .185.083l3.417 3.306 5.911-6.694C20.153 7 20.245 7 20.337 7s.092 0 .185.083l1.385.909c.093.082.093.082.093.165s0 .165-.092.165L14.242 17l-4.711-4.711z" class="msportalfx-svg-c01" fill="#ffffff"></path><path d="M25 10.5h16v3H25z" opacity=".6" class="msportalfx-svg-c01" fill="#ffffff"></path></g><defs>
</defs>
</svg>