<svg viewBox="0 0 18 18" class="" role="presentation" focusable="false" xmlns:svg="http://www.w3.org/2000/svg" xmlns:xlink="http://www.w3.org/1999/xlink" id="FxSymbol0-076" data-type="1"><g><title>Icon-91Artboard 1</title><path fill="#005ba1" d="M9 10.2h7.9v2.9H9z"></path><path d="M1.3 1h3.3a.32.32 0 0 1 .3.3v2.4a.32.32 0 0 1-.3.3H1.3Q1 3.85 1 3.7V1.3a.27.27 0 0 1 .3-.3z" fill="#32bedd"></path><path fill="#005ba1" d="M1.5 13.5h14.9v3.1H1.5z"></path><path d="M5.1 6.8h3.3a.32.32 0 0 0 .3-.3V4.2a.32.32 0 0 0-.3-.3H5.1a.27.27 0 0 0-.3.3v2.4a.32.32 0 0 1-.3.3H1.3c-.2-.1-.3.1-.3.2v2.4a.32.32 0 0 0 .3.3h3.3a.32.32 0 0 0 .3-.3V7.1c-.1-.1 0-.3.2-.3z" fill="#32bedd"></path><path d="M17 3.5a.32.32 0 0 0-.3-.3h-4a.27.27 0 0 0-.3.3v3.1H8.7v3.2H4.8v3.3H1.3a.32.32 0 0 0-.3.3v3.3a.27.27 0 0 0 .3.3h15.5a.32.32 0 0 0 .3-.3V3.5zm-12.2 13H1.5v-2.8h3.2zm3.9 0H5.3v-2.8h3.4zm0-3.4H5.3v-2.8h3.4zm.5-6h3.3v2.7H9.2zm0 3.3h3.3v2.7H9.2zm0 6.1v-2.8h3.3v2.8zm3.8-6.1h3.5v2.7H13zm3.5-.6H13V7.1h3.5zM13 16.5v-2.8h3.5v2.8z" fill="url(#b21895ff-039f-470f-b1b0-2269a7759626)"></path></g><defs>
<linearGradient id="b21895ff-039f-470f-b1b0-2269a7759626" x1="9.05" y1="3" x2="9.05" y2="16.8" gradientTransform="matrix(1 0 0 -1 0 20)" gradientUnits="userSpaceOnUse"><stop offset="0" stop-color="#949494"></stop><stop offset="1" stop-color="#bfbfbf"></stop></linearGradient>
</defs>
</svg>