<svg viewBox="0 0 287 287" class="" role="presentation" focusable="false" xmlns:svg="http://www.w3.org/2000/svg" xmlns:xlink="http://www.w3.org/1999/xlink" id="FxSymbol0-081" data-type="1"><g><title></title><g clip-path="url(#a)"><path d="M287 163.431a64.736 64.736 0 0 0-55.965-62.024 81.32 81.32 0 0 0-83.708-77.65 83.709 83.709 0 0 0-79.723 54.371A76.533 76.533 0 0 0 0 152.11a78.126 78.126 0 0 0 80.838 75.099h137.92a23.34 23.34 0 0 0 3.508 0A65.373 65.373 0 0 0 287 163.431z" fill="url(#b)"></path><path d="M193.408 98.855h-88.173V255.11a8.291 8.291 0 0 0 8.291 8.291h79.722a8.291 8.291 0 0 0 8.291-8.291V107.146a8.289 8.289 0 0 0-8.131-8.291z" fill="url(#c)"></path><path d="M89.652 98.856a1.435 1.435 0 0 1-1.595-1.594V78.766a1.752 1.752 0 0 0-2.027-1.505c-.31.051-.602.186-.843.389L53.3 109.539a1.593 1.593 0 0 0 0 2.232l31.888 31.889a1.75 1.75 0 0 0 1.83.251 1.757 1.757 0 0 0 1.04-1.527v-19.133a1.593 1.593 0 0 1 1.595-1.594h15.944V98.856H89.652z" class="msportalfx-svg-c01" fill="#ffffff"></path><path d="M119.425 156.574a10.355 10.355 0 0 1 3.034-7.489 10.37 10.37 0 0 1 7.489-3.034h47.833a10.526 10.526 0 0 1 10.524 10.523 10.526 10.526 0 0 1-10.524 10.364h-47.833a10.374 10.374 0 0 1-7.432-2.978 10.359 10.359 0 0 1-3.091-7.386zm-.001-31.251a10.52 10.52 0 0 1 10.523-10.524h47.833a10.683 10.683 0 0 1 10.524 10.524 10.683 10.683 0 0 1-10.524 10.523h-47.833a10.524 10.524 0 0 1-10.523-10.523z" fill="#003067"></path><path d="M130.266 132.338a7.016 7.016 0 1 0-.001-14.031 7.016 7.016 0 0 0 .001 14.031zm0 31.252a7.015 7.015 0 1 0 0-14.03 7.015 7.015 0 0 0 0 14.03z" fill="#50E6FF"></path><path d="M157.532 216.685l-31.889 31.889a1.749 1.749 0 0 1-1.83.251 1.758 1.758 0 0 1-1.04-1.527v-18.814a1.596 1.596 0 0 0-1.594-1.595h-16.583v-22.8h17.061a1.443 1.443 0 0 0 1.184-.41 1.433 1.433 0 0 0 .41-1.185v-18.495a1.754 1.754 0 0 1 2.87-1.116l31.889 31.889c.147.326.179.692.092 1.039a1.589 1.589 0 0 1-.57.874z" fill="#0078D4"></path></g><defs><clipPath id="a"><path d="M0 0h287v287H0z" class="msportalfx-svg-c01" fill="#ffffff"></path></clipPath></defs></g><defs>
<linearGradient id="a" x1="9" y1="16.39" x2="9" y2="-1.94" gradientUnits="userSpaceOnUse"><stop offset="0" stop-color="#0078d4"></stop><stop offset=".16" stop-color="#1380da"></stop><stop offset=".53" stop-color="#3c91e5"></stop><stop offset=".82" stop-color="#559cec"></stop><stop offset="1" stop-color="#5ea0ef"></stop></linearGradient>
<linearGradient id="b" x1="9.88" y1="7.11" x2="9.99" y2="17.27" gradientUnits="userSpaceOnUse"><stop offset="0" stop-color="#32d4f5"></stop><stop offset=".32" stop-color="#31d1f3"></stop><stop offset=".53" stop-color="#2ec9eb"></stop><stop offset=".7" stop-color="#29bade"></stop><stop offset=".86" stop-color="#22a5cb"></stop><stop offset="1" stop-color="#198ab3"></stop><stop offset="1" stop-color="#198ab3"></stop></linearGradient>
<radialGradient id="c" cx="9.43" cy="7.03" r="7.27" gradientUnits="userSpaceOnUse"><stop offset="0" stop-color="#f2f2f2"></stop><stop offset=".58" stop-color="#eee"></stop><stop offset="1" stop-color="#e6e6e6"></stop></radialGradient>
</defs>
</svg>