<svg viewBox="0 0 287 287" class="" role="presentation" focusable="false" xmlns="http://www.w3.org/2000/svg" xmlns:xlink="http://www.w3.org/1999/xlink" id="FxSymbol0-0c6" data-type="1"><g><title></title><g clip-path="url(#59616712-f700-4139-92c6-bd98d17f024c)"><path d="M287 163.431a64.736 64.736 0 0 0-55.965-62.024 81.32 81.32 0 0 0-83.708-77.65 83.709 83.709 0 0 0-79.723 54.371A76.533 76.533 0 0 0 0 152.11a78.126 78.126 0 0 0 80.838 75.099h137.92a23.34 23.34 0 0 0 3.508 0A65.373 65.373 0 0 0 287 163.431Z" fill="url(#59616712-f700-4139-92c6-bd98d17f024a)"></path><path d="M193.408 98.855h-88.173V255.11a8.291 8.291 0 0 0 8.291 8.291h79.722a8.291 8.291 0 0 0 8.291-8.291V107.146a8.289 8.289 0 0 0-8.131-8.291Z" fill="url(#59616712-f700-4139-92c6-bd98d17f024b)"></path><path d="M89.652 98.856a1.435 1.435 0 0 1-1.595-1.594V78.766a1.752 1.752 0 0 0-2.027-1.505c-.31.051-.602.186-.843.389L53.3 109.539a1.593 1.593 0 0 0 0 2.232l31.888 31.889a1.75 1.75 0 0 0 1.83.251 1.757 1.757 0 0 0 1.04-1.527v-19.133a1.593 1.593 0 0 1 1.595-1.594h15.944V98.856H89.652Z" class="msportalfx-svg-c01" fill="#ffffff"></path><path d="M119.425 156.574a10.355 10.355 0 0 1 3.034-7.489 10.37 10.37 0 0 1 7.489-3.034h47.833a10.526 10.526 0 0 1 10.524 10.523 10.526 10.526 0 0 1-10.524 10.364h-47.833a10.374 10.374 0 0 1-7.432-2.978 10.359 10.359 0 0 1-3.091-7.386Zm-.001-31.251a10.52 10.52 0 0 1 10.523-10.524h47.833a10.683 10.683 0 0 1 10.524 10.524 10.683 10.683 0 0 1-10.524 10.523h-47.833a10.524 10.524 0 0 1-10.523-10.523Z" fill="#003067"></path><path d="M130.266 132.338a7.016 7.016 0 1 0-.001-14.031 7.016 7.016 0 0 0 .001 14.031Zm0 31.252a7.015 7.015 0 1 0 0-14.03 7.015 7.015 0 0 0 0 14.03Z" fill="#50E6FF"></path><path d="m157.532 216.685-31.889 31.889a1.749 1.749 0 0 1-1.83.251 1.758 1.758 0 0 1-1.04-1.527v-18.814a1.596 1.596 0 0 0-1.594-1.595h-16.583v-22.8h17.061a1.443 1.443 0 0 0 1.184-.41 1.433 1.433 0 0 0 .41-1.185v-18.495a1.754 1.754 0 0 1 2.87-1.116l31.889 31.889c.147.326.179.692.092 1.039a1.589 1.589 0 0 1-.57.874Z" fill="#0078D4"></path></g><defs></defs></g><defs>
<linearGradient id="59616712-f700-4139-92c6-bd98d17f024a" x1="143.5" y1="286.841" x2="143.5" y2="-22.641" gradientUnits="userSpaceOnUse"><stop stop-color="#0078D4"></stop><stop offset=".14" stop-color="#077BD6"></stop><stop offset=".34" stop-color="#1A83DB"></stop><stop offset=".59" stop-color="#3990E4"></stop><stop offset=".82" stop-color="#5EA0EF"></stop></linearGradient>
<linearGradient id="59616712-f700-4139-92c6-bd98d17f024b" x1="153.547" y1="263.242" x2="153.547" y2="98.855" gradientUnits="userSpaceOnUse"><stop stop-color="#949494"></stop><stop offset=".41" stop-color="#C1C1C1"></stop><stop offset="1" stop-color="#fff"></stop></linearGradient>
<clipPath id="59616712-f700-4139-92c6-bd98d17f024c"><path d="M0 0h287v287H0z" class="msportalfx-svg-c01"></path></clipPath>
</defs>
</svg>