<svg viewBox="0 0 18 18" data-islogo="true" class="" role="presentation" focusable="false" xmlns:svg="http://www.w3.org/2000/svg" xmlns:xlink="http://www.w3.org/1999/xlink" id="FxSymbol0-0f6" data-type="311"><g><path d="M18 9.5a4.06 4.06 0 0 0-3.51-3.89A5.1 5.1 0 0 0 9.24.74a5.23 5.23 0 0 0-5 3.41A4.82 4.82 0 0 0 0 8.79a4.9 4.9 0 0 0 5.07 4.71h8.65a1.46 1.46 0 0 0 .22 0 4.1 4.1 0 0 0 4.06-4z" fill="url(#e8b88cb7-cc06-4f34-a669-3f3703632ab0)"></path><rect x="9.23" y="16.36" width="4.25" height=".9" rx=".3" fill="#198ab3"></rect><rect x="9.23" y="14.45" width="4.25" height=".9" rx=".3" fill="#32bedd"></rect><rect x="9.23" y="12.55" width="4.25" height=".9" rx=".3" fill="#50e6ff"></rect><rect x="4.95" y="7.8" width="4.25" height=".9" rx=".3" fill="#f2f2f2"></rect><rect x="4.95" y="9.55" width="4.25" height=".9" rx=".3" fill="#f2f2f2"></rect><rect x="4.95" y="11.31" width="4.25" height=".9" rx=".3" fill="#f2f2f2"></rect></g><defs>
<linearGradient id="a" x1="9" y1="16.39" x2="9" y2="-1.94" gradientUnits="userSpaceOnUse"><stop offset="0" stop-color="#0078d4"></stop><stop offset=".16" stop-color="#1380da"></stop><stop offset=".53" stop-color="#3c91e5"></stop><stop offset=".82" stop-color="#559cec"></stop><stop offset="1" stop-color="#5ea0ef"></stop></linearGradient>
<linearGradient id="b" x1="9.88" y1="7.11" x2="9.99" y2="17.27" gradientUnits="userSpaceOnUse"><stop offset="0" stop-color="#32d4f5"></stop><stop offset=".32" stop-color="#31d1f3"></stop><stop offset=".53" stop-color="#2ec9eb"></stop><stop offset=".7" stop-color="#29bade"></stop><stop offset=".86" stop-color="#22a5cb"></stop><stop offset="1" stop-color="#198ab3"></stop><stop offset="1" stop-color="#198ab3"></stop></linearGradient>
<radialGradient id="c" cx="9.43" cy="7.03" r="7.27" gradientUnits="userSpaceOnUse"><stop offset="0" stop-color="#f2f2f2"></stop><stop offset=".58" stop-color="#eee"></stop><stop offset="1" stop-color="#e6e6e6"></stop></radialGradient>
<linearGradient id="e8b88cb7-cc06-4f34-a669-3f3703632ab0" x1="9" y1="13.5" x2="9" y2=".74" gradientUnits="userSpaceOnUse"><stop offset="0" stop-color="#0078d4"></stop><stop offset=".16" stop-color="#1380da"></stop><stop offset=".53" stop-color="#3c91e5"></stop><stop offset=".82" stop-color="#559cec"></stop><stop offset="1" stop-color="#5ea0ef"></stop></linearGradient>
</defs>
</svg>