<svg viewBox="0 0 18 18" class="" role="presentation" focusable="false" xmlns="http://www.w3.org/2000/svg" xmlns:xlink="http://www.w3.org/1999/xlink" id="FxSymbol0-152" data-type="233"><g><title>MsPortalFx.base.images-2</title><path d="M.544 5.316h16.912v9.918a.565.565 0 0 1-.565.565H1.109a.565.565 0 0 1-.565-.565V5.316z" fill="url(#aa32ebca-eeba-4b3a-9ee4-7e15a794a5d5)"></path><path d="M1.112 2.2h15.776a.565.565 0 0 1 .565.565v2.55H.547V2.766a.565.565 0 0 1 .565-.566z" fill="#0078d4"></path><path d="M13.528 7.347H9.384a.228.228 0 0 1-.124-.037l-1.183-.787a.218.218 0 0 0-.123-.038H4.472a.222.222 0 0 0-.222.222v7.315a.221.221 0 0 0 .222.222h9.056a.221.221 0 0 0 .222-.222V7.569a.222.222 0 0 0-.222-.222z" fill="#f78d1e"></path><rect x="5.114" y="6.91" width="2.159" height=".432" rx=".091" class="msportalfx-svg-c01" fill="#ffffff"></rect><rect x="5.114" y="6.91" width=".432" height=".432" rx=".062" fill="#d15900"></rect><path d="M13.528 7.337H8.977a.219.219 0 0 0-.157.063l-.732.731a.22.22 0 0 1-.157.066H4.472a.221.221 0 0 0-.222.221v5.591a.221.221 0 0 0 .222.222h9.056a.221.221 0 0 0 .222-.222V7.558a.221.221 0 0 0-.222-.221z" class="msportalfx-svg-c01" fill="#ffffff"></path></g><defs>
<linearGradient id="aa32ebca-eeba-4b3a-9ee4-7e15a794a5d5" x1="9" y1="15.799" x2="9" y2="5.316" gradientUnits="userSpaceOnUse"><stop offset="0" stop-color="#32bedd"></stop><stop offset=".775" stop-color="#32d4f5"></stop></linearGradient>
</defs>
</svg>