<svg viewBox="0 0 18 18" data-islogo="true" class="" role="presentation" focusable="false" xmlns:svg="http://www.w3.org/2000/svg" xmlns:xlink="http://www.w3.org/1999/xlink" id="FxSymbol0-031" data-type="63"><g><path d="M.5 5.79h17v9.48a.57.57 0 0 1-.57.57H1.07a.57.57 0 0 1-.57-.57V5.79z" fill="url(#a06af2a2-274d-4a73-a200-95a0a116ffce)"></path><path d="M1.07 2.17h15.86a.57.57 0 0 1 .57.57v3.05H.5V2.73a.57.57 0 0 1 .57-.56z" fill="#37c2b1"></path><path d="M2.81 6.89h12.37a.27.27 0 0 1 .26.27v1.4a.27.27 0 0 1-.26.27H2.81a.27.27 0 0 1-.26-.27v-1.4a.27.27 0 0 1 .26-.27z" class="msportalfx-svg-c01" fill="#ffffff"></path><path d="M2.82 9.68h12.37a.27.27 0 0 1 .26.27v1.41a.27.27 0 0 1-.26.27H2.82a.27.27 0 0 1-.26-.27V10a.27.27 0 0 1 .26-.32z" fill="#37c2b1"></path><path d="M2.82 12.5h12.37a.27.27 0 0 1 .26.27v1.41a.27.27 0 0 1-.26.27H2.82a.27.27 0 0 1-.26-.27v-1.41a.27.27 0 0 1 .26-.27z" fill="#258277"></path></g><defs>
<linearGradient id="a" x1="9" y1="16.39" x2="9" y2="-1.94" gradientUnits="userSpaceOnUse"><stop offset="0" stop-color="#0078d4"></stop><stop offset=".16" stop-color="#1380da"></stop><stop offset=".53" stop-color="#3c91e5"></stop><stop offset=".82" stop-color="#559cec"></stop><stop offset="1" stop-color="#5ea0ef"></stop></linearGradient>
<linearGradient id="a06af2a2-274d-4a73-a200-95a0a116ffce" x1="9" y1="15.83" x2="9" y2="5.79" gradientUnits="userSpaceOnUse"><stop offset="0" stop-color="#b3b3b3"></stop><stop offset=".26" stop-color="#c1c1c1"></stop><stop offset="1" stop-color="#e6e6e6"></stop></linearGradient>
<linearGradient id="b" x1="9.88" y1="7.11" x2="9.99" y2="17.27" gradientUnits="userSpaceOnUse"><stop offset="0" stop-color="#32d4f5"></stop><stop offset=".32" stop-color="#31d1f3"></stop><stop offset=".53" stop-color="#2ec9eb"></stop><stop offset=".7" stop-color="#29bade"></stop><stop offset=".86" stop-color="#22a5cb"></stop><stop offset="1" stop-color="#198ab3"></stop><stop offset="1" stop-color="#198ab3"></stop></linearGradient>
<radialGradient id="c" cx="9.43" cy="7.03" r="7.27" gradientUnits="userSpaceOnUse"><stop offset="0" stop-color="#f2f2f2"></stop><stop offset=".58" stop-color="#eee"></stop><stop offset="1" stop-color="#e6e6e6"></stop></radialGradient>
</defs>
</svg>