<svg viewBox="0 0 18 18" class="" role="presentation" focusable="false" xmlns="http://www.w3.org/2000/svg" xmlns:xlink="http://www.w3.org/1999/xlink" id="FxSymbol0-153" data-type="235"><g><title>MsPortalFx.base.images-4</title><path d="M.5 5.788h17v9.478a.568.568 0 0 1-.568.568H1.068a.568.568 0 0 1-.568-.568V5.788z" fill="url(#fc742b2b-5750-4864-b8dc-cdccaac6f13c)"></path><path d="M1.071 2.166h15.858a.568.568 0 0 1 .568.568v3.054H.5V2.734a.568.568 0 0 1 .571-.568z" fill="#0078d4"></path><rect x="2.304" y="7.121" width="3.65" height="1.85" rx=".283" opacity=".9" class="msportalfx-svg-c01" fill="#ffffff"></rect><rect x="7.2" y="7.095" width="3.65" height="1.85" rx=".283" opacity=".9" class="msportalfx-svg-c01" fill="#ffffff"></rect><rect x="12.096" y="7.095" width="3.65" height="1.85" rx=".283" opacity=".9" class="msportalfx-svg-c01" fill="#ffffff"></rect><rect x="2.358" y="9.767" width="3.65" height="1.85" rx=".283" opacity=".9" class="msportalfx-svg-c01" fill="#ffffff"></rect><rect x="7.254" y="9.741" width="3.65" height="1.85" rx=".283" fill="#ffd400"></rect><rect x="12.15" y="9.741" width="3.65" height="1.85" rx=".283" fill="#ffd400"></rect><rect x="2.358" y="12.439" width="3.65" height="1.85" rx=".283" fill="#ffd400"></rect><rect x="7.254" y="12.413" width="3.65" height="1.85" rx=".283" fill="#ffd400"></rect><rect x="12.15" y="12.413" width="3.65" height="1.85" rx=".283" fill="#ffd400"></rect></g><defs>
<linearGradient id="fc742b2b-5750-4864-b8dc-cdccaac6f13c" x1="9" y1="15.834" x2="9" y2="5.788" gradientUnits="userSpaceOnUse"><stop offset="0" stop-color="#0078d4"></stop><stop offset=".502" stop-color="#4093e6"></stop><stop offset=".775" stop-color="#5ea0ef"></stop></linearGradient>
</defs>
</svg>