<svg viewBox="0 0 87.2 96.9" class="" role="presentation" focusable="false" xmlns:svg="http://www.w3.org/2000/svg" xmlns:xlink="http://www.w3.org/1999/xlink" id="FxSymbol0-080" data-type="1"><g><title></title><path d="M29.2 95.6v.3h.3l-.3-.3z" fill="#7ac3e0"></path><path d="M8.6 14.9v67.7c0 7 15.5 12.7 34.4 12.9V27.4c-18.7 0-34-5.5-34.4-12.5z" fill="#39c"></path><path d="M43.8 27.6H43v67.9h.8c19.7 0 35.2-5.7 35.2-12.9v-68c0 7.4-15.9 13-35.2 13z" class="msportalfx-svg-c15" fill="#59b4d9"></path><path d="M8.6 14.8v.4c.6 6.8 15.9 12.4 34.5 12.4h.8C63.1 27.6 79 22 79 14.8c0-5.5-9.5-10.2-22.7-11.9-4-.6-8.1-.9-12.5-.9C24.5 1.9 8.6 7.8 8.6 14.8zm63.2-.6c0 1.7-1.7 3.2-4.4 4.4-5.1 2.5-13.8 4-23.7 4-14.2 0-26.3-3.2-28-7.6v-1c0-4.7 12.5-8.5 28-8.5 15.2.2 28.1 4 28.1 8.7z" class="msportalfx-svg-c01" fill="#ffffff"></path><path d="M71.8 14.2c0-4.7-12.9-8.5-28-8.5 15.1 0 28 4.1 28 8.5zM44 15.9c-9.1 0-17.2 1.3-22.3 3.4-3.2-1.1-5.3-2.5-5.9-4.2 1.5 4.4 13.6 7.6 28 7.6 9.8 0 18.5-1.7 23.7-4-.6.2-1.1.4-1.7.8-5.5-2.3-13.3-3.6-21.8-3.6z" fill="#7fbb42"></path><path d="M43.8 5.7c-15.5 0-28 3.8-28 8.5v1c.6 1.7 2.8 3 5.9 4.2C26.8 17.3 34.9 16 44 16c8.5 0 16.3 1.3 21.6 3.4.6-.2 1.1-.4 1.7-.8 2.6-1.1 4.4-2.6 4.4-4.4.1-4.4-12.8-8.5-27.9-8.5z" fill="#b8d433"></path><path d="M11 51.9c.2.3.1.6 0 .9v-.9z" fill="#9a9b9c"></path><path d="M64 58.5c0-.5-.2-.6-.6-.8l-4.8-1.5c-.3-.1-.5-.2-.6-.5-.3-.8-.7-1.7-1-2.5-.1-.3-.1-.6 0-.9.7-1.5 1.4-3 2.2-4.5.2-.4.2-.7-.2-1-.8-.8-1.6-1.5-2.4-2.4-.4-.5-.8-.5-1.3-.1l-.1.1c-1.4.7-2.8 1.4-4.1 2.1-.3.1-.5.2-.8 0-.8-.4-1.6-.7-2.4-1-.3-.1-.5-.3-.6-.7-.6-1.6-1.2-3.2-1.7-4.8-.1-.3-.3-.5-.6-.5h-3.9c-.4 0-.5.1-.7.5-.5 1.6-1 3.2-1.6 4.8-.1.3-.2.5-.5.6-.8.3-1.7.7-2.5 1-.3.1-.6.1-.9 0-1.6-.8-3.2-1.5-4.7-2.3-.3-.1-.4-.1-.7.1-.9.9-1.8 1.9-2.8 2.8-.3.3-.3.5-.1.8.8 1.5 1.5 3 2.3 4.5.2.3.2.6.1.9-.3.8-.7 1.5-1 2.3-.1.4-.3.6-.7.7-1.6.6-3.2 1.2-4.8 1.7-.4.1-.5.3-.5.6v3.9c0 .4.1.6.5.7 1.6.5 3.2 1.1 4.8 1.6.3.1.5.2.6.6.3.8.7 1.6 1 2.4.1.3.1.6 0 .9-.8 1.6-1.5 3.2-2.3 4.8-.1.2-.1.4.1.6l2.9 2.9c.1.1.2.3.5.1.9-.5 1.9-1 2.8-1.5.7-.3 1.3-.7 2-1 .3-.1.5-.2.8 0 .8.4 1.7.7 2.5 1 .3.1.4.3.5.6.6 1.6 1.2 3.3 1.7 4.9.1.3.3.5.6.5h3.9c.4 0 .5-.2.7-.5.5-1.6 1.1-3.2 1.6-4.8.1-.3.2-.5.5-.6.8-.3 1.7-.7 2.5-1 .3-.1.6-.1.8 0 1.6.8 3.2 1.5 4.7 2.3.3.1.4.1.7-.1.9-.9 1.8-1.9 2.8-2.8.3-.3.3-.4.1-.8-.8-1.5-1.6-3.1-2.3-4.6-.2-.3-.2-.6 0-.9.4-.8.7-1.6 1-2.4.1-.3.3-.5.6-.6 1.6-.6 3.2-1.2 4.8-1.7.4-.1.5-.3.5-.7 0-1.4 0-2.6.1-3.8z" fill="#7c7b7b" stroke="#fff" stroke-width="2" stroke-miterlimit="10"></path><path d="M47.9 53.2c.8-.7.8-.7 1.4-.1 4 3.8 3.9 10.4-.2 14-2.9 2.6-7.6 2.9-11 .7-.2-.1-.4-.3-.6-.4-2-1.6-3.3-3.5-3.7-6-.6-3.2.4-6 2.7-8.3.3-.3.3-.4 0-.7s-.5-.6-.8-.9h4.6c.2 0 .3.1.3.3v4.5c-.5-.5-.9-.8-1.3-1.2-.2-.2-.3-.3-.6 0-3.1 2.6-2.9 7.7.4 10.1.3 0 .5.2.7.3 1 .7 2.2 1 3.3 1 2.4-.1 4.3-1 5.5-3.2 1.4-2.6 1-5.6-1.1-7.8-.2-.2-.6-.4-.7-.8-.1-.1-.1-.2 0-.4.4-.4.8-.7 1.1-1.1z" class="msportalfx-svg-c01" fill="#ffffff"></path></g><defs>
<linearGradient id="a" x1="9" y1="16.39" x2="9" y2="-1.94" gradientUnits="userSpaceOnUse"><stop offset="0" stop-color="#0078d4"></stop><stop offset=".16" stop-color="#1380da"></stop><stop offset=".53" stop-color="#3c91e5"></stop><stop offset=".82" stop-color="#559cec"></stop><stop offset="1" stop-color="#5ea0ef"></stop></linearGradient>
<linearGradient id="b" x1="9.88" y1="7.11" x2="9.99" y2="17.27" gradientUnits="userSpaceOnUse"><stop offset="0" stop-color="#32d4f5"></stop><stop offset=".32" stop-color="#31d1f3"></stop><stop offset=".53" stop-color="#2ec9eb"></stop><stop offset=".7" stop-color="#29bade"></stop><stop offset=".86" stop-color="#22a5cb"></stop><stop offset="1" stop-color="#198ab3"></stop><stop offset="1" stop-color="#198ab3"></stop></linearGradient>
<radialGradient id="c" cx="9.43" cy="7.03" r="7.27" gradientUnits="userSpaceOnUse"><stop offset="0" stop-color="#f2f2f2"></stop><stop offset=".58" stop-color="#eee"></stop><stop offset="1" stop-color="#e6e6e6"></stop></radialGradient>
</defs>
</svg>