<svg viewBox="0 0 18 18" class="" role="presentation" focusable="false" xmlns="http://www.w3.org/2000/svg" xmlns:xlink="http://www.w3.org/1999/xlink" id="FxSymbol0-0c4" data-type="1"><g><title>Icon-613-Storage-Explorer-blue</title><path d="M16.218 6.589h-4.925a.259.259 0 0 0-.259.259v2.981a.259.259 0 0 1-.259.259H6.406a.257.257 0 0 0-.257.257v3.043a.26.26 0 0 1-.26.259H1.521a.258.258 0 0 0-.258.257v3.581a.516.516 0 0 0 .515.515h9.816a.233.233 0 0 0 .053-.006h4.571a.518.518 0 0 0 .519-.518V7.107a.518.518 0 0 0-.519-.518Z" fill="url(#59616712-f700-4139-92c6-bd98d17f0248)"></path><rect x="11.851" y="14.495" width="4.068" height="2.711" rx=".259" fill="#005ba1"></rect><rect x="11.851" y="10.936" width="4.068" height="2.711" rx=".259" fill="#5ea0ef"></rect><rect x="11.851" y="7.377" width="4.068" height="2.711" rx=".259" class="msportalfx-svg-c01" fill="#ffffff"></rect><rect x="6.966" y="14.5" width="4.068" height="2.711" rx=".259" fill="#005ba1"></rect><rect x="6.966" y="10.942" width="4.068" height="2.711" rx=".259" class="msportalfx-svg-c01" fill="#ffffff"></rect><rect x="2.081" y="14.5" width="4.068" height="2.711" rx=".259" fill="#005ba1"></rect><rect x="6.097" y="3.396" width="4.834" height="3.221" rx=".308" fill="#5ea0ef"></rect><rect x="1.263" y="6.76" width="4.834" height="3.221" rx=".308" fill="#0078d4"></rect><rect x="1.263" width="4.834" height="3.221" rx=".308" fill="#83b9f9"></rect></g><defs>
<linearGradient id="59616712-f700-4139-92c6-bd98d17f0248" x1="9.286" y1="7.103" x2="8.876" y2="19.415" gradientUnits="userSpaceOnUse"><stop offset="0" stop-color="#e6e6e6"></stop><stop offset="1" stop-color="#b3b3b3"></stop></linearGradient>
</defs>
</svg>