<svg viewBox="0 0 18 18" class="" role="presentation" focusable="false" xmlns="http://www.w3.org/2000/svg" xmlns:xlink="http://www.w3.org/1999/xlink" id="FxSymbol0-152" data-type="1"><g><title></title><title>Cluster</title><path d="M6.1 12.1c.1-.1.3-.2.4-.3 0-.1.1-.2.1-.3.2-.3.5-.5.8-.6.1-.2.2-.3.3-.4.2-.2.5-.3.8-.4l-.1-.4-.5-.9 1-1V.4c0-.2-.2-.4-.5-.4H.5C.3 0 0 .2 0 .4v11.7c0 .3.3.4.5.4h5.3c.1-.1.2-.3.3-.4z" fill="#949494"></path><path d="M1.3 5.4c0-.5.4-1 1-1h4.5c.5 0 1 .4 1 1 0 .5-.4 1-1 1H2.3c-.5-.1-1-.5-1-1zm0-2.9c0-.5.4-1 1-1h4.5c.5 0 1 .4 1 1 0 .5-.4 1-1 1H2.3c-.5-.1-1-.5-1-1z" fill="#003067"></path><circle cx="2.3" cy="2.5" r=".7" fill="#50e6ff"></circle><path d="M8 15.4c-.7-.2-1.3-.6-1.8-1.1-.6-.6-.6-1.5 0-2.2.1-.1.3-.2.4-.3 0-.1.1-.2.1-.3.2-.3.5-.5.8-.6.1-.2.2-.3.3-.4.2-.2.5-.3.8-.4l-.2-.4-.5-.9 2.1-2 1.4.7.2-.6.6-.6V4.7c0-.3-.3-.5-.5-.4H3.8c-.3 0-.5.2-.5.5v11.7c0 .3.3.5.5.4h5.7L8 15.4z" fill="url(#94a115a1-5689-4c39-bee0-5c63fda4a1d6)"></path><path d="M11.4 16.9v-.1l-.1.1z" fill="url(#94a115a1-5689-4c39-bee0-5c63fda4a1d7)"></path><path d="M17.9 12.6v-1.1l-.1-.1-1.1-.4-.3-.7.6-1.1.1-.1-.4-.4-.4-.4-.1.1-1.1.6-.7-.2-.5-1.2h-1.1l-.1.1-.4 1.1-.8.3-1.3-.6-.7.6.1.1.6 1.1c.6-.4 1.3-.5 1.9-.5.8 0 1.5.2 2.2.7.1 0 .1.1.2.2.3.2.5.5.6.8.1.2.1.4.1.7 0 1.1-.9 2-2 2-.4 0-.8-.1-1.1-.4-.7.6-1.5 1-2.4 1.1l-.1.2.8.8h.2l1.1-.6.8.3.5 1.3h1.1v-.2l.4-1.2.7-.3 1.3.6.8-.8-.1-.1-.6-1.1.2-.8 1.1-.4z" fill="url(#94a115a1-5689-4c39-bee0-5c63fda4a1d8)"></path><path d="M9.4 13.2c-.6 0-1.1-.2-1.6-.6-.1-.1-.2-.2-.1-.4s.3-.2.4-.1l.1.1c.3.3.7.5 1.2.4.4 0 .8-.1 1.1-.4.4-.4 1-.6 1.6-.6.6 0 1.1.2 1.6.6.1.1.1.3 0 .4-.1.1-.3.1-.4 0-.3-.3-.7-.5-1.2-.5-.4 0-.8.2-1.1.5-.5.4-1 .6-1.6.6z" fill="#50e6ff"></path><path d="M9.4 12.1c-.3 0-.6-.1-.8-.3-.1-.1-.1-.3 0-.4s.3-.1.4 0c.1.1.2.2.4.2.1 0 .3-.1.4-.2 1.3-1.3 3.4-1.3 4.7 0 .1.1.1.3 0 .4s-.3.1-.4 0c-1.1-1.1-2.8-1.1-3.9 0-.3.2-.5.3-.8.3z" fill="#50e6ff"></path><path d="M9.4 14.3c-.9 0-1.7-.3-2.4-1-.1-.1-.1-.3 0-.4.1-.1.3-.1.4 0 1.1 1.1 2.8 1.1 3.9 0 .2-.2.5-.3.7-.3.3 0 .6.1.8.3.1.1.1.3 0 .4-.1.1-.3.1-.4 0-.1-.1-.2-.2-.4-.2-.1 0-.3.1-.4.2-.5.7-1.3 1-2.2 1z" fill="#32bedd"></path><path d="m10 6.8.8.4c.1-.1.1-.3.1-.4 0-.5-.4-1-1-1H5.4c-.5 0-1 .4-1 1s.4 1 1 1H9l1-1zm-2.2 3.6c.2-.2.5-.3.8-.4l-.2-.3-.5-.9.1-.1H5.4c-.5 0-1 .5-.9 1 0 .5.4.9.9.9h2.1c.2 0 .2-.1.3-.2z" fill="#003067"></path><circle cx="2.3" cy="5.4" r=".7" fill="#50e6ff"></circle><circle cx="5.5" cy="6.8" r=".7" fill="#50e6ff"></circle><circle cx="5.5" cy="9.7" r=".7" fill="#50e6ff"></circle></g><defs>
<linearGradient id="94a115a1-5689-4c39-bee0-5c63fda4a1d6" gradientUnits="userSpaceOnUse" x1="7.691" y1="3.157" x2="7.691" y2="15.72" gradientTransform="matrix(1 0 0 -1 0 20)"><stop offset="0" stop-color="#b3b2b3"></stop><stop offset=".38" stop-color="#afaeaf"></stop><stop offset=".76" stop-color="#a2a2a2"></stop><stop offset="1" stop-color="#979797"></stop></linearGradient>
<linearGradient id="94a115a1-5689-4c39-bee0-5c63fda4a1d7" gradientUnits="userSpaceOnUse" x1="11.352" y1="3.15" x2="11.352" y2="3.226" gradientTransform="matrix(1 0 0 -1 0 20)"><stop offset="0" stop-color="#b3b2b3"></stop><stop offset=".38" stop-color="#afaeaf"></stop><stop offset=".76" stop-color="#a2a2a2"></stop><stop offset="1" stop-color="#979797"></stop></linearGradient>
<linearGradient id="94a115a1-5689-4c39-bee0-5c63fda4a1d8" gradientUnits="userSpaceOnUse" x1="13.718" y1="-59.133" x2="13.718" y2="-68.586" gradientTransform="matrix(1 0 0 .99 0 75.35)"><stop offset="0" stop-color="#949494"></stop><stop offset=".33" stop-color="#9b9b9b"></stop><stop offset=".82" stop-color="#aeafb0"></stop><stop offset="1" stop-color="#b6b8b9"></stop></linearGradient>
</defs>
</svg>