<svg viewBox="0 0 18 18" class="" role="presentation" focusable="false" xmlns="http://www.w3.org/2000/svg" xmlns:xlink="http://www.w3.org/1999/xlink" id="FxSymbol0-083" data-type="1"><g><title>Icon-analytics-147</title><path d="M18 9.69V7.9l-.1-.09-1.84-.62L15.59 6l.91-1.88.1-.21-.6-.61-.7-.69-.24.12-1.8.91-1.21-.34-.78-2H9.48l-.09.09-.62 1.83-1.26.47-2.08-1-1.28 1.25.12.24L5.23 6a6 6 0 0 1 3.2-.86A6.26 6.26 0 0 1 12 6.28a3.32 3.32 0 0 1 .36.26 3.25 3.25 0 0 1 .93 1.35A3 3 0 0 1 13.5 9a3.23 3.23 0 0 1-3.25 3.23 3.27 3.27 0 0 1-1.87-.59 6.31 6.31 0 0 1-4 1.75l-.19.39 1.28 1.29.26-.07 1.8-1 1.24.51.79 2.16h1.8l.07-.25.64-1.91 1.22-.51 2.11 1 1.27-1.26-.12-.24-.93-1.79.38-1.25z" fill="url(#1495058511568459)"></path><path d="M4 10.65A3.6 3.6 0 0 1 1.44 9.6a.46.46 0 1 1 .65-.6A2.65 2.65 0 0 0 4 9.73 2.62 2.62 0 0 0 5.88 9a3.55 3.55 0 0 1 2.55-1A3.64 3.64 0 0 1 11 9a.46.46 0 1 1-.65.65 2.69 2.69 0 0 0-1.89-.78 2.61 2.61 0 0 0-1.88.78 3.61 3.61 0 0 1-2.58 1z" fill="#50e6ff"></path><path d="M4 8.82a1.79 1.79 0 0 1-1.26-.52.46.46 0 0 1 .65-.65.84.84 0 0 0 .61.25 1.08 1.08 0 0 0 .6-.25 5.46 5.46 0 0 1 7.67 0 .46.46 0 0 1-.65.65 4.55 4.55 0 0 0-6.41 0A1.94 1.94 0 0 1 4 8.82z" fill="#50e6ff"></path><path d="M4 12.48a5.41 5.41 0 0 1-3.87-1.59.47.47 0 0 1 0-.64.47.47 0 0 1 .66 0A4.47 4.47 0 0 0 4 11.57a4.5 4.5 0 0 0 3.2-1.33 1.94 1.94 0 0 1 1.21-.49 1.83 1.83 0 0 1 1.25.52.46.46 0 0 1 0 .65.47.47 0 0 1-.66 0 .83.83 0 0 0-.59-.25 1 1 0 0 0-.6.26A5.41 5.41 0 0 1 4 12.48z" fill="#32bedd"></path></g><defs>
<linearGradient id="1495058511568459" x1="11.08" y1="31.2" x2="11.08" y2="15.71" gradientTransform="matrix(1 0 0 .99 0 -14.32)" gradientUnits="userSpaceOnUse"><stop offset="0" stop-color="#949494"></stop><stop offset=".33" stop-color="#9b9b9b"></stop><stop offset=".82" stop-color="#aeafb0"></stop><stop offset="1" stop-color="#b6b8b9"></stop></linearGradient>
</defs>
</svg>