<svg viewBox="0 0 18 18" data-islogo="true" class="" role="presentation" focusable="false" xmlns:svg="http://www.w3.org/2000/svg" xmlns:xlink="http://www.w3.org/1999/xlink" id="FxSymbol0-0f0" data-type="239"><g><path d="M17.66 2.86L15.27.49a.58.58 0 0 0-.43-.18l-4.43.17a.52.52 0 0 0-.41.17L.34 10.27a.59.59 0 0 0 0 .83l6.44 6.41a.6.6 0 0 0 .84 0l9.69-9.63a.58.58 0 0 0 .17-.37l.35-4.19a.57.57 0 0 0-.17-.46zm-2.88 1.57a1.08 1.08 0 1 1 1.08-1.07 1.07 1.07 0 0 1-1.08 1.07z" fill="url(#39ca9fda-5ab7-43a7-8744-581cb8943965)"></path><path d="M14.78 1.44a1.92 1.92 0 1 0 1.93 1.92 1.93 1.93 0 0 0-1.93-1.92zm1.06 2.13a1.08 1.08 0 1 1-1.27-1.27 1.08 1.08 0 0 1 1.27 1.27z" fill="#552f99"></path></g><defs>
<linearGradient id="a" x1="9" y1="16.39" x2="9" y2="-1.94" gradientUnits="userSpaceOnUse"><stop offset="0" stop-color="#0078d4"></stop><stop offset=".16" stop-color="#1380da"></stop><stop offset=".53" stop-color="#3c91e5"></stop><stop offset=".82" stop-color="#559cec"></stop><stop offset="1" stop-color="#5ea0ef"></stop></linearGradient>
<linearGradient id="b" x1="9.88" y1="7.11" x2="9.99" y2="17.27" gradientUnits="userSpaceOnUse"><stop offset="0" stop-color="#32d4f5"></stop><stop offset=".32" stop-color="#31d1f3"></stop><stop offset=".53" stop-color="#2ec9eb"></stop><stop offset=".7" stop-color="#29bade"></stop><stop offset=".86" stop-color="#22a5cb"></stop><stop offset="1" stop-color="#198ab3"></stop><stop offset="1" stop-color="#198ab3"></stop></linearGradient>
<radialGradient id="c" cx="9.43" cy="7.03" r="7.27" gradientUnits="userSpaceOnUse"><stop offset="0" stop-color="#f2f2f2"></stop><stop offset=".58" stop-color="#eee"></stop><stop offset="1" stop-color="#e6e6e6"></stop></radialGradient>
<linearGradient id="39ca9fda-5ab7-43a7-8744-581cb8943965" x1="9" y1=".31" x2="9" y2="17.69" gradientUnits="userSpaceOnUse"><stop offset="0" stop-color="#c69aeb"></stop><stop offset=".09" stop-color="#bb90e4"></stop><stop offset=".49" stop-color="#926bc9"></stop><stop offset=".81" stop-color="#7854b8"></stop><stop offset="1" stop-color="#6f4bb2"></stop></linearGradient>
</defs>
</svg>