<svg viewBox="0 0 50 50" class="fxs-portal-svg" role="presentation" focusable="false" xmlns:svg="http://www.w3.org/2000/svg" xmlns:xlink="http://www.w3.org/1999/xlink" id="FxSymbol0-0ef" data-type="386"><g><title></title><path d="M34.5 0l-9.9.4L3.9 21.1l14.7 14.7 20.7-20.7.8-9.5L34.5 0zm.8 7.7c-.8.8-2.1.8-2.9 0-.8-.8-.8-2.1 0-2.9.8-.8 2.1-.8 2.9 0 .8.8.8 2.1 0 2.9z" class="msportalfx-svg-c14" fill="#57a300"></path><path opacity=".1" d="M3.9 21.1l14.7 14.7 3.3-3.3V3.1z" class="msportalfx-svg-c01" fill="#ffffff"></path><path opacity=".3" d="M36.5 3.6c-1.5-1.5-3.8-1.5-5.3 0s-1.5 3.8 0 5.3 3.8 1.5 5.3 0 1.5-3.9 0-5.3zm-1.2 4.1c-.8.8-2.1.8-2.9 0-.8-.8-.8-2.1 0-2.9.8-.8 2.1-.8 2.9 0 .8.8.8 2.1 0 2.9z" class="msportalfx-svg-c06" fill="#1e1e1e"></path><path d="M37.5 7.1l-9.9.4L6.9 28.2l14.7 14.7 20.7-20.7.8-9.5-5.6-5.6zm.8 7.7c-.8.8-2.1.8-2.9 0-.8-.8-.8-2.1 0-2.9.8-.8 2.1-.8 2.9 0 .8.8.8 2.1 0 2.9z" class="msportalfx-svg-c16" fill="#3999c6"></path><path opacity=".1" d="M6.9 28.2l14.7 14.7 3.3-3.3V10.2z" class="msportalfx-svg-c01" fill="#ffffff"></path><path opacity=".3" d="M39.5 10.7c-1.5-1.5-3.8-1.5-5.3 0s-1.5 3.8 0 5.3 3.8 1.5 5.3 0 1.5-3.8 0-5.3zm-1.2 4.1c-.8.8-2.1.8-2.9 0-.8-.8-.8-2.1 0-2.9.8-.8 2.1-.8 2.9 0 .8.8.8 2.1 0 2.9z" class="msportalfx-svg-c06" fill="#1e1e1e"></path><path d="M40.5 14.2l-9.9.4L9.9 35.3 24.6 50l20.7-20.7.8-9.5-5.6-5.6zm.8 7.7c-.8.8-2.1.8-2.9 0-.8-.8-.8-2.1 0-2.9.8-.8 2.1-.8 2.9 0 .8.8.8 2.1 0 2.9z" class="msportalfx-svg-c17" fill="#804998"></path><path opacity=".1" d="M9.9 35.3L24.6 50l3.3-3.3V17.3z" class="msportalfx-svg-c01" fill="#ffffff"></path><path opacity=".3" d="M42.5 17.8c-1.5-1.5-3.8-1.5-5.3 0s-1.5 3.8 0 5.3 3.8 1.5 5.3 0 1.5-3.8 0-5.3zm-1.2 4.1c-.8.8-2.1.8-2.9 0-.8-.8-.8-2.1 0-2.9.8-.8 2.1-.8 2.9 0 .8.8.8 2.1 0 2.9z" class="msportalfx-svg-c06" fill="#1e1e1e"></path></g><defs>
</defs>
</svg>