<svg viewBox="0 0 18 18" class="" role="presentation" focusable="false" xmlns="http://www.w3.org/2000/svg" xmlns:xlink="http://www.w3.org/1999/xlink" id="FxSymbol0-153" data-type="1"><g><circle cx="9.026" cy="9.028" r="1.991" fill="url(#94a115a1-5689-4c39-bee0-5c63fda4a1d9)"></circle><rect x="8.209" y=".013" width="1.634" height="4.658" rx=".817" fill="#82bbff"></rect><rect x="8.209" y="13.329" width="1.634" height="4.658" rx=".817" fill="#82bbff"></rect><g fill="#82bbff"><rect x="14.597" y="6.699" width="1.634" height="4.658" rx=".817" transform="rotate(90 15.414 9.028)"></rect><rect x="1.769" y="6.699" width="1.634" height="4.658" rx=".817" transform="rotate(90 2.586 9.028)"></rect></g><path d="M9.026 14.515a5.487 5.487 0 1 1 5.487-5.487 5.493 5.493 0 0 1-5.487 5.487Zm0-9.553a4.066 4.066 0 1 0 4.066 4.066 4.071 4.071 0 0 0-4.066-4.066Z" fill="url(#94a115a1-5689-4c39-bee0-5c63fda4a1da)"></path></g><defs>
<linearGradient id="94a115a1-5689-4c39-bee0-5c63fda4a1d9" x1="-51.062" y1="349.229" x2="-51.062" y2="345.247" gradientTransform="rotate(-30 -652.127 66.007)" gradientUnits="userSpaceOnUse"><stop offset="0" stop-color="#eeaa45"></stop><stop offset="1" stop-color="#f4cf97"></stop></linearGradient>
<linearGradient id="94a115a1-5689-4c39-bee0-5c63fda4a1da" x1="9.026" y1="14.515" x2="9.026" y2="3.541" gradientUnits="userSpaceOnUse"><stop offset="0" stop-color="#0078d4"></stop><stop offset="1" stop-color="#5ea0f0"></stop></linearGradient>
</defs>
</svg>