<svg viewBox="0 0 18 18" class="" role="presentation" focusable="false" xmlns="http://www.w3.org/2000/svg" xmlns:xlink="http://www.w3.org/1999/xlink" id="FxSymbol0-123" data-type="1"><g><path fill="#32bedd" d="M6.216.5H2.845a1.026 1.026 0 00-1.026 1.026V4.9h2.052V2.552h2.345zm8.939 0h-3.37v2.052h2.344V4.9h2.052V1.526A1.026 1.026 0 0015.155.5zm-1.026 12.6v2.345h-2.344V17.5h3.37a1.026 1.026 0 001.026-1.026V13.1zM3.871 15.448V13.1H1.819v3.371A1.026 1.026 0 002.845 17.5h3.371v-2.052z"></path><path fill="url(#955724ae-8582-4ca1-9b57-4284a5f54163)" d="M3.724 16.181h10.552a.588.588 0 00.586-.586V2.4a.588.588 0 00-.586-.586H3.724a.588.588 0 00-.586.586v13.2a.588.588 0 00.586.581z"></path><path d="M4.6 15.009h8.8a.294.294 0 00.293-.293V3.285a.294.294 0 00-.293-.294H4.6a.294.294 0 00-.293.294v11.431a.294.294 0 00.293.293z" class="msportalfx-svg-c01" fill="#ffffff"></path><path fill="#5e9624" d="M6.655 13.25h4.69a.294.294 0 00.293-.293v-1.319a.294.294 0 00-.293-.293h-4.69a.294.294 0 00-.293.293v1.319a.294.294 0 00.293.293z"></path><path fill="#76bc2d" d="M6.655 9.953h4.69a.294.294 0 00.293-.293V8.341a.294.294 0 00-.293-.294h-4.69a.294.294 0 00-.293.294V9.66a.294.294 0 00.293.293z"></path><path fill="#86d633" d="M6.655 6.655h4.69a.294.294 0 00.293-.293V5.043a.294.294 0 00-.293-.293h-4.69a.294.294 0 00-.293.293v1.319a.294.294 0 00.293.293z"></path></g><defs>
<linearGradient id="955724ae-8582-4ca1-9b57-4284a5f54163" x1="-40" x2="-40" y1="74.181" y2="59.819" gradientTransform="translate(49 -58)" gradientUnits="userSpaceOnUse"><stop offset="0" stop-color="#198ab3"></stop><stop offset=".619" stop-color="#31d0f1"></stop><stop offset="1" stop-color="#32d4f5"></stop></linearGradient>
</defs>
</svg>