<svg viewBox="0 0 50 50" class="" role="presentation" focusable="false" xmlns:svg="http://www.w3.org/2000/svg" xmlns:xlink="http://www.w3.org/1999/xlink" id="FxSymbol0-054" data-type="1"><g><title></title><path d="M45 6.8L40.2 2l-2-2H3v50h44V8.8z" class="msportalfx-svg-c15" fill="#59b4d9"></path><path opacity=".8" d="M38 2H5v46h40V9h-7z" class="msportalfx-svg-c01" fill="#ffffff"></path><path d="M13.243 26.675c0 1.08-.267 1.921-.8 2.52-.534.6-1.246.899-2.135.899-.416 0-.756-.049-1.023-.146v-1.424c.242.165.553.248.935.248 1.008 0 1.512-.78 1.512-2.339v-5.605h1.512v5.847zm1.748 2.904v-1.557c.14.127.306.241.499.343s.397.188.613.258c.216.069.432.124.648.162.216.038.415.057.597.057.636 0 1.109-.105 1.42-.317s.467-.519.467-.922c0-.216-.052-.403-.155-.563a1.637 1.637 0 0 0-.436-.435 4.575 4.575 0 0 0-.658-.379c-.252-.12-.522-.246-.81-.377-.31-.166-.598-.333-.864-.503a3.677 3.677 0 0 1-.696-.562 2.361 2.361 0 0 1-.464-.696 2.276 2.276 0 0 1-.168-.909c0-.428.096-.799.289-1.115.192-.315.447-.576.763-.781a3.482 3.482 0 0 1 1.077-.458 5.136 5.136 0 0 1 1.232-.149c.954 0 1.648.108 2.084.324v1.494c-.517-.373-1.182-.559-1.995-.559-.225 0-.448.021-.67.063a1.995 1.995 0 0 0-.598.209 1.302 1.302 0 0 0-.429.375.92.92 0 0 0-.166.553c0 .204.042.379.127.528.084.148.208.284.372.406.163.123.362.243.597.359.235.117.507.243.817.378.317.166.617.339.899.521.282.182.53.383.744.604.214.22.383.465.508.733.125.27.188.575.188.919 0 .462-.093.852-.28 1.169-.186.317-.438.576-.753.775s-.679.343-1.09.433a5.668 5.668 0 0 1-1.866.098 7.897 7.897 0 0 1-.683-.102c-.233-.044-.453-.099-.661-.162s-.372-.134-.499-.215zm11.261.515c-1.314 0-2.366-.426-3.156-1.277-.79-.852-1.185-1.959-1.185-3.323 0-1.466.402-2.635 1.208-3.508.805-.873 1.897-1.309 3.278-1.309 1.279 0 2.311.423 3.092 1.271.783.847 1.174 1.955 1.174 3.323 0 1.487-.4 2.663-1.201 3.527s-1.872 1.296-3.21 1.296zm.068-8.09c-.834 0-1.513.311-2.036.934-.523.623-.785 1.442-.785 2.46 0 1.012.254 1.827.763 2.446.508.618 1.173.928 1.996.928.873 0 1.561-.295 2.064-.884s.756-1.413.756-2.472c0-1.089-.244-1.93-.732-2.523-.491-.592-1.164-.889-2.026-.889zm13.741 7.937h-1.652l-4.354-6.698a2.972 2.972 0 0 1-.273-.528h-.038c.034.195.051.612.051 1.252v5.974h-1.461v-9.113h1.76l4.207 6.54c.178.271.293.457.344.559h.025c-.043-.241-.063-.65-.063-1.227v-5.872h1.455v9.113z" class="msportalfx-svg-c15" fill="#59b4d9"></path></g><defs>
<linearGradient id="a" x1="9" y1="16.39" x2="9" y2="-1.94" gradientUnits="userSpaceOnUse"><stop offset="0" stop-color="#0078d4"></stop><stop offset=".16" stop-color="#1380da"></stop><stop offset=".53" stop-color="#3c91e5"></stop><stop offset=".82" stop-color="#559cec"></stop><stop offset="1" stop-color="#5ea0ef"></stop></linearGradient>
<linearGradient id="b" x1="9.88" y1="7.11" x2="9.99" y2="17.27" gradientUnits="userSpaceOnUse"><stop offset="0" stop-color="#32d4f5"></stop><stop offset=".32" stop-color="#31d1f3"></stop><stop offset=".53" stop-color="#2ec9eb"></stop><stop offset=".7" stop-color="#29bade"></stop><stop offset=".86" stop-color="#22a5cb"></stop><stop offset="1" stop-color="#198ab3"></stop><stop offset="1" stop-color="#198ab3"></stop></linearGradient>
<radialGradient id="c" cx="9.43" cy="7.03" r="7.27" gradientUnits="userSpaceOnUse"><stop offset="0" stop-color="#f2f2f2"></stop><stop offset=".58" stop-color="#eee"></stop><stop offset="1" stop-color="#e6e6e6"></stop></radialGradient>
</defs>
</svg>