<svg viewBox="0 0 50 50" class="" role="presentation" focusable="false" xmlns:svg="http://www.w3.org/2000/svg" xmlns:xlink="http://www.w3.org/1999/xlink" id="FxSymbol0-0df" data-type="1"><g><title></title><path d="M24.9 9.5a8.4 8.4 0 1 1-16.8 0 8.4 8.4 0 0 1 16.8 0M22.436 20L16.5 28.516 10.563 20H2v21h29V20z" class="msportalfx-svg-c15" fill="#59b4d9"></path><path d="M40.824 36.99l-4.427-4.414-7.785-3.001-2.463 3.806L22.883 36h-4.006l1.241 2.548h4.759c3.458 5.392 8 9.71 8 9.71s4.529-2.997 8-8.258h1.592a10.106 10.106 0 0 0 1.408-2.719l-3.053-.291z" class="msportalfx-svg-c01" fill="#ffffff"></path><path d="M46.688 38H41.78l-1.241 2.548h4.867z" class="msportalfx-svg-c01" fill="#ffffff"></path><path d="M38.518 26c-2.42 0-4.494 1.521-5.518 3.718C31.976 27.521 29.902 26 27.482 26c-3.429 0-6.208 3.022-6.208 6.75 0 .833.123 1.673.339 2.51H18.48l.822 1.644h6.402l3.565-5.509 4.142 8.561 3.929-5.5L40.24 38h3.389c.679-1.646 1.099-3.408 1.099-5.25-.002-3.728-2.781-6.75-6.21-6.75z" class="msportalfx-svg-c09" fill="#dd5900"></path><path d="M45.877 39.644H39.46l-2.032-2.483-4.29 6.007-4.077-8.425-2.463 3.806h-3.689C26.131 44.723 33 50 33 50s5.391-3.451 8.862-8.712h3.192l.823-1.644z" class="msportalfx-svg-c08" fill="#ba141a"></path></g><defs>
<linearGradient id="a" x1="9" y1="16.39" x2="9" y2="-1.94" gradientUnits="userSpaceOnUse"><stop offset="0" stop-color="#0078d4"></stop><stop offset=".16" stop-color="#1380da"></stop><stop offset=".53" stop-color="#3c91e5"></stop><stop offset=".82" stop-color="#559cec"></stop><stop offset="1" stop-color="#5ea0ef"></stop></linearGradient>
<linearGradient id="b" x1="9.88" y1="7.11" x2="9.99" y2="17.27" gradientUnits="userSpaceOnUse"><stop offset="0" stop-color="#32d4f5"></stop><stop offset=".32" stop-color="#31d1f3"></stop><stop offset=".53" stop-color="#2ec9eb"></stop><stop offset=".7" stop-color="#29bade"></stop><stop offset=".86" stop-color="#22a5cb"></stop><stop offset="1" stop-color="#198ab3"></stop><stop offset="1" stop-color="#198ab3"></stop></linearGradient>
<radialGradient id="c" cx="9.43" cy="7.03" r="7.27" gradientUnits="userSpaceOnUse"><stop offset="0" stop-color="#f2f2f2"></stop><stop offset=".58" stop-color="#eee"></stop><stop offset="1" stop-color="#e6e6e6"></stop></radialGradient>
</defs>
</svg>