<svg viewBox="0 0 64 64" class="" role="presentation" focusable="false" xmlns:svg="http://www.w3.org/2000/svg" xmlns:xlink="http://www.w3.org/1999/xlink" id="FxSymbol0-0a5" data-type="1"><g><title></title><g fill="#00b294"><path d="M63 24.3C59.5 10 46.7 0 32 0 17.1 0 4 10.6.8 25.1l-.3 1.3h6.4l.2-.8C10 14.2 20.3 6.2 32 6.2c11.3 0 21.5 7.7 24.7 18.6l.2.7h6.4l-.3-1.2zM56.4 40l-.2.7C52.5 50.9 42.8 57.8 32 57.8c-10.6 0-20-6.4-23.9-16.3l-.3-.7H1.3l.5 1.4C6.1 55.2 18.3 64 32 64c14.1 0 26.4-9.1 30.6-22.7L63 40h-6.6z"></path><path d="M35.1 49l-7-20.2-4 7.4H3.3C1.9 36.2.7 35 .7 33.6c0-1.4 1.2-2.6 2.6-2.6H21l8.2-15 7.3 21.2 4.5-7h19.9c1.4 0 2.6 1.2 2.6 2.6 0 1.4-1.2 2.6-2.6 2.6H43.8L35.1 49z"></path></g></g><defs>
</defs>
</svg>