<svg viewBox="0 0 18 18" data-islogo="true" class="" role="presentation" focusable="false" xmlns:svg="http://www.w3.org/2000/svg" xmlns:xlink="http://www.w3.org/1999/xlink" id="FxSymbol0-0f4" data-type="166"><g><path d="M12.29.5H5.71a.56.56 0 0 0-.4.17L.67 5.31a.56.56 0 0 0-.17.4v6.58a.56.56 0 0 0 .17.4l4.64 4.64a.56.56 0 0 0 .4.17h6.58a.56.56 0 0 0 .4-.17l4.64-4.64a.56.56 0 0 0 .17-.4V5.71a.56.56 0 0 0-.17-.4L12.69.67a.56.56 0 0 0-.4-.17z" fill="url(#e640c033-2304-4d79-bdfc-027d76c22fbc)"></path><path d="M6 7.64l-.07.07-1 1a.14.14 0 0 0 .1.23h3.8a.14.14 0 0 0 .14-.14V5.05A.14.14 0 0 0 8.64 5l-1 1-.07.07a.15.15 0 0 1-.2 0L4.8 3.54 3.43 4.92 6 7.44a.15.15 0 0 1 0 .2z" fill="#f2f2f2"></path><path d="M16.18 5.91l-4.09-4.09a.28.28 0 0 0-.2-.08H6.11a.28.28 0 0 0-.2.08L1.82 5.91a.28.28 0 0 0-.08.2v5.78a.3.3 0 0 0 .08.2l4.09 4.09a.28.28 0 0 0 .2.08h5.78a.28.28 0 0 0 .2-.08l4.09-4.09a.3.3 0 0 0 .08-.2V6.11a.28.28 0 0 0-.08-.2zm-.36 5.45l-3.15-3.15.76-.77a.16.16 0 0 0 0-.24.16.16 0 0 0-.11 0l-2.71-.07a.17.17 0 0 0-.17.16l.07 2.71a.16.16 0 0 0 .17.16.13.13 0 0 0 .12 0l.85-.84 3.35 3.3-2.54 2.54L9 11.71l.8-.71a.16.16 0 0 0 0-.24.16.16 0 0 0-.11-.05L7 10.59a.17.17 0 0 0-.17.16l.07 2.71a.16.16 0 0 0 .17.16.17.17 0 0 0 .12-.05l.81-.83 3.08 3.08H6.17l-4-4V6.17l1.26-1.25L4.8 3.54l1.37-1.37h5.66l4 4z" fill="#f2f2f2"></path></g><defs>
<linearGradient id="a" x1="9" y1="16.39" x2="9" y2="-1.94" gradientUnits="userSpaceOnUse"><stop offset="0" stop-color="#0078d4"></stop><stop offset=".16" stop-color="#1380da"></stop><stop offset=".53" stop-color="#3c91e5"></stop><stop offset=".82" stop-color="#559cec"></stop><stop offset="1" stop-color="#5ea0ef"></stop></linearGradient>
<linearGradient id="b" x1="9.88" y1="7.11" x2="9.99" y2="17.27" gradientUnits="userSpaceOnUse"><stop offset="0" stop-color="#32d4f5"></stop><stop offset=".32" stop-color="#31d1f3"></stop><stop offset=".53" stop-color="#2ec9eb"></stop><stop offset=".7" stop-color="#29bade"></stop><stop offset=".86" stop-color="#22a5cb"></stop><stop offset="1" stop-color="#198ab3"></stop><stop offset="1" stop-color="#198ab3"></stop></linearGradient>
<radialGradient id="c" cx="9.43" cy="7.03" r="7.27" gradientUnits="userSpaceOnUse"><stop offset="0" stop-color="#f2f2f2"></stop><stop offset=".58" stop-color="#eee"></stop><stop offset="1" stop-color="#e6e6e6"></stop></radialGradient>
<linearGradient id="e640c033-2304-4d79-bdfc-027d76c22fbc" x1="9" y1="17.5" x2="9" y2=".5" gradientUnits="userSpaceOnUse"><stop offset=".16" stop-color="#6f4bb2"></stop><stop offset=".32" stop-color="#7450b5"></stop><stop offset=".51" stop-color="#825dbf"></stop><stop offset=".72" stop-color="#9a72ce"></stop><stop offset=".94" stop-color="#bb90e4"></stop><stop offset="1" stop-color="#c69aeb"></stop></linearGradient>
</defs>
</svg>