<svg viewBox="0 0 18 18" class="" role="presentation" focusable="false" xmlns="http://www.w3.org/2000/svg" xmlns:xlink="http://www.w3.org/1999/xlink" id="FxSymbol0-0f6" data-type="1"><g><path d="M17.982 10.118c0-.818-1.193-1.087-1.652-1.717-.632-.867-.7-1.977-1.855-2.166a5.091 5.091 0 0 0-5.244-4.87 5.225 5.225 0 0 0-4.993 3.4A4.822 4.822 0 0 0 0 9.408a4.893 4.893 0 0 0 5.063 4.7c.151 0 .3-.007.446-.019h8.2a.811.811 0 0 0 .216-.032 4.089 4.089 0 0 0 4.057-3.939z" fill="url(#f10037e5-08de-4fde-88a0-a5111932c8f6)"></path><rect x="7.664" y="6.553" width="9.178" height="3.679" rx=".3" fill="#005ba1"></rect><rect x="8.57" y="4.246" width="7.367" height="5.55" rx=".3" fill="url(#a611bbc8-9cc4-4056-894f-1a6a87216432)"></rect><path d="M7.106 8.18H17.4a.6.6 0 0 1 .6.6v6.1H6.507v-6.1a.6.6 0 0 1 .599-.6z" fill="#5ea0ef"></path><path fill="#0078d4" d="M6.507 14.093H18v1.02H6.507z"></path><rect x="7.997" y="12.305" width="8.509" height="1.192" rx=".3" fill="#83b9f9"></rect><circle cx="16.045" cy="10.082" r=".285" fill="#c3f1ff"></circle><path d="M8.57 12.512h7.367v3.823a.3.3 0 0 1-.3.3H8.869a.3.3 0 0 1-.3-.3v-3.823h.001z" fill="url(#eda6497f-9c76-477d-ab72-569c0508aebb)"></path></g><defs>
<linearGradient id="f10037e5-08de-4fde-88a0-a5111932c8f6" x1="8.991" y1="14.11" x2="8.991" y2="1.365" gradientUnits="userSpaceOnUse"><stop offset="0" stop-color="#773adc"></stop><stop offset=".817" stop-color="#a67af4"></stop></linearGradient>
<linearGradient id="a611bbc8-9cc4-4056-894f-1a6a87216432" x1="12.253" y1="4.246" x2="12.253" y2="9.797" gradientUnits="userSpaceOnUse"><stop offset="0" stop-color="#c3f1ff"></stop><stop offset=".999" stop-color="#9cebff"></stop></linearGradient>
<linearGradient id="eda6497f-9c76-477d-ab72-569c0508aebb" x1="12.253" y1="16.635" x2="12.253" y2="12.512" gradientUnits="userSpaceOnUse"><stop offset="0" stop-color="#c3f1ff"></stop><stop offset=".999" stop-color="#9cebff"></stop></linearGradient>
</defs>
</svg>