<svg viewBox="0 0 50 50" class="" role="presentation" focusable="false" xmlns="http://www.w3.org/2000/svg" xmlns:xlink="http://www.w3.org/1999/xlink" id="FxSymbol0-225" data-type="1"><g><title></title><path d="M31 37H19c1.571 5.8-.577 7-10 7v3h32v-3c-9.423 0-11.571-1.2-10-7z" class="msportalfx-svg-c03" fill="#a0a1a2"></path><path d="M46 4H3.7C2.2 4 1 5.4 1 6.9v28.3C1 36.7 2.2 38 3.7 38H46c1.5 0 3-1.3 3-2.8V6.9C49 5.4 47.5 4 46 4" class="msportalfx-svg-c03" fill="#a0a1a2"></path><path d="M45 34H5V8h40z" class="msportalfx-svg-c19" fill="#0072c6"></path><path d="M38 4h8H3.7C2.2 4 1 5.4 1 6.9v28.3C1 36.7 2.2 38 3.7 38H8L38 4z" opacity=".2" class="msportalfx-svg-c01" fill="#ffffff"></path><path fill="#FAFDFF" d="M9 44h32v3H9z" opacity=".2"></path><path d="M24.754 30.672c4.287 0 8.039-3.39 8.396-7.673h-2.501c-.357 2.855-2.858 5.175-5.895 5.175-1.786 0-3.573-.892-4.466-2.32L22.967 23H16v7.494l2.501-2.855c1.608 1.784 3.752 3.033 6.253 3.033zm.503-15.855c1.786 0 3.573.892 4.466 2.32l-2.68 2.855h6.967v-7.494l-2.501 2.677c-1.429-1.784-3.752-2.855-6.253-2.855-4.466 0-8.039 3.39-8.396 7.673h2.501c.358-3.035 2.859-5.176 5.896-5.176z" class="msportalfx-svg-c01" fill="#ffffff"></path><path d="M20 38h10v1H20z" opacity=".15" class="msportalfx-svg-c06" fill="#1e1e1e"></path></g><defs>
</defs>
</svg>