<svg viewBox="0 0 18 18" class="" role="presentation" focusable="false" xmlns="http://www.w3.org/2000/svg" xmlns:xlink="http://www.w3.org/1999/xlink" id="FxSymbol0-20c" data-type="1"><g><path d="M17.977 9.2V7.788l-.2-.074-1.511-.5-.4-.966.768-1.634-.991-.991-.2.1-1.412.718-.966-.4-.619-1.709h-1.405l-.074.2-.5 1.511-.966.4L7.9 3.676l-.991.991.1.2.718 1.412-.4.966-1.734.619v1.41l.2.074 1.511.5.4.966-.774 1.631.99.99.2-.1 1.412-.718.966.4.619 1.709h1.412l.075-.2.495-1.511.966-.4 1.635.768.991-.991-.1-.2-.718-1.412.4-.966Zm-6.193 2.049A2.718 2.718 0 1 1 14.5 8.531a2.715 2.715 0 0 1-2.716 2.718Z" fill="#0078d4"></path><path d="M12.459 16.516a1.215 1.215 0 0 0 1.218-1.21 1.413 1.413 0 0 0-.008-.146c-.478-3.816-2.655-6.923-6.808-6.923-4.226 0-6.406 2.631-6.831 6.933a1.22 1.22 0 0 0 1.089 1.339 1 1 0 0 0 .122.007Z" fill="url(#406fd2f9-470a-4939-b13a-553c6cc30be1)"></path><path d="M6.926 9.141a3.808 3.808 0 0 1-2.073-.61l2.052 5.361 2.038-5.325a3.81 3.81 0 0 1-2.017.574Z" opacity=".8" class="msportalfx-svg-c01" fill="#ffffff"></path><circle cx="6.898" cy="5.313" r="3.829" fill="url(#406fd2f9-470a-4939-b13a-553c6cc30be2)"></circle></g><defs>
<linearGradient id="406fd2f9-470a-4939-b13a-553c6cc30be1" x1="6.85" y1="7.226" x2="6.85" y2="18.562" gradientUnits="userSpaceOnUse"><stop offset=".225" stop-color="#32d4f5"></stop><stop offset=".473" stop-color="#31d1f3"></stop><stop offset=".888" stop-color="#22a5cb"></stop><stop offset=".999" stop-color="#198ab3"></stop><stop offset="1" stop-color="#198ab3"></stop></linearGradient>
<linearGradient id="406fd2f9-470a-4939-b13a-553c6cc30be2" x1="6.563" y1="1.149" x2="7.391" y2="11.442" gradientUnits="userSpaceOnUse"><stop offset=".225" stop-color="#32d4f5"></stop><stop offset=".473" stop-color="#31d1f3"></stop><stop offset=".888" stop-color="#22a5cb"></stop><stop offset=".999" stop-color="#198ab3"></stop><stop offset="1" stop-color="#198ab3"></stop></linearGradient>
</defs>
</svg>