<svg viewBox="0 0 14.8 14" class="" role="presentation" focusable="false" xmlns="http://www.w3.org/2000/svg" xmlns:xlink="http://www.w3.org/1999/xlink" id="FxSymbol0-22d" data-type="206"><g><title></title><path d="M7.8 4.7H6l-1.2 5.8a6.1 6.1 0 0 1-.5 1.2 4.4 4.4 0 0 1-.8 1.1 2.8 2.8 0 0 1-1 .9 3.1 3.1 0 0 1-1.3.3H.8l-.4-.2-.3-.2a.6.6 0 0 1-.1-.4 1.4 1.4 0 0 1 .2-.6l.5-.2h.4l.2.2.3.3.2.3h.5l.3-.4.3-.6a1.4 1.4 0 0 0 .2-.6.8.8 0 0 0 .2-.5c0-.2.1-.3.1-.5l1.3-6H3.3l.2-.6h1.3v-.5a6.1 6.1 0 0 1 .5-1.2A7.5 7.5 0 0 1 6 1.1L7.2.3A2.8 2.8 0 0 1 8.5 0h.4l.4.2a.2.2 0 0 1 .2.2.6.6 0 0 1 .1.4 1.3 1.3 0 0 1-.1.6l-.6.2h-.4l-.2-.2L8 .9 7.8.6l-.5.2-.4.5-.3.7c-.1.3-.1.5-.2.8a1.7 1.7 0 0 0-.1.7c-.1.2-.1.4-.2.5h1.8zm5.2.5-.5.4-.4.5-.4.6-.3.5.2.6c0 .2.1.4.1.7s.1.4.2.6.1.4.3.5a1 1 0 0 0 .4.5h1.5v.4l-.5.2-.4.2h-1.5c-.2-.1-.3-.1-.4-.3l-.3-.4c0-.2-.1-.3-.1-.5a2.5 2.5 0 0 1-.2-.7 1.9 1.9 0 0 1-.2-.7l-.6.9-.6.9-.4.3-.3.3-.4.2h-.5l-.5-.2c-.2-.1-.2-.3-.2-.5a.6.6 0 0 1 .1-.4l.2-.2.3-.2h1.2l.9-.9.6-1.1a.8.8 0 0 0-.1-.4 4.3 4.3 0 0 1-.1-.5c-.1-.2-.1-.4-.2-.6a1.4 1.4 0 0 0-.2-.6l-.2-.4-.2-.3h-1l-.4.2v-.4h.3l.5-.2.4-.2h.9c.2 0 .3.2.4.3l.3.4a1.4 1.4 0 0 0 .2.6c0 .2.1.4.1.6s.1.4.2.6l.3-.5.4-.6a2.1 2.1 0 0 1 .4-.6c.2-.2.3-.4.5-.5l.5-.4.6-.2a1.1 1.1 0 0 1 .6.2 1.1 1.1 0 0 1 .2.6.4.4 0 0 1-.1.3l-.2.2-.3.2H13z"></path></g><defs>
</defs>
</svg>