<svg viewBox="0 0 50 50" class="fxs-portal-svg" role="presentation" focusable="false" xmlns:svg="http://www.w3.org/2000/svg" xmlns:xlink="http://www.w3.org/1999/xlink" id="FxSymbol0-0ec" data-type="1"><g><title></title><path d="M39.606 12.8l-.033.002C39.226 6.284 33.735 1.1 26.992 1.1c-4.928 0-9.185 2.773-11.26 6.806A12.215 12.215 0 0 0 13.05 7.6C6.45 7.6 1.1 12.838 1.1 19.3 1.1 25.762 6.45 31 13.05 31h26.556c5.133 0 9.294-4.074 9.294-9.1s-4.161-9.1-9.294-9.1z" class="msportalfx-svg-c15" fill="#59b4d9"></path><path opacity=".2" d="M39.606 12.8l-.033.002C39.226 6.284 33.735 1.1 26.992 1.1c-4.928 0-9.185 2.773-11.26 6.806A12.215 12.215 0 0 0 13.05 7.6C6.45 7.6 1.1 12.838 1.1 19.3 1.1 25.762 6.45 31 13.05 31h26.556c5.133 0 9.294-4.074 9.294-9.1s-4.161-9.1-9.294-9.1z" class="msportalfx-svg-c01" fill="#ffffff"></path><path d="M26 48.15c-8.905 0-16.15-7.245-16.15-16.15S17.095 15.85 26 15.85 42.15 23.095 42.15 32 34.905 48.15 26 48.15z" class="msportalfx-svg-c01" fill="#ffffff"></path><path d="M26 16.6c8.492 0 15.4 6.908 15.4 15.4S34.492 47.4 26 47.4 10.6 40.492 10.6 32 17.508 16.6 26 16.6m0-1.5c-9.334 0-16.9 7.566-16.9 16.9S16.666 48.9 26 48.9 42.9 41.334 42.9 32 35.334 15.1 26 15.1z" class="msportalfx-svg-c17" fill="#804998"></path><ellipse transform="rotate(-70.001 22.222 23.916)" cx="22.223" cy="23.916" rx="3.182" ry="3.182" class="msportalfx-svg-c17" fill="#804998"></ellipse><ellipse transform="rotate(-70.001 35.389 33.223)" cx="35.39" cy="33.223" rx="3.182" ry="3.182" class="msportalfx-svg-c17" fill="#804998"></ellipse><ellipse transform="rotate(-70.001 19.801 38.837)" cx="19.802" cy="38.837" rx="3.182" ry="3.182" class="msportalfx-svg-c17" fill="#804998"></ellipse><path d="M18.787 22.171c-2.607 0-5.121.541-7.509 1.621a16.767 16.767 0 0 0-1.085 2.308 16.764 16.764 0 0 1 8.594-2.374c9.28 0 16.83 7.55 16.83 16.83 0 2.025-.361 4.012-1.072 5.905l-.032.085a16.767 16.767 0 0 0 2.031-1.418c.372-1.468.628-3.049.628-4.572 0-10.138-8.247-18.385-18.385-18.385z" class="msportalfx-svg-c17" fill="#804998"></path><path d="M33.273 16.925a16.742 16.742 0 0 0-2.447-.958c-7.55 2.497-12.604 9.461-12.604 17.447 0 6.288 3.161 12.061 8.457 15.467.889-.039 1.76-.145 2.608-.317l-.084-.042c-5.814-2.861-9.425-8.65-9.425-15.108-.001-7.996 5.669-14.909 13.495-16.489z" class="msportalfx-svg-c17" fill="#804998"></path><path d="M42.185 36.432c.15-.559.272-1.128.364-1.708a18.442 18.442 0 0 0-9.524-2.663c-8.002 0-15.175 5.07-17.849 12.827l-.016.049.038.034c.359.308.744.605 1.139.891.058.041.115.084.174.124l.028-.09c2.331-7.374 8.956-12.187 16.486-12.187 3.263-.001 6.407.948 9.16 2.723z" class="msportalfx-svg-c17" fill="#804998"></path></g><defs>
<linearGradient id="a" x1="9" y1="16.39" x2="9" y2="-1.94" gradientUnits="userSpaceOnUse"><stop offset="0" stop-color="#0078d4"></stop><stop offset=".16" stop-color="#1380da"></stop><stop offset=".53" stop-color="#3c91e5"></stop><stop offset=".82" stop-color="#559cec"></stop><stop offset="1" stop-color="#5ea0ef"></stop></linearGradient>
<linearGradient id="b" x1="9.88" y1="7.11" x2="9.99" y2="17.27" gradientUnits="userSpaceOnUse"><stop offset="0" stop-color="#32d4f5"></stop><stop offset=".32" stop-color="#31d1f3"></stop><stop offset=".53" stop-color="#2ec9eb"></stop><stop offset=".7" stop-color="#29bade"></stop><stop offset=".86" stop-color="#22a5cb"></stop><stop offset="1" stop-color="#198ab3"></stop><stop offset="1" stop-color="#198ab3"></stop></linearGradient>
<radialGradient id="c" cx="9.43" cy="7.03" r="7.27" gradientUnits="userSpaceOnUse"><stop offset="0" stop-color="#f2f2f2"></stop><stop offset=".58" stop-color="#eee"></stop><stop offset="1" stop-color="#e6e6e6"></stop></radialGradient>
</defs>
</svg>