<svg viewBox="0 0 18 18" data-islogo="true" class="" role="presentation" focusable="false" xmlns:svg="http://www.w3.org/2000/svg" xmlns:xlink="http://www.w3.org/1999/xlink" id="FxSymbol0-027" data-type="71"><g><rect x="-.12" y=".21" width="18" height="12" rx=".6" fill="url(#1d03f79a-96a0-4d61-a23a-1ddcc58a51d4)"></rect><path fill="#50e6ff" d="M11.88 4.46v3.49l-3 1.76v-3.5l3-1.75z"></path><path fill="#c3f1ff" d="M11.88 4.46l-3 1.76-3-1.76 3-1.75 3 1.75z"></path><path fill="#9cebff" d="M8.88 6.22v3.49l-3-1.76V4.46l3 1.76z"></path><path fill="#c3f1ff" d="M5.88 7.95l3-1.74v3.5l-3-1.76z"></path><path fill="#9cebff" d="M11.88 7.95l-3-1.74v3.5l3-1.76z"></path><path d="M12.49 15.84c-1.78-.28-1.85-1.56-1.85-3.63H7.11c0 2.07-.06 3.35-1.84 3.63a1 1 0 0 0-.89 1h9a1 1 0 0 0-.89-1z" fill="url(#d58a7efe-239c-4678-aeab-4c0c6e658145)"></path></g><defs>
<linearGradient id="1d03f79a-96a0-4d61-a23a-1ddcc58a51d4" x1="8.88" y1="12.21" x2="8.88" y2=".21" gradientUnits="userSpaceOnUse"><stop offset="0" stop-color="#0078d4"></stop><stop offset=".82" stop-color="#5ea0ef"></stop></linearGradient>
<linearGradient id="d58a7efe-239c-4678-aeab-4c0c6e658145" x1="8.88" y1="16.84" x2="8.88" y2="12.21" gradientUnits="userSpaceOnUse"><stop offset=".15" stop-color="#ccc"></stop><stop offset="1" stop-color="#707070"></stop></linearGradient>
<linearGradient id="a" x1="9" y1="16.39" x2="9" y2="-1.94" gradientUnits="userSpaceOnUse"><stop offset="0" stop-color="#0078d4"></stop><stop offset=".16" stop-color="#1380da"></stop><stop offset=".53" stop-color="#3c91e5"></stop><stop offset=".82" stop-color="#559cec"></stop><stop offset="1" stop-color="#5ea0ef"></stop></linearGradient>
<linearGradient id="b" x1="9.88" y1="7.11" x2="9.99" y2="17.27" gradientUnits="userSpaceOnUse"><stop offset="0" stop-color="#32d4f5"></stop><stop offset=".32" stop-color="#31d1f3"></stop><stop offset=".53" stop-color="#2ec9eb"></stop><stop offset=".7" stop-color="#29bade"></stop><stop offset=".86" stop-color="#22a5cb"></stop><stop offset="1" stop-color="#198ab3"></stop><stop offset="1" stop-color="#198ab3"></stop></linearGradient>
<radialGradient id="c" cx="9.43" cy="7.03" r="7.27" gradientUnits="userSpaceOnUse"><stop offset="0" stop-color="#f2f2f2"></stop><stop offset=".58" stop-color="#eee"></stop><stop offset="1" stop-color="#e6e6e6"></stop></radialGradient>
</defs>
</svg>