<svg viewBox="0 0 18 18" class="" role="presentation" focusable="false" xmlns="http://www.w3.org/2000/svg" xmlns:xlink="http://www.w3.org/1999/xlink" id="FxSymbol0-0f8" data-type="1"><g><title>Icon-networking-75</title><circle cx="12.74" cy="8.99" r="1.16" fill="url(#a852e611-5849-4670-89ce-518ddf7edeae)"></circle><circle cx="9.04" cy="9" r="1.16" fill="url(#a2350862-f997-4c57-aad0-c16f9ca4c0c3)"></circle><circle cx="5.34" cy="9" r="1.16" fill="url(#e5473695-068a-44ff-b3dc-927159226a8e)"></circle><path d="M6.182 13.638l-.664.665a.3.3 0 0 1-.424 0L.18 9.404a.6.6 0 0 1-.001-.848l.663-.666 5.34 5.324a.3.3 0 0 1 0 .425z" fill="#50e6ff"></path><path d="M5.418 3.708l.666.664a.3.3 0 0 1 0 .424L.838 10.057l-.666-.663a.6.6 0 0 1-.001-.849L4.994 3.71a.3.3 0 0 1 .424 0z" fill="#1490df"></path><path d="M17.157 7.88l.663.666a.6.6 0 0 1 0 .848l-4.915 4.9a.3.3 0 0 1-.424 0l-.664-.666a.3.3 0 0 1 0-.424l5.34-5.324z" fill="#50e6ff"></path><path d="M17.818 9.387l-.665.664-5.247-5.261a.3.3 0 0 1 0-.425l.674-.67a.3.3 0 0 1 .424 0l4.823 4.836a.6.6 0 0 1-.002.849z" fill="#1490df"></path></g><defs>
<linearGradient id="a852e611-5849-4670-89ce-518ddf7edeae" x1="10.7" y1="11.32" x2="10.7" y2="9" gradientTransform="rotate(-.08 -822.612 -1454.455)" gradientUnits="userSpaceOnUse"><stop offset="0" stop-color="#0078d4"></stop><stop offset=".82" stop-color="#5ea0ef"></stop></linearGradient>
<linearGradient id="a2350862-f997-4c57-aad0-c16f9ca4c0c3" x1="6.99" y1="11.32" x2="7" y2="9"></linearGradient>
<linearGradient id="e5473695-068a-44ff-b3dc-927159226a8e" x1="3.29" y1="11.32" x2="3.3" y2="9"></linearGradient>
</defs>
</svg>