<svg viewBox="0 0 18 18" data-islogo="true" class="" role="presentation" focusable="false" xmlns:svg="http://www.w3.org/2000/svg" xmlns:xlink="http://www.w3.org/1999/xlink" id="FxSymbol0-001" data-type="1"><g><title>Icon-compute-28</title><rect x="-.14" y="1.02" width="18" height="12" rx=".6" fill="url(#abe3e0fd-f5f5-4d67-8cca-cb6314d5da62)"></rect><rect x=".86" y="2.02" width="16" height="10" rx=".33" class="msportalfx-svg-c01" fill="#ffffff"></rect><path fill="#0078d4" d="M11.86 5.27v3.49l-3 1.76v-3.5l3-1.75z"></path><path fill="#83b9f9" d="M11.86 5.27l-3 1.76-3-1.76 3-1.75 3 1.75z"></path><path fill="#5ea0ef" d="M8.86 7.03v3.49l-3-1.76V5.27l3 1.76z"></path><path fill="#83b9f9" opacity=".2" d="M5.86 8.76l3-1.74v3.5l-3-1.76z"></path><path fill="#5ea0ef" opacity=".2" d="M11.86 8.76l-3-1.74v3.5l3-1.76z"></path><path d="M12.46 16.65c-1.77-.28-1.84-1.57-1.84-3.63H7.09c0 2.06-.07 3.35-1.84 3.63a1 1 0 0 0-.89 1h9a1 1 0 0 0-.9-1z" fill="url(#a49c2fd2-7c71-4d63-b68f-ddf5594dd0b8)"></path></g><defs>
<linearGradient id="abe3e0fd-f5f5-4d67-8cca-cb6314d5da62" x1="8.86" y1="13.02" x2="8.86" y2="1.02" gradientUnits="userSpaceOnUse"><stop offset="0" stop-color="#0078d4"></stop><stop offset=".82" stop-color="#5ea0ef"></stop></linearGradient>
<linearGradient id="a49c2fd2-7c71-4d63-b68f-ddf5594dd0b8" x1="8.86" y1="17.65" x2="8.86" y2="13.02" gradientUnits="userSpaceOnUse"><stop offset="0" stop-color="#1490df"></stop><stop offset=".98" stop-color="#1f56a3"></stop></linearGradient>
</defs>
</svg>