<svg viewBox="0 0 50 50" class="fxs-portal-svg" role="presentation" focusable="false" xmlns:svg="http://www.w3.org/2000/svg" xmlns:xlink="http://www.w3.org/1999/xlink" id="FxSymbol0-058" data-type="1"><g><title></title><path d="M35.723 0H2.066C.923 0 .001 1.021.001 2.162v23.439c0 1.134.922 2.144 2.066 2.144h33.656c1.141 0 2.297-1.01 2.297-2.144V2.162C38.02 1.018 36.864 0 35.723 0" class="msportalfx-svg-c03" fill="#a0a1a2"></path><path opacity=".2" d="M35.746.002L35.722 0H2.066C.922.001 0 1.021 0 2.163v23.438c0 1.134.922 2.144 2.066 2.144h.801L35.746.002z" class="msportalfx-svg-c01" fill="#ffffff"></path><path d="M35.129 24.823H2.882V2.922l32.247-.047z" class="msportalfx-svg-c15" fill="#59b4d9"></path><path d="M19.404 1.591a.54.54 0 1 1-1.079 0 .54.54 0 0 1 1.079 0" class="msportalfx-svg-c13" fill="#b8d432"></path><path d="M19.425 13.209a.213.213 0 0 1-.102-.029l-6.695-3.859a.206.206 0 0 1-.1-.175c0-.072.039-.139.1-.175l6.654-3.834a.204.204 0 0 1 .2 0l6.697 3.861c.062.036.1.103.1.175a.2.2 0 0 1-.1.175l-6.652 3.833a.214.214 0 0 1-.102.028" class="msportalfx-svg-c01" fill="#ffffff"></path><path d="M41.671 7.456H8.015c-1.144 0-2.066 1.021-2.066 2.162v23.439c0 1.134.922 2.144 2.066 2.144h33.656c1.141 0 2.297-1.01 2.297-2.144V9.618c.001-1.144-1.155-2.162-2.297-2.162" class="msportalfx-svg-c03" fill="#a0a1a2"></path><path opacity=".2" d="M41.695 7.458l-.024-.002H8.015c-1.144 0-2.066 1.021-2.066 2.162v23.438c0 1.134.922 2.144 2.066 2.144h.801L41.695 7.458z" class="msportalfx-svg-c01" fill="#ffffff"></path><path d="M41.078 32.279H8.83V10.378l32.248-.047z" class="msportalfx-svg-c15" fill="#59b4d9"></path><path d="M25.352 9.047a.54.54 0 1 1-1.079 0 .54.54 0 0 1 1.079 0" class="msportalfx-svg-c13" fill="#b8d432"></path><path d="M25.374 20.664a.213.213 0 0 1-.102-.029l-6.695-3.859a.206.206 0 0 1-.1-.175c0-.072.039-.139.1-.175l6.654-3.834a.204.204 0 0 1 .2 0l6.697 3.861c.062.036.1.103.1.175a.2.2 0 0 1-.1.175l-6.652 3.833a.206.206 0 0 1-.102.028" class="msportalfx-svg-c01" fill="#ffffff"></path><path d="M36.636 42.698H26.297c1.242 4.38-.427 5.008-7.737 5.008V50h24.858v-2.293c-7.309-.001-8.026-.626-6.782-5.009" class="msportalfx-svg-c04" fill="#7a7a7a"></path><path d="M47.703 14.955H14.047c-1.144 0-2.066 1.021-2.066 2.162v23.439c0 1.134.922 2.144 2.066 2.144h33.656c1.141 0 2.297-1.01 2.297-2.144V17.117c0-1.143-1.156-2.162-2.297-2.162" class="msportalfx-svg-c03" fill="#a0a1a2"></path><path opacity=".2" d="M47.727 14.958l-.024-.002H14.046c-1.144 0-2.066 1.021-2.066 2.162v23.438c0 1.134.922 2.144 2.066 2.144h.801l32.88-27.742z" class="msportalfx-svg-c01" fill="#ffffff"></path><path d="M47.109 39.779H14.862V17.878l32.247-.048z" class="msportalfx-svg-c15" fill="#59b4d9"></path><path d="M18.561 47.706h24.858V50H18.561z" class="msportalfx-svg-c03" fill="#a0a1a2"></path><path d="M31.384 16.546a.54.54 0 1 1-1.079 0 .54.54 0 0 1 1.079 0" class="msportalfx-svg-c13" fill="#b8d432"></path><path d="M31.405 28.164a.213.213 0 0 1-.102-.029l-6.695-3.859a.206.206 0 0 1-.1-.175c0-.072.039-.139.1-.175l6.654-3.834a.204.204 0 0 1 .2 0l6.697 3.861c.062.036.1.103.1.175a.2.2 0 0 1-.1.175l-6.652 3.833a.214.214 0 0 1-.102.028" class="msportalfx-svg-c01" fill="#ffffff"></path><path opacity=".7" d="M30.443 37.544a.194.194 0 0 1-.102-.027l-6.675-3.847a.198.198 0 0 1-.104-.175v-7.72c0-.073.039-.139.104-.175a.201.201 0 0 1 .204 0l6.674 3.846a.213.213 0 0 1 .099.177v7.72a.203.203 0 0 1-.099.175.223.223 0 0 1-.101.026" class="msportalfx-svg-c01" fill="#ffffff"></path><path opacity=".4" d="M32.333 37.544a.219.219 0 0 1-.105-.027.206.206 0 0 1-.098-.175V29.67a.21.21 0 0 1 .098-.175l6.674-3.845a.2.2 0 0 1 .201 0 .199.199 0 0 1 .102.175v7.671c0 .074-.039.14-.102.175l-6.672 3.847a.194.194 0 0 1-.098.026" class="msportalfx-svg-c01" fill="#ffffff"></path></g><defs>
<linearGradient id="a" x1="9" y1="16.39" x2="9" y2="-1.94" gradientUnits="userSpaceOnUse"><stop offset="0" stop-color="#0078d4"></stop><stop offset=".16" stop-color="#1380da"></stop><stop offset=".53" stop-color="#3c91e5"></stop><stop offset=".82" stop-color="#559cec"></stop><stop offset="1" stop-color="#5ea0ef"></stop></linearGradient>
<linearGradient id="b" x1="9.88" y1="7.11" x2="9.99" y2="17.27" gradientUnits="userSpaceOnUse"><stop offset="0" stop-color="#32d4f5"></stop><stop offset=".32" stop-color="#31d1f3"></stop><stop offset=".53" stop-color="#2ec9eb"></stop><stop offset=".7" stop-color="#29bade"></stop><stop offset=".86" stop-color="#22a5cb"></stop><stop offset="1" stop-color="#198ab3"></stop><stop offset="1" stop-color="#198ab3"></stop></linearGradient>
<radialGradient id="c" cx="9.43" cy="7.03" r="7.27" gradientUnits="userSpaceOnUse"><stop offset="0" stop-color="#f2f2f2"></stop><stop offset=".58" stop-color="#eee"></stop><stop offset="1" stop-color="#e6e6e6"></stop></radialGradient>
</defs>
</svg>