<svg viewBox="0 0 50 50" class="fxs-portal-svg" role="presentation" focusable="false" xmlns:svg="http://www.w3.org/2000/svg" xmlns:xlink="http://www.w3.org/1999/xlink" id="FxSymbol0-06d" data-type="1"><g><title></title><path d="M42.1 18.5v-2.2c0-4.4-1.6-8.5-4.4-11.4C35.1 1.9 29.3 0 25 0S14.9 1.9 12.3 4.9c-2.7 2.9-4.4 7-4.4 11.4v2.2l7.9.9v-2c0-2.6.9-5.9 2.4-7.6s4.7-2.5 6.8-2.6c2.1 0 5.3.9 6.8 2.6s2.4 3.9 2.4 6.4v3.2l7.9-.9z" class="msportalfx-svg-c03" fill="#a0a1a2"></path><path d="M7.9 18.5c-3.9 0-5.3 2.3-5.3 5.3v20.9c0 2.6 1.6 5.3 4.6 5.3h35.6c3.4 0 4.6-2.7 4.6-5.3V23.8c0-2.7-1.1-5.3-5.3-5.3H7.9z" class="msportalfx-svg-c15" fill="#59b4d9"></path><path opacity=".15" d="M34.1 18.5H7.9c-3.9 0-5.3 2.3-5.3 5.3v20.9c0 2.6 1.6 5.3 4.6 5.3h6.7l20.2-31.5z" class="msportalfx-svg-c01" fill="#ffffff"></path><path d="M19 27.1l5.8-5.8 5.8 5.8h-4.1v4.2H23v-4.2h-4zM8.3 35.9v-3.4h6v-4l5.6 5.6-5.6 5.6v-3.9h-6v.1zm16.5 11.3l-5.9-5.9H23v-4.1h3.5v4.1h4.2l-5.9 5.9zm16.5-11.3h-6v4l-5.7-5.7 5.7-5.7v4h6v3.4z" class="msportalfx-svg-c01" fill="#ffffff"></path></g><defs>
<linearGradient id="a" x1="9" y1="16.39" x2="9" y2="-1.94" gradientUnits="userSpaceOnUse"><stop offset="0" stop-color="#0078d4"></stop><stop offset=".16" stop-color="#1380da"></stop><stop offset=".53" stop-color="#3c91e5"></stop><stop offset=".82" stop-color="#559cec"></stop><stop offset="1" stop-color="#5ea0ef"></stop></linearGradient>
<linearGradient id="b" x1="9.88" y1="7.11" x2="9.99" y2="17.27" gradientUnits="userSpaceOnUse"><stop offset="0" stop-color="#32d4f5"></stop><stop offset=".32" stop-color="#31d1f3"></stop><stop offset=".53" stop-color="#2ec9eb"></stop><stop offset=".7" stop-color="#29bade"></stop><stop offset=".86" stop-color="#22a5cb"></stop><stop offset="1" stop-color="#198ab3"></stop><stop offset="1" stop-color="#198ab3"></stop></linearGradient>
<radialGradient id="c" cx="9.43" cy="7.03" r="7.27" gradientUnits="userSpaceOnUse"><stop offset="0" stop-color="#f2f2f2"></stop><stop offset=".58" stop-color="#eee"></stop><stop offset="1" stop-color="#e6e6e6"></stop></radialGradient>
</defs>
</svg>