<svg viewBox="0 0 18 18" data-islogo="true" class="" role="presentation" focusable="false" xmlns:svg="http://www.w3.org/2000/svg" xmlns:xlink="http://www.w3.org/1999/xlink" id="FxSymbol0-03a" data-type="1"><g><title>Icon-compute-34</title><rect x=".79" y=".89" width="10.11" height="6.75" rx=".34" fill="#005ba1"></rect><path fill="#50e6ff" d="M7.53 3.28v1.97l-1.68.98V4.27l1.68-.99z"></path><path fill="#c3f1ff" d="M7.53 3.28l-1.68.99-1.69-.99 1.69-.99 1.68.99z"></path><path fill="#9cebff" d="M5.85 4.27v1.96l-1.69-.98V3.28l1.69.99z"></path><rect x="4.76" y="4.76" width="10.11" height="6.75" rx=".34" fill="#0078d4"></rect><path fill="#50e6ff" d="M11.5 7.16v1.96l-1.68.99V8.14l1.68-.98z"></path><path fill="#c3f1ff" d="M11.5 7.16l-1.68.98-1.69-.98 1.69-.99 1.68.99z"></path><path fill="#9cebff" d="M9.82 8.14v1.97l-1.69-.99V7.16l1.69.98z"></path><rect x="7.68" y="8.52" width="10.11" height="6.75" rx=".34" fill="url(#b816c8ea-05a2-41fb-ba99-96d84599c9f4)"></rect><path fill="#50e6ff" d="M14.42 10.92v1.96l-1.68.99V11.9l1.68-.98z"></path><path fill="#c3f1ff" d="M14.42 10.92l-1.68.99-1.69-.99 1.69-.99 1.68.99z"></path><path fill="#9cebff" d="M12.74 11.91v1.96l-1.69-.99v-1.96l1.69.99z"></path><path fill="#c3f1ff" d="M11.05 12.88l1.69-.98v1.97l-1.69-.99z"></path><path fill="#9cebff" d="M14.42 12.88l-1.68-.98v1.97l1.68-.99z"></path><path d="M14.76 17.32c-1-.16-1-.88-1-2h-2c0 1.16 0 1.88-1 2a.59.59 0 0 0-.5.57h5a.59.59 0 0 0-.5-.57z" fill="url(#ab373d88-41af-4fc3-b172-d4489f9107a0)"></path></g><defs>
<linearGradient id="b816c8ea-05a2-41fb-ba99-96d84599c9f4" x1="12.74" y1="15.28" x2="12.74" y2="8.52" gradientUnits="userSpaceOnUse"><stop offset="0" stop-color="#0078d4"></stop><stop offset=".82" stop-color="#5ea0ef"></stop></linearGradient>
<linearGradient id="ab373d88-41af-4fc3-b172-d4489f9107a0" x1="12.74" y1="17.89" x2="12.74" y2="15.28" gradientUnits="userSpaceOnUse"><stop offset=".15" stop-color="#ccc"></stop><stop offset="1" stop-color="#707070"></stop></linearGradient>
</defs>
</svg>