<svg viewBox="0 0 50 50" class="fxs-portal-svg" role="presentation" focusable="false" xmlns:svg="http://www.w3.org/2000/svg" xmlns:xlink="http://www.w3.org/1999/xlink" id="FxSymbol0-057" data-type="1"><g><title></title><path d="M47 2H2.7C1.2 2 0 3.3 0 4.8v30.9c0 1.5 1.2 2.8 2.7 2.8h16.1c1.6 5.8-.6 6.6-10.2 6.6v3h32.6v-3c-9.6 0-10.6-.8-8.9-6.6H47c1.5 0 3-1.3 3-2.8V4.8C50 3.3 48.5 2 47 2z" class="msportalfx-svg-c15" fill="#59b4d9"></path><path d="M46.1 5.8v28.9H3.8V5.8z" class="msportalfx-svg-c01" fill="#ffffff"></path><path d="M25.5 19.4h-.1l-8.8-5.1c-.1 0-.1-.1-.1-.2s.1-.2.1-.2l8.8-5h.3l8.8 5.1c.1 0 .1.1.1.2s0 .2-.1.2l-8.7 5h-.3m-1.2 12.3h-.1l-8.8-5.1c-.1 0-.1-.1-.1-.2V16.2c0-.1.1-.2.1-.2h.3l8.8 5.1c.1 0 .1.1.1.2v10.2c0 .1-.1.2-.1.2h-.2m2.5 0h-.1c-.1 0-.1-.1-.1-.2V21.4c0-.1.1-.2.1-.2l8.8-5.1h.3c.1 0 .1.1.1.2v10.1c0 .1-.1.2-.1.2L27 31.7h-.2" class="msportalfx-svg-c19" fill="#0072c6"></path></g><defs>
<linearGradient id="a" x1="9" y1="16.39" x2="9" y2="-1.94" gradientUnits="userSpaceOnUse"><stop offset="0" stop-color="#0078d4"></stop><stop offset=".16" stop-color="#1380da"></stop><stop offset=".53" stop-color="#3c91e5"></stop><stop offset=".82" stop-color="#559cec"></stop><stop offset="1" stop-color="#5ea0ef"></stop></linearGradient>
<linearGradient id="b" x1="9.88" y1="7.11" x2="9.99" y2="17.27" gradientUnits="userSpaceOnUse"><stop offset="0" stop-color="#32d4f5"></stop><stop offset=".32" stop-color="#31d1f3"></stop><stop offset=".53" stop-color="#2ec9eb"></stop><stop offset=".7" stop-color="#29bade"></stop><stop offset=".86" stop-color="#22a5cb"></stop><stop offset="1" stop-color="#198ab3"></stop><stop offset="1" stop-color="#198ab3"></stop></linearGradient>
<radialGradient id="c" cx="9.43" cy="7.03" r="7.27" gradientUnits="userSpaceOnUse"><stop offset="0" stop-color="#f2f2f2"></stop><stop offset=".58" stop-color="#eee"></stop><stop offset="1" stop-color="#e6e6e6"></stop></radialGradient>
</defs>
</svg>