<svg viewBox="0 0 50 50" class="" role="presentation" focusable="false" xmlns="http://www.w3.org/2000/svg" xmlns:xlink="http://www.w3.org/1999/xlink" id="FxSymbol0-20e" data-type="1"><g><title></title><path d="M31.275 36.534h-12.55C20.341 42.302 18.511 44 9 44v3h32v-3c-9.511 0-11.341-1.698-9.725-7.466z" class="msportalfx-svg-c04" fill="#7a7a7a"></path><path d="M44.969 3H4.726C3.217 3 2 4.324 2 5.803V34.22c0 1.47 1.217 2.779 2.726 2.779H44.97c1.506 0 3.031-1.309 3.031-2.779V5.803C48 4.32 46.475 3 44.969 3" class="msportalfx-svg-c03" fill="#a0a1a2"></path><path opacity=".2" d="m44.858 3.003-.031-.002H4.717C3.213 3.001 2 4.324 2 5.804V34.22C2 35.691 3.213 37 4.717 37H5.77L44.858 3.003z" class="msportalfx-svg-c01" fill="#ffffff"></path><path d="M44 7v26H6V7z" class="msportalfx-svg-c15" fill="#59b4d9"></path><path d="m9 44 32-.021V47H9z" class="msportalfx-svg-c03" fill="#a0a1a2"></path><path d="M25.709 5a.71.71 0 1 1-1.42 0 .71.71 0 0 1 1.42 0" class="msportalfx-svg-c13" fill="#b8d432"></path><path d="M16.989 30H26.5c.944 0 1.833-.445 2.4-1.2l.67-.894c.532-.709-.054-1.708-.932-1.591L15 28l1.989 2z" class="msportalfx-svg-c21" fill="#00188f"></path><path opacity=".4" d="M25.546 21.5h5.409a2.546 2.546 0 0 0 2.546-2.546l1-3.909a2.546 2.546 0 0 0-2.546-2.546h-9.409C21.14 12.5 20 13.091 20 15.046 20 20 22.546 21.5 25.546 21.5z" class="msportalfx-svg-c01" fill="#ffffff"></path><path d="M8.546 21.5H3.591a2.546 2.546 0 0 1-2.546-2.546v-3.909a2.546 2.546 0 0 1 2.546-2.546h7.954c1.406 0 2.546.591 2.546 2.546 0 4.955-2.545 6.455-5.545 6.455z" class="msportalfx-svg-c15" fill="#59b4d9"></path><path opacity=".4" d="M8.546 21.5H3.591a2.546 2.546 0 0 1-2.546-2.546v-3.909a2.546 2.546 0 0 1 2.546-2.546h7.954c1.406 0 2.546.591 2.546 2.546 0 4.955-2.545 6.455-5.545 6.455z" class="msportalfx-svg-c01" fill="#ffffff"></path><path fill-opacity=".2" d="M4.045 22s-2.546-1.14-2.546-2.546v-3.909A2.547 2.547 0 0 1 4.045 13H11l-6.955 9zm19.001 0S20.5 20.86 20.5 19.454v-3.909A2.546 2.546 0 0 1 23.046 13H30l-6.954 9z" class="msportalfx-svg-c01" fill="#ffffff"></path><path d="M44.858 12.143C40.995 11.591 37 11 37 11v3l8.043 1c0 .001-1.669-.212 0 .004C47.368 15.306 48 16 48 18v1c1 0 2-1.472 2-3s-1.279-3.305-5.142-3.857zM19.541 13h-4.995v5.772c1.008-2.772 4.009-2.772 4.995 0V13z" class="msportalfx-svg-c20" fill="#68217a"></path><path d="M30.954 23h-5.409c-4.478 0-7.046-2.899-7.046-7.954 0-2.533 1.513-4.046 4.046-4.046h9.409C34.185 11 36 13.092 36 15.046 36 19 35 23 30.954 23zm-8.408-9c-.86 0-1.046.186-1.046 1.046 0 4.391 2.162 4.954 4.046 4.954h5.409C33 20 33 15.046 33 15.046c0-.577-.469-1.046-1.046-1.046h-9.408zm-14 9h-4.5A4.05 4.05 0 0 1 0 18.954v-3.908A4.05 4.05 0 0 1 4.045 11h7.5c2.533 0 4.046 1.513 4.046 4.046 0 5.055-2.568 7.954-7.045 7.954zm-4.501-9C3.468 14 3 14.469 3 15.046v3.908C3 19.531 3.468 20 4.045 20h4.5c1.884 0 4.046-.563 4.046-4.954 0-.86-.186-1.046-1.046-1.046h-7.5z" class="msportalfx-svg-c20" fill="#68217a"></path><path d="M35 15h1c2 0 2-2 2-3a1 1 0 0 0-1-1h-5l3 4zM1.546 15H0v-3a1 1 0 0 1 1-1h3.546l-3 4z" class="msportalfx-svg-c20" fill="#68217a"></path><path opacity=".15" d="M44.858 12.143C40.995 11.591 37 11 37 11h-5l.004.006c-.017 0-.033-.006-.05-.006h-9.408c-1.742 0-2.986.729-3.603 2h-3.795c-.617-1.271-1.86-2-3.602-2H1a1 1 0 0 0-1 1v3h.004c0 .016-.004.03-.004.046v3.908A4.05 4.05 0 0 0 4.045 23h4.5c3.711 0 6.105-1.997 6.818-5.557.983-.991 2.385-.993 3.363-.007.712 3.565 3.106 5.564 6.82 5.564h5.408C35 23 36 19 36 15.046c0-.015-.005-.031-.005-.046H36c.884 0 1.364-.398 1.639-.921l6.703.833.701.092C47.368 15.306 48 16 48 18v1c1 0 2-1.472 2-3s-1.279-3.305-5.142-3.857zM8.546 20h-4.5A1.046 1.046 0 0 1 3 18.954v-3.908C3 14.469 3.468 14 4.045 14h7.5c.86 0 1.046.186 1.046 1.046C12.592 19.437 10.429 20 8.546 20zm22.408 0h-5.408c-1.884 0-4.046-.563-4.046-4.954 0-.86.186-1.046 1.046-1.046h9.408c.577 0 1.046.469 1.046 1.046 0 0 0 4.954-2.046 4.954zm13.874-5.027.215.027-.215-.027z" class="msportalfx-svg-c18" fill="#ec008c"></path><path opacity=".8" d="M2 12v1H1v-1zm34 0v1h-1v-1z" class="msportalfx-svg-c01" fill="#ffffff"></path></g><defs>
</defs>
</svg>