<svg viewBox="0 0 18 18" class="" role="presentation" focusable="false" xmlns="http://www.w3.org/2000/svg" xmlns:xlink="http://www.w3.org/1999/xlink" id="FxSymbol0-058" data-type="1"><g><rect y=".685" width="18" height="12" rx=".6" fill="url(#59616712-f700-4139-92c6-bd98d17f0093)"></rect><path d="M12.61 16.315c-1.78-.28-1.85-1.56-1.84-3.63H7.2c0 2.07 0 3.35-1.81 3.63a1 1 0 0 0-.88 1h9a1.061 1.061 0 0 0-.9-1Z" fill="url(#59616712-f700-4139-92c6-bd98d17f0094)"></path><rect x="7.304" y="5.7" width="2.793" height="2.793" rx=".11" fill="#9cebff"></rect><path d="M11.864 3.73H9.225a.109.109 0 0 0-.109.108v.48a.109.109 0 0 0 .109.109h1.941a.218.218 0 0 1 .219.218v1.974a.108.108 0 0 0 .108.108h.481a.108.108 0 0 0 .109-.108v-2.67a.219.219 0 0 0-.219-.219Z" fill="#773adc"></path><path d="M10.938 7.187v1.737a.2.2 0 0 1-.2.2H6.772a.2.2 0 0 1-.2-.2V5.18a.2.2 0 0 1 .2-.2h1.989a.109.109 0 0 0 .108-.109v-.416a.109.109 0 0 0-.108-.109H6.137a.2.2 0 0 0-.2.2V9.56a.2.2 0 0 0 .2.2h5.237a.2.2 0 0 0 .2-.2V7.187a.109.109 0 0 0-.109-.109h-.418a.108.108 0 0 0-.109.108Z" class="msportalfx-svg-c01" fill="#ffffff"></path></g><defs>
<linearGradient id="59616712-f700-4139-92c6-bd98d17f0093" x1="-555" y1="1012.831" x2="-555" y2="1024.831" gradientTransform="matrix(1 0 0 -1 564 1025.516)" gradientUnits="userSpaceOnUse"><stop offset="0" stop-color="#0078d4"></stop><stop offset=".82" stop-color="#5ea0ef"></stop></linearGradient>
<linearGradient id="59616712-f700-4139-92c6-bd98d17f0094" x1="-554.99" y1="1008.201" x2="-554.99" y2="1012.831" gradientTransform="matrix(1 0 0 -1 564 1025.516)" gradientUnits="userSpaceOnUse"><stop offset="0" stop-color="#1490df"></stop><stop offset=".98" stop-color="#1f56a3"></stop></linearGradient>
</defs>
</svg>