<svg viewBox="0 0 18 18" class="" role="presentation" focusable="false" xmlns="http://www.w3.org/2000/svg" xmlns:xlink="http://www.w3.org/1999/xlink" id="FxSymbol0-059" data-type="1"><g><path d="M17.449.585v9.468a.28.28 0 0 1-.472.2 4.728 4.728 0 0 0-7.515 1.371H.618a.587.587 0 0 1-.586-.587V.586A.586.586 0 0 1 .618 0h16.246a.585.585 0 0 1 .585.585Z" fill="url(#59616712-f700-4139-92c6-bd98d17f0095)"></path><path d="M9.165 16.056H4.478a1.018 1.018 0 0 1 .86-.983c1.724-.206 1.724-1.446 1.724-3.444h2.4a4.729 4.729 0 0 0-.041 4.032.28.28 0 0 1-.256.395Z" fill="url(#59616712-f700-4139-92c6-bd98d17f0096)"></path><rect x="7.025" y="4.814" width="2.697" height="2.697" rx=".106" fill="#9cebff"></rect><path d="M11.427 2.912H8.879a.1.1 0 0 0-.105.1v.463a.1.1 0 0 0 .105.1h1.874a.212.212 0 0 1 .212.211V5.7a.1.1 0 0 0 .1.1h.465a.1.1 0 0 0 .1-.1V3.123a.21.21 0 0 0-.211-.211Z" fill="#773adc"></path><path d="M10.533 6.249v1.678a.192.192 0 0 1-.193.192H6.511a.193.193 0 0 1-.193-.192V4.312a.193.193 0 0 1 .193-.193h1.92a.1.1 0 0 0 .1-.1v-.4a.1.1 0 0 0-.1-.1H5.9a.192.192 0 0 0-.193.191v4.831a.192.192 0 0 0 .193.192h5.056a.193.193 0 0 0 .193-.192V6.249a.1.1 0 0 0-.105-.1h-.4a.1.1 0 0 0-.106.1Z" class="msportalfx-svg-c01" fill="#ffffff"></path><rect x="9.347" y="9.379" width="8.621" height="8.621" rx="4.311" fill="url(#59616712-f700-4139-92c6-bd98d17f0097)"></rect><path d="M15.866 16.209h-4.417l.01-.026.9-2.054 1.278-2.918a.057.057 0 0 1 .063-.041c.082 0 .082 0 .112.074l1.474 3.562.57 1.379ZM15 15.9l-1.47-3.614-1.593 3.614Z" class="msportalfx-svg-c01" fill="#ffffff"></path></g><defs>
<linearGradient id="59616712-f700-4139-92c6-bd98d17f0095" x1="8.741" y1="-.017" x2="8.741" y2="11.629" gradientUnits="userSpaceOnUse"><stop offset=".18" stop-color="#5ea0ef"></stop><stop offset="1" stop-color="#0078d4"></stop></linearGradient>
<linearGradient id="59616712-f700-4139-92c6-bd98d17f0096" x1="6.97" y1="11.629" x2="6.97" y2="16.125" gradientUnits="userSpaceOnUse"><stop offset=".202" stop-color="#1f56a3"></stop><stop offset="1" stop-color="#1490df"></stop></linearGradient>
<linearGradient id="59616712-f700-4139-92c6-bd98d17f0097" x1="13.657" y1="9.249" x2="13.657" y2="17.97" gradientUnits="userSpaceOnUse"><stop offset=".131" stop-color="#b796f9"></stop><stop offset="1" stop-color="#773adc"></stop></linearGradient>
</defs>
</svg>