<svg viewBox="0 0 18 18" class="" role="presentation" focusable="false" xmlns="http://www.w3.org/2000/svg" xmlns:xlink="http://www.w3.org/1999/xlink" id="FxSymbol0-181" data-type="1"><g><path d="M18 8.989a7.465 7.465 0 0 1-.418 2.468 7.896 7.896 0 0 1-.19.486 7.106 7.106 0 0 1-.378.756 7.449 7.449 0 0 1-4.647 3.518h-.014l-.062.016-.031.006a7.274 7.274 0 0 1-.9.154 6.454 6.454 0 0 1-.443.033h-.081c-.089 0-.178.006-.267.006A7.44 7.44 0 0 1 3.494 11.3a7.288 7.288 0 0 1-.249-1 7.435 7.435 0 0 1-.116-1.318 7.521 7.521 0 0 1 .106-1.264 7.442 7.442 0 0 1 7.329-6.183c.116 0 .232 0 .348.008A7.443 7.443 0 0 1 18 8.989Z" fill="url(#59616712-f700-4139-92c6-bd98d17f035e)"></path><ellipse cx="10.564" cy="8.989" rx="3.505" ry="3.511" fill="url(#59616712-f700-4139-92c6-bd98d17f035f)"></ellipse><rect y=".588" width="10.912" height="16.825" rx=".526" fill="url(#59616712-f700-4139-92c6-bd98d17f0360)"></rect><path fill="#50e6ff" d="m8.397 7.262.021 3.44-2.937 1.745L5.46 9l2.937-1.738z"></path><path fill="#c3f1ff" d="M8.397 7.262 5.461 9.007l-2.966-1.71L5.44 5.552l2.957 1.71z"></path><path fill="#9cebff" d="m5.461 9.007.02 3.44-2.965-1.709-.021-3.441 2.966 1.71z"></path><path fill="#c3f1ff" d="M2.516 10.738 5.46 9l.021 3.447-2.965-1.709z"></path><path fill="#9cebff" d="M8.418 10.702 5.46 9l.021 3.447 2.937-1.745z"></path></g><defs>
<linearGradient id="59616712-f700-4139-92c6-bd98d17f035e" x1="10.564" y1="1.333" x2="10.564" y2="16.765" gradientUnits="userSpaceOnUse"><stop offset="0" stop-color="#999"></stop><stop offset=".999" stop-color="#767676"></stop></linearGradient>
<linearGradient id="59616712-f700-4139-92c6-bd98d17f035f" x1="10.564" y1="5.379" x2="10.564" y2="12.655" gradientUnits="userSpaceOnUse"><stop offset=".001" stop-color="#b3b3b3"></stop><stop offset="1" stop-color="#999"></stop></linearGradient>
<linearGradient id="59616712-f700-4139-92c6-bd98d17f0360" x1="5.456" y1=".351" x2="5.456" y2="17.782" gradientUnits="userSpaceOnUse"><stop offset="0" stop-color="#0078d4"></stop><stop offset="1" stop-color="#005ba1"></stop></linearGradient>
</defs>
</svg>