<svg viewBox="0 0 50 50" class="fxs-portal-svg" role="presentation" focusable="false" xmlns:svg="http://www.w3.org/2000/svg" xmlns:xlink="http://www.w3.org/1999/xlink" id="FxSymbol0-117" data-type="1"><g><title></title><path d="M38.043 38.522H50V28l-11.957 1.674zm-.956 0v-8.729L28 31.109v7.413zm0 .837H28v7.532l9.087 1.316zm.956 0v8.967L50 50V39.359z" class="msportalfx-svg-c16" fill="#3999c6"></path><path d="M.588 0C.221 0 0 .221 0 .588v7.353c0 .368.221.588.588.588h3.676c.368 0 .588-.221.588-.588V4.926h26.984v3.088c0 .368.221.588.735.588H36.1c.368 0 .588-.221.588-.588V.662C36.763.221 36.543 0 36.175 0H.588zM17.64 12.743l1.558-.974 7.677 12.283-1.559.974z" class="msportalfx-svg-c19" fill="#0072c6"></path><path d="M10.145 24.041l7.674-12.281 1.559.974-7.675 12.281z" class="msportalfx-svg-c19" fill="#0072c6"></path><circle cx="18.382" cy="12.279" r="3.97" class="msportalfx-svg-c13" fill="#b8d432"></circle><circle cx="10.735" cy="24.484" r="3.97" class="msportalfx-svg-c15" fill="#59b4d9"></circle><circle cx="26.028" cy="24.484" r="3.97" class="msportalfx-svg-c15" fill="#59b4d9"></circle><path d="M25.417 31.911H4.926v-3.088c0-.368-.221-.588-.735-.588H.588c-.367-.001-.588.22-.588.734v7.206c0 .368.221.588.588.588h24.828v-4.852z" class="msportalfx-svg-c19" fill="#0072c6"></path></g><defs>
<linearGradient id="a" x1="9" y1="16.39" x2="9" y2="-1.94" gradientUnits="userSpaceOnUse"><stop offset="0" stop-color="#0078d4"></stop><stop offset=".16" stop-color="#1380da"></stop><stop offset=".53" stop-color="#3c91e5"></stop><stop offset=".82" stop-color="#559cec"></stop><stop offset="1" stop-color="#5ea0ef"></stop></linearGradient>
<linearGradient id="b" x1="9.88" y1="7.11" x2="9.99" y2="17.27" gradientUnits="userSpaceOnUse"><stop offset="0" stop-color="#32d4f5"></stop><stop offset=".32" stop-color="#31d1f3"></stop><stop offset=".53" stop-color="#2ec9eb"></stop><stop offset=".7" stop-color="#29bade"></stop><stop offset=".86" stop-color="#22a5cb"></stop><stop offset="1" stop-color="#198ab3"></stop><stop offset="1" stop-color="#198ab3"></stop></linearGradient>
<radialGradient id="c" cx="9.43" cy="7.03" r="7.27" gradientUnits="userSpaceOnUse"><stop offset="0" stop-color="#f2f2f2"></stop><stop offset=".58" stop-color="#eee"></stop><stop offset="1" stop-color="#e6e6e6"></stop></radialGradient>
</defs>
</svg>