<svg viewBox="0 0 17 17" class="" role="presentation" focusable="false" xmlns="http://www.w3.org/2000/svg" xmlns:xlink="http://www.w3.org/1999/xlink" id="FxSymbol0-126" data-type="1"><g><title></title><path fill="#0078D7" d="M1 2a1 1 0 0 1 1-1h13a1 1 0 0 1 1 1v13a1 1 0 0 1-1 1H2a1 1 0 0 1-1-1V2z"></path><path fill-opacity=".8" fill-rule="evenodd" d="M9 8V1H8v7H1v1h7v7h1V9h7V8H9z" clip-rule="evenodd" class="msportalfx-svg-c01" fill="#ffffff"></path><path fill-rule="evenodd" d="M4 13V4h1v9H4z" clip-rule="evenodd" class="msportalfx-svg-c01" fill="#ffffff"></path><path fill-rule="evenodd" d="M4.396 5.104l.708-.708 7.5 7.5-.707.708-7.5-7.5z" clip-rule="evenodd" class="msportalfx-svg-c01" fill="#ffffff"></path><path fill-rule="evenodd" d="M13 5H5V4h8v1z" clip-rule="evenodd" class="msportalfx-svg-c01" fill="#ffffff"></path><circle cx="4.5" cy="4.5" r="2.5" fill="url(#955724ae-8582-4ca1-9b57-4284a5f5416a)"></circle><circle cx="12.5" cy="4.5" r="1.5" fill="url(#955724ae-8582-4ca1-9b57-4284a5f5416b)"></circle><circle cx="4.5" cy="12.5" r="1.5" fill="url(#955724ae-8582-4ca1-9b57-4284a5f5416c)"></circle><circle cx="12.5" cy="12.5" r="1.5" fill="url(#955724ae-8582-4ca1-9b57-4284a5f5416d)"></circle><defs></defs></g><defs>
<linearGradient id="955724ae-8582-4ca1-9b57-4284a5f5416a" x1="4.518" x2="4.491" y1="7.064" y2="3.447" gradientUnits="userSpaceOnUse"><stop stop-color="#CCC"></stop><stop offset=".12" stop-color="#D7D7D7"></stop><stop offset=".42" stop-color="#EBEBEB"></stop><stop offset=".72" stop-color="#F8F8F8"></stop><stop offset="1" stop-color="#FCFCFC"></stop></linearGradient>
<linearGradient id="955724ae-8582-4ca1-9b57-4284a5f5416b" x1="12.511" x2="12.495" y1="6.038" y2="3.868" gradientUnits="userSpaceOnUse"><stop stop-color="#CCC"></stop><stop offset=".12" stop-color="#D7D7D7"></stop><stop offset=".42" stop-color="#EBEBEB"></stop><stop offset=".72" stop-color="#F8F8F8"></stop><stop offset="1" stop-color="#FCFCFC"></stop></linearGradient>
<linearGradient id="955724ae-8582-4ca1-9b57-4284a5f5416c" x1="4.511" x2="4.495" y1="14.039" y2="11.868" gradientUnits="userSpaceOnUse"><stop stop-color="#CCC"></stop><stop offset=".12" stop-color="#D7D7D7"></stop><stop offset=".42" stop-color="#EBEBEB"></stop><stop offset=".72" stop-color="#F8F8F8"></stop><stop offset="1" stop-color="#FCFCFC"></stop></linearGradient>
<linearGradient id="955724ae-8582-4ca1-9b57-4284a5f5416d" x1="12.511" x2="12.495" y1="14.039" y2="11.868" gradientUnits="userSpaceOnUse"><stop stop-color="#CCC"></stop><stop offset=".12" stop-color="#D7D7D7"></stop><stop offset=".42" stop-color="#EBEBEB"></stop><stop offset=".72" stop-color="#F8F8F8"></stop><stop offset="1" stop-color="#FCFCFC"></stop></linearGradient>
</defs>
</svg>