<svg viewBox="0 0 18 18" class="" role="presentation" focusable="false" xmlns="http://www.w3.org/2000/svg" xmlns:xlink="http://www.w3.org/1999/xlink" id="FxSymbol0-0f9" data-type="1"><g><circle cx="9" cy="9" r="8.5" fill="url(#37028337608217043)"></circle><circle cx="9" cy="9" r="7.321" fill="#005ba1"></circle><path d="M9.1 9.937L6.266 7.125a.507.507 0 0 0-.709 0L5.2 7.48a.469.469 0 0 0-.143.337.476.476 0 0 0 .141.339l2.132 2.122-2.178 2.163a.473.473 0 0 0 0 .676l.36.355a.507.507 0 0 0 .709 0l2.878-2.86a.475.475 0 0 0 .141-.338.468.468 0 0 0-.141-.337zm-.345-2.26a.475.475 0 0 0 .141.338l2.88 2.86a.507.507 0 0 0 .709 0l.36-.356a.469.469 0 0 0 .143-.337.475.475 0 0 0-.141-.338l-2.174-2.162 2.132-2.123a.475.475 0 0 0 .141-.338.469.469 0 0 0-.143-.337l-.36-.356a.507.507 0 0 0-.709 0L8.9 7.34a.472.472 0 0 0-.145.338z" fill="#f2f2f2"></path></g><defs>
<radialGradient id="37028337608217043" cx="9" cy="9" r="8.5" gradientUnits="userSpaceOnUse"><stop offset="0" stop-color="#198ab3"></stop><stop offset=".382" stop-color="#1a8cb5"></stop><stop offset=".576" stop-color="#1c94bc"></stop><stop offset=".727" stop-color="#21a1c8"></stop><stop offset=".856" stop-color="#27b4d8"></stop><stop offset=".97" stop-color="#2fccee"></stop><stop offset="1" stop-color="#32d4f5"></stop></radialGradient>
</defs>
</svg>