<svg viewBox="0 0 18 18" class="" role="presentation" focusable="false" xmlns="http://www.w3.org/2000/svg" xmlns:xlink="http://www.w3.org/1999/xlink" id="FxSymbol0-0ab" data-type="1"><g><title>Workspaces</title><circle cx="9" cy="9" r="8.5" fill="url(#59616712-f700-4139-92c6-bd98d17f0221)"></circle><path d="M8.88 4.69a.753.753 0 0 0-.753.752v3.694a.753.753 0 0 0 .753.752h3.693a.752.752 0 0 0 .752-.752V5.442a.752.752 0 0 0-.752-.752Zm.677.978a.451.451 0 0 0-.452.451v2.339a.452.452 0 0 0 .452.452H11.9a.451.451 0 0 0 .451-.452V6.119a.451.451 0 0 0-.451-.451Z" fill="#7de2fb" fill-rule="evenodd"></path><path d="M4.675 7.5a.451.451 0 0 1 .451-.451h1.851a.451.451 0 0 1 .451.451v1.861a.451.451 0 0 1-.451.451H5.126a.451.451 0 0 1-.451-.451Zm0 3.508a.451.451 0 0 1 .451-.451h1.851a.451.451 0 0 1 .451.451v1.851a.451.451 0 0 1-.451.451H5.126a.451.451 0 0 1-.451-.451Zm3.452-.045a.451.451 0 0 1 .452-.451h1.85a.452.452 0 0 1 .452.451v1.851a.452.452 0 0 1-.452.451h-1.85a.451.451 0 0 1-.452-.451Z" class="msportalfx-svg-c01" fill="#ffffff"></path></g><defs>
<linearGradient id="59616712-f700-4139-92c6-bd98d17f0221" x1="9" y1="17.5" x2="9" y2=".5" gradientUnits="userSpaceOnUse"><stop offset="0" stop-color="#005ba1"></stop><stop offset=".168" stop-color="#0063ae"></stop><stop offset=".577" stop-color="#0072ca"></stop><stop offset=".815" stop-color="#0078d4"></stop></linearGradient>
</defs>
</svg>