<svg viewBox="0 0 18 18" class="" role="presentation" focusable="false" xmlns="http://www.w3.org/2000/svg" xmlns:xlink="http://www.w3.org/1999/xlink" id="FxSymbol0-1d2" data-type="87"><g><path fill="url(#94a115a1-5689-4c39-bee0-5c63fda4a687)" d="m6.437 1.856-.292-.292a.5.5 0 0 0-.707 0L2.606 4.392 1.441 3.229a.5.5 0 0 0-.707 0l-.293.293a.5.5 0 0 0 0 .707l1.812 1.815a.5.5 0 0 0 .354.146.5.5 0 0 0 .353-.146l3.477-3.481a.5.5 0 0 0 0-.707z"></path><rect width="10.366" height="1.895" x="7.339" y="2.949" fill="#a3a3a3" rx=".923"></rect><rect width="10.366" height="1.895" x="7.339" y="8.073" fill="#a3a3a3" rx=".923"></rect><rect width="10.366" height="1.895" x="7.339" y="13.196" fill="#a3a3a3" rx=".923"></rect><path fill="url(#94a115a1-5689-4c39-bee0-5c63fda4a688)" d="m6.437 7.053-.292-.293a.5.5 0 0 0-.707 0L2.606 9.588 1.441 8.425a.5.5 0 0 0-.707 0l-.293.293a.5.5 0 0 0 0 .707l1.812 1.815a.5.5 0 0 0 .354.147.5.5 0 0 0 .353-.147l3.477-3.48a.5.5 0 0 0 0-.707z"></path><path fill="url(#94a115a1-5689-4c39-bee0-5c63fda4a689)" d="m6.437 12.249-.292-.293a.5.5 0 0 0-.354-.146.494.494 0 0 0-.353.146l-2.832 2.828-1.165-1.163a.5.5 0 0 0-.707 0l-.293.292a.5.5 0 0 0 0 .707l1.812 1.815a.5.5 0 0 0 .707 0l3.477-3.48a.5.5 0 0 0 0-.706z"></path></g><defs>
<linearGradient id="94a115a1-5689-4c39-bee0-5c63fda4a687" x1="3.439" x2="3.439" y1="6.801" y2="1.432" gradientUnits="userSpaceOnUse"><stop offset=".2" stop-color="#0078d4"></stop><stop offset=".287" stop-color="#1380da"></stop><stop offset=".759" stop-color="#5ea0ef"></stop></linearGradient>
<linearGradient id="94a115a1-5689-4c39-bee0-5c63fda4a688" x1="3.439" x2="3.439" y1="11.998" y2="6.628" gradientUnits="userSpaceOnUse"><stop offset=".2" stop-color="#0078d4"></stop><stop offset=".287" stop-color="#1380da"></stop><stop offset=".759" stop-color="#5ea0ef"></stop></linearGradient>
<linearGradient id="94a115a1-5689-4c39-bee0-5c63fda4a689" x1="3.439" x2="3.439" y1="17.194" y2="11.824" gradientUnits="userSpaceOnUse"><stop offset=".2" stop-color="#0078d4"></stop><stop offset=".287" stop-color="#1380da"></stop><stop offset=".759" stop-color="#5ea0ef"></stop></linearGradient>
</defs>
</svg>