<svg viewBox="0 0 19 19" class="" role="presentation" focusable="false" xmlns="http://www.w3.org/2000/svg" xmlns:xlink="http://www.w3.org/1999/xlink" id="FxSymbol0-23b" data-type="1"><g><circle cx="14.122" cy="14.122" r="4.378" fill="#308ce2"></circle><path fill-rule="evenodd" d="M16.032 14.073l-2.739-1.9h-.1c0 .048-.048.048-.048.1v3.7c0 .049 0 .049.048.1h.1l2.739-1.849a.092.092 0 0 0 0-.151z" class="msportalfx-svg-c01" fill="#ffffff"></path><path fill="url(#406fd2f9-470a-4939-b13a-553c6cc30f1a)" d="M8.911 14.122a5.143 5.143 0 0 1 .368-1.89h-.022a2.978 2.978 0 1 1 2.977-2.977v.022a5.113 5.113 0 0 1 5.437 1.048l.345-.125v-2l-.281-.1-2.135-.7-.561-1.366 1.086-2.312-1.4-1.4-.28.14-2 1.016-1.366-.56L10.2.5h-2l-.1.28-.7 2.137-1.366.56-2.277-1.086-1.4 1.4.141.28 1.015 2-.56 1.366L.5 8.311v2l.28.105 2.137.7.56 1.366-1.086 2.309 1.4 1.4.281-.14 2-1.016 1.366.561.876 2.417h2l.094-.254a5.19 5.19 0 0 1-1.497-3.637z"></path></g><defs>
<linearGradient id="406fd2f9-470a-4939-b13a-553c6cc30f1a" x1="9.257" x2="9.257" y1="-1.281" y2="15.688" gradientUnits="userSpaceOnUse"><stop offset="0" stop-color="#33c2e1"></stop><stop offset="1" stop-color="#6fd8ef"></stop></linearGradient>
</defs>
</svg>