<svg viewBox="0 0 50 50" class="fxs-portal-svg" role="presentation" focusable="false" xmlns:svg="http://www.w3.org/2000/svg" xmlns:xlink="http://www.w3.org/1999/xlink" id="FxSymbol0-044" data-type="352"><g><title></title><path d="M14 1c-3 0-7 3-7 3h2v42h35v2l3-3V1H14z" class="msportalfx-svg-c11" fill="#fcd116"></path><path opacity=".4" d="M14 1c-3 0-7 3-7 3h2v42h35v2l3-3V1H14z" class="msportalfx-svg-c20" fill="#68217a"></path><path opacity=".75" d="M15 2c-1.5 0-6 2-6 2h1v43h34l2-2V2H15z" class="msportalfx-svg-c01" fill="#ffffff"></path><path opacity=".8" d="M15 2c-2 0-5 2-5 2h34l2-2H15z" class="msportalfx-svg-c01" fill="#ffffff"></path><path d="M6 49v-3h2l1-1v-1l-1-1H6v-3h2l1-1v-1l-1-1H6v-3h2l1-1v-1l-1-1H6v-3h2l1-1v-1l-1-1H6v-3h2l1-1v-1l-1-1H6v-3h2l1-1v-1l-1-1H6v-3h2l1-1V8L8 7H6V4h38v45H6z" class="msportalfx-svg-c11" fill="#fcd116"></path><path opacity=".4" d="M6 49v-3h2l1-1v-1l-1-1H6v-3h2l1-1v-1l-1-1H6v-3h2l1-1v-1l-1-1H6v-3h2l1-1v-1l-1-1H6v-3h2l1-1v-1l-1-1H6v-3h2l1-1v-1l-1-1H6v-3h2l1-1V8L8 7H6V4h38v45H6z" class="msportalfx-svg-c20" fill="#68217a"></path><path opacity=".1" d="M6 49v-3h2l1-1v-1l-1-1H6v-3h2l1-1v-1l-1-1H6v-3h2l1-1v-1l-1-1H6v-3h2l1-1v-1l-1-1H6v-3h2l1-1v-1l-1-1H6v-3h2l1-1v-1l-1-1H6v-3h2l1-1V8L8 7H6V4h31L13 49H6z" class="msportalfx-svg-c01" fill="#ffffff"></path><path d="M19 17h16v6H19z" class="msportalfx-svg-c01" fill="#ffffff"></path><path d="M2 8h5v1H2zm0 6h5v1H2zm0 6h5v1H2zm0 6h5v1H2zm0 6h5v1H2zm0 6h5v1H2zm0 6h5v1H2z"></path><path opacity=".5" d="M3.5 5H6v1H3.5zm-1 1h1v1h-1zM2 7h1v1H2zm1.5 4H6v1H3.5zm-1 1h1v1h-1zM2 13h1v1H2zm1.5 4H6v1H3.5zm-1 1h1v1h-1zM2 19h1v1H2zm1.5 4H6v1H3.5zm-1 1h1v1h-1zM2 25h1v1H2zm1.5 4H6v1H3.5zm-1 1h1v1h-1zM2 31h1v1H2zm1.5 4H6v1H3.5zm-1 1h1v1h-1zM2 37h1v1H2zm1.5 4H6v1H3.5zm-1 1h1v1h-1zM2 43h1v1H2z"></path></g><defs>
<linearGradient id="a" x1="9" y1="17.86" x2="9" y2="4.06" gradientUnits="userSpaceOnUse"><stop offset="0" stop-color="#0078d4"></stop><stop offset=".16" stop-color="#1380da"></stop><stop offset=".53" stop-color="#3c91e5"></stop><stop offset=".82" stop-color="#559cec"></stop><stop offset="1" stop-color="#5ea0ef"></stop></linearGradient>
<linearGradient id="b" x1="6.4" y1="1.32" x2="7.21" y2="11.39"><stop offset=".22" stop-color="#32d4f5"></stop><stop offset=".47" stop-color="#31d1f3"></stop><stop offset=".63" stop-color="#2ec9eb"></stop><stop offset=".77" stop-color="#29bade"></stop><stop offset=".89" stop-color="#22a5cb"></stop><stop offset="1" stop-color="#198ab3"></stop><stop offset="1" stop-color="#198ab3"></stop></linearGradient>
<linearGradient id="c" x1="13.76" y1="18.05" x2="13.76" y2="10.25" gradientUnits="userSpaceOnUse"><stop offset="0" stop-color="#76bc2d"></stop><stop offset=".6" stop-color="#81ce31"></stop><stop offset=".82" stop-color="#86d633"></stop></linearGradient>
</defs>
</svg>