<?xml version="1.0" encoding="UTF-8" standalone="no"?>
<!DOCTYPE svg PUBLIC "-//W3C//DTD SVG 1.1//EN" "http://www.w3.org/Graphics/SVG/1.1/DTD/svg11.dtd">
<!-- Generated by Microsoft Visio, SVG Export DNS-VM.svg Page-1 -->
<svg xmlns="http://www.w3.org/2000/svg" xmlns:xlink="http://www.w3.org/1999/xlink" xmlns:ev="http://www.w3.org/2001/xml-events"
		xmlns:v="http://schemas.microsoft.com/visio/2003/SVGExtensions/" width="11in" height="8.5in" viewBox="0 0 792 612"
		xml:space="preserve" color-interpolation-filters="sRGB" class="st13">
	<v:documentProperties v:langID="1033" v:viewMarkup="false">
		<v:userDefs>
			<v:ud v:nameU="msvSubprocessMaster" v:prompt="" v:val="VT4(Rectangle)"/>
			<v:ud v:nameU="msvNoAutoConnect" v:val="VT0(1):26"/>
		</v:userDefs>
	</v:documentProperties>

	<style type="text/css">
	<![CDATA[
		.st1 {fill:#7a7a7a}
		.st2 {stroke:none;stroke-width:0.75}
		.st3 {fill:#a0a1a2;stroke:none;stroke-width:0.75}
		.st4 {fill:#ffffff;fill-opacity:0.2;stroke:none;stroke-width:0.75}
		.st5 {fill:#59b4d9;stroke:none;stroke-width:0.75}
		.st6 {fill:#b8d432;stroke:none;stroke-width:0.75}
		.st7 {fill:#ffffff}
		.st8 {fill:#ffffff;fill-opacity:0.7}
		.st9 {fill:#ffffff;fill-opacity:0.4}
		.st10 {fill:#0072c6;stroke:none;stroke-width:0.75}
		.st11 {fill:#ffffff;fill-opacity:0.8;stroke:none;stroke-width:0.75}
		.st12 {fill:#ffffff;stroke:none;stroke-width:0.75}
		.st13 {fill:none;fill-rule:evenodd;font-size:12px;overflow:visible;stroke-linecap:square;stroke-miterlimit:3}
	]]>
	</style>

	<g v:mID="0" v:index="1" v:groupContext="foregroundPage">
		<v:userDefs>
			<v:ud v:nameU="msvThemeOrder" v:val="VT0(0):26"/>
		</v:userDefs>
		<title>Page-1</title>
		<v:pageProperties v:drawingScale="1" v:pageScale="1" v:drawingUnits="0" v:shadowOffsetX="9" v:shadowOffsetY="-9"/>
		<g id="group16414-1" transform="translate(18,-563.016)" v:mID="16414" v:groupContext="group">
			<title>DNS VM</title>
			<g id="group16415-2" transform="translate(-2.79776E-14,-4.4385)" v:mID="16415" v:groupContext="group">
				<title>Sheet.16415</title>
				<g id="shape16416-3" v:mID="16416" v:groupContext="shape" transform="translate(4.983,-0.00075)">
					<title>Sheet.16416</title>
					<path d="M13.67 606.47 L5.85 606.47 C6.79 609.79 5.53 610.26 0 610.26 L0 612 L18.8 612 L18.8 610.26 C13.27 610.26
								 12.73 609.79 13.67 606.47 L13.67 606.47 Z" class="st1"/>
					<path d="M13.67 606.47 L5.85 606.47 C6.79 609.79 5.53 610.26 0 610.26 L0 612 L18.8 612 L18.8 610.26 C13.27 610.26
								 12.73 609.79 13.67 606.47" class="st2"/>
				</g>
				<g id="shape16417-6" v:mID="16417" v:groupContext="shape" transform="translate(1.59872E-14,-5.52975)">
					<title>Sheet.16417</title>
					<path d="M27.02 590.98 L1.56 590.98 A1.62675 1.62675 -180 0 0 -0 592.62 L0 610.38 A1.61775 1.61775 -180 0 0 1.56
								 612 L27.02 612 A1.7775 1.7775 -180 0 0 28.76 610.38 L28.76 592.62 A1.7835 1.7835 -180 0 0 27.02
								 590.98 Z" class="st3"/>
				</g>
				<g id="shape16418-8" v:mID="16418" v:groupContext="shape" transform="translate(1.43885E-13,-5.52825)">
					<title>Sheet.16418</title>
					<path d="M27.04 590.98 L27.02 590.98 L1.56 590.98 A1.626 1.626 -180 0 0 0 592.62 L0 610.38 A1.61775 1.61775 -180
								 0 0 1.56 612 L2.17 612 L27.04 590.98 Z" class="st4"/>
				</g>
				<g id="shape16419-10" v:mID="16419" v:groupContext="shape" transform="translate(2.1795,-7.743)">
					<title>Sheet.16419</title>
					<path d="M24.34 595.41 L24.34 612 L0 612 L0 595.41 L24.34 595.41 Z" class="st5"/>
				</g>
				<g id="shape16420-12" v:mID="16420" v:groupContext="shape" transform="translate(2.1795,-7.743)">
					<title>Sheet.16420</title>
					<path d="M0 612 L0.03 612 L0.03 595.41 L22.28 595.38 L22.28 595.38 L0 595.41 L0 612 Z" class="st5"/>
				</g>
				<g id="shape16421-14" v:mID="16421" v:groupContext="shape" transform="translate(4.9785,0)">
					<title>Sheet.16421</title>
					<rect x="0" y="610.262" width="18.8047" height="1.73775" class="st3"/>
				</g>
				<g id="shape16422-16" v:mID="16422" v:groupContext="shape" transform="translate(13.9818,-25.0533)">
					<title>Sheet.16422</title>
					<path d="M0.7 611.71 a0.408 0.408 0 1 1 -0.40875 -0.40875 a0.40875 0.40875 0 0 1 0.40875 0.40875 Z" class="st6"/>
				</g>
				<g id="shape16423-18" v:mID="16423" v:groupContext="shape" transform="translate(9.48,-16.5405)">
					<title>Sheet.16423</title>
					<path d="M5.21 612 a0.15975 0.15975 0 0 1 -0.075 -0.02175 L0.07 609.05 a0.156 0.156 0 0 1 -0.075 -0.13275 a0.15
								 0.15 0 0 1 0.075 -0.132 L5.11 605.88 a0.15375 0.15375 0 0 1 0.15 0 L10.32 608.81 a0.15375 0.15375
								 0 0 1 -1.59872E-14 0.26475 L5.29 611.98 a0.15525 0.15525 0 0 1 -0.075 0.02175 L5.21 612 Z"
							class="st7"/>
					<path d="M5.21 612 a0.15975 0.15975 0 0 1 -0.075 -0.02175 L0.07 609.05 a0.156 0.156 0 0 1 -0.075 -0.13275 a0.15
								 0.15 0 0 1 0.075 -0.132 L5.11 605.88 a0.15375 0.15375 0 0 1 0.15 0 L10.32 608.81 a0.15375 0.15375
								 0 0 1 -1.59872E-14 0.26475 L5.29 611.98 a0.15525 0.15525 0 0 1 -0.075 0.02175" class="st2"/>
				</g>
				<g id="shape16424-21" v:mID="16424" v:groupContext="shape" transform="translate(8.7675,-9.435)">
					<title>Sheet.16424</title>
					<path d="M5.2 612 a0.14475 0.14475 0 0 1 -0.075 -0.021 L0.07 609.06 a0.15 0.15 0 0 1 -0.075 -0.13275 L0 603.08
								 a0.15525 0.15525 0 0 1 0.2325 -0.13275 L5.28 605.86 a0.1605 0.1605 0 0 1 0.075 0.13425 L5.36 611.85
								 a0.156 0.156 0 0 1 -0.075 0.13275 a0.16125 0.16125 0 0 1 -0.075 0.021 L5.2 612 Z" class="st8"/>
					<path d="M5.2 612 a0.14475 0.14475 0 0 1 -0.075 -0.021 L0.07 609.06 a0.15 0.15 0 0 1 -0.075 -0.13275 L0 603.08
								 a0.15525 0.15525 0 0 1 0.2325 -0.13275 L5.28 605.86 a0.1605 0.1605 0 0 1 0.075 0.13425 L5.36 611.85
								 a0.156 0.156 0 0 1 -0.075 0.13275 a0.16125 0.16125 0 0 1 -0.075 0.021" class="st2"/>
				</g>
				<g id="shape16425-24" v:mID="16425" v:groupContext="shape" transform="translate(15.2415,-9.43575)">
					<title>Sheet.16425</title>
					<path d="M0.15 612 a0.165 0.165 0 0 1 -0.0795 -0.021 a0.156 0.156 0 0 1 -0.075 -0.13275 L0 606.04 a0.159 0.159
								 0 0 1 0.075 -0.13275 L5.12 602.99 a0.15 0.15 0 0 1 0.15 0 a0.15 0.15 0 0 1 0.075 0.132 L5.35 608.93
								 a0.15 0.15 0 0 1 -0.075 0.13275 L0.23 611.98 a0.13575 0.13575 0 0 1 -0.075 0.021 L0.15 612 Z"
							class="st9"/>
					<path d="M0.15 612 a0.165 0.165 0 0 1 -0.0795 -0.021 a0.156 0.156 0 0 1 -0.075 -0.13275 L0 606.04 a0.159 0.159
								 0 0 1 0.075 -0.13275 L5.12 602.99 a0.15 0.15 0 0 1 0.15 0 a0.15 0.15 0 0 1 0.075 0.132 L5.35 608.93
								 a0.15 0.15 0 0 1 -0.075 0.13275 L0.23 611.98 a0.13575 0.13575 0 0 1 -0.075 0.021" class="st2"/>
				</g>
			</g>
			<g id="group16426-27" transform="translate(15.1028,0)" v:mID="16426" v:groupContext="group">
				<title>Sheet.16426</title>
				<g id="shape16427-28" v:mID="16427" v:groupContext="shape">
					<title>Sheet.16427</title>
					<ellipse cx="11.4127" cy="600.587" rx="11.4127" ry="11.4127" class="st10"/>
				</g>
				<g id="shape16428-30" v:mID="16428" v:groupContext="shape" transform="translate(3.34275,-3.342)">
					<title>Sheet.16428</title>
					<path d="M0 612 A11.4127 11.4127 0 0 1 16.14 595.86 L0 612 Z" class="st4"/>
				</g>
				<g id="shape16429-32" v:mID="16429" v:groupContext="shape" transform="translate(0.91425,-0.95625)">
					<title>Sheet.16429</title>
					<path d="M21 601.54 A10.3687 10.3687 -180 0 0 18.73 595.07 L18.65 594.99 C18.6 594.95 18.6 594.91 18.56 594.86
								 L17.89 594.15 A10.2232 10.2232 -180 0 0 10.5 591.04 L10.42 591.04 A10.4077 10.4077 -180 0 0 3.11
								 594.11 L2.39 594.86 C2.35 594.91 2.35 594.95 2.31 594.99 L2.23 595.03 A10.704 10.704 -180 0 0 0
								 601.54 A10.3688 10.3688 -180 0 0 2.27 608.01 L2.35 608.09 C2.39 608.14 2.39 608.18 2.44 608.22 L3.11
								 608.93 A10.233 10.233 -180 0 0 10.42 612 L10.5 612 A10.425 10.425 -180 0 0 17.89 608.93 L18.57 608.18
								 C18.61 608.14 18.61 608.09 18.65 608.05 L18.74 607.97 A10.0808 10.0807 -180 0 0 21 601.54 ZM16.76
								 594.7 C16.71 594.7 16.67 594.74 16.63 594.74 a0.71025 0.71025 0 0 1 -0.21 0.084 C16.25 594.91 16.05
								 594.95 15.83 595.03 C15.79 595.03 15.75 595.07 15.71 595.07 C15.45 595.16 15.24 595.2 14.99 595.28
								 C14.95 595.28 14.87 595.33 14.82 595.33 A9.225 9.225 -180 0 0 13.44 592.76 A8.84325 8.84325 0 0
								 1 16.76 594.7 ZM10.42 592.26 L10.46 592.26 C11.59 592.26 12.77 593.48 13.61 595.58 A18.267 18.267
								 0 0 1 10.5 595.83 A19.6582 19.6582 0 0 1 7.31 595.58 C8.1 593.52 9.28 592.3 10.42 592.26 ZM7.43
								 592.81 A10.1078 10.1078 -180 0 0 6.09 595.33 L6.01 595.33 C5.75 595.24 5.5 595.2 5.29 595.12 C5.25
								 595.12 5.21 595.08 5.17 595.08 C5 594.99 4.79 594.91 4.62 594.82 C4.54 594.78 4.49 594.78 4.41 594.74
								 C4.37 594.7 4.33 594.7 4.24 594.66 A9.76275 9.76275 0 0 1 7.43 592.81 L7.43 592.81 ZM4.24 608.39
								 C4.28 608.39 4.32 608.34 4.37 608.34 C4.45 608.3 4.49 608.3 4.58 608.26 C4.74 608.18 4.95 608.13
								 5.16 608.05 C5.21 608.05 5.25 608.01 5.29 608.01 C5.54 607.92 5.75 607.88 6 607.8 L6.09 607.8 A10.9132
								 10.9132 -180 0 0 7.43 610.32 A9.56625 9.56625 0 0 1 4.24 608.39 ZM10.46 610.82 L10.42 610.82 C9.28
								 610.78 8.11 609.6 7.31 607.55 A19.659 19.659 0 0 1 10.5 607.29 A18.6292 18.6292 0 0 1 13.61 607.55
								 C12.81 609.61 11.59 610.82 10.46 610.82 L10.46 610.82 ZM13.44 610.32 A9.225 9.225 -180 0 0 14.82
								 607.76 C14.87 607.76 14.95 607.8 14.99 607.8 C15.24 607.88 15.5 607.92 15.71 608.01 C15.75 608.01
								 15.79 608.05 15.83 608.05 C16.04 608.13 16.21 608.18 16.42 608.26 C16.5 608.3 16.55 608.3 16.63
								 608.34 C16.67 608.34 16.71 608.39 16.8 608.43 A9.89175 9.89175 0 0 1 13.44 610.32 L13.44 610.32
								 ZM17.68 607.42 a0.98775 0.98775 0 0 1 -0.336 -0.084 C17.22 607.29 17.05 607.21 16.92 607.17 C16.88
								 607.17 16.84 607.13 16.8 607.13 C16.29 606.92 15.75 606.79 15.2 606.62 C15.33 606.12 15.45 605.61
								 15.54 605.11 L14.28 605.11 A9.3 9.3 0 0 1 13.98 606.37 A18.5865 18.5865 -180 0 0 10.5 606.08 A19.4347
								 19.4347 -180 0 0 6.93 606.41 A11.8335 11.8335 0 0 1 6.63 605.11 L5.37 605.11 C5.46 605.66 5.58 606.16
								 5.71 606.66 A15.0308 15.0308 -180 0 0 4.24 607.13 C4.2 607.17 4.11 607.17 4.07 607.21 C3.95 607.25
								 3.78 607.34 3.65 607.38 a0.7785 0.7785 -180 0 0 -0.294 0.084 A9.2865 9.2865 0 0 1 1.26 602.13 L2.31
								 602.13 L2.31 600.91 L1.26 600.91 A9.16425 9.16425 0 0 1 3.32 595.66 L3.36 595.62 C3.44 595.66 3.57
								 595.7 3.65 595.74 C3.82 595.83 3.95 595.87 4.11 595.95 C4.16 595.95 4.2 596 4.24 596 A12.8753 12.8753
								 -180 0 0 5.75 596.46 C5.63 596.92 5.54 597.38 5.46 597.84 L6.72 597.84 C6.8 597.47 6.89 597.05 6.97
								 596.71 A19.7918 19.7918 -180 0 0 10.54 597.05 A22.941 22.941 -180 0 0 14.03 596.75 C14.11 597.09
								 14.19 597.47 14.28 597.89 L15.54 597.89 C15.45 597.42 15.37 596.96 15.24 596.5 A9.6 9.6 -180 0 0
								 16.8 596 C16.84 596 16.92 595.95 16.97 595.95 C17.13 595.91 17.26 595.83 17.43 595.79 C17.51 595.74
								 17.64 595.7 17.72 595.66 A9.45525 9.45525 0 0 1 19.82 600.95 L18.56 600.95 L18.56 602.17 L19.82
								 602.17 A10.0185 10.0185 0 0 1 17.68 607.42 L17.68 607.42 Z" class="st11"/>
				</g>
				<g id="shape16430-34" v:mID="16430" v:groupContext="shape" transform="translate(4.269,-8.68875)">
					<title>Sheet.16430</title>
					<path d="M4.51 609.21 A3.7185 3.7185 0 0 1 4.31 610.48 A2.16225 2.16225 0 0 1 3.75 611.35 A2.2395 2.2395 0 0
								 1 2.86 611.84 A4.35 4.35 0 0 1 1.62 612 L0.33 612 a0.3465 0.3465 0 0 1 -0.2325 -0.081 a0.33525 0.33525
								 0 0 1 -0.09375 -0.26625 L0 606.92 a0.33525 0.33525 0 0 1 0.09375 -0.26625 a0.342 0.342 0 0 1 0.2325
								 -0.08175 L1.72 606.58 A3.8805 3.8805 0 0 1 2.95 606.75 A2.23125 2.23125 0 0 1 3.8 607.25 A2.16375
								 2.16375 0 0 1 4.33 608.07 A3.3 3.3 0 0 1 4.51 609.21 ZM3.37 609.25 A2.7165 2.7165 -180 0 0 3.27
								 608.53 A1.52925 1.52925 -180 0 0 2.98 607.96 A1.34025 1.34025 -180 0 0 2.47 607.58 A2.06475 2.06475
								 -180 0 0 1.65 607.44 L1.1 607.44 L1.1 611.13 L1.67 611.13 A2.16525 2.16525 -180 0 0 2.43 611.01
								 A1.275 1.275 -180 0 0 2.95 610.66 A1.52925 1.52925 -180 0 0 3.26 610.07 A2.9385 2.9385 -180 0 0
								 3.37 609.25 L3.37 609.25 Z" class="st12"/>
				</g>
				<g id="shape16431-36" v:mID="16431" v:groupContext="shape" transform="translate(9.6855,-8.6655)">
					<title>Sheet.16431</title>
					<path d="M4.47 611.6 a0.4155 0.4155 0 0 1 -0.033 0.17175 a0.38325 0.38325 0 0 1 -0.09075 0.126 a0.3405 0.3405
								 0 0 1 -0.1335 0.075 a0.54825 0.54825 0 0 1 -0.1575 0.02325 L3.58 611.99 a0.9705 0.9705 0 0 1 -0.25425
								 -0.02925 a0.50175 0.50175 0 0 1 -0.1965 -0.1065 a0.93225 0.93225 0 0 1 -0.174 -0.20925 A3.78975
								 3.78975 0 0 1 2.77 611.3 L1.42 608.77 C1.34 608.62 1.26 608.45 1.18 608.28 C1.1 608.1 1.03 607.94
								 0.97 607.77 L0.96 607.77 C0.97 607.97 0.98 608.17 0.98 608.37 C0.99 608.57 0.99 608.78 0.99 608.99
								 L0.99 611.82 a0.12975 0.12975 0 0 1 -0.02325 0.075 a0.174 0.174 0 0 1 -0.08025 0.05625 a0.60825
								 0.60825 0 0 1 -0.15 0.03525 A1.92525 1.92525 0 0 1 0.49 612 A1.8795 1.8795 0 0 1 0.25 611.99 a0.62325
								 0.62325 0 0 1 -0.15 -0.03525 a0.15675 0.15675 0 0 1 -0.075 -0.05625 a0.1425 0.1425 0 0 1 -0.021
								 -0.075 L0 606.95 a0.369 0.369 0 0 1 0.11475 -0.2955 a0.42225 0.42225 0 0 1 0.28275 -0.09825 L0.99
								 606.55 A1.11975 1.11975 0 0 1 1.26 606.58 a0.549 0.549 0 0 1 0.195 0.09075 a0.696 0.696 0 0 1 0.16125
								 0.174 A2.25675 2.25675 0 0 1 1.77 607.12 L2.82 609.1 C2.89 609.22 2.95 609.34 3.01 609.46 C3.07
								 609.57 3.13 609.69 3.18 609.8 L3.34 610.15 C3.4 610.26 3.45 610.37 3.5 610.48 L3.5 610.48 C3.49
								 610.28 3.49 610.08 3.48 609.87 C3.48 609.66 3.48 609.45 3.48 609.26 L3.48 606.72 a0.12675 0.12675
								 0 0 1 0.02475 -0.075 a0.19575 0.19575 0 0 1 0.084 -0.0585 a0.54225 0.54225 0 0 1 0.1545 -0.03525
								 A2.29125 2.29125 0 0 1 3.99 606.54 A2.1915 2.1915 0 0 1 4.23 606.55 a0.486 0.486 0 0 1 0.15 0.03525
								 a0.17625 0.17625 0 0 1 0.075 0.0585 a0.14325 0.14325 0 0 1 0.02025 0.075 L4.47 611.6 L4.47 611.6
								 Z" class="st12"/>
				</g>
				<g id="shape16432-38" v:mID="16432" v:groupContext="shape" transform="translate(15.009,-8.59125)">
					<title>Sheet.16432</title>
					<path d="M3.54 610.28 A1.67775 1.67775 0 0 1 3.38 611.03 A1.54875 1.54875 0 0 1 2.95 611.57 A1.884 1.884 0 0
								 1 2.32 611.89 A2.712 2.712 0 0 1 1.54 612 A2.7915 2.7915 0 0 1 1.01 611.95 A2.9955 2.9955 0 0 1
								 0.58 611.84 A1.809 1.809 0 0 1 0.28 611.71 a0.88425 0.88425 0 0 1 -0.1785 -0.126 a0.3195 0.3195
								 0 0 1 -0.075 -0.15675 A1.458 1.458 0 0 1 0 611.13 C0 611.04 0 610.97 0.01 610.91 a0.59175 0.59175
								 0 0 1 0.02775 -0.14325 a0.15675 0.15675 0 0 1 0.05025 -0.075 a0.12225 0.12225 0 0 1 0.075 -0.02325
								 a0.34575 0.34575 0 0 1 0.165 0.06975 A2.98125 2.98125 -180 0 0 0.6 610.89 A2.49975 2.49975 -180
								 0 0 1 611.04 A1.893 1.893 -180 0 0 1.54 611.11 A1.23225 1.23225 -180 0 0 1.9 611.06 a0.8085 0.8085
								 -180 0 0 0.27 -0.1365 a0.5805 0.5805 -180 0 0 0.1695 -0.2175 a0.69375 0.69375 -180 0 0 0.05925 -0.2895
								 a0.50625 0.50625 -180 0 0 -0.10125 -0.3165 a0.99825 0.99825 -180 0 0 -0.2625 -0.23475 A2.685 2.685
								 -180 0 0 1.67 609.67 C1.53 609.61 1.39 609.55 1.25 609.48 A3.9 3.9 0 0 1 0.82 609.26 A1.68975 1.68975
								 0 0 1 0.46 608.95 A1.45275 1.45275 0 0 1 0.19 608.53 A1.51125 1.51125 0 0 1 0.09 607.95 A1.545 1.545
								 0 0 1 0.24 607.26 A1.416 1.416 0 0 1 0.63 606.77 A1.662 1.662 0 0 1 1.21 606.48 A2.61 2.61 0 0 1
								 2.3 606.41 A2.60175 2.60175 0 0 1 2.66 606.49 A2.034 2.034 0 0 1 2.96 606.61 a0.675 0.675 0 0 1
								 0.17175 0.105 a0.3075 0.3075 0 0 1 0.05625 0.07125 a0.3225 0.3225 0 0 1 0.02475 0.075 a0.7185 0.7185
								 0 0 1 0.01425 0.12225 C3.23 607.03 3.23 607.09 3.23 607.16 C3.23 607.23 3.23 607.31 3.22 607.37
								 a0.825 0.825 0 0 1 -0.02025 0.138 a0.16875 0.16875 0 0 1 -0.042 0.08025 a0.10425 0.10425 0 0 1 -0.075
								 0.02475 a0.3465 0.3465 0 0 1 -0.15 -0.0585 C2.87 607.51 2.79 607.47 2.69 607.42 A2.43225 2.43225
								 -180 0 0 2.35 607.3 A1.494 1.494 -180 0 0 1.93 607.24 a0.99675 0.99675 -180 0 0 -0.31425 0.04425
								 a0.63525 0.63525 -180 0 0 -0.225 0.12225 a0.47925 0.47925 -180 0 0 -0.13425 0.186 a0.61275 0.61275
								 -180 0 0 -0.0435 0.23025 a0.51225 0.51225 -180 0 0 0.09825 0.31275 a0.945 0.945 -180 0 0 0.264 0.23475
								 A2.793 2.793 -180 0 0 1.95 608.56 C2.09 608.62 2.23 608.69 2.37 608.76 A4.34025 4.34025 0 0 1 2.8
								 608.98 A1.725 1.725 0 0 1 3.18 609.29 A1.434 1.434 0 0 1 3.44 609.71 A1.4685 1.4685 0 0 1 3.54 610.28
								 Z" class="st12"/>
				</g>
			</g>
		</g>
	</g>
</svg>
