<?xml version="1.0" encoding="UTF-8" standalone="no"?>
<!DOCTYPE svg PUBLIC "-//W3C//DTD SVG 1.1//EN" "http://www.w3.org/Graphics/SVG/1.1/DTD/svg11.dtd">
<!-- Generated by Microsoft Visio, SVG Export Dynamics-CRM-VM.svg Page-1 -->
<svg xmlns="http://www.w3.org/2000/svg" xmlns:xlink="http://www.w3.org/1999/xlink" xmlns:ev="http://www.w3.org/2001/xml-events"
		xmlns:v="http://schemas.microsoft.com/visio/2003/SVGExtensions/" width="0.518813in" height="0.453302in"
		viewBox="0 0 37.3545 32.6377" xml:space="preserve" color-interpolation-filters="sRGB" class="st11">
	<v:documentProperties v:langID="1033" v:metric="true" v:viewMarkup="false"/>

	<style type="text/css">
	<![CDATA[
		.st1 {fill:#7a7a7a}
		.st2 {stroke:none;stroke-width:0.75}
		.st3 {fill:#a0a1a2;stroke:none;stroke-width:0.75}
		.st4 {fill:#ffffff;fill-opacity:0.2;stroke:none;stroke-width:0.75}
		.st5 {fill:#59b4d9;stroke:none;stroke-width:0.75}
		.st6 {fill:#b8d432;stroke:none;stroke-width:0.75}
		.st7 {fill:#ffffff}
		.st8 {fill:#ffffff;fill-opacity:0.7}
		.st9 {fill:#ffffff;fill-opacity:0.4}
		.st10 {fill:#0072c6;stroke:none;stroke-width:0.75}
		.st11 {fill:none;fill-rule:evenodd;font-size:12px;overflow:visible;stroke-linecap:square;stroke-miterlimit:3}
	]]>
	</style>

	<g v:mID="0" v:index="1" v:groupContext="foregroundPage">
		<title>Page-1</title>
		<v:pageProperties v:drawingScale="1" v:pageScale="1" v:drawingUnits="0" v:shadowOffsetX="9" v:shadowOffsetY="-9"/>
		<g id="group16467-1" transform="translate(0.750048,-0.75)" v:mID="16467" v:groupContext="group">
			<title>Dynamics CRM VM</title>
			<g id="group16468-2" transform="translate(1.59872E-14,-4.593)" v:mID="16468" v:groupContext="group">
				<title>Sheet.16468</title>
				<g id="shape16469-3" v:mID="16469" v:groupContext="shape" transform="translate(4.983,1.42109E-14)">
					<title>Sheet.16469</title>
					<path d="M13.67 27.11 L5.85 27.11 C6.79 30.43 5.53 30.9 0 30.9 L0 32.64 L18.8 32.64 L18.8 30.9 C13.28 30.9 12.73
								 30.43 13.67 27.11 L13.67 27.11 Z" class="st1"/>
					<path d="M13.67 27.11 L5.85 27.11 C6.79 30.43 5.53 30.9 0 30.9 L0 32.64 L18.8 32.64 L18.8 30.9 C13.28 30.9 12.73
								 30.43 13.67 27.11" class="st2"/>
				</g>
				<g id="shape16470-6" v:mID="16470" v:groupContext="shape" transform="translate(5.19584E-13,-5.529)">
					<title>Sheet.16470</title>
					<path d="M27.02 11.62 L1.56 11.62 A1.62675 1.62675 -180 0 0 0 13.26 L0 31.01 A1.61775 1.61775 -180 0 0 1.56 32.64
								 L27.02 32.64 A1.7775 1.7775 -180 0 0 28.76 31.01 L28.76 13.26 A1.7835 1.7835 -180 0 0 27.02 11.62
								 Z" class="st3"/>
				</g>
				<g id="shape16471-8" v:mID="16471" v:groupContext="shape" transform="translate(6.17506E-13,-5.5275)">
					<title>Sheet.16471</title>
					<path d="M27.04 11.62 L27.02 11.62 L1.56 11.62 A1.626 1.626 -180 0 0 -0 13.26 L0 31.01 A1.61775 1.61775 -180
								 0 0 1.56 32.64 L2.17 32.64 L27.04 11.62 Z" class="st4"/>
				</g>
				<g id="shape16472-10" v:mID="16472" v:groupContext="shape" transform="translate(2.1795,-7.74225)">
					<title>Sheet.16472</title>
					<path d="M24.34 16.05 L24.34 32.64 L0 32.64 L0 16.05 L24.34 16.05 Z" class="st5"/>
				</g>
				<g id="shape16473-12" v:mID="16473" v:groupContext="shape" transform="translate(2.1795,-7.74225)">
					<title>Sheet.16473</title>
					<path d="M0 32.64 L0.03 32.64 L0.03 16.05 L22.28 16.02 L22.28 16.02 L0 16.05 L0 32.64 Z" class="st5"/>
				</g>
				<g id="shape16474-14" v:mID="16474" v:groupContext="shape" transform="translate(4.9785,2.84217E-14)">
					<title>Sheet.16474</title>
					<rect x="0" y="30.9" width="18.8047" height="1.73775" class="st3"/>
				</g>
				<g id="shape16475-16" v:mID="16475" v:groupContext="shape" transform="translate(13.9818,-25.0525)">
					<title>Sheet.16475</title>
					<path d="M0.7 32.35 a0.408 0.408 0 1 1 -0.40875 -0.40875 a0.40875 0.40875 0 0 1 0.40875 0.40875 Z" class="st6"/>
				</g>
				<g id="shape16476-18" v:mID="16476" v:groupContext="shape" transform="translate(9.48,-16.5397)">
					<title>Sheet.16476</title>
					<path d="M5.21 32.64 a0.15975 0.15975 0 0 1 -0.075 -0.02175 L0.07 29.69 a0.156 0.156 0 0 1 -0.075 -0.13275 a0.15
								 0.15 0 0 1 0.075 -0.132 L5.11 26.52 a0.15375 0.15375 0 0 1 0.15 3.55271E-15 L10.32 29.45 a0.15375
								 0.15375 0 0 1 8.88178E-15 0.26475 L5.29 32.62 a0.15525 0.15525 0 0 1 -0.075 0.02175 L5.21 32.64
								 Z" class="st7"/>
					<path d="M5.21 32.64 a0.15975 0.15975 0 0 1 -0.075 -0.02175 L0.07 29.69 a0.156 0.156 0 0 1 -0.075 -0.13275 a0.15
								 0.15 0 0 1 0.075 -0.132 L5.11 26.52 a0.15375 0.15375 0 0 1 0.15 3.55271E-15 L10.32 29.45 a0.15375
								 0.15375 0 0 1 8.88178E-15 0.26475 L5.29 32.62 a0.15525 0.15525 0 0 1 -0.075 0.02175" class="st2"/>
				</g>
				<g id="shape16477-21" v:mID="16477" v:groupContext="shape" transform="translate(8.7675,-9.43425)">
					<title>Sheet.16477</title>
					<path d="M5.2 32.64 a0.14475 0.14475 0 0 1 -0.075 -0.021 L0.07 29.7 a0.15 0.15 0 0 1 -0.075 -0.13275 L0 23.72
								 a0.15525 0.15525 0 0 1 0.2325 -0.13275 L5.28 26.5 a0.1605 0.1605 0 0 1 0.075 0.13425 L5.36 32.48
								 a0.156 0.156 0 0 1 -0.075 0.13275 a0.16125 0.16125 0 0 1 -0.075 0.021 L5.2 32.64 Z" class="st8"/>
					<path d="M5.2 32.64 a0.14475 0.14475 0 0 1 -0.075 -0.021 L0.07 29.7 a0.15 0.15 0 0 1 -0.075 -0.13275 L0 23.72
								 a0.15525 0.15525 0 0 1 0.2325 -0.13275 L5.28 26.5 a0.1605 0.1605 0 0 1 0.075 0.13425 L5.36 32.48
								 a0.156 0.156 0 0 1 -0.075 0.13275 a0.16125 0.16125 0 0 1 -0.075 0.021" class="st2"/>
				</g>
				<g id="shape16478-24" v:mID="16478" v:groupContext="shape" transform="translate(15.2415,-9.435)">
					<title>Sheet.16478</title>
					<path d="M0.15 32.64 a0.165 0.165 0 0 1 -0.0795 -0.021 a0.156 0.156 0 0 1 -0.075 -0.13275 L0 26.67 a0.159 0.159
								 0 0 1 0.075 -0.13275 L5.12 23.63 a0.15 0.15 0 0 1 0.15 0 a0.15 0.15 0 0 1 0.075 0.132 L5.35 29.57
								 a0.15 0.15 0 0 1 -0.075 0.13275 L0.23 32.62 a0.13575 0.13575 0 0 1 -0.075 0.021 L0.15 32.64 Z"
							class="st9"/>
					<path d="M0.15 32.64 a0.165 0.165 0 0 1 -0.0795 -0.021 a0.156 0.156 0 0 1 -0.075 -0.13275 L0 26.67 a0.159 0.159
								 0 0 1 0.075 -0.13275 L5.12 23.63 a0.15 0.15 0 0 1 0.15 0 a0.15 0.15 0 0 1 0.075 0.132 L5.35 29.57
								 a0.15 0.15 0 0 1 -0.075 0.13275 L0.23 32.62 a0.13575 0.13575 0 0 1 -0.075 0.021" class="st2"/>
				</g>
			</g>
			<g id="group16479-27" transform="translate(14.034,1.42109E-14)" v:mID="16479" v:groupContext="group">
				<title>Sheet.16479</title>
				<g id="shape16480-28" v:mID="16480" v:groupContext="shape" transform="translate(0.00075,-0.099)">
					<title>Sheet.16480</title>
					<path d="M16.39 15.78 L16.39 15.77 A25.539 25.539 0 0 1 11.21 23.81 L11.21 28.69 L11.04 28.79 L10.74 28.81 A19.6717
								 19.6717 -180 0 0 0 32.64 C7.59 27.96 16.17 30.13 16.19 30.13 L16.85 30.02 L16.85 15.92 L16.39 15.78
								 Z" class="st10"/>
				</g>
				<g id="shape16481-30" v:mID="16481" v:groupContext="shape" transform="translate(0.0045,-6.39488E-14)">
					<title>Sheet.16481</title>
					<path d="M21.48 19.08 L21.48 19.07 A28.7393 28.7393 0 0 1 18.54 21.98 C18.02 22.45 17.75 22.73 17.24 23.15 L17.24
								 30.4 L16.81 30.51 A20.5995 20.5995 -180 0 0 11.65 29.8 A25.4618 25.4618 -180 0 0 -0 32.54 L0.16
								 32.55 A33.456 33.456 0 0 1 21.37 32.63 L21.37 32.64 L21.82 32.47 L21.82 19.26 L21.48 19.08 Z"
							class="st10"/>
				</g>
				<g id="shape16482-32" v:mID="16482" v:groupContext="shape" transform="translate(-1.8785E-13,-0.093)">
					<title>Sheet.16482</title>
					<path d="M10.81 12.36 L10.28 12.22 L10.28 12.22 L10.28 12.28 A29.6318 29.6318 0 0 1 7.16 21 A42.4567 42.4567
								 0 0 1 0 31 L0 32.64 A18.4807 18.4807 0 0 1 10.21 28.49 L10.45 28.47 L10.81 28.35 L10.81 12.36 Z"
							class="st10"/>
				</g>
			</g>
		</g>
	</g>
</svg>
