<?xml version="1.0" encoding="UTF-8" standalone="no"?>
<!DOCTYPE svg PUBLIC "-//W3C//DTD SVG 1.1//EN" "http://www.w3.org/Graphics/SVG/1.1/DTD/svg11.dtd">
<!-- Generated by Microsoft Visio, SVG Export Linux-VM.svg Page-1 -->
<svg xmlns="http://www.w3.org/2000/svg" xmlns:xlink="http://www.w3.org/1999/xlink" xmlns:ev="http://www.w3.org/2001/xml-events"
		xmlns:v="http://schemas.microsoft.com/visio/2003/SVGExtensions/" width="0.557699in" height="0.437102in"
		viewBox="0 0 40.1543 31.4713" xml:space="preserve" color-interpolation-filters="sRGB" class="st14">
	<v:documentProperties v:langID="1033" v:metric="true" v:viewMarkup="false"/>

	<style type="text/css">
	<![CDATA[
		.st1 {fill:#7a7a7a}
		.st2 {stroke:none;stroke-width:0.75}
		.st3 {fill:#a0a1a2}
		.st4 {fill:#ffffff;fill-opacity:0.2;stroke:none;stroke-width:0.75}
		.st5 {fill:#59b4d9;stroke:none;stroke-width:0.75}
		.st6 {fill:#a0a1a2;stroke:none;stroke-width:0.75}
		.st7 {fill:#b8d432;stroke:none;stroke-width:0.75}
		.st8 {fill:#ffffff}
		.st9 {fill:#ffffff;fill-opacity:0.7}
		.st10 {fill:#ffffff;fill-opacity:0.4}
		.st11 {fill:#ffffff;stroke:none;stroke-width:0.75}
		.st12 {fill:#fcd116;stroke:none;stroke-width:0.75}
		.st13 {fill:#3e3e3e;stroke:none;stroke-width:0.75}
		.st14 {fill:none;fill-rule:evenodd;font-size:12px;overflow:visible;stroke-linecap:square;stroke-miterlimit:3}
	]]>
	</style>

	<g v:mID="0" v:index="1" v:groupContext="foregroundPage">
		<title>Page-1</title>
		<v:pageProperties v:drawingScale="1" v:pageScale="1" v:drawingUnits="0" v:shadowOffsetX="9" v:shadowOffsetY="-9"/>
		<g id="group16449-1" transform="translate(0.750048,-0.75884)" v:mID="16449" v:groupContext="group">
			<title>Linux VM</title>
			<g id="group16450-2" transform="translate(0,-3.417)" v:mID="16450" v:groupContext="group">
				<title>Sheet.16450</title>
				<g id="shape16451-3" v:mID="16451" v:groupContext="shape" transform="translate(4.983,9.59233E-14)">
					<title>Sheet.16451</title>
					<path d="M13.67 25.94 L5.85 25.94 C6.79 29.26 5.53 29.73 0 29.73 L0 31.47 L18.8 31.47 L18.8 29.73 C13.28 29.73
								 12.73 29.26 13.67 25.94 L13.67 25.94 Z" class="st1"/>
					<path d="M13.67 25.94 L5.85 25.94 C6.79 29.26 5.53 29.73 0 29.73 L0 31.47 L18.8 31.47 L18.8 29.73 C13.28 29.73
								 12.73 29.26 13.67 25.94" class="st2"/>
				</g>
				<g id="shape16452-6" v:mID="16452" v:groupContext="shape" transform="translate(8.29337E-13,-5.52975)">
					<title>Sheet.16452</title>
					<path d="M27.02 10.46 L1.56 10.46 A1.62675 1.62675 -180 0 0 -0 12.09 L0 29.85 A1.61775 1.61775 -180 0 0 1.56
								 31.47 L27.02 31.47 A1.7775 1.7775 -180 0 0 28.76 29.85 L28.76 12.09 A1.7835 1.7835 -180 0 0 27.02
								 10.46 L27.02 10.46 Z" class="st3"/>
					<path d="M27.02 10.46 L1.56 10.46 A1.62675 1.62675 -180 0 0 -0 12.09 L0 29.85 A1.61775 1.61775 -180 0 0 1.56
								 31.47 L27.02 31.47 A1.7775 1.7775 -180 0 0 28.76 29.85 L28.76 12.09 A1.7835 1.7835 -180 0 0 27.02
								 10.46" class="st2"/>
				</g>
				<g id="shape16453-9" v:mID="16453" v:groupContext="shape" transform="translate(9.07274E-13,-5.5275)">
					<title>Sheet.16453</title>
					<path d="M27.04 10.46 L27.02 10.46 L1.56 10.46 A1.626 1.626 -180 0 0 -0 12.09 L0 29.85 A1.61775 1.61775 -180
								 0 0 1.56 31.47 L2.17 31.47 L27.04 10.46 Z" class="st4"/>
				</g>
				<g id="shape16454-11" v:mID="16454" v:groupContext="shape" transform="translate(2.1795,-7.74225)">
					<title>Sheet.16454</title>
					<path d="M24.34 14.88 L24.34 31.47 L0 31.47 L0 14.88 L24.34 14.88 Z" class="st5"/>
				</g>
				<g id="shape16455-13" v:mID="16455" v:groupContext="shape" transform="translate(2.1795,-7.74225)">
					<title>Sheet.16455</title>
					<path d="M0 31.47 L0.03 31.47 L0.03 14.88 L22.28 14.85 L22.28 14.85 L0 14.88 L0 31.47 Z" class="st5"/>
				</g>
				<g id="shape16456-15" v:mID="16456" v:groupContext="shape" transform="translate(4.9785,2.13163E-14)">
					<title>Sheet.16456</title>
					<rect x="0" y="29.7336" width="18.8047" height="1.73775" class="st6"/>
				</g>
				<g id="shape16457-17" v:mID="16457" v:groupContext="shape" transform="translate(13.9818,-25.0525)">
					<title>Sheet.16457</title>
					<path d="M0.7 31.18 a0.408 0.408 0 1 1 -0.40875 -0.40875 a0.40875 0.40875 0 0 1 0.40875 0.40875 Z" class="st7"/>
				</g>
				<g id="shape16458-19" v:mID="16458" v:groupContext="shape" transform="translate(9.48,-16.5397)">
					<title>Sheet.16458</title>
					<path d="M5.21 31.47 a0.15975 0.15975 0 0 1 -0.075 -0.02175 L0.07 28.52 a0.156 0.156 0 0 1 -0.075 -0.13275 a0.15
								 0.15 0 0 1 0.075 -0.132 L5.11 25.36 a0.15375 0.15375 0 0 1 0.15 7.10543E-15 L10.32 28.28 a0.15375
								 0.15375 0 0 1 1.77636E-14 0.26475 L5.29 31.45 a0.15525 0.15525 0 0 1 -0.075 0.02175 L5.21 31.47
								 Z" class="st8"/>
					<path d="M5.21 31.47 a0.15975 0.15975 0 0 1 -0.075 -0.02175 L0.07 28.52 a0.156 0.156 0 0 1 -0.075 -0.13275 a0.15
								 0.15 0 0 1 0.075 -0.132 L5.11 25.36 a0.15375 0.15375 0 0 1 0.15 7.10543E-15 L10.32 28.28 a0.15375
								 0.15375 0 0 1 1.77636E-14 0.26475 L5.29 31.45 a0.15525 0.15525 0 0 1 -0.075 0.02175" class="st2"/>
				</g>
				<g id="shape16459-22" v:mID="16459" v:groupContext="shape" transform="translate(8.7675,-9.43425)">
					<title>Sheet.16459</title>
					<path d="M5.2 31.47 a0.14475 0.14475 0 0 1 -0.075 -0.021 L0.07 28.54 a0.15 0.15 0 0 1 -0.075 -0.13275 L0 22.55
								 a0.15525 0.15525 0 0 1 0.2325 -0.13275 L5.28 25.33 a0.1605 0.1605 0 0 1 0.075 0.13425 L5.36 31.32
								 a0.156 0.156 0 0 1 -0.075 0.13275 a0.16125 0.16125 0 0 1 -0.075 0.021 L5.2 31.47 Z" class="st9"/>
					<path d="M5.2 31.47 a0.14475 0.14475 0 0 1 -0.075 -0.021 L0.07 28.54 a0.15 0.15 0 0 1 -0.075 -0.13275 L0 22.55
								 a0.15525 0.15525 0 0 1 0.2325 -0.13275 L5.28 25.33 a0.1605 0.1605 0 0 1 0.075 0.13425 L5.36 31.32
								 a0.156 0.156 0 0 1 -0.075 0.13275 a0.16125 0.16125 0 0 1 -0.075 0.021" class="st2"/>
				</g>
				<g id="shape16460-25" v:mID="16460" v:groupContext="shape" transform="translate(15.2415,-9.435)">
					<title>Sheet.16460</title>
					<path d="M0.15 31.47 a0.165 0.165 0 0 1 -0.0795 -0.021 a0.156 0.156 0 0 1 -0.075 -0.13275 L0 25.51 a0.159 0.159
								 0 0 1 0.075 -0.13275 L5.12 22.46 a0.15 0.15 0 0 1 0.15 3.55271E-15 a0.15 0.15 0 0 1 0.075 0.132
								 L5.35 28.4 a0.15 0.15 0 0 1 -0.075 0.13275 L0.23 31.45 a0.13575 0.13575 0 0 1 -0.075 0.021 L0.15
								 31.47 Z" class="st10"/>
					<path d="M0.15 31.47 a0.165 0.165 0 0 1 -0.0795 -0.021 a0.156 0.156 0 0 1 -0.075 -0.13275 L0 25.51 a0.159 0.159
								 0 0 1 0.075 -0.13275 L5.12 22.46 a0.15 0.15 0 0 1 0.15 3.55271E-15 a0.15 0.15 0 0 1 0.075 0.132
								 L5.35 28.4 a0.15 0.15 0 0 1 -0.075 0.13275 L0.23 31.45 a0.13575 0.13575 0 0 1 -0.075 0.021"
							class="st2"/>
				</g>
			</g>
			<g id="group16461-28" transform="translate(18.9272,0)" v:mID="16461" v:groupContext="group">
				<title>Sheet.16461</title>
				<g id="shape16462-29" v:mID="16462" v:groupContext="shape" transform="translate(3.48356,-2.1345)">
					<title>Sheet.16462</title>
					<path d="M5.9 12.72 L7.34 12.72 L8.49 13.09 L9.35 16.01 L12.26 20.75 L13.99 24.21 L14.19 25.64 L14.05 27.03 L12.38
								 28.96 L9.81 31.3 L6.66 31.47 L3.51 31.47 L2.07 29.02 L0 25.07 L0 22.63 L2.19 19.62 L3.29 17.75 L3.55
								 15.89 L3.36 14.16 L3.77 13.09 L5.9 12.72 Z" class="st11"/>
				</g>
				<g id="shape16463-31" v:mID="16463" v:groupContext="shape" transform="translate(7.07892,-15.3885)">
					<title>Sheet.16463</title>
					<path d="M4.48 29.01 C4.26 28.91 4.1 28.86 3.95 28.81 A2.139 2.139 0 0 1 3.43 28.57 A2.37525 2.37525 -180 0 0
								 2.27 28.15 L2.2 28.15 A1.4895 1.4895 -180 0 0 1.72 28.23 A2.15925 2.15925 -180 0 0 0.92 28.77 L0.87
								 28.83 L0.86 28.83 A1.13775 1.13775 0 0 1 0.76 28.91 L0.69 28.96 C0.59 29.03 0.43 29.15 0.21 29.32
								 a0.525 0.525 -180 0 0 -0.20925 0.61425 A1.425 1.425 -180 0 0 0.71 30.67 A2.44725 2.44725 0 0 1 1.12
								 30.99 C1.19 31.05 1.25 31.11 1.32 31.16 A1.2855 1.2855 -180 0 0 2.11 31.47 C2.14 31.47 2.18 31.47
								 2.21 31.47 A1.78425 1.78425 -180 0 0 3.14 31.2 C3.23 31.15 3.32 31.1 3.4 31.04 A2.25975 2.25975
								 0 0 1 3.91 30.77 A1.68 1.68 -180 0 0 4.99 29.9 a0.6 0.6 -180 0 0 -0.01575 -0.4965 a0.921 0.921 -180
								 0 0 -0.498 -0.4005 Z" class="st12"/>
				</g>
				<g id="shape16464-33" v:mID="16464" v:groupContext="shape" transform="translate(12.693,-0.26175)">
					<title>Sheet.16464</title>
					<path d="M6.12 26.89 L6.12 26.88 A2.01525 2.01525 0 0 1 5.75 25.96 L5.72 25.84 A1.6215 1.6215 -180 0 0 5.32 24.94
								 A1.143 1.143 -180 0 0 4.44 24.69 L4.29 24.69 L4.21 24.69 L4.2 24.7 A2.38425 2.38425 0 0 1 2.67 25.48
								 a0.87975 0.87975 0 0 1 -0.225 -0.02775 A1.395 1.395 0 0 1 1.6 24.11 L1.6 24.07 L1.56 24.07 L1.54
								 24.08 L1.5 24.1 A1.43025 1.43025 -180 0 0 0.84 25.11 A10.2 10.2 -180 0 0 0.64 26.93 A6.40125 6.40125
								 0 0 1 0.34 28.25 C0.29 28.44 0.23 28.63 0.18 28.82 A2.49975 2.49975 -180 0 0 0.13 30.54 A1.55325
								 1.55325 -180 0 0 1.58 31.47 C1.64 31.47 1.69 31.47 1.74 31.47 A3.1545 3.1545 -180 0 0 3.81 30.26
								 A5.09475 5.09475 0 0 1 5.62 29.02 C5.85 28.91 6.07 28.81 6.25 28.7 C6.6 28.48 6.75 28.3 6.77 28.07
								 A1.92825 1.92825 -180 0 0 6.12 26.89 Z" class="st12"/>
				</g>
				<g id="shape16465-35" v:mID="16465" v:groupContext="shape" transform="translate(0.285948,-0.5325)">
					<title>Sheet.16465</title>
					<path d="M6.12 28 A6.66975 6.66975 0 0 1 5.31 26.85 L5.31 26.84 A10.2397 10.2397 -180 0 0 4.39 25.17 A1.65675
								 1.65675 -180 0 0 3.34 24.41 A1.1205 1.1205 -180 0 0 3.18 24.39 L3.14 24.39 a0.92475 0.92475 -180
								 0 0 -0.66075 0.348 A4.158 4.158 -180 0 0 2.17 25.14 A4.43625 4.43625 0 0 1 1.81 25.59 A1.794 1.794
								 0 0 1 1.06 25.99 L0.92 26.04 A1.11675 1.11675 -180 0 0 0.2 26.59 A1.58625 1.58625 -180 0 0 0.16
								 27.55 C0.16 27.59 0.17 27.63 0.18 27.68 A2.0865 2.0865 0 0 1 0.18 28.65 A1.70175 1.70175 -180 0
								 0 0.06 29.92 C0.17 30.13 0.4 30.26 0.81 30.34 C1.04 30.39 1.3 30.42 1.57 30.45 A5.6325 5.6325 0
								 0 1 3.65 30.96 L3.66 30.96 A4.21125 4.21125 -180 0 0 5.55 31.47 A2.388 2.388 -180 0 0 6.08 31.42
								 A1.36575 1.36575 -180 0 0 7.23 30.08 A2.58675 2.58675 -180 0 0 6.5 28.47 C6.37 28.31 6.24 28.15
								 6.12 28 Z" class="st12"/>
				</g>
				<g id="shape16466-37" v:mID="16466" v:groupContext="shape">
					<title>path4004-2</title>
					<path d="M10.37 7.59 C10.21 7.59 10.05 7.59 9.89 7.61 C5.67 7.95 6.79 12.41 6.72 13.9 A5.39325 5.39325 0 0 1
								 5.67 16.91 A14.9167 14.9167 -180 0 0 2.96 21.43 A5.38575 5.38575 -180 0 0 2.67 23.92 C2.63 23.95
								 2.6 23.99 2.56 24.02 C2.3 24.3 2.11 24.63 1.9 24.86 A2.0625 2.0625 0 0 1 1.1 25.25 A1.425 1.425
								 -180 0 0 0.24 25.92 A1.7835 1.7835 -180 0 0 0.17 27.05 A2.4255 2.4255 0 0 1 0.21 28.02 A1.86975
								 1.86975 -180 0 0 0.1 29.5 A1.2525 1.2525 -180 0 0 1.04 30.08 A9.88575 9.88575 0 0 1 3.81 30.66 L3.88
								 30.52 L3.81 30.66 A3.9345 3.9345 -180 0 0 6.42 31.15 A1.69575 1.69575 -180 0 0 7.63 30.2 C8.21 30.2
								 8.85 29.95 9.88 29.89 C10.58 29.84 11.45 30.14 12.46 30.09 A1.36125 1.36125 -180 0 0 12.57 30.4
								 A1.875 1.875 -180 0 0 14.45 31.47 A3.41025 3.41025 -180 0 0 16.7 30.17 L16.58 30.07 L16.7 30.17
								 C17.33 29.4 18.38 29.08 19.08 28.67 A1.125 1.125 -180 0 0 19.73 27.81 A2.06775 2.06775 -180 0 0
								 19.01 26.44 A2.274 2.274 0 0 1 18.68 25.52 A1.8315 1.8315 -180 0 0 18.19 24.47 A1.24575 1.24575
								 -180 0 0 17.81 24.24 A5.4 5.4 -180 0 0 17.64 20.55 A12.4012 12.4012 -180 0 0 15.46 17.08 C14.67
								 16.07 13.89 15.12 13.9 13.72 C13.93 11.57 14.14 7.59 10.37 7.59 L10.37 7.59 ZM10.88 10.89 a0.951
								 0.951 0 0 1 0.585 0.1995 A1.33425 1.33425 0 0 1 11.9 11.65 A1.77675 1.77675 0 0 1 12.07 12.39 a0.075
								 0.075 -180 0 0 2.00728E-13 0.02025 A1.8 1.8 0 0 1 11.92 13.17 A1.48575 1.48575 0 0 1 11.7 13.53
								 C11.68 13.52 11.65 13.5 11.62 13.49 C11.4 13.4 11.24 13.34 11.1 13.3 a0.81825 0.81825 -180 0 0 0.126
								 -0.21675 A1.15125 1.15125 -180 0 0 11.32 12.66 C11.32 12.66 11.32 12.65 11.32 12.64 A1.1535 1.1535
								 -180 0 0 11.26 12.24 a0.744 0.744 -180 0 0 -0.186 -0.31425 a0.3795 0.3795 -180 0 0 -0.2655 -0.12075
								 L10.79 11.81 a0.3885 0.3885 -180 0 0 -0.25875 0.10275 a0.74175 0.74175 -180 0 0 -0.2085 0.3 A1.1475
								 1.1475 -180 0 0 10.24 12.63 a0.09225 0.09225 -180 0 0 -4.12115E-13 0.01725 A1.23375 1.23375 -180
								 0 0 10.25 12.88 A2.5305 2.5305 -180 0 0 9.71 12.68 A2.1 2.1 0 0 1 9.7 12.46 L9.7 12.43 A1.7715 1.7715
								 0 0 1 9.85 11.67 A1.35 1.35 0 0 1 10.27 11.11 a0.94575 0.94575 0 0 1 0.591 -0.21075 L10.88 10.9
								 L10.88 10.89 ZM7.95 11.12 a0.621 0.621 0 0 1 0.4005 0.15 A1.1655 1.1655 0 0 1 8.69 11.74 A1.81125
								 1.81125 0 0 1 8.84 12.39 A1.9335 1.9335 0 0 1 8.84 12.68 C8.81 12.69 8.78 12.7 8.75 12.71 A1.8 1.8
								 -180 0 0 8.35 12.91 A1.065 1.065 -180 0 0 8.35 12.66 L8.35 12.65 A1.1175 1.1175 -180 0 0 8.27 12.32
								 a0.6345 0.6345 -180 0 0 -0.165 -0.24225 a0.27 0.27 -180 0 0 -0.183 -0.075 L7.9 12 a0.2655 0.2655
								 -180 0 0 -0.1875 0.1095 a0.636 0.636 -180 0 0 -0.12 0.267 A1.0695 1.0695 -180 0 0 7.57 12.73 L7.57
								 12.74 A1.0815 1.0815 -180 0 0 7.65 13.07 a0.62625 0.62625 -180 0 0 0.165 0.2415 C7.83 13.32 7.84
								 13.33 7.85 13.34 C7.78 13.39 7.75 13.42 7.69 13.46 L7.56 13.56 A1.2075 1.2075 0 0 1 7.28 13.15 A1.83375
								 1.83375 0 0 1 7.13 12.5 A1.83 1.83 0 0 1 7.21 11.83 A1.146 1.146 0 0 1 7.49 11.33 a0.615 0.615 0
								 0 1 0.417 -0.201 L7.95 11.13 L7.95 11.12 ZM9.28 12.81 A2.22975 2.22975 0 0 1 10.49 13.22 A7.425
								 7.425 -180 0 0 11.54 13.66 a0.87825 0.87825 0 0 1 0.47775 0.384 a0.555 0.555 0 0 1 0.0135 0.46275
								 A1.62825 1.62825 0 0 1 10.97 15.35 A4.5795 4.5795 -180 0 0 10.2 15.78 A1.73025 1.73025 0 0 1 9.19
								 16.04 A1.245 1.245 0 0 1 8.42 15.74 A4.93425 4.93425 -180 0 0 7.81 15.24 A1.3725 1.3725 0 0 1 7.12
								 14.53 a0.48525 0.48525 0 0 1 0.19425 -0.5685 C7.54 13.79 7.69 13.68 7.8 13.6 A2.1165 2.1165 -180
								 0 0 7.98 13.47 A2.29125 2.29125 0 0 1 8.81 12.88 A1.437 1.437 0 0 1 9.28 12.8 L9.28 12.81 ZM11.59
								 14.17 A1.1655 1.1655 -180 0 0 11.12 14.35 C10.95 14.45 10.75 14.57 10.54 14.69 A2.93775 2.93775
								 0 0 1 9.15 15.17 A1.875 1.875 0 0 1 7.98 14.72 C7.84 14.6 7.72 14.49 7.62 14.4 C7.57 14.35 7.53
								 14.31 7.49 14.28 a0.19875 0.19875 -180 0 0 -0.135 -0.05925 L7.36 14.36 a0.40425 0.40425 0 0 1 -0.0075
								 0.04575 a0.1875 0.1875 0 0 1 0.036 0.021 C7.41 14.45 7.45 14.49 7.5 14.53 C7.6 14.62 7.72 14.74
								 7.88 14.86 A2.05275 2.05275 -180 0 0 9.15 15.35 A3.075 3.075 -180 0 0 10.64 14.85 C10.85 14.73 11.05
								 14.6 11.22 14.51 A1.1325 1.1325 0 0 1 11.61 14.35 L11.59 14.17 L11.59 14.17 ZM12.07 14.82 A24.105
								 24.105 -180 0 0 13.81 19.29 A10.4115 10.4115 0 0 1 14.91 22.3 A1.8525 1.8525 0 0 1 15.42 22.37 C16.06
								 20.7 14.87 18.91 14.33 18.41 C14.11 18.19 14.1 18.1 14.21 18.11 A5.73675 5.73675 0 0 1 15.85 20.86
								 A3.525 3.525 0 0 1 15.87 22.53 C15.94 22.55 16 22.58 16.07 22.62 C17.11 23.12 17.49 23.56 17.3 24.15
								 C17.24 24.15 17.18 24.15 17.13 24.15 L17.11 24.15 C17.26 23.68 16.93 23.33 16.05 22.93 C15.13 22.53
								 14.4 22.57 14.28 23.38 C14.27 23.42 14.26 23.47 14.26 23.51 A1.35 1.35 -180 0 0 14.05 23.6 A1.7325
								 1.7325 -180 0 0 13.26 24.79 A10.2443 10.2443 -180 0 0 13.06 26.65 A7.23225 7.23225 0 0 1 12.74 28
								 A4.6065 4.6065 0 0 1 7.4 28.33 C7.28 28.14 7.14 27.95 7 27.77 C6.91 27.65 6.81 27.53 6.72 27.42
								 A1.113 1.113 -180 0 0 7.18 27.33 a0.5805 0.5805 -180 0 0 0.31725 -0.32775 A1.3155 1.3155 -180 0
								 0 7.15 25.84 A6.318 6.318 -180 0 0 5.37 24.32 A2.52825 2.52825 0 0 1 4.22 22.93 A3.1305 3.1305 0
								 0 1 4.21 21.28 A9.75 9.75 0 0 1 5.48 18.52 C5.58 18.44 5.51 18.67 5.07 19.49 C4.67 20.24 3.93 21.98
								 4.95 23.34 A8.0625 8.0625 0 0 1 5.59 20.47 C6.16 19.19 7.33 16.98 7.43 15.21 C7.48 15.25 7.64 15.36
								 7.72 15.4 A5.37225 5.37225 0 0 1 8.31 15.88 A1.455 1.455 -180 0 0 9.18 16.22 A1.929 1.929 -180 0
								 0 10.28 15.94 A5.1 5.1 0 0 1 11.02 15.52 A1.98675 1.98675 -180 0 0 12.06 14.82 L12.07 14.82 ZM15.01
								 22.94 A1.68525 1.68525 0 0 1 15.67 23.11 C16.34 23.42 16.55 23.69 16.37 24.08 A1.41375 1.41375 0
								 0 1 15.11 24.71 C14.64 24.6 14.42 23.93 14.5 23.43 a0.483 0.483 0 0 1 0.516 -0.48825 ZM14.25 23.86
								 A1.43175 1.43175 -180 0 0 15.13 25.23 A2.184 2.184 -180 0 0 16.93 24.47 C17 24.47 17.07 24.47 17.13
								 24.46 A1.09875 1.09875 0 0 1 17.98 24.71 A1.63125 1.63125 0 0 1 18.37 25.59 A2.325 2.325 -180 0
								 0 18.78 26.65 C19.27 27.19 19.43 27.56 19.41 27.8 C19.4 28.03 19.23 28.21 18.92 28.4 C18.29 28.78
								 17.17 29.11 16.46 29.97 A3.114 3.114 0 0 1 14.43 31.16 A1.52475 1.52475 0 0 1 12.85 30.26 A2.56125
								 2.56125 0 0 1 12.91 28.57 A11.301 11.301 -180 0 0 13.37 26.67 A10.1603 10.1603 0 0 1 13.57 24.87
								 A1.4025 1.4025 0 0 1 14.2 23.89 L14.25 23.86 L14.25 23.86 ZM3.47 23.9 A1.07625 1.07625 0 0 1 3.62
								 23.92 A1.6395 1.6395 0 0 1 4.64 24.67 A10.119 10.119 0 0 1 5.56 26.33 A11.4705 11.4705 -180 0 0
								 6.75 27.96 A2.67225 2.67225 0 0 1 7.47 29.54 L7.47 29.54 A1.32975 1.32975 0 0 1 6.35 30.84 A3.657
								 3.657 0 0 1 3.96 30.38 A9.417 9.417 -180 0 0 1.11 29.77 a0.951 0.951 0 0 1 -0.72 -0.408 A1.62525
								 1.62525 0 0 1 0.51 28.13 L0.51 28.12 A2.451 2.451 -180 0 0 0.48 27.01 A1.575 1.575 0 0 1 0.52 26.07
								 A1.07625 1.07625 0 0 1 1.21 25.55 A2.2125 2.2125 -180 0 0 2.13 25.08 C2.38 24.82 2.57 24.48 2.79
								 24.24 a0.86925 0.86925 0 0 1 0.65925 -0.33525 L3.46 23.91 L3.47 23.9 Z" class="st13"/>
				</g>
			</g>
		</g>
	</g>
</svg>
