<?xml version="1.0" encoding="UTF-8" standalone="no"?>
<!DOCTYPE svg PUBLIC "-//W3C//DTD SVG 1.1//EN" "http://www.w3.org/Graphics/SVG/1.1/DTD/svg11.dtd">
<!-- Generated by Microsoft Visio, SVG Export SharePoint-VM.svg Page-1 -->
<svg xmlns="http://www.w3.org/2000/svg" xmlns:xlink="http://www.w3.org/1999/xlink" xmlns:ev="http://www.w3.org/2001/xml-events"
		xmlns:v="http://schemas.microsoft.com/visio/2003/SVGExtensions/" width="0.626235in" height="0.46224in"
		viewBox="0 0 45.0889 33.2813" xml:space="preserve" color-interpolation-filters="sRGB" class="st15">
	<v:documentProperties v:langID="1033" v:metric="true" v:viewMarkup="false"/>

	<style type="text/css">
	<![CDATA[
		.st1 {fill:#7a7a7a}
		.st2 {stroke:none;stroke-width:0.75}
		.st3 {fill:#a0a1a2}
		.st4 {fill:#ffffff;fill-opacity:0.2;stroke:none;stroke-width:0.75}
		.st5 {fill:#59b4d9;stroke:none;stroke-width:0.75}
		.st6 {fill:#a0a1a2;stroke:none;stroke-width:0.75}
		.st7 {fill:#b8d432;stroke:none;stroke-width:0.75}
		.st8 {fill:#ffffff}
		.st9 {fill:#ffffff;fill-opacity:0.7}
		.st10 {fill:#ffffff;fill-opacity:0.4}
		.st11 {fill:#ffffff;stroke:#ffffff;stroke-width:1.71525}
		.st12 {fill:#ffffff;stroke:none;stroke-width:0.75}
		.st13 {fill:#0072c6}
		.st14 {fill:#0072c6;stroke:none;stroke-width:0.75}
		.st15 {fill:none;fill-rule:evenodd;font-size:12px;overflow:visible;stroke-linecap:square;stroke-miterlimit:3}
	]]>
	</style>

	<g v:mID="0" v:index="1" v:groupContext="foregroundPage">
		<title>Page-1</title>
		<v:pageProperties v:drawingScale="1" v:pageScale="1" v:drawingUnits="0" v:shadowOffsetX="9" v:shadowOffsetY="-9"/>
		<g id="group16433-1" transform="translate(0.750048,-0.75)" v:mID="16433" v:groupContext="group">
			<title>SharePoint VM</title>
			<g id="shape16434-2" v:mID="16434" v:groupContext="shape" transform="translate(4.9815,-5.235)">
				<title>Sheet.16434</title>
				<path d="M13.67 27.75 L5.85 27.75 C6.79 31.07 5.53 31.54 0 31.54 L0 33.28 L18.8 33.28 L18.8 31.55 C13.27 31.55 12.73
							 31.07 13.67 27.75 L13.67 27.75 Z" class="st1"/>
				<path d="M13.67 27.75 L5.85 27.75 C6.79 31.07 5.53 31.54 0 31.54 L0 33.28 L18.8 33.28 L18.8 31.55 C13.27 31.55 12.73
							 31.07 13.67 27.75" class="st2"/>
			</g>
			<g id="shape16435-5" v:mID="16435" v:groupContext="shape" transform="translate(0.00075,-10.7648)">
				<title>Sheet.16435</title>
				<path d="M27.02 12.27 L1.56 12.27 A1.62675 1.62675 -180 0 0 -0 13.9 L0 31.66 A1.61775 1.61775 -180 0 0 1.56 33.28
							 L27.02 33.28 A1.7775 1.7775 -180 0 0 28.76 31.66 L28.76 13.9 A1.7835 1.7835 -180 0 0 27.02 12.26 L27.02
							 12.27 Z" class="st3"/>
				<path d="M27.02 12.27 L1.56 12.27 A1.62675 1.62675 -180 0 0 -0 13.9 L0 31.66 A1.61775 1.61775 -180 0 0 1.56 33.28
							 L27.02 33.28 A1.7775 1.7775 -180 0 0 28.76 31.66 L28.76 13.9 A1.7835 1.7835 -180 0 0 27.02 12.26"
						class="st2"/>
			</g>
			<g id="shape16436-8" v:mID="16436" v:groupContext="shape" transform="translate(-2.79776E-14,-10.7633)">
				<title>Sheet.16436</title>
				<path d="M27.04 12.27 L27.02 12.27 L1.56 12.27 A1.626 1.626 -180 0 0 -0 13.9 L0 31.66 A1.61775 1.61775 -180 0 0 1.56
							 33.28 L2.17 33.28 L27.04 12.27 Z" class="st4"/>
			</g>
			<g id="shape16437-10" v:mID="16437" v:groupContext="shape" transform="translate(2.18025,-12.9773)">
				<title>Sheet.16437</title>
				<path d="M24.34 16.69 L24.34 33.28 L0 33.28 L0 16.69 L24.34 16.69 Z" class="st5"/>
			</g>
			<g id="shape16438-12" v:mID="16438" v:groupContext="shape" transform="translate(2.18025,-12.9773)">
				<title>Sheet.16438</title>
				<path d="M0 33.28 L0.03 33.28 L0.03 16.69 L22.28 16.66 L22.28 16.66 L0 16.69 L0 33.28 Z" class="st5"/>
			</g>
			<g id="shape16439-14" v:mID="16439" v:groupContext="shape" transform="translate(4.9785,-5.235)">
				<title>Sheet.16439</title>
				<rect x="0" y="31.5435" width="18.8047" height="1.73775" class="st6"/>
			</g>
			<g id="shape16440-16" v:mID="16440" v:groupContext="shape" transform="translate(13.9818,-30.2875)">
				<title>Sheet.16440</title>
				<path d="M0.7 32.99 a0.408 0.408 0 1 1 -0.40875 -0.40875 a0.40875 0.40875 0 0 1 0.40875 0.40875 Z" class="st7"/>
			</g>
			<g id="shape16441-18" v:mID="16441" v:groupContext="shape" transform="translate(9.48075,-21.7755)">
				<title>Sheet.16441</title>
				<path d="M5.21 33.28 a0.15975 0.15975 0 0 1 -0.075 -0.02175 L0.07 30.33 a0.156 0.156 0 0 1 -0.075 -0.13275 a0.15
							 0.15 0 0 1 0.075 -0.132 L5.11 27.17 a0.15375 0.15375 0 0 1 0.15 1.42109E-14 L10.32 30.09 a0.15375 0.15375
							 0 0 1 0 0.26475 L5.29 33.26 a0.15525 0.15525 0 0 1 -0.075 0.02175 L5.21 33.28 Z" class="st8"/>
				<path d="M5.21 33.28 a0.15975 0.15975 0 0 1 -0.075 -0.02175 L0.07 30.33 a0.156 0.156 0 0 1 -0.075 -0.13275 a0.15
							 0.15 0 0 1 0.075 -0.132 L5.11 27.17 a0.15375 0.15375 0 0 1 0.15 1.42109E-14 L10.32 30.09 a0.15375 0.15375
							 0 0 1 0 0.26475 L5.29 33.26 a0.15525 0.15525 0 0 1 -0.075 0.02175" class="st2"/>
			</g>
			<g id="shape16442-21" v:mID="16442" v:groupContext="shape" transform="translate(8.76825,-14.6693)">
				<title>Sheet.16442</title>
				<path d="M5.2 33.28 a0.14475 0.14475 0 0 1 -0.075 -0.021 L0.08 30.35 a0.15 0.15 0 0 1 -0.075 -0.13275 L0 24.36 a0.15525
							 0.15525 0 0 1 0.2325 -0.13275 L5.28 27.14 a0.1605 0.1605 0 0 1 0.075 0.13425 L5.36 33.13 a0.156 0.156
							 0 0 1 -0.075 0.13275 a0.16125 0.16125 0 0 1 -0.075 0.021 L5.2 33.28 Z" class="st9"/>
				<path d="M5.2 33.28 a0.14475 0.14475 0 0 1 -0.075 -0.021 L0.08 30.35 a0.15 0.15 0 0 1 -0.075 -0.13275 L0 24.36 a0.15525
							 0.15525 0 0 1 0.2325 -0.13275 L5.28 27.14 a0.1605 0.1605 0 0 1 0.075 0.13425 L5.36 33.13 a0.156 0.156
							 0 0 1 -0.075 0.13275 a0.16125 0.16125 0 0 1 -0.075 0.021" class="st2"/>
			</g>
			<g id="shape16443-24" v:mID="16443" v:groupContext="shape" transform="translate(15.2415,-14.67)">
				<title>Sheet.16443</title>
				<path d="M0.15 33.28 a0.165 0.165 0 0 1 -0.0795 -0.021 a0.156 0.156 0 0 1 -0.075 -0.13275 L0 27.32 a0.159 0.159 0
							 0 1 0.075 -0.13275 L5.12 24.27 a0.15 0.15 0 0 1 0.15 -7.10543E-15 a0.15 0.15 0 0 1 0.075 0.132 L5.35
							 30.21 a0.15 0.15 0 0 1 -0.075 0.13275 L0.23 33.26 a0.13575 0.13575 0 0 1 -0.075 0.021 L0.15 33.28 Z"
						class="st10"/>
				<path d="M0.15 33.28 a0.165 0.165 0 0 1 -0.0795 -0.021 a0.156 0.156 0 0 1 -0.075 -0.13275 L0 27.32 a0.159 0.159 0
							 0 1 0.075 -0.13275 L5.12 24.27 a0.15 0.15 0 0 1 0.15 -7.10543E-15 a0.15 0.15 0 0 1 0.075 0.132 L5.35
							 30.21 a0.15 0.15 0 0 1 -0.075 0.13275 L0.23 33.26 a0.13575 0.13575 0 0 1 -0.075 0.021" class="st2"/>
			</g>
			<g id="shape16444-27" v:mID="16444" v:groupContext="shape" transform="translate(22.7325,-7.45522)">
				<title>Sheet.16444</title>
				<path d="M2.52 24.01 A3.57975 3.57975 -180 0 0 1.96 24.09 A2.805 2.805 -180 0 0 1.47 24.26 A2.23725 2.23725 -180
							 0 0 1.04 24.51 A2.57325 2.57325 -180 0 0 0.67 24.84 A2.5035 2.5035 -180 0 0 0.38 25.24 A2.39025 2.39025
							 -180 0 0 0.17 25.69 A2.793 2.793 -180 0 0 0.04 26.2 A3.819 3.819 -180 0 0 0 26.75 A2.97375 2.97375 -180
							 0 0 0.1 27.51 A2.61225 2.61225 -180 0 0 0.38 28.19 A3.03525 3.03525 -180 0 0 0.87 28.79 A4.176 4.176
							 -180 0 0 1.56 29.31 C1.68 29.38 1.79 29.45 1.89 29.51 C1.98 29.58 2.07 29.64 2.16 29.7 C2.24 29.76 2.31
							 29.81 2.38 29.87 C2.44 29.92 2.49 29.97 2.54 30.02 A1.07925 1.07925 0 0 1 2.69 30.2 A1.0425 1.0425 0
							 0 1 2.8 30.4 a0.9075 0.9075 0 0 1 0.066 0.204 A1.068 1.068 0 0 1 2.88 30.82 A1.1085 1.1085 0 0 1 2.87
							 30.99 a0.795 0.795 0 0 1 -0.04425 0.16275 a0.9 0.9 0 0 1 -0.075 0.1455 a0.759 0.759 0 0 1 -0.10275 0.129
							 a0.72825 0.72825 0 0 1 -0.15375 0.1245 A1.026 1.026 0 0 1 2.31 31.64 A1.185 1.185 0 0 1 2.09 31.68 A1.62
							 1.62 0 0 1 1.84 31.69 A2.09175 2.09175 0 0 1 1.35 31.62 A2.33025 2.33025 0 0 1 0.88 31.43 A2.835 2.835
							 0 0 1 0.44 31.13 A3.42975 3.42975 0 0 1 0.03 30.73 L0.03 32.67 A2.442 2.442 -180 0 0 0.4 32.91 A2.7195
							 2.7195 -180 0 0 0.82 33.08 A3.25875 3.25875 -180 0 0 1.28 33.21 A4.85325 4.85325 -180 0 0 1.8 33.27
							 A4.3185 4.3185 -180 0 0 2.49 33.26 A3.126 3.126 -180 0 0 3.09 33.14 A2.3415 2.3415 -180 0 0 3.6 32.89
							 A2.106 2.106 -180 0 0 4.02 32.53 A2.3775 2.3775 -180 0 0 4.29 32.16 A2.325 2.325 -180 0 0 4.48 31.73
							 A2.73075 2.73075 -180 0 0 4.6 31.24 A3.7035 3.7035 -180 0 0 4.64 30.69 A3.315 3.315 -180 0 0 4.6 30.22
							 A2.7405 2.7405 -180 0 0 4.51 29.78 A2.364 2.364 -180 0 0 4.12 29.02 A2.65425 2.65425 -180 0 0 3.87 28.74
							 A3.843 3.843 -180 0 0 3.55 28.46 C3.44 28.36 3.31 28.27 3.17 28.18 C3.03 28.08 2.88 27.99 2.72 27.89
							 C2.61 27.83 2.51 27.77 2.42 27.71 C2.32 27.65 2.25 27.6 2.18 27.54 C2.11 27.49 2.04 27.44 1.99 27.39
							 A1.24725 1.24725 0 0 1 1.85 27.25 a0.825 0.825 0 0 1 -0.10125 -0.15 a0.99 0.99 0 0 1 -0.075 -0.1665
							 A1.32675 1.32675 0 0 1 1.63 26.75 A1.362 1.362 0 0 1 1.62 26.54 A1.05 1.05 0 0 1 1.63 26.35 a0.9 0.9
							 0 0 1 0.0495 -0.174 a0.79125 0.79125 0 0 1 0.0825 -0.156 a0.8355 0.8355 0 0 1 0.11775 -0.1395 a0.9 0.9
							 0 0 1 0.15 -0.11475 a0.9885 0.9885 0 0 1 0.16875 -0.084 A1.21425 1.21425 0 0 1 2.4 25.63 A1.3695 1.3695
							 0 0 1 2.61 25.61 A2.727 2.727 0 0 1 3.07 25.62 A2.5575 2.5575 0 0 1 3.5 25.73 A2.33625 2.33625 0 0 1
							 3.91 25.91 A2.9865 2.9865 0 0 1 4.3 26.18 L4.3 24.25 A2.66025 2.66025 -180 0 0 3.92 24.12 A3.1065 3.1065
							 -180 0 0 3.49 24.04 A4.63275 4.63275 -180 0 0 3.03 24 C2.86 24 2.7 24 2.52 24.01 L2.52 24.01 Z"
						class="st8"/>
				<path d="M2.52 24.01 A3.57975 3.57975 -180 0 0 1.96 24.09 A2.805 2.805 -180 0 0 1.47 24.26 A2.23725 2.23725 -180
							 0 0 1.04 24.51 A2.57325 2.57325 -180 0 0 0.67 24.84 A2.5035 2.5035 -180 0 0 0.38 25.24 A2.39025 2.39025
							 -180 0 0 0.17 25.69 A2.793 2.793 -180 0 0 0.04 26.2 A3.819 3.819 -180 0 0 0 26.75 A2.97375 2.97375 -180
							 0 0 0.1 27.51 A2.61225 2.61225 -180 0 0 0.38 28.19 A3.03525 3.03525 -180 0 0 0.87 28.79 A4.176 4.176
							 -180 0 0 1.56 29.31 C1.68 29.38 1.79 29.45 1.89 29.51 C1.98 29.58 2.07 29.64 2.16 29.7 C2.24 29.76 2.31
							 29.81 2.38 29.87 C2.44 29.92 2.49 29.97 2.54 30.02 A1.07925 1.07925 0 0 1 2.69 30.2 A1.0425 1.0425 0
							 0 1 2.8 30.4 a0.9075 0.9075 0 0 1 0.066 0.204 A1.068 1.068 0 0 1 2.88 30.82 A1.1085 1.1085 0 0 1 2.87
							 30.99 a0.795 0.795 0 0 1 -0.04425 0.16275 a0.9 0.9 0 0 1 -0.075 0.1455 a0.759 0.759 0 0 1 -0.10275 0.129
							 a0.72825 0.72825 0 0 1 -0.15375 0.1245 A1.026 1.026 0 0 1 2.31 31.64 A1.185 1.185 0 0 1 2.09 31.68 A1.62
							 1.62 0 0 1 1.84 31.69 A2.09175 2.09175 0 0 1 1.35 31.62 A2.33025 2.33025 0 0 1 0.88 31.43 A2.835 2.835
							 0 0 1 0.44 31.13 A3.42975 3.42975 0 0 1 0.03 30.73 L0.03 32.67 A2.442 2.442 -180 0 0 0.4 32.91 A2.7195
							 2.7195 -180 0 0 0.82 33.08 A3.25875 3.25875 -180 0 0 1.28 33.21 A4.85325 4.85325 -180 0 0 1.8 33.27
							 A4.3185 4.3185 -180 0 0 2.49 33.26 A3.126 3.126 -180 0 0 3.09 33.14 A2.3415 2.3415 -180 0 0 3.6 32.89
							 A2.106 2.106 -180 0 0 4.02 32.53 A2.3775 2.3775 -180 0 0 4.29 32.16 A2.325 2.325 -180 0 0 4.48 31.73
							 A2.73075 2.73075 -180 0 0 4.6 31.24 A3.7035 3.7035 -180 0 0 4.64 30.69 A3.315 3.315 -180 0 0 4.6 30.22
							 A2.7405 2.7405 -180 0 0 4.51 29.78 A2.364 2.364 -180 0 0 4.12 29.02 A2.65425 2.65425 -180 0 0 3.87 28.74
							 A3.843 3.843 -180 0 0 3.55 28.46 C3.44 28.36 3.31 28.27 3.17 28.18 C3.03 28.08 2.88 27.99 2.72 27.89
							 C2.61 27.83 2.51 27.77 2.42 27.71 C2.32 27.65 2.25 27.6 2.18 27.54 C2.11 27.49 2.04 27.44 1.99 27.39
							 A1.24725 1.24725 0 0 1 1.85 27.25 a0.825 0.825 0 0 1 -0.10125 -0.15 a0.99 0.99 0 0 1 -0.075 -0.1665
							 A1.32675 1.32675 0 0 1 1.63 26.75 A1.362 1.362 0 0 1 1.62 26.54 A1.05 1.05 0 0 1 1.63 26.35 a0.9 0.9
							 0 0 1 0.0495 -0.174 a0.79125 0.79125 0 0 1 0.0825 -0.156 a0.8355 0.8355 0 0 1 0.11775 -0.1395 a0.9 0.9
							 0 0 1 0.15 -0.11475 a0.9885 0.9885 0 0 1 0.16875 -0.084 A1.21425 1.21425 0 0 1 2.4 25.63 A1.3695 1.3695
							 0 0 1 2.61 25.61 A2.727 2.727 0 0 1 3.07 25.62 A2.5575 2.5575 0 0 1 3.5 25.73 A2.33625 2.33625 0 0 1
							 3.91 25.91 A2.9865 2.9865 0 0 1 4.3 26.18 L4.3 24.25 A2.66025 2.66025 -180 0 0 3.92 24.12 A3.1065 3.1065
							 -180 0 0 3.49 24.04 A4.63275 4.63275 -180 0 0 3.03 24 C2.86 24 2.7 24 2.52 24.01" class="st2"/>
			</g>
			<g id="shape16445-30" v:mID="16445" v:groupContext="shape" transform="translate(28.9299,-4.11471)">
				<title>Sheet.16445</title>
				<path d="M7.35 20.96 A2.12775 2.12775 0 0 1 4.17 20.96 A4.6365 4.6365 -180 0 0 4.17 29.64 A2.13 2.13 0 0 1 7.35 29.64
							 A4.6155 4.6155 -180 0 0 10.06 26.9 A2.1675 2.1675 0 0 1 10.06 23.71 A4.644 4.644 -180 0 0 7.35 20.96
							 ZM11.52 27.49 A2.34225 2.34225 0 0 1 11.1 27.44 A5.7975 5.7975 0 0 1 7.88 30.7 A2.1 2.1 0 0 1 7.92 31.11
							 A2.1615 2.1615 0 1 1 3.64 30.7 A5.8215 5.8215 0 0 1 3.64 19.91 A2.22975 2.22975 0 0 1 3.6 19.51 A2.1615
							 2.1615 0 1 1 7.92 19.51 A2.00175 2.00175 0 0 1 7.88 19.92 A5.81625 5.81625 0 0 1 11.11 23.18 A2.2125
							 2.2125 0 0 1 11.52 23.13 A2.17687 2.17688 0 1 1 11.52 27.49 L11.52 27.49 Z" class="st11"/>
			</g>
			<g id="shape16446-32" v:mID="16446" v:groupContext="shape" transform="translate(18.1065,2.13163E-14)">
				<title>Sheet.16446</title>
				<path d="M14.92 33.28 L0 30.77 L0 11.71 L14.91 9.2 L14.92 33.28 Z" class="st12"/>
			</g>
			<g id="shape16447-34" v:mID="16447" v:groupContext="shape" transform="translate(18.9705,-1.07175)">
				<title>Sheet.16447</title>
				<path d="M13.12 33.28 L0 30.99 L0 13.56 L13.12 11.27 L13.12 33.28 ZM6.24 17.65 A3.53475 3.53475 -180 0 0 5.68 17.73
							 A2.763 2.763 -180 0 0 5.19 17.9 A2.22 2.22 -180 0 0 4.76 18.15 A2.5695 2.5695 -180 0 0 4.39 18.49 A2.4705
							 2.4705 -180 0 0 4.09 18.88 A2.325 2.325 -180 0 0 3.89 19.33 A2.74575 2.74575 -180 0 0 3.76 19.84 A3.81075
							 3.81075 -180 0 0 3.72 20.39 A2.97225 2.97225 -180 0 0 3.82 21.15 A2.61375 2.61375 -180 0 0 4.1 21.82
							 A3.03225 3.03225 -180 0 0 4.59 22.42 A4.125 4.125 -180 0 0 5.28 22.95 C5.4 23.02 5.51 23.09 5.6 23.15
							 C5.7 23.21 5.79 23.28 5.88 23.33 C5.96 23.39 6.03 23.45 6.09 23.5 C6.16 23.55 6.21 23.61 6.26 23.65
							 A1.1745 1.1745 0 0 1 6.41 23.84 A1.01175 1.01175 0 0 1 6.51 24.03 a0.88875 0.88875 0 0 1 0.066 0.204
							 A1.0305 1.0305 0 0 1 6.6 24.45 A1.1115 1.1115 0 0 1 6.59 24.63 a0.79425 0.79425 0 0 1 -0.0435 0.162
							 a0.879 0.879 0 0 1 -0.075 0.1455 a0.771 0.771 0 0 1 -0.10275 0.12975 a0.7455 0.7455 0 0 1 -0.15375 0.12375
							 a0.96825 0.96825 0 0 1 -0.18525 0.08475 A1.164 1.164 0 0 1 5.81 25.32 A1.61175 1.61175 0 0 1 5.56 25.33
							 A2.163 2.163 0 0 1 5.06 25.25 A2.319 2.319 0 0 1 4.6 25.07 A2.75175 2.75175 0 0 1 4.16 24.77 A3.41325
							 3.41325 0 0 1 3.75 24.37 L3.75 26.31 A2.44875 2.44875 -180 0 0 4.12 26.54 A2.7255 2.7255 -180 0 0 4.53
							 26.72 A3.2745 3.2745 -180 0 0 5 26.84 A4.82625 4.82625 -180 0 0 5.52 26.9 A4.30275 4.30275 -180 0 0
							 6.2 26.9 A3.14175 3.14175 -180 0 0 6.8 26.77 A2.34375 2.34375 -180 0 0 7.32 26.52 A2.09325 2.09325 -180
							 0 0 7.74 26.16 A2.361 2.361 -180 0 0 8.01 25.79 A2.391 2.391 -180 0 0 8.2 25.36 A2.775 2.775 -180 0
							 0 8.31 24.87 A3.732 3.732 -180 0 0 8.35 24.32 A3.2865 3.2865 -180 0 0 8.32 23.85 A2.6775 2.6775 -180
							 0 0 8.22 23.42 A2.51475 2.51475 -180 0 0 8.06 23.02 A2.4885 2.4885 -180 0 0 7.84 22.66 A2.565 2.565
							 -180 0 0 7.59 22.38 A3.75 3.75 -180 0 0 7.27 22.1 C7.15 22 7.03 21.91 6.89 21.81 C6.75 21.72 6.6 21.62
							 6.44 21.53 C6.33 21.47 6.23 21.4 6.14 21.35 C6.04 21.29 5.97 21.23 5.89 21.18 C5.82 21.13 5.76 21.08
							 5.71 21.03 A1.22325 1.22325 0 0 1 5.57 20.89 a0.80925 0.80925 0 0 1 -0.1005 -0.15 a0.96 0.96 0 0 1 -0.075
							 -0.1665 A1.53825 1.53825 0 0 1 5.35 20.39 A1.401 1.401 0 0 1 5.33 20.18 A1.06725 1.06725 0 0 1 5.35
							 19.99 a0.9 0.9 0 0 1 0.0495 -0.174 a0.7935 0.7935 0 0 1 0.0825 -0.156 a0.84675 0.84675 0 0 1 0.117 -0.14025
							 a0.92625 0.92625 0 0 1 0.15 -0.114 a0.99975 0.99975 0 0 1 0.16875 -0.08475 A1.23225 1.23225 0 0 1 6.12
							 19.27 A1.3365 1.3365 0 0 1 6.33 19.24 A2.72175 2.72175 0 0 1 6.79 19.26 A2.5095 2.5095 0 0 1 7.22 19.36
							 A2.331 2.331 0 0 1 7.63 19.55 A3.0075 3.0075 0 0 1 8.02 19.82 L8.02 17.89 A2.68275 2.68275 -180 0 0
							 7.63 17.76 A3.09825 3.09825 -180 0 0 7.21 17.68 A4.6275 4.6275 -180 0 0 6.74 17.64 C6.58 17.64 6.41
							 17.64 6.24 17.65 L6.24 17.65 Z" class="st13"/>
				<path d="M13.12 33.28 L0 30.99 L0 13.56 L13.12 11.27 L13.12 33.28M6.24 17.65 A3.53475 3.53475 -180 0 0 5.68 17.73
							 A2.763 2.763 -180 0 0 5.19 17.9 A2.22 2.22 -180 0 0 4.76 18.15 A2.5695 2.5695 -180 0 0 4.39 18.49 A2.4705
							 2.4705 -180 0 0 4.09 18.88 A2.325 2.325 -180 0 0 3.89 19.33 A2.74575 2.74575 -180 0 0 3.76 19.84 A3.81075
							 3.81075 -180 0 0 3.72 20.39 A2.97225 2.97225 -180 0 0 3.82 21.15 A2.61375 2.61375 -180 0 0 4.1 21.82
							 A3.03225 3.03225 -180 0 0 4.59 22.42 A4.125 4.125 -180 0 0 5.28 22.95 C5.4 23.02 5.51 23.09 5.6 23.15
							 C5.7 23.21 5.79 23.28 5.88 23.33 C5.96 23.39 6.03 23.45 6.09 23.5 C6.16 23.55 6.21 23.61 6.26 23.65
							 A1.1745 1.1745 0 0 1 6.41 23.84 A1.01175 1.01175 0 0 1 6.51 24.03 a0.88875 0.88875 0 0 1 0.066 0.204
							 A1.0305 1.0305 0 0 1 6.6 24.45 A1.1115 1.1115 0 0 1 6.59 24.63 a0.79425 0.79425 0 0 1 -0.0435 0.162
							 a0.879 0.879 0 0 1 -0.075 0.1455 a0.771 0.771 0 0 1 -0.10275 0.12975 a0.7455 0.7455 0 0 1 -0.15375 0.12375
							 a0.96825 0.96825 0 0 1 -0.18525 0.08475 A1.164 1.164 0 0 1 5.81 25.32 A1.61175 1.61175 0 0 1 5.56 25.33
							 A2.163 2.163 0 0 1 5.06 25.25 A2.319 2.319 0 0 1 4.6 25.07 A2.75175 2.75175 0 0 1 4.16 24.77 A3.41325
							 3.41325 0 0 1 3.75 24.37 L3.75 26.31 A2.44875 2.44875 -180 0 0 4.12 26.54 A2.7255 2.7255 -180 0 0 4.53
							 26.72 A3.2745 3.2745 -180 0 0 5 26.84 A4.82625 4.82625 -180 0 0 5.52 26.9 A4.30275 4.30275 -180 0 0
							 6.2 26.9 A3.14175 3.14175 -180 0 0 6.8 26.77 A2.34375 2.34375 -180 0 0 7.32 26.52 A2.09325 2.09325 -180
							 0 0 7.74 26.16 A2.361 2.361 -180 0 0 8.01 25.79 A2.391 2.391 -180 0 0 8.2 25.36 A2.775 2.775 -180 0
							 0 8.31 24.87 A3.732 3.732 -180 0 0 8.35 24.32 A3.2865 3.2865 -180 0 0 8.32 23.85 A2.6775 2.6775 -180
							 0 0 8.22 23.42 A2.51475 2.51475 -180 0 0 8.06 23.02 A2.4885 2.4885 -180 0 0 7.84 22.66 A2.565 2.565
							 -180 0 0 7.59 22.38 A3.75 3.75 -180 0 0 7.27 22.1 C7.15 22 7.03 21.91 6.89 21.81 C6.75 21.72 6.6 21.62
							 6.44 21.53 C6.33 21.47 6.23 21.4 6.14 21.35 C6.04 21.29 5.97 21.23 5.89 21.18 C5.82 21.13 5.76 21.08
							 5.71 21.03 A1.22325 1.22325 0 0 1 5.57 20.89 a0.80925 0.80925 0 0 1 -0.1005 -0.15 a0.96 0.96 0 0 1 -0.075
							 -0.1665 A1.53825 1.53825 0 0 1 5.35 20.39 A1.401 1.401 0 0 1 5.33 20.18 A1.06725 1.06725 0 0 1 5.35
							 19.99 a0.9 0.9 0 0 1 0.0495 -0.174 a0.7935 0.7935 0 0 1 0.0825 -0.156 a0.84675 0.84675 0 0 1 0.117 -0.14025
							 a0.92625 0.92625 0 0 1 0.15 -0.114 a0.99975 0.99975 0 0 1 0.16875 -0.08475 A1.23225 1.23225 0 0 1 6.12
							 19.27 A1.3365 1.3365 0 0 1 6.33 19.24 A2.72175 2.72175 0 0 1 6.79 19.26 A2.5095 2.5095 0 0 1 7.22 19.36
							 A2.331 2.331 0 0 1 7.63 19.55 A3.0075 3.0075 0 0 1 8.02 19.82 L8.02 17.89 A2.68275 2.68275 -180 0 0
							 7.63 17.76 A3.09825 3.09825 -180 0 0 7.21 17.68 A4.6275 4.6275 -180 0 0 6.74 17.64 C6.58 17.64 6.41
							 17.64 6.24 17.65" class="st2"/>
			</g>
			<g id="shape16448-37" v:mID="16448" v:groupContext="shape" transform="translate(33.0727,-4.25684)">
				<title>Sheet.16448</title>
				<path d="M7.3 23.3 A2.2155 2.2155 -180 0 0 6.88 23.34 A5.805 5.805 -180 0 0 3.66 20.09 A2.00775 2.00775 -180 0 0
							 3.7 19.68 A2.154 2.154 -180 0 0 0 18.16 L0 21.18 A2.1195 2.1195 -180 0 0 3.14 21.13 A4.641 4.641 0 0
							 1 5.84 23.88 A2.1645 2.1645 -180 0 0 5.84 27.07 A4.60725 4.60725 0 0 1 3.13 29.8 A2.12175 2.12175 -180
							 0 0 0 29.76 L0 32.79 A2.154 2.154 -180 0 0 3.7 31.27 A2.1 2.1 -180 0 0 3.66 30.85 A5.78775 5.78775 -180
							 0 0 6.88 27.6 A2.27775 2.27775 -180 0 0 7.29 27.65 A2.175 2.175 -180 0 0 7.29 23.3 L7.3 23.3 Z"
						class="st14"/>
			</g>
		</g>
	</g>
</svg>
