<?xml version="1.0" encoding="UTF-8" standalone="no"?>
<!DOCTYPE svg PUBLIC "-//W3C//DTD SVG 1.1//EN" "http://www.w3.org/Graphics/SVG/1.1/DTD/svg11.dtd">
<!-- Generated by Microsoft Visio, SVG Export SQL-Server-VM.svg Page-1 -->
<svg xmlns="http://www.w3.org/2000/svg" xmlns:xlink="http://www.w3.org/1999/xlink" xmlns:ev="http://www.w3.org/2001/xml-events"
		xmlns:v="http://schemas.microsoft.com/visio/2003/SVGExtensions/" width="0.508365in" height="0.439365in"
		viewBox="0 0 36.6023 31.6342" xml:space="preserve" color-interpolation-filters="sRGB" class="st16">
	<v:documentProperties v:langID="1033" v:metric="true" v:viewMarkup="false"/>

	<style type="text/css">
	<![CDATA[
		.st1 {fill:#7a7a7a}
		.st2 {stroke:none;stroke-width:0.75}
		.st3 {fill:#a0a1a2}
		.st4 {fill:#ffffff;fill-opacity:0.2;stroke:none;stroke-width:0.75}
		.st5 {fill:#59b4d9;stroke:none;stroke-width:0.75}
		.st6 {fill:#a0a1a2;stroke:none;stroke-width:0.75}
		.st7 {fill:#b8d432;stroke:none;stroke-width:0.75}
		.st8 {fill:#ffffff}
		.st9 {fill:#ffffff;fill-opacity:0.7}
		.st10 {fill:#ffffff;fill-opacity:0.4}
		.st11 {fill:#0072c6;stroke:none;stroke-width:0.75}
		.st12 {fill:#ffffff;fill-opacity:0.15;stroke:none;stroke-width:0.75}
		.st13 {fill:#ffffff;stroke:none;stroke-width:0.75}
		.st14 {fill:#7fba00;stroke:none;stroke-width:0.75}
		.st15 {fill:#b8d432}
		.st16 {fill:none;fill-rule:evenodd;font-size:12px;overflow:visible;stroke-linecap:square;stroke-miterlimit:3}
	]]>
	</style>

	<g v:mID="0" v:index="1" v:groupContext="foregroundPage">
		<title>Page-1</title>
		<v:pageProperties v:drawingScale="1" v:pageScale="1" v:drawingUnits="0" v:shadowOffsetX="9" v:shadowOffsetY="-9"/>
		<g id="group16483-1" transform="translate(0.750048,-0.75)" v:mID="16483" v:groupContext="group">
			<title>SQL Server VM</title>
			<g id="shape16484-2" v:mID="16484" v:groupContext="shape" transform="translate(4.9815,-3.5895)">
				<title>Sheet.16484</title>
				<path d="M13.67 26.1 L5.85 26.1 C6.79 29.42 5.53 29.9 0 29.9 L0 31.63 L18.8 31.63 L18.8 29.9 C13.27 29.9 12.73 29.42
							 13.67 26.1 L13.67 26.1 Z" class="st1"/>
				<path d="M13.67 26.1 L5.85 26.1 C6.79 29.42 5.53 29.9 0 29.9 L0 31.63 L18.8 31.63 L18.8 29.9 C13.27 29.9 12.73 29.42
							 13.67 26.1" class="st2"/>
			</g>
			<g id="shape16485-5" v:mID="16485" v:groupContext="shape" transform="translate(0.00075,-9.1185)">
				<title>Sheet.16485</title>
				<path d="M27.02 10.62 L1.56 10.62 A1.62675 1.62675 -180 0 0 0 12.26 L0 30.01 A1.61775 1.61775 -180 0 0 1.56 31.63
							 L27.02 31.63 A1.7775 1.7775 -180 0 0 28.76 30.01 L28.76 12.26 A1.7835 1.7835 -180 0 0 27.02 10.62 L27.02
							 10.62 Z" class="st3"/>
				<path d="M27.02 10.62 L1.56 10.62 A1.62675 1.62675 -180 0 0 0 12.26 L0 30.01 A1.61775 1.61775 -180 0 0 1.56 31.63
							 L27.02 31.63 A1.7775 1.7775 -180 0 0 28.76 30.01 L28.76 12.26 A1.7835 1.7835 -180 0 0 27.02 10.62"
						class="st2"/>
			</g>
			<g id="shape16486-8" v:mID="16486" v:groupContext="shape" transform="translate(0,-9.117)">
				<title>Sheet.16486</title>
				<path d="M27.04 10.62 L27.02 10.62 L1.56 10.62 A1.626 1.626 -180 0 0 0 12.26 L0 30.01 A1.61775 1.61775 -180 0 0 1.56
							 31.63 L2.17 31.63 L27.04 10.62 Z" class="st4"/>
			</g>
			<g id="shape16487-10" v:mID="16487" v:groupContext="shape" transform="translate(2.18025,-11.331)">
				<title>Sheet.16487</title>
				<path d="M24.34 15.04 L24.34 31.63 L0 31.63 L0 15.04 L24.34 15.04 Z" class="st5"/>
			</g>
			<g id="shape16488-12" v:mID="16488" v:groupContext="shape" transform="translate(2.18025,-11.331)">
				<title>Sheet.16488</title>
				<path d="M0 31.63 L0.03 31.63 L0.03 15.04 L22.28 15.01 L22.28 15.01 L0 15.04 L0 31.63 Z" class="st5"/>
			</g>
			<g id="shape16489-14" v:mID="16489" v:groupContext="shape" transform="translate(4.9785,-3.58875)">
				<title>Sheet.16489</title>
				<rect x="0" y="29.8965" width="18.8047" height="1.73775" class="st6"/>
			</g>
			<g id="shape16490-16" v:mID="16490" v:groupContext="shape" transform="translate(13.9818,-28.6413)">
				<title>Sheet.16490</title>
				<path d="M0.7 31.35 a0.408 0.408 0 1 1 -0.40875 -0.40875 a0.40875 0.40875 0 0 1 0.40875 0.40875 Z" class="st7"/>
			</g>
			<g id="shape16491-18" v:mID="16491" v:groupContext="shape" transform="translate(9.48075,-20.1292)">
				<title>Sheet.16491</title>
				<path d="M5.21 31.63 a0.15975 0.15975 0 0 1 -0.075 -0.02175 L0.07 28.69 a0.156 0.156 0 0 1 -0.075 -0.13275 a0.15
							 0.15 0 0 1 0.075 -0.132 L5.11 25.52 a0.15375 0.15375 0 0 1 0.15 -1.06581E-14 L10.32 28.44 a0.15375 0.15375
							 0 0 1 1.42109E-14 0.26475 L5.29 31.61 a0.15525 0.15525 0 0 1 -0.075 0.02175 L5.21 31.63 Z" class="st8"/>
				<path d="M5.21 31.63 a0.15975 0.15975 0 0 1 -0.075 -0.02175 L0.07 28.69 a0.156 0.156 0 0 1 -0.075 -0.13275 a0.15
							 0.15 0 0 1 0.075 -0.132 L5.11 25.52 a0.15375 0.15375 0 0 1 0.15 -1.06581E-14 L10.32 28.44 a0.15375 0.15375
							 0 0 1 1.42109E-14 0.26475 L5.29 31.61 a0.15525 0.15525 0 0 1 -0.075 0.02175" class="st2"/>
			</g>
			<g id="shape16492-21" v:mID="16492" v:groupContext="shape" transform="translate(8.76825,-13.0245)">
				<title>Sheet.16492</title>
				<path d="M5.2 31.63 a0.14475 0.14475 0 0 1 -0.075 -0.021 L0.07 28.7 a0.15 0.15 0 0 1 -0.075 -0.13275 L0 22.72 a0.15525
							 0.15525 0 0 1 0.2325 -0.13275 L5.28 25.5 a0.1605 0.1605 0 0 1 0.075 0.13425 L5.36 31.48 a0.156 0.156
							 0 0 1 -0.075 0.13275 a0.16125 0.16125 0 0 1 -0.075 0.021 L5.2 31.63 Z" class="st9"/>
				<path d="M5.2 31.63 a0.14475 0.14475 0 0 1 -0.075 -0.021 L0.07 28.7 a0.15 0.15 0 0 1 -0.075 -0.13275 L0 22.72 a0.15525
							 0.15525 0 0 1 0.2325 -0.13275 L5.28 25.5 a0.1605 0.1605 0 0 1 0.075 0.13425 L5.36 31.48 a0.156 0.156
							 0 0 1 -0.075 0.13275 a0.16125 0.16125 0 0 1 -0.075 0.021" class="st2"/>
			</g>
			<g id="shape16493-24" v:mID="16493" v:groupContext="shape" transform="translate(15.2415,-13.0252)">
				<title>Sheet.16493</title>
				<path d="M0.15 31.63 a0.165 0.165 0 0 1 -0.0795 -0.021 a0.156 0.156 0 0 1 -0.075 -0.13275 L0 25.67 a0.159 0.159 0
							 0 1 0.075 -0.13275 L5.12 22.62 a0.15 0.15 0 0 1 0.15 -3.19744E-14 a0.15 0.15 0 0 1 0.075 0.132 L5.35
							 28.57 a0.15 0.15 0 0 1 -0.075 0.13275 L0.23 31.61 a0.13575 0.13575 0 0 1 -0.075 0.021 L0.15 31.63 Z"
						class="st10"/>
				<path d="M0.15 31.63 a0.165 0.165 0 0 1 -0.0795 -0.021 a0.156 0.156 0 0 1 -0.075 -0.13275 L0 25.67 a0.159 0.159 0
							 0 1 0.075 -0.13275 L5.12 22.62 a0.15 0.15 0 0 1 0.15 -3.19744E-14 a0.15 0.15 0 0 1 0.075 0.132 L5.35
							 28.57 a0.15 0.15 0 0 1 -0.075 0.13275 L0.23 31.61 a0.13575 0.13575 0 0 1 -0.075 0.021" class="st2"/>
			</g>
			<g id="shape16494-27" v:mID="16494" v:groupContext="shape" transform="translate(18.4995,-3.19744E-14)">
				<title>Sheet.16494</title>
				<path d="M0 12.63 L0 28.63 C0 30.29 3.72 31.63 8.3 31.63 L8.3 12.63 L0 12.63 Z" class="st11"/>
			</g>
			<g id="shape16495-29" v:mID="16495" v:groupContext="shape" transform="translate(26.6873,-0.00075)">
				<title>Sheet.16495</title>
				<path d="M0 31.63 L0.11 31.63 C4.7 31.63 8.42 30.29 8.42 28.63 L8.42 12.63 L0 12.63 L0 31.63 Z" class="st11"/>
			</g>
			<g id="shape16496-31" v:mID="16496" v:groupContext="shape" transform="translate(26.6873,-0.00075)">
				<title>Sheet.16496</title>
				<path d="M0 31.63 L0.11 31.63 C4.7 31.63 8.42 30.29 8.42 28.63 L8.42 12.63 L0 12.63 L0 31.63 Z" class="st12"/>
			</g>
			<g id="shape16497-33" v:mID="16497" v:groupContext="shape" transform="translate(18.5003,-15.9945)">
				<title>Sheet.16497</title>
				<path d="M16.6 28.63 C16.6 30.29 12.88 31.63 8.3 31.63 C3.72 31.63 0 30.29 0 28.63 C0 26.97 3.72 25.62 8.3 25.62
							 C12.88 25.62 16.6 26.97 16.6 28.63 Z" class="st13"/>
			</g>
			<g id="shape16498-35" v:mID="16498" v:groupContext="shape" transform="translate(20.1968,-17.1915)">
				<title>Sheet.16498</title>
				<path d="M13.21 29.65 C13.21 30.75 10.25 31.63 6.6 31.63 C2.96 31.63 0 30.75 0 29.65 C0 28.55 2.96 27.67 6.6 27.67
							 C10.25 27.67 13.21 28.55 13.21 29.65 Z" class="st14"/>
			</g>
			<g id="shape16499-37" v:mID="16499" v:groupContext="shape" transform="translate(20.1968,-17.9618)">
				<title>Sheet.16499</title>
				<path d="M11.82 31.63 C12.69 31.3 13.21 30.88 13.21 30.42 C13.21 29.33 10.25 28.44 6.6 28.44 C2.96 28.44 0 29.33
							 0 30.42 C0 30.88 0.52 31.3 1.38 31.63 A18.0555 18.0555 0 0 1 11.82 31.63 L11.82 31.63 Z" class="st15"/>
				<path d="M11.82 31.63 C12.69 31.3 13.21 30.88 13.21 30.42 C13.21 29.33 10.25 28.44 6.6 28.44 C2.96 28.44 0 29.33
							 0 30.42 C0 30.88 0.52 31.3 1.38 31.63 A18.0555 18.0555 0 0 1 11.82 31.63" class="st2"/>
			</g>
			<g id="shape16500-40" v:mID="16500" v:groupContext="shape" transform="translate(20.7503,-6.3345)">
				<title>Sheet.16500</title>
				<path d="M3.41 30.07 A1.3635 1.3635 0 0 1 2.87 31.22 A2.42475 2.42475 0 0 1 1.38 31.63 A2.84175 2.84175 0 0 1 0.02
							 31.34 L0.02 30.17 A2.09175 2.09175 -180 0 0 1.41 30.71 a0.942 0.942 -180 0 0 0.56475 -0.14625 a0.4575
							 0.4575 -180 0 0 0.1995 -0.38775 a0.54225 0.54225 -180 0 0 -0.192 -0.4125 A3.525 3.525 -180 0 0 1.2 29.31
							 A1.719 1.719 0 0 1 0 27.78 A1.38525 1.38525 0 0 1 0.53 26.64 A2.1315 2.1315 0 0 1 1.91 26.22 A3.468
							 3.468 0 0 1 3.19 26.42 L3.19 27.51 A2.07225 2.07225 -180 0 0 1.98 27.15 a0.8925 0.8925 -180 0 0 -0.537
							 0.144 a0.4545 0.4545 -180 0 0 -0.19725 0.3855 a0.5505 0.5505 -180 0 0 0.159 0.40725 A2.571 2.571 -180
							 0 0 2.06 28.48 A3.23025 3.23025 0 0 1 3.11 29.18 A1.31325 1.31325 0 0 1 3.41 30.07 Z" class="st13"/>
			</g>
			<g id="shape16501-42" v:mID="16501" v:groupContext="shape" transform="translate(24.6683,-5.11875)">
				<title>Sheet.16501</title>
				<path d="M5.13 27.67 A2.98875 2.98875 0 0 1 4.71 29.27 A2.2425 2.2425 0 0 1 3.53 30.23 L5.05 31.63 L3.51 31.63 L2.43
							 30.42 A2.544 2.544 0 0 1 1.17 30.05 A2.31225 2.31225 0 0 1 0.31 29.11 A2.88675 2.88675 0 0 1 0 27.78
							 A3.1125 3.1125 0 0 1 0.33 26.32 A2.34825 2.34825 0 0 1 1.26 25.34 A2.7165 2.7165 0 0 1 2.63 25 A2.5275
							 2.5275 0 0 1 3.93 25.33 A2.268 2.268 0 0 1 4.81 26.28 A2.99025 2.99025 0 0 1 5.13 27.67 ZM3.89 27.74
							 A2.04975 2.04975 -180 0 0 3.54 26.48 A1.125 1.125 -180 0 0 2.59 26.02 A1.1925 1.1925 -180 0 0 1.61 26.48
							 A2.2545 2.2545 -180 0 0 1.6 28.94 A1.1625 1.1625 -180 0 0 2.56 29.4 A1.17825 1.17825 -180 0 0 3.53 28.95
							 A1.8825 1.8825 -180 0 0 3.89 27.74 Z" class="st13"/>
			</g>
			<g id="shape16502-44" v:mID="16502" v:groupContext="shape" transform="translate(30.6668,-6.42675)">
				<title>Sheet.16502</title>
				<path d="M3.12 31.63 L0 31.63 L0 26.4 L1.18 26.4 L1.18 30.68 L3.12 30.68 L3.12 31.63 Z" class="st13"/>
			</g>
		</g>
	</g>
</svg>
