<svg viewBox="0 0 18 18" class="" role="presentation" focusable="false" xmlns:svg="http://www.w3.org/2000/svg" xmlns:xlink="http://www.w3.org/1999/xlink" id="FxSymbol0-093" data-type="1"><g><title>Icon-databases-127</title><path d="M7.77 10.68a.39.39 0 0 1-.42.34H.92a.39.39 0 0 1-.42-.34V1.2A.39.39 0 0 1 .92.86h6.43a.39.39 0 0 1 .42.34z" fill="#949494"></path><path d="M1.57 5.2a.79.79 0 0 1 .79-.79H6a.79.79 0 0 1 .79.79A.79.79 0 0 1 6 6H2.36a.79.79 0 0 1-.79-.79zm0-2.34a.79.79 0 0 1 .79-.8H6a.79.79 0 0 1 .79.8.79.79 0 0 1-.79.79H2.36a.79.79 0 0 1-.79-.79z" fill="#003067"></path><circle cx="2.39" cy="2.86" r=".53" fill="#50e6ff"></circle><circle cx="2.39" cy="5.2" r=".53" fill="#50e6ff"></circle><path d="M15.79 10.63a.39.39 0 0 1-.42.35H8.94a.39.39 0 0 1-.42-.35V1.16a.39.39 0 0 1 .42-.35h6.43a.39.39 0 0 1 .42.35z" fill="#949494"></path><path d="M9.59 5.16a.79.79 0 0 1 .79-.79H14a.79.79 0 0 1 .79.79A.79.79 0 0 1 14 6h-3.62a.79.79 0 0 1-.79-.79zm0-2.35a.79.79 0 0 1 .79-.81H14a.8.8 0 0 1 .79.79.79.79 0 0 1-.79.81h-3.62a.79.79 0 0 1-.79-.79z" fill="#003067"></path><circle cx="10.41" cy="2.81" r=".53" fill="#50e6ff"></circle><circle cx="10.41" cy="5.16" r=".53" fill="#50e6ff"></circle><path d="M9 16.84a.39.39 0 0 1-.42.35H2.14a.39.39 0 0 1-.42-.35V7.37A.39.39 0 0 1 2.14 7h6.43a.39.39 0 0 1 .43.37z" fill="url(#a)"></path><path d="M2.79 11.37a.79.79 0 0 1 .79-.79H7.2a.79.79 0 0 1 .79.79H8a.8.8 0 0 1-.79.79H3.58a.79.79 0 0 1-.79-.79zm0-2.37a.79.79 0 0 1 .79-.79H7.2A.79.79 0 0 1 8 9a.8.8 0 0 1-.79.79H3.58A.79.79 0 0 1 2.79 9z" fill="#003067"></path><circle cx="3.61" cy="9.02" r=".53" fill="#50e6ff"></circle><circle cx="3.61" cy="11.37" r=".53" fill="#50e6ff"></circle><path d="M17.5 13a2.77 2.77 0 0 0-2.41-2.66A3.49 3.49 0 0 0 11.5 7a3.58 3.58 0 0 0-3.43 2.33 3.31 3.31 0 0 0-2.91 3.18 3.37 3.37 0 0 0 3.48 3.23h5.93a.4.4 0 0 0 .15 0A2.8 2.8 0 0 0 17.5 13z" fill="url(#b)"></path></g><defs>
<linearGradient id="a" x1="9" y1="16.39" x2="9" y2="-1.94" gradientUnits="userSpaceOnUse"><stop offset="0" stop-color="#0078d4"></stop><stop offset=".16" stop-color="#1380da"></stop><stop offset=".53" stop-color="#3c91e5"></stop><stop offset=".82" stop-color="#559cec"></stop><stop offset="1" stop-color="#5ea0ef"></stop></linearGradient>
<linearGradient id="b" x1="9.88" y1="7.11" x2="9.99" y2="17.27" gradientUnits="userSpaceOnUse"><stop offset="0" stop-color="#32d4f5"></stop><stop offset=".32" stop-color="#31d1f3"></stop><stop offset=".53" stop-color="#2ec9eb"></stop><stop offset=".7" stop-color="#29bade"></stop><stop offset=".86" stop-color="#22a5cb"></stop><stop offset="1" stop-color="#198ab3"></stop><stop offset="1" stop-color="#198ab3"></stop></linearGradient>
<radialGradient id="c" cx="9.43" cy="7.03" r="7.27" gradientUnits="userSpaceOnUse"><stop offset="0" stop-color="#f2f2f2"></stop><stop offset=".58" stop-color="#eee"></stop><stop offset="1" stop-color="#e6e6e6"></stop></radialGradient>
</defs>
</svg>