<?xml version="1.0" encoding="UTF-8" standalone="no"?>
<!DOCTYPE svg PUBLIC "-//W3C//DTD SVG 1.1//EN" "http://www.w3.org/Graphics/SVG/1.1/DTD/svg11.dtd">
<!-- Generated by Microsoft Visio, SVG Export Windows-VM.svg Page-1 -->
<svg xmlns="http://www.w3.org/2000/svg" xmlns:xlink="http://www.w3.org/1999/xlink" xmlns:ev="http://www.w3.org/2001/xml-events"
		xmlns:v="http://schemas.microsoft.com/visio/2003/SVGExtensions/" width="11in" height="8.5in" viewBox="0 0 792 612"
		xml:space="preserve" color-interpolation-filters="sRGB" class="st11">
	<v:documentProperties v:langID="1033" v:viewMarkup="false">
		<v:userDefs>
			<v:ud v:nameU="msvSubprocessMaster" v:prompt="" v:val="VT4(Rectangle)"/>
			<v:ud v:nameU="msvNoAutoConnect" v:val="VT0(1):26"/>
		</v:userDefs>
	</v:documentProperties>

	<style type="text/css">
	<![CDATA[
		.st1 {fill:#7a7a7a}
		.st2 {stroke:none;stroke-width:0.75}
		.st3 {fill:#a0a1a2;stroke:none;stroke-width:0.75}
		.st4 {fill:#ffffff;fill-opacity:0.2;stroke:none;stroke-width:0.75}
		.st5 {fill:#59b4d9;stroke:none;stroke-width:0.75}
		.st6 {fill:#b8d432;stroke:none;stroke-width:0.75}
		.st7 {fill:#ffffff}
		.st8 {fill:#ffffff;fill-opacity:0.7}
		.st9 {fill:#ffffff;fill-opacity:0.4}
		.st10 {fill:#0072c6;stroke:none;stroke-width:0.75}
		.st11 {fill:none;fill-rule:evenodd;font-size:12px;overflow:visible;stroke-linecap:square;stroke-miterlimit:3}
	]]>
	</style>

	<g v:mID="0" v:index="1" v:groupContext="foregroundPage">
		<v:userDefs>
			<v:ud v:nameU="msvThemeOrder" v:val="VT0(0):26"/>
		</v:userDefs>
		<title>Page-1</title>
		<v:pageProperties v:drawingScale="1" v:pageScale="1" v:drawingUnits="0" v:shadowOffsetX="9" v:shadowOffsetY="-9"/>
		<g id="group16503-1" transform="translate(18,-562.801)" v:mID="16503" v:groupContext="group">
			<title>Windows VM</title>
			<g id="shape16504-2" v:mID="16504" v:groupContext="shape" transform="translate(4.983,-4.6545)">
				<title>Sheet.16504</title>
				<path d="M13.67 606.47 L5.85 606.47 C6.79 609.79 5.53 610.26 0 610.26 L0 612 L18.8 612 L18.8 610.26 C13.28 610.26
							 12.73 609.79 13.67 606.47 L13.67 606.47 Z" class="st1"/>
				<path d="M13.67 606.47 L5.85 606.47 C6.79 609.79 5.53 610.26 0 610.26 L0 612 L18.8 612 L18.8 610.26 C13.28 610.26
							 12.73 609.79 13.67 606.47" class="st2"/>
			</g>
			<g id="shape16505-5" v:mID="16505" v:groupContext="shape" transform="translate(-5.9952E-15,-10.1835)">
				<title>Sheet.16505</title>
				<path d="M27.02 590.98 L1.56 590.98 A1.62675 1.62675 -180 0 0 0 592.62 L0 610.38 A1.61775 1.61775 -180 0 0 1.56 612
							 L27.02 612 A1.7775 1.7775 -180 0 0 28.76 610.38 L28.76 592.62 A1.7835 1.7835 -180 0 0 27.02 590.98 Z"
						class="st3"/>
			</g>
			<g id="shape16506-7" v:mID="16506" v:groupContext="shape" transform="translate(7.99361E-14,-10.182)">
				<title>Sheet.16506</title>
				<path d="M27.04 590.98 L27.02 590.98 L1.56 590.98 A1.626 1.626 -180 0 0 -0 592.62 L0 610.38 A1.61775 1.61775 -180
							 0 0 1.56 612 L2.17 612 L27.04 590.98 Z" class="st4"/>
			</g>
			<g id="shape16507-9" v:mID="16507" v:groupContext="shape" transform="translate(2.18025,-12.396)">
				<title>Sheet.16507</title>
				<path d="M24.34 595.41 L24.34 612 L0 612 L0 595.41 L24.34 595.41 Z" class="st5"/>
			</g>
			<g id="shape16508-11" v:mID="16508" v:groupContext="shape" transform="translate(2.18025,-12.396)">
				<title>Sheet.16508</title>
				<path d="M0 612 L0.03 612 L0.03 595.41 L22.28 595.38 L22.28 595.38 L0 595.41 L0 612 Z" class="st5"/>
			</g>
			<g id="shape16509-13" v:mID="16509" v:groupContext="shape" transform="translate(4.9785,-4.65375)">
				<title>Sheet.16509</title>
				<rect x="0" y="610.262" width="18.8048" height="1.73775" class="st3"/>
			</g>
			<g id="shape16510-15" v:mID="16510" v:groupContext="shape" transform="translate(13.9818,-29.7063)">
				<title>Sheet.16510</title>
				<path d="M0.7 611.71 a0.408 0.408 0 1 1 -0.40875 -0.40875 a0.40875 0.40875 0 0 1 0.40875 0.40875 Z" class="st6"/>
			</g>
			<g id="shape16511-17" v:mID="16511" v:groupContext="shape" transform="translate(9.48,-21.1943)">
				<title>Sheet.16511</title>
				<path d="M5.21 612 a0.15975 0.15975 0 0 1 -0.075 -0.02175 L0.07 609.05 a0.156 0.156 0 0 1 -0.075 -0.13275 a0.15 0.15
							 0 0 1 0.075 -0.132 L5.11 605.88 a0.15375 0.15375 0 0 1 0.15 -1.13687E-13 L10.32 608.81 a0.15375 0.15375
							 0 0 1 7.10543E-15 0.26475 L5.29 611.98 a0.15525 0.15525 0 0 1 -0.075 0.02175 L5.21 612 Z" class="st7"/>
				<path d="M5.21 612 a0.15975 0.15975 0 0 1 -0.075 -0.02175 L0.07 609.05 a0.156 0.156 0 0 1 -0.075 -0.13275 a0.15 0.15
							 0 0 1 0.075 -0.132 L5.11 605.88 a0.15375 0.15375 0 0 1 0.15 -1.13687E-13 L10.32 608.81 a0.15375 0.15375
							 0 0 1 7.10543E-15 0.26475 L5.29 611.98 a0.15525 0.15525 0 0 1 -0.075 0.02175" class="st2"/>
			</g>
			<g id="shape16512-20" v:mID="16512" v:groupContext="shape" transform="translate(8.7675,-14.0888)">
				<title>Sheet.16512</title>
				<path d="M5.2 612 a0.14475 0.14475 0 0 1 -0.075 -0.021 L0.07 609.06 a0.15 0.15 0 0 1 -0.075 -0.13275 L0 603.08 a0.15525
							 0.15525 0 0 1 0.2325 -0.13275 L5.28 605.86 a0.1605 0.1605 0 0 1 0.075 0.13425 L5.36 611.85 a0.156 0.156
							 0 0 1 -0.075 0.13275 a0.16125 0.16125 0 0 1 -0.075 0.021 L5.2 612 Z" class="st8"/>
				<path d="M5.2 612 a0.14475 0.14475 0 0 1 -0.075 -0.021 L0.07 609.06 a0.15 0.15 0 0 1 -0.075 -0.13275 L0 603.08 a0.15525
							 0.15525 0 0 1 0.2325 -0.13275 L5.28 605.86 a0.1605 0.1605 0 0 1 0.075 0.13425 L5.36 611.85 a0.156 0.156
							 0 0 1 -0.075 0.13275 a0.16125 0.16125 0 0 1 -0.075 0.021" class="st2"/>
			</g>
			<g id="shape16513-23" v:mID="16513" v:groupContext="shape" transform="translate(15.2415,-14.0895)">
				<title>Sheet.16513</title>
				<path d="M0.15 612 a0.165 0.165 0 0 1 -0.0795 -0.021 a0.156 0.156 0 0 1 -0.075 -0.13275 L0 606.04 a0.159 0.159 0
							 0 1 0.075 -0.13275 L5.12 602.99 a0.15 0.15 0 0 1 0.15 0 a0.15 0.15 0 0 1 0.075 0.132 L5.35 608.93 a0.15
							 0.15 0 0 1 -0.075 0.13275 L0.23 611.98 a0.13575 0.13575 0 0 1 -0.075 0.021 L0.15 612 Z" class="st9"/>
				<path d="M0.15 612 a0.165 0.165 0 0 1 -0.0795 -0.021 a0.156 0.156 0 0 1 -0.075 -0.13275 L0 606.04 a0.159 0.159 0
							 0 1 0.075 -0.13275 L5.12 602.99 a0.15 0.15 0 0 1 0.15 0 a0.15 0.15 0 0 1 0.075 0.132 L5.35 608.93 a0.15
							 0.15 0 0 1 -0.075 0.13275 L0.23 611.98 a0.13575 0.13575 0 0 1 -0.075 0.021" class="st2"/>
			</g>
			<g id="shape16514-26" v:mID="16514" v:groupContext="shape" transform="translate(29.919,-10.9042)">
				<title>Sheet.16514</title>
				<path d="M0 612 L11.37 612 L11.37 602.02 L0 603.65 L0 612 Z" class="st10"/>
			</g>
			<g id="shape16515-28" v:mID="16515" v:groupContext="shape" transform="translate(20.4067,-10.9042)">
				<title>Sheet.16515</title>
				<path d="M8.7 612 L8.7 603.76 L0 604.92 L0 612 L8.7 612 Z" class="st10"/>
			</g>
			<g id="shape16516-30" v:mID="16516" v:groupContext="shape" transform="translate(29.919,0)">
				<title>Sheet.16516</title>
				<path d="M0 601.91 L0 610.38 L11.37 612 L11.37 601.91 L0 601.91 Z" class="st10"/>
			</g>
			<g id="shape16517-32" v:mID="16517" v:groupContext="shape" transform="translate(20.4067,-1.74)">
				<title>Sheet.16517</title>
				<path d="M8.7 603.65 L0 603.65 L0 610.84 L8.7 612 L8.7 603.65 Z" class="st10"/>
			</g>
		</g>
	</g>
</svg>
