<svg viewBox="0 0 331 344.9" class="" role="presentation" focusable="false" xmlns:svg="http://www.w3.org/2000/svg" xmlns:xlink="http://www.w3.org/1999/xlink" id="FxSymbol0-0aa" data-type="1"><g><title></title><circle cx="131.5" cy="69.5" r="25" class="msportalfx-svg-c19" fill="#0072c6"></circle><circle cx="188.6" cy="150" r="29.8" class="msportalfx-svg-c19" fill="#0072c6"></circle><circle cx="238.5" cy="238.6" r="23.3" class="msportalfx-svg-c19" fill="#0072c6"></circle><circle cx="146" cy="222.5" r="20.1" class="msportalfx-svg-c19" fill="#0072c6"></circle><circle cx="64.6" cy="161.3" r="20.1" class="msportalfx-svg-c19" fill="#0072c6"></circle><path d="M121.684 71.464l14.807-10.409 59.926 85.246-14.808 10.41z" class="msportalfx-svg-c19" fill="#0072c6"></path><path d="M178.94 151.228l15.709-8.992 52.958 92.518-15.709 8.992z" class="msportalfx-svg-c19" fill="#0072c6"></path><path d="M61.173 150.948l127.963-10.624 1.498 18.038L62.67 168.986z" class="msportalfx-svg-c19" fill="#0072c6"></path><path d="M135.476 218.99l45.88-76.144 15.504 9.342-45.882 76.143z" class="msportalfx-svg-c19" fill="#0072c6"></path><circle cx="37.2" cy="88.2" r="24" class="msportalfx-svg-c19" fill="#0072c6"></circle><circle cx="293.2" cy="88.2" r="24" class="msportalfx-svg-c19" fill="#0072c6"></circle><circle cx="171.6" cy="316.2" r="24" class="msportalfx-svg-c19" fill="#0072c6"></circle><path d="M63.5 67.1c25.7-26.9 61.9-43.6 102-43.6 39.9 0 76 16.6 101.7 43.3 4.5-5.5 10.8-9.6 17.9-11.4-1.6-1.8-3.3-3.6-5.1-5.3-14.9-14.9-32.2-26.5-51.5-34.7-20-8.5-41.2-12.7-63.1-12.7S122.3 7 102.3 15.4C83 23.6 65.7 35.2 50.8 50.1c-1.8 1.8-3.5 3.6-5.2 5.4 7.3 1.9 13.4 6 17.9 11.6zm254.8 43.7c-4.8 5.3-11.2 9-18.5 10.5 4.4 13.7 6.8 28.2 6.8 43.4 0 65.4-44.5 120.4-104.9 136.4 2.3 4.6 3.6 9.7 3.6 15.2 0 1.9-.2 3.8-.5 5.6 8.1-2 16-4.7 23.7-7.9 19.3-8.2 36.6-19.8 51.5-34.7 14.9-14.9 26.5-32.2 34.7-51.5 8.5-20 12.7-41.2 12.7-63.1 0-18.6-3-36.7-9.1-53.9zm-178 192.7C74.4 291.6 24.4 234 24.4 164.6c0-15.1 2.4-29.6 6.8-43.3-7.3-1.3-13.7-5-18.6-10.1-6 17.1-9 35-9 53.4 0 21.9 4.3 43.1 12.7 63.1 8.2 19.3 19.8 36.6 34.7 51.5s32.2 26.5 51.5 34.7c11.7 5 23.9 8.5 36.4 10.5-.7-2.6-1-5.4-1-8.2-.1-4.5.8-8.8 2.4-12.7z" class="msportalfx-svg-c19" fill="#0072c6"></path></g><defs>
<linearGradient id="a" x1="9" y1="16.39" x2="9" y2="-1.94" gradientUnits="userSpaceOnUse"><stop offset="0" stop-color="#0078d4"></stop><stop offset=".16" stop-color="#1380da"></stop><stop offset=".53" stop-color="#3c91e5"></stop><stop offset=".82" stop-color="#559cec"></stop><stop offset="1" stop-color="#5ea0ef"></stop></linearGradient>
<linearGradient id="b" x1="9.88" y1="7.11" x2="9.99" y2="17.27" gradientUnits="userSpaceOnUse"><stop offset="0" stop-color="#32d4f5"></stop><stop offset=".32" stop-color="#31d1f3"></stop><stop offset=".53" stop-color="#2ec9eb"></stop><stop offset=".7" stop-color="#29bade"></stop><stop offset=".86" stop-color="#22a5cb"></stop><stop offset="1" stop-color="#198ab3"></stop><stop offset="1" stop-color="#198ab3"></stop></linearGradient>
<radialGradient id="c" cx="9.43" cy="7.03" r="7.27" gradientUnits="userSpaceOnUse"><stop offset="0" stop-color="#f2f2f2"></stop><stop offset=".58" stop-color="#eee"></stop><stop offset="1" stop-color="#e6e6e6"></stop></radialGradient>
</defs>
</svg>