<?xml version="1.0" encoding="UTF-8" standalone="no"?>
<!DOCTYPE svg PUBLIC "-//W3C//DTD SVG 1.1//EN" "http://www.w3.org/Graphics/SVG/1.1/DTD/svg11.dtd">
<!-- Generated by Microsoft Visio, SVG Export Drone-#1.svg Page-1 -->
<svg xmlns="http://www.w3.org/2000/svg" xmlns:xlink="http://www.w3.org/1999/xlink" xmlns:ev="http://www.w3.org/2001/xml-events"
		xmlns:v="http://schemas.microsoft.com/visio/2003/SVGExtensions/" width="0.908333in" height="0.282292in"
		viewBox="0 0 65.4 20.325" xml:space="preserve" color-interpolation-filters="sRGB" class="st9">
	<v:documentProperties v:langID="1033" v:metric="true" v:viewMarkup="false"/>

	<style type="text/css">
	<![CDATA[
		.st1 {fill:#9fa0a0;stroke:none;stroke-width:0.75}
		.st2 {fill:#595757;stroke:none;stroke-width:0.75}
		.st3 {fill:#4672c4;stroke:none;stroke-width:0.75}
		.st4 {fill:#3e3a39;stroke:none;stroke-width:0.75}
		.st5 {fill:#b5b5b6;stroke:none;stroke-width:0.75}
		.st6 {fill:#898989;stroke:none;stroke-width:0.75}
		.st7 {fill:#dcdddd;stroke:none;stroke-width:0.75}
		.st8 {fill:#c9caca;stroke:none;stroke-width:0.75}
		.st9 {fill:none;fill-rule:evenodd;font-size:12px;overflow:visible;stroke-linecap:square;stroke-miterlimit:3}
	]]>
	</style>

	<g v:mID="0" v:index="1" v:groupContext="foregroundPage">
		<title>Page-1</title>
		<v:pageProperties v:drawingScale="1" v:pageScale="1" v:drawingUnits="0" v:shadowOffsetX="9" v:shadowOffsetY="-9"/>
		<g id="group13264-1" transform="translate(0.75,-0.75)" v:mID="13264" v:groupContext="group">
			<title>Drone #1</title>
			<g id="group13265-2" transform="translate(28.05,-9.59233E-14)" v:mID="13265" v:groupContext="group">
				<title>Sheet.13265</title>
				<g id="shape13266-3" v:mID="13266" v:groupContext="shape" transform="translate(7.79377E-14,-6.9)">
					<title>Sheet.13266</title>
					<path d="M7.57 20.32 L0.15 20.32 C0.08 20.32 0 20.25 0 20.17 L0 19.8 C0 19.72 0.08 19.65 0.15 19.65 L7.57 19.65
								 C7.65 19.65 7.72 19.72 7.72 19.8 L7.72 20.17 C7.72 20.17 7.65 20.32 7.57 20.32 Z" class="st1"/>
				</g>
				<g id="shape13267-5" v:mID="13267" v:groupContext="shape" transform="translate(2.475,-6.075)">
					<title>Sheet.13267</title>
					<path d="M2.7 20.32 L0.07 20.32 C0 20.32 0 20.25 0 20.25 L0 19.72 C0 19.65 0.07 19.65 0.07 19.65 L2.7 19.65 C2.77
								 19.65 2.77 19.72 2.77 19.72 L2.77 20.25 C2.77 20.32 2.7 20.32 2.7 20.32 Z" class="st2"/>
				</g>
				<g id="shape13268-7" v:mID="13268" v:groupContext="shape" transform="translate(7.79377E-14,-5.175)">
					<title>Sheet.13268</title>
					<path d="M7.57 20.32 L0.15 20.32 C0.08 20.32 0 20.25 0 20.17 L0 19.8 C0 19.72 0.08 19.65 0.15 19.65 L7.57 19.65
								 C7.65 19.65 7.72 19.72 7.72 19.8 L7.72 20.17 C7.72 20.25 7.65 20.32 7.57 20.32 Z" class="st1"/>
				</g>
				<g id="shape13269-9" v:mID="13269" v:groupContext="shape" transform="translate(9.35502E-14,-6.075)">
					<title>Sheet.13269</title>
					<path d="M0.97 20.32 L0.22 20.32 C0.07 20.32 0 20.25 0 20.1 L0 19.87 C0 19.72 0.07 19.65 0.22 19.65 L1.05 19.65
								 C1.2 19.65 1.27 19.72 1.27 19.87 L1.27 20.1 C1.2 20.25 1.12 20.32 0.97 20.32 Z" class="st2"/>
				</g>
				<g id="shape13270-11" v:mID="13270" v:groupContext="shape" transform="translate(6.525,-6.075)">
					<title>Sheet.13270</title>
					<path d="M1.05 20.32 L0.22 20.32 C0.07 20.32 0 20.25 0 20.1 L0 19.87 C0 19.72 0.07 19.65 0.22 19.65 L1.05 19.65
								 C1.2 19.65 1.27 19.72 1.27 19.87 L1.27 20.1 C1.27 20.25 1.2 20.32 1.05 20.32 Z" class="st2"/>
				</g>
				<g id="shape13271-13" v:mID="13271" v:groupContext="shape" transform="translate(2.925,-3.9)">
					<title>Sheet.13271</title>
					<rect x="0" y="19.2" width="1.875" height="1.125" class="st2"/>
				</g>
				<g id="shape13272-15" v:mID="13272" v:groupContext="shape" transform="translate(4.275,-0.45)">
					<title>Sheet.13272</title>
					<path d="M1.2 17.92 C0.53 17.92 0 18.45 0 19.12 C0 19.8 0.53 20.32 1.2 20.32 C1.87 20.32 2.4 19.8 2.4 19.12 C2.4
								 18.45 1.87 17.92 1.2 17.92 ZM1.2 20.17 C0.6 20.17 0.15 19.72 0.15 19.12 C0.15 18.52 0.6 18.07 1.2
								 18.07 C1.8 18.07 2.25 18.52 2.25 19.12 C2.25 19.72 1.8 20.17 1.2 20.17 Z" class="st3"/>
				</g>
				<g id="shape13273-17" v:mID="13273" v:groupContext="shape" transform="translate(4.875,-1.125)">
					<title>Sheet.13273</title>
					<ellipse cx="0.6" cy="19.725" rx="0.6" ry="0.6" class="st3"/>
				</g>
				<g id="shape13274-19" v:mID="13274" v:groupContext="shape" transform="translate(2.775,0)">
					<title>Sheet.13274</title>
					<path d="M4.35 16.72 L0.38 16.72 C0.15 16.72 0 16.87 0 17.1 L0 19.95 C0 20.17 0.15 20.32 0.38 20.32 L4.35 20.32
								 C4.57 20.32 4.72 20.17 4.72 19.95 L4.72 17.1 C4.65 16.87 4.5 16.72 4.35 16.72 ZM1.2 17.77 C1.2 17.85
								 1.12 17.92 1.05 17.92 L0.75 17.92 C0.68 17.92 0.6 17.85 0.6 17.77 L0.6 17.47 C0.6 17.4 0.68 17.32
								 0.75 17.32 L1.05 17.32 C1.12 17.32 1.2 17.4 1.2 17.47 L1.2 17.77 ZM2.7 20.02 C1.95 20.02 1.35 19.42
								 1.35 18.67 C1.35 17.92 1.95 17.32 2.7 17.32 C3.45 17.32 4.05 17.92 4.05 18.67 C4.13 19.42 3.45 20.02
								 2.7 20.02 Z" class="st4"/>
				</g>
				<g id="shape13275-21" v:mID="13275" v:groupContext="shape" transform="translate(2.1,-1.05)">
					<title>Sheet.13275</title>
					<path d="M0.45 20.32 L0 20.32 L0 18.6 L0.45 18.6 C0.53 18.6 0.53 18.67 0.53 18.67 L0.45 20.32 C0.6 20.32 0.53
								 20.32 0.45 20.32 Z" class="st1"/>
				</g>
				<g id="shape13276-23" v:mID="13276" v:groupContext="shape" transform="translate(1.5,-1.05)">
					<title>Sheet.13276</title>
					<path d="M0.53 20.32 L0.07 20.32 C0 20.32 0 20.25 0 20.25 L0 18.67 C0 18.6 0.07 18.6 0.07 18.6 L0.53 18.6 L0.53
								 20.32 Z" class="st1"/>
				</g>
				<g id="shape13277-25" v:mID="13277" v:groupContext="shape" transform="translate(0.675,-1.2)">
					<title>Sheet.13277</title>
					<path d="M0.68 20.32 L0.15 20.32 C0.07 20.32 0 20.25 0 20.17 L0 19.05 C0 18.97 0.07 18.9 0.15 18.9 L0.68 18.9
								 L0.68 20.32 Z" class="st3"/>
				</g>
			</g>
			<g id="group13278-27" v:mID="13278" v:groupContext="group">
				<title>Sheet.13278</title>
				<g id="shape13279-28" v:mID="13279" v:groupContext="shape" transform="translate(22.95,-9.59233E-14)">
					<title>Sheet.13279</title>
					<path d="M2.17 20.32 L0.22 20.32 C0.07 20.32 0 20.25 0 20.1 L0 19.57 C0 19.5 0 19.42 0.08 19.42 L0.38 19.12 L0.38
								 14.17 L1.2 11.7 C1.2 11.62 1.28 11.62 1.35 11.62 L3.68 11.62 C3.83 11.62 3.9 11.77 3.83 11.85 L2.33
								 14.62 L2.33 20.1 C2.33 20.25 2.25 20.32 2.17 20.32 Z" class="st3"/>
				</g>
				<g id="shape13280-30" v:mID="13280" v:groupContext="shape" transform="translate(36.975,-9.59233E-14)">
					<title>Sheet.13280</title>
					<path d="M1.73 20.32 L3.68 20.32 C3.83 20.32 3.9 20.25 3.9 20.1 L3.9 19.57 C3.9 19.5 3.9 19.42 3.83 19.42 L3.53
								 19.12 L3.53 14.17 L2.7 11.7 C2.7 11.62 2.62 11.62 2.55 11.62 L0.22 11.62 C0.07 11.62 0 11.77 0.07
								 11.85 L1.57 14.62 L1.57 20.1 C1.58 20.25 1.65 20.32 1.73 20.32 Z" class="st3"/>
				</g>
				<g id="shape13281-32" v:mID="13281" v:groupContext="shape" transform="translate(9.825,-11.85)">
					<title>Sheet.13281</title>
					<path d="M3.9 20.32 L0.3 20.32 C0.15 20.32 0 20.17 0 20.02 L0 18.82 C0 18.67 0.15 18.52 0.3 18.52 L3.9 18.52
								 L3.9 20.32 Z" class="st1"/>
				</g>
				<g id="shape13282-34" v:mID="13282" v:groupContext="shape" transform="translate(10.65,-13.8)">
					<title>Sheet.13282</title>
					<rect x="0" y="18.975" width="2.4" height="1.35" class="st5"/>
				</g>
				<g id="shape13283-36" v:mID="13283" v:groupContext="shape" transform="translate(10.5,-15.15)">
					<title>Sheet.13283</title>
					<path d="M2.47 19.8 L2.18 19.05 C2.1 18.9 2.02 18.82 1.88 18.82 L0.67 18.82 C0.52 18.82 0.45 18.9 0.37 19.05
								 L0.15 19.8 L0.07 19.8 C0.07 19.8 0 19.8 0 19.87 L0 20.32 L2.4 20.32 L2.47 19.8 C2.55 19.8 2.47 19.8
								 2.47 19.8 Z" class="st6"/>
				</g>
				<g id="shape13284-38" v:mID="13284" v:groupContext="shape" transform="translate(11.25,-16.8)">
					<title>Sheet.13284</title>
					<rect x="0" y="18.9" width="1.2" height="1.425" class="st3"/>
				</g>
				<g id="shape13285-40" v:mID="13285" v:groupContext="shape" transform="translate(11.25,-18.3)">
					<title>Sheet.13285</title>
					<path d="M1.2 20.32 L0 20.32 C0 20.32 0.22 19.87 0.6 19.87 C0.97 19.87 1.2 20.32 1.2 20.32 Z" class="st6"/>
				</g>
				<g id="shape13286-42" v:mID="13286" v:groupContext="shape" transform="translate(0,-17.1)">
					<title>Sheet.13286</title>
					<path d="M10.95 20.32 L5.62 20.32 C5.55 20.32 5.47 20.32 5.4 20.32 L0.3 19.12 C0.15 19.05 0 18.97 0 18.75 C0
								 18.67 0.07 18.6 0.15 18.6 L5.4 18.6 C5.48 18.6 5.48 18.6 5.55 18.6 L10.95 19.42 L10.95 20.32 Z"
							class="st3"/>
				</g>
				<g id="shape13287-44" v:mID="13287" v:groupContext="shape" transform="translate(12.675,-16.275)">
					<title>Sheet.13287</title>
					<path d="M0 18.6 L5.33 18.6 C5.4 18.6 5.48 18.6 5.55 18.6 L10.65 19.8 C10.8 19.87 10.95 19.95 10.95 20.17 C10.95
								 20.25 10.88 20.32 10.8 20.32 L5.55 20.32 C5.48 20.32 5.48 20.32 5.4 20.32 L0 19.5 L0 18.6 Z"
							class="st3"/>
				</g>
				<g id="shape13288-46" v:mID="13288" v:groupContext="shape" transform="translate(50.175,-11.85)">
					<title>Sheet.13288</title>
					<path d="M0 20.32 L3.6 20.32 C3.75 20.32 3.9 20.17 3.9 20.02 L3.9 18.82 C3.9 18.67 3.75 18.52 3.6 18.52 L0 18.52
								 L0 20.32 Z" class="st1"/>
				</g>
				<g id="shape13289-48" v:mID="13289" v:groupContext="shape" transform="translate(50.85,-13.8)">
					<title>Sheet.13289</title>
					<rect x="0" y="18.975" width="2.4" height="1.35" class="st5"/>
				</g>
				<g id="shape13290-50" v:mID="13290" v:groupContext="shape" transform="translate(50.85,-15.15)">
					<title>Sheet.13290</title>
					<path d="M0.08 19.8 L0.38 19.05 C0.45 18.9 0.53 18.82 0.68 18.82 L1.88 18.82 C2.03 18.82 2.1 18.9 2.18 19.05
								 L2.4 19.8 L2.47 19.8 C2.47 19.8 2.55 19.8 2.55 19.87 L2.55 20.32 L0.15 20.32 L0.08 19.8 C0 19.8
								 0.08 19.8 0.08 19.8 Z" class="st6"/>
				</g>
				<g id="shape13291-52" v:mID="13291" v:groupContext="shape" transform="translate(51.45,-16.8)">
					<title>Sheet.13291</title>
					<rect x="0" y="18.9" width="1.2" height="1.425" class="st3"/>
				</g>
				<g id="shape13292-54" v:mID="13292" v:groupContext="shape" transform="translate(51.45,-18.3)">
					<title>Sheet.13292</title>
					<path d="M0 20.32 L1.2 20.32 C1.2 20.32 0.98 19.87 0.6 19.87 C0.23 19.87 0 20.32 0 20.32 Z" class="st6"/>
				</g>
				<g id="shape13293-56" v:mID="13293" v:groupContext="shape" transform="translate(52.95,-17.1)">
					<title>Sheet.13293</title>
					<path d="M0 20.32 L5.33 20.32 C5.4 20.32 5.48 20.32 5.55 20.32 L10.65 19.12 C10.8 19.05 10.95 18.97 10.95 18.75
								 C10.95 18.67 10.88 18.6 10.8 18.6 L5.55 18.6 C5.48 18.6 5.48 18.6 5.4 18.6 L0 19.42 L0 20.32 Z"
							class="st3"/>
				</g>
				<g id="shape13294-58" v:mID="13294" v:groupContext="shape" transform="translate(40.275,-16.275)">
					<title>Sheet.13294</title>
					<path d="M10.95 18.6 L5.62 18.6 C5.55 18.6 5.47 18.6 5.4 18.6 L0.3 19.8 C0.15 19.87 0 19.95 0 20.17 C0 20.25
								 0.07 20.32 0.15 20.32 L5.4 20.32 C5.48 20.32 5.48 20.32 5.55 20.32 L10.95 19.5 L10.95 18.6 Z"
							class="st3"/>
				</g>
				<g id="shape13295-60" v:mID="13295" v:groupContext="shape" transform="translate(13.5,-7.875)">
					<title>Sheet.13295</title>
					<path d="M36.6 14.02 L27.3 13.05 C26.62 12.97 20.02 11.4 18.45 11.4 C16.87 11.4 10.27 12.97 9.6 13.05 L0.22 14.1
								 C0.07 14.1 0 14.25 0 14.4 L0 16.2 C0 16.35 0.07 16.5 0.22 16.5 L10.27 18.3 L10.57 19.35 C10.57 19.42
								 10.65 19.42 10.72 19.42 L13.35 19.42 C13.42 19.42 13.5 19.35 13.5 19.27 L13.5 18.75 C13.8 18.82
								 14.03 19.05 14.17 19.27 C14.62 19.95 15.38 20.32 16.2 20.32 L20.62 20.32 C21.45 20.32 22.2 19.87
								 22.65 19.27 C22.8 19.05 23.03 18.82 23.32 18.75 L23.32 19.2 C23.32 19.27 23.4 19.35 23.48 19.35
								 L26.1 19.35 C26.18 19.35 26.25 19.27 26.25 19.27 L26.55 18.22 L36.6 16.42 C36.75 16.42 36.82 16.27
								 36.82 16.12 L36.82 14.32 C36.82 14.17 36.67 14.02 36.6 14.02 Z" class="st7"/>
				</g>
				<g id="shape13296-62" v:mID="13296" v:groupContext="shape" transform="translate(13.5,-7.875)">
					<title>Sheet.13296</title>
					<path d="M0 16.05 C0 16.27 0.07 16.42 0.22 16.42 L10.27 18.22 L10.57 19.27 C10.57 19.35 10.65 19.35 10.72 19.35
								 L13.35 19.35 C13.42 19.35 13.5 19.27 13.5 19.2 L13.5 18.75 C13.8 18.82 14.03 19.05 14.17 19.27 C14.62
								 19.95 15.37 20.32 16.2 20.32 L20.62 20.32 C21.45 20.32 22.2 19.87 22.65 19.27 C22.8 19.05 23.03
								 18.82 23.32 18.75 L23.32 19.2 C23.32 19.27 23.4 19.35 23.47 19.35 L26.1 19.35 C26.18 19.35 26.25
								 19.27 26.25 19.27 L26.55 18.22 L36.6 16.42 C36.75 16.42 36.82 16.28 36.82 16.13 L36.82 16.05 C36.82
								 15.98 30.75 15.98 23.55 15.9 C22.65 15.9 21.52 17.32 20.7 17.32 C19.35 17.32 18.15 17.32 16.8 17.32
								 C15.67 17.32 14.55 15.9 13.5 15.9 C6.15 15.9 0 15.98 0 16.05 Z" class="st8"/>
				</g>
			</g>
		</g>
	</g>
</svg>
