<?xml version="1.0" encoding="iso-8859-1"?>
<!-- Generator: Adobe Illustrator 19.1.1, SVG Export Plug-In . SVG Version: 6.00 Build 0)  -->
<svg version="1.1" id="Layer_1" xmlns="http://www.w3.org/2000/svg" xmlns:xlink="http://www.w3.org/1999/xlink" x="0px" y="0px"
	 viewBox="0 0 48 48" style="enable-background:new 0 0 48 48;" xml:space="preserve">
<path style="fill:#455A64;" d="M10,18L10,18c-0.55,0-1-0.45-1-1v-7c0-0.55,0.45-1,1-1l0,0c0.55,0,1,0.45,1,1v7
	C11,17.55,10.55,18,10,18z M39,17v-7c0-0.55-0.45-1-1-1l0,0c-0.55,0-1,0.45-1,1v7c0,0.55,0.45,1,1,1l0,0C38.55,18,39,17.55,39,17z"
	/>
<g>
	<path style="fill:none;stroke:#90A4AE;stroke-width:2;stroke-miterlimit:10;" d="M10,39c0-7.15,1.125-17,14-17s14,9.85,14,17"/>
	<path style="fill:#90A4AE;" d="M11,18H9c-0.55,0-1-0.45-1-1v-3c0-0.55,0.45-1,1-1h2c0.55,0,1,0.45,1,1v3C12,17.55,11.55,18,11,18z"
		/>
	<path style="fill:#90A4AE;" d="M39,18h-2c-0.55,0-1-0.45-1-1v-3c0-0.55,0.45-1,1-1h2c0.55,0,1,0.45,1,1v3C40,17.55,39.55,18,39,18z
		"/>
	<line style="fill:none;stroke:#90A4AE;stroke-width:2;stroke-miterlimit:10;" x1="10" y1="36" x2="38" y2="36"/>
</g>
<path style="fill:#B0BEC5;" d="M9,12H0v-2h9V12z M37,10h-9v2h9V10z M42,17c0,1.1-0.9,2-2,2c0,0-9-0.063-9,3v2c0,1.1-0.9,2-2,2H19
	c-1.1,0-2-0.9-2-2v-2c0-3.063-9-3-9-3c-1.1,0-2-0.9-2-2s0.9-2,2-2h32C41.1,15,42,15.9,42,17z M20,12h-9v-2h9V12z M48,12h-9v-2h9V12z
	"/>
<path style="fill:#FF3D00;" d="M15,15v2c0,0.552-0.448,1-1,1s-1-0.448-1-1v-2H15z M33,15v2c0,0.552,0.448,1,1,1s1-0.448,1-1v-2H33z"
	/>
<path style="fill:#512DA8;" d="M29,32.16H19l1.725-2.691C20.912,29.176,21.228,29,21.566,29h4.866c0.338,0,0.654,0.176,0.843,0.469
	L29,32.16z"/>
<path style="fill:#5E35B1;" d="M30.899,43H17.1c-1.159,0-2.1-0.951-2.1-2.125v-7.75C15,31.951,15.94,31,17.1,31h13.8
	C32.06,31,33,31.951,33,33.125v7.75C33,42.049,32.06,43,30.899,43"/>
<path style="fill:#512DA8;" d="M19,37c0-2.761,2.239-5,5-5c2.761,0,5,2.239,5,5s-2.239,5-5,5C21.239,42,19,39.761,19,37"/>
<path style="fill:#B388FF;" d="M21,37c0-1.656,1.343-3,3-3c1.657,0,3,1.344,3,3s-1.343,3-3,3C22.343,40,21,38.656,21,37"/>
<circle style="fill:#C7A7FF;" cx="23" cy="36" r="1"/>
</svg>
