<svg viewBox="0 0 32 32" class="" role="presentation" focusable="false" xmlns:svg="http://www.w3.org/2000/svg" xmlns:xlink="http://www.w3.org/1999/xlink" id="FxSymbol0-095" data-type="1"><g><title></title><g class="msportalfx-svg-c19" fill="#0072c6"><circle cx="13.4" cy="4.9" r="3.1"></circle><circle cx="20.5" cy="14.9" r="3.7"></circle><circle cx="26.7" cy="25.9" r="2.9"></circle><circle cx="15.2" cy="23.9" r="2.5"></circle><circle cx="5.1" cy="16.3" r="2.5"></circle><path d="M13.942 4.305l7.074 10.063-1.31.92-7.073-10.062z"></path><path d="M21.117 14.372l6.26 10.936-1.39.795-6.259-10.936z"></path><path d="M20.27 14.04l.132 1.594L5.154 16.9l-.133-1.595z"></path><path d="M19.71 14.44l1.37.826-5.367 8.908-1.37-.826zM31.5 0h-8.1c-.3 0-.5.2-.5.6v2.9c0 .3.2.5.5.5H28v4.5c0 .3.2.5.6.5h2.9c.3 0 .5-.2.5-.5v-8c0-.3-.2-.5-.5-.5zM.5 31.9h8.1c.3 0 .5-.2.5-.6v-2.9c0-.3-.2-.5-.5-.5H4v-4.5c0-.3-.2-.5-.6-.5H.5c-.3 0-.5.2-.5.5v8c0 .3.2.5.5.5z"></path></g></g><defs>
</defs>
</svg>