<svg viewBox="0 0 18 18" class="" role="presentation" focusable="false" xmlns:svg="http://www.w3.org/2000/svg" xmlns:xlink="http://www.w3.org/1999/xlink" id="FxSymbol0-097" data-type="1"><g><title></title><path d="M9 0L1.15 4.49v3L4.2 9.34v-1.8l-1.6-.92V5.38L9 1.68l6.4 3.71v7.18L9 16.27l-7.85-4.49v1.68L9 18l7.85-4.49v-9z" fill="#a3a3a3"></path><path fill="#949494" d="M9 0L1.15 4.49l1.45.89L9 1.68l6.4 3.7 1.45-.89L9 0z"></path><path fill="#32bedd" d="M13.25 6.54v4.92L9 13.93V9.01l4.25-2.47z"></path><path fill="#9cebff" d="M13.25 6.54L9 9.01 4.75 6.54 9 4.07l4.25 2.47z"></path><path fill="#50e6ff" d="M9 9.01v4.92l-4.25-2.47V6.54L9 9.01z"></path><path fill="#9cebff" d="M4.75 11.46L9 9.01v4.92l-4.25-2.47z"></path><path fill="#50e6ff" d="M13.25 11.46L9 9.01v4.92l4.25-2.47z"></path></g><defs>
</defs>
</svg>