<?xml version="1.0" encoding="UTF-8" standalone="no"?>
<!DOCTYPE svg PUBLIC "-//W3C//DTD SVG 1.1//EN" "http://www.w3.org/Graphics/SVG/1.1/DTD/svg11.dtd">
<!-- Generated by Microsoft Visio, SVG Export IoT-Chip-#1.svg Page-1 -->
<svg xmlns="http://www.w3.org/2000/svg" xmlns:xlink="http://www.w3.org/1999/xlink" xmlns:ev="http://www.w3.org/2001/xml-events"
		xmlns:v="http://schemas.microsoft.com/visio/2003/SVGExtensions/" width="1.03477in" height="1.03477in"
		viewBox="0 0 74.5034 74.5034" xml:space="preserve" color-interpolation-filters="sRGB" class="st5">
	<v:documentProperties v:langID="1033" v:metric="true" v:viewMarkup="false"/>

	<style type="text/css">
	<![CDATA[
		.st1 {fill:#38454f;stroke:none;stroke-width:10.5517}
		.st2 {fill:#ecd361;stroke:none;stroke-width:10.5517}
		.st3 {fill:#546a79;stroke:none;stroke-width:10.5517}
		.st4 {fill:#cbd4d8;stroke:none;stroke-width:10.5517}
		.st5 {fill:none;fill-rule:evenodd;font-size:12px;overflow:visible;stroke-linecap:square;stroke-miterlimit:3}
	]]>
	</style>

	<g v:mID="0" v:index="1" v:groupContext="foregroundPage">
		<title>Page-1</title>
		<v:pageProperties v:drawingScale="1" v:pageScale="1" v:drawingUnits="0" v:shadowOffsetX="9" v:shadowOffsetY="-9"/>
		<g id="group18505-1" transform="translate(10.5517,-10.5517)" v:mID="18505" v:groupContext="group">
			<title>IoT Chip #1</title>
			<g id="shape18506-2" v:mID="18506" v:groupContext="shape" transform="translate(9.70909,-9.70909)">
				<title>Sheet.18506</title>
				<path d="M0 70.43 L0 44.6 A4.07418 4.07418 0 0 1 4.07 40.52 L29.91 40.52 A4.07418 4.07418 0 0 1 33.98 44.6 L33.98
							 70.43 A4.07418 4.07418 0 0 1 29.91 74.5 L4.07 74.5 A4.07418 4.07418 0 0 1 0 70.43 Z" class="st1"/>
			</g>
			<g id="shape18507-4" v:mID="18507" v:groupContext="shape">
				<title>Sheet.18507</title>
				<path d="M4.85 39.31 L1.21 39.31 A1.21364 1.21364 -180 1 0 1.21 41.74 L4.85 41.74 A1.21364 1.21364 -180 0 0 4.85
							 39.31 ZM4.85 53.87 L1.21 53.87 A1.21364 1.21364 -180 0 0 1.21 56.3 L4.85 56.3 A1.21364 1.21364 -180
							 0 0 4.85 53.87 ZM4.85 49.02 L1.21 49.02 A1.21364 1.21364 -180 1 0 1.21 51.44 L4.85 51.44 A1.21364 1.21364
							 -180 0 0 4.85 49.02 ZM4.85 44.16 L1.21 44.16 A1.21364 1.21364 -180 1 0 1.21 46.59 L4.85 46.59 A1.21364
							 1.21364 -180 1 0 4.85 44.16 ZM48.55 41.74 L52.19 41.74 A1.21364 1.21364 -180 0 0 52.19 39.31 L48.55
							 39.31 A1.21364 1.21364 -180 1 0 48.55 41.74 ZM52.19 53.87 L48.55 53.87 A1.21364 1.21364 -180 1 0 48.55
							 56.3 L52.19 56.3 A1.21364 1.21364 -180 0 0 52.19 53.87 ZM52.19 49.02 L48.55 49.02 A1.21364 1.21364 -180
							 1 0 48.55 51.44 L52.19 51.44 A1.21364 1.21364 -180 0 0 52.19 49.02 ZM52.19 44.16 L48.55 44.16 A1.21364
							 1.21364 -180 1 0 48.55 46.59 L52.19 46.59 A1.21364 1.21364 -180 0 0 52.19 44.16 ZM33.98 21.1 A1.21364
							 1.21364 -180 0 0 32.77 22.32 L32.77 25.96 A1.21364 1.21364 -180 1 0 35.2 25.96 L35.2 22.32 A1.21364
							 1.21364 -180 0 0 33.98 21.1 ZM19.42 21.1 A1.21364 1.21364 -180 0 0 18.2 22.32 L18.2 25.96 A1.21364 1.21364
							 -180 1 0 20.63 25.96 L20.63 22.32 A1.21364 1.21364 -180 0 0 19.42 21.1 ZM24.27 21.1 A1.21364 1.21364
							 -180 0 0 23.06 22.32 L23.06 25.96 A1.21364 1.21364 -180 1 0 25.49 25.96 L25.49 22.32 A1.21364 1.21364
							 -180 0 0 24.27 21.1 ZM29.13 21.1 A1.21364 1.21364 -180 0 0 27.91 22.32 L27.91 25.96 A1.21364 1.21364
							 -180 0 0 30.34 25.96 L30.34 22.32 A1.21364 1.21364 -180 0 0 29.13 21.1 ZM33.98 68.44 A1.21364 1.21364
							 -180 0 0 32.77 69.65 L32.77 73.29 A1.21364 1.21364 -180 0 0 35.2 73.29 L35.2 69.65 A1.21364 1.21364
							 -180 0 0 33.98 68.44 ZM19.42 68.44 A1.21364 1.21364 -180 0 0 18.2 69.65 L18.2 73.29 A1.21364 1.21364
							 -180 1 0 20.63 73.29 L20.63 69.65 A1.21364 1.21364 -180 0 0 19.42 68.44 ZM24.27 68.44 A1.21364 1.21364
							 -180 0 0 23.06 69.65 L23.06 73.29 A1.21364 1.21364 -180 0 0 25.49 73.29 L25.49 69.65 A1.21364 1.21364
							 -180 0 0 24.27 68.44 ZM29.13 68.44 A1.21364 1.21364 -180 0 0 27.91 69.65 L27.91 73.29 A1.21364 1.21364
							 -180 0 0 30.34 73.29 L30.34 69.65 A1.21364 1.21364 -180 0 0 29.13 68.44 Z" class="st2"/>
			</g>
			<g id="group18508-6" transform="translate(15.7773,-14.5636)" v:mID="18508" v:groupContext="group">
				<title>Sheet.18508</title>
				<g id="shape18509-7" v:mID="18509" v:groupContext="shape" transform="translate(19.4182,1.42109E-14)">
					<title>Sheet.18509</title>
					<ellipse cx="1.21364" cy="73.2898" rx="1.21364" ry="1.21364" class="st3"/>
				</g>
				<g id="shape18510-9" v:mID="18510" v:groupContext="shape" transform="translate(14.5636,1.42109E-14)">
					<title>Sheet.18510</title>
					<ellipse cx="1.21364" cy="73.2898" rx="1.21364" ry="1.21364" class="st3"/>
				</g>
				<g id="shape18511-11" v:mID="18511" v:groupContext="shape" transform="translate(16.9909,-3.64091)">
					<title>Sheet.18511</title>
					<ellipse cx="1.21364" cy="73.2898" rx="1.21364" ry="1.21364" class="st3"/>
				</g>
				<g id="shape18512-13" v:mID="18512" v:groupContext="shape" transform="translate(9.70909,1.42109E-14)">
					<title>Sheet.18512</title>
					<ellipse cx="1.21364" cy="73.2898" rx="1.21364" ry="1.21364" class="st3"/>
				</g>
				<g id="shape18513-15" v:mID="18513" v:groupContext="shape" transform="translate(4.85455,1.42109E-14)">
					<title>Sheet.18513</title>
					<ellipse cx="1.21364" cy="73.2898" rx="1.21364" ry="1.21364" class="st3"/>
				</g>
				<g id="shape18514-17" v:mID="18514" v:groupContext="shape" transform="translate(12.1364,-3.64091)">
					<title>Sheet.18514</title>
					<ellipse cx="1.21364" cy="73.2898" rx="1.21364" ry="1.21364" class="st3"/>
				</g>
				<g id="shape18515-19" v:mID="18515" v:groupContext="shape" transform="translate(7.28182,-3.64091)">
					<title>Sheet.18515</title>
					<ellipse cx="1.21364" cy="73.2898" rx="1.21364" ry="1.21364" class="st3"/>
				</g>
				<g id="shape18516-21" v:mID="18516" v:groupContext="shape">
					<title>Sheet.18516</title>
					<ellipse cx="1.21364" cy="73.2898" rx="1.21364" ry="1.21364" class="st3"/>
				</g>
				<g id="shape18517-23" v:mID="18517" v:groupContext="shape" transform="translate(2.42727,-3.64091)">
					<title>Sheet.18517</title>
					<ellipse cx="1.21364" cy="73.2898" rx="1.21364" ry="1.21364" class="st3"/>
				</g>
				<g id="shape18518-25" v:mID="18518" v:groupContext="shape" transform="translate(19.4182,-7.28182)">
					<title>Sheet.18518</title>
					<ellipse cx="1.21364" cy="73.2898" rx="1.21364" ry="1.21364" class="st3"/>
				</g>
				<g id="shape18519-27" v:mID="18519" v:groupContext="shape" transform="translate(14.5636,-7.28182)">
					<title>Sheet.18519</title>
					<ellipse cx="1.21364" cy="73.2898" rx="1.21364" ry="1.21364" class="st3"/>
				</g>
				<g id="shape18520-29" v:mID="18520" v:groupContext="shape" transform="translate(16.9909,-10.9227)">
					<title>Sheet.18520</title>
					<ellipse cx="1.21364" cy="73.2898" rx="1.21364" ry="1.21364" class="st3"/>
				</g>
				<g id="shape18521-31" v:mID="18521" v:groupContext="shape" transform="translate(9.70909,-7.28182)">
					<title>Sheet.18521</title>
					<ellipse cx="1.21364" cy="73.2898" rx="1.21364" ry="1.21364" class="st3"/>
				</g>
				<g id="shape18522-33" v:mID="18522" v:groupContext="shape" transform="translate(4.85455,-7.28182)">
					<title>Sheet.18522</title>
					<ellipse cx="1.21364" cy="73.2898" rx="1.21364" ry="1.21364" class="st3"/>
				</g>
				<g id="shape18523-35" v:mID="18523" v:groupContext="shape" transform="translate(12.1364,-10.9227)">
					<title>Sheet.18523</title>
					<ellipse cx="1.21364" cy="73.2898" rx="1.21364" ry="1.21364" class="st3"/>
				</g>
				<g id="shape18524-37" v:mID="18524" v:groupContext="shape" transform="translate(7.28182,-10.9227)">
					<title>Sheet.18524</title>
					<ellipse cx="1.21364" cy="73.2898" rx="1.21364" ry="1.21364" class="st3"/>
				</g>
				<g id="shape18525-39" v:mID="18525" v:groupContext="shape" transform="translate(2.17326E-14,-7.28182)">
					<title>Sheet.18525</title>
					<ellipse cx="1.21364" cy="73.2898" rx="1.21364" ry="1.21364" class="st3"/>
				</g>
				<g id="shape18526-41" v:mID="18526" v:groupContext="shape" transform="translate(2.42727,-10.9227)">
					<title>Sheet.18526</title>
					<ellipse cx="1.21364" cy="73.2898" rx="1.21364" ry="1.21364" class="st3"/>
				</g>
				<g id="shape18527-43" v:mID="18527" v:groupContext="shape" transform="translate(19.4182,-14.5636)">
					<title>Sheet.18527</title>
					<ellipse cx="1.21364" cy="73.2898" rx="1.21364" ry="1.21364" class="st3"/>
				</g>
				<g id="shape18528-45" v:mID="18528" v:groupContext="shape" transform="translate(14.5636,-14.5636)">
					<title>Sheet.18528</title>
					<ellipse cx="1.21364" cy="73.2898" rx="1.21364" ry="1.21364" class="st3"/>
				</g>
				<g id="shape18529-47" v:mID="18529" v:groupContext="shape" transform="translate(16.9909,-18.2045)">
					<title>Sheet.18529</title>
					<ellipse cx="1.21364" cy="73.2898" rx="1.21364" ry="1.21364" class="st3"/>
				</g>
				<g id="shape18530-49" v:mID="18530" v:groupContext="shape" transform="translate(9.70909,-14.5636)">
					<title>Sheet.18530</title>
					<ellipse cx="1.21364" cy="73.2898" rx="1.21364" ry="1.21364" class="st3"/>
				</g>
				<g id="shape18531-51" v:mID="18531" v:groupContext="shape" transform="translate(4.85455,-14.5636)">
					<title>Sheet.18531</title>
					<ellipse cx="1.21364" cy="73.2898" rx="1.21364" ry="1.21364" class="st3"/>
				</g>
				<g id="shape18532-53" v:mID="18532" v:groupContext="shape" transform="translate(12.1364,-18.2045)">
					<title>Sheet.18532</title>
					<ellipse cx="1.21364" cy="73.2898" rx="1.21364" ry="1.21364" class="st3"/>
				</g>
				<g id="shape18533-55" v:mID="18533" v:groupContext="shape" transform="translate(7.28182,-18.2045)">
					<title>Sheet.18533</title>
					<ellipse cx="1.21364" cy="73.2898" rx="1.21364" ry="1.21364" class="st3"/>
				</g>
				<g id="shape18534-57" v:mID="18534" v:groupContext="shape" transform="translate(2.17326E-14,-14.5636)">
					<title>Sheet.18534</title>
					<ellipse cx="1.21364" cy="73.2898" rx="1.21364" ry="1.21364" class="st3"/>
				</g>
				<g id="shape18535-59" v:mID="18535" v:groupContext="shape" transform="translate(2.42727,-18.2045)">
					<title>Sheet.18535</title>
					<ellipse cx="1.21364" cy="73.2898" rx="1.21364" ry="1.21364" class="st3"/>
				</g>
				<g id="shape18536-61" v:mID="18536" v:groupContext="shape" transform="translate(19.4182,-21.8455)">
					<title>Sheet.18536</title>
					<ellipse cx="1.21364" cy="73.2898" rx="1.21364" ry="1.21364" class="st3"/>
				</g>
				<g id="shape18537-63" v:mID="18537" v:groupContext="shape" transform="translate(14.5636,-21.8455)">
					<title>Sheet.18537</title>
					<ellipse cx="1.21364" cy="73.2898" rx="1.21364" ry="1.21364" class="st3"/>
				</g>
				<g id="shape18538-65" v:mID="18538" v:groupContext="shape" transform="translate(9.70909,-21.8455)">
					<title>Sheet.18538</title>
					<ellipse cx="1.21364" cy="73.2898" rx="1.21364" ry="1.21364" class="st3"/>
				</g>
				<g id="shape18539-67" v:mID="18539" v:groupContext="shape" transform="translate(4.85455,-21.8455)">
					<title>Sheet.18539</title>
					<ellipse cx="1.21364" cy="73.2898" rx="1.21364" ry="1.21364" class="st3"/>
				</g>
				<g id="shape18540-69" v:mID="18540" v:groupContext="shape" transform="translate(2.17326E-14,-21.8455)">
					<title>Sheet.18540</title>
					<ellipse cx="1.21364" cy="73.2898" rx="1.21364" ry="1.21364" class="st3"/>
				</g>
			</g>
			<g id="shape18541-71" v:mID="18541" v:groupContext="shape" transform="translate(4.85455,-4.85455)">
				<title>Sheet.18541</title>
				<path d="M12.14 30.81 L31.55 30.81 L31.55 35.67 L12.14 35.67 L12.14 30.81 ZM12.14 69.65 L31.55 69.65 L31.55 74.5
							 L12.14 74.5 L12.14 69.65 ZM38.84 42.95 L43.69 42.95 L43.69 62.37 L38.84 62.37 L38.84 42.95 ZM0 42.95
							 L4.85 42.95 L4.85 62.37 L0 62.37 L0 42.95 Z" class="st4"/>
			</g>
		</g>
	</g>
</svg>
