<svg viewBox="0 0 50 50" class="" role="presentation" focusable="false" xmlns:svg="http://www.w3.org/2000/svg" xmlns:xlink="http://www.w3.org/1999/xlink" id="FxSymbol0-088" data-type="1"><g><title></title><path d="M13.7 27.8v5.4L1 22.4h49V6.2C50 2.6 47 0 43.4 0H6.3C2.6 0 0 2.2 0 5.9v5.9h36.6V6.4l12.7 10.8H0v14.9c0 3.7 2.7 7 6.3 7h13.4l11 10.8.1-10.8h12.5c3.7 0 6.7-2.9 6.7-6.6v-4.8H13.7z" class="msportalfx-svg-c10" fill="#ff8c00"></path><path d="M6.3 39.2H16l5.7-11.3h-8.1v5.4L1 22.4h23.3l2.8-5.2H0v14.9c0 3.7 2.7 7 6.3 7.1zM35.6 0H6.3C2.6 0 0 2.2 0 5.9v5.9h29.7L35.6 0z" opacity=".2" class="msportalfx-svg-c01" fill="#ffffff"></path></g><defs>
<linearGradient id="a" x1="9" y1="16.39" x2="9" y2="-1.94" gradientUnits="userSpaceOnUse"><stop offset="0" stop-color="#0078d4"></stop><stop offset=".16" stop-color="#1380da"></stop><stop offset=".53" stop-color="#3c91e5"></stop><stop offset=".82" stop-color="#559cec"></stop><stop offset="1" stop-color="#5ea0ef"></stop></linearGradient>
<linearGradient id="b" x1="9.88" y1="7.11" x2="9.99" y2="17.27" gradientUnits="userSpaceOnUse"><stop offset="0" stop-color="#32d4f5"></stop><stop offset=".32" stop-color="#31d1f3"></stop><stop offset=".53" stop-color="#2ec9eb"></stop><stop offset=".7" stop-color="#29bade"></stop><stop offset=".86" stop-color="#22a5cb"></stop><stop offset="1" stop-color="#198ab3"></stop><stop offset="1" stop-color="#198ab3"></stop></linearGradient>
<radialGradient id="c" cx="9.43" cy="7.03" r="7.27" gradientUnits="userSpaceOnUse"><stop offset="0" stop-color="#f2f2f2"></stop><stop offset=".58" stop-color="#eee"></stop><stop offset="1" stop-color="#e6e6e6"></stop></radialGradient>
</defs>
</svg>