<?xml version="1.0" encoding="iso-8859-1"?>
<!-- Generator: Adobe Illustrator 19.0.0, SVG Export Plug-In . SVG Version: 6.00 Build 0)  -->
<svg version="1.1" id="Layer_1" xmlns="http://www.w3.org/2000/svg" xmlns:xlink="http://www.w3.org/1999/xlink" x="0px" y="0px"
	 viewBox="0 0 496 496" style="enable-background:new 0 0 496 496;" xml:space="preserve">
<path style="fill:#FF9D00;" d="M264.8,298.1c4-12.8,7.2-27.2,8.8-44c2.4-28-132.8-20.8-198.4-20.8S36,251.7,36,294.9
	s52.8,78.4,118.4,78.4c21.6,0,40.8-4,56.8-12c3.2,15.2,23.2,19.2,42.4,19.2c20.8,0-2.4-16-2.4-34.4
	C252,334.9,260.8,313.3,264.8,298.1z"/>
<g>
	<path style="fill:#FF8500;" d="M247.2,299.7c4.8-12.8,7.2-27.2,8.8-44c2.4-28-116-22.4-181.6-22.4s-39.2,18.4-39.2,61.6
		s52.8,78.4,118.4,78.4c21.6,0,40.8-4,56.8-12c3.2,15.2,23.2,19.2,42.4,19.2c20.8,0-2.4-16-2.4-34.4
		C252,334.9,243.2,314.1,247.2,299.7z"/>
	<path style="fill:#FF8500;" d="M382.4,233.3c0,4-3.2,7.2-7.2,7.2l0,0c-4,0-7.2-3.2-7.2-7.2v-36.8c0-4,3.2-7.2,7.2-7.2l0,0
		c4,0,7.2,3.2,7.2,7.2V233.3z"/>
	<path style="fill:#FF8500;" d="M84.8,322.1c0,24-15.2,44-32.8,44H36.8c-18.4,0-32.8-20-32.8-44l0,0c0-24,15.2-44,32.8-44h14.4
		C69.6,278.1,84.8,298.1,84.8,322.1L84.8,322.1z"/>
</g>
<path style="fill:#203547;" d="M492.8,382.9c0,31.2-25.6,56.8-56.8,56.8s-56.8-25.6-56.8-56.8s25.6-56.8,56.8-56.8
	C468,326.1,492.8,351.7,492.8,382.9z"/>
<path style="fill:#122130;" d="M476.8,342.9c22.4,22.4,22.4,58.4,0,80c-22.4,22.4-58.4,22.4-80,0"/>
<circle style="fill:#FFA300;" cx="436" cy="382.9" r="36"/>
<path style="fill:#FF8500;" d="M461.6,358.1c13.6,13.6,13.6,36.8,0,50.4s-36.8,13.6-50.4,0"/>
<circle style="fill:#CED8DD;" cx="436" cy="382.9" r="31.2"/>
<path style="fill:#B2BBC1;" d="M458.4,361.3c12,12,12,32,0,44s-32,12-44,0"/>
<path style="opacity:0.2;fill:#888F91;enable-background:new    ;" d="M451.2,382.9c0,8-6.4,16.8-14.4,16.8s-14.4-8.8-14.4-16.8
	s6.4-14.4,14.4-14.4C444,368.5,451.2,374.9,451.2,382.9z"/>
<circle style="fill:#E7EFF2;" cx="436" cy="382.9" r="14.4"/>
<path style="fill:#DAE6EA;" d="M436,368.5c8,0,14.4,6.4,14.4,14.4s-6.4,14.4-14.4,14.4"/>
<path style="fill:#666E70;" d="M436,351.7c-1.6,0-3.2,0-4,0c0.8,4.8,2.4,8,4,8s4-3.2,4-8C439.2,351.7,437.6,351.7,436,351.7z"/>
<path style="fill:#535A5B;" d="M436,359.7c1.6,0,4-3.2,4-8c-1.6,0-2.4,0-4,0"/>
<path style="fill:#666E70;" d="M432,414.1c2.4,0,5.6,0,8,0c-0.8-4.8-2.4-8-4-8S432.8,409.3,432,414.1z"/>
<path style="fill:#535A5B;" d="M440.8,414.1c-0.8-4.8-2.4-8-4-8"/>
<path style="fill:#666E70;" d="M411.2,364.5c4,2.4,7.2,4,8.8,2.4c1.6-1.6,0-4.8-2.4-8.8C415.2,359.7,412.8,362.1,411.2,364.5z"/>
<path style="fill:#535A5B;" d="M420,366.9c1.6-1.6,0-4.8-2.4-8.8"/>
<path style="fill:#B2BBC1;" d="M441.6,378.9c2.4,3.2,1.6,7.2-1.6,9.6l0,0c-3.2,2.4-7.2,1.6-9.6-1.6L400,346.1
	c-2.4-3.2-1.6-7.2,1.6-9.6l0,0c3.2-2.4,7.2-1.6,9.6,1.6L441.6,378.9z"/>
<path style="fill:#666E70;" d="M460.8,402.1c-3.2-2.4-7.2-4-8-2.4c-1.6,1.6,0,4.8,2.4,8c0.8-0.8,2.4-1.6,3.2-2.4
	S460,402.9,460.8,402.1z"/>
<path style="fill:#535A5B;" d="M458.4,405.3c0.8-0.8,1.6-2.4,2.4-3.2c-3.2-2.4-7.2-4-8-2.4"/>
<path style="fill:#666E70;" d="M405.6,386.9c4.8-0.8,8-2.4,8-4s-3.2-4-8-4c0,1.6,0,2.4,0,4C404.8,384.5,404.8,386.1,405.6,386.9z"/>
<path style="fill:#535A5B;" d="M412.8,382.9c0-1.6-3.2-4-8-4c0,1.6,0,2.4,0,4"/>
<path style="fill:#666E70;" d="M459.2,382.9c0,1.6,3.2,3.2,8,4c0-2.4,0-5.6,0-8C462.4,379.7,459.2,381.3,459.2,382.9z"/>
<path style="fill:#535A5B;" d="M467.2,378.9c-4.8,0.8-8,2.4-8,4"/>
<path style="fill:#666E70;" d="M411.2,402.1c1.6,2.4,4,4,5.6,5.6c2.4-3.2,4-7.2,2.4-8.8C418.4,398.1,415.2,398.9,411.2,402.1z"/>
<path style="fill:#535A5B;" d="M417.6,407.7c2.4-3.2,4-7.2,2.4-8.8"/>
<path style="fill:#666E70;" d="M455.2,358.1c-2.4,3.2-4,7.2-2.4,8.8c1.6,1.6,4.8,0,8.8-2.4C459.2,362.1,457.6,359.7,455.2,358.1z"/>
<path style="fill:#535A5B;" d="M455.2,358.1c-2.4,3.2-4,7.2-2.4,8.8"/>
<path d="M182.4,379.7c0,1.6-1.6,3.2-3.2,3.2h-152c-1.6,0-3.2-1.6-3.2-3.2l0,0c0-1.6,1.6-3.2,3.2-3.2H180
	C181.6,376.5,182.4,378.1,182.4,379.7L182.4,379.7z"/>
<path d="M36.8,377.3c0-36.8,29.6-67.2,67.2-67.2c36.8,0,67.2,29.6,67.2,67.2"/>
<path style="fill:#8E8E8E;" d="M172.8,377.3h-5.6c0-35.2-28.8-64-64-64s-64,28.8-64,64h-5.6c0-38.4,31.2-69.6,69.6-69.6
	S172.8,338.9,172.8,377.3z"/>
<circle style="fill:#203547;" cx="103.2" cy="379.7" r="60"/>
<path style="fill:#122130;" d="M145.6,337.3c23.2,23.2,23.2,61.6,0,85.6c-23.2,23.2-61.6,23.2-85.6,0"/>
<circle style="fill:#FFA300;" cx="103.2" cy="379.7" r="37.6"/>
<path style="fill:#FF8500;" d="M130.4,352.5c15.2,15.2,15.2,39.2,0,53.6c-14.4,15.2-39.2,15.2-53.6,0"/>
<circle style="fill:#CED8DD;" cx="103.2" cy="379.7" r="32.8"/>
<path style="fill:#B2BBC1;" d="M126.4,356.5c12.8,12.8,12.8,33.6,0,47.2c-12.8,12.8-33.6,12.8-47.2,0"/>
<path style="opacity:0.2;fill:#888F91;enable-background:new    ;" d="M118.4,379.7c0,8.8-7.2,17.6-15.2,17.6
	c-8.8,0-15.2-9.6-15.2-17.6c0-8.8,7.2-15.2,15.2-15.2C112,364.5,118.4,370.9,118.4,379.7z"/>
<path style="fill:#E7EFF2;" d="M118.4,379.7c0,8.8-7.2,15.2-15.2,15.2c-8.8,0-15.2-7.2-15.2-15.2c0-8.8,7.2-15.2,15.2-15.2
	C112,364.5,118.4,370.9,118.4,379.7z"/>
<path style="fill:#DAE6EA;" d="M103.2,364.5c8.8,0,15.2,7.2,15.2,15.2c0,8.8-7.2,15.2-15.2,15.2"/>
<path style="fill:#666E70;" d="M103.2,346.1c-1.6,0-3.2,0-4.8,0c0.8,4.8,2.4,8,4.8,8s4-3.2,4.8-8
	C106.4,346.9,104.8,346.1,103.2,346.1z"/>
<path style="fill:#535A5B;" d="M103.2,354.9c2.4,0,4-3.2,4.8-8c-1.6,0-3.2,0-4.8,0"/>
<path style="fill:#666E70;" d="M99.2,412.5c3.2,0,5.6,0,8.8,0c-0.8-4.8-2.4-8-4.8-8C100.8,404.5,99.2,407.7,99.2,412.5z"/>
<path style="fill:#535A5B;" d="M108,412.5c-0.8-4.8-2.4-8-4.8-8"/>
<path style="fill:#666E70;" d="M76.8,359.7c4,3.2,7.2,4,8.8,2.4c1.6-1.6,0-4.8-2.4-8.8C80.8,354.9,78.4,357.3,76.8,359.7z"/>
<path style="fill:#535A5B;" d="M85.6,362.1c1.6-1.6,0-4.8-2.4-8.8"/>
<path style="fill:#666E70;" d="M129.6,399.7c-4-3.2-7.2-4-8.8-2.4c-1.6,1.6,0,4.8,2.4,8.8c0.8-0.8,2.4-1.6,3.2-3.2
	C128,402.1,128.8,400.5,129.6,399.7z"/>
<path style="fill:#535A5B;" d="M126.4,402.9c0.8-0.8,1.6-2.4,3.2-3.2c-4-3.2-7.2-4-8.8-2.4"/>
<path style="fill:#666E70;" d="M70.4,383.7c4.8-0.8,8-2.4,8-4.8s-3.2-4-8-4.8c0,1.6,0,3.2,0,4.8S70.4,382.9,70.4,383.7z"/>
<path style="fill:#535A5B;" d="M78.4,379.7c0-2.4-3.2-4-8-4.8c0,1.6,0,3.2,0,4.8"/>
<path style="fill:#666E70;" d="M128,379.7c0,2.4,3.2,4,8,4.8c0.8-3.2,0.8-5.6,0-8.8C131.2,375.7,128,377.3,128,379.7z"/>
<path style="fill:#535A5B;" d="M136,374.9c-4.8,0.8-8,2.4-8,4.8"/>
<path style="fill:#666E70;" d="M76.8,399.7c1.6,2.4,4,4.8,6.4,6.4c3.2-4,4-7.2,2.4-8.8C84,395.7,80.8,396.5,76.8,399.7z"/>
<path style="fill:#535A5B;" d="M83.2,406.1c3.2-4,4-7.2,2.4-8.8"/>
<path style="fill:#666E70;" d="M123.2,353.3c-3.2,4-4,7.2-2.4,8.8c1.6,1.6,4.8,0,8.8-2.4C128,357.3,125.6,354.9,123.2,353.3z"/>
<path style="fill:#535A5B;" d="M123.2,353.3c-3.2,4-4,7.2-2.4,8.8"/>
<path style="fill:#FF9D00;" d="M496,358.9c-7.2-36.8-74.4-76-112.8-76c-39.2,0-12.8,39.2-20,76H496z"/>
<path style="fill:#FF8500;" d="M476.8,358.9c-7.2-38.4-52-74.4-91.2-74.4s-34.4,36-42.4,74.4H476.8z"/>
<path style="fill:#8C5218;" d="M260.8,230.9c0,4.8-4,8.8-8.8,8.8H42.4c-4.8,0-8.8-4-8.8-8.8v-36c0-4.8,4-8.8,8.8-8.8l172.8,8.8
	c4.8,0,45.6-4.8,45.6,0L260.8,230.9L260.8,230.9z"/>
<path style="fill:#6B3E15;" d="M260.8,230.9c0,4.8-4,8.8-8.8,8.8H42.4c-4.8,0-8.8-4-8.8-8.8l6.4-21.6c0-4.8,4-8.8,8.8-8.8l166.4-4.8
	c4.8,0,45.6-4.8,45.6,0V230.9z"/>
<path style="fill:#FF8500;" d="M404.8,294.1c0,5.6-39.2,91.2-44.8,91.2h-20.8c-5.6,0-10.4-4.8-10.4-10.4l20-115.2
	c0-5.6,11.2-43.2,16.8-43.2H380c5.6,0,10.4,4.8,10.4,10.4L404.8,294.1z"/>
<path style="fill:#FF9D00;" d="M380,216.5h-14.4c-1.6,0-2.4,1.6-4,4.8c0.8,1.6,1.6,3.2,1.6,5.6l-12.8,148c0,4.8-7.2,8.8-13.6,9.6
	c0.8,0,1.6,0.8,2.4,0.8H360c5.6,0,16.8-4.8,16.8-10.4l12.8-148C389.6,221.3,385.6,216.5,380,216.5z"/>
<path style="fill:#FFB000;" d="M224.8,378.1c-10.4-51.2-72.8-99.2-127.2-99.2s-82.4,48-92.8,99.2L224.8,378.1L224.8,378.1z"/>
<g>
	<path style="fill:#FF9D00;" d="M224.8,378.1c-10.4-51.2-72.8-88.8-127.2-88.8S14.4,326.1,4,378.1H224.8z"/>
	<path style="fill:#FF9D00;" d="M353.6,377.3c0,4-3.2,8-8,8H8c-4,0-8-3.2-8-8v-2.4c0-4,3.2-8,8-8h338.4c4,0,8,3.2,8,8v2.4H353.6z"/>
	<path style="fill:#FF9D00;" d="M402.4,138.9c-3.2-0.8-7.2-0.8-11.2-0.8c-27.2,0-48.8,15.2-48.8,34.4c0,19.2,21.6,34.4,48.8,34.4
		c4,0,7.2,0,11.2-0.8V138.9z"/>
</g>
<path style="fill:#FF8500;" d="M406.4,199.7c0,3.2-3.2,6.4-6.4,6.4l0,0c-3.2,0-6.4-3.2-6.4-6.4v-54.4c0-3.2,3.2-6.4,6.4-6.4l0,0
	c3.2,0,6.4,3.2,6.4,6.4V199.7z"/>
<g>
	<path style="fill:#FFB000;" d="M116,324.5c0,1.6-0.8,2.4-2.4,2.4H80c-1.6,0-2.4-0.8-2.4-2.4l0,0c0-1.6,0.8-2.4,2.4-2.4h33.6
		C114.4,322.1,116,322.9,116,324.5L116,324.5z"/>
	<path style="fill:#FFB000;" d="M116,338.1c0,1.6-0.8,2.4-2.4,2.4H80c-1.6,0-2.4-0.8-2.4-2.4l0,0c0-1.6,0.8-2.4,2.4-2.4h33.6
		C114.4,335.7,116,336.5,116,338.1L116,338.1z"/>
	<path style="fill:#FFB000;" d="M116,351.7c0,1.6-0.8,2.4-2.4,2.4H80c-1.6,0-2.4-0.8-2.4-2.4l0,0c0-1.6,0.8-2.4,2.4-2.4h33.6
		C114.4,349.3,116,350.1,116,351.7L116,351.7z"/>
</g>
<circle style="fill:#6B3E15;" cx="336.8" cy="163.7" r="16.8"/>
<circle style="fill:#824C20;" cx="328.8" cy="163.7" r="12.8"/>
<path style="fill:#768689;" d="M367.2,153.3c-3.2,0-5.6-2.4-5.6-5.6v-31.2l-20.8-20.8c-2.4-2.4-2.4-5.6,0-8s5.6-2.4,8,0l22.4,22.4
	c0.8,0.8,1.6,2.4,1.6,4v33.6C372.8,150.9,370.4,153.3,367.2,153.3z"/>
<path style="fill:#FF9D00;" d="M327.2,55.7v48.8c11.2-2.4,19.2-12.8,19.2-24.8C347.2,67.7,338.4,58.1,327.2,55.7z"/>
<g>
</g>
<g>
</g>
<g>
</g>
<g>
</g>
<g>
</g>
<g>
</g>
<g>
</g>
<g>
</g>
<g>
</g>
<g>
</g>
<g>
</g>
<g>
</g>
<g>
</g>
<g>
</g>
<g>
</g>
</svg>
