<?xml version="1.0" encoding="UTF-8" standalone="no"?>
<!DOCTYPE svg PUBLIC "-//W3C//DTD SVG 1.1//EN" "http://www.w3.org/Graphics/SVG/1.1/DTD/svg11.dtd">
<!-- Generated by Microsoft Visio, SVG Export Sensing.svg Page-1 -->
<svg xmlns="http://www.w3.org/2000/svg" xmlns:xlink="http://www.w3.org/1999/xlink" xmlns:ev="http://www.w3.org/2001/xml-events"
		xmlns:v="http://schemas.microsoft.com/visio/2003/SVGExtensions/" width="11in" height="8.5in" viewBox="0 0 792 612"
		xml:space="preserve" color-interpolation-filters="sRGB" class="st21">
	<v:documentProperties v:langID="1033" v:viewMarkup="false">
		<v:userDefs>
			<v:ud v:nameU="msvSubprocessMaster" v:prompt="" v:val="VT4(Rectangle)"/>
			<v:ud v:nameU="msvNoAutoConnect" v:val="VT0(1):26"/>
		</v:userDefs>
	</v:documentProperties>

	<style type="text/css">
	<![CDATA[
		.st1 {fill:#efefef;stroke:none;stroke-width:0.75}
		.st2 {fill:#dcdddd;stroke:none;stroke-width:0.75}
		.st3 {stroke:#dcdddd;stroke-linecap:butt;stroke-width:0.077175}
		.st4 {fill:#231815;stroke:none;stroke-width:0.75}
		.st5 {fill:#e2e2e2;stroke:none;stroke-width:0.75}
		.st6 {fill:#3e3a39;stroke:none;stroke-width:0.75}
		.st7 {fill:#036eb8;stroke:none;stroke-width:0.75}
		.st8 {fill:#c9caca;stroke:none;stroke-width:0.75}
		.st9 {fill:#b5b5b6;stroke:none;stroke-width:0.75}
		.st10 {fill:#6b868c;stroke:none;stroke-width:0.75}
		.st11 {fill:#788c8e;stroke:none;stroke-width:0.75}
		.st12 {fill:#657c7f;stroke:none;stroke-width:0.75}
		.st13 {fill:#678084;stroke:none;stroke-width:0.75}
		.st14 {fill:#6a8284;stroke:none;stroke-width:0.75}
		.st15 {fill:#b5b5b6;stroke:#f7f8f8;stroke-width:0.078225}
		.st16 {fill:#67726d;stroke:none;stroke-width:0.75}
		.st17 {fill:#efefef;stroke:#c9caca;stroke-width:0.077175}
		.st18 {fill:#efefef;stroke:#c9caca;stroke-width:0.0668951}
		.st19 {fill:#e83828;stroke:none;stroke-width:0.75}
		.st20 {fill:#727171;stroke:none;stroke-width:0.75}
		.st21 {fill:none;fill-rule:evenodd;font-size:12px;overflow:visible;stroke-linecap:square;stroke-miterlimit:3}
	]]>
	</style>

	<g v:mID="0" v:index="1" v:groupContext="foregroundPage">
		<v:userDefs>
			<v:ud v:nameU="msvThemeOrder" v:val="VT0(0):26"/>
		</v:userDefs>
		<title>Page-1</title>
		<v:pageProperties v:drawingScale="1" v:pageScale="1" v:drawingUnits="0" v:shadowOffsetX="9" v:shadowOffsetY="-9"/>
		<g id="group13383-1" transform="translate(18,-563.325)" v:mID="13383" v:groupContext="group">
			<title>Sensing</title>
			<g id="group13384-2" transform="translate(21.3,-5.925)" v:mID="13384" v:groupContext="group">
				<title>Sheet.13384</title>
				<g id="group13385-3" v:mID="13385" v:groupContext="group">
					<title>Sheet.13385</title>
					<g id="shape13386-4" v:mID="13386" v:groupContext="shape" transform="translate(0.375,0)">
						<title>Sheet.13386</title>
						<path d="M1.95 595.5 L0.45 595.5 C0.3 595.5 0.15 595.65 0.15 595.8 L0 611.7 C0 611.85 0.15 612 0.3 612 L2.1
									 612 C2.25 612 2.4 611.85 2.4 611.7 L2.25 595.8 C2.25 595.65 2.1 595.5 1.95 595.5 Z"
								class="st1"/>
					</g>
					<g id="shape13387-6" v:mID="13387" v:groupContext="shape" transform="translate(-4.2466E-15,-0.675)">
						<title>Sheet.13387</title>
						<path d="M1.5 612 L0 612 L0 610.13 L1.5 610.13 C2.03 610.13 2.48 610.58 2.48 611.1 C2.48 611.55 2.03 612
									 1.5 612 Z" class="st2"/>
					</g>
					<g id="shape13388-8" v:mID="13388" v:groupContext="shape" transform="translate(0.6,-15.975)">
						<title>Sheet.13388</title>
						<path d="M0 612 L2.02 612" class="st3"/>
					</g>
				</g>
				<g id="shape13389-11" v:mID="13389" v:groupContext="shape" transform="translate(0.375,-0.375)">
					<title>Sheet.13389</title>
					<path d="M0 612 L2.4 612" class="st3"/>
				</g>
			</g>
			<g id="group13390-14" transform="translate(-1.8735E-14,-6.075)" v:mID="13390" v:groupContext="group">
				<title>Sheet.13390</title>
				<g id="shape13391-15" v:mID="13391" v:groupContext="shape" transform="translate(0.375,-9.225)">
					<title>Sheet.13391</title>
					<path d="M1.73 612 L0.83 612 L0.83 611.62 C0.38 611.47 0 611.17 0 610.58 C0 609.97 0.53 609.53 0.83 609.3 L0.83
								 608.85 L1.73 608.77 L1.8 609.45 C1.8 609.6 1.73 609.83 1.58 609.9 C1.35 610.05 0.98 610.27 0.98
								 610.5 C0.98 610.65 1.28 610.72 1.43 610.72 C1.65 610.72 1.8 610.95 1.8 611.18 L1.73 612 Z"
							class="st4"/>
				</g>
				<g id="group13392-17" transform="translate(-8.26839E-14,-12.15)" v:mID="13392" v:groupContext="group">
					<title>Sheet.13392</title>
					<g id="shape13393-18" v:mID="13393" v:groupContext="shape" transform="translate(0.525,0)">
						<title>Sheet.13393</title>
						<path d="M1.8 612 L0.38 612 C0.3 612 0.22 611.92 0.22 611.85 L0 609.83 L2.1 609.83 L1.87 611.85 C1.95 611.93
									 1.87 612 1.8 612 Z" class="st1"/>
					</g>
					<g id="shape13394-20" v:mID="13394" v:groupContext="shape" transform="translate(0.525,-2.175)">
						<title>Sheet.13394</title>
						<rect x="0" y="610.575" width="2.1" height="1.425" class="st1"/>
					</g>
					<g id="shape13395-22" v:mID="13395" v:groupContext="shape" transform="translate(0.375,-3.375)">
						<title>Sheet.13395</title>
						<rect x="0" y="611.625" width="2.475" height="0.375" class="st5"/>
					</g>
					<g id="shape13396-24" v:mID="13396" v:groupContext="shape" transform="translate(0.075,-3.75)">
						<title>Sheet.13396</title>
						<path d="M2.93 612 L0.15 612 C0.08 612 0 611.92 0 611.85 L0 603.9 L3.08 603.9 L3.08 611.85 C3.08 611.93 3
									 612 2.93 612 Z" class="st2"/>
					</g>
					<g id="shape13397-26" v:mID="13397" v:groupContext="shape" transform="translate(-7.91867E-14,-3.75)">
						<title>Sheet.13397</title>
						<path d="M3 612 L0.15 612 C0.08 612 0 611.92 0 611.85 L0 610.12 C0 610.05 0.08 609.97 0.15 609.97 L3 609.97
									 C3.08 609.97 3.15 610.05 3.15 610.12 L3.15 611.85 C3.23 611.93 3.15 612 3 612 Z" class="st1"/>
					</g>
					<g id="shape13398-28" v:mID="13398" v:groupContext="shape" transform="translate(0.15,-5.85)">
						<title>Sheet.13398</title>
						<path d="M2.93 612 L0 612 L0 610.5 L0 610.2 L0 609.97 L2.93 609.97 L2.93 612 Z" class="st1"/>
					</g>
					<g id="shape13399-30" v:mID="13399" v:groupContext="shape" transform="translate(0.15,-7.35)">
						<title>Sheet.13399</title>
						<path d="M0.52 612 L0 612 L0 611.7 L0.52 611.7 C0.6 611.7 0.67 611.78 0.67 611.85 C0.67 611.92 0.6 612 0.52
									 612 Z" class="st6"/>
					</g>
					<g id="shape13400-32" v:mID="13400" v:groupContext="shape" transform="translate(0.6,-7.425)">
						<title>Sheet.13400</title>
						<ellipse cx="0.075" cy="611.925" rx="0.075" ry="0.075" class="st7"/>
					</g>
					<g id="shape13401-34" v:mID="13401" v:groupContext="shape" transform="translate(0.3,-7.875)">
						<title>Sheet.13401</title>
						<rect x="0" y="608.1" width="2.625" height="3.9" class="st8"/>
					</g>
					<g id="shape13402-36" v:mID="13402" v:groupContext="shape" transform="translate(0.15,-8.1)">
						<title>Sheet.13402</title>
						<path d="M2.85 612 L0.07 612 C0 612 0 612 0 611.92 L0 611.7 C0 611.62 0 611.62 0.07 611.62 L2.85 611.62 C2.92
									 611.62 2.92 611.62 2.92 611.7 L2.85 612 C2.92 612 2.85 612 2.85 612 Z" class="st9"/>
					</g>
					<g id="shape13403-38" v:mID="13403" v:groupContext="shape" transform="translate(0.15,-8.1)">
						<title>Sheet.13403</title>
						<path d="M2.85 612 L0.07 612 C0 612 0 612 0 611.92 L0 611.7 C0 611.62 0 611.62 0.07 611.62 L2.85 611.62 C2.92
									 611.62 2.92 611.62 2.92 611.7 L2.85 612 C2.92 611.92 2.85 612 2.85 612 Z" class="st1"/>
					</g>
					<g id="shape13404-40" v:mID="13404" v:groupContext="shape" transform="translate(0.15,-8.7)">
						<title>Sheet.13404</title>
						<path d="M2.85 612 L0.07 612 C0 612 0 612 0 611.92 L0 611.77 C0 611.7 0 611.7 0.07 611.7 L2.85 611.7 C2.92
									 611.7 2.92 611.7 2.92 611.77 L2.85 612 C2.92 612 2.85 612 2.85 612 Z" class="st9"/>
					</g>
					<g id="shape13405-42" v:mID="13405" v:groupContext="shape" transform="translate(0.15,-8.7)">
						<title>Sheet.13405</title>
						<path d="M2.85 612 L0.07 612 C0 612 0 612 0 611.92 L0 611.7 C0 611.62 0 611.62 0.07 611.62 L2.85 611.62 C2.92
									 611.62 2.92 611.62 2.92 611.7 L2.85 612 C2.92 611.92 2.85 612 2.85 612 Z" class="st1"/>
					</g>
					<g id="shape13406-44" v:mID="13406" v:groupContext="shape" transform="translate(0.15,-9.225)">
						<title>Sheet.13406</title>
						<path d="M2.85 612 L0.07 612 C0 612 0 612 0 611.92 L0 611.7 C0 611.62 0 611.62 0.07 611.62 L2.85 611.62 C2.92
									 611.62 2.92 611.62 2.92 611.7 L2.85 612 C2.92 611.92 2.85 612 2.85 612 Z" class="st9"/>
					</g>
					<g id="shape13407-46" v:mID="13407" v:groupContext="shape" transform="translate(0.15,-9.3)">
						<title>Sheet.13407</title>
						<path d="M2.85 612 L0.07 612 C0 612 0 612 0 611.92 L0 611.7 C0 611.62 0 611.62 0.07 611.62 L2.85 611.62 C2.92
									 611.62 2.92 611.62 2.92 611.7 L2.85 612 C2.92 612 2.85 612 2.85 612 Z" class="st1"/>
					</g>
					<g id="shape13408-48" v:mID="13408" v:groupContext="shape" transform="translate(0.15,-9.825)">
						<title>Sheet.13408</title>
						<path d="M2.85 612 L0.07 612 C0 612 0 612 0 611.92 L0 611.7 C0 611.62 0 611.62 0.07 611.62 L2.85 611.62 C2.92
									 611.62 2.92 611.62 2.92 611.7 L2.85 612 C2.92 612 2.85 612 2.85 612 Z" class="st9"/>
					</g>
					<g id="shape13409-50" v:mID="13409" v:groupContext="shape" transform="translate(0.15,-9.825)">
						<title>Sheet.13409</title>
						<path d="M2.85 612 L0.07 612 C0 612 0 612 0 611.92 L0 611.7 C0 611.62 0 611.62 0.07 611.62 L2.85 611.62 C2.92
									 611.62 2.92 611.62 2.92 611.7 L2.85 612 C2.92 611.92 2.85 612 2.85 612 Z" class="st1"/>
					</g>
					<g id="shape13410-52" v:mID="13410" v:groupContext="shape" transform="translate(0.15,-10.425)">
						<title>Sheet.13410</title>
						<path d="M2.85 612 L0.07 612 C0 612 0 612 0 611.92 L0 611.7 C0 611.62 0 611.62 0.07 611.62 L2.85 611.62 C2.92
									 611.62 2.92 611.62 2.92 611.7 L2.85 612 C2.92 612 2.85 612 2.85 612 Z" class="st9"/>
					</g>
					<g id="shape13411-54" v:mID="13411" v:groupContext="shape" transform="translate(0.15,-10.425)">
						<title>Sheet.13411</title>
						<path d="M2.85 612 L0.07 612 C0 612 0 612 0 611.92 L0 611.7 C0 611.62 0 611.62 0.07 611.62 L2.85 611.62 C2.92
									 611.62 2.92 611.62 2.92 611.7 L2.85 612 C2.92 611.92 2.85 612 2.85 612 Z" class="st1"/>
					</g>
					<g id="shape13412-56" v:mID="13412" v:groupContext="shape" transform="translate(0.15,-10.95)">
						<title>Sheet.13412</title>
						<path d="M2.85 612 L0.07 612 C0 612 0 612 0 611.92 L0 611.7 C0 611.62 0 611.62 0.07 611.62 L2.85 611.62 C2.92
									 611.62 2.92 611.62 2.92 611.7 L2.85 612 C2.92 611.92 2.85 612 2.85 612 Z" class="st9"/>
					</g>
					<g id="shape13413-58" v:mID="13413" v:groupContext="shape" transform="translate(0.15,-11.025)">
						<title>Sheet.13413</title>
						<path d="M2.85 612 L0.07 612 C0 612 0 612 0 611.92 L0 611.7 C0 611.62 0 611.62 0.07 611.62 L2.85 611.62 C2.92
									 611.62 2.92 611.62 2.92 611.7 L2.85 612 C2.92 612 2.85 612 2.85 612 Z" class="st1"/>
					</g>
					<g id="shape13414-60" v:mID="13414" v:groupContext="shape" transform="translate(0.15,-11.55)">
						<title>Sheet.13414</title>
						<path d="M2.85 612 L0.07 612 C0 612 0 612 0 611.92 L0 611.7 C0 611.62 0 611.62 0.07 611.62 L2.85 611.62 C2.92
									 611.62 2.92 611.62 2.92 611.7 L2.85 612 C2.92 611.92 2.85 612 2.85 612 Z" class="st9"/>
					</g>
					<g id="shape13415-62" v:mID="13415" v:groupContext="shape" transform="translate(0.075,-11.625)">
						<title>Sheet.13415</title>
						<path d="M3 612 L0.07 612 C0 612 0 612 0 611.92 L0 611.7 C0 611.62 0 611.62 0.07 611.62 L3 611.62 C3.08 611.62
									 3.08 611.62 3.08 611.7 L3 612 C3.08 612 3.08 612 3 612 Z" class="st1"/>
					</g>
					<g id="group13416-64" transform="translate(0.375,-11.925)" v:mID="13416" v:groupContext="group">
						<title>Sheet.13416</title>
						<g id="shape13417-65" v:mID="13417" v:groupContext="shape">
							<title>Sheet.13417</title>
						</g>
						<g id="shape13418-66" v:mID="13418" v:groupContext="shape">
							<title>Sheet.13418</title>
							<path d="M2.02 611.47 L0.53 611.47 C0.23 611.47 0 611.7 0 612 L0.97 612 C0.97 611.85 1.12 611.7 1.27
										 611.7 C1.42 611.7 1.57 611.85 1.57 612 L2.55 612 C2.55 611.7 2.32 611.47 2.02 611.47 Z"
									class="st5"/>
						</g>
					</g>
				</g>
				<g id="group13419-68" transform="translate(0.075,1.13687E-13)" v:mID="13419" v:groupContext="group">
					<title>Sheet.13419</title>
					<g id="shape13420-69" v:mID="13420" v:groupContext="shape" transform="translate(0.075,0)">
						<title>Sheet.13420</title>
						<path d="M2.63 612 L0.23 612 C0.07 612 0 611.92 0 611.77 L0 607.43 L2.78 607.43 L2.78 611.77 C2.85 611.92
									 2.78 612 2.63 612 Z" class="st1"/>
					</g>
					<g id="shape13421-71" v:mID="13421" v:groupContext="shape" transform="translate(-7.24421E-15,-4.575)">
						<title>Sheet.13421</title>
						<path d="M2.85 612 L0.15 612 C0.08 612 0 611.92 0 611.85 C0 611.77 0.08 611.7 0.15 611.7 L2.85 611.7 C2.93
									 611.7 3 611.78 3 611.85 C3 611.92 2.93 612 2.85 612 Z" class="st6"/>
					</g>
					<g id="shape13422-73" v:mID="13422" v:groupContext="shape" transform="translate(0.225,-4.95)">
						<title>Sheet.13422</title>
						<rect x="0" y="611.1" width="2.625" height="0.9" class="st10"/>
					</g>
					<g id="shape13423-75" v:mID="13423" v:groupContext="shape" transform="translate(0.45,-7.125)">
						<title>Sheet.13423</title>
						<path d="M2.25 612 L0 612 C0 611.7 0.3 611.4 0.6 611.4 L1.65 611.4 C1.95 611.4 2.25 611.62 2.25 612 Z"
								class="st10"/>
					</g>
					<g id="shape13424-77" v:mID="13424" v:groupContext="shape" transform="translate(0.225,-5.85)">
						<title>Sheet.13424</title>
						<path d="M2.63 612 L0 612 L0 610.95 C0 610.8 0.08 610.72 0.22 610.72 L2.47 610.72 C2.63 610.72 2.7 610.8
									 2.7 610.95 L2.63 612 Z" class="st11"/>
					</g>
					<g id="shape13425-79" v:mID="13425" v:groupContext="shape" transform="translate(1.95,-4.95)">
						<title>Sheet.13425</title>
						<rect x="0" y="611.1" width="0.9" height="0.9" class="st12"/>
					</g>
					<g id="shape13426-81" v:mID="13426" v:groupContext="shape" transform="translate(0.225,-4.95)">
						<title>Sheet.13426</title>
						<rect x="0" y="611.1" width="0.9" height="0.9" class="st12"/>
					</g>
					<g id="shape13427-83" v:mID="13427" v:groupContext="shape" transform="translate(0.9,-5.85)">
						<title>Sheet.13427</title>
						<path d="M1.05 612 L0 612 L0 611.17 C0 610.95 0.15 610.8 0.38 610.8 L0.67 610.8 C0.9 610.8 1.05 610.95 1.05
									 611.17 L1.05 612 Z" class="st13"/>
					</g>
					<g id="shape13428-85" v:mID="13428" v:groupContext="shape" transform="translate(0.15,-5.85)">
						<title>Sheet.13428</title>
						<path d="M0.3 610.8 L0.08 610.8 C0.08 610.8 0 610.88 0 610.95 L0 612 L0.6 612 L0.6 611.17 C0.68 610.95 0.52
									 610.8 0.3 610.8 Z" class="st14"/>
					</g>
					<g id="shape13429-87" v:mID="13429" v:groupContext="shape" transform="translate(1.95,-5.85)">
						<title>Sheet.13429</title>
						<path d="M0.9 610.95 C0.82 610.87 0.75 610.8 0.67 610.8 L0.37 610.8 C0.15 610.8 0 610.95 0 611.17 L0 612
									 L0.9 612 L0.9 610.95 Z" class="st12"/>
					</g>
					<g id="shape13430-89" v:mID="13430" v:groupContext="shape" transform="translate(1.05,-7.8)">
						<title>Sheet.13430</title>
						<rect x="0" y="610.5" width="1.05" height="1.5" class="st6"/>
					</g>
					<g id="shape13431-91" v:mID="13431" v:groupContext="shape" transform="translate(2.1,-0.675)">
						<title>Sheet.13431</title>
						<path d="M1.2 612 L0.9 612 C0.45 612 0 611.62 0 611.1 C0 610.65 0.38 610.2 0.9 610.2 L1.2 610.2 L1.2 612 Z"
								class="st5"/>
					</g>
				</g>
			</g>
			<g id="group13432-93" transform="translate(3.375,1.13687E-13)" v:mID="13432" v:groupContext="group">
				<title>Sheet.13432</title>
				<g id="shape13433-94" v:mID="13433" v:groupContext="shape">
					<title>Sheet.13433</title>
					<path d="M17.4 612 L0.6 612 C0.3 612 0 611.77 0 611.4 L0 600.07 C0 599.77 0.22 599.47 0.6 599.47 L17.4 599.47
								 C17.7 599.47 18 599.7 18 600.07 L18 611.4 C18 611.7 17.7 612 17.4 612 Z" class="st1"/>
				</g>
				<g id="shape13434-96" v:mID="13434" v:groupContext="shape" transform="translate(0.975,-2.7)">
					<title>Sheet.13434</title>
					<path d="M15.67 612 L0.3 612 C0.15 612 0 611.85 0 611.7 L0 603.45 C0 603.3 0.15 603.15 0.3 603.15 L15.67 603.15
								 C15.82 603.15 15.97 603.3 15.97 603.45 L15.97 611.7 C16.05 611.85 15.9 612 15.67 612 Z"
							class="st15"/>
				</g>
				<g id="shape13435-98" v:mID="13435" v:groupContext="shape" transform="translate(1.2,-2.85)">
					<title>Sheet.13435</title>
					<path d="M15.22 612 L0.3 612 C0.15 612 0 611.85 0 611.7 L0 603.83 C0 603.68 0.15 603.53 0.3 603.53 L15.22 603.53
								 C15.37 603.53 15.52 603.68 15.52 603.83 L15.52 611.7 C15.52 611.85 15.45 612 15.22 612 Z"
							class="st16"/>
				</g>
				<g id="shape13436-100" v:mID="13436" v:groupContext="shape" transform="translate(13.5,-0.45)">
					<title>Sheet.13436</title>
					<path d="M2.63 612 L0.22 612 C0.07 612 0 611.85 0 611.77 L0 610.58 C0 610.42 0.15 610.35 0.22 610.35 L2.63 610.35
								 C2.77 610.35 2.85 610.5 2.85 610.58 L2.85 611.77 C2.92 611.85 2.77 612 2.63 612 Z" class="st17"/>
				</g>
				<g id="shape13437-102" v:mID="13437" v:groupContext="shape" transform="translate(1.575,-0.45)">
					<title>Sheet.13437</title>
					<path d="M1.95 612 L0.22 612 C0.07 612 0 611.92 0 611.77 L0 610.5 C0 610.35 0.08 610.28 0.22 610.28 L1.95 610.28
								 C2.1 610.28 2.17 610.35 2.17 610.5 L2.17 611.77 C2.17 611.85 2.1 612 1.95 612 Z" class="st18"/>
				</g>
				<g id="shape13438-104" v:mID="13438" v:groupContext="shape" transform="translate(4.575,-0.45)">
					<title>Sheet.13438</title>
					<path d="M1.95 612 L0.23 612 C0.07 612 0 611.92 0 611.77 L0 610.5 C0 610.35 0.08 610.28 0.23 610.28 L1.95 610.28
								 C2.1 610.28 2.17 610.35 2.17 610.5 L2.17 611.77 C2.17 611.85 2.1 612 1.95 612 Z" class="st18"/>
				</g>
				<g id="shape13439-106" v:mID="13439" v:groupContext="shape" transform="translate(7.575,-0.45)">
					<title>Sheet.13439</title>
					<path d="M1.95 612 L0.22 612 C0.07 612 0 611.92 0 611.77 L0 610.5 C0 610.35 0.07 610.28 0.22 610.28 L1.95 610.28
								 C2.1 610.28 2.17 610.35 2.17 610.5 L2.17 611.77 C2.17 611.85 2.02 612 1.95 612 Z" class="st18"/>
				</g>
				<g id="shape13440-108" v:mID="13440" v:groupContext="shape" transform="translate(10.575,-0.45)">
					<title>Sheet.13440</title>
					<path d="M1.95 612 L0.22 612 C0.07 612 0 611.92 0 611.77 L0 610.5 C0 610.35 0.08 610.28 0.22 610.28 L1.95 610.28
								 C2.1 610.28 2.17 610.35 2.17 610.5 L2.17 611.77 C2.17 611.85 2.02 612 1.95 612 Z" class="st18"/>
				</g>
				<g id="shape13441-110" v:mID="13441" v:groupContext="shape" transform="translate(14.475,-0.75)">
					<title>POWER_3_</title>
					<path d="M0.53 612 C0.23 612 0 611.77 0 611.47 C0 611.25 0.15 611.1 0.3 611.02 C0.3 611.02 0.37 611.02 0.37 611.1
								 L0.37 611.18 C0.22 611.25 0.15 611.4 0.15 611.55 C0.15 611.77 0.3 611.92 0.53 611.92 C0.75 611.92
								 0.9 611.77 0.9 611.55 C0.9 611.4 0.83 611.25 0.68 611.18 C0.68 611.18 0.68 611.18 0.68 611.1 C0.68
								 611.1 0.68 611.02 0.75 611.02 C0.9 611.1 1.05 611.25 1.05 611.47 C1.05 611.77 0.83 612 0.53 612
								 ZM0.53 611.4 C0.53 611.4 0.45 611.4 0.53 611.4 L0.45 611.02 L0.45 610.95 L0.45 610.87 C0.45 610.87
								 0.45 610.8 0.53 610.8 C0.6 610.8 0.6 610.8 0.6 610.87 L0.6 611.02 L0.6 611.1 L0.53 611.4 C0.6 611.4
								 0.53 611.4 0.53 611.4 Z" class="st19"/>
				</g>
				<g id="shape13442-112" v:mID="13442" v:groupContext="shape" transform="translate(13.425,-9.675)">
					<title>Sheet.13442</title>
					<path d="M0.15 611.85 L1.35 611.85 L1.35 611.33 L0.15 611.33 L0.15 611.85 ZM1.42 611.92 L0 611.92 L0 611.17 L1.42
								 611.17 L1.42 611.92 ZM1.58 611.25 L1.58 611.02 L0 611.02 L0 612 L1.58 612 L1.58 611.77 L1.65 611.77
								 L1.58 611.25 Z" class="st20"/>
				</g>
				<g id="shape13443-114" v:mID="13443" v:groupContext="shape" transform="translate(13.425,-9.75)">
					<title>Sheet.13443</title>
					<path d="M0.15 611.77 L1.35 611.77 L1.35 611.25 L0.15 611.25 L0.15 611.77 ZM1.42 611.85 L0 611.85 L0 611.1 L1.42
								 611.1 L1.42 611.85 ZM1.58 611.25 L1.58 611.02 L0 611.02 L0 612 L1.58 612 L1.58 611.77 L1.65 611.77
								 L1.58 611.25 Z" class="st6"/>
				</g>
				<g id="group13444-116" transform="translate(3.45,-4.575)" v:mID="13444" v:groupContext="group">
					<title>Sheet.13444</title>
					<g id="shape13445-117" v:mID="13445" v:groupContext="shape" transform="translate(-2.8727E-15,-1.875)">
						<title>Sheet.13445</title>
						<path d="M0.3 611.85 L0.15 612 L0 611.85 L0 610.57 L0.15 610.42 L0.3 610.57 L0.3 611.85 Z" class="st20"/>
					</g>
					<g id="shape13446-119" v:mID="13446" v:groupContext="shape" transform="translate(0.225,-3.375)">
						<title>Sheet.13446</title>
						<path d="M1.42 611.7 L1.57 611.85 L1.42 612 L0.15 612 L0 611.85 L0.15 611.7 L1.42 611.7 Z" class="st20"/>
					</g>
					<g id="shape13447-121" v:mID="13447" v:groupContext="shape" transform="translate(0.225,-1.65)">
						<title>Sheet.13447</title>
						<path d="M1.42 611.62 L1.57 611.77 L1.42 612 L0.15 612 L0 611.77 L0.15 611.62 L1.42 611.62 Z" class="st20"/>
					</g>
					<g id="shape13448-123" v:mID="13448" v:groupContext="shape" transform="translate(0.225,0)">
						<title>Sheet.13448</title>
						<path d="M1.42 611.7 L1.57 611.85 L1.42 612 L0.15 612 L0 611.85 L0.15 611.7 L1.42 611.7 Z" class="st20"/>
					</g>
					<g id="shape13449-125" v:mID="13449" v:groupContext="shape" transform="translate(-2.8727E-15,-0.225)">
						<title>Sheet.13449</title>
						<path d="M0.3 611.85 L0.15 612 L0 611.85 L0 610.57 L0.15 610.42 L0.3 610.57 L0.3 611.85 Z" class="st20"/>
					</g>
					<g id="shape13450-127" v:mID="13450" v:groupContext="shape" transform="translate(1.725,-1.875)">
						<title>Sheet.13450</title>
						<path d="M0.37 611.85 L0.15 612 L0 611.85 L0 610.57 L0.15 610.42 L0.37 610.57 L0.37 611.85 Z" class="st20"/>
					</g>
					<g id="shape13451-129" v:mID="13451" v:groupContext="shape" transform="translate(1.725,-0.225)">
						<title>Sheet.13451</title>
						<path d="M0.37 611.85 L0.15 612 L0 611.85 L0 610.57 L0.15 610.42 L0.37 610.57 L0.37 611.85 Z" class="st20"/>
					</g>
					<g id="shape13452-131" v:mID="13452" v:groupContext="shape" transform="translate(2.7,-1.875)">
						<title>Sheet.13452</title>
						<path d="M0.3 611.85 L0.15 612 L0 611.85 L0 610.57 L0.15 610.42 L0.3 610.57 L0.3 611.85 Z" class="st20"/>
					</g>
					<g id="shape13453-133" v:mID="13453" v:groupContext="shape" transform="translate(2.925,-3.375)">
						<title>Sheet.13453</title>
						<path d="M1.42 611.7 L1.58 611.85 L1.42 612 L0.15 612 L0 611.85 L0.15 611.7 L1.42 611.7 Z" class="st20"/>
					</g>
					<g id="shape13454-135" v:mID="13454" v:groupContext="shape" transform="translate(2.925,-1.65)">
						<title>Sheet.13454</title>
						<path d="M1.42 611.62 L1.58 611.77 L1.42 612 L0.15 612 L0 611.77 L0.15 611.62 L1.42 611.62 Z" class="st20"/>
					</g>
					<g id="shape13455-137" v:mID="13455" v:groupContext="shape" transform="translate(2.925,0)">
						<title>Sheet.13455</title>
						<path d="M1.42 611.7 L1.58 611.85 L1.42 612 L0.15 612 L0 611.85 L0.15 611.7 L1.42 611.7 Z" class="st20"/>
					</g>
					<g id="shape13456-139" v:mID="13456" v:groupContext="shape" transform="translate(2.7,-0.225)">
						<title>Sheet.13456</title>
						<path d="M0.3 611.85 L0.15 612 L0 611.85 L0 610.57 L0.15 610.42 L0.3 610.57 L0.3 611.85 Z" class="st20"/>
					</g>
					<g id="shape13457-141" v:mID="13457" v:groupContext="shape" transform="translate(4.425,-1.875)">
						<title>Sheet.13457</title>
						<path d="M0.3 611.85 L0.15 612 L0 611.85 L0 610.57 L0.15 610.42 L0.3 610.57 L0.3 611.85 Z" class="st20"/>
					</g>
					<g id="shape13458-143" v:mID="13458" v:groupContext="shape" transform="translate(4.425,-0.225)">
						<title>Sheet.13458</title>
						<path d="M0.3 611.85 L0.15 612 L0 611.85 L0 610.57 L0.15 610.42 L0.3 610.57 L0.3 611.85 Z" class="st20"/>
					</g>
					<g id="shape13459-145" v:mID="13459" v:groupContext="shape" transform="translate(5.325,-1.875)">
						<title>Sheet.13459</title>
						<path d="M0.37 611.85 L0.15 612 L0 611.85 L0 610.57 L0.15 610.42 L0.37 610.57 L0.37 611.85 Z" class="st20"/>
					</g>
					<g id="shape13460-147" v:mID="13460" v:groupContext="shape" transform="translate(5.625,-3.375)">
						<title>Sheet.13460</title>
						<path d="M1.42 611.7 L1.5 611.85 L1.42 612 L0.07 612 L0 611.85 L0.07 611.7 L1.42 611.7 Z" class="st20"/>
					</g>
					<g id="shape13461-149" v:mID="13461" v:groupContext="shape" transform="translate(5.625,-1.65)">
						<title>Sheet.13461</title>
						<path d="M1.42 611.62 L1.5 611.77 L1.42 612 L0.07 612 L0 611.77 L0.07 611.62 L1.42 611.62 Z" class="st20"/>
					</g>
					<g id="shape13462-151" v:mID="13462" v:groupContext="shape" transform="translate(5.625,0)">
						<title>Sheet.13462</title>
						<path d="M1.42 611.7 L1.5 611.85 L1.42 612 L0.07 612 L0 611.85 L0.07 611.7 L1.42 611.7 Z" class="st20"/>
					</g>
					<g id="shape13463-153" v:mID="13463" v:groupContext="shape" transform="translate(5.325,-0.225)">
						<title>Sheet.13463</title>
						<path d="M0.37 611.85 L0.15 612 L0 611.85 L0 610.57 L0.15 610.42 L0.37 610.57 L0.37 611.85 Z" class="st20"/>
					</g>
					<g id="shape13464-155" v:mID="13464" v:groupContext="shape" transform="translate(7.125,-1.875)">
						<title>Sheet.13464</title>
						<path d="M0.3 611.85 L0.15 612 L0 611.85 L0 610.57 L0.15 610.42 L0.3 610.57 L0.3 611.85 Z" class="st20"/>
					</g>
					<g id="shape13465-157" v:mID="13465" v:groupContext="shape" transform="translate(7.125,-0.225)">
						<title>Sheet.13465</title>
						<path d="M0.3 611.85 L0.15 612 L0 611.85 L0 610.57 L0.15 610.42 L0.3 610.57 L0.3 611.85 Z" class="st20"/>
					</g>
					<g id="shape13466-159" v:mID="13466" v:groupContext="shape" transform="translate(8.025,-1.875)">
						<title>Sheet.13466</title>
						<path d="M0.3 611.85 L0.15 612 L0 611.85 L0 610.57 L0.15 610.42 L0.3 610.57 L0.3 611.85 Z" class="st20"/>
					</g>
					<g id="shape13467-161" v:mID="13467" v:groupContext="shape" transform="translate(8.25,-3.375)">
						<title>Sheet.13467</title>
						<path d="M1.42 611.7 L1.58 611.85 L1.42 612 L0.15 612 L0 611.85 L0.15 611.7 L1.42 611.7 Z" class="st20"/>
					</g>
					<g id="shape13468-163" v:mID="13468" v:groupContext="shape" transform="translate(8.25,-1.65)">
						<title>Sheet.13468</title>
						<path d="M1.42 611.62 L1.58 611.77 L1.42 612 L0.15 612 L0 611.77 L0.15 611.62 L1.42 611.62 Z" class="st20"/>
					</g>
					<g id="shape13469-165" v:mID="13469" v:groupContext="shape" transform="translate(8.25,0)">
						<title>Sheet.13469</title>
						<path d="M1.42 611.7 L1.58 611.85 L1.42 612 L0.15 612 L0 611.85 L0.15 611.7 L1.42 611.7 Z" class="st20"/>
					</g>
					<g id="shape13470-167" v:mID="13470" v:groupContext="shape" transform="translate(8.025,-0.225)">
						<title>Sheet.13470</title>
						<path d="M0.3 611.85 L0.15 612 L0 611.85 L0 610.57 L0.15 610.42 L0.3 610.57 L0.3 611.85 Z" class="st20"/>
					</g>
					<g id="shape13471-169" v:mID="13471" v:groupContext="shape" transform="translate(9.75,-1.875)">
						<title>Sheet.13471</title>
						<path d="M0.38 611.85 L0.15 612 L0 611.85 L0 610.57 L0.15 610.42 L0.38 610.57 L0.38 611.85 Z" class="st20"/>
					</g>
					<g id="shape13472-171" v:mID="13472" v:groupContext="shape" transform="translate(9.75,-0.225)">
						<title>Sheet.13472</title>
						<path d="M0.38 611.85 L0.15 612 L0 611.85 L0 610.57 L0.15 610.42 L0.38 610.57 L0.38 611.85 Z" class="st20"/>
					</g>
					<g id="shape13473-173" v:mID="13473" v:groupContext="shape" transform="translate(10.65,0)">
						<title>Sheet.13473</title>
						<path d="M0.3 611.55 C0.07 611.55 0 611.4 0 611.17 C0 610.95 0.07 610.8 0.3 610.8 C0.52 610.8 0.6 610.95
									 0.6 611.17 C0.67 611.47 0.52 611.55 0.3 611.55 ZM0.3 611.02 C0.22 611.02 0.22 611.02 0.22 611.1
									 C0.22 611.18 0.22 611.18 0.22 611.25 C0.22 611.32 0.22 611.4 0.22 611.4 L0.3 611.47 C0.37 611.47
									 0.37 611.47 0.37 611.4 C0.37 611.32 0.37 611.32 0.37 611.25 C0.37 611.18 0.37 611.1 0.37 611.1
									 C0.37 611.02 0.37 611.02 0.3 611.02 ZM1.2 610.87 L0.52 612 L0.37 612 L1.05 610.87 L1.2 610.87
									 ZM1.27 612 C1.05 612 0.97 611.85 0.97 611.62 C0.97 611.4 1.05 611.25 1.27 611.25 C1.5 611.25
									 1.57 611.4 1.57 611.62 C1.57 611.92 1.5 612 1.27 612 ZM1.27 611.47 C1.2 611.47 1.2 611.47 1.2
									 611.55 C1.2 611.55 1.2 611.62 1.2 611.7 C1.2 611.77 1.2 611.85 1.2 611.85 L1.27 611.92 C1.35
									 611.92 1.35 611.92 1.35 611.85 C1.35 611.85 1.35 611.77 1.35 611.7 C1.35 611.62 1.35 611.55
									 1.35 611.55 C1.35 611.47 1.35 611.47 1.27 611.47 Z" class="st20"/>
					</g>
				</g>
				<g id="group13474-175" transform="translate(9.075,-4.65)" v:mID="13474" v:groupContext="group">
					<title>Sheet.13474</title>
					<g id="shape13475-176" v:mID="13475" v:groupContext="shape" transform="translate(7.85622E-14,-3.375)">
						<title>Sheet.13475</title>
						<path d="M1.42 611.7 L1.5 611.85 L1.42 612 L0.07 612 L0 611.85 L0.07 611.7 L1.42 611.7 Z" class="st6"/>
					</g>
					<g id="shape13476-178" v:mID="13476" v:groupContext="shape" transform="translate(7.85622E-14,-1.725)">
						<title>Sheet.13476</title>
						<path d="M1.42 611.7 L1.5 611.85 L1.42 612 L0.07 612 L0 611.85 L0.07 611.7 L1.42 611.7 Z" class="st6"/>
					</g>
					<g id="shape13477-180" v:mID="13477" v:groupContext="shape" transform="translate(7.85622E-14,-0.075)">
						<title>Sheet.13477</title>
						<path d="M1.42 611.7 L1.5 611.85 L1.42 612 L0.07 612 L0 611.85 L0.07 611.7 L1.42 611.7 Z" class="st6"/>
					</g>
					<g id="shape13478-182" v:mID="13478" v:groupContext="shape" transform="translate(1.5,-1.95)">
						<title>Sheet.13478</title>
						<path d="M0.3 611.93 L0.15 612 L0 611.93 L0 610.58 L0.15 610.5 L0.3 610.58 L0.3 611.93 Z" class="st6"/>
					</g>
					<g id="shape13479-184" v:mID="13479" v:groupContext="shape" transform="translate(1.5,-0.3)">
						<title>Sheet.13479</title>
						<path d="M0.3 611.85 L0.15 612 L0 611.85 L0 610.57 L0.15 610.42 L0.3 610.57 L0.3 611.85 Z" class="st6"/>
					</g>
					<g id="shape13480-186" v:mID="13480" v:groupContext="shape" transform="translate(2.4,-1.95)">
						<title>Sheet.13480</title>
						<path d="M0.3 611.93 L0.15 612 L0 611.93 L0 610.58 L0.15 610.5 L0.3 610.58 L0.3 611.93 Z" class="st6"/>
					</g>
					<g id="shape13481-188" v:mID="13481" v:groupContext="shape" transform="translate(2.625,-3.375)">
						<title>Sheet.13481</title>
						<path d="M1.42 611.7 L1.58 611.85 L1.42 612 L0.15 612 L0 611.85 L0.15 611.7 L1.42 611.7 Z" class="st6"/>
					</g>
					<g id="shape13482-190" v:mID="13482" v:groupContext="shape" transform="translate(2.625,-1.725)">
						<title>Sheet.13482</title>
						<path d="M1.42 611.7 L1.58 611.85 L1.42 612 L0.15 612 L0 611.85 L0.15 611.7 L1.42 611.7 Z" class="st6"/>
					</g>
					<g id="shape13483-192" v:mID="13483" v:groupContext="shape" transform="translate(2.625,-0.075)">
						<title>Sheet.13483</title>
						<path d="M1.42 611.7 L1.58 611.85 L1.42 612 L0.15 612 L0 611.85 L0.15 611.7 L1.42 611.7 Z" class="st6"/>
					</g>
					<g id="shape13484-194" v:mID="13484" v:groupContext="shape" transform="translate(2.4,-0.3)">
						<title>Sheet.13484</title>
						<path d="M0.3 611.85 L0.15 612 L0 611.85 L0 610.57 L0.15 610.42 L0.3 610.57 L0.3 611.85 Z" class="st6"/>
					</g>
					<g id="shape13485-196" v:mID="13485" v:groupContext="shape" transform="translate(4.125,-1.95)">
						<title>Sheet.13485</title>
						<path d="M0.38 611.93 L0.15 612 L0 611.93 L0 610.58 L0.15 610.5 L0.38 610.58 L0.38 611.93 Z" class="st6"/>
					</g>
					<g id="shape13486-198" v:mID="13486" v:groupContext="shape" transform="translate(4.125,-0.3)">
						<title>Sheet.13486</title>
						<path d="M0.38 611.85 L0.15 612 L0 611.85 L0 610.57 L0.15 610.42 L0.38 610.57 L0.38 611.85 Z" class="st6"/>
					</g>
					<g id="shape13487-200" v:mID="13487" v:groupContext="shape" transform="translate(5.025,0)">
						<title>Sheet.13487</title>
						<path d="M0.3 611.55 C0.07 611.55 0 611.4 0 611.18 C0 610.95 0.07 610.8 0.3 610.8 C0.52 610.8 0.6 610.95
									 0.6 611.18 C0.67 611.4 0.52 611.55 0.3 611.55 ZM0.3 610.95 C0.22 610.95 0.22 610.95 0.22 611.03
									 C0.22 611.03 0.22 611.1 0.22 611.18 C0.22 611.25 0.22 611.33 0.22 611.33 L0.3 611.4 C0.37 611.4
									 0.37 611.4 0.37 611.33 C0.37 611.33 0.37 611.25 0.37 611.18 C0.37 611.1 0.37 611.03 0.37 611.03
									 C0.37 611.03 0.37 610.95 0.3 610.95 ZM1.2 610.8 L0.52 611.92 L0.37 611.92 L1.05 610.8 L1.2 610.8
									 ZM1.27 612 C1.05 612 0.97 611.85 0.97 611.62 C0.97 611.4 1.05 611.25 1.27 611.25 C1.5 611.25
									 1.57 611.4 1.57 611.62 C1.57 611.85 1.5 612 1.27 612 ZM1.27 611.4 C1.2 611.4 1.2 611.4 1.2 611.47
									 C1.2 611.55 1.2 611.55 1.2 611.62 C1.2 611.7 1.2 611.77 1.2 611.77 L1.27 611.85 C1.35 611.85
									 1.35 611.85 1.35 611.77 C1.35 611.7 1.35 611.7 1.35 611.62 C1.35 611.55 1.35 611.47 1.35 611.47
									 C1.35 611.4 1.35 611.4 1.27 611.4 Z" class="st6"/>
					</g>
				</g>
				<g id="shape13488-202" v:mID="13488" v:groupContext="shape" transform="translate(2.1,-7.875)">
					<title>Sheet.13488</title>
					<path d="M0.23 610.8 C0.15 611.02 0 611.1 0 611.25 C0 611.33 0.08 611.47 0.23 611.47 C0.3 611.47 0.45 611.4 0.45
								 611.25 C0.45 611.1 0.23 611.02 0.23 610.8 ZM0.97 610.8 C0.9 611.02 0.75 611.1 0.75 611.25 C0.75
								 611.33 0.83 611.47 0.97 611.47 C1.05 611.47 1.2 611.4 1.2 611.25 C1.2 611.1 1.05 611.02 0.97 610.8
								 ZM0.6 611.32 C0.6 611.55 0.38 611.62 0.38 611.77 C0.38 611.85 0.45 612 0.6 612 C0.75 612 0.83 611.92
								 0.83 611.77 C0.83 611.62 0.68 611.62 0.6 611.32 Z" class="st20"/>
				</g>
				<g id="shape13489-204" v:mID="13489" v:groupContext="shape" transform="translate(2.1,-7.95)">
					<title>Sheet.13489</title>
					<path d="M0.23 610.8 C0.15 611.02 0 611.1 0 611.25 C0 611.33 0.08 611.47 0.23 611.47 C0.3 611.47 0.45 611.4 0.45
								 611.25 C0.45 611.1 0.23 611.02 0.23 610.8 ZM0.97 610.8 C0.9 611.02 0.75 611.1 0.75 611.25 C0.75
								 611.33 0.83 611.47 0.97 611.47 C1.05 611.47 1.2 611.4 1.2 611.25 C1.2 611.1 1.05 611.02 0.97 610.8
								 ZM0.6 611.33 C0.6 611.55 0.38 611.62 0.38 611.77 C0.38 611.85 0.45 612 0.6 612 C0.75 612 0.83 611.92
								 0.83 611.77 C0.83 611.62 0.68 611.62 0.6 611.33 Z" class="st6"/>
				</g>
				<g id="group13490-206" transform="translate(2.1,-9.825)" v:mID="13490" v:groupContext="group">
					<title>Sheet.13490</title>
					<g id="shape13491-207" v:mID="13491" v:groupContext="shape">
						<title>Sheet.13491</title>
						<path d="M0.53 611.92 C0.45 611.92 0.45 612 0.37 612 C0.3 612 0.3 612 0.3 612 C0.22 612 0.15 612 0.07 611.92
									 C0 611.85 0 611.77 0 611.7 C0 611.62 0 611.47 0.07 611.47 C0.15 611.4 0.23 611.4 0.3 611.4 C0.37
									 611.4 0.45 611.4 0.52 611.47 L0.52 611.62 C0.45 611.55 0.37 611.55 0.3 611.55 C0.23 611.55 0.22
									 611.55 0.15 611.62 C0.15 611.7 0.07 611.7 0.07 611.77 C0.07 611.85 0.07 611.92 0.15 611.92 C0.15
									 612 0.22 612 0.3 612 L0.37 612 C0.37 612 0.45 612 0.45 611.92 L0.53 611.92 Z" class="st6"/>
					</g>
					<g id="shape13492-209" v:mID="13492" v:groupContext="shape" transform="translate(0.6,-0.075)">
						<title>Sheet.13492</title>
						<path d="M0.6 612 L0.45 612 L0.45 611.7 L0.15 611.7 L0.15 612 L0 612 L0 611.33 L0.15 611.33 L0.15 611.55
									 L0.45 611.55 L0.45 611.33 L0.6 611.33 L0.6 612 Z" class="st6"/>
					</g>
					<g id="shape13493-211" v:mID="13493" v:groupContext="shape" transform="translate(1.425,-0.075)">
						<title>Sheet.13493</title>
						<path d="M0.38 612 L0 612 L0 611.92 L0.15 611.92 L0.15 611.55 L0 611.55 L0 611.47 C0.08 611.47 0.08 611.47
									 0.15 611.47 L0.23 611.4 L0.38 611.4 L0.38 612 L0.53 612 L0.38 612 Z" class="st6"/>
					</g>
				</g>
				<g id="group13494-213" transform="translate(4.65,-9.9)" v:mID="13494" v:groupContext="group">
					<title>Sheet.13494</title>
					<g id="shape13495-214" v:mID="13495" v:groupContext="shape">
						<title>Sheet.13495</title>
						<path d="M0.53 611.92 C0.45 611.92 0.45 612 0.37 612 L0.3 612 C0.22 612 0.15 612 0.07 611.92 C0 611.85 0
									 611.77 0 611.7 C0 611.62 0 611.47 0.07 611.47 C0.15 611.4 0.23 611.4 0.3 611.4 C0.37 611.4 0.45
									 611.4 0.52 611.47 L0.52 611.62 C0.45 611.55 0.37 611.55 0.3 611.55 C0.23 611.55 0.22 611.55
									 0.15 611.62 C0.15 611.7 0.07 611.7 0.07 611.77 C0.07 611.85 0.07 611.92 0.15 611.92 C0.15 612
									 0.22 612 0.3 612 L0.37 612 C0.37 612 0.45 612 0.45 611.92 L0.53 611.92 Z" class="st20"/>
					</g>
					<g id="shape13496-216" v:mID="13496" v:groupContext="shape" transform="translate(0.675,0)">
						<title>Sheet.13496</title>
						<path d="M0.6 612 L0.45 612 L0.45 611.7 L0.15 611.7 L0.15 612 L0 612 L0 611.33 L0.15 611.33 L0.15 611.55
									 L0.45 611.55 L0.45 611.33 L0.6 611.33 L0.6 612 Z" class="st20"/>
					</g>
					<g id="shape13497-218" v:mID="13497" v:groupContext="shape" transform="translate(1.425,0)">
						<title>Sheet.13497</title>
						<path d="M0.53 612 L0 612 L0 611.92 C0.15 611.85 0.22 611.77 0.22 611.7 C0.3 611.62 0.3 611.62 0.3 611.55
									 L0.3 611.47 L0.22 611.47 C0.15 611.47 0.07 611.47 0.07 611.55 L0.07 611.4 C0.15 611.4 0.22 611.32
									 0.3 611.32 C0.37 611.32 0.45 611.32 0.45 611.4 C0.52 611.4 0.52 611.47 0.52 611.55 C0.52 611.62
									 0.52 611.62 0.45 611.7 C0.45 611.77 0.3 611.85 0.22 611.92 L0.52 611.92 L0.52 612 Z"
								class="st20"/>
					</g>
				</g>
				<g id="group13498-220" transform="translate(7.65,-9.75)" v:mID="13498" v:groupContext="group">
					<title>Sheet.13498</title>
					<g id="shape13499-221" v:mID="13499" v:groupContext="shape" transform="translate(1.77983E-15,-0.15)">
						<title>Sheet.13499</title>
						<path d="M0.53 611.92 C0.45 611.92 0.45 612 0.38 612 L0.3 612 C0.22 612 0.15 612 0.08 611.92 C0 611.85 0
									 611.77 0 611.7 C0 611.62 0 611.47 0.08 611.47 C0.15 611.4 0.23 611.4 0.3 611.4 C0.37 611.4 0.45
									 611.4 0.52 611.47 L0.52 611.62 C0.45 611.55 0.37 611.55 0.3 611.55 C0.23 611.55 0.22 611.55
									 0.15 611.62 C0.15 611.7 0.07 611.7 0.07 611.77 C0.07 611.85 0.07 611.92 0.15 611.92 C0.15 612
									 0.22 612 0.3 612 L0.38 612 C0.38 612 0.45 612 0.45 611.92 L0.53 611.92 Z" class="st20"/>
					</g>
					<g id="shape13500-223" v:mID="13500" v:groupContext="shape" transform="translate(0.6,-0.15)">
						<title>Sheet.13500</title>
						<path d="M0.6 612 L0.45 612 L0.45 611.7 L0.15 611.7 L0.15 612 L0 612 L0 611.33 L0.15 611.33 L0.15 611.55
									 L0.45 611.55 L0.45 611.33 L0.6 611.33 L0.6 612 Z" class="st20"/>
					</g>
					<g id="shape13501-225" v:mID="13501" v:groupContext="shape" transform="translate(1.35,0)">
						<title>Sheet.13501</title>
						<path d="M0 611.85 L0 611.7 C0.08 611.77 0.15 611.77 0.22 611.77 C0.3 611.77 0.3 611.77 0.3 611.77 L0.38
									 611.7 L0.38 611.62 C0.38 611.62 0.3 611.62 0.22 611.62 L0.15 611.62 L0.15 611.55 L0.22 611.55
									 C0.3 611.55 0.38 611.55 0.38 611.47 L0.38 611.4 L0.3 611.4 C0.22 611.4 0.15 611.4 0.08 611.47
									 L0.08 611.32 C0.15 611.32 0.23 611.25 0.3 611.25 C0.37 611.25 0.45 611.25 0.52 611.32 C0.6 611.4
									 0.6 611.4 0.6 611.47 C0.6 611.55 0.6 611.55 0.6 611.55 L0.52 611.62 C0.6 611.62 0.6 611.62 0.6
									 611.7 L0.68 611.77 C0.68 611.85 0.68 611.92 0.6 611.92 C0.52 612 0.45 612 0.38 612 C0.15 611.85
									 0.08 611.85 0 611.85 Z" class="st20"/>
					</g>
				</g>
				<g id="group13502-227" transform="translate(10.575,-9.9)" v:mID="13502" v:groupContext="group">
					<title>Sheet.13502</title>
					<g id="shape13503-228" v:mID="13503" v:groupContext="shape">
						<title>Sheet.13503</title>
						<path d="M0.52 611.92 C0.45 611.92 0.45 612 0.37 612 L0.3 612 C0.23 612 0.15 612 0.08 611.92 C0 611.85 0
									 611.77 0 611.7 C0 611.62 0 611.47 0.08 611.47 C0.15 611.4 0.23 611.4 0.3 611.4 C0.37 611.4 0.45
									 611.4 0.52 611.47 L0.52 611.62 C0.45 611.55 0.37 611.55 0.3 611.55 C0.23 611.55 0.23 611.55
									 0.15 611.62 C0.15 611.7 0.07 611.7 0.07 611.77 C0.07 611.85 0.07 611.92 0.15 611.92 C0.15 612
									 0.23 612 0.3 612 L0.38 612 C0.38 612 0.45 612 0.45 611.92 L0.52 611.92 Z" class="st20"/>
					</g>
					<g id="shape13504-230" v:mID="13504" v:groupContext="shape" transform="translate(0.6,0)">
						<title>Sheet.13504</title>
						<path d="M0.6 612 L0.45 612 L0.45 611.7 L0.15 611.7 L0.15 612 L0 612 L0 611.33 L0.15 611.33 L0.15 611.55
									 L0.45 611.55 L0.45 611.33 L0.6 611.33 L0.6 612 Z" class="st20"/>
					</g>
					<g id="shape13505-232" v:mID="13505" v:groupContext="shape" transform="translate(1.35,0)">
						<title>Sheet.13505</title>
						<path d="M0.53 611.85 L0.45 612 L0.3 612 L0.3 611.85 L0 611.85 L0 611.7 L0.3 611.33 L0.45 611.33 L0.45 611.7
									 L0.53 611.7 L0.53 611.85 ZM0.3 611.7 L0.3 611.4 L0.07 611.7 L0.3 611.7 Z" class="st20"/>
					</g>
				</g>
			</g>
		</g>
	</g>
</svg>
