<?xml version="1.0" encoding="UTF-8" standalone="no"?>
<!DOCTYPE svg PUBLIC "-//W3C//DTD SVG 1.1//EN" "http://www.w3.org/Graphics/SVG/1.1/DTD/svg11.dtd">
<!-- Generated by Microsoft Visio, SVG Export Smart-Appliances.svg Page-1 -->
<svg xmlns="http://www.w3.org/2000/svg" xmlns:xlink="http://www.w3.org/1999/xlink" xmlns:ev="http://www.w3.org/2001/xml-events"
		xmlns:v="http://schemas.microsoft.com/visio/2003/SVGExtensions/" width="11in" height="8.5in" viewBox="0 0 792 612"
		xml:space="preserve" color-interpolation-filters="sRGB" class="st2">
	<v:documentProperties v:langID="1033" v:viewMarkup="false">
		<v:userDefs>
			<v:ud v:nameU="msvSubprocessMaster" v:prompt="" v:val="VT4(Rectangle)"/>
			<v:ud v:nameU="msvNoAutoConnect" v:val="VT0(1):26"/>
		</v:userDefs>
	</v:documentProperties>

	<style type="text/css">
	<![CDATA[
		.st1 {fill:#759fcc;stroke:none;stroke-width:0.75}
		.st2 {fill:none;fill-rule:evenodd;font-size:12px;overflow:visible;stroke-linecap:square;stroke-miterlimit:3}
	]]>
	</style>

	<g v:mID="0" v:index="1" v:groupContext="foregroundPage">
		<v:userDefs>
			<v:ud v:nameU="msvThemeOrder" v:val="VT0(0):26"/>
		</v:userDefs>
		<title>Page-1</title>
		<v:pageProperties v:drawingScale="1" v:pageScale="1" v:drawingUnits="0" v:shadowOffsetX="9" v:shadowOffsetY="-9"/>
		<g id="group9954-1" transform="translate(18,-535.675)" v:mID="9954" v:groupContext="group">
			<title>Smart Appliances</title>
			<g id="group9955-2" transform="translate(2.92919,-40.0609)" v:mID="9955" v:groupContext="group">
				<title>Sheet.9955</title>
				<g id="shape9956-3" v:mID="9956" v:groupContext="shape" transform="translate(7.83988,0)">
					<title>Sheet.9956</title>
					<path d="M8.44 607.09 C5.6 606.74 2.84 607.61 0.69 609.24 C0.34 609.42 0.17 609.76 0.09 610.19 C0 610.97 0.52
								 611.66 1.29 611.74 C1.72 611.83 2.07 611.66 2.33 611.48 C3.88 610.19 5.94 609.59 8.1 609.85 C9.65
								 610.02 11.03 610.62 12.15 611.57 C12.32 611.74 12.58 611.83 12.84 611.91 C13.61 612 14.3 611.48
								 14.39 610.71 C14.47 610.19 14.22 609.76 13.87 609.5 C12.32 608.21 10.51 607.35 8.44 607.09 Z"
							class="st1"/>
				</g>
				<g id="shape9957-5" v:mID="9957" v:groupContext="shape" transform="translate(3.87686,-4.91069)">
					<title>Sheet.9957</title>
					<path d="M13.1 605.71 C8.44 605.11 3.96 606.57 0.6 609.24 C0.34 609.5 0.09 609.76 0.09 610.19 C0 610.97 0.52
								 611.66 1.29 611.74 C1.72 611.83 2.07 611.66 2.33 611.4 C5.17 609.16 8.87 607.95 12.84 608.47 C15.59
								 608.81 18.09 609.93 20.07 611.57 C20.25 611.74 20.5 611.83 20.76 611.91 C21.54 612 22.23 611.48
								 22.31 610.71 C22.4 610.19 22.14 609.76 21.8 609.5 C19.38 607.52 16.46 606.14 13.1 605.71 Z"
							class="st1"/>
				</g>
				<g id="shape9958-7" v:mID="9958" v:groupContext="shape" transform="translate(0,-9.90754)">
					<title>Sheet.9958</title>
					<path d="M29.72 609.59 C29.64 609.59 29.64 609.59 29.72 609.59 C26.36 606.83 22.31 605.02 17.83 604.42 C11.46
								 603.64 5.43 605.54 0.69 609.24 C0.34 609.5 0.17 609.76 0.09 610.19 C0 610.97 0.52 611.66 1.29 611.74
								 C1.64 611.83 1.98 611.66 2.33 611.48 C6.46 608.21 11.8 606.49 17.49 607.18 C21.45 607.69 25.07 609.33
								 28 611.66 C28.17 611.83 28.43 611.91 28.69 611.91 C29.46 612 30.15 611.48 30.24 610.71 C30.24 610.36
								 29.98 609.93 29.72 609.59 Z" class="st1"/>
				</g>
			</g>
			<g id="group9959-9" v:mID="9959" v:groupContext="group">
				<title>Sheet.9959</title>
				<g id="shape9960-10" v:mID="9960" v:groupContext="shape" transform="translate(29.6365,-9.04601)">
					<title>Sheet.9960</title>
					<path d="M2.58 597.01 L0 597.01 L0 600.71 L3.27 600.71 L3.27 612 L5.77 612 L5.77 600.2 C5.77 598.39 4.31 597.01
								 2.58 597.01 Z" class="st1"/>
				</g>
				<g id="shape9961-12" v:mID="9961" v:groupContext="shape" transform="translate(11.1137,-29.8949)">
					<title>Sheet.9961</title>
					<path d="M14.04 612 L14.04 610.79 C14.04 608.73 12.41 607.09 10.34 607.09 L3.7 607.09 C1.64 607.09 0 608.73 0
								 610.79 L0 612 L14.04 612 Z" class="st1"/>
				</g>
				<g id="shape9962-14" v:mID="9962" v:groupContext="shape" transform="translate(6.54759,0)">
					<title>Sheet.9962</title>
					<path d="M0 605.37 L0 605.88 C0 609.24 2.76 612 6.12 612 L16.97 612 C20.33 612 23.09 609.24 23.09 605.88 L23.09
								 605.37 L0 605.37 ZM11.54 610.36 C10.6 610.36 9.82 609.59 9.82 608.64 C9.82 607.69 10.6 606.92 11.54
								 606.92 C12.49 606.92 13.27 607.69 13.27 608.64 C13.27 609.59 12.49 610.36 11.54 610.36 Z"
							class="st1"/>
				</g>
				<g id="shape9963-16" v:mID="9963" v:groupContext="shape" transform="translate(-1.71863E-13,-8.27064)">
					<title>Sheet.9963</title>
					<path d="M0 592.36 C0 592.36 6.46 596.06 6.46 602.35 L6.46 612 L29.64 612 L29.64 592.36 L0 592.36 ZM19.04 610.45
								 L17.14 610.45 L17.14 594.34 L19.04 594.34 L19.04 610.45 Z" class="st1"/>
				</g>
			</g>
		</g>
	</g>
</svg>
