<?xml version="1.0" encoding="UTF-8" standalone="no"?>
<!DOCTYPE svg PUBLIC "-//W3C//DTD SVG 1.1//EN" "http://www.w3.org/Graphics/SVG/1.1/DTD/svg11.dtd">
<!-- Generated by Microsoft Visio, SVG Export Smart-Glasses.svg Page-1 -->
<svg xmlns="http://www.w3.org/2000/svg" xmlns:xlink="http://www.w3.org/1999/xlink" xmlns:ev="http://www.w3.org/2001/xml-events"
		xmlns:v="http://schemas.microsoft.com/visio/2003/SVGExtensions/" width="0.7375in" height="0.190634in"
		viewBox="0 0 53.1 13.7257" xml:space="preserve" color-interpolation-filters="sRGB" class="st8">
	<v:documentProperties v:langID="1033" v:metric="true" v:viewMarkup="false"/>

	<style type="text/css">
	<![CDATA[
		.st1 {fill:#f7f7f7;stroke:none;stroke-width:0.75}
		.st2 {fill:none;stroke:#b4b4b5;stroke-width:0.21465}
		.st3 {fill:#3e3a39;stroke:none;stroke-width:0.75}
		.st4 {fill:#9e9e9f;stroke:none;stroke-width:0.75}
		.st5 {fill:#b4b4b5;stroke:none;stroke-width:0.75}
		.st6 {fill:#c8c9ca;stroke:none;stroke-width:0.75}
		.st7 {fill:#2ca6e0;stroke:none;stroke-width:0.75}
		.st8 {fill:none;fill-rule:evenodd;font-size:12px;overflow:visible;stroke-linecap:square;stroke-miterlimit:3}
	]]>
	</style>

	<g v:mID="0" v:index="1" v:groupContext="foregroundPage">
		<title>Page-1</title>
		<v:pageProperties v:drawingScale="1" v:pageScale="1" v:drawingUnits="0" v:shadowOffsetX="9" v:shadowOffsetY="-9"/>
		<g id="group13334-1" transform="translate(0.75,-0.75)" v:mID="13334" v:groupContext="group">
			<title>Smart Glasses</title>
			<g id="shape13335-2" v:mID="13335" v:groupContext="shape" transform="translate(5.925,-9.05942E-14)">
				<title>Sheet.13335</title>
				<path d="M16.5 13.28 C16.5 13.28 12 13.73 9.75 13.73 C7.57 13.73 2.85 13.43 2.85 13.43 C2.55 13.35 1.95 12.98 1.8
							 12.68 C1.8 12.68 0 10.58 0 8.48 C0 6.38 0.3 5.4 0.3 5.4 C0.37 5.03 0.75 4.8 1.12 4.65 C1.12 4.65 5.85
							 3.15 9.22 3 C12.9 2.78 18.52 3.3 18.52 3.3 C19.12 3.38 19.65 3.68 19.57 4.13 C19.57 4.13 19.87 5.63
							 19.57 7.88 C19.27 10.13 17.92 12.08 17.62 12.6 C17.4 13.05 17.02 13.05 16.5 13.28 Z" class="st1"/>
			</g>
			<g id="shape13336-4" v:mID="13336" v:groupContext="shape" transform="translate(5.925,-9.05942E-14)">
				<title>Sheet.13336</title>
				<path d="M16.5 13.28 C16.5 13.28 12 13.73 9.75 13.73 C7.57 13.73 2.85 13.43 2.85 13.43 C2.55 13.35 1.95 12.98 1.8
							 12.68 C1.8 12.68 0 10.58 0 8.48 C0 6.38 0.3 5.4 0.3 5.4 C0.37 5.03 0.75 4.8 1.12 4.65 C1.12 4.65 5.85
							 3.15 9.22 3 C12.9 2.78 18.52 3.3 18.52 3.3 C19.12 3.38 19.65 3.68 19.57 4.13 C19.57 4.13 19.87 5.63
							 19.57 7.88 C19.27 10.13 17.92 12.08 17.62 12.6 C17.4 13.05 17.02 13.05 16.5 13.28 Z" class="st2"/>
			</g>
			<g id="shape13337-6" v:mID="13337" v:groupContext="shape" transform="translate(30.075,-9.05942E-14)">
				<title>Sheet.13337</title>
				<path d="M3.37 13.28 C3.37 13.28 7.87 13.73 10.12 13.73 C12.37 13.73 17.02 13.43 17.02 13.43 C17.32 13.35 17.92 12.98
							 18.07 12.68 C18.07 12.68 19.87 10.58 19.87 8.48 C19.87 6.38 19.57 5.4 19.57 5.4 C19.5 5.03 19.12 4.8
							 18.75 4.65 C18.75 4.65 14.02 3.15 10.65 3 C6.97 2.78 1.35 3.3 1.35 3.3 C0.75 3.38 0.23 3.68 0.3 4.13
							 C0.3 4.13 0 5.63 0.3 7.88 C0.6 10.13 1.95 12.08 2.25 12.6 C2.48 13.05 2.78 13.05 3.37 13.28 Z"
						class="st1"/>
			</g>
			<g id="shape13338-8" v:mID="13338" v:groupContext="shape" transform="translate(30.075,-9.05942E-14)">
				<title>Sheet.13338</title>
				<path d="M3.37 13.28 C3.37 13.28 7.87 13.73 10.12 13.73 C12.37 13.73 17.02 13.43 17.02 13.43 C17.32 13.35 17.92 12.98
							 18.07 12.68 C18.07 12.68 19.87 10.58 19.87 8.48 C19.87 6.38 19.57 5.4 19.57 5.4 C19.5 5.03 19.12 4.8
							 18.75 4.65 C18.75 4.65 14.02 3.15 10.65 3 C6.97 2.78 1.35 3.3 1.35 3.3 C0.75 3.38 0.23 3.68 0.3 4.13
							 C0.3 4.13 0 5.63 0.3 7.88 C0.6 10.13 1.95 12.08 2.25 12.6 C2.48 13.05 2.78 13.05 3.37 13.28 Z"
						class="st2"/>
			</g>
			<g id="shape13339-10" v:mID="13339" v:groupContext="shape" transform="translate(4.125,-6.45)">
				<title>Sheet.13339</title>
				<path d="M21.6 10.05 C21.53 10.13 21.45 10.2 21.3 10.2 C20.25 9.9 14.78 8.7 8.25 9.9 C4.73 10.5 2.85 11.1 2.33 11.33
							 C2.25 11.33 2.18 11.4 2.18 11.48 L1.88 12.6 L1.65 13.5 C1.65 13.65 1.43 13.73 1.28 13.65 L0.15 12.98
							 C0.08 12.9 0 12.83 0.08 12.68 L0.83 10.58 C0.83 10.5 0.9 10.5 0.9 10.43 L1.95 9.83 C2.1 9.75 4.8 8.4
							 9.08 8.03 C13.05 7.65 20.1 8.85 21.53 9.15 C21.68 9.15 21.75 9.3 21.68 9.45 L21.6 10.05 Z" class="st3"/>
			</g>
			<g id="shape13340-12" v:mID="13340" v:groupContext="shape" transform="translate(29.85,-6.45)">
				<title>Sheet.13340</title>
				<path d="M0.38 9.98 C0.45 10.13 0.6 10.2 0.68 10.13 C1.88 9.83 7.2 8.7 13.65 9.83 C17.1 10.43 18.98 11.18 19.5 11.4
							 C19.58 11.4 19.65 11.55 19.65 11.63 L20.1 13.43 C20.1 13.65 20.33 13.73 20.55 13.65 L21.6 12.98 C21.75
							 12.9 21.75 12.75 21.75 12.6 L21.08 10.58 C21.08 10.5 21 10.43 20.93 10.43 L19.95 9.83 L19.88 9.83 C19.43
							 9.68 15.15 8.4 10.95 8.03 C7.13 7.65 1.73 8.78 0.3 9.08 C0.15 9.15 0 9.3 0.07 9.45 L0.38 9.98 Z"
						class="st3"/>
			</g>
			<g id="shape13341-14" v:mID="13341" v:groupContext="shape" transform="translate(25.5,-8.1)">
				<title>Sheet.13341</title>
				<path d="M4.57 13.73 L3.52 13.43 C3.22 13.35 3 13.05 2.7 13.05 L2.17 13.05 C1.95 13.05 1.65 13.28 1.35 13.43 L0.3
							 13.65 L0.23 12.83 L0 11.85 L0.07 11.1 C0.07 11.1 0.82 10.8 2.4 10.8 C3.97 10.8 4.72 11.18 4.72 11.18
							 L4.8 11.85 L4.57 12.83 L4.57 13.73 Z" class="st3"/>
			</g>
			<g id="shape13342-16" v:mID="13342" v:groupContext="shape" transform="translate(0.225,-1.575)">
				<title>Sheet.13342</title>
				<path d="M3 13.65 L0.45 13.2 C0.23 13.13 0 12.98 0 12.68 L0 7.05 C0 6.83 0.15 6.6 0.45 6.53 L3 6.08 C3.3 6 3.6 6.23
							 3.6 6.6 L3.6 13.13 C3.6 13.5 3.3 13.73 3 13.65 Z" class="st3"/>
			</g>
			<g id="shape13343-18" v:mID="13343" v:groupContext="shape" transform="translate(-1.8735E-14,-2.4)">
				<title>Sheet.13343</title>
				<path d="M1.42 13.65 L0.22 13.28 C0.07 13.2 0 13.13 0 12.98 L0 8.25 C0 8.1 0.07 8.03 0.22 7.95 L1.42 7.58 C1.65 7.5
							 1.8 7.65 1.8 7.88 L1.8 13.28 C1.8 13.58 1.57 13.73 1.42 13.65 Z" class="st4"/>
			</g>
			<g id="shape13344-20" v:mID="13344" v:groupContext="shape" transform="translate(2.7,-4.35)">
				<title>Sheet.13344</title>
				<path d="M3.37 13.73 L0.15 13.35 C0.08 13.35 0 13.28 0 13.13 L0 12.23 C0 12.15 0.07 12.08 0.15 12 L3.37 11.63 C3.52
							 11.63 3.6 11.7 3.6 11.85 L3.6 13.5 C3.6 13.65 3.45 13.73 3.37 13.73 Z" class="st4"/>
			</g>
			<g id="shape13345-22" v:mID="13345" v:groupContext="shape" transform="translate(3.675,-4.725)">
				<title>Sheet.13345</title>
				<path d="M2.47 13.73 L0 13.5 L0 12.53 L2.47 12.3 L2.47 13.73 Z" class="st5"/>
			</g>
			<g id="shape13346-24" v:mID="13346" v:groupContext="shape" transform="translate(3.075,-4.95)">
				<title>Sheet.13346</title>
				<path d="M0.45 13.73 L0 13.65 L0 12.83 L0.45 12.75 L0.45 13.73 Z" class="st5"/>
			</g>
			<g id="shape13347-26" v:mID="13347" v:groupContext="shape" transform="translate(0.525,-2.625)">
				<title>Sheet.13347</title>
				<path d="M0.75 13.73 L0 13.5 L0 8.4 L0.75 8.18 C0.9 8.1 1.05 8.25 1.05 8.4 L1.05 13.5 C1.05 13.65 0.9 13.73 0.75
							 13.73 Z" class="st5"/>
			</g>
			<g id="shape13348-28" v:mID="13348" v:groupContext="shape" transform="translate(6.6,-3.075)">
				<title>Sheet.13348</title>
				<path d="M11.1 13.73 L0.98 13.73 C0.45 13.73 0 13.28 0 12.75 L0 9.98 C0 9.45 0.45 9 0.98 9 L11.1 9 C11.63 9 12.08
							 9.45 12.08 9.98 L12.08 12.75 C12.08 13.28 11.63 13.73 11.1 13.73 Z" class="st3"/>
			</g>
			<g id="shape13349-30" v:mID="13349" v:groupContext="shape" transform="translate(5.55,-3.3)">
				<title>Sheet.13349</title>
				<path d="M2.33 13.73 L0.53 13.73 C0.23 13.73 0 13.5 0 13.2 L0 10.05 C0 9.75 0.23 9.53 0.53 9.53 L2.33 9.53 L2.33
							 13.73 Z" class="st4"/>
			</g>
			<g id="shape13350-32" v:mID="13350" v:groupContext="shape" transform="translate(6.45,-3.825)">
				<title>Sheet.13350</title>
				<path d="M1.43 13.73 L0.53 13.73 C0.22 13.73 0 13.5 0 13.2 L0 11.1 C0 10.8 0.22 10.58 0.53 10.58 L1.43 10.58 L1.43
							 13.73 Z" class="st5"/>
			</g>
			<g id="shape13351-34" v:mID="13351" v:groupContext="shape" transform="translate(8.025,-3.375)">
				<title>Sheet.13351</title>
				<path d="M8.33 13.73 L0 13.73 L0 9.53 L8.33 9.53 C8.63 9.53 8.85 9.75 8.85 10.05 L8.85 13.2 C8.85 13.5 8.63 13.73
							 8.33 13.73 Z" class="st4"/>
			</g>
			<g id="shape13352-36" v:mID="13352" v:groupContext="shape" transform="translate(8.1,-3.825)">
				<title>Sheet.13352</title>
				<path d="M7.42 13.73 L0 13.73 L0 10.58 L7.42 10.58 C7.65 10.58 7.8 10.73 7.8 10.95 L7.8 13.35 C7.8 13.5 7.65 13.73
							 7.42 13.73 Z" class="st5"/>
			</g>
			<g id="shape13353-38" v:mID="13353" v:groupContext="shape" transform="translate(9.15,-4.5)">
				<title>Sheet.13353</title>
				<path d="M1.95 12.75 C1.95 13.28 1.5 13.73 0.98 13.73 C0.45 13.73 0 13.28 0 12.75 C0 12.23 0.45 11.78 0.98 11.78
							 C1.5 11.78 1.95 12.23 1.95 12.75 Z" class="st6"/>
			</g>
			<g id="shape13354-40" v:mID="13354" v:groupContext="shape" transform="translate(9.225,-4.65)">
				<title>Sheet.13354</title>
				<path d="M1.65 12.9 C1.65 13.35 1.27 13.73 0.82 13.73 C0.37 13.73 0 13.35 0 12.9 C0 12.45 0.37 12.08 0.82 12.08 C1.27
							 12.08 1.65 12.45 1.65 12.9 Z" class="st7"/>
			</g>
			<g id="shape13355-42" v:mID="13355" v:groupContext="shape" transform="translate(12.45,-5.1)">
				<title>Sheet.13355</title>
				<path d="M0.75 13.35 C0.75 13.58 0.6 13.73 0.38 13.73 C0.15 13.73 0 13.58 0 13.35 C0 13.13 0.15 12.98 0.38 12.98
							 C0.52 13.05 0.75 13.2 0.75 13.35 Z" class="st6"/>
			</g>
			<g id="shape13356-44" v:mID="13356" v:groupContext="shape" transform="translate(12.525,-5.175)">
				<title>Sheet.13356</title>
				<path d="M0.6 13.43 C0.6 13.58 0.45 13.73 0.3 13.73 C0.15 13.73 0 13.58 0 13.43 C0 13.28 0.15 13.13 0.3 13.13 C0.45
							 13.13 0.6 13.28 0.6 13.43 Z" class="st3"/>
			</g>
		</g>
	</g>
</svg>
