<?xml version="1.0" encoding="UTF-8" standalone="no"?>
<!DOCTYPE svg PUBLIC "-//W3C//DTD SVG 1.1//EN" "http://www.w3.org/Graphics/SVG/1.1/DTD/svg11.dtd">
<!-- Generated by Microsoft Visio, SVG Export Smart-Factories.svg Page-1 -->
<svg xmlns="http://www.w3.org/2000/svg" xmlns:xlink="http://www.w3.org/1999/xlink" xmlns:ev="http://www.w3.org/2001/xml-events"
		xmlns:v="http://schemas.microsoft.com/visio/2003/SVGExtensions/" width="11in" height="8.5in" viewBox="0 0 792 612"
		xml:space="preserve" color-interpolation-filters="sRGB" class="st2">
	<v:documentProperties v:langID="1033" v:viewMarkup="false">
		<v:userDefs>
			<v:ud v:nameU="msvSubprocessMaster" v:prompt="" v:val="VT4(Rectangle)"/>
			<v:ud v:nameU="msvNoAutoConnect" v:val="VT0(1):26"/>
		</v:userDefs>
	</v:documentProperties>

	<style type="text/css">
	<![CDATA[
		.st1 {fill:#759fcc;stroke:none;stroke-width:0.75}
		.st2 {fill:none;fill-rule:evenodd;font-size:12px;overflow:visible;stroke-linecap:square;stroke-miterlimit:3}
	]]>
	</style>

	<g v:mID="0" v:index="1" v:groupContext="foregroundPage">
		<v:userDefs>
			<v:ud v:nameU="msvThemeOrder" v:val="VT0(0):26"/>
		</v:userDefs>
		<title>Page-1</title>
		<v:pageProperties v:drawingScale="1" v:pageScale="1" v:drawingUnits="0" v:shadowOffsetX="9" v:shadowOffsetY="-9"/>
		<g id="group9927-1" transform="translate(18,-535.675)" v:mID="9927" v:groupContext="group">
			<title>Smart Factories</title>
			<g id="group9928-2" transform="translate(3.67403,-38.8529)" v:mID="9928" v:groupContext="group">
				<title>Sheet.9928</title>
				<g id="shape9929-3" v:mID="9929" v:groupContext="shape" transform="translate(8.35842,1.13687E-13)">
					<title>Sheet.9929</title>
					<path d="M9 606.76 C5.97 606.4 3.03 607.32 0.73 609.06 C0.37 609.24 0.18 609.61 0.09 610.07 C0 610.9 0.55 611.63
								 1.38 611.72 C1.84 611.82 2.2 611.63 2.48 611.45 C4.13 610.07 6.34 609.43 8.63 609.7 C10.29 609.89
								 11.76 610.53 12.95 611.54 C13.13 611.72 13.41 611.82 13.69 611.91 C14.51 612 15.25 611.45 15.34
								 610.62 C15.43 610.07 15.16 609.61 14.79 609.34 C13.23 607.87 11.21 606.95 9 606.76 Z" class="st1"/>
				</g>
				<g id="shape9930-5" v:mID="9930" v:groupContext="shape" transform="translate(4.22514,-5.23549)">
					<title>Sheet.9930</title>
					<path d="M13.96 605.29 C9 604.65 4.23 606.21 0.64 609.06 C0.37 609.34 0.09 609.61 0.09 610.07 C0 610.9 0.55 611.63
								 1.38 611.72 C1.84 611.82 2.2 611.63 2.48 611.36 C5.51 608.97 9.46 607.68 13.69 608.23 C16.62 608.6
								 19.29 609.8 21.4 611.54 C21.58 611.72 21.86 611.82 22.14 611.91 C22.96 612 23.7 611.45 23.79 610.62
								 C23.88 610.07 23.61 609.61 23.24 609.34 C20.67 607.13 17.54 605.75 13.96 605.29 Z" class="st1"/>
				</g>
				<g id="shape9931-7" v:mID="9931" v:groupContext="shape" transform="translate(0,-10.5628)">
					<title>Sheet.9931</title>
					<path d="M31.69 609.43 C31.69 609.43 31.69 609.34 31.69 609.43 C28.11 606.49 23.79 604.56 19.01 603.92 C12.22
								 603.09 5.79 605.11 0.73 609.06 C0.37 609.34 0.18 609.61 0.09 610.07 C0 610.9 0.55 611.63 1.38 611.72
								 C1.75 611.82 2.11 611.63 2.48 611.45 C6.89 607.96 12.58 606.12 18.65 606.86 C22.87 607.41 26.73
								 609.15 29.85 611.63 C30.04 611.82 30.31 611.91 30.59 611.91 C31.41 612 32.15 611.45 32.24 610.62
								 C32.24 610.16 32.06 609.7 31.69 609.43 Z" class="st1"/>
				</g>
			</g>
			<g id="shape9932-9" v:mID="9932" v:groupContext="shape">
				<title>Sheet.9932</title>
				<path d="M36.83 610.35 L36.83 591.79 L34.63 591.79 L34.63 580.31 C34.63 579.21 33.8 578.38 32.7 578.38 C31.6 578.38
							 30.77 579.21 30.77 580.31 L30.77 591.79 L27.46 591.79 L27.46 587.2 L20.48 591.79 L19.56 591.79 L19.56
							 587.2 L12.58 591.79 L12.12 591.79 L12.12 587.2 L5.14 591.79 L1.75 591.79 L1.75 610.35 L0 610.35 L0 612
							 L38.67 612 L38.67 610.35 L36.83 610.35 ZM13.41 605.66 L8.45 605.66 L8.45 602.63 L13.41 602.63 L13.41
							 605.66 ZM13.41 599.88 L8.45 599.88 L8.45 596.84 L13.41 596.84 L13.41 599.88 ZM21.77 605.66 L16.81 605.66
							 L16.81 602.63 L21.77 602.63 L21.77 605.66 ZM21.77 599.88 L16.81 599.88 L16.81 596.84 L21.77 596.84 L21.77
							 599.88 ZM30.04 605.66 L25.08 605.66 L25.08 602.63 L30.04 602.63 L30.04 605.66 ZM30.04 599.88 L25.08
							 599.88 L25.08 596.84 L30.04 596.84 L30.04 599.88 Z" class="st1"/>
			</g>
		</g>
	</g>
</svg>
