<?xml version="1.0" encoding="UTF-8" standalone="no"?>
<!DOCTYPE svg PUBLIC "-//W3C//DTD SVG 1.1//EN" "http://www.w3.org/Graphics/SVG/1.1/DTD/svg11.dtd">
<!-- Generated by Microsoft Visio, SVG Export Smart-Home.svg Page-1 -->
<svg xmlns="http://www.w3.org/2000/svg" xmlns:xlink="http://www.w3.org/1999/xlink" xmlns:ev="http://www.w3.org/2001/xml-events"
		xmlns:v="http://schemas.microsoft.com/visio/2003/SVGExtensions/" width="11in" height="8.5in" viewBox="0 0 792 612"
		xml:space="preserve" color-interpolation-filters="sRGB" class="st2">
	<v:documentProperties v:langID="1033" v:viewMarkup="false">
		<v:userDefs>
			<v:ud v:nameU="msvSubprocessMaster" v:prompt="" v:val="VT4(Rectangle)"/>
			<v:ud v:nameU="msvNoAutoConnect" v:val="VT0(1):26"/>
		</v:userDefs>
	</v:documentProperties>

	<style type="text/css">
	<![CDATA[
		.st1 {fill:#759fcc;stroke:none;stroke-width:0.75}
		.st2 {fill:none;fill-rule:evenodd;font-size:12px;overflow:visible;stroke-linecap:square;stroke-miterlimit:3}
	]]>
	</style>

	<g v:mID="0" v:index="1" v:groupContext="foregroundPage">
		<v:userDefs>
			<v:ud v:nameU="msvThemeOrder" v:val="VT0(0):26"/>
		</v:userDefs>
		<title>Page-1</title>
		<v:pageProperties v:drawingScale="1" v:pageScale="1" v:drawingUnits="0" v:shadowOffsetX="9" v:shadowOffsetY="-9"/>
		<g id="group9921-1" transform="translate(18,-535.675)" v:mID="9921" v:groupContext="group">
			<title>Smart Home</title>
			<g id="shape9922-2" v:mID="9922" v:groupContext="shape">
				<title>Sheet.9922</title>
				<path d="M39.86 594.78 L22.02 576.93 C21.13 575.96 19.62 575.96 18.73 576.93 L0.89 594.78 C0 595.75 0.36 596.46 1.69
							 596.46 L5.42 596.46 L5.42 610.22 C5.42 611.2 5.42 612 7.28 612 L15.98 612 L15.98 598.24 L25.03 598.24
							 L25.03 612 L34.09 612 C35.42 612 35.51 611.2 35.51 610.22 L35.51 596.46 L39.24 596.46 C40.39 596.55
							 40.75 595.75 39.86 594.78 Z" class="st1"/>
			</g>
			<g id="group9923-4" transform="translate(4.70508,-39.5049)" v:mID="9923" v:groupContext="group">
				<title>Sheet.9923</title>
				<g id="shape9924-5" v:mID="9924" v:groupContext="shape" transform="translate(8.07853,0)">
					<title>Sheet.9924</title>
					<path d="M8.7 606.94 C5.77 606.58 2.93 607.47 0.71 609.16 C0.36 609.34 0.18 609.69 0.09 610.14 C0 610.93 0.53
								 611.64 1.33 611.73 C1.78 611.82 2.13 611.64 2.4 611.47 C3.99 610.14 6.13 609.51 8.34 609.78 C9.94
								 609.96 11.36 610.58 12.52 611.56 C12.69 611.73 12.96 611.82 13.23 611.91 C14.03 612 14.74 611.47
								 14.83 610.67 C14.91 610.14 14.65 609.69 14.29 609.43 C12.69 608.09 10.83 607.21 8.7 606.94 Z"
							class="st1"/>
				</g>
				<g id="shape9925-7" v:mID="9925" v:groupContext="shape" transform="translate(4.08365,-5.06018)">
					<title>Sheet.9925</title>
					<path d="M13.49 605.52 C8.7 604.9 4.08 606.41 0.62 609.16 C0.36 609.43 0.09 609.69 0.09 610.14 C0 610.93 0.53
								 611.64 1.33 611.73 C1.78 611.82 2.13 611.64 2.4 611.38 C5.33 609.07 9.14 607.83 13.23 608.36 C16.07
								 608.72 18.64 609.87 20.68 611.56 C20.86 611.73 21.13 611.82 21.39 611.91 C22.19 612 22.9 611.47
								 22.99 610.67 C23.08 610.14 22.82 609.69 22.46 609.43 C19.97 607.38 16.87 605.96 13.49 605.52 Z"
							class="st1"/>
				</g>
				<g id="shape9926-9" v:mID="9926" v:groupContext="shape" transform="translate(0,-10.2091)">
					<title>Sheet.9926</title>
					<path d="M30.63 609.51 C30.63 609.51 30.63 609.51 30.63 609.51 C27.17 606.67 22.99 604.81 18.38 604.19 C11.81
								 603.39 5.59 605.34 0.71 609.16 C0.36 609.43 0.18 609.69 0.09 610.14 C0 610.93 0.53 611.64 1.33 611.73
								 C1.69 611.82 2.04 611.64 2.4 611.47 C6.66 608.09 12.16 606.32 18.02 607.03 C22.11 607.56 25.83 609.25
								 28.85 611.64 C29.03 611.82 29.3 611.91 29.56 611.91 C30.36 612 31.07 611.47 31.16 610.67 C31.16
								 610.31 30.98 609.87 30.63 609.51 Z" class="st1"/>
				</g>
			</g>
		</g>
	</g>
</svg>
