<?xml version="1.0" encoding="UTF-8" standalone="no"?>
<!DOCTYPE svg PUBLIC "-//W3C//DTD SVG 1.1//EN" "http://www.w3.org/Graphics/SVG/1.1/DTD/svg11.dtd">
<!-- Generated by Microsoft Visio, SVG Export Smart-Sensors.svg Page-1 -->
<svg xmlns="http://www.w3.org/2000/svg" xmlns:xlink="http://www.w3.org/1999/xlink" xmlns:ev="http://www.w3.org/2001/xml-events"
		xmlns:v="http://schemas.microsoft.com/visio/2003/SVGExtensions/" width="11in" height="8.5in" viewBox="0 0 792 612"
		xml:space="preserve" color-interpolation-filters="sRGB" class="st2">
	<v:documentProperties v:langID="1033" v:viewMarkup="false">
		<v:userDefs>
			<v:ud v:nameU="msvSubprocessMaster" v:prompt="" v:val="VT4(Rectangle)"/>
			<v:ud v:nameU="msvNoAutoConnect" v:val="VT0(1):26"/>
		</v:userDefs>
	</v:documentProperties>

	<style type="text/css">
	<![CDATA[
		.st1 {fill:#759fcc;stroke:none;stroke-width:0.75}
		.st2 {fill:none;fill-rule:evenodd;font-size:12px;overflow:visible;stroke-linecap:square;stroke-miterlimit:3}
	]]>
	</style>

	<g v:mID="0" v:index="1" v:groupContext="foregroundPage">
		<v:userDefs>
			<v:ud v:nameU="msvThemeOrder" v:val="VT0(0):26"/>
		</v:userDefs>
		<title>Page-1</title>
		<v:pageProperties v:drawingScale="1" v:pageScale="1" v:drawingUnits="0" v:shadowOffsetX="9" v:shadowOffsetY="-9"/>
		<g id="group9945-1" transform="translate(18,-535.622)" v:mID="9945" v:groupContext="group">
			<title>Smart Sensors</title>
			<g id="group9946-2" transform="translate(0,-38.9796)" v:mID="9946" v:groupContext="group">
				<title>Sheet.9946</title>
				<g id="shape9947-3" v:mID="9947" v:groupContext="shape" transform="translate(8.32662,0)">
					<title>Sheet.9947</title>
					<path d="M8.97 606.78 C5.95 606.42 3.02 607.33 0.73 609.07 C0.37 609.25 0.18 609.62 0.09 610.08 C0 610.9 0.55
								 611.63 1.37 611.73 C1.74 611.82 2.2 611.63 2.47 611.45 C4.12 610.08 6.31 609.44 8.6 609.71 C10.25
								 609.9 11.71 610.54 12.9 611.54 C13.08 611.73 13.36 611.82 13.63 611.91 C14.46 612 15.19 611.45 15.28
								 610.63 C15.37 610.08 15.1 609.62 14.73 609.35 C13.18 607.97 11.16 607.06 8.97 606.78 Z"
							class="st1"/>
				</g>
				<g id="shape9948-5" v:mID="9948" v:groupContext="shape" transform="translate(4.20906,-5.21558)">
					<title>Sheet.9948</title>
					<path d="M13.91 605.32 C8.97 604.68 4.21 606.24 0.64 609.07 C0.37 609.35 0.09 609.62 0.09 610.08 C0 610.9 0.55
								 611.63 1.37 611.73 C1.83 611.82 2.2 611.63 2.47 611.36 C5.49 608.98 9.42 607.7 13.63 608.25 C16.56
								 608.61 19.22 609.8 21.32 611.54 C21.5 611.73 21.78 611.82 22.05 611.91 C22.88 612 23.61 611.45 23.7
								 610.63 C23.79 610.08 23.52 609.62 23.15 609.35 C20.59 607.24 17.48 605.78 13.91 605.32 Z"
							class="st1"/>
				</g>
				<g id="shape9949-7" v:mID="9949" v:groupContext="shape" transform="translate(0,-10.5227)">
					<title>Sheet.9949</title>
					<path d="M31.57 609.44 C31.57 609.44 31.57 609.44 31.57 609.44 C28 606.51 23.7 604.59 18.94 603.95 C12.17 603.12
								 5.76 605.14 0.73 609.07 C0.37 609.35 0.18 609.62 0.09 610.08 C0 610.9 0.55 611.63 1.37 611.73 C1.74
								 611.82 2.1 611.63 2.47 611.45 C6.86 607.97 12.54 606.14 18.57 606.88 C22.78 607.42 26.63 609.16
								 29.74 611.63 C29.92 611.82 30.2 611.91 30.47 611.91 C31.29 612 32.03 611.45 32.12 610.63 C32.12
								 610.26 31.93 609.8 31.57 609.44 Z" class="st1"/>
				</g>
			</g>
			<g id="group9950-9" transform="translate(0.0915014,0)" v:mID="9950" v:groupContext="group">
				<title>Sheet.9950</title>
				<g id="shape9951-10" v:mID="9951" v:groupContext="shape">
					<title>Sheet.9951</title>
					<path d="M20.04 580.8 C24.16 581.9 27.54 584.55 29.55 588.03 C31.57 591.5 32.21 595.71 31.11 599.83 C30.01 603.95
								 27.36 607.33 23.88 609.35 C20.4 611.36 16.2 612 12.08 610.9 C7.96 609.8 4.58 607.15 2.65 603.67
								 C0.64 600.2 0 596.08 1.1 591.87 C2.2 587.75 4.85 584.37 8.33 582.45 C11.62 580.43 15.83 579.7 20.04
								 580.8 ZM27.27 589.31 C25.62 586.47 22.78 584.18 19.31 583.27 C15.83 582.35 12.26 582.9 9.42 584.64
								 C6.59 586.29 4.3 589.12 3.39 592.6 C2.47 596.08 3.02 599.65 4.76 602.48 C6.41 605.41 9.24 607.61
								 12.72 608.52 C16.2 609.44 19.76 608.89 22.6 607.15 C25.53 605.5 27.72 602.67 28.64 599.19 C29.55
								 595.71 29.01 592.24 27.27 589.31 Z" class="st1"/>
				</g>
				<g id="shape9952-12" v:mID="9952" v:groupContext="shape" transform="translate(9.42464,-11.0717)">
					<title>Sheet.9952</title>
					<path d="M2.38 605.87 L0 601.39 L0.92 600.38 L5.49 602.67 C7.32 602.12 9.42 602.94 10.43 604.68 C11.71 606.78
								 10.98 609.44 8.88 610.72 C6.77 612 4.12 611.27 2.84 609.16 C2.2 608.16 2.1 606.97 2.38 605.87 ZM4.85
								 605.23 C5.76 604.22 7.41 604.22 8.33 605.23 C9.33 606.14 9.33 607.79 8.33 608.71 C7.41 609.71 5.76
								 609.71 4.85 608.71 C3.84 607.79 3.84 606.14 4.85 605.23 ZM5.49 605.87 C6.04 605.23 7.05 605.23 7.69
								 605.87 C8.33 606.42 8.33 607.42 7.69 608.07 C7.14 608.71 6.13 608.71 5.49 608.07 C4.94 607.42 4.94
								 606.51 5.49 605.87 Z" class="st1"/>
				</g>
				<g id="shape9953-14" v:mID="9953" v:groupContext="shape" transform="translate(4.02606,-4.20906)">
					<title>Sheet.9953</title>
					<path d="M23.97 600.84 L21.5 600.84 L21.5 599.28 L23.97 599.28 L23.97 600.84 ZM21.96 606.69 L19.86 605.5 L20.59
								 604.22 L22.69 605.41 L21.96 606.69 ZM17.29 610.81 L16.1 608.71 L17.39 607.97 L18.57 610.08 L17.29
								 610.81 ZM11.25 612 L11.25 609.53 L12.72 609.53 L12.72 612 L11.25 612 ZM5.4 610.08 L6.59 607.97 L7.87
								 608.71 L6.68 610.81 L5.4 610.08 ZM1.28 605.41 L3.39 604.22 L4.12 605.5 L2.01 606.69 L1.28 605.41
								 ZM0 599.28 L2.47 599.28 L2.47 600.75 L0 600.75 L0 599.28 ZM12.72 588.12 L12.72 590.59 L11.25 590.59
								 L11.25 588.12 L12.72 588.12 ZM18.67 590.13 L17.48 592.24 L16.2 591.5 L17.39 589.4 L18.67 590.13
								 ZM22.69 594.71 L20.59 595.9 L19.86 594.61 L21.96 593.43 L22.69 594.71 ZM2.01 593.43 L4.12 594.61
								 L3.39 595.9 L1.28 594.71 L2.01 593.43 ZM6.68 589.31 L7.87 591.41 L6.59 592.14 L5.4 590.04 L6.68
								 589.31 Z" class="st1"/>
				</g>
			</g>
		</g>
	</g>
</svg>
