<svg viewBox="0 0 50 50" class="" role="presentation" focusable="false" xmlns:svg="http://www.w3.org/2000/svg" xmlns:xlink="http://www.w3.org/1999/xlink" id="FxSymbol0-09a" data-type="1"><g><title></title><g class="msportalfx-svg-c14" fill="#57a300"><path d="M39.6 30.5l1-2.5 4.3-1.6-.1-3.6-.5-.2-3.8-1.2-1.2-2.4 1.9-4.2-.1-.1-2.5-2.4-.5.3-3.5 1.9-2.5-1-1.6-4.3-3.6.1-.2.5-1.2 3.8-2.4 1.1L19 13l-2.5 2.6.3.5 1.2 2.2c1.9-1.2 4.1-1.8 6.4-1.8 3.5 0 6.9 1.5 9.4 4.3 0 0 0 .1.1.1l.1.1c2.2 2.7 1.9 6.7-.8 8.9-2.5 2.1-6.2 1.9-8.5-.3h-.2c-.5 0-1 .2-1.4.7l-.1.1c-1.5 1.6-3.2 2.8-5.2 3.5l-.6 1.4 2.4 2.3.2.2.5-.2 3.5-1.9 2.5 1 1.6 4.3 3.6-.1.2-.5 1.2-3.8 2.4-1.1 4.2 1.9 2.5-2.6-.5-.8-1.9-3.5z"></path><path d="M18.4 24.4c0 .1 0 .1 0 0l-.1.1c-2.7 2.9-7 2.9-9.7 0-.3-.4-.9-.4-1.2 0-.2.2-.2.4-.2.7s.1.5.2.7c3.3 3.7 8.7 3.7 12.1 0 0 0 0-.1.1-.1 2.7-2.9 7-2.9 9.7 0 .3.4.9.4 1.2 0 .2-.2.2-.4.2-.7 0-.2-.1-.5-.2-.7-3.4-3.6-8.8-3.6-12.1 0"></path><path d="M24.5 25.6c-1.5 0-2.8.6-3.8 1.8 0 0 0 .1-.1.1l-.1.1c-1.9 2-4.3 3.2-6.9 3.2-2.6 0-5.1-1.1-6.9-3.2-.3-.4-.9-.4-1.2 0-.2.2-.2.4-.2.7 0 .2.1.5.2.7 2.2 2.4 5.1 3.7 8.1 3.7 3.1 0 6-1.3 8.1-3.7 0 0 0-.1.1-.1l.1-.1c.7-.8 1.7-1.2 2.7-1.2 1 0 1.9.4 2.7 1.2.3.4.9.4 1.2 0 .2-.2.2-.4.2-.7s-.1-.5-.2-.7c-1.2-1.2-2.6-1.8-4-1.8m8-4.1c-2.2-2.4-5.1-3.7-8.1-3.7-3.1 0-6 1.3-8.1 3.7 0 0 0 .1-.1.1l-.1.1c-.7.8-1.7 1.2-2.7 1.2-1 0-2-.4-2.7-1.2-.3-.4-.9-.4-1.2 0-.2.2-.2.4-.2.7 0 .2.1.5.2.7 1 1.1 2.4 1.8 3.9 1.8s2.8-.6 3.8-1.8c0 0 0-.1.1-.1l.1-.1c1.9-2 4.3-3.2 6.9-3.2 2.6 0 5.1 1.1 6.9 3.2.3.4.9.4 1.2 0 .2-.2.2-.4.2-.7.2-.3.1-.5-.1-.7"></path></g></g><defs>
<linearGradient id="a" x1="9" y1="16.39" x2="9" y2="-1.94" gradientUnits="userSpaceOnUse"><stop offset="0" stop-color="#0078d4"></stop><stop offset=".16" stop-color="#1380da"></stop><stop offset=".53" stop-color="#3c91e5"></stop><stop offset=".82" stop-color="#559cec"></stop><stop offset="1" stop-color="#5ea0ef"></stop></linearGradient>
<linearGradient id="b" x1="9.88" y1="7.11" x2="9.99" y2="17.27" gradientUnits="userSpaceOnUse"><stop offset="0" stop-color="#32d4f5"></stop><stop offset=".32" stop-color="#31d1f3"></stop><stop offset=".53" stop-color="#2ec9eb"></stop><stop offset=".7" stop-color="#29bade"></stop><stop offset=".86" stop-color="#22a5cb"></stop><stop offset="1" stop-color="#198ab3"></stop><stop offset="1" stop-color="#198ab3"></stop></linearGradient>
<radialGradient id="c" cx="9.43" cy="7.03" r="7.27" gradientUnits="userSpaceOnUse"><stop offset="0" stop-color="#f2f2f2"></stop><stop offset=".58" stop-color="#eee"></stop><stop offset="1" stop-color="#e6e6e6"></stop></radialGradient>
</defs>
</svg>