<?xml version="1.0" encoding="UTF-8" standalone="no"?>
<!DOCTYPE svg PUBLIC "-//W3C//DTD SVG 1.1//EN" "http://www.w3.org/Graphics/SVG/1.1/DTD/svg11.dtd">
<!-- Generated by Microsoft Visio, SVG Export Surveillance.svg Page-1 -->
<svg xmlns="http://www.w3.org/2000/svg" xmlns:xlink="http://www.w3.org/1999/xlink" xmlns:ev="http://www.w3.org/2001/xml-events"
		xmlns:v="http://schemas.microsoft.com/visio/2003/SVGExtensions/" width="0.645833in" height="0.76909in"
		viewBox="0 0 46.5 55.3745" xml:space="preserve" color-interpolation-filters="sRGB" class="st12">
	<v:documentProperties v:langID="1033" v:metric="true" v:viewMarkup="false"/>

	<style type="text/css">
	<![CDATA[
		.st1 {fill:none}
		.st2 {stroke:#555759;stroke-width:3}
		.st3 {stroke:#555759;stroke-linecap:butt;stroke-width:3}
		.st4 {fill:#ef7622;stroke:none;stroke-width:3}
		.st5 {fill:#555759;stroke:none;stroke-width:3}
		.st6 {fill:#80bceb;stroke:none;stroke-width:3}
		.st7 {fill:#deebf6;stroke:none;stroke-width:3}
		.st8 {fill:#c9c9c9;stroke:none;stroke-width:3}
		.st9 {fill:#ffffff;stroke:none;stroke-width:3}
		.st10 {fill:#2b8fde;stroke:none;stroke-width:3}
		.st11 {fill:#dbdbdb;stroke:none;stroke-width:3}
		.st12 {fill:none;fill-rule:evenodd;font-size:12px;overflow:visible;stroke-linecap:square;stroke-miterlimit:3}
	]]>
	</style>

	<g v:mID="0" v:index="1" v:groupContext="foregroundPage">
		<title>Page-1</title>
		<v:pageProperties v:drawingScale="1" v:pageScale="1" v:drawingUnits="0" v:shadowOffsetX="9" v:shadowOffsetY="-9"/>
		<g id="group1219-1" transform="translate(3,-3)" v:mID="1219" v:groupContext="group">
			<title>Surveillance</title>
			<g id="shape1220-2" v:mID="1220" v:groupContext="shape" transform="translate(3.30749,-19.9936)">
				<title>Sheet.1220</title>
				<path d="M0 55.37 L20.92 55.37 L20.86 48.02 L0 55.37 Z" class="st1"/>
				<path d="M0 55.37 L20.92 55.37 L20.86 48.02" class="st2"/>
			</g>
			<g id="shape1221-5" v:mID="1221" v:groupContext="shape" transform="translate(74.0674,35.3066) rotate(90)">
				<title>Sheet.1221</title>
				<path d="M0 55.37 L5.28 55.37" class="st3"/>
			</g>
			<g id="shape1222-8" v:mID="1222" v:groupContext="shape" transform="translate(5.57442,-16.1732)">
				<title>Sheet.1222</title>
				<path d="M0 30.89 C0 30.89 0 44.87 0 46.32 C0 51.93 1.25 54.07 3.84 55.37 L0 30.89 Z" class="st1"/>
				<path d="M0 30.89 C0 30.89 0 44.87 0 46.32 C0 51.93 1.25 54.07 3.84 55.37" class="st2"/>
			</g>
			<g id="shape1223-11" v:mID="1223" v:groupContext="shape" transform="translate(6.9866,-24.5943)">
				<title>Sheet.1223</title>
				<path d="M0 39.31 C0 39.31 0 45.45 0 46.9 C0 55.23 5.72 55.37 8.62 54.22 L0 39.31 Z" class="st1"/>
				<path d="M0 39.31 C0 39.31 0 45.45 0 46.9 C0 55.23 5.72 55.37 8.62 54.22" class="st2"/>
			</g>
			<g id="group1224-14" transform="translate(11.1191,-38.6716)" v:mID="1224" v:groupContext="group">
				<title>Sheet.1224</title>
				<g id="shape1225-15" v:mID="1225" v:groupContext="shape">
					<title>Sheet.1225</title>
					<path d="M0.59 55.37 C0.5 55.37 0.39 55.34 0.3 55.29 C0.07 55.12 0.01 54.8 0.16 54.56 C0.61 53.91 0.84 53.14
								 0.84 52.35 C0.84 51.55 0.61 50.79 0.16 50.14 C0 49.9 0.07 49.58 0.3 49.42 C0.54 49.26 0.86 49.32
								 1.03 49.56 C1.58 50.39 1.88 51.35 1.88 52.36 C1.88 53.36 1.58 54.33 1.03 55.15 C0.92 55.29 0.76
								 55.37 0.59 55.37 Z" class="st4"/>
				</g>
				<g id="shape1226-17" v:mID="1226" v:groupContext="shape" transform="translate(3.92439,0)">
					<title>Sheet.1226</title>
					<path d="M0.59 55.37 C0.5 55.37 0.39 55.34 0.3 55.29 C0.07 55.12 0.01 54.8 0.16 54.56 C0.61 53.91 0.84 53.14
								 0.84 52.35 C0.84 51.55 0.61 50.79 0.16 50.14 C0 49.9 0.07 49.58 0.3 49.42 C0.54 49.26 0.86 49.32
								 1.03 49.56 C1.58 50.39 1.88 51.35 1.88 52.36 C1.88 53.36 1.58 54.33 1.03 55.15 C0.93 55.29 0.77
								 55.37 0.59 55.37 Z" class="st4"/>
				</g>
				<g id="shape1227-19" v:mID="1227" v:groupContext="shape" transform="translate(7.85621,0)">
					<title>Sheet.1227</title>
					<path d="M0.59 55.37 C0.5 55.37 0.39 55.34 0.3 55.29 C0.07 55.12 0.01 54.8 0.16 54.56 C0.61 53.91 0.84 53.14
								 0.84 52.35 C0.84 51.55 0.61 50.79 0.16 50.14 C0 49.9 0.07 49.58 0.3 49.42 C0.54 49.26 0.86 49.32
								 1.03 49.56 C1.58 50.39 1.88 51.35 1.88 52.36 C1.88 53.36 1.58 54.33 1.03 55.15 C0.92 55.29 0.76
								 55.37 0.59 55.37 Z" class="st4"/>
				</g>
				<g id="shape1228-21" v:mID="1228" v:groupContext="shape" transform="translate(11.788,0)">
					<title>Sheet.1228</title>
					<path d="M0.59 55.37 C0.5 55.37 0.39 55.34 0.3 55.29 C0.07 55.12 0.01 54.8 0.16 54.56 C0.61 53.91 0.84 53.14
								 0.84 52.35 C0.84 51.55 0.61 50.79 0.16 50.14 C0 49.9 0.07 49.58 0.3 49.42 C0.54 49.26 0.86 49.32
								 1.03 49.56 C1.58 50.39 1.88 51.35 1.88 52.36 C1.88 53.36 1.58 54.33 1.03 55.15 C0.92 55.29 0.76
								 55.37 0.59 55.37 Z" class="st4"/>
				</g>
				<g id="shape1229-23" v:mID="1229" v:groupContext="shape" transform="translate(15.7124,0)">
					<title>Sheet.1229</title>
					<path d="M0.59 55.37 C0.5 55.37 0.39 55.34 0.3 55.29 C0.07 55.12 0.01 54.8 0.16 54.56 C0.61 53.91 0.84 53.14
								 0.84 52.35 C0.84 51.55 0.61 50.79 0.16 50.14 C0 49.9 0.07 49.58 0.3 49.42 C0.54 49.26 0.86 49.32
								 1.03 49.56 C1.58 50.39 1.88 51.35 1.88 52.36 C1.88 53.36 1.58 54.33 1.03 55.15 C0.92 55.29 0.77
								 55.37 0.59 55.37 Z" class="st4"/>
				</g>
				<g id="shape1230-25" v:mID="1230" v:groupContext="shape" transform="translate(19.6442,0)">
					<title>Sheet.1230</title>
					<path d="M0.59 55.37 C0.5 55.37 0.39 55.34 0.3 55.29 C0.07 55.12 0.01 54.8 0.16 54.56 C0.61 53.91 0.84 53.14
								 0.84 52.35 C0.84 51.55 0.61 50.79 0.16 50.14 C0 49.9 0.07 49.58 0.3 49.42 C0.54 49.26 0.86 49.32
								 1.03 49.56 C1.58 50.39 1.88 51.35 1.88 52.36 C1.88 53.36 1.58 54.33 1.03 55.15 C0.92 55.29 0.76
								 55.37 0.59 55.37 Z" class="st4"/>
				</g>
				<g id="shape1231-27" v:mID="1231" v:groupContext="shape" transform="translate(23.5686,0)">
					<title>Sheet.1231</title>
					<path d="M0.59 55.37 C0.5 55.37 0.39 55.34 0.3 55.29 C0.07 55.12 0.01 54.8 0.16 54.56 C0.61 53.91 0.84 53.14
								 0.84 52.35 C0.84 51.55 0.61 50.79 0.16 50.14 C0 49.9 0.07 49.58 0.3 49.42 C0.54 49.26 0.86 49.32
								 1.03 49.56 C1.58 50.39 1.88 51.35 1.88 52.36 C1.88 53.36 1.58 54.33 1.03 55.15 C0.93 55.29 0.77
								 55.37 0.59 55.37 Z" class="st4"/>
				</g>
				<g id="shape1232-29" v:mID="1232" v:groupContext="shape" transform="translate(27.5005,0)">
					<title>Sheet.1232</title>
					<path d="M0.59 55.37 C0.5 55.37 0.39 55.34 0.3 55.29 C0.07 55.12 0.01 54.8 0.16 54.56 C0.61 53.91 0.84 53.14
								 0.84 52.35 C0.84 51.55 0.61 50.79 0.16 50.14 C0 49.9 0.07 49.58 0.3 49.42 C0.54 49.26 0.86 49.32
								 1.03 49.56 C1.58 50.39 1.88 51.35 1.88 52.36 C1.88 53.36 1.58 54.33 1.03 55.15 C0.92 55.29 0.76
								 55.37 0.59 55.37 Z" class="st4"/>
				</g>
			</g>
			<g id="shape1233-31" v:mID="1233" v:groupContext="shape" transform="translate(0.497981,0)">
				<title>Sheet.1233</title>
				<path d="M0 55.37 L0 7.5 C0 6.67 0.68 6 1.5 6 C2.33 6 3 6.68 3 7.5 L3 55.37 L0 55.37 Z" class="st5"/>
			</g>
			<g id="shape1234-33" v:mID="1234" v:groupContext="shape" transform="translate(14.9023,-25.0626)">
				<title>Sheet.1234</title>
				<path d="M0.18 54.32 L1.18 53.93 C1.29 53.88 1.43 53.94 1.47 54.05 L1.7 54.65 C1.75 54.76 1.69 54.89 1.58 54.94 L0.57
							 55.33 C0.46 55.37 0.33 55.32 0.28 55.2 L0.05 54.61 C0 54.49 0.06 54.36 0.18 54.32 Z" class="st5"/>
			</g>
			<g id="shape1235-35" v:mID="1235" v:groupContext="shape" transform="translate(9.11975,-15.103)">
				<title>Sheet.1235</title>
				<path d="M0.63 53.87 L1.6 54.35 C1.71 54.4 1.75 54.54 1.7 54.65 L1.42 55.22 C1.37 55.33 1.23 55.37 1.12 55.32 L0.16
							 54.85 C0.04 54.79 0 54.65 0.05 54.55 L0.33 53.98 C0.39 53.87 0.52 53.82 0.63 53.87 Z" class="st5"/>
			</g>
			<g id="shape1236-37" v:mID="1236" v:groupContext="shape" transform="translate(-16.796,-6.0756) rotate(-47.9306)">
				<title>Sheet.1236</title>
				<ellipse cx="1.17429" cy="54.2002" rx="1.17429" ry="1.17429" class="st5"/>
			</g>
			<g id="shape1237-39" v:mID="1237" v:groupContext="shape" transform="translate(29.1208,-29.8863)">
				<title>Sheet.1237</title>
				<path d="M2.99 54.8 L1.69 55.32 C1.58 55.37 1.43 55.32 1.38 55.19 L0.05 51.87 C0 51.75 0.06 51.61 0.19 51.56 L1.48
							 51.04 C1.6 50.99 1.74 51.05 1.79 51.18 L3.12 54.49 C3.17 54.61 3.11 54.75 2.99 54.8 Z" class="st6"/>
			</g>
			<g id="shape1238-41" v:mID="1238" v:groupContext="shape" transform="translate(31.187,-30.9194)">
				<title>Sheet.1238</title>
				<path d="M1.8 55.19 L1.41 55.34 C1.33 55.37 1.24 55.34 1.2 55.26 L0.03 52.33 C0 52.25 0.04 52.16 0.12 52.12 L0.51
							 51.96 C0.59 51.93 0.68 51.97 0.71 52.05 L1.89 54.98 C1.92 55.06 1.87 55.16 1.8 55.19 Z" class="st7"/>
			</g>
			<g id="group1239-43" transform="translate(9.64746,-6.60011)" v:mID="1239" v:groupContext="group">
				<title>Sheet.1239</title>
				<g id="shape1240-44" v:mID="1240" v:groupContext="shape" transform="translate(7.79675,-7.78932)">
					<title>Sheet.1240</title>
					<ellipse cx="1.17434" cy="54.2001" rx="1.17434" ry="1.17434" class="st8"/>
				</g>
				<g id="group1241-46" v:mID="1241" v:groupContext="group">
					<title>Sheet.1241</title>
					<g id="shape1242-47" v:mID="1242" v:groupContext="shape" transform="translate(-8.69305E-14,-0.28987)">
						<title>Sheet.1242</title>
						<path d="M11.1 54.99 L1.11 50.1 C0.33 49.71 0 48.75 0.39 47.97 L1.83 45.02 C2.21 44.23 3.17 43.91 3.95 44.29
									 L13.94 49.19 C14.73 49.58 15.06 50.54 14.67 51.32 L13.24 54.26 C12.85 55.05 11.89 55.37 11.1
									 54.99 Z" class="st6"/>
					</g>
					<g id="shape1243-49" v:mID="1243" v:groupContext="shape" transform="translate(13.3191,-0.200679)">
						<title>Sheet.1243</title>
						<path d="M1.42 55.32 L0.17 54.71 C0.05 54.65 0 54.51 0.06 54.39 L1.63 51.19 C1.69 51.07 1.83 51.02 1.95 51.08
									 L3.2 51.69 C3.31 51.75 3.37 51.89 3.31 52.01 L1.74 55.21 C1.68 55.33 1.54 55.37 1.42 55.32 Z"
								class="st6"/>
					</g>
					<g id="shape1244-51" v:mID="1244" v:groupContext="shape" transform="translate(15.3185,5.68434E-14)">
						<title>Sheet.1244</title>
						<path d="M0.48 55.34 L0.11 55.15 C0.04 55.11 0 55.02 0.04 54.94 L1.43 52.11 C1.46 52.04 1.56 52 1.64 52.04
									 L2.01 52.22 C2.08 52.26 2.12 52.36 2.08 52.43 L0.69 55.26 C0.65 55.34 0.56 55.37 0.48 55.34
									 Z" class="st7"/>
					</g>
				</g>
				<g id="shape1245-53" v:mID="1245" v:groupContext="shape" transform="translate(-35.9088,26.5679) rotate(-59.9993)">
					<title>Sheet.1245</title>
					<ellipse cx="0.423646" cy="54.9508" rx="0.423646" ry="0.423646" class="st9"/>
				</g>
			</g>
			<g id="shape1246-55" v:mID="1246" v:groupContext="shape" transform="translate(3.9375,-35.7432)">
				<title>Sheet.1246</title>
				<path d="M4.65 44.48 L4.65 54.67 C4.65 55.05 4.33 55.37 3.95 55.37 L0.71 55.37 C0.32 55.37 0 55.05 0 54.67 L0 44.48
							 C0 44.09 0.32 43.77 0.71 43.77 L3.95 43.77 C4.34 43.77 4.65 44.09 4.65 44.48 Z" class="st10"/>
			</g>
			<g id="shape1247-57" v:mID="1247" v:groupContext="shape" transform="translate(1.14908E-14,-17.6821)">
				<title>Sheet.1247</title>
				<path d="M3.46 55.37 L0.54 55.37 C0.24 55.37 0 55.14 0 54.84 L0 51.29 C0 50.99 0.24 50.75 0.54 50.75 L3.46 50.75
							 C3.76 50.75 4 50.99 4 51.29 L4 54.84 C4 55.14 3.75 55.37 3.46 55.37 Z" class="st5"/>
			</g>
			<g id="shape1248-59" v:mID="1248" v:groupContext="shape" transform="translate(1.14908E-14,-39.2365)">
				<title>Sheet.1248</title>
				<path d="M3.46 55.37 L0.54 55.37 C0.24 55.37 0 55.14 0 54.84 L0 51.29 C0 50.99 0.24 50.75 0.54 50.75 L3.46 50.75
							 C3.76 50.75 4 50.99 4 51.29 L4 54.84 C4 55.14 3.75 55.37 3.46 55.37 Z" class="st11"/>
			</g>
			<g id="shape1249-61" v:mID="1249" v:groupContext="shape" transform="translate(15.4226,-23.5835)">
				<title>Sheet.1249</title>
				<path d="M13.95 50.91 L3.62 55.05 C2.81 55.37 1.87 54.97 1.55 54.16 L0.33 51.11 C0 50.3 0.4 49.36 1.21 49.04 L11.54
							 44.9 C12.35 44.57 13.29 44.98 13.61 45.79 L14.83 48.83 C15.16 49.65 14.76 50.58 13.95 50.91 Z"
						class="st6"/>
			</g>
			<g id="shape1250-63" v:mID="1250" v:groupContext="shape" transform="translate(11.8045,-26.0986) rotate(-17.9331)">
				<title>Sheet.1250</title>
				<ellipse cx="0.423648" cy="54.9508" rx="0.423648" ry="0.423648" class="st9"/>
			</g>
			<g id="shape1251-65" v:mID="1251" v:groupContext="shape" transform="translate(5.04671,-34.2344)">
				<title>Sheet.1251</title>
				<path d="M0 55.15 L0 54.07 C0 53.95 0.1 53.85 0.22 53.85 L0.85 53.85 C0.98 53.85 1.08 53.95 1.08 54.07 L1.08 55.15
							 C1.08 55.28 0.97 55.37 0.85 55.37 L0.22 55.37 C0.1 55.37 0 55.28 0 55.15 Z" class="st11"/>
			</g>
			<g id="shape1252-67" v:mID="1252" v:groupContext="shape" transform="translate(6.45889,-34.2344)">
				<title>Sheet.1252</title>
				<path d="M0 55.15 L0 54.07 C0 53.95 0.1 53.85 0.22 53.85 L0.85 53.85 C0.98 53.85 1.08 53.95 1.08 54.07 L1.08 55.15
							 C1.08 55.28 0.97 55.37 0.85 55.37 L0.22 55.37 C0.1 55.37 0 55.28 0 55.15 Z" class="st11"/>
			</g>
		</g>
	</g>
</svg>
