<?xml version="1.0" encoding="UTF-8" standalone="no"?>
<!DOCTYPE svg PUBLIC "-//W3C//DTD SVG 1.1//EN" "http://www.w3.org/Graphics/SVG/1.1/DTD/svg11.dtd">
<!-- Generated by Microsoft Visio, SVG Export Telemetry.svg Page-1 -->
<svg xmlns="http://www.w3.org/2000/svg" xmlns:xlink="http://www.w3.org/1999/xlink" xmlns:ev="http://www.w3.org/2001/xml-events"
		xmlns:v="http://schemas.microsoft.com/visio/2003/SVGExtensions/" width="0.649221in" height="0.82829in"
		viewBox="0 0 46.7439 59.6369" xml:space="preserve" color-interpolation-filters="sRGB" class="st2">
	<v:documentProperties v:langID="1033" v:metric="true" v:viewMarkup="false"/>

	<style type="text/css">
	<![CDATA[
		.st1 {fill:#759fcc;stroke:none;stroke-width:0.75}
		.st2 {fill:none;fill-rule:evenodd;font-size:12px;overflow:visible;stroke-linecap:square;stroke-miterlimit:3}
	]]>
	</style>

	<g v:mID="0" v:index="1" v:groupContext="foregroundPage">
		<title>Page-1</title>
		<v:pageProperties v:drawingScale="1" v:pageScale="1" v:drawingUnits="0" v:shadowOffsetX="9" v:shadowOffsetY="-9"/>
		<g id="group9939-1" transform="translate(0.75,-0.75)" v:mID="9939" v:groupContext="group">
			<title>Telematics</title>
			<g id="group9940-2" transform="translate(8.27939,-39.4863)" v:mID="9940" v:groupContext="group">
				<title>Sheet.9940</title>
				<g id="shape9941-3" v:mID="9941" v:groupContext="shape" transform="translate(8.27939,0)">
					<title>Sheet.9941</title>
					<path d="M8.92 54.45 C5.91 54.09 3 55 0.73 56.73 C0.36 56.91 0.18 57.27 0.09 57.73 C0 58.55 0.55 59.27 1.36 59.36
								 C1.82 59.45 2.18 59.27 2.46 59.09 C4.09 57.73 6.28 57.09 8.55 57.36 C10.19 57.54 11.65 58.18 12.83
								 59.18 C13.01 59.36 13.28 59.45 13.56 59.55 C14.38 59.64 15.1 59.09 15.19 58.27 C15.29 57.73 15.01
								 57.27 14.65 57 C13.01 55.63 11.1 54.72 8.92 54.45 Z" class="st1"/>
				</g>
				<g id="shape9942-5" v:mID="9942" v:groupContext="shape" transform="translate(4.0942,-5.18599)">
					<title>Sheet.9942</title>
					<path d="M13.83 53 C8.92 52.36 4.19 53.91 0.64 56.73 C0.36 57 0.09 57.27 0.09 57.73 C0 58.55 0.55 59.27 1.36
								 59.36 C1.82 59.45 2.18 59.27 2.46 59 C5.46 56.63 9.37 55.36 13.56 55.91 C16.47 56.27 19.11 57.45
								 21.2 59.18 C21.38 59.36 21.65 59.45 21.93 59.55 C22.75 59.64 23.47 59.09 23.56 58.27 C23.66 57.73
								 23.38 57.27 23.02 57 C20.47 54.91 17.38 53.45 13.83 53 Z" class="st1"/>
				</g>
				<g id="shape9943-7" v:mID="9943" v:groupContext="shape" transform="translate(0,-10.463)">
					<title>Sheet.9943</title>
					<path d="M31.39 57.09 C31.3 57.09 31.3 57.09 31.39 57.09 C27.84 54.18 23.56 52.27 18.83 51.63 C12.1 50.81 5.73
								 52.81 0.73 56.73 C0.36 57 0.18 57.27 0.09 57.73 C0 58.55 0.55 59.27 1.36 59.36 C1.73 59.45 2.09
								 59.27 2.46 59.09 C6.82 55.63 12.46 53.81 18.47 54.54 C22.65 55.09 26.48 56.82 29.57 59.27 C29.75
								 59.45 30.02 59.55 30.3 59.55 C31.12 59.64 31.84 59.09 31.93 58.27 C31.84 57.91 31.66 57.45 31.39
								 57.09 Z" class="st1"/>
				</g>
			</g>
			<g id="shape9944-9" v:mID="9944" v:groupContext="shape">
				<title>Sheet.9944</title>
				<path d="M27.75 54.45 L25.38 54.45 L19.47 54.45 C19.56 53.91 19.65 53.36 19.65 52.72 C19.65 48.36 16.1 44.72 11.65
							 44.72 C7.28 44.72 3.64 48.26 3.64 52.72 C3.64 53.27 3.73 53.91 3.82 54.45 C1.73 54.27 0 52.45 0 50.27
							 L0 48.17 C0 46.63 0.55 44.9 1.55 43.44 C6.1 36.35 14.1 30.25 22.11 29.25 C25.57 28.79 29.93 28.52 33.85
							 29.25 C38.76 30.16 42.4 33.71 43.94 37.98 C45.22 41.53 45.31 45.35 45.22 49.36 C45.22 50.81 44.67 52.63
							 43.4 53.63 C43.4 53.27 43.49 53 43.49 52.63 C43.49 48.26 39.94 44.62 35.48 44.62 C31.12 44.62 27.48
							 48.17 27.48 52.63 C27.57 53.18 27.66 53.81 27.75 54.45 ZM11.65 45.81 C15.47 45.81 18.56 48.9 18.56 52.72
							 C18.56 56.54 15.47 59.64 11.65 59.64 C7.82 59.64 4.73 56.54 4.73 52.72 C4.73 48.9 7.82 45.81 11.65 45.81
							 ZM35.57 49.45 C37.3 49.45 38.76 50.9 38.76 52.63 C38.76 54.36 37.3 55.82 35.57 55.82 C33.85 55.82 32.39
							 54.36 32.39 52.63 C32.39 50.9 33.85 49.45 35.57 49.45 ZM11.65 49.54 C13.37 49.54 14.83 50.99 14.83 52.72
							 C14.83 54.45 13.37 55.91 11.65 55.91 C9.92 55.91 8.46 54.45 8.46 52.72 C8.46 50.99 9.92 49.54 11.65
							 49.54 ZM35.57 45.72 C39.4 45.72 42.49 48.81 42.49 52.63 C42.49 56.45 39.4 59.55 35.57 59.55 C31.75 59.55
							 28.66 56.45 28.66 52.63 C28.66 48.81 31.75 45.72 35.57 45.72 ZM11.46 38.53 C11.28 38.8 11.1 39.17 11.1
							 39.53 C11.01 40.62 11.74 41.62 12.74 41.62 C19.56 41.62 26.48 41.62 33.3 41.62 C34.39 41.62 35.21 40.71
							 35.21 39.53 C35.03 33.71 29.93 31.98 25.75 31.98 C20.38 32.16 14.38 34.43 11.46 38.53 Z" class="st1"/>
			</g>
		</g>
	</g>
</svg>
