<svg viewBox="0 0 50 50" class="" role="presentation" focusable="false" xmlns:svg="http://www.w3.org/2000/svg" xmlns:xlink="http://www.w3.org/1999/xlink" id="FxSymbol0-0fb" data-type="16"><g><title></title><path d="M6 6.788v36.111c0 3.749 8.392 6.789 18.743 6.789v-42.9H6z" class="msportalfx-svg-c16" fill="#3999c6"></path><path d="M24.486 49.687h.257c10.351 0 18.743-3.038 18.743-6.788V6.788h-19v42.899z" class="msportalfx-svg-c15" fill="#59b4d9"></path><path d="M43.486 6.788c0 3.749-8.392 6.788-18.743 6.788S6 10.537 6 6.788 14.392 0 24.743 0s18.743 3.039 18.743 6.788" class="msportalfx-svg-c01" fill="#ffffff"></path><path d="M39.654 6.397c0 2.475-6.676 4.479-14.911 4.479S9.831 8.872 9.831 6.397c0-2.474 6.677-4.479 14.912-4.479s14.911 2.005 14.911 4.479" class="msportalfx-svg-c14" fill="#57a300"></path><path d="M36.53 9.134c1.952-.757 3.125-1.705 3.125-2.735 0-2.475-6.676-4.48-14.912-4.48-8.235 0-14.911 2.005-14.911 4.48 0 1.03 1.173 1.978 3.125 2.735 2.726-1.058 6.986-1.741 11.786-1.741 4.801 0 9.059.683 11.787 1.741" class="msportalfx-svg-c13" fill="#b8d432"></path><path d="M36.857 36.068c-1.003.836-2.362 1.256-4.128 1.256h-5.89V21.961h5.587c1.759 0 3.107.321 4.034.986.868.624 1.303 1.497 1.303 2.612 0 .889-.317 1.645-.964 2.31-.551.55-1.213.93-2.029 1.153v.036c1.095.135 1.989.552 2.655 1.253.623.665.944 1.481.944 2.424.004 1.405-.508 2.505-1.512 3.333m-14.355-.905c-1.474 1.442-3.464 2.161-5.947 2.161h-5.438V21.961h5.438c5.455 0 8.183 2.483 8.183 7.48 0 2.389-.738 4.301-2.236 5.722" class="msportalfx-svg-c01" fill="#ffffff"></path><path d="M16.271 24.765h-1.704v9.754h1.724c1.515 0 2.689-.474 3.558-1.383.832-.909 1.253-2.121 1.253-3.654 0-1.439-.421-2.573-1.234-3.413-.853-.868-2.046-1.304-3.597-1.304" class="msportalfx-svg-c16" fill="#3999c6"></path><path d="M33.485 27.628c.416-.362.624-.836.624-1.424 0-1.139-.832-1.706-2.52-1.706h-1.302v3.64h1.533c.701 0 1.269-.175 1.665-.51m.569 3.613c-.456-.339-1.076-.53-1.877-.53h-1.893v4.052h1.875c.797 0 1.439-.189 1.913-.568.435-.38.661-.869.661-1.515.004-.607-.223-1.099-.679-1.439" class="msportalfx-svg-c15" fill="#59b4d9"></path></g><defs>
<linearGradient id="a" x1="9" y1="16.39" x2="9" y2="-1.94" gradientUnits="userSpaceOnUse"><stop offset="0" stop-color="#0078d4"></stop><stop offset=".16" stop-color="#1380da"></stop><stop offset=".53" stop-color="#3c91e5"></stop><stop offset=".82" stop-color="#559cec"></stop><stop offset="1" stop-color="#5ea0ef"></stop></linearGradient>
<linearGradient id="b" x1="9.88" y1="7.11" x2="9.99" y2="17.27" gradientUnits="userSpaceOnUse"><stop offset="0" stop-color="#32d4f5"></stop><stop offset=".32" stop-color="#31d1f3"></stop><stop offset=".53" stop-color="#2ec9eb"></stop><stop offset=".7" stop-color="#29bade"></stop><stop offset=".86" stop-color="#22a5cb"></stop><stop offset="1" stop-color="#198ab3"></stop><stop offset="1" stop-color="#198ab3"></stop></linearGradient>
<radialGradient id="c" cx="9.43" cy="7.03" r="7.27" gradientUnits="userSpaceOnUse"><stop offset="0" stop-color="#f2f2f2"></stop><stop offset=".58" stop-color="#eee"></stop><stop offset="1" stop-color="#e6e6e6"></stop></radialGradient>
</defs>
</svg>