<?xml version="1.0" encoding="UTF-8" standalone="no"?>
<!DOCTYPE svg PUBLIC "-//W3C//DTD SVG 1.1//EN" "http://www.w3.org/Graphics/SVG/1.1/DTD/svg11.dtd">
<!-- Generated by Microsoft Visio, SVG Export Traffic-Light.svg Page-1 -->
<svg xmlns="http://www.w3.org/2000/svg" xmlns:xlink="http://www.w3.org/1999/xlink" xmlns:ev="http://www.w3.org/2001/xml-events"
		xmlns:v="http://schemas.microsoft.com/visio/2003/SVGExtensions/" width="11in" height="8.5in" viewBox="0 0 792 612"
		xml:space="preserve" color-interpolation-filters="sRGB" class="st10">
	<v:documentProperties v:langID="1033" v:viewMarkup="false">
		<v:userDefs>
			<v:ud v:nameU="msvSubprocessMaster" v:prompt="" v:val="VT4(Rectangle)"/>
			<v:ud v:nameU="msvNoAutoConnect" v:val="VT0(1):26"/>
		</v:userDefs>
	</v:documentProperties>

	<style type="text/css">
	<![CDATA[
		.st1 {fill:#ffffff;stroke:none;stroke-width:0.690696}
		.st2 {fill:#ffffff;stroke:none;stroke-width:0.690714}
		.st3 {fill:none}
		.st4 {stroke:#003a55;stroke-width:2.07209}
		.st5 {fill:#003a55;stroke:none;stroke-width:0.690696}
		.st6 {fill:#dbdbdb;stroke:none;stroke-width:0.690696}
		.st7 {fill:#ff0000;stroke:none;stroke-width:0.690696}
		.st8 {fill:#ffd965;stroke:none;stroke-width:0.690696}
		.st9 {fill:#00b050;stroke:none;stroke-width:0.690696}
		.st10 {fill:none;fill-rule:evenodd;font-size:12px;overflow:visible;stroke-linecap:square;stroke-miterlimit:3}
	]]>
	</style>

	<g v:mID="0" v:index="1" v:groupContext="foregroundPage">
		<v:userDefs>
			<v:ud v:nameU="msvThemeOrder" v:val="VT0(0):26"/>
		</v:userDefs>
		<title>Page-1</title>
		<v:pageProperties v:drawingScale="1" v:pageScale="1" v:drawingUnits="0" v:shadowOffsetX="9" v:shadowOffsetY="-9"/>
		<g id="group18580-1" transform="translate(378.386,-468.098)" v:mID="18580" v:groupContext="group">
			<title>Satellite_3_</title>
			<g id="group18581-2" v:mID="18581" v:groupContext="group">
				<title>Sheet.18581</title>
				<g id="group18582-3" v:mID="18582" v:groupContext="group">
					<title>Sheet.18582</title>
					<g id="shape18583-4" v:mID="18583" v:groupContext="shape" transform="translate(30.8313,0)">
						<title>Sheet.18583</title>
						<path d="M15.21 601.92 L5.43 596.23 L5.43 596.23 C5.48 596.44 5.52 596.65 5.56 596.87 C5.58 596.94 5.59 597.02
									 5.6 597.1 C5.64 597.29 5.66 597.49 5.68 597.69 C5.69 597.78 5.69 597.87 5.7 597.97 C5.71 598.19
									 5.72 598.41 5.71 598.63 C5.71 598.85 5.7 599.07 5.68 599.28 C5.66 599.41 5.64 599.53 5.62 599.65
									 C5.59 599.82 5.56 599.99 5.52 600.15 C5.5 600.26 5.47 600.38 5.43 600.49 C5.38 600.67 5.32 600.85
									 5.25 601.03 C5.22 601.12 5.19 601.21 5.15 601.3 C5.04 601.57 4.91 601.83 4.76 602.08 C4.62 602.34
									 4.45 602.57 4.27 602.8 C4.22 602.88 4.15 602.96 4.09 603.03 C3.97 603.18 3.84 603.32 3.71 603.45
									 C3.63 603.53 3.54 603.62 3.46 603.7 C3.33 603.81 3.2 603.92 3.07 604.02 C2.97 604.1 2.88 604.18
									 2.78 604.26 C2.61 604.38 2.44 604.48 2.27 604.59 C2.07 604.71 1.86 604.82 1.64 604.93 C1.56
									 604.97 1.48 605.01 1.4 605.05 C1.22 605.13 1.03 605.21 0.84 605.28 C0.77 605.3 0.7 605.33 0.63
									 605.35 C0.42 605.42 0.21 605.49 0 605.55 L9.78 611.24 C11.08 612 12.74 611.56 13.5 610.26 L16.19
									 605.64 C16.94 604.34 16.51 602.68 15.21 601.92 Z" class="st1"/>
					</g>
					<g id="shape18584-6" v:mID="18584" v:groupContext="shape" transform="translate(-5.09592E-14,-17.2729)">
						<title>Sheet.18584</title>
						<path d="M12.91 606.14 C13.93 604.39 15.62 603.23 17.67 602.68 L7.17 596.56 C5.87 595.8 4.2 596.24 3.45 597.54
									 L0.76 602.16 C0 603.46 0.44 605.12 1.74 605.88 L12.25 612 C11.72 609.94 11.89 607.9 12.91 606.14
									 Z" class="st1"/>
					</g>
					<g id="shape18585-8" v:mID="18585" v:groupContext="shape" transform="translate(22.2342,-14.9404)">
						<title>Sheet.18585</title>
						<path d="M1.2 611.78 L0.52 611.38 C0.13 611.16 0 610.66 0.22 610.28 L6.64 599.26 C6.86 598.87 7.36 598.74
									 7.74 598.97 L8.42 599.36 C8.81 599.59 8.94 600.08 8.71 600.47 L2.3 611.48 C2.07 611.87 1.58
									 612 1.2 611.78 Z" class="st1"/>
					</g>
					<g id="shape18586-10" v:mID="18586" v:groupContext="shape" transform="translate(12.083,-6.592)">
						<title>Sheet.18586</title>
						<path d="M18 596.66 L13.98 603.57 C13.22 604.88 11.54 605.32 10.23 604.56 C8.92 603.8 8.48 602.12 9.24 600.81
									 L13.19 594.03 C8.53 592.38 3.95 593.17 2.16 596.24 C0 599.95 2.73 605.56 8.26 608.78 C13.79
									 612 20.02 611.6 22.18 607.9 C24.07 604.65 22.21 599.94 18 596.66 Z" class="st1"/>
					</g>
				</g>
				<g id="shape18587-12" v:mID="18587" v:groupContext="shape" transform="translate(26.292,-29.0555)">
					<title>Sheet.18587</title>
					<path d="M13 611.73 C12.66 611.54 12.4 611.21 12.29 610.81 C11.5 607.94 10.27 606.01 8.66 605.07 C8.63 605.05
								 8.6 605.04 8.58 605.02 C6.97 604.12 4.86 604.07 2.15 604.86 C1.33 605.1 0.47 604.62 0.24 603.81
								 C0 602.99 0.47 602.13 1.29 601.9 C4.79 600.88 7.75 601.03 10.08 602.33 C10.12 602.35 10.17 602.38
								 10.21 602.4 C12.55 603.76 14.25 606.32 15.26 609.99 C15.49 610.81 15.01 611.66 14.19 611.88 C13.77
								 612 13.35 611.93 13 611.73 Z" class="st1"/>
				</g>
				<g id="shape18588-14" v:mID="18588" v:groupContext="shape" transform="translate(25.3865,-30.5826)">
					<title>Sheet.18588</title>
					<path d="M18.4 611.74 C18.04 611.53 17.76 611.18 17.67 610.74 C16.91 607.24 14.89 604.38 11.98 602.69 C11.98
								 602.69 11.98 602.69 11.98 602.68 C9.08 601 5.6 600.66 2.18 601.72 C1.37 601.97 0.5 601.52 0.25 600.7
								 C0 599.89 0.45 599.03 1.27 598.77 C5.52 597.45 9.88 597.89 13.53 600.02 C13.53 600.02 13.53 600.02
								 13.54 600.02 C17.2 602.16 19.74 605.73 20.68 610.08 C20.86 610.91 20.34 611.73 19.5 611.91 C19.11
								 612 18.72 611.93 18.4 611.74 Z" class="st1"/>
				</g>
				<g id="shape18589-16" v:mID="18589" v:groupContext="shape" transform="translate(-495.742,276.829) rotate(-59.7889)">
					<title>Sheet.18589</title>
					<ellipse cx="2.72279" cy="609.277" rx="2.72279" ry="2.72279" class="st2"/>
				</g>
			</g>
			<g id="shape18590-18" v:mID="18590" v:groupContext="shape" transform="translate(10.4295,-1.60034)">
				<title>Sheet.18590</title>
				<path d="M9.14 605.12 C6.29 603.46 4.13 601.25 2.85 598.91 L0.67 602.67 C0 603.81 0.8 604.86 1.53 605.96 C3.42 608.79
							 7.26 611.52 11.43 611.73 C12.76 611.79 14.06 612 14.72 610.86 L16.68 607.5 C14.27 607.36 11.65 606.58
							 9.14 605.12 Z" class="st1"/>
			</g>
		</g>
		<g id="group19008-20" transform="translate(18,-537.357)" v:mID="19008" v:groupContext="group">
			<title>Traffic Light</title>
			<g id="shape19009-21" v:mID="19009" v:groupContext="shape" transform="translate(14.7309,-33.4505)">
				<title>Sheet.19009</title>
				<path d="M0.23 612 C0 602.05 3.16 588.81 16.49 588.81 L0.23 612 Z" class="st3"/>
				<path d="M0.23 612 C0 602.05 3.16 588.81 16.49 588.81" class="st4"/>
			</g>
			<g id="shape19010-24" v:mID="19010" v:groupContext="shape">
				<title>Sheet.19010</title>
				<path d="M26.58 574.95 L4.64 574.95 C2.08 574.95 0 577.03 0 579.59 L0 584.47 L0 607.36 C0 609.92 2.08 612 4.64 612
							 L26.58 612 C29.14 612 31.22 609.92 31.22 607.36 L31.22 584.47 L31.22 579.59 C31.22 577.03 29.14 574.95
							 26.58 574.95 Z" class="st5"/>
			</g>
			<g id="group19011-26" v:mID="19011" v:groupContext="group">
				<title>Project_Status_1_</title>
				<g id="shape19012-27" v:mID="19012" v:groupContext="shape">
					<title>Sheet.19012</title>
					<path d="M26.58 574.95 L4.64 574.95 C2.08 574.95 0 577.03 0 579.59 L0 584.47 L0 607.36 C0 609.92 2.08 612 4.64
								 612 L26.58 612 C29.14 612 31.22 609.92 31.22 607.36 L31.22 584.47 L31.22 579.59 C31.22 577.03 29.14
								 574.95 26.58 574.95 ZM29.92 607.36 C29.92 609.2 28.42 610.7 26.58 610.7 L4.64 610.7 C2.8 610.7 1.3
								 609.2 1.3 607.36 L1.3 579.27 L29.92 579.27 L29.92 607.36 Z" class="st6"/>
				</g>
				<g id="group19013-29" transform="translate(5.11431,-5.72767)" v:mID="19013" v:groupContext="group">
					<title>Sheet.19013</title>
					<g id="group19014-30" transform="translate(4.69284,0)" v:mID="19014" v:groupContext="group">
						<title>Sheet.19014</title>
						<g id="shape19015-31" v:mID="19015" v:groupContext="shape">
							<title>Sheet.19015</title>
							<path d="M8.51 612 L3.1 612 C1.39 612 0 610.61 0 608.9 L0 592.11 C0 590.4 1.39 589.01 3.1 589.01 L8.51
										 589.01 C10.22 589.01 11.61 590.4 11.61 592.11 L11.61 608.9 C11.61 610.61 10.22 612 8.51
										 612 ZM3.1 590.02 C1.95 590.02 1.01 590.95 1.01 592.11 L1.01 608.9 C1.01 610.05 1.95 610.99
										 3.1 610.99 L8.51 610.99 C9.66 610.99 10.6 610.05 10.6 608.9 L10.6 592.11 C10.6 590.95 9.66
										 590.02 8.51 590.02 L3.1 590.02 Z" class="st6"/>
						</g>
						<g id="shape19016-33" v:mID="19016" v:groupContext="shape" transform="translate(2.91327,-15.0769)">
							<title>Sheet.19016</title>
							<ellipse cx="2.88985" cy="609.11" rx="2.88985" ry="2.88985" class="st7"/>
						</g>
						<g id="shape19017-35" v:mID="19017" v:groupContext="shape" transform="translate(2.91327,-8.60646)">
							<title>Sheet.19017</title>
							<ellipse cx="2.88985" cy="609.11" rx="2.88985" ry="2.88985" class="st8"/>
						</g>
						<g id="shape19018-37" v:mID="19018" v:groupContext="shape" transform="translate(2.91327,-2.13535)">
							<title>Sheet.19018</title>
							<ellipse cx="2.88985" cy="609.11" rx="2.88985" ry="2.88985" class="st9"/>
						</g>
					</g>
					<g id="group19019-39" transform="translate(0,-15.596)" v:mID="19019" v:groupContext="group">
						<title>Sheet.19019</title>
						<g id="shape19020-40" v:mID="19020" v:groupContext="shape">
							<title>Sheet.19020</title>
							<path d="M0 606.74 L3.69 606.74 L3.69 612 L0 606.74 Z" class="st6"/>
						</g>
						<g id="shape19021-42" v:mID="19021" v:groupContext="shape" transform="translate(17.3033,0)">
							<title>Sheet.19021</title>
							<path d="M3.69 606.74 L0 606.74 L0 612 L3.69 606.74 Z" class="st6"/>
						</g>
					</g>
					<g id="group19022-44" transform="translate(0,-9.12485)" v:mID="19022" v:groupContext="group">
						<title>Sheet.19022</title>
						<g id="shape19023-45" v:mID="19023" v:groupContext="shape">
							<title>Sheet.19023</title>
							<path d="M0 606.74 L3.69 606.74 L3.69 612 L0 606.74 Z" class="st6"/>
						</g>
						<g id="shape19024-47" v:mID="19024" v:groupContext="shape" transform="translate(17.3033,0)">
							<title>Sheet.19024</title>
							<path d="M3.69 606.74 L0 606.74 L0 612 L3.69 606.74 Z" class="st6"/>
						</g>
					</g>
					<g id="group19025-49" transform="translate(0,-2.6544)" v:mID="19025" v:groupContext="group">
						<title>Sheet.19025</title>
						<g id="shape19026-50" v:mID="19026" v:groupContext="shape">
							<title>Sheet.19026</title>
							<path d="M0 606.74 L3.69 606.74 L3.69 612 L0 606.74 Z" class="st6"/>
						</g>
						<g id="shape19027-52" v:mID="19027" v:groupContext="shape" transform="translate(17.3033,0)">
							<title>Sheet.19027</title>
							<path d="M3.69 606.74 L0 606.74 L0 612 L3.69 606.74 Z" class="st6"/>
						</g>
					</g>
				</g>
			</g>
		</g>
	</g>
</svg>
