<?xml version="1.0" encoding="iso-8859-1"?>
<!-- Generator: Adobe Illustrator 19.0.0, SVG Export Plug-In . SVG Version: 6.00 Build 0)  -->
<svg version="1.1" id="Layer_1" xmlns="http://www.w3.org/2000/svg" xmlns:xlink="http://www.w3.org/1999/xlink" x="0px" y="0px"
	 viewBox="0 0 496 496" style="enable-background:new 0 0 496 496;" xml:space="preserve">
<g>
	<path style="fill:#779FAA;" d="M80.8,182c0,1.6-1.6,3.2-3.2,3.2l0,0c-1.6,0-3.2-1.6-3.2-3.2v-56.8c0-1.6,1.6-3.2,3.2-3.2l0,0
		c1.6,0,3.2,1.6,3.2,3.2V182z"/>
	<path style="fill:#779FAA;" d="M244,182c0,1.6-1.6,3.2-3.2,3.2l0,0c-1.6,0-3.2-1.6-3.2-3.2v-56.8c0-1.6,1.6-3.2,3.2-3.2l0,0
		c1.6,0,3.2,1.6,3.2,3.2V182z"/>
</g>
<path style="fill:#DB0940;" d="M16,314c0,4-3.2,3.2-6.4,3.2l0,0c-4,0-6.4-3.2-6.4-6.4v-29.6c0-4,3.2-6.4,6.4-6.4l0,0
	c4,0,6.4,3.2,6.4,6.4V314z"/>
<path style="fill:#BC043D;" d="M9.6,274.8L9.6,274.8c4,0,6.4,3.2,6.4,6.4V314c0,4-3.2,3.2-6.4,3.2l0,0"/>
<path style="fill:#59CE0D;" d="M311.2,183.6c0,8-6.4,13.6-13.6,13.6h-264c-8,0-13.6-6.4-13.6-13.6v-22.4c0-8,6.4-13.6,13.6-13.6h264
	c8,0,13.6,6.4,13.6,13.6V183.6z"/>
<g>
	<path style="fill:#4CB508;" d="M311.2,187.6c0,8-6.4,13.6-13.6,13.6h-264c-8,0-13.6-6.4-13.6-13.6v-22.4c0-8,6.4-13.6,13.6-13.6
		h264c8,0,13.6,6.4,13.6,13.6V187.6z"/>
	<path style="fill:#4CB508;" d="M492.8,327.6c0,5.6-5.6,9.6-12,9.6H19.2c-6.4,0-12-4-12-9.6v-64.8c0-5.6,5.6-9.6,12-9.6h453.6
		c6.4,0,12,4,12,9.6L492.8,327.6z"/>
</g>
<path style="fill:#59CE0D;" d="M24,277.2c-9.6,0-16.8-5.6-16.8-12.8v-89.6c0-7.2,7.2-12.8,16.8-12.8h362.4c9.6,0,26.4,5.6,26.4,12.8
	l35.2,80"/>
<path style="fill:#9FD618;" d="M301.6,342.8c0,2.4-2.4,4.8-4.8,4.8h-78.4c-2.4,0-4.8-2.4-4.8-4.8v-160c0-2.4,2.4-4.8,4.8-4.8h78.4
	c2.4,0,4.8,2.4,4.8,4.8V342.8z"/>
<path style="fill:#B3E529;" d="M301.6,262v-80c0-2.4-2.4-4.8-4.8-4.8h-78.4c-2.4,0-4.8,2.4-4.8,4.8v84.8L301.6,262z"/>
<path style="fill:#0B9100;" d="M496,340.4c0,4-4,6.4-8,6.4H8c-4.8,0-8-3.2-8-6.4v-4c0-4,4-6.4,8-6.4h480c4.8,0,8,3.2,8,6.4V340.4z"
	/>
<path d="M43.2,335.6c0-22.4,18.4-40.8,40.8-40.8s40.8,18.4,40.8,40.8"/>
<path style="fill:#B3E529;" d="M126.4,335.6h-3.2c0-21.6-17.6-39.2-39.2-39.2S44.8,314,44.8,335.6h-3.2c0-23.2,19.2-42.4,42.4-42.4
	S126.4,312.4,126.4,335.6z"/>
<circle style="fill:#203547;" cx="84" cy="337.2" r="36.8"/>
<path style="fill:#122130;" d="M110.4,310.8c14.4,14.4,14.4,37.6,0,52s-37.6,14.4-52,0"/>
<circle style="fill:#6E7577;" cx="84" cy="337.2" r="23.2"/>
<path style="fill:#4C5456;" d="M100,320.4c8.8,8.8,8.8,24,0,32.8s-24,8.8-32.8,0"/>
<circle style="fill:#59CE0D;" cx="84" cy="337.2" r="20"/>
<path style="fill:#4CB508;" d="M98.4,322.8c8,8,8,20.8,0,28.8s-20.8,8-28.8,0"/>
<path style="opacity:0.2;fill:#888F91;enable-background:new    ;" d="M93.6,337.2c0,5.6-4,11.2-9.6,11.2c-4.8,0-9.6-5.6-9.6-11.2
	c0-4.8,4-9.6,9.6-9.6S93.6,331.6,93.6,337.2z"/>
<circle style="fill:#B3E529;" cx="84" cy="337.2" r="9.6"/>
<path style="fill:#9FD618;" d="M84,327.6c4.8,0,9.6,4,9.6,9.6s-4,9.6-9.6,9.6"/>
<path style="fill:#666E70;" d="M84,316.4c-0.8,0-1.6,0-2.4,0c0,3.2,1.6,4.8,2.4,4.8c1.6,0,2.4-2.4,2.4-4.8
	C85.6,317.2,84.8,316.4,84,316.4z"/>
<path style="fill:#535A5B;" d="M84,322c1.6,0,2.4-2.4,2.4-4.8c-0.8,0-1.6,0-2.4,0"/>
<path style="fill:#666E70;" d="M81.6,357.2c1.6,0,4,0,5.6,0c0-3.2-1.6-4.8-2.4-4.8C82.4,352.4,81.6,354,81.6,357.2z"/>
<path style="fill:#535A5B;" d="M86.4,357.2c0-3.2-1.6-4.8-2.4-4.8"/>
<path style="fill:#666E70;" d="M68,325.2c2.4,1.6,4.8,2.4,5.6,1.6c0.8-0.8,0-3.2-1.6-5.6C70.4,322,68.8,323.6,68,325.2z"/>
<path style="fill:#535A5B;" d="M73.6,326.8c0.8-0.8,0-3.2-1.6-5.6"/>
<path style="fill:#666E70;" d="M100,349.2c-2.4-1.6-4.8-2.4-5.6-1.6c-0.8,0.8,0,3.2,1.6,5.6c0.8-0.8,1.6-0.8,2.4-1.6
	C99.2,350.8,99.2,350,100,349.2z"/>
<path style="fill:#535A5B;" d="M98.4,351.6c0.8-0.8,0.8-1.6,1.6-2.4c-2.4-1.6-4.8-2.4-5.6-1.6"/>
<path style="fill:#666E70;" d="M64,339.6c3.2,0,4.8-1.6,4.8-2.4c0-1.6-2.4-2.4-4.8-2.4c0,0.8,0,1.6,0,2.4S64,338.8,64,339.6z"/>
<path style="fill:#535A5B;" d="M68.8,337.2c0-1.6-2.4-2.4-4.8-2.4c0,0.8,0,1.6,0,2.4"/>
<path style="fill:#666E70;" d="M99.2,337.2c0,1.6,2.4,2.4,4.8,2.4c0-1.6,0-4,0-5.6C100.8,334.8,99.2,335.6,99.2,337.2z"/>
<path style="fill:#535A5B;" d="M104,334c-3.2,0-4.8,1.6-4.8,2.4"/>
<path style="fill:#666E70;" d="M68,349.2c0.8,1.6,2.4,2.4,4,4c1.6-2.4,2.4-4.8,1.6-5.6C72.8,346.8,70.4,347.6,68,349.2z"/>
<path style="fill:#535A5B;" d="M72,353.2c1.6-2.4,2.4-4.8,1.6-5.6"/>
<path style="fill:#666E70;" d="M96,321.2c-1.6,2.4-2.4,4.8-1.6,5.6c0.8,0.8,3.2,0,5.6-1.6C99.2,323.6,97.6,322,96,321.2z"/>
<path style="fill:#535A5B;" d="M96,321.2c-1.6,2.4-2.4,4.8-1.6,5.6"/>
<path d="M372,335.6c0-22.4,18.4-40.8,40.8-40.8s40.8,18.4,40.8,40.8"/>
<path style="fill:#B3E529;" d="M454.4,335.6h-3.2c0-21.6-17.6-39.2-39.2-39.2s-39.2,17.6-39.2,39.2h-3.2c0-23.2,19.2-42.4,42.4-42.4
	C436,293.2,454.4,312.4,454.4,335.6z"/>
<circle style="fill:#203547;" cx="412.8" cy="337.2" r="36.8"/>
<path style="fill:#122130;" d="M438.4,310.8c14.4,14.4,14.4,37.6,0,52s-37.6,14.4-52,0"/>
<circle style="fill:#6E7577;" cx="412.8" cy="337.2" r="23.2"/>
<path style="fill:#4C5456;" d="M428.8,320.4c8.8,8.8,8.8,24,0,32.8s-24,8.8-32.8,0"/>
<circle style="fill:#59CE0D;" cx="412.8" cy="337.2" r="20"/>
<path style="fill:#4CB508;" d="M426.4,322.8c8,8,8,20.8,0,28.8s-20.8,8-28.8,0"/>
<path style="opacity:0.2;fill:#888F91;enable-background:new    ;" d="M421.6,337.2c0,5.6-4,11.2-9.6,11.2s-9.6-5.6-9.6-11.2
	c0-4.8,4-9.6,9.6-9.6S421.6,331.6,421.6,337.2z"/>
<circle style="fill:#B3E529;" cx="412.8" cy="337.2" r="9.6"/>
<path style="fill:#9FD618;" d="M412.8,327.6c4.8,0,9.6,4,9.6,9.6s-4,9.6-9.6,9.6"/>
<path style="fill:#666E70;" d="M412.8,316.4c-0.8,0-1.6,0-2.4,0c0,3.2,1.6,4.8,2.4,4.8c1.6,0,2.4-2.4,2.4-4.8
	C414.4,317.2,413.6,316.4,412.8,316.4z"/>
<path style="fill:#535A5B;" d="M412.8,322c1.6,0,2.4-2.4,2.4-4.8c-0.8,0-1.6,0-2.4,0"/>
<path style="fill:#666E70;" d="M409.6,357.2c1.6,0,4,0,5.6,0c0-3.2-1.6-4.8-2.4-4.8C411.2,352.4,410.4,354,409.6,357.2z"/>
<path style="fill:#535A5B;" d="M415.2,357.2c0-3.2-1.6-4.8-2.4-4.8"/>
<path style="fill:#666E70;" d="M396,325.2c2.4,1.6,4.8,2.4,5.6,1.6c0.8-0.8,0-3.2-1.6-5.6C398.4,322,397.6,323.6,396,325.2z"/>
<path style="fill:#535A5B;" d="M401.6,326.8c0.8-0.8,0-3.2-1.6-5.6"/>
<path style="fill:#666E70;" d="M428.8,349.2c-2.4-1.6-4.8-2.4-5.6-1.6c-0.8,0.8,0,3.2,1.6,5.6c0.8-0.8,1.6-0.8,2.4-1.6
	C427.2,350.8,428,350,428.8,349.2z"/>
<path style="fill:#535A5B;" d="M426.4,351.6c0.8-0.8,0.8-1.6,1.6-2.4c-2.4-1.6-4.8-2.4-5.6-1.6"/>
<path style="fill:#666E70;" d="M392,339.6c3.2,0,4.8-1.6,4.8-2.4c0-1.6-2.4-2.4-4.8-2.4c0,0.8,0,1.6,0,2.4S392,338.8,392,339.6z"/>
<path style="fill:#535A5B;" d="M397.6,337.2c0-1.6-2.4-2.4-4.8-2.4c0,0.8,0,1.6,0,2.4"/>
<path style="fill:#666E70;" d="M427.2,337.2c0,1.6,2.4,2.4,4.8,2.4c0-1.6,0-4,0-5.6C429.6,334.8,427.2,335.6,427.2,337.2z"/>
<path style="fill:#535A5B;" d="M432,334c-3.2,0-4.8,1.6-4.8,2.4"/>
<path style="fill:#666E70;" d="M396,349.2c0.8,1.6,2.4,2.4,4,4c1.6-2.4,2.4-4.8,1.6-5.6C400.8,346.8,398.4,347.6,396,349.2z"/>
<path style="fill:#535A5B;" d="M400,353.2c1.6-2.4,2.4-4.8,1.6-5.6"/>
<path style="fill:#666E70;" d="M424.8,321.2c-1.6,2.4-2.4,4.8-1.6,5.6s3.2,0,5.6-1.6C427.2,323.6,426.4,322,424.8,321.2z"/>
<path style="fill:#535A5B;" d="M424.8,321.2c-1.6,2.4-2.4,4.8-1.6,5.6"/>
<path style="fill:#51859B;" d="M444.8,246.8L414.4,178h-95.2c-4,0-7.2,3.2-7.2,7.2v55.2c0,4,3.2,7.2,7.2,7.2h123.2
	C443.2,247.6,444,246.8,444.8,246.8z"/>
<g>
	<path style="fill:#81B6C9;" d="M355.2,178L312,221.2v19.2c0,3.2,2.4,6.4,5.6,7.2l68.8-68.8h-31.2V178z"/>
	<polygon style="fill:#81B6C9;" points="344,178 325.6,178 312,190.8 312,210 	"/>
	<path style="fill:#81B6C9;" d="M413.6,247.6h28.8c0.8,0,1.6,0,2.4-0.8l-9.6-21.6L413.6,247.6z"/>
	<polygon style="fill:#81B6C9;" points="417.6,185.2 414.4,178 409.6,178 340.8,247.6 356,247.6 	"/>
</g>
<path style="fill:#59CE0D;" d="M417.6,251.6c0.8,2.4-0.8,4-2.4,4.8l0,0c-2.4,0.8-4-0.8-4.8-2.4l-23.2-86.4c-0.8-2.4,0.8-4,2.4-4.8
	l0,0c2.4-0.8,4,0.8,4.8,2.4L417.6,251.6z"/>
<path style="fill:#B3E529;" d="M332,263.6c0,2.4-1.6,4-4,4h-10.4c-2.4,0-4-1.6-4-4l0,0c0-2.4,1.6-4,4-4H328
	C329.6,259.6,332,261.2,332,263.6L332,263.6z"/>
<g>
	<path style="fill:#59CE0D;" d="M35.2,286c0,0.8-0.8,1.6-1.6,1.6h-8c-0.8,0-1.6-0.8-1.6-1.6l0,0c0-0.8,0.8-1.6,1.6-1.6h8.8
		C34.4,284.4,35.2,285.2,35.2,286L35.2,286z"/>
	<path style="fill:#59CE0D;" d="M35.2,293.2c0,0.8-0.8,1.6-1.6,1.6h-8c-0.8,0-1.6-0.8-1.6-1.6l0,0c0-0.8,0.8-1.6,1.6-1.6h8.8
		C34.4,291.6,35.2,292.4,35.2,293.2L35.2,293.2z"/>
	<path style="fill:#59CE0D;" d="M35.2,299.6c0,0.8-0.8,1.6-1.6,1.6h-8c-0.8,0-1.6-0.8-1.6-1.6l0,0c0-0.8,0.8-1.6,1.6-1.6h8.8
		C34.4,298.8,35.2,298.8,35.2,299.6L35.2,299.6z"/>
</g>
<path style="fill:#FFA300;" d="M489.6,307.6c0,3.2-2.4,5.6-5.6,5.6l0,0c-3.2,0-5.6-2.4-5.6-5.6v-27.2c0-3.2,2.4-5.6,5.6-5.6l0,0
	c3.2,0,5.6,2.4,5.6,5.6V307.6z"/>
<path style="fill:#FF7300;" d="M484.8,312.4L484.8,312.4c-3.2,0-5.6-2.4-5.6-5.6v-27.2c0-3.2,2.4-5.6,5.6-5.6l0,0"/>
<path style="fill:#9FD618;" d="M277.6,228.4c0,4-3.2,8-8,8h-23.2c-4,0-8-3.2-8-8v-23.2c0-4,3.2-8,8-8h23.2c4,0,8,3.2,8,8V228.4z"/>
<path style="fill:#51859B;" d="M179.2,241.2c0,1.6-1.6,3.2-3.2,3.2H58.4c-1.6,0-3.2-1.6-3.2-3.2v-52c0-1.6,1.6-3.2,3.2-3.2H176
	c1.6,0,3.2,1.6,3.2,3.2V241.2z"/>
<g>
	<path style="fill:#81B6C9;" d="M108,243.6h60.8l9.6-10.4v-44.8c0-1.6-1.6-3.2-3.2-3.2h-10.4L108,243.6z"/>
	<polygon style="fill:#81B6C9;" points="80,186 55.2,210 55.2,222 91.2,186 	"/>
	<path style="fill:#81B6C9;" d="M60,186h-1.6c-1.6,0-3.2,1.6-3.2,3.2v1.6L60,186z"/>
	<polygon style="fill:#81B6C9;" points="148.8,186 124.8,186 67.2,243.6 92,243.6 	"/>
</g>
<path style="fill:#59CE0D;" d="M120.8,250.8c0,1.6-1.6,3.2-3.2,3.2l0,0c-1.6,0-3.2-1.6-3.2-3.2V182c0-1.6,1.6-3.2,3.2-3.2l0,0
	c1.6,0,3.2,1.6,3.2,3.2V250.8z"/>
<path style="fill:#51859B;" d="M277.6,224.4c0,4-3.2,8-8,8h-23.2c-4,0-8-3.2-8-8v-23.2c0-4,3.2-8,8-8h23.2c4,0,8,3.2,8,8V224.4z"/>
<g>
	<path style="fill:#81B6C9;" d="M244,193.2c-2.4,0.8-4,2.4-4.8,4.8L244,193.2z"/>
	<path style="fill:#81B6C9;" d="M246.4,231.6L246.4,231.6l31.2-30.4l0,0c0-4-3.2-8-8-8h-0.8l-30.4,30.4l0,0
		C238.4,228.4,242.4,231.6,246.4,231.6z"/>
	<path style="fill:#81B6C9;" d="M280.8,134c0,2.4-2.4,4.8-4.8,4.8H41.6c-2.4,0-4.8-2.4-4.8-4.8l0,0c0-2.4,2.4-4.8,4.8-4.8h233.6
		C278.4,129.2,280.8,131.6,280.8,134L280.8,134z"/>
</g>
<g>
</g>
<g>
</g>
<g>
</g>
<g>
</g>
<g>
</g>
<g>
</g>
<g>
</g>
<g>
</g>
<g>
</g>
<g>
</g>
<g>
</g>
<g>
</g>
<g>
</g>
<g>
</g>
<g>
</g>
</svg>
