<svg id="Capa_1" enable-background="new 0 0 512 512" height="512" viewBox="0 0 512 512" width="512" xmlns="http://www.w3.org/2000/svg"><g><g><g><path clip-rule="evenodd" d="m114.286 512h67.075c2.803 0 5.11-2.307 5.11-5.081v-35.977l-38.633-24.437-38.633 24.437v35.977c0 2.774 2.278 5.081 5.081 5.081z" fill="#c8c5c9" fill-rule="evenodd"/></g><g><path clip-rule="evenodd" d="m330.609 512h67.105c2.803 0 5.081-2.307 5.081-5.081v-35.977l-41.201-19.723-36.065 19.723v35.977c-.001 2.774 2.277 5.081 5.08 5.081z" fill="#c8c5c9" fill-rule="evenodd"/></g><g><path clip-rule="evenodd" d="m186.472 470.942h139.057 77.267 24.938c2.833 0 5.139-2.307 5.139-5.14 0-458.005 0-196.53 0-460.663 0-2.833-2.307-5.14-5.139-5.14h-343.467c-2.833 0-5.139 2.307-5.139 5.14v460.663c0 2.833 2.307 5.14 5.139 5.14h24.938z" fill="#eceaec" fill-rule="evenodd"/></g><g><path clip-rule="evenodd" d="m302.05 334.977c2.803 0 5.139-2.336 5.139-5.169v-67.778h-40.123-32.443-39.655-32.472-40.123v67.778c0 2.833 2.336 5.169 5.169 5.169z" fill="#9fd4fe" fill-rule="evenodd"/></g><g><path clip-rule="evenodd" d="m307.19 262.03v-36.444-36.473h-40.123-32.443-112.25v72.918c85.59-.001 99.256-.001 184.816-.001z" fill="#9fd4fe" fill-rule="evenodd"/></g><g><path clip-rule="evenodd" d="m122.375 189.113h184.815v-72.918h-40.123-32.443-39.655-32.472-40.123v72.918z" fill="#9fd4fe" fill-rule="evenodd"/></g><g><path clip-rule="evenodd" d="m307.19 116.195v-36.473-31.305c0-2.833-2.307-5.169-5.139-5.169h-174.507c-2.833 0-5.169 2.336-5.169 5.169v67.778z" fill="#9fd4fe" fill-rule="evenodd"/></g><g><path clip-rule="evenodd" d="m168.075 89.3v26.895h32.443v-26.895c0-8.936-7.3-16.236-16.207-16.236-8.936 0-16.236 7.3-16.236 16.236z" fill="#ff8086" fill-rule="evenodd"/></g><g><path clip-rule="evenodd" d="m229.894 116.195h32.443v-26.895c0-8.936-7.3-16.236-16.236-16.236-8.906 0-16.207 7.3-16.207 16.236z" fill="#ff8086" fill-rule="evenodd"/></g><g><path clip-rule="evenodd" d="m229.894 162.218v26.895h32.443v-26.895c0-8.936-7.3-16.236-16.236-16.236-8.907-.001-16.207 7.3-16.207 16.236z" fill="#ff8086" fill-rule="evenodd"/></g><g><path clip-rule="evenodd" d="m229.894 235.135v26.895h32.443v-26.895c0-8.907-7.3-16.207-16.236-16.207-8.907 0-16.207 7.301-16.207 16.207z" fill="#b3e59f" fill-rule="evenodd"/></g><g><path clip-rule="evenodd" d="m168.075 235.135v26.895h32.443v-26.895c0-8.907-7.3-16.207-16.207-16.207-8.936 0-16.236 7.301-16.236 16.207z" fill="#b3e59f" fill-rule="evenodd"/></g><g><path clip-rule="evenodd" d="m168.075 308.082v26.895h32.443v-26.895c0-8.936-7.3-16.236-16.207-16.236-8.936 0-16.236 7.3-16.236 16.236z" fill="#ffe07d" fill-rule="evenodd"/></g><g><path clip-rule="evenodd" d="m345.619 334.977h48.825c2.891 0 5.256-2.365 5.256-5.256v-40.036c0-2.891-2.365-5.227-5.256-5.227h-48.825c-2.891 0-5.256 2.336-5.256 5.227v40.036c0 2.891 2.365 5.256 5.256 5.256z" fill="#6f6571" fill-rule="evenodd"/></g><g><path clip-rule="evenodd" d="m307.19 225.586h125.682v-145.864h-125.682v36.473 72.918z" fill="#c8c5c9" fill-rule="evenodd"/></g><g><path clip-rule="evenodd" d="m127.982 427.694h173.602c3.095 0 5.607-2.541 5.607-5.607v-45.176c0-3.095-2.511-5.607-5.607-5.607h-173.602c-3.066 0-5.607 2.511-5.607 5.607v45.176c0 3.066 2.54 5.607 5.607 5.607z" fill="#9fd4fe" fill-rule="evenodd"/></g><g><path d="m354.934 122.724h-6.249c-4.267 0-7.726-3.459-7.726-7.726s3.459-7.726 7.726-7.726h6.249c4.267 0 7.726 3.459 7.726 7.726s-3.459 7.726-7.726 7.726z" fill="#6f6571"/></g><g><path d="m391.377 122.724h-6.249c-4.267 0-7.726-3.459-7.726-7.726s3.459-7.726 7.726-7.726h6.249c4.267 0 7.726 3.459 7.726 7.726.001 4.267-3.459 7.726-7.726 7.726z" fill="#6f6571"/></g><g><path d="m354.934 160.366h-6.249c-4.267 0-7.726-3.459-7.726-7.726s3.459-7.726 7.726-7.726h6.249c4.267 0 7.726 3.459 7.726 7.726 0 4.266-3.459 7.726-7.726 7.726z" fill="#6f6571"/></g><g><path d="m391.377 160.366h-6.249c-4.267 0-7.726-3.459-7.726-7.726s3.459-7.726 7.726-7.726h6.249c4.267 0 7.726 3.459 7.726 7.726.001 4.266-3.459 7.726-7.726 7.726z" fill="#6f6571"/></g><g><path d="m354.934 198.007h-6.249c-4.267 0-7.726-3.459-7.726-7.726s3.459-7.726 7.726-7.726h6.249c4.267 0 7.726 3.459 7.726 7.726s-3.459 7.726-7.726 7.726z" fill="#6f6571"/></g><g><path d="m391.377 198.007h-6.249c-4.267 0-7.726-3.459-7.726-7.726s3.459-7.726 7.726-7.726h6.249c4.267 0 7.726 3.459 7.726 7.726s-3.459 7.726-7.726 7.726z" fill="#6f6571"/></g><g><path clip-rule="evenodd" d="m307.19 116.195v-36.473-31.305c0-2.833-2.307-5.169-5.139-5.169h-24.266c2.833 0 5.139 2.336 5.139 5.169v67.778z" fill="#72bffc" fill-rule="evenodd"/></g><g><path clip-rule="evenodd" d="m282.924 116.195h24.266v72.918h-24.266z" fill="#72bffc" fill-rule="evenodd"/></g><g><path clip-rule="evenodd" d="m307.19 225.586v-36.473h-24.266v72.917h24.266z" fill="#72bffc" fill-rule="evenodd"/></g><g><path clip-rule="evenodd" d="m307.19 329.808v-67.778h-24.266v67.778c0 2.833-2.307 5.169-5.139 5.169h24.266c2.803 0 5.139-2.336 5.139-5.169z" fill="#72bffc" fill-rule="evenodd"/></g><path d="m302.05 35.522h-174.506c-7.111 0-12.895 5.785-12.895 12.895v281.391c0 7.11 5.785 12.895 12.895 12.895h174.506c7.094 0 12.866-5.785 12.866-12.895v-281.391c0-7.11-5.772-12.895-12.866-12.895zm-171.949 88.4h169.362v57.465h-169.362zm0 72.917h169.362v57.465h-169.362zm169.362-145.864v57.494h-169.362v-57.494zm-169.362 276.275v-57.494h169.362v57.494z" fill="#6f6571"/><g><path clip-rule="evenodd" d="m432.872 79.722v-74.582c0-2.833-2.307-5.14-5.139-5.14h-23.244c2.833 0 5.169 2.307 5.169 5.14v74.582z" fill="#dad8db" fill-rule="evenodd"/></g><g><path clip-rule="evenodd" d="m409.657 79.722h23.215v145.864h-23.215z" fill="#b6b1b7" fill-rule="evenodd"/></g><g><path clip-rule="evenodd" d="m432.872 465.802v-240.216h-23.215v240.216c0 2.833-2.336 5.14-5.169 5.14h23.244c2.833 0 5.14-2.307 5.14-5.14z" fill="#dad8db" fill-rule="evenodd"/></g><g><path clip-rule="evenodd" d="m399.7 329.721v-40.036c0-2.891-2.365-5.227-5.256-5.227h-24.412c2.891 0 5.256 2.336 5.256 5.227v40.036c0 2.891-2.365 5.256-5.256 5.256h24.412c2.89 0 5.256-2.365 5.256-5.256z" fill="#5d5360" fill-rule="evenodd"/></g><g><path clip-rule="evenodd" d="m307.19 422.087v-45.176c0-3.095-2.511-5.607-5.607-5.607h-24.266c3.095 0 5.607 2.511 5.607 5.607v45.176c0 3.066-2.511 5.607-5.607 5.607h24.266c3.096 0 5.607-2.541 5.607-5.607z" fill="#72bffc" fill-rule="evenodd"/></g></g><g clip-rule="evenodd" fill="#b6b1b7" fill-rule="evenodd"><path d="m109.205 470.942h77.267v19.928h-77.267z"/><path d="m325.528 470.942h77.267v19.928h-77.267z"/></g></g></svg>