<?xml version="1.0" encoding="UTF-8" standalone="no"?>
<!DOCTYPE svg PUBLIC "-//W3C//DTD SVG 1.1//EN" "http://www.w3.org/Graphics/SVG/1.1/DTD/svg11.dtd">
<!-- Generated by Microsoft Visio, SVG Export Webcam-#1.svg Page-1 -->
<svg xmlns="http://www.w3.org/2000/svg" xmlns:xlink="http://www.w3.org/1999/xlink" xmlns:ev="http://www.w3.org/2001/xml-events"
		xmlns:v="http://schemas.microsoft.com/visio/2003/SVGExtensions/" width="11in" height="8.5in" viewBox="0 0 792 612"
		xml:space="preserve" color-interpolation-filters="sRGB" class="st33">
	<v:documentProperties v:langID="1033" v:viewMarkup="false">
		<v:userDefs>
			<v:ud v:nameU="msvSubprocessMaster" v:prompt="" v:val="VT4(Rectangle)"/>
			<v:ud v:nameU="msvNoAutoConnect" v:val="VT0(1):26"/>
		</v:userDefs>
	</v:documentProperties>

	<style type="text/css">
	<![CDATA[
		.st1 {stroke:#dcdddd;stroke-linecap:butt;stroke-width:0.087525}
		.st2 {fill:url(#grad0-10);stroke:none;stroke-width:0.75}
		.st3 {fill:#333131;stroke:none;stroke-width:0.75}
		.st4 {fill:#595757;stroke:none;stroke-width:0.75}
		.st5 {stroke:#231815;stroke-linecap:butt;stroke-width:0.087525}
		.st6 {fill:#333030;stroke:none;stroke-width:0.75}
		.st7 {fill:url(#grad0-30);stroke:none;stroke-width:0.75}
		.st8 {fill:#494848;stroke:none;stroke-width:0.75}
		.st9 {fill:#231815;stroke:none;stroke-width:0.75}
		.st10 {fill:#e83828;stroke:none;stroke-width:0.75}
		.st11 {fill:#22ac38;stroke:none;stroke-width:0.75}
		.st12 {fill:#f39800;stroke:none;stroke-width:0.75}
		.st13 {fill:#b0b4bb;stroke:none;stroke-width:0.75}
		.st14 {fill:#7c7e7f;stroke:none;stroke-width:0.75}
		.st15 {fill:#59595b;stroke:none;stroke-width:0.75}
		.st16 {fill:#252426;stroke:none;stroke-width:0.75}
		.st17 {fill:#2e2932;stroke:none;stroke-width:0.75}
		.st18 {fill:#3f3c42;stroke:none;stroke-width:0.75}
		.st19 {fill:#5b5860;stroke:none;stroke-width:0.75}
		.st20 {fill:#403f44;stroke:none;stroke-width:0.75}
		.st21 {fill:#494351;stroke:none;stroke-width:0.75}
		.st22 {fill:#18191b;stroke:none;stroke-width:0.75}
		.st23 {fill:#6d415e;stroke:none;stroke-width:0.75}
		.st24 {fill:#46395b;stroke:none;stroke-width:0.75}
		.st25 {fill:#545b7a;stroke:none;stroke-width:0.750016}
		.st26 {fill:#7696a8;stroke:none;stroke-width:0.75}
		.st27 {fill:#d1c0bd;stroke:none;stroke-width:0.75}
		.st28 {fill:#cccccc;fill-opacity:0.59;stroke:none;stroke-width:0.75}
		.st29 {fill:#b2b2d1;stroke:none;stroke-width:0.750029}
		.st30 {fill:#ede1d3;stroke:none;stroke-width:0.750012}
		.st31 {fill:#d3e4ea;stroke:none;stroke-width:0.75}
		.st32 {fill:#212121;stroke:none;stroke-width:0.75}
		.st33 {fill:none;fill-rule:evenodd;font-size:12px;overflow:visible;stroke-linecap:square;stroke-miterlimit:3}
	]]>
	</style>

	<defs id="Patterns_And_Gradients">
		<linearGradient id="grad0-10" x1="0" y1="0" x2="1" y2="0" gradientTransform="rotate(0 0.5 0.5)">
			<stop offset="0" stop-color="#231815" stop-opacity="1"/>
			<stop offset="0.365" stop-color="#3e3a39" stop-opacity="1"/>
			<stop offset="0.685" stop-color="#3e3a39" stop-opacity="1"/>
			<stop offset="1" stop-color="#231815" stop-opacity="1"/>
		</linearGradient>
		<linearGradient id="grad0-30" x1="0" y1="0" x2="1" y2="0" gradientTransform="rotate(0 0.5 0.5)">
			<stop offset="0" stop-color="#3e3a39" stop-opacity="1"/>
			<stop offset="0.035" stop-color="#231815" stop-opacity="1"/>
			<stop offset="0.365" stop-color="#595757" stop-opacity="1"/>
			<stop offset="0.685" stop-color="#595757" stop-opacity="1"/>
			<stop offset="1" stop-color="#231815" stop-opacity="1"/>
		</linearGradient>
	</defs>
	<g v:mID="0" v:index="1" v:groupContext="foregroundPage">
		<v:userDefs>
			<v:ud v:nameU="msvThemeOrder" v:val="VT0(0):26"/>
		</v:userDefs>
		<title>Page-1</title>
		<v:pageProperties v:drawingScale="1" v:pageScale="1" v:drawingUnits="0" v:shadowOffsetX="9" v:shadowOffsetY="-9"/>
		<g id="group13168-1" transform="translate(18,-568.275)" v:mID="13168" v:groupContext="group">
			<title>Webcam #1</title>
			<g id="group13169-2" transform="translate(18.15,-1.35)" v:mID="13169" v:groupContext="group">
				<title>Sheet.13169</title>
				<g id="shape13170-3" v:mID="13170" v:groupContext="shape" transform="translate(0.45,-0.375)">
					<title>Sheet.13170</title>
					<path d="M0 612 L2.7 612" class="st1"/>
				</g>
				<g id="group13171-6" v:mID="13171" v:groupContext="group">
					<title>Sheet.13171</title>
					<g id="shape13172-7" v:mID="13172" v:groupContext="shape" transform="translate(0.45,1.13687E-13)">
						<title>Sheet.13172</title>
						<path d="M2.17 593.4 L0.45 593.4 C0.3 593.4 0.15 593.55 0.15 593.7 L0 611.7 C0 611.85 0.15 612 0.3 612 L2.32
									 612 C2.47 612 2.62 611.85 2.62 611.7 L2.47 593.7 C2.55 593.55 2.4 593.4 2.17 593.4 Z"
								class="st2"/>
					</g>
					<g id="group13173-11" transform="translate(-1.4988E-15,-0.675)" v:mID="13173" v:groupContext="group">
						<title>Sheet.13173</title>
						<g id="shape13174-12" v:mID="13174" v:groupContext="shape">
							<title>Sheet.13174</title>
							<path d="M0 611.93 L0.08 609.82 L1.73 609.9 C2.32 609.9 2.77 610.35 2.77 610.95 C2.77 611.55 2.32 612
										 1.73 612 L0 612 L0 611.93 Z" class="st3"/>
						</g>
						<g id="shape13175-14" v:mID="13175" v:groupContext="shape">
							<title>Sheet.13175</title>
							<path d="M1.65 609.97 C2.18 609.97 2.62 610.42 2.62 610.95 C2.62 611.47 2.17 611.93 1.65 611.93 L0.07
										 611.93 L0.07 609.97 L1.65 609.97 ZM1.65 609.82 L0 609.82 L0 612 L1.65 612 C2.25 612 2.7
										 611.55 2.7 610.95 C2.7 610.35 2.25 609.82 1.65 609.82 Z" class="st4"/>
						</g>
					</g>
					<g id="shape13176-16" v:mID="13176" v:groupContext="shape" transform="translate(0.6,-18)">
						<title>Sheet.13176</title>
						<path d="M0 612 L2.4 612" class="st5"/>
					</g>
				</g>
			</g>
			<g id="shape13177-19" v:mID="13177" v:groupContext="shape" transform="translate(0.975,-5.325)">
				<title>Sheet.13177</title>
				<path d="M15.37 612 L0.9 612 C0.45 612 0 611.62 0 611.1 L0 599.7 C0 595.2 3.6 591.6 8.1 591.6 C12.6 591.6 16.2 595.2
							 16.2 599.7 L16.2 611.1 C16.27 611.62 15.82 612 15.37 612 Z" class="st2"/>
			</g>
			<g id="shape13178-22" v:mID="13178" v:groupContext="shape" transform="translate(0.375,0)">
				<title>Sheet.13178</title>
				<path d="M17.02 612 L0.53 612 C0.23 612 0 611.77 0 611.47 L0 607.5 C0 607.2 0.22 606.97 0.53 606.97 L17.02 606.97
							 C17.32 606.97 17.55 607.2 17.55 607.5 L17.55 611.47 C17.47 611.77 17.25 612 17.02 612 Z" class="st6"/>
			</g>
			<g id="shape13179-24" v:mID="13179" v:groupContext="shape" transform="translate(-1.71863E-13,-0.6)">
				<title>Sheet.13179</title>
				<path d="M17.7 612 L0.53 612 C0.23 612 0 611.77 0 611.47 L0 607.8 C0 607.5 0.22 607.28 0.53 607.28 L17.7 607.28 C18
							 607.28 18.22 607.5 18.22 607.8 L18.22 611.47 C18.22 611.77 18 612 17.7 612 Z" class="st2"/>
			</g>
			<g id="shape13180-27" v:mID="13180" v:groupContext="shape" transform="translate(-1.71863E-13,-4.8)">
				<title>Sheet.13180</title>
				<path d="M0 611.93 C0 611.7 0.22 611.47 0.53 611.47 L17.7 611.47 C18 611.47 18.22 611.7 18.22 612 L0 612 L0 611.93
							 Z" class="st7"/>
			</g>
			<g id="shape13181-31" v:mID="13181" v:groupContext="shape" transform="translate(5.625,-7.875)">
				<title>Sheet.13181</title>
				<path d="M5.85 612 L0.9 612 C0.38 612 0 611.62 0 611.1 L0 598.43 C0 596.63 1.5 595.12 3.3 595.12 L3.45 595.12 C5.25
							 595.12 6.75 596.63 6.75 598.43 L6.75 611.1 C6.75 611.55 6.38 612 5.85 612 Z" class="st8"/>
			</g>
			<g id="shape13182-33" v:mID="13182" v:groupContext="shape" transform="translate(5.85,-8.175)">
				<title>Sheet.13182</title>
				<path d="M5.48 612 L0.9 612 C0.45 612 0 611.62 0 611.1 L0 598.58 C0 596.85 1.42 595.43 3.15 595.43 C4.88 595.43 6.3
							 596.85 6.3 598.58 L6.3 611.1 C6.3 611.62 5.93 612 5.48 612 Z" class="st9"/>
			</g>
			<g id="shape13183-35" v:mID="13183" v:groupContext="shape" transform="translate(6.075,-15.45)">
				<title>Sheet.13183</title>
				<path d="M3 612 C1.35 612 0 610.65 0 609 L0 606.9 C0 605.25 1.35 603.9 3 603.9 C4.65 603.9 6 605.25 6 606.9 L6 609
							 C6 610.65 4.65 612 3 612 Z" class="st2"/>
			</g>
			<g id="shape13184-38" v:mID="13184" v:groupContext="shape" transform="translate(6,-8.175)">
				<title>Sheet.13184</title>
				<path d="M5.25 612 L0.83 612 C0.37 612 0 611.62 0 611.17 L0.07 605.78 C0.07 605.63 0.15 605.55 0.3 605.55 C0.3 605.55
							 1.5 606.3 3 606.3 C4.5 606.3 5.77 605.55 5.77 605.55 C5.92 605.55 6 605.63 6 605.78 L5.92 611.17 C6
							 611.7 5.62 612 5.25 612 Z" class="st2"/>
			</g>
			<g id="shape13185-41" v:mID="13185" v:groupContext="shape" transform="translate(8.85,-11.7)">
				<title>Sheet.13185</title>
				<ellipse cx="0.3" cy="611.7" rx="0.3" ry="0.3" class="st10"/>
			</g>
			<g id="shape13186-43" v:mID="13186" v:groupContext="shape" transform="translate(8.85,-9.975)">
				<title>Sheet.13186</title>
				<ellipse cx="0.3" cy="611.7" rx="0.3" ry="0.3" class="st11"/>
			</g>
			<g id="shape13187-45" v:mID="13187" v:groupContext="shape" transform="translate(0,-1.35)">
				<title>Sheet.13187</title>
				<path d="M0 612 L18.15 612" class="st5"/>
			</g>
			<g id="shape13188-48" v:mID="13188" v:groupContext="shape" transform="translate(5.025,-1.35)">
				<title>Sheet.13188</title>
				<rect x="0" y="610.725" width="8.025" height="1.275" class="st9"/>
			</g>
			<g id="shape13189-50" v:mID="13189" v:groupContext="shape" transform="translate(5.55,-1.725)">
				<title>Sheet.13189</title>
				<path d="M1.05 612 L0.08 612 C0 612 0 612 0 611.92 L0 611.62 C0 611.55 0 611.55 0.08 611.55 L1.05 611.55 C1.12 611.55
							 1.12 611.55 1.12 611.62 L1.12 611.92 C1.12 612 1.05 612 1.05 612 Z" class="st12"/>
			</g>
			<g id="shape13190-52" v:mID="13190" v:groupContext="shape" transform="translate(10.275,-1.725)">
				<title>Sheet.13190</title>
				<path d="M1.05 612 L0.08 612 C0 612 0 612 0 611.92 L0 611.62 C0 611.55 0 611.55 0.08 611.55 L1.05 611.55 C1.12 611.55
							 1.12 611.55 1.12 611.62 L1.12 611.92 C1.12 612 1.12 612 1.05 612 Z" class="st12"/>
			</g>
			<g id="group13191-54" transform="translate(7.2,-17.625)" v:mID="13191" v:groupContext="group">
				<title>Sheet.13191</title>
				<g id="shape13192-55" v:mID="13192" v:groupContext="shape">
					<title>Sheet.13192</title>
					<ellipse cx="1.8" cy="610.125" rx="1.8" ry="1.875" class="st13"/>
				</g>
				<g id="shape13193-57" v:mID="13193" v:groupContext="shape">
					<title>Sheet.13193</title>
					<ellipse cx="1.8" cy="610.125" rx="1.8" ry="1.875" class="st14"/>
				</g>
				<g id="shape13194-59" v:mID="13194" v:groupContext="shape" transform="translate(0.075,-0.075)">
					<title>Sheet.13194</title>
					<ellipse cx="1.725" cy="610.2" rx="1.725" ry="1.8" class="st13"/>
				</g>
				<g id="shape13195-61" v:mID="13195" v:groupContext="shape" transform="translate(0.075,-0.075)">
					<title>Sheet.13195</title>
					<ellipse cx="1.725" cy="610.2" rx="1.725" ry="1.8" class="st15"/>
				</g>
				<g id="shape13196-63" v:mID="13196" v:groupContext="shape" transform="translate(0.3,-0.3)">
					<title>Sheet.13196</title>
					<ellipse cx="1.5" cy="610.425" rx="1.5" ry="1.575" class="st16"/>
				</g>
				<g id="shape13197-65" v:mID="13197" v:groupContext="shape" transform="translate(0.3,-0.3)">
					<title>Sheet.13197</title>
					<ellipse cx="1.5" cy="610.425" rx="1.5" ry="1.575" class="st17"/>
				</g>
				<g id="shape13198-67" v:mID="13198" v:groupContext="shape" transform="translate(0.375,-0.375)">
					<title>Sheet.13198</title>
					<ellipse cx="1.425" cy="610.5" rx="1.425" ry="1.5" class="st18"/>
				</g>
				<g id="shape13199-69" v:mID="13199" v:groupContext="shape" transform="translate(0.45,-0.45)">
					<title>Sheet.13199</title>
					<ellipse cx="1.35" cy="610.575" rx="1.35" ry="1.425" class="st16"/>
				</g>
				<g id="shape13200-71" v:mID="13200" v:groupContext="shape" transform="translate(0.45,-0.45)">
					<title>Sheet.13200</title>
					<ellipse cx="1.35" cy="610.575" rx="1.35" ry="1.425" class="st18"/>
				</g>
				<g id="shape13201-73" v:mID="13201" v:groupContext="shape" transform="translate(0.525,-0.525)">
					<title>Sheet.13201</title>
					<ellipse cx="1.275" cy="610.65" rx="1.275" ry="1.35" class="st16"/>
				</g>
				<g id="shape13202-75" v:mID="13202" v:groupContext="shape" transform="translate(0.525,-0.6)">
					<title>Sheet.13202</title>
					<ellipse cx="1.275" cy="610.725" rx="1.275" ry="1.275" class="st19"/>
				</g>
				<g id="shape13203-77" v:mID="13203" v:groupContext="shape" transform="translate(0.6,-0.6)">
					<title>Sheet.13203</title>
					<ellipse cx="1.2" cy="610.725" rx="1.2" ry="1.275" class="st20"/>
				</g>
				<g id="shape13204-79" v:mID="13204" v:groupContext="shape" transform="translate(0.6,-0.6)">
					<title>Sheet.13204</title>
					<ellipse cx="1.2" cy="610.725" rx="1.2" ry="1.275" class="st19"/>
				</g>
				<g id="shape13205-81" v:mID="13205" v:groupContext="shape" transform="translate(0.6,-0.675)">
					<title>Sheet.13205</title>
					<ellipse cx="1.2" cy="610.8" rx="1.2" ry="1.2" class="st20"/>
				</g>
				<g id="shape13206-83" v:mID="13206" v:groupContext="shape" transform="translate(0.6,-0.675)">
					<title>Sheet.13206</title>
					<ellipse cx="1.2" cy="610.8" rx="1.2" ry="1.2" class="st19"/>
				</g>
				<g id="shape13207-85" v:mID="13207" v:groupContext="shape" transform="translate(0.675,-0.675)">
					<title>Sheet.13207</title>
					<ellipse cx="1.125" cy="610.8" rx="1.125" ry="1.2" class="st20"/>
				</g>
				<g id="shape13208-87" v:mID="13208" v:groupContext="shape" transform="translate(0.675,-0.675)">
					<title>Sheet.13208</title>
					<ellipse cx="1.125" cy="610.8" rx="1.125" ry="1.2" class="st19"/>
				</g>
				<g id="shape13209-89" v:mID="13209" v:groupContext="shape" transform="translate(0.675,-0.75)">
					<title>Sheet.13209</title>
					<ellipse cx="1.125" cy="610.875" rx="1.125" ry="1.125" class="st20"/>
				</g>
				<g id="shape13210-91" v:mID="13210" v:groupContext="shape" transform="translate(0.75,-0.75)">
					<title>Sheet.13210</title>
					<ellipse cx="1.05" cy="610.875" rx="1.05" ry="1.125" class="st19"/>
				</g>
				<g id="shape13211-93" v:mID="13211" v:groupContext="shape" transform="translate(0.75,-0.75)">
					<title>Sheet.13211</title>
					<ellipse cx="1.05" cy="610.875" rx="1.05" ry="1.125" class="st20"/>
				</g>
				<g id="shape13212-95" v:mID="13212" v:groupContext="shape" transform="translate(0.75,-0.825)">
					<title>Sheet.13212</title>
					<ellipse cx="1.05" cy="610.95" rx="1.05" ry="1.05" class="st19"/>
				</g>
				<g id="shape13213-97" v:mID="13213" v:groupContext="shape" transform="translate(0.825,-0.825)">
					<title>Sheet.13213</title>
					<ellipse cx="0.975" cy="610.95" rx="0.975" ry="1.05" class="st18"/>
				</g>
				<g id="shape13214-99" v:mID="13214" v:groupContext="shape" transform="translate(0.9,-0.9)">
					<title>Sheet.13214</title>
					<ellipse cx="0.9" cy="611.025" rx="0.9" ry="0.975" class="st21"/>
				</g>
				<g id="shape13215-101" v:mID="13215" v:groupContext="shape" transform="translate(0.9,-0.975)">
					<title>Sheet.13215</title>
					<ellipse cx="0.9" cy="611.1" rx="0.9" ry="0.9" class="st22"/>
				</g>
				<g id="shape13216-103" v:mID="13216" v:groupContext="shape" transform="translate(1.125,-1.125)">
					<title>Sheet.13216</title>
					<ellipse cx="0.675" cy="611.25" rx="0.675" ry="0.75" class="st23"/>
				</g>
				<g id="shape13217-105" v:mID="13217" v:groupContext="shape" transform="translate(1.275,-1.35)">
					<title>Sheet.13217</title>
					<ellipse cx="0.525" cy="611.475" rx="0.525" ry="0.525" class="st24"/>
				</g>
				<g id="shape13218-107" v:mID="13218" v:groupContext="shape"
						transform="translate(-2.53137,-1.47941) rotate(-0.371678)">
					<title>Sheet.13218</title>
					<ellipse cx="0.375008" cy="611.625" rx="0.375008" ry="0.375008" class="st25"/>
				</g>
				<g id="shape13219-109" v:mID="13219" v:groupContext="shape" transform="translate(2.175,-1.575)">
					<title>Sheet.13219</title>
					<ellipse cx="0.15" cy="611.7" rx="0.15" ry="0.3" class="st26"/>
				</g>
				<g id="shape13220-111" v:mID="13220" v:groupContext="shape" transform="translate(1.05,-2.325)">
					<title>Sheet.13220</title>
					<path d="M0.07 611.92 C0 612 0.6 611.32 1.42 611.85 C1.42 611.85 1.2 611.55 0.75 611.55 C0.53 611.55 0.22 611.7
								 0.07 611.92 Z" class="st23"/>
				</g>
				<g id="shape13221-113" v:mID="13221" v:groupContext="shape" transform="translate(0.975,-1.575)">
					<title>Sheet.13221</title>
					<ellipse cx="0.225" cy="611.775" rx="0.225" ry="0.225" class="st27"/>
				</g>
				<g id="shape13222-115" v:mID="13222" v:groupContext="shape" transform="translate(0.9,-0.975)">
					<title>Sheet.13222</title>
					<ellipse cx="0.9" cy="611.1" rx="0.9" ry="0.9" class="st28"/>
				</g>
				<g id="shape13223-117" v:mID="13223" v:groupContext="shape"
						transform="translate(-609.527,604.556) rotate(-89.4933)">
					<title>Sheet.13223</title>
					<ellipse cx="0.0750029" cy="611.925" rx="0.0750029" ry="0.0750029" class="st29"/>
				</g>
				<g id="shape13224-119" v:mID="13224" v:groupContext="shape"
						transform="translate(-54.9965,0.866339) rotate(-5.26298)">
					<title>Sheet.13224</title>
					<ellipse cx="0.0750012" cy="611.925" rx="0.0750012" ry="0.0750012" class="st30"/>
				</g>
				<g id="shape13225-121" v:mID="13225" v:groupContext="shape" transform="translate(1.8,-1.425)">
					<title>Sheet.13225</title>
					<path d="M0 611.93 C0 611.93 0.22 611.93 0.3 611.7 C0.3 611.7 0.3 612 0 611.93 Z" class="st31"/>
				</g>
			</g>
			<g id="shape13226-123" v:mID="13226" v:groupContext="shape" transform="translate(1.65,-3.975)">
				<title>Sheet.13226</title>
				<path d="M0.15 612 C0.08 612 0 611.92 0 611.85 L0 610.72 L0.3 610.72 L0.3 611.85 C0.3 611.92 0.23 612 0.15 612 Z"
						class="st32"/>
			</g>
			<g id="shape13227-125" v:mID="13227" v:groupContext="shape" transform="translate(1.65,-4.05)">
				<title>Sheet.13227</title>
				<path d="M0.15 612 C0.08 612 0 611.92 0 611.85 L0 610.8 L0.3 610.8 L0.3 611.85 C0.3 611.93 0.23 612 0.15 612 Z"
						class="st9"/>
			</g>
			<g id="shape13228-127" v:mID="13228" v:groupContext="shape" transform="translate(2.4,-3.975)">
				<title>Sheet.13228</title>
				<path d="M0.15 612 C0.07 612 0 611.92 0 611.85 L0 610.72 L0.3 610.72 L0.3 611.85 C0.3 611.92 0.23 612 0.15 612 Z"
						class="st32"/>
			</g>
			<g id="shape13229-129" v:mID="13229" v:groupContext="shape" transform="translate(2.4,-4.05)">
				<title>Sheet.13229</title>
				<path d="M0.15 612 C0.07 612 0 611.92 0 611.85 L0 610.8 L0.3 610.8 L0.3 611.85 C0.3 611.93 0.23 612 0.15 612 Z"
						class="st9"/>
			</g>
			<g id="shape13230-131" v:mID="13230" v:groupContext="shape" transform="translate(3.225,-3.975)">
				<title>Sheet.13230</title>
				<path d="M0.15 612 C0.07 612 0 611.92 0 611.85 L0 610.72 L0.3 610.72 L0.3 611.85 C0.3 611.92 0.23 612 0.15 612 Z"
						class="st32"/>
			</g>
			<g id="shape13231-133" v:mID="13231" v:groupContext="shape" transform="translate(3.225,-4.05)">
				<title>Sheet.13231</title>
				<path d="M0.15 612 C0.07 612 0 611.92 0 611.85 L0 610.8 L0.3 610.8 L0.3 611.85 C0.3 611.93 0.23 612 0.15 612 Z"
						class="st9"/>
			</g>
			<g id="shape13232-135" v:mID="13232" v:groupContext="shape" transform="translate(4.05,-3.975)">
				<title>Sheet.13232</title>
				<path d="M0.15 612 C0.07 612 0 611.92 0 611.85 L0 610.72 L0.3 610.72 L0.3 611.85 C0.3 611.92 0.23 612 0.15 612 Z"
						class="st32"/>
			</g>
			<g id="shape13233-137" v:mID="13233" v:groupContext="shape" transform="translate(4.05,-4.05)">
				<title>Sheet.13233</title>
				<path d="M0.15 612 C0.07 612 0 611.92 0 611.85 L0 610.8 L0.3 610.8 L0.3 611.85 C0.3 611.93 0.23 612 0.15 612 Z"
						class="st9"/>
			</g>
			<g id="shape13234-139" v:mID="13234" v:groupContext="shape" transform="translate(4.875,-3.975)">
				<title>Sheet.13234</title>
				<path d="M0.15 612 C0.07 612 0 611.92 0 611.85 L0 610.72 L0.3 610.72 L0.3 611.85 C0.3 611.92 0.22 612 0.15 612 Z"
						class="st32"/>
			</g>
			<g id="shape13235-141" v:mID="13235" v:groupContext="shape" transform="translate(4.875,-4.05)">
				<title>Sheet.13235</title>
				<path d="M0.15 612 C0.07 612 0 611.92 0 611.85 L0 610.8 L0.3 610.8 L0.3 611.85 C0.3 611.93 0.22 612 0.15 612 Z"
						class="st9"/>
			</g>
			<g id="shape13236-143" v:mID="13236" v:groupContext="shape" transform="translate(5.7,-3.975)">
				<title>Sheet.13236</title>
				<path d="M0.15 612 C0.07 612 0 611.92 0 611.85 L0 610.72 L0.3 610.72 L0.3 611.85 C0.3 611.92 0.23 612 0.15 612 Z"
						class="st32"/>
			</g>
			<g id="shape13237-145" v:mID="13237" v:groupContext="shape" transform="translate(5.7,-4.05)">
				<title>Sheet.13237</title>
				<path d="M0.15 612 C0.07 612 0 611.92 0 611.85 L0 610.8 L0.3 610.8 L0.3 611.85 C0.3 611.93 0.23 612 0.15 612 Z"
						class="st9"/>
			</g>
			<g id="shape13238-147" v:mID="13238" v:groupContext="shape" transform="translate(6.45,-3.975)">
				<title>Sheet.13238</title>
				<path d="M0.15 612 C0.08 612 0 611.92 0 611.85 L0 610.72 L0.3 610.72 L0.3 611.85 C0.38 611.92 0.3 612 0.15 612 Z"
						class="st32"/>
			</g>
			<g id="shape13239-149" v:mID="13239" v:groupContext="shape" transform="translate(6.45,-4.05)">
				<title>Sheet.13239</title>
				<path d="M0.15 612 C0.08 612 0 611.92 0 611.85 L0 610.8 L0.3 610.8 L0.3 611.85 C0.38 611.93 0.3 612 0.15 612 Z"
						class="st9"/>
			</g>
			<g id="shape13240-151" v:mID="13240" v:groupContext="shape" transform="translate(7.275,-3.975)">
				<title>Sheet.13240</title>
				<path d="M0.15 612 C0.08 612 0 611.92 0 611.85 L0 610.72 L0.3 610.72 L0.3 611.85 C0.3 611.92 0.23 612 0.15 612 Z"
						class="st32"/>
			</g>
			<g id="shape13241-153" v:mID="13241" v:groupContext="shape" transform="translate(7.275,-4.05)">
				<title>Sheet.13241</title>
				<path d="M0.15 612 C0.08 612 0 611.92 0 611.85 L0 610.8 L0.3 610.8 L0.3 611.85 C0.3 611.93 0.23 612 0.15 612 Z"
						class="st9"/>
			</g>
			<g id="shape13242-155" v:mID="13242" v:groupContext="shape" transform="translate(8.1,-3.975)">
				<title>Sheet.13242</title>
				<path d="M0.15 612 C0.08 612 0 611.92 0 611.85 L0 610.72 L0.3 610.72 L0.3 611.85 C0.3 611.92 0.23 612 0.15 612 Z"
						class="st32"/>
			</g>
			<g id="shape13243-157" v:mID="13243" v:groupContext="shape" transform="translate(8.1,-4.05)">
				<title>Sheet.13243</title>
				<path d="M0.15 612 C0.08 612 0 611.92 0 611.85 L0 610.8 L0.3 610.8 L0.3 611.85 C0.3 611.93 0.23 612 0.15 612 Z"
						class="st9"/>
			</g>
			<g id="shape13244-159" v:mID="13244" v:groupContext="shape" transform="translate(8.925,-3.975)">
				<title>Sheet.13244</title>
				<path d="M0.15 612 C0.08 612 0 611.92 0 611.85 L0 610.72 L0.3 610.72 L0.3 611.85 C0.3 611.92 0.23 612 0.15 612 Z"
						class="st32"/>
			</g>
			<g id="shape13245-161" v:mID="13245" v:groupContext="shape" transform="translate(8.925,-4.05)">
				<title>Sheet.13245</title>
				<path d="M0.15 612 C0.08 612 0 611.92 0 611.85 L0 610.8 L0.3 610.8 L0.3 611.85 C0.3 611.93 0.23 612 0.15 612 Z"
						class="st9"/>
			</g>
			<g id="shape13246-163" v:mID="13246" v:groupContext="shape" transform="translate(9.75,-3.975)">
				<title>Sheet.13246</title>
				<path d="M0.15 612 C0.08 612 0 611.92 0 611.85 L0 610.72 L0.3 610.72 L0.3 611.85 C0.3 611.92 0.22 612 0.15 612 Z"
						class="st32"/>
			</g>
			<g id="shape13247-165" v:mID="13247" v:groupContext="shape" transform="translate(9.75,-4.05)">
				<title>Sheet.13247</title>
				<path d="M0.15 612 C0.08 612 0 611.92 0 611.85 L0 610.8 L0.3 610.8 L0.3 611.85 C0.3 611.93 0.22 612 0.15 612 Z"
						class="st9"/>
			</g>
			<g id="shape13248-167" v:mID="13248" v:groupContext="shape" transform="translate(10.5,-3.975)">
				<title>Sheet.13248</title>
				<path d="M0.15 612 C0.07 612 0 611.92 0 611.85 L0 610.72 L0.3 610.72 L0.3 611.85 C0.3 611.92 0.3 612 0.15 612 Z"
						class="st32"/>
			</g>
			<g id="shape13249-169" v:mID="13249" v:groupContext="shape" transform="translate(10.5,-4.05)">
				<title>Sheet.13249</title>
				<path d="M0.15 612 C0.07 612 0 611.92 0 611.85 L0 610.8 L0.3 610.8 L0.3 611.85 C0.3 611.93 0.3 612 0.15 612 Z"
						class="st9"/>
			</g>
			<g id="shape13250-171" v:mID="13250" v:groupContext="shape" transform="translate(11.4,-3.975)">
				<title>Sheet.13250</title>
				<path d="M0.15 612 C0.07 612 0 611.92 0 611.85 L0 610.72 L0.3 610.72 L0.3 611.85 C0.3 611.92 0.23 612 0.15 612 Z"
						class="st32"/>
			</g>
			<g id="shape13251-173" v:mID="13251" v:groupContext="shape" transform="translate(11.4,-4.05)">
				<title>Sheet.13251</title>
				<path d="M0.15 612 C0.07 612 0 611.92 0 611.85 L0 610.8 L0.3 610.8 L0.3 611.85 C0.3 611.93 0.23 612 0.15 612 Z"
						class="st9"/>
			</g>
			<g id="shape13252-175" v:mID="13252" v:groupContext="shape" transform="translate(12.15,-3.975)">
				<title>Sheet.13252</title>
				<path d="M0.15 612 C0.07 612 0 611.92 0 611.85 L0 610.72 L0.3 610.72 L0.3 611.85 C0.38 611.92 0.3 612 0.15 612 Z"
						class="st32"/>
			</g>
			<g id="shape13253-177" v:mID="13253" v:groupContext="shape" transform="translate(12.15,-4.05)">
				<title>Sheet.13253</title>
				<path d="M0.15 612 C0.07 612 0 611.92 0 611.85 L0 610.8 L0.3 610.8 L0.3 611.85 C0.38 611.93 0.3 612 0.15 612 Z"
						class="st9"/>
			</g>
			<g id="shape13254-179" v:mID="13254" v:groupContext="shape" transform="translate(12.975,-3.975)">
				<title>Sheet.13254</title>
				<path d="M0.15 612 C0.07 612 0 611.92 0 611.85 L0 610.72 L0.3 610.72 L0.3 611.85 C0.3 611.92 0.23 612 0.15 612 Z"
						class="st32"/>
			</g>
			<g id="shape13255-181" v:mID="13255" v:groupContext="shape" transform="translate(12.975,-4.05)">
				<title>Sheet.13255</title>
				<path d="M0.15 612 C0.07 612 0 611.92 0 611.85 L0 610.8 L0.3 610.8 L0.3 611.85 C0.3 611.93 0.23 612 0.15 612 Z"
						class="st9"/>
			</g>
			<g id="shape13256-183" v:mID="13256" v:groupContext="shape" transform="translate(13.8,-3.975)">
				<title>Sheet.13256</title>
				<path d="M0.15 612 C0.07 612 0 611.92 0 611.85 L0 610.72 L0.3 610.72 L0.3 611.85 C0.3 611.92 0.23 612 0.15 612 Z"
						class="st32"/>
			</g>
			<g id="shape13257-185" v:mID="13257" v:groupContext="shape" transform="translate(13.8,-4.05)">
				<title>Sheet.13257</title>
				<path d="M0.15 612 C0.07 612 0 611.92 0 611.85 L0 610.8 L0.3 610.8 L0.3 611.85 C0.3 611.93 0.23 612 0.15 612 Z"
						class="st9"/>
			</g>
			<g id="shape13258-187" v:mID="13258" v:groupContext="shape" transform="translate(14.625,-3.975)">
				<title>Sheet.13258</title>
				<path d="M0.15 612 C0.07 612 0 611.92 0 611.85 L0 610.72 L0.3 610.72 L0.3 611.85 C0.3 611.92 0.22 612 0.15 612 Z"
						class="st32"/>
			</g>
			<g id="shape13259-189" v:mID="13259" v:groupContext="shape" transform="translate(14.625,-4.05)">
				<title>Sheet.13259</title>
				<path d="M0.15 612 C0.07 612 0 611.92 0 611.85 L0 610.8 L0.3 610.8 L0.3 611.85 C0.3 611.93 0.22 612 0.15 612 Z"
						class="st9"/>
			</g>
			<g id="shape13260-191" v:mID="13260" v:groupContext="shape" transform="translate(15.45,-3.975)">
				<title>Sheet.13260</title>
				<path d="M0.15 612 C0.08 612 0 611.92 0 611.85 L0 610.72 L0.3 610.72 L0.3 611.85 C0.3 611.92 0.23 612 0.15 612 Z"
						class="st32"/>
			</g>
			<g id="shape13261-193" v:mID="13261" v:groupContext="shape" transform="translate(15.45,-4.05)">
				<title>Sheet.13261</title>
				<path d="M0.15 612 C0.08 612 0 611.92 0 611.85 L0 610.8 L0.3 610.8 L0.3 611.85 C0.3 611.93 0.23 612 0.15 612 Z"
						class="st9"/>
			</g>
			<g id="shape13262-195" v:mID="13262" v:groupContext="shape" transform="translate(16.275,-3.975)">
				<title>Sheet.13262</title>
				<path d="M0.15 612 C0.08 612 0 611.92 0 611.85 L0 610.72 L0.3 610.72 L0.3 611.85 C0.3 611.92 0.23 612 0.15 612 Z"
						class="st32"/>
			</g>
			<g id="shape13263-197" v:mID="13263" v:groupContext="shape" transform="translate(16.275,-4.05)">
				<title>Sheet.13263</title>
				<path d="M0.15 612 C0.08 612 0 611.92 0 611.85 L0 610.8 L0.3 610.8 L0.3 611.85 C0.3 611.93 0.23 612 0.15 612 Z"
						class="st9"/>
			</g>
		</g>
	</g>
</svg>
