<svg viewBox="0 0 108 108.31" class="" role="presentation" focusable="false" xmlns:svg="http://www.w3.org/2000/svg" xmlns:xlink="http://www.w3.org/1999/xlink" id="FxSymbol0-0b0" data-type="1"><g><title></title><title>Security_2</title><path d="M86.61 11.17l4.79-9.36a1 1 0 0 0-.94-1.45L55.33 2.14a1 1 0 0 0-.78 1.54l19.1 29.54a1 1 0 0 0 1.72-.09l4.21-8.21a1 1 0 0 1 1.57-.28c6.62 6.42 13.6 16.26 13.6 29.25A41.15 41.15 0 0 1 33.88 90a1 1 0 0 0-1.33.36l-5.46 9.46a1 1 0 0 0 .38 1.39 54.06 54.06 0 0 0 80.2-47.32c0-15.48-7.36-30-20.81-41.52a1 1 0 0 1-.25-1.2z"></path><path d="M34.33 102.85l2.51-4.35A46.89 46.89 0 1 0 61 8.34v-5c0-.62-.64 0-1.14-.3l-3.41.11c-.77 0-.31 1 .11 1.6l10.83 18.8a34.33 34.33 0 0 1 9.61 6.5l2.63-5.13a1 1 0 0 1 .9-.55.93.93 0 0 1 .67.27c6.62 6.42 13.6 16.26 13.6 29.25A41.15 41.15 0 0 1 33.88 90a.94.94 0 0 0-.48-.13 1 1 0 0 0-.85.49l-5.46 9.46a1 1 0 0 0-.11.71l4.94 2.85.34.14a1.64 1.64 0 0 0 2.07-.67z"></path><path d="M25.51 98.91L31 89.45a2.82 2.82 0 0 1 2.43-1.4 2.77 2.77 0 0 1 1.35.35 39.33 39.33 0 0 0 58.15-34.51c0-12.08-6.47-21.32-12.24-27.15l-2.4 4.69a34.24 34.24 0 1 1-13.83-9.07L53 4.67a2.82 2.82 0 0 1-.15-2.81 1.73 1.73 0 0 1 .14-.2h-5.8a1.66 1.66 0 0 0-1.67 1.66v5a46.62 46.62 0 0 0-8.68 2.32l-2.51-4.32a1.66 1.66 0 0 0-2.27-.61l-10.52 6.07a1.67 1.67 0 0 0-.61 2.28l2.51 4.36a47.55 47.55 0 0 0-6.35 6.34l-4.35-2.51a1.67 1.67 0 0 0-2.28.61L4.39 33.38A1.66 1.66 0 0 0 5 35.65l4.34 2.51A46.62 46.62 0 0 0 7 46.84H2a1.67 1.67 0 0 0-1.67 1.67v12.15A1.66 1.66 0 0 0 2 62.32h5A46.62 46.62 0 0 0 9.34 71L5 73.51a1.67 1.67 0 0 0-.61 2.28l6.07 10.52a1.68 1.68 0 0 0 2.28.61l4.35-2.52a47.63 47.63 0 0 0 6.35 6.35l-2.51 4.36a1.66 1.66 0 0 0 .61 2.27l3.72 2.15a3 3 0 0 1 .25-.62z"></path><path d="M73.28 39.64a.22.22 0 0 0-.17-.07h-.62c-8 0-15.39-3.27-18.29-8.14a.24.24 0 0 0-.4 0c-2.9 4.87-10.25 8.14-18.29 8.14h-.62a.25.25 0 0 0-.17.07.23.23 0 0 0-.06.16v19C34.6 64.27 37 74.39 53.91 81.25h.18c16.89-6.86 19.31-17 19.25-22.4V39.8a.23.23 0 0 0-.06-.16zm-3.88 3.74v15.51c0 4.17-1.85 12-15.08 18L54 77l-.31-.14c-13.23-5.93-15.13-13.81-15.08-18V43.38l.67-.07a27.12 27.12 0 0 0 14.25-5.63l.48-.4.48.4a27.2 27.2 0 0 0 14.25 5.63z"></path><path d="M48.56 53.73h2.3a.23.23 0 0 0 .23-.24v-3.63a2.91 2.91 0 0 1 5.82 0v3.63a.23.23 0 0 0 .23.24h2.3a.24.24 0 0 0 .24-.24v-3.63a5.68 5.68 0 0 0-11.36 0v3.63a.24.24 0 0 0 .24.24zm13.05.82a.24.24 0 0 0-.24-.24H46.63a.24.24 0 0 0-.24.24v10.23c0 1.55 4.34 3.63 7.61 3.65s7.61-2.1 7.61-3.68zm-6.17 9.24a.29.29 0 0 1 0 .2.25.25 0 0 1-.19.09H52.8a.28.28 0 0 1-.19-.09.24.24 0 0 1 0-.2L53.2 61a1.76 1.76 0 1 1 1.6 0z"></path></g><defs>
<linearGradient id="a" x1="9" y1="16.39" x2="9" y2="-1.94" gradientUnits="userSpaceOnUse"><stop offset="0" stop-color="#0078d4"></stop><stop offset=".16" stop-color="#1380da"></stop><stop offset=".53" stop-color="#3c91e5"></stop><stop offset=".82" stop-color="#559cec"></stop><stop offset="1" stop-color="#5ea0ef"></stop></linearGradient>
<linearGradient id="b" x1="9.88" y1="7.11" x2="9.99" y2="17.27" gradientUnits="userSpaceOnUse"><stop offset="0" stop-color="#32d4f5"></stop><stop offset=".32" stop-color="#31d1f3"></stop><stop offset=".53" stop-color="#2ec9eb"></stop><stop offset=".7" stop-color="#29bade"></stop><stop offset=".86" stop-color="#22a5cb"></stop><stop offset="1" stop-color="#198ab3"></stop><stop offset="1" stop-color="#198ab3"></stop></linearGradient>
<radialGradient id="c" cx="9.43" cy="7.03" r="7.27" gradientUnits="userSpaceOnUse"><stop offset="0" stop-color="#f2f2f2"></stop><stop offset=".58" stop-color="#eee"></stop><stop offset="1" stop-color="#e6e6e6"></stop></radialGradient>
</defs>
</svg>