<svg xmlns="http://www.w3.org/2000/svg" viewBox="0 0 48 48" fill="none"><path d="M11.25 4.5C7.52208 4.5 4.5 7.52208 4.5 11.25V36.75C4.5 40.4779 7.52208 43.5 11.25 43.5H17.4173C17.3078 43.0176 17.25 42.5155 17.25 42V40.5H11.25C9.17893 40.5 7.5 38.8211 7.5 36.75V16.5H40.5V17.25H42C42.5155 17.25 43.0176 17.3078 43.5 17.4173V11.25C43.5 7.52208 40.4779 4.5 36.75 4.5H11.25ZM7.5 11.25C7.5 9.17893 9.17893 7.5 11.25 7.5H36.75C38.8211 7.5 40.5 9.17893 40.5 11.25V13.5H7.5V11.25ZM36 19.5C33.5147 19.5 31.5 21.5147 31.5 24V31.5H24C21.5147 31.5 19.5 33.5147 19.5 36V42C19.5 44.4853 21.5147 46.5 24 46.5H39.75C43.4779 46.5 46.5 43.4779 46.5 39.75V24C46.5 21.5147 44.4853 19.5 42 19.5H36ZM34.5 24C34.5 23.1716 35.1716 22.5 36 22.5H42C42.8284 22.5 43.5 23.1716 43.5 24V31.5H34.5V24ZM24 34.5H31.5V43.5H24C23.1716 43.5 22.5 42.8284 22.5 42V36C22.5 35.1716 23.1716 34.5 24 34.5ZM39.75 43.5H34.5V34.5H43.5V39.75C43.5 41.8211 41.8211 43.5 39.75 43.5Z" fill="url(#paint0_linear_6156_386039)"/><path d="M11.25 4.5C7.52208 4.5 4.5 7.52208 4.5 11.25V36.75C4.5 40.4779 7.52208 43.5 11.25 43.5H17.4173C17.3078 43.0176 17.25 42.5155 17.25 42V40.5H11.25C9.17893 40.5 7.5 38.8211 7.5 36.75V16.5H40.5V17.25H42C42.5155 17.25 43.0176 17.3078 43.5 17.4173V11.25C43.5 7.52208 40.4779 4.5 36.75 4.5H11.25ZM7.5 11.25C7.5 9.17893 9.17893 7.5 11.25 7.5H36.75C38.8211 7.5 40.5 9.17893 40.5 11.25V13.5H7.5V11.25ZM36 19.5C33.5147 19.5 31.5 21.5147 31.5 24V31.5H24C21.5147 31.5 19.5 33.5147 19.5 36V42C19.5 44.4853 21.5147 46.5 24 46.5H39.75C43.4779 46.5 46.5 43.4779 46.5 39.75V24C46.5 21.5147 44.4853 19.5 42 19.5H36ZM34.5 24C34.5 23.1716 35.1716 22.5 36 22.5H42C42.8284 22.5 43.5 23.1716 43.5 24V31.5H34.5V24ZM24 34.5H31.5V43.5H24C23.1716 43.5 22.5 42.8284 22.5 42V36C22.5 35.1716 23.1716 34.5 24 34.5ZM39.75 43.5H34.5V34.5H43.5V39.75C43.5 41.8211 41.8211 43.5 39.75 43.5Z" fill="black" fill-opacity="0.2"/><defs><linearGradient id="paint0_linear_6156_386039" x1="25.5" y1="4.5" x2="25.5" y2="46.5" gradientUnits="userSpaceOnUse"><stop stop-color="#CA5BCA"/><stop offset="1" stop-color="#625BDE"/></linearGradient></defs></svg>