<?xml version="1.0" encoding="UTF-8" standalone="no"?>
<!DOCTYPE svg PUBLIC "-//W3C//DTD SVG 1.1//EN" "http://www.w3.org/Graphics/SVG/1.1/DTD/svg11.dtd">
<!-- Generated by Microsoft Visio, SVG Export Chart-#2.svg Page-1 -->
<svg xmlns="http://www.w3.org/2000/svg" xmlns:xlink="http://www.w3.org/1999/xlink" xmlns:ev="http://www.w3.org/2001/xml-events"
		xmlns:v="http://schemas.microsoft.com/visio/2003/SVGExtensions/" width="11in" height="8.5in" viewBox="0 0 792 612"
		xml:space="preserve" color-interpolation-filters="sRGB" class="st5">
	<v:documentProperties v:langID="1033" v:viewMarkup="false">
		<v:userDefs>
			<v:ud v:nameU="msvSubprocessMaster" v:prompt="" v:val="VT4(Rectangle)"/>
			<v:ud v:nameU="msvNoAutoConnect" v:val="VT0(1):26"/>
		</v:userDefs>
	</v:documentProperties>

	<style type="text/css">
	<![CDATA[
		.st1 {fill:#ffae00;stroke:none;stroke-width:0.9375}
		.st2 {fill:#ffffff;stroke:none;stroke-width:0.9375}
		.st3 {fill:#f06358;stroke:none;stroke-width:0.9375}
		.st4 {fill:#5896cc;stroke:none;stroke-width:0.9375}
		.st5 {fill:none;fill-rule:evenodd;font-size:12px;overflow:visible;stroke-linecap:square;stroke-miterlimit:3}
	]]>
	</style>

	<g v:mID="0" v:index="1" v:groupContext="foregroundPage">
		<v:userDefs>
			<v:ud v:nameU="msvThemeOrder" v:val="VT0(0):26"/>
		</v:userDefs>
		<title>Page-1</title>
		<v:pageProperties v:drawingScale="1" v:pageScale="1" v:drawingUnits="0" v:shadowOffsetX="9" v:shadowOffsetY="-9"/>
		<g id="group974-1" transform="translate(18,-551.086)" v:mID="974" v:groupContext="group">
			<title>Chart #2</title>
			<g id="shape975-2" v:mID="975" v:groupContext="shape" transform="translate(-7.99361E-15,1222.04) scale(1,-1)">
				<title>path776</title>
				<path d="M0 612 L41.96 612 L41.96 610.04 L0 610.04 L0 612 Z" class="st1"/>
			</g>
			<g id="shape976-4" v:mID="976" v:groupContext="shape" transform="translate(0.0001875,1181.09) scale(1,-1)">
				<title>path778</title>
				<path d="M0 612 L9.39 612 L9.39 571.04 L0 571.04 L0 612 Z" class="st2"/>
			</g>
			<g id="shape977-6" v:mID="977" v:groupContext="shape" transform="translate(10.8564,1196.53) scale(1,-1)">
				<title>path780</title>
				<path d="M0 612 L9.39 612 L9.39 586.49 L0 586.49 L0 612 Z" class="st1"/>
			</g>
			<g id="shape978-8" v:mID="978" v:groupContext="shape" transform="translate(21.7146,1205.17) scale(1,-1)">
				<title>path782</title>
				<path d="M0 612 L9.39 612 L9.39 595.13 L0 595.13 L0 612 Z" class="st3"/>
			</g>
			<g id="shape979-10" v:mID="979" v:groupContext="shape" transform="translate(32.5708,1197.26) scale(1,-1)">
				<title>path784</title>
				<path d="M0 612 L9.39 612 L9.39 587.21 L0 587.21 L0 612 Z" class="st4"/>
			</g>
		</g>
	</g>
</svg>
