<svg width="48" height="48" viewBox="0 0 48 48" fill="none" xmlns="http://www.w3.org/2000/svg">
<path d="M40.5 10.5C40.5 6.35786 33.1127 3 24 3C14.8873 3 7.5 6.35786 7.5 10.5V37.5C7.5 41.6421 14.8873 45 24 45C33.1127 45 40.5 41.6421 40.5 37.5V10.5ZM37.5 10.5C37.5 10.6712 37.2103 11.8065 34.4259 13.0722C31.9122 14.2148 28.2289 15 24 15C19.7711 15 16.0878 14.2148 13.5741 13.0722C10.7897 11.8065 10.5 10.6712 10.5 10.5C10.5 10.3288 10.7897 9.19347 13.5741 7.9278C16.0878 6.78523 19.7711 6 24 6C28.2289 6 31.9122 6.78523 34.4259 7.9278C37.2103 9.19347 37.5 10.3288 37.5 10.5ZM37.5 14.8133V37.5C37.5 37.6712 37.2103 38.8065 34.4259 40.0722C31.9122 41.2148 28.2289 42 24 42C19.7711 42 16.0878 41.2148 13.5741 40.0722C10.7897 38.8065 10.5 37.6712 10.5 37.5V14.8133C13.4861 16.7408 18.4195 18 24 18C29.5805 18 34.5139 16.7408 37.5 14.8133Z" fill="url(#paint0_linear_6156_386032)"/>
<defs>
<linearGradient id="paint0_linear_6156_386032" x1="24" y1="3" x2="24" y2="45" gradientUnits="userSpaceOnUse">
<stop stop-color="#CA5BCA"/>
<stop offset="1" stop-color="#625BDE"/>
</linearGradient>
</defs>
</svg>
