<svg width="96" height="96" viewBox="0 0 96 96" fill="none" xmlns="http://www.w3.org/2000/svg">
<defs>
<filter id="filter0_f">
<feFlood flood-opacity="0" result="BackgroundImageFix"/>
<feBlend mode="normal" in="SourceGraphic" in2="BackgroundImageFix" result="shape"/>
<feGaussianBlur stdDeviation="0.4" result="effect1_foregroundBlur"/>
</filter>
<filter id="filter1_f">
<feFlood flood-opacity="0" result="BackgroundImageFix"/>
<feBlend mode="normal" in="SourceGraphic" in2="BackgroundImageFix" result="shape"/>
<feGaussianBlur stdDeviation="4" result="effect1_foregroundBlur"/>
</filter>
<linearGradient id="paint0_linear" x1="35.1986" y1="10.2397" x2="43.5185" y2="85.7595" gradientUnits="userSpaceOnUse">
<stop stop-color="#096738"/>
<stop offset="1" stop-color="#0A4C2D"/>
</linearGradient>
<linearGradient id="paint1_linear" x1="69.4381" y1="9.28013" x2="85.1181" y2="84.1601" gradientUnits="userSpaceOnUse">
<stop stop-color="#4ED062"/>
<stop offset="1" stop-color="#209B4E"/>
</linearGradient>
<linearGradient id="paint2_linear" x1="69.1642" y1="86.6486" x2="61.2239" y2="86.6486" gradientUnits="userSpaceOnUse">
<stop/>
<stop offset="0.271932" stop-opacity="0.560661"/>
<stop offset="0.620896" stop-opacity="0.264518"/>
<stop offset="1" stop-opacity="0"/>
</linearGradient>
<linearGradient id="paint3_linear" x1="64.8292" y1="64.8898" x2="52.6105" y2="27.0127" gradientUnits="userSpaceOnUse">
<stop stop-color="#66EB6E"/>
<stop offset="1" stop-color="#9FE0A2"/>
</linearGradient>
<clipPath id="clip0">
<rect width="95.9998" height="96" fill="white"/>
</clipPath>
<clipPath id="clip1">
<rect width="95.9998" height="95.9998" fill="white"/>
</clipPath>
</defs>
<g clip-path="url(#clip0)">
<g clip-path="url(#clip1)">
<mask id="mask0" mask-type="alpha" maskUnits="userSpaceOnUse" x="-1" y="11" width="97" height="74">
<path d="M91.9541 21.5445L91.951 21.5444C90.6703 18.5694 88.4544 15.9667 85.4337 14.2227C77.9812 9.91997 68.4518 12.4731 64.1485 19.9252L64.1444 19.9249C63.7587 19.5808 63.3618 19.2436 62.9542 18.9125C49.7493 8.1851 29.1026 8.13703 13.8768 21.8236C0.199931 34.1179 -4.07884 55.7795 3.96064 74.5503L3.96562 74.5506C5.2522 77.4874 7.45351 80.0547 10.4432 81.7808C17.8934 86.0821 27.419 83.5321 31.7242 76.0856L31.7284 76.0858L31.7322 76.0791C32.1179 76.4233 32.5145 76.7611 32.922 77.0922C46.1269 87.8196 66.7736 87.8676 81.9994 74.1811C95.6544 61.9065 99.9414 40.2945 91.9541 21.5445Z" fill="#C4C4C4"/>
</mask>
<g mask="url(#mask0)">
<path fill-rule="evenodd" clip-rule="evenodd" d="M39.5009 62.6252C52.5275 70.1461 64.2321 67.2448 70.8509 55.7806C77.4698 44.3164 74.9813 28.6839 62.9546 18.9137C49.7497 8.18625 29.103 8.13818 13.8772 21.8247C0.200315 34.119 -4.07846 55.7806 3.96103 74.5514L3.96579 74.5517C5.25237 77.4885 7.45367 80.0558 10.4434 81.7818C17.8935 86.0832 27.4191 83.5331 31.7243 76.0867L31.7288 76.0869L39.5009 62.6252Z" fill="url(#paint0_linear)"/>
<path fill-rule="evenodd" clip-rule="evenodd" d="M91.95 21.5443L91.9535 21.5446C99.9407 40.2945 95.6538 61.9065 81.9988 74.1811C66.773 87.8677 46.1263 87.8196 32.9214 77.0922C20.8947 67.322 18.4062 51.6895 25.0251 40.2253C31.6439 28.7611 43.3485 25.8597 56.3751 33.3806L64.1437 19.9249L64.148 19.9252C68.4514 12.4735 77.9805 9.92063 85.4329 14.2233C88.4534 15.9671 90.6692 18.5696 91.95 21.5443Z" fill="url(#paint1_linear)"/>
<path fill-rule="evenodd" clip-rule="evenodd" d="M56.3789 33.3814C43.3523 25.8605 31.6478 28.7619 25.0289 40.2261C18.6342 51.302 20.7404 66.2686 31.736 76.0804L39.5039 62.626C52.5305 70.1469 64.235 67.2456 70.8539 55.7814C77.2486 44.7054 75.1424 29.7389 64.1468 19.927L56.3789 33.3814Z" fill="#088142"/>
<rect opacity="0.25" x="61.2239" y="9.11133" width="7.94029" height="97.4461" transform="rotate(30 61.2239 9.11133)" fill="url(#paint2_linear)"/>
<g filter="url(#filter0_f)">
<path d="M62.5645 56.8453C57.9023 64.9205 47.5766 67.6872 39.5014 63.025C31.4262 58.3628 28.6594 48.0371 33.3216 39.9619C37.9839 31.8868 48.3095 29.12 56.3847 33.7822C64.4599 38.4444 67.2267 48.7701 62.5645 56.8453Z" fill="black" fill-opacity="0.24"/>
</g>
<g filter="url(#filter1_f)">
<path d="M62.5645 58.4453C57.9023 66.5204 47.5766 69.2872 39.5014 64.625C31.4262 59.9628 28.6594 49.6371 33.3216 41.5619C37.9839 33.4867 48.3095 30.72 56.3847 35.3822C64.4599 40.0444 67.2267 50.3701 62.5645 58.4453Z" fill="black" fill-opacity="0.32"/>
</g>
<path d="M62.5645 56.4453C57.9022 64.5204 47.5766 67.2872 39.5014 62.625C31.4262 57.9628 28.6594 47.6371 33.3216 39.5619C37.9839 31.4867 48.3095 28.72 56.3847 33.3822C64.4599 38.0444 67.2267 48.3701 62.5645 56.4453Z" fill="url(#paint3_linear)"/>
</g>
</g>
</g>
</svg>
