<svg width="103" height="103" viewBox="0 0 103 103" fill="none" xmlns="http://www.w3.org/2000/svg">
<path d="M51.5817 98.3397C25.7317 98.3397 4.77173 77.3897 4.77173 51.5297C4.77173 25.6697 25.7317 4.71973 51.5817 4.71973C77.4317 4.71973 98.3917 25.6797 98.3917 51.5297C98.3917 77.3797 77.4317 98.3397 51.5817 98.3397Z" fill="#7D7D7D"/>
<path fill-rule="evenodd" clip-rule="evenodd" d="M97.4819 51.5296C97.4819 76.8796 76.9319 97.4296 51.5819 97.4296C26.2319 97.4296 5.68189 76.8796 5.68189 51.5296C5.68189 26.1796 26.2319 5.62965 51.5819 5.62965C76.9319 5.62965 97.4819 26.1796 97.4819 51.5296ZM51.5819 1.88965C79.0019 1.88965 101.222 24.1096 101.222 51.5296C101.222 78.9496 78.9919 101.17 51.5819 101.17C24.1619 101.17 1.94189 78.9396 1.94189 51.5296C1.94189 24.1096 24.1619 1.88965 51.5819 1.88965Z" fill="#F2F1F0"/>
<path fill-rule="evenodd" clip-rule="evenodd" d="M94.6717 51.5292C94.6717 75.3292 75.3817 94.6192 51.5817 94.6192C27.7817 94.6192 8.49171 75.3292 8.49171 51.5292C8.49171 27.7292 27.7817 8.43922 51.5817 8.43922C75.3817 8.43922 94.6717 27.7292 94.6717 51.5292ZM51.5817 4.69922C77.4417 4.69922 98.4117 25.6692 98.4117 51.5292C98.4117 77.3892 77.4417 98.3592 51.5817 98.3592C25.7217 98.3592 4.75171 77.3892 4.75171 51.5292C4.75171 25.6692 25.7117 4.69922 51.5817 4.69922Z" fill="#F3C900"/>
<path d="M28.5217 75.2393V84.2193C28.5317 85.4193 29.3617 86.2293 30.5217 86.2193H74.5217V75.2393H28.5217Z" fill="#FFD400"/>
<path d="M30.5217 77.2393V82.2393C30.5517 83.3493 31.4417 84.2493 32.4817 84.2393H74.5217V77.2393H30.5217Z" fill="white"/>
<path opacity="0.2" d="M30.5217 77.2393V78.2393H74.5217V77.2393H30.5217Z" fill="#4F4D52"/>
<path opacity="0.2" d="M48.5217 77.2393L54.5217 84.2393H48.5217V77.2393Z" fill="#4F4D52"/>
<path d="M49.5217 88.2393L45.5217 86.2393L42.5217 88.2393V77.2393H49.5217V88.2393Z" fill="#EF6F59"/>
<path d="M74.5217 75.2393H28.5217V18.2393H74.5217V75.2393Z" fill="#FFFBBF"/>
<path fill-rule="evenodd" clip-rule="evenodd" d="M51.5217 69.2393C51.5217 70.3493 50.6317 71.2393 49.5217 71.2393H28.5217V75.2393H74.5217V21.2393L53.5217 23.2393C52.4117 23.2393 51.5217 24.1393 51.5217 25.2393V69.2393Z" fill="#FFF880"/>
<path d="M62.0516 66.5589H51.1716V34.0389C51.1716 32.8689 52.1216 31.9189 53.2916 31.9189H62.0416C63.2116 31.9189 64.1616 32.8689 64.1616 34.0389V64.4489C64.1716 65.6089 63.2216 66.5589 62.0516 66.5589Z" fill="url(#paint0_linear)"/>
<path d="M55.0116 66.5588H43.8616V42.6088C43.8616 41.5888 44.6916 40.7588 45.7116 40.7588H55.0016C56.0216 40.7588 56.8516 41.5888 56.8516 42.6088V64.7088C56.8616 65.7288 56.0316 66.5588 55.0116 66.5588Z" fill="url(#paint1_linear)"/>
<path d="M47.4716 66.5593H39.2916C37.9616 66.5593 36.8816 65.4793 36.8816 64.1493V51.6493C36.8816 50.3193 37.9616 49.2393 39.2916 49.2393H47.4716C48.8016 49.2393 49.8816 50.3193 49.8816 51.6493V64.1493C49.8816 65.4893 48.8016 66.5593 47.4716 66.5593Z" fill="url(#paint2_linear)"/>
<path d="M32.2217 22.8492H35.8217V31.1992H33.8917V24.3992H32.2217V22.8492V22.8492ZM40.8617 31.3392C38.8117 31.3392 37.2817 29.7692 37.2817 27.0192C37.2817 24.2692 38.8117 22.6992 40.8617 22.6992C42.9217 22.6992 44.4417 24.2692 44.4417 27.0192C44.4317 29.7792 42.9217 31.3392 40.8617 31.3392ZM40.8617 29.7092C41.8317 29.7092 42.4917 28.9292 42.4917 27.0192C42.4917 25.1292 41.8217 24.3392 40.8617 24.3392C39.9117 24.3392 39.2417 25.1192 39.2417 27.0192C39.2317 28.9192 39.9017 29.7092 40.8617 29.7092ZM44.9217 22.8492H48.5217V31.1992H46.5917V24.3992H44.9217V22.8492Z" fill="black"/>
<path d="M32.2217 22.8492H35.8217V31.1992H33.8917V24.3992H32.2217V22.8492V22.8492ZM40.8617 31.3392C38.8117 31.3392 37.2817 29.7692 37.2817 27.0192C37.2817 24.2692 38.8117 22.6992 40.8617 22.6992C42.9217 22.6992 44.4417 24.2692 44.4417 27.0192C44.4317 29.7792 42.9217 31.3392 40.8617 31.3392ZM40.8617 29.7092C41.8317 29.7092 42.4917 28.9292 42.4917 27.0192C42.4917 25.1292 41.8217 24.3392 40.8617 24.3392C39.9117 24.3392 39.2417 25.1192 39.2417 27.0192C39.2317 28.9192 39.9017 29.7092 40.8617 29.7092ZM44.9217 22.8492H48.5217V31.1992H46.5917V24.3992H44.9217V22.8492Z" fill="#B9840C"/>
<defs>
<linearGradient id="paint0_linear" x1="57.5272" y1="35.083" x2="57.8036" y2="63.8315" gradientUnits="userSpaceOnUse">
<stop offset="0.00753769" stop-color="#E0A310"/>
<stop offset="1" stop-color="#CA810E"/>
</linearGradient>
<linearGradient id="paint1_linear" x1="50.008" y1="41.7645" x2="50.8373" y2="72.1712" gradientUnits="userSpaceOnUse">
<stop offset="0.00753769" stop-color="#F2CC40"/>
<stop offset="1" stop-color="#E7B116"/>
</linearGradient>
<linearGradient id="paint2_linear" x1="43.0756" y1="50.5809" x2="43.9049" y2="70.2069" gradientUnits="userSpaceOnUse">
<stop stop-color="#F8E17B"/>
<stop offset="0.5302" stop-color="#F6D856"/>
<stop offset="1" stop-color="#F6D856"/>
</linearGradient>
</defs>
</svg>
