<?xml version="1.0" encoding="UTF-8" standalone="no"?>
<!DOCTYPE svg PUBLIC "-//W3C//DTD SVG 1.1//EN" "http://www.w3.org/Graphics/SVG/1.1/DTD/svg11.dtd">
<!-- Generated by Microsoft Visio, SVG Export Human-Workflow.svg Page-1 -->
<svg xmlns="http://www.w3.org/2000/svg" xmlns:xlink="http://www.w3.org/1999/xlink" xmlns:ev="http://www.w3.org/2001/xml-events"
		xmlns:v="http://schemas.microsoft.com/visio/2003/SVGExtensions/" width="0.776042in" height="0.77606in"
		viewBox="0 0 55.875 55.8763" xml:space="preserve" color-interpolation-filters="sRGB" class="st6">
	<v:documentProperties v:langID="1033" v:metric="true" v:viewMarkup="false"/>

	<style type="text/css">
	<![CDATA[
		.st1 {fill:#deebf6;stroke:#41719c;stroke-width:0.9375}
		.st2 {fill:#4d86b8;stroke:none;stroke-width:0.9375}
		.st3 {fill:#f06358;stroke:none;stroke-width:0.9375}
		.st4 {fill:#ffae00;stroke:none;stroke-width:0.9375}
		.st5 {fill:#538135;stroke:none;stroke-width:0.9375}
		.st6 {fill:none;fill-rule:evenodd;font-size:12px;overflow:visible;stroke-linecap:square;stroke-miterlimit:3}
	]]>
	</style>

	<g v:mID="0" v:index="1" v:groupContext="foregroundPage">
		<title>Page-1</title>
		<v:pageProperties v:drawingScale="1" v:pageScale="1" v:drawingUnits="0" v:shadowOffsetX="9" v:shadowOffsetY="-9"/>
		<g id="group961-1" transform="translate(0.9375,-0.9375)" v:mID="961" v:groupContext="group">
			<title>Human Workflow</title>
			<g id="shape962-2" v:mID="962" v:groupContext="shape" transform="translate(0,57.7513) scale(1,-1)">
				<title>path450</title>
				<path d="M27 1.88 C41.87 1.88 54 14 54 28.87 C54 43.75 41.87 55.88 27 55.88 C12.13 55.88 0 43.75 0 28.87 C0 14 12.13
							 1.88 27 1.88 Z" class="st1"/>
			</g>
			<g id="shape963-4" v:mID="963" v:groupContext="shape" transform="translate(13.9522,84.1229) scale(1,-1)">
				<title>path454</title>
				<path d="M0 45.95 L12.55 55.88 L13.54 54.62 L0.99 44.69 L0 45.95 Z" class="st2"/>
			</g>
			<g id="shape964-6" v:mID="964" v:groupContext="shape" transform="translate(26.5018,84.1231) scale(1,-1)">
				<title>path458</title>
				<path d="M12.55 44.69 L0 54.62 L1 55.88 L13.54 45.95 L12.55 44.69 Z" class="st3"/>
			</g>
			<g id="shape965-8" v:mID="965" v:groupContext="shape" transform="translate(26.1932,68.7514) scale(1,-1)">
				<title>path460</title>
				<path d="M1.61 39.88 L0 39.88 L0 55.88 L1.61 55.88 L1.61 39.88 Z" class="st4"/>
			</g>
			<g id="shape966-10" v:mID="966" v:groupContext="shape" transform="translate(20.3708,62.06) scale(1,-1)">
				<title>path464</title>
				<path d="M8.97 46.98 C11.11 46.26 12.74 44.59 13.26 42.53 L0 42.53 C0.51 44.59 2.15 46.26 4.28 46.98 C3.28 47.87
							 2.63 49.32 2.63 50.96 C2.63 53.67 4.42 55.88 6.63 55.88 C8.83 55.88 10.62 53.67 10.62 50.96 C10.62 49.32
							 9.97 47.87 8.97 46.98 Z" class="st2"/>
			</g>
			<g id="shape967-12" v:mID="967" v:groupContext="shape" transform="translate(7.64729,85.3528) scale(1,-1)">
				<title>path468</title>
				<path d="M8.97 46.98 C11.11 46.26 12.74 44.59 13.26 42.53 L0 42.53 C0.51 44.59 2.15 46.26 4.28 46.98 C3.28 47.87
							 2.63 49.32 2.63 50.96 C2.63 53.68 4.42 55.88 6.63 55.88 C8.83 55.88 10.62 53.68 10.62 50.96 C10.62 49.32
							 9.97 47.87 8.97 46.98 Z" class="st3"/>
			</g>
			<g id="shape968-14" v:mID="968" v:groupContext="shape" transform="translate(33.0937,85.3528) scale(1,-1)">
				<title>path472</title>
				<path d="M8.97 46.98 C11.11 46.26 12.74 44.59 13.26 42.53 L0 42.53 C0.52 44.59 2.15 46.26 4.28 46.98 C3.28 47.87
							 2.63 49.32 2.63 50.96 C2.63 53.68 4.42 55.88 6.63 55.88 C8.84 55.88 10.62 53.68 10.62 50.96 C10.62 49.32
							 9.97 47.87 8.97 46.98 Z" class="st4"/>
			</g>
			<g id="shape969-16" v:mID="969" v:groupContext="shape" transform="translate(22.9023,80.6548) scale(1,-1)">
				<title>path476</title>
				<path d="M4.1 47.68 C6.35 47.68 8.19 49.52 8.19 51.78 C8.19 54.04 6.35 55.88 4.1 55.88 C1.84 55.88 0 54.04 0 51.78
							 C0 49.52 1.84 47.68 4.1 47.68 Z" class="st5"/>
			</g>
		</g>
	</g>
</svg>
