<svg xmlns="http://www.w3.org/2000/svg" viewBox="0 0 51 50" fill="none"><path d="M15.5626 7.5C11.9382 7.5 9 10.4381 9 14.0625V35.0625C9 38.6868 11.9382 41.625 15.5626 41.625H36.5629C40.1873 41.625 43.1254 38.6868 43.1254 35.0625V14.0625C43.1254 10.4381 40.1873 7.5 36.5629 7.5H15.5626ZM11.625 35.0625V18H40.5004V35.0625C40.5004 37.2371 38.7375 39 36.5629 39H15.5626C13.3879 39 11.625 37.2371 11.625 35.0625ZM11.625 15.375V14.0625C11.625 11.8879 13.3879 10.125 15.5626 10.125H36.5629C38.7375 10.125 40.5004 11.8879 40.5004 14.0625V15.375H11.625ZM23.4371 49.5C20.2622 49.5 17.6139 47.2454 17.0058 44.25H19.7237C20.2642 45.7793 21.7227 46.875 23.4371 46.875H40.4999C44.8492 46.875 48.375 43.3492 48.375 39V21.9375C48.375 20.2231 47.2793 18.7646 45.7499 18.2241V15.5063C48.7454 16.1143 51 18.7626 51 21.9375V39C51 44.799 46.2989 49.5 40.4999 49.5H23.4371Z" fill="url(#paint0_linear_6156_386049)"/><rect x="1" y="2.5" width="36" height="35" rx="4" fill="white"/><path d="M7.84615 13.5769C6.40172 13.5769 5.23077 14.7479 5.23077 16.1923V26.6538C5.23077 28.0983 6.40172 29.2692 7.84615 29.2692H11.7692C13.2137 29.2692 14.3846 28.0983 14.3846 26.6538V16.1923C14.3846 14.7479 13.2137 13.5769 11.7692 13.5769H7.84615ZM7.84615 16.1923H11.7692V26.6538H7.84615V16.1923ZM17 14.8846C17 14.1624 17.5855 13.5769 18.3077 13.5769H27.4615C28.1838 13.5769 28.7692 14.1624 28.7692 14.8846C28.7692 15.6068 28.1838 16.1923 27.4615 16.1923H18.3077C17.5855 16.1923 17 15.6068 17 14.8846ZM18.3077 18.8077C17.5855 18.8077 17 19.3932 17 20.1154C17 20.8376 17.5855 21.4231 18.3077 21.4231H24.8462C25.5684 21.4231 26.1538 20.8376 26.1538 20.1154C26.1538 19.3932 25.5684 18.8077 24.8462 18.8077H18.3077ZM0 6.38461C0 3.13463 2.63463 0.5 5.88462 0.5H28.1154C31.3654 0.5 34 3.13463 34 6.38462V28.6154C34 31.8654 31.3654 34.5 28.1154 34.5H5.88461C2.63463 34.5 0 31.8654 0 28.6154V6.38461ZM5.88462 3.11538C4.07907 3.11538 2.61538 4.57907 2.61538 6.38461V8.34615H31.3846V6.38462C31.3846 4.57907 29.9209 3.11538 28.1154 3.11538H5.88462ZM31.3846 10.9615H2.61538V28.6154C2.61538 30.4209 4.07907 31.8846 5.88461 31.8846H28.1154C29.9209 31.8846 31.3846 30.4209 31.3846 28.6154V10.9615Z" fill="url(#paint1_linear_6156_386049)"/><defs><linearGradient id="paint0_linear_6156_386049" x1="30" y1="7.5" x2="30" y2="49.5" gradientUnits="userSpaceOnUse"><stop stop-color="#CA5BCA"/><stop offset="1" stop-color="#625BDE"/></linearGradient><linearGradient id="paint1_linear_6156_386049" x1="17" y1="0.5" x2="17" y2="34.5" gradientUnits="userSpaceOnUse"><stop stop-color="#CA5BCA"/><stop offset="1" stop-color="#625BDE"/></linearGradient></defs></svg>