<svg viewBox="0 0 40 40" class="" role="presentation" focusable="false" xmlns:svg="http://www.w3.org/2000/svg" xmlns:xlink="http://www.w3.org/1999/xlink" id="FxSymbol0-099" data-type="1"><g><title></title><title>power_bi_embedded</title><g fill="none" fill-rule="evenodd"><path fill="#F2C811" d="M0 0h40v40H0z"></path><path d="M29.188 26.574h-.481v-.972h.48c.258 0 .499-.05.721-.147a1.9 1.9 0 0 0 .985-.984c.097-.223.146-.463.146-.721v-9.89c0-.258-.049-.5-.146-.727a1.88 1.88 0 0 0-.985-.99 1.774 1.774 0 0 0-.72-.147h-18.34c-.258 0-.5.049-.727.147a1.88 1.88 0 0 0-.592.398 1.88 1.88 0 0 0-.398.592 1.816 1.816 0 0 0-.147.726v9.891c0 .258.05.498.147.72a1.88 1.88 0 0 0 .99.984c.227.099.469.148.727.148h.48v.972h-.48a2.856 2.856 0 0 1-2.625-1.729A2.707 2.707 0 0 1 8 23.75v-9.89c0-.391.074-.758.223-1.102a2.856 2.856 0 0 1 2.625-1.734h18.34a2.805 2.805 0 0 1 1.986.832 2.9 2.9 0 0 1 .603.902c.149.344.223.71.223 1.101v9.891c0 .39-.074.756-.223 1.096a2.95 2.95 0 0 1-.603.896 2.805 2.805 0 0 1-1.986.832zM13.8 28.988a1.318 1.318 0 0 1-.926-.375 1.348 1.348 0 0 1-.281-.416 1.283 1.283 0 0 1-.106-.521V24.64c0-.18.035-.348.106-.504a1.348 1.348 0 0 1 .697-.691c.16-.071.33-.106.51-.106.187 0 .361.035.521.105a1.348 1.348 0 0 1 .698.692c.07.156.105.324.105.504v3.035c0 .18-.035.35-.105.51a1.36 1.36 0 0 1-.282.416 1.342 1.342 0 0 1-.937.386zm4.148 0c-.187 0-.361-.035-.521-.105a1.348 1.348 0 0 1-.416-.281 1.348 1.348 0 0 1-.282-.416c-.07-.16-.105-.33-.105-.51v-7.781c0-.18.035-.35.105-.51a1.336 1.336 0 0 1 .698-.698c.16-.07.334-.105.521-.105.18 0 .35.035.51.105.16.07.299.165.416.282.117.117.21.256.281.416.07.16.106.33.106.51v7.78c0 .18-.035.35-.106.51-.07.16-.164.3-.281.417a1.342 1.342 0 0 1-.926.386zm8.25-.035c-.18 0-.35-.035-.51-.105a1.348 1.348 0 0 1-.416-.282 1.348 1.348 0 0 1-.28-.416 1.283 1.283 0 0 1-.106-.521V16.625c0-.18.035-.35.105-.51.07-.16.164-.299.281-.416.118-.117.256-.21.416-.281.16-.07.33-.105.51-.105.188 0 .362.035.522.105.16.07.299.164.416.281.117.117.21.256.281.416.07.16.105.33.105.51v11.004c0 .187-.035.361-.105.521a1.333 1.333 0 0 1-.697.698c-.16.07-.334.105-.522.105zm-4.125.035c-.18 0-.35-.035-.51-.105a1.348 1.348 0 0 1-.416-.281 1.348 1.348 0 0 1-.28-.416 1.243 1.243 0 0 1-.106-.51v-5.778c0-.18.035-.35.105-.51a1.34 1.34 0 0 1 .697-.697c.16-.07.33-.105.51-.105s.35.035.51.105a1.33 1.33 0 0 1 .803 1.208v5.777c0 .18-.035.35-.106.51-.07.16-.164.298-.281.416a1.342 1.342 0 0 1-.926.386z" fill="#212121"></path></g></g><defs>
<linearGradient id="a" x1="9" y1="16.39" x2="9" y2="-1.94" gradientUnits="userSpaceOnUse"><stop offset="0" stop-color="#0078d4"></stop><stop offset=".16" stop-color="#1380da"></stop><stop offset=".53" stop-color="#3c91e5"></stop><stop offset=".82" stop-color="#559cec"></stop><stop offset="1" stop-color="#5ea0ef"></stop></linearGradient>
<linearGradient id="b" x1="9.88" y1="7.11" x2="9.99" y2="17.27" gradientUnits="userSpaceOnUse"><stop offset="0" stop-color="#32d4f5"></stop><stop offset=".32" stop-color="#31d1f3"></stop><stop offset=".53" stop-color="#2ec9eb"></stop><stop offset=".7" stop-color="#29bade"></stop><stop offset=".86" stop-color="#22a5cb"></stop><stop offset="1" stop-color="#198ab3"></stop><stop offset="1" stop-color="#198ab3"></stop></linearGradient>
<radialGradient id="c" cx="9.43" cy="7.03" r="7.27" gradientUnits="userSpaceOnUse"><stop offset="0" stop-color="#f2f2f2"></stop><stop offset=".58" stop-color="#eee"></stop><stop offset="1" stop-color="#e6e6e6"></stop></radialGradient>
</defs>
</svg>