<svg width="96" height="96" viewBox="0 0 96 96" fill="none" xmlns="http://www.w3.org/2000/svg">
<mask id="mask0_12901_33826" style="mask-type:alpha" maskUnits="userSpaceOnUse" x="5" y="6" width="88" height="85">
<path d="M9.41144 17.6522C13.7489 10.4258 21.5593 6.00439 29.9876 6.00439H73.3375C76.4468 6.00439 78.3672 9.39643 76.7674 12.0625L66.0039 30H88.9353C92.0445 30 93.9649 33.3919 92.3652 36.058L82.9392 51.7681C79.899 56.835 79.899 63.165 82.9392 68.2319L92.3652 83.942C93.9649 86.6081 92.0444 90 88.9353 90H68.2648C66.8597 90 65.5577 89.2628 64.8348 88.058L63 85L61.1652 88.058C60.4424 89.2628 59.1403 90 57.7353 90H37.0648L9.06477 90.0004C5.9556 90.0004 4.03515 86.6085 5.63479 83.9424L15.0609 68.2321C18.1011 63.1652 18.101 56.8352 15.0609 51.7683L9.40948 42.3492C4.84894 34.7483 4.84969 25.2524 9.41144 17.6522Z" fill="white"/>
</mask>
<g mask="url(#mask0_12901_33826)">
<path d="M9.4114 17.6522C13.7488 10.4258 21.5593 6.00439 29.9875 6.00439H73.3375C76.4468 6.00439 78.3672 9.39643 76.7674 12.0625L33.6352 83.9423C32.0354 86.6084 33.9559 90.0004 37.0651 90.0004H43H9.06473C5.95556 90.0004 4.03511 86.6085 5.63475 83.9424L15.0609 68.2321C18.101 63.1652 18.101 56.8352 15.0609 51.7683L9.40944 42.3492C4.8489 34.7483 4.84965 25.2524 9.4114 17.6522Z" fill="url(#paint0_linear_12901_33826)"/>
<path d="M68.2647 90H88.9352C92.0444 90 93.9649 86.6081 92.3652 83.942L82.9392 68.2319C79.899 63.165 79.899 56.835 82.9392 51.7681L92.3652 36.058C93.9649 33.3919 92.0444 30 88.9352 30H66L55.4087 47.6521C50.8485 55.2525 50.8485 64.7475 55.4087 72.3479L64.8348 88.058C65.5577 89.2628 66.8597 90 68.2647 90Z" fill="url(#paint1_linear_12901_33826)"/>
<g filter="url(#filter0_f_12901_33826)">
<path d="M57.7352 30.3999H37.0648C33.9556 30.3999 32.0351 33.7918 33.6348 36.4579L43.0608 52.168C46.101 57.2349 46.101 63.5649 43.0608 68.6318L33.6348 84.3419C32.0351 87.008 33.9556 90.3999 37.0648 90.3999H57.7352C59.1403 90.3999 60.4423 89.6627 61.1652 88.4579L70.5913 72.7478C75.1515 65.1474 75.1515 55.6524 70.5913 48.052L61.1652 32.3419C60.4423 31.1371 59.1403 30.3999 57.7352 30.3999Z" fill="black" fill-opacity="0.24"/>
</g>
<g filter="url(#filter1_f_12901_33826)">
<path d="M57.7352 32H37.0648C33.9556 32 32.0351 35.3919 33.6348 38.058L43.0608 53.7681C46.101 58.835 46.101 65.165 43.0608 70.2319L33.6348 85.942C32.0351 88.6081 33.9556 92 37.0648 92H57.7352C59.1403 92 60.4423 91.2628 61.1652 90.058L70.5913 74.3479C75.1515 66.7475 75.1515 57.2525 70.5913 49.6521L61.1652 33.942C60.4423 32.7372 59.1403 32 57.7352 32Z" fill="black" fill-opacity="0.32"/>
</g>
<path d="M57.7352 30H37.0648C33.9556 30 32.0351 33.3919 33.6348 36.058L43.0608 51.7681C46.101 56.835 46.101 63.165 43.0608 68.2319L33.6348 83.942C32.0351 86.6081 33.9556 90 37.0648 90H57.7352C59.1403 90 60.4423 89.2628 61.1652 88.058L70.5913 72.3479C75.1515 64.7475 75.1515 55.2525 70.5913 47.6521L61.1652 31.942C60.4423 30.7372 59.1403 30 57.7352 30Z" fill="url(#paint2_linear_12901_33826)"/>
<path d="M63 35L55.4087 47.6521C50.8485 55.2525 50.8485 64.7475 55.4087 72.3479L63 85L70.5913 72.3479C75.1515 64.7475 75.1515 55.2525 70.5913 47.6521L63 35Z" fill="url(#paint3_linear_12901_33826)"/>
</g>
<defs>
<filter id="filter0_f_12901_33826" x="32.2586" y="29.5999" width="42.5526" height="61.6" filterUnits="userSpaceOnUse" color-interpolation-filters="sRGB">
<feFlood flood-opacity="0" result="BackgroundImageFix"/>
<feBlend mode="normal" in="SourceGraphic" in2="BackgroundImageFix" result="shape"/>
<feGaussianBlur stdDeviation="0.4" result="effect1_foregroundBlur_12901_33826"/>
</filter>
<filter id="filter1_f_12901_33826" x="25.0586" y="24" width="56.9526" height="76" filterUnits="userSpaceOnUse" color-interpolation-filters="sRGB">
<feFlood flood-opacity="0" result="BackgroundImageFix"/>
<feBlend mode="normal" in="SourceGraphic" in2="BackgroundImageFix" result="shape"/>
<feGaussianBlur stdDeviation="4" result="effect1_foregroundBlur_12901_33826"/>
</filter>
<linearGradient id="paint0_linear_12901_33826" x1="45.0937" y1="2" x2="45.0937" y2="90" gradientUnits="userSpaceOnUse">
<stop stop-color="#962563"/>
<stop offset="1" stop-color="#6F1E4F"/>
</linearGradient>
<linearGradient id="paint1_linear_12901_33826" x1="72.8525" y1="90" x2="72.8525" y2="26" gradientUnits="userSpaceOnUse">
<stop stop-color="#B82B68"/>
<stop offset="1" stop-color="#DA4B7A"/>
</linearGradient>
<linearGradient id="paint2_linear_12901_33826" x1="53.7049" y1="26" x2="55.9748" y2="106.471" gradientUnits="userSpaceOnUse">
<stop stop-color="#FCBEBE"/>
<stop offset="1" stop-color="#EB748E"/>
</linearGradient>
<linearGradient id="paint3_linear_12901_33826" x1="58.7236" y1="86.8805" x2="57.9665" y2="37.2582" gradientUnits="userSpaceOnUse">
<stop stop-color="#EB748E"/>
<stop offset="1" stop-color="#EB748E" stop-opacity="0"/>
</linearGradient>
</defs>
</svg>
