<svg viewBox="0 0 96 96" fill="none" xmlns="http://www.w3.org/2000/svg"><g clip-path="url(#clip0)"><g clip-path="url(#clip1)"><mask id="a" maskUnits="userSpaceOnUse" x="-1" y="10" width="97" height="76"><path d="M61.212 10a4 4 0 012.98 1.333l30.422 34a4 4 0 010 5.334l-30.422 34A4 4 0 0161.212 86H3.946C.49 86-1.34 81.91.966 79.333L29 48 .965 16.667C-1.34 14.09.49 10 3.946 10h57.266z" fill="#fff"/></mask><g mask="url(#a)"><path d="M63 10L29 48-5 10h68z" fill="url(#paint0_linear)"/><g filter="url(#filter0_f)"><path d="M63 10.4l-68 76h68l34-38-34-38z" fill="#000" fill-opacity=".24"/></g><g filter="url(#filter1_f)"><path d="M63 12L-5 88h68l34-38-34-38z" fill="#000" fill-opacity=".32"/></g><path d="M-5 86l68-76 34 38-34 38H-5z" fill="url(#paint1_linear)"/><path d="M-5 86l68-76 17 19-51 57H-5z" fill="url(#paint2_linear)"/></g></g></g><defs><linearGradient id="paint0_linear" x1="43" y1="55" x2="29" y2="10" gradientUnits="userSpaceOnUse"><stop stop-color="#0D36A5"/><stop offset="1" stop-color="#1152D4"/></linearGradient><linearGradient id="paint1_linear" x1="46" y1="10" x2="46" y2="86" gradientUnits="userSpaceOnUse"><stop stop-color="#84CAFF"/><stop offset="1" stop-color="#61B1FB"/></linearGradient><linearGradient id="paint2_linear" x1="37.5" y1="10" x2="37.5" y2="86" gradientUnits="userSpaceOnUse"><stop stop-color="#3B90F5"/><stop offset="1" stop-color="#2A78EE"/></linearGradient><clipPath id="clip0"><path fill="#fff" d="M0 0h96v96H0z"/></clipPath><clipPath id="clip1"><path fill="#fff" d="M0 0h96v96H0z"/></clipPath><filter id="filter0_f" x="-5.8" y="9.6" width="103.6" height="77.6" filterUnits="userSpaceOnUse" color-interpolation-filters="sRGB"><feFlood flood-opacity="0" result="BackgroundImageFix"/><feBlend in="SourceGraphic" in2="BackgroundImageFix" result="shape"/><feGaussianBlur stdDeviation=".4" result="effect1_foregroundBlur"/></filter><filter id="filter1_f" x="-13" y="4" width="118" height="92" filterUnits="userSpaceOnUse" color-interpolation-filters="sRGB"><feFlood flood-opacity="0" result="BackgroundImageFix"/><feBlend in="SourceGraphic" in2="BackgroundImageFix" result="shape"/><feGaussianBlur stdDeviation="4" result="effect1_foregroundBlur"/></filter></defs></svg>