<svg viewBox="0 0 96 96" fill="none" xmlns="http://www.w3.org/2000/svg"><g clip-path="url(#clip0)"><mask id="a" maskUnits="userSpaceOnUse" x="12" y="0" width="72" height="96"><path d="M52 4a4 4 0 014-4h24a4 4 0 014 4v88a4 4 0 01-4 4H16a4 4 0 01-4-4V52a4 4 0 014-4h16V28a4 4 0 014-4h16V4z" fill="#fff"/></mask><g mask="url(#a)"><path d="M84 0v96H52V0h32z" fill="url(#paint0_linear)"/><g filter="url(#filter0_f)"><path d="M64 28.4v68H32v-72h28a4 4 0 014 4z" fill="#000" fill-opacity=".2"/></g><g filter="url(#filter1_f)"><path d="M64 30v68H32V26h28a4 4 0 014 4z" fill="#000" fill-opacity=".18"/></g><path d="M64 28v68H32V24h28a4 4 0 014 4z" fill="url(#paint1_linear)"/><path d="M12 48v48h32V52a4 4 0 00-4-4H12z" fill="url(#paint2_linear)"/></g></g><defs><linearGradient id="paint0_linear" x1="46.666" y1="0" x2="88.865" y2="89.447" gradientUnits="userSpaceOnUse"><stop stop-color="#E6AD10"/><stop offset="1" stop-color="#C87E0E"/></linearGradient><linearGradient id="paint1_linear" x1="31.997" y1="24" x2="67.486" y2="92.826" gradientUnits="userSpaceOnUse"><stop stop-color="#F6D751"/><stop offset="1" stop-color="#E6AD10"/></linearGradient><linearGradient id="paint2_linear" x1="11.997" y1="48" x2="31.608" y2="94.478" gradientUnits="userSpaceOnUse"><stop stop-color="#F9E589"/><stop offset="1" stop-color="#F6D751"/></linearGradient><filter id="filter0_f" x="31.2" y="23.6" width="33.6" height="73.6" filterUnits="userSpaceOnUse" color-interpolation-filters="sRGB"><feFlood flood-opacity="0" result="BackgroundImageFix"/><feBlend in="SourceGraphic" in2="BackgroundImageFix" result="shape"/><feGaussianBlur stdDeviation=".4" result="effect1_foregroundBlur"/></filter><filter id="filter1_f" x="24" y="18" width="48" height="88" filterUnits="userSpaceOnUse" color-interpolation-filters="sRGB"><feFlood flood-opacity="0" result="BackgroundImageFix"/><feBlend in="SourceGraphic" in2="BackgroundImageFix" result="shape"/><feGaussianBlur stdDeviation="4" result="effect1_foregroundBlur"/></filter><clipPath id="clip0"><path fill="#fff" d="M0 0h96v96H0z"/></clipPath></defs></svg>