<svg viewBox="0 0 16 16" xmlns="http://www.w3.org/2000/svg" focusable="false"><path fill-rule="evenodd" clip-rule="evenodd" d="M5.83838 0C5.42247 0 5.04239 0.235433 4.85715 0.607817L3.95394 2.42343C3.59151 3.152 4.12145 4.00751 4.93518 4.00751H10.941C11.7064 4.00751 12.3342 4.42244 12.6722 5.00665C12.6073 5.01335 12.5416 5.01678 12.4754 5.01678L3.62394 5.01678C2.97783 5.01678 2.38813 5.38476 2.10416 5.96512L0.158142 9.94231L0.165537 9.94597C-0.0456554 10.3848 -0.0688179 10.9174 0.178068 11.4112L2.0818 15.2186C2.48569 16.0264 3.63841 16.0264 4.04229 15.2186L6.65387 9.99547L10.4694 9.99547C11.6135 9.99547 12.658 9.34453 13.162 8.31738L14.7832 5.01346L15.1209 4.33341C16.1111 2.33963 14.6607 0 12.4346 0H5.83838ZM12.3679 7.66598L12.3685 7.66687L13.9052 4.51697L13.704 4.91893C13.3903 5.54585 12.7736 5.95891 12.083 6.01665L3.62394 6.01666C3.35966 6.01666 3.11844 6.16718 3.00229 6.40457L1.73452 8.9956L10.4694 8.99559C11.2321 8.99559 11.9284 8.56166 12.2644 7.87692L12.3679 7.66598ZM1.66847 9.99951C1.17305 9.99951 0.850827 10.5209 1.07239 10.964L2.97612 14.7715C3.01152 14.8423 3.11257 14.8423 3.14797 14.7715L5.53395 9.99951H1.66847Z"/></svg>