<svg xmlns="http://www.w3.org/2000/svg" viewBox="0 0 32 32"><path opacity=".64" fill="#605E5C" d="M28.5 27h-19c-.827 0-1.5-.6-1.5-1.34V6.34C8 5.6 8.673 5 9.5 5h19c.827 0 1.5.6 1.5 1.34v19.32c0 .74-.673 1.34-1.5 1.34zM9.5 6c-.295 0-.5.179-.5.34v19.32c0 .161.205.34.5.34h19c.295 0 .5-.179.5-.34V6.34c0-.161-.205-.34-.5-.34h-19z"/><path fill="#FFF" d="M9.5 26h19c.295 0 .5-.179.5-.34V6.34c0-.161-.205-.34-.5-.34h-19c-.295 0-.5.179-.5.34v19.32c0 .161.205.34.5.34z"/><g fill="#C8C6C4"><circle cx="11" cy="8" r="1"/><circle cx="14" cy="8" r="1"/><circle cx="17" cy="8" r="1"/></g><path fill="#C8C6C4" d="M26.594 23H14.406c-.224 0-.406.224-.406.5s.182.5.406.5h12.188c.224 0 .406-.224.406-.5s-.182-.5-.406-.5zm0-2H14.406c-.224 0-.406.224-.406.5s.182.5.406.5h12.188c.224 0 .406-.224.406-.5s-.182-.5-.406-.5z"/><g fill="none" stroke="#C8C6C4" stroke-miterlimit="10"><path d="M17.392 16.51l2.047-2.085m2.161.099l2.117 2.219"/><circle cx="20.495" cy="13.505" r="1.401"/><circle cx="16.401" cy="17.5" r="1.401"/><circle cx="24.498" cy="17.5" r="1.401"/></g><path fill="#F2C80F" d="M3.5 25h11a1.5 1.5 0 001.5-1.5v-11a1.5 1.5 0 00-1.5-1.5h-11A1.5 1.5 0 002 12.5v11A1.5 1.5 0 003.5 25z"/><path fill="#333" d="M5.5 19a.5.5 0 00-.5.5v2a.5.5 0 001 0v-2a.5.5 0 00-.5-.5zm2-3a.5.5 0 00-.5.5v5a.5.5 0 001 0v-5a.5.5 0 00-.5-.5zm2 1a.5.5 0 00-.5.5v4a.5.5 0 001 0v-4a.5.5 0 00-.5-.5zm2-3a.5.5 0 00-.5.5v7a.5.5 0 001 0v-7a.5.5 0 00-.5-.5z"/></svg>