<svg data-slug-id="arrows08" xmlns="http://www.w3.org/2000/svg" viewBox="0 0 48 48"><path d="M42.8575 30.9488H17.7088C17.6259 30.9488 17.5463 30.9159 17.4876 30.8572C17.429 30.7985 17.396 30.719 17.396 30.636V5.55531C17.396 5.47234 17.429 5.39277 17.4876 5.33411C17.5463 5.27544 17.6259 5.24248 17.7088 5.24248H42.8575C42.8997 5.24065 42.9419 5.24738 42.9814 5.26227C43.021 5.27717 43.0571 5.29992 43.0876 5.32916C43.1181 5.35839 43.1423 5.3935 43.1589 5.43237C43.1755 5.47124 43.184 5.51306 43.184 5.55531V30.636C43.184 30.6783 43.1755 30.7201 43.1589 30.7589C43.1423 30.7978 43.1181 30.8329 43.0876 30.8622C43.0571 30.8914 43.021 30.9141 42.9814 30.929C42.9419 30.9439 42.8997 30.9507 42.8575 30.9488V30.9488ZM18.0217 30.3232H42.5039V5.84094H18.0217V30.3232Z" fill="#50E6FF"/><path d="M30.2901 43.5305H5.19581C5.11155 43.5306 5.03051 43.4981 4.96967 43.4398C4.90883 43.3815 4.8729 43.3019 4.86938 43.2177V18.0554C4.8852 17.981 4.92646 17.9145 4.98605 17.8674C5.04564 17.8202 5.11983 17.7953 5.19581 17.797H30.2901C30.3731 17.797 30.4526 17.8299 30.5113 17.8886C30.57 17.9472 30.6029 18.0268 30.6029 18.1098V43.2721C30.59 43.3453 30.5514 43.4115 30.4941 43.4589C30.4368 43.5062 30.3645 43.5316 30.2901 43.5305ZM5.45424 42.9048H29.9365V18.4226H5.45424V42.9048Z" fill="#50E6FF"/><path d="M5.1956 18.3822C5.11001 18.3774 5.02854 18.3439 4.96438 18.287C4.90699 18.2264 4.875 18.1461 4.875 18.0626C4.875 17.9791 4.90699 17.8988 4.96438 17.8382L17.4367 5.25702C17.4962 5.1975 17.577 5.16406 17.6611 5.16406C17.7453 5.16406 17.826 5.1975 17.8856 5.25702C17.9451 5.31654 17.9785 5.39727 17.9785 5.48144C17.9785 5.56561 17.9451 5.64634 17.8856 5.70586L5.30441 18.287C5.27456 18.3254 5.23762 18.3577 5.1956 18.3822V18.3822Z" fill="#50E6FF"/><path d="M30.2903 18.3822C30.2047 18.3774 30.1233 18.3439 30.0591 18.287C30.0017 18.2264 29.9697 18.1461 29.9697 18.0626C29.9697 17.9791 30.0017 17.8988 30.0591 17.8382L42.6403 5.25702C42.6998 5.1975 42.7805 5.16406 42.8647 5.16406C42.9489 5.16406 43.0296 5.1975 43.0891 5.25702C43.1486 5.31654 43.1821 5.39727 43.1821 5.48144C43.1821 5.56561 43.1486 5.64634 43.0891 5.70586L30.5079 18.287C30.4499 18.345 30.3723 18.3789 30.2903 18.3822V18.3822Z" fill="#50E6FF"/><path d="M5.1956 43.533C5.11001 43.5282 5.02854 43.4947 4.96438 43.4378C4.90699 43.3772 4.875 43.2969 4.875 43.2134C4.875 43.1299 4.90699 43.0496 4.96438 42.989L17.4367 30.4214C17.4973 30.364 17.5777 30.332 17.6611 30.332C17.7446 30.332 17.8249 30.364 17.8856 30.4214C17.9152 30.4494 17.9388 30.4831 17.955 30.5205C17.9711 30.558 17.9794 30.5983 17.9794 30.639C17.9794 30.6798 17.9711 30.7201 17.955 30.7575C17.9388 30.795 17.9152 30.8287 17.8856 30.8567L5.30441 43.4378C5.27456 43.4762 5.23762 43.5085 5.1956 43.533V43.533Z" fill="#50E6FF"/><path d="M30.2903 43.533C30.2047 43.5282 30.1233 43.4947 30.0591 43.4378C30.0017 43.3772 29.9697 43.2969 29.9697 43.2134C29.9697 43.1299 30.0017 43.0496 30.0591 42.989L42.6403 30.4214C42.7009 30.364 42.7812 30.332 42.8647 30.332C42.9482 30.332 43.0285 30.364 43.0891 30.4214C43.1187 30.4494 43.1424 30.4831 43.1585 30.5205C43.1746 30.558 43.183 30.5983 43.183 30.639C43.183 30.6798 43.1746 30.7201 43.1585 30.7575C43.1424 30.795 43.1187 30.8287 43.0891 30.8567L30.5079 43.4378C30.4499 43.4957 30.3723 43.5297 30.2903 43.533V43.533Z" fill="#50E6FF"/><path d="M5.14107 8.31827C6.70352 8.31827 7.97013 7.05166 7.97013 5.48921C7.97013 3.92677 6.70352 2.66016 5.14107 2.66016C3.57862 2.66016 2.31201 3.92677 2.31201 5.48921C2.31201 7.05166 3.57862 8.31827 5.14107 8.31827Z" fill="white"/><path d="M5.19557 8.63097C4.56909 8.64168 3.95372 8.46483 3.42851 8.12314C2.90331 7.78145 2.49227 7.29053 2.24819 6.71345C2.00411 6.13638 1.93815 5.4995 2.05878 4.88466C2.17941 4.26981 2.48112 3.70507 2.92515 3.263C3.36918 2.82092 3.93524 2.52171 4.55062 2.4038C5.16599 2.28588 5.80257 2.35465 6.37856 2.60128C6.95455 2.8479 7.44365 3.26111 7.78302 3.78781C8.12239 4.31452 8.29652 4.93067 8.28305 5.55709C8.26225 6.36812 7.92987 7.13998 7.35493 7.71238C6.78 8.28479 6.00668 8.61376 5.19557 8.63097V8.63097ZM5.19557 2.97286C4.69816 2.9596 4.20799 3.09411 3.78701 3.35939C3.36604 3.62467 3.03317 4.0088 2.83049 4.46324C2.6278 4.91767 2.5644 5.422 2.6483 5.91246C2.7322 6.40292 2.95963 6.85749 3.30184 7.21872C3.64405 7.57994 4.08568 7.83159 4.57089 7.94186C5.05611 8.05213 5.56312 8.01606 6.02784 7.83822C6.49256 7.66037 6.89411 7.34874 7.18174 6.94271C7.46938 6.53668 7.63017 6.05449 7.64379 5.55709C7.65284 5.22663 7.59669 4.89762 7.47853 4.58886C7.36037 4.28011 7.18253 3.99766 6.95517 3.75767C6.72781 3.51768 6.45538 3.32484 6.15346 3.19018C5.85154 3.05551 5.52604 2.98167 5.19557 2.97286Z" fill="#50E6FF"/><path d="M5.14107 20.8847C6.70352 20.8847 7.97013 19.6181 7.97013 18.0556C7.97013 16.4932 6.70352 15.2266 5.14107 15.2266C3.57862 15.2266 2.31201 16.4932 2.31201 18.0556C2.31201 19.6181 3.57862 20.8847 5.14107 20.8847Z" fill="white"/><path d="M5.1957 21.2133C4.57103 21.216 3.95962 21.0332 3.43892 20.6881C2.91821 20.343 2.51165 19.8512 2.27073 19.2748C2.02981 18.6985 1.96538 18.0636 2.0856 17.4506C2.20581 16.8376 2.50526 16.2741 2.94602 15.8314C3.38678 15.3887 3.949 15.0868 4.56148 14.964C5.17395 14.8411 5.80911 14.9028 6.38649 15.1412C6.96388 15.3797 7.4575 15.7841 7.80483 16.3033C8.15217 16.8225 8.33758 17.4331 8.33759 18.0578C8.3376 18.8923 8.00701 19.6929 7.41818 20.2843C6.82935 20.8757 6.03023 21.2097 5.1957 21.2133V21.2133ZM5.1957 15.5416C4.69747 15.5389 4.20965 15.6842 3.79407 15.959C3.3785 16.2339 3.05387 16.6259 2.86133 17.0854C2.6688 17.545 2.61703 18.0513 2.71257 18.5403C2.80812 19.0293 3.04669 19.4789 3.39804 19.8322C3.7494 20.1854 4.19772 20.4264 4.68619 20.5246C5.17465 20.6228 5.68128 20.5738 6.14185 20.3838C6.60243 20.1937 6.99621 19.8712 7.27331 19.4571C7.5504 19.0431 7.69832 18.556 7.69833 18.0578C7.69834 17.3928 7.43511 16.7548 6.96616 16.2834C6.49721 15.8119 5.86069 15.5452 5.1957 15.5416V15.5416Z" fill="#50E6FF"/><path d="M17.7089 20.8847C19.2714 20.8847 20.538 19.6181 20.538 18.0556C20.538 16.4932 19.2714 15.2266 17.7089 15.2266C16.1465 15.2266 14.8799 16.4932 14.8799 18.0556C14.8799 19.6181 16.1465 20.8847 17.7089 20.8847Z" fill="white"/><path d="M17.7091 21.2133C17.0845 21.216 16.473 21.0332 15.9523 20.6881C15.4316 20.343 15.0251 19.8512 14.7842 19.2748C14.5432 18.6985 14.4788 18.0636 14.599 17.4506C14.7192 16.8376 15.0187 16.2741 15.4594 15.8314C15.9002 15.3887 16.4624 15.0868 17.0749 14.964C17.6874 14.8411 18.3225 14.9028 18.8999 15.1412C19.4773 15.3797 19.9709 15.7841 20.3183 16.3033C20.6656 16.8225 20.851 17.4331 20.851 18.0578C20.851 18.8923 20.5204 19.6929 19.9316 20.2843C19.3428 20.8757 18.5437 21.2097 17.7091 21.2133V21.2133ZM17.7091 15.5416C17.2115 15.5416 16.725 15.6891 16.3112 15.9656C15.8974 16.2421 15.5749 16.6351 15.3844 17.0949C15.194 17.5547 15.1442 18.0606 15.2412 18.5487C15.3383 19.0368 15.578 19.4851 15.9299 19.837C16.2818 20.1889 16.7301 20.4286 17.2182 20.5257C17.7063 20.6228 18.2123 20.5729 18.672 20.3825C19.1318 20.1921 19.5248 19.8695 19.8013 19.4557C20.0778 19.042 20.2254 18.5555 20.2254 18.0578C20.2254 17.3905 19.9603 16.7504 19.4884 16.2786C19.0165 15.8067 18.3765 15.5416 17.7091 15.5416V15.5416Z" fill="#50E6FF"/><path d="M5.14107 33.4667C6.70352 33.4667 7.97013 32.2001 7.97013 30.6377C7.97013 29.0752 6.70352 27.8086 5.14107 27.8086C3.57862 27.8086 2.31201 29.0752 2.31201 30.6377C2.31201 32.2001 3.57862 33.4667 5.14107 33.4667Z" fill="white"/><path d="M5.1956 33.776C4.57419 33.776 3.96674 33.5917 3.45006 33.2465C2.93338 32.9012 2.53068 32.4105 2.29287 31.8364C2.05507 31.2623 1.99285 30.6306 2.11408 30.0211C2.23531 29.4117 2.53455 28.8518 2.97395 28.4124C3.41335 27.973 3.97318 27.6738 4.58265 27.5526C5.19211 27.4313 5.82384 27.4935 6.39795 27.7314C6.97205 27.9692 7.46275 28.3719 7.80798 28.8885C8.15322 29.4052 8.33749 30.0127 8.33749 30.6341C8.33391 31.4663 8.00174 32.2633 7.4133 32.8518C6.82485 33.4402 6.02778 33.7724 5.1956 33.776V33.776ZM5.1956 28.1178C4.69737 28.1152 4.20955 28.2604 3.79397 28.5353C3.37839 28.8101 3.05377 29.2022 2.86123 29.6617C2.6687 30.1212 2.61692 30.6276 2.71247 31.1166C2.80802 31.6056 3.04659 32.0552 3.39794 32.4085C3.74929 32.7617 4.19761 33.0027 4.68608 33.1009C5.17455 33.1991 5.68118 33.1501 6.14175 32.96C6.60232 32.77 6.99611 32.4475 7.2732 32.0334C7.5503 31.6193 7.69822 31.1323 7.69823 30.6341C7.69824 29.9691 7.435 29.3311 6.96606 28.8596C6.49711 28.3881 5.86059 28.1214 5.1956 28.1178V28.1178Z" fill="#50E6FF"/><path d="M30.2902 33.4667C31.8527 33.4667 33.1193 32.2001 33.1193 30.6377C33.1193 29.0752 31.8527 27.8086 30.2902 27.8086C28.7278 27.8086 27.4612 29.0752 27.4612 30.6377C27.4612 32.2001 28.7278 33.4667 30.2902 33.4667Z" fill="white"/><path d="M30.2903 33.776C29.6689 33.776 29.0615 33.5917 28.5448 33.2465C28.0281 32.9012 27.6254 32.4105 27.3876 31.8364C27.1498 31.2623 27.0876 30.6306 27.2088 30.0211C27.33 29.4117 27.6293 28.8518 28.0687 28.4124C28.5081 27.973 29.0679 27.6738 29.6774 27.5526C30.2868 27.4313 30.9186 27.4935 31.4927 27.7314C32.0668 27.9692 32.5575 28.3719 32.9027 28.8885C33.2479 29.4052 33.4322 30.0127 33.4322 30.6341C33.4322 31.4674 33.1012 32.2665 32.512 32.8557C31.9228 33.4449 31.1236 33.776 30.2903 33.776V33.776ZM30.2903 28.1178C29.7927 28.1178 29.3062 28.2654 28.8924 28.5419C28.4786 28.8184 28.1561 29.2114 27.9656 29.6712C27.7752 30.1309 27.7254 30.6369 27.8224 31.125C27.9195 31.6131 28.1592 32.0614 28.5111 32.4133C28.863 32.7652 29.3113 33.0049 29.7994 33.102C30.2875 33.199 30.7935 33.1492 31.2532 32.9588C31.713 32.7683 32.106 32.4458 32.3825 32.032C32.659 31.6182 32.8066 31.1317 32.8066 30.6341C32.8066 29.9667 32.5415 29.3267 32.0696 28.8548C31.5977 28.383 30.9577 28.1178 30.2903 28.1178V28.1178Z" fill="#50E6FF"/><path d="M17.7089 46.0487C19.2714 46.0487 20.538 44.7821 20.538 43.2197C20.538 41.6572 19.2714 40.3906 17.7089 40.3906C16.1465 40.3906 14.8799 41.6572 14.8799 43.2197C14.8799 44.7821 16.1465 46.0487 17.7089 46.0487Z" fill="white"/><path d="M17.7091 46.3578C17.0839 46.3605 16.4719 46.1774 15.9509 45.8317C15.4299 45.486 15.0234 44.9933 14.7828 44.4162C14.5423 43.839 14.4787 43.2035 14.6 42.5901C14.7213 41.9767 15.0221 41.4132 15.4643 40.9711C15.9064 40.529 16.4699 40.2282 17.0833 40.1068C17.6966 39.9855 18.3322 40.0492 18.9093 40.2897C19.4865 40.5302 19.9792 40.9367 20.3249 41.4577C20.6706 41.9787 20.8537 42.5907 20.851 43.2159C20.8474 44.0481 20.5152 44.8452 19.9268 45.4336C19.3384 46.0221 18.5413 46.3542 17.7091 46.3578V46.3578ZM17.7091 40.6997C17.2114 40.6997 16.725 40.8473 16.3112 41.1238C15.8974 41.4003 15.5749 41.7932 15.3844 42.253C15.194 42.7128 15.1441 43.2187 15.2412 43.7068C15.3383 44.1949 15.578 44.6433 15.9299 44.9952C16.2818 45.3471 16.7301 45.5867 17.2182 45.6838C17.7063 45.7809 18.2122 45.7311 18.672 45.5406C19.1318 45.3502 19.5248 45.0277 19.8013 44.6139C20.0778 44.2001 20.2253 43.7136 20.2253 43.2159C20.2253 42.5486 19.9602 41.9086 19.4883 41.4367C19.0165 40.9648 18.3764 40.6997 17.7091 40.6997V40.6997Z" fill="#50E6FF"/><path d="M30.2902 46.0487C31.8527 46.0487 33.1193 44.7821 33.1193 43.2197C33.1193 41.6572 31.8527 40.3906 30.2902 40.3906C28.7278 40.3906 27.4612 41.6572 27.4612 43.2197C27.4612 44.7821 28.7278 46.0487 30.2902 46.0487Z" fill="white"/><path d="M30.2902 46.3578C29.6649 46.3605 29.053 46.1774 28.532 45.8317C28.011 45.486 27.6044 44.9933 27.3639 44.4162C27.1234 43.839 27.0597 43.2035 27.1811 42.5901C27.3024 41.9767 27.6032 41.4132 28.0453 40.9711C28.4874 40.529 29.0509 40.2282 29.6643 40.1068C30.2777 39.9855 30.9133 40.0492 31.4904 40.2897C32.0675 40.5302 32.5602 40.9367 32.9059 41.4577C33.2516 41.9787 33.4347 42.5907 33.432 43.2159C33.432 44.0492 33.101 44.8484 32.5118 45.4376C31.9226 46.0268 31.1234 46.3578 30.2902 46.3578V46.3578ZM30.2902 40.6997C29.7925 40.6997 29.306 40.8473 28.8922 41.1238C28.4784 41.4003 28.1559 41.7932 27.9655 42.253C27.775 42.7128 27.7252 43.2187 27.8223 43.7068C27.9194 44.1949 28.159 44.6433 28.5109 44.9952C28.8628 45.3471 29.3112 45.5867 29.7993 45.6838C30.2874 45.7809 30.7933 45.7311 31.2531 45.5406C31.7129 45.3502 32.1058 45.0277 32.3823 44.6139C32.6588 44.2001 32.8064 43.7136 32.8064 43.2159C32.8064 42.5486 32.5413 41.9086 32.0694 41.4367C31.5975 40.9648 30.9575 40.6997 30.2902 40.6997V40.6997Z" fill="#50E6FF"/><path d="M42.8574 46.0487C44.4198 46.0487 45.6864 44.7821 45.6864 43.2197C45.6864 41.6572 44.4198 40.3906 42.8574 40.3906C41.2949 40.3906 40.0283 41.6572 40.0283 43.2197C40.0283 44.7821 41.2949 46.0487 42.8574 46.0487Z" fill="white"/><path d="M42.8575 46.3578C42.2323 46.3605 41.6203 46.1774 41.0993 45.8317C40.5783 45.486 40.1718 44.9933 39.9313 44.4162C39.6908 43.839 39.6271 43.2035 39.7484 42.5901C39.8698 41.9767 40.1706 41.4132 40.6127 40.9711C41.0548 40.529 41.6183 40.2282 42.2317 40.1068C42.8451 39.9855 43.4806 40.0492 44.0578 40.2897C44.6349 40.5302 45.1276 40.9367 45.4733 41.4577C45.819 41.9787 46.0021 42.5907 45.9994 43.2159C45.9958 44.0481 45.6637 44.8452 45.0752 45.4336C44.4868 46.0221 43.6897 46.3542 42.8575 46.3578V46.3578ZM42.8575 40.6997C42.3599 40.6997 41.8734 40.8473 41.4596 41.1238C41.0458 41.4003 40.7233 41.7932 40.5328 42.253C40.3424 42.7128 40.2926 43.2187 40.3897 43.7068C40.4867 44.1949 40.7264 44.6433 41.0783 44.9952C41.4302 45.3471 41.8785 45.5867 42.3666 45.6838C42.8547 45.7809 43.3607 45.7311 43.8205 45.5406C44.2802 45.3502 44.6732 45.0277 44.9497 44.6139C45.2262 44.2001 45.3738 43.7136 45.3738 43.2159C45.3738 42.5486 45.1087 41.9086 44.6368 41.4367C44.1649 40.9648 43.5249 40.6997 42.8575 40.6997V40.6997Z" fill="#50E6FF"/><path d="M44.6938 30.5841H41.2119V7.39396H17.5186V3.89844H44.6938V30.5841Z" fill="#50E6FF"/><path d="M41.4734 4.15986L3.8208 41.8125L6.29251 44.2842L43.9451 6.63157L41.4734 4.15986Z" fill="#50E6FF"/><path d="M17.7089 8.31827C19.2714 8.31827 20.538 7.05166 20.538 5.48921C20.538 3.92677 19.2714 2.66016 17.7089 2.66016C16.1465 2.66016 14.8799 3.92677 14.8799 5.48921C14.8799 7.05166 16.1465 8.31827 17.7089 8.31827Z" fill="#0078D4"/><path d="M17.709 8.63143C17.0848 8.63129 16.4747 8.44517 15.9566 8.09684C15.4386 7.7485 15.036 7.25373 14.8004 6.67566C14.5647 6.09758 14.5066 5.4624 14.6334 4.85115C14.7603 4.2399 15.0663 3.68029 15.5125 3.24372C15.9588 2.80715 16.5249 2.51341 17.1388 2.39997C17.7527 2.28653 18.3865 2.35853 18.9592 2.60679C19.532 2.85506 20.0179 3.26833 20.3548 3.79387C20.6917 4.31942 20.8644 4.93343 20.8509 5.55755C20.8297 6.37787 20.4898 7.15765 19.9032 7.73151C19.3166 8.30537 18.5296 8.62817 17.709 8.63143V8.63143ZM17.709 2.97332C17.2143 2.9735 16.7306 3.11951 16.3184 3.39311C15.9062 3.66671 15.5838 4.05574 15.3915 4.51157C15.1993 4.96741 15.1456 5.46981 15.2373 5.95596C15.329 6.44212 15.562 6.89045 15.9071 7.24491C16.2523 7.59937 16.6942 7.84422 17.1778 7.94885C17.6613 8.05349 18.165 8.01326 18.6258 7.8332C19.0866 7.65313 19.484 7.34123 19.7685 6.93648C20.053 6.53173 20.2119 6.0521 20.2253 5.55755C20.2343 5.22144 20.176 4.88691 20.0536 4.57373C19.9312 4.26056 19.7473 3.97508 19.5127 3.73418C19.2782 3.49328 18.9977 3.30183 18.6879 3.17114C18.3781 3.04046 18.0453 2.97319 17.709 2.97332V2.97332Z" fill="#0078D4"/><path d="M30.2902 8.31827C31.8527 8.31827 33.1193 7.05166 33.1193 5.48921C33.1193 3.92677 31.8527 2.66016 30.2902 2.66016C28.7278 2.66016 27.4612 3.92677 27.4612 5.48921C27.4612 7.05166 28.7278 8.31827 30.2902 8.31827Z" fill="#0078D4"/><path d="M30.2901 8.63143C29.6658 8.63129 29.0557 8.44517 28.5377 8.09684C28.0196 7.7485 27.6171 7.25373 27.3814 6.67566C27.1457 6.09758 27.0876 5.4624 27.2145 4.85115C27.3413 4.2399 27.6474 3.68029 28.0936 3.24372C28.5398 2.80715 29.106 2.51341 29.7199 2.39997C30.3338 2.28653 30.9675 2.35853 31.5403 2.60679C32.1131 2.85506 32.5989 3.26833 32.9358 3.79387C33.2728 4.31942 33.4455 4.93343 33.432 5.55755C33.4142 6.37899 33.0753 7.16078 32.488 7.73537C31.9007 8.30996 31.1117 8.63163 30.2901 8.63143ZM30.2901 2.97332C29.7954 2.9735 29.3117 3.11951 28.8995 3.39311C28.4873 3.66671 28.1649 4.05574 27.9726 4.51157C27.7803 4.96741 27.7267 5.46981 27.8184 5.95596C27.9101 6.44212 28.1431 6.89045 28.4882 7.24491C28.8333 7.59937 29.2753 7.84422 29.7588 7.94885C30.2424 8.05349 30.746 8.01326 31.2068 7.8332C31.6676 7.65313 32.0651 7.34123 32.3496 6.93648C32.6341 6.53173 32.7929 6.0521 32.8063 5.55755C32.8154 5.22144 32.757 4.88691 32.6346 4.57373C32.5123 4.26056 32.3284 3.97508 32.0938 3.73418C31.8592 3.49328 31.5788 3.30183 31.269 3.17114C30.9592 3.04046 30.6263 2.97319 30.2901 2.97332V2.97332Z" fill="#0078D4"/><path d="M42.8574 8.31827C44.4198 8.31827 45.6864 7.05166 45.6864 5.48921C45.6864 3.92677 44.4198 2.66016 42.8574 2.66016C41.2949 2.66016 40.0283 3.92677 40.0283 5.48921C40.0283 7.05166 41.2949 8.31827 42.8574 8.31827Z" fill="#0078D4"/><path d="M42.8575 8.63143C42.2332 8.63129 41.6231 8.44517 41.1051 8.09684C40.587 7.7485 40.1845 7.25373 39.9488 6.67566C39.7131 6.09758 39.655 5.4624 39.7819 4.85115C39.9087 4.2399 40.2148 3.68029 40.661 3.24372C41.1072 2.80715 41.6734 2.51341 42.2873 2.39997C42.9011 2.28653 43.5349 2.35853 44.1077 2.60679C44.6805 2.85506 45.1663 3.26833 45.5032 3.79387C45.8401 4.31942 46.0129 4.93343 45.9993 5.55755C45.9781 6.37787 45.6382 7.15765 45.0516 7.73151C44.4651 8.30537 43.678 8.62817 42.8575 8.63143V8.63143ZM42.8575 2.97332C42.3627 2.9735 41.879 3.11951 41.4668 3.39311C41.0547 3.66671 40.7323 4.05574 40.54 4.51157C40.3477 4.96741 40.2941 5.46981 40.3858 5.95596C40.4775 6.44212 40.7104 6.89045 41.0556 7.24491C41.4007 7.59937 41.8427 7.84422 42.3262 7.94885C42.8097 8.05349 43.3134 8.01326 43.7742 7.8332C44.235 7.65313 44.6325 7.34123 44.917 6.93648C45.2015 6.53173 45.3603 6.0521 45.3737 5.55755C45.3828 5.22144 45.3244 4.88691 45.202 4.57373C45.0797 4.26056 44.8958 3.97508 44.6612 3.73418C44.4266 3.49328 44.1462 3.30183 43.8364 3.17114C43.5265 3.04046 43.1937 2.97319 42.8575 2.97332V2.97332Z" fill="#0078D4"/><path d="M30.2902 20.8847C31.8527 20.8847 33.1193 19.6181 33.1193 18.0556C33.1193 16.4932 31.8527 15.2266 30.2902 15.2266C28.7278 15.2266 27.4612 16.4932 27.4612 18.0556C27.4612 19.6181 28.7278 20.8847 30.2902 20.8847Z" fill="#0078D4"/><path d="M30.2902 21.2133C29.6655 21.216 29.0541 21.0332 28.5334 20.6881C28.0127 20.343 27.6061 19.8512 27.3652 19.2748C27.1243 18.6985 27.0599 18.0636 27.1801 17.4506C27.3003 16.8376 27.5997 16.2741 28.0405 15.8314C28.4813 15.3887 29.0435 15.0868 29.656 14.964C30.2684 14.8411 30.9036 14.9028 31.481 15.1412C32.0584 15.3797 32.552 15.7841 32.8993 16.3033C33.2467 16.8225 33.4321 17.4331 33.4321 18.0578C33.4339 18.4715 33.3539 18.8816 33.1968 19.2643C33.0397 19.6471 32.8086 19.9951 32.5167 20.2883C32.2247 20.5814 31.8778 20.8141 31.4957 20.9728C31.1136 21.1316 30.7039 21.2133 30.2902 21.2133V21.2133ZM30.2902 15.5416C29.7925 15.5416 29.306 15.6891 28.8922 15.9656C28.4785 16.2421 28.1559 16.6351 27.9655 17.0949C27.775 17.5547 27.7252 18.0606 27.8223 18.5487C27.9194 19.0368 28.159 19.4851 28.5109 19.837C28.8628 20.1889 29.3112 20.4286 29.7993 20.5257C30.2874 20.6228 30.7933 20.5729 31.2531 20.3825C31.7129 20.1921 32.1059 19.8695 32.3824 19.4557C32.6588 19.042 32.8064 18.5555 32.8064 18.0578C32.8064 17.3905 32.5413 16.7504 32.0694 16.2786C31.5975 15.8067 30.9575 15.5416 30.2902 15.5416V15.5416Z" fill="#0078D4"/><path d="M42.8574 20.8847C44.4198 20.8847 45.6864 19.6181 45.6864 18.0556C45.6864 16.4932 44.4198 15.2266 42.8574 15.2266C41.2949 15.2266 40.0283 16.4932 40.0283 18.0556C40.0283 19.6181 41.2949 20.8847 42.8574 20.8847Z" fill="#0078D4"/><path d="M42.8576 21.2133C42.2329 21.216 41.6215 21.0332 41.1008 20.6881C40.5801 20.343 40.1735 19.8512 39.9326 19.2748C39.6917 18.6985 39.6272 18.0636 39.7475 17.4506C39.8677 16.8376 40.1671 16.2741 40.6079 15.8314C41.0486 15.3887 41.6109 15.0868 42.2233 14.964C42.8358 14.8411 43.471 14.9028 44.0484 15.1412C44.6257 15.3797 45.1194 15.7841 45.4667 16.3033C45.814 16.8225 45.9994 17.4331 45.9995 18.0578C45.9995 18.8923 45.6689 19.6929 45.08 20.2843C44.4912 20.8757 43.6921 21.2097 42.8576 21.2133V21.2133ZM42.8576 15.5416C42.3599 15.5416 41.8734 15.6891 41.4596 15.9656C41.0458 16.2421 40.7233 16.6351 40.5329 17.0949C40.3424 17.5547 40.2926 18.0606 40.3897 18.5487C40.4868 19.0368 40.7264 19.4851 41.0783 19.837C41.4302 20.1889 41.8786 20.4286 42.3667 20.5257C42.8548 20.6228 43.3607 20.5729 43.8205 20.3825C44.2803 20.1921 44.6732 19.8695 44.9497 19.4557C45.2262 19.042 45.3738 18.5555 45.3738 18.0578C45.3738 17.3905 45.1087 16.7504 44.6368 16.2786C44.1649 15.8067 43.5249 15.5416 42.8576 15.5416V15.5416Z" fill="#0078D4"/><path d="M17.7089 33.4667C19.2714 33.4667 20.538 32.2001 20.538 30.6377C20.538 29.0752 19.2714 27.8086 17.7089 27.8086C16.1465 27.8086 14.8799 29.0752 14.8799 30.6377C14.8799 32.2001 16.1465 33.4667 17.7089 33.4667Z" fill="#0078D4"/><path d="M17.7093 33.776C17.0879 33.776 16.4804 33.5917 15.9637 33.2465C15.4471 32.9012 15.0443 32.4105 14.8065 31.8364C14.5687 31.2623 14.5065 30.6306 14.6278 30.0211C14.749 29.4117 15.0482 28.8518 15.4876 28.4124C15.927 27.973 16.4869 27.6738 17.0963 27.5526C17.7058 27.4313 18.3375 27.4935 18.9116 27.7314C19.4857 27.9692 19.9764 28.3719 20.3217 28.8885C20.6669 29.4052 20.8512 30.0127 20.8512 30.6341C20.8476 31.4663 20.5154 32.2633 19.927 32.8518C19.3385 33.4402 18.5415 33.7724 17.7093 33.776V33.776ZM17.7093 28.1178C17.2116 28.1178 16.7251 28.2654 16.3113 28.5419C15.8975 28.8184 15.575 29.2114 15.3846 29.6712C15.1941 30.1309 15.1443 30.6369 15.2414 31.125C15.3385 31.6131 15.5781 32.0614 15.93 32.4133C16.2819 32.7652 16.7303 33.0049 17.2184 33.102C17.7065 33.199 18.2124 33.1492 18.6722 32.9588C19.132 32.7683 19.525 32.4458 19.8014 32.032C20.0779 31.6182 20.2255 31.1317 20.2255 30.6341C20.2255 29.9667 19.9604 29.3267 19.4885 28.8548C19.0166 28.383 18.3766 28.1178 17.7093 28.1178V28.1178Z" fill="#0078D4"/><path d="M42.8574 33.4667C44.4198 33.4667 45.6864 32.2001 45.6864 30.6377C45.6864 29.0752 44.4198 27.8086 42.8574 27.8086C41.2949 27.8086 40.0283 29.0752 40.0283 30.6377C40.0283 32.2001 41.2949 33.4667 42.8574 33.4667Z" fill="#0078D4"/><path d="M42.8575 33.776C42.2361 33.776 41.6286 33.5917 41.1119 33.2465C40.5952 32.9012 40.1925 32.4105 39.9547 31.8364C39.7169 31.2623 39.6547 30.6306 39.7759 30.0211C39.8972 29.4117 40.1964 28.8518 40.6358 28.4124C41.0752 27.973 41.635 27.6738 42.2445 27.5526C42.854 27.4313 43.4857 27.4935 44.0598 27.7314C44.6339 27.9692 45.1246 28.3719 45.4698 28.8885C45.8151 29.4052 45.9994 30.0127 45.9994 30.6341C45.9958 31.4663 45.6636 32.2633 45.0752 32.8518C44.4867 33.4402 43.6896 33.7724 42.8575 33.776V33.776ZM42.8575 28.1178C42.3598 28.1178 41.8733 28.2654 41.4595 28.5419C41.0457 28.8184 40.7232 29.2114 40.5328 29.6712C40.3423 30.1309 40.2925 30.6369 40.3896 31.125C40.4867 31.6131 40.7263 32.0614 41.0782 32.4133C41.4301 32.7652 41.8785 33.0049 42.3666 33.102C42.8547 33.199 43.3606 33.1492 43.8204 32.9588C44.2802 32.7683 44.6731 32.4458 44.9496 32.032C45.2261 31.6182 45.3737 31.1317 45.3737 30.6341C45.3737 29.9667 45.1086 29.3267 44.6367 28.8548C44.1648 28.383 43.5248 28.1178 42.8575 28.1178V28.1178Z" fill="#0078D4"/><path d="M5.14107 46.0487C6.70352 46.0487 7.97013 44.7821 7.97013 43.2197C7.97013 41.6572 6.70352 40.3906 5.14107 40.3906C3.57862 40.3906 2.31201 41.6572 2.31201 43.2197C2.31201 44.7821 3.57862 46.0487 5.14107 46.0487Z" fill="#0078D4"/><path d="M5.1956 46.358C4.57419 46.358 3.96674 46.1737 3.45006 45.8285C2.93338 45.4833 2.53068 44.9926 2.29287 44.4185C2.05507 43.8443 1.99285 43.2126 2.11408 42.6032C2.23531 41.9937 2.53455 41.4339 2.97395 40.9945C3.41335 40.5551 3.97318 40.2558 4.58265 40.1346C5.19211 40.0134 5.82384 40.0756 6.39795 40.3134C6.97205 40.5512 7.46275 40.9539 7.80798 41.4706C8.15322 41.9872 8.33749 42.5947 8.33749 43.2161C8.33391 44.0483 8.00174 44.8454 7.4133 45.4338C6.82485 46.0222 6.02778 46.3544 5.1956 46.358V46.358ZM5.1956 40.6999C4.69794 40.6999 4.21145 40.8475 3.79766 41.1239C3.38386 41.4004 3.06135 41.7934 2.87091 42.2532C2.68046 42.713 2.63063 43.2189 2.72772 43.707C2.82481 44.1951 3.06446 44.6434 3.41636 44.9953C3.76826 45.3473 4.21661 45.5869 4.70471 45.684C5.19281 45.7811 5.69874 45.7312 6.15852 45.5408C6.6183 45.3504 7.01128 45.0278 7.28777 44.614C7.56426 44.2003 7.71183 43.7138 7.71183 43.2161C7.71183 42.5488 7.44673 41.9087 6.97484 41.4369C6.50296 40.965 5.86295 40.6999 5.1956 40.6999V40.6999Z" fill="#0078D4"/></svg>