<svg data-slug-id="users15" viewBox="0 0 49 49" xmlns="http://www.w3.org/2000/svg"><path d="M48.5085 24.4215C48.5085 11.4194 37.9738 0.876217 24.9717 0.859375V5.65095C35.3296 5.6678 43.7169 14.0636 43.7169 24.4215C43.7169 34.7794 35.3212 43.1836 24.9717 43.192V47.9836C37.9654 47.9667 48.5085 37.4236 48.5085 24.4215Z" fill="#0078D4"/><path d="M4.53369 12.6074L8.68527 15.0158C11.9358 9.41577 17.9905 5.65156 24.9379 5.65156C24.9463 5.65156 24.9547 5.65156 24.9632 5.65156V0.851562C24.9547 0.851562 24.9463 0.851562 24.9379 0.851562C16.2305 0.851562 8.6179 5.58419 4.53369 12.6074Z" fill="white"/><path d="M4.53369 12.6074L8.68527 15.0158C9.22422 14.0895 9.83053 13.2221 10.5126 12.4052C13.9568 8.27893 19.1358 5.65156 24.9379 5.65156C24.9463 5.65156 24.9547 5.65156 24.9632 5.65156V0.851562C24.9547 0.851562 24.9463 0.851562 24.9379 0.851562C17.7547 0.851562 11.3211 4.0684 6.99264 9.13788C6.07474 10.2242 5.24948 11.3779 4.53369 12.6074Z" fill="#0078D4"/><path d="M6.15913 24.4196C6.15913 20.9838 7.08545 17.7754 8.68545 15.0133L4.53387 12.6133C2.52966 16.0828 1.37598 20.1164 1.37598 24.4196C1.37598 28.7312 2.52966 32.7649 4.55071 36.2343L8.70229 33.8428C7.08545 31.0722 6.15913 27.847 6.15913 24.4196Z" fill="#50E6FF"/><path d="M8.68527 15.0133L4.53369 12.6133L8.68527 15.0133Z" fill="#50E6FF"/><path d="M24.9378 43.1995C17.9988 43.1995 11.9441 39.4438 8.69357 33.8438L4.54199 36.2438C8.6262 43.2669 16.2304 47.9827 24.9378 47.9827C24.9462 47.9827 24.9546 47.9827 24.963 47.9827V43.1911C24.9546 43.1995 24.9462 43.1995 24.9378 43.1995Z" fill="#0078D4"/><path d="M4.54199 36.2353L8.69357 33.8438L4.54199 36.2353Z" fill="#0078D4"/><path d="M15.3296 35.7153C15.3296 30.2753 19.7422 25.8711 25.1906 25.8711C30.6391 25.8711 35.0517 30.2753 35.0517 35.7153H15.3296Z" fill="#0078D4"/><path d="M30.7989 18.4497C30.7989 21.5318 28.2978 24.0245 25.2073 24.0245C22.1168 24.0245 19.6157 21.5318 19.6157 18.4497C19.6157 15.3676 22.1168 12.875 25.2073 12.875C28.2978 12.875 30.7989 15.3676 30.7989 18.4497Z" fill="#0078D4"/><path d="M10.7991 12.0766L7.06013 9.07031C7.04329 9.09558 7.01803 9.12084 7.00119 9.1461C6.74855 9.44084 6.50434 9.744 6.26855 10.0556L10.0075 13.0619C10.1759 12.8429 10.3443 12.624 10.5212 12.4135C10.6054 12.2956 10.698 12.1861 10.7991 12.0766Z" fill="#50E6FF"/><path d="M19.7 6.39112L18.1758 1.84375C17.7716 1.96164 17.3673 2.09638 16.98 2.23954L18.5042 6.78691C18.8916 6.63533 19.2958 6.50901 19.7 6.39112Z" fill="#50E6FF"/><path d="M23.6498 5.6921L23.1361 0.925781C22.715 0.959465 22.294 1.00157 21.8813 1.0521L22.395 5.81841C22.8077 5.76789 23.2287 5.71736 23.6498 5.6921Z" fill="#50E6FF"/><path d="M16.4409 7.68075L14.0914 3.50391C13.7209 3.69759 13.3504 3.8997 12.9883 4.11864L15.3378 8.28706C15.6999 8.06812 16.062 7.86601 16.4409 7.68075Z" fill="#50E6FF"/><path d="M13.4603 9.56611L10.3698 5.89453C10.0414 6.15558 9.71295 6.42506 9.40137 6.70295L12.4919 10.3661C12.8035 10.0882 13.1319 9.81874 13.4603 9.56611Z" fill="#50E6FF"/></svg>