<svg viewBox="0 0 18 18" class="" role="presentation" focusable="false" xmlns="http://www.w3.org/2000/svg" xmlns:xlink="http://www.w3.org/1999/xlink" id="FxSymbol0-0ea" data-type="1"><g><path d="m17.8 16.141-2.928-2.929a7.281 7.281 0 1 0-1.3 1.193l2.981 2.981a.824.824 0 0 0 1.164 0l.08-.081a.822.822 0 0 0 .003-1.164Z" fill="url(#59616712-f700-4139-92c6-bd98d17f027f)"></path><circle cx="9.358" cy="8.54" r="5.665" class="msportalfx-svg-c01" fill="#ffffff"></circle><path d="m12.189 9.018-1.63 3.78-1.641-4.87L7.463 10.7 5.774 7.844H3.242a5.712 5.712 0 0 1 .222-.944h2.851l1.1 1.858 1.693-3.232 1.56 4.627.883-2.367h1.042l1.259 2.288h.935a5.836 5.836 0 0 1-.3.947h-1.196Z" fill="#50e6ff"></path><path d="M13.549 7.16h-2.176a4.159 4.159 0 0 0-.788-2.026 4.222 4.222 0 0 0-2.593-1.608V1.311a.6.6 0 0 0-1.207 0v2.17A4.146 4.146 0 0 0 3.056 7.16H.644a.6.6 0 0 0 0 1.207H3.1a4.126 4.126 0 0 0 .755 1.8A4.222 4.222 0 0 0 6.614 11.8v2.236a.6.6 0 1 0 1.207 0V11.8a4.164 4.164 0 0 0 3.526-3.436h2.2a.6.6 0 0 0 0-1.207Zm-4.476 2.972A3.1 3.1 0 1 1 9.7 5.793a3.082 3.082 0 0 1-.627 4.339Z" fill="#faa21d"></path></g><defs>
<linearGradient id="59616712-f700-4139-92c6-bd98d17f027f" x1="10.084" y1="1.309" x2="10.084" y2="17.627" gradientUnits="userSpaceOnUse"><stop offset="0" stop-color="#5ea0ef"></stop><stop offset="1" stop-color="#0078d4"></stop></linearGradient>
</defs>
</svg>