<svg data-slug-id="function01" viewBox="0 0 49 49" xmlns="http://www.w3.org/2000/svg"><path d="M45.4167 24.4872L45.3999 24.4538L45.8603 23.9936L35.599 13.7276L45.81 3.50345L45.3413 3.03492L45.0819 2.51618L31.2803 9.40201L24.4841 2.59985L24.0322 3.04328L23.6304 2.64168L16.8175 9.43548L2.95737 2.50781L2.6728 3.06838L2.23758 3.50345L12.4737 13.7611L2.3966 23.8179L2.32965 23.8514L2.33802 23.8765L2.24595 23.9685L2.53052 24.253L2.61421 24.4119L2.2041 24.8219L12.482 35.0963L2.27943 45.3204L2.8402 45.881L3.04107 46.2826L16.7924 39.4051L23.5886 46.1989L24.0322 45.7555L24.4758 46.1989L31.2301 39.4302L44.9647 46.3161L45.1321 45.9898L45.7766 45.3539L35.5488 35.1046L45.7849 24.8554L45.4167 24.4872ZM24.6599 22.9059V14.7735L30.0751 17.4843L24.6599 22.9059ZM31.2636 18.07L42.6798 23.7844H25.5555L31.2636 18.07ZM25.4048 13.736L31.0292 10.9331L33.8247 13.7276L31.0125 16.5388L25.4048 13.736ZM23.4045 14.74V22.9478L17.9391 17.4675L23.4045 14.74ZM17.01 16.5305L14.2564 13.7694L17.0686 10.9666L22.601 13.736L17.01 16.5305ZM22.4754 23.7844H5.27577L16.7589 18.0532L22.4754 23.7844ZM22.5256 25.0395L16.7924 30.7874L5.33435 25.0395H22.5256ZM23.4045 25.9347V34.1006L17.9725 31.3731L23.4045 25.9347ZM22.601 35.0963L17.0435 37.874L14.2648 35.0963L17.0435 32.3102L22.601 35.0963ZM24.6599 34.0672V25.9765L30.05 31.3731L24.6599 34.0672ZM30.9874 32.3102L33.7828 35.1046L30.9874 37.8991L25.3964 35.0963L30.9874 32.3102ZM25.5052 25.0395H42.7216L31.2385 30.779L25.5052 25.0395ZM42.2529 22.1697L32.1926 17.1329L34.7119 14.6145L42.2529 22.1697ZM42.1525 5.38597L34.7035 12.8407L32.2093 10.3475L42.1525 5.38597ZM24.6599 12.7069V4.55766L30.0918 9.99605L24.6599 12.7069ZM23.4045 4.64133V12.732L17.9977 10.0295L23.4045 4.64133ZM5.87001 5.36924L15.8801 10.3726L13.3692 12.8742L5.87001 5.36924ZM13.3609 14.6563L15.8215 17.1161L5.95371 22.0442L13.3609 14.6563ZM5.87001 26.7128L15.855 31.7161L13.3692 34.2094L5.87001 26.7128ZM5.93697 43.4296L13.3776 35.9832L15.8634 38.4681L5.93697 43.4296ZM23.4045 36.1003V44.2495L17.9725 38.8195L23.4045 36.1003ZM24.6683 44.2411V36.1338L30.0583 38.8362L24.6683 44.2411ZM42.1609 43.5049L32.1675 38.4932L34.6616 35.9915L42.1609 43.5049ZM32.1675 31.7161L42.1274 26.7379L34.6616 34.2178L32.1675 31.7161Z" fill="#50E6FF"/><path d="M45.3242 5.52955C46.7017 5.52955 47.8184 4.41326 47.8184 3.03626C47.8184 1.65925 46.7017 0.542969 45.3242 0.542969C43.9468 0.542969 42.8301 1.65925 42.8301 3.03626C42.8301 4.41326 43.9468 5.52955 45.3242 5.52955Z" fill="#0078D4"/><path d="M24.0488 5.52955C25.4263 5.52955 26.543 4.41326 26.543 3.03626C26.543 1.65925 25.4263 0.542969 24.0488 0.542969C22.6714 0.542969 21.5547 1.65925 21.5547 3.03626C21.5547 4.41326 22.6714 5.52955 24.0488 5.52955Z" fill="#0078D4"/><path d="M2.62209 5.52955C3.99957 5.52955 5.11625 4.41326 5.11625 3.03626C5.11625 1.65925 3.99957 0.542969 2.62209 0.542969C1.2446 0.542969 0.12793 1.65925 0.12793 3.03626C0.12793 4.41326 1.2446 5.52955 2.62209 5.52955Z" fill="#0078D4"/><path d="M45.3076 26.9475C46.6851 26.9475 47.8018 25.8312 47.8018 24.4542C47.8018 23.0772 46.6851 21.9609 45.3076 21.9609C43.9301 21.9609 42.8135 23.0772 42.8135 24.4542C42.8135 25.8312 43.9301 26.9475 45.3076 26.9475Z" fill="#0078D4"/><path d="M24.0488 26.9475C25.4263 26.9475 26.543 25.8312 26.543 24.4542C26.543 23.0772 25.4263 21.9609 24.0488 21.9609C22.6714 21.9609 21.5547 23.0772 21.5547 24.4542C21.5547 25.8312 22.6714 26.9475 24.0488 26.9475Z" fill="#0078D4"/><path d="M2.62209 26.9475C3.99957 26.9475 5.11625 25.8312 5.11625 24.4542C5.11625 23.0772 3.99957 21.9609 2.62209 21.9609C1.2446 21.9609 0.12793 23.0772 0.12793 24.4542C0.12793 25.8312 1.2446 26.9475 2.62209 26.9475Z" fill="#0078D4"/><path d="M45.3076 48.2014C46.6851 48.2014 47.8018 47.0851 47.8018 45.7081C47.8018 44.3311 46.6851 43.2148 45.3076 43.2148C43.9301 43.2148 42.8135 44.3311 42.8135 45.7081C42.8135 47.0851 43.9301 48.2014 45.3076 48.2014Z" fill="#0078D4"/><path d="M24.0488 48.2014C25.4263 48.2014 26.543 47.0851 26.543 45.7081C26.543 44.3311 25.4263 43.2148 24.0488 43.2148C22.6714 43.2148 21.5547 44.3311 21.5547 45.7081C21.5547 47.0851 22.6714 48.2014 24.0488 48.2014Z" fill="#0078D4"/><path d="M2.62209 48.2014C3.99957 48.2014 5.11625 47.0851 5.11625 45.7081C5.11625 44.3311 3.99957 43.2148 2.62209 43.2148C1.2446 43.2148 0.12793 44.3311 0.12793 45.7081C0.12793 47.0851 1.2446 48.2014 2.62209 48.2014Z" fill="#0078D4"/></svg>