<svg data-slug-id="squares-arrows-circles" xmlns="http://www.w3.org/2000/svg" viewBox="0 0 48 48"><path d="M41.6656 12.7979C38.1662 12.7979 35.3313 9.96206 35.3313 6.46144C35.3313 2.96083 38.1662 0.125 41.6656 0.125C45.165 0.125 47.9999 2.96083 47.9999 6.46144C48.0083 9.96206 45.1734 12.7979 41.6656 12.7979Z" fill="#50E6FF"/><path d="M41.6656 30.3872C38.1662 30.3872 35.3313 27.5514 35.3313 24.0508C35.3313 20.5502 38.1662 17.7144 41.6656 17.7144C45.165 17.7144 47.9999 20.5502 47.9999 24.0508C48.0083 27.543 45.1734 30.3872 41.6656 30.3872Z" fill="#50E6FF"/><path d="M12.6097 17.7144H0V30.3283H12.6097V17.7144Z" fill="#0078D4"/><path d="M12.6097 0H0V12.614H12.6097V0Z" fill="#0078D4"/><path d="M12.6097 35.3864H0V48.0003H12.6097V35.3864Z" fill="#0078D4"/><path d="M41.6656 47.9649C38.1662 47.9649 35.3313 45.1291 35.3313 41.6284C35.3313 38.1278 38.1662 35.292 41.6656 35.292C45.165 35.292 47.9999 38.1278 47.9999 41.6284C48.0083 45.1291 45.1734 47.9649 41.6656 47.9649Z" fill="#50E6FF"/><path d="M31.6045 41.8118L26.4731 36.6787V39.2453H19.02V44.37H26.4731V46.9365L31.6045 41.8118Z" fill="#0078D4"/><path d="M31.6045 24.1443L26.4731 19.0112V21.5778H19.02V26.7025H26.4731V29.269L31.6045 24.1443Z" fill="#0078D4"/><path d="M31.6045 6.41045L26.4731 1.27734V3.8439H19.02V8.97701H26.4731V11.5436L31.6045 6.41045Z" fill="#0078D4"/></svg>