<svg data-slug-id="users01" viewBox="0 0 49 49" xmlns="http://www.w3.org/2000/svg"><path d="M36.73 0.4375H48.9379V12.6333H43.8863V5.48402H36.73V0.4375Z" fill="#0078D4"/><path d="M5.98953 12.6333H0.937988V0.4375H13.1459V5.48402H5.98953V12.6333Z" fill="#0078D4"/><path d="M43.8863 36.2422H48.9379V48.438H36.73V43.3914H43.8863V36.2422Z" fill="#0078D4"/><path d="M0.938477 48.438V36.2422H5.99001V43.3914H13.1464V48.438H0.938477Z" fill="#0078D4"/><path d="M10.6255 41.2285C10.6255 33.2277 17.1018 26.7578 25.1106 26.7578C33.1194 26.7578 39.5957 33.2277 39.5957 41.2285H10.6255Z" fill="#50E6FF"/><path d="M33.2031 14.7437C33.2031 19.2107 29.5713 22.8389 25.0998 22.8389C20.6284 22.8389 16.9966 19.2107 16.9966 14.7437C16.9966 10.2766 20.6284 6.64844 25.0998 6.64844C29.5713 6.64844 33.2031 10.2766 33.2031 14.7437Z" fill="#50E6FF"/></svg>