<svg xmlns="http://www.w3.org/2000/svg" viewBox="0 0 61 61" fill="none"><g clip-path="url(#clip0)"><path d="M51.7219 18.7087H8.88282C4.27501 18.7087 0.520325 22.4587 0.520325 27.0712V33.9103C0.520325 38.5181 4.27032 42.2728 8.88282 42.2728H51.7219C56.3297 42.2728 60.0844 38.5228 60.0844 33.9103V27.0712C60.0844 22.4587 56.3297 18.7087 51.7219 18.7087Z" fill="black"/><path d="M12.525 21.4744C7.55625 21.4744 3.51562 25.515 3.51562 30.4837C3.51562 35.4525 7.55625 39.4931 12.525 39.4931C17.4937 39.4931 21.5344 35.4525 21.5344 30.4837C21.5391 25.5197 17.4937 21.4744 12.525 21.4744Z" fill="#0178D4"/><path d="M30.3094 24.2166C26.8547 24.2166 24.0375 27.0291 24.0375 30.4884C24.0375 33.9431 26.85 36.7556 30.3094 36.7556C33.7688 36.7556 36.5766 33.9431 36.5766 30.4884C36.5813 27.0291 33.7688 24.2166 30.3094 24.2166Z" fill="#0178D4"/><path d="M49.2422 27.2119H46.1297V30.3244H49.2422V27.2119Z" fill="white"/><path d="M49.336 30.4181H46.0359V27.1181H49.336V30.4181ZM46.2234 30.2306H49.1485V27.3056H46.2234V30.2306Z" fill="black"/><path d="M52.6781 27.2119H49.5656V30.3244H52.6781V27.2119Z" fill="white"/><path d="M52.7719 30.4181H49.4719V27.1181H52.7719V30.4181ZM49.6594 30.2306H52.5844V27.3056H49.6594V30.2306Z" fill="black"/><path d="M49.2422 30.6478H46.1297V33.7603H49.2422V30.6478Z" fill="white"/><path d="M49.336 33.8587H46.0359V30.5587H49.336V33.8587ZM46.2234 33.6666H49.1485V30.7416H46.2234V33.6666Z" fill="black"/><path d="M52.6781 30.6478H49.5656V33.7603H52.6781V30.6478Z" fill="white"/><path d="M52.7719 33.8587H49.4719V30.5587H52.7719V33.8587ZM49.6594 33.6666H52.5844V30.7416H49.6594V33.6666Z" fill="black"/></g><defs><clipPath id="clip0"><rect width="60" height="60" fill="white" transform="translate(0.299988 0.539993)"/></clipPath></defs></svg>