<svg viewBox="0 0 18 18" class="" role="presentation" focusable="false" xmlns:svg="http://www.w3.org/2000/svg" xmlns:xlink="http://www.w3.org/1999/xlink" id="FxSymbol0-0a0" data-type="1"><g><title></title><path fill="#773adc" d="M13.13 2.4V7L9.18 9.3V4.7l3.95-2.3z"></path><path d="M11.45 4.7c.55-.32 1-.07 1 .56a2.18 2.18 0 0 1-1 1.72c-.55.32-1 .07-1-.57a2.17 2.17 0 0 1 1-1.71z" fill="#552f99"></path><path fill="#773adc" d="M7.9 11v4.6l-3.95 2.3v-4.6L7.9 11z"></path><path d="M5.92 13.53c.55-.3 1-.06 1 .57a2.2 2.2 0 0 1-1 1.72c-.55.32-1 .06-1-.57a2.2 2.2 0 0 1 1-1.72z" fill="#552f99"></path><path fill="#a67af4" d="M3.95 13.3v4.6L0 15.6V11l3.95 2.3z"></path><path fill="#773adc" d="M18 11v4.6l-3.95 2.3v-4.6L18 11z"></path><path d="M11.5 6.2a4.17 4.17 0 0 1 2.37 2.61l.2-.1 1 .58a5.21 5.21 0 0 0-3.15-4.06.53.53 0 0 0-.41 1z" fill="#32bedd"></path><path fill="#a67af4" d="M14.05 13.32v4.6l-3.95-2.3V11l3.95 2.3z"></path><path d="M12.2 13.6c-.52-.3-.94-.05-.94.54a2.08 2.08 0 0 0 .94 1.63c.52.3.94.06.94-.54a2.08 2.08 0 0 0-.94-1.63z" fill="#552f99"></path><path d="M9.2 16.1a5.46 5.46 0 0 1-3.18-1 .55.55 0 1 1 .64-.89 4.36 4.36 0 0 0 4.81.18.55.55 0 1 1 .58.94 5.54 5.54 0 0 1-2.85.77z" fill="#32bedd"></path><path fill="#b796f9" d="M13.13 2.4L9.2 4.7 5.24 2.4 9.2.1l3.94 2.3z"></path><path d="M5.24 5.3a5.25 5.25 0 0 0-2.36 4L4 8.7v.05a4.2 4.2 0 0 1 1.24-2.07z" fill="#32bedd"></path><path d="M18 11l-3.95 2.3L10.1 11l3.95-2.3L18 11zM7.9 11l-3.95 2.3L0 11l3.95-2.3L7.9 11z" fill="#b796f9"></path><path fill="#a67af4" d="M9.18 4.7v4.6L5.24 7V2.4l3.94 2.3z"></path></g><defs>
<linearGradient id="a" x1="9" y1="16.39" x2="9" y2="-1.94" gradientUnits="userSpaceOnUse"><stop offset="0" stop-color="#0078d4"></stop><stop offset=".16" stop-color="#1380da"></stop><stop offset=".53" stop-color="#3c91e5"></stop><stop offset=".82" stop-color="#559cec"></stop><stop offset="1" stop-color="#5ea0ef"></stop></linearGradient>
<linearGradient id="b" x1="9.88" y1="7.11" x2="9.99" y2="17.27" gradientUnits="userSpaceOnUse"><stop offset="0" stop-color="#32d4f5"></stop><stop offset=".32" stop-color="#31d1f3"></stop><stop offset=".53" stop-color="#2ec9eb"></stop><stop offset=".7" stop-color="#29bade"></stop><stop offset=".86" stop-color="#22a5cb"></stop><stop offset="1" stop-color="#198ab3"></stop><stop offset="1" stop-color="#198ab3"></stop></linearGradient>
<radialGradient id="c" cx="9.43" cy="7.03" r="7.27" gradientUnits="userSpaceOnUse"><stop offset="0" stop-color="#f2f2f2"></stop><stop offset=".58" stop-color="#eee"></stop><stop offset="1" stop-color="#e6e6e6"></stop></radialGradient>
</defs>
</svg>