<svg viewBox="0 0 50 50" class="" role="presentation" focusable="false" xmlns:svg="http://www.w3.org/2000/svg" xmlns:xlink="http://www.w3.org/1999/xlink" id="FxSymbol0-0a1" data-type="1"><g><title></title><path d="M19 42h12v3H19zm3 8h5l3.638-3h-11.5z" class="msportalfx-svg-c04" fill="#7a7a7a"></path><path d="M19.175 39.9a.41.41 0 0 1-.419-.392c-.172-5.371-3.152-8.821-6.033-12.158-2.868-3.321-5.577-6.458-5.577-11.29C7.145 5.981 13.653.2 25 .2s17.855 5.781 17.855 15.86c0 4.832-2.709 7.969-5.577 11.29-2.881 3.337-5.861 6.788-6.033 12.158a.41.41 0 0 1-.419.392H19.175z" class="msportalfx-svg-c01" fill="#ffffff"></path><path d="M24 1.187c0-.573-.486-1.041-1.058-1.003C12.645.863 7.045 6.695 7.045 16.06c0 9.825 11.272 12.876 11.61 23.451a.513.513 0 0 0 .52.489H23a1 1 0 0 0 1-1V1.187z" class="msportalfx-svg-c15" fill="#59b4d9"></path><path d="M26.045 1.187c0-.573.486-1.041 1.058-1.003C37.4.863 43 6.695 43 16.06c0 9.825-11.272 12.876-11.61 23.451a.513.513 0 0 1-.52.489h-3.825a1 1 0 0 1-1-1V1.187z" class="msportalfx-svg-c16" fill="#3999c6"></path><path d="M31.092 15.776l-.895-1.788L25 16.586l-5.197-2.598-.895 1.788 5.472 2.736h1.24zm-.2 16.1l-.895-1.788L25 32.586l-4.997-2.498-.895 1.788 5.272 2.636h1.24zM19.833 8.397L19.201 6.5l-4.34 1.447-3.4-3.4c-.488.461-.931.961-1.34 1.489l3.325 3.325L12 13.701l1.897.633 1.484-4.452 4.452-1.485zm19.608-2.924a13.23 13.23 0 0 0-1.433-1.396l-3.869 3.869-4.34-1.446-.632 1.897 4.452 1.484 1.484 4.452L37 13.701l-1.447-4.34 3.888-3.888zm.629 18.61l-4.608-1.769-.393-4.436-1.992.177.414 4.674L30 25.864l1.337 1.488 3.494-3.139 3.955 1.519a34.31 34.31 0 0 0 1.284-1.649zM20 25.864l-3.491-3.136.414-4.674-1.992-.177-.393 4.436-4.608 1.77c.407.56.838 1.108 1.285 1.649l3.955-1.519 3.494 3.139L20 25.864z" class="msportalfx-svg-c01" fill="#ffffff"></path></g><defs>
<linearGradient id="a" x1="9" y1="16.39" x2="9" y2="-1.94" gradientUnits="userSpaceOnUse"><stop offset="0" stop-color="#0078d4"></stop><stop offset=".16" stop-color="#1380da"></stop><stop offset=".53" stop-color="#3c91e5"></stop><stop offset=".82" stop-color="#559cec"></stop><stop offset="1" stop-color="#5ea0ef"></stop></linearGradient>
<linearGradient id="b" x1="9.88" y1="7.11" x2="9.99" y2="17.27" gradientUnits="userSpaceOnUse"><stop offset="0" stop-color="#32d4f5"></stop><stop offset=".32" stop-color="#31d1f3"></stop><stop offset=".53" stop-color="#2ec9eb"></stop><stop offset=".7" stop-color="#29bade"></stop><stop offset=".86" stop-color="#22a5cb"></stop><stop offset="1" stop-color="#198ab3"></stop><stop offset="1" stop-color="#198ab3"></stop></linearGradient>
<radialGradient id="c" cx="9.43" cy="7.03" r="7.27" gradientUnits="userSpaceOnUse"><stop offset="0" stop-color="#f2f2f2"></stop><stop offset=".58" stop-color="#eee"></stop><stop offset="1" stop-color="#e6e6e6"></stop></radialGradient>
</defs>
</svg>