<svg data-slug-id="bot" xmlns="http://www.w3.org/2000/svg" viewBox="0 0 48 48"><path d="M43.6703 3.24609H4.3297C1.9409 3.24609 0 5.187 0 7.5758V40.3845C0 42.7733 1.9409 44.7142 4.3297 44.7142H43.6703C46.0591 44.7142 48 42.7733 48 40.3845V7.5758C48 5.187 46.0591 3.24609 43.6703 3.24609Z" fill="#0078D4"/><path d="M24.0373 26.0159C25.171 26.0159 26.0901 25.0968 26.0901 23.963C26.0901 22.8293 25.171 21.9102 24.0373 21.9102C22.9035 21.9102 21.9844 22.8293 21.9844 23.963C21.9844 25.0968 22.9035 26.0159 24.0373 26.0159Z" fill="#50E6FF"/><path d="M24.0369 14.3672C18.7367 14.3672 14.4443 18.6596 14.4443 23.9597C14.4443 29.2599 18.7367 33.5523 24.0369 33.5523C29.337 33.5523 33.6294 29.2599 33.6294 23.9597C33.6294 18.6596 29.337 14.3672 24.0369 14.3672ZM24.0369 31.686C19.7818 31.686 16.3106 28.2521 16.3106 23.9597C16.3106 19.6673 19.7818 16.2334 24.0369 16.2334C28.2919 16.2334 31.8005 19.6673 31.8005 23.9597C31.8005 28.2521 28.3293 31.686 24.0369 31.686Z" fill="#50E6FF"/></svg>