<svg width="48" height="48" viewBox="0 0 48 48" fill="none" xmlns="http://www.w3.org/2000/svg">
<path d="M2.26025 2.25L45.7494 45.75" stroke="#50E6FF"/>
<path d="M2.25 45.75L45.75 2.25" stroke="#50E6FF"/>
<path d="M2.25 23.9888H45.75" stroke="#50E6FF"/>
<path d="M23.9957 2.19775L23.9994 45.7499" stroke="#50E6FF"/>
<path d="M2.25 45.75L45.75 23.9888" stroke="#50E6FF"/>
<path d="M45.75 45.75L2.25 23.9888" stroke="#50E6FF"/>
<path d="M2.26025 2.25L45.7494 23.9888" stroke="#50E6FF"/>
<path d="M45.75 2.25L2.25 23.9888" stroke="#50E6FF"/>
<path d="M24 2.25L45.75 23.9888" stroke="#50E6FF"/>
<path d="M23.9963 2.19775L2.25 23.9886" stroke="#50E6FF"/>
<path d="M24 45.75L45.75 23.9888" stroke="#50E6FF"/>
<path d="M24 45.7499L2.15625 23.9478" stroke="#50E6FF"/>
<path fill-rule="evenodd" clip-rule="evenodd" d="M4.5 2.25C4.5 3.49275 3.49237 4.5 2.25 4.5C1.00725 4.5 0 3.49275 0 2.25C0 1.00763 1.00725 0 2.25 0C3.49237 0 4.5 1.00763 4.5 2.25" fill="#50E6FF"/>
<path fill-rule="evenodd" clip-rule="evenodd" d="M4.5 23.9888C4.5 25.2311 3.49237 26.2388 2.25 26.2388C1.00725 26.2388 0 25.2311 0 23.9888C0 22.746 1.00725 21.7388 2.25 21.7388C3.49237 21.7388 4.5 22.746 4.5 23.9888" fill="#0078D4"/>
<path fill-rule="evenodd" clip-rule="evenodd" d="M4.5 45.75C4.5 46.9927 3.49237 48 2.25 48C1.00725 48 0 46.9927 0 45.75C0 44.5076 1.00725 43.5 2.25 43.5C3.49237 43.5 4.5 44.5076 4.5 45.75" fill="#0078D4"/>
<path fill-rule="evenodd" clip-rule="evenodd" d="M26.25 2.25C26.25 3.49275 25.2424 4.5 24 4.5C22.7573 4.5 21.75 3.49275 21.75 2.25C21.75 1.00763 22.7573 0 24 0C25.2424 0 26.25 1.00763 26.25 2.25" fill="#0078D4"/>
<path fill-rule="evenodd" clip-rule="evenodd" d="M26.25 24C26.25 25.2427 25.2424 26.25 24 26.25C22.7573 26.25 21.75 25.2427 21.75 24C21.75 22.7576 22.7573 21.75 24 21.75C25.2424 21.75 26.25 22.7576 26.25 24Z" fill="#50E6FF"/>
<path fill-rule="evenodd" clip-rule="evenodd" d="M26.25 45.75C26.25 46.9927 25.2424 48 24 48C22.7573 48 21.75 46.9927 21.75 45.75C21.75 44.5076 22.7573 43.5 24 43.5C25.2424 43.5 26.25 44.5076 26.25 45.75" fill="#0078D4"/>
<path fill-rule="evenodd" clip-rule="evenodd" d="M48 2.25C48 3.49275 46.9924 4.5 45.75 4.5C44.5073 4.5 43.5 3.49275 43.5 2.25C43.5 1.00763 44.5073 0 45.75 0C46.9924 0 48 1.00763 48 2.25" fill="#0078D4"/>
<path fill-rule="evenodd" clip-rule="evenodd" d="M48 23.9888C48 25.2311 46.9924 26.2388 45.75 26.2388C44.5073 26.2388 43.5 25.2311 43.5 23.9888C43.5 22.746 44.5073 21.7388 45.75 21.7388C46.9924 21.7388 48 22.746 48 23.9888" fill="#0078D4"/>
<path fill-rule="evenodd" clip-rule="evenodd" d="M48 45.75C48 46.9927 46.9924 48 45.75 48C44.5073 48 43.5 46.9927 43.5 45.75C43.5 44.5076 44.5073 43.5 45.75 43.5C46.9924 43.5 48 44.5076 48 45.75" fill="#50E6FF"/>
</svg>
