<svg data-slug-id="community-support" xmlns="http://www.w3.org/2000/svg" viewBox="0 0 48 48"><path d="M30.2528 34.3231C30.2528 29.4186 34.2219 25.4495 39.1264 25.4495C44.0309 25.4495 48 29.4186 48 34.3231H30.2528Z" fill="#50E6FF"/><path d="M44.0984 18.0758C44.0984 20.823 41.8736 23.0393 39.1349 23.0393C36.3961 23.0393 34.1714 20.8146 34.1714 18.0758C34.1714 15.337 36.3961 13.1123 39.1349 13.1123C41.8736 13.1123 44.0984 15.337 44.0984 18.0758Z" fill="#50E6FF"/><path d="M15.0842 24.2108C15.0842 19.3063 19.0533 15.3372 23.9578 15.3372C28.8623 15.3372 32.8314 19.3063 32.8314 24.2108H15.0842Z" fill="#0078D7"/><path d="M28.9298 7.96349C28.9298 10.7107 26.7051 12.927 23.9663 12.927C21.2275 12.927 19.0028 10.7023 19.0028 7.96349C19.0028 5.22472 21.2191 3 23.9579 3C26.6966 3 28.9298 5.22472 28.9298 7.96349Z" fill="#0078D7"/><path d="M15.0842 47.1236C15.0842 42.2191 19.0533 38.25 23.9578 38.25C28.8623 38.25 32.8314 42.2191 32.8314 47.1236H15.0842Z" fill="#50E6FF"/><path d="M28.9298 30.8849C28.9298 33.6321 26.7051 35.8483 23.9663 35.8483C21.2275 35.8483 19.0028 33.6236 19.0028 30.8849C19.0028 28.1461 21.2275 25.9214 23.9663 25.9214C26.7051 25.9214 28.9298 28.1377 28.9298 30.8849Z" fill="#50E6FF"/><path d="M0 34.3231C0 29.4186 3.9691 25.4495 8.87359 25.4495C13.7781 25.4495 17.7472 29.4186 17.7472 34.3231H0Z" fill="#0078D7"/><path d="M13.8454 18.0758C13.8454 20.823 11.6207 23.0393 8.88193 23.0393C6.14318 23.0393 3.91846 20.8146 3.91846 18.0758C3.91846 15.337 6.13475 13.1123 8.87351 13.1123C11.6123 13.1123 13.8454 15.337 13.8454 18.0758Z" fill="#0078D7"/></svg>