<svg viewBox="0 0 18 18" class="" role="presentation" focusable="false" xmlns="http://www.w3.org/2000/svg" xmlns:xlink="http://www.w3.org/1999/xlink" id="FxSymbol0-152" data-type="1"><g><path d="M.9 2.476h13.723a.844.844 0 0 1 .9.774v9.386a.846.846 0 0 1-.9.774H9.007a.168.168 0 0 0-.091.027l-2.881 1.9a.3.3 0 0 1-.481-.205v-1.593a.141.141 0 0 0-.15-.129H.9a.845.845 0 0 1-.9-.774V3.25a.846.846 0 0 1 .9-.774Z" fill="url(#59616712-f700-4139-92c6-bd98d17f0312)"></path><path d="M11.031 6.661a1.025 1.025 0 1 1-1.025 1.025 1.025 1.025 0 0 1 1.025-1.025ZM6.737 7.7a1.025 1.025 0 1 0 1.025-1.03A1.025 1.025 0 0 0 6.737 7.7Zm-3.27 0a1.025 1.025 0 1 0 1.025-1.03A1.025 1.025 0 0 0 3.467 7.7Z" opacity=".8" class="msportalfx-svg-c01" fill="#ffffff"></path><circle cx="13.926" cy="11.45" r="4.074" fill="url(#59616712-f700-4139-92c6-bd98d17f0313)"></circle><path d="m16.164 13.638-.537-.814a.3.3 0 0 0-.4-.1l-.385.207a.194.194 0 0 1-.23-.034 6 6 0 0 1-.689-.828l-.308-.523a5.945 5.945 0 0 1-.365-1.014.2.2 0 0 1 .087-.216l.373-.227a.3.3 0 0 0 .114-.39l-.424-.875a.285.285 0 0 0-.372-.133 1.722 1.722 0 0 0-.78.971c-.352.815.28 1.774.747 2.59H13c.467.816.976 1.846 1.856 1.956a1.719 1.719 0 0 0 1.232-.182.283.283 0 0 0 .076-.388Z" fill="#0078d4"></path></g><defs>
<linearGradient id="59616712-f700-4139-92c6-bd98d17f0312" x1="7.762" y1="2.476" x2="7.762" y2="15.391" gradientUnits="userSpaceOnUse"><stop offset=".002" stop-color="#a67af4"></stop><stop offset="1" stop-color="#773adc"></stop></linearGradient>
<linearGradient id="59616712-f700-4139-92c6-bd98d17f0313" x1="13.926" y1="7.376" x2="13.926" y2="15.524" gradientUnits="userSpaceOnUse"><stop offset="0" stop-color="#c3f1ff"></stop><stop offset="1" stop-color="#50e6ff"></stop></linearGradient>
</defs>
</svg>