<svg id="svg-computer-vision" viewBox="0 0 61 61">
<path d="M30.634 17.8828C35.3384 17.8828 39.6561 19.655 43.136 22.5549C46.036 25.0038 48.0337 28.0648 48.0337 30.127C48.0337 32.1892 46.036 35.218 43.136 37.6669C39.6561 40.5668 35.3062 42.3068 30.634 42.3068C25.9619 42.3068 21.6442 40.4701 18.1321 37.4413C15.2643 34.9925 13.2344 31.9314 13.2344 30.127C13.2344 28.3226 15.2643 25.2293 18.1321 22.7805C21.6442 19.7194 25.9619 17.8828 30.634 17.8828ZM30.634 20.2028C26.5741 20.2028 22.772 21.8461 19.6465 24.5205C17.2621 26.5826 15.5543 29.1604 15.5543 30.127C15.5543 31.0937 17.2621 33.6392 19.6142 35.6691C22.7397 38.3435 26.5419 39.9868 30.6018 39.9868C34.7262 39.9868 38.5283 38.4402 41.6216 35.8625C44.0704 33.8325 45.6815 31.3192 45.6815 30.127C45.6815 28.9026 44.0382 26.3893 41.6216 24.3594C38.5605 21.7494 34.7262 20.2028 30.634 20.2028Z" fill="#0078D4"></path>
<path d="M34.2578 30.1456H39.7033V24.4102H34.2578V30.1456Z" fill="#0078D4"></path>
</svg>