<svg viewBox="0 0 18 18" class="" role="presentation" focusable="false" xmlns="http://www.w3.org/2000/svg" xmlns:xlink="http://www.w3.org/1999/xlink" id="FxSymbol0-0eb" data-type="1"><g><path d="M.59 4.891a.563.563 0 0 1-.563-.563V.563A.563.563 0 0 1 .59 0h3.525a.563.563 0 0 1 0 1.126H1.153v3.2a.563.563 0 0 1-.563.565Zm17.383-.563V.563A.564.564 0 0 0 17.41 0h-3.525a.563.563 0 1 0 0 1.126h2.962v3.2a.563.563 0 0 0 1.126 0ZM4.678 17.437a.563.563 0 0 0-.563-.563H1.153v-3.2a.563.563 0 0 0-1.126 0v3.765A.563.563 0 0 0 .59 18h3.525a.563.563 0 0 0 .563-.563Zm13.295 0v-3.765a.563.563 0 0 0-1.126 0v3.2h-2.962a.563.563 0 0 0 0 1.126h3.525a.564.564 0 0 0 .563-.561Z" fill="#50e6ff"></path><circle cx="8.765" cy="8.946" r="7.154" fill="#0078d4"></circle><circle cx="8.765" cy="9.083" r="6.182" fill="url(#59616712-f700-4139-92c6-bd98d17f0280)"></circle><circle cx="8.765" cy="8.98" r="5.047" fill="#5ea0ef"></circle><circle cx="8.765" cy="9.014" r="3.355" fill="#005ba1"></circle><circle cx="7.661" cy="7.778" r="1.008" class="msportalfx-svg-c01" fill="#ffffff"></circle><circle cx="8.765" cy="9.048" r=".447" class="msportalfx-svg-c01" fill="#ffffff"></circle></g><defs>
<linearGradient id="59616712-f700-4139-92c6-bd98d17f0280" x1="8.765" y1="15.265" x2="8.765" y2="2.901" gradientUnits="userSpaceOnUse"><stop offset="0" stop-color="#5ea0ef"></stop><stop offset="1" stop-color="#0078d4"></stop></linearGradient>
</defs>
</svg>