<svg data-slug-id="data07" viewBox="0 0 49 49" xmlns="http://www.w3.org/2000/svg"><path d="M43.9667 15.1953H20.3159V38.8195H43.9667V15.1953Z" fill="#50E6FF"/><path d="M20.2892 31.0304V39.1653H43.9577V34.1885V34.2418L40.2052 30.4715L36.4615 34.2418L26.5701 24.5898L20.2715 30.8973L20.2892 31.0304Z" fill="#0078D4"/><path d="M40.8261 21.0932C40.8261 22.7965 39.451 24.1715 37.7478 24.1715C36.0445 24.1715 34.6694 22.7876 34.6694 21.0932C34.6694 19.3899 36.0267 17.9883 37.7211 17.9883C39.4244 17.9883 40.8261 19.3722 40.8261 21.0932Z" fill="#0078D4"/><path d="M17.3792 1.87891H4.07227V11.1139H6.12153V13.1454L8.17079 11.1139H17.3792V1.87891Z" fill="#0078D4"/><path d="M17.3527 31.2227H4.05469V47.1288H17.3527V31.2227Z" fill="#50E6FF"/><path d="M43.9843 41.8242H20.2803V47.147H43.9843V41.8242Z" fill="#0078D4"/><path d="M43.9756 1.92188H20.3159V5.82523H43.9756V1.92188Z" fill="#0078D4"/><path d="M17.3704 15.2109H4.1167V18.4667H17.3704V15.2109Z" fill="#0078D4"/><path d="M17.3704 19.5664H4.1167V22.8222H17.3704V19.5664Z" fill="#0078D4"/><path d="M17.3704 23.9219H4.1167V27.1776H17.3704V23.9219Z" fill="#50E6FF"/><path d="M43.9756 7.19922H20.3159V11.1026H43.9756V7.19922Z" fill="#0078D4"/></svg>