<svg viewBox="0 0 18 18" class="" role="presentation" focusable="false" xmlns="http://www.w3.org/2000/svg" xmlns:xlink="http://www.w3.org/1999/xlink" id="FxSymbol0-0ec" data-type="1"><g><rect y="1.245" width="18" height="12" rx=".601" fill="url(#59616712-f700-4139-92c6-bd98d17f0281)"></rect><path d="M12.61 16.875c-1.78-.279-1.85-1.563-1.845-3.63h-3.53c0 2.067-.065 3.351-1.845 3.63a1.046 1.046 0 0 0-.887 1h9a1.052 1.052 0 0 0-.893-1Z" fill="url(#59616712-f700-4139-92c6-bd98d17f0282)"></path><path d="M5.354 11.505H1.782a.3.3 0 0 1-.3-.3V3.284a.3.3 0 0 1 .3-.3h3.572a.3.3 0 0 1 .3.3v7.921a.3.3 0 0 1-.3.3Zm5.732-.3V3.284a.3.3 0 0 0-.3-.3H7.214a.3.3 0 0 0-.3.3v7.921a.3.3 0 0 0 .3.3h3.572a.3.3 0 0 0 .3-.3Z" opacity=".3" class="msportalfx-svg-c01" fill="#ffffff"></path><rect x="12.346" y="2.984" width="4.173" height="8.521" rx=".3" fill="#faa21d"></rect><path d="M14.8 8.5h-.73a.165.165 0 0 1-.171-.152l-.078-3.326a.163.163 0 0 1 .171-.159h.887a.164.164 0 0 1 .171.159l-.079 3.326a.165.165 0 0 1-.171.152Zm-.365.411a.583.583 0 1 0 .583.583.583.583 0 0 0-.586-.579ZM10.37 6.4a.094.094 0 0 0-.133 0l-1.7 1.7-.647-.646a.094.094 0 0 0-.133 0l-.15.15a.094.094 0 0 0 0 .133l.86.86a.1.1 0 0 0 .134 0l1.919-1.919a.094.094 0 0 0 0-.133Zm-5.5 0a.094.094 0 0 0-.133 0l-1.7 1.7-.637-.655a.1.1 0 0 0-.134 0l-.15.15a.1.1 0 0 0 0 .133l.86.86h.005a.094.094 0 0 0 .133 0l1.908-1.91a.094.094 0 0 0 0-.133Zm11.346 5.3h-3.57a.489.489 0 0 1-.488-.488V3.284a.489.489 0 0 1 .488-.488h3.572a.489.489 0 0 1 .488.488v7.921a.489.489 0 0 1-.488.488Zm-3.57-8.529a.114.114 0 0 0-.113.113v7.921a.114.114 0 0 0 .113.113h3.572a.114.114 0 0 0 .113-.113V3.284a.114.114 0 0 0-.113-.113Z" class="msportalfx-svg-c01" fill="#ffffff"></path></g><defs>
<linearGradient id="59616712-f700-4139-92c6-bd98d17f0281" x1="9" y1="13.245" x2="9" y2="1.245" gradientUnits="userSpaceOnUse"><stop offset="0" stop-color="#0078d4"></stop><stop offset=".817" stop-color="#5ea0ef"></stop></linearGradient>
<linearGradient id="59616712-f700-4139-92c6-bd98d17f0282" x1="9.003" y1="17.88" x2="9.003" y2="13.245" gradientUnits="userSpaceOnUse"><stop offset=".149" stop-color="#ccc"></stop><stop offset="1" stop-color="#707070"></stop></linearGradient>
</defs>
</svg>