<svg data-slug-id="content-moderator" xmlns="http://www.w3.org/2000/svg" viewBox="0 0 61 61">
<path d="M45.0195 27.2069C45.0195 34.5515 38.2999 43.498 30.7208 45.0607C23.1418 43.498 16.4222 34.5515 16.4222 27.2069V19.8231C16.5394 19.7059 16.6566 19.5887 16.8519 19.4715C17.5551 18.9246 18.3756 18.3386 19.4304 17.7916C22.3995 16.2289 26.15 15.2913 30.7208 15.2913C35.2917 15.2913 39.0422 16.2289 42.0113 17.7916C43.0271 18.3386 43.8866 18.8855 44.5898 19.4715C44.746 19.5887 44.9023 19.745 45.0195 19.8231V27.2069V27.2069ZM47.3245 18.4558C47.1291 18.2214 46.7775 17.9088 46.2697 17.4791C45.4493 16.815 44.4335 16.1508 43.2615 15.5257C39.9407 13.7677 35.7605 12.752 30.7599 12.752C25.7593 12.752 21.5791 13.8068 18.2584 15.5257C17.0863 16.1508 16.0706 16.815 15.2502 17.4791C14.7423 17.9088 14.3907 18.2214 14.1954 18.4558L13.8828 18.8074V27.1678C13.8828 35.8017 21.5791 45.9592 30.5255 47.6L30.7599 47.6391L30.9943 47.6C39.9408 45.9202 47.637 35.7626 47.637 27.1678V18.8074L47.3245 18.4558Z" fill="#0078D4"></path>
<path d="M30.7268 36.0117C30.1018 36.0117 29.5548 36.2071 29.086 36.6368C28.6563 37.0665 28.4219 37.6135 28.4219 38.2776C28.4219 38.9027 28.6563 39.4496 29.047 39.8794C29.4767 40.3091 30.0236 40.5435 30.6878 40.5435C31.3519 40.5435 31.8989 40.3091 32.3286 39.8794C32.7584 39.4496 32.9537 38.9027 32.9537 38.2386C32.9537 37.6135 32.7584 37.0665 32.3286 36.6368C31.9379 36.2461 31.391 36.0117 30.7268 36.0117Z" fill="#0078D4"></path>
<path d="M29.1484 33.4901H31.7269V18.5664H29.1484V33.4901Z" fill="#0078D4"></path>
</svg>