<svg data-slug-id="build15" viewBox="0 0 49 49" xmlns="http://www.w3.org/2000/svg"><path d="M35.9946 0.515625H48.2035V12.7245H43.1516V5.56757H35.9946V0.515625Z" fill="#0078D4"/><path d="M19.5705 12.7206H14.5186V0.511719H26.7274V5.56366H19.5705V12.7206Z" fill="#0078D4"/><path d="M43.1516 21.9531H48.2035V34.162H35.9946V29.11H43.1516V21.9531Z" fill="#0078D4"/><path d="M14.5186 34.1698V21.9609H19.5705V29.1179H26.7274V34.1698H14.5186Z" fill="#0078D4"/><path d="M24.2066 19.884C22.8089 19.884 21.6807 18.7557 21.6807 17.358C21.6807 15.9603 22.8089 14.832 24.2066 14.832C25.6043 14.832 26.7326 15.9603 26.7326 17.358C26.7326 18.7473 25.5959 19.884 24.2066 19.884Z" fill="#50E6FF"/><path d="M31.3634 12.7277C29.9657 12.7277 28.8374 11.5995 28.8374 10.2018C28.8374 8.80405 29.9657 7.67578 31.3634 7.67578C32.7611 7.67578 33.8893 8.80405 33.8893 10.2018C33.8893 11.591 32.7527 12.7277 31.3634 12.7277Z" fill="#50E6FF"/><path d="M38.5206 19.884C37.1229 19.884 35.9946 18.7557 35.9946 17.358C35.9946 15.9603 37.1229 14.832 38.5206 14.832C39.9183 14.832 41.0466 15.9603 41.0466 17.358C41.0466 18.7473 39.9099 19.884 38.5206 19.884Z" fill="#50E6FF"/><path d="M31.3634 27.0402C29.9657 27.0402 28.8374 25.912 28.8374 24.5143C28.8374 23.1165 29.9657 21.9883 31.3634 21.9883C32.7611 21.9883 33.8893 23.1165 33.8893 24.5143C33.8893 25.9035 32.7527 27.0402 31.3634 27.0402Z" fill="#50E6FF"/><path d="M31.3634 19.884C29.9657 19.884 28.8374 18.7557 28.8374 17.358C28.8374 15.9603 29.9657 14.832 31.3634 14.832C32.7611 14.832 33.8893 15.9603 33.8893 17.358C33.8893 18.7473 32.7527 19.884 31.3634 19.884Z" fill="#50E6FF"/><path d="M2.73496 5.56757C1.33725 5.56757 0.208984 4.4393 0.208984 3.0416C0.208984 1.64389 1.33725 0.515625 2.73496 0.515625C4.13266 0.515625 5.26093 1.64389 5.26093 3.0416C5.26093 4.43088 4.12424 5.56757 2.73496 5.56757Z" fill="#50E6FF"/><path d="M12.4182 0.515625H7.36621V5.56757H12.4182V0.515625Z" fill="#50E6FF"/><path d="M5.26142 7.67578H0.209473V12.7277H5.26142V7.67578Z" fill="#50E6FF"/><path d="M12.4182 7.67578H7.36621V12.7277H12.4182V7.67578Z" fill="#50E6FF"/><path d="M5.26142 14.832H0.209473V19.884H5.26142V14.832Z" fill="#50E6FF"/><path d="M9.89218 19.884C8.49448 19.884 7.36621 18.7557 7.36621 17.358C7.36621 15.9603 8.49448 14.832 9.89218 14.832C11.2899 14.832 12.4182 15.9603 12.4182 17.358C12.4182 18.7473 11.2815 19.884 9.89218 19.884Z" fill="#50E6FF"/><path d="M5.26142 29.1445H0.209473V34.1965H5.26142V29.1445Z" fill="#50E6FF"/><path d="M12.4182 36.3008H7.36621V41.3527H12.4182V36.3008Z" fill="#50E6FF"/><path d="M45.6773 48.5129C44.2796 48.5129 43.1514 47.3846 43.1514 45.9869C43.1514 44.5892 44.2796 43.4609 45.6773 43.4609C47.075 43.4609 48.2033 44.5892 48.2033 45.9869C48.2033 47.3762 47.0666 48.5129 45.6773 48.5129Z" fill="#50E6FF"/><path d="M33.8893 43.4609H28.8374V48.5129H33.8893V43.4609Z" fill="#50E6FF"/><path d="M41.0466 36.3008H35.9946V41.3527H41.0466V36.3008Z" fill="#50E6FF"/><path d="M17.0494 48.5129C15.6517 48.5129 14.5234 47.3846 14.5234 45.9869C14.5234 44.5892 15.6517 43.4609 17.0494 43.4609C18.4471 43.4609 19.5754 44.5892 19.5754 45.9869C19.5754 47.3762 18.4387 48.5129 17.0494 48.5129Z" fill="#50E6FF"/><path d="M12.4182 43.4609H7.36621V48.5129H12.4182V43.4609Z" fill="#50E6FF"/><path d="M26.7326 36.3008H21.6807V41.3527H26.7326V36.3008Z" fill="#50E6FF"/></svg>