<svg xmlns="http://www.w3.org/2000/svg" width="118.284" height="38.399" viewBox="0 0 118.284 38.399">
  <g id="Layer_2" data-name="Layer 2">
    <g id="Layer_1-2" data-name="Layer 1">
      <path d="M41.078,29.5H19.672V8.091H41.078ZM21.219,27.951H39.531V9.639H21.219Z" fill="#00a2f2"/>
      <path d="M100.386,29.5H78.979V8.091h21.406ZM80.526,27.951H98.839V9.639H80.526Z" fill="#00a2f2"/>
      <path d="M77.083,19.567H74.5a.516.516,0,0,1,0-1.031h2.579a.516.516,0,0,1,0,1.031Zm-5.157,0H69.348a.516.516,0,0,1,0-1.031h2.579a.516.516,0,1,1,0,1.031Zm-5.157,0H64.19a.516.516,0,0,1,0-1.031h2.579a.516.516,0,0,1,0,1.031Zm-5.157,0H59.033a.516.516,0,0,1,0-1.031h2.579a.516.516,0,0,1,0,1.031Zm-5.157,0H53.876a.516.516,0,1,1,0-1.031h2.579a.516.516,0,0,1,0,1.031Zm-5.157,0H48.719a.516.516,0,0,1,0-1.031H51.3a.516.516,0,0,1,0,1.031Zm-5.157,0H43.728a.516.516,0,1,1,0-1.031H46.14a.516.516,0,1,1,0,1.031Z" fill="#00a2f2"/>
      <g opacity="0.2">
        <path d="M15.474,33.778H12.895a.516.516,0,1,1,0-1.031h2.063V30.159a.516.516,0,0,1,1.031,0v2.579a.513.513,0,0,1-.071.262.516.516,0,0,1-.444.778Zm-5.157,0H7.738a.516.516,0,1,1,0-1.031h2.579a.516.516,0,0,1,0,1.031Zm-5.157,0H2.581a.516.516,0,1,1,0-1.031H5.159a.516.516,0,1,1,0,1.031ZM.516,33.264A.516.516,0,0,1,0,32.748V30.17a.516.516,0,1,1,1.031,0v2.579A.516.516,0,0,1,.516,33.264Zm0-5.157A.516.516,0,0,1,0,27.591V25.012a.516.516,0,0,1,1.031,0v2.579A.516.516,0,0,1,.516,28.107Zm14.958-.01a.516.516,0,0,1-.516-.516V25a.516.516,0,0,1,1.031,0v2.579A.516.516,0,0,1,15.474,28.1ZM.516,22.949A.516.516,0,0,1,0,22.434V19.855a.516.516,0,1,1,1.031,0v2.579A.516.516,0,0,1,.516,22.949Zm14.958-.01a.516.516,0,0,1-.516-.516V19.845a.516.516,0,1,1,1.031,0v2.579A.516.516,0,0,1,15.474,22.939Zm-1.037-4.12H11.858a.516.516,0,1,1,0-1.031h2.579a.516.516,0,1,1,0,1.031Zm-5.157,0H6.7a.516.516,0,1,1,0-1.031H9.279a.516.516,0,1,1,0,1.031Zm-5.157,0H1.543a.516.516,0,1,1,0-1.031H4.122a.516.516,0,1,1,0,1.031Z" fill="#00a2f2"/>
      </g>
      <g opacity="0.2">
        <path d="M118.284,14.557H115.19a.516.516,0,0,1,0-1.031h2.063v-.669a.516.516,0,1,1,1.031,0Zm-5.673,0h-2.579a.516.516,0,1,1,0-1.031h2.579a.516.516,0,1,1,0,1.031Zm-4.164-.993a.516.516,0,0,1-.516-.516V10.469a.516.516,0,1,1,1.031,0v2.579A.516.516,0,0,1,108.447,13.564Zm9.321-2.77a.516.516,0,0,1-.516-.516V7.7a.516.516,0,1,1,1.031,0v2.579A.516.516,0,0,1,117.768,10.794Zm-9.321-2.387a.516.516,0,0,1-.516-.516V5.312a.516.516,0,1,1,1.031,0V7.891A.516.516,0,0,1,108.447,8.407Zm9.321-2.77a.516.516,0,0,1-.5-.4h-1.675a.516.516,0,1,1,0-1.031h2.693v.917A.516.516,0,0,1,117.768,5.637Zm-4.756-.4h-2.579a.516.516,0,1,1,0-1.031h2.579a.516.516,0,1,1,0,1.031Z" fill="#00a2f2"/>
      </g>
      <g opacity="0.2">
        <path d="M74.565,9.519H71.987a.516.516,0,0,1,0-1.031H74.05V6a.516.516,0,0,1,1.031,0V8.574a.514.514,0,0,1-.047.215.516.516,0,0,1-.469.73Zm-5.157,0H66.829a.516.516,0,0,1,0-1.031h2.579a.516.516,0,1,1,0,1.031ZM66.078,7.692a.516.516,0,0,1-.516-.516V4.6a.516.516,0,1,1,1.031,0V7.177A.516.516,0,0,1,66.078,7.692Zm8.488-3.76a.516.516,0,0,1-.516-.516V.839a.516.516,0,0,1,1.031,0V3.417A.516.516,0,0,1,74.565,3.933Zm-8.488-1.4a.516.516,0,0,1-.516-.516V0h1.59a.516.516,0,0,1,0,1.031h-.559V2.02A.516.516,0,0,1,66.078,2.535Zm6.232-1.5H69.731a.516.516,0,0,1,0-1.031h2.579a.516.516,0,0,1,0,1.031Z" fill="#00a2f2"/>
      </g>
      <g opacity="0.2">
        <rect x="46.738" y="4.642" width="8.488" height="8.488" fill="#22a6ff"/>
      </g>
      <g opacity="0.2">
        <path d="M55.741,38.4h-1.59a.516.516,0,1,1,0-1.031h.559V36.38a.516.516,0,0,1,1.031,0Zm-4.169,0H48.994a.516.516,0,1,1,0-1.031h2.579a.516.516,0,0,1,0,1.031Zm-4.834-.323a.516.516,0,0,1-.516-.516V34.982a.516.516,0,0,1,1.031,0v2.579A.516.516,0,0,1,46.738,38.077Zm8.488-3.76a.516.516,0,0,1-.516-.516V31.223a.516.516,0,1,1,1.031,0V33.8A.516.516,0,0,1,55.226,34.317Zm-8.488-1.4a.516.516,0,0,1-.516-.516V29.825a.514.514,0,0,1,.047-.215.516.516,0,0,1,.469-.73h2.579a.516.516,0,0,1,0,1.031H47.254V32.4A.516.516,0,0,1,46.738,32.919Zm7.736-3.008H51.9a.516.516,0,0,1,0-1.031h2.579a.516.516,0,0,1,0,1.031Z" fill="#00a2f2"/>
      </g>
      <g opacity="0.2">
        <rect x="66.078" y="25.27" width="8.488" height="8.488" transform="translate(140.643 59.029) rotate(180)" fill="#22a6ff"/>
      </g>
      <path d="M30.5,16.084,34,22.15H26.994l3.5-6.067m0-3.094L24.314,23.7H36.679L30.5,12.989Z" fill="#00a2f2"/>
      <path d="M89.648,14.966a4.263,4.263,0,1,1-4.263,4.263,4.268,4.268,0,0,1,4.263-4.263m0-1.383a5.646,5.646,0,1,0,5.646,5.646,5.646,5.646,0,0,0-5.646-5.646Z" fill="#00a2f2"/>
    </g>
  </g>
</svg>
