<svg id="svg-custom-vision-service" viewBox="0 0 61 61">
<path d="M30.6747 42.4469C23.4146 43.2487 12.9922 35.855 12.9922 30.1538C12.9922 24.5862 22.2566 17.5934 30.6747 17.6825C39.8055 17.7716 48.3127 25.1653 48.3127 30.1538C48.3127 35.4096 38.6475 42.9814 30.6747 42.4469ZM30.6747 20.0431C27.4678 20.0431 23.4146 21.1566 20.2523 23.6509C17.4462 25.8334 14.8629 28.8176 15.3083 30.3765C16.6 35.0978 23.6819 40.1754 30.6302 40.2199C38.3357 40.2645 45.9521 33.5389 45.9521 30.1538C45.9521 26.9469 38.3357 20.0431 30.6747 20.0431Z" fill="#0078D4"></path>
<path d="M36.6876 30.9104V29.3069L35.1287 28.9061C35.0396 28.5052 34.8615 28.1489 34.6388 27.7926L35.485 26.4118L34.3715 25.2983L32.9462 26.1446C32.5899 25.9664 32.2336 25.7882 31.8327 25.6992L31.4319 24.0957H29.8284L29.4721 25.6992C29.0712 25.7882 28.7149 25.9664 28.3586 26.1446L26.9333 25.2983L25.8198 26.4118L26.666 27.8371C26.4879 28.1934 26.3097 28.5497 26.2206 28.9506L24.6172 29.3515V30.9549L26.2206 31.3558C26.3097 31.7567 26.4879 32.113 26.666 32.4693L25.8198 33.8946L26.9333 35.0081L28.314 34.1618C28.6704 34.3845 29.0267 34.5182 29.4276 34.6072L29.8284 36.2107H31.4319L31.8327 34.6518C32.2336 34.5627 32.6345 34.3845 32.9462 34.2064L34.327 35.0526L35.4405 33.9391L34.5942 32.5584C34.8169 32.2021 34.9506 31.8457 35.0842 31.4003L36.6876 30.9104ZM30.6747 32.5584C29.3385 32.5584 28.225 31.4449 28.225 30.1087C28.225 28.7724 29.3385 27.6589 30.6747 27.6589C32.0109 27.6589 33.1244 28.7724 33.1244 30.1087C33.1244 31.4449 32.0109 32.5584 30.6747 32.5584Z" fill="#0078D4"></path>
</svg>