<svg xmlns="http://www.w3.org/2000/svg" viewBox="0 0 49 49" fill="none"><path d="M45.5804 3.18127H15.264V48.6559H45.5804V3.18127Z" fill="#0078D4"/><path d="M40.5257 0.653931H20.3148V5.70666H40.5257V0.653931Z" fill="#50E6FF"/><path d="M34.6317 23.3924L27.8948 16.6554L33.9665 10.5837C31.7064 9.64433 29.2202 9.38927 26.8164 9.8502C24.4127 10.3111 22.1972 11.4678 20.4449 13.1766C18.6926 14.8853 17.4807 17.0711 16.9595 19.4625C16.4383 21.8539 16.6308 24.3457 17.5131 26.6287L4.1107 40.0302C3.16685 40.9799 2.63708 42.2644 2.63708 43.6033C2.63708 44.9422 3.16685 46.2268 4.1107 47.1764C5.06037 48.1203 6.3449 48.6501 7.68383 48.6501C9.02275 48.6501 10.3073 48.1203 11.257 47.1764L24.6585 33.7741C26.9414 34.6562 29.4331 34.8487 31.8243 34.3275C34.2156 33.8063 36.4012 32.5945 38.11 30.8423C39.8187 29.0902 40.9754 26.8749 41.4364 24.4713C41.8974 22.0677 41.6426 19.5816 40.7034 17.3215L34.6317 23.3924ZM9.46997 45.3895C9.11668 45.7429 8.66653 45.9836 8.17644 46.0811C7.68635 46.1786 7.17834 46.1286 6.71667 45.9375C6.25499 45.7463 5.86038 45.4225 5.58274 45.007C5.30511 44.5915 5.15692 44.103 5.15692 43.6033C5.15692 43.1036 5.30511 42.6152 5.58274 42.1997C5.86038 41.7842 6.25499 41.4604 6.71667 41.2692C7.17834 41.078 7.68635 41.028 8.17644 41.1256C8.66653 41.2231 9.11668 41.4638 9.46997 41.8172C9.94359 42.2909 10.2097 42.9334 10.2097 43.6033C10.2097 44.2732 9.94359 44.9157 9.46997 45.3895Z" fill="#50E6FF"/></svg>