<svg viewBox="0 0 18 18" class="" role="presentation" focusable="false" xmlns="http://www.w3.org/2000/svg" xmlns:xlink="http://www.w3.org/1999/xlink" id="FxSymbol0-0ed" data-type="1"><g><path d="M8.85 0a8.85 8.85 0 1 0 1.588 17.553l-.261-.225-.762-.773a.449.449 0 0 1-.087-.507l.505-1.07-.153-.37-.942-.308-.154-.045a.449.449 0 0 1-.323-.431v-1.086a.448.448 0 0 1 .3-.422l1.118-.4.153-.368-.459-.894-.073-.146a.45.45 0 0 1 .084-.524l.764-.756a.449.449 0 0 1 .512-.085l1.074.52.375-.141.3-.9a.444.444 0 0 1 .108-.174l.055-.055a.449.449 0 0 1 .318-.131h1.072a.45.45 0 0 1 .419.285l.39 1 .358.1.925-.474.146-.073a.438.438 0 0 1 .2-.048.448.448 0 0 1 .319.132l.416.418.342.345a.448.448 0 0 1 .123.234 8.95 8.95 0 0 0 .1-1.329A8.85 8.85 0 0 0 8.85 0Z" fill="#0078d4"></path><path d="M9.415 16.555a.449.449 0 0 1-.087-.507l.505-1.07-.153-.37-.942-.308-.154-.045a.449.449 0 0 1-.323-.431v-1.086a.448.448 0 0 1 .3-.422l1.118-.4.153-.368-.459-.894-.073-.146a.45.45 0 0 1 .084-.524l.764-.756a.449.449 0 0 1 .512-.085l1.074.52.375-.141.3-.9a.444.444 0 0 1 .108-.174l.055-.055a.449.449 0 0 1 .318-.131h1.072a.45.45 0 0 1 .419.285l.39 1 .358.1.925-.474.146-.073a.366.366 0 0 1 .3-.03v-.048a7.648 7.648 0 1 0-7.65 7.646c.217 0 .431-.015.644-.033Z" fill="url(#59616712-f700-4139-92c6-bd98d17f0283)"></path><path d="m9.833 14.978-.153-.37-.942-.308-.154-.045a.449.449 0 0 1-.323-.431v-1.086a.448.448 0 0 1 .3-.422l1.118-.4.153-.368-.459-.894-.073-.146a.45.45 0 0 1 .084-.524l.764-.756a.449.449 0 0 1 .512-.085l1.074.52.375-.141.3-.9a.444.444 0 0 1 .108-.174l.055-.055a.449.449 0 0 1 .318-.131h1.072a.45.45 0 0 1 .419.285l.39 1 .276.078a6.242 6.242 0 1 0-6.2 5.515 6.16 6.16 0 0 0 .946-.08Z" fill="#5ea0ef"></path><path d="M8.261 12.738a.448.448 0 0 1 .3-.422l1.118-.4.153-.368-.459-.894-.073-.146a.45.45 0 0 1 .084-.524l.764-.756a.449.449 0 0 1 .512-.085l1.074.52.375-.141.3-.9a.444.444 0 0 1 .108-.174l.055-.055a.449.449 0 0 1 .318-.131h.049a4.147 4.147 0 1 0-4.679 4.777Z" fill="#005ba1"></path><circle cx="7.484" cy="7.406" r="1.246" fill="#83b9f9"></circle><circle cx="8.85" cy="8.977" r=".553" fill="#83b9f9"></circle><path d="M18 13.772v-1.079l-.058-.054-1.1-.373-.285-.743.547-1.134.058-.128-.342-.344-.42-.417-.144.073-1.079.553-.744-.208-.47-1.208h-1.072l-.055.055-.372 1.1-.755.283-1.248-.6-.761.752.073.142.553 1.078-.308.743-1.3.471v1.086l.154.045 1.152.381.309.743-.59 1.251.762.773.145-.073 1.08-.553.743.308.473 1.3h1.079l.045-.154.381-1.152.735-.309 1.261.59.763-.762-.073-.145-.553-1.08.213-.755Zm-4.545 1a1.515 1.515 0 1 1 1.506-1.524v.009a1.517 1.517 0 0 1-1.506 1.514Z" fill="#50e6ff"></path></g><defs>
<linearGradient id="59616712-f700-4139-92c6-bd98d17f0283" x1="8.85" y1="16.668" x2="8.85" y2="1.372" gradientUnits="userSpaceOnUse"><stop offset="0" stop-color="#5ea0ef"></stop><stop offset="1" stop-color="#0078d4"></stop></linearGradient>
</defs>
</svg>