<?xml version="1.0" encoding="utf-8"?>
<!-- Generator: Adobe Illustrator 21.1.0, SVG Export Plug-In . SVG Version: 6.00 Build 0)  -->
<svg version="1.1" id="Layer_1" xmlns="http://www.w3.org/2000/svg" xmlns:xlink="http://www.w3.org/1999/xlink" x="0px" y="0px" viewBox="0 0 376 260" style="enable-background:new 0 0 376 260;" xml:space="preserve">
<style type="text/css">
	.st0{fill:#B2B2B2;}
	.st1{fill:#00ABEC;}
	.st2{fill:#33BCF0;}
	.st3{fill:#FFFFFF;}
</style>

<g id="Layer_2">
	<g id="Layer_1-2">
		<path class="st0" d="M225.2,190l-5.2-0.7c0.1-1.1-0.1-2.2-0.6-3.2l4.5-2.6c0.6-0.6,1.3-1.3,0.6-1.9l-1.3-3.2    c0-0.6-0.6-0.6-1.3-0.6l-5.2,1.3c-0.6-1.3-1.3-1.9-1.9-3.2l3.2-3.9V170l-2.6-1.9c-0.5-0.5-1.2-0.7-1.9-0.6l-3.9,3.2    c-1.3-0.6-1.9-1.3-3.2-1.9l1.3-4.5c0.4-0.5,0.3-1.3-0.2-1.7c-0.1-0.1-0.3-0.2-0.4-0.2l-3.2-1.3c-0.6,0-1.3,0-1.3,0.6l-2.6,4.5    c-1.2-0.5-2.6-0.7-3.9-0.6l-0.6-5.2c0-0.7-0.6-1.2-1.3-1.3h-3.3c-0.7,0-1.2,0.6-1.3,1.3l-1.3,5.2c-1.1,0-2.2,0.2-3.2,0.6l-2.6-4.5    c0-0.6-0.6-1.3-1.3-0.6l-3.2,1.3c-0.6,0-1.3,0.6-0.6,1.3l1.3,5.2c-1.2,0.5-2.2,1.2-3.2,1.9l-4.5-3.2c0,0-1.3,0-1.3,0.6L167,170    c-0.5,0.4-0.7,1.2-0.3,1.7c0.1,0.1,0.2,0.2,0.3,0.3l3.2,3.9c-0.6,1.3-1.3,1.9-1.9,3.2l-5.2-1.3c-0.6-0.6-1.3,0-1.3,0.6l-1.3,3.2    c-0.4,0.3-0.4,0.9,0,1.3c0,0,0,0,0,0l4.5,2.6c0,1.3-0.6,2.6-0.6,3.9l-5.2,0.6c-0.7,0-1.3,0.6-1.3,1.3v3.2c0,0.7,0.6,1.2,1.3,1.3    l5.2,1.3c0,0.6,0.6,1.9,0.6,3.2l-4.5,2.6c-0.6,0-0.6,0.6-0.6,1.3l1.3,3.2c0.6,0.6,1.3,1.3,1.9,0.6l5.2-0.6c0,0.6,1.3,1.9,1.9,2.6    l-3.2,4.5c-0.6,0-0.6,1.3,0,1.3l2.6,2.6c0,0.6,1.3,0.6,1.3,0l4.5-3.2c0.6,0.6,1.9,1.3,2.6,1.9l-1.3,5.2c0,0.6,0,1.3,0.6,1.3l3.2,2    c0.7,0.1,1.4-0.1,1.9-0.6l2.6-4.5c1.3,0,2.6,0.6,3.2,0.6l1.3,5.2c0,0.7,0.6,1.2,1.3,1.3h3.2c0.7,0,1.2-0.6,1.3-1.3l0.6-5.2    c1.3,0,2.6-0.6,3.2-0.6l2.6,4.5c0.5,0.5,1.2,0.7,1.9,0.6l3.2-1.3c0.5-0.5,0.7-1.2,0.6-1.9l-1.3-5.2c1.3,0,1.9-0.6,3.2-1.9l3.9,3.2    c0.4,0.5,1.2,0.7,1.7,0.3c0.1-0.1,0.2-0.2,0.3-0.3l2.6-2.6v-1.3l-3.2-4.5c0.6-0.6,1.3-1.9,1.9-2.6l5.2,1.3c0,0,1.3,0,1.3-0.6    l1.3-3.2c0.1-0.7-0.1-1.4-0.6-1.9l-4.5-2.5c0.5-1,0.7-2.1,0.6-3.2l5.2-1.3c0.7-0.1,1.3-0.6,1.3-1.3v-3.2    C226.5,190.7,225.9,190.1,225.2,190L225.2,190z M213.6,198.4c-0.6,1.3-1.9,1.9-2.6,1.3l-9.1-5.2c-0.6-0.7-0.6-1.8,0-2.6l9.1-5.2    c0.7-0.6,1.7-0.6,2.3,0.1c0.1,0.2,0.3,0.3,0.3,0.5c0.4,1.9,0.6,3.9,0.6,5.8C214.2,195,214,196.7,213.6,198.4L213.6,198.4z     M211,182.3c0.6,0.7,0.6,1.7-0.1,2.3c-0.2,0.1-0.3,0.3-0.5,0.3l-10.4,1.9c-1.3,0.6-1.9-0.6-1.3-1.3l1.9-10.4c0.3-0.8,1.2-1.3,2-1    c0.2,0.1,0.4,0.2,0.5,0.3c1.7,0.9,3.2,1.9,4.5,3.2C209,179.1,210.1,180.6,211,182.3L211,182.3z M187,171.9    c1.7-0.4,3.5-0.6,5.2-0.6c2,0.1,3.9,0.3,5.8,0.6c1.3,0,1.3,1.3,0.6,2.6l-5.2,8.4c-0.2,0.7-1,1.1-1.7,0.9c-0.4-0.1-0.8-0.5-0.9-0.9    l-5.2-8.4C185.1,173.2,185.8,171.9,187,171.9L187,171.9z M198,193.3c0,2.6-2.6,5.2-5.8,5.2c-2.8-0.2-5-2.4-5.2-5.2    c0-2.8,2.2-5.1,5-5.2c0.1,0,0.1,0,0.2,0C195.5,188.1,198.1,190,198,193.3L198,193.3z M181.2,173.9c1.3-0.6,2.6,0,2.6,1.3l2.6,9.7    c0.1,0.9-0.5,1.8-1.4,1.9c-0.2,0-0.3,0-0.5,0l-9.7-2.6c-1.3,0-1.9-1.3-1.3-2.6c0.9-1.7,1.9-3.2,3.2-4.5    C178,175.8,179.5,174.7,181.2,173.9z M170.9,198.4c-0.4-1.9-0.6-3.9-0.6-5.8c0-1.7,0.2-3.5,0.6-5.2c0.6-1.3,1.9-1.9,2.6-1.3    l9.1,5.2c0.6,0.7,0.6,1.8,0,2.6l-9.1,5.2c-0.7,0.6-1.7,0.6-2.3-0.1C171,198.8,170.9,198.6,170.9,198.4L170.9,198.4z M173.4,203.6    c-0.4-0.5-0.3-1.3,0.2-1.7c0.1-0.1,0.3-0.2,0.4-0.2l10.4-2.6c1.3-0.6,1.9,0.6,1.3,1.9l-1.9,9.7c-0.5,0.9-1.6,1.5-2.6,1.3    c-1.6-1.2-3.1-2.5-4.5-3.9C175.3,206.8,174.3,205.3,173.4,203.6L173.4,203.6z M197.4,214c-1.7,0.4-3.4,0.6-5.2,0.6    c-2-0.1-3.9-0.3-5.8-0.6c-1.3,0-1.3-1.3-0.6-2.6l5.2-8.4c0.2-0.7,1-1.1,1.7-0.9c0.4,0.1,0.8,0.5,0.9,0.9l5.2,8.4    C199.3,212.7,198.7,214,197.4,214L197.4,214z M203.2,212c-1.3,0.6-2.6,0-2.6-1.3L198,201c-0.1-0.9,0.5-1.8,1.4-1.9    c0.2,0,0.3,0,0.5,0l9.7,2.6c1.3,0,1.9,1.3,1.3,2.6c-0.9,1.7-1.9,3.2-3.2,4.5C206.4,210.1,204.9,211.2,203.2,212z" />
		<polygon class="st1" points="227.1,211.3 227.1,193.9 219.8,193.9 218.6,193.9 157.9,193.9 157.9,258.9 222.6,258.9 222.6,231.3     236.1,231.3 227.1,211.3 227.1,211.3   " />
		<path class="st2" d="M227.1,193.9c0,0-41.5,1.2-69.2,65v-65H227.1z" />
		<path class="st0" d="M177.5,128l1.3,1.9v1.3l0,0c-0.4,0-0.6,0.3-0.6,0.6c0,0,0,0,0,0.1c0,0.7-0.7,0.7-1.3,0.7h-2    c-0.4,0-0.6,0.3-0.7,0.6c0,0,0,0,0,0l-0.7,2l0.7,0.7l2,0.7c0.7,0,1.3,0,1.3,0.7v2.6l-2,1.3v0.7l1.3,1.3c0,0.4,0.3,0.6,0.6,0.7    c0,0,0,0,0,0l2-1.3c0.7-0.7,0.7,0,1.3,0c0.4,0,0.6,0.3,0.7,0.6c0,0,0,0,0,0c0.7,0,0.7,0,0.7,1.3v2l0.7,0.7h2    c0.4,0,0.6-0.3,0.7-0.6c0,0,0,0,0,0l0.7-2c0-0.7,0-0.7,0.7-0.7l0,0c0.7,0,0.7-0.7,1.3-0.7l0,0c0.5,0,1,0.3,1.3,0.7l1.3,1.3    c0,0.7,0.7,0.7,0.7,0l1.3-0.7c0.7-0.7,0.7-0.7,0.7-1.3l-1.3-1.3c-0.7-0.7-0.7-1.3,0-1.3v-0.7l0.7-0.7l0,0c0-0.4,0.3-0.6,0.6-0.7    c0,0,0,0,0,0h2.6c0.4,0,0.6-0.3,0.7-0.6c0,0,0,0,0,0v-1.3c0-0.7,0-0.7-0.7-0.7l-2-0.7c-0.7,0-0.7-0.7-0.7-1.3l0,0l-0.7-0.7l0,0    c0-0.7,0-0.7,0.7-1.3l1.3-1.3c0.4-0.3,0.4-0.9,0-1.3c0,0,0,0,0,0l-0.7-1.3h-1.3l-1.3,1.3h-2c0-0.7,0-0.7-0.7-0.7l0,0    c-0.7,0-0.7-0.7-0.7-1.3v-2c0-0.7,0-0.7-0.7-0.7l-1.3-0.7c-0.4,0-0.6,0.3-0.7,0.6c0,0,0,0,0,0l-0.7,2c0,0.7-0.6,1.3-1.3,1.3h-1.9    l-1.3-2h-1.3l-1.3,1.3L177.5,128L177.5,128z M188.6,133.2c1.1,1.9,0.9,4.3-0.7,5.9c-1.9,1.1-4.3,0.9-5.9-0.7    c-1.3-2-1.3-4.6,0.7-5.9S187.3,131.2,188.6,133.2z" />
		<path class="st0" d="M210.2,97.3l-4.5-2.6l0,0v-3.2l0,0l3.9-3.3c0.5-0.5,0.7-1.2,0.7-2c-0.7-0.6-1.3-1.3-2-0.6l-5.2,0.7l0,0    c-0.7-0.7-1.3-1.3-2-1.3v-5.2c0.7-1.3,0-2-0.7-2c-0.6-0.4-1.3-0.3-1.8,0.2c-0.1,0.1-0.2,0.3-0.2,0.4l-3.2,4.6h-2.6l-3.3-3.9    c-0.6-0.7-1.3-1.3-1.9-0.7c-0.7,0-1.3,1.3-1.3,2l1.3,5.2l0,0l-2,2l0,0l-5.2-0.6c-0.7,0-1.3,0.6-1.3,1.3c-0.7,0.7,0,1.3,0.7,2    l3.9,2.6c-0.1,1.1,0.1,2.2,0.6,3.2l-3.9,2.6c-0.7,0.7-1.3,2-0.7,2.6c0,0.7,1.3,0.7,2,0.7l4.6-1.3c0.7,1.3,1.3,2,2.6,2l-0.7,5.2    c0,0.7,0.7,2,1.3,2c0.7,0.1,1.4-0.2,2-0.7l2.6-4.6h2.6l3.3,3.9c0.7,0.7,1.3,0.7,2.6,0.7c0.5-0.5,0.7-1.2,0.7-2l-1.3-5.2l2-2    l5.2,0.7c0.7,0,1.3-0.7,2-1.3C210.9,98.6,210.9,97.3,210.2,97.3L210.2,97.3z M192.7,100.5c-3.7-1.2-5.8-5.1-4.6-8.8    c0-0.1,0.1-0.2,0.1-0.2c1.2-3.7,5.1-5.8,8.8-4.6c0.1,0,0.2,0.1,0.2,0.1c3.5,1.5,5.2,5.5,3.9,9.1    C199.8,99.9,195.9,101.8,192.7,100.5L192.7,100.5z" />
		<path class="st0" d="M177,153.7h1.3l1.3-1.9v-0.6l-1.3-1.9c-0.6,0-0.6-0.6-1.3-0.6h-1.9l-0.6-0.6l-1.9-4.5v-1.3l1.3-1.3    c0.6,0,0.6-0.6,0.6-1.3v-1.9c0-0.3-0.3-0.6-0.6-0.6c0,0,0,0,0,0H170l-1.3,1.3c0,0.6-0.6,0.6-0.6,0l-4.5-1.3    c-0.6-0.6-0.6-0.6-0.6-1.3l-0.6-1.9v-0.6l-1.9-1.9h-0.6l-1.9,1.9l-0.6,0.6v1.9c0,0.6-0.6,0.6-0.6,1.3l-4.5,1.3c0,0.6-0.6,0-1.3,0    l-1.3-1.3h-3.2c-0.6,0-0.6,0-0.6,0.6v3.2l1.3,1.3c0,0.6,0.6,0.6,0,1.3l-1.9,4.5c0,0.3-0.3,0.6-0.6,0.6c0,0,0,0,0,0h-1.9    c-0.3,0-0.6,0.3-0.6,0.6c0,0,0,0,0,0l-1.9,1.3v1.3l1.9,1.3c0,0.3,0.3,0.6,0.6,0.6c0,0,0,0,0,0h1.9c0,0.6,0.6,0.6,0.6,1.3l1.9,4.5    v0.7l-1.3,1.3c0,0.6-0.6,1.3,0,1.3v1.9c0,0.6,0,0.6,0.6,0.6l1.9,0.6c0.6,0,0.6-0.6,1.3-0.6l1.3-0.6c0-0.3,0.3-0.6,0.6-0.6    c0,0,0,0,0,0l5.1,2.6c0.3,0,0.6,0.3,0.6,0.6c0,0,0,0,0,0v1.3c0,0.6,0,0.6,0.6,1.3l1.3,1.3h1.3l1.3-1.3c0.6-0.6,0.6-0.6,0.6-1.3    v-1.3c0-0.3,0.3-0.6,0.6-0.6c0,0,0,0,0,0l5.1-1.9c0-0.6,0.6-0.6,0.6,0l1.3,0.6c0.6,0.6,0.6,0.6,1.3,0.6h1.9c0.3,0,0.6-0.3,0.6-0.6    c0,0,0,0,0,0l0.6-2.6l-0.6-0.6l-1.3-1.3v-1.3l1.9-4.5c0-0.6,0.6-0.6,1.3-0.6L177,153.7L177,153.7z M168.7,142.8    c1.2,1.2,1.2,3.2,0,4.5c-1.2,1.2-3.2,1.2-4.5,0c-1.2-1.2-1.2-3.2,0-4.5c0,0,0,0,0,0c1.2-1.2,3.1-1.3,4.4-0.1    C168.6,142.7,168.6,142.8,168.7,142.8z M157.8,149.9c1.3-1.3,3.2-1.3,3.8,0c1.3,0.6,1.3,2.6,0,3.8c-0.6,0.6-2.6,0.6-3.8,0    C157.1,152.4,157.1,150.5,157.8,149.9z M155.9,147.3c-1.2,1.2-3.2,1.2-4.5,0c-1.2-1.2-1.2-3.2,0-4.5c1.2-1.2,3.2-1.2,4.5,0    c0,0,0,0,0,0c1.2,1.2,1.3,3.1,0.1,4.4C156,147.2,155.9,147.3,155.9,147.3z M151.4,160.1c-1.3-1.2-1.4-3.2-0.2-4.5    c1.2-1.3,3.2-1.4,4.5-0.2c0.1,0.1,0.1,0.1,0.2,0.2c1.2,1.3,1.1,3.3-0.2,4.5C154.4,161.2,152.6,161.2,151.4,160.1z M164.2,155.6    c1.2-1.2,3.2-1.2,4.5,0c1.2,1.2,1.2,3.2,0,4.5c-1.2,1.2-3.2,1.2-4.5,0c0,0,0,0,0,0c-1.2-1.2-1.3-3.1-0.1-4.4    C164.1,155.7,164.2,155.7,164.2,155.6z" />
		<path class="st0" d="M214.1,107.9c-9.9,0.6-16.5,8.4-15.8,18.1c0.7,9.2,8.6,16.1,17.8,15.5c9.3-0.8,16.3-8.8,15.8-18.1    C231.2,114.2,223.3,107.3,214.1,107.9z M215.4,132.4c-4.6,0.6-7.9-3.2-8.6-7.1c0-4.5,3.3-8.4,7.9-8.4c3.9-0.6,7.9,2.6,8.6,7.1    C223.3,128.5,220,132.4,215.4,132.4z" />
		<path class="st0" d="M218.1,111.9c-0.1,0.7-0.6,1.2-1.3,1.3h-3.3c-1.3,0-1.3,0-1.3-1.3l0.7-7.1c0.1-0.7,0.6-1.2,1.3-1.3h0.7    c0.7,0,1.3,0.6,1.3,1.3C216.1,104.9,218.1,111.9,218.1,111.9z" />
		<path class="st0" d="M213.3,136.7c0.1-0.7,0.7-1.2,1.3-1.2l3.3-0.6c0.7,0,1.3,0.5,1.3,1.2l-0.7,7.2c-0.1,0.7-0.7,1.2-1.3,1.2h-0.7    c-0.7,0-1.3-0.5-1.3-1.2C215.3,143.3,213.3,136.7,213.3,136.7z" />
		<path class="st0" d="M202.8,122.3c1.4-0.6,2,0,2,0.6v3.6c-0.1,0.7-0.7,1.2-1.4,1.2l-7.4-0.6c-0.8-0.2-1.5-0.6-2-1.2v-1.2    c0.1-0.7,0.7-1.2,1.4-1.2L202.8,122.3L202.8,122.3z" />
		<path class="st0" d="M227.7,126.5c-0.6,0-1.2,0-1.2-1.3v-3.3c0-0.7,0.5-1.3,1.2-1.3l6.6,0.7c0.7,0.1,1.2,0.6,1.2,1.3v0.7    c0.6,0.7,0,2-0.6,2L227.7,126.5z" />
		<path class="st0" d="M207.8,114.1c0.5,0.5,0.7,1.2,0.6,1.9l-2.6,2.6c-0.4,0.5-1.1,0.6-1.7,0.2c-0.1-0.1-0.2-0.2-0.2-0.2l-4.5-5.8    c-0.5-0.4-0.6-1.1-0.2-1.7c0.1-0.1,0.2-0.2,0.2-0.2l0.6-0.6c0-0.6,1.3-0.6,1.9,0L207.8,114.1z" />
		<path class="st0" d="M222.9,134.9c-0.6-0.6-1.2-1.2-0.6-1.8l2.4-2.4c0.6-0.6,1.2-0.6,1.2,0l4.8,4.8c0.6,0.7,0.6,1.7,0,2.4h-0.6    c-0.5,0.5-1.1,0.7-1.8,0.6L222.9,134.9z" />
		<path class="st0" d="M205.5,131.9c0-0.6,1.2-0.6,1.2,0l2.4,1.9c0.5,0.4,0.6,1.2,0.2,1.8c0,0.1-0.1,0.1-0.2,0.2l-4.8,4.5    c-0.3,0.5-1,0.6-1.5,0.3c-0.1-0.1-0.2-0.2-0.3-0.3h-0.6c-0.4-0.6-0.6-1.2-0.6-1.9L205.5,131.9z" />
		<path class="st0" d="M225.3,117.4c-0.5,0.6-1.3,0.6-1.9,0.1c0,0-0.1-0.1-0.1-0.1l-2.8-2.6v-1.3l6.2-5.1h2l0.7,0.6    c0.5,0.4,0.7,1.1,0.3,1.6c-0.1,0.1-0.2,0.2-0.3,0.3L225.3,117.4L225.3,117.4z" />
		<path class="st0" d="M212.6,111.8c0.6,0.6,0,1.3-0.6,1.9l-3.2,1.3c-0.6,0.6-1.3,0-1.3-0.6l-2.6-7.1c0-0.6,0.6-1.3,0.6-1.9h1.3    c0.6-0.6,1.3,0,1.3,0.6L212.6,111.8L212.6,111.8z" />
		<path class="st0" d="M218.7,136.5c-0.6-0.7-0.6-2,0-2l3.2-1.4c0.6-0.7,1.3-0.7,1.9,0.7l2.6,6.8c0,0.7-0.6,2-1.3,2l-0.6,0.7    c-0.7,0.1-1.4-0.2-1.9-0.7L218.7,136.5L218.7,136.5z" />
		<path class="st0" d="M203,126.5c0.6,0,1.2,0,1.2,0.7l1.8,3.5c0,0.7,0,1.4-0.6,1.4l-6.6,2.9c-0.7,0.1-1.4-0.2-1.8-0.7v-0.7    c-0.6-0.7-0.6-2.1,0-2.1L203,126.5L203,126.5z" />
		<path class="st0" d="M227.5,121c-0.7,0.6-1.4,0.6-1.4,0l-2-3.2c-0.1-0.7,0.1-1.5,0.6-2l7.4-1.9c0.7-0.6,1.4,0,2,0.6v0.6    c0.7,0.6,0,1.3,0,1.9L227.5,121z" />
		<path class="st0" d="M204.8,117.7c0.4,0,0.8,0.3,0.9,0.7c0,0.2-0.1,0.5-0.2,0.7l-0.6,3.5c-0.6,0.7-1.3,1.4-1.9,0.7l-6.4-3.5    c-0.6,0-1.3-1.4-0.6-2.1V117c0.6-0.7,1.3-1.4,1.9-0.7L204.8,117.7L204.8,117.7z" />
		<path class="st0" d="M226.5,131.2c-0.7-0.1-1.2-0.6-1.2-1.3l1.2-4c0-0.7,1.2-0.7,1.8-0.7l6,3.9c0.6,0,0.6,0.7,0.6,1.3v0.7    c-0.6,0.7-1.2,1.3-1.8,1.3L226.5,131.2z" />
		<path class="st0" d="M208.6,134.9c0.7-0.6,1.3-1.3,2-0.6l3.3,1.3c0.7,0,0.7,0.6,0.7,1.3l-3.3,6.4c-0.7,0.6-1.3,1.3-2,0.6h-0.6    c-0.7,0-1.3-0.6-1.3-1.9L208.6,134.9L208.6,134.9z" />
		<path class="st0" d="M221.8,113.2c-0.5,1.2-1.1,1.2-1.6,1.2l-2.7-1.2c-0.5,0-0.5-0.6-0.5-1.2l2.7-6.6c0.4-0.5,1-0.7,1.6-0.6    l0.5,0.6c0.6,0.1,1.1,0.6,1.1,1.2C222.9,106.6,221.8,113.2,221.8,113.2z" />
		<path class="st3" d="M180.2,224.4c-4.2,0-7.2-3.3-7.2-8c0-4,3-8,7.2-8c0.4,0,0.7-0.3,0.7-0.7s-0.3-0.7-0.7-0.7    c-5.1,0-9.1,4.2-9.1,9.2c0,0,0,0,0,0.1c0,5.3,4.2,10,9.1,10c0.3-0.4,0.5-0.8,0.6-1.3L180.2,224.4L180.2,224.4z" />
		<path class="st3" d="M203.6,210.1c0-2.3,2.2-4.2,4.8-4.2s4.8,1.9,4.8,4.2s-2.2,4.2-4.8,4.2S203.6,212.5,203.6,210.1z" />
	</g>
</g>
</svg>