<svg width="48" height="48" viewBox="0 0 48 48" fill="none" xmlns="http://www.w3.org/2000/svg">
<path d="M24.631 22.6999V10H23.3688V22.6999H6.4375V38H7.69977V23.9621H23.3688V38.0645H24.631V23.9621H40.2832V38H41.5455V22.6999H24.631Z" fill="#50E6FF"/>
<path d="M13.9529 46.6971V37.8359H1.31334V46.6971H0.101562V47.9594H15.1647V46.6971H13.9529Z" fill="#0078D4"/>
<path d="M12.8579 39.0234H2.40625V46.7654H12.8579V39.0234Z" fill="#50E6FF"/>
<path d="M46.7381 46.6971V37.8359H34.0985V46.6971H32.8867V47.9594H47.9498V46.6971H46.7381Z" fill="#0078D4"/>
<path d="M45.643 39.0234H35.1914V46.7654H45.643V39.0234Z" fill="#50E6FF"/>
<path d="M30.3279 46.6971V37.8359H17.6883V46.6971H16.4766V47.9594H31.5397V46.6971H30.3279Z" fill="#0078D4"/>
<path d="M29.2329 39.0234H18.7812V46.7654H29.2329V39.0234Z" fill="#50E6FF"/>
<path d="M30.3201 8.86115V0H17.6805V8.86115H16.4688V10.1234H31.5319V8.86115H30.3201Z" fill="#0078D4"/>
<path d="M29.225 1.18359H18.7734V8.92553H29.225V1.18359Z" fill="#50E6FF"/>
<path d="M20.0957 4.72765C20.1293 3.29707 21.1476 2.87631 21.947 2.87631C22.5361 2.87631 23.0241 3.10352 23.6048 3.67575C23.6721 3.74307 23.832 3.91138 23.832 3.91138L23.3102 4.61825C23.3102 4.61825 23.1672 4.44153 23.0999 4.35738C22.6118 3.76832 22.3593 3.60002 21.846 3.60002C21.1728 3.5916 20.7941 4.27323 20.8194 4.85387C20.8446 5.44293 21.3159 5.84686 21.8376 5.84686C22.2836 5.84686 22.8306 5.61124 23.4533 4.79497C23.5459 4.67716 23.6384 4.5341 23.7394 4.38263C23.8067 4.26481 23.8909 4.15542 23.9666 4.05443C24.6314 3.15401 25.2541 2.87631 25.9274 2.85948C26.5922 2.85107 27.7955 3.33073 27.7955 4.71082C27.7955 6.0909 26.7436 6.56215 25.9442 6.56215C25.2962 6.56215 24.7829 6.30128 24.1349 5.59441C24.1097 5.56916 24.076 5.52708 24.076 5.52708L24.5725 4.88753C24.5725 4.88753 24.5978 4.92119 24.623 4.93802C25.2037 5.66173 25.4982 5.8132 26.0536 5.82161C26.7268 5.83003 27.1055 5.1484 27.0802 4.56776C27.055 3.98711 26.5837 3.57477 26.062 3.57477C25.616 3.57477 25.069 3.8104 24.4463 4.62666C24.3537 4.74448 24.2612 4.88753 24.1602 5.03901C24.0929 5.15682 24.0087 5.26622 23.9245 5.35878C23.2261 6.2592 22.4098 6.5369 21.9722 6.55373C21.0045 6.60422 20.0452 6.0909 20.0957 4.72765Z" fill="#0078D4"/>
<path d="M7.63122 45.4944L5.08984 42.953H7.0085V40.4453H8.27918V42.953H10.1726L7.63122 45.4944Z" fill="#0078D4"/>
<path d="M24.0101 45.4944L21.4688 42.953H23.3874V40.4453H24.6581V42.953H26.5515L24.0101 45.4944Z" fill="#0078D4"/>
<path d="M40.4164 45.4944L37.875 42.953H39.8021V40.4453H41.0728V42.953H42.9577L40.4164 45.4944Z" fill="#0078D4"/>
</svg>
