<svg data-slug-id="node12" viewBox="0 0 49 49" xmlns="http://www.w3.org/2000/svg"><path d="M28.3471 25.9414H18.2417V43.6259H28.3471V25.9414Z" fill="#50E6FF"/><path d="M15.7163 13.3086H5.61084V30.9931H15.7163V13.3086Z" fill="#50E6FF"/><path d="M40.9799 20.8867H30.8745V38.5713H40.9799V20.8867Z" fill="#50E6FF"/><path d="M28.3471 5.73047H18.2417V23.415H28.3471V5.73047Z" fill="#50E6FF"/><path d="M0.558594 0.675781V5.72851V10.7812H5.6113V5.72851H10.664V0.675781H5.6113H0.558594Z" fill="#0078D4"/><path d="M43.5053 0.675781H38.4526V5.72851H43.5053V10.7812H48.558V5.72851V0.675781H43.5053Z" fill="#0078D4"/><path d="M5.61081 38.5703H0.558105V43.623V48.6758H5.61081H10.6635V43.623H5.61081V38.5703Z" fill="#0078D4"/><path d="M43.5053 43.623H38.4526V48.6758H43.5053H48.558V43.623V38.5703H43.5053V43.623Z" fill="#0078D4"/></svg>