<svg xmlns="http://www.w3.org/2000/svg" width="67.05" height="35.197" viewBox="0 0 67.05 35.197">
  <g id="Layer_2" data-name="Layer 2">
    <g id="Layer_1-2" data-name="Layer 1">
      <g>
        <g opacity="0.2">
          <path d="M56.359,32.487H52.984v-14.8h-14.8v14.8H34.807V1.541h3.375V14.758h14.8V1.541h3.375Z" fill="#22a6ff"/>
          <path d="M64.813,6.421a2.192,2.192,0,0,1-2.2-2.317,2.214,2.214,0,0,1,2.237-2.277A2.157,2.157,0,0,1,67.05,4.1,2.156,2.156,0,0,1,64.813,6.421Zm1.708,26.066H63.146V10.325h3.375Z" fill="#22a6ff"/>
        </g>
        <g>
          <path d="M36.234,0V1.626a10.716,10.716,0,0,1,9.25,5.331A10.678,10.678,0,0,1,36.256,22.98a10.677,10.677,0,0,1-.023-21.354V0m0,0A12.3,12.3,0,1,0,46.892,6.143,12.247,12.247,0,0,0,36.233,0Z" fill="#00a2f2"/>
          <rect x="18.396" y="19.466" width="8.127" height="1.626" transform="translate(-7.138 13.984) rotate(-30.071)" fill="#00a2f2"/>
          <path d="M3.125,35.2,0,29.8,18.519,19.081l3.125,5.4Zm-.9-4.807,1.5,2.585,15.7-9.086-1.5-2.585Z" fill="#00a2f2"/>
        </g>
        <g opacity="0.2">
          <path d="M20.305,4.936h-5a1,1,0,0,1,0-2h5a1,1,0,0,1,0,2Zm-10,0h-5a1,1,0,0,1,0-2h5a1,1,0,0,1,0,2Z" fill="#00a2f2"/>
        </g>
        <path d="M73.791,23.451" fill="none" stroke="#00a2f2" stroke-linecap="round" stroke-miterlimit="20" stroke-width="2" stroke-dasharray="5"/>
        <g opacity="0.2">
          <path d="M18.318,12.705h-5a1,1,0,0,1,0-2h5a1,1,0,0,1,0,2Z" fill="#00a2f2"/>
        </g>
      </g>
    </g>
  </g>
</svg>
