<svg xmlns="http://www.w3.org/2000/svg" width="51.251" height="58.375" viewBox="0 0 51.251 58.375">
  <g id="Layer_2" data-name="Layer 2">
    <g id="Layer_1-2" data-name="Layer 1">
      <g>
        <path d="M44.26,8.58V50.431H6.992V8.58H44.26m1.187-1.187H5.8V51.618H45.447V7.393Z" fill="#00a2f2"/>
        <path d="M30.9,35.621V33.447h-.048a4.489,4.489,0,0,1-1.63,1.815,4.315,4.315,0,0,1-2.335.645,3.968,3.968,0,0,1-2.795-.956,3.275,3.275,0,0,1-1.039-2.532q0-3.332,4.133-3.929l3.714-.538q0-3.523-2.735-3.523A5.98,5.98,0,0,0,24.2,25.994V24.322a6.217,6.217,0,0,1,1.881-.878,7.737,7.737,0,0,1,2.216-.34,3.969,3.969,0,0,1,3.088,1.147,4.92,4.92,0,0,1,1.045,3.416v7.955Zm-6.27-3.3a2.11,2.11,0,0,0,.693,1.642,2.654,2.654,0,0,0,1.851.627,3.442,3.442,0,0,0,2.669-1.17A4.269,4.269,0,0,0,30.9,30.449V29.243l-3.153.442a4.927,4.927,0,0,0-2.455.848A2.268,2.268,0,0,0,24.625,32.324Z" fill="#00a2f2"/>
        <rect x="12.175" y="7.849" width="1.187" height="43.006" fill="#00a2f2"/>
        <path d="M40.458,8.608v6.8l-2.89-2.89-.84-.84-.84.84L33,15.409v-6.8h7.459m1.187-1.187H31.812V18.275l4.917-4.917,4.917,4.917V7.421Z" fill="#00a2f2"/>
      </g>
      <g>
        <g opacity="0.2">
          <path d="M.4,19.788a.4.4,0,0,1-.4-.4V17.414a.4.4,0,0,1,.792,0v1.979A.4.4,0,0,1,.4,19.788Zm0-3.958a.4.4,0,0,1-.4-.4V13.456a.4.4,0,0,1,.792,0v1.979A.4.4,0,0,1,.4,15.831Zm0-3.958a.4.4,0,0,1-.4-.4V9.5a.4.4,0,0,1,.792,0v1.979A.4.4,0,0,1,.4,11.873Zm0-3.958a.4.4,0,0,1-.4-.4V5.541a.4.4,0,0,1,.792,0V7.52A.4.4,0,0,1,.4,7.915Zm0-3.958a.4.4,0,0,1-.4-.4V1.583a.4.4,0,0,1,.792,0V3.562A.4.4,0,0,1,.4,3.958ZM11.081.792H9.1A.4.4,0,0,1,9.1,0h1.979a.4.4,0,0,1,0,.792Zm-3.958,0H5.145a.4.4,0,0,1,0-.792H7.124a.4.4,0,0,1,0,.792Zm-3.958,0H1.187a.4.4,0,0,1,0-.792H3.166a.4.4,0,0,1,0,.792Z" fill="#00a2f2"/>
        </g>
        <g opacity="0.2">
          <path d="M50.064,58.375H48.085a.4.4,0,0,1,0-.792h1.979a.4.4,0,0,1,0,.792Zm-3.958,0H44.128a.4.4,0,0,1,0-.792h1.979a.4.4,0,0,1,0,.792Zm-3.958,0H40.17a.4.4,0,0,1,0-.792h1.979a.4.4,0,0,1,0,.792Zm-3.958,0H37a.4.4,0,0,1,0-.792h1.187a.4.4,0,1,1,0,.792Zm12.664-1.187a.4.4,0,0,1-.4-.4V54.813a.4.4,0,0,1,.792,0v1.979A.4.4,0,0,1,50.856,57.188Zm0-3.958a.4.4,0,0,1-.4-.4V50.856a.4.4,0,0,1,.792,0v1.979A.4.4,0,0,1,50.856,53.23Zm0-3.958a.4.4,0,0,1-.4-.4V46.9a.4.4,0,0,1,.792,0v1.979A.4.4,0,0,1,50.856,49.273Zm0-3.958a.4.4,0,0,1-.4-.4V42.94a.4.4,0,0,1,.792,0v1.979A.4.4,0,0,1,50.856,45.315Z" fill="#00a2f2"/>
        </g>
      </g>
    </g>
  </g>
</svg>
