<svg version="1.1" id="Layer_1" xmlns="http://www.w3.org/2000/svg" xmlns:xlink="http://www.w3.org/1999/xlink" x="0px" y="0px"
	 viewBox="0 0 106.3 120" style="enable-background:new 0 0 106.3 120;" xml:space="preserve">
<style type="text/css">
	.st0{fill:#389CD6;}
</style>
<g>
	<path class="st0" d="M3,101.6V3h80v69.1c1,0.1,2,0.4,3,0.6V0H0v104.6h61.2c-0.6-1-1-2-1.4-3H3z"/>
	<path class="st0" d="M58.3,92.5l-46.6,0.1c0,0,0,0,0,0c-0.3,0-0.5-0.1-0.6-0.2c-0.1-0.1-0.2-0.3-0.2-0.5c0.2-5.7,0.6-15.7,0.6-18.5
		c0.4-1.6,8-7.5,17.5-12.9c0.9-0.5,1.9-0.8,3-0.8c1,0,2,0.2,3,0.6c2.5,1,5.5,1.6,8.3,1.6c3.1,0,6.8-0.8,9.7-2c1.9-0.8,4.1-0.6,6,0.5
		h0c8.4,4.9,14.8,9.8,16.5,12.1c1-0.2,2.1-0.3,3.1-0.4c-2.1-4.7-14.2-12-18.2-14.3c-2.7-1.6-6-1.8-8.7-0.6c-2.5,1.1-5.8,1.7-8.5,1.7
		c-2.4,0-5-0.5-7.2-1.3c-3-1.2-6.1-1.1-8.6,0.3c-4.4,2.5-8.9,5.4-12.4,8c-5.9,4.4-6.7,6.2-6.7,7.4c0,2.9-0.4,12.8-0.6,18.5
		c0,1,0.3,2,1,2.8c0.7,0.7,1.7,1.2,2.7,1.2c0,0,0,0,0,0l46.6-0.1c0-0.6-0.1-1.2-0.1-1.8C58.2,93.3,58.2,92.9,58.3,92.5z"/>
	<path class="st0" d="M43.4,16.5c-10.8,0-19.5,8.7-19.5,19.5s8.7,19.5,19.5,19.5S62.9,46.8,62.9,36S54.2,16.5,43.4,16.5z M43.4,52.5
		c-9.1,0-16.5-7.4-16.5-16.5s7.4-16.5,16.5-16.5S59.9,26.9,59.9,36S52.5,52.5,43.4,52.5z"/>
	<g>
		<path class="st0" d="M80,110.3c-9.2,0-16.7-7.5-16.7-16.7S70.8,76.9,80,76.9s16.7,7.5,16.7,16.7S89.2,110.3,80,110.3z M80,79.9
			c-7.6,0-13.7,6.2-13.7,13.7s6.2,13.7,13.7,13.7s13.7-6.2,13.7-13.7S87.5,79.9,80,79.9z"/>
	</g>
	<g>	
			<rect x="96.4" y="101.4" transform="matrix(0.7031 -0.7111 0.7111 0.7031 -50.3946 102.7853)" class="st0" width="3" height="20.6"/>
	</g>
</g>
</svg>
