<?xml version="1.0" encoding="utf-8"?>
<!-- Generator: Adobe Illustrator 21.1.0, SVG Export Plug-In . SVG Version: 6.00 Build 0)  -->
<svg version="1.1" id="Layer_1" xmlns="http://www.w3.org/2000/svg" xmlns:xlink="http://www.w3.org/1999/xlink" x="0px" y="0px" viewBox="0 0 376 260" style="enable-background:new 0 0 376 260;" xml:space="preserve">
<style type="text/css">
	.st0{fill:#99DDF7;}
	.st1{fill:#33BCF0;}
	.st2{fill:#E5E5E5;}
	.st3{fill:#00188F;}
	.st4{fill:#7A7A7A;}
	.st5{opacity:0.7;fill:#FFFFFF;enable-background:new    ;}
	.st6{fill:#E88813;}
	.st7{opacity:0.2;fill:#1E1E1E;enable-background:new    ;}
</style>

<g id="Layer_2">
	<g id="Layer_1-2">
		<path class="st0" d="M115.8,88.5c46-9.6,91.1,19.9,100.7,65.9s-19.9,91.1-65.9,100.7c-46,9.6-91.1-19.9-100.7-65.9c0,0,0,0,0,0    C40.3,143.2,69.8,98.1,115.8,88.5z" />
		<path class="st1" d="M49.9,189.2c3.1,14.9,10.1,28.7,20.4,40h28.1c12.5,0.3,22.8-9.6,23-22.1c0.3-12.5-9.6-22.8-22.1-23    c-0.3,0-0.6,0-0.9,0h-3.2c0.4-1.7,0.7-3.4,0.7-5.1c0-12.5-10.1-22.5-22.6-22.6H49.6C47.5,167.2,47.6,178.4,49.9,189.2z" />
		<path class="st1" d="M116.3,140.3c0,13,10.5,23.5,23.5,23.5H218c-0.3-3.1-0.8-6.4-1.4-9.5c-5-24-20.1-44.7-41.5-56.7h-10.7    c-8.4,0-15.3,6.8-15.3,15.2c0,0,0,0,0,0c0,1.3,0.2,2.7,0.5,3.9H140C127,116.7,116.4,127.2,116.3,140.3    C116.3,140.2,116.3,140.3,116.3,140.3z" />
		<path class="st1" d="M217.8,181.3h-46.6c-10.6,0-19.2,8.6-19.1,19.2c0,3.2,0.8,6.3,2.3,9.1c-10.1,3.2-15.7,14-12.5,24    c2.5,8,9.9,13.4,18.3,13.4h13C197.9,233.8,214.6,209.2,217.8,181.3z" />
		<rect x="182.4" y="190.4" class="st2" width="145.5" height="29.2" />
		<rect x="188.2" y="196.3" class="st3" width="133.9" height="17.3" />
		<rect x="287.1" y="196.2" class="st3" width="35" height="17.4" />
		<rect x="281.3" y="190.4" class="st4" width="11.6" height="29.1" />
		<rect x="281.3" y="190.4" class="st5" width="5.8" height="29.1" />
		<rect x="182.4" y="143.8" class="st2" width="145.5" height="29.2" />
		<rect x="188.2" y="149.7" class="st6" width="133.9" height="17.3" />
		<rect x="240.7" y="149.6" class="st6" width="81.5" height="17.4" />
		<rect x="234.8" y="143.8" class="st4" width="11.6" height="29" />
		<rect x="234.8" y="143.8" class="st5" width="5.8" height="29" />
		<rect x="246.5" y="143.9" class="st7" width="5.8" height="29" />
		<rect x="293" y="190.4" class="st7" width="5.8" height="29.1" />
	</g>
</g>
</svg>