<svg width="85" height="85" viewBox="0 0 85 85" fill="none" xmlns="http://www.w3.org/2000/svg">
<path d="M71.9354 24.9623H66.5734V39.6616H21.2737V24.9623H15.8192V81.4483H71.9354V24.9623Z" fill="#0078D4"/>
<path d="M66.7583 45.8557H20.9964V75.3467H66.6659V45.8557H66.7583Z" fill="#50E6FF"/>
<path d="M25.064 63.9755L22.9377 62.5888L23.1226 62.3114C24.8791 59.7229 27.9299 58.1512 31.1656 58.1512C34.4937 58.1512 37.5445 59.7229 39.2086 62.3114L39.3935 62.5888L37.1747 63.883L36.9898 63.6057C35.788 61.7567 33.5692 60.5549 31.0731 60.5549C28.6695 60.5549 26.4507 61.7567 25.1564 63.6057L25.064 63.9755Z" fill="#0078D4"/>
<path d="M64.7244 62.3114C63.0603 59.7229 60.0095 58.1512 56.6814 58.1512C53.3533 58.1512 50.3949 59.7229 48.6384 62.3114L48.4535 62.5888L50.5798 63.9755L50.7647 63.6982C51.9665 61.8492 54.2777 60.6474 56.6814 60.6474C59.1775 60.6474 61.3963 61.8492 62.5981 63.6982L62.783 63.9755L65.0017 62.6812L64.7244 62.3114Z" fill="#0078D4"/>
<path d="M59.7322 15.3477V28.0131C59.4548 28.0131 59.085 28.1055 58.9001 28.3829C58.7152 28.5678 58.5303 28.9376 58.5303 29.2149C58.5303 29.4923 58.6228 29.862 58.9001 30.0469C59.085 30.2318 59.4548 30.4167 59.7322 30.4167V36.1485H52.7985V15.3477H59.7322Z" fill="#50E6FF"/>
<path d="M48.1761 13.0364H43.5537V15.3476H48.1761V13.0364Z" fill="#0078D4"/>
<path d="M36.6201 19.9701H29.6865V22.2813H36.6201V19.9701Z" fill="#0078D4"/>
<path d="M36.6201 24.5925H29.6865V26.9037H36.6201V24.5925Z" fill="#0078D4"/>
<path d="M36.6201 29.2149H29.6865V31.5261H36.6201V29.2149Z" fill="#0078D4"/>
<path d="M31.9977 3.79163V15.3477H25.064V36.1486H52.7985V3.79163H31.9977ZM38.9313 33.8373H27.3752V17.6589H38.9313V33.8373ZM41.2425 13.0365H36.6201V8.41404H41.2425V13.0365ZM48.1761 33.8373H43.5537V29.2149H48.1761V33.8373ZM48.1761 26.9037H43.5537V22.2813H48.1761V26.9037ZM48.1761 19.9701H43.5537V15.3477H48.1761V19.9701ZM48.1761 13.0365H43.5537V8.41404H48.1761V13.0365Z" fill="#0078D4"/>
<path d="M63.1529 29.2149C63.1529 28.5678 62.968 27.9207 62.6906 27.366C62.4133 26.8113 61.8586 26.349 61.3039 26.0717C60.7492 25.7944 60.1021 25.6095 59.4549 25.7019C58.8078 25.7019 58.2531 25.9792 57.6984 26.349C57.1437 26.7188 56.7739 27.1811 56.4966 27.8282C56.2192 28.3829 56.1268 29.03 56.2192 29.6772C56.3117 30.3243 56.589 30.879 56.9588 31.4337C57.3286 31.8959 57.8833 32.2657 58.5304 32.5431V36.241H60.8417V32.5431C61.4888 32.2657 62.1359 31.8959 62.5057 31.2488C62.968 30.6017 63.1529 29.8621 63.1529 29.2149ZM59.7323 30.3243C59.5474 30.3243 59.27 30.2319 59.0851 30.1394C58.9002 30.047 58.7153 29.8621 58.6229 29.5847C58.5304 29.3998 58.5304 29.1225 58.5304 28.9376C58.5304 28.7527 58.7153 28.4754 58.8078 28.3829C58.9927 28.198 59.1776 28.1056 59.3625 28.1056C59.5474 28.1056 59.8247 28.1056 60.0096 28.198C60.1945 28.2905 60.3794 28.3829 60.5643 28.6603C60.6568 28.8451 60.7492 29.03 60.7492 29.3074C60.7492 29.5847 60.6568 29.9545 60.3794 30.1394C60.287 30.2319 60.0096 30.3243 59.7323 30.3243Z" fill="#0078D4"/>
</svg>
