<svg xmlns="http://www.w3.org/2000/svg" width="53.986" height="44.802" viewBox="0 0 53.986 44.802">
  <g id="Layer_2" data-name="Layer 2">
    <g id="Layer_1-2" data-name="Layer 1">
      <path d="M24.269,37.268A14.867,14.867,0,1,1,39.136,22.4,14.884,14.884,0,0,1,24.269,37.268Zm0-28.632A13.765,13.765,0,1,0,38.034,22.4,13.781,13.781,0,0,0,24.269,8.636Z" fill="#00a2f2"/>
      <rect x="23.718" y="8.085" width="1.102" height="28.632" fill="#00a2f2"/>
      <path d="M16.446,35.022C11.655,22.3,16.4,9.994,16.45,9.871l1.025.4c-.047.119-4.635,12.04,0,24.359Z" fill="#00a2f2"/>
      <path d="M31.313,35.022l-1.031-.388c4.638-12.319.05-24.239,0-24.359l1.025-.4C31.358,9.994,36.1,22.3,31.313,35.022Z" fill="#00a2f2"/>
      <rect x="9.953" y="21.85" width="28.632" height="1.102" fill="#00a2f2"/>
      <rect x="11.295" y="14.991" width="25.649" height="1.102" fill="#00a2f2"/>
      <rect x="11.519" y="28.71" width="25.798" height="1.102" fill="#00a2f2"/>
      <g opacity="0.2">
        <path d="M24.491,44.8a.367.367,0,0,1,0-.734c.6-.006,1.207-.037,1.8-.092a.367.367,0,0,1,.068.732c-.616.057-1.243.089-1.863.1Zm-1.834-.057H22.63c-.62-.045-1.244-.116-1.853-.211a.367.367,0,0,1,.114-.726c.589.093,1.193.161,1.793.2a.367.367,0,0,1-.026.733Zm5.486-.281a.367.367,0,0,1-.064-.729c.591-.1,1.183-.236,1.762-.389a.367.367,0,1,1,.188.71c-.6.159-1.212.294-1.822.4A.361.361,0,0,1,28.142,44.463Zm-9.108-.286a.365.365,0,0,1-.087-.01c-.6-.147-1.205-.321-1.793-.517a.367.367,0,1,1,.233-.7c.568.19,1.151.359,1.733.5a.367.367,0,0,1-.087.724Zm12.653-.655a.367.367,0,0,1-.124-.713c.564-.2,1.127-.43,1.673-.678a.367.367,0,0,1,.3.668c-.564.257-1.146.492-1.729.7A.365.365,0,0,1,31.688,43.522Zm-16.132-.51a.366.366,0,0,1-.145-.03c-.567-.244-1.132-.517-1.682-.81a.367.367,0,1,1,.346-.648c.531.283,1.079.547,1.627.783a.367.367,0,0,1-.146.7Zm-3.236-1.729a.366.366,0,0,1-.2-.059c-.522-.337-1.035-.7-1.524-1.078a.367.367,0,0,1,.449-.581c.473.365.968.716,1.474,1.043a.367.367,0,0,1-.2.676Zm-2.9-2.241a.366.366,0,0,1-.247-.1c-.456-.417-.9-.859-1.324-1.314a.367.367,0,0,1,.538-.5c.409.44.84.868,1.281,1.271a.367.367,0,0,1-.248.638ZM6.921,36.355a.367.367,0,0,1-.289-.141c-.381-.486-.748-1-1.089-1.514a.367.367,0,1,1,.613-.4c.33.5.685.994,1.054,1.465a.367.367,0,0,1-.289.594ZM4.906,33.292a.367.367,0,0,1-.323-.192c-.3-.545-.574-1.109-.823-1.674a.367.367,0,0,1,.672-.3c.241.547.509,1.091.8,1.618a.368.368,0,0,1-.322.543ZM3.428,29.938a.367.367,0,0,1-.347-.248c-.2-.585-.38-1.186-.532-1.788a.367.367,0,0,1,.712-.18c.147.582.32,1.164.515,1.729a.368.368,0,0,1-.347.487Zm-.9-3.555a.367.367,0,0,1-.362-.307c-.1-.611-.177-1.234-.227-1.852a.367.367,0,1,1,.732-.059c.048.6.122,1.2.219,1.791a.367.367,0,0,1-.3.422A.346.346,0,0,1,2.53,26.383Z" fill="#00a2f2"/>
      </g>
      <g opacity="0.2">
        <path d="M46.3,22.768a.367.367,0,0,1-.367-.367c0-.563-.022-1.131-.065-1.689a.367.367,0,0,1,.732-.057c.044.577.067,1.164.067,1.746A.367.367,0,0,1,46.3,22.768Zm-.283-3.539a.367.367,0,0,1-.362-.309c-.1-.592-.217-1.187-.362-1.768a.367.367,0,1,1,.713-.177c.15.6.275,1.216.374,1.828a.367.367,0,0,1-.363.426Zm-.885-3.559a.367.367,0,0,1-.348-.249c-.193-.566-.412-1.132-.652-1.681a.367.367,0,1,1,.673-.294c.248.568.475,1.153.674,1.739a.367.367,0,0,1-.229.466A.36.36,0,0,1,45.135,15.67Zm-1.466-3.359a.367.367,0,0,1-.323-.193c-.283-.525-.594-1.047-.923-1.55a.367.367,0,0,1,.615-.4c.34.52.661,1.06.954,1.6a.367.367,0,0,1-.149.5A.363.363,0,0,1,43.669,12.312Zm-2-3.069a.367.367,0,0,1-.29-.142c-.367-.472-.76-.935-1.167-1.377a.367.367,0,0,1,.54-.5c.421.457.827.936,1.206,1.423a.367.367,0,0,1-.29.593Zm-2.486-2.7a.366.366,0,0,1-.249-.1c-.441-.406-.9-.8-1.378-1.166A.367.367,0,0,1,38,4.7c.489.38.968.786,1.425,1.205a.367.367,0,0,1-.249.638Zm-2.9-2.251a.367.367,0,0,1-.2-.06c-.5-.327-1.023-.637-1.552-.922a.367.367,0,0,1,.348-.647c.547.295,1.087.615,1.605.953a.367.367,0,0,1-.2.675Zm-3.23-1.74a.365.365,0,0,1-.146-.03c-.551-.24-1.117-.458-1.684-.65a.367.367,0,0,1,.236-.7c.586.2,1.172.425,1.742.672a.367.367,0,0,1-.147.7Zm-16.13-.566a.367.367,0,0,1-.122-.713c.585-.207,1.186-.391,1.784-.548a.367.367,0,0,1,.186.711c-.579.151-1.159.33-1.725.529A.365.365,0,0,1,16.922,1.989Zm12.656-.611a.377.377,0,0,1-.089-.011c-.582-.144-1.177-.265-1.768-.359a.367.367,0,1,1,.116-.725c.611.1,1.226.223,1.828.372a.367.367,0,0,1-.088.724ZM20.47,1.061a.367.367,0,0,1-.063-.729c.611-.106,1.234-.188,1.851-.242a.367.367,0,1,1,.065.732c-.6.053-1.2.132-1.79.235A.382.382,0,0,1,20.47,1.061ZM25.958.8H25.93C25.381.756,24.822.734,24.269.734h-.143A.367.367,0,1,1,24.121,0h.145c.574,0,1.152.022,1.719.065A.367.367,0,0,1,25.958.8Z" fill="#00a2f2"/>
      </g>
      <g opacity="0.2">
        <path d="M53.986,44.284h-2.2a.367.367,0,1,1,0-.734h1.48a.367.367,0,0,1,.724.089Zm-4.04,0H48.11a.367.367,0,0,1,0-.734h1.836a.367.367,0,1,1,0,.734Zm-3.672,0H44.438a.367.367,0,1,1,0-.734h1.836a.367.367,0,1,1,0,.734Zm-3.672,0h-.437V42.15a.367.367,0,1,1,.734,0V43.7a.367.367,0,0,1-.3.583Zm11.017-2.115a.367.367,0,0,1-.367-.367V39.966a.367.367,0,1,1,.734,0V41.8A.367.367,0,0,1,53.619,42.169ZM42.532,40.681a.367.367,0,0,1-.367-.367V38.478a.367.367,0,1,1,.734,0v1.836A.367.367,0,0,1,42.532,40.681ZM53.619,38.5a.367.367,0,0,1-.367-.367V36.293a.367.367,0,0,1,.734,0v1.836A.367.367,0,0,1,53.619,38.5ZM42.532,37.009a.367.367,0,0,1-.367-.367V34.806a.367.367,0,1,1,.734,0v1.836A.367.367,0,0,1,42.532,37.009Zm11.087-2.185a.367.367,0,0,1-.367-.367v-1.3a.367.367,0,0,1,.158-.7h.576v1.994A.367.367,0,0,1,53.619,34.824ZM42.532,33.337a.367.367,0,0,1-.367-.367v-.507h2.064a.367.367,0,0,1,0,.734H42.82A.367.367,0,0,1,42.532,33.337Zm9.041-.14H49.737a.367.367,0,0,1,0-.734h1.836a.367.367,0,1,1,0,.734Zm-3.672,0H46.065a.367.367,0,1,1,0-.734H47.9a.367.367,0,0,1,0,.734Z" fill="#00a2f2"/>
      </g>
      <g opacity="0.2">
        <path d="M7.648,12.512H5.812a.367.367,0,1,1,0-.734H7.648a.367.367,0,1,1,0,.734Zm-3.672,0H2.139a.367.367,0,1,1,0-.734H3.976a.367.367,0,1,1,0,.734ZM.367,12.449A.367.367,0,0,1,0,12.081V10.245a.367.367,0,0,1,.734,0v1.836A.367.367,0,0,1,.367,12.449Zm7.281-1.516a.367.367,0,0,1-.367-.367V8.729a.367.367,0,0,1,.734,0v1.836A.367.367,0,0,1,7.648,10.933ZM.367,8.776A.367.367,0,0,1,0,8.409V6.573a.367.367,0,1,1,.734,0V8.409A.367.367,0,0,1,.367,8.776ZM7.648,7.26a.367.367,0,0,1-.367-.367V5.057a.367.367,0,0,1,.734,0V6.893A.367.367,0,0,1,7.648,7.26ZM6,5.232H4.168a.367.367,0,1,1,0-.734H6a.367.367,0,1,1,0,.734Zm-3.672,0H.5A.367.367,0,1,1,.5,4.5H2.332a.367.367,0,1,1,0,.734Z" fill="#00a2f2"/>
      </g>
    </g>
  </g>
</svg>
