<svg data-slug-id="people-smile" xmlns="http://www.w3.org/2000/svg" viewBox="0 0 48 48"><path d="M0.0341797 47.9178C0.0341797 36.4059 9.34975 27.0903 20.8617 27.0903C30.6737 27.0903 38.8953 33.8645 41.1085 42.9949C41.4872 44.577 35.2347 47.9262 35.2347 47.9262H0.0341797V47.9178Z" fill="#0078D7"/><path d="M32.7347 11.9833C32.7347 18.505 27.45 23.7981 20.9198 23.7981C14.3897 23.7981 9.10498 18.5134 9.10498 11.9833C9.10498 5.45311 14.3981 0.168396 20.9198 0.168396C27.4416 0.168396 32.7347 5.45311 32.7347 11.9833Z" fill="#0078D7"/><path d="M35.2683 47.9482C42.2814 47.9482 47.9667 42.2629 47.9667 35.2497C47.9667 28.2366 42.2814 22.5513 35.2683 22.5513C28.2551 22.5513 22.5698 28.2366 22.5698 35.2497C22.5698 42.2629 28.2551 47.9482 35.2683 47.9482Z" fill="#50E6FF"/><path d="M41.3101 30.5043C39.7617 30.5043 38.5078 31.7582 38.5078 33.3066C38.5078 33.9041 38.9875 34.3837 39.585 34.3837C40.1824 34.3837 40.6621 33.9041 40.6621 33.3066C40.6621 32.9447 40.9566 32.6586 41.3101 32.6586C41.6635 32.6586 41.958 32.9531 41.958 33.3066C41.958 33.9041 42.4377 34.3837 43.0352 34.3837C43.6326 34.3837 44.1123 33.9041 44.1123 33.3066C44.1039 31.7666 42.85 30.5043 41.3101 30.5043Z" fill="#0078D4"/><path d="M28.8813 30.5043C27.333 30.5043 26.0791 31.7582 26.0791 33.3066C26.0791 33.9041 26.5588 34.3837 27.1562 34.3837C27.7537 34.3837 28.2334 33.9041 28.2334 33.3066C28.2334 32.9447 28.5279 32.6586 28.8813 32.6586C29.2348 32.6586 29.5293 32.9531 29.5293 33.3066C29.5293 33.9041 30.009 34.3837 30.6065 34.3837C31.2039 34.3837 31.6836 33.9041 31.6836 33.3066C31.6836 31.7666 30.4297 30.5043 28.8813 30.5043Z" fill="#0078D4"/><path d="M41.537 37.9429C41.1331 37.5137 40.4514 37.4885 40.0139 37.9008C38.7263 39.1126 37.0517 39.7774 35.2845 39.7774C33.4669 39.7774 31.7502 39.0705 30.4458 37.7998C30.0251 37.3875 29.3434 37.3875 28.9227 37.8167C28.7207 38.0186 28.6113 38.2963 28.6113 38.5824C28.6113 38.8686 28.7291 39.1378 28.9311 39.3398C30.631 41.0144 32.8862 41.9401 35.2761 41.9401C37.5903 41.9401 39.7951 41.0649 41.4865 39.4744C41.6969 39.2809 41.8147 39.0116 41.8231 38.7255C41.8315 38.4394 41.7305 38.1533 41.537 37.9429Z" fill="#0078D4"/></svg>