<svg data-slug-id="form-recognizer" xmlns="http://www.w3.org/2000/svg" viewBox="0 0 61 61">
<path d="M36.7376 32.8516H33.9688V35.6204H36.7376V32.8516Z" fill="#0078D4"></path>
<path d="M36.7376 37.8594H33.9688V40.6282H36.7376V37.8594Z" fill="#0078D4"></path>
<path d="M41.2883 32.8516H38.5195V35.6204H41.2883V32.8516Z" fill="#0078D4"></path>
<path d="M41.2883 37.8594H38.5195V40.6282H41.2883V37.8594Z" fill="#0078D4"></path>
<path d="M45.7649 32.8516H42.9961V35.6204H45.7649V32.8516Z" fill="#0078D4"></path>
<path d="M45.7649 37.8594H42.9961V40.6282H45.7649V37.8594Z" fill="#0078D4"></path>
<path d="M42.6134 27.3624C42.5171 27.3143 42.3727 27.2661 42.2282 27.218C41.0244 26.8087 38.5445 26.2308 34.3311 26.4475C30.1177 26.6642 25.9766 27.5791 25.9766 27.5791C25.9766 27.5791 26.9155 33.1889 28.1675 36.0059C29.3954 38.7265 30.1418 40.436 31.2975 41.9046C33.344 44.6975 36.0887 46.2384 39.4835 46.2384C44.8285 46.2384 49.1863 41.9047 49.1863 36.5356C49.2104 32.2981 46.4657 28.6626 42.6134 27.3624ZM39.5316 45.0105C34.8608 45.0105 31.0808 41.2305 31.0808 36.5837C31.0808 31.9129 34.8608 28.1329 39.5316 28.1329C44.2025 28.1329 47.9825 31.9129 47.9825 36.5837C47.9584 41.2305 44.1784 45.0105 39.5316 45.0105Z" fill="#0078D4"></path>
<path d="M40.3235 18.624L35.7249 13.9531H16.8008V42.4116H29.9706C29.754 42.0504 29.4891 41.6171 29.3687 41.3281C29.2965 41.1837 29.2243 41.0151 29.1761 40.8707H18.2694V15.3736H34.8823V19.3222H38.9512V25.2691L40.3235 25.4858V18.624Z" fill="#0078D4"></path>
<path d="M35.6544 23.8476H22.1474C21.7622 23.8476 21.4492 23.5346 21.4492 23.1494C21.4492 22.7642 21.7622 22.4512 22.1474 22.4512H35.6544C36.0396 22.4512 36.3526 22.7642 36.3526 23.1494C36.3526 23.5346 36.0396 23.8476 35.6544 23.8476Z" fill="#0078D4"></path>
<path d="M22.1474 36.0768C21.7622 36.0768 21.4492 36.3898 21.4492 36.775C21.4492 37.1603 21.7622 37.4732 22.1474 37.4732H27.372L26.7942 36.0527H22.1474V36.0768Z" fill="#0078D4"></path>
<path d="M22.1474 31.4792C21.7622 31.4792 21.4492 31.7921 21.4492 32.1774C21.4492 32.5626 21.7622 32.8756 22.1474 32.8756H25.8071L25.4459 31.4551H22.1474V31.4792Z" fill="#0078D4"></path>
<path d="M22.1474 26.9284C21.7622 26.9284 21.4492 27.2414 21.4492 27.6266C21.4492 28.0118 21.7622 28.3248 22.1474 28.3248H24.8199L24.6755 26.9043H22.1474V26.9284Z" fill="#0078D4"></path>
</svg>