<svg viewBox="0 0 18 18" class="" role="presentation" focusable="false" xmlns="http://www.w3.org/2000/svg" xmlns:xlink="http://www.w3.org/1999/xlink" id="FxSymbol0-0ee" data-type="1"><g><path d="M8.824.132H1.311a.594.594 0 0 0-.593.594v16.2a.594.594 0 0 0 .593.594h13.021a.594.594 0 0 0 .593-.594V6.205a.594.594 0 0 0-.593-.594H10.01a.594.594 0 0 1-.593-.594V.726a.593.593 0 0 0-.593-.594Z" fill="#83b9f9"></path><path d="M8.55.89v4.07a1.494 1.494 0 0 0 1.491 1.493h4.1v10.31H1.5V.89h7.05M8.837 0H1.215a.6.6 0 0 0-.6.6v16.45a.6.6 0 0 0 .6.6h13.213a.6.6 0 0 0 .6-.6V6.165a.6.6 0 0 0-.6-.6h-4.387a.6.6 0 0 1-.6-.6V.6a.6.6 0 0 0-.6-.6Z" fill="url(#59616712-f700-4139-92c6-bd98d17f0284)"></path><path d="M14.8 5.683 9.232.132v4.523a1.022 1.022 0 0 0 1.015 1.028Z" fill="#0078d4"></path><rect x="2.686" y="8.329" width="9.713" height="1.36" rx=".567" class="msportalfx-svg-c01" fill="#ffffff"></rect><rect x="2.686" y="11.083" width="9.713" height="1.36" rx=".567" opacity=".8" class="msportalfx-svg-c01" fill="#ffffff"></rect><rect x="2.686" y="13.838" width="9.713" height="1.36" rx=".567" opacity=".6" class="msportalfx-svg-c01" fill="#ffffff"></rect><g fill="#50e6ff"><path d="M12.71 17.787c-2.076 0-3.783-1.6-4.685-4.4a45.578 45.578 0 0 0-1.973-4.269c1.32.014 5.935.063 6.818.063 2.112 0 3.749 2.524 3.749 4.7a3.914 3.914 0 0 1-3.909 3.906Z"></path><path d="M6.4 9.335c1.644.017 5.656.059 6.469.059 1.992 0 3.536 2.41 3.536 4.483a3.7 3.7 0 0 1-3.7 3.7c-1.977 0-3.611-1.55-4.483-4.253A41.272 41.272 0 0 0 6.4 9.335M5.7 8.9s1.739 3.366 2.121 4.55C8.7 16.174 10.433 18 12.71 18a4.123 4.123 0 0 0 4.123-4.123c0-2.277-1.685-4.91-3.963-4.91-1.033 0-7.17-.067-7.17-.067Z"></path></g><circle cx="12.87" cy="13.484" r="4.516" class="msportalfx-svg-c01" fill="#ffffff"></circle><path d="M12.87 9.446a4.038 4.038 0 1 1-4.037 4.038 4.042 4.042 0 0 1 4.037-4.038m0-.479a4.517 4.517 0 1 0 4.517 4.517 4.516 4.516 0 0 0-4.517-4.517Z" fill="#50e6ff"></path><path d="M12.324 12.9h-1.458v-1.46h1.458Zm2.551-1.458h-1.458V12.9h1.458ZM12.324 14h-1.458v1.458h1.458Zm2.551 0h-1.458v1.458h1.458Z" fill="#50e6ff"></path></g><defs>
<linearGradient id="59616712-f700-4139-92c6-bd98d17f0284" x1="7.822" y1="17.653" x2="7.822" gradientUnits="userSpaceOnUse"><stop offset="0" stop-color="#0078d4"></stop><stop offset=".817" stop-color="#5ea0ef"></stop></linearGradient>
</defs>
</svg>