<svg viewBox="0 0 60 60" class="" role="presentation" focusable="false" xmlns:svg="http://www.w3.org/2000/svg" xmlns:xlink="http://www.w3.org/1999/xlink" id="FxSymbol0-0a7" data-type="1"><g><title></title><title>Microsoft Genomics icon</title><path d="M26.525 38.635c-.242-.154-.443-.259-.619-.4-1.435-1.132-2.948-2.181-4.277-3.427a6.979 6.979 0 0 1-1.249-7.88 12.787 12.787 0 0 1 3.327-3.608 52.382 52.382 0 0 1 9.386-5.683 31.349 31.349 0 0 0 6.3-3.793 16.8 16.8 0 0 0 5.919-9.729 12.209 12.209 0 0 0 .165-1.238 2.537 2.537 0 1 0-5.033-.64c-.71 4.342-3.311 7.315-6.962 9.469-1.737 1.025-3.585 1.859-5.365 2.812a40.761 40.761 0 0 0-9 6.147c-1.716 1.627-3.334 3.339-4 5.706A11.7 11.7 0 0 0 18.158 38.5c.916.934 1.943 1.76 2.942 2.609a.752.752 0 0 0 .643.156c1.579-.836 3.137-1.716 4.782-2.63zm6.886 9.13c.55.347 1.053.668 1.56.984a10.593 10.593 0 0 1 5.225 7.758c.062.432.09.87.157 1.3a2.515 2.515 0 0 0 2.739 2.183 2.463 2.463 0 0 0 2.27-2.542 14.466 14.466 0 0 0-3.451-9.3 34.445 34.445 0 0 0-2.946-2.781.735.735 0 0 0-.642-.145c-1.618.814-3.217 1.66-4.912 2.543z" class="msportalfx-svg-c10" fill="#ff8c00"></path><path d="M20.285 5.363a10.03 10.03 0 0 0 1.738 3.231h10.936a19.116 19.116 0 0 1-1.829 1.222c-.351.207-.709.4-1.067.6h-6.19a13.561 13.561 0 0 0 1.191.839c.507.315 1.01.637 1.56.983-1.7.883-3.294 1.729-4.912 2.537a.736.736 0 0 1-.642-.145 34.379 34.379 0 0 1-2.946-2.781 14.466 14.466 0 0 1-3.451-9.3A2.463 2.463 0 0 1 16.942.01a2.515 2.515 0 0 1 2.739 2.182c.067.432.1.869.157 1.3 0 .018.008.033.01.051h17.255V3.6a11.97 11.97 0 0 1-1 1.763zm-5.559 50.519a16.8 16.8 0 0 1 5.919-9.729 31.342 31.342 0 0 1 6.3-3.793 52.408 52.408 0 0 0 9.386-5.683c.324-.267.646-.537.961-.815H26.46a22.566 22.566 0 0 1-1.119-.975 5.4 5.4 0 0 1-.724-.843h14.4a7.7 7.7 0 0 0 .637-.975 6.019 6.019 0 0 0 .655-2.307H23.434a7.264 7.264 0 0 1 .032-1.818h16.8a6.8 6.8 0 0 0-1.36-3.181H24.94a14.547 14.547 0 0 1 1.828-1.818h10.15c-.921-.737-1.864-1.452-2.79-2.183-.175-.138-.376-.243-.619-.4 1.646-.914 3.2-1.793 4.782-2.633a.752.752 0 0 1 .643.155c1 .849 2.026 1.675 2.942 2.608a11.7 11.7 0 0 1 3.05 12.129c-.67 2.367-2.288 4.08-4 5.707a40.765 40.765 0 0 1-9 6.147c-1.78.954-3.628 1.788-5.365 2.812a18.674 18.674 0 0 0-2.194 1.521h7.311l.117.073a12.659 12.659 0 0 1 2.216 1.745H22.468a12.115 12.115 0 0 0-2.054 3.274h15.83a10.626 10.626 0 0 1 .586 1.817h-17c-.085.344-.176.682-.235 1.044a2.537 2.537 0 1 1-5.033-.641 12.223 12.223 0 0 1 .164-1.238z" class="msportalfx-svg-c15" fill="#59b4d9"></path></g><defs>
<linearGradient id="a" x1="9" y1="16.39" x2="9" y2="-1.94" gradientUnits="userSpaceOnUse"><stop offset="0" stop-color="#0078d4"></stop><stop offset=".16" stop-color="#1380da"></stop><stop offset=".53" stop-color="#3c91e5"></stop><stop offset=".82" stop-color="#559cec"></stop><stop offset="1" stop-color="#5ea0ef"></stop></linearGradient>
<linearGradient id="b" x1="9.88" y1="7.11" x2="9.99" y2="17.27" gradientUnits="userSpaceOnUse"><stop offset="0" stop-color="#32d4f5"></stop><stop offset=".32" stop-color="#31d1f3"></stop><stop offset=".53" stop-color="#2ec9eb"></stop><stop offset=".7" stop-color="#29bade"></stop><stop offset=".86" stop-color="#22a5cb"></stop><stop offset="1" stop-color="#198ab3"></stop><stop offset="1" stop-color="#198ab3"></stop></linearGradient>
<radialGradient id="c" cx="9.43" cy="7.03" r="7.27" gradientUnits="userSpaceOnUse"><stop offset="0" stop-color="#f2f2f2"></stop><stop offset=".58" stop-color="#eee"></stop><stop offset="1" stop-color="#e6e6e6"></stop></radialGradient>
</defs>
</svg>