<svg width="101" height="51" viewBox="0 0 101 51" fill="none" xmlns="http://www.w3.org/2000/svg">
<path fill-rule="evenodd" clip-rule="evenodd" d="M50.4489 20.6918C50.6496 22.2227 50.8512 23.7527 51.0519 25.2828C50.7798 26.4398 50.5077 27.5967 50.2364 28.7537C49.3967 28.9223 48.5569 29.0909 47.7171 29.2594C46.6413 29.8987 45.5647 30.5371 44.489 31.1755L42.6608 31.5417C41.8059 31.131 40.9501 30.7211 40.0952 30.3103C40.39 30.7424 40.6797 31.1036 40.9669 31.4031C41.2877 31.6204 41.6152 31.7779 41.9738 31.8643C42.9572 32.1022 43.7785 32.056 44.6586 31.5982C46.6136 30.5799 48.4217 29.2654 50.6261 29.2107C51.6464 26.6554 51.5431 24.5203 51.0535 22.0481C50.7512 20.5215 50.6127 19.0676 50.5119 17.5306C50.4674 17.861 50.4229 18.1921 50.3784 18.5224C50.4019 19.2464 50.4254 19.9686 50.4489 20.6918Z" fill="#1E1E1E"/>
<path fill-rule="evenodd" clip-rule="evenodd" d="M39.9828 27.3071C39.2732 26.2828 38.5635 25.2585 37.8539 24.2341C37.848 24.3539 37.8413 24.4635 37.8354 24.567C37.8926 24.6517 37.9539 24.739 38.021 24.8289C38.8642 25.9833 39.3193 26.5027 39.6872 27.6314C39.541 27.9404 39.4394 28.2262 39.3613 28.5377C39.5117 28.8004 39.6611 29.0639 39.8056 29.3318C39.8644 28.6566 39.9231 27.9823 39.9828 27.3071Z" fill="#1E1E1E"/>
<path fill-rule="evenodd" clip-rule="evenodd" d="M48.1669 14.3332L48.004 14.5505C47.4094 15.3421 47.0315 15.8444 46.8526 16.873C46.6956 15.829 46.7023 15.5706 47.2129 14.6977L47.2893 14.5676L47.1566 14.6361C46.9794 14.7277 46.819 14.8552 46.6175 15.0306C45.9364 15.6245 45.0991 17.6569 44.5986 18.8746C44.9505 17.4968 45.6568 15.2531 46.3664 14.5377C46.8803 14.0208 47.0029 14.0088 47.6865 13.9438L47.7907 13.9344C48.6052 13.8557 49.4223 13.7701 50.2252 13.6794C49.5298 13.9438 48.879 14.1509 48.182 14.3297L48.1669 14.3332ZM56.9325 13.6212C55.6519 14.3503 55.1732 15.2308 54.9028 16.3151C54.7189 15.1222 55.0464 14.2005 56.9325 13.6212ZM57.8395 20.278C57.9235 20.118 58.0167 19.9674 58.1183 19.8279H58.1191L58.1393 19.7996L58.1032 19.7731L58.1183 19.7372C58.0192 19.697 57.9319 19.6353 57.8596 19.5558C57.6934 19.4146 57.5615 19.2417 57.4683 19.044C57.3743 18.8421 57.3255 18.6264 57.3239 18.4031L57.323 18.3132L57.2542 18.3697C57.0157 18.5631 56.6739 18.8258 56.3019 19.0115C56.5101 18.7907 56.7369 18.5066 56.9728 18.2097C57.3432 17.7459 57.7253 17.2649 58.0343 17.0519C58.3803 16.814 58.7918 16.7344 59.2268 16.6497C59.4872 16.5983 59.7534 16.5461 60.0112 16.458C59.8172 16.6026 59.5921 16.7344 59.3276 16.8781L59.2428 16.9244L59.3326 16.9577C59.703 17.0964 60.0003 17.3702 60.1691 17.7313C60.2404 17.8845 60.2866 18.0479 60.3051 18.2182L60.3101 18.2721L60.3605 18.255C60.5117 18.2045 60.6712 18.16 60.8333 18.1232C61.0382 18.0762 61.2398 18.0445 61.4312 18.0283C60.0658 18.4869 58.712 19.3855 57.7421 20.4791C57.7715 20.4132 57.8042 20.3456 57.8395 20.278ZM69.2992 16.3091C70.2414 15.8341 71.0249 15.07 71.58 14.0884C71.1778 15.366 70.4606 16.1773 69.3932 16.5649C68.8894 16.7481 68.5207 16.6394 68.0681 16.4905C68.4947 16.5358 68.8356 16.5427 69.2992 16.3091ZM72.4425 14.4179C72.34 14.1637 72.1049 13.8796 71.8454 13.6939C71.8269 13.6802 71.8084 13.6674 71.7891 13.6554L71.8731 13.3183L71.7287 13.6178C71.3877 13.4201 71.0686 13.4338 70.8385 13.6614C70.6118 13.8865 70.406 14.1552 70.2078 14.4145C69.9483 14.7542 69.6804 15.105 69.3605 15.3618C69.1102 15.5629 68.8003 15.6741 68.4997 15.7819C67.8892 16.0019 67.3122 16.2098 67.481 17.1289C67.6776 18.2045 67.6876 19.2374 67.5071 20.0393C67.4768 20.1736 67.4466 20.3165 67.4147 20.4646C67.2719 21.1363 67.0998 21.951 66.8168 22.467C66.9511 21.8586 67.1183 20.8009 67.1678 20.0897C67.198 19.6696 67.1636 19.1407 67.0628 18.4724L67.0578 18.4347L66.7278 18.4424C66.3473 18.451 65.7561 18.9935 65.6008 19.317C65.3984 19.7372 65.2825 20.1454 65.1708 20.5399C65.0885 20.8282 65.0104 21.1072 64.9012 21.3845C64.9642 21.0858 64.9886 20.7923 65.0138 20.4877C65.0499 20.0444 65.0868 19.5866 65.2573 19.0962C65.3732 18.7642 65.6696 18.4493 66.0509 18.2542L66.1718 18.1917L66.0383 18.1712C65.8804 18.1472 65.7276 18.1909 65.5336 18.2448C65.4639 18.2644 65.39 18.2858 65.3077 18.3055C64.4284 18.5177 64.1563 19.0577 63.8423 19.6816C63.7482 19.8681 63.6525 20.0572 63.5374 20.2489C63.6466 19.9836 63.7247 19.738 63.7961 19.5121C64.043 18.7325 64.2067 18.2182 65.3346 17.9555C65.8897 17.8272 66.2289 17.7998 66.5413 18.0129C66.5648 18.0283 66.5875 18.0454 66.6102 18.0642L66.6236 18.0753L66.9931 18.0445L66.9856 17.9975C66.9419 17.757 66.894 17.5054 66.8369 17.2281L66.831 17.1973L66.8008 17.1939C66.2281 17.1169 65.6847 17.1075 65.0919 17.164C65.0163 17.1708 64.9415 17.1794 64.8651 17.1888C64.934 17.1605 64.9953 17.1366 65.0524 17.1152L65.1145 17.0921L65.0683 17.0433C65.0222 16.9945 64.9802 16.9269 64.9491 16.8473C64.8517 16.6522 64.8114 16.4349 64.8315 16.2167C64.8475 16.0489 64.8979 15.8898 64.9818 15.7443L65.0331 15.6561L64.9348 15.6801C64.9046 15.6878 64.8777 15.6955 64.8525 15.7058C64.7299 15.7554 64.5007 15.7605 64.3151 15.7357C64.6585 15.651 65.0692 15.4918 65.3388 15.3575L65.3682 15.3438C65.4992 15.2608 65.6436 15.2077 65.7956 15.1846C65.8863 15.1709 65.9778 15.1684 66.0694 15.1778C66.1945 15.1898 66.3154 15.2231 66.4355 15.2788C66.5842 15.3233 66.7513 15.3849 66.9453 15.455L67.0754 15.5021L67.0301 15.4071C66.716 14.7379 66.3473 14.1064 65.9048 13.4783C65.4933 12.8938 65.138 12.6807 64.551 12.3282L64.5216 12.3102C64.3848 12.228 64.2538 12.1459 64.132 12.0654L64.1169 12.0586C63.7717 11.9944 63.4123 11.9345 63.0755 11.9405C63.2662 11.8849 63.4501 11.8532 63.6651 11.8344L63.781 11.8241L63.6861 11.7548C63.0697 11.3055 62.5179 10.8203 61.9351 10.3052C61.7059 10.1041 61.4682 9.89443 61.2247 9.68563C60.6721 9.21326 60.1447 8.82988 59.6114 8.51668C58.3014 7.74566 57.0199 7.44101 55.5788 7.55825C54.3225 7.66009 52.9192 8.07854 51.0314 8.91375C49.2813 9.68905 48.6691 10.4857 47.6546 11.8053L47.6009 11.8763L47.7226 11.8755C48.6623 11.8524 49.4887 11.8216 50.3176 11.7591C49.3686 11.9713 48.4793 12.1408 47.6084 12.2751C47.4867 12.2939 47.3741 12.311 47.2675 12.3264C46.9492 12.3727 46.6973 12.4103 46.4688 12.4676C45.9624 12.596 45.5929 12.8305 45.0555 13.3628C44.0125 14.3965 43.0635 15.5235 42.1456 16.6137C41.567 17.3009 40.9683 18.0111 40.3628 18.6778C39.4877 19.6405 39.0435 20.5904 38.5287 21.6891L38.4733 21.8072C37.9551 22.9145 38.0005 23.3715 38.7294 24.377C38.847 24.5396 38.957 24.6868 39.0603 24.8254L39.1552 24.9512C39.633 25.587 39.9488 26.0072 40.1856 26.6961L40.2141 26.7799L40.262 26.7055C40.8515 25.7787 41.5334 24.9649 42.2548 24.1032C42.3816 23.9517 42.5109 23.7977 42.6411 23.6402C41.9819 24.7296 41.305 25.8934 40.6936 27.1205C40.2822 27.9489 40.0546 28.4041 40.0672 29.3737L40.068 29.39L40.0781 29.4019C40.9153 30.3852 41.4117 30.8584 42.1414 31.0629C42.9896 31.3 43.7437 31.2349 44.4458 30.8644C44.8304 30.6616 45.2167 30.4425 45.5904 30.2303C46.9576 29.4533 48.3701 28.6514 49.9287 28.5299L49.9514 28.5282L49.9623 28.5077C51.0037 26.6148 50.703 24.223 50.3386 22.1298C50.0589 20.5202 50.095 19.032 50.457 17.3428L50.4696 17.5336C50.5603 18.9208 50.6887 20.4286 51.0112 22.0571C51.4924 24.4848 51.6058 26.6242 50.5972 29.1675C48.8429 29.2197 47.3724 30.0429 45.8163 30.9149C45.4325 31.1297 45.0353 31.3522 44.6389 31.5593C43.8067 31.9923 43.0131 32.071 41.9836 31.822C41.6476 31.7407 41.3226 31.5918 40.9909 31.3667C40.4039 30.9688 39.8387 30.3621 39.2156 29.6681C39.2736 29.1803 39.3298 28.8448 39.4029 28.5488C39.481 28.2356 39.5835 27.9497 39.7262 27.6511L39.7338 27.6348L39.7287 27.6177C39.4063 26.631 39.0158 26.1022 38.3683 25.2276C38.27 25.0958 38.1659 24.9546 38.055 24.8032C37.9887 24.7125 37.9274 24.626 37.8703 24.5422C37.1153 23.4366 37.1027 22.8504 37.8023 21.4042C38.2003 20.5827 38.6118 19.7329 39.1921 18.908C39.3492 18.6846 39.5062 18.4792 39.6733 18.279C39.8421 18.0762 40.0092 17.8759 40.173 17.6791C40.8163 16.9047 41.4243 16.173 42.0381 15.473L42.1171 15.3832L41.9995 15.4011C38.5799 15.9317 36.6257 16.7823 34.533 18.6538C33.0373 19.9922 31.9658 21.6943 31.1613 24.0125C30.6843 25.3868 30.5793 26.7346 30.7884 28.82C30.9152 30.0882 31.2872 31.484 31.8952 32.967C32.4655 34.361 33.2145 35.7558 34.0619 37.0018C33.8687 38.4437 33.6235 39.4834 33.2431 40.4761C33.1465 40.7294 33.1465 40.9622 33.2422 41.1701C33.3993 41.5081 33.794 41.7734 34.4851 42.0036C34.7345 42.0875 34.984 42.1542 35.204 42.2133C35.2854 42.2346 35.3619 42.2543 35.4349 42.2749C37.6494 42.8936 38.8629 42.8765 39.0418 42.2244C39.193 41.6741 39.2013 41.2968 39.1602 40.6635C39.4827 40.0114 39.6439 39.759 39.8312 39.4672C39.911 39.3422 39.9941 39.213 40.094 39.0444C40.4459 38.4531 40.4845 38.205 40.4871 37.481C40.4879 37.2114 40.4862 36.8794 40.4854 36.5294C40.482 35.8859 40.4787 35.1739 40.4904 34.6998C40.5803 35.1191 40.6768 35.6138 40.7625 36.0998C40.7759 36.176 40.7885 36.2522 40.8011 36.3283L40.8062 36.3583L40.8364 36.3643C42.7116 36.7048 44.534 36.6809 46.4084 36.2907L46.4369 36.2847L46.442 36.2556C46.4638 36.1349 46.4999 36.0057 46.5461 35.8431L46.5562 35.8072C46.6175 35.589 46.7115 35.3647 46.8022 35.1482C46.8501 35.0361 46.8988 34.9215 46.9433 34.8059L46.8686 35.7704C46.8299 36.2641 46.835 36.6201 46.8862 37.0386L46.9542 37.5982C46.9156 37.5452 46.8753 37.4921 46.8367 37.4399C46.7468 37.3235 46.6553 37.2029 46.5906 37.0831L46.5688 37.042L46.3513 37.1875C45.6274 37.6718 45.1898 37.9653 44.4408 38.3693C44.2736 38.4591 44.1628 38.5977 44.1107 38.7817C43.9923 39.201 44.1779 39.8505 44.6641 40.714C44.7557 40.8774 44.8413 41.0178 44.9052 41.1213C45.5258 42.1268 46.269 43.33 47.317 43.33C47.5647 43.33 47.8301 43.2624 48.1148 43.1092C48.4759 42.9141 48.7203 42.5393 48.9563 42.1773C49.036 42.0549 49.1116 41.9386 49.1906 41.8307C49.4182 41.6904 50.1101 41.1239 50.7794 40.5754C51.4026 40.0645 52.0467 39.5373 52.2188 39.4355C52.7462 39.1266 54.5719 36.0468 54.7936 35.3194C54.9338 34.859 55.0808 34.4269 55.2227 34.0092C55.5956 32.9148 55.9483 31.8802 56.0709 30.6051L56.0743 30.5734L56.0449 30.5606C55.0262 30.125 54.4686 29.6484 53.7439 28.8098C54.7113 29.4995 55.6426 29.9556 56.8872 30.3569C57.3432 30.7677 57.8042 31.1827 58.2821 31.6166L58.4131 31.7355C59.0731 32.3371 59.6963 32.9062 60.6595 32.9233C60.8955 32.9276 61.144 32.8925 61.3943 32.8181C62.3206 32.5434 63.1075 31.8143 63.351 31.003L63.7323 29.7374L63.6877 29.7271C63.4702 29.6732 63.2578 29.6142 63.0571 29.5517L63.0201 29.5397L63.005 29.5765C62.8505 29.953 62.8085 30.1721 62.764 30.404C62.743 30.5135 62.7212 30.6282 62.6867 30.7609C62.4995 31.4694 61.5345 31.8947 60.6217 31.6705C60.2791 31.5866 60.0725 31.5362 59.9532 31.448L59.8382 31.3633L59.8877 31.4985C60.012 31.8382 60.243 32.0419 60.5738 32.1044C60.8896 32.1634 61.1466 32.1994 61.5497 32.1386C61.3599 32.2276 61.2154 32.2789 61.0836 32.3063C60.8585 32.3551 60.6729 32.3311 60.4076 32.2712C60.0859 32.1985 59.8516 32.0385 59.7114 31.7963C59.3477 31.1665 59.6593 30.0942 59.8659 29.384C60.0179 28.8585 60.0204 28.2681 59.8709 27.533C59.9079 27.557 59.9448 27.5809 59.9809 27.604C60.2799 27.7983 60.5612 27.9814 60.882 28.132C61.0139 28.1936 61.1432 28.2458 61.275 28.292C64.053 29.2453 67.2417 30.1362 69.9189 28.6138C72.1931 27.3199 73.2579 24.4652 73.4964 22.2257C73.7425 19.91 73.2797 16.4811 72.4425 14.4179Z" fill="#FDD300"/>
<path fill-rule="evenodd" clip-rule="evenodd" d="M57.1294 35.8177C57.1093 35.0817 56.9707 34.6573 56.686 33.971C56.5164 33.5602 56.424 33.1768 56.3073 32.79C56.0528 33.7151 55.711 34.5888 55.3986 35.59C55.1039 36.5373 53.5897 39.2894 52.6987 39.956C52.8717 40.0878 53.19 40.1392 53.7577 40.1896C54.1583 40.2247 55.7413 40.2324 56.1376 40.2393C57.0127 40.2547 57.3444 40.1879 57.4326 39.173C57.4763 38.6758 57.4385 38.5834 57.1941 38.1478C57.1723 37.3708 57.1504 36.5947 57.1294 35.8177Z" fill="#FDD300"/>
<path fill-rule="evenodd" clip-rule="evenodd" d="M30.1379 20.3163C30.1102 19.9467 30.043 19.6728 29.7877 19.5222C29.7709 19.5821 29.7533 19.642 29.7373 19.7028C29.7071 19.8217 29.6853 19.9484 29.6685 20.0793C29.865 20.0571 29.9859 20.1615 30.1379 20.3163Z" fill="#FDD300"/>
<path fill-rule="evenodd" clip-rule="evenodd" d="M30.447 24.1001C30.4655 24.0342 30.4856 23.9683 30.5058 23.9032C30.6292 23.5062 30.7611 23.122 30.9022 22.7488C30.6057 23.0218 30.2732 23.2529 29.8701 23.4172C28.8262 23.8442 28.8472 23.4762 28.3988 22.5529C29.2436 21.8649 28.9942 21.0357 29.1369 20.1106C29.1554 19.9908 29.1806 19.8693 29.215 19.7469C29.2856 19.4996 29.3889 19.2591 29.5333 18.9417C28.5634 19.5364 26.8082 21.164 27.8168 22.4451C27.8495 22.487 27.8848 22.5281 27.9235 22.5683C28.057 23.0595 28.1594 23.4403 28.3425 23.8279C28.7179 24.6281 29.6996 24.4227 30.447 24.1001Z" fill="#FDD300"/>
<path fill-rule="evenodd" clip-rule="evenodd" d="M30.614 31.4858C30.509 31.7708 30.4041 32.0558 30.2991 32.3407L30.2034 32.44C29.7574 32.9004 29.3107 33.3608 28.8647 33.8212C28.5095 34.1874 28.4407 34.2003 28.512 34.7188C28.6078 35.4137 29.0042 36.1539 29.597 36.7846C29.6105 36.7983 29.6231 36.8128 29.6357 36.8265C30.1983 37.411 32.1416 38.9394 32.9058 37.8988C33.0679 37.6771 33.1451 37.4007 33.2123 37.1175C33.2123 37.1081 33.2123 37.0987 33.2123 37.0884C32.1441 35.4411 31.18 33.4814 30.614 31.4858Z" fill="#FDD300"/>
<path fill-rule="evenodd" clip-rule="evenodd" d="M72.9053 26.5457L72.9103 26.5483L72.9053 26.5457ZM29.1903 23.0372L29.1929 23.032L29.1903 23.0372ZM43.7723 13.5581L43.769 13.5547L43.7723 13.5581ZM56.5505 31.7213L56.5513 31.7204L56.5505 31.7213ZM39.9144 40.7433L39.9135 40.7425L39.9144 40.7433ZM29.6321 20.4631H29.6346H29.6321ZM28.9703 22.6273L28.9695 22.6264L28.9703 22.6273ZM29.6682 20.0797C29.685 19.9488 29.7068 19.8222 29.7379 19.7032C29.7538 19.6424 29.7706 19.5825 29.7883 19.5218C30.0427 19.6733 30.1099 19.9471 30.1376 20.3168C29.9865 20.1619 29.8647 20.0566 29.6682 20.0797ZM27.8173 22.445C26.8079 21.164 28.563 19.5372 29.5338 18.9416C29.3885 19.2591 29.2861 19.4995 29.2155 19.7468C29.1803 19.8692 29.1559 19.9907 29.1374 20.1105C28.9938 21.0356 29.2433 21.8648 28.3984 22.5528C28.8469 23.4762 28.8267 23.8441 29.8706 23.4171C30.2728 23.2528 30.6054 23.0218 30.9018 22.7488C30.7607 23.1219 30.6297 23.5061 30.5063 23.9032C30.4853 23.9682 30.466 24.0341 30.4467 24.1C29.7001 24.4226 28.7184 24.628 28.3422 23.8279C28.1599 23.4402 28.0566 23.0594 27.924 22.5682C27.8853 22.528 27.8501 22.4869 27.8173 22.445ZM29.5976 36.7847C29.0048 36.154 28.6075 35.4138 28.5118 34.7189C28.4413 34.2003 28.5101 34.1875 28.8654 33.8212C29.3113 33.3609 29.758 32.9005 30.204 32.4401L30.2997 32.3408C30.4047 32.0558 30.5096 31.7709 30.6146 31.4859C31.1798 33.4807 32.1439 35.4412 33.2129 37.0885C33.2129 37.0987 33.2129 37.1082 33.2121 37.1176C33.1457 37.4008 33.0676 37.6772 32.9055 37.8989C32.1413 38.9394 30.1989 37.4111 29.6363 36.8266C29.6228 36.8129 29.6102 36.7984 29.5976 36.7847ZM58.3107 31.5835C57.8303 31.147 57.3676 30.7303 56.9091 30.3178C55.6721 29.9199 54.6769 29.4552 53.5348 28.6038C53.5205 28.5935 53.5054 28.5824 53.4911 28.5721C53.4853 28.5678 53.4802 28.5636 53.4744 28.5593C53.4811 28.567 53.487 28.5738 53.4928 28.5815C54.3141 29.5622 54.8785 30.109 56.0281 30.6002C55.8593 32.3528 55.2622 33.6296 54.7525 35.306C54.5224 36.0641 52.7018 39.102 52.1979 39.3981C51.8385 39.6095 49.5853 41.5426 49.1621 41.7976C48.8463 42.2246 48.5692 42.8151 48.0947 43.071C46.6486 43.8497 45.7198 42.3581 44.9413 41.0976C44.8775 40.9941 44.7918 40.8537 44.7011 40.692C44.2905 39.9629 43.7589 38.7871 44.461 38.408C45.2722 37.9699 45.7257 37.6575 46.5537 37.1039C46.6746 37.3298 46.8829 37.5471 47.0189 37.7722C46.9887 37.5266 46.9593 37.2793 46.9282 37.0328C46.8745 36.5861 46.8762 36.2233 46.9114 35.774C46.9392 35.4172 46.966 35.0612 46.9937 34.7052C46.9996 34.6256 47.0063 34.5469 47.0122 34.4673C46.8879 34.9097 46.6394 35.353 46.5151 35.7954C46.4647 35.9726 46.4235 36.1155 46.4 36.2473C44.5441 36.6341 42.7008 36.658 40.844 36.3209C40.8314 36.2447 40.818 36.1685 40.8045 36.0915C40.6971 35.4805 40.5744 34.8687 40.4686 34.4066C40.4661 34.3937 40.4636 34.3792 40.4602 34.3672C40.4233 34.9534 40.4476 36.5733 40.4443 37.4804C40.4418 38.1838 40.4132 38.4243 40.0571 39.0224C39.7246 39.5821 39.5835 39.7088 39.1174 40.6543C39.1561 41.2517 39.1561 41.6462 39.0007 42.2127C38.742 43.154 36.132 42.424 35.4434 42.2323C35.1839 42.1596 34.8387 42.0757 34.4986 41.9628C33.7269 41.7052 32.9778 41.291 33.2826 40.4918C33.6714 39.4786 33.9166 38.4097 34.1064 36.9909C33.3044 35.8143 32.5327 34.4117 31.9339 32.9501C31.3729 31.5792 30.9648 30.1561 30.8304 28.816C30.6155 26.6655 30.7448 25.3425 31.2016 24.0273C31.9247 21.9435 32.9366 20.1396 34.5608 18.6866C36.7518 16.7278 38.8 15.9414 42.0063 15.4442C41.2354 16.3239 40.472 17.2541 39.6406 18.251C39.4659 18.4607 39.3064 18.6703 39.1577 18.8817C38.59 19.6878 38.1878 20.5093 37.7645 21.3847C37.0759 22.8061 37.0432 23.4077 37.8351 24.5672C37.841 24.4637 37.8477 24.3533 37.8544 24.2344C38.5632 25.2587 39.2728 26.2822 39.9824 27.3073C39.9236 27.9817 39.864 28.6568 39.8052 29.3312C39.6616 29.0642 39.5121 28.8006 39.3618 28.5379C39.2787 28.8708 39.2232 29.2319 39.1712 29.6829C39.8346 30.4222 40.3897 31.011 40.9675 31.4029C40.6794 31.1043 40.3897 30.7423 40.0949 30.3101C40.9498 30.7209 41.8056 31.1308 42.6605 31.5415L44.4887 31.1761C45.5644 30.5369 46.641 29.8985 47.7168 29.2593C48.5566 29.0907 49.3964 28.9221 50.2362 28.7535C50.5082 27.5974 50.7795 26.4396 51.0524 25.2826C50.8509 23.7526 50.6502 22.2225 50.4486 20.6916C50.4251 19.9685 50.4016 19.2462 50.3781 18.5231C50.4226 18.192 50.4671 17.8616 50.5116 17.5305C50.5015 17.3679 50.4906 17.2044 50.4805 17.0401C50.0674 18.8124 49.9901 20.3715 50.2966 22.1369C50.6661 24.2652 50.9542 26.6159 49.9254 28.4865C47.9318 28.6414 46.2228 29.878 44.4265 30.8253C43.7043 31.2069 42.9527 31.2437 42.1524 31.0204C41.4109 30.8125 40.9095 30.3127 40.1109 29.3731C40.0983 28.4301 40.3074 27.9945 40.7315 27.1405C41.4151 25.7687 42.1684 24.4919 42.9964 23.1416C41.9828 24.3875 41.0237 25.4281 40.2259 26.6809C39.9715 25.9407 39.6238 25.5043 39.0947 24.7983C38.9915 24.6605 38.8814 24.5133 38.7639 24.3516C38.0585 23.3778 37.9846 22.9525 38.5119 21.8263C39.0418 20.695 39.492 19.6998 40.3939 18.7071C41.9534 16.9922 43.381 15.0831 45.0858 13.3938C45.6476 12.8359 46.0078 12.6296 46.479 12.5107C46.783 12.4337 47.1332 12.3926 47.6143 12.3181C48.6053 12.1658 49.5769 11.9741 50.5779 11.7448C50.6989 11.7174 50.8181 11.6917 50.9399 11.6627C49.8457 11.7662 48.7875 11.8047 47.7218 11.8321C47.7109 11.8321 47.6992 11.8329 47.6882 11.8329C48.7371 10.468 49.3451 9.70814 51.0482 8.95423C52.7673 8.19347 54.2285 7.71169 55.583 7.6013C56.9788 7.48748 58.2611 7.77159 59.5905 8.55459C60.1154 8.86266 60.6469 9.24775 61.197 9.71926C62.0502 10.4501 62.7959 11.1595 63.6609 11.7902C63.3477 11.8184 63.0773 11.8749 62.7195 12.0178C63.1545 11.9339 63.6576 12.0178 64.1085 12.1016C64.2362 12.1855 64.3663 12.2668 64.4999 12.3472C65.1104 12.7144 65.4572 12.9172 65.8704 13.5034C66.3071 14.1229 66.6707 14.7433 66.9915 15.4253C66.7816 15.3492 66.6052 15.2842 66.4482 15.2371C66.3323 15.1823 66.2063 15.1472 66.0736 15.1344C65.977 15.1241 65.8813 15.1276 65.7889 15.1412C65.6294 15.1652 65.4791 15.2225 65.3455 15.3064C65.3371 15.3107 65.3287 15.3141 65.3203 15.3184C64.9886 15.4827 64.478 15.6701 64.1278 15.7308C64.122 15.7326 64.1144 15.7343 64.1085 15.7351C64.2874 15.7976 64.6821 15.8216 64.8685 15.7463C64.8937 15.736 64.9189 15.7283 64.9449 15.7223C64.861 15.8678 64.8055 16.0338 64.7887 16.2126C64.7669 16.4471 64.8131 16.6713 64.9105 16.8673C64.8778 16.7834 64.8593 16.6927 64.8668 16.614C64.892 16.3444 65.1179 16.1459 65.3816 16.1724C65.6453 16.1981 65.8402 16.4385 65.815 16.7081C65.8099 16.7654 65.7948 16.8185 65.7713 16.8681C65.5303 16.9101 65.2884 16.9828 65.039 17.0761C65.039 17.0752 65.0382 17.0744 65.0373 17.0735C64.9407 17.1103 64.8425 17.1505 64.7434 17.1916C64.6787 17.2198 64.6132 17.2472 64.5469 17.2763C64.7342 17.2472 64.9156 17.2241 65.0961 17.207C65.668 17.1522 66.2147 17.1591 66.795 17.237C66.8454 17.4817 66.8966 17.741 66.9428 18.0054C66.8487 18.0131 66.7547 18.02 66.6598 18.0277C66.6522 18.0285 66.6447 18.0294 66.6371 18.0294C66.6136 18.0105 66.5892 17.9926 66.5649 17.9763C66.2223 17.7427 65.8376 17.7932 65.3254 17.913C63.655 18.3015 64.0481 19.2557 63.2797 20.695C64.0775 19.7006 64.0178 18.6618 65.3178 18.3477C65.621 18.2741 65.8267 18.1834 66.0316 18.2151C65.663 18.4033 65.3438 18.7174 65.217 19.0811C64.8601 20.108 65.0818 20.9731 64.6897 21.9316C65.175 21.075 65.2053 20.238 65.6386 19.3361C65.7948 19.0126 66.3734 18.494 66.7286 18.4855C66.8261 18.4838 66.9235 18.4812 67.0209 18.4795C67.1065 19.0503 67.1586 19.6168 67.1259 20.0866C67.0654 20.944 66.8462 22.2165 66.7152 22.7043C67.1553 22.1275 67.356 20.9081 67.5491 20.0489C67.7498 19.1547 67.6994 18.0816 67.5231 17.1206C67.2812 15.8019 68.614 16.0167 69.3874 15.3954C69.9559 14.9384 70.3473 14.2093 70.8688 13.6925C71.1476 13.4169 71.5121 13.5085 71.8211 13.7293C72.0856 13.9184 72.309 14.2033 72.4031 14.4344C73.2848 16.608 73.6871 20.0284 73.4536 22.2208C73.1925 24.6793 72.0268 27.3647 69.898 28.5755C67.1846 30.1184 63.9842 29.1754 61.2885 28.2504C61.15 28.2024 61.0223 28.1494 60.8997 28.092C60.5151 27.9115 60.1909 27.6864 59.8072 27.44C59.9449 28.0724 60.0079 28.7407 59.8248 29.3722C59.5342 30.3735 59.0639 32.0113 60.3984 32.3134C60.6705 32.375 60.8628 32.3981 61.0929 32.3494C61.2919 32.3066 61.5203 32.2107 61.8529 32.0353C61.2726 32.1688 60.9803 32.1363 60.5814 32.061C60.2203 31.9934 60.0289 31.7589 59.9272 31.4834C60.0541 31.5758 60.2598 31.6263 60.6117 31.7135C61.6009 31.9557 62.5432 31.4705 62.7279 30.7714C62.8354 30.3632 62.8169 30.1493 63.0445 29.593C63.2486 29.6572 63.4611 29.7162 63.6777 29.7693C63.5551 30.1766 63.4325 30.584 63.3107 30.9904C63.0613 31.8179 62.2484 32.5188 61.3826 32.7755C61.1424 32.8474 60.898 32.8842 60.6604 32.8799C59.6493 32.8611 59.0085 32.2159 58.3107 31.5835ZM56.6865 33.971C56.9704 34.6573 57.1089 35.0818 57.1291 35.8177C57.1509 36.5947 57.1728 37.3709 57.1946 38.1479C57.4381 38.5834 57.4759 38.6759 57.4331 39.1731C57.3441 40.188 57.0124 40.2547 56.1381 40.2393C55.7409 40.2325 54.1588 40.2248 53.7574 40.1897C53.1897 40.1392 52.8722 40.0878 52.6984 39.9561C53.5894 39.2894 55.1035 36.5374 55.3991 35.5901C55.7107 34.5888 56.0525 33.7151 56.3069 32.7901C56.4245 33.1769 56.516 33.5602 56.6865 33.971ZM29.9453 19.064H29.9445L29.9453 19.0631V19.064ZM74.18 22.2405L74.4311 22.2644C74.5571 20.9997 74.4882 19.2796 74.2296 17.6212C73.9995 16.1433 73.6182 14.7082 73.0892 13.6762C73.0245 13.5504 72.9262 13.4229 72.8053 13.3005C72.5425 13.0361 72.1528 12.7862 71.7505 12.645C71.3248 12.4961 70.8755 12.4653 70.5194 12.6562C70.4262 12.7049 70.3406 12.7683 70.2633 12.8479C70.0332 13.0866 69.8384 13.3758 69.6427 13.6668C69.4252 13.9903 69.2077 14.3146 68.9465 14.5422L69.1078 14.7356L68.9465 14.5422C68.6442 14.8049 68.2663 14.9658 67.9094 15.1121C67.7523 14.7254 67.5709 14.3728 67.3669 14.0416C67.1225 13.6445 66.8445 13.2723 66.5389 12.9009C66.2886 12.598 66.0459 12.3703 65.7822 12.1658C65.5185 11.9604 65.2481 11.7876 64.934 11.5873C64.09 11.0491 63.372 10.4073 62.6397 9.75178C62.3064 9.45398 61.9704 9.15447 61.6412 8.87807C59.897 7.41218 58.2704 6.70106 56.5295 6.58981C54.8012 6.47856 52.9764 6.96291 50.8215 7.88712C49.7818 8.33296 49.0092 8.86009 48.3374 9.4942C47.6941 10.0992 47.1491 10.7966 46.5503 11.6096C46.1993 11.6353 45.892 11.6892 45.5754 11.8184C45.2277 11.9604 44.8775 12.1898 44.4576 12.5672C44.1603 12.835 43.8748 13.1037 43.5993 13.3758C43.3415 13.63 43.0913 13.8876 42.8444 14.1486C40.8826 14.4695 39.2854 14.8246 37.8544 15.3894C36.3906 15.967 35.0999 16.762 33.7747 17.9592L33.9393 18.15L33.7747 17.9592C33.2331 18.4487 32.7645 18.9656 32.3547 19.5132C31.9507 20.0515 31.6056 20.6171 31.3024 21.2144C31.0379 21.5131 30.7733 21.8143 30.4853 22.0779C30.2048 22.3355 29.9067 22.552 29.5716 22.6829V22.6838C29.3768 22.7599 29.2953 22.8044 29.2878 22.8018C29.2777 22.7959 29.2735 22.7668 29.2592 22.7111C29.7396 22.2439 29.8151 21.5567 29.8597 20.8747C29.9176 20.9449 29.973 21.0313 30.0301 21.122C30.094 21.2221 30.1595 21.3248 30.2367 21.4258L30.5634 21.8451L30.6784 21.3214L30.4332 21.2666L30.6784 21.3214C30.775 20.8824 30.8464 20.2988 30.7339 19.7922L30.487 19.8487L30.7339 19.7922C30.6616 19.4636 30.5122 19.1701 30.251 18.963C30.2762 18.8971 30.2997 18.8355 30.3224 18.7747C30.4047 18.5616 30.4895 18.3426 30.5609 18.1355L30.7028 17.7256L30.2812 17.8C29.7211 17.8993 28.5177 18.5728 27.6695 19.4696C27.3546 19.8025 27.0842 20.1704 26.9061 20.5564C26.7214 20.9586 26.6382 21.3787 26.7105 21.7998C26.7726 22.1677 26.9532 22.528 27.2815 22.8686C27.3411 23.1142 27.3966 23.3273 27.4554 23.5198C27.5225 23.7389 27.5956 23.934 27.6871 24.1265C27.934 24.6503 28.3271 24.9694 28.7822 25.1183C29.1484 25.2381 29.5523 25.2441 29.9495 25.1551C29.8723 25.6121 29.8235 26.0905 29.8042 26.6116C29.779 27.2945 29.8034 28.0475 29.8773 28.923C29.8932 29.1147 29.9176 29.326 29.9495 29.5554C29.9764 29.7513 30.0083 29.9447 30.0427 30.1364C29.9697 30.3418 29.8949 30.548 29.8202 30.7534C29.7051 31.0743 29.5892 31.3944 29.4742 31.7153C29.2197 31.9711 28.9661 32.2278 28.7117 32.4837C28.4749 32.7233 28.238 32.9629 28.0004 33.2017C27.9811 33.2214 27.9013 33.3001 27.8282 33.3711C27.3479 33.8418 27.253 33.9359 27.389 34.7643C27.473 35.2726 27.6367 35.7877 27.8929 36.2841C28.1289 36.7419 28.4455 37.1877 28.8519 37.6028C29.3583 38.1205 30.1889 38.7632 31.058 39.1003C31.5552 39.2929 32.0683 39.387 32.5486 39.3083C32.5243 39.3836 32.4999 39.4589 32.4731 39.5342C32.3975 39.7481 32.3135 39.9612 32.2194 40.1691C31.6299 41.4878 32.2354 42.1759 33.1776 42.614C33.6488 42.8322 34.2081 42.9811 34.7287 43.1189C34.8345 43.1471 34.9403 43.1754 35.0747 43.2122C35.6911 43.3816 36.756 43.6931 37.7276 43.7564C38.7891 43.8249 39.7456 43.6015 40.0026 42.6303C40.1033 42.246 40.163 41.9508 40.1865 41.6633C40.2091 41.3946 40.2007 41.125 40.1705 40.7887C40.472 40.1067 40.6005 39.9141 40.8213 39.5847L40.6131 39.44L40.8213 39.5847C40.865 39.5196 40.9171 39.4418 40.933 39.4178C41.1699 39.0592 41.2815 38.8051 41.3219 38.5184C41.3605 38.242 41.3277 37.9673 41.2782 37.5463C41.274 37.5069 41.2673 37.4496 41.2564 37.3726C41.8778 37.4547 42.49 37.4958 43.0988 37.4992C43.4079 37.5018 43.7169 37.4924 44.026 37.4753C43.9479 37.5163 43.8681 37.5583 43.7849 37.6019C43.7471 37.6216 43.7085 37.6421 43.6699 37.6627C42.8503 38.0914 42.8167 38.9052 43.0728 39.7413C43.3037 40.496 43.7799 41.2671 44.0789 41.7351C44.7062 42.721 45.3058 43.5553 46.0314 44.0089C46.793 44.4846 47.6622 44.5403 48.785 43.9207C49.3561 43.6058 49.5358 43.2849 49.7785 42.8519C49.8524 42.7201 49.933 42.5772 50.0228 42.436C50.2597 42.2768 50.8492 41.7805 51.4253 41.2953C51.621 41.1301 51.8158 40.9667 52.0366 40.7836C52.1895 40.8974 52.3751 40.9752 52.5976 41.0292C52.8865 41.1002 53.2308 41.1318 53.6431 41.1627C53.9513 41.1849 54.9574 41.1841 55.6074 41.1841C55.8081 41.1841 55.9752 41.1841 56.0752 41.1841L56.076 40.9282L56.0752 41.1841C56.7461 41.1892 57.2878 41.1524 57.6968 40.9162C58.1335 40.6646 58.3921 40.2179 58.4484 39.4178C58.4727 39.0618 58.4778 38.8427 58.4291 38.6185C58.3837 38.4089 58.2964 38.2206 58.1435 37.9399C58.1351 37.5951 58.1251 37.2493 58.1167 36.9036C58.1066 36.5365 58.0974 36.1694 58.0873 35.8023C58.0764 35.3701 58.0293 35.0184 57.9437 34.6727C57.858 34.3287 57.7363 33.9984 57.5725 33.603C57.4616 33.3343 57.3726 33.0879 57.2844 32.8466V32.8457C57.1442 32.4598 57.0065 32.0841 56.8125 31.681C56.8251 31.6049 56.8377 31.521 56.8494 31.4329C56.9746 31.5552 57.0989 31.6776 57.224 31.8L57.7749 32.3408C58.1956 32.7541 58.5802 33.1298 59.032 33.4019C59.4998 33.6826 60.0247 33.8452 60.7049 33.8127C61.417 33.7785 62.1795 33.473 62.8069 33.0006C63.414 32.5445 63.9011 31.9292 64.1043 31.2472C64.1631 31.0503 64.2219 30.8535 64.2798 30.6567C64.3277 30.4993 64.3739 30.3418 64.4209 30.1843C65.4194 30.3572 66.4918 30.4128 67.5273 30.3024C68.5266 30.1955 69.4915 29.9362 70.3238 29.4835C71.5473 28.8177 72.4652 27.8379 73.1244 26.6741C73.8618 25.3734 74.2741 23.8416 74.4311 22.2644L74.18 22.2405Z" fill="black"/>
<path fill-rule="evenodd" clip-rule="evenodd" d="M56.1177 19.1328C56.1924 19.108 56.2672 19.0686 56.3595 19.0096C56.6484 18.7041 56.9381 18.3977 57.227 18.0913C57.7376 17.6977 58.2482 17.3032 58.7596 16.9087C59.093 16.7975 59.4273 16.6871 59.7615 16.5758C59.8858 16.5245 60.0907 16.4013 60.22 16.3456C60.2326 16.3337 60.246 16.3234 60.2578 16.3114C59.5138 16.6623 58.6488 16.5767 58.0105 17.0157C57.4538 17.399 56.687 18.6048 56.1177 19.1328Z" fill="#1E1E1E"/>
<path fill-rule="evenodd" clip-rule="evenodd" d="M57.8015 20.2573C57.7276 20.3994 57.6612 20.5466 57.605 20.7023C57.6243 20.6792 57.6445 20.6578 57.6629 20.6347C57.7083 20.5072 57.7612 20.3857 57.8225 20.2693C57.8158 20.265 57.8082 20.2616 57.8015 20.2573Z" fill="#1E1E1E"/>
<path fill-rule="evenodd" clip-rule="evenodd" d="M60.6353 18.2541C60.9938 18.1394 61.3583 18.047 61.7161 17.9742C61.7026 17.9819 61.6892 17.9888 61.6757 17.9965C61.7018 17.9888 61.7261 17.9802 61.7522 17.9725C61.4708 17.9691 61.1542 18.005 60.8242 18.0803C60.8301 18.1026 60.8368 18.1257 60.8427 18.1488C60.7738 18.1839 60.705 18.219 60.6353 18.2541Z" fill="#1E1E1E"/>
<path fill-rule="evenodd" clip-rule="evenodd" d="M58.7595 16.9089C58.2489 17.3025 57.7383 17.697 57.2269 18.0915C56.938 18.397 56.6491 18.7034 56.3602 19.0098C56.267 19.0679 56.1931 19.1082 56.1175 19.133C56.1133 19.1373 56.1074 19.1432 56.1016 19.1484C56.5156 18.9841 56.9145 18.7017 57.2806 18.403C57.2831 18.6247 57.3302 18.8497 57.4301 19.0628C57.5284 19.2725 57.6678 19.4487 57.8324 19.5891C57.7904 19.542 57.7543 19.4881 57.7257 19.4282C57.5729 19.103 57.7097 18.712 58.0289 18.5571C58.3488 18.4022 58.7334 18.54 58.8863 18.8651C58.9006 18.8959 58.9123 18.9276 58.9216 18.9593C58.6176 19.1895 58.3379 19.4607 58.1036 19.7748C57.9919 19.9254 57.8911 20.0863 57.8021 20.2574C57.8088 20.2608 57.8156 20.2651 57.8231 20.2686C58.3505 19.2571 59.4565 18.6315 60.6356 18.2541C60.7053 18.219 60.7741 18.184 60.843 18.1489C60.8371 18.1249 60.8304 18.1027 60.8245 18.0804C60.6675 18.1155 60.5087 18.1591 60.3475 18.2131C60.329 18.0436 60.2837 17.8742 60.2081 17.7124C60.0284 17.3282 59.7126 17.0527 59.3473 16.9166C59.6631 16.7446 59.9721 16.5649 60.2199 16.345C60.0905 16.4014 59.8856 16.5238 59.7622 16.576C59.4279 16.6873 59.0937 16.7977 58.7595 16.9089Z" fill="#1E1E1E"/>
<path fill-rule="evenodd" clip-rule="evenodd" d="M60.6356 18.2541C60.1678 18.4903 59.7 18.7273 59.2323 18.9643C58.778 19.4076 58.3236 19.8517 57.8693 20.2959C57.8534 20.2865 57.8382 20.2779 57.8223 20.2685C57.7618 20.3857 57.7081 20.5072 57.6636 20.6347C58.7293 19.3777 60.2417 18.4244 61.6761 17.9965C61.6895 17.9888 61.7029 17.9819 61.7164 17.9742C61.3586 18.047 60.9942 18.1394 60.6356 18.2541Z" fill="#1E1E1E"/>
<path fill-rule="evenodd" clip-rule="evenodd" d="M59.2323 18.9641C59.7 18.7279 60.1678 18.4908 60.6355 18.2538C59.4565 18.6312 58.3505 19.2567 57.8223 20.2691C57.8382 20.2785 57.8525 20.2862 57.8693 20.2956C58.3236 19.8523 58.7779 19.4082 59.2323 18.9641Z" fill="#1E1E1E"/>
<path fill-rule="evenodd" clip-rule="evenodd" d="M45.0915 17.547C45.2922 17.0293 45.4937 16.5107 45.6944 15.993L46.7946 14.3654C47.5394 14.1968 48.2843 14.0282 49.0292 13.8596C49.4432 13.8091 49.8572 13.7587 50.2704 13.709C50.3645 13.6731 50.4594 13.6363 50.5551 13.5978C49.6322 13.7039 48.7109 13.8014 47.7872 13.8913C47.0121 13.9649 46.8869 13.9529 46.3369 14.5066C45.5307 15.3187 44.748 18.0322 44.46 19.2619C44.6724 18.71 44.8782 18.1426 45.0915 17.547Z" fill="#1E1E1E"/>
<path fill-rule="evenodd" clip-rule="evenodd" d="M46.6454 15.064C46.8621 14.8749 47.0132 14.7593 47.1761 14.6746C46.6143 15.6348 46.6555 15.8735 46.8528 17.1588C47.0208 15.8521 47.4642 15.3472 48.1923 14.3717C48.8968 14.1911 49.562 13.9789 50.2707 13.7085C49.8567 13.759 49.4435 13.8095 49.0295 13.8591C48.2846 14.0285 47.5389 14.1971 46.794 14.3657L45.6948 15.9925C45.4932 16.5102 45.2925 17.0288 45.0909 17.5465C44.8776 18.1421 44.6727 18.7103 44.4594 19.2623C44.4485 19.3085 44.4384 19.353 44.4292 19.3949C44.8382 18.4339 45.8602 15.7477 46.6454 15.064Z" fill="#1E1E1E"/>
<path fill-rule="evenodd" clip-rule="evenodd" d="M71.7325 13.7069C71.7208 13.7309 71.709 13.754 71.6973 13.7779C71.7031 13.7754 71.7099 13.7719 71.7157 13.7694C71.7216 13.748 71.7275 13.7274 71.7325 13.7069Z" fill="#1E1E1E"/>
<path fill-rule="evenodd" clip-rule="evenodd" d="M69.4077 16.6059C70.7328 16.1242 71.3845 15.0493 71.7137 13.7777C71.5197 14.1791 71.3257 14.5804 71.1309 14.9817C70.8949 15.2342 70.6581 15.4875 70.4221 15.7408C70.0199 15.9941 69.6176 16.2474 69.2154 16.4998H68.237C68.0892 16.4733 67.9406 16.4468 67.7936 16.4211L67.7978 16.4168C67.7474 16.4117 67.6953 16.4066 67.6416 16.4006C68.3168 16.5982 68.7442 16.8473 69.4077 16.6059Z" fill="#1E1E1E"/>
<path fill-rule="evenodd" clip-rule="evenodd" d="M68.2374 16.5001H69.2157C69.618 16.2476 70.0202 15.9943 70.4225 15.741C70.6584 15.4877 70.8953 15.2344 71.1312 14.982C71.3261 14.5807 71.5201 14.1793 71.7141 13.778L71.7166 13.7694C71.7099 13.772 71.7031 13.7754 71.6973 13.778C71.1674 14.8382 70.3645 15.7231 69.2804 16.2699C68.7345 16.5454 68.3692 16.4795 67.799 16.4171L67.7939 16.4214C67.9409 16.447 68.0895 16.4736 68.2374 16.5001Z" fill="#1E1E1E"/>
<path fill-rule="evenodd" clip-rule="evenodd" d="M54.8982 16.523C54.8982 15.5569 55.2417 14.6729 56.1059 13.9669C56.32 13.8608 56.5341 13.7547 56.7483 13.6486C56.8843 13.6084 57.0204 13.569 57.1564 13.5288C57.1212 13.5536 57.0867 13.5784 57.0531 13.6041C57.1363 13.5587 57.2219 13.5134 57.3126 13.4697C55.0309 14.0516 54.6035 15.028 54.8966 16.5282C54.8974 16.5264 54.8974 16.5247 54.8982 16.523Z" fill="#1E1E1E"/>
<path fill-rule="evenodd" clip-rule="evenodd" d="M56.7485 13.6481C56.5352 13.7542 56.321 13.8603 56.106 13.9665C55.2419 14.6724 54.8984 15.5564 54.8984 16.5226C55.1361 15.4546 55.5493 14.4243 57.0533 13.6036C57.0878 13.578 57.1222 13.5531 57.1566 13.5292C57.0214 13.5685 56.8854 13.6088 56.7485 13.6481Z" fill="#1E1E1E"/>
<path fill-rule="evenodd" clip-rule="evenodd" d="M58.1017 19.7773C58.1026 19.7764 58.1034 19.7764 58.1034 19.7755C58.1034 19.7747 58.1043 19.7747 58.1043 19.7747C58.0077 19.7233 57.917 19.6609 57.833 19.589C57.9077 19.6729 58.001 19.7362 58.1017 19.7773Z" fill="#FFFBC9"/>
<path fill-rule="evenodd" clip-rule="evenodd" d="M58.1036 19.7747C58.3379 19.4607 58.6167 19.1894 58.9215 18.9592C58.9115 18.9275 58.9005 18.8959 58.8863 18.8651C58.7334 18.5399 58.3488 18.4021 58.0289 18.557C57.7097 18.7119 57.5729 19.103 57.7257 19.4281C57.7534 19.488 57.7904 19.542 57.8323 19.589C57.9172 19.66 58.0079 19.7225 58.1036 19.7747Z" fill="#FFFBC9"/>
<path fill-rule="evenodd" clip-rule="evenodd" d="M64.9156 16.8766C64.9475 16.9527 64.9912 17.0221 65.0391 17.0734H65.0382C65.0382 17.0743 65.0391 17.0751 65.0391 17.0751C65.2885 16.9827 65.5303 16.9099 65.7722 16.868C65.7949 16.8184 65.81 16.7653 65.815 16.708C65.8411 16.4384 65.6462 16.198 65.3817 16.1723C65.118 16.1458 64.8929 16.3443 64.8669 16.613C64.8594 16.6926 64.8778 16.7833 64.9114 16.8672C64.9123 16.8697 64.9131 16.8723 64.9148 16.8749L64.9156 16.8766Z" fill="#FFFBC9"/>
<path fill-rule="evenodd" clip-rule="evenodd" d="M65.0391 17.0729C64.9904 17.0224 64.9468 16.9523 64.9157 16.8761L64.914 16.8744C64.9132 16.8718 64.9123 16.8693 64.9106 16.8667C64.9417 16.9471 64.9871 17.0207 65.0374 17.0729C65.0383 17.0729 65.0391 17.0729 65.0391 17.0729Z" fill="#FFFBC9"/>
</svg>
