<svg width="101" height="51" viewBox="0 0 101 51" fill="none" xmlns="http://www.w3.org/2000/svg">
<path fill-rule="evenodd" clip-rule="evenodd" d="M20.7791 21.4542H19.0624V24.7895H20.7791V21.4542ZM20.7791 35.8022H19.0624V30.2644H8.06309V35.8022H4.69336V21.4542H8.06309V26.9291H17.6001H19.0624H20.7791V35.8022ZM20.7791 24.7895V21.4542H22.4957V24.7895H20.7791ZM22.4957 35.8022H20.7791V26.9291H22.4957V35.8022Z" fill="#B02125"/>
<path fill-rule="evenodd" clip-rule="evenodd" d="M32.9864 24.7895H27.2643H23.8945V21.4542H32.9864V24.7895ZM32.9864 35.8022H23.8945V26.992H27.2643H28.218H32.9864V30.2644H27.2643V32.404H32.9864V35.8022ZM40.2345 28.5653C41.4426 29.3204 42.0148 30.3902 42.0148 31.9006C42.0148 32.9704 41.6969 33.9143 40.9975 34.6065C40.2345 35.4246 39.2173 35.8022 37.9457 35.8022H32.9864V32.4669H37.9457C38.4543 32.4669 38.7086 32.0894 38.7086 31.3971C38.7086 30.7049 38.4543 30.3273 37.9457 30.3273H32.9864V26.992H37.6914C38.2 26.992 38.3907 26.6145 38.3907 25.9222C38.3907 25.23 38.1364 24.8524 37.6914 24.8524H32.9864V21.4542H37.6914C38.9629 21.4542 39.9802 21.8318 40.7432 22.6499C41.4426 23.405 41.7605 24.2861 41.7605 25.3559C41.7605 26.7403 41.2518 27.8101 40.2345 28.5653Z" fill="#B02125"/>
<path fill-rule="evenodd" clip-rule="evenodd" d="M8.76247 17.7416H7.42729H7.23655H6.21928V19.8183H4.69336V15.2874C4.69336 14.721 4.8841 14.2805 5.202 13.9029C5.5199 13.5253 6.02854 13.2736 6.53717 13.2736H8.76247V14.7839H6.53717C6.34643 14.7839 6.21928 14.9727 6.21928 15.2874V16.2313H7.23655H7.49087H8.82605V17.7416H8.76247ZM26.1833 13.2736V14.7839H23.5766V16.1684H26.1833V17.6787H23.5766V19.8183H22.0506V13.2736H26.1833ZM12.8316 19.8183H11.3057V17.7416H8.76247V16.2313H11.3057V15.2874C11.3057 14.9727 11.1785 14.7839 10.9878 14.7839H8.76247V13.2736H10.9242C11.4964 13.2736 11.9415 13.4624 12.2594 13.9029C12.5773 14.2805 12.768 14.7839 12.768 15.3503V19.8183H12.8316ZM26.1833 17.6787V16.1684H28.4722C28.7265 16.1684 28.7901 15.9167 28.7901 15.4762C28.7901 15.0357 28.663 14.7839 28.4722 14.7839H26.1833V13.2736H28.4722C29.0444 13.2736 29.4895 13.5253 29.871 13.9659C30.1889 14.4064 30.3796 14.9098 30.3796 15.4762C30.3796 16.0425 30.1889 16.546 29.871 16.9865C29.4895 17.4899 28.9808 17.6787 28.4086 17.6787H26.1833ZM43.6042 13.2736V14.7839H41.3789C41.1882 14.7839 41.061 14.9727 41.061 15.2874V16.2313H42.0147H42.4598H43.6042V17.7416H42.4598H42.0147H41.061V19.8183H39.5351V15.2874C39.5351 14.721 39.7258 14.2805 40.0437 13.84C40.3616 13.4624 40.8703 13.2107 41.3789 13.2107H43.6042V13.2736ZM96.6934 14.7839H91.1619V15.7908H96.3119V17.3011H91.1619V18.308H96.6934V19.8183H89.636V13.2736H96.6934V14.7839ZM80.4169 19.8183H78.8274V17.3011H74.8855V19.8183H73.3596V13.2736H74.8855V15.7908H78.8274V13.2736H80.4169V19.8183ZM64.1405 19.8183H58.9905C58.4183 19.8183 57.8461 19.6295 57.4646 19.252C57.0195 18.8744 56.8288 18.3709 56.8288 17.7416V15.3503C56.8288 14.7839 57.0195 14.2805 57.4646 13.84C57.9097 13.4624 58.4183 13.2736 58.9905 13.2736H64.1405V14.7839H58.9905C58.609 14.7839 58.3547 14.9727 58.3547 15.3503V17.7416C58.3547 18.1192 58.5455 18.308 58.9905 18.308H64.1405V19.8183ZM43.6042 17.7416V16.2313H46.1474V15.2874C46.1474 14.9727 46.0202 14.7839 45.8295 14.7839H43.6678V13.2736H45.8295C46.4017 13.2736 46.8468 13.4624 47.1647 13.9029C47.4826 14.2805 47.6733 14.7839 47.6733 15.3503V19.8812H46.1474V17.7416H43.6042Z" fill="#868787"/>
<path fill-rule="evenodd" clip-rule="evenodd" d="M52.2512 31.2083H48.8814H46.7833V35.7393H43.4136V25.9222C43.4136 24.7266 43.7951 23.6568 44.558 22.7757C45.321 21.8947 46.2747 21.4542 47.4827 21.4542H52.2512V24.7895H47.4827C47.0376 24.7895 46.7833 25.1671 46.7833 25.8593V27.8731H48.8814H52.2512V31.2083ZM61.0888 35.8022H57.719V31.2713H52.3783H52.2512V27.936H52.3783H57.7826V25.9222C57.7826 25.1671 57.5283 24.8524 57.0197 24.8524H52.2512V21.4542H57.0197C58.2277 21.4542 59.2449 21.8947 60.0079 22.7757C60.7709 23.6568 61.1523 24.6636 61.1523 25.9222V35.8022H61.0888Z" fill="#B02125"/>
<path fill-rule="evenodd" clip-rule="evenodd" d="M79.8445 31.3971C79.8445 32.5928 79.463 33.6626 78.7636 34.4807C78.0007 35.3617 76.9834 35.8022 75.7754 35.8022H63.2502V32.4669H75.7118C76.1569 32.4669 76.4112 32.0894 76.4112 31.3971C76.4112 30.7049 76.1569 30.3273 75.7118 30.3273H66.6835C65.4755 30.3273 64.5218 29.8868 63.6952 29.0058C62.9323 28.1248 62.5508 27.1179 62.5508 25.9222C62.5508 24.7266 62.9323 23.6568 63.6952 22.7757C64.4582 21.8947 65.4755 21.4542 66.6199 21.4542H79.0815V24.7895H66.6835C66.2384 24.7895 65.9841 25.1671 65.9841 25.8593C65.9841 26.5515 66.2384 26.9291 66.6835 26.9291H75.7754C76.9834 26.9291 77.9371 27.3696 78.7636 28.2506C79.463 29.1317 79.8445 30.2015 79.8445 31.3971Z" fill="#B02125"/>
<path fill-rule="evenodd" clip-rule="evenodd" d="M96.6935 24.7895H84.6134V26.9291H95.867V30.2644H84.6134V32.4669H96.63V35.8022H81.2437V21.4542H96.6935V24.7895Z" fill="#B02125"/>
<path fill-rule="evenodd" clip-rule="evenodd" d="M20.7791 21.3914H19.0624V24.7266H20.7791V21.3914ZM20.7791 35.7393H19.0624V30.2015H8.06309V35.7393H4.69336V21.3914H8.06309V26.8662H17.6001H19.0624H20.7791V35.7393ZM20.7791 24.7266V21.3914H22.4957V24.7266H20.7791ZM22.4957 35.7393H20.7791V26.8662H22.4957V35.7393Z" fill="#B02125"/>
<path fill-rule="evenodd" clip-rule="evenodd" d="M32.9864 24.7266H27.2643H23.8945V21.3914H32.9864V24.7266ZM32.9864 35.7393H23.8945V26.9292H27.2643H28.218H32.9864V30.2015H27.2643V32.3411H32.9864V35.7393ZM40.2345 28.5024C41.4426 29.2576 42.0148 30.3274 42.0148 31.8377C42.0148 32.9075 41.6969 33.8515 40.9975 34.5437C40.2345 35.3618 39.2173 35.7393 37.9457 35.7393H32.9864V32.4041H37.9457C38.4543 32.4041 38.7086 32.0265 38.7086 31.3343C38.7086 30.642 38.4543 30.2645 37.9457 30.2645H32.9864V26.9292H37.6914C38.2 26.9292 38.3907 26.5516 38.3907 25.8594C38.3907 25.1671 38.1364 24.7896 37.6914 24.7896H32.9864V21.3914H37.6914C38.9629 21.3914 39.9802 21.7689 40.7432 22.587C41.4426 23.3422 41.7605 24.2232 41.7605 25.293C41.7605 26.6775 41.2518 27.7473 40.2345 28.5024Z" fill="#B02125"/>
<path fill-rule="evenodd" clip-rule="evenodd" d="M8.76247 17.6785H7.42729H7.23655H6.21928V19.7552H4.69336V15.2243C4.69336 14.6579 4.8841 14.2174 5.202 13.8398C5.5199 13.4622 6.02854 13.2105 6.53717 13.2105H8.76247V14.7208H6.53717C6.34643 14.7208 6.21928 14.9096 6.21928 15.2243V16.1682H7.23655H7.49087H8.82605V17.6785H8.76247ZM26.1833 13.2105V14.7208H23.5766V16.1053H26.1833V17.6156H23.5766V19.7552H22.0506V13.2105H26.1833ZM12.8316 19.7552H11.3057V17.6785H8.76247V16.1682H11.3057V15.2243C11.3057 14.9096 11.1785 14.7208 10.9878 14.7208H8.76247V13.2105H10.9242C11.4964 13.2105 11.9415 13.3993 12.2594 13.8398C12.5773 14.2174 12.768 14.7208 12.768 15.2872V19.7552H12.8316ZM26.1833 17.6156V16.1053H28.4722C28.7265 16.1053 28.7901 15.8536 28.7901 15.4131C28.7901 14.9725 28.663 14.7208 28.4722 14.7208H26.1833V13.2105H28.4722C29.0444 13.2105 29.4895 13.4622 29.871 13.9027C30.1889 14.3432 30.3796 14.8467 30.3796 15.4131C30.3796 15.9794 30.1889 16.4829 29.871 16.9234C29.4895 17.4268 28.9808 17.6156 28.4086 17.6156H26.1833ZM43.6042 13.2105V14.7208H41.3789C41.1882 14.7208 41.061 14.9096 41.061 15.2243V16.1682H42.0147H42.4598H43.6042V17.6785H42.4598H42.0147H41.061V19.7552H39.5351V15.2243C39.5351 14.6579 39.7258 14.2174 40.0437 13.7769C40.3616 13.3993 40.8703 13.1476 41.3789 13.1476H43.6042V13.2105ZM96.6934 14.7208H91.1619V15.7277H96.3119V17.238H91.1619V18.2449H96.6934V19.7552H89.636V13.2105H96.6934V14.7208ZM80.4169 19.7552H78.8274V17.238H74.8855V19.7552H73.3596V13.2105H74.8855V15.7277H78.8274V13.2105H80.4169V19.7552ZM64.1405 19.7552H58.9905C58.4183 19.7552 57.8461 19.5664 57.4646 19.1888C57.0195 18.8113 56.8288 18.3078 56.8288 17.6785V15.2872C56.8288 14.7208 57.0195 14.2174 57.4646 13.7769C57.9097 13.3993 58.4183 13.2105 58.9905 13.2105H64.1405V14.7208H58.9905C58.609 14.7208 58.3547 14.9096 58.3547 15.2872V17.6785C58.3547 18.0561 58.5455 18.2449 58.9905 18.2449H64.1405V19.7552ZM43.6042 17.6785V16.1682H46.1474V15.2243C46.1474 14.9096 46.0202 14.7208 45.8295 14.7208H43.6678V13.2105H45.8295C46.4017 13.2105 46.8468 13.3993 47.1647 13.8398C47.4826 14.2174 47.6733 14.7208 47.6733 15.2872V19.8181H46.1474V17.6785H43.6042Z" fill="#868787"/>
<path fill-rule="evenodd" clip-rule="evenodd" d="M52.2512 31.1455H48.8814H46.7833V35.6764H43.4136V25.8594C43.4136 24.6637 43.7951 23.5939 44.558 22.7129C45.321 21.8319 46.2747 21.3914 47.4827 21.3914H52.2512V24.7266H47.4827C47.0376 24.7266 46.7833 25.1042 46.7833 25.7964V27.8102H48.8814H52.2512V31.1455ZM61.0888 35.7393H57.719V31.2084H52.3783H52.2512V27.8731H52.3783H57.7826V25.8594C57.7826 25.1042 57.5283 24.7896 57.0197 24.7896H52.2512V21.3914H57.0197C58.2277 21.3914 59.2449 21.8319 60.0079 22.7129C60.7709 23.5939 61.1523 24.6008 61.1523 25.8594V35.7393H61.0888Z" fill="#B02125"/>
<path fill-rule="evenodd" clip-rule="evenodd" d="M79.8445 31.3343C79.8445 32.5299 79.463 33.5997 78.7636 34.4178C78.0007 35.2988 76.9834 35.7393 75.7754 35.7393H63.2502V32.4041H75.7118C76.1569 32.4041 76.4112 32.0265 76.4112 31.3343C76.4112 30.642 76.1569 30.2645 75.7118 30.2645H66.6835C65.4755 30.2645 64.5218 29.8239 63.6952 28.9429C62.9323 28.0619 62.5508 27.055 62.5508 25.8594C62.5508 24.6637 62.9323 23.5939 63.6952 22.7129C64.4582 21.8319 65.4755 21.3914 66.6199 21.3914H79.0815V24.7266H66.6835C66.2384 24.7266 65.9841 25.1042 65.9841 25.7964C65.9841 26.4887 66.2384 26.8662 66.6835 26.8662H75.7754C76.9834 26.8662 77.9371 27.3068 78.7636 28.1878C79.463 29.0688 79.8445 30.1386 79.8445 31.3343Z" fill="#B02125"/>
<path fill-rule="evenodd" clip-rule="evenodd" d="M96.6935 24.7266H84.6134V26.8662H95.867V30.2015H84.6134V32.4041H96.63V35.7393H81.2437V21.3914H96.6935V24.7266Z" fill="#B02125"/>
</svg>
