<svg data-slug-id="hdinsight" xmlns="http://www.w3.org/2000/svg" viewBox="0 0 192 192"><path d="M34.316 93.5167C36.7453 93.5167 39.1746 93.5167 40.2157 93.5167L49.5858 78.0106L63.8145 54.7514C57.9148 46.9983 54.4444 39.2453 54.4444 29.2309H30.4985L1 78.0106L14.1876 99.0084C20.0873 95.778 27.0281 93.5167 34.316 93.5167Z" fill="#fff"/><path d="M79.4316 64.7658L57.915 99.9776C67.2852 106.762 73.1849 115.484 74.573 126.467H91.5781C93.3133 107.085 105.113 89.9632 121.771 79.9488L112.401 64.7658C101.642 69.2884 89.8429 69.2884 79.4316 64.7658Z" fill="#fff"/><path d="M92.2709 143.266H73.5306C70.0602 151.988 64.1605 161.033 54.4434 165.233L65.2016 183H120.034C105.458 173.955 95.3943 159.741 92.2709 143.266Z" fill="#fff"/><path d="M157.516 70.5805C169.662 70.5805 180.768 73.4879 190.485 78.6566L190.832 78.3336L161.333 29.877H137.734C137.734 38.5991 134.264 47.6444 126.976 55.3975L138.081 73.4879C143.981 71.5497 150.575 70.5805 157.516 70.5805Z" fill="#fff"/><path d="M114.396 36.8627C118.65 27.3022 113.773 16.3416 103.502 12.3815C93.2318 8.42131 81.457 12.9612 77.2026 22.5217C72.9483 32.0821 77.8255 43.0427 88.0961 47.0029C98.3668 50.963 110.142 46.4231 114.396 36.8627Z" fill="#59B3D8"/><path d="M157.514 151.019C168.631 151.019 177.643 142.63 177.643 132.282C177.643 121.934 168.631 113.545 157.514 113.545C146.398 113.545 137.386 121.934 137.386 132.282C137.386 142.63 146.398 151.019 157.514 151.019Z" fill="#59B3D8"/><path d="M34.3159 151.019C45.4325 151.019 54.4443 142.63 54.4443 132.282C54.4443 121.934 45.4325 113.545 34.3159 113.545C23.1993 113.545 14.1875 121.934 14.1875 132.282C14.1875 142.63 23.1993 151.019 34.3159 151.019Z" fill="#59B3D8"/><path d="M137.735 73.1649L140.858 78.0106L150.228 93.5167C152.658 93.5167 155.087 93.5167 156.128 93.5167C163.416 93.5167 170.357 95.778 176.256 99.0085L190.138 78.3336C180.421 73.1649 169.316 70.2575 157.169 70.2575C150.575 70.5806 143.982 71.5497 137.735 73.1649Z" fill="#fff"/><path d="M137.735 73.1649L140.858 78.0106L150.228 93.5167C152.658 93.5167 155.087 93.5167 156.128 93.5167C163.416 93.5167 170.357 95.778 176.256 99.0085L190.138 78.3336C180.421 73.1649 169.316 70.2575 157.169 70.2575C150.575 70.5806 143.982 71.5497 137.735 73.1649Z" fill="#DEDEDE"/><path d="M119.687 183H124.199L134.957 165.233C127.669 159.741 120.728 151.988 118.299 143.266H92.271C95.3944 159.741 105.459 173.955 119.687 183Z" fill="#fff"/><path d="M119.687 183H124.199L134.957 165.233C127.669 159.741 120.728 151.988 118.299 143.266H92.271C95.3944 159.741 105.459 173.955 119.687 183Z" fill="#DEDEDE"/><path d="M91.5767 126.79H116.217C117.258 115.807 124.546 106.762 133.916 100.301L121.769 80.2719C104.764 90.2863 93.3119 107.085 91.5767 126.79Z" fill="#fff"/><path d="M91.5767 126.79H116.217C117.258 115.807 124.546 106.762 133.916 100.301L121.769 80.2719C104.764 90.2863 93.3119 107.085 91.5767 126.79Z" fill="#DEDEDE"/></svg>