<svg xmlns="http://www.w3.org/2000/svg" viewBox="0 0 97 97" fill="none"><path fill-rule="evenodd" clip-rule="evenodd" d="M48.8945 0.100586C22.3843 0.100586 0.894531 21.5903 0.894531 48.1006C0.894531 74.6101 22.3843 96.1006 48.8945 96.1006C75.404 96.1006 96.8945 74.6101 96.8945 48.1006C96.8945 21.5903 75.404 0.100586 48.8945 0.100586M48.8945 0.850586C74.948 0.850586 96.1445 22.0471 96.1445 48.1006C96.1445 74.1541 74.948 95.3506 48.8945 95.3506C22.841 95.3506 1.64453 74.1541 1.64453 48.1006C1.64453 22.0471 22.841 0.850586 48.8945 0.850586" fill="#0078D4"/><path fill-rule="evenodd" clip-rule="evenodd" d="M48.8945 11.3506C28.598 11.3506 12.1445 27.8033 12.1445 48.1006C12.1445 68.3971 28.598 84.8506 48.8945 84.8506C69.191 84.8506 85.6445 68.3971 85.6445 48.1006C85.6445 27.8033 69.191 11.3506 48.8945 11.3506M48.8954 12.0969C68.7479 12.0969 84.8984 28.2482 84.8984 48.1007C84.8984 67.9532 68.7479 84.1037 48.8954 84.1037C29.0429 84.1037 12.8916 67.9532 12.8916 48.1007C12.8916 28.2482 29.0429 12.0969 48.8954 12.0969" fill="#0078D4"/><path fill-rule="evenodd" clip-rule="evenodd" d="M48.5195 22.6006C34.229 22.6006 22.6445 34.1851 22.6445 48.4756C22.6445 62.7661 34.229 74.3506 48.5195 74.3506C62.81 74.3506 74.3945 62.7661 74.3945 48.4756C74.3945 34.1851 62.81 22.6006 48.5195 22.6006M48.5188 23.3513C62.372 23.3513 73.643 34.6216 73.643 48.4756C73.643 62.3288 62.372 73.5998 48.5188 73.5998C34.6648 73.5998 23.3945 62.3288 23.3945 48.4756C23.3945 34.6216 34.6648 23.3513 48.5188 23.3513" fill="#0078D4"/><path fill-rule="evenodd" clip-rule="evenodd" d="M57.8945 48.1006C57.8945 53.0708 53.8648 57.1006 48.8945 57.1006C43.9235 57.1006 39.8945 53.0708 39.8945 48.1006C39.8945 43.1296 43.9235 39.1006 48.8945 39.1006C53.8648 39.1006 57.8945 43.1296 57.8945 48.1006" fill="#0078D4"/><path fill-rule="evenodd" clip-rule="evenodd" d="M74.3945 61.6006C74.3945 64.0853 72.3793 66.1006 69.8945 66.1006C67.409 66.1006 65.3945 64.0853 65.3945 61.6006C65.3945 59.1151 67.409 57.1006 69.8945 57.1006C72.3793 57.1006 74.3945 59.1151 74.3945 61.6006" fill="#0078D4"/><path fill-rule="evenodd" clip-rule="evenodd" d="M27.8945 49.6006C27.8945 52.0853 25.8793 54.1006 23.3945 54.1006C20.909 54.1006 18.8945 52.0853 18.8945 49.6006C18.8945 47.1151 20.909 45.1006 23.3945 45.1006C25.8793 45.1006 27.8945 47.1151 27.8945 49.6006" fill="#0078D4"/><path fill-rule="evenodd" clip-rule="evenodd" d="M60.8945 13.6006C60.8945 16.0853 58.8793 18.1006 56.3945 18.1006C53.909 18.1006 51.8945 16.0853 51.8945 13.6006C51.8945 11.1151 53.909 9.10059 56.3945 9.10059C58.8793 9.10059 60.8945 11.1151 60.8945 13.6006" fill="#50E6FF"/><path fill-rule="evenodd" clip-rule="evenodd" d="M78.8945 88.6006C78.8945 91.0853 76.8793 93.1006 74.3945 93.1006C71.909 93.1006 69.8945 91.0853 69.8945 88.6006C69.8945 86.1151 71.909 84.1006 74.3945 84.1006C76.8793 84.1006 78.8945 86.1151 78.8945 88.6006" fill="#0078D4"/><path fill-rule="evenodd" clip-rule="evenodd" d="M15.8945 76.6006C15.8945 79.0853 13.8793 81.1006 11.3945 81.1006C8.90903 81.1006 6.89453 79.0853 6.89453 76.6006C6.89453 74.1151 8.90903 72.1006 11.3945 72.1006C13.8793 72.1006 15.8945 74.1151 15.8945 76.6006" fill="#50E6FF"/><path fill-rule="evenodd" clip-rule="evenodd" d="M90.8945 19.6006C90.8945 22.0853 88.8793 24.1006 86.3945 24.1006C83.909 24.1006 81.8945 22.0853 81.8945 19.6006C81.8945 17.1151 83.909 15.1006 86.3945 15.1006C88.8793 15.1006 90.8945 17.1151 90.8945 19.6006" fill="#0078D4"/></svg>