<svg width="101" height="51" viewBox="0 0 101 51" fill="none" xmlns="http://www.w3.org/2000/svg">
<path fill-rule="evenodd" clip-rule="evenodd" d="M54.4824 48.0651H63.6534V41.918L65.0282 48.0951H68.131L69.3412 41.8419V48.1242H75.1514V44.3366H74.0757V41.1212H75.1514V37.542L66.8074 37.526L66.4571 39.3411L66.0537 37.526L54.4824 37.512V48.0651ZM60.9178 38.1584H62.8185L62.8526 38.3148L63.0061 39.0054V47.4176H60.9178V38.1584ZM58.0167 41.7336V38.1584H60.105V47.4176H58.0167V43.0436H57.2631V47.4176H55.1307V38.1584H57.2631V41.7336H58.0167ZM67.3422 38.1745H69.3412H69.3903L69.3412 38.4311L67.5971 47.4467H65.549L63.6534 38.9352V38.1745H65.5329L66.5003 42.5224L67.3422 38.1745ZM69.9884 38.4932L70.0276 38.2968L70.0486 38.1885H72.1419H74.5042V39.8673V40.4737H72.1419V41.3848H73.4274V43.1178V43.7432H72.1419V44.984H74.5042V46.8162V47.4767H72.1419H69.9884V38.4932Z" fill="#F7F600"/>
<path fill-rule="evenodd" clip-rule="evenodd" d="M58.1476 35.3815C58.237 35.4416 60.3604 36.3668 61.2575 36.5462C62.1546 36.7256 64.6663 35.7694 65.3246 35.0527C65.9819 34.3361 67.9859 31.3794 68.1354 28.7804C68.285 26.1825 67.2383 26.2717 67.1179 26.2717C67.1179 26.2717 66.3482 26.7418 66.005 26.8771C65.6608 27.0104 64.5168 27.0404 64.4867 27.0404C64.4576 27.0404 64.3372 26.6455 64.3372 26.6455C64.3372 26.6455 64.1435 24.8755 63.5826 23.9193C63.0216 22.9641 61.683 20.5075 61.3317 19.9252C60.9805 19.3428 61.1682 18.2523 61.4963 17.5507C61.8255 16.8481 62.9915 14.7433 62.8279 13.8022C62.6634 12.861 60.271 9.69579 59.7322 8.93405C59.1943 8.17231 58.4617 7.46971 57.4592 7.23116C56.4578 6.99262 55.0679 6.94751 54.3203 7.09685C53.5727 7.2462 52.2561 8.21641 52.0323 8.45596C51.8086 8.69551 50.9405 9.68076 50.9405 9.68076L43.1062 5.85702C43.1062 5.85702 38.8906 4.28944 37.8279 4.17017C36.7662 4.05089 36.139 4.64726 35.5258 5.02111C34.9127 5.39496 31.9675 9.02326 31.9675 9.02326C31.9675 9.02326 29.0222 8.94808 28.6479 9.09743C28.2736 9.24777 27.0483 10.6359 26.9881 10.8755C26.9289 11.114 26.0017 12.2647 26.4502 14.2943C26.8988 16.3259 27.2129 16.6697 28.2595 17.7302C29.3062 18.7896 30.8305 20.5366 31.25 21.1941C31.6684 21.8516 32.2213 23.808 32.3267 24.0316C32.4311 24.2551 32.416 24.5548 32.9388 24.5989C33.4627 24.644 34.7933 24.7783 35.9594 24.7041C37.1254 24.6289 39.3532 24.1659 39.7867 24.0015C40.2202 23.8371 41.0882 23.6587 41.0882 23.6587C41.0882 23.6587 39.9513 24.7482 39.7425 25.0318C39.5328 25.3165 38.2323 27.1828 38.0828 27.9144C37.9332 28.6461 37.6342 31.1107 37.8439 32.9179C38.0526 34.724 38.5765 36.92 39.01 37.785C39.4435 38.652 40.6246 40.2196 41.8649 41.31C43.1063 42.3995 45.1694 43.8639 46.0224 44.341C46.8744 44.8201 47.9501 45.1929 48.9075 45.3423C49.8648 45.4916 50.7469 45.4615 51.359 45.3723C51.9721 45.2821 52.5411 45.0887 52.6154 44.9534C52.6906 44.8201 52.2421 43.5201 52.1969 43.5201C52.1518 43.5201 50.7017 41.6238 50.7017 41.6238C50.7017 41.6238 49.5507 38.248 49.4012 37.2187C49.2517 36.1873 49.2818 35.3965 49.7745 35.0527C50.2682 34.709 51.4493 34.1417 51.4493 34.1417C51.4493 34.1417 52.8552 34.5456 52.8693 34.6047C52.8843 34.6649 53.6028 36.8749 55.2465 36.9641C56.8923 37.0533 58.1476 35.3815 58.1476 35.3815Z" fill="#F7F600"/>
<path fill-rule="evenodd" clip-rule="evenodd" d="M51.9424 42.4451C51.9424 42.4451 52.2866 42.8029 53.5731 42.9081C54.8586 43.0124 60.0316 43.0575 60.0316 43.0575C60.0316 43.0575 57.4295 44.147 56.3829 44.5058C55.3363 44.8646 53.528 45.3718 52.8697 45.492C52.2124 45.6113 51.2701 45.5963 51.0012 45.5812C50.7312 45.5662 51.9424 42.4451 51.9424 42.4451Z" fill="#F7F600"/>
<path fill-rule="evenodd" clip-rule="evenodd" d="M41.4684 23.6432C41.4684 23.6432 40.1899 29.4675 40.0775 29.9155C39.9661 30.3635 39.5396 33.5218 39.9431 35.0452C40.3475 36.5687 42.231 40.8696 42.9937 41.2945C43.7563 41.7205 46.9635 44.2292 47.8606 44.4989C48.7578 44.7675 51.426 45.3267 51.426 45.3267C51.426 45.3267 50.2379 45.5513 49.6097 45.439C48.9815 45.3267 46.7839 44.9689 44.7428 43.5577C42.7017 42.1465 40.8412 40.3985 39.5396 38.5843C38.2391 36.7702 37.9923 33.3654 37.7454 32.2669C37.4985 31.1704 37.8799 28.2357 38.2612 27.4068C38.6425 26.5779 39.9882 24.5843 40.4599 24.2255C40.9305 23.8677 41.4684 23.6432 41.4684 23.6432Z" fill="#F9FCAB"/>
<path fill-rule="evenodd" clip-rule="evenodd" d="M57.3923 9.39667C57.3923 9.39667 57.1234 8.92659 56.5845 8.54472C56.0467 8.16485 55.867 8.27611 56.0687 8.63493C56.2704 8.99375 57.8409 11.4353 58.155 12.0397C58.4691 12.6451 59.2087 14.1004 59.2538 14.4362C59.298 14.773 59.6803 15.2881 59.7696 14.8171C59.8589 14.347 59.2759 12.2642 59.1194 12.0397C58.9618 11.8162 57.3923 9.39667 57.3923 9.39667Z" fill="#F9FCAB"/>
<path fill-rule="evenodd" clip-rule="evenodd" d="M52.7949 17.9088C52.7949 17.9088 52.0102 15.1986 50.8883 14.6604C49.7674 14.1231 47.2105 13.9437 46.4258 13.8325C45.641 13.7202 45.3269 13.7202 44.4067 13.4957C43.4875 13.2722 41.3119 12.4202 40.752 12.1967C40.19 11.9722 39.8318 12.1516 40.4148 12.5325C40.9978 12.9134 44.4067 14.3697 45.1694 14.5481C45.932 14.7275 47.367 14.7726 47.636 15.2206C47.9059 15.6687 48.2872 15.8481 47.4573 15.8922C46.6275 15.9373 45.6852 15.9373 45.058 16.229C44.4298 16.5196 44.7439 16.677 45.8196 16.6549C46.8964 16.6319 48.3765 16.7882 49.7222 17.3265C51.0679 17.8637 51.8085 18.446 51.8085 18.446L52.7949 17.9088Z" fill="#F9FCAB"/>
<path fill-rule="evenodd" clip-rule="evenodd" d="M56.4277 7.11169C56.4277 7.11169 57.369 8.14205 58.2441 9.0381C59.1191 9.93414 60.9354 12.1071 61.1823 12.7786C61.4292 13.4512 61.3398 15.8707 61.3398 16.4079C61.3398 16.9462 61.2275 17.9986 61.2275 17.9986C61.2275 17.9986 62.6845 14.9296 62.7076 14.3242C62.7297 13.7198 62.9986 13.361 61.6529 11.3684C60.3072 9.37386 58.6475 7.60482 58.0644 7.40336C57.4814 7.2009 56.4277 7.11169 56.4277 7.11169Z" fill="#F9FCAB"/>
<path fill-rule="evenodd" clip-rule="evenodd" d="M34.3369 6.41726C34.3369 6.41726 34.1803 6.84324 35.3685 6.97754C36.5566 7.11185 43.555 9.17256 47.3442 10.6058C51.1354 12.0401 51.7184 12.6665 52.1439 13.1827C52.5704 13.6979 54.9918 17.4164 54.9918 17.4164C54.9918 17.4164 56.5844 17.4384 56.4509 17.4605C56.3154 17.4836 55.6652 12.9803 54.3646 11.972C53.0641 10.9647 46.6718 7.42557 45.281 6.73098C44.6046 6.39321 40.0899 4.33049 37.5892 4.3335C34.949 4.33751 34.3369 6.41726 34.3369 6.41726Z" fill="#F9FCAB"/>
<path fill-rule="evenodd" clip-rule="evenodd" d="M62.1822 27.2405C62.1711 27.2132 62.1701 27.1768 62.165 27.1434C62.1701 27.1768 62.1701 27.2132 62.1812 27.2405H62.1822Z" fill="#F7F600"/>
<path fill-rule="evenodd" clip-rule="evenodd" d="M62.2103 27.2286L62.2163 27.2446C62.3959 27.2537 62.5665 27.2737 62.7291 27.3118C62.7582 27.2857 62.7833 27.2547 62.8023 27.2186C62.8946 27.0492 62.8304 26.8367 62.6608 26.7455C62.4922 26.6543 62.2895 26.7205 62.1972 26.8868C62.1882 26.946 62.1802 27.0061 62.1842 27.0662C62.1842 27.1264 62.1922 27.1835 62.2103 27.2286Z" fill="white"/>
<path fill-rule="evenodd" clip-rule="evenodd" d="M57.5685 26.6847C57.5564 26.4292 57.3377 26.2297 57.0798 26.2417C56.8279 26.2528 56.6342 26.4642 56.6382 26.7138C56.6543 26.7599 56.6683 26.806 56.6904 26.8491C56.7175 26.9213 56.7587 26.9864 56.8139 27.0406L56.7938 27.0606H56.7948C57.0376 26.9213 57.2985 26.8221 57.5665 26.7569C57.5685 26.7328 57.5695 26.7088 57.5685 26.6847Z" fill="white"/>
<path fill-rule="evenodd" clip-rule="evenodd" d="M69.3418 38.4314L69.392 38.1738H69.3418V38.1889V38.4314Z" fill="black"/>
<path fill-rule="evenodd" clip-rule="evenodd" d="M55.5474 24.0266C55.8143 23.3932 56.288 22.9091 57.0627 22.6896L57.5795 22.6615C57.6819 22.6735 57.7842 22.6856 57.8866 22.6976C57.8565 22.7036 57.8264 22.7106 57.7962 22.7176C57.8645 22.7116 57.9347 22.7066 58.007 22.7026C56.3201 22.443 55.7632 22.9622 55.5454 24.0296C55.5464 24.0286 55.5464 24.0276 55.5474 24.0266Z" fill="#1E1E1E"/>
<path fill-rule="evenodd" clip-rule="evenodd" d="M57.5799 22.6608L57.0621 22.6888C56.2884 22.9093 55.8148 23.3924 55.5479 24.0259C56.0014 23.3914 56.5624 22.8322 57.7967 22.7169C57.8268 22.7099 57.8559 22.7029 57.886 22.6979C57.7846 22.6848 57.6823 22.6728 57.5799 22.6608Z" fill="#1E1E1E"/>
<path fill-rule="evenodd" clip-rule="evenodd" d="M66.1538 27.8797L65.1363 28.0381L64.784 27.8907C64.6416 27.8496 64.5121 27.7865 64.3706 27.7093C64.6325 27.9348 64.9657 28.3147 65.354 28.3357C66.1749 28.3819 66.7639 27.8456 67.3861 27.121C67.357 27.143 67.3259 27.1631 67.2968 27.1841C67.1443 27.3164 66.9907 27.4487 66.8382 27.581C66.6104 27.6803 66.3826 27.7795 66.1538 27.8797Z" fill="#1E1E1E"/>
<path fill-rule="evenodd" clip-rule="evenodd" d="M64.7842 27.8908L65.1364 28.0382L66.154 27.8798C66.3817 27.7806 66.6105 27.6813 66.8383 27.5811C66.9909 27.4488 67.1444 27.3165 67.2959 27.1842C66.6748 27.6322 65.9723 27.8918 65.2448 27.9369C65.0642 27.9479 64.9176 27.9289 64.7842 27.8908Z" fill="#1E1E1E"/>
<path fill-rule="evenodd" clip-rule="evenodd" d="M39.6523 35.0433L39.7517 35.1967L39.6523 35.0433Z" fill="black"/>
<path fill-rule="evenodd" clip-rule="evenodd" d="M52.4517 34.4623H52.4527H52.4517ZM38.8232 35.7021V35.7011V35.7021Z" fill="black"/>
<path fill-rule="evenodd" clip-rule="evenodd" d="M56.1814 32.2899C56.1814 32.2899 55.3064 32.2899 55.0154 32.4914C54.7233 32.6928 54.2979 33.1639 54.2979 33.1639C54.2979 33.1639 54.5216 32.2007 54.9702 32.0434C55.4188 31.887 56.0018 32.1777 56.1814 32.2899Z" fill="#1E1E1E"/>
<path fill-rule="evenodd" clip-rule="evenodd" d="M60.9175 47.418H63.0068V38.1588H60.9175V47.418Z" fill="black"/>
<path fill-rule="evenodd" clip-rule="evenodd" d="M69.9958 38.1887L69.9888 47.478H72.1423H74.5045V46.8154V44.9832H72.1423V43.7434H73.4277V43.118V41.384H72.1423V40.4739H74.5045V39.8676V38.1887H69.9958Z" fill="black"/>
<path fill-rule="evenodd" clip-rule="evenodd" d="M59.5037 26.8517C59.3723 26.8086 59.2288 26.7725 59.0793 26.7465C59.0793 26.7455 59.0783 26.7455 59.0783 26.7455C58.9588 26.7244 58.8394 26.7084 58.725 26.6994L58.6869 26.6963L58.6979 26.6593C58.732 26.542 58.7471 26.4217 58.7411 26.3014C58.728 26.0168 58.6046 25.7532 58.3959 25.5587L58.3447 25.5116L58.4139 25.5056C58.6307 25.4846 58.8173 25.4615 58.9879 25.4224C58.9799 25.4214 58.9729 25.4194 58.9649 25.4184C58.7752 25.4034 58.5906 25.3653 58.4099 25.3272C58.0948 25.2601 57.7968 25.1969 57.4998 25.2561C57.2348 25.3082 56.8455 25.5156 56.4702 25.7171C56.2293 25.8454 55.9995 25.9677 55.7988 26.0539C55.8319 26.0519 55.8641 26.0469 55.8972 26.0439C56.1641 26.0178 56.424 25.9536 56.6137 25.9005L56.6759 25.8825L56.6508 25.9416C56.5906 26.089 56.5635 26.2443 56.5705 26.4027C56.5765 26.5109 56.6026 26.6142 56.6388 26.7144C56.6347 26.4648 56.8284 26.2533 57.0803 26.2413C57.3372 26.2293 57.557 26.4287 57.569 26.6843C57.57 26.7094 57.569 26.7334 57.566 26.7565C57.2991 26.8216 57.0371 26.9209 56.7943 27.0612L56.8093 27.0862L56.8104 27.0872L56.7893 27.1013V27.1003C56.6829 27.1634 56.5775 27.2356 56.4782 27.3168C56.4782 27.3168 56.4782 27.3178 56.4772 27.3178C56.435 27.3528 56.3949 27.3869 56.3568 27.422C57.29 26.985 58.418 26.7775 59.4435 26.8487C59.2669 26.8186 59.2669 26.8186 59.4435 26.8487C59.4636 26.8507 59.4837 26.8497 59.5037 26.8517Z" fill="black"/>
<path fill-rule="evenodd" clip-rule="evenodd" d="M59.5005 14.0113C59.5898 14.5265 59.6119 15.1088 59.7695 14.9294C59.926 14.75 59.8136 14.1677 59.7926 13.6084C59.7695 13.0481 59.5898 12.1741 59.0289 11.3683C58.4689 10.5614 57.347 9.15019 57.347 9.15019C56.6295 8.47765 57.7284 10.7629 58.3114 11.5026C58.8944 12.2413 59.4102 13.4961 59.5005 14.0113Z" fill="black"/>
<path fill-rule="evenodd" clip-rule="evenodd" d="M49.2067 27.4737C48.6006 27.138 48.1972 26.4434 48.2423 25.8159C48.2865 25.1895 48.5333 20.9999 48.5333 20.9999C48.5333 20.9999 45.2138 21.9691 44.4591 22.2097C43.4055 22.5455 42.1611 22.9604 41.2359 23.2741C40.8435 23.4195 40.5234 23.5227 40.1903 23.6209C38.7553 24.0469 37.9033 24.3155 36.8938 24.4047C35.8843 24.4949 33.8432 24.4498 33.3725 24.4498C32.9019 24.4498 32.5878 24.2253 32.5426 24.091C32.4985 23.9567 32.0048 21.9631 31.3766 20.8877C30.7484 19.8122 28.618 17.8638 27.8784 17.0579C27.1378 16.2511 26.7565 15.3781 26.7113 13.6752C26.6672 11.9723 27.3616 10.7856 27.766 10.3376C28.1694 9.88954 28.2587 9.62093 28.7304 9.53072C29.201 9.44152 30.8387 9.41947 31.3986 9.48662C31.9596 9.55378 34.8306 10.6733 35.5029 10.9871C36.1763 11.3008 37.4327 11.9282 37.6785 12.0846C37.9254 12.2419 38.0829 11.9723 37.9254 11.838C37.7688 11.7037 35.7719 10.7635 34.5165 10.1131C33.2601 9.46357 32.5426 9.21801 32.4312 9.14985C32.3188 9.0827 32.5426 8.76898 33.1929 8.09745C33.8432 7.42591 35.3905 5.45441 36.0187 5.00638C36.6469 4.55836 37.4989 4.3118 39.1587 4.80492C40.8185 5.29805 44.6759 6.95484 46.2464 7.64942C47.8158 8.34401 51.4043 10.3827 52.2121 10.965C53.019 11.5473 53.7886 11.838 54.3496 13.0698C54.9105 14.3026 56.0425 17.8056 56.0806 17.8868C56.1589 18.0542 56.2261 19.2078 56.4951 19.4203C56.764 19.6338 56.6185 18.838 56.6185 18.838C56.6185 18.838 56.473 18.1434 56.5733 18.2005C56.6747 18.2557 57.1012 18.402 57.4825 18.5473C57.8628 18.6927 57.7625 18.3569 57.5828 18.2667C57.4032 18.1775 56.8433 17.8307 56.5964 17.6403C56.5382 17.5952 56.489 17.524 56.4469 17.4448C56.3947 17.1932 55.62 14.2706 55.4043 13.4507C55.1795 12.5997 54.7239 11.7488 53.6241 10.9419C53.0892 10.5491 52.2272 10.071 51.3351 9.59487C51.5709 9.29017 52.0476 8.71586 52.5262 8.36606C53.1986 7.87293 54.185 7.2906 55.6872 7.31366C57.1905 7.33571 57.9722 7.6384 58.5362 8.03029C59.6872 8.82912 61.8106 12.1738 62.1688 12.8684C62.5281 13.5629 62.5281 14.3838 62.3494 14.8769C62.1688 15.3701 61.2055 17.8197 60.9586 18.2226C60.8302 18.4331 60.794 19.4765 61.0479 20.0147C61.2576 20.582 61.4463 20.8817 61.6711 21.3197C61.7765 21.5251 61.8778 21.7296 61.9751 21.9261C62.224 22.4282 62.3454 22.6918 62.6334 23.1609L62.6776 23.233L62.5973 23.207C62.4488 23.1589 61.8939 23.1458 61.7504 23.1288C61.9772 23.219 62.7378 23.5508 62.9505 23.6911L62.9596 23.6991C63.0188 23.7863 63.084 23.8775 63.1522 23.9687L63.1673 23.9888C63.4633 24.3857 63.642 24.6252 63.7564 25.1244C63.8788 25.6616 63.951 26.1788 63.9761 26.706L63.9801 26.7821L63.9059 26.714C63.7955 26.6138 63.7002 26.5266 63.6139 26.4554C63.5486 26.3852 63.4764 26.3291 63.3961 26.285C63.3379 26.2539 63.2757 26.2299 63.2115 26.2139C63.1031 26.1858 62.9917 26.1798 62.8803 26.1978L62.8572 26.1988C62.6405 26.2108 62.3214 26.1998 62.0675 26.1587C62.1859 26.2269 62.3404 26.288 62.4357 26.29C62.4558 26.291 62.4759 26.293 62.498 26.296L62.5702 26.3081L62.512 26.3522C62.4157 26.4243 62.3374 26.5135 62.2802 26.6198C62.2361 26.703 62.211 26.7932 62.1969 26.8864C62.2902 26.72 62.493 26.6549 62.6605 26.7451C62.8301 26.8363 62.8943 27.0488 62.803 27.2181C62.784 27.2542 62.7589 27.2853 62.7298 27.3114C62.5672 27.2733 62.3966 27.2542 62.217 27.2442L62.228 27.2733L62.1799 27.2703C62.1357 27.2683 62.0885 27.2673 62.0344 27.2663C62.0875 27.2823 62.1407 27.2983 62.1929 27.3144C62.6063 27.4437 62.9666 27.603 63.3289 27.8145L63.3479 27.8255L63.3429 27.8476C63.3048 28.045 63.2676 28.2244 63.2305 28.3928L63.2225 28.4269L62.9666 28.3427L62.9606 28.3317C62.9505 28.3126 62.9395 28.2956 62.9285 28.2786C62.7779 28.051 62.5441 27.9739 62.1367 27.9017C61.3088 27.7564 61.058 28.048 60.6766 28.4901C60.5662 28.6183 60.4468 28.7577 60.3003 28.9C60.4308 28.8078 60.5462 28.7096 60.6606 28.6143C61.0439 28.2926 61.3741 28.016 62.0223 28.1232C62.0825 28.1342 62.1377 28.1413 62.1899 28.1473C62.3344 28.1663 62.4488 28.1813 62.5481 28.2415L62.6314 28.2926L62.5341 28.2986C62.225 28.3197 61.939 28.4429 61.7704 28.6284C61.5206 28.902 61.369 29.1917 61.2225 29.4723C61.1212 29.6657 61.0238 29.8512 60.8994 30.0296C61.0489 29.8772 61.1784 29.7179 61.3128 29.5515C61.4975 29.324 61.6871 29.0884 61.939 28.8699C62.1317 28.7015 62.6776 28.5111 62.9345 28.6133L63.1573 28.7015L63.1512 28.7276C63.0338 29.1937 62.9104 29.5505 62.7749 29.8171C62.5441 30.2701 62.1397 30.9176 61.8818 31.2784C62.214 31.0198 62.5552 30.5337 62.8361 30.1328C62.8984 30.0446 62.9576 29.9594 63.0148 29.8792C63.357 29.4051 63.6369 28.7246 63.8015 27.9628C63.943 27.3124 64.3865 27.3384 64.8562 27.3665C65.087 27.3795 65.3258 27.3935 65.5486 27.3324C65.8326 27.2532 66.1095 27.0989 66.3775 26.9495C66.5812 26.8353 66.7929 26.717 67.0077 26.6328C67.2244 26.5476 67.4422 26.6288 67.6148 26.8543C67.6148 26.8543 67.664 26.9235 67.672 26.9365C67.7944 27.1319 67.8737 27.3845 67.8727 27.58C67.8617 29.1686 67.2244 31.549 66.4196 32.9984C65.6409 34.4016 64.1397 35.9742 62.2591 36.1836C60.0474 36.4292 58.1589 34.9488 56.5633 33.5416C56.487 33.4744 56.4158 33.4033 56.3435 33.3251C56.1709 33.1367 56.0335 32.9372 55.8869 32.7267C55.8689 32.7007 55.8518 32.6746 55.8328 32.6486C55.7294 33.1728 55.5648 33.5596 55.318 33.8613C54.9838 34.2693 54.478 34.8857 54.5483 35.4008C54.5754 35.5983 54.6868 35.7697 54.8824 35.908C55.043 36.0223 55.1614 36.0894 55.326 36.1215C55.4213 36.1395 55.5317 36.1465 55.6842 36.1415C55.3972 36.0684 55.2347 35.9722 55.04 35.8449C54.8353 35.7106 54.7379 35.5131 54.748 35.2545L54.752 35.1523L54.8062 35.2405C54.8614 35.3307 54.9858 35.4229 55.1915 35.5742C55.7414 35.9782 56.5041 35.9701 56.8252 35.5572C56.8854 35.48 56.9316 35.4119 56.9757 35.3457C57.0701 35.2064 57.1584 35.0741 57.3661 34.8706L57.3862 34.8506L57.4072 34.8686C57.5246 34.9669 57.6511 35.0651 57.7815 35.1613L57.8076 35.1803L57.2035 35.904C56.8162 36.3681 56.0876 36.6246 55.3922 36.5445C55.2036 36.5224 55.0279 36.4753 54.8714 36.4071C54.2312 36.1245 53.7314 35.7106 53.4565 35.1302L53.4023 35.015C53.2016 34.595 53.0079 34.1941 52.8162 33.7962C52.6968 33.6949 52.451 33.5747 52.451 33.5747C52.451 33.5747 51.584 32.9843 51.4495 32.6486C51.315 32.3128 50.6417 31.1702 51.023 30.3413C51.4043 29.5124 51.8529 28.4149 51.8529 28.4149C51.8529 28.4149 49.8118 27.8095 49.2067 27.4737ZM49.1896 35.051C49.0772 35.023 48.9588 34.9929 48.8474 34.9628C48.3989 34.8436 46.156 33.4103 44.4521 32.1554C42.7472 30.9006 41.6704 29.6467 40.983 28.0039C40.5084 26.8693 40.387 25.4381 40.3197 24.6894C40.7322 24.3135 41.1456 23.9858 41.4517 23.7592C41.6182 23.6991 41.7497 23.651 41.828 23.6209C41.841 23.6159 41.8521 23.6079 41.8651 23.6029C42.3056 23.4465 42.8927 23.2411 43.3322 23.0917C43.5008 23.7653 43.8631 25.1665 44.0477 25.5704C44.2946 26.1076 44.8997 28.3026 47.0752 31.5951C48.0607 33.0856 49.0461 34.0508 49.7355 34.5429C49.5408 34.6952 49.3502 34.8676 49.1896 35.051ZM50.2724 42.0701C49.3853 42.1673 47.4696 42.3317 46.0667 42.1312C44.5585 41.9157 42.5946 41.1861 41.7457 40.8563C41.0603 40.274 40.2946 39.5614 39.9665 39.0251C39.5992 38.4248 39.2048 37.5748 38.9008 36.794C39.0453 36.9073 39.2058 37.0226 39.3684 37.1138C39.8471 37.3824 41.252 38.3376 43.4647 39.0843C45.1957 39.6686 48.0978 39.9422 49.2789 40.0334C49.5428 40.74 49.9302 41.5389 50.2724 42.0701ZM51.2608 43.1917C51.6512 43.6196 52.0325 44.0687 52.167 44.222C52.3175 44.3934 52.4058 44.8795 51.8679 45.0579C51.1615 45.3305 49.9332 45.2894 49.3562 45.2073C48.3095 45.0579 47.7446 45.0138 46.4551 44.3713C46.2544 44.2711 46.0055 44.1188 45.7356 43.9384C46.3337 43.9524 47.5108 43.9584 48.8173 43.8341C50.0857 43.7128 50.8775 43.3901 51.2608 43.1917ZM38.118 32.9222C38.0458 32.1745 37.9926 31.4117 37.9926 30.8414C37.9926 30.204 38.0518 29.4492 38.1883 28.6855C38.4803 29.1686 38.9439 29.9354 39.3383 30.5728C39.9665 31.5881 41.6112 33.2008 43.9132 34.3655C45.6122 35.2244 47.7456 35.8228 48.7511 36.0784C48.6738 36.7068 48.737 37.5397 48.8464 38.2714C48.425 38.2143 47.8319 38.1271 47.4124 38.0399C46.6949 37.8905 43.4356 36.8451 42.0899 36.1275C40.98 35.5362 39.3383 34.6351 38.118 32.9222ZM52.6547 34.7514C52.6416 34.8055 52.9035 35.3587 52.9035 35.3587C53.0079 35.6133 53.1655 35.8228 53.3933 36.1275C53.6281 36.4432 54.2894 36.8542 54.753 37.0236C55.2397 37.202 55.8779 37.202 56.4278 37.0687C56.9607 36.9404 57.3159 36.6657 57.64 36.2758C57.7334 36.1636 57.8277 36.0503 57.921 35.9381C57.9963 35.8479 58.0705 35.7577 58.1458 35.6675C58.766 36.0614 59.4684 36.4001 60.1919 36.6186C60.8904 36.8291 61.6079 36.9313 62.2902 36.8682C63.2937 36.776 64.1778 36.3901 64.9415 35.8128C65.7944 35.1673 66.4939 34.2783 67.0348 33.287L66.8732 33.2008L67.0348 33.287C67.4683 32.4922 67.8968 31.3456 68.1828 30.1849C68.4377 29.1496 68.5781 28.1012 68.5099 27.2753C68.5019 27.175 68.4708 27.0628 68.4236 26.9495C68.3202 26.702 68.1286 26.4283 67.8988 26.2229C67.6549 26.0054 67.3629 25.859 67.0719 25.8831C66.9966 25.8891 66.9204 25.9071 66.8471 25.9372C66.6263 26.0294 66.4166 26.1637 66.2059 26.3C65.9711 26.4504 65.7352 26.6027 65.4974 26.6779C65.2225 26.7651 64.9254 26.7641 64.6454 26.7601C64.6475 26.4624 64.6234 26.1808 64.5782 25.9061C64.525 25.5764 64.4417 25.2547 64.3394 24.9249C64.2561 24.6553 64.1557 24.4368 64.0363 24.2293C63.9169 24.0208 63.7834 23.8314 63.6289 23.6109C63.2125 23.0206 62.9094 22.3971 62.6003 21.7617C62.4598 21.473 62.3173 21.1813 62.1738 20.9077C61.9972 20.572 61.8136 20.172 61.5717 19.5667C61.3289 18.9613 61.6922 18.0352 61.7433 17.7295C61.8106 17.3265 63.0669 14.907 63.089 14.4149C63.1111 13.9218 63.1111 13.4066 62.4388 12.286C61.7664 11.1665 60.2863 8.72488 58.9396 7.73963C57.5939 6.75338 55.8679 6.77643 54.7018 6.86563C53.5347 6.95484 52.9447 7.35876 52.4058 7.69453C51.9924 7.95212 51.2046 8.88725 50.7531 9.28717C50.0085 8.89527 49.287 8.51941 48.7581 8.2097C47.4566 7.44796 42.0297 4.91618 40.2354 4.3569C38.4412 3.79662 37.2079 3.66231 36.4231 3.90888C35.6384 4.15444 32.924 7.31366 32.5426 7.76168C32.1613 8.2097 31.4287 8.79203 31.4287 8.79203C31.4287 8.79203 29.5903 8.70183 28.8718 8.70183C28.1543 8.70183 27.5934 9.19496 26.9662 10.0459C26.338 10.8968 26.1514 12.4053 26.1514 13.7273C26.1514 15.0493 26.3751 15.9895 27.0033 16.9527C27.6315 17.9159 30.068 20.0989 30.5246 20.7083C31.2341 21.6574 31.8031 23.0837 31.9154 23.5758C32.0268 24.0689 32.2295 24.6964 32.2295 24.6964C32.2295 24.6964 32.5657 24.8758 33.3053 24.9429C34.0459 25.0101 35.9073 24.988 37.4989 24.8076C38.3559 24.7124 39.4045 24.4278 40.2665 24.1572C40.2585 24.1662 40.2485 24.1752 40.2404 24.1842C40.2384 24.1842 40.2374 24.1792 40.2354 24.1812C39.239 24.9239 38.668 25.856 38.3378 26.6378C37.5481 28.1573 37.5481 29.9223 37.4838 30.9236C37.3945 32.3348 37.7538 34.9929 38.5014 37.0536C39.249 39.1143 40.5937 40.3091 41.6112 41.3845C42.6278 42.46 44.6016 43.8642 46.426 44.7893C48.2493 45.7154 50.1329 45.8046 51.8378 45.517C52.0797 45.4769 52.2533 45.3937 52.7008 45.2604C53.1996 45.1401 53.8398 44.8534 54.768 44.5798C54.8915 44.5437 55.0109 44.5047 55.1313 44.4656V47.4173H57.2637V43.6256C57.4945 43.5184 57.639 43.4452 57.639 43.4452C57.639 43.4452 57.4976 43.4462 57.2637 43.4482V43.0433H58.0164V47.4173H60.1056V38.1591H58.0164V41.7333H57.2637V38.1591H55.1313V43.4472C54.182 43.4412 53.2608 43.4252 52.9738 43.3851C52.3165 43.2959 51.6883 42.5191 51.6883 42.5191C51.6883 42.5191 52.0476 42.46 52.3466 42.3407C52.6457 42.2204 53.1835 41.8927 53.1835 41.8927C53.1835 41.8927 52.8845 41.8927 52.3165 41.8025C51.7485 41.7133 51.5388 41.4737 51.3301 41.2953C51.1203 41.1159 50.743 40.2419 50.743 40.2419C50.743 40.2419 51.3602 40.2499 51.8378 40.1898C52.3165 40.1297 53.5127 39.5924 53.5127 39.5924C53.5127 39.5924 52.2563 39.7117 51.5087 39.5624C50.7611 39.413 50.163 38.9059 50.0135 38.4568C49.864 38.0098 49.6552 36.6056 49.6552 36.6056C49.6552 36.6056 49.8941 36.8742 50.2232 37.233C50.5524 37.5919 51.3301 37.9797 52.0175 38.1291C52.7049 38.2784 53.7224 38.2784 53.5428 38.2484C53.3632 38.2183 52.0175 37.5317 51.5388 37.1428C51.0601 36.7549 50.3135 35.7998 50.2533 35.5311C50.2242 35.4008 50.3908 35.1543 50.5704 34.9318C50.8915 34.9137 52.0135 34.8115 52.6547 34.7514Z" fill="black"/>
<path fill-rule="evenodd" clip-rule="evenodd" d="M53.5464 18.8719C53.4872 18.7717 51.8726 15.1264 51.4943 14.6383C51.113 14.1451 50.261 13.7873 49.0056 13.6751C47.7492 13.5628 45.1923 13.652 44.9455 13.652C44.6986 13.652 44.6986 13.9437 45.0799 14.0108C45.4613 14.078 47.5696 14.2574 48.3102 14.3246C49.0498 14.3917 49.8345 14.4589 50.1034 14.6152C50.3734 14.7726 50.2841 15.0863 49.678 15.1534C49.2495 15.2006 48.9825 15.2427 48.4888 15.3329C48.0744 15.408 47.9961 15.848 48.3774 15.8921C48.7588 15.9372 49.6107 15.848 50.261 15.9152C50.9112 15.9823 51.3819 16.3963 51.7632 16.8333C52.0793 17.1951 53.1019 18.879 53.2103 19.0183C53.3668 19.2197 53.6247 19.0063 53.5464 18.8719Z" fill="black"/>
<path fill-rule="evenodd" clip-rule="evenodd" d="M66.5009 42.5234L65.5335 38.1744H63.4854L65.5485 47.4476H67.5967L69.3407 38.431V38.1885V38.1744H67.3418L66.5009 42.5234Z" fill="black"/>
</svg>
