<svg data-slug-id="immersive-reader" xmlns="http://www.w3.org/2000/svg" viewBox="0 0 61 61">
<path d="M24.4523 39.127H13.9633V15.1187H24.8409C26.7833 15.1187 28.8033 16.2063 28.8033 18.3041V34.4652L28.8811 34.6206H30.435L30.3573 19.1589V18.7703C30.3573 16.6725 32.0666 15.0409 34.2422 15.0409H45.1974V30.0364L46.7514 28.7933V13.4869H34.0091C32.222 13.4869 30.5127 14.4971 29.5803 16.0509C28.5703 14.2639 26.5501 13.2539 23.9085 13.2539H12.2539V40.8362H25.2293C26.3947 40.8362 27.7156 41.8464 28.5703 42.6234L28.8811 42.9342V40.914L28.8033 40.8362C27.4825 39.6708 26.0839 39.127 24.4523 39.127Z" fill="#0078D4"></path>
<path d="M32.9989 35.628H29.9688V41.9214H32.9989L38.8262 47.7487H40.7686V29.8008H38.9816L32.9989 35.628ZM31.445 40.2898V37.1042H33.3097C33.4651 37.1042 33.6205 37.0265 33.6205 36.9488L39.2147 31.5878V45.9617L33.6982 40.4452C33.6205 40.3675 33.4651 40.2898 33.3874 40.2898H31.445Z" fill="#0078D4"></path>
<path d="M46.1342 30.9698L45.9788 30.8145L44.9688 31.6691L45.1241 31.8245C46.9112 33.8445 47.8435 36.4085 47.8435 39.0503C47.8435 41.5365 46.9888 44.0229 45.3572 45.9653L45.2018 46.1207L46.2119 46.9753L46.3673 46.8199C48.1543 44.6445 49.1644 41.8473 49.1644 39.0503C49.1644 36.0201 48.0766 33.1453 46.1342 30.9698Z" fill="#0078D4"></path>
<path d="M43.4086 33.1437L43.3308 32.9883L42.3984 33.7653L42.5538 33.9207C43.7194 35.2415 44.341 36.9507 44.341 38.6601C44.341 40.4471 43.7194 42.0787 42.5538 43.4773L42.3984 43.6327L43.3308 44.4097L43.4862 44.2543C44.807 42.7003 45.5064 40.6803 45.5064 38.6601C45.5064 36.6401 44.7294 34.6975 43.4086 33.1437Z" fill="#0078D4"></path>
</svg>