<svg id="svg-ink-recognizer" viewBox="0 0 61 61">
<path d="M42.018 14.408L40.2477 13.5366C39.3763 13.1055 38.3307 13.4541 37.872 14.3071L37.2116 15.5546C36.7346 15.3803 36.1934 15.5821 35.9641 16.0499L34.7717 18.4164L33.5151 17.7835C32.5887 17.3157 31.4513 17.6918 30.9927 18.6182L27.0026 26.6074C26.755 27.0935 26.9476 27.6897 27.4338 27.9374C27.929 28.2034 28.5436 28.0016 28.8004 27.5063L32.7538 19.7097L33.8453 20.2601L24.2876 39.293L24.2784 42.2924C24.2784 42.8336 24.4435 43.3197 24.7187 43.7233L23.8381 45.4202C23.5813 45.9247 23.7831 46.5484 24.2876 46.8052C24.7921 47.0621 25.4066 46.8603 25.6634 46.3558L26.4523 44.8056C26.9384 44.8698 27.4429 44.8056 27.929 44.558L31.0752 42.9803L42.8068 19.4712C43.0545 18.9759 42.8618 18.3889 42.3757 18.132L42.9169 16.9947C43.3755 16.0316 42.972 14.8758 42.018 14.408ZM29.5343 41.4118L27.021 42.7235C26.7183 42.8794 26.3514 42.6593 26.3514 42.3199L26.333 39.8342L37.3125 17.9119L40.5137 19.5171L29.5343 41.4118ZM40.5229 17.1965L39.0645 16.4718L39.5506 15.4995L41.0182 16.2333L40.5229 17.1965Z" fill="#0078D4"></path>
<path d="M43.1247 25.9863C42.5743 25.9955 42.1249 26.4542 42.1249 27.0045C42.1249 27.564 42.5834 28.0227 43.143 28.0227C43.1705 28.0227 43.2072 28.0227 43.2348 28.0135C44.3446 28.0869 45.2252 29.0041 45.2252 30.1324C45.2252 31.2972 44.2804 32.2512 43.1155 32.2603H39.4832L38.4375 34.3241H43.1155C45.3995 34.315 47.2523 32.4255 47.2523 30.1324C47.2523 27.8392 45.4086 25.9955 43.1247 25.9863Z" fill="#0078D4"></path>
<path d="M21.8702 44.8164H21.1273C18.2287 44.8164 15.8714 42.4682 15.8714 39.5605C15.8714 36.662 18.2287 34.3046 21.1273 34.3046H23.7505L24.8145 32.25H21.0813C17.0363 32.25 13.7617 35.5246 13.7617 39.5697C13.7617 43.6148 17.0363 46.8893 21.0813 46.8893H21.8702C21.7235 46.5775 21.6501 46.2289 21.6501 45.8529C21.6409 45.486 21.7235 45.1373 21.8702 44.8164Z" fill="#0078D4"></path>
</svg>