<?xml version="1.0" encoding="utf-8"?>
<!-- Generator: Adobe Illustrator 22.1.0, SVG Export Plug-In . SVG Version: 6.00 Build 0)  -->
<svg version="1.1" id="Layer_1" xmlns="http://www.w3.org/2000/svg" xmlns:xlink="http://www.w3.org/1999/xlink" x="0px" y="0px"
	 viewBox="0 0 194.2 101" style="enable-background:new 0 0 194.2 101;" xml:space="preserve">
<style type="text/css">
	.st0{fill:#389BD5;}
	.st1{fill:#389CD6;}
	.st2{fill:#FFFFFF;}
	.st3{opacity:0.2;}
	.st4{fill:#509DD5;}
	.st5{fill:none;}
</style>
<g>
	<g>
		<path class="st1" d="M191.8,99.3h-20.1c-0.9,0-1.7-0.8-1.7-1.7V70.8c0-0.9,0.8-1.7,1.7-1.7h20.1c0.9,0,1.7,0.8,1.7,1.7v26.8
			C193.5,98.6,192.8,99.3,191.8,99.3z M173,96.3h17.5V72.1H173V96.3z"/>
	</g>
	<g>
		<path class="st1" d="M97.9,70.6c-0.6,0-1-0.4-1-1v-3c0-0.6,0.4-1,1-1s1,0.4,1,1v3C98.9,70.1,98.4,70.6,97.9,70.6z M97.9,62.6
			c-0.6,0-1-0.4-1-1v-5c0-0.6,0.4-1,1-1s1,0.4,1,1v5C98.9,62.1,98.4,62.6,97.9,62.6z M97.9,52.6c-0.6,0-1-0.4-1-1v-5
			c0-0.6,0.4-1,1-1s1,0.4,1,1v5C98.9,52.1,98.4,52.6,97.9,52.6z M97.9,42.6c-0.6,0-1-0.4-1-1v-5c0-0.6,0.4-1,1-1s1,0.4,1,1v5
			C98.9,42.1,98.4,42.6,97.9,42.6z"/>
	</g>
	<g>
		<g>
			<path class="st1" d="M0,74v22.4h29.2V74H0z M25.4,93.2H3.7V77h21.7V93.2z"/>
		</g>
		<g>
			<path class="st1" d="M5.2,94.8l-1.6-1.2l8.4-11.5c0.2-0.3,0.5-0.4,0.8-0.4c0.3,0,0.6,0.2,0.8,0.4l2.3,3.4l5.5,8.1l-1.7,1.1
				l-7-10.3L5.2,94.8z"/>
		</g>
		<g>
			<path class="st1" d="M25.2,94.9L19,86.2l-1.4,2.3l-1.7-1l2.2-3.6c0.2-0.3,0.5-0.5,0.8-0.5c0.3,0,0.7,0.1,0.9,0.4l7.1,10
				L25.2,94.9z"/>
		</g>
		<g>
			<path class="st1" d="M9.4,82c0,0,0-0.1,0-0.1C9.4,81.4,9,81,8.5,81c-0.2,0-0.3,0.1-0.5,0.1c-0.2-0.3-0.5-0.5-0.9-0.5
				c-0.6,0-1,0.5-1,1c0,0,0,0,0,0c-0.5,0-0.8,0.4-0.8,0.8s0.4,0.8,0.8,0.8c0.2,0,0.5,0,0.5,0h2.3c0,0,0.3,0,0.5,0
				c0.4,0,0.7-0.3,0.7-0.7C10,82.3,9.7,82,9.4,82z"/>
		</g>
	</g>
	<g>
		<path class="st1" d="M67.2,76.1H44.4c-0.4,0-0.8,0.3-0.8,0.8v15.3c0,0.4,0.3,0.8,0.8,0.8h22.8c0.4,0,0.8-0.3,0.8-0.8V76.9
			C67.9,76.5,67.6,76.1,67.2,76.1z M65.3,91.2H46.3V77.9h19.1V91.2z"/>
	</g>
	<g>
		<path class="st1" d="M55.8,81.5c-1.7,0-3.1,1.4-3.1,3.1s1.4,3.1,3.1,3.1c1.7,0,3.1-1.4,3.1-3.1S57.5,81.5,55.8,81.5z M57.1,84.8
			l-1.9,1.1c-0.1,0.1-0.3,0-0.3-0.2v-2.2c0-0.2,0.2-0.2,0.3-0.2l1.9,1.1C57.3,84.5,57.3,84.7,57.1,84.8z"/>
	</g>
	<g>
		<g>
			<rect x="84" y="74.3" class="st1" width="5.4" height="4.9"/>
		</g>
		<g>
			<rect x="94.5" y="85.9" class="st1" width="5.7" height="5.1"/>
		</g>
		<g>
			<rect x="91.7" y="74.4" class="st1" width="8.5" height="1"/>
		</g>
		<g>
			<rect x="91.7" y="76.8" class="st1" width="8.5" height="1"/>
		</g>
		<g>
			<rect x="91.7" y="79.1" class="st1" width="8.5" height="1"/>
		</g>
		<g>
			<rect x="84.1" y="85.4" class="st1" width="8.5" height="1"/>
		</g>
		<g>
			<rect x="84.1" y="81.1" class="st1" width="16.1" height="3"/>
		</g>
		<g>
			<rect x="84.1" y="87.8" class="st1" width="8.5" height="1"/>
		</g>
		<g>
			<rect x="84.1" y="90" class="st1" width="8.5" height="1"/>
		</g>
		<g>
			<path class="st1" d="M102.6,72.2v22.6H84.8c-1.6,0-2.8-1.3-2.8-2.8V72.2H102.6 M102.6,69.2H82c-1.7,0-3,1.3-3,3v19.7
				c0,3.2,2.6,5.8,5.8,5.8h17.8c1.7,0,3-1.3,3-3V72.2C105.6,70.5,104.2,69.2,102.6,69.2L102.6,69.2z"/>
		</g>
		<g>
			<path class="st1" d="M109.8,77.5V93c0,1-0.8,1.8-1.8,1.8h-2.3V77.5H109.8 M109.8,74.5h-4.1c-1.7,0-3,1.3-3,3v17.2
				c0,1.7,1.3,3,3,3h2.3c2.6,0,4.8-2.1,4.8-4.8V77.5C112.8,75.9,111.4,74.5,109.8,74.5L109.8,74.5z"/>
		</g>
	</g>
	<g>
		<rect x="175.1" y="81.8" class="st1" width="3.2" height="3.2"/>
	</g>
	<g>
		<rect x="180.2" y="81.8" class="st1" width="3.2" height="3.2"/>
	</g>
	<g>
		<rect x="185.3" y="81.8" class="st1" width="3.2" height="3.2"/>
	</g>
	<g>
		<rect x="175.1" y="73.7" class="st1" width="13.5" height="4.4"/>
	</g>
	<g>
		<rect x="175.1" y="91.2" class="st1" width="3.2" height="3.2"/>
	</g>
	<g>
		<rect x="180.2" y="91.2" class="st1" width="3.2" height="3.2"/>
	</g>
	<g>
		<rect x="185.3" y="91.2" class="st1" width="3.2" height="3.2"/>
	</g>
	<g>
		<rect x="175.1" y="86.4" class="st1" width="3.2" height="3.2"/>
	</g>
	<g>
		<rect x="180.2" y="86.4" class="st1" width="3.2" height="3.2"/>
	</g>
	<g>
		<rect x="185.3" y="86.4" class="st1" width="3.2" height="3.2"/>
	</g>
	<g>
		<polygon class="st5" points="139.1,75.1 139.1,72 126,72 126,85.1 133.1,85.1 133.1,75.1 		"/>
		<path class="st1" d="M152.2,81.9v-6.8h-10.1V69H123v19.1h10.1v6.1h8.2v6.8h19.1V81.9H152.2z M157.4,98h-13.1V84.9h13.1V98z
			 M136.1,78.1h13.1v3.8h-8v9.3h-5.2V78.1z M126,85.1V72h13.1v3.1h-6v10H126z"/>
	</g>
	<g>
		<rect x="102.2" y="96.3" class="st1" width="3.4" height="1.4"/>
	</g>
	<g>
		<path class="st1" d="M181.4,42.4c-0.6,0-1,0.4-1,1v5c0,0.6,0.4,1,1,1s1-0.4,1-1v-5C182.4,42.8,182,42.4,181.4,42.4z"/>
		<path class="st1" d="M128.2,42.6c0-0.6-0.4-1-1-1h-5c-0.6,0-1,0.4-1,1s0.4,1,1,1h5C127.7,43.6,128.2,43.2,128.2,42.6z"/>
		<path class="st1" d="M87.4,38c0-0.6-0.4-1-1-1s-1,0.4-1,1v3.9c-0.2,0.2-0.4,0.5-0.4,0.8c0,0.6,0.4,1,1,1h1.4V38z"/>
		<path class="st1" d="M82.1,42.6c0-0.6-0.4-1-1-1h-5c-0.6,0-1,0.4-1,1s0.4,1,1,1h5C81.6,43.6,82.1,43.2,82.1,42.6z"/>
		<path class="st1" d="M110.5,40.3v-5c0-0.6-0.4-1-1-1s-1,0.4-1,1v5c0,0.6,0.4,1,1,1S110.5,40.8,110.5,40.3z"/>
		<path class="st1" d="M118.2,42.6c0-0.6-0.4-1-1-1h-5c-0.6,0-1,0.4-1,1s0.4,1,1,1h5C117.7,43.6,118.2,43.2,118.2,42.6z"/>
		<path class="st1" d="M157.2,41.6h-5c-0.6,0-1,0.4-1,1s0.4,1,1,1h5c0.6,0,1-0.4,1-1S157.7,41.6,157.2,41.6z"/>
		<path class="st1" d="M167.2,41.6h-5c-0.6,0-1,0.4-1,1s0.4,1,1,1h5c0.6,0,1-0.4,1-1S167.7,41.6,167.2,41.6z"/>
		<path class="st1" d="M138.2,42.6c0-0.6-0.4-1-1-1h-5c-0.6,0-1,0.4-1,1s0.4,1,1,1h5C137.7,43.6,138.2,43.2,138.2,42.6z"/>
		<path class="st1" d="M177.2,41.6h-5c-0.6,0-1,0.4-1,1s0.4,1,1,1h5c0.6,0,1-0.4,1-1S177.7,41.6,177.2,41.6z"/>
		<path class="st1" d="M181.4,62.4c-0.6,0-1,0.4-1,1v5c0,0.6,0.4,1,1,1s1-0.4,1-1v-5C182.4,62.8,182,62.4,181.4,62.4z"/>
		<path class="st1" d="M181.4,52.4c-0.6,0-1,0.4-1,1v5c0,0.6,0.4,1,1,1s1-0.4,1-1v-5C182.4,52.8,182,52.4,181.4,52.4z"/>
		<path class="st1" d="M147.2,41.6h-5c-0.6,0-1,0.4-1,1s0.4,1,1,1h5c0.6,0,1-0.4,1-1S147.7,41.6,147.2,41.6z"/>
		<path class="st1" d="M21.1,41.6h-5c-0.6,0-1,0.4-1,1s0.4,1,1,1h5c0.6,0,1-0.4,1-1S21.6,41.6,21.1,41.6z"/>
		<path class="st1" d="M31.1,41.6h-5c-0.6,0-1,0.4-1,1s0.4,1,1,1h5c0.6,0,1-0.4,1-1S31.6,41.6,31.1,41.6z"/>
		<path class="st1" d="M61.1,43.6c0.6,0,1-0.4,1-1s-0.4-1-1-1h-5c-0.6,0-1,0.4-1,1s0.4,1,1,1H61.1z"/>
		<path class="st1" d="M51.1,41.6h-5c-0.6,0-1,0.4-1,1s0.4,1,1,1h5c0.6,0,1-0.4,1-1S51.6,41.6,51.1,41.6z"/>
		<path class="st1" d="M41.1,41.6h-5c-0.6,0-1,0.4-1,1s0.4,1,1,1h5c0.6,0,1-0.4,1-1S41.6,41.6,41.1,41.6z"/>
		<path class="st1" d="M14.5,45.1c-0.6,0-1,0.4-1,1v5c0,0.6,0.4,1,1,1s1-0.4,1-1v-5C15.5,45.5,15.1,45.1,14.5,45.1z"/>
		<path class="st1" d="M14.5,65.1c-0.6,0-1,0.4-1,1v5c0,0.6,0.4,1,1,1s1-0.4,1-1v-5C15.5,65.5,15.1,65.1,14.5,65.1z"/>
		<path class="st1" d="M14.5,55.1c-0.6,0-1,0.4-1,1v5c0,0.6,0.4,1,1,1s1-0.4,1-1v-5C15.5,55.5,15.1,55.1,14.5,55.1z"/>
		<path class="st1" d="M72.1,42.6c0-0.6-0.4-1-1-1h-5c-0.6,0-1,0.4-1,1s0.4,1,1,1h5C71.6,43.6,72.1,43.2,72.1,42.6z"/>
		<path class="st1" d="M139.6,63.7c-0.6,0-1,0.4-1,1v5c0,0.6,0.4,1,1,1s1-0.4,1-1v-5C140.6,64.1,140.1,63.7,139.6,63.7z"/>
		<path class="st1" d="M130.2,48h-5c-0.6,0-1,0.4-1,1s0.4,1,1,1h5c0.6,0,1-0.4,1-1S130.8,48,130.2,48z"/>
		<path class="st1" d="M56.4,72c-0.6,0-1,0.4-1,1v1.9c0,0.6,0.4,1,1,1s1-0.4,1-1V73C57.4,72.5,56.9,72,56.4,72z"/>
		<path class="st1" d="M104.5,40.7c0-0.6-0.4-1-1-1s-1,0.4-1,1v5c0,0.6,0.4,1,1,1s1-0.4,1-1V40.7z"/>
		<path class="st1" d="M92.4,38.1c-0.6,0-1,0.4-1,1v5c0,0.6,0.4,1,1,1s1-0.4,1-1v-5C93.4,38.5,93,38.1,92.4,38.1z"/>
		<path class="st1" d="M110.2,48h-5c-0.6,0-1,0.4-1,1s0.4,1,1,1h5c0.6,0,1-0.4,1-1S110.8,48,110.2,48z"/>
		<path class="st1" d="M92.4,48h-5c-0.6,0-1,0.4-1,1s0.4,1,1,1h5c0.6,0,1-0.4,1-1S92.9,48,92.4,48z"/>
		<path class="st1" d="M72.4,48h-5c-0.6,0-1,0.4-1,1s0.4,1,1,1h5c0.6,0,1-0.4,1-1S72.9,48,72.4,48z"/>
		<path class="st1" d="M82.4,48h-5c-0.6,0-1,0.4-1,1s0.4,1,1,1h5c0.6,0,1-0.4,1-1S82.9,48,82.4,48z"/>
		<path class="st1" d="M56.4,62c-0.6,0-1,0.4-1,1v5c0,0.6,0.4,1,1,1s1-0.4,1-1v-5C57.4,62.5,56.9,62,56.4,62z"/>
		<path class="st1" d="M120.2,48h-5c-0.6,0-1,0.4-1,1s0.4,1,1,1h5c0.6,0,1-0.4,1-1S120.8,48,120.2,48z"/>
		<path class="st1" d="M62.4,48h-5c-0.6,0-1,0.4-1,1s0.4,1,1,1h5c0.6,0,1-0.4,1-1S62.9,48,62.4,48z"/>
		<path class="st1" d="M56.4,52c-0.6,0-1,0.4-1,1v5c0,0.6,0.4,1,1,1s1-0.4,1-1v-5C57.4,52.5,56.9,52,56.4,52z"/>
		<path class="st1" d="M139.6,53.7c-0.6,0-1,0.4-1,1v5c0,0.6,0.4,1,1,1s1-0.4,1-1v-5C140.6,54.1,140.1,53.7,139.6,53.7z"/>
		<path class="st1" d="M134.2,49c0,0.6,0.4,1,1,1h3.4c0.1,0.4,0.5,0.7,0.9,0.7c0.6,0,1-0.4,1-1V48h-5.3
			C134.7,48,134.2,48.5,134.2,49z"/>
		<path class="st1" d="M161.7,0H0.9v32.5h84.6V33c0,0.6,0.4,1,1,1s1-0.4,1-1v-0.5h4v1.6c0,0.6,0.4,1,1,1s1-0.4,1-1v-1.6h9.1v3.3
			c0,0.6,0.4,1,1,1s1-0.4,1-1v-3.3h57.2h32.5V0H161.7z M3.9,29.5V3h157.8v26.5H3.9z M191.2,29.5h-26.5V3h26.5V29.5z"/>
		<path class="st1" d="M177.2,23c1.6,0,3.1-0.5,4.4-1.3l5.2,5.2l2.1-2.1l-5.2-5.1c0.9-1.3,1.4-2.8,1.4-4.5c0-4.4-3.6-7.9-7.9-7.9
			s-7.9,3.6-7.9,7.9C169.3,19.5,172.8,23,177.2,23z M177.2,10.2c2.7,0,4.9,2.2,4.9,4.9c0,2.7-2.2,4.9-4.9,4.9s-4.9-2.2-4.9-4.9
			C172.3,12.4,174.5,10.2,177.2,10.2z"/>
	</g>
</g>
</svg>
