<svg version="1.1" id="Layer_1" xmlns="http://www.w3.org/2000/svg" xmlns:xlink="http://www.w3.org/1999/xlink" x="0px" y="0px"
	 viewBox="0 0 115.1 119" style="enable-background:new 0 0 115.1 119;" xml:space="preserve">
<style type="text/css">
	.st0{fill:#389CD6;}
</style>
<g>
	<path class="st0" d="M37.2,64c0-0.6-0.4-1-1-1s-1,0.4-1,1v5c0,0.6,0.4,1,1,1s1-0.4,1-1V64z"/>
	<path class="st0" d="M44.9,38c-0.6,0-1,0.4-1,1v5c0,0.6,0.4,1,1,1s1-0.4,1-1v-5C45.9,38.4,45.4,38,44.9,38z"/>
	<path class="st0" d="M44.9,28c-0.6,0-1,0.4-1,1v5c0,0.6,0.4,1,1,1s1-0.4,1-1v-5C45.9,28.4,45.4,28,44.9,28z"/>
	<path class="st0" d="M36.2,60c0.6,0,1-0.4,1-1v-5c0-0.6-0.4-1-1-1s-1,0.4-1,1v5C35.2,59.6,35.6,60,36.2,60z"/>
	<path class="st0" d="M44.9,85.2c0.6,0,1-0.4,1-1v-5c0-0.6-0.4-1-1-1s-1,0.4-1,1v5C43.9,84.7,44.3,85.2,44.9,85.2z"/>
	<path class="st0" d="M38,51c0.2,0,0.3,0,0.5-0.1l4.3-2.5c0.5-0.3,0.6-0.9,0.4-1.4c-0.3-0.5-0.9-0.6-1.4-0.4l-4.3,2.5
		c-0.5,0.3-0.6,0.9-0.4,1.4C37.3,50.9,37.6,51,38,51z"/>
	<path class="st0" d="M42.4,76.5c0.3,0,0.7-0.2,0.9-0.5c0.3-0.5,0.1-1.1-0.3-1.4l-4.3-2.6c-0.5-0.3-1.1-0.1-1.4,0.3
		c-0.3,0.5-0.1,1.1,0.3,1.4l4.3,2.6C42,76.5,42.2,76.5,42.4,76.5z"/>
	<path class="st0" d="M41.1,26.8c1,0.8,2.1,1.2,3.4,1.2c0.2,0,0.4,0,0.5,0c2.9-0.3,5.1-2.9,4.8-5.8c-0.1-1.4-0.8-2.7-1.9-3.6
		c-1.1-0.9-2.5-1.3-3.9-1.2c-2.9,0.3-5.1,2.9-4.8,5.8C39.3,24.6,40,25.9,41.1,26.8z M42.7,21.2c0.4-0.5,0.9-0.8,1.6-0.8
		c0.1,0,0.2,0,0.2,0c0.5,0,1,0.2,1.5,0.5c0.5,0.4,0.8,0.9,0.8,1.6c0.1,1.3-0.8,2.4-2.1,2.5c-1.3,0.1-2.4-0.8-2.5-2.1
		C42.1,22.3,42.3,21.7,42.7,21.2z"/>
	<path class="st0" d="M47.9,91.4c-0.6-0.5-1.3-0.8-2-1v-1.3c0-0.6-0.4-1-1-1s-1,0.4-1,1v1.1c-2.9,0.3-4.9,2.9-4.7,5.8
		c0.3,2.7,2.6,4.8,5.3,4.8c0.2,0,0.4,0,0.5,0c2.9-0.3,5.1-2.9,4.8-5.8C49.6,93.6,49,92.3,47.9,91.4z M44.7,97.9
		c-0.6,0.1-1.2-0.1-1.7-0.5c-0.5-0.4-0.8-0.9-0.8-1.6s0.1-1.2,0.5-1.7c0.3-0.4,0.7-0.6,1.2-0.8c0.1,0,0.3-0.1,0.4-0.1
		c0.1,0,0.2,0,0.2,0c0.5,0,1,0.2,1.4,0.5c0,0,0.1,0,0.1,0.1c0.5,0.4,0.8,0.9,0.8,1.6C46.9,96.6,46,97.7,44.7,97.9z"/>
	<path class="st0" d="M114.3,44.9l-15.3-9V17.7c0-0.5-0.3-1-0.7-1.3l-27-16.2c-0.5-0.3-1.1-0.3-1.5,0L57.5,7.6L45.3,0.2
		c-0.5-0.3-1.1-0.3-1.5,0l-27,16.2c-0.5,0.3-0.7,0.8-0.7,1.3v18.2l-15.3,9C0.3,45.2,0,45.7,0,46.2v28.9c0,0.5,0.3,1,0.7,1.3L16,85.7
		V100c0,0.5,0.3,1,0.7,1.3l29.1,17.5c0.2,0.1,0.5,0.2,0.8,0.2c0.3,0,0.6-0.1,0.9-0.3l10.1-7.2l10.1,7.2c0.3,0.2,0.6,0.3,0.9,0.3
		c0.3,0,0.5-0.1,0.8-0.2l29.1-17.5c0.5-0.3,0.7-0.8,0.7-1.3V85.7l15.3-9.3c0.4-0.3,0.7-0.8,0.7-1.3V46.2
		C115.1,45.7,114.8,45.2,114.3,44.9z M46.5,115.7L19,99.1V85.7l6.4-3.9c0.9,0.7,2.1,1.2,3.3,1.2c2.9,0,5.3-2.4,5.3-5.3
		s-2.4-5.3-5.3-5.3s-5.3,2.4-5.3,5.3c0,0.6,0.1,1.1,0.3,1.6l-6.2,3.8L3,74.3V61.7h9.1c0.6,2.3,2.7,4,5.1,4c2.9,0,5.3-2.4,5.3-5.3
		c0-2.9-2.4-5.3-5.3-5.3c-2.3,0-4.3,1.5-5,3.6H3V47.1l14.6-8.6l6.1,3.7c-0.2,0.5-0.3,1.1-0.3,1.6c0,2.9,2.4,5.3,5.3,5.3
		s5.3-2.4,5.3-5.3s-2.4-5.3-5.3-5.3c-1.3,0-2.4,0.5-3.3,1.2L19,35.9V18.6L44.5,3.3L56,10.1v49h-3.4c-0.6-2.3-2.7-4-5.1-4
		c-2.9,0-5.3,2.4-5.3,5.3c0,2.9,2.4,5.3,5.3,5.3c2.3,0,4.3-1.5,5-3.6H56V109L46.5,115.7z M26.4,77.7C26.4,77.7,26.4,77.7,26.4,77.7
		c0-1.3,1.1-2.3,2.3-2.3c1.3,0,2.3,1,2.3,2.3S30,80,28.7,80c-0.1,0-0.2,0-0.4,0C27.3,79.8,26.4,78.8,26.4,77.7z M14.9,60.4
		c0-0.7,0.3-1.3,0.8-1.7c0.4-0.4,1-0.6,1.6-0.6c1.3,0,2.3,1,2.3,2.3c0,1.3-1,2.3-2.3,2.3c-0.8,0-1.5-0.4-1.9-1
		C15.1,61.3,14.9,60.9,14.9,60.4z M26.4,43.9c0-1.2,0.9-2.1,2-2.3c0.1,0,0.2,0,0.3,0c1.3,0,2.3,1,2.3,2.3s-1,2.3-2.3,2.3
		C27.5,46.2,26.4,45.2,26.4,43.9C26.4,43.9,26.4,43.9,26.4,43.9z M49.8,60.4c0,1.3-1,2.3-2.3,2.3s-2.3-1-2.3-2.3
		c0-1.3,1-2.3,2.3-2.3S49.8,59.1,49.8,60.4z M112.1,74.3l-14.5,8.8l-6.2-3.8c0.2-0.5,0.3-1.1,0.3-1.6c0-2.9-2.4-5.3-5.3-5.3
		c-2.9,0-5.3,2.4-5.3,5.3s2.4,5.3,5.3,5.3c1.3,0,2.4-0.5,3.3-1.2l6.4,3.9v13.5l-27.5,16.6l-9.5-6.8V62.1h3.5c0.7,2.1,2.7,3.6,5,3.6
		c2.9,0,5.3-2.4,5.3-5.3c0-2.9-2.4-5.3-5.3-5.3c-2.5,0-4.6,1.7-5.1,4h-3.4v-49l11.4-6.9l25.5,15.3v17.3l-6.4,3.9
		c-0.9-0.7-2.1-1.2-3.3-1.2c-2.9,0-5.3,2.4-5.3,5.3s2.4,5.3,5.3,5.3c2.9,0,5.3-2.4,5.3-5.3c0-0.6-0.1-1.1-0.3-1.6l6.1-3.7l14.6,8.6
		v11.6h-9.3c-0.7-2.1-2.7-3.6-5-3.6c-2.9,0-5.3,2.4-5.3,5.3c0,2.9,2.4,5.3,5.3,5.3c2.5,0,4.6-1.7,5.1-4h9.1V74.3z M88.7,77.7
		c0,1.2-0.9,2.1-2,2.3c-0.1,0-0.2,0-0.4,0c-1.3,0-2.3-1-2.3-2.3s1-2.3,2.3-2.3C87.6,75.3,88.6,76.4,88.7,77.7
		C88.7,77.7,88.7,77.7,88.7,77.7z M65.3,60.4c0-1.3,1-2.3,2.3-2.3s2.3,1,2.3,2.3c0,1.3-1,2.3-2.3,2.3S65.3,61.7,65.3,60.4z
		 M88.7,43.9C88.7,43.9,88.7,43.9,88.7,43.9c0,1.3-1,2.3-2.3,2.3c-1.3,0-2.3-1-2.3-2.3s1-2.3,2.3-2.3c0.1,0,0.2,0,0.3,0
		C87.8,41.8,88.7,42.7,88.7,43.9z M100.1,60.4c0,0.5-0.1,0.9-0.4,1.3c-0.4,0.6-1.1,1-1.9,1c-1.3,0-2.3-1-2.3-2.3
		c0-1.3,1-2.3,2.3-2.3c0.6,0,1.1,0.2,1.6,0.6C99.8,59.1,100.1,59.7,100.1,60.4z"/>
	<path class="st0" d="M70.2,85.2c0.6,0,1-0.4,1-1v-5c0-0.6-0.4-1-1-1s-1,0.4-1,1v5C69.2,84.7,69.7,85.2,70.2,85.2z"/>
	<path class="st0" d="M70.2,38c-0.6,0-1,0.4-1,1v5c0,0.6,0.4,1,1,1s1-0.4,1-1v-5C71.2,38.4,70.8,38,70.2,38z"/>
	<path class="st0" d="M70.2,28c-0.6,0-1,0.4-1,1v5c0,0.6,0.4,1,1,1s1-0.4,1-1v-5C71.2,28.4,70.8,28,70.2,28z"/>
	<path class="st0" d="M78.9,63c-0.6,0-1,0.4-1,1v5c0,0.6,0.4,1,1,1s1-0.4,1-1v-5C79.9,63.5,79.4,63,78.9,63z"/>
	<path class="st0" d="M78.9,53c-0.6,0-1,0.4-1,1v5c0,0.6,0.4,1,1,1s1-0.4,1-1v-5C79.9,53.5,79.4,53,78.9,53z"/>
	<path class="st0" d="M76.4,72.1l-4.3,2.6c-0.5,0.3-0.6,0.9-0.3,1.4c0.2,0.3,0.5,0.5,0.9,0.5c0.2,0,0.4,0,0.5-0.1l4.3-2.6
		c0.5-0.3,0.6-0.9,0.3-1.4C77.5,71.9,76.9,71.8,76.4,72.1z"/>
	<path class="st0" d="M77.1,51c0.3,0,0.7-0.2,0.9-0.5c0.3-0.5,0.1-1.1-0.4-1.4l-4.3-2.5c-0.5-0.3-1.1-0.1-1.4,0.4s-0.1,1.1,0.4,1.4
		l4.3,2.5C76.7,51,76.9,51,77.1,51z"/>
	<path class="st0" d="M75.9,23.2c0.1-1.4-0.3-2.8-1.2-3.9c-0.9-1.1-2.2-1.8-3.6-1.9c-2.9-0.3-5.5,1.8-5.8,4.8s1.8,5.5,4.8,5.8
		c0.2,0,0.4,0,0.5,0c1.2,0,2.4-0.4,3.4-1.2C75,25.9,75.7,24.6,75.9,23.2z M72,24.5C71.6,24.8,71,25,70.3,25
		c-0.6-0.1-1.2-0.4-1.6-0.8c-0.4-0.5-0.6-1.1-0.5-1.7s0.4-1.2,0.8-1.6c0.4-0.3,0.9-0.5,1.5-0.5c0.1,0,0.2,0,0.2,0
		c1.3,0.1,2.2,1.3,2.1,2.5C72.8,23.5,72.5,24.1,72,24.5z"/>
	<path class="st0" d="M71.2,90.3v-1.1c0-0.6-0.4-1-1-1s-1,0.4-1,1v1.3c-0.7,0.2-1.4,0.5-2,1c-1.1,0.9-1.8,2.2-1.9,3.6
		c-0.3,2.9,1.8,5.5,4.8,5.8c0.2,0,0.4,0,0.5,0c1.2,0,2.4-0.4,3.4-1.2c1.1-0.9,1.8-2.2,1.9-3.6c0.1-1.4-0.3-2.8-1.2-3.9
		C73.8,91.1,72.6,90.4,71.2,90.3z M70.3,97.9c-0.6-0.1-1.2-0.4-1.6-0.8c-0.4-0.5-0.6-1.1-0.5-1.7c0.1-0.7,0.4-1.3,0.9-1.6
		c0.4-0.3,0.9-0.5,1.4-0.5c0.1,0,0.2,0,0.2,0c0.1,0,0.3,0,0.4,0.1c1.1,0.3,1.8,1.3,1.7,2.5c-0.1,0.6-0.4,1.2-0.8,1.6
		C71.6,97.7,71,97.9,70.3,97.9z"/>
</g>
</svg>
