<svg width="101" height="51" viewBox="0 0 101 51" fill="none" xmlns="http://www.w3.org/2000/svg">
<path d="M21.0827 12.1345C20.6972 11.748 20.1576 11.4388 19.6179 11.4388C19.0012 11.4388 18.5386 11.6707 18.1531 12.0572C17.7677 12.4438 17.5364 12.9849 17.5364 13.6034C17.5364 14.2218 17.7677 14.763 18.1531 15.1495C18.5386 15.536 19.0783 15.768 19.6179 15.768C20.2347 15.768 20.6972 15.536 21.0827 15.1495C21.4682 14.763 21.6994 14.2218 21.6994 13.6034C21.6994 13.0622 21.4682 12.5211 21.0827 12.1345ZM19.6179 41.5884C20.2347 41.5884 20.6972 41.3565 21.0827 40.9699C21.4682 40.5834 21.6994 40.0422 21.6994 39.4238C21.6994 38.8053 21.4682 38.2642 21.0827 37.8777C20.6972 37.4911 20.1576 37.2592 19.6179 37.2592C19.0012 37.2592 18.5386 37.4911 18.1531 37.8777C17.7677 38.2642 17.5364 38.8053 17.5364 39.4238C17.5364 40.0422 17.7677 40.5834 18.1531 40.9699C18.4615 41.3565 19.0012 41.5884 19.6179 41.5884ZM31.1049 35.0173C31.6445 34.8627 32.1071 34.5535 32.4155 34.0123L32.4926 33.935C32.7239 33.4712 32.8009 32.8527 32.6468 32.3889C32.4926 31.8477 32.1842 31.3839 31.6445 31.0747C31.182 30.7654 30.5652 30.7654 30.1027 30.9201C29.563 31.0747 29.1004 31.3839 28.7921 31.925C28.4837 32.4662 28.4066 33.0073 28.5608 33.5485C28.715 34.0896 29.0234 34.5535 29.563 34.8627C29.9485 35.1719 30.5652 35.1719 31.1049 35.0173ZM21.7765 24.349C21.2369 23.8078 20.4659 23.4213 19.6179 23.4213C18.7699 23.4213 17.9989 23.8078 17.4593 24.349C16.9196 24.8901 16.5342 25.6632 16.5342 26.5136C16.5342 27.3639 16.8425 28.137 17.4593 28.7555C17.9989 29.2966 18.7699 29.6831 19.6179 29.6831C20.4659 29.6831 21.2369 29.2966 21.7765 28.7555C22.3162 28.2143 22.7017 27.4413 22.7017 26.5136C22.6246 25.6632 22.3162 24.8901 21.7765 24.349ZM20.543 20.6383C21.7765 20.8702 22.8559 21.4113 23.7039 22.339C23.8581 22.4936 23.9352 22.6482 24.0894 22.8029L26.1709 21.5659C25.8625 20.7156 25.8625 19.7879 26.0938 18.9375C26.4022 17.7779 27.096 16.7729 28.2524 16.1545C29.3317 15.536 30.5652 15.3814 31.6445 15.6906C32.8009 15.9999 33.8032 16.7729 34.4199 17.8552C35.0367 18.9375 35.1909 20.2517 34.8825 21.4113C34.5741 22.5709 33.8803 23.5759 32.7239 24.1944L32.4926 24.2717C31.4904 24.7355 30.411 24.8128 29.3317 24.5809C28.4837 24.349 27.7128 23.8851 27.096 23.1894L25.0145 24.4263C25.2458 25.0447 25.3999 25.8178 25.3999 26.5136C25.3999 27.2866 25.2458 27.9824 25.0145 28.6009L27.096 29.8378C27.7128 29.142 28.4837 28.6782 29.3317 28.4462C30.4881 28.137 31.7216 28.2916 32.8009 28.9101H32.878C33.9574 29.5285 34.6512 30.5335 34.9596 31.6931C35.2679 32.8527 35.1138 34.0896 34.497 35.1719V35.2492C33.8803 36.3315 32.878 37.0273 31.7987 37.3365C30.6423 37.6457 29.4088 37.4911 28.3295 36.8727C27.2502 36.2542 26.4793 35.1719 26.1709 34.0896C25.9396 33.2393 25.9396 32.3116 26.248 31.4612L24.1664 30.2243C24.0123 30.3789 23.9352 30.5335 23.781 30.6881C22.9329 31.5385 21.8536 32.157 20.6201 32.3889V34.8627C21.4682 35.0173 22.3162 35.4811 22.8559 36.0996C23.7039 36.95 24.1664 38.1096 24.1664 39.3465C24.1664 40.5834 23.6268 41.743 22.8559 42.5934C22.0078 43.4437 20.9285 43.9849 19.6179 43.9849C18.3844 43.9849 17.228 43.4437 16.38 42.5934C15.5319 41.743 15.0694 40.5834 15.0694 39.3465C15.0694 38.0323 15.609 36.8727 16.38 36.0996C16.9967 35.4811 17.7677 35.0173 18.6157 34.8627V32.3889C17.3822 32.157 16.3029 31.6158 15.4549 30.6881C14.3755 29.6058 13.7588 28.137 13.7588 26.5136C13.7588 24.8901 14.4526 23.4213 15.4549 22.339C16.3029 21.4886 17.3822 20.8702 18.6157 20.6383V18.1645C17.7677 18.0098 16.9967 17.546 16.38 16.9276C15.5319 16.0772 15.0694 14.9176 15.0694 13.6034C15.0694 12.3665 15.609 11.1296 16.38 10.3565C17.228 9.50611 18.3073 8.96497 19.6179 8.96497C20.8514 8.96497 22.0078 9.50611 22.8559 10.3565C23.7039 11.2069 24.1664 12.3665 24.1664 13.6034C24.1664 14.9176 23.6268 16.0772 22.8559 16.8502C22.2391 17.4687 21.4682 17.9325 20.6201 18.0872C20.543 18.1645 20.543 20.6383 20.543 20.6383ZM32.3384 19.0148C32.03 18.4737 31.5674 18.1645 31.0278 18.0098C30.4881 17.8552 29.9485 17.9325 29.4088 18.2418C28.8692 18.551 28.5608 19.0148 28.4066 19.556C28.2524 20.0971 28.3295 20.7156 28.6379 21.1794C28.9463 21.7206 29.4088 22.0298 29.9485 22.1844C30.4881 22.339 31.0278 22.2617 31.5674 21.9525C32.03 21.6433 32.4155 21.1794 32.4926 20.6383C32.7239 20.0971 32.6468 19.4787 32.3384 19.0148Z" fill="#231F20"/>
<path d="M41.7441 19.7106H44.057V27.0547L47.4491 23.2667H50.3015L46.1385 27.6732L50.2245 33.3165H47.5262L44.057 28.2143V33.2392H41.7441V19.7106Z" fill="#231F20"/>
<path d="M52.9993 28.2917C52.9993 29.5286 53.8473 31.384 56.0059 31.384C57.3165 31.384 58.1646 30.6882 58.6271 29.7605C58.8584 29.2967 58.9355 28.8329 59.0126 28.369C59.0126 27.9052 58.9355 27.364 58.7042 26.9775C58.3187 26.0498 57.3936 25.1994 55.9288 25.1994C54.0786 25.1221 52.9993 26.7456 52.9993 28.2917ZM61.3254 33.2393H58.9355V31.7705C58.3188 32.9301 57.0082 33.5486 55.6205 33.5486C52.4596 33.5486 50.6094 31.0748 50.6094 28.2144C50.6094 25.0448 52.8451 22.8802 55.6205 22.8802C57.3936 22.8802 58.4729 23.8852 58.9355 24.6583V23.1895H61.3254V33.2393Z" fill="#231F20"/>
<path d="M63.9474 25.0447H62.7139V23.1894H63.9474V22.6482C63.9474 19.6333 66.1831 19.4786 67.8792 19.4786V21.334C67.2624 21.334 66.3373 21.334 66.3373 22.7255V23.1894H67.8792V25.0447H66.3373V33.2392H63.9474V25.0447Z" fill="#231F20"/>
<path d="M69.498 19.7106H71.8109V27.0547L75.203 23.2667H78.0555L73.9695 27.6732L78.0555 33.3165H75.3572L71.8109 28.2143V33.2392H69.498V19.7106Z" fill="#231F20"/>
<path d="M80.7537 28.2917C80.7537 29.5286 81.6018 31.384 83.7604 31.384C85.071 31.384 85.919 30.6882 86.3816 29.7605C86.6129 29.2967 86.69 28.8329 86.767 28.369C86.767 27.9052 86.69 27.364 86.4587 26.9775C86.0732 26.0498 85.1481 25.1994 83.6833 25.1994C81.833 25.1221 80.7537 26.7456 80.7537 28.2917ZM89.0799 33.2393H86.767V31.7705C86.1503 32.9301 84.8397 33.5486 83.452 33.5486C80.2912 33.5486 78.4409 31.0748 78.4409 28.2144C78.4409 25.0448 80.6766 22.8802 83.452 22.8802C85.2252 22.8802 86.3045 23.8852 86.767 24.6583V23.1895H89.0799V33.2393Z" fill="#231F20"/>
</svg>
