<svg data-slug-id="language-understanding-intelligent-services" xmlns="http://www.w3.org/2000/svg" viewBox="0 0 61 61"><path d="M47.9418 29.3794L48.4544 29.4478V31.6009L47.9418 31.6692C46.438 31.8743 45.7203 33.0704 45.7203 35.4628V40.4867C45.7203 42.3322 45.2761 43.7334 44.3875 44.622C43.4989 45.5106 42.2344 45.9549 40.5939 46.0232L39.9787 46.0574V43.4259L40.5597 43.3917C41.4141 43.3575 41.9951 43.0841 42.3027 42.674C42.6445 42.2297 42.8154 41.3069 42.8154 40.0082V35.3261C42.8154 33.0705 43.4305 31.4642 44.6267 30.5414C43.3964 29.687 42.8154 28.1491 42.8154 25.996V21.0404C42.8154 19.7075 42.6103 18.8189 42.3027 18.3747C41.9951 17.9645 41.4483 17.6911 40.5597 17.657L39.9787 17.6228V14.9912L40.5939 15.0254C42.2344 15.0937 43.4989 15.538 44.3875 16.4266C45.2761 17.3152 45.7203 18.7164 45.7203 20.5619V25.8593C45.6862 28.0807 46.438 29.1743 47.9418 29.3794ZM17.0123 16.3924C17.9009 15.5038 19.1654 15.0596 20.8059 14.9912L21.421 14.957V17.5886L20.84 17.6228C19.9856 17.657 19.4046 17.9304 19.097 18.3405C18.7553 18.7848 18.5844 19.7075 18.5844 21.0062V25.9618C18.5844 28.1149 17.9692 29.6528 16.7389 30.5072C17.9692 31.3958 18.5844 33.0021 18.5844 35.2919V39.974C18.5844 41.3069 18.7895 42.1955 19.097 42.6398C19.4046 43.0499 19.9514 43.3233 20.84 43.3575L21.421 43.3917V46.0232L20.8059 45.9891C19.1654 45.9207 17.9009 45.4764 17.0123 44.5878C16.1237 43.6993 15.6794 42.298 15.6794 40.4525V35.4286C15.6794 33.0363 14.9275 31.8401 13.458 31.635L12.9453 31.5667V29.4136L13.458 29.3452C14.9617 29.1402 15.6794 28.0465 15.6794 25.8251V20.5278C15.7136 18.6822 16.1237 17.281 17.0123 16.3924Z" fill="currentColor"/></svg>