<svg viewBox="0 0 18 18" class="" role="presentation" focusable="false" xmlns="http://www.w3.org/2000/svg" xmlns:xlink="http://www.w3.org/1999/xlink" id="FxSymbol0-0f3" data-type="1"><g><path d="M.362 3.138A.362.362 0 0 1 0 2.777V.361A.362.362 0 0 1 .362 0h2.266a.361.361 0 0 1 0 .722H.724v2.053a.363.363 0 0 1-.361.363ZM18 2.777V.361A.362.362 0 0 0 17.638 0h-2.266a.361.361 0 1 0 0 .722h1.9v2.053a.362.362 0 0 0 .724 0ZM2.99 17.639a.361.361 0 0 0-.362-.361H.724v-2.053a.362.362 0 0 0-.724 0v2.415a.362.362 0 0 0 .362.36h2.266a.362.362 0 0 0 .362-.361Zm15.01 0v-2.414a.362.362 0 0 0-.724 0v2.053h-1.9a.361.361 0 1 0 0 .722h2.266a.362.362 0 0 0 .358-.36Z" fill="#faa21d"></path><path d="M16.684 2.666v10.463a.318.318 0 0 1-.3.329h-5.756a.281.281 0 0 1-.281-.281V8.266a.945.945 0 0 0-.932-.866H7.279A.281.281 0 0 1 7 7.12V2.666a.316.316 0 0 1 .3-.33h9.08a.318.318 0 0 1 .304.33Z" fill="url(#59616712-f700-4139-92c6-bd98d17f028b)"></path><path d="M15.118 6.405h-1.79a.327.327 0 0 1-.285-.356.328.328 0 0 1 .285-.357h1.79a.328.328 0 0 1 .286.357.327.327 0 0 1-.286.356Z" fill="#f78d1e"></path><path d="M9.414 7.823H1a.53.53 0 0 0-.511.477v5.687a.524.524 0 0 0 .511.476h2.784a.08.08 0 0 1 .081.079v.958a.191.191 0 0 0 .208.164.181.181 0 0 0 .086-.035l.278-.181.77-.51.7-.466a.11.11 0 0 1 .052-.017h3.455a.509.509 0 0 0 .511-.468V8.3a.523.523 0 0 0-.511-.477Z" fill="url(#59616712-f700-4139-92c6-bd98d17f028c)"></path><path d="M3.3 12.412H1.929c-.158 0-.285-.17-.285-.38s.127-.379.285-.379H3.3c.158 0 .286.17.286.379s-.125.38-.286.38Z" fill="#9cebff"></path><path d="M12.12 6.405H8.563a.357.357 0 1 1 0-.713h3.557a.357.357 0 1 1 0 .713Zm3.355 1.55a.357.357 0 0 0-.357-.356h-3.4a.357.357 0 1 0 0 .713h3.4a.357.357 0 0 0 .357-.357Zm-9.632 2.194a.356.356 0 0 0-.357-.356H1.929a.356.356 0 1 0 0 .712h3.557a.356.356 0 0 0 .357-.356Zm3 1.906a.357.357 0 0 0-.357-.356H4.512a.357.357 0 1 0 0 .713h3.973a.357.357 0 0 0 .357-.357Z" fill="#f2f2f2"></path></g><defs>
<linearGradient id="59616712-f700-4139-92c6-bd98d17f028b" x1="11.841" y1="2.17" x2="11.841" y2="13.446" gradientUnits="userSpaceOnUse"><stop offset=".001" stop-color="#ffb34d"></stop><stop offset="1" stop-color="#faa21d"></stop></linearGradient>
<linearGradient id="59616712-f700-4139-92c6-bd98d17f028c" x1="-2018.213" y1="1017.927" x2="-2018.213" y2="1009.817" gradientTransform="rotate(180 -1006.504 512.758)" gradientUnits="userSpaceOnUse"><stop offset="0" stop-color="#50e6ff"></stop><stop offset="1" stop-color="#32bedd"></stop></linearGradient>
</defs>
</svg>