<svg xmlns="http://www.w3.org/2000/svg" viewBox="0 0 96 97" fill="none"><path fill-rule="evenodd" clip-rule="evenodd" d="M0 9.21387H15V0.213867H0V9.21387Z" fill="#50E6FF"/><path fill-rule="evenodd" clip-rule="evenodd" d="M3 96.2139H12V7.71387H3V96.2139Z" fill="#50E6FF"/><path fill-rule="evenodd" clip-rule="evenodd" d="M12 96.2139H54V24.2139H12V96.2139Z" fill="#0078D4"/><path fill-rule="evenodd" clip-rule="evenodd" d="M54 96.2139H96V39.2139H54V96.2139Z" fill="#0078D4"/><path fill-rule="evenodd" clip-rule="evenodd" d="M27 96.2139H39V84.2139H27V96.2139Z" fill="white"/><path fill-rule="evenodd" clip-rule="evenodd" d="M66 96.2139H78V84.2139H66V96.2139Z" fill="white"/><path fill-rule="evenodd" clip-rule="evenodd" d="M21 45.2139H30V36.2139H21V45.2139Z" fill="#50E6FF"/><path fill-rule="evenodd" clip-rule="evenodd" d="M36 45.2139H45V36.2139H36V45.2139Z" fill="#50E6FF"/><path fill-rule="evenodd" clip-rule="evenodd" d="M21 60.2139H30V51.2139H21V60.2139Z" fill="#50E6FF"/><path fill-rule="evenodd" clip-rule="evenodd" d="M36 60.2139H45V51.2139H36V60.2139Z" fill="#50E6FF"/><path fill-rule="evenodd" clip-rule="evenodd" d="M21 75.2139H30V66.2139H21V75.2139Z" fill="#50E6FF"/><path fill-rule="evenodd" clip-rule="evenodd" d="M36 75.2139H45V66.2139H36V75.2139Z" fill="#50E6FF"/><path fill-rule="evenodd" clip-rule="evenodd" d="M60 60.2139H69V51.2139H60V60.2139Z" fill="#50E6FF"/><path fill-rule="evenodd" clip-rule="evenodd" d="M75 60.2139H84V51.2139H75V60.2139Z" fill="#50E6FF"/><path fill-rule="evenodd" clip-rule="evenodd" d="M60 75.2139H69V66.2139H60V75.2139Z" fill="#50E6FF"/><path fill-rule="evenodd" clip-rule="evenodd" d="M75 75.2139H84V66.2139H75V75.2139Z" fill="#50E6FF"/></svg>