<svg viewBox="0 0 18 18" class="" role="presentation" focusable="false" xmlns:svg="http://www.w3.org/2000/svg" xmlns:xlink="http://www.w3.org/1999/xlink" id="FxSymbol0-0a6" data-type="1"><g><title></title><path fill="#c9c9c9" d="M3.25 2h.3v10h-.3zm11.5 0h.3v10h-.3zM9 2h.3v2H9zm2.88 0h.3v2h-.3zM6.13 2h.3v2h-.3z"></path><path d="M0 0v13h3.21l.51-1H1V2h16v10h-3.29l.5 1H18V0H0z" class="msportalfx-svg-c03" fill="#a0a1a2"></path><path d="M11.71 6.94a.78.78 0 0 0 1-.73v-.46a.86.86 0 0 0-.93-.67H6a.83.83 0 0 0-1 .67v.51a.77.77 0 0 0 1 .68V10l-3.22 6.2L4 18h9.5l1.25-1.8-3.04-6.2V6.94z" class="msportalfx-svg-c15" fill="#59b4d9"></path><path fill="#d5ecf6" d="M12 13.81H8.01l-1.44 2.37H4.62l3.42-6.11V6.95h1.98v3.12L12 13.81z"></path><path fill="#c9c9c9" d="M1 4.01h16v.3H1zm3.36 3.15H1v-.3h3.07l.29.3zm12.64 0h-3.74l.32-.3H17v.3zM1 9.709l4-.004v.3l-4 .004zm11.725.289v-.3l4.27.005v.3z"></path></g><defs>
<linearGradient id="a" x1="9" y1="16.39" x2="9" y2="-1.94" gradientUnits="userSpaceOnUse"><stop offset="0" stop-color="#0078d4"></stop><stop offset=".16" stop-color="#1380da"></stop><stop offset=".53" stop-color="#3c91e5"></stop><stop offset=".82" stop-color="#559cec"></stop><stop offset="1" stop-color="#5ea0ef"></stop></linearGradient>
<linearGradient id="b" x1="9.88" y1="7.11" x2="9.99" y2="17.27" gradientUnits="userSpaceOnUse"><stop offset="0" stop-color="#32d4f5"></stop><stop offset=".32" stop-color="#31d1f3"></stop><stop offset=".53" stop-color="#2ec9eb"></stop><stop offset=".7" stop-color="#29bade"></stop><stop offset=".86" stop-color="#22a5cb"></stop><stop offset="1" stop-color="#198ab3"></stop><stop offset="1" stop-color="#198ab3"></stop></linearGradient>
<radialGradient id="c" cx="9.43" cy="7.03" r="7.27" gradientUnits="userSpaceOnUse"><stop offset="0" stop-color="#f2f2f2"></stop><stop offset=".58" stop-color="#eee"></stop><stop offset="1" stop-color="#e6e6e6"></stop></radialGradient>
</defs>
</svg>