<svg viewBox="0 0 18 18" class="" role="presentation" focusable="false" xmlns:svg="http://www.w3.org/2000/svg" xmlns:xlink="http://www.w3.org/1999/xlink" id="FxSymbol0-0a8" data-type="1"><g><title></title><path d="M2.95 4.205l.177-.177 1.046 1.047-.176.177zm12.1 5.525h1.67v.3h-1.67zm.055-2.687l1.3-.462.08.226-1.3.462zm-3.463-3.76l.41-1.401.24.07-.41 1.401zM5.41 2.338l.201-.111.585 1.06-.202.11zM8.52 1.5h.3v1.67h-.3z" class="msportalfx-svg-c03" fill="#a0a1a2"></path><path d="M2.95 4.205l.177-.177 1.046 1.047-.176.177zm12.1 5.525h1.67v.3h-1.67zm.055-2.687l1.3-.462.08.226-1.3.462zm-3.463-3.76l.41-1.401.24.07-.41 1.401zM5.41 2.338l.201-.111.585 1.06-.202.11zM10.74 7.2c-.44.52-.64.57-1.65 1.74a2.67 2.67 0 0 1 1.31 1.25c.79-.92 1.15-1.17 1.67-1.78l3-4.83zm-2.4 3.41l.76 1.26a1.21 1.21 0 0 0 .64-1.07 1.31 1.31 0 0 0-1.4-1.24v1z" class="msportalfx-svg-c03" fill="#a0a1a2"></path><path d="M15.29 2.58A9.1 9.1 0 0 0 8.94 0 8.94 8.94 0 0 0 0 8.92v1.27A2.15 2.15 0 0 0 1.72 12l.48-.85A1.22 1.22 0 0 1 .81 9.88v-1.6s.2-.92.29-1.25A8 8 0 0 1 9 .72a8.18 8.18 0 0 1 8.24 8.11v1.06c0 1.29-.85 1.3-1.69 1.3h-5.12C10.32 12 10 12 10 12h6.07A1.68 1.68 0 0 0 18 10.19V8.83a8.68 8.68 0 0 0-2.71-6.25z" class="msportalfx-svg-c03" fill="#a0a1a2"></path><path d="M8 11V8.3h.1c.42-.02.6-.3.6-.9a.7.7 0 0 0-.84-.79h-5a.7.7 0 0 0-.72.74v.26a.72.72 0 0 0 .84.68V11l-2.9 5.4 1 1.6h8.36l1.18-1.6zm-3.41 3.2l-1.26 2.11H1.61l3-5.31V8.3h1.71V11l1.78 3.2H4.59z" class="msportalfx-svg-c15" fill="#59b4d9"></path><path fill="#d5ecf6" d="M4.59 14.2l-1.26 2.11H1.61L4.64 11V8.3h1.68V11l1.78 3.2H4.59z"></path></g><defs>
<linearGradient id="a" x1="9" y1="16.39" x2="9" y2="-1.94" gradientUnits="userSpaceOnUse"><stop offset="0" stop-color="#0078d4"></stop><stop offset=".16" stop-color="#1380da"></stop><stop offset=".53" stop-color="#3c91e5"></stop><stop offset=".82" stop-color="#559cec"></stop><stop offset="1" stop-color="#5ea0ef"></stop></linearGradient>
<linearGradient id="b" x1="9.88" y1="7.11" x2="9.99" y2="17.27" gradientUnits="userSpaceOnUse"><stop offset="0" stop-color="#32d4f5"></stop><stop offset=".32" stop-color="#31d1f3"></stop><stop offset=".53" stop-color="#2ec9eb"></stop><stop offset=".7" stop-color="#29bade"></stop><stop offset=".86" stop-color="#22a5cb"></stop><stop offset="1" stop-color="#198ab3"></stop><stop offset="1" stop-color="#198ab3"></stop></linearGradient>
<radialGradient id="c" cx="9.43" cy="7.03" r="7.27" gradientUnits="userSpaceOnUse"><stop offset="0" stop-color="#f2f2f2"></stop><stop offset=".58" stop-color="#eee"></stop><stop offset="1" stop-color="#e6e6e6"></stop></radialGradient>
</defs>
</svg>