<svg xmlns="http://www.w3.org/2000/svg" viewBox="0 0 96 96" fill="none"><path d="M0 95.7632C0 69.2444 21.4981 47.7632 48 47.7632C74.5019 47.7632 96 69.2612 96 95.7632H0Z" fill="#0078D4"/><path d="M68.8578 20.841C68.8578 32.3482 59.524 41.682 48.0168 41.682C36.5096 41.682 27.1758 32.3482 27.1758 20.841C27.1758 9.75499 35.8188 0.690761 46.7363 0.0336878C47.1575 -8.22707e-06 47.5956 0 48.0168 0C48.4548 0 48.876 0.0168398 49.2972 0.0336878C60.1979 0.690761 68.8578 9.75499 68.8578 20.841Z" fill="#50E6FF"/><path fill-rule="evenodd" clip-rule="evenodd" d="M81.2076 0.0341797H87.0539C90.4404 6.36903 92.2262 13.462 92.2431 20.8415C92.2431 32.6519 87.6436 43.7548 79.287 52.1114C77.9054 53.4929 76.4228 54.7902 74.8896 55.9696C71.1221 58.8613 66.9534 61.1048 62.5228 62.6404C62.5231 62.6013 62.5232 62.5622 62.5232 62.523C62.5232 60.785 62.2186 59.1181 61.6599 57.5728C64.6528 56.4602 67.5032 54.9794 70.1553 53.156C72.1097 51.8081 73.9799 50.2581 75.6983 48.5396C83.0946 41.1433 87.1718 31.3041 87.1718 20.8415C87.1718 13.361 85.0995 6.2174 81.2076 0.0341797ZM34.2829 57.546C31.3234 56.4381 28.504 54.9677 25.8788 53.156C23.9075 51.8081 22.0543 50.2581 20.3189 48.5396C12.9226 41.1433 8.84542 31.3041 8.84542 20.8415C8.84542 13.361 10.9177 6.20055 14.8096 0.0341797H8.96336C5.57691 6.36903 3.79102 13.462 3.79102 20.8415C3.79102 32.6519 8.39052 43.7548 16.7471 52.1114C18.1455 53.5098 19.6113 54.7902 21.1445 55.9696C24.8833 58.8393 29.0171 61.0706 33.4101 62.6052C33.4099 62.5778 33.4098 62.5504 33.4098 62.523C33.4098 60.7749 33.718 59.0988 34.2829 57.546Z" fill="#50E6FF"/><path d="M48.0342 69.8355C52.0539 69.8355 55.3126 66.5769 55.3126 62.5571C55.3126 58.5374 52.0539 55.2788 48.0342 55.2788C44.0145 55.2788 40.7559 58.5374 40.7559 62.5571C40.7559 66.5769 44.0145 69.8355 48.0342 69.8355Z" fill="#50E6FF"/><path d="M82.7061 49.77C86.7258 49.77 89.9844 46.5114 89.9844 42.4917C89.9844 38.472 86.7258 35.2134 82.7061 35.2134C78.6864 35.2134 75.4277 38.472 75.4277 42.4917C75.4277 46.5114 78.6864 49.77 82.7061 49.77Z" fill="#0078D4"/><path d="M12.2822 49.77C16.302 49.77 19.5606 46.5114 19.5606 42.4917C19.5606 38.472 16.302 35.2134 12.2822 35.2134C8.26252 35.2134 5.00391 38.472 5.00391 42.4917C5.00391 46.5114 8.26252 49.77 12.2822 49.77Z" fill="#0078D4"/><path d="M49.2796 0.0336878H46.7188C47.14 -8.22707e-06 47.578 0 47.9992 0C48.4372 0 48.8584 0.0168398 49.2796 0.0336878Z" fill="#50E6FF"/></svg>