<svg data-slug-id="grid17" viewBox="0 0 49 49" xmlns="http://www.w3.org/2000/svg"><path d="M0.0195312 48.5117H48.0195V0.511719H0.0195312V48.5117Z" fill="#0078D4"/><path d="M15.208 33.3047H10.103V38.3759H15.208V33.3047Z" fill="#50E6FF"/><path d="M22.7812 33.3047H17.6763V38.3759H22.7812V33.3047Z" fill="#50E6FF"/><path d="M30.2617 33.3047H25.1567V38.3759H30.2617V33.3047Z" fill="#50E6FF"/><path d="M15.208 25.7266H10.103V30.7978H15.208V25.7266Z" fill="#50E6FF"/><path d="M22.7812 25.7266H17.6763V30.7978H22.7812V25.7266Z" fill="#50E6FF"/><path d="M15.208 18.1406H10.103V23.2119H15.208V18.1406Z" fill="#50E6FF"/><path d="M15.208 10.4766H10.103V15.5478H15.208V10.4766Z" fill="white"/><path d="M22.7812 18.1406H17.6763V23.2119H22.7812V18.1406Z" fill="white"/><path d="M30.2617 25.7266H25.1567V30.7978H30.2617V25.7266Z" fill="white"/><path d="M37.978 33.3047H32.873V38.3759H37.978V33.3047Z" fill="white"/></svg>