<svg xmlns="http://www.w3.org/2000/svg" viewBox="0 0 96 96" fill="none"><g clip-path="url(#clip0)"><path d="M13.3829 33.7496L9.54492 30.4671C21.5807 16.3945 39.1041 8.01158 57.6207 7.48975L57.7722 12.5397C40.6696 13.011 24.4928 20.7375 13.3829 33.7496Z" fill="#50E6FF"/><path d="M55.803 2.50781L68.5457 10.6383L55.1465 17.5904L55.803 2.50781Z" fill="#50E6FF"/><path d="M6.80126 25.9399L5.13477 40.9384L18.9717 34.8952L6.80126 25.9399Z" fill="#50E6FF"/><path d="M19.274 86.5728C23.7684 86.5728 27.9599 85.2767 31.5117 83.0547V96.1173H7.10352V83.0883C10.6385 85.2935 14.8131 86.5728 19.274 86.5728Z" fill="#0078D4"/><path d="M78.156 24.4243L87.9866 46.762L42.0319 66.9956C42.6716 62.821 42.1666 58.4275 40.3317 54.2697C38.5474 50.2129 35.7363 46.9304 32.3359 44.5906L78.156 24.4243Z" fill="#0078D4"/><path d="M38.2629 63.5462C38.2629 68.2427 36.5459 72.552 33.7179 75.8682C33.0446 76.6593 32.3039 77.4 31.5128 78.0565C28.2135 80.8508 23.9378 82.5173 19.275 82.5173C14.6459 82.5173 10.3871 80.8508 7.10457 78.0902C2.94676 74.6057 0.287109 69.3705 0.287109 63.5294C0.287109 53.0423 8.7879 44.5415 19.275 44.5415C25.1666 44.5415 30.4354 47.2348 33.9199 51.4431C36.6469 54.7424 38.2629 58.9508 38.2629 63.5462Z" fill="#50E6FF"/><path d="M19.2739 70.4644C23.0949 70.4644 26.1924 67.3669 26.1924 63.5459C26.1924 59.7249 23.0949 56.6274 19.2739 56.6274C15.453 56.6274 12.3555 59.7249 12.3555 63.5459C12.3555 67.3669 15.453 70.4644 19.2739 70.4644Z" fill="#0078D4"/><path d="M95.8981 75.8843L75.6309 65.7844V10.1336L95.8981 0.0336914V75.8843Z" fill="#50E6FF"/></g><defs><clipPath id="clip0"><rect width="96" height="96" fill="white"/></clipPath></defs></svg>