<svg version="1.1" id="Layer_1" xmlns="http://www.w3.org/2000/svg" xmlns:xlink="http://www.w3.org/1999/xlink" x="0px" y="0px"
	 viewBox="0 0 122.4 133" style="enable-background:new 0 0 122.4 133;" xml:space="preserve">
<style type="text/css">
	.st0{fill:#389CD6;}
</style>
<g>
	<path class="st0" d="M101.1,130H3v-14c0.7,0.1,1.4,0.2,2.1,0.2c5.8,0,10.5-4.7,10.5-10.5S10.9,95,5.1,95c-0.7,0-1.4,0.1-2.1,0.2V78
		c0.7,0.1,1.4,0.2,2.1,0.2c5.8,0,10.5-4.7,10.5-10.5S10.9,57.2,5.1,57.2c-0.7,0-1.4,0.1-2.1,0.2V40.2c0.7,0.1,1.4,0.2,2.1,0.2
		c5.8,0,10.5-4.7,10.5-10.5S10.9,19.3,5.1,19.3c-0.7,0-1.4,0.1-2.1,0.2V3h98.1v54.9h3V1.5c0-0.8-0.7-1.5-1.5-1.5H1.5
		C0.7,0,0,0.7,0,1.5v20c0,0.5,0.3,1,0.7,1.3c0.4,0.3,1,0.3,1.4,0.1c1-0.4,2-0.6,3-0.6c4.2,0,7.5,3.4,7.5,7.5s-3.4,7.5-7.5,7.5
		c-1,0-2-0.2-3-0.6c-0.5-0.2-1-0.2-1.4,0.1C0.3,37.2,0,37.6,0,38.1v21.3c0,0.5,0.3,1,0.7,1.3c0.4,0.3,1,0.3,1.4,0.1
		c1-0.4,2-0.6,3-0.6c4.2,0,7.5,3.4,7.5,7.5s-3.4,7.5-7.5,7.5c-1,0-2-0.2-3-0.6c-0.5-0.2-1-0.2-1.4,0.1C0.3,75,0,75.5,0,76v21.3
		c0,0.5,0.3,1,0.7,1.3c0.4,0.3,1,0.3,1.4,0.1c1-0.4,2-0.6,3-0.6c4.2,0,7.5,3.4,7.5,7.5s-3.4,7.5-7.5,7.5c-1,0-2-0.2-3-0.6
		c-0.5-0.2-1-0.2-1.4,0.1c-0.4,0.3-0.7,0.7-0.7,1.3v17.6c0,0.8,0.7,1.5,1.5,1.5h101.1c0.8,0,1.5-0.7,1.5-1.5v-28.2h-3V130z"/>
	<path class="st0" d="M120.9,104.8H23.7c-0.8,0-1.5-0.7-1.5-1.5V57.9c0-0.8,0.7-1.5,1.5-1.5h97.2c0.8,0,1.5,0.7,1.5,1.5v45.4
		C122.4,104.1,121.7,104.8,120.9,104.8z M25.2,101.8h94.2V59.4H25.2V101.8z"/>
	<g>
		
			<rect x="101.4" y="107" transform="matrix(0.8638 -0.5038 0.5038 0.8638 -39.4483 71.1485)" class="st0" width="20.9" height="3"/>
	</g>
	<g>
		<rect x="48.8" y="69.2" class="st0" width="3" height="24.7"/>
	</g>
	<g>
		<rect x="40.7" y="67.6" class="st0" width="18.4" height="3"/>
	</g>
	<g>
		<rect x="93" y="68.9" class="st0" width="3" height="24.7"/>
	</g>
	<g>
		<rect x="85.6" y="67.6" class="st0" width="18.4" height="3"/>
	</g>
	<g>
		<rect x="70.8" y="65" transform="matrix(0.7842 -0.6205 0.6205 0.7842 -34.5287 62.2911)" class="st0" width="3" height="31.6"/>
	</g>
	<g>		
			<rect x="56.3" y="79.4" transform="matrix(0.6225 -0.7826 0.7826 0.6225 -36.0801 86.9869)" class="st0" width="31.6" height="3"/>
	</g>
</g>
</svg>
