<svg data-slug-id="computer01" viewBox="0 0 49 49" xmlns="http://www.w3.org/2000/svg"><path d="M8.57568 8.99609V39.2532V39.3389H38.7789V8.99609H8.57568ZM34.7575 13.1961V34.8818H12.7682V13.1961H34.7575Z" fill="#50E6FF"/><path d="M8.57568 39.3396V8.99676H38.7789V39.3396H8.57568ZM26.0302 0.253906V4.71105H21.581V0.253906H17.1318V4.71105H12.7682V0.253906H8.49012V4.71105H4.04092V8.99676H0.0195312V13.3682H4.04092V17.7396H0.0195312V22.111H4.04092V26.4825H0.0195312V30.8539H4.04092V35.2253H0.0195312V39.511H4.04092V44.1396H8.57568V48.2539H12.8538V44.1396H17.2174V48.2539H21.581V44.1396H25.9447V48.2539H30.3083V44.1396H34.6719V48.1682H39.0356V44.1396H43.3992V39.511H47.8484V35.2253H43.3992V30.8539H48.0195V26.5682H47.5062H43.4848V22.3682H47.934V17.8253H43.4848V13.3682H47.934V9.25391H43.4848V4.71105H39.1211V0.253906H35.0142V4.62533H34.9286H30.4794V0.253906H26.0302Z" fill="#0078D4"/><path d="M34.7574 13.1992H12.7681V34.8849H34.7574V13.1992Z" fill="#0078D4"/></svg>