<svg data-slug-id="personalizer" xmlns="http://www.w3.org/2000/svg" viewBox="0 0 61 61">
<path d="M30.9938 13.0156C28.4264 13.0156 25.9908 13.5752 23.6868 14.6284L24.378 16.1096C26.4516 15.1221 28.6568 14.6284 30.9608 14.6284C39.5185 14.6284 46.4964 21.6062 46.4964 30.164C46.4964 35.134 44.1265 39.5774 40.4731 42.441V39.0508C40.4731 37.043 38.8273 35.3973 36.8196 35.3973H32.3761C35.8651 34.8049 38.5311 31.7768 38.5311 28.1233C38.5311 24.0419 35.2068 20.7176 31.1254 20.7176C27.044 20.7176 23.7197 24.0419 23.7197 28.1233C23.7197 31.7768 26.3858 34.8049 29.8747 35.3973H25.4312C23.4235 35.3973 21.7778 37.043 21.7778 39.0508V42.6714C17.9597 39.8408 15.4582 35.2986 15.4582 30.1969C15.4582 26.5763 16.709 23.0874 19.013 20.2897V24.2065H20.6587V17.6236H14.0758V19.2693H17.6964C15.1949 22.3633 13.8125 26.1813 13.8125 30.1969C13.8125 39.6762 21.5144 47.3781 30.9938 47.3781C40.4731 47.3781 48.175 39.6762 48.175 30.1969C48.175 20.7176 40.4401 13.0156 30.9938 13.0156ZM25.3983 28.1233C25.3983 24.9635 27.9656 22.3633 31.1583 22.3633C34.3181 22.3633 36.9183 24.9306 36.9183 28.1233C36.9183 31.283 34.351 33.8833 31.1583 33.8833C27.9656 33.8504 25.3983 31.283 25.3983 28.1233ZM19.013 19.2693V19.3681L18.9142 19.2693H19.013ZM23.4235 43.7576V39.0508C23.4235 37.9317 24.3451 37.043 25.4312 37.043H36.8196C37.9387 37.043 38.8273 37.9646 38.8273 39.0508V43.5601C36.5233 44.9096 33.8244 45.6995 30.9608 45.6995C28.229 45.6995 25.6616 45.0083 23.4235 43.7576Z" fill="#0078D4"></path>
</svg>