<svg xmlns="http://www.w3.org/2000/svg" width="75.786" height="45.988" viewBox="0 0 75.786 45.988">
  <g id="Layer_2" data-name="Layer 2">
    <g id="Layer_1-2" data-name="Layer 1">
      <path d="M42.713,4.677a3.6,3.6,0,0,1,3.6,3.6V41.252a3.6,3.6,0,0,1-3.6,3.6H25.529a3.6,3.6,0,0,1-3.6-3.6V8.273a3.6,3.6,0,0,1,3.6-3.6H42.713m0-1.14H25.529a4.736,4.736,0,0,0-4.736,4.736V41.252a4.736,4.736,0,0,0,4.736,4.736H42.713a4.736,4.736,0,0,0,4.736-4.736V8.273a4.736,4.736,0,0,0-4.736-4.736Z" fill="#00a2f2"/>
      <rect x="21.273" y="10.497" width="25.452" height="1.14" fill="#00a2f2"/>
      <rect x="21.273" y="38.418" width="25.452" height="1.14" fill="#00a2f2"/>
      <path d="M13.3,13.789v8.616l.383.34L16,24.806H1.14V13.789H13.3m1.14-1.14H0v13.3H18.994l-4.559-4.052V12.65Z" fill="#00a2f2"/>
      <path d="M74.647,25.312V36.329H52.192l2.318-2.061.383-.34V25.312H74.647m1.14-1.14H53.753v9.244l-4.559,4.052H75.786v-13.3Z" fill="#00a2f2"/>
      <g>
        <path d="M57.8,28.539a8.817,8.817,0,0,0,1.647-.1c.008-.217.05-1.262.05-1.5l.827.075c-.008.092-.084.142-.226.159-.033.359-.05.777-.067,1.179l.343.117a7.775,7.775,0,0,0-.393,1.12c0,.109-.009.226-.009.335a4.538,4.538,0,0,1,2.8-1.221c1.262,0,1.881.861,1.881,2.424a4.62,4.62,0,0,1-.217,1.479,7.451,7.451,0,0,1,.727.727l-.385.493a7.365,7.365,0,0,0-.627-.652,1.783,1.783,0,0,1-1.672.97,1.227,1.227,0,0,1-1.354-1.145,1.249,1.249,0,0,1,1.371-1.17,2.593,2.593,0,0,1,1.413.443,3.782,3.782,0,0,0,.15-1.154c0-1.128-.443-1.855-1.362-1.855a4.405,4.405,0,0,0-2.742,1.287c0,.543-.008,3.218,0,3.82h-.577c.008-.736.017-2.507.025-3.544H59.4a8.158,8.158,0,0,1-1.412,2.106l-.351-.518a8.466,8.466,0,0,0,1.772-2.742l.025-.66a11.667,11.667,0,0,1-1.63.092Zm5.951,4.23a2.075,2.075,0,0,0-1.246-.477c-.468,0-.886.276-.886.66,0,.426.41.694.886.694A1.329,1.329,0,0,0,63.755,32.769Z" fill="#00a2f2"/>
        <path d="M68.97,31.439a1.81,1.81,0,0,1,.828-.192.756.756,0,0,1,.735.853c0,.217-.025.476-.025.677,0,.853.5.853,1.22.853a7.243,7.243,0,0,0,1.087-.075,5.75,5.75,0,0,0,.025.593c-.326.033-.719.05-1.087.05a6.162,6.162,0,0,1-.869-.05,1.055,1.055,0,0,1-.953-1.028c0-.192.017-.568.017-.819,0-.351-.134-.552-.426-.552a2.394,2.394,0,0,0-1.5.694c-.485.476-1.4,1.4-1.68,1.73a4.646,4.646,0,0,0-.451-.443c.794-.811,3.419-3.36,4.271-4.188-.61.058-2.507.167-3.46.217a.161.161,0,0,1-.134.092l-.05-.669c1.17-.033,3.368-.142,4.213-.217l.125-.075.485.443a.337.337,0,0,1-.2.067c-.527.493-1.555,1.438-2.173,2.031Zm2.1-3.343a18.2,18.2,0,0,0-3.578-.56l.125-.56a17.588,17.588,0,0,1,3.611.552Z" fill="#00a2f2"/>
      </g>
      <g>
        <path d="M8.369,22.337H7.676V19.294H4.633v3.042H3.939V15.976h.694v2.716H7.676V15.976h.694Z" fill="#00a2f2"/>
        <path d="M10.107,16.979a.451.451,0,0,1-.451-.476.455.455,0,0,1,.46-.468.473.473,0,0,1-.008.945Zm.351,5.358H9.765V17.781h.694Z" fill="#00a2f2"/>
      </g>
      <g opacity="0.2">
        <path d="M42.673,19.677h-1.9a.38.38,0,0,1,0-.76h1.9a.38.38,0,0,1,0,.76Zm-3.8,0h-1.9a.38.38,0,1,1,0-.76h1.9a.38.38,0,1,1,0,.76Zm-3.8,0h-1.9a.38.38,0,0,1,0-.76h1.9a.38.38,0,0,1,0,.76Zm-3.8,0h-1.9a.38.38,0,1,1,0-.76h1.9a.38.38,0,1,1,0,.76Zm-3.8,0h-1.9a.38.38,0,1,1,0-.76h1.9a.38.38,0,1,1,0,.76Z" fill="#00a2f2"/>
      </g>
      <g opacity="0.2">
        <path d="M42.8,30.821H40.9a.38.38,0,1,1,0-.76h1.9a.38.38,0,1,1,0,.76Zm-3.8,0H37.1a.38.38,0,1,1,0-.76H39a.38.38,0,1,1,0,.76Zm-3.8,0H33.3a.38.38,0,1,1,0-.76h1.9a.38.38,0,0,1,0,.76Zm-3.8,0H29.5a.38.38,0,1,1,0-.76h1.9a.38.38,0,1,1,0,.76Zm-3.8,0h-1.9a.38.38,0,0,1,0-.76h1.9a.38.38,0,0,1,0,.76Z" fill="#00a2f2"/>
      </g>
      <g opacity="0.2">
        <path d="M41.154,25.123h-1.9a.38.38,0,1,1,0-.76h1.9a.38.38,0,1,1,0,.76Zm-3.8,0h-1.9a.38.38,0,0,1,0-.76h1.9a.38.38,0,1,1,0,.76Zm-3.8,0h-1.9a.38.38,0,1,1,0-.76h1.9a.38.38,0,1,1,0,.76Zm-3.8,0h-1.9a.38.38,0,1,1,0-.76h1.9a.38.38,0,1,1,0,.76Z" fill="#00a2f2"/>
      </g>
      <g opacity="0.2">
        <path d="M15.752,7.429H13.473a.38.38,0,1,1,0-.76h1.66a.38.38,0,0,1,.619.295Zm-4.179,0h-1.9a.38.38,0,1,1,0-.76h1.9a.38.38,0,1,1,0,.76ZM8.7,6.5a.38.38,0,0,1-.38-.38v-1.9a.38.38,0,0,1,.76,0v1.9A.38.38,0,0,1,8.7,6.5Zm6.669-1.056a.38.38,0,0,1-.38-.38v-1.9a.38.38,0,1,1,.76,0v1.9A.38.38,0,0,1,15.372,5.444ZM8.7,2.7a.38.38,0,0,1-.38-.38V.423a.38.38,0,1,1,.76,0v1.9A.38.38,0,0,1,8.7,2.7Zm6.669-1.056a.38.38,0,0,1-.38-.38V.76h-.634a.38.38,0,1,1,0-.76h1.393V1.266A.38.38,0,0,1,15.372,1.646ZM12.459.76h-1.9a.38.38,0,0,1,0-.76h1.9a.38.38,0,0,1,0,.76Z" fill="#00a2f2"/>
      </g>
      <g opacity="0.2">
        <path d="M61.27,21.8H58.991a.38.38,0,1,1,0-.76h1.52V20.1a.38.38,0,1,1,.76,0Zm-4.179,0h-1.9a.38.38,0,1,1,0-.76h1.9a.38.38,0,1,1,0,.76Zm-3.8,0h-1.9a.38.38,0,0,1,0-.76h1.9a.38.38,0,0,1,0,.76Zm-2.228-1.571a.38.38,0,0,1-.38-.38v-1.9a.38.38,0,0,1,.76,0v1.9A.38.38,0,0,1,51.064,20.226Zm9.826-1.644a.38.38,0,0,1-.38-.38V16.3a.38.38,0,0,1,.76,0v1.9A.38.38,0,0,1,60.89,18.582Zm-9.826-2.155a.38.38,0,0,1-.38-.38v-1.9a.38.38,0,0,1,.76,0v1.9A.38.38,0,0,1,51.064,16.427Zm9.826-1.644a.38.38,0,0,1-.38-.38V12.5a.38.38,0,1,1,.76,0v1.9A.38.38,0,0,1,60.89,14.783Zm-9.826-2.155a.38.38,0,0,1-.38-.38V11.211h1.622a.38.38,0,0,1,0,.76h-.862v.278A.38.38,0,0,1,51.064,12.628Zm8.839-.658H58a.38.38,0,1,1,0-.76h1.9a.38.38,0,1,1,0,.76Zm-3.8,0h-1.9a.38.38,0,1,1,0-.76h1.9a.38.38,0,1,1,0,.76Z" fill="#00a2f2"/>
      </g>
      <g opacity="0.2">
        <path d="M15.694,44.852H13.415a.38.38,0,1,1,0-.76h1.52V42.575a.38.38,0,0,1,.76,0Zm-4.179,0h-1.9a.38.38,0,0,1,0-.76h1.9a.38.38,0,0,1,0,.76Zm-3.8,0h-1.9a.38.38,0,0,1,0-.76h1.9a.38.38,0,0,1,0,.76Zm-3.8,0H3.063v-1.8a.38.38,0,0,1,.76,0v1.045h.094a.38.38,0,0,1,0,.76Zm-.474-3.324a.38.38,0,0,1-.38-.38v-1.9a.38.38,0,1,1,.76,0v1.9A.38.38,0,0,1,3.443,41.528Zm11.871-.472a.38.38,0,0,1-.38-.38v-1.9a.38.38,0,1,1,.76,0v1.9A.38.38,0,0,1,15.314,41.056ZM3.443,37.729a.38.38,0,0,1-.38-.38v-1.9a.38.38,0,0,1,.76,0v1.9A.38.38,0,0,1,3.443,37.729Zm11.871-.472a.38.38,0,0,1-.38-.38v-1.9a.38.38,0,0,1,.76,0v1.9A.38.38,0,0,1,15.314,37.257ZM3.443,33.93a.38.38,0,0,1-.38-.38V32.222H4.394a.38.38,0,1,1,0,.76H3.823v.569A.38.38,0,0,1,3.443,33.93Zm11.871-.472a.38.38,0,0,1-.38-.38v-.1H13.891a.38.38,0,1,1,0-.76h1.8v.857A.38.38,0,0,1,15.314,33.458Zm-3.322-.477h-1.9a.38.38,0,0,1,0-.76h1.9a.38.38,0,1,1,0,.76Zm-3.8,0h-1.9a.38.38,0,1,1,0-.76h1.9a.38.38,0,1,1,0,.76Z" fill="#00a2f2"/>
      </g>
    </g>
  </g>
</svg>
