<svg viewBox="0 0 192.998 134" width="181px" height="157px" xmlns="http://www.w3.org/2000/svg" xmlns:xlink="http://www.w3.org/1999/xlink">  
  <path d="M172.041,128.1a6.9,6.9,0,0,1-4.928-2.035h0a6.942,6.942,0,0,1-2.019-4.909h0a6.9,6.9,0,0,1,2.1-4.919h0a6.961,6.961,0,0,1,4.847-2.027h0a7.3,7.3,0,0,1,3.7.984h0a10.332,10.332,0,0,1,2.645,2.273h0c.267.309.519.627.761.946h0q.258-.345.531-.686h0a9.769,9.769,0,0,1,3.534-2.917h0a6.873,6.873,0,0,1,2.845-.6h0A6.973,6.973,0,0,1,193,121.161h0a6.888,6.888,0,0,1-2.138,4.928h0a6.971,6.971,0,0,1-4.805,2.016h-.027a6.924,6.924,0,0,1-3.584-.993h0a10.272,10.272,0,0,1-2.565-2.275h0q-.382-.454-.733-.93h0c-.178.237-.363.467-.551.7h0a9.887,9.887,0,0,1-3.638,2.914h0a7.285,7.285,0,0,1-2.914.588h0m0-3.172a4.1,4.1,0,0,0,2.115-.557h0a7.255,7.255,0,0,0,1.825-1.6h0a19.379,19.379,0,0,0,1.236-1.616h0c-.354-.509-.7-.989-1.067-1.421h0a6.792,6.792,0,0,0-2.449-2.022h0a4.09,4.09,0,0,0-1.661-.332h0a3.8,3.8,0,0,0-2.624,1.113h0a3.735,3.735,0,0,0-1.15,2.659h0a3.745,3.745,0,0,0,3.775,3.772h0m10.094-2.339a6.765,6.765,0,0,0,2.366,2.019h0a3.718,3.718,0,0,0,1.553.32h0a3.807,3.807,0,0,0,2.6-1.12h0a3.72,3.72,0,0,0,1.177-2.652h0A3.75,3.75,0,0,0,188.7,118.5h0a3.78,3.78,0,0,0-2.651-1.107h0a3.739,3.739,0,0,0-1.982.545h0a7.207,7.207,0,0,0-1.765,1.6h0c-.415.488-.819,1.043-1.23,1.635h0c.355.51.7.993,1.059,1.43Z" fill="#f38b00"/>
  <path d="M127.913,46.056A45.928,45.928,0,1,0,75.347,91.579v12.344L90.99,91.249A45.84,45.84,0,0,0,127.913,46.056Z" fill="#00abec" opacity="0.5"/>
  <rect y="117.062" width="160.156" height="8.742" fill="#969696"/>
  <rect x="71.303" y="108.32" width="9.835" height="25.68" fill="#a5ce00"/>
  <circle cx="81.856" cy="46.056" r="35.738" fill="#00abec"/>
  <text transform="translate(69.134 64.283)" font-size="50.481" fill="#fff" font-family="SegoeUI, Segoe UI" letter-spacing="0.011em">$</text>    
</svg>
