<svg data-slug-id="donut-chart" xmlns="http://www.w3.org/2000/svg" viewBox="0 0 48 48"><g clip-path="url(#donut-chart:clip0-85c23ef3)"><path d="M24.0141 0C10.7513 0 0 10.7513 0 24.0141C0 37.2769 10.7513 48.0282 24.0141 48.0282C37.2769 48.0282 48.0282 37.2769 48.0282 24.0141C48 10.7513 37.2769 0 24.0141 0ZM24.0141 35.2169C17.8342 35.2169 12.8113 30.194 12.8113 24.0141C12.8113 17.8342 17.8342 12.8113 24.0141 12.8113C30.194 12.8113 35.2169 17.8342 35.2169 24.0141C35.2169 30.194 30.194 35.2169 24.0141 35.2169Z" fill="#0078D4"/><path d="M23.9859 12.8113L23.9294 0C15.492 0.0282187 8.07053 4.40212 3.80951 11.0335L14.3351 18.3986C16.254 15.0688 19.8659 12.8113 23.9859 12.8113Z" fill="#50E6FF"/><path d="M12.8113 24.014C12.8113 21.9823 13.3474 20.0634 14.3069 18.4267L3.80952 11.0334L3.75309 11.1181C1.38272 14.843 0 19.2451 0 24.014C0 27.5414 0.761905 30.8994 2.14462 33.9188L13.8554 28.7548C13.1781 27.3156 12.8113 25.7072 12.8113 24.014Z" fill="#3BCAF4"/></g><defs><clipPath id="donut-chart:clip0-85c23ef3"><rect width="48" height="48" fill="white"/></clipPath></defs></svg>