<svg width="85" height="85" viewBox="0 0 85 85" fill="none" xmlns="http://www.w3.org/2000/svg">
<path d="M42.5811 71.8884C59.249 71.8884 72.761 58.3764 72.761 41.7084C72.761 25.0405 59.249 11.5285 42.5811 11.5285C25.9132 11.5285 12.4012 25.0405 12.4012 41.7084C12.4012 58.3764 25.9132 71.8884 42.5811 71.8884Z" fill="#0078D4"/>
<path d="M30.5515 53.5372L22.0739 62.9419L17.7848 73.4188C17.4832 74.1672 18.2316 74.9156 18.9799 74.6028L34.6842 68.091L40.4924 58.999L30.5515 53.5372Z" fill="#0078D4"/>
<path d="M28.8203 55.4755C28.8203 47.869 34.9747 41.7147 42.5811 41.7147C50.1876 41.7147 56.3419 47.869 56.3419 55.4755H28.8203Z" fill="#50E6FF"/>
<path d="M50.3885 31.7292C50.3885 36.0406 46.8925 39.5366 42.5811 39.5366C38.2696 39.5366 34.7736 36.0406 34.7736 31.7292C34.7736 27.4177 38.2696 23.9217 42.5811 23.9217C46.8925 23.9217 50.3885 27.4177 50.3885 31.7292Z" fill="#50E6FF"/>
</svg>
