<svg data-slug-id="qna-maker" xmlns="http://www.w3.org/2000/svg" viewBox="0 0 61 61">
<path fill-rule="evenodd" clip-rule="evenodd" d="M43.84 32.7333L39.6858 30.9354C39.5368 30.9467 39.3878 30.9526 39.2359 30.9526H39.075C38.2506 26.9004 34.7285 23.8208 30.506 23.8208H25.4354C25.455 20.2225 28.3158 17.2849 31.8118 17.2849H39.2365C42.7437 17.2849 45.6141 20.2421 45.6141 23.8564V24.3805C45.6141 26.677 44.4555 28.7078 42.7111 29.8837L43.84 32.7333ZM30.5066 39.8652H23.082C22.93 39.8652 22.781 39.8592 22.6321 39.848L18.4778 41.6459L19.6074 38.7963C17.8623 37.6204 16.7037 35.5895 16.7037 33.2931V32.769C16.7037 29.1547 19.5741 26.1975 23.0814 26.1975H23.2428H25.6888H30.506C33.4025 26.1975 35.8586 28.2153 36.6296 30.9526C36.7917 31.5307 36.8842 32.1392 36.8842 32.769V33.2931C36.8842 33.3055 36.8825 33.3168 36.8825 33.3293C36.8635 36.9276 34.002 39.8652 30.5066 39.8652ZM45.5399 30.5777C47.0843 28.936 47.9883 26.7304 47.9883 24.3805V23.8564C47.9883 18.9444 44.0709 14.9082 39.2365 14.9082H31.8118C26.9887 14.9082 23.0802 18.9254 23.0612 23.822C18.2363 23.8333 14.3296 27.8641 14.3296 32.769V33.2931C14.3296 35.643 15.2335 37.8486 16.7779 39.4903L14.1562 46.1058L23.0837 42.2419H30.5066C35.3256 42.2419 39.2317 38.2294 39.2561 33.3388L48.1616 37.1932L45.5399 30.5777Z" fill="#0078D4"></path>
</svg>