<svg version="1.1" id="Layer_1" xmlns="http://www.w3.org/2000/svg" xmlns:xlink="http://www.w3.org/1999/xlink" x="0px" y="0px"
	 viewBox="0 0 138.4 117.7" style="enable-background:new 0 0 138.4 117.7;" xml:space="preserve">
<style type="text/css">
	.st0{fill:#389CD6;}
</style>
<g>
	<path class="st0" d="M136.1,21.7h-16.3V15c0-1.2-1-2.2-2.2-2.2h-16.3V2.2c0-1.2-1-2.2-2.2-2.2H2.2C1,0,0,1,0,2.2v18.4v3.2v69.5
		C0,94.8,1.2,96,2.7,96h15.9v10.1c0,1.5,1.2,2.7,2.7,2.7h15.9v6.2c0,1.5,1.2,2.7,2.7,2.7h95.9c1.5,0,2.7-1.2,2.7-2.7V45.5v-3.2V23.9
		C138.4,22.7,137.4,21.7,136.1,21.7z M135.4,114.7H40.1V42.5h95.2V114.7z M116.8,21.7h-15.6H39.4c-0.5,0-1,0.2-1.3,0.4
		c-0.5,0.4-0.8,0.9-0.9,1.5c0,0.1,0,0.1,0,0.2c0,0,0,0.1,0,0.1v6.5v0.2H21.6v-0.2V15.8h76.7h3h15.6V21.7z M3,20.8h15.6v12.6v3.2V93
		H3V20.8z M21.6,33.6h15.6v72.2H21.6V33.6z M135.4,39.5H40.1v2.8V24.7h95.2v14.6V39.5z M3,3h95.2v9.8H20.8c-1.2,0-2.2,1-2.2,2.2v2.6
		H3V3z"/>
	<g>
		<path class="st0" d="M86.3,76H54.2V53.2h32.1V76z M57.2,73h26.1V56.2H57.2V73z"/>
	</g>
	<g>
		<path class="st0" d="M122.9,76H90.9V53.2h32.1V76z M93.9,73h26.1V56.2H93.9V73z"/>
	</g>
	<g>
		<path class="st0" d="M86.3,103.9H54.2V81h32.1V103.9z M57.2,100.9h26.1V84H57.2V100.9z"/>
	</g>
	<g>
		<path class="st0" d="M122.9,103.9H90.9V81h32.1V103.9z M93.9,100.9h26.1V84H93.9V100.9z"/>
	</g>
	<rect x="111.1" y="30.8" class="st0" width="10" height="3"/>
</g>
</svg>