<?xml version="1.0" encoding="utf-8"?>
<!-- Generator: Adobe Illustrator 22.1.0, SVG Export Plug-In . SVG Version: 6.00 Build 0)  -->
<svg version="1.1" id="Layer_1" xmlns="http://www.w3.org/2000/svg" xmlns:xlink="http://www.w3.org/1999/xlink" x="0px" y="0px"
	 viewBox="0 0 200 92.6" style="enable-background:new 0 0 200 92.6;" xml:space="preserve">
<style type="text/css">
	.st0{fill:#389BD5;}
	.st1{fill:#389CD6;}
	.st2{fill:#FFFFFF;}
	.st3{opacity:0.2;}
	.st4{fill:#509DD5;}
	.st5{fill:none;}
</style>
<g>
	<rect x="167.3" y="59.9" class="st1" width="32.7" height="32.7"/>
	<g>
		<rect x="125.5" y="59.9" class="st1" width="32.7" height="32.7"/>
		<g>
			<path class="st2" d="M184.8,67.9c-3.9,0-7.2,3.2-7.2,7.2c0,1.4,0.4,2.7,1.1,3.8l-4.5,4.5l2.1,2.1l4.4-4.5c1.1,0.8,2.5,1.2,4,1.2
				c3.9,0,7.2-3.2,7.2-7.2S188.7,67.9,184.8,67.9z M184.8,79.2c-2.3,0-4.2-1.9-4.2-4.2s1.9-4.2,4.2-4.2s4.2,1.9,4.2,4.2
				S187.1,79.2,184.8,79.2z"/>
			<path class="st2" d="M143,67.9c-3.9,0-7.2,3.2-7.2,7.2c0,1.4,0.4,2.7,1.1,3.8l-4.5,4.5l2.1,2.1L139,81c1.1,0.8,2.5,1.2,4,1.2
				c3.9,0,7.2-3.2,7.2-7.2S146.9,67.9,143,67.9z M143,79.2c-2.3,0-4.2-1.9-4.2-4.2s1.9-4.2,4.2-4.2s4.2,1.9,4.2,4.2
				S145.2,79.2,143,79.2z"/>
		</g>
	</g>
	<g>
		<path class="st1" d="M116.4,92.6H83.7V59.9h32.7V92.6z M86.7,89.6h26.7V62.9H86.7V89.6z"/>
	</g>
	<g>
		<path class="st1" d="M74.5,92.6H41.8V59.9h32.7V92.6z M44.8,89.6h26.7V62.9H44.8V89.6z"/>
	</g>
	<g>
		<g class="st3">
			<rect x="1.5" y="61.4" class="st4" width="29.7" height="29.7"/>
			<path class="st4" d="M32.7,92.6H0V59.9h32.7V92.6z M3,89.6h26.7V62.9H3V89.6z"/>
		</g>
		<g>
			<path class="st1" d="M101.1,67.9c-3.9,0-7.2,3.2-7.2,7.2c0,1.4,0.4,2.7,1.1,3.8l-4.5,4.5l2.1,2.1l4.4-4.5c1.1,0.8,2.5,1.2,4,1.2
				c3.9,0,7.2-3.2,7.2-7.2S105.1,67.9,101.1,67.9z M101.1,79.2c-2.3,0-4.2-1.9-4.2-4.2s1.9-4.2,4.2-4.2s4.2,1.9,4.2,4.2
				S103.4,79.2,101.1,79.2z"/>
			<path class="st1" d="M59.3,67.9c-3.9,0-7.2,3.2-7.2,7.2c0,1.4,0.4,2.7,1.1,3.8l-4.5,4.5l2.1,2.1l4.4-4.5c1.1,0.8,2.5,1.2,4,1.2
				c3.9,0,7.2-3.2,7.2-7.2S63.2,67.9,59.3,67.9z M59.3,79.2c-2.3,0-4.2-1.9-4.2-4.2s1.9-4.2,4.2-4.2s4.2,1.9,4.2,4.2
				S61.6,79.2,59.3,79.2z"/>
			<path class="st1" d="M17.5,67.9c-3.9,0-7.2,3.2-7.2,7.2c0,1.4,0.4,2.7,1.1,3.8L7,83.3l2.1,2.1l4.4-4.5c1.1,0.8,2.5,1.2,4,1.2
				c3.9,0,7.2-3.2,7.2-7.2S21.4,67.9,17.5,67.9z M17.5,79.2c-2.3,0-4.2-1.9-4.2-4.2s1.9-4.2,4.2-4.2s4.2,1.9,4.2,4.2
				S19.7,79.2,17.5,79.2z"/>
		</g>
	</g>
	<g>
		<path class="st1" d="M84.7,42c0-0.6-0.4-1-1-1h-5c-0.6,0-1,0.4-1,1s0.4,1,1,1h5C84.2,43,84.7,42.5,84.7,42z"/>
		<path class="st1" d="M159.8,41h-5c-0.6,0-1,0.4-1,1s0.4,1,1,1h5c0.6,0,1-0.4,1-1S160.3,41,159.8,41z"/>
		<path class="st1" d="M169.8,41h-5c-0.6,0-1,0.4-1,1s0.4,1,1,1h5c0.6,0,1-0.4,1-1S170.3,41,169.8,41z"/>
		<path class="st1" d="M90,37.3c0-0.6-0.4-1-1-1s-1,0.4-1,1v3.9c-0.2,0.2-0.4,0.5-0.4,0.8c0,0.6,0.4,1,1,1H90V37.3z"/>
		<path class="st1" d="M179.8,41h-5c-0.6,0-1,0.4-1,1s0.4,1,1,1h5c0.6,0,1-0.4,1-1S180.3,41,179.8,41z"/>
		<path class="st1" d="M149.8,41h-5c-0.6,0-1,0.4-1,1s0.4,1,1,1h5c0.6,0,1-0.4,1-1S150.3,41,149.8,41z"/>
		<path class="st1" d="M140.8,42c0-0.6-0.4-1-1-1h-5c-0.6,0-1,0.4-1,1s0.4,1,1,1h5C140.3,43,140.8,42.5,140.8,42z"/>
		<path class="st1" d="M130.8,42c0-0.6-0.4-1-1-1h-5c-0.6,0-1,0.4-1,1s0.4,1,1,1h5C130.3,43,130.8,42.5,130.8,42z"/>
		<path class="st1" d="M113.1,39.6v-5c0-0.6-0.4-1-1-1s-1,0.4-1,1v5c0,0.6,0.4,1,1,1S113.1,40.2,113.1,39.6z"/>
		<path class="st1" d="M120.8,42c0-0.6-0.4-1-1-1h-5c-0.6,0-1,0.4-1,1s0.4,1,1,1h5C120.3,43,120.8,42.5,120.8,42z"/>
		<path class="st1" d="M17.1,44.4c-0.6,0-1,0.4-1,1v5c0,0.6,0.4,1,1,1s1-0.4,1-1v-5C18.1,44.9,17.7,44.4,17.1,44.4z"/>
		<path class="st1" d="M63.7,43c0.6,0,1-0.4,1-1s-0.4-1-1-1h-5c-0.6,0-1,0.4-1,1s0.4,1,1,1H63.7z"/>
		<path class="st1" d="M43.7,41h-5c-0.6,0-1,0.4-1,1s0.4,1,1,1h5c0.6,0,1-0.4,1-1S44.2,41,43.7,41z"/>
		<path class="st1" d="M53.7,41h-5c-0.6,0-1,0.4-1,1s0.4,1,1,1h5c0.6,0,1-0.4,1-1S54.2,41,53.7,41z"/>
		<path class="st1" d="M23.7,41h-5c-0.6,0-1,0.4-1,1s0.4,1,1,1h5c0.6,0,1-0.4,1-1S24.2,41,23.7,41z"/>
		<path class="st1" d="M33.7,41h-5c-0.6,0-1,0.4-1,1s0.4,1,1,1h5c0.6,0,1-0.4,1-1S34.2,41,33.7,41z"/>
		<path class="st1" d="M74.7,42c0-0.6-0.4-1-1-1h-5c-0.6,0-1,0.4-1,1s0.4,1,1,1h5C74.2,43,74.7,42.5,74.7,42z"/>
		<path class="st1" d="M184,41.7c-0.6,0-1,0.4-1,1v5c0,0.6,0.4,1,1,1s1-0.4,1-1v-5C185,42.2,184.6,41.7,184,41.7z"/>
		<path class="st1" d="M184,51.7c-0.6,0-1,0.4-1,1v5c0,0.6,0.4,1,1,1s1-0.4,1-1v-5C185,52.2,184.6,51.7,184,51.7z"/>
		<path class="st1" d="M17.1,54.4c-0.6,0-1,0.4-1,1V58c0,0.6,0.4,1,1,1s1-0.4,1-1v-2.6C18.1,54.9,17.7,54.4,17.1,54.4z"/>
		<path class="st1" d="M136.8,48.3c0,0.6,0.4,1,1,1h3.4c0.1,0.4,0.5,0.7,0.9,0.7c0.6,0,1-0.4,1-1v-1.7h-5.3
			C137.3,47.3,136.8,47.8,136.8,48.3z"/>
		<path class="st1" d="M142.2,53c-0.6,0-1,0.4-1,1v5c0,0.6,0.4,1,1,1s1-0.4,1-1v-5C143.2,53.5,142.7,53,142.2,53z"/>
		<path class="st1" d="M122.8,47.3h-5c-0.6,0-1,0.4-1,1s0.4,1,1,1h5c0.6,0,1-0.4,1-1S123.4,47.3,122.8,47.3z"/>
		<path class="st1" d="M75,47.3h-5c-0.6,0-1,0.4-1,1s0.4,1,1,1h5c0.6,0,1-0.4,1-1S75.5,47.3,75,47.3z"/>
		<path class="st1" d="M65,47.3h-5c-0.6,0-1,0.4-1,1s0.4,1,1,1h5c0.6,0,1-0.4,1-1S65.5,47.3,65,47.3z"/>
		<path class="st1" d="M59,51.3c-0.6,0-1,0.4-1,1v5c0,0.6,0.4,1,1,1s1-0.4,1-1v-5C60,51.8,59.5,51.3,59,51.3z"/>
		<path class="st1" d="M85,47.3h-5c-0.6,0-1,0.4-1,1s0.4,1,1,1h5c0.6,0,1-0.4,1-1S85.5,47.3,85,47.3z"/>
		<path class="st1" d="M132.8,47.3h-5c-0.6,0-1,0.4-1,1s0.4,1,1,1h5c0.6,0,1-0.4,1-1S133.4,47.3,132.8,47.3z"/>
		<path class="st1" d="M112.8,47.3h-5c-0.6,0-1,0.4-1,1s0.4,1,1,1h5c0.6,0,1-0.4,1-1S113.4,47.3,112.8,47.3z"/>
		<path class="st1" d="M95,47.3h-5c-0.6,0-1,0.4-1,1s0.4,1,1,1h5c0.6,0,1-0.4,1-1S95.5,47.3,95,47.3z"/>
		<path class="st1" d="M95,37.4c-0.6,0-1,0.4-1,1v5c0,0.6,0.4,1,1,1s1-0.4,1-1v-5C96,37.8,95.6,37.4,95,37.4z"/>
		<path class="st1" d="M107.1,40.1c0-0.6-0.4-1-1-1s-1,0.4-1,1v5c0,0.6,0.4,1,1,1s1-0.4,1-1V40.1z"/>
		<path class="st1" d="M100.5,34.9c-0.6,0-1,0.4-1,1v5c0,0.6,0.4,1,1,1s1-0.4,1-1v-5C101.5,35.3,101,34.9,100.5,34.9z"/>
		<path class="st1" d="M100.5,44.9c-0.6,0-1,0.4-1,1v5c0,0.6,0.4,1,1,1s1-0.4,1-1v-5C101.5,45.3,101,44.9,100.5,44.9z"/>
		<path class="st1" d="M100.5,54.9c-0.6,0-1,0.4-1,1v5c0,0.6,0.4,1,1,1s1-0.4,1-1v-5C101.5,55.3,101,54.9,100.5,54.9z"/>
		<path class="st1" d="M164.5,0H3.6v32.5H88c0.1,0.5,0.5,0.8,1,0.8s0.9-0.4,1-0.8h4v0.9c0,0.6,0.4,1,1,1s1-0.4,1-1v-0.9h9.1v2.6
			c0,0.6,0.4,1,1,1s1-0.4,1-1v-2.6h57.3h32.5V0H164.5z M111.1,29.5h-4.2h-1.6h-3.9h-2H96h-2h-4h-2H6.6V3h157.8v26.5h-51.3H111.1z
			 M193.9,29.5h-26.5V3h26.5V29.5z"/>
		<path class="st1" d="M179.9,23c1.6,0,3.1-0.5,4.4-1.3l5.2,5.2l2.1-2.1l-5.2-5.1c0.9-1.3,1.4-2.8,1.4-4.5c0-4.4-3.6-7.9-7.9-7.9
			c-4.4,0-7.9,3.6-7.9,7.9C172,19.5,175.6,23,179.9,23z M179.9,10.2c2.7,0,4.9,2.2,4.9,4.9c0,2.7-2.2,4.9-4.9,4.9
			c-2.7,0-4.9-2.2-4.9-4.9C175,12.4,177.2,10.2,179.9,10.2z"/>
	</g>
</g>
</svg>
