<svg viewBox="0 0 108.3 113" width="181px" height="157px" xmlns="http://www.w3.org/2000/svg" xmlns:xlink="http://www.w3.org/1999/xlink">
  <defs>
    <clipPath id="clip-path">
      <path d="M65.146,75.981l-7.661-9.714V56h.165a1.773,1.773,0,0,0,0-3.5h-7a1.773,1.773,0,0,0,0,3.5h.165V66.267l-7.661,9.714a4.567,4.567,0,0,0-.553,4.3,2.708,2.708,0,0,0,2.439,1.993H63.26A2.708,2.708,0,0,0,65.7,80.282,4.566,4.566,0,0,0,65.146,75.981Z" fill="#a5ce00"/>
    </clipPath>
  </defs>
  <g style="isolation: isolate">
    <g id="Layer_2" data-name="Layer 2">
      <g id="Layer_1-2" data-name="Layer 1">
        <g>
          <path d="M64.409,76.772,56.484,66.723V54.25H51.816V66.723L43.891,76.772c-1.193,1.513-.445,4.334,1.149,4.334H63.26C64.855,81.106,65.6,78.285,64.409,76.772Z" fill="#7fba00"/>
          <line x1="50.65" y1="54.25" x2="57.65" y2="54.25" fill="#7fba00"/>
          <rect x="51.816" y="54.25" width="4.668" height="16.822" fill="#7fba00"/>
          <polygon points="59.649 71.073 48.65 71.073 51.54 67.678 56.76 67.678 59.649 71.073" fill="#7fba00"/>
        </g>
        <ellipse cx="56.446" cy="42.021" rx="2.296" ry="2.68" fill="#f38b00"/>
        <ellipse cx="50.626" cy="37.367" rx="1.579" ry="1.843" fill="#f38b00"/>
        <ellipse cx="56.446" cy="29.23" rx="1.579" ry="1.843" fill="#f38b00"/>
        <g>
          <path d="M65.146,75.981l-7.661-9.714V56h.165a1.773,1.773,0,0,0,0-3.5h-7a1.773,1.773,0,0,0,0,3.5h.165V66.267l-7.661,9.714a4.567,4.567,0,0,0-.553,4.3,2.708,2.708,0,0,0,2.439,1.993H63.26A2.708,2.708,0,0,0,65.7,80.282,4.566,4.566,0,0,0,65.146,75.981Z" fill="#a5ce00"/>
          <g clip-path="url(#clip-path)">
            <polygon points="47.884 90.159 53.174 68.083 52.953 39.289 28.181 85.447 47.884 90.159" fill="#a5ce00" opacity="0.3" style="mix-blend-mode: multiply"/>
          </g>
        </g>
        <g>
          <path d="M16.277,22.629,20.953,37.1l-5.228-2.674c-.009.017-.017.035-.027.053a43.2,43.2,0,0,0,30.888,62.2l-5.139,4.7,5.941,6.494A54.153,54.153,0,0,1,5.966,29.5c.008-.017.019-.034.028-.052L1.806,27.3Z" fill="#00abec"/>
          <path d="M100.343,37.041,85.483,33.809l4.9-3.148A43.172,43.172,0,0,0,20.86,26.624l-1.571-6.918-8.409,1.909A54.173,54.173,0,0,1,99.6,24.731l3.971-2.551Z" fill="#00abec"/>
          <path d="M45.5,102.737,55.76,91.515l.258,5.776a43.15,43.15,0,0,0,38.628-58.1l6.7,2.1,2.605-8.329q.942,2.225,1.7,4.55a54.126,54.126,0,0,1-34.861,68.141,54.36,54.36,0,0,1-14.283,2.59L56.722,113Z" fill="#00abec"/>
        </g>
      </g>
    </g>
  </g>
</svg>
