<?xml version="1.0" encoding="utf-8"?>
<!-- Generator: Adobe Illustrator 22.1.0, SVG Export Plug-In . SVG Version: 6.00 Build 0)  -->
<svg version="1.1" id="Layer_1" xmlns="http://www.w3.org/2000/svg" xmlns:xlink="http://www.w3.org/1999/xlink" x="0px" y="0px"
	 viewBox="0 0 159.8 120.7" style="enable-background:new 0 0 159.8 120.7;" xml:space="preserve">
<style type="text/css">
	.st0{fill:#389BD5;}
	.st1{fill:#389CD6;}
	.st2{fill:#FFFFFF;}
	.st3{opacity:0.2;}
	.st4{fill:#509DD5;}
	.st5{fill:none;}
</style>
<g>
	<path class="st1" d="M156.8,90.3h-6V77.4v-3h-3h-41.9V41.8v-3h-3H55.7h-3v3v17.5H12H9v3v28H3H0v3v24.3v3h3h153.8h3v-3V93.3v-3
		H156.8z M55.7,62.3V41.8h47.1v35.6h44.9v13h-18.2l0,0H12V62.3H55.7z M3,93.3h7.2v0.1h119.4l-0.1,24.3H3V93.3z M132.5,117.7
		l0.1-24.3h24.2v24.3H132.5z"/>
	<path class="st1" d="M150.1,104.5c0-3.8-3.1-6.8-6.8-6.8s-6.8,3.1-6.8,6.8s3.1,6.8,6.8,6.8c1.3,0,2.5-0.4,3.6-1l4.2,4.1l2.1-2.1
		l-4.1-4.1C149.7,107.2,150.1,105.9,150.1,104.5z M139.4,104.5c0-2.1,1.7-3.8,3.8-3.8s3.8,1.7,3.8,3.8s-1.7,3.8-3.8,3.8
		S139.4,106.6,139.4,104.5z"/>
	<path class="st1" d="M100.9,0H56.6v33.9h44.2V0z M95.2,4.6v21.8l-8.7-11.6c-0.3-0.4-0.8-0.6-1.3-0.6c-0.5,0-1,0.3-1.2,0.7l-2.4,3.9
		l-4.5-6.6c-0.3-0.4-0.7-0.6-1.2-0.7c-0.5,0-0.9,0.2-1.2,0.6L62.3,28.7V4.6H95.2z M85,29.1H65.8l10-13.4L85,29.1z M83.5,21.5
		l1.9-3.2l8,10.7h-4.8L83.5,21.5z"/>
	<path class="st1" d="M67.3,13.5c0.3,0,0.8,0,0.8,0h3.4c0,0,0.4,0,0.7,0c0.6,0,1-0.4,1-1c0-0.5-0.4-1-0.9-1c0-0.1,0-0.1,0-0.2
		c0-0.7-0.6-1.3-1.3-1.3c-0.3,0-0.5,0.1-0.7,0.2c-0.3-0.5-0.8-0.8-1.4-0.8c-0.9,0-1.6,0.7-1.6,1.6c0,0,0,0-0.1,0
		c-0.7,0-1.3,0.6-1.3,1.3S66.6,13.5,67.3,13.5z"/>
	<path class="st1" d="M112.4,67.9h36.1c0.4,0,0.8-0.3,0.8-0.8V42.5c0-0.4-0.3-0.8-0.8-0.8h-36.1c-0.4,0-0.8,0.3-0.8,0.8v24.6
		C111.7,67.5,112,67.9,112.4,67.9z M115.7,44.6h29.5v20.5h-29.5V44.6z"/>
	<path class="st1" d="M130.5,50c-2.6,0-4.7,2.1-4.7,4.7s2.1,4.7,4.7,4.7s4.7-2.1,4.7-4.7S133.1,50,130.5,50z M132.5,55.1l-3,1.7
		c-0.2,0.1-0.5,0-0.5-0.3v-3.5c0-0.2,0.3-0.4,0.5-0.3l3,1.7C132.8,54.7,132.8,55,132.5,55.1z"/>
	<rect x="11.6" y="20.4" class="st1" width="10.8" height="10.8"/>
	<rect x="28.5" y="37.2" class="st1" width="10.8" height="10.8"/>
	<rect x="24.6" y="20.8" class="st1" width="14.5" height="2"/>
	<rect x="24.6" y="24.9" class="st1" width="14.5" height="2"/>
	<rect x="24.6" y="28.7" class="st1" width="14.5" height="2"/>
	<rect x="11.6" y="37.5" class="st1" width="14.5" height="2"/>
	<rect x="11.6" y="32.9" class="st1" width="27.5" height="2"/>
	<rect x="11.6" y="41.6" class="st1" width="14.5" height="2"/>
	<rect x="11.6" y="45.4" class="st1" width="14.5" height="2"/>
	<path class="st1" d="M12.2,55.1h29.2h3h0.1c3.3,0,6-2.7,6-6V22.7h-6v-9.1H6.2v35.6C6.2,52.5,8.9,55.1,12.2,55.1z M47.5,25.7v23.5
		c0,1.6-1.3,3-3,3h-0.1V25.7H47.5z M9.2,16.6h32.2v6.1v29.4H12.2c-1.6,0-3-1.3-3-3V16.6z"/>
</g>
</svg>
