<svg xmlns="http://www.w3.org/2000/svg" viewBox="0 0 96 97" fill="none"><path fill-rule="evenodd" clip-rule="evenodd" d="M0 21.8784H6V0.878418H0V21.8784Z" fill="#50E6FF"/><path fill-rule="evenodd" clip-rule="evenodd" d="M0 6.87842H21V0.878418H0V6.87842Z" fill="#50E6FF"/><path fill-rule="evenodd" clip-rule="evenodd" d="M0 96.8784H21V90.8784H0V96.8784Z" fill="#50E6FF"/><path fill-rule="evenodd" clip-rule="evenodd" d="M0 96.8784H6V75.8784H0V96.8784Z" fill="#50E6FF"/><path fill-rule="evenodd" clip-rule="evenodd" d="M90 21.8784H96V0.878418H90V21.8784Z" fill="#50E6FF"/><path fill-rule="evenodd" clip-rule="evenodd" d="M75 6.87842H96V0.878418H75V6.87842Z" fill="#50E6FF"/><path fill-rule="evenodd" clip-rule="evenodd" d="M75 96.8784H96V90.8784H75V96.8784Z" fill="#50E6FF"/><path fill-rule="evenodd" clip-rule="evenodd" d="M90 96.8784H96V75.8784H90V96.8784Z" fill="#50E6FF"/><path fill-rule="evenodd" clip-rule="evenodd" d="M15 69.8784H30V30.8784H15V69.8784Z" fill="#0078D4"/><path fill-rule="evenodd" clip-rule="evenodd" d="M33 69.8784H39V30.8784H33V69.8784Z" fill="#0078D4"/><path fill-rule="evenodd" clip-rule="evenodd" d="M42 69.8784H45V30.8784H42V69.8784Z" fill="#0078D4"/><path fill-rule="evenodd" clip-rule="evenodd" d="M48 69.8784H51V30.8784H48V69.8784Z" fill="#0078D4"/><path fill-rule="evenodd" clip-rule="evenodd" d="M54 69.8784H63V30.8784H54V69.8784Z" fill="#0078D4"/><path fill-rule="evenodd" clip-rule="evenodd" d="M66 69.8784H69V30.8784H66V69.8784Z" fill="#0078D4"/><path fill-rule="evenodd" clip-rule="evenodd" d="M72 69.8784H81V30.8784H72V69.8784Z" fill="#0078D4"/></svg>