<?xml version="1.0" encoding="utf-8"?>
<!-- Generator: Adobe Illustrator 22.1.0, SVG Export Plug-In . SVG Version: 6.00 Build 0)  -->
<svg version="1.1" id="Layer_1" xmlns="http://www.w3.org/2000/svg" xmlns:xlink="http://www.w3.org/1999/xlink" x="0px" y="0px"
	 viewBox="0 0 193.3 94.5" style="enable-background:new 0 0 193.3 94.5;" xml:space="preserve">
<style type="text/css">
	.st0{fill:#389BD5;}
	.st1{fill:#389CD6;}
	.st2{fill:#FFFFFF;}
	.st3{opacity:0.2;}
	.st4{fill:#509DD5;}
	.st5{fill:none;}
</style>
<g>
	<path class="st0" d="M160.8,52.2h-30.2v-9H118V22.7C118,10.2,107.9,0,95.4,0S72.7,10.2,72.7,22.7v20.5H59.5v9H0v32.5h59.5v9.8h71.1
		v-9.8h30.2h32.5V52.2H160.8z M127.7,84.7v6.8H62.5v-6.8v-1.5v-1.5V55.2v-1.5v-1.5v-6h65.1v6v1.5v1.5v26.5v1.5V84.7z M3,55.2h56.5
		v26.5H3V55.2z M130.7,55.2h30.2v26.5h-30.2V55.2z M190.3,81.7h-26.5V55.2h26.5V81.7z M75.7,22.7C75.7,11.8,84.5,3,95.4,3
		S115,11.8,115,22.7v20.5H75.7V22.7z"/>
	<path class="st0" d="M176.3,75.2c1.6,0,3.1-0.5,4.4-1.3l5.2,5.2L188,77l-5.2-5.1c0.9-1.3,1.4-2.8,1.4-4.5c0-4.4-3.6-7.9-7.9-7.9
		s-7.9,3.6-7.9,7.9C168.4,71.7,172,75.2,176.3,75.2z M176.3,62.4c2.7,0,4.9,2.2,4.9,4.9c0,2.7-2.2,4.9-4.9,4.9s-4.9-2.2-4.9-4.9
		C171.4,64.6,173.6,62.4,176.3,62.4z"/>
	<path class="st0" d="M95.2,59.4c-2.8,0-5.1,2.3-5.1,5.1c0,2.1,1.3,3.9,3.1,4.7v10.1h4.1V69.2c1.8-0.8,3.1-2.6,3.1-4.7
		C100.3,61.7,98.1,59.4,95.2,59.4z"/>
</g>
</svg>
