<svg xmlns="http://www.w3.org/2000/svg" viewBox="0 0 96 96" fill="none"><g clip-path="url(#clip0)"><path d="M28.5472 34.6253C28.5472 37.421 27.5366 39.5768 25.5156 41.1095C23.4945 42.6421 20.6988 43.4 17.1282 43.4C14.0966 43.4 11.5535 42.861 9.51558 41.7663V35.2147C11.8735 37.2021 14.4503 38.2126 17.2798 38.2126C18.644 38.2126 19.7051 37.9432 20.4461 37.3874C21.1872 36.8484 21.5577 36.1242 21.5577 35.2147C21.5577 34.3221 21.204 33.5474 20.4798 32.8905C19.7556 32.2337 18.3072 31.3916 16.1008 30.3474C11.6208 28.2421 9.38086 25.3789 9.38086 21.7411C9.38086 19.0968 10.3577 16.9916 12.3114 15.3916C14.2651 13.7916 16.8587 13 20.1093 13C22.9724 13 25.364 13.3705 27.2503 14.1284V20.2589C25.263 18.8947 23.0061 18.2042 20.4798 18.2042C19.2166 18.2042 18.2061 18.4737 17.4651 19.0126C16.724 19.5516 16.3535 20.2758 16.3535 21.1684C16.3535 22.0947 16.6566 22.8526 17.2461 23.4589C17.8356 24.0484 19.0651 24.7895 20.9008 25.6653C23.6461 26.9621 25.5998 28.2758 26.7787 29.6232C27.9745 30.9537 28.5472 32.621 28.5472 34.6253Z" fill="#0078D4"/><path d="M59.3008 27.8055C59.3008 30.7866 58.6608 33.414 57.364 35.7045C56.0671 37.995 54.2314 39.7634 51.8566 41.0097C49.465 42.2561 46.7366 42.8792 43.6545 42.8792H33.2461V13.4897H43.6545C54.0798 13.4897 59.3008 18.2561 59.3008 27.8055ZM52.3282 27.8897C52.3282 25.0771 51.5029 22.8708 49.8524 21.2708C48.2019 19.6708 45.945 18.8792 43.0819 18.8792H39.8482V37.5066H43.1324C45.945 37.5066 48.185 36.6476 49.8524 34.9466C51.5029 33.2624 52.3282 30.9045 52.3282 27.8897Z" fill="#50E6FF"/><path d="M88.5902 42.8792H80.2197L71.6471 30.1129C71.546 29.9782 71.2934 29.4392 70.8723 28.4961H70.7713V42.8792H64.1523V13.4897H70.7713V27.3845H70.8723L71.6976 25.7508L79.8155 13.4897H87.7144L77.4576 27.5192L88.5902 42.8792Z" fill="#0078D4"/><path d="M96 69.1851H0V79.2903H96V69.1851Z" fill="#50E6FF"/><path d="M96 69.1851H76.5137V79.2903H96V69.1851Z" fill="#0078D4"/><path d="M19.301 69.1851H0V79.2903H19.301V69.1851Z" fill="#0078D4"/><path d="M76.4803 83.5518C82.0612 83.5518 86.5855 79.0276 86.5855 73.4466C86.5855 67.8656 82.0612 63.3413 76.4803 63.3413C70.8993 63.3413 66.375 67.8656 66.375 73.4466C66.375 79.0276 70.8993 83.5518 76.4803 83.5518Z" fill="#0078D4"/><path d="M19.3006 83.5518C24.8816 83.5518 29.4058 79.0276 29.4058 73.4466C29.4058 67.8656 24.8816 63.3413 19.3006 63.3413C13.7196 63.3413 9.19531 67.8656 9.19531 73.4466C9.19531 79.0276 13.7196 83.5518 19.3006 83.5518Z" fill="#0078D4"/><path d="M19.3007 78.4983C22.0912 78.4983 24.3533 76.2362 24.3533 73.4457C24.3533 70.6552 22.0912 68.3931 19.3007 68.3931C16.5102 68.3931 14.248 70.6552 14.248 73.4457C14.248 76.2362 16.5102 78.4983 19.3007 78.4983Z" fill="#50E6FF"/><path d="M76.5136 78.5325C79.3041 78.5325 81.5662 76.2704 81.5662 73.4799C81.5662 70.6894 79.3041 68.4272 76.5136 68.4272C73.7231 68.4272 71.4609 70.6894 71.4609 73.4799C71.4609 76.2704 73.7231 78.5325 76.5136 78.5325Z" fill="#50E6FF"/></g><defs><clipPath id="clip0"><rect width="96" height="96" fill="white"/></clipPath></defs></svg>