<svg viewBox="0 0 113.829 170" width="181px" height="157px" xmlns="http://www.w3.org/2000/svg" xmlns:xlink="http://www.w3.org/1999/xlink">  
  <path d="M113.829,60.507c0-7.66-5.895-13.867-13.174-13.867a12.588,12.588,0,0,0-1.61.114,38.82,38.82,0,0,0,1.251-9.776C100.3,16.56,84.568,0,65.166,0c-15.5,0-28.64,10.57-33.307,25.226a22.862,22.862,0,0,0-7.846-1.408C10.749,23.818,0,35.139,0,49.095s10.749,25.28,24.013,25.28h77.718l-.018-.061C108.492,73.752,113.829,67.793,113.829,60.507Z" fill="#00abec" opacity="0.5"/>      
  <polygon points="47.393 74.377 54.728 101.277 59.211 97.586 63.965 110.288 69.398 96.09 73.066 101.437 77.548 74.377 47.393 74.377" fill="#1ebbee" opacity="0.2"/>
  <polygon points="70.486 74.377 69.67 84.34 66.139 79.875 63.966 88.541 61.792 82.888 59.075 85.679 56.359 74.377 70.486 74.377" fill="#1ebbee"/>
  <polygon points="74.017 74.377 71.3 92.79 68.584 86.699 64.236 104.002 60.433 91.532 56.63 96.433 52.011 74.377 74.017 74.377" fill="#1ebbee" opacity="0.3"/>      
  <path d="M51.594,159.437a17.232,17.232,0,0,0,2.82,2.957,18.055,18.055,0,0,0,3.384,2.214,17.569,17.569,0,0,0,3.8,1.389,17.348,17.348,0,0,0,4.085.481H83.284V170H49.833v-3.521h4.154a21.266,21.266,0,0,1-3.975-3.411,20.772,20.772,0,0,1-2.957-4.2,21.433,21.433,0,0,1-1.857-4.8,20.924,20.924,0,0,1-.646-5.2,20.642,20.642,0,0,1,1.018-6.465,21.443,21.443,0,0,1,2.861-5.722,21.174,21.174,0,0,1,10.206-7.73V117.183h3.521v-3.521h3.521v3.521H69.2v31.69H58.636V132.725a17.183,17.183,0,0,0-4.346,2.723,17.749,17.749,0,0,0-5.461,8.349,17.183,17.183,0,0,0-.756,5.075,17.617,17.617,0,0,0,1.458,7.042H76.242v3.521H51.594m10.563-14.085h3.521" fill="#00abec"/>      
  <path d="M41.462,53.731a1.309,1.309,0,0,0,1.309,1.309H72.758a1.309,1.309,0,0,0,1.309-1.309V33.3h-32.6Z" fill="#a5ce00"/>
  <path d="M82.5,37.124H52.509A1.308,1.308,0,0,0,51.2,38.433v4.973H83.8V38.433A1.309,1.309,0,0,0,82.5,37.124" fill="#3e3e3e"/>        
  <path d="M72.758,27.239H42.771a1.308,1.308,0,0,0-1.309,1.309v4.973h32.6V28.548a1.309,1.309,0,0,0-1.309-1.309" fill="#a0a1a2"/>          
  <path d="M42.775,27.239a1.309,1.309,0,0,0-1.309,1.309V53.731a1.309,1.309,0,0,0,1.309,1.309H44.2l25.7-27.8Z" fill="#fff" opacity="0.2"/>          
  <path d="M51.2,63.616a1.309,1.309,0,0,0,1.309,1.309H82.5A1.309,1.309,0,0,0,83.8,63.616V43.187H51.2Z" fill="#a5ce00"/>          
  <path d="M52.514,37.124A1.309,1.309,0,0,0,51.2,38.433V63.616a1.309,1.309,0,0,0,1.309,1.309H53.94l25.7-27.8Z" fill="#fff" opacity="0.2"/>                  
  <rect x="62.276" y="119.86" width="3.527" height="24.705" fill="#fff" opacity="0.5"/>     
</svg>
