<svg width="101" height="51" viewBox="0 0 101 51" fill="none" xmlns="http://www.w3.org/2000/svg">
<path d="M80.6659 23.2215C80.6103 23.0825 80.5825 23.0268 80.5269 22.9712C79.6093 21.303 78.6918 19.6069 77.7464 17.9386C77.663 17.7718 77.663 17.6606 77.8021 17.5216C79.2757 15.8811 80.7215 14.2406 82.1952 12.5724C82.2508 12.5168 82.3064 12.4612 82.3064 12.3499C81.8893 12.4612 81.4444 12.5724 81.0274 12.6836C79.2479 13.1285 77.4684 13.5733 75.7167 14.046C75.5499 14.1016 75.4665 14.046 75.3831 13.907C74.3821 12.2943 73.3533 10.6817 72.3524 9.06902C72.2968 8.98561 72.2412 8.9022 72.13 8.84659C72.0465 9.26365 71.9631 9.70852 71.8797 10.1256C71.6017 11.6548 71.3236 13.1563 71.0456 14.6855C71.0178 14.8523 70.9622 15.0192 70.9622 15.186C70.9344 15.3528 70.851 15.4084 70.7119 15.4362C68.6266 16.0757 66.5413 16.6874 64.4559 17.3269C64.3725 17.3547 64.2613 17.3826 64.1779 17.466C65.874 18.1055 67.5978 18.7728 69.3217 19.4401C69.2661 19.4957 69.2105 19.5235 69.1827 19.5513C68.1261 20.2186 67.0417 20.8859 65.9852 21.5254C65.8462 21.6088 65.7627 21.6088 65.6237 21.5532C64.3447 20.9971 63.0657 20.4688 61.7867 19.9128C61.2028 19.6625 60.7023 19.3289 60.2853 18.884C59.3677 17.8274 59.5623 16.604 60.7579 15.8811C61.1472 15.6309 61.5921 15.464 62.0647 15.325C64.1223 14.6855 66.1798 14.0738 68.2095 13.4621C68.3764 13.4065 68.4598 13.3231 68.4876 13.1563C68.7656 11.627 69.0437 10.1256 69.3217 8.59635C69.4885 7.79002 69.5441 6.95589 69.9612 6.20517C70.128 5.92712 70.3227 5.64908 70.5451 5.39884C71.3514 4.5369 72.4914 4.50909 73.3534 5.31542C73.6314 5.59347 73.8816 5.92712 74.1041 6.26077C75.0494 7.73441 75.9948 9.23585 76.9123 10.7373C77.0235 10.9041 77.1348 10.9597 77.3294 10.9041C79.6093 10.3202 81.9171 9.73633 84.1971 9.15244C84.6698 9.04122 85.1424 8.98561 85.6429 9.06902C86.6995 9.26365 87.1722 10.0422 86.8107 11.0153C86.6439 11.4602 86.3658 11.8495 86.06 12.1831C84.4473 13.9904 82.8625 15.7977 81.2498 17.5772C81.1108 17.7162 81.1108 17.8274 81.1942 17.9942C82.1396 19.7181 83.1127 21.4698 84.0581 23.1937C84.2805 23.6107 84.4473 24.0278 84.4751 24.5283C84.4751 25.6127 83.6688 26.5024 82.5288 26.6414C81.8893 26.7248 81.3054 26.6136 80.7215 26.419C79.2757 26.0019 77.8577 25.5849 76.4118 25.1678C76.2728 25.14 76.2172 25.0844 76.2172 24.9454C76.0504 23.9722 75.8836 22.999 75.6889 22.0259C75.6889 21.9981 75.6889 21.9703 75.6889 21.9147C77.3572 22.3595 78.9698 22.7766 80.6659 23.2215Z" fill="#E25A1C"/>
<path d="M78.0525 38.3472C76.8013 38.3472 75.5223 38.3472 74.2711 38.3472C74.1042 38.3472 74.0208 38.2916 73.9096 38.1525C72.4082 35.8448 70.9067 33.537 69.4053 31.257C69.3497 31.1736 69.2941 31.118 69.2106 30.979C68.877 33.4536 68.5711 35.9004 68.2653 38.3194H64.9844C65.0122 37.9857 65.0678 37.6799 65.0956 37.374C65.4292 34.8716 65.7351 32.397 66.0687 29.8946C66.3746 27.5034 66.6804 25.1401 66.9863 22.7489C66.9863 22.6655 67.0419 22.5821 67.0975 22.5543C68.2375 21.8035 69.3775 21.0528 70.5175 20.3021C70.5453 20.3021 70.5453 20.3021 70.6287 20.2743C70.295 22.9435 69.9336 25.5849 69.5999 28.2264L69.6277 28.2542C71.4072 26.2522 73.2145 24.2225 75.0218 22.1928C75.0774 22.4986 75.133 22.7767 75.1608 23.0269C75.2998 23.7777 75.411 24.5562 75.5501 25.3069C75.5779 25.4459 75.5501 25.5571 75.4388 25.6684C74.2711 26.8917 73.1311 28.1151 71.9633 29.3663C71.9077 29.422 71.8521 29.4776 71.7965 29.5332C71.8243 29.5888 71.8521 29.6444 71.9077 29.7C73.9096 32.5361 75.8837 35.3721 77.8856 38.1804C77.9134 38.236 77.969 38.2638 78.0247 38.3194V38.3472" fill="#3C3A3E"/>
<path d="M30.3676 37.2628C30.2841 37.9857 30.1729 38.6808 30.0895 39.3481C29.9783 40.2656 29.8671 41.1554 29.7281 42.0729C29.7281 42.1841 29.6725 42.2397 29.5612 42.2119C28.6715 42.2119 27.7817 42.2119 26.892 42.2119C26.8642 42.2119 26.8642 42.2119 26.8086 42.1841C26.8642 41.7671 26.9198 41.3222 26.9754 40.9051C27.1701 39.4037 27.3647 37.8744 27.5593 36.373C27.7817 34.6491 27.9764 32.9253 28.2544 31.2014C28.8105 28.1707 31.3407 25.5571 34.3436 24.9176C36.0675 24.5283 37.7357 24.7229 39.2372 25.6961C40.7386 26.6693 41.6006 28.1151 41.7952 29.8946C42.0732 32.4248 41.1557 34.5379 39.3762 36.2896C38.2084 37.4296 36.8182 38.1525 35.2055 38.4027C33.5373 38.653 31.9802 38.3749 30.5622 37.374C30.5066 37.3462 30.4788 37.3184 30.3676 37.2628ZM38.9035 30.9789C38.8479 30.7287 38.8201 30.3394 38.7089 30.0058C38.1806 28.3097 36.4567 27.3922 34.6773 27.8092C32.7309 28.2541 31.3407 29.8112 31.1461 31.8131C31.0071 33.2867 31.7856 34.7325 33.2592 35.2608C34.4548 35.7057 35.5948 35.5111 36.6514 34.8716C38.0416 34.0374 38.8201 32.7584 38.9035 30.9789Z" fill="#3C3A3E"/>
<path d="M28.9773 22.6112C27.9207 23.3619 26.8919 24.0848 25.891 24.8077C25.7242 24.5575 25.5851 24.3073 25.4183 24.0848C24.9456 23.5009 24.3895 23.0561 23.5832 23.0005C22.9159 22.9448 22.3598 23.1673 21.8871 23.64C21.4701 24.057 21.4423 24.6687 21.8037 25.1414C22.2208 25.6697 22.6657 26.1702 23.1383 26.6428C23.9169 27.4492 24.7232 28.2277 25.4739 29.034C26.169 29.7569 26.7251 30.5911 26.8919 31.592C27.1422 32.7876 26.8919 33.8998 26.3081 34.9564C25.2237 36.9027 23.4998 38.0149 21.2476 38.3763C20.2467 38.5431 19.2457 38.4875 18.2726 38.2373C16.9658 37.8758 16.076 37.0695 15.4921 35.9017C15.2975 35.4847 15.1307 35.0676 14.936 34.6227C16.076 34.0388 17.1604 33.4827 18.3004 32.8988C18.3282 32.9823 18.356 33.0657 18.4116 33.1213C18.6062 33.4827 18.7452 33.872 18.9955 34.2056C19.6906 35.2066 20.8306 35.5125 21.9706 35.012C22.2764 34.873 22.5545 34.7061 22.8047 34.5115C23.5554 33.872 23.6944 33.0101 23.1383 32.2037C22.8325 31.7589 22.4432 31.3418 22.054 30.9247C21.1364 29.9516 20.1911 29.0062 19.3013 28.0053C18.6896 27.3101 18.2726 26.5316 18.1335 25.6141C17.9945 24.6131 18.1892 23.6678 18.7452 22.8336C20.0521 20.7761 21.9984 19.6917 24.5842 19.8029C26.0578 19.8586 27.2534 20.5259 28.1431 21.6102C28.449 21.9439 28.6992 22.2775 28.9773 22.6112Z" fill="#3C3A3E"/>
<path d="M52.9166 34.2877C52.7498 35.5667 52.583 36.8179 52.4162 38.0413C52.4162 38.0969 52.3605 38.1803 52.3049 38.2081C49.8025 39.3759 46.5494 39.2091 44.4919 36.8735C43.3797 35.6223 42.9348 34.1209 42.9904 32.4526C43.1573 28.6156 46.2992 25.2513 50.0806 24.7786C52.2771 24.5005 54.2234 25.1122 55.7249 26.8361C56.7536 28.0039 57.2263 29.4219 57.1429 30.979C57.0873 32.0077 56.9483 33.0365 56.8093 34.0375C56.6424 35.4833 56.42 36.9291 56.2532 38.3749C56.2532 38.4306 56.2254 38.4862 56.2254 38.5418H53.2503C53.2781 38.2081 53.3337 37.8745 53.3615 37.5686C53.5839 35.9004 53.8064 34.2321 54.001 32.5638C54.1122 31.5351 54.0566 30.4785 53.5839 29.5331C53.0835 28.5044 52.2493 27.9761 51.1371 27.8371C48.8572 27.5868 46.6606 29.1995 46.1602 31.4794C45.8265 32.9809 46.3548 34.4267 47.5226 35.2052C48.6904 35.9838 49.9138 35.9838 51.165 35.4833C51.8601 35.233 52.4162 34.816 52.9166 34.2877Z" fill="#3C3A3E"/>
<path d="M65.8182 24.7231C65.6791 25.7518 65.5401 26.7806 65.4011 27.8093C64.7338 27.8093 64.0943 27.8093 63.4548 27.8093C62.9265 27.8093 62.4538 28.143 62.3148 28.5879C62.2592 28.7825 62.2314 28.9771 62.2036 29.144C61.8699 31.5073 61.5641 33.8707 61.2304 36.2341C61.147 36.818 61.0636 37.4297 60.9802 38.0414H57.7549C57.8105 37.5965 57.8661 37.1516 57.9217 36.7068C58.1441 35.1775 58.3388 33.6483 58.5612 32.119C58.7558 30.7844 58.8949 29.4776 59.1173 28.143C59.3953 26.3635 61.2582 24.8065 63.1211 24.7231C64.0109 24.6952 64.9006 24.7231 65.8182 24.7231Z" fill="#3C3A3E"/>
<path d="M79.0252 36.8736V38.0692H78.775V36.8736H78.3301V36.679H79.4979V36.8736H79.0252ZM81.1383 38.0692V36.9014L80.6656 38.0692H80.5266L80.054 36.9014V38.0692H79.8037V36.679H80.1652L80.61 37.7355L81.0271 36.679H81.3886V38.0692H81.1383Z" fill="#3C3A3E"/>
<path d="M33.5093 20.6635H32.3137L31.9244 21.3865H31.0625L32.9532 18.0499H33.7873L34.399 21.3865H33.6205L33.5093 20.6635ZM32.6474 19.9962H33.3703L33.2034 18.9675L32.6474 19.9962Z" fill="#3C3A3E"/>
<path d="M36.9017 18.0499H38.1529C38.8202 18.0499 39.2651 18.3836 39.2651 18.9675C39.2651 19.6904 38.6534 20.1631 37.8192 20.1631H37.2909L37.0407 21.3865H36.2344L36.9017 18.0499ZM38.0695 18.7172H37.5968L37.43 19.4958H37.9026C38.1807 19.4958 38.4309 19.3289 38.4309 19.0231C38.4309 18.8285 38.2919 18.7172 38.0695 18.7172Z" fill="#3C3A3E"/>
<path d="M42.6851 20.6635H41.4895L41.1002 21.3865H40.2383L42.129 18.0499H42.9631L43.6026 21.3865H42.8241L42.6851 20.6635ZM41.8231 19.9962H42.5461L42.3792 18.9675L41.8231 19.9962Z" fill="#3C3A3E"/>
<path d="M47.7729 21.2196C47.4948 21.3309 47.189 21.3865 46.9109 21.3865C45.8822 21.3865 45.2427 20.747 45.2427 19.9406C45.2427 18.9119 46.2714 18.0499 47.4948 18.0499C47.8007 18.0499 48.0787 18.1055 48.3012 18.2168L48.1899 18.9953C48.0231 18.8285 47.7451 18.7172 47.4114 18.7172C46.7163 18.7172 46.0768 19.2455 46.0768 19.8572C46.0768 20.3299 46.4383 20.6913 46.9944 20.6913C47.328 20.6913 47.6617 20.5801 47.8841 20.4411L47.7729 21.2196Z" fill="#3C3A3E"/>
<path d="M51.7213 20.0518H50.3311L50.0809 21.3865H49.4136L49.9975 18.0499H50.6648L50.4423 19.3567H51.8326L52.0828 18.0499H52.7501L52.1662 21.3865H51.4989L51.7213 20.0518Z" fill="#3C3A3E"/>
<path d="M54.6963 21.3865L55.447 18.0499H57.7548L57.6158 18.7172H56.1699L56.0031 19.3567H57.3377L57.1987 20.0518H55.8641L55.7251 20.7192H57.1709L57.0041 21.3865H54.6963Z" fill="#3C3A3E"/>
</svg>
