<svg data-slug-id="speaker-recognition" xmlns="http://www.w3.org/2000/svg" viewBox="0 0 61 61">
<path d="M18.2062 29.9132L24.0847 35.7918L40.4697 19.3652L42.4709 21.3664L24.043 39.7942L16.1216 31.8728L18.2062 29.9132ZM45.0141 43.0462C43.6382 43.0045 42.4292 42.0456 42.2207 40.7531C41.9706 39.2522 43.0545 37.8764 44.6805 37.6262C46.2648 37.4178 48.0576 38.2099 48.4745 40.2945C48.8914 43.2963 46.5567 45.7562 43.0546 46.0897C42.9295 46.0897 42.8878 46.048 42.8878 46.048L42.721 45.1308C42.721 45.1308 42.721 45.0474 42.8044 45.0057C43.805 44.6722 44.6805 44.2136 45.0141 43.0462ZM37.1343 43.0462C35.7585 43.0045 34.5494 42.0456 34.3409 40.7531C34.0908 39.2522 35.1748 37.8764 36.8008 37.6262C38.3851 37.4178 40.1778 38.2099 40.5947 40.2945C41.0116 43.2963 38.6769 45.7562 35.1748 46.0897C35.0497 46.0897 35.008 46.048 35.008 46.048L34.8412 45.1308C34.8412 45.1308 34.8412 45.0474 34.9246 45.0057C35.9669 44.6722 36.8425 44.2136 37.1343 43.0462ZM24.3349 17.1138C25.7107 17.1555 26.9198 18.1144 27.1282 19.4069C27.3784 20.9078 26.2944 22.2836 24.6684 22.5338C23.0841 22.7422 21.2914 21.9501 20.8745 19.8655C20.4575 16.8637 22.7923 14.4038 26.2944 14.0703C26.4195 14.0703 26.4612 14.112 26.4612 14.112L26.6279 15.0292C26.6279 15.0292 26.6279 15.1126 26.5446 15.1543C25.5439 15.4461 24.6684 15.9048 24.3349 17.1138ZM16.4968 17.1138C17.8726 17.1555 19.0817 18.1144 19.2902 19.4069C19.5403 20.9078 18.4563 22.2836 16.8303 22.5338C15.246 22.7422 13.4533 21.9501 13.0364 19.8655C12.6195 16.8637 14.9542 14.4038 18.4563 14.0703C18.5814 14.0703 18.6231 14.112 18.6231 14.112L18.7899 15.0292C18.7899 15.0292 18.7899 15.1126 18.7065 15.1543C17.6642 15.4461 16.8303 15.9048 16.4968 17.1138Z" fill="#0078D4"></path>
</svg>