<svg data-slug-id="circle-lightning" xmlns="http://www.w3.org/2000/svg" viewBox="0 0 49 49"><path d="M26.0048 3.33008V8.47149C30.2851 8.75853 34.1771 10.4554 37.2163 13.1064L40.8297 9.49302C36.8702 5.905 31.7034 3.62556 26.0048 3.33008Z" fill="#50E6FF"/><path d="M6.83211 11.2993C3.27786 15.2757 1.02375 20.434 0.745148 26.1241H5.77681C6.06385 21.8439 7.77765 17.9435 10.437 14.9042L6.83211 11.2993Z" fill="#0078D4"/><path d="M23.4721 3.32129C17.7819 3.61677 12.6152 5.89622 8.64726 9.47579L12.2606 13.0891C15.2999 10.4382 19.1918 8.7413 23.4721 8.4627V3.32129Z" fill="#0078D4"/><path d="M0.753666 28.6572C1.06603 34.3221 3.34548 39.4635 6.91661 43.4061L10.4202 39.9025C7.76084 36.8548 6.05548 32.946 5.77688 28.6572H0.753666V28.6572Z" fill="#0078D7"/><path d="M48.7064 28.6572H43.6832C43.4046 32.946 41.7077 36.8463 39.0568 39.894L42.5604 43.3976C46.123 39.4466 48.394 34.3136 48.7064 28.6572Z" fill="#50E6FF"/><path d="M42.6448 11.3164L39.0399 14.9213C41.6908 17.9606 43.3961 21.8441 43.6832 26.1243H48.7148C48.4362 20.4426 46.1906 15.2843 42.6448 11.3164Z" fill="#50E6FF"/><path d="M32.7924 27.4329H26.7392V17.4287L16.6675 27.5005H22.7206V37.5047L32.7924 27.4329Z" fill="#0078D4"/></svg>