<svg data-slug-id="speech-api" xmlns="http://www.w3.org/2000/svg" viewBox="0 0 61 61">
<path d="M23.3652 26.2734C23.9751 26.2734 24.5381 26.4611 24.9135 26.8834C25.3357 27.3056 25.5234 27.8217 25.5234 28.4316C25.5234 29.0415 25.3357 29.6045 24.9135 29.9799C24.4912 30.4021 23.9751 30.5898 23.3652 30.5898C22.7553 30.5898 22.1923 30.3552 21.8169 29.933C21.4416 29.5107 21.207 28.9946 21.207 28.3847C21.207 27.7748 21.3947 27.2587 21.8169 26.8364C22.2392 26.4611 22.7553 26.2734 23.3652 26.2734ZM30.825 26.2734C31.4349 26.2734 31.9979 26.4611 32.3732 26.8834C32.7955 27.3056 32.9832 27.8217 32.9832 28.4316C32.9832 29.0415 32.7955 29.6045 32.3732 29.9799C31.951 30.4021 31.4349 30.5898 30.825 30.5898C30.2151 30.5898 29.6521 30.3552 29.2767 29.933C28.9014 29.5107 28.6668 28.9946 28.6668 28.3847C28.6668 27.7748 28.8545 27.2587 29.2767 26.8364C29.6521 26.4611 30.2151 26.2734 30.825 26.2734ZM38.2379 26.2734C38.8478 26.2734 39.4108 26.4611 39.7861 26.8834C40.2084 27.3056 40.396 27.8217 40.396 28.4316C40.396 29.0415 40.2084 29.6045 39.7861 29.9799C39.3639 30.4021 38.8478 30.5898 38.2379 30.5898C37.6279 30.5898 37.0649 30.3552 36.6896 29.933C36.3143 29.5107 36.0797 28.9946 36.0797 28.3847C36.0797 27.7748 36.2673 27.2587 36.6896 26.8364C37.1118 26.4611 37.6279 26.2734 38.2379 26.2734Z" fill="#0078D4"></path>
<path d="M45.916 28.2929C45.916 33.6883 41.5996 38.0985 36.298 38.0985H25.1318C24.8972 38.0985 24.6626 38.0985 24.475 38.0516L18.235 40.7259L19.924 36.4564C17.2967 34.7674 15.5608 31.7647 15.5608 28.2929V27.4953C15.5608 22.0999 19.8771 17.6897 25.1787 17.6897H36.3449C41.6465 17.6897 45.9629 22.0999 45.9629 27.4953V28.2929H45.916ZM36.3449 15.25H25.1787C18.5165 15.25 13.1211 20.7862 13.1211 27.5422V28.3398C13.1211 31.8117 14.5755 35.0489 16.9683 37.3478L13.731 45.4645L24.9441 40.5851C25.038 40.5851 25.0849 40.5851 25.1787 40.5851H36.3449C43.0071 40.5851 48.4026 35.0489 48.4026 28.2929V27.4953C48.4026 20.7862 43.0071 15.25 36.3449 15.25Z" fill="#0078D4"></path>
</svg>