<?xml version="1.0" encoding="utf-8"?>
<!-- Generator: Adobe Illustrator 22.1.0, SVG Export Plug-In . SVG Version: 6.00 Build 0)  -->
<svg version="1.1" id="Layer_1" xmlns="http://www.w3.org/2000/svg" xmlns:xlink="http://www.w3.org/1999/xlink" x="0px" y="0px"
	 viewBox="0 0 207.7 140" style="enable-background:new 0 0 207.7 140;" xml:space="preserve">
<style type="text/css">
	.st0{fill:#389BD5;}
	.st1{fill:#389CD6;}
	.st2{fill:#FFFFFF;}
	.st3{opacity:0.2;}
	.st4{fill:#509DD5;}
	.st5{fill:none;}
</style>
<g>
	<path class="st0" d="M175.2,62.1h-23.7l1.2-1.2c0.4-0.4,0.4-1,0-1.4s-1-0.4-1.4,0l-2.5,2.6l-0.9,1c-0.1,0.1-0.2,0.3-0.2,0.5
		c-0.1,0.3,0,0.6,0.3,0.9l-0.6,0.6h27.9v26.5H75.7c0,0,0-0.1,0-0.1v-5c0-0.6-0.4-1-1-1c0,0,0,0,0,0c-0.1,0-0.3,0-0.4,0.1
		c0-0.3-0.2-0.5-0.4-0.7c0,0,0,0,0,0c-0.4-0.3-1.1-0.2-1.4,0.2l-2.9,4c-0.3,0.4-0.2,1.1,0.2,1.4c0,0,0,0,0,0
		c0.4,0.3,1.1,0.2,1.4-0.2l2.5-3.4v4.6c0,0,0,0.1,0,0.1c0.1,0.5,0.5,0.9,1,0.9c0,0,0,0,0,0v0.6v1.5h100.5h32.5V62.1H175.2z
		 M178.2,65.1h26.5v26.5h-26.5V65.1z"/>
	<path class="st0" d="M202.4,86.9l-5.2-5.1c0.9-1.3,1.4-2.8,1.4-4.5c0-4.4-3.6-7.9-7.9-7.9s-7.9,3.6-7.9,7.9c0,4.4,3.6,7.9,7.9,7.9
		c1.6,0,3.1-0.5,4.4-1.3l5.2,5.2L202.4,86.9z M185.8,77.2c0-2.7,2.2-4.9,4.9-4.9s4.9,2.2,4.9,4.9c0,2.7-2.2,4.9-4.9,4.9
		S185.8,79.9,185.8,77.2z"/>
	<path class="st0" d="M16.1,54.3c0.2,0,0.5-0.1,0.7-0.3c0,0,0,0,0,0c0.4-0.4,0.4-1,0.1-1.4l-1.6-1.8c-0.2-0.2-0.5-0.3-0.7-0.3h-2.6
		c-0.6,0-1,0.4-1,1c0,0,0,0,0,0c0,0.6,0.4,1,1,1h2.2l1.3,1.4C15.6,54.2,15.9,54.3,16.1,54.3z"/>
	<path class="st0" d="M1,38.5c0.6,0,1-0.4,1-1v-5c0-0.6-0.4-1-1-1s-1,0.4-1,1v5C0,38,0.4,38.5,1,38.5z"/>
	<path class="st0" d="M43.9,52.5c0.6,0,1-0.4,1-1c0,0,0,0,0,0c0-0.6-0.4-1-1-1h-5c-0.6,0-1,0.4-1,1c0,0,0,0,0,0c0,0.6,0.4,1,1,1
		H43.9z"/>
	<path class="st0" d="M63.9,52.5c0.6,0,1-0.4,1-1c0,0,0,0,0,0c0-0.6-0.4-1-1-1h-5c-0.6,0-1,0.4-1,1c0,0,0,0,0,0c0,0.6,0.4,1,1,1
		H63.9z"/>
	<path class="st0" d="M1,28.5c0.6,0,1-0.4,1-1v-5c0-0.6-0.4-1-1-1s-1,0.4-1,1v5C0,28,0.4,28.5,1,28.5z"/>
	<path class="st0" d="M1,18.5c0.6,0,1-0.4,1-1v-5c0-0.6-0.4-1-1-1s-1,0.4-1,1v5C0,18,0.4,18.5,1,18.5z"/>
	<path class="st0" d="M9.5,0h-5c-0.6,0-1,0.4-1,1c0,0,0,0,0,0c0,0.6,0.4,1,1,1h5c0.6,0,1-0.4,1-1c0,0,0,0,0,0C10.5,0.4,10.1,0,9.5,0
		z"/>
	<path class="st0" d="M1,8.5c0.6,0,1-0.4,1-1v-5c0-0.6-0.4-1-1-1s-1,0.4-1,1v5C0,8,0.4,8.5,1,8.5z"/>
	<path class="st0" d="M69.5,13.2c0.6,0,1-0.4,1-1v-5c0-0.6-0.4-1-1-1s-1,0.4-1,1v5C68.5,12.7,69,13.2,69.5,13.2z"/>
	<path class="st0" d="M68.5,42.2c0,0.6,0.4,1,1,1s1-0.4,1-1v-5c0-0.6-0.4-1-1-1s-1,0.4-1,1V42.2z"/>
	<path class="st0" d="M68.5,22.2c0,0.6,0.4,1,1,1s1-0.4,1-1v-5c0-0.6-0.4-1-1-1s-1,0.4-1,1V22.2z"/>
	<path class="st0" d="M68.5,50.6c-0.4,0.1-0.7,0.5-0.7,0.9c0,0,0,0,0,0c0,0.6,0.4,1,1,1h0.7c0.6,0,1-0.4,1-1v-4.3c0-0.6-0.4-1-1-1
		s-1,0.4-1,1V50.6z"/>
	<path class="st0" d="M68.5,32.2c0,0.6,0.4,1,1,1s1-0.4,1-1v-5c0-0.6-0.4-1-1-1s-1,0.4-1,1V32.2z"/>
	<path class="st0" d="M48.9,50.5c-0.6,0-1,0.4-1,1c0,0,0,0,0,0c0,0.6,0.4,1,1,1h5c0.6,0,1-0.4,1-1c0,0,0,0,0,0c0-0.6-0.4-1-1-1H48.9
		z"/>
	<path class="st0" d="M28.9,52.5C28.9,52.5,28.9,52.5,28.9,52.5l5,0c0.6,0,1-0.4,1-1c0,0,0,0,0,0c0-0.6-0.4-1-1-1h-5
		c-0.6,0-1,0.4-1,1C27.9,52.1,28.3,52.5,28.9,52.5z"/>
	<path class="st0" d="M2,47.5v-5c0-0.6-0.4-1-1-1s-1,0.4-1,1v5c0,0.6,0.4,1,1,1S2,48,2,47.5z"/>
	<path class="st0" d="M6.9,50.5h-5c-0.4,0-0.8,0.3-0.9,0.6c0,0.1-0.1,0.2-0.1,0.4c0,0.6,0.4,1,1,1h5c0.6,0,1-0.4,1-1c0,0,0,0,0,0
		C7.9,51,7.5,50.5,6.9,50.5z"/>
	<path class="st0" d="M18.8,56.3C18.8,56.3,18.8,56.3,18.8,56.3c-0.4,0.4-0.4,1-0.1,1.4l3.3,3.7c0.2,0.2,0.5,0.3,0.7,0.3
		c0.2,0,0.5-0.1,0.7-0.3c0,0,0,0,0,0c0.4-0.4,0.4-1,0.1-1.4l-3.3-3.7C19.9,56,19.2,55.9,18.8,56.3z"/>
	<path class="st0" d="M64.5,2h4v0.2c0,0.6,0.4,1,1,1s1-0.4,1-1V1c0-0.6-0.4-1-1-1h-5c-0.6,0-1,0.4-1,1c0,0,0,0,0,0
		C63.5,1.6,64,2,64.5,2z"/>
	<path class="st0" d="M14.5,2h5c0.6,0,1-0.4,1-1c0,0,0,0,0,0c0-0.6-0.4-1-1-1h-5c-0.6,0-1,0.4-1,1c0,0,0,0,0,0C13.5,1.6,14,2,14.5,2
		z"/>
	<path class="st0" d="M44.5,2h5c0.6,0,1-0.4,1-1c0,0,0,0,0,0c0-0.6-0.4-1-1-1h-5c-0.6,0-1,0.4-1,1c0,0,0,0,0,0C43.5,1.6,44,2,44.5,2
		z"/>
	<path class="st0" d="M34.5,2h5c0.6,0,1-0.4,1-1c0,0,0,0,0,0c0-0.6-0.4-1-1-1h-5c-0.6,0-1,0.4-1,1c0,0,0,0,0,0C33.5,1.6,34,2,34.5,2
		z"/>
	<path class="st0" d="M54.5,2h5c0.6,0,1-0.4,1-1c0,0,0,0,0,0c0-0.6-0.4-1-1-1h-5c-0.6,0-1,0.4-1,1c0,0,0,0,0,0C53.5,1.6,54,2,54.5,2
		z"/>
	<path class="st0" d="M24.5,2h5c0.6,0,1-0.4,1-1c0,0,0,0,0,0c0-0.6-0.4-1-1-1h-5c-0.6,0-1,0.4-1,1c0,0,0,0,0,0C23.5,1.6,24,2,24.5,2
		z"/>
	<path class="st0" d="M15.7,22.1v3.2c1.4-1,3-1.4,4.6-1.4c1.6,0,2.4,0.7,2.4,2.2L19,26.6c-3.1,0.4-4.7,1.9-4.7,4.6
		c0,1.2,0.4,2.2,1.1,3c0.8,0.7,1.8,1.1,3.1,1.1c1.8,0,3.1-0.8,4-2.3h0.1v1.9h4v-8.1c0-3.9-1.9-5.8-5.8-5.8c-0.8,0-1.7,0.1-2.8,0.4
		C17,21.6,16.2,21.9,15.7,22.1z M22.7,29.4c0,0.8-0.2,1.5-0.7,2.1s-1.1,0.8-1.9,0.8c-0.6,0-1-0.2-1.4-0.5s-0.5-0.7-0.5-1.2
		c0-1.1,0.7-1.7,2-1.8l2.5-0.3V29.4z"/>
	<path class="st0" d="M34.2,23.4L34.2,23.4l-0.1-8.6h-4.2v20.1h4.2v-1.6h0.1c0.8,1.3,2.1,1.9,3.8,1.9c1.2,0,2.3-0.3,3.2-0.9
		c0.9-0.6,1.6-1.5,2.1-2.6c0.5-1.1,0.7-2.4,0.7-3.9c0-2.1-0.5-3.8-1.4-5c-1-1.2-2.3-1.8-4-1.8C36.7,21,35.2,21.8,34.2,23.4z
		 M39,25.1c0.5,0.6,0.7,1.5,0.7,2.6c0,1.4-0.3,2.4-0.8,3.1c-0.5,0.7-1.3,1.1-2.2,1.1c-0.8,0-1.5-0.3-1.9-0.9
		c-0.5-0.6-0.7-1.3-0.7-2.2v-1.4c0-1,0.3-1.8,0.8-2.4c0.5-0.6,1.2-0.9,2.1-0.9C37.9,24.2,38.6,24.5,39,25.1z"/>
	<path class="st0" d="M54.1,24.2c1.1,0,2,0.3,2.9,1v-3.6c-0.7-0.4-1.9-0.6-3.5-0.6c-2.3,0-4.2,0.7-5.6,2c-1.4,1.3-2.1,3.2-2.1,5.4
		c0,1.3,0.3,2.5,0.9,3.5c0.6,1,1.4,1.8,2.5,2.4c1.1,0.6,2.3,0.9,3.6,0.9c1.8,0,3.1-0.3,4.1-0.8V31c-1,0.7-2,1-3.1,1
		c-1.2,0-2.1-0.3-2.8-1s-1-1.6-1-2.8c0-1.2,0.3-2.2,1-2.9C51.9,24.6,52.9,24.2,54.1,24.2z"/>
	<path class="st0" d="M129.9,55.1c0.6,0,1-0.4,1-1s-0.4-1-1-1h-5c-0.6,0-1,0.4-1,1s0.4,1,1,1H129.9z"/>
	<path class="st0" d="M139.9,55.1c0.6,0,1-0.4,1-1s-0.4-1-1-1h-5c-0.6,0-1,0.4-1,1s0.4,1,1,1H139.9z"/>
	<path class="st0" d="M108,27c0.6,0,1-0.4,1-1v-5c0-0.6-0.4-1-1-1s-1,0.4-1,1v5C107,26.5,107.5,27,108,27z"/>
	<path class="st0" d="M108,47c0.6,0,1-0.4,1-1v-5c0-0.6-0.4-1-1-1s-1,0.4-1,1v5C107,46.5,107.5,47,108,47z"/>
	<path class="st0" d="M108,37c0.6,0,1-0.4,1-1v-5c0-0.6-0.4-1-1-1s-1,0.4-1,1v5C107,36.5,107.5,37,108,37z"/>
	<path class="st0" d="M155.5,57.6c0.3,0,0.5-0.1,0.7-0.3l2.1-2.2h1.2c0.6,0,1-0.4,1-1s-0.4-1-1-1h-1.6c-0.3,0-0.5,0.1-0.7,0.3
		l-2.4,2.5c-0.4,0.4-0.4,1,0,1.4v0C155,57.5,155.2,57.6,155.5,57.6z"/>
	<path class="st0" d="M114.9,55.1h5c0.6,0,1-0.4,1-1s-0.4-1-1-1h-5c-0.6,0-1,0.4-1,1S114.3,55.1,114.9,55.1z"/>
	<path class="st0" d="M108,55.1h1.8c0.6,0,1-0.4,1-1s-0.4-1-1-1H109V51c0-0.6-0.4-1-1-1s-1,0.4-1,1v3.2
		C107,54.7,107.5,55.1,108,55.1z"/>
	<path class="st0" d="M171.5,35.2c0-0.6-0.4-1-1-1s-1,0.4-1,1v5c0,0.6,0.4,1,1,1s1-0.4,1-1V35.2z"/>
	<path class="st0" d="M170.5,44.2c-0.6,0-1,0.4-1,1v5c0,0.6,0.4,1,1,1s1-0.4,1-1v-5C171.5,44.7,171.1,44.2,170.5,44.2z"/>
	<path class="st0" d="M171.5,25.2c0-0.6-0.4-1-1-1s-1,0.4-1,1v5c0,0.6,0.4,1,1,1s1-0.4,1-1V25.2z"/>
	<path class="st0" d="M108,17c0.6,0,1-0.4,1-1v-1.5h1.5c0.6,0,1-0.4,1-1c0,0,0,0,0,0c0-0.6-0.4-1-1-1H108c-0.6,0-1,0.4-1,1V16
		C107,16.5,107.5,17,108,17z"/>
	<path class="st0" d="M164.4,55.1h5c0.6,0,1-0.4,1-1s-0.4-1-1-1h-5c-0.6,0-1,0.4-1,1S163.9,55.1,164.4,55.1z"/>
	<path class="st0" d="M143.7,69.4c0.1,0,0.2,0.1,0.4,0.1c0.3,0,0.5-0.1,0.7-0.3l1-1.1c0.4-0.4,0.4-1,0-1.4c-0.2-0.2-0.5-0.3-0.7-0.3
		v-1.3V65c0-0.6-0.4-1-1-1v-0.3v-1.5H29.6c0.1-0.2,0.2-0.4,0.2-0.6v-5c0-0.6-0.4-1-1-1c0,0,0,0,0,0c-0.6,0-1,0.4-1,1v5
		c0,0.2,0.1,0.4,0.2,0.6c0.2,0.2,0.5,0.4,0.8,0.4v1.1v1.5H143v3.3C143,68.9,143.3,69.3,143.7,69.4z"/>
	<path class="st0" d="M125.5,14.5h5c0.6,0,1-0.4,1-1c0,0,0,0,0,0c0-0.6-0.4-1-1-1h-5c-0.6,0-1,0.4-1,1c0,0,0,0,0,0
		C124.5,14,125,14.5,125.5,14.5z"/>
	<path class="st0" d="M115.5,14.5h5c0.6,0,1-0.4,1-1c0,0,0,0,0,0c0-0.6-0.4-1-1-1h-5c-0.6,0-1,0.4-1,1c0,0,0,0,0,0
		C114.5,14,115,14.5,115.5,14.5z"/>
	<path class="st0" d="M145,60v-5c0-0.6-0.4-1-1-1c-0.2,0-0.4,0.1-0.5,0.2c-0.3,0.2-0.5,0.5-0.5,0.8v5c0,0.6,0.4,1,1,1
		S145,60.5,145,60z"/>
	<path class="st0" d="M135.5,14.5h5c0.6,0,1-0.4,1-1c0,0,0,0,0,0c0-0.6-0.4-1-1-1h-5c-0.6,0-1,0.4-1,1c0,0,0,0,0,0
		C134.5,14,135,14.5,135.5,14.5z"/>
	<path class="st0" d="M145.5,14.5h5c0.6,0,1-0.4,1-1c0,0,0,0,0,0c0-0.6-0.4-1-1-1h-5c-0.6,0-1,0.4-1,1c0,0,0,0,0,0
		C144.5,14,145,14.5,145.5,14.5z"/>
	<path class="st0" d="M165.5,14.5h4.3c-0.2,0.2-0.3,0.5-0.3,0.8v5c0,0.6,0.4,1,1,1s1-0.4,1-1v-5c0-0.4-0.2-0.7-0.5-0.9
		c0.3-0.2,0.5-0.5,0.5-0.9c0-0.6-0.4-1-1-1h-5c-0.6,0-1,0.4-1,1c0,0,0,0,0,0C164.5,14,165,14.5,165.5,14.5z"/>
	<path class="st0" d="M155.5,14.5h5c0.6,0,1-0.4,1-1c0,0,0,0,0,0c0-0.6-0.4-1-1-1h-5c-0.6,0-1,0.4-1,1c0,0,0,0,0,0
		C154.5,14,155,14.5,155.5,14.5z"/>
	<path class="st0" d="M121.2,39.3c0.5,0.9,1.3,1.6,2.2,2.1c0.9,0.5,2,0.8,3.2,0.8c1.6,0,2.8-0.2,3.6-0.7v-3
		c-0.9,0.6-1.8,0.9-2.7,0.9c-1,0-1.8-0.3-2.4-0.9c-0.6-0.6-0.9-1.4-0.9-2.5s0.3-1.9,0.9-2.5c0.6-0.6,1.4-1,2.5-1
		c0.9,0,1.8,0.3,2.6,0.9v-3.1c-0.6-0.4-1.6-0.6-3-0.6c-2,0-3.7,0.6-4.9,1.8c-1.2,1.2-1.8,2.8-1.8,4.8
		C120.4,37.3,120.6,38.4,121.2,39.3z"/>
	<path class="st0" d="M136.2,40.5L136.2,40.5c0.8,1.1,1.9,1.7,3.4,1.7c1.1,0,2-0.3,2.8-0.8c0.8-0.5,1.4-1.3,1.9-2.3
		c0.4-1,0.7-2.1,0.7-3.4c0-1.9-0.4-3.3-1.3-4.3c-0.8-1-2-1.6-3.5-1.6c-1.7,0-3,0.7-3.9,2.1h0v-7.5h-3.7v17.6h3.7V40.5z M136.1,35.4
		c0-0.9,0.2-1.6,0.7-2.1s1.1-0.8,1.8-0.8c0.8,0,1.4,0.3,1.8,0.8c0.4,0.5,0.6,1.3,0.6,2.3c0,1.2-0.2,2.1-0.7,2.7s-1.1,1-2,1
		c-0.7,0-1.3-0.3-1.7-0.8c-0.4-0.5-0.7-1.1-0.7-1.9V35.4z"/>
	<path class="st0" d="M147.6,30.7v2.8c1.3-0.8,2.6-1.3,4-1.3c1.4,0,2.1,0.7,2.1,2l-3.2,0.4c-2.7,0.4-4.1,1.7-4.1,4
		c0,1.1,0.3,2,1,2.6s1.6,1,2.7,1c1.6,0,2.7-0.7,3.5-2h0v1.7h3.5v-7.1c0-3.4-1.7-5.1-5.1-5.1c-0.7,0-1.5,0.1-2.4,0.3
		C148.7,30.2,148,30.4,147.6,30.7z M153.7,37c0,0.7-0.2,1.3-0.7,1.8c-0.4,0.5-1,0.7-1.7,0.7c-0.5,0-0.9-0.1-1.2-0.4
		c-0.3-0.3-0.4-0.6-0.4-1c0-0.9,0.6-1.5,1.8-1.6l2.2-0.3V37z"/>
	<path class="st0" d="M112.5,104.3c-0.6,0-1,0.4-1,1v5c0,0.6,0.4,1,1,1s1-0.4,1-1v-5C113.5,104.8,113.1,104.3,112.5,104.3z"/>
	<path class="st0" d="M74.7,95.5C74.7,95.5,74.7,95.5,74.7,95.5c-0.6,0-1,0.4-1,1v5c0,0.6,0.4,1,1,1c0.3,0,0.7-0.2,0.8-0.4
		c0.2,0.3,0.5,0.4,0.8,0.4h5c0.6,0,1-0.4,1-1c0,0,0,0,0,0c0-0.6-0.4-1-1-1h-5c-0.3,0-0.5,0.1-0.7,0.3v-4.3
		C75.7,95.9,75.3,95.5,74.7,95.5z"/>
	<path class="st0" d="M112.5,134.3c-0.6,0-1,0.4-1,1v2.7h-0.3c-0.6,0-1,0.4-1,1c0,0,0,0,0,0c0,0.6,0.4,1,1,1h1.3c0.6,0,1-0.4,1-1
		v-3.7C113.5,134.8,113.1,134.3,112.5,134.3z"/>
	<path class="st0" d="M112.5,114.3c-0.6,0-1,0.4-1,1v5c0,0.6,0.4,1,1,1s1-0.4,1-1v-5C113.5,114.8,113.1,114.3,112.5,114.3z"/>
	<path class="st0" d="M112.5,124.3c-0.6,0-1,0.4-1,1v5c0,0.6,0.4,1,1,1s1-0.4,1-1v-5C113.5,124.8,113.1,124.3,112.5,124.3z"/>
	<path class="st0" d="M63.7,97.2c-0.3,0.4-0.2,1.1,0.2,1.4v0c0.2,0.1,0.4,0.2,0.6,0.2c0.3,0,0.6-0.1,0.8-0.4l2.8-3.8l0.2-0.2
		c0.3-0.4,0.2-0.9-0.1-1.3c0,0-0.1-0.1-0.1-0.1l1-1.4H17.4V65.1h8c0,0,0,0,0,0l2.7,3c0.2,0.2,0.5,0.3,0.7,0.3c0.1,0,0.2,0,0.4-0.1
		c0.4-0.1,0.6-0.5,0.6-0.9v-1c0-0.6-0.4-1-1-1c0,0,0,0,0,0c-0.1,0-0.2,0-0.4,0.1l-0.4-0.5l-1.2-1.3c-0.1-0.1-0.1-0.1-0.2-0.2
		c-0.3-0.2-0.7-0.2-1,0c-0.1,0-0.1,0.1-0.2,0.1c0,0,0,0,0,0l-0.1-0.1l-1.3-1.5h-9.7v32.5h51.3L63.7,97.2z"/>
	<path class="st0" d="M61.4,100.5h-5c-0.6,0-1,0.4-1,1c0,0,0,0,0,0c0,0.6,0.4,1,1,1h5c0.6,0,1-0.4,1-1c0-0.2-0.1-0.3-0.1-0.5
		C62.1,100.7,61.7,100.5,61.4,100.5z"/>
	<path class="st0" d="M51,102.5h0.3c0.6,0,1-0.4,1-1c0,0,0,0,0,0c0-0.6-0.4-1-1-1H50c-0.6,0-1,0.4-1,1v3.7c0,0.6,0.4,1,1,1
		s1-0.4,1-1V102.5z"/>
	<path class="st0" d="M51,110.1c0-0.6-0.4-1-1-1s-1,0.4-1,1v5c0,0.6,0.4,1,1,1s1-0.4,1-1V110.1z"/>
	<path class="st0" d="M76.2,138h-5c-0.6,0-1,0.4-1,1c0,0,0,0,0,0c0,0.6,0.4,1,1,1h5c0.6,0,1-0.4,1-1c0,0,0,0,0,0
		C77.2,138.4,76.8,138,76.2,138z"/>
	<path class="st0" d="M96.2,138h-5c-0.6,0-1,0.4-1,1c0,0,0,0,0,0c0,0.6,0.4,1,1,1h5c0.6,0,1-0.4,1-1c0,0,0,0,0,0
		C97.2,138.4,96.8,138,96.2,138z"/>
	<path class="st0" d="M106.2,138h-5c-0.6,0-1,0.4-1,1c0,0,0,0,0,0c0,0.6,0.4,1,1,1h5c0.6,0,1-0.4,1-1c0,0,0,0,0,0
		C107.2,138.4,106.8,138,106.2,138z"/>
	<path class="st0" d="M111.4,102.5c0.6,0,1-0.4,1-1c0,0,0,0,0,0c0-0.6-0.4-1-1-1h-5c-0.6,0-1,0.4-1,1c0,0,0,0,0,0c0,0.6,0.4,1,1,1
		H111.4z"/>
	<path class="st0" d="M101.4,102.5c0.6,0,1-0.4,1-1c0,0,0,0,0,0c0-0.6-0.4-1-1-1h-5c-0.6,0-1,0.4-1,1c0,0,0,0,0,0c0,0.6,0.4,1,1,1
		H101.4z"/>
	<path class="st0" d="M91.4,102.5c0.6,0,1-0.4,1-1c0,0,0,0,0,0c0-0.6-0.4-1-1-1h-5c-0.6,0-1,0.4-1,1c0,0,0,0,0,0c0,0.6,0.4,1,1,1
		H91.4z"/>
	<path class="st0" d="M50,119.1c-0.6,0-1,0.4-1,1v5c0,0.6,0.4,1,1,1s1-0.4,1-1v-5C51,119.6,50.6,119.1,50,119.1z"/>
	<path class="st0" d="M86.2,138h-5c-0.6,0-1,0.4-1,1c0,0,0,0,0,0c0,0.6,0.4,1,1,1h5c0.6,0,1-0.4,1-1c0,0,0,0,0,0
		C87.2,138.4,86.8,138,86.2,138z"/>
	<path class="st0" d="M51,135.1v-5c0-0.6-0.4-1-1-1s-1,0.4-1,1v5c0,0.6,0.4,1,1,1S51,135.7,51,135.1z"/>
	<path class="st0" d="M56.2,138h-5c-0.6,0-1,0.4-1,1c0,0,0,0,0,0c0,0.6,0.4,1,1,1h5c0.6,0,1-0.4,1-1c0,0,0,0,0,0
		C57.2,138.4,56.8,138,56.2,138z"/>
	<path class="st0" d="M66.2,138h-5c-0.6,0-1,0.4-1,1c0,0,0,0,0,0c0,0.6,0.4,1,1,1h5c0.6,0,1-0.4,1-1c0,0,0,0,0,0
		C67.2,138.4,66.8,138,66.2,138z"/>
	<path class="st0" d="M73.4,127.5c0.8-0.5,1.4-1.3,1.9-2.3c0.4-1,0.7-2.1,0.7-3.4c0-1.9-0.4-3.3-1.3-4.3s-2-1.6-3.5-1.6
		c-1.7,0-3,0.7-3.9,2.1h0v-7.5h-3.7V128h3.7v-1.4h0c0.7,1.1,1.9,1.7,3.3,1.7C71.7,128.3,72.6,128,73.4,127.5z M67.8,124.7
		c-0.4-0.5-0.7-1.1-0.7-1.9v-1.2c0-0.9,0.2-1.6,0.7-2.1c0.5-0.6,1.1-0.8,1.8-0.8c0.8,0,1.4,0.3,1.8,0.8c0.4,0.5,0.6,1.3,0.6,2.3
		c0,1.2-0.2,2.1-0.7,2.8c-0.5,0.6-1.1,1-2,1C68.9,125.5,68.3,125.2,67.8,124.7z"/>
	<path class="st0" d="M79.4,117.6c-1.2,1.2-1.8,2.8-1.8,4.8c0,1.1,0.3,2.2,0.8,3.1c0.5,0.9,1.3,1.6,2.2,2.1c0.9,0.5,2,0.8,3.2,0.8
		c1.6,0,2.8-0.2,3.6-0.7v-3c-0.9,0.6-1.8,0.9-2.7,0.9c-1,0-1.8-0.3-2.4-0.9s-0.9-1.4-0.9-2.5c0-1,0.3-1.9,0.9-2.5
		c0.6-0.6,1.4-1,2.5-1c0.9,0,1.8,0.3,2.6,0.9v-3.1c-0.6-0.4-1.6-0.6-3-0.6C82.3,115.8,80.6,116.4,79.4,117.6z"/>
	<path class="st0" d="M94.6,115.8c-0.7,0-1.5,0.1-2.4,0.3c-0.9,0.2-1.6,0.4-2.1,0.7v2.8c1.3-0.8,2.6-1.3,4-1.3c1.4,0,2.1,0.7,2.1,2
		l-3.2,0.4c-2.7,0.4-4.1,1.7-4.1,4c0,1.1,0.3,2,1,2.6c0.7,0.7,1.6,1,2.7,1c1.6,0,2.7-0.7,3.5-2h0v1.7h3.5v-7.1
		C99.7,117.5,98,115.8,94.6,115.8z M96.2,123.2c0,0.7-0.2,1.3-0.7,1.8s-1,0.7-1.7,0.7c-0.5,0-0.9-0.1-1.2-0.4
		c-0.3-0.3-0.4-0.6-0.4-1c0-0.9,0.6-1.5,1.8-1.6l2.2-0.3V123.2z"/>
</g>
</svg>
