<svg width="101" height="51" viewBox="0 0 101 51" fill="none" xmlns="http://www.w3.org/2000/svg">
<path d="M29.6605 29.7151H26.5818L24.1611 31.6155H27.2399L29.6605 29.7151Z" fill="#89917B"/>
<path d="M23.7144 34.4075L27.2397 31.6155H24.161L18.215 36.3079H28.215L17.2515 44.9655H20.3419L33.7144 34.4075H23.7144Z" fill="#FAB330"/>
<path d="M27.0864 23.6267C27.0277 21.0224 24.9713 18.1717 20.882 17.7963C19.5659 17.679 18.0147 17.7846 16.4754 18.031C15.6646 18.8873 14.889 19.861 14.325 20.6235C16.2991 20.0135 18.2498 19.6147 19.7186 19.6733C23.5729 19.8258 24.983 21.7615 25.0418 23.6619C25.124 26.3366 23.0676 27.9438 18.144 28.7063L18.0853 28.718H10.7997L17.0512 23.7909H13.9724L7.72097 28.718L5.30029 30.6185H8.37902H18.097H18.2968C24.9008 30.2548 27.1687 27.0053 27.0864 23.6267Z" fill="#0BADE5"/>
<path d="M8.49658 22.9112C10.1065 22.1369 12.2334 21.2688 14.325 20.6236C14.8891 19.8611 15.6646 18.8991 16.4754 18.031C15.1123 18.2539 13.7492 18.5824 12.5624 18.9695C11.1288 20.389 9.43665 22.0196 8.49658 22.9112Z" fill="#1093DA"/>
<path d="M27.2393 31.6156H33.4555L33.7963 31.6039C35.1124 31.5804 36.3228 31.1698 37.2863 30.4777C38.6964 29.4805 39.6012 27.932 39.6012 26.1724C39.6012 23.1692 36.9455 20.7409 33.6671 20.7409C33.5378 20.7409 33.3968 20.7409 33.2675 20.7526C33.9138 18.5354 33.8081 15.2859 29.1077 13.0922C21.6224 9.60802 16.1817 15.2742 14.2428 17.2919C13.7963 17.7611 13.2088 18.3477 12.5742 18.9695C13.7611 18.5823 15.1124 18.2539 16.4873 18.031C16.6753 17.8315 16.8633 17.6438 17.0513 17.4561C18.8962 15.6965 22.774 12.4469 28.2381 14.9691C32.2217 16.8109 31.2464 20.166 30.6353 21.5151C30.4943 21.8318 30.3651 22.043 30.3416 22.0899C30.271 22.1838 30.13 22.4536 29.9655 22.7351H32.445H33.8551V22.7469C35.9467 22.8055 37.6271 24.3423 37.6271 26.231C37.6271 28.0845 36.0055 29.5978 33.9726 29.7034H33.4908H29.6953L27.2393 31.6156Z" fill="#0771BE"/>
<path d="M64.0084 21.2805H55.5239V23.1692H58.8025V31.5218H60.906V23.1692H64.0084V21.2805Z" fill="#595959"/>
<path d="M94.9949 21.2805H93.338H93.2322L90.2122 26.9936L87.1923 21.2805H87.0395H85.4414H85.0889V31.5218H87.0395V24.6239L89.66 29.809H90.7645L93.338 24.7177V31.5218H95.3004V21.2805H94.9949Z" fill="#595959"/>
<path d="M81.5867 31.5218H83.7606L81.3752 27.7092C82.4915 27.1695 83.2671 26.0199 83.2671 24.6943C83.2671 22.8408 81.8687 21.2805 80.0121 21.2805H77.5209H76.8276H75.4175V31.5335H77.5209V28.0611H79.4128L81.5867 31.5218ZM77.5209 23.0402H79.6008C80.5174 23.0402 81.2459 23.7792 81.2459 24.6825C81.2459 25.5858 80.5056 26.3249 79.6008 26.3249H77.5209V23.0402Z" fill="#595959"/>
<path d="M69.1427 21.1515C66.4517 21.1515 64.2778 23.4977 64.2778 26.3836C64.2778 29.2694 66.4635 31.6157 69.1427 31.6157C71.8219 31.6157 74.0076 29.2694 74.0076 26.3836C74.0076 23.4977 71.8336 21.1515 69.1427 21.1515ZM69.1427 29.7739C67.5681 29.7739 66.2872 28.2605 66.2872 26.3836C66.2872 24.5183 67.5681 22.9933 69.1427 22.9933C70.7173 22.9933 71.9982 24.5066 71.9982 26.3836C71.9982 28.2605 70.7173 29.7739 69.1427 29.7739Z" fill="#595959"/>
<path d="M53.7021 24.049L54.7245 22.3479C54.7245 22.3479 52.4213 20.8698 50.1064 21.3156C48.144 21.691 47.4389 23.0518 47.3802 24.3305C47.3214 25.574 47.7914 26.536 50.4354 27.1694C53.0793 27.8029 52.9383 28.671 52.8443 29.0229C52.7503 29.3749 52.104 30.372 50.0006 29.633C48.332 29.0464 47.8267 28.5772 47.8267 28.5772C47.8267 28.6358 46.9219 30.3016 46.9219 30.3016C46.9219 30.3016 48.0735 31.029 49.4131 31.5099C50.7409 32.0027 54.0194 31.9205 54.7362 29.8441C55.453 27.7677 54.3014 26.6181 53.4789 26.1488C52.6563 25.6796 50.9877 25.4215 50.3649 25.1751C49.7421 24.9171 49.1075 24.5534 49.6363 23.5328C50.1651 22.5122 52.4095 23.1574 53.7021 24.049Z" fill="#595959"/>
</svg>
