<svg data-slug-id="square-of-squares-alt" xmlns="http://www.w3.org/2000/svg" viewBox="0 0 48 48"><path d="M10.1133 0.00830078H0.00805664V10.1136H10.1133V0.00830078Z" fill="#0078D4"/><path d="M22.7452 0.00830078H12.6399V10.1136H22.7452V0.00830078Z" fill="#0078D4"/><path d="M35.3682 0.00830078H25.2629V10.1136H35.3682V0.00830078Z" fill="#0078D4"/><path d="M47.9998 0.00830078H37.8945V10.1136H47.9998V0.00830078Z" fill="#0078D4"/><path d="M10.1133 12.6399H0.00805664V22.7452H10.1133V12.6399Z" fill="#0078D4"/><path d="M22.7452 12.6399H12.6399V22.7452H22.7452V12.6399Z" fill="#0078D4"/><path d="M35.3682 12.6399H25.2629V22.7452H35.3682V12.6399Z" fill="#0078D4"/><path d="M47.9998 12.6399H37.8945V22.7452H47.9998V12.6399Z" fill="#0078D4"/><path d="M5.0607 25.2715C2.27332 25.2715 0.00805664 27.5368 0.00805664 30.3241C0.00805664 33.1115 2.27332 35.3768 5.0607 35.3768C7.84807 35.3768 10.1133 33.1115 10.1133 30.3241C10.1133 27.5283 7.84807 25.2715 5.0607 25.2715Z" fill="#50E6FF"/><path d="M17.6925 35.3682C14.9052 35.3682 12.6399 33.103 12.6399 30.3156C12.6399 27.5282 14.9052 25.2629 17.6925 25.2629C20.4799 25.2629 22.7452 27.5282 22.7452 30.3156C22.7452 33.103 20.4799 35.3682 17.6925 35.3682Z" fill="#50E6FF"/><path d="M30.3156 25.2715C27.5282 25.2715 25.2629 27.5368 25.2629 30.3241C25.2629 33.1115 27.5282 35.3768 30.3156 35.3768C33.103 35.3768 35.3682 33.1115 35.3682 30.3241C35.3682 27.5283 33.1114 25.2715 30.3156 25.2715Z" fill="#50E6FF"/><path d="M42.9472 25.2715C40.1598 25.2715 37.8945 27.5368 37.8945 30.3241C37.8945 33.1115 40.1598 35.3768 42.9472 35.3768C45.7345 35.3768 47.9998 33.1115 47.9998 30.3241C47.9998 27.5283 45.7345 25.2715 42.9472 25.2715Z" fill="#50E6FF"/><path d="M10.1133 37.8948H0.00805664V48.0001H10.1133V37.8948Z" fill="#0078D4"/><path d="M22.7452 37.8948H12.6399V48.0001H22.7452V37.8948Z" fill="#0078D4"/><path d="M35.3682 37.8948H25.2629V48.0001H35.3682V37.8948Z" fill="#0078D4"/><path d="M47.9998 37.8948H37.8945V48.0001H47.9998V37.8948Z" fill="#0078D4"/></svg>