<svg data-slug-id="translator-apis" xmlns="http://www.w3.org/2000/svg" viewBox="0 0 61 61">
<path d="M20.103 32.6824C18.5118 32.6824 16.9594 33.3421 15.407 34.6229L14.5532 35.3214V32.2943L14.7472 32.139C15.3682 31.6345 16.222 31.2076 17.2698 30.8971C18.3177 30.5478 19.288 30.3926 20.2194 30.3926C21.9658 30.3926 23.363 30.9359 24.3333 32.0614C25.3035 33.1481 25.7692 34.7393 25.7692 36.7574V47.4301H23.363V45.4508C22.9361 45.9553 22.4704 46.3823 21.927 46.7704C20.8792 47.4689 19.7149 47.8182 18.473 47.8182C16.8429 47.8182 15.5622 47.3525 14.592 46.4211C13.6217 45.4896 13.1172 44.2865 13.1172 42.8894C13.1172 39.8622 15.1353 38.0381 18.9775 37.456L23.363 36.7574C23.2466 33.9631 22.1987 32.6824 20.103 32.6824ZM19.6372 39.6293C18.0849 39.8622 16.9982 40.2115 16.416 40.6772C15.8727 41.1041 15.601 41.8027 15.601 42.8117C15.601 43.5879 15.8727 44.2477 16.3772 44.7522C16.8817 45.2568 17.6191 45.4896 18.5894 45.4896C19.9477 45.4896 21.0732 44.9851 21.9658 43.976C22.8585 42.967 23.3242 41.6474 23.3242 40.0174V39.086L19.6372 39.6293Z" fill="#0078D4"></path>
<path d="M40.0274 42.5158C40.2602 42.283 40.4543 42.0113 40.6095 41.7784L36.7285 38.2855L46.5474 37.7422C46.9743 37.7422 47.3236 38.0527 47.3236 38.4796L47.867 48.2597L44.2188 44.9996C40.9588 47.8328 35.9911 47.9104 32.6923 44.922C32.537 44.7668 32.3818 44.6504 32.2266 44.4951C34.9044 45.4266 38.0092 44.728 40.0274 42.5158Z" fill="#0078D4"></path>
<path d="M20.9568 20.7029C20.7239 20.9357 20.5299 21.2074 20.3746 21.4402L24.2556 24.9331L14.4367 25.4765C14.0098 25.4765 13.6605 25.166 13.6605 24.7391L13.1172 14.959L16.7653 18.219C20.0254 15.3859 24.993 15.3083 28.2919 18.2966C28.4471 18.4519 28.6023 18.5683 28.7576 18.7236C26.0797 17.7921 22.9749 18.4519 20.9568 20.7029Z" fill="#0078D4"></path>
<path d="M47.2093 15.1989L47.7138 15.1601L47.8303 17.1782L47.3257 17.217C45.036 17.3723 42.1252 17.4887 38.5159 17.5275C38.4771 18.1097 38.4383 18.7694 38.3995 19.468C39.2533 19.3128 40.1459 19.1964 41.155 19.1964C41.4266 19.1964 41.6983 19.1964 41.97 19.2352L42.2805 17.9544L44.2986 18.3813L44.1821 18.8859C44.1045 19.1187 44.0657 19.3128 43.9881 19.5845C44.6867 19.8173 45.3076 20.1278 45.8898 20.5547C47.4422 21.6414 48.2572 23.155 48.2572 25.0178C48.2572 26.9195 47.5974 28.5107 46.2779 29.6362C45.0748 30.6453 43.3283 31.3439 41.1162 31.6155L40.7281 31.6543L39.913 29.7138L40.5728 29.6362C42.3969 29.4034 43.7552 28.8988 44.6867 28.0838C45.6181 27.2688 46.0838 26.2598 46.0838 25.0178C46.0838 23.7759 45.5405 22.8445 44.4926 22.1071C44.1433 21.8742 43.794 21.6802 43.4059 21.5638C42.785 23.3878 42.0476 24.9402 41.1938 26.2986C39.3309 29.2093 37.0411 30.7229 34.3244 30.7229C33.1989 30.7229 32.3063 30.3736 31.6853 29.675C31.0644 29.0153 30.7539 28.0838 30.7539 26.9195C30.7539 24.8626 31.7242 23.0773 33.6646 21.5638C34.4408 20.9428 35.2947 20.4383 36.1873 20.089C36.2261 19.1963 36.2649 18.3425 36.3425 17.5275C35.8768 17.5275 35.3335 17.5275 34.3632 17.5275C33.0825 17.5275 32.4227 17.5275 31.6077 17.5275H31.1032V15.4706H31.6077C32.4227 15.4706 33.0825 15.4706 34.402 15.4706C35.4887 15.4706 36.0321 15.4706 36.5366 15.4706C36.6142 14.772 36.7306 14.0734 36.8859 13.2584L37.0023 12.7539L39.098 13.2196L38.9816 13.7242C38.8652 14.3063 38.7487 14.8496 38.6711 15.4706C42.2028 15.4318 45.0359 15.3154 47.2093 15.1989ZM41.155 21.2533C40.1459 21.2533 39.2145 21.3697 38.3607 21.5638V21.6026C38.3607 23.3878 38.4771 24.979 38.6711 26.3762C38.9428 26.0657 39.2145 25.6776 39.4473 25.2895C40.2235 24.0864 40.8445 22.7669 41.349 21.2533C41.3102 21.2533 41.2326 21.2533 41.155 21.2533ZM35.1006 23.1938C33.6647 24.3193 32.9273 25.6 32.9273 26.9583C32.9273 28.2391 33.3542 28.7436 34.3632 28.7436C35.1782 28.7436 35.9932 28.5107 36.7694 28.045C36.459 26.415 36.2649 24.5133 36.2261 22.3788C35.838 22.6504 35.4499 22.8833 35.1006 23.1938Z" fill="#0078D4"></path>
</svg>