<svg xmlns="http://www.w3.org/2000/svg" width="117.905" height="95" viewBox="0 0 117.905 95">
  <g id="Layer_2" data-name="Layer 2">
    <g id="Layer_1-2" data-name="Layer 1">
      <g opacity="0.2">
        <polygon points="10.286 39.905 10.286 21.619 60 21.619 60 49.048 10.286 49.048 0 49.048 10.286 39.905" fill="#00a2f2"/>
      </g>
      <g opacity="0.2">
        <polygon points="30.443 70.419 30.443 58.077 50.5 58.077 50.5 76.591 30.443 76.591 23.5 76.591 30.443 70.419" fill="#00a2f2"/>
      </g>
      <path d="M82.166,71.849A16.247,16.247,0,0,1,65.937,55.62V34.238a16.229,16.229,0,1,1,32.458,0V55.62A16.248,16.248,0,0,1,82.166,71.849Zm0-50.84A13.244,13.244,0,0,0,68.937,34.238V55.62a13.229,13.229,0,0,0,26.458,0V34.238A13.244,13.244,0,0,0,82.166,21.009Z" fill="#00a2f2"/>
      <g opacity="0.2">
        <path d="M103.9,27.238a1,1,0,0,1-1-1,13.723,13.723,0,0,0-.309-2.894,1,1,0,1,1,1.954-.424,15.682,15.682,0,0,1,.355,3.317,1,1,0,0,1-1,1Zm-2.2-7.718a1,1,0,0,1-.851-.474,13.862,13.862,0,0,0-3.069-3.48,1,1,0,1,1,1.258-1.555,15.83,15.83,0,0,1,3.512,3.982,1,1,0,0,1-.323,1.376A.988.988,0,0,1,101.7,19.521ZM94.07,13.354a1.008,1.008,0,0,1-.335-.058,13.569,13.569,0,0,0-4.568-.787,1,1,0,0,1,0-2,15.581,15.581,0,0,1,5.239.9,1,1,0,0,1-.335,1.942Z" fill="#00a2f2"/>
      </g>
      <path d="M65.167,94" fill="none" stroke="#00a2f2" stroke-miterlimit="10" stroke-width="3"/>
      <g>
        <path d="M82.166,78.595a21.524,21.524,0,0,1-21.5-21.5h3a18.5,18.5,0,0,0,37,0h3A21.524,21.524,0,0,1,82.166,78.595Z" fill="#00a2f2"/>
        <rect x="80.666" y="76.6" width="3" height="18.377" fill="#00a2f2"/>
        <rect x="74.666" y="92" width="15" height="3" fill="#00a2f2"/>
      </g>
      <g opacity="0.2">
        <path d="M116.9,28.747a1,1,0,0,1-1-1c0-.639-.024-1.286-.072-1.926a1,1,0,1,1,1.994-.148c.052.688.078,1.386.078,2.074A1,1,0,0,1,116.9,28.747Zm-.915-6.92a1,1,0,0,1-.965-.74,25.584,25.584,0,0,0-1.681-4.5,1,1,0,0,1,1.8-.873,27.594,27.594,0,0,1,1.813,4.853,1,1,0,0,1-.966,1.26Zm-4.332-8.943a1,1,0,0,1-.8-.405A26.127,26.127,0,0,0,107.647,8.9a1,1,0,1,1,1.361-1.465,28.069,28.069,0,0,1,3.453,3.858,1,1,0,0,1-.8,1.595Zm-7.288-6.767a1,1,0,0,1-.533-.154,25.749,25.749,0,0,0-4.283-2.178,1,1,0,1,1,.735-1.859,27.775,27.775,0,0,1,4.616,2.346,1,1,0,0,1-.535,1.846ZM95.128,2.466a1.027,1.027,0,0,1-.187-.018A25.681,25.681,0,0,0,90.158,2a1,1,0,0,1,0-2,27.759,27.759,0,0,1,5.155.483,1,1,0,0,1-.186,1.982Z" fill="#00a2f2"/>
      </g>
    </g>
  </g>
</svg>
