<svg viewBox="0 0 102 102" class="" role="presentation" focusable="false" xmlns="http://www.w3.org/2000/svg" xmlns:xlink="http://www.w3.org/1999/xlink" id="FxSymbol0-17f" data-type="1"><g><title></title><path d="M96.333 34v64.813a3.192 3.192 0 0 1-1.969 2.945c-.386.16-.801.242-1.22.242H8.856a3.193 3.193 0 0 1-2.255-.933 3.196 3.196 0 0 1-.934-2.254V34h90.666Z" fill="url(#59616712-f700-4139-92c6-bd98d17f0358)"></path><path d="M5.667 34h90.666v14.167H5.667V34Z" fill="url(#59616712-f700-4139-92c6-bd98d17f0359)"></path><path d="m17 34-5.667 11.333h11.334L28.333 34H17Zm22.667 0L34 45.333h11.333L51 34H39.667Zm22.666 0-5.666 11.333H68L73.667 34H62.333ZM85 34l-5.667 11.333h11.334L96.333 34H85Z" fill="#5EA0EF"></path><path d="M5.666 34.062 3.14 23.373a3.188 3.188 0 0 1 2.37-3.837L87.498.148a3.187 3.187 0 0 1 3.835 2.369l2.526 10.687L5.666 34.062Z" fill="url(#59616712-f700-4139-92c6-bd98d17f035a)"></path><path d="m85.737 3.475 8.124 9.728-11.03 2.606-8.121-9.725 11.027-2.609ZM63.678 8.692l8.122 9.729-11.03 2.606-8.119-9.727 11.027-2.608ZM41.62 13.905l8.123 9.732-11.03 2.607-8.121-9.727 11.028-2.612Zm-22.057 5.22 8.122 9.728-11.03 2.607-8.122-9.727 11.03-2.609Z" fill="#5EA0EF"></path><path d="m78.861 73.044-24.083-7.083-.6 2.04.419-2.086-21.25-4.25-.839 4.171 14.96 2.992-21.12 10.002 1.825 3.842 24.395-11.56 3.768 21.34 4.182-.736-3.655-20.706 20.797 6.114 1.201-4.08Z" fill="url(#59616712-f700-4139-92c6-bd98d17f035b)"></path><path d="M32.927 68a4.25 4.25 0 1 0 0-8.5 4.25 4.25 0 0 0 0 8.5Z" fill="#50E6FF"></path><path d="M32.927 68a4.25 4.25 0 1 0 0-8.5 4.25 4.25 0 0 0 0 8.5ZM27.26 85a4.25 4.25 0 1 0 0-8.5 4.25 4.25 0 0 0 0 8.5Zm31.167 11.334a4.25 4.25 0 1 0 0-8.5 4.25 4.25 0 0 0 0 8.5Zm19.833-17a4.25 4.25 0 1 0 0-8.5 4.25 4.25 0 0 0 0 8.5Z" fill="#9CEBFF"></path><path d="M69.393 67.01 47.36 54.77a1.133 1.133 0 0 0-1.683.99v24.48a1.132 1.132 0 0 0 1.683.991l22.033-12.24a1.134 1.134 0 0 0 0-1.98Z" fill="#C3F1FF"></path><defs></defs></g><defs>
<linearGradient id="59616712-f700-4139-92c6-bd98d17f0358" x1="51" y1="21.311" x2="51" y2="103.579" gradientUnits="userSpaceOnUse"><stop offset=".117" stop-color="#5EA0EF"></stop><stop offset=".271" stop-color="#4595E8"></stop><stop offset=".531" stop-color="#1F85DD"></stop><stop offset=".741" stop-color="#087CD6"></stop><stop offset=".873" stop-color="#0078D4"></stop></linearGradient>
<linearGradient id="59616712-f700-4139-92c6-bd98d17f0359" x1="51.149" y1="27.654" x2="50.888" y2="51.13" gradientUnits="userSpaceOnUse"><stop stop-color="#0078D4"></stop><stop offset="1" stop-color="#005BA1"></stop></linearGradient>
<linearGradient id="59616712-f700-4139-92c6-bd98d17f035a" x1="50.566" y1="26.326" x2="46.62" y2="9.633" gradientUnits="userSpaceOnUse"><stop stop-color="#005BA1"></stop><stop offset="1" stop-color="#0078D4"></stop></linearGradient>
<radialGradient id="59616712-f700-4139-92c6-bd98d17f035b" cx="0" cy="0" r="1" gradientUnits="userSpaceOnUse" gradientTransform="translate(54.926 67.489) scale(21.5203)"><stop offset=".004" stop-color="#5EA0EF"></stop><stop offset=".488" stop-color="#5EA0EF"></stop><stop offset=".781" stop-color="#76B0F5"></stop><stop offset="1" stop-color="#83B9F9"></stop></radialGradient>
</defs>
</svg>