<svg viewBox="0 0 56 56" class="" role="presentation" focusable="false" xmlns="http://www.w3.org/2000/svg" xmlns:xlink="http://www.w3.org/1999/xlink" id="FxSymbol0-180" data-type="1"><g><title></title><g clip-path="url(#59616712-f700-4139-92c6-bd98d17f035d)"><path d="M45.13 23.221A16.047 16.047 0 0 0 28.66 8.067a16.514 16.514 0 0 0-15.484 10.54A15.463 15.463 0 0 0 0 33.103a15.195 15.195 0 0 0 15.556 14.834h27.937A12.519 12.519 0 0 0 56 35.408 12.697 12.697 0 0 0 45.13 23.22Z" fill="url(#59616712-f700-4139-92c6-bd98d17f035c)"></path><path d="m42.89 31.727-13.96-5.186-.36.896.226-.821-12.394-2.729-.595 2.078 10.46 2.268-13.421 5.548 1.033 1.841 13.856-5.755 2.48 10.92 2.144-.265-2.527-11.271 12.236 4.473.822-1.997Z" fill="#83B9F9"></path><path d="M14.252 26.756a2.741 2.741 0 1 0 .485-3.846l-.062.05a2.722 2.722 0 0 0-.423 3.796Zm-3.111 9.697a2.757 2.757 0 1 0 4.334-3.408 2.757 2.757 0 0 0-4.334 3.408Zm28.815-2.395a2.729 2.729 0 1 0 .488-3.818 2.698 2.698 0 0 0-.504 3.777l.016.04Zm-10.833 8.418a2.728 2.728 0 1 0 .486-3.827 2.698 2.698 0 0 0-.52 3.787l.034.04Z" fill="#9CEBFF"></path><path d="M36.512 28.118a.822.822 0 0 0 0-1.424l-6.023-3.485-6.042-3.481a.822.822 0 0 0-1.244.712v13.932a.822.822 0 0 0 1.244.712l6.042-3.481 6.023-3.485Z" fill="#C3F1FF"></path></g><defs></defs></g><defs>
<linearGradient id="59616712-f700-4139-92c6-bd98d17f035c" x1="28" y1=".619" x2="28" y2="48.866" gradientUnits="userSpaceOnUse"><stop offset=".117" stop-color="#5EA0EF"></stop><stop offset=".271" stop-color="#4595E8"></stop><stop offset=".531" stop-color="#1F85DD"></stop><stop offset=".741" stop-color="#087CD6"></stop><stop offset=".873" stop-color="#0078D4"></stop></linearGradient>
<clipPath id="59616712-f700-4139-92c6-bd98d17f035d"><path d="M0 0h56v56H0z" class="msportalfx-svg-c01"></path></clipPath>
</defs>
</svg>