<?xml version="1.0" encoding="utf-8"?>
<!-- Generator: Adobe Illustrator 21.1.0, SVG Export Plug-In . SVG Version: 6.00 Build 0)  -->
<svg version="1.1" id="Layer_1" xmlns="http://www.w3.org/2000/svg" xmlns:xlink="http://www.w3.org/1999/xlink" x="0px" y="0px" viewBox="0 0 376 260" style="enable-background:new 0 0 376 260;" xml:space="preserve">
<style type="text/css">
	.st0{fill:#CCEEFB;}
	.st1{fill:#333333;}
	.st2{fill:#FFFFFF;}
	.st3{fill:#BAD80A;}
	.st4{fill:#DCDCDC;}
	.st5{fill:#CFE454;}
	.st6{fill:#DD5900;}
	.st7{fill:#FFAE4D;}
	.st8{fill:#0078D6;}
	.st9{fill:#4DA1E2;}
</style>

<g id="Layer_2">
	<g id="Layer_1-2">
		<path class="st0" d="M298.9,150.9H294c-1.3-30.4-26.4-54.4-56.8-54.3c-26.7,0-48.4,18.3-55.5,42.3c-8-8.1-18.8-12.7-30.2-12.7    c-21.8,0-40,16.9-42.1,38.8c-7,0.7-14,4.2-19.7,9.2c-4.2-6.3-11.4-10-19-9.9c-13.3,0-23.8,10.6-23.8,23.3    c-0.1,13.1,10.4,23.8,23.5,24c0.1,0,0.3,0,0.4,0H301c15.8-1.3,28-14.5,28.1-30.3c0.2-16.6-13.1-30.2-29.6-30.4    C299.3,150.9,299.1,150.9,298.9,150.9z" />
		<polygon class="st1" points="134.3,151 163.6,151 163.6,167.7 134.3,167.7 134.3,151   " />
		<path class="st2" d="M166.6,167.7h-35.3c-2.4,0-4.3,1.4-4.3,3v0.3c0,1.6,2,3,4.3,3h35.3c2.3,0,4.3-1.4,4.3-3v-0.3    C170.9,169,168.9,167.7,166.6,167.7" />
		<path class="st2" d="M134.3,174h30.3v70c0,5.2-6.7,9.5-15,9.5h-0.4c-8.3,0-15-4.2-15-9.5L134.3,174" />
		<path class="st3" d="M134.3,195.9h30.3V244c0,5.2-6.7,9.4-15,9.4h-0.4c-8.3,0-15-4.2-15-9.4L134.3,195.9" />
		<polygon class="st4" points="158.3,174 164.6,174 164.6,195.9 158.3,195.9 158.3,174   " />
		<path class="st3" d="M140.6,186.5c0-1.7,2.1-3.1,4.7-3.1s4.7,1.4,4.7,3.1c0,1.7-2.1,3.1-4.7,3.1    C142.7,189.6,140.6,188.2,140.6,186.5L140.6,186.5z" />
		<path class="st5" d="M142.7,232c0-2,2.6-3.7,5.8-3.7c3.2,0,5.8,1.6,5.8,3.7s-2.6,3.7-5.8,3.7C145.2,235.6,142.7,234,142.7,232z" />
		<path class="st5" d="M151,210c0-0.9,0.9-1.6,2.1-1.6s2.1,0.7,2.1,1.6c0,0.9-0.9,1.6-2.1,1.6S151,210.9,151,210z" />
		<path class="st3" d="M151,179.2c0-0.6,0.9-1,2.1-1s2.1,0.5,2.1,1s-0.9,1-2.1,1S151,179.7,151,179.2z" />
		<path class="st5" d="M138.5,218.4c0-0.9,0.9-1.6,2.1-1.6s2.1,0.7,2.1,1.6c0,0.9-0.9,1.6-2.1,1.6S138.5,219.3,138.5,218.4z" />
		<polygon class="st1" points="185.5,151 214.8,151 214.8,168.7 185.5,168.7 185.5,151   " />
		<path class="st2" d="M216.4,167.7h-34.6c-2.7,0-4.7,1.1-4.7,2.5v0.2c0,1.4,1.9,2.5,4.7,2.5h34.6c2.7,0,4.7-1.1,4.7-2.5v-0.2    C221.1,168.8,219.1,167.7,216.4,167.7" />
		<path class="st2" d="M184.5,172.9h30.3v70.9c0,5.3-6.7,9.6-15,9.6h-0.4c-8.3,0-15-4.3-15-9.6L184.5,172.9" />
		<path class="st6" d="M184.5,210.5h30.3v33.2c0,5.3-6.7,9.6-15,9.6h-0.4c-8.3,0-15-4.3-15-9.6L184.5,210.5" />
		<polygon class="st4" points="208.5,172.9 214.8,172.9 214.8,210.6 208.5,210.6 208.5,172.9   " />
		<path class="st7" d="M187.6,191.7c0-1.7,2.1-3.1,4.7-3.1s4.7,1.4,4.7,3.1c0,1.7-2.1,3.1-4.7,3.1S187.6,193.5,187.6,191.7z" />
		<path class="st7" d="M192.8,232c0-2,2.6-3.7,5.8-3.7s5.8,1.6,5.8,3.7s-2.6,3.7-5.8,3.7S192.8,234,192.8,232z" />
		<path class="st7" d="M201.2,203.8c0-0.9,0.9-1.6,2.1-1.6s2.1,0.7,2.1,1.6c0,0.9-0.9,1.6-2.1,1.6S201.2,204.6,201.2,203.8z" />
		<path class="st7" d="M199.1,182.3c0-0.6,0.7-1,1.6-1s1.6,0.5,1.6,1s-0.7,1-1.6,1S199.1,182.9,199.1,182.3z" />
		<path class="st7" d="M187.6,217.3c0-0.9,1.2-1.6,2.6-1.6s2.6,0.7,2.6,1.6c0,0.9-1.2,1.6-2.6,1.6S187.6,218.2,187.6,217.3z" />
		<polygon class="st1" points="234.7,151 263.9,151 263.9,168.7 234.7,168.7 234.7,151   " />
		<path class="st2" d="M267,167.7h-34.4c-2.3,0-4.2,1.1-4.2,2.5v0.2c0,1.4,1.9,2.5,4.2,2.5H267c2.3,0,4.2-1.1,4.2-2.5v-0.2    C271.2,168.8,269.3,167.7,267,167.7" />
		<path class="st2" d="M235.7,172.9H265v70c0,5.2-6.6,9.5-14.2,9.5h-0.4c-8.1,0-14.6-4.2-14.6-9.5L235.7,172.9" />
		<path class="st8" d="M235.7,203.2H265v39.7c0,5.2-6.6,9.5-14.2,9.5h-0.4c-8.1,0-14.6-4.2-14.6-9.5L235.7,203.2" />
		<polygon class="st4" points="258.7,172.9 265,172.9 265,203.2 258.7,203.2 258.7,172.9   " />
		<path class="st9" d="M238.8,194.3c0-1.4,2.1-2.6,4.7-2.6s4.7,1.2,4.7,2.6s-2.1,2.6-4.7,2.6S238.8,195.8,238.8,194.3z" />
		<path class="st9" d="M243,232c0-2,2.6-3.7,5.8-3.7s5.8,1.6,5.8,3.7s-2.6,3.7-5.8,3.7S243,234,243,232z" />
		<path class="st9" d="M251.4,209c0-0.9,0.9-1.6,2.1-1.6s2.1,0.7,2.1,1.6c0,0.9-0.9,1.6-2.1,1.6S251.4,209.9,251.4,209z" />
		<path class="st9" d="M238.8,217.3c0-0.9,0.9-1.6,2.1-1.6s2.1,0.7,2.1,1.6c0,0.9-0.9,1.6-2.1,1.6S238.8,218.2,238.8,217.3z" />
	</g>
</g>
</svg>